<svg width="160" height="33" viewBox="0 0 160 33" fill="none" xmlns="http://www.w3.org/2000/svg">
<path d="M50.4332 16.233H54.1742V23.3989C52.2224 24.8646 49.62 25.6789 47.0176 25.6789C41.4875 25.6789 37.4212 21.9331 37.4212 16.5587C37.4212 11.1843 41.4875 7.43848 47.1802 7.43848C50.2706 7.43848 52.873 8.5785 54.4995 10.5328L51.8971 12.9758C50.5959 11.6729 49.132 11.0214 47.3429 11.0214C43.9272 11.0214 41.6501 13.3015 41.6501 16.7216C41.6501 19.9788 43.9272 22.4217 47.3429 22.4217C48.4814 22.4217 49.4573 22.2588 50.4332 21.6074V16.233Z" fill="#222935"/>
<path d="M71.5778 22.0959V25.3532H57.9152V7.76416H71.2525V11.0214H61.9814V14.93H70.1139V18.1873H61.9814V22.2588H71.5778V22.0959Z" fill="#222935"/>
<path d="M78.4091 11.0214H72.7163V7.76416H88.0055V11.0214H82.3127V25.3532H78.2464V11.0214H78.4091Z" fill="#222935"/>
<path d="M90.4452 7.76416H94.5115V22.0959H103.295V25.3532H90.4452V7.76416Z" fill="#ED1C24"/>
<path d="M119.234 22.0959V25.3532H105.572V7.76416H118.909V11.0214H109.638V14.93H117.77V18.1873H109.638V22.2588H119.234V22.0959Z" fill="#ED1C24"/>
<path d="M134.035 21.6074H125.903L124.276 25.3532H120.048L127.855 7.76416H131.921L139.891 25.3532H135.662L134.035 21.6074ZM132.734 18.513L129.969 11.8357L127.204 18.513H132.734Z" fill="#ED1C24"/>
<path d="M141.843 7.76416H149.813C155.505 7.76416 159.572 11.1842 159.572 16.5587C159.572 21.9331 155.668 25.3532 149.813 25.3532H141.843V7.76416ZM149.487 22.0959C153.066 22.0959 155.343 19.9787 155.343 16.5587C155.343 13.1386 153.066 11.0214 149.487 11.0214H145.746V21.9331H149.487V22.0959Z" fill="#ED1C24"/>
<path d="M18.7163 31.7045C10.2585 33.496 1.96334 27.9587 0.33684 19.6528C-1.45231 11.184 4.0778 2.87812 12.373 1.08665C17.7404 -0.05338 23.1079 1.73809 26.6862 5.4839L15.626 16.3956L10.2585 10.8583L8.30671 11.184L7.98141 13.1384L15.4633 20.7928L28.638 7.92681C29.6139 9.55542 30.4272 11.3469 30.7525 13.1384C32.7043 21.6071 27.1741 29.9131 18.7163 31.7045Z" fill="#ED1C24"/>
</svg>
