<svg width="32" height="32" viewBox="0 0 32 32" fill="none" xmlns="http://www.w3.org/2000/svg">
<path d="M26 5H6C5.44772 5 5 5.44772 5 6V26C5 26.5523 5.44772 27 6 27H26C26.5523 27 27 26.5523 27 26V6C27 5.44772 26.5523 5 26 5Z" stroke="#FF4B4B" stroke-width="2" stroke-linecap="round" stroke-linejoin="round"/>
<path d="M4.99902 20H9.58481C9.71613 20 9.84617 20.0259 9.96749 20.0761C10.0888 20.1264 10.1991 20.2 10.2919 20.2929L12.7061 22.7071C12.799 22.8 12.9092 22.8736 13.0306 22.9239C13.1519 22.9741 13.2819 23 13.4132 23H18.5848C18.7161 23 18.8462 22.9741 18.9675 22.9239C19.0888 22.8736 19.1991 22.8 19.2919 22.7071L21.7061 20.2929C21.799 20.2 21.9092 20.1264 22.0306 20.0761C22.1519 20.0259 22.2819 20 22.4132 20H26.999" stroke="#FF4B4B" stroke-width="2" stroke-linecap="round" stroke-linejoin="round"/>
</svg>
