<svg width="497" height="311" viewBox="0 0 497 311" fill="none" xmlns="http://www.w3.org/2000/svg">
<g clip-path="url(#clip0_2731_5874)">
<path d="M82.2999 264.836C78.6033 264.836 39.1333 243.296 24.2101 214.934C15.7616 198.816 16.4177 183.365 26.2467 169.062C46.6519 139.33 101.233 143.64 149.386 147.447C179.865 149.849 208.656 152.121 222.901 144.884C242.867 134.736 238.759 119.65 234.007 102.185C230.237 88.3492 226.346 74.0515 234.201 60.6898C242.861 45.964 254.51 41.6148 262.758 40.5646C275.668 38.9207 288.429 44.0805 294.385 50.0279C294.536 50.1902 294.618 50.4048 294.614 50.6266C294.61 50.8485 294.52 51.0601 294.364 51.2169C294.207 51.3738 293.995 51.4637 293.774 51.4676C293.552 51.4715 293.338 51.3891 293.175 51.2379C287.665 45.7243 275.2 40.7015 262.975 42.2654C251.692 43.7038 242.233 50.3761 235.673 61.5574C228.183 74.2969 231.982 88.2465 235.673 101.734C240.419 119.165 244.903 135.632 223.694 146.408C209.021 153.868 180.002 151.579 149.277 149.153C101.581 145.386 47.5247 141.117 27.6785 170.032C18.4314 183.502 17.6213 198.028 25.2655 213.199C32.9096 228.37 47.3365 240.973 58.101 248.883C70.6511 258.107 81.0163 263.078 82.3227 263.153C82.5481 263.159 82.7623 263.253 82.9191 263.415C83.0759 263.577 83.1628 263.795 83.1612 264.02C83.1538 264.242 83.0592 264.452 82.898 264.605C82.7368 264.758 82.5219 264.841 82.2999 264.836Z" fill="black"/>
<path d="M325.749 55.473L318.726 52.6192C318.357 52.4688 318.021 52.247 317.737 51.9663C317.453 51.6856 317.228 51.3517 317.074 50.9837C316.92 50.6156 316.839 50.2207 316.838 49.8216C316.837 49.4225 316.914 49.0271 317.066 48.6581C317.216 48.2891 317.438 47.9533 317.718 47.6701C317.998 47.3868 318.331 47.1616 318.699 47.0074C319.066 46.8531 319.46 46.7728 319.858 46.771C320.256 46.7693 320.651 46.8461 321.019 46.9971L328.042 49.851C328.411 50.0014 328.748 50.2232 329.031 50.5038C329.315 50.7843 329.541 51.1181 329.695 51.486C329.85 51.8539 329.931 52.2487 329.933 52.6478C329.935 53.047 329.858 53.4426 329.708 53.8121C329.557 54.1813 329.335 54.5172 329.054 54.8005C328.773 55.0838 328.44 55.309 328.072 55.4632C327.704 55.6175 327.31 55.6977 326.911 55.6994C326.513 55.7011 326.117 55.6242 325.749 55.473Z" fill="#0B0705"/>
<path d="M319.012 71.9909L311.983 69.137C311.614 68.9861 311.279 68.7639 310.996 68.4831C310.712 68.2023 310.487 67.8684 310.333 67.5006C310.179 67.1327 310.099 66.7381 310.097 66.3392C310.096 65.9404 310.172 65.5451 310.323 65.1759C310.473 64.8057 310.695 64.4687 310.975 64.1842C311.255 63.8997 311.588 63.6732 311.956 63.5179C312.324 63.3626 312.719 63.2813 313.118 63.2789C313.517 63.2764 313.913 63.3528 314.282 63.5036L321.305 66.3574C322.049 66.6635 322.642 67.2523 322.953 67.9948C323.264 68.7373 323.268 69.5729 322.965 70.3185C322.815 70.6881 322.594 71.0245 322.314 71.3085C322.034 71.5925 321.701 71.8187 321.334 71.974C320.967 72.1293 320.573 72.2107 320.175 72.2136C319.776 72.2165 319.381 72.1408 319.012 71.9909Z" fill="#0B0705"/>
<path d="M282.645 53.4691L292.959 57.6828C295.64 58.7778 298.7 57.4913 299.794 54.8094L302.285 48.7061C303.379 46.0241 302.094 42.9622 299.413 41.8672L289.099 37.6535C286.418 36.5585 283.358 37.845 282.263 40.527L279.773 46.6302C278.678 49.3122 279.964 52.3741 282.645 53.4691Z" fill="#E53949"/>
<path d="M294.949 58.9375C294.167 58.9325 293.392 58.7775 292.668 58.4809L282.359 54.2686C280.862 53.6561 279.669 52.4742 279.043 50.9824C278.416 49.4906 278.406 47.8108 279.017 46.3121L281.504 40.2106C282.117 38.7137 283.299 37.5215 284.79 36.8955C286.28 36.2695 287.959 36.2609 289.456 36.8716L299.77 41.0839C301.267 41.6962 302.459 42.8785 303.085 44.3706C303.711 45.8627 303.719 47.5425 303.107 49.0404L300.62 55.1362C300.161 56.2584 299.379 57.2188 298.373 57.8956C297.368 58.5724 296.184 58.9351 294.972 58.9375H294.949ZM282.97 52.659L293.284 56.8713C294.359 57.3067 295.563 57.2984 296.632 56.8481C297.701 56.3977 298.548 55.5421 298.988 54.4684L301.481 48.3669C301.916 47.2904 301.907 46.0853 301.456 45.0156C301.004 43.9458 300.148 43.0985 299.074 42.6592L288.766 38.4469C287.69 38.0134 286.486 38.0233 285.417 38.4746C284.348 38.9258 283.501 39.7818 283.061 40.8556L280.58 46.9514C280.144 48.0271 280.153 49.2316 280.603 50.3012C281.053 51.3709 281.908 52.2186 282.981 52.659H282.97Z" fill="black"/>
<path d="M311.222 74.366L290.625 65.9517C288.693 65.1626 287.154 63.6381 286.346 61.7136C285.538 59.7891 285.527 57.6221 286.315 55.6895L293.276 38.6322C294.065 36.6995 295.588 35.1596 297.512 34.351C299.435 33.5424 301.601 33.5314 303.533 34.3205L324.13 42.7348L311.222 74.366Z" fill="white"/>
<path d="M311.259 75.2045C311.148 75.2041 311.037 75.1828 310.934 75.1417L290.34 66.7229C289.28 66.2905 288.314 65.6532 287.5 64.8473C286.685 64.0415 286.038 63.0829 285.594 62.0265C285.15 60.97 284.918 59.8364 284.912 58.6904C284.907 57.5443 285.127 56.4084 285.56 55.3475L292.519 38.2929C293.397 36.152 295.087 34.4468 297.22 33.5512C299.352 32.6556 301.753 32.6428 303.894 33.5156L324.488 41.9287C324.595 41.9705 324.693 42.0337 324.776 42.1145C324.858 42.1954 324.923 42.2921 324.967 42.3989C325.011 42.5057 325.032 42.6203 325.03 42.7358C325.028 42.8512 325.003 42.965 324.956 43.0703L312.052 74.6965C311.964 74.9061 311.798 75.0737 311.59 75.1645C311.483 75.1993 311.371 75.2128 311.259 75.2045ZM300.603 34.5772C299.203 34.5753 297.835 34.9914 296.673 35.7724C295.512 36.5534 294.61 37.6635 294.083 38.9607L287.123 56.0153C286.424 57.7359 286.436 59.6635 287.156 61.3755C287.875 63.0874 289.244 64.4439 290.962 65.1476L310.768 73.2068L323.028 43.1673L303.221 35.0738C302.382 34.7376 301.484 34.5689 300.58 34.5772H300.603Z" fill="black"/>
<path d="M295.514 71.8197C295.934 71.9912 296.405 71.9889 296.823 71.8134C297.241 71.6379 297.573 71.3035 297.745 70.8836L312.086 35.7414C312.256 35.322 312.253 34.8524 312.077 34.4353C311.902 34.0182 311.569 33.6875 311.151 33.5154C310.731 33.3457 310.262 33.3489 309.845 33.5243C309.428 33.6997 309.098 34.033 308.926 34.4515L294.579 69.5937C294.409 70.0131 294.412 70.4827 294.588 70.8998C294.763 71.3169 295.096 71.6476 295.514 71.8197Z" fill="#0B0705"/>
<path d="M139.135 97.4072C137.549 97.4072 135.9 96.454 134.229 94.5533C128.524 88.0922 123.824 72.5902 122.072 66.2261C118.832 54.4341 117.115 43.4696 117.896 39.5656C117.925 39.449 117.977 39.3397 118.05 39.2448C118.123 39.1498 118.216 39.0712 118.321 39.0142C118.426 38.9572 118.543 38.9229 118.662 38.9137C118.782 38.9044 118.902 38.9204 119.015 38.9605C119.494 39.1204 130.658 42.9559 133.367 46.7572C135.649 49.9421 147.127 85.5694 142.797 94.873C141.884 96.825 140.469 97.333 139.448 97.4129L139.135 97.4072ZM119.448 40.9012C118.769 50.0334 126.95 83.7601 135.512 93.4118C136.91 94.9928 138.193 95.7462 139.311 95.6663C139.848 95.6207 140.629 95.4152 141.24 94.1081C145.233 85.5466 134.155 50.7754 131.97 47.7104C130.173 45.239 123.053 42.231 119.448 40.9126V40.9012Z" fill="#0B0705"/>
<path d="M139.135 97.4072C137.549 97.4072 135.9 96.454 134.229 94.5533C128.524 88.0922 123.824 72.5902 122.072 66.2261C118.832 54.4341 117.115 43.4696 117.896 39.5656C117.925 39.449 117.977 39.3397 118.05 39.2448C118.123 39.1498 118.216 39.0712 118.321 39.0142C118.426 38.9572 118.543 38.9229 118.662 38.9137C118.782 38.9044 118.902 38.9204 119.015 38.9605C119.494 39.1204 130.658 42.9559 133.367 46.7572C135.649 49.9421 147.127 85.5694 142.797 94.873C141.884 96.825 140.469 97.333 139.448 97.4129L139.135 97.4072ZM119.448 40.9012C118.769 50.0334 126.95 83.7601 135.512 93.4118C136.91 94.9928 138.193 95.7462 139.311 95.6663C139.848 95.6207 140.629 95.4152 141.24 94.1081C145.233 85.5466 134.155 50.7754 131.97 47.7104C130.173 45.239 123.053 42.231 119.448 40.9126V40.9012Z" fill="#0B0705"/>
<path d="M160.67 168.81L151.639 178.034L159.922 188.696L168.553 176.476L160.67 168.81Z" fill="white"/>
<mask id="mask0_2731_5874" style="mask-type:luminance" maskUnits="userSpaceOnUse" x="151" y="168" width="18" height="21">
<path d="M160.67 168.805L151.639 178.028L159.922 188.69L168.553 176.476L160.67 168.805Z" fill="white"/>
</mask>
<g mask="url(#mask0_2731_5874)">
<path d="M152.997 166.944L164.172 186.818L171.776 175.751L163.642 157.212L152.997 166.944Z" fill="#0B0705"/>
</g>
<path d="M159.922 189.552C159.792 189.551 159.664 189.521 159.548 189.464C159.431 189.406 159.329 189.323 159.249 189.221L150.96 178.553C150.826 178.39 150.758 178.182 150.769 177.97C150.781 177.759 150.872 177.559 151.023 177.412L160.088 168.205C160.248 168.045 160.466 167.955 160.692 167.955C160.919 167.955 161.137 168.045 161.297 168.205L169.175 175.871C169.322 176.012 169.413 176.202 169.432 176.405C169.451 176.608 169.396 176.812 169.278 176.978L160.624 189.187C160.546 189.295 160.444 189.384 160.327 189.448C160.209 189.511 160.078 189.547 159.945 189.552H159.922ZM152.774 178.097L159.894 187.257L167.429 176.578L160.687 170.015L152.774 178.097Z" fill="#272332"/>
<path d="M154.183 175.945L161.371 187.36L159.352 199.232C159.352 199.232 166.095 201.795 166.032 204.175L151.736 203.798L142.911 177.332L154.183 175.945Z" fill="white"/>
<path d="M166.032 205.054L151.736 204.677C151.562 204.673 151.394 204.617 151.253 204.515C151.113 204.413 151.007 204.27 150.949 204.107L142.095 177.6C142.052 177.479 142.038 177.349 142.051 177.221C142.065 177.093 142.108 176.969 142.176 176.86C142.244 176.75 142.335 176.657 142.444 176.588C142.552 176.519 142.675 176.474 142.803 176.459L154.075 175.054C154.237 175.034 154.401 175.06 154.549 175.13C154.696 175.199 154.821 175.31 154.908 175.448L162.095 186.864C162.205 187.043 162.248 187.255 162.215 187.463L160.31 198.65C162.478 199.54 166.95 201.675 166.882 204.158C166.888 204.273 166.87 204.389 166.831 204.497C166.791 204.606 166.729 204.705 166.649 204.789C166.57 204.873 166.474 204.94 166.368 204.985C166.262 205.031 166.147 205.054 166.032 205.054ZM152.341 202.982L164.691 203.307C163.704 202.257 161.314 200.922 159.032 200.054C158.846 199.983 158.691 199.85 158.592 199.677C158.493 199.504 158.457 199.303 158.49 199.107L160.453 187.56L153.733 176.864L144.035 178.074L152.341 202.982Z" fill="#272332"/>
<path d="M114.616 9.14932C114.616 9.14932 97.8792 4.9713 91.7639 18.6697C85.6486 32.3682 70.2006 24.3774 55.9335 37.9046C35.1061 57.6246 54.9181 84.7076 76.47 82.1106C98.0219 79.5136 115.649 59.765 111.599 39.069C109.163 26.8431 110.954 13.3273 114.616 9.14932Z" fill="#0B0705"/>
<path d="M110.406 130.198L179.152 129.182L152.501 165.54L171.725 191.407C171.725 191.407 195.901 152.64 205.222 131.95C209.592 122.247 207.635 114.422 204.931 110.832C198.377 102.087 175.661 105.438 163.134 105.124C150.607 104.81 126.431 103.982 126.431 103.982L110.406 130.198Z" fill="#E53949"/>
<mask id="mask1_2731_5874" style="mask-type:luminance" maskUnits="userSpaceOnUse" x="110" y="103" width="98" height="89">
<path d="M110.406 130.198L179.152 129.182L152.501 165.54L171.725 191.407C171.725 191.407 195.901 152.64 205.222 131.95C209.592 122.247 207.635 114.422 204.931 110.832C198.377 102.087 175.661 105.438 163.134 105.124C150.607 104.81 126.431 103.982 126.431 103.982L110.406 130.198Z" fill="white"/>
</mask>
<g mask="url(#mask1_2731_5874)">
<path d="M141.137 71.717C124.514 82.0422 97.5083 108.817 90.6001 111.836C90.6001 111.836 88.5578 128.451 98.7576 133.115C108.957 137.778 118.028 135.152 122.009 131.853C126.864 127.829 150.025 94.0569 150.025 94.0569L154.731 70.1588C152.717 69.1257 146.773 68.2182 141.137 71.717Z" fill="#0B0705"/>
</g>
<path d="M171.725 192.263C171.592 192.262 171.46 192.231 171.342 192.17C171.223 192.11 171.12 192.022 171.04 191.915L151.816 166.048C151.706 165.901 151.646 165.723 151.646 165.54C151.646 165.356 151.706 165.178 151.816 165.032L177.452 130.061L110.424 131.054C110.273 131.055 110.125 131.015 109.995 130.94C109.865 130.865 109.757 130.756 109.682 130.626C109.605 130.493 109.564 130.343 109.564 130.189C109.564 130.036 109.605 129.885 109.682 129.753L125.706 103.497C125.785 103.368 125.897 103.263 126.031 103.192C126.164 103.12 126.314 103.086 126.465 103.092C126.704 103.092 150.784 103.965 163.157 104.234C165.912 104.296 169.192 104.182 172.661 104.062C184.954 103.634 200.254 103.098 205.622 110.261C208.588 114.216 210.471 122.35 206.01 132.253C196.768 152.812 172.695 191.47 172.45 191.858C172.377 191.977 172.275 192.076 172.155 192.147C172.035 192.217 171.899 192.257 171.759 192.263H171.725ZM153.562 165.534L171.662 189.883C175.61 183.496 196.118 150.089 204.446 131.596C208.599 122.373 206.934 114.918 204.247 111.334C199.415 104.884 184.612 105.404 172.718 105.82C169.221 105.94 165.918 106.054 163.111 105.992C151.702 105.723 130.43 104.97 126.898 104.85L111.947 129.324L179.141 128.331C179.301 128.326 179.459 128.366 179.597 128.448C179.735 128.53 179.846 128.65 179.917 128.794C179.989 128.935 180.021 129.094 180.008 129.252C179.995 129.411 179.937 129.562 179.843 129.69L153.562 165.534Z" fill="#0B0705"/>
<path d="M88.7805 43.15C88.7805 43.15 105.483 32.0771 123.35 41.5976C123.35 41.5976 134.725 86.4942 126.619 99.6389C126.619 99.6389 86.6527 107.464 87.4912 107.464C88.3298 107.464 83.5779 99.0796 82.7393 78.9258C81.9008 58.772 88.7805 43.15 88.7805 43.15Z" fill="white"/>
<path d="M91.0393 67.5391L91.4272 92.0193L82.106 101.739L91.0393 67.5391Z" fill="#0B0705"/>
<path d="M87.4625 108.32C87.2482 108.319 87.0418 108.239 86.8821 108.096C86.7224 107.953 86.6205 107.757 86.5954 107.544C86.568 107.371 86.5857 107.194 86.6468 107.03C86.5669 106.699 86.3957 106.169 86.236 105.643C85.0951 102.025 82.4653 93.5488 81.8549 78.9771C81.4034 66.6293 83.4846 54.3198 87.9702 42.8076C88.0427 42.6435 88.1643 42.5059 88.3182 42.4138C88.495 42.311 106.573 31.7689 125.512 41.6375C125.709 41.7432 125.857 41.9214 125.925 42.1344C125.993 42.3474 125.976 42.5786 125.877 42.779C125.773 42.9773 125.594 43.1263 125.381 43.1936C125.167 43.261 124.935 43.2412 124.736 43.1386C107.805 34.3089 91.5812 42.5679 89.442 43.7379C85.1361 54.9479 83.1376 66.9126 83.5663 78.9144C84.1652 93.2578 86.7608 101.585 87.8675 105.141C88.0273 105.661 88.1585 106.066 88.2497 106.397L88.9514 106.248L93.3896 105.341C97.0576 104.599 101.946 103.629 106.847 102.658L126.048 98.8912C129.625 92.6128 129.471 77.6358 125.649 56.6544C125.629 56.542 125.631 56.4267 125.655 56.315C125.679 56.2034 125.726 56.0977 125.791 56.0039C125.856 55.9101 125.939 55.83 126.035 55.7683C126.131 55.7066 126.238 55.6644 126.351 55.6442C126.463 55.6239 126.578 55.626 126.69 55.6504C126.801 55.6747 126.907 55.7208 127.001 55.7859C127.095 55.8511 127.175 55.9342 127.236 56.0303C127.298 56.1264 127.34 56.2338 127.36 56.3462C130.173 71.7227 132.455 91.7966 127.36 100.09C127.298 100.192 127.215 100.279 127.117 100.347C127.018 100.415 126.907 100.461 126.79 100.484C112.072 103.366 90.0296 107.721 87.9017 108.24C87.7635 108.301 87.6131 108.328 87.4625 108.32Z" fill="#0B0705"/>
<path d="M187.418 129.918L199.198 123.931L192.25 114.599L180.476 120.586L187.418 129.918Z" fill="white"/>
<path d="M187.418 130.774C187.285 130.775 187.153 130.744 187.034 130.683C186.915 130.623 186.812 130.535 186.734 130.426L179.791 121.094C179.716 120.995 179.663 120.879 179.638 120.757C179.612 120.635 179.614 120.508 179.643 120.386C179.671 120.265 179.725 120.15 179.802 120.052C179.879 119.953 179.977 119.873 180.088 119.816L191.862 113.828C192.042 113.736 192.25 113.71 192.447 113.756C192.645 113.802 192.819 113.917 192.94 114.079L199.883 123.434C199.957 123.535 200.008 123.65 200.034 123.772C200.059 123.894 200.058 124.02 200.031 124.142C200.001 124.263 199.946 124.377 199.87 124.475C199.793 124.573 199.696 124.654 199.586 124.713L187.806 130.683C187.686 130.743 187.553 130.775 187.418 130.774ZM181.765 120.889L187.675 128.828L197.903 123.628L191.993 115.689L181.765 120.889Z" fill="#0B0705"/>
<path d="M186.249 128.571L194.886 143.491C201.204 137.482 208.719 132.874 216.939 129.97L226.455 126.602C226.455 126.602 220.55 120.894 208.126 126.282L198.36 122.698L186.249 128.571Z" fill="white"/>
<path d="M194.886 144.347H194.766C194.637 144.328 194.514 144.281 194.406 144.207C194.299 144.134 194.209 144.038 194.144 143.925L185.53 128.988C185.473 128.885 185.437 128.772 185.424 128.656C185.412 128.539 185.422 128.421 185.456 128.309C185.49 128.196 185.548 128.092 185.624 128.002C185.701 127.913 185.795 127.84 185.901 127.789L197.989 121.933C198.092 121.883 198.204 121.853 198.319 121.848C198.434 121.842 198.549 121.859 198.656 121.899L208.097 125.369C220.693 120.038 226.797 125.746 227.048 125.991C227.154 126.092 227.232 126.218 227.275 126.358C227.318 126.497 227.325 126.646 227.294 126.789C227.263 126.931 227.196 127.064 227.099 127.173C227.002 127.282 226.878 127.365 226.74 127.412L217.225 130.78C209.107 133.633 201.687 138.177 195.456 144.113C195.302 144.259 195.098 144.343 194.886 144.347ZM187.47 128.936L195.085 142.144C201.311 136.392 208.642 131.968 216.631 129.142L224.618 126.328C222.387 125.067 217.133 123.291 208.468 127.053C208.265 127.136 208.038 127.136 207.835 127.053L198.411 123.594L187.47 128.936Z" fill="#0B0705"/>
<path d="M112.66 29.6686L112.323 30.8501C111.779 32.769 111.72 34.7931 112.152 36.7404L112.563 38.5897C112.563 38.5897 109.819 46.2608 102.055 39.6399L104.593 22.3057L112.66 29.6686Z" fill="white"/>
<path d="M107.765 43.19C105.86 43.19 103.772 42.2196 101.49 40.2905C101.381 40.1953 101.298 40.0746 101.247 39.9391C101.196 39.8036 101.18 39.6576 101.199 39.5142L103.743 22.18C103.765 22.0257 103.828 21.8802 103.926 21.7594C104.024 21.6385 104.153 21.5468 104.299 21.4944C104.446 21.442 104.604 21.4309 104.757 21.4622C104.909 21.4935 105.05 21.5661 105.164 21.672L113.23 29.0349C113.348 29.1425 113.433 29.2804 113.477 29.4334C113.522 29.5865 113.523 29.7488 113.481 29.9025L113.145 31.084C112.636 32.8647 112.581 34.7445 112.985 36.5519L113.396 38.4069C113.429 38.5645 113.419 38.7282 113.367 38.8807C113.316 39.0176 112.141 42.2082 109.134 43.013C108.688 43.132 108.227 43.1915 107.765 43.19ZM102.968 39.2859C105.181 41.0838 107.103 41.7802 108.672 41.3578C110.435 40.8955 111.376 39.1261 111.656 38.5039L111.302 36.9229C110.84 34.836 110.903 32.6669 111.485 30.6102L111.679 29.9367L105.187 24.0179L102.968 39.2859Z" fill="#0B0705"/>
<path d="M120.789 17.2714C122.877 29.9938 117.817 34.1205 115.809 34.1319C112.66 34.1319 109.225 30.2564 106.402 25.3306C96.9778 8.92107 118.695 4.56041 120.789 17.2714Z" fill="white"/>
<path d="M115.786 35.0052C113.321 35.0052 110.652 33.0874 107.925 29.2975C107.792 29.1136 107.737 28.8843 107.773 28.66C107.809 28.4358 107.932 28.2349 108.116 28.1017C108.3 27.9685 108.529 27.9138 108.753 27.9497C108.977 27.9855 109.178 28.109 109.311 28.2929C111.65 31.5121 113.949 33.2871 115.786 33.2871C116.14 33.2871 116.989 32.9846 117.925 31.8831C119.294 30.2621 121.348 26.2267 119.927 17.4198C119.909 17.3092 119.912 17.196 119.937 17.0867C119.962 16.9773 120.009 16.8741 120.074 16.7828C120.139 16.6916 120.222 16.6141 120.317 16.555C120.412 16.4958 120.518 16.4561 120.629 16.4381C120.74 16.4193 120.853 16.4225 120.963 16.4476C121.073 16.4727 121.176 16.5192 121.268 16.5844C121.36 16.6496 121.437 16.7323 121.497 16.8276C121.557 16.923 121.597 17.0292 121.616 17.1401C123.173 26.6263 120.789 31.1411 119.231 32.9903C118.17 34.2403 116.887 34.9937 115.809 34.9995L115.786 35.0052Z" fill="#0B0705"/>
<path d="M183.67 104.553H121.736L136.003 66.6658H197.943L183.67 104.553Z" fill="#FFEB01"/>
<path d="M183.67 105.409H121.736C121.6 105.408 121.466 105.374 121.345 105.311C121.225 105.247 121.121 105.156 121.043 105.044C120.965 104.933 120.914 104.804 120.896 104.669C120.878 104.534 120.892 104.396 120.937 104.268L135.199 66.3803C135.257 66.2147 135.365 66.0711 135.508 65.969C135.651 65.8669 135.822 65.8112 135.997 65.8096H197.943C198.081 65.8106 198.217 65.8448 198.339 65.9094C198.461 65.974 198.566 66.067 198.645 66.1806C198.724 66.2939 198.775 66.425 198.792 66.5623C198.809 66.6996 198.791 66.839 198.742 66.9682L184.48 104.862C184.417 105.024 184.305 105.164 184.161 105.262C184.016 105.359 183.845 105.411 183.67 105.409ZM122.974 103.697H183.083L196.705 67.499H136.596L122.974 103.697Z" fill="#0B0705"/>
<path d="M99.8472 27.4598L100.897 17.0432C101.019 15.835 101.378 14.6628 101.953 13.5936C102.529 12.5244 103.309 11.5794 104.25 10.8127C105.192 10.046 106.275 9.47266 107.438 9.12555C108.601 8.77844 109.821 8.66439 111.028 8.78993L115.472 9.23513L114.867 15.1997C114.688 16.9922 114.156 18.7317 113.304 20.3186C112.451 21.9054 111.294 23.3084 109.899 24.4472C108.504 25.5861 106.898 26.4384 105.173 26.9553C103.448 27.4722 101.638 27.6436 99.8472 27.4598Z" fill="#0B0705"/>
<path d="M91.1477 42.2539C91.1477 42.2539 81.3643 43.5267 77.8788 56.7514C76.4356 62.2137 70.2575 81.1403 69.6756 97.6526C69.3562 106.619 77.7305 107.801 80.7425 106.979C83.7545 106.157 88.997 72.9098 90.503 67.636C93.2184 58.1155 93.6177 46.0952 91.1477 42.2539Z" fill="white"/>
<path d="M78.8714 108.024C76.4637 108.047 74.1155 107.274 72.1914 105.826C70.5656 104.536 68.6602 102.065 68.82 97.6013C69.3904 81.4828 75.0379 63.0699 76.8976 57.0197L77.0631 56.449C80.9935 43.5953 90.2977 41.2437 90.6913 41.1524C90.8032 41.1172 90.9211 41.1054 91.0378 41.1178C91.1544 41.1301 91.2673 41.1663 91.3693 41.2242C91.4714 41.282 91.5605 41.3602 91.6311 41.4539C91.7017 41.5476 91.7522 41.6549 91.7797 41.769C91.8071 41.8831 91.8108 42.0016 91.7905 42.1172C91.7703 42.2328 91.7265 42.3429 91.6618 42.4409C91.5972 42.5388 91.5132 42.6224 91.4149 42.6865C91.3166 42.7506 91.2063 42.7937 91.0906 42.8133C90.7312 42.9046 82.3284 45.0964 78.7003 56.9512L78.5291 57.4935C76.6923 63.4922 71.1132 81.7397 70.5427 97.6356C70.4343 100.644 71.3528 102.938 73.2695 104.456C74.2911 105.217 75.4594 105.758 76.7006 106.044C77.9418 106.33 79.2288 106.355 80.4801 106.117C82.3284 104.736 85.8481 86.4999 87.5424 77.7158C88.4893 72.8072 89.2538 68.9259 89.693 67.3449C89.7202 67.2326 89.7698 67.127 89.8388 67.0344C89.9079 66.9418 89.9949 66.8641 90.0948 66.8061C90.1946 66.748 90.3052 66.7108 90.4198 66.6967C90.5344 66.6825 90.6507 66.6917 90.7616 66.7237C90.8726 66.7557 90.9759 66.8098 91.0654 66.8828C91.1549 66.9558 91.2287 67.0462 91.2824 67.1485C91.336 67.2508 91.3684 67.3629 91.3776 67.4781C91.3868 67.5933 91.3727 67.7091 91.3359 67.8187C90.9081 69.3255 90.1265 73.3665 89.2252 78.0411C85.3518 98.0865 83.2468 107.15 80.9821 107.755C80.2932 107.936 79.5837 108.027 78.8714 108.024Z" fill="#0B0705"/>
<path d="M121.103 12.0546C123.464 14.7372 123.156 18.8639 123.156 18.8639C123.156 18.8639 119.02 18.6413 116.664 15.9587C114.308 13.2761 114.617 9.14941 114.617 9.14941C114.617 9.14941 118.747 9.37201 121.103 12.0546Z" fill="#0B0705"/>
<path d="M85.3577 106.311C85.3577 106.311 83.3154 122.926 93.5152 127.59C103.715 132.253 112.785 129.627 116.767 126.328C121.616 122.299 144.782 88.5319 144.782 88.5319L173.779 124.273L200.379 113.395C200.379 113.395 187.23 97.9838 171.445 83.081C163.385 75.4898 156.665 68.3153 149.489 64.6452C147.475 63.6121 141.531 62.7046 135.895 66.1977C119.271 76.5001 92.2659 103.303 85.3577 106.311Z" fill="#E53949"/>
<path d="M71.313 103.754C71.313 103.754 75.3062 111.545 84.1141 107.088C89.0086 104.61 114.189 82.5445 114.189 82.5445C114.189 82.5445 109.054 79.3825 105.598 80.6838C96.1964 84.2283 71.313 103.754 71.313 103.754Z" fill="white"/>
<path d="M78.9514 109.325C73.2868 109.325 70.5828 104.188 70.5486 104.148C70.4572 103.971 70.4305 103.767 70.4732 103.572C70.5159 103.377 70.6253 103.204 70.7825 103.081C71.8036 102.282 95.8826 83.4349 105.295 79.8619C109.083 78.4293 114.423 81.6599 114.634 81.7968C114.748 81.8669 114.844 81.9628 114.914 82.0768C114.984 82.1908 115.027 82.3197 115.039 82.4532C115.051 82.5863 115.032 82.7204 114.982 82.8445C114.933 82.9686 114.854 83.0791 114.753 83.1667C113.721 84.0742 89.4364 105.358 84.5191 107.852C82.8065 108.779 80.8979 109.284 78.9514 109.325ZM72.4368 103.96C73.5378 105.586 77.1317 109.667 83.7262 106.323C87.9476 104.188 108.113 86.694 112.694 82.6929C111.108 81.9053 108.045 80.6496 105.9 81.4658C97.5198 84.6221 76.2817 100.98 72.4368 103.96Z" fill="#0B0705"/>
<path d="M104.696 130.951C100.707 130.927 96.7709 130.041 93.1558 128.354C82.5053 123.486 84.4221 106.882 84.5076 106.197C84.5251 106.049 84.5811 105.907 84.6702 105.787C84.7593 105.667 84.8783 105.572 85.0153 105.512C88.0844 104.182 95.5631 97.7212 104.223 90.2385C114.634 81.2432 126.436 71.0436 135.444 65.45C141.439 61.7229 147.76 62.7731 149.882 63.8633C155.866 66.934 161.371 72.2365 167.743 78.3722C169.135 79.7078 170.556 81.0777 172.022 82.4589C187.658 97.1961 200.887 112.71 201.024 112.835C201.111 112.939 201.173 113.062 201.204 113.194C201.235 113.326 201.234 113.464 201.202 113.596C201.17 113.728 201.107 113.85 201.018 113.953C200.93 114.056 200.818 114.136 200.693 114.188L174.087 125.067C173.917 125.136 173.729 125.149 173.552 125.104C173.374 125.059 173.216 124.958 173.1 124.816L144.839 89.9531C140.972 95.558 121.798 123.252 117.315 126.973C114.537 129.279 110.013 130.951 104.696 130.951ZM86.162 106.882C85.9395 109.542 85.2835 122.864 93.8689 126.813C104.565 131.705 113.167 128.206 116.219 125.672C120.926 121.768 143.847 88.3892 144.075 88.0524C144.15 87.9424 144.251 87.8515 144.367 87.7871C144.484 87.7227 144.615 87.6865 144.748 87.6814C144.881 87.6778 145.012 87.7048 145.133 87.7602C145.254 87.8156 145.36 87.898 145.444 88.0011L174.03 123.257L198.941 113.069C195.895 109.559 184.258 96.3628 170.846 83.7203C169.375 82.3315 167.945 80.9654 166.557 79.6222C160.282 73.5778 154.862 68.361 149.101 65.3987C147.332 64.4912 141.685 63.6179 136.345 66.9226C127.457 72.4419 115.706 82.5959 105.341 91.5513C96.6185 99.074 89.6532 105.096 86.162 106.882Z" fill="#0B0705"/>
<path d="M492.442 311H0.855687C0.628745 311 0.411101 310.91 0.250629 310.749C0.0901562 310.589 0 310.371 0 310.144C0 309.917 0.0901562 309.699 0.250629 309.538C0.411101 309.378 0.628745 309.288 0.855687 309.288H492.442C492.669 309.288 492.887 309.378 493.047 309.538C493.208 309.699 493.298 309.917 493.298 310.144C493.298 310.371 493.208 310.589 493.047 310.749C492.887 310.91 492.669 311 492.442 311Z" fill="#0B0705"/>
<path d="M163.773 20.9471C163.65 20.9471 163.528 20.92 163.417 20.8677C163.305 20.8155 163.207 20.7393 163.128 20.6446C163.028 20.529 162.96 20.3884 162.933 20.2378C162.906 20.0871 162.92 19.9318 162.974 19.7885L170.27 0.547896C170.322 0.412522 170.406 0.292408 170.517 0.198791C170.627 0.105174 170.76 0.0411162 170.902 0.0126055C171.044 -0.0159052 171.19 -0.00793453 171.328 0.035772C171.466 0.0794786 171.591 0.157489 171.691 0.262512L185.61 14.9541C185.715 15.0633 185.788 15.1991 185.823 15.3468C185.857 15.4945 185.85 15.6488 185.804 15.7931C185.757 15.9353 185.674 16.0628 185.563 16.163C185.452 16.2631 185.317 16.3324 185.171 16.3639L163.955 20.93C163.895 20.9441 163.834 20.9499 163.773 20.9471ZM171.383 2.43143L165.108 18.9209L183.294 15.0226L171.383 2.43143Z" fill="black"/>
<path d="M484.387 130.854L481.729 128.514C481.571 128.379 481.371 128.303 481.164 128.298C480.956 128.293 480.753 128.359 480.588 128.485L477.393 131.06C477.15 131.253 476.858 131.377 476.55 131.417C476.241 131.458 475.927 131.413 475.642 131.288C474.372 130.713 473.028 130.315 471.649 130.106C471.341 130.057 471.052 129.925 470.814 129.724C470.576 129.523 470.397 129.26 470.297 128.965L469.025 125.078C468.959 124.875 468.823 124.701 468.641 124.589C468.459 124.476 468.244 124.431 468.032 124.462L464.53 124.992C464.318 125.025 464.125 125.131 463.984 125.291C463.843 125.452 463.764 125.658 463.76 125.871L463.674 129.964C463.667 130.282 463.572 130.593 463.399 130.86C463.225 131.127 462.981 131.34 462.693 131.476C462.47 131.585 462.254 131.693 462.037 131.813C461.034 132.358 460.096 133.015 459.242 133.771C459.005 133.978 458.715 134.116 458.406 134.169C458.096 134.222 457.777 134.189 457.485 134.073L453.697 132.549C453.494 132.462 453.266 132.451 453.056 132.519C452.846 132.587 452.668 132.73 452.556 132.92L450.707 135.945C450.6 136.127 450.559 136.34 450.591 136.548C450.623 136.756 450.727 136.947 450.884 137.087L453.97 139.787C454.208 139.995 454.384 140.266 454.478 140.568C454.571 140.87 454.579 141.192 454.501 141.499C454.156 142.856 453.999 144.254 454.033 145.654C454.037 145.967 453.955 146.275 453.796 146.545C453.637 146.815 453.408 147.036 453.132 147.184L449.532 149.113C449.342 149.213 449.194 149.378 449.114 149.578C449.035 149.778 449.029 150 449.099 150.203L450.24 153.559C450.308 153.762 450.446 153.933 450.629 154.044C450.811 154.155 451.027 154.197 451.238 154.164L455.283 153.536C455.591 153.489 455.907 153.528 456.196 153.648C456.484 153.767 456.735 153.964 456.92 154.216C457.736 155.354 458.705 156.374 459.801 157.246C460.04 157.447 460.219 157.71 460.32 158.006C460.42 158.302 460.438 158.619 460.371 158.925L459.532 162.92C459.489 163.132 459.522 163.352 459.627 163.542C459.732 163.731 459.9 163.877 460.103 163.953L463.4 165.243C463.599 165.321 463.819 165.327 464.021 165.259C464.224 165.191 464.396 165.054 464.507 164.872L466.629 161.367C466.788 161.098 467.019 160.879 467.297 160.735C467.574 160.591 467.886 160.527 468.198 160.551C469.907 160.679 471.625 160.517 473.281 160.072C473.591 159.998 473.915 160.012 474.217 160.113C474.52 160.214 474.788 160.397 474.992 160.643L477.57 163.69C477.707 163.853 477.896 163.961 478.105 163.997C478.314 164.032 478.529 163.992 478.711 163.885L481.758 162.081C481.941 161.97 482.08 161.799 482.149 161.597C482.219 161.394 482.216 161.174 482.14 160.974L480.622 156.978C480.51 156.693 480.478 156.383 480.529 156.081C480.58 155.78 480.713 155.498 480.913 155.266C482.208 153.759 483.196 152.015 483.823 150.129C483.924 149.831 484.105 149.567 484.347 149.366C484.588 149.164 484.881 149.034 485.192 148.987L489.236 148.417C489.449 148.386 489.644 148.281 489.787 148.12C489.93 147.959 490.012 147.753 490.018 147.538L490.103 143.999C490.11 143.785 490.04 143.575 489.906 143.408C489.772 143.241 489.583 143.126 489.373 143.086L485.38 142.292C485.073 142.23 484.789 142.085 484.558 141.873C484.328 141.661 484.16 141.389 484.074 141.088C483.761 139.984 483.327 138.917 482.779 137.909C482.665 137.698 482.545 137.492 482.419 137.287C482.25 137.015 482.161 136.702 482.161 136.382C482.161 136.062 482.25 135.749 482.419 135.477L484.576 132.007C484.685 131.824 484.726 131.607 484.692 131.396C484.657 131.185 484.549 130.993 484.387 130.854ZM464.61 139.296C465.873 138.294 467.423 137.721 469.033 137.66C470.644 137.598 472.233 138.051 473.569 138.952C474.906 139.854 475.92 141.158 476.467 142.675C477.013 144.193 477.063 145.845 476.609 147.392C476.155 148.94 475.22 150.302 473.94 151.283C472.66 152.263 471.102 152.811 469.49 152.846C467.878 152.881 466.297 152.403 464.976 151.479C463.654 150.555 462.661 149.235 462.139 147.709C461.629 146.221 461.592 144.611 462.034 143.101C462.477 141.591 463.377 140.255 464.61 139.279V139.296Z" fill="#E53949"/>
<path d="M416.708 302.142C416.481 302.15 416.26 302.068 416.094 301.913C415.928 301.759 415.829 301.544 415.821 301.317C415.813 301.09 415.895 300.869 416.049 300.702C416.204 300.536 416.418 300.438 416.645 300.429C417.182 300.395 470.217 296.274 488.825 265.972C497.462 251.908 497.434 234.283 488.746 213.599C479.795 192.303 439.515 183.519 403.97 175.762C370.798 168.525 339.462 161.676 335.218 145.791C332.936 137.093 338.784 126.539 353.193 113.532C371.591 96.9222 381.243 80.7923 381.882 65.587C382.452 52.0427 375.35 44.286 375.276 44.2118C375.122 44.0453 375.04 43.825 375.048 43.5986C375.055 43.3721 375.151 43.1577 375.316 43.0018C375.397 42.9242 375.494 42.8637 375.599 42.8237C375.704 42.7837 375.816 42.7651 375.929 42.7688C376.041 42.7725 376.152 42.7985 376.254 42.8454C376.357 42.8922 376.449 42.959 376.525 43.0417C376.839 43.3785 384.192 51.4035 383.593 65.6555C382.931 81.3288 373.091 97.864 354.34 114.793C340.455 127.35 334.739 137.321 336.873 145.34C340.826 160.232 371.67 166.961 404.312 174.079C442.019 182.303 481.01 190.808 490.297 212.919C499.213 234.152 499.202 252.302 490.257 266.863C480.269 283.124 460.787 291.845 446.206 296.303C436.622 299.228 426.768 301.182 416.794 302.136L416.708 302.142Z" fill="black"/>
<path d="M388.065 51.1351L382.424 41.5225C380.958 39.0244 377.745 38.1884 375.249 39.6552L369.567 42.9931C367.07 44.4599 366.235 47.6742 367.701 50.1723L373.342 59.7848C374.808 62.283 378.02 63.119 380.517 61.6522L386.199 58.3142C388.696 56.8474 389.531 53.6332 388.065 51.1351Z" fill="#E53949"/>
<path d="M377.905 63.2183C377.384 63.2163 376.864 63.1492 376.359 63.0186C375.584 62.8184 374.855 62.4667 374.216 61.9838C373.577 61.5009 373.039 60.8963 372.634 60.2047L366.998 50.5929C366.179 49.1979 365.948 47.5346 366.354 45.9687C366.761 44.4028 367.772 43.0625 369.166 42.2426L374.871 38.9036C376.267 38.0875 377.93 37.8581 379.495 38.2656C381.06 38.6732 382.4 39.6845 383.222 41.0782L388.841 50.6843C389.66 52.0801 389.892 53.7444 389.486 55.3112C389.079 56.878 388.068 58.2193 386.673 59.0403L380.969 62.3736C380.042 62.9242 378.984 63.2159 377.905 63.2183ZM377.905 39.7769C377.127 39.7763 376.362 39.9853 375.692 40.3819L369.987 43.7209C369.49 44.0121 369.056 44.3985 368.708 44.858C368.36 45.3175 368.107 45.8411 367.961 46.3988C367.816 46.9565 367.782 47.5374 367.862 48.1082C367.941 48.679 368.132 49.2286 368.424 49.7254L374.066 59.3371C374.358 59.8347 374.745 60.2699 375.204 60.6177C375.664 60.9654 376.188 61.219 376.746 61.3637C377.304 61.5085 377.886 61.5416 378.456 61.4612C379.027 61.3808 379.577 61.1885 380.073 60.8953L385.749 57.562C386.752 56.9717 387.48 56.0073 387.773 54.8805C388.066 53.7536 387.901 52.5564 387.312 51.5518L381.67 41.9458C381.287 41.2908 380.739 40.7467 380.083 40.3665C379.426 39.9863 378.681 39.7832 377.923 39.7769H377.905Z" fill="black"/>
<path d="M378.027 17.1714L389.291 36.367C390.348 38.1671 390.646 40.3133 390.121 42.3336C389.596 44.3539 388.29 46.0826 386.491 47.1396L370.612 56.4685C368.812 57.5255 366.667 57.8241 364.648 57.2986C362.629 56.7731 360.901 55.4666 359.845 53.6665L348.58 34.4709L378.027 17.1714Z" fill="#FFEB01"/>
<path d="M366.679 58.3667C365.156 58.3685 363.66 57.9717 362.338 57.2157C361.016 56.4597 359.915 55.3709 359.143 54.0574L347.877 34.8681C347.819 34.7708 347.782 34.6631 347.766 34.5512C347.751 34.4393 347.757 34.3254 347.786 34.2161C347.815 34.1068 347.865 34.0042 347.933 33.9143C348.002 33.8244 348.087 33.749 348.185 33.6924L377.626 16.3981C377.818 16.2909 378.045 16.2625 378.258 16.3189C378.47 16.3753 378.653 16.5122 378.767 16.7006L390.034 35.8955C391.204 37.8909 391.534 40.2695 390.952 42.5085C390.37 44.7475 388.924 46.6638 386.93 47.836L371.054 57.168C369.727 57.9475 368.218 58.361 366.679 58.3667ZM360.621 53.2297C361.565 54.8311 363.105 55.9927 364.903 56.4602C366.702 56.9277 368.612 56.663 370.216 55.724L386.092 46.3805C386.886 45.9149 387.58 45.2973 388.135 44.5628C388.69 43.8284 389.095 42.9917 389.327 42.1005C389.558 41.2093 389.612 40.2812 389.485 39.3693C389.357 38.4573 389.051 37.5795 388.585 36.7859L377.746 18.3273L349.793 34.7597L360.632 53.2183L360.621 53.2297Z" fill="black"/>
<path d="M346.057 37.2482C345.624 36.5116 345.501 35.6333 345.715 34.806C345.929 33.9788 346.462 33.2703 347.198 32.8362L377.295 15.1424C378.031 14.7093 378.909 14.5863 379.736 14.8003C380.563 15.0144 381.271 15.5479 381.705 16.2839C382.138 17.0205 382.261 17.8989 382.047 18.7261C381.833 19.5534 381.3 20.2618 380.564 20.696L350.467 38.3898C350.102 38.605 349.699 38.7461 349.28 38.8052C348.861 38.8643 348.435 38.8401 348.025 38.7341C347.616 38.6281 347.231 38.4423 346.893 38.1873C346.555 37.9323 346.271 37.6132 346.057 37.2482Z" fill="#E53949"/>
<path d="M348.846 39.6741C348.498 39.6726 348.151 39.6286 347.814 39.5428C347.033 39.3387 346.33 38.9076 345.793 38.304C345.257 37.7003 344.911 36.9511 344.8 36.151C344.689 35.351 344.817 34.5359 345.169 33.8088C345.521 33.0817 346.08 32.4751 346.776 32.0657L376.873 14.3719C377.806 13.824 378.919 13.6694 379.967 13.9424C381.014 14.2153 381.91 14.8934 382.458 15.8274C383.005 16.7614 383.16 17.8748 382.887 18.9227C382.614 19.9707 381.937 20.8672 381.003 21.4152L350.906 39.109C350.282 39.4775 349.571 39.6726 348.846 39.6741ZM378.932 15.5591C378.513 15.5581 378.101 15.6705 377.74 15.8845L347.643 33.5783C347.238 33.8153 346.913 34.1672 346.708 34.5894C346.504 35.0116 346.429 35.485 346.494 35.9497C346.559 36.4144 346.76 36.8493 347.072 37.1994C347.384 37.5495 347.793 37.7989 348.247 37.9161C348.548 37.9966 348.861 38.0159 349.168 37.9727C349.476 37.9296 349.772 37.8249 350.039 37.665L380.136 19.9712C380.585 19.7079 380.934 19.3039 381.131 18.8218C381.327 18.3397 381.359 17.8063 381.222 17.3041C381.085 16.8018 380.787 16.3588 380.373 16.0434C379.959 15.7279 379.453 15.5578 378.932 15.5591Z" fill="black"/>
<path d="M162.369 310.144H128.712C128.488 310.144 128.274 310.055 128.115 309.896C127.957 309.738 127.868 309.523 127.868 309.299V282.633H56.6521C56.5413 282.633 56.4315 282.611 56.329 282.568C56.2266 282.526 56.1335 282.464 56.0551 282.385C55.9767 282.307 55.9145 282.214 55.8721 282.111C55.8297 282.009 55.8079 281.899 55.8079 281.788V250.841C55.8091 250.719 55.8363 250.598 55.8877 250.487L110.88 130.369C110.947 130.223 111.055 130.099 111.19 130.012C111.326 129.925 111.483 129.879 111.644 129.878H149.694C149.834 129.882 149.972 129.921 150.094 129.992C150.215 130.063 150.317 130.163 150.39 130.283C150.468 130.401 150.515 130.537 150.526 130.678C150.537 130.819 150.512 130.96 150.453 131.088L97.4798 248.524H127.862V204.169C127.867 203.947 127.959 203.736 128.118 203.581C128.277 203.426 128.49 203.34 128.712 203.342H162.369C162.48 203.342 162.589 203.364 162.692 203.406C162.794 203.449 162.886 203.511 162.964 203.589C163.042 203.668 163.104 203.761 163.146 203.864C163.188 203.966 163.209 204.076 163.208 204.186V248.541H176.363C176.585 248.541 176.798 248.629 176.956 248.787C177.113 248.944 177.201 249.157 177.201 249.38V281.805C177.202 281.916 177.181 282.026 177.139 282.128C177.097 282.23 177.036 282.324 176.958 282.402C176.88 282.481 176.787 282.543 176.685 282.585C176.583 282.628 176.473 282.65 176.363 282.65H163.179V309.316C163.177 309.532 163.091 309.738 162.94 309.892C162.789 310.046 162.585 310.136 162.369 310.144Z" fill="#0B0705"/>
<path d="M39.0193 250.841L94.0114 130.723H132.067L78.5463 249.368H158.701V281.788H39.0193V250.841ZM111.08 204.169H144.737V309.299H111.08V204.169Z" fill="white"/>
<path d="M144.685 310.155H111.028C110.801 310.155 110.584 310.065 110.423 309.904C110.263 309.744 110.172 309.526 110.172 309.299V282.644H39.0193C38.7923 282.644 38.5747 282.554 38.4142 282.393C38.2537 282.233 38.1636 282.015 38.1636 281.788V250.841C38.1642 250.717 38.1914 250.594 38.2434 250.481L93.2356 130.363C93.3047 130.216 93.4142 130.09 93.5516 130.003C93.6889 129.915 93.8484 129.868 94.0114 129.867H132.067C132.209 129.868 132.35 129.904 132.475 129.973C132.6 130.042 132.706 130.141 132.784 130.261C132.861 130.381 132.908 130.518 132.919 130.661C132.93 130.803 132.906 130.946 132.848 131.077L79.8755 248.512H110.224V204.169C110.224 203.942 110.314 203.724 110.474 203.564C110.635 203.403 110.853 203.313 111.079 203.313H144.737C144.963 203.313 145.181 203.403 145.342 203.564C145.502 203.724 145.592 203.942 145.592 204.169V248.512H158.713C158.94 248.512 159.157 248.602 159.318 248.763C159.478 248.924 159.568 249.141 159.568 249.368V281.788C159.568 282.015 159.478 282.233 159.318 282.393C159.157 282.554 158.94 282.644 158.713 282.644H145.592V309.299C145.592 309.416 145.569 309.532 145.523 309.639C145.476 309.746 145.409 309.843 145.324 309.923C145.239 310.004 145.138 310.065 145.028 310.105C144.919 310.145 144.802 310.162 144.685 310.155ZM111.912 308.443H143.858V281.788C143.858 281.561 143.948 281.343 144.109 281.183C144.269 281.022 144.487 280.932 144.714 280.932H157.834V250.225H144.685C144.459 250.223 144.242 250.132 144.082 249.972C143.922 249.812 143.831 249.595 143.829 249.368V205.054H111.884V249.397C111.884 249.624 111.794 249.842 111.633 250.002C111.473 250.163 111.255 250.253 111.028 250.253H78.5121C78.3667 250.25 78.2245 250.21 78.099 250.137C77.9734 250.063 77.8685 249.959 77.7943 249.834C77.7201 249.709 77.679 249.567 77.6748 249.422C77.6706 249.276 77.7036 249.132 77.7705 249.003L130.743 131.568H94.5648L39.8749 251.029V280.932H111.079C111.306 280.932 111.524 281.022 111.685 281.183C111.845 281.343 111.935 281.561 111.935 281.788L111.912 308.443Z" fill="#0B0705"/>
<path d="M295.857 139.33C286.655 130.369 273.078 125.826 255.502 125.826C237.927 125.826 224.452 130.392 215.205 139.393C205.958 148.394 201.263 161.185 201.263 177.395V258.575C201.263 274.619 205.93 287.364 215.137 296.451C224.344 305.538 237.921 310.149 255.502 310.149C272.993 310.149 286.552 305.583 295.799 296.582C305.047 287.581 309.741 274.79 309.741 258.581V177.395C309.747 161.105 305.075 148.297 295.857 139.33ZM276.113 249.979C276.113 258.797 274.447 265.67 271.173 270.418C267.836 275.264 262.559 277.718 255.508 277.718C248.457 277.718 243.18 275.264 239.838 270.418C236.563 265.675 234.903 258.797 234.903 249.979V185.996C234.903 177.178 236.563 170.306 239.838 165.557C243.18 160.711 248.451 158.251 255.508 158.251C262.565 158.251 267.83 160.711 271.173 165.557C274.447 170.306 276.113 177.183 276.113 185.996V249.979Z" fill="#0B0705"/>
<path d="M198.109 296.697C189.023 287.732 184.48 275.306 184.48 259.42V178.228C184.48 162.178 189.044 149.711 198.171 140.826C207.299 131.941 220.535 127.5 237.881 127.504C255.314 127.504 268.572 131.925 277.653 140.769C286.735 149.612 291.282 162.098 291.293 178.228V259.42C291.293 275.47 286.729 287.935 277.602 296.816C268.475 305.698 255.238 310.14 237.892 310.144C220.452 310.144 207.19 305.661 198.109 296.697ZM252.873 270.778C256.048 266.155 257.636 259.503 257.636 250.824V186.835C257.636 178.16 256.041 171.501 252.85 166.858C249.659 162.216 244.668 159.918 237.875 159.963C231.087 159.963 226.095 162.277 222.901 166.904C219.706 171.531 218.111 178.19 218.115 186.881V250.824C218.115 259.5 219.71 266.159 222.901 270.801C226.092 275.443 231.083 277.757 237.875 277.741C244.668 277.726 249.661 275.405 252.856 270.778H252.873Z" fill="white"/>
<path d="M247.488 284.419C254.284 284.419 259.277 282.108 262.468 277.485C265.658 272.861 267.254 266.202 267.254 257.508V193.542C267.254 184.862 265.658 178.203 262.468 173.565C260.263 170.346 256.916 168.089 253.107 167.252C256.126 171.856 257.647 178.378 257.67 186.818V250.824C257.67 259.5 256.075 266.159 252.884 270.801C249.693 275.443 244.7 277.757 237.904 277.741C236.014 277.757 234.13 277.546 232.291 277.114C232.376 277.245 232.456 277.382 232.542 277.507C235.717 282.123 240.699 284.427 247.488 284.419Z" fill="#FFEB01"/>
<path d="M207.721 303.397C198.635 294.432 194.093 282.009 194.093 266.126V184.94C194.093 168.89 198.656 156.425 207.784 147.543C216.911 138.662 230.147 134.22 247.493 134.216C259.283 134.216 269.157 136.24 277.117 140.289C268.054 131.781 254.976 127.523 237.881 127.515C220.535 127.515 207.299 131.956 198.171 140.837C189.044 149.718 184.48 162.185 184.48 178.239V259.42C184.48 275.306 189.023 287.732 198.109 296.696C201.156 299.693 204.651 302.196 208.468 304.116C208.217 303.86 207.961 303.637 207.721 303.397Z" fill="#FFEB01"/>
<path d="M237.875 311C220.294 311 206.711 306.388 197.504 297.302C188.297 288.215 183.625 275.464 183.625 259.42V178.228C183.625 162.012 188.32 149.222 197.572 140.215C206.825 131.208 220.391 126.648 237.875 126.648C255.36 126.648 269.039 131.214 278.247 140.152C287.454 149.09 292.132 161.933 292.132 178.228V259.42C292.132 275.63 287.437 288.42 278.184 297.427C268.931 306.434 255.354 311 237.875 311ZM237.875 128.354C220.841 128.354 207.681 132.755 198.765 141.436C189.848 150.118 185.336 162.503 185.336 178.228V259.42C185.336 274.99 189.837 287.33 198.708 296.086C207.578 304.841 220.762 309.288 237.875 309.288C254.989 309.288 268.075 304.881 276.992 296.2C285.908 287.519 290.42 275.15 290.42 259.42V178.228C290.42 162.412 285.919 150.015 277.054 141.379C268.189 132.744 254.995 128.371 237.875 128.371V128.354ZM237.875 278.558C230.819 278.558 225.542 276.098 222.199 271.252C218.919 266.503 217.259 259.625 217.259 250.807V186.835C217.259 178.023 218.919 171.139 222.199 166.39C225.548 161.539 230.819 159.079 237.875 159.079C244.932 159.079 250.209 161.539 253.557 166.39C256.832 171.139 258.497 178.023 258.497 186.835V250.824C258.497 259.642 256.832 266.52 253.557 271.269C250.22 276.115 244.938 278.575 237.875 278.575V278.558ZM237.875 160.774C231.326 160.774 226.66 162.926 223.614 167.349C220.568 171.773 218.976 178.359 218.976 186.818V250.824C218.976 259.288 220.533 265.841 223.614 270.293C226.694 274.745 231.326 276.862 237.875 276.862C244.424 276.862 249.102 274.716 252.137 270.293C255.172 265.869 256.775 259.288 256.775 250.824V186.835C256.775 178.376 255.212 171.824 252.137 167.366C249.062 162.909 244.43 160.791 237.875 160.791V160.774Z" fill="#0B0705"/>
<path d="M444.05 310.144H410.393C410.282 310.144 410.173 310.122 410.071 310.079C409.969 310.037 409.876 309.975 409.798 309.896C409.72 309.818 409.658 309.724 409.617 309.622C409.575 309.519 409.554 309.41 409.554 309.299V282.633H338.361C338.251 282.633 338.141 282.611 338.039 282.568C337.937 282.526 337.844 282.464 337.766 282.385C337.688 282.306 337.627 282.213 337.585 282.111C337.543 282.008 337.522 281.899 337.523 281.788V250.841C337.522 250.719 337.547 250.598 337.597 250.487L392.589 130.369C392.656 130.223 392.764 130.099 392.9 130.012C393.035 129.925 393.193 129.879 393.353 129.878H431.409C431.549 129.879 431.688 129.915 431.811 129.983C431.934 130.051 432.039 130.148 432.115 130.267C432.191 130.385 432.236 130.521 432.246 130.662C432.256 130.802 432.231 130.943 432.173 131.071L379.195 248.524H409.577V204.169C409.577 204.059 409.598 203.949 409.639 203.846C409.681 203.744 409.743 203.651 409.821 203.572C409.899 203.494 409.991 203.432 410.094 203.389C410.196 203.346 410.305 203.325 410.416 203.325H444.073C444.297 203.325 444.512 203.414 444.67 203.572C444.828 203.73 444.917 203.945 444.917 204.169V248.524H458.038C458.148 248.523 458.258 248.544 458.36 248.586C458.463 248.628 458.556 248.689 458.634 248.767C458.713 248.845 458.775 248.938 458.818 249.04C458.86 249.142 458.882 249.252 458.882 249.363V281.788C458.882 282.012 458.793 282.227 458.635 282.385C458.476 282.544 458.262 282.633 458.038 282.633H444.917V309.299C444.917 309.412 444.895 309.524 444.851 309.628C444.807 309.732 444.743 309.826 444.662 309.905C444.581 309.983 444.485 310.045 444.38 310.086C444.275 310.127 444.163 310.147 444.05 310.144Z" fill="#0B0705"/>
<path d="M320.734 250.841L375.721 130.723H413.776L360.261 249.368H440.416V281.788H320.734V250.841ZM392.789 204.169H426.446V309.299H392.789V204.169Z" fill="white"/>
<path d="M426.423 310.155H392.766C392.539 310.155 392.321 310.065 392.161 309.904C392 309.744 391.91 309.526 391.91 309.299V282.644H320.734C320.507 282.644 320.29 282.554 320.129 282.393C319.969 282.233 319.878 282.015 319.878 281.788V250.841C319.879 250.717 319.906 250.594 319.958 250.481L374.945 130.363C375.014 130.215 375.125 130.089 375.263 130.001C375.402 129.913 375.562 129.866 375.726 129.867H413.781C413.924 129.869 414.063 129.906 414.188 129.975C414.312 130.044 414.418 130.143 414.494 130.263C414.571 130.383 414.617 130.52 414.628 130.662C414.639 130.804 414.615 130.946 414.557 131.077L361.585 248.512H391.933V204.169C391.933 203.942 392.023 203.724 392.184 203.564C392.344 203.403 392.562 203.313 392.789 203.313H426.446C426.673 203.313 426.89 203.403 427.051 203.564C427.211 203.724 427.301 203.942 427.301 204.169V248.512H440.422C440.649 248.512 440.866 248.602 441.027 248.763C441.187 248.924 441.278 249.141 441.278 249.368V281.788C441.278 282.015 441.187 282.233 441.027 282.393C440.866 282.554 440.649 282.644 440.422 282.644H427.301V309.299C427.301 309.413 427.279 309.527 427.234 309.632C427.19 309.737 427.125 309.833 427.043 309.913C426.961 309.992 426.864 310.055 426.757 310.097C426.651 310.138 426.537 310.158 426.423 310.155ZM393.644 308.443H425.59V281.788C425.59 281.561 425.68 281.343 425.841 281.183C426.001 281.022 426.219 280.932 426.446 280.932H439.566V250.225H426.446C426.219 250.225 426.001 250.134 425.841 249.974C425.68 249.813 425.59 249.595 425.59 249.368V205.054H393.644V249.397C393.644 249.624 393.554 249.842 393.394 250.002C393.233 250.163 393.016 250.253 392.789 250.253H360.273C360.13 250.252 359.989 250.215 359.864 250.147C359.739 250.078 359.633 249.979 359.555 249.859C359.478 249.739 359.432 249.602 359.42 249.459C359.409 249.317 359.433 249.174 359.491 249.043L412.464 131.608H376.291L321.59 251.029V280.932H392.789C393.016 280.932 393.233 281.022 393.394 281.183C393.554 281.343 393.644 281.561 393.644 281.788V308.443Z" fill="#0B0705"/>
</g>
<defs>
<clipPath id="clip0_2731_5874">
<rect width="497" height="311" fill="white"/>
</clipPath>
</defs>
</svg>
