<svg width="32" height="32" viewBox="0 0 32 32" fill="none" xmlns="http://www.w3.org/2000/svg">
<path d="M10 18C12.7614 18 15 15.7614 15 13C15 10.2386 12.7614 8 10 8C7.23858 8 5 10.2386 5 13C5 15.7614 7.23858 18 10 18Z" stroke="#FF4B4B" stroke-width="2" stroke-linecap="round" stroke-linejoin="round"/>
<path d="M19 10H31" stroke="#FF4B4B" stroke-width="2" stroke-linecap="round" stroke-linejoin="round"/>
<path d="M19 16H31" stroke="#FF4B4B" stroke-width="2" stroke-linecap="round" stroke-linejoin="round"/>
<path d="M22 22H31" stroke="#FF4B4B" stroke-width="2" stroke-linecap="round" stroke-linejoin="round"/>
<path d="M2.25195 24C2.69583 22.2826 3.6977 20.7614 5.10015 19.6754C6.50259 18.5893 8.22612 18 9.99992 18C11.7737 18 13.4972 18.5893 14.8997 19.6754C16.3021 20.7614 17.304 22.2826 17.7479 24" stroke="#FF4B4B" stroke-width="2" stroke-linecap="round" stroke-linejoin="round"/>
</svg>
