<svg width="300" height="321" viewBox="0 0 300 321" fill="none" xmlns="http://www.w3.org/2000/svg">
<g clip-path="url(#clip0_2664_1557)">
<path d="M299.115 208.187V305.475C299.115 309.701 297.712 312.673 295.548 314.058L295.435 314.147L286.484 319.294C288.683 317.951 290.05 314.937 290.05 310.705V147.132C290.05 139.233 285.242 130.05 279.304 126.614L72.8589 7.41188C70.2495 5.90216 67.8661 5.7714 66.0176 6.74023L75.0699 1.50971C76.9303 0.53493 79.3138 0.671634 81.9231 2.17541L288.398 121.384C294.342 124.819 299.144 134.003 299.144 141.908L299.115 208.187Z" fill="#3A3A3A"/>
<path d="M130.032 118.971C132.445 115.838 133.842 111.309 133.842 105.609C133.842 99.0294 131.993 91.885 128.855 85.1507C124.171 75.0759 116.617 65.9166 108.088 61.0011C93.8581 52.7867 82.3212 59.4438 82.3212 75.8605C82.3212 92.2772 93.8581 112.26 108.088 120.469C117.372 125.842 125.509 124.885 130.032 118.971ZM290.05 213.447V310.735C290.05 314.967 288.677 317.981 286.484 319.324C286.443 319.367 286.392 319.4 286.335 319.419C285.3 320.005 284.105 320.245 282.924 320.102C281.278 316.062 278.855 312.384 275.791 309.279C272.561 306.059 269.622 302.56 267.006 298.824C260.557 289.652 258.732 273.331 250.441 268.546C242.292 263.845 231.462 273.111 217.75 265.206C190.557 249.508 196.757 200.323 171.953 185.999C151.15 173.975 146.663 225.662 128.023 214.897C115.66 207.765 107.761 181.434 95.0469 174.099C83.6824 167.526 76.4963 179.449 70.2791 197.768C65.5716 193.536 62.0828 185.88 62.0828 179.122V15.5192C62.0828 11.1921 63.521 8.13703 65.8034 6.8294L65.9818 6.72837C67.8303 5.75953 70.2137 5.8903 72.8231 7.40002L279.298 126.603C285.242 130.038 290.044 139.221 290.044 147.121L290.05 213.447ZM269.841 184.144C269.841 172.952 264.492 160.114 256.575 150.473C253.098 146.114 248.871 142.41 244.093 139.536C229.869 131.322 218.338 137.979 218.338 154.396C218.338 169.22 227.73 186.932 240.022 196.282C241.321 197.272 242.681 198.182 244.093 199.004C258.304 207.194 269.818 200.543 269.818 184.115L269.841 184.144ZM201.851 144.915C201.851 128.487 190.32 108.522 176.09 100.301C173.246 98.5731 170.086 97.4275 166.794 96.9312C157.171 95.683 150.336 102.536 150.336 115.173C150.336 127.328 156.648 141.42 165.694 151.257C168.711 154.609 172.215 157.487 176.09 159.793C190.296 167.948 201.839 161.285 201.839 144.862L201.851 144.915Z" fill="white"/>
<path d="M275.779 309.243C278.843 312.349 281.266 316.026 282.912 320.067C281.632 319.917 280.399 319.493 279.298 318.825L72.8589 199.61C71.947 199.076 71.0943 198.446 70.3149 197.732C76.5321 179.443 83.7181 167.49 95.0826 174.064C107.796 181.398 115.696 207.723 128.059 214.862C146.698 225.626 151.174 173.939 171.989 185.963C196.792 200.288 190.593 249.473 217.786 265.17C231.457 273.075 242.31 263.809 250.477 268.51C258.768 273.265 260.581 289.617 267.042 298.788C269.643 302.522 272.566 306.021 275.779 309.243Z" fill="#F6D84C"/>
<path d="M256.551 150.443C264.462 160.084 269.818 172.923 269.818 184.115C269.818 200.543 258.286 207.194 244.057 198.974C242.645 198.152 241.285 197.243 239.986 196.252L241.846 183.913C242.555 184.443 243.293 184.934 244.057 185.381C251.784 189.844 258.043 186.225 258.043 177.303C258.043 171.229 255.136 164.262 250.839 159.02L256.551 150.443Z" fill="#3A3A3A"/>
<path d="M256.551 150.443L250.839 159.032C248.95 156.663 246.653 154.65 244.057 153.088C236.312 148.66 230.072 152.226 230.072 161.142C230.072 169.196 235.171 178.825 241.846 183.901L239.986 196.24C227.694 186.89 218.303 169.178 218.303 154.354C218.303 137.926 229.834 131.269 244.057 139.495C248.84 142.371 253.071 146.079 256.551 150.443Z" fill="#DAE0E5"/>
<path d="M250.839 159.032C255.136 164.274 258.043 171.24 258.043 177.315C258.043 186.231 251.778 189.856 244.057 185.393C243.293 184.945 242.555 184.455 241.846 183.924C235.171 178.848 230.072 169.219 230.072 161.166C230.072 152.25 236.33 148.63 244.057 153.094C246.653 154.654 248.95 156.665 250.839 159.032Z" fill="white"/>
<path d="M176.067 100.248C190.296 108.468 201.839 128.451 201.839 144.862C201.839 161.273 190.308 167.948 176.078 159.721C172.204 157.415 168.699 154.538 165.683 151.186L170.438 141.492C172.073 143.313 173.975 144.876 176.078 146.128C183.805 150.586 190.07 146.972 190.07 138.05C190.07 129.129 183.811 118.281 176.078 113.823C174.531 112.891 172.817 112.268 171.032 111.987L166.77 96.8777C170.062 97.3741 173.222 98.5196 176.067 100.248Z" fill="#3A3A3A"/>
<path d="M176.067 113.841C183.793 118.299 190.058 129.147 190.058 138.068C190.058 146.99 183.799 150.604 176.067 146.146C173.963 144.894 172.061 143.331 170.426 141.51C165.51 136.16 162.104 128.516 162.104 121.895C162.104 115.024 165.813 111.309 171.02 111.981C172.807 112.269 174.521 112.901 176.067 113.841Z" fill="white"/>
<path d="M166.77 96.8777L171.02 112.005C165.795 111.333 162.104 115.048 162.104 121.919C162.104 128.516 165.528 136.184 170.426 141.533L165.671 151.228C156.624 141.391 150.312 127.298 150.312 115.143C150.312 102.483 157.147 95.6295 166.77 96.8777Z" fill="#DAE0E5"/>
<path d="M133.842 105.609C133.842 111.309 132.445 115.838 130.032 118.971L120.005 106.079C121.318 104.379 122.073 101.918 122.073 98.8155C121.977 94.9616 121.055 91.1733 119.369 87.7065L128.879 85.1566C131.993 91.885 133.842 99.0294 133.842 105.609Z" fill="#3A3A3A"/>
<path d="M120.005 106.079L130.032 118.971C125.509 124.867 117.372 125.842 108.088 120.481C93.8582 112.272 82.3213 92.2951 82.3213 75.8724C82.3213 59.4497 93.8582 52.7867 108.088 61.0129C116.617 65.9284 124.171 75.0878 128.855 85.1625L119.345 87.7124C116.795 82.2442 112.694 77.2752 108.052 74.6004C100.325 70.1367 94.0602 73.7564 94.0602 82.6721C94.0602 91.5878 100.319 102.441 108.052 106.899C113.092 109.817 117.502 109.276 119.939 106.085L120.005 106.079Z" fill="#DAE0E5"/>
<path d="M122.067 98.8095C122.067 101.912 121.312 104.373 119.999 106.073C117.538 109.271 113.128 109.805 108.111 106.887C100.384 102.429 94.1196 91.5818 94.1196 82.6602C94.1196 73.7386 100.378 70.1248 108.111 74.5886C112.736 77.2633 116.837 82.2323 119.404 87.7005C121.076 91.1705 121.984 94.9587 122.067 98.8095Z" fill="white"/>
<g style="mix-blend-mode:multiply">
<path d="M62.0886 179.086C62.0886 185.832 65.5776 193.5 70.2851 197.732C71.0644 198.446 71.9172 199.076 72.8291 199.61L135.453 235.766V136.208C135.539 123.412 136.976 110.662 139.738 98.1675L140.79 93.2639L62.0886 47.8237V179.086Z" fill="#DAE0E5"/>
</g>
<path d="M282.918 320.073C284.099 320.215 285.294 319.976 286.329 319.389C286.386 319.371 286.437 319.338 286.478 319.294C288.677 317.951 290.044 314.937 290.044 310.705V147.132C290.044 139.233 285.236 130.05 279.298 126.615L72.8589 7.41192C70.2495 5.9022 67.8661 5.77143 66.0176 6.74027" stroke="#3A3A3A" stroke-width="3" stroke-linecap="round" stroke-linejoin="round"/>
<path d="M74.8737 1.61078L65.8094 6.84134C63.527 8.14897 62.0886 11.2041 62.0886 15.5311V179.086C62.0886 185.832 65.5836 193.494 70.2851 197.732C71.0644 198.446 71.9172 199.076 72.8291 199.61L279.304 318.825C280.405 319.493 281.638 319.917 282.918 320.067" stroke="#3A3A3A" stroke-width="3" stroke-linecap="round" stroke-linejoin="round"/>
<path d="M70.2852 197.732C76.5023 179.443 83.6885 167.49 95.053 174.064C107.767 181.398 115.666 207.723 128.029 214.862C146.669 225.626 151.144 173.939 171.959 185.963C196.763 200.288 190.563 249.473 217.756 265.17C231.427 273.075 242.28 263.809 250.447 268.51C258.738 273.265 260.551 289.617 267.012 298.788C269.628 302.524 272.568 306.023 275.797 309.243C278.861 312.349 281.284 316.026 282.93 320.067" stroke="#3A3A3A" stroke-width="3" stroke-linecap="round" stroke-linejoin="round"/>
<path d="M130.032 118.971C132.445 115.832 133.842 111.309 133.842 105.609C133.842 99.0294 131.993 91.885 128.855 85.1507C124.171 75.076 116.617 65.9166 108.088 61.0011C93.8582 52.7868 82.3213 59.4438 82.3213 75.8606C82.3213 92.2773 93.8582 112.26 108.088 120.469C117.372 125.842 125.503 124.885 130.032 118.971Z" stroke="#3A3A3A" stroke-width="3" stroke-linecap="round" stroke-linejoin="round"/>
<path d="M119.999 106.073C121.313 104.367 122.067 101.912 122.067 98.8095C121.968 94.956 121.046 91.1683 119.363 87.7006C116.813 82.2323 112.712 77.2633 108.07 74.5886C100.343 70.1248 94.0781 73.7446 94.0781 82.6602C94.0781 91.5759 100.337 102.429 108.07 106.887C113.128 109.805 117.532 109.265 119.999 106.073Z" stroke="#3A3A3A" stroke-width="3" stroke-linecap="round" stroke-linejoin="round"/>
<path d="M128.855 85.1506L119.363 87.7005" stroke="#3A3A3A" stroke-width="3" stroke-linecap="round" stroke-linejoin="round"/>
<path d="M120.005 106.079L130.032 118.977L130.038 118.983" stroke="#3A3A3A" stroke-width="3" stroke-linecap="round" stroke-linejoin="round"/>
<path d="M165.671 151.204C168.687 154.556 172.192 157.433 176.066 159.739C190.296 167.948 201.827 161.285 201.827 144.88C201.827 128.475 190.296 108.486 176.066 100.266C173.22 98.54 170.061 97.3946 166.77 96.8955C157.141 95.6533 150.312 102.501 150.312 115.137C150.312 127.262 156.624 141.367 165.671 151.204Z" stroke="#3A3A3A" stroke-width="3" stroke-linecap="round" stroke-linejoin="round"/>
<path d="M170.426 141.527C172.061 143.349 173.963 144.912 176.067 146.164C183.794 150.621 190.058 147.008 190.058 138.086C190.058 129.164 183.799 118.317 176.067 113.859C174.519 112.927 172.805 112.303 171.02 112.022C165.796 111.345 162.105 115.066 162.105 121.937C162.087 128.516 165.51 136.178 170.426 141.527Z" stroke="#3A3A3A" stroke-width="3" stroke-linecap="round" stroke-linejoin="round"/>
<path d="M165.665 151.21L170.426 141.51" stroke="#3A3A3A" stroke-width="3" stroke-linecap="round" stroke-linejoin="round"/>
<path d="M171.02 112.011L166.77 96.8777" stroke="#3A3A3A" stroke-width="3" stroke-linecap="round" stroke-linejoin="round"/>
<path d="M239.986 196.264C241.285 197.255 242.645 198.164 244.057 198.986C258.287 207.194 269.818 200.543 269.818 184.127C269.818 172.934 264.468 160.102 256.551 150.455C253.074 146.096 248.847 142.393 244.069 139.518C229.846 131.304 218.315 137.961 218.315 154.378C218.303 169.202 227.694 186.92 239.986 196.264Z" stroke="#3A3A3A" stroke-width="3" stroke-linecap="round" stroke-linejoin="round"/>
<path d="M241.846 183.924C242.553 184.457 243.292 184.948 244.057 185.393C251.784 189.856 258.043 186.237 258.043 177.315C258.043 171.24 255.142 164.239 250.839 159.032C248.952 156.661 246.655 154.648 244.057 153.088C236.312 148.66 230.072 152.226 230.072 161.142C230.072 169.22 235.159 178.86 241.846 183.924Z" stroke="#3A3A3A" stroke-width="3" stroke-linecap="round" stroke-linejoin="round"/>
<path d="M241.846 183.924L239.986 196.264" stroke="#3A3A3A" stroke-width="3" stroke-linecap="round" stroke-linejoin="round"/>
<path d="M250.839 159.038L256.551 150.449" stroke="#3A3A3A" stroke-width="3" stroke-linecap="round" stroke-linejoin="round"/>
<path d="M230.066 214.571L256.551 229.864" stroke="#3A3A3A" stroke-width="3" stroke-linecap="round" stroke-linejoin="round"/>
<path d="M230.066 227.183L256.551 242.477" stroke="#3A3A3A" stroke-width="3" stroke-linecap="round" stroke-linejoin="round"/>
<path d="M286.478 319.294L295.429 314.147L295.542 314.058C297.712 312.673 299.108 309.701 299.108 305.475V141.908C299.108 134.003 294.3 124.819 288.362 121.384L81.8932 2.17541C79.2839 0.671634 76.9004 0.53493 75.04 1.50971" stroke="#3A3A3A" stroke-width="3" stroke-linecap="round" stroke-linejoin="round"/>
<path d="M221.239 256.766V285.664L188.798 304.393V294.764L197.137 289.944V280.315L205.482 275.494V265.865L221.239 256.766Z" fill="#3A3A3A"/>
<path d="M221.239 256.766L205.482 265.865L178.099 250.055L193.856 240.955L221.239 256.766Z" fill="white"/>
<path d="M205.482 265.865V275.494L178.099 259.69V250.055L205.482 265.865Z" fill="#DAE0E5"/>
<path d="M205.482 275.494L197.137 280.315L169.754 264.504L178.099 259.69L205.482 275.494Z" fill="white"/>
<path d="M197.137 280.315V289.944L169.754 274.133V264.504L197.137 280.315Z" fill="#DAE0E5"/>
<path d="M197.137 289.944L188.798 294.764L161.415 278.954L169.754 274.133L197.137 289.944Z" fill="white"/>
<path d="M188.798 294.764V304.393L161.415 288.583V278.954L188.798 294.764Z" fill="#DAE0E5"/>
<path d="M197.137 289.944V280.315L205.482 275.494V265.865L221.239 256.766V285.664L188.798 304.393V294.764L197.137 289.944Z" stroke="#3A3A3A" stroke-width="3" stroke-linecap="round" stroke-linejoin="round"/>
<path d="M221.239 256.766L193.856 240.955L178.099 250.055V259.69L169.754 264.504V274.133L161.415 278.954V288.583L188.798 304.393" stroke="#3A3A3A" stroke-width="3" stroke-linecap="round" stroke-linejoin="round"/>
<path d="M205.482 265.865L178.099 250.055" stroke="#3A3A3A" stroke-width="3" stroke-linecap="round" stroke-linejoin="round"/>
<path d="M197.137 280.315L169.754 264.504" stroke="#3A3A3A" stroke-width="3" stroke-linecap="round" stroke-linejoin="round"/>
<path d="M188.798 294.764L161.415 278.954" stroke="#3A3A3A" stroke-width="3" stroke-linecap="round" stroke-linejoin="round"/>
<path d="M197.137 289.944L169.754 274.133" stroke="#3A3A3A" stroke-width="3" stroke-linecap="round" stroke-linejoin="round"/>
<path d="M205.482 275.494L178.099 259.69" stroke="#3A3A3A" stroke-width="3" stroke-linecap="round" stroke-linejoin="round"/>
<path d="M120.343 254.709V266.519C120.343 269.194 118.56 271.869 115.06 273.895L65.6074 302.426C58.5521 306.503 47.1044 306.503 40.0492 302.426L6.16968 282.877C2.63908 280.838 0.879639 278.169 0.879639 275.5V263.857C0.94502 266.46 2.71041 269.069 6.16968 271.06L40.0492 290.609C47.1163 294.687 58.564 294.687 65.6074 290.609L115.06 262.079C118.584 260.046 120.343 257.378 120.343 254.709Z" fill="#3A3A3A"/>
<path d="M115.06 247.327C118.584 249.366 120.343 252.04 120.343 254.709C120.343 257.378 118.56 260.058 115.06 262.079L65.6074 290.609C58.5521 294.687 47.1044 294.687 40.0492 290.609L6.16968 271.06C2.71041 269.069 0.94502 266.46 0.879639 263.857V263.684C0.879639 261.009 2.63314 258.335 6.16968 256.302L55.6159 227.772C62.6711 223.706 74.1248 223.706 81.1741 227.772L115.06 247.327Z" fill="white"/>
<path d="M0.891602 263.874C0.956983 266.478 2.72237 269.087 6.18165 271.078L40.0611 290.627C47.1283 294.705 58.576 294.705 65.6194 290.627L115.072 262.097C118.596 260.064 120.355 257.396 120.355 254.727C120.355 252.058 118.572 249.377 115.072 247.345L81.192 227.79C74.1368 223.724 62.6831 223.724 55.6338 227.79L6.18759 256.32C2.62133 258.364 0.891607 261.027 0.897551 263.702" stroke="#3A3A3A" stroke-width="3" stroke-linecap="round" stroke-linejoin="round"/>
<path d="M0.891602 263.702V275.518C0.891602 278.187 2.67482 280.868 6.18165 282.894L40.0611 302.444C47.1283 306.521 58.576 306.521 65.6194 302.444L115.072 273.913C118.596 271.881 120.355 269.212 120.355 266.537V254.727" stroke="#3A3A3A" stroke-width="3" stroke-linecap="round" stroke-linejoin="round"/>
<path d="M54.7482 198.927C53.7193 198.514 52.6492 198.213 51.5563 198.029L46.6112 179.116C50.5062 179.83 54.2408 181.24 57.6368 183.277C66.7367 188.537 74.9808 197.542 80.9365 207.878C86.8921 218.214 90.5891 229.87 90.5891 240.349C90.5891 250.727 87.0228 258.061 81.1504 261.55L80.9601 261.657C75.0163 265.099 66.7605 264.629 57.6606 259.351C48.5606 254.073 40.3286 245.086 34.3729 234.756C29.7605 226.779 26.5152 218.006 25.2729 209.59L39.7877 214.838C41.131 223.879 46.6409 233.632 53.7199 239.529C54.954 240.562 56.2721 241.49 57.6606 242.304C66.7248 247.535 74.2258 244.224 75.6226 235.011C75.7768 233.948 75.8524 232.876 75.8486 231.802C75.8414 230.192 75.6982 228.585 75.4206 226.999C73.6375 216.556 66.3504 205.322 57.6606 200.312C56.7266 199.776 55.753 199.313 54.7482 198.927Z" fill="white"/>
<path d="M57.6366 183.277C54.2407 181.24 50.5061 179.83 46.611 179.116C41.957 178.337 37.7845 179.003 34.3608 180.976L49.3986 172.292C52.8341 170.313 57.0066 169.636 61.6724 170.42C65.5697 171.133 69.3067 172.542 72.7041 174.581C81.7981 179.829 90.0361 188.846 95.9977 199.17C101.959 209.495 105.65 221.162 105.65 231.647C105.65 242.132 101.959 249.532 96.0037 252.973L81.1442 261.544C86.987 258.055 90.583 250.721 90.583 240.343C90.583 229.84 86.892 218.19 80.9304 207.872C74.9687 197.554 66.7365 188.537 57.6366 183.277Z" fill="#DAE0E5"/>
<path d="M57.6366 242.322C56.2482 241.508 54.9301 240.58 53.696 239.546C46.617 233.65 41.1071 223.896 39.7638 214.856C39.5642 213.522 39.4629 212.175 39.4607 210.826C39.4607 201.696 44.5069 196.852 51.5562 198.029C52.6491 198.213 53.7192 198.514 54.7481 198.927C54.5888 199.989 54.5113 201.062 54.5162 202.136C54.5236 203.483 54.6269 204.828 54.8253 206.16C56.1567 215.201 61.6845 224.954 68.7516 230.851C69.9877 231.887 71.31 232.815 72.7042 233.626C73.6326 234.166 74.6002 234.635 75.5989 235.029C74.2021 244.242 66.7009 247.553 57.6366 242.322Z" fill="#3A3A3A"/>
<path d="M51.5562 198.029C44.5068 196.84 39.4607 201.696 39.4607 210.826C39.4629 212.175 39.5642 213.522 39.7638 214.856L25.249 209.608C24.8854 207.189 24.7006 204.748 24.6963 202.303C24.6963 191.8 28.3814 184.418 34.343 180.976C37.7666 179.003 41.9392 178.337 46.5932 179.116L51.5383 198.029H51.5562Z" fill="#F6D84C"/>
<path d="M75.5988 235.029C74.6001 234.635 73.6325 234.166 72.7041 233.626C71.3099 232.815 69.9876 231.887 68.7515 230.851C61.6844 224.954 56.1566 215.201 54.8252 206.16C54.6268 204.828 54.5235 203.483 54.5161 202.136C54.5112 201.062 54.5887 199.989 54.748 198.927" stroke="#3A3A3A" stroke-width="3" stroke-linecap="round" stroke-linejoin="round"/>
<path d="M34.3608 180.964C37.7845 178.991 41.957 178.325 46.611 179.104C50.5061 179.818 54.2407 181.228 57.6366 183.265C66.7365 188.525 74.9806 197.53 80.9363 207.866C86.892 218.202 90.589 229.858 90.589 240.337C90.589 250.715 87.0226 258.049 81.1502 261.538" stroke="#3A3A3A" stroke-width="3" stroke-linecap="round" stroke-linejoin="round"/>
<path d="M80.9363 261.675C74.9926 265.117 66.7365 264.647 57.6366 259.369C48.5367 254.091 40.3046 245.104 34.349 234.774C29.7366 226.797 26.4913 218.024 25.249 209.608C24.8854 207.189 24.7006 204.748 24.6963 202.303C24.6963 191.8 28.3814 184.418 34.343 180.976" stroke="#3A3A3A" stroke-width="3" stroke-linecap="round" stroke-linejoin="round"/>
<path d="M51.5562 198.029C52.6491 198.213 53.7192 198.514 54.7481 198.927C55.7453 199.32 56.7109 199.789 57.6366 200.329C66.3264 205.34 73.5898 216.574 75.3967 227.017C75.6743 228.603 75.8175 230.209 75.8246 231.819C75.8285 232.893 75.753 233.966 75.5989 235.029C74.2021 244.242 66.6831 247.553 57.6366 242.322C56.2482 241.508 54.9301 240.58 53.696 239.546C46.617 233.65 41.1071 223.896 39.7638 214.856C39.5642 213.522 39.4629 212.175 39.4607 210.826C39.4607 201.696 44.5069 196.852 51.5562 198.029Z" stroke="#3A3A3A" stroke-width="3" stroke-linecap="round" stroke-linejoin="round"/>
<path d="M39.7638 214.862L25.2432 209.608" stroke="#3A3A3A" stroke-width="3" stroke-linecap="round" stroke-linejoin="round"/>
<path d="M51.5504 198.023L46.6111 179.104" stroke="#3A3A3A" stroke-width="3" stroke-linecap="round" stroke-linejoin="round"/>
<path d="M34.343 180.976L49.3808 172.292C52.8163 170.313 56.9888 169.636 61.6546 170.42C65.5519 171.133 69.2889 172.542 72.6863 174.581C81.7803 179.829 90.0183 188.846 95.9799 199.17C101.942 209.495 105.633 221.162 105.633 231.647C105.633 242.132 101.942 249.532 95.9859 252.973L81.1264 261.544L80.9363 261.651" stroke="#3A3A3A" stroke-width="3" stroke-linecap="round" stroke-linejoin="round"/>
<path d="M59.1882 259.375C59.1882 257.847 58.735 256.353 57.886 255.082C57.0369 253.811 55.8302 252.821 54.4182 252.236C53.0063 251.651 51.4528 251.498 49.9539 251.796C48.455 252.095 47.0782 252.83 45.9976 253.911C44.9169 254.992 44.181 256.369 43.8829 257.867C43.5847 259.366 43.7377 260.92 44.3225 262.332C44.9074 263.744 45.8978 264.95 47.1685 265.8C48.4392 266.649 49.9331 267.102 51.4613 267.102C53.5106 267.102 55.476 266.288 56.9251 264.839C58.3741 263.39 59.1882 261.424 59.1882 259.375Z" fill="white"/>
<path d="M59.1882 259.375C59.1882 257.847 58.735 256.353 57.886 255.082C57.0369 253.811 55.8302 252.821 54.4182 252.236C53.0063 251.651 51.4528 251.498 49.9539 251.796C48.455 252.095 47.0782 252.83 45.9976 253.911C44.9169 254.992 44.181 256.369 43.8829 257.867C43.5847 259.366 43.7377 260.92 44.3225 262.332C44.9074 263.744 45.8978 264.95 47.1685 265.8C48.4392 266.649 49.9331 267.102 51.4613 267.102C53.5106 267.102 55.476 266.288 56.9251 264.839C58.3741 263.39 59.1882 261.424 59.1882 259.375Z" stroke="#3A3A3A" stroke-width="3" stroke-linecap="round" stroke-linejoin="round"/>
</g>
<defs>
<clipPath id="clip0_2664_1557">
<rect width="300" height="321" fill="white"/>
</clipPath>
</defs>
</svg>
