<svg width="20" height="20" viewBox="0 0 20 20" fill="none" xmlns="http://www.w3.org/2000/svg">
<g id="ic:round-apple">
<path id="Vector" d="M14.2085 16.9C13.3918 17.6917 12.5001 17.5667 11.6418 17.1917C10.7335 16.8083 9.90013 16.7917 8.9418 17.1917C7.7418 17.7083 7.10846 17.5583 6.3918 16.9C2.32513 12.7083 2.92513 6.325 7.5418 6.09167C8.6668 6.15 9.45013 6.70833 10.1085 6.75833C11.0918 6.55833 12.0335 5.98333 13.0835 6.05833C14.3418 6.15833 15.2918 6.65833 15.9168 7.55833C13.3168 9.11667 13.9335 12.5417 16.3168 13.5C15.8418 14.75 15.2251 15.9917 14.2001 16.9083L14.2085 16.9ZM10.0251 6.04167C9.90013 4.18333 11.4085 2.65 13.1418 2.5C13.3835 4.65 11.1918 6.25 10.0251 6.04167Z" fill="white"/>
</g>
</svg>
