<svg width="12" height="12" viewBox="0 0 12 12" fill="none" xmlns="http://www.w3.org/2000/svg">
<path d="M6.33158 11.9647C6.09689 11.9647 5.86221 11.9647 5.63195 11.9647C5.60095 11.9603 5.56996 11.9471 5.54339 11.9471C4.91461 11.9074 4.30354 11.775 3.72346 11.5235C1.73084 10.6633 0.517559 9.16766 0.0968952 7.0456C0.0526147 6.8206 0.0349026 6.58678 0.00390625 6.35737C0.00390625 6.12355 0.00390625 5.88972 0.00390625 5.66031C0.0127623 5.62502 0.0216184 5.58531 0.0260465 5.55002C0.0614708 4.94119 0.19874 4.35884 0.42457 3.79855C1.58472 0.873546 4.88361 -0.652925 7.87697 0.352958C11.136 1.44708 12.8054 4.98972 11.5522 8.15737C10.7375 10.2177 9.18767 11.4485 7.00022 11.8721C6.77881 11.9162 6.55298 11.9383 6.33158 11.9647ZM5.98177 11.1706C8.84671 11.1706 11.1714 8.85443 11.1626 6.00443C11.1581 3.15002 8.85114 0.851487 5.98619 0.842663C3.12125 0.838252 0.800954 3.15002 0.796526 6.00443C0.796526 8.85884 3.11682 11.1706 5.98177 11.1706Z" fill="#B0B6C1"/>
<path d="M7.31063 5.9912C7.26635 5.9559 7.2265 5.93384 7.1955 5.90737C6.47816 5.19267 5.75639 4.47796 5.04347 3.75885C4.97705 3.68826 4.91505 3.60002 4.88406 3.51179C4.83092 3.35737 4.91063 3.18973 5.0479 3.09708C5.18517 3.00443 5.35343 3.00443 5.48627 3.10149C5.53055 3.13237 5.57041 3.17208 5.60583 3.21179C6.44273 4.04561 7.27964 4.87943 8.11654 5.71326C8.35565 5.95149 8.35565 6.14561 8.12097 6.38384C7.29735 7.20443 6.4693 8.02943 5.64126 8.85002C5.50841 8.98237 5.33129 9.01326 5.15417 8.96914C4.99476 8.93385 4.9062 8.81473 4.8752 8.6559C4.84421 8.51032 4.9062 8.3912 5.00804 8.28973C5.25159 8.04708 5.49956 7.80002 5.7431 7.55737C6.25676 7.0412 6.77041 6.52943 7.31063 5.9912Z" fill="#B0B6C1"/>
</svg>
