<svg width="24" height="25" viewBox="0 0 24 25" fill="none" xmlns="http://www.w3.org/2000/svg">
<g id="material-symbols:alternate-email-rounded">
<path id="Vector" d="M12 22.8008C10.6333 22.8008 9.34167 22.5381 8.125 22.0128C6.90833 21.4874 5.84567 20.7708 4.937 19.8628C4.029 18.9548 3.31233 17.8924 2.787 16.6758C2.26167 15.4591 1.99933 14.1674 2 12.8008C2 11.4174 2.26267 10.1214 2.788 8.91278C3.31333 7.70411 4.03 6.64611 4.938 5.73878C5.846 4.83011 6.908 4.11345 8.124 3.58878C9.34 3.06411 10.632 2.80145 12 2.80078C13.3833 2.80078 14.6793 3.06345 15.888 3.58878C17.0967 4.11411 18.1547 4.83078 19.062 5.73878C19.9707 6.64678 20.6873 7.70511 21.212 8.91378C21.7367 10.1224 21.9993 11.4181 22 12.8008V14.2508C22 15.2341 21.6627 16.0718 20.988 16.7638C20.3133 17.4558 19.484 17.8014 18.5 17.8008C17.9 17.8008 17.3417 17.6674 16.825 17.4008C16.3083 17.1341 15.8833 16.7841 15.55 16.3508C15.1 16.8008 14.5707 17.1551 13.962 17.4138C13.3533 17.6724 12.6993 17.8014 12 17.8008C10.6167 17.8008 9.43733 17.3131 8.462 16.3378C7.48667 15.3624 6.99933 14.1834 7 12.8008C7 11.4174 7.48767 10.2381 8.463 9.26278C9.43833 8.28745 10.6173 7.80011 12 7.80078C13.3833 7.80078 14.5627 8.28845 15.538 9.26378C16.5133 10.2391 17.0007 11.4181 17 12.8008V14.2508C17 14.7341 17.15 15.1131 17.45 15.3878C17.75 15.6624 18.1 15.8001 18.5 15.8008C18.9 15.8008 19.25 15.6631 19.55 15.3878C19.85 15.1124 20 14.7334 20 14.2508V12.8008C20 10.6174 19.2123 8.73811 17.637 7.16278C16.0617 5.58745 14.1827 4.80011 12 4.80078C9.81667 4.80078 7.93734 5.58845 6.362 7.16378C4.78667 8.73911 3.99933 10.6181 4 12.8008C4 14.9841 4.78767 16.8634 6.363 18.4388C7.93833 20.0141 9.81733 20.8014 12 20.8008H16C16.2833 20.8008 16.521 20.8968 16.713 21.0888C16.905 21.2808 17.0007 21.5181 17 21.8008C17 22.0841 16.904 22.3218 16.712 22.5138C16.52 22.7058 16.2827 22.8014 16 22.8008H12ZM12 15.8008C12.8333 15.8008 13.5417 15.5091 14.125 14.9258C14.7083 14.3424 15 13.6341 15 12.8008C15 11.9674 14.7083 11.2591 14.125 10.6758C13.5417 10.0924 12.8333 9.80078 12 9.80078C11.1667 9.80078 10.4583 10.0924 9.875 10.6758C9.29167 11.2591 9 11.9674 9 12.8008C9 13.6341 9.29167 14.3424 9.875 14.9258C10.4583 15.5091 11.1667 15.8008 12 15.8008Z" fill="#FBD15B"/>
</g>
</svg>
