<svg width="423" height="406" viewBox="0 0 423 406" fill="none" xmlns="http://www.w3.org/2000/svg">
<g clip-path="url(#clip0_1404_1597)">
<path d="M329.779 402.9H54.7518C52.1075 401.587 49.4938 400.18 46.9108 398.68C24.22 385.439 21.5382 353.704 41.251 336.335C44.4531 333.516 47.6926 330.804 50.9694 328.199C45.7021 330.205 39.8874 330.239 34.5972 328.294C29.307 326.349 24.8979 322.557 22.1826 317.616C13.7724 302.313 10.6239 284.668 13.2217 267.398C15.8196 250.129 24.0199 234.192 36.56 222.042C71.9911 187.628 104.46 162.231 137.158 145.167L134.596 146.368C127.939 149.487 120.439 150.325 113.258 148.753C106.077 147.181 99.6127 143.287 94.866 137.671C84.788 125.803 79.7907 110.441 80.9569 94.913C81.9905 80.5653 88.1877 67.0787 98.4003 56.9516C102.16 53.2329 106.397 50.031 111.001 47.4303C139.572 31.1776 168.992 16.4648 199.134 3.35483C206.992 -0.047833 215.721 -0.892792 224.086 0.939474C232.45 2.77174 240.027 7.18847 245.745 13.5649L246.213 14.0894C260.854 30.6337 259.518 55.8906 243.439 71.0415L221.024 92.1583L241.165 86.6369C258.702 81.8327 277.378 83.466 293.815 91.2411C310.252 99.0163 323.365 112.42 330.78 129.027L331.34 130.276C337.616 144.329 338.951 160.095 335.127 175.004C334.823 176.169 334.494 177.322 334.134 178.475C334.134 178.475 334.134 178.475 334.134 178.495C333.313 181.125 332.33 183.702 331.192 186.211C324.278 201.583 311.904 213.84 296.47 220.605C342.736 215.8 386.676 241.533 405.433 284.111C405.7 284.728 405.966 285.345 406.233 285.961C430.301 341.14 389.951 402.9 329.779 402.9Z" fill="#F2F8FC"/>
<path d="M137.106 209.221H128.292V402.904H137.106V209.221Z" fill="#AED1E5"/>
<path d="M137.106 209.221H128.292V214.077H137.106V209.221Z" fill="#93BED1"/>
<path d="M271.373 362.777H196.02V372.083H271.373V362.777Z" fill="#AED1E5"/>
<path d="M274.795 254.494H130.517V266.95H274.795V254.494Z" fill="#DDEAF8"/>
<path d="M274.795 254.494H205.226V266.95H274.795V254.494Z" fill="#AED1E5"/>
<path d="M278.87 402.905H269.664L260.75 271.276L260.454 266.947H269.664L269.956 271.276L278.87 402.905Z" fill="#AED1E5"/>
<path d="M145.227 266.947L144.935 271.276L136.021 402.905H126.815L135.729 271.276L136.021 266.947H145.227Z" fill="#DDEAF8"/>
<path d="M205.23 402.905H196.024L187.11 271.276L186.814 266.947H196.024L196.316 271.276L202.852 367.747V367.783L205.23 402.905Z" fill="#AED1E5"/>
<path d="M145.227 266.947L144.935 271.276H135.729L136.021 266.947H145.227Z" fill="#93BED1"/>
<path d="M196.316 271.276H187.11L186.814 266.947H196.024L196.316 271.276Z" fill="#93BED1"/>
<path d="M269.956 271.276H260.75L260.454 266.947H269.664L269.956 271.276Z" fill="#93BED1"/>
<path d="M209.377 362.777H134.023V372.083H209.377V362.777Z" fill="#DDEAF8"/>
<path d="M218.879 266.947L218.583 271.276L209.673 402.905H200.467L202.852 367.783V367.747L209.377 271.276L209.673 266.947H218.879Z" fill="#AED1E5"/>
<path d="M218.879 266.947L218.583 271.276H209.377L209.673 266.947H218.879Z" fill="#93BED1"/>
<path d="M189.416 145.586H272.178C272.868 145.586 273.529 145.86 274.017 146.348C274.505 146.836 274.779 147.498 274.779 148.189V254.493H186.814V148.189C186.814 147.498 187.088 146.836 187.576 146.348C188.064 145.86 188.726 145.586 189.416 145.586Z" fill="#AED1E5"/>
<path d="M274.795 151.044V254.493H265.189V151.044C265.189 149.595 264.614 148.205 263.59 147.18C262.566 146.155 261.178 145.579 259.729 145.578H269.336C270.784 145.579 272.173 146.155 273.196 147.18C274.22 148.205 274.795 149.595 274.795 151.044Z" fill="#93BED1"/>
<path d="M293.127 209.221H284.305V402.904H293.127V209.221Z" fill="#AED1E5"/>
<path d="M377.314 209.221H368.492V402.904H377.314V209.221Z" fill="#AED1E5"/>
<path d="M52.9185 209.221H44.1047V402.904H52.9185V209.221Z" fill="#DDEAF8"/>
<path d="M387.941 198.768H36.9883V209.222H387.941V198.768Z" fill="#DDEAF8"/>
<path d="M387.937 198.768H274.295V209.222H387.937V198.768Z" fill="#AED1E5"/>
<path d="M52.9185 209.221H44.1047V214.077H52.9185V209.221Z" fill="#93BED1"/>
<path d="M293.127 209.221H284.305V214.077H293.127V209.221Z" fill="#93BED1"/>
<path d="M377.314 209.221H368.492V214.077H377.314V209.221Z" fill="#93BED1"/>
<path d="M421.451 405.999H1.54906C1.13823 405.999 0.74421 405.836 0.453714 405.546C0.163218 405.255 0 404.861 0 404.45C0 404.039 0.163218 403.645 0.453714 403.354C0.74421 403.064 1.13823 402.9 1.54906 402.9H421.451C421.862 402.9 422.256 403.064 422.546 403.354C422.837 403.645 423 404.039 423 404.45C423 404.861 422.837 405.255 422.546 405.546C422.256 405.836 421.862 405.999 421.451 405.999Z" fill="#AED1E5"/>
<path d="M180.49 149.58V254.551C180.49 255.735 180.02 256.871 179.183 257.708C178.346 258.545 177.211 259.016 176.027 259.016H6.01595C4.83195 259.016 3.69641 258.545 2.85882 257.708C2.02122 256.871 1.55013 255.736 1.54907 254.551V149.58C1.54855 148.993 1.66377 148.411 1.88806 147.869C2.11236 147.327 2.44128 146.834 2.85618 146.419C3.27107 146.004 3.76376 145.675 4.30595 145.45C4.84814 145.226 5.4292 145.111 6.01595 145.111H176.027C176.613 145.111 177.194 145.226 177.736 145.45C178.278 145.675 178.771 146.004 179.185 146.419C179.6 146.834 179.928 147.327 180.152 147.869C180.376 148.412 180.491 148.993 180.49 149.58Z" fill="#50A4FE"/>
<path d="M32.3853 145.111C31.1565 153.735 27.6535 161.875 22.2367 168.694C16.8199 175.514 9.68473 180.767 1.56519 183.914V196.29C24.336 189.383 41.4792 169.399 44.205 145.111H32.3853Z" fill="#6CB9FF"/>
<path d="M149.654 259.018C150.884 250.396 154.387 242.257 159.804 235.438C165.22 228.619 172.355 223.366 180.474 220.22V207.844C169.158 211.292 159.096 217.973 151.525 227.064C143.953 236.156 139.201 247.262 137.854 259.018H149.654Z" fill="#3094EF"/>
<path d="M82.2416 163.701H21.3739C19.8928 163.701 18.6921 164.902 18.6921 166.384V208.998C18.6921 210.479 19.8928 211.68 21.3739 211.68H82.2416C83.7227 211.68 84.9234 210.479 84.9234 208.998V166.384C84.9234 164.902 83.7227 163.701 82.2416 163.701Z" fill="#DDEAF8"/>
<path d="M84.9236 182.977V209.002C84.9236 209.354 84.8542 209.703 84.7194 210.028C84.5845 210.353 84.3869 210.649 84.1378 210.898C83.8887 211.146 83.5932 211.344 83.2678 211.478C82.9425 211.612 82.5938 211.681 82.2419 211.681H21.3741C21.0221 211.681 20.6735 211.612 20.3482 211.478C20.0228 211.344 19.7271 211.146 19.4781 210.898C19.229 210.649 19.0313 210.353 18.8965 210.028C18.7617 209.703 18.6924 209.354 18.6924 209.002V182.977H84.9236Z" fill="#9FD1FF"/>
<path d="M84.9236 202.227V209.001C84.9236 209.354 84.8542 209.702 84.7194 210.027C84.5845 210.353 84.3869 210.648 84.1378 210.897C83.8887 211.146 83.5932 211.343 83.2678 211.477C82.9425 211.612 82.5938 211.681 82.2419 211.68H21.3741C21.0221 211.681 20.6735 211.612 20.3482 211.477C20.0228 211.343 19.7271 211.146 19.4781 210.897C19.229 210.648 19.0313 210.353 18.8965 210.027C18.7617 209.702 18.6924 209.354 18.6924 209.001V198.775C18.6924 198.775 28.7429 196.773 38.5053 196.773C38.5053 196.773 43.3845 203.388 58.6064 203.388C73.8283 203.388 77.6508 199.356 84.9236 202.227Z" fill="#E2A97F"/>
<path d="M68.0764 218.515H18.6922C18.5102 218.525 18.3281 218.497 18.157 218.435C17.9859 218.372 17.8293 218.275 17.697 218.149C17.5647 218.024 17.4593 217.873 17.3872 217.705C17.3152 217.538 17.2781 217.358 17.2781 217.175C17.2781 216.993 17.3152 216.813 17.3872 216.645C17.4593 216.478 17.5647 216.327 17.697 216.201C17.8293 216.076 17.9859 215.979 18.157 215.916C18.3281 215.853 18.5102 215.826 18.6922 215.836H68.0764C68.2583 215.826 68.4405 215.853 68.6116 215.916C68.7827 215.979 68.9391 216.076 69.0714 216.201C69.2038 216.327 69.3093 216.478 69.3813 216.645C69.4533 216.813 69.4905 216.993 69.4905 217.175C69.4905 217.358 69.4533 217.538 69.3813 217.705C69.3093 217.873 69.2038 218.024 69.0714 218.149C68.9391 218.275 68.7827 218.372 68.6116 218.435C68.4405 218.497 68.2583 218.525 68.0764 218.515Z" fill="#F2F8FC"/>
<path d="M44.1888 225.687H18.6922C18.3366 225.687 17.9955 225.545 17.7441 225.294C17.4926 225.042 17.3513 224.701 17.3513 224.345C17.3513 223.989 17.4926 223.648 17.7441 223.397C17.9955 223.145 18.3366 223.004 18.6922 223.004H44.1888C44.5445 223.004 44.8855 223.145 45.1369 223.397C45.3884 223.648 45.5297 223.989 45.5297 224.345C45.5297 224.701 45.3884 225.042 45.1369 225.294C44.8855 225.545 44.5445 225.687 44.1888 225.687Z" fill="#F2F8FC"/>
<path d="M73.3918 232.625H30.2197C29.1122 232.625 28.2144 233.523 28.2144 234.631V238.423C28.2144 239.531 29.1122 240.429 30.2197 240.429H73.3918C74.4993 240.429 75.3971 239.531 75.3971 238.423V234.631C75.3971 233.523 74.4993 232.625 73.3918 232.625Z" fill="#FFDA3E"/>
<path d="M163.351 166.384V209.002C163.35 209.713 163.067 210.394 162.564 210.896C162.061 211.398 161.379 211.68 160.669 211.68H99.7892C99.0786 211.68 98.3971 211.398 97.8943 210.896C97.3915 210.394 97.1085 209.713 97.1074 209.002V166.384C97.1085 165.673 97.3914 164.991 97.8941 164.488C98.3968 163.985 99.0782 163.702 99.7892 163.701H160.669C161.38 163.702 162.061 163.985 162.564 164.488C163.067 164.991 163.35 165.673 163.351 166.384Z" fill="#DDEAF8"/>
<path d="M163.351 203.084V209.002C163.35 209.713 163.067 210.394 162.564 210.896C162.061 211.398 161.379 211.68 160.669 211.68H99.7892C99.0786 211.68 98.3971 211.398 97.8943 210.896C97.3915 210.394 97.1085 209.713 97.1074 209.002V203.084H163.351Z" fill="#50B58C"/>
<path d="M133.131 203.088L138.198 176.369C138.242 176.14 138.195 175.903 138.066 175.709C137.938 175.514 137.738 175.378 137.51 175.328L124.601 172.526C124.486 172.501 124.367 172.499 124.251 172.521C124.135 172.542 124.024 172.587 123.925 172.651C123.827 172.715 123.741 172.798 123.675 172.896C123.608 172.993 123.561 173.103 123.537 173.218L117.305 203.072L133.131 203.088Z" fill="#E2A97F"/>
<path d="M147.836 218.515H98.4483C98.2663 218.525 98.0842 218.497 97.9131 218.435C97.742 218.372 97.5855 218.275 97.4531 218.149C97.3208 218.024 97.2154 217.873 97.1433 217.705C97.0713 217.538 97.0342 217.358 97.0342 217.175C97.0342 216.993 97.0713 216.813 97.1433 216.645C97.2154 216.478 97.3208 216.327 97.4531 216.201C97.5855 216.076 97.742 215.979 97.9131 215.916C98.0842 215.853 98.2663 215.826 98.4483 215.836H147.836C148.179 215.855 148.501 216.004 148.737 216.253C148.973 216.502 149.104 216.832 149.104 217.175C149.104 217.518 148.973 217.848 148.737 218.098C148.501 218.347 148.179 218.496 147.836 218.515Z" fill="#F2F8FC"/>
<path d="M123.945 225.687H98.4483C98.0927 225.687 97.7516 225.545 97.5002 225.294C97.2487 225.042 97.1074 224.701 97.1074 224.345C97.1074 223.989 97.2487 223.648 97.5002 223.397C97.7516 223.145 98.0927 223.004 98.4483 223.004H123.945C124.301 223.004 124.642 223.145 124.893 223.397C125.144 223.648 125.286 223.989 125.286 224.345C125.286 224.701 125.144 225.042 124.893 225.294C124.642 225.545 124.301 225.687 123.945 225.687Z" fill="#F2F8FC"/>
<path d="M153.148 232.625H109.976C108.868 232.625 107.97 233.523 107.97 234.631V238.423C107.97 239.531 108.868 240.429 109.976 240.429H153.148C154.255 240.429 155.153 239.531 155.153 238.423V234.631C155.153 233.523 154.255 232.625 153.148 232.625Z" fill="#FFDA3E"/>
<path d="M366.271 358.816H349.792L345.462 350.58C345.462 350.58 345.017 337.451 352.734 318.841C356.312 310.282 360.854 302.159 366.271 294.629C366.271 294.629 363.673 311.109 366.271 326.288C367.023 330.93 367.406 335.624 367.416 340.326C367.471 346.509 367.089 352.688 366.271 358.816Z" fill="#50B58C"/>
<path d="M366.271 358.816H361.132C360.819 351.481 365.35 343.557 367.416 340.326C367.471 346.509 367.089 352.688 366.271 358.816Z" fill="#3E9B73"/>
<path d="M421.451 317.813C421.451 317.813 407.67 317.813 402.503 331.943C397.335 346.073 377.006 358.821 377.006 358.821H361.504C361.504 358.821 363.225 347.106 375.629 338.317C388.033 329.528 397.331 310.229 421.451 317.813Z" fill="#50B58C"/>
<path d="M354.627 358.817H349.792L345.462 350.581C345.462 350.581 345.017 337.452 352.734 318.842C351.694 324.884 350.661 333.232 351.966 337.452C353.627 342.877 354.788 351.814 354.627 358.817Z" fill="#3E9B73"/>
<path d="M339.39 358.82C339.39 358.82 324.212 351.881 321.178 339.305C318.144 326.729 315.106 317.616 298.195 312.843C298.195 312.843 348.928 308.939 354.131 358.82H339.39Z" fill="#50B58C"/>
<path d="M365.494 363.017H349.672L349.556 362.668C349.484 362.448 342.211 340.719 325.816 326.233C325.716 326.144 325.654 326.019 325.646 325.885C325.637 325.751 325.682 325.619 325.77 325.518C325.859 325.417 325.984 325.355 326.118 325.347C326.252 325.338 326.384 325.383 326.485 325.472C341.943 339.129 349.384 359.105 350.397 362H364.882C365.855 360.166 371.314 350.084 376.353 345.852C381.697 341.363 390.547 332.735 390.635 332.639C390.733 332.557 390.858 332.516 390.986 332.522C391.113 332.529 391.234 332.583 391.323 332.675C391.412 332.766 391.464 332.887 391.468 333.015C391.471 333.143 391.427 333.267 391.343 333.364C391.255 333.452 382.377 342.104 377.006 346.621C371.723 351.057 365.699 362.612 365.638 362.732L365.494 363.017Z" fill="#3E9B73"/>
<path d="M390.991 361.855V399.869C390.99 400.674 390.67 401.446 390.1 402.015C389.53 402.584 388.758 402.904 387.953 402.904H328.118C327.314 402.903 326.543 402.583 325.974 402.014C325.405 401.445 325.085 400.673 325.084 399.869V361.855C325.085 361.05 325.405 360.279 325.974 359.709C326.542 359.14 327.313 358.819 328.118 358.816H387.953C388.759 358.817 389.531 359.138 390.1 359.708C390.67 360.277 390.99 361.05 390.991 361.855Z" fill="#446477"/>
<path d="M390.991 361.855V399.869C390.99 400.674 390.67 401.446 390.1 402.015C389.53 402.584 388.758 402.904 387.953 402.904H328.118C327.314 402.903 326.543 402.583 325.974 402.014C325.405 401.445 325.085 400.673 325.084 399.869V398.604C364.562 398.239 377.947 373.779 382.45 358.816H387.953C388.759 358.817 389.531 359.138 390.1 359.708C390.67 360.277 390.99 361.05 390.991 361.855Z" fill="#243E51"/>
<path d="M310.671 191.797C305.69 191.8 300.82 190.325 296.677 187.558C292.535 184.792 289.306 180.858 287.399 176.255C285.493 171.651 284.994 166.586 285.967 161.699C286.939 156.813 289.339 152.324 292.863 148.803L293.576 148.086L329.199 183.721L328.482 184.434C326.145 186.775 323.368 188.63 320.311 189.894C317.254 191.158 313.978 191.804 310.671 191.797ZM293.591 150.957C289.565 155.359 287.391 161.146 287.523 167.112C287.656 173.078 290.084 178.763 294.302 182.982C298.52 187.202 304.203 189.631 310.167 189.763C316.131 189.896 321.916 187.721 326.317 183.693L293.591 150.957Z" fill="#93BED1"/>
<path d="M323.515 198.767H297.826L299.355 197.085C299.829 196.564 300.406 196.148 301.05 195.864C301.694 195.579 302.39 195.432 303.094 195.432H318.244C318.948 195.432 319.645 195.579 320.289 195.863C320.934 196.148 321.512 196.564 321.986 197.085L323.515 198.767Z" fill="#93BED1"/>
<path d="M316.362 195.431H304.979L305.659 194.59C305.856 194.338 306.107 194.132 306.394 193.989C306.681 193.847 306.996 193.77 307.316 193.766H314.025C314.345 193.77 314.66 193.847 314.947 193.989C315.234 194.132 315.485 194.338 315.682 194.59L316.362 195.431Z" fill="#93BED1"/>
<path d="M312.46 190.795H308.882V195.431H312.46V190.795Z" fill="#93BED1"/>
<path d="M331.696 166.612C331.704 169.214 331.223 171.795 330.28 174.22C328.752 178.182 326.06 181.588 322.559 183.988C319.058 186.389 314.912 187.673 310.667 187.669C310.371 187.669 310.078 187.669 309.786 187.669C306.94 187.556 304.148 186.861 301.581 185.627C300.474 185.095 299.414 184.468 298.415 183.753C295.976 182.004 293.94 179.754 292.443 177.153C290.946 174.553 290.022 171.662 289.733 168.674C289.664 168.001 289.63 167.325 289.633 166.648C289.625 162.33 290.944 158.115 293.412 154.572C295.88 151.03 299.378 148.332 303.43 146.845C306.608 145.683 310.019 145.305 313.374 145.743C316.729 146.182 319.929 147.423 322.702 149.361C325.475 151.3 327.74 153.88 329.304 156.881C330.869 159.882 331.687 163.216 331.688 166.6L331.696 166.612Z" fill="#50A4FE"/>
<path d="M316.158 158.568L314.629 159.589C313.995 160.006 313.508 160.614 313.24 161.324C312.971 162.035 312.933 162.812 313.132 163.545L314.033 166.904C314.106 167.172 314.089 167.457 313.985 167.715C313.881 167.973 313.696 168.19 313.457 168.332C313.219 168.475 312.94 168.535 312.664 168.504C312.388 168.474 312.129 168.353 311.928 168.161L305.099 161.659C303.36 160.009 302.187 157.851 301.745 155.495C301.304 153.138 301.618 150.702 302.642 148.534L303.442 146.852C307.621 145.328 312.175 145.167 316.451 146.392L318.008 148.586C318.555 149.358 318.942 150.232 319.146 151.157C319.349 152.081 319.365 153.037 319.193 153.968C319.02 154.899 318.663 155.786 318.142 156.576C317.621 157.366 316.946 158.043 316.158 158.568Z" fill="#75E0B7"/>
<path d="M303.854 179.184L301.589 185.59C300.482 185.057 299.422 184.43 298.423 183.716C298.495 183.058 298.317 182.398 297.925 181.865C297.533 181.332 296.955 180.967 296.305 180.841L294.952 180.589C291.989 177.262 290.166 173.074 289.749 168.637L290.834 167.664C291.447 167.11 292.25 166.815 293.076 166.839C293.901 166.864 294.686 167.207 295.265 167.796L296.994 169.546C297.227 169.785 297.536 169.937 297.868 169.974C298.2 170.011 298.535 169.932 298.815 169.75C299.255 169.466 299.768 169.315 300.292 169.314C300.832 169.313 301.361 169.471 301.813 169.768C302.264 170.065 302.619 170.487 302.834 170.983L303.634 172.905C304.484 174.898 304.563 177.136 303.854 179.184Z" fill="#75E0B7"/>
<path d="M330.279 174.202C328.752 178.164 326.06 181.57 322.559 183.971C319.058 186.372 314.912 187.655 310.667 187.652C310.37 187.652 310.078 187.652 309.786 187.652L310.987 182.046C311.044 181.787 311.194 181.558 311.409 181.401C311.623 181.245 311.887 181.173 312.152 181.197L315.694 181.49C315.889 181.507 316.085 181.471 316.261 181.385C316.437 181.3 316.587 181.169 316.695 181.005L321.186 174.162C321.306 173.974 321.481 173.828 321.687 173.743C321.893 173.657 322.12 173.638 322.338 173.686C322.485 173.719 322.623 173.783 322.744 173.872C322.865 173.962 322.967 174.075 323.042 174.206C323.117 174.336 323.164 174.481 323.181 174.63C323.198 174.78 323.183 174.932 323.139 175.075L322.907 175.844C322.849 176.026 322.84 176.221 322.882 176.408C322.923 176.594 323.014 176.767 323.143 176.907C323.273 177.048 323.437 177.152 323.62 177.208C323.803 177.265 323.997 177.272 324.184 177.229L324.96 177.057C325.204 177.007 325.422 176.873 325.579 176.68C325.736 176.487 325.821 176.245 325.821 175.996V174.795C325.82 174.637 325.854 174.48 325.921 174.337C325.987 174.193 326.083 174.065 326.203 173.962C326.324 173.86 326.465 173.784 326.617 173.741C326.769 173.698 326.929 173.689 327.085 173.714L330.279 174.202Z" fill="#75E0B7"/>
<path d="M314.886 169.134L315.866 168.734C316.019 168.676 316.189 168.68 316.338 168.746C316.488 168.812 316.606 168.934 316.667 169.086L317.467 171.088C317.528 171.237 317.529 171.404 317.469 171.553C317.409 171.703 317.294 171.823 317.147 171.889L316.819 172.041C316.693 172.099 316.553 172.113 316.418 172.083C316.284 172.052 316.163 171.979 316.074 171.873L314.617 170.095C314.559 170.018 314.519 169.929 314.5 169.834C314.482 169.739 314.486 169.641 314.512 169.548C314.538 169.455 314.585 169.369 314.65 169.297C314.715 169.225 314.796 169.169 314.886 169.134Z" fill="#75E0B7"/>
<path d="M323.363 170.588L322.326 171.144C322.198 171.212 322.099 171.324 322.048 171.46C321.998 171.596 321.998 171.746 322.05 171.881C322.094 171.993 322.17 172.089 322.27 172.157C322.369 172.225 322.486 172.262 322.607 172.261H324.236C324.355 172.261 324.471 172.225 324.57 172.158C324.668 172.09 324.744 171.995 324.787 171.884C324.831 171.773 324.839 171.651 324.812 171.535C324.785 171.418 324.724 171.313 324.636 171.232L324.044 170.68C323.953 170.597 323.839 170.543 323.718 170.527C323.596 170.51 323.472 170.532 323.363 170.588Z" fill="#75E0B7"/>
<path d="M292.835 165.033H293.636C293.685 165.033 293.733 165.022 293.778 165.001C293.822 164.979 293.861 164.948 293.891 164.91C293.922 164.871 293.943 164.826 293.953 164.778C293.964 164.73 293.963 164.68 293.952 164.633L293.552 162.579C293.537 162.505 293.498 162.438 293.44 162.39C293.381 162.343 293.309 162.316 293.233 162.316C293.158 162.316 293.085 162.343 293.027 162.39C292.969 162.438 292.93 162.505 292.915 162.579L292.515 164.633C292.503 164.681 292.503 164.731 292.514 164.779C292.524 164.827 292.546 164.873 292.577 164.911C292.608 164.95 292.647 164.981 292.692 165.002C292.737 165.023 292.786 165.034 292.835 165.033Z" fill="#75E0B7"/>
<path d="M299.776 168.25L301.085 168.098C301.219 168.082 301.345 168.023 301.443 167.93C301.541 167.837 301.606 167.714 301.629 167.581L301.729 166.988C301.748 166.876 301.737 166.761 301.695 166.655C301.653 166.549 301.583 166.457 301.493 166.388L300.384 165.539C300.272 165.444 300.13 165.393 299.984 165.393C299.837 165.393 299.695 165.444 299.584 165.539L298.731 166.252C298.618 166.348 298.543 166.481 298.518 166.628C298.494 166.775 298.523 166.925 298.599 167.053L299.155 167.933C299.215 168.042 299.306 168.13 299.417 168.187C299.527 168.243 299.652 168.265 299.776 168.25Z" fill="#75E0B7"/>
<path d="M320.257 154.628L319.645 156.198C319.607 156.293 319.594 156.395 319.605 156.496C319.617 156.597 319.652 156.694 319.71 156.778C319.767 156.862 319.844 156.93 319.933 156.978C320.023 157.026 320.123 157.051 320.225 157.051H320.625C320.77 157.051 320.911 157.001 321.022 156.909C321.134 156.817 321.21 156.689 321.238 156.546L321.562 154.905C321.586 154.781 321.572 154.654 321.523 154.538C321.473 154.423 321.39 154.325 321.284 154.258C321.178 154.19 321.055 154.157 320.929 154.16C320.804 154.164 320.683 154.206 320.581 154.28L320.481 154.352C320.381 154.42 320.302 154.516 320.257 154.628Z" fill="#75E0B7"/>
<g style="mix-blend-mode:overlay">
<path d="M326.609 180.333C324.64 182.633 322.196 184.478 319.445 185.742C316.694 187.005 313.702 187.657 310.675 187.652C310.378 187.652 310.086 187.652 309.794 187.652C306.948 187.534 304.156 186.837 301.589 185.602C299.065 184.397 296.808 182.698 294.952 180.605C291.99 177.276 290.167 173.087 289.749 168.649C289.682 167.984 289.649 167.316 289.649 166.647C289.653 162.349 290.971 158.155 293.426 154.628C295.882 151.101 299.357 148.41 303.386 146.916C300.098 150.726 298.292 155.593 298.299 160.626C298.294 161.294 298.328 161.963 298.399 162.627C298.686 165.609 299.609 168.494 301.103 171.089C302.598 173.685 304.63 175.93 307.064 177.674C308.064 178.389 309.123 179.016 310.23 179.548C312.797 180.785 315.589 181.482 318.436 181.598C318.728 181.598 319.02 181.598 319.316 181.598C321.803 181.613 324.272 181.184 326.609 180.333Z" fill="#1E3851"/>
</g>
<path d="M309.794 124.822C308.803 124.822 307.821 125.017 306.905 125.396C305.99 125.775 305.157 126.331 304.456 127.031C303.755 127.732 303.199 128.565 302.82 129.48C302.44 130.396 302.245 131.378 302.245 132.37C302.245 135.317 306.004 140.137 308.217 142.724C308.412 142.952 308.653 143.135 308.926 143.261C309.198 143.386 309.494 143.451 309.794 143.451C310.094 143.451 310.39 143.386 310.662 143.261C310.935 143.135 311.176 142.952 311.371 142.724C313.581 140.137 317.343 135.317 317.343 132.37C317.342 130.368 316.546 128.448 315.13 127.033C313.715 125.617 311.795 124.822 309.794 124.822ZM309.794 136.382C309.026 136.382 308.275 136.154 307.637 135.727C306.999 135.3 306.501 134.694 306.207 133.984C305.913 133.274 305.836 132.494 305.986 131.74C306.136 130.987 306.506 130.295 307.049 129.752C307.592 129.208 308.283 128.838 309.037 128.689C309.79 128.539 310.57 128.616 311.28 128.91C311.989 129.204 312.596 129.701 313.022 130.34C313.449 130.979 313.677 131.73 313.677 132.498C313.678 133.009 313.579 133.515 313.385 133.988C313.19 134.46 312.904 134.89 312.544 135.252C312.183 135.614 311.754 135.901 311.283 136.097C310.811 136.293 310.305 136.394 309.794 136.394V136.382Z" fill="#FFDA3E"/>
<path d="M163.911 338.036L165.468 343.917C165.559 344.259 165.738 344.57 165.987 344.819C166.237 345.069 166.548 345.248 166.889 345.339L172.773 346.9C172.915 346.939 173.04 347.024 173.13 347.141C173.219 347.258 173.267 347.402 173.267 347.549C173.267 347.696 173.219 347.84 173.13 347.957C173.04 348.074 172.915 348.159 172.773 348.198L166.889 349.755C166.548 349.846 166.237 350.025 165.987 350.275C165.738 350.524 165.559 350.835 165.468 351.177L163.911 357.05C163.872 357.192 163.787 357.318 163.67 357.407C163.553 357.496 163.41 357.545 163.263 357.545C163.115 357.545 162.972 357.496 162.855 357.407C162.738 357.318 162.653 357.192 162.614 357.05L161.057 351.169C160.967 350.827 160.788 350.516 160.538 350.267C160.288 350.017 159.977 349.838 159.636 349.747L153.752 348.19C153.61 348.151 153.485 348.066 153.396 347.949C153.306 347.832 153.258 347.688 153.258 347.541C153.258 347.394 153.306 347.25 153.396 347.133C153.485 347.016 153.61 346.931 153.752 346.892L159.636 345.331C159.977 345.24 160.288 345.061 160.538 344.811C160.788 344.562 160.967 344.251 161.057 343.909L162.614 338.028C162.654 337.886 162.739 337.761 162.857 337.672C162.975 337.584 163.118 337.536 163.266 337.537C163.413 337.538 163.556 337.587 163.672 337.677C163.789 337.767 163.873 337.893 163.911 338.036Z" fill="#FFDA3E"/>
<path d="M326.965 244.981L328.522 250.863C328.613 251.204 328.792 251.515 329.042 251.765C329.291 252.014 329.602 252.194 329.943 252.284L335.827 253.846C335.969 253.885 336.095 253.969 336.184 254.086C336.273 254.204 336.322 254.347 336.322 254.494C336.322 254.642 336.273 254.785 336.184 254.902C336.095 255.019 335.969 255.104 335.827 255.143L329.943 256.7C329.602 256.791 329.291 256.97 329.042 257.22C328.792 257.469 328.613 257.781 328.522 258.122L326.965 264.004C326.929 264.148 326.846 264.277 326.728 264.368C326.611 264.46 326.466 264.51 326.317 264.51C326.168 264.51 326.023 264.46 325.906 264.368C325.788 264.277 325.705 264.148 325.669 264.004L324.112 258.122C324.021 257.781 323.842 257.469 323.592 257.22C323.343 256.97 323.032 256.791 322.691 256.7L316.807 255.143C316.665 255.104 316.539 255.019 316.45 254.902C316.361 254.785 316.312 254.642 316.313 254.494C316.312 254.347 316.361 254.204 316.45 254.086C316.539 253.969 316.665 253.885 316.807 253.846L322.691 252.284C323.032 252.194 323.343 252.014 323.592 251.765C323.842 251.515 324.021 251.204 324.112 250.863L325.657 244.981C325.691 244.833 325.775 244.702 325.894 244.608C326.013 244.514 326.16 244.463 326.311 244.463C326.462 244.463 326.61 244.514 326.728 244.608C326.847 244.702 326.931 244.833 326.965 244.981Z" fill="#FFDA3E"/>
<path d="M80.0763 303.262L81.6334 309.144C81.7239 309.485 81.903 309.796 82.1525 310.046C82.4021 310.296 82.7131 310.475 83.0542 310.565L88.9341 312.123C89.0787 312.159 89.207 312.243 89.2987 312.36C89.3904 312.478 89.4402 312.622 89.4402 312.771C89.4402 312.921 89.3904 313.065 89.2987 313.183C89.207 313.3 89.0787 313.384 88.9341 313.42L83.0542 314.982C82.7131 315.072 82.4021 315.251 82.1525 315.501C81.903 315.751 81.7239 316.062 81.6334 316.403L80.0763 322.285C80.0373 322.427 79.9527 322.552 79.8356 322.642C79.7185 322.731 79.5752 322.779 79.4279 322.779C79.2806 322.779 79.1374 322.731 79.0202 322.642C78.9031 322.552 78.8185 322.427 78.7794 322.285L77.2185 316.403C77.1279 316.062 76.9488 315.751 76.6993 315.501C76.4497 315.251 76.1386 315.072 75.7975 314.982L69.9177 313.42C69.7757 313.381 69.6503 313.296 69.561 313.179C69.4717 313.062 69.4233 312.919 69.4233 312.771C69.4233 312.624 69.4717 312.481 69.561 312.364C69.6503 312.246 69.7757 312.162 69.9177 312.123L75.7975 310.565C76.1386 310.475 76.4497 310.296 76.6993 310.046C76.9488 309.796 77.1279 309.485 77.2185 309.144L78.7794 303.262C78.8185 303.12 78.9031 302.995 79.0202 302.905C79.1374 302.816 79.2806 302.768 79.4279 302.768C79.5752 302.768 79.7185 302.816 79.8356 302.905C79.9527 302.995 80.0373 303.12 80.0763 303.262Z" fill="#FFDA3E"/>
<path d="M191.169 13.9853L192.726 19.8671C192.816 20.2083 192.996 20.5195 193.245 20.7691C193.495 21.0187 193.806 21.1979 194.147 21.2885L200.031 22.85C200.173 22.8891 200.298 22.9737 200.387 23.0908C200.477 23.208 200.525 23.3513 200.525 23.4987C200.525 23.646 200.477 23.7893 200.387 23.9065C200.298 24.0237 200.173 24.1083 200.031 24.1473L194.147 25.7048C193.806 25.7954 193.495 25.9746 193.245 26.2242C192.996 26.4738 192.816 26.785 192.726 27.1262L191.169 33.008C191.133 33.1527 191.049 33.281 190.932 33.3727C190.814 33.4645 190.669 33.5143 190.52 33.5143C190.371 33.5143 190.227 33.4645 190.109 33.3727C189.992 33.281 189.908 33.1527 189.872 33.008L188.295 27.1262C188.204 26.785 188.025 26.4738 187.776 26.2242C187.526 25.9746 187.215 25.7954 186.874 25.7048L180.99 24.1473C180.848 24.1083 180.723 24.0237 180.634 23.9065C180.544 23.7893 180.496 23.646 180.496 23.4987C180.496 23.3513 180.544 23.208 180.634 23.0908C180.723 22.9737 180.848 22.8891 180.99 22.85L186.874 21.2885C187.215 21.1979 187.526 21.0187 187.776 20.7691C188.025 20.5195 188.204 20.2083 188.295 19.8671L189.852 13.9853C189.883 13.8338 189.966 13.6978 190.086 13.6002C190.206 13.5025 190.356 13.4492 190.51 13.4492C190.665 13.4492 190.815 13.5025 190.935 13.6002C191.055 13.6978 191.137 13.8338 191.169 13.9853Z" fill="#FFDA3E"/>
<path d="M101.678 47.9466L103.235 53.8284C103.326 54.1696 103.505 54.4808 103.755 54.7305C104.004 54.9801 104.315 55.1593 104.656 55.2498L110.536 56.8114C110.678 56.8504 110.803 56.935 110.893 57.0522C110.982 57.1694 111.03 57.3126 111.03 57.46C111.03 57.6074 110.982 57.7506 110.893 57.8678C110.803 57.985 110.678 58.0696 110.536 58.1086L104.656 59.6662C104.315 59.7567 104.004 59.9359 103.755 60.1855C103.505 60.4352 103.326 60.7464 103.235 61.0876L101.678 66.9694C101.642 67.114 101.559 67.2424 101.441 67.3341C101.324 67.4258 101.179 67.4756 101.03 67.4756C100.881 67.4756 100.736 67.4258 100.619 67.3341C100.501 67.2424 100.418 67.114 100.381 66.9694L98.8204 61.0876C98.7299 60.7464 98.5508 60.4352 98.3012 60.1855C98.0517 59.9359 97.7406 59.7567 97.3995 59.6662L91.5036 58.1167C91.3616 58.0776 91.2363 57.993 91.147 57.8758C91.0577 57.7586 91.0093 57.6154 91.0093 57.468C91.0093 57.3207 91.0577 57.1774 91.147 57.0602C91.2363 56.943 91.3616 56.8584 91.5036 56.8194L97.3835 55.2578C97.7246 55.1673 98.0357 54.9881 98.2852 54.7385C98.5348 54.4888 98.7139 54.1776 98.8044 53.8364L100.365 47.9546C100.398 47.805 100.48 47.6709 100.599 47.5744C100.717 47.4779 100.866 47.4248 101.019 47.4238C101.172 47.4229 101.32 47.4742 101.44 47.5692C101.56 47.6643 101.644 47.7974 101.678 47.9466Z" fill="#FFDA3E"/>
<path d="M342.468 109.151C342.33 109.151 342.194 109.121 342.069 109.062C341.945 109.003 341.835 108.917 341.747 108.811C340.51 107.317 339.141 105.732 337.684 104.098C337.602 104.007 337.539 103.9 337.499 103.784C337.458 103.668 337.441 103.545 337.448 103.422C337.455 103.299 337.486 103.179 337.54 103.068C337.593 102.957 337.668 102.858 337.761 102.777C337.852 102.695 337.959 102.632 338.075 102.591C338.191 102.55 338.314 102.533 338.437 102.54C338.559 102.547 338.68 102.578 338.79 102.632C338.901 102.686 339 102.761 339.081 102.853C340.554 104.503 341.935 106.104 343.188 107.618C343.267 107.712 343.326 107.821 343.363 107.938C343.4 108.055 343.413 108.179 343.402 108.301C343.391 108.424 343.355 108.543 343.298 108.651C343.241 108.76 343.163 108.857 343.068 108.935C342.899 109.075 342.687 109.151 342.468 109.151ZM73.4081 107.462C73.2161 107.463 73.0285 107.404 72.8717 107.293C72.7707 107.223 72.6846 107.133 72.6183 107.03C72.552 106.926 72.5068 106.81 72.4852 106.689C72.4636 106.568 72.4661 106.443 72.4926 106.323C72.5191 106.203 72.5691 106.089 72.6396 105.988C72.6956 105.912 74.0044 104.046 76.5661 100.999C76.7263 100.809 76.9552 100.69 77.2026 100.669C77.4501 100.647 77.6961 100.724 77.887 100.883C77.9816 100.962 78.0596 101.059 78.1165 101.168C78.1734 101.278 78.2081 101.397 78.2185 101.52C78.229 101.643 78.215 101.767 78.1773 101.884C78.1396 102.002 78.079 102.11 77.9991 102.204C75.4934 105.203 74.1885 107.045 74.1765 107.065C74.0899 107.188 73.9748 107.289 73.841 107.358C73.7071 107.427 73.5586 107.462 73.4081 107.462ZM334.166 99.81C334.039 99.8106 333.913 99.7849 333.796 99.7346C333.678 99.6843 333.573 99.6105 333.486 99.5177C332.065 98.0202 330.604 96.5187 329.139 95.0613C329.052 94.9743 328.983 94.871 328.936 94.7573C328.889 94.6436 328.864 94.5217 328.864 94.3987C328.864 94.2756 328.889 94.1537 328.936 94.04C328.983 93.9263 329.052 93.823 329.139 93.736C329.226 93.6491 329.328 93.5801 329.442 93.5331C329.555 93.486 329.677 93.4618 329.799 93.4618C329.922 93.4618 330.043 93.486 330.157 93.5331C330.27 93.5801 330.373 93.6491 330.46 93.736C331.937 95.2055 333.41 96.7149 334.863 98.2284C335.033 98.4094 335.124 98.6502 335.118 98.8985C335.111 99.1468 335.006 99.3823 334.827 99.5537C334.649 99.7231 334.412 99.8152 334.166 99.81ZM81.4253 97.8521C81.1888 97.8521 80.9611 97.7619 80.7889 97.5998C80.6073 97.4312 80.4998 97.1975 80.49 96.9499C80.4803 96.7023 80.5691 96.4609 80.7369 96.2785C82.1458 94.761 83.6147 93.2355 85.1117 91.7541C85.1987 91.667 85.3019 91.598 85.4156 91.5508C85.5293 91.5037 85.6511 91.4795 85.7741 91.4795C85.8972 91.4795 86.019 91.5037 86.1327 91.5508C86.2463 91.598 86.3496 91.667 86.4366 91.7541C86.6114 91.9303 86.7094 92.1685 86.7094 92.4167C86.7094 92.6649 86.6114 92.9031 86.4366 93.0794C84.9556 94.5408 83.5027 96.0423 82.1178 97.5438C82.0297 97.64 81.9227 97.717 81.8036 97.7701C81.6844 97.8231 81.5557 97.851 81.4253 97.8521ZM325.312 90.9853C325.073 90.9862 324.843 90.896 324.668 90.733C323.159 89.3116 321.614 87.8983 320.077 86.5329C319.985 86.4516 319.909 86.3529 319.855 86.2424C319.801 86.1319 319.77 86.0117 319.762 85.8889C319.755 85.7661 319.772 85.643 319.812 85.5268C319.852 85.4106 319.915 85.3034 319.997 85.2116C320.162 85.026 320.393 84.9133 320.641 84.8983C320.888 84.8833 321.132 84.9672 321.318 85.1315C322.871 86.5089 324.428 87.9343 325.953 89.3677C326.042 89.452 326.115 89.5533 326.165 89.6655C326.216 89.7778 326.244 89.899 326.247 90.0221C326.251 90.1451 326.231 90.2678 326.187 90.3829C326.143 90.498 326.077 90.6034 325.993 90.693C325.906 90.7858 325.8 90.8597 325.683 90.9099C325.566 90.9602 325.44 90.9859 325.312 90.9853ZM90.3031 89.0514C90.1725 89.0516 90.0433 89.0243 89.924 88.9711C89.8047 88.918 89.6979 88.8403 89.6106 88.7431C89.5276 88.6525 89.4632 88.5464 89.4213 88.4309C89.3793 88.3154 89.3606 88.1927 89.3661 88.07C89.3717 87.9472 89.4014 87.8267 89.4537 87.7155C89.506 87.6042 89.5797 87.5044 89.6706 87.4218C91.2116 86.0164 92.8047 84.619 94.4017 83.2777C94.5926 83.1187 94.8386 83.0416 95.0861 83.0633C95.3335 83.0851 95.5624 83.2039 95.7226 83.3938C95.8019 83.4881 95.8617 83.5972 95.8987 83.7147C95.9358 83.8322 95.9493 83.9558 95.9385 84.0785C95.9277 84.2013 95.8929 84.3207 95.8359 84.4299C95.7789 84.5391 95.701 84.6361 95.6065 84.7151C94.0295 86.0404 92.4565 87.4178 90.9315 88.8071C90.76 88.9644 90.5357 89.0516 90.3031 89.0514ZM315.958 82.6971C315.739 82.6969 315.527 82.6205 315.358 82.4809C313.757 81.1476 312.132 79.8383 310.515 78.5811C310.319 78.4278 310.192 78.2032 310.161 77.9563C310.13 77.7094 310.198 77.4605 310.351 77.2638C310.503 77.0681 310.727 76.9409 310.973 76.9101C311.219 76.8794 311.468 76.9475 311.663 77.0996C313.297 78.3729 314.942 79.6942 316.555 81.0395C316.746 81.1986 316.866 81.4269 316.889 81.6745C316.913 81.9221 316.837 82.1689 316.679 82.3608C316.59 82.4659 316.48 82.5504 316.356 82.6085C316.231 82.6666 316.096 82.6968 315.958 82.6971ZM99.8693 81.0155C99.7263 81.015 99.5853 80.982 99.457 80.9189C99.3287 80.8557 99.2165 80.7642 99.1289 80.6511C98.977 80.4539 98.9094 80.2046 98.9409 79.9577C98.9724 79.7108 99.1004 79.4865 99.2969 79.3338C100.95 78.0566 102.651 76.7993 104.352 75.5981C104.453 75.5267 104.566 75.4758 104.686 75.4484C104.806 75.421 104.93 75.4176 105.051 75.4384C105.173 75.4593 105.289 75.5039 105.393 75.5698C105.497 75.6357 105.586 75.7215 105.657 75.8224C105.729 75.9226 105.779 76.036 105.807 76.1561C105.834 76.2761 105.838 76.4003 105.817 76.5217C105.796 76.643 105.751 76.759 105.685 76.863C105.62 76.967 105.534 77.057 105.433 77.1276C103.756 78.3288 102.075 79.558 100.442 80.8193C100.278 80.9462 100.077 81.0152 99.8693 81.0155ZM306.092 75.0096C305.895 75.0107 305.703 74.949 305.543 74.8334C303.846 73.6082 302.133 72.431 300.44 71.2899C300.234 71.1521 300.091 70.9382 300.042 70.695C299.993 70.4519 300.043 70.1993 300.18 69.9926C300.248 69.8901 300.335 69.8019 300.437 69.7333C300.539 69.6647 300.654 69.6169 300.774 69.5927C300.895 69.5685 301.019 69.5684 301.14 69.5924C301.26 69.6163 301.375 69.6639 301.477 69.7324C303.19 70.8695 304.927 72.0747 306.64 73.3359C306.841 73.4812 306.976 73.7001 307.016 73.9447C307.055 74.1894 306.997 74.4398 306.852 74.6412C306.765 74.7611 306.651 74.8585 306.519 74.9253C306.386 74.9922 306.24 75.0265 306.092 75.0256V75.0096ZM110.072 73.7843C109.913 73.7863 109.757 73.7481 109.617 73.6731C109.477 73.5982 109.358 73.4891 109.271 73.3559C109.204 73.2524 109.159 73.1367 109.136 73.0154C109.114 72.8941 109.116 72.7696 109.142 72.6491C109.168 72.5286 109.218 72.4144 109.288 72.3131C109.358 72.2117 109.448 72.1253 109.552 72.0586C111.309 70.9255 113.114 69.8164 114.907 68.7674C115.122 68.6422 115.377 68.6072 115.617 68.6703C115.857 68.7334 116.063 68.8893 116.188 69.1037C116.313 69.3183 116.348 69.5737 116.285 69.814C116.222 70.0543 116.066 70.2596 115.852 70.385C114.083 71.422 112.301 72.5151 110.564 73.6362C110.419 73.7362 110.248 73.7931 110.072 73.8004V73.7843ZM295.689 68.0947C295.518 68.095 295.35 68.0479 295.205 67.9586C293.416 66.8735 291.602 65.8285 289.829 64.8556C289.721 64.7969 289.626 64.7175 289.549 64.6218C289.471 64.5262 289.414 64.4163 289.379 64.2983C289.345 64.1804 289.334 64.0568 289.347 63.9346C289.361 63.8124 289.398 63.694 289.457 63.5863C289.516 63.4783 289.595 63.3829 289.691 63.3057C289.786 63.2285 289.896 63.1709 290.014 63.1363C290.132 63.1017 290.255 63.0907 290.378 63.1041C290.5 63.1174 290.618 63.1547 290.726 63.2139C292.531 64.1989 294.364 65.2559 296.173 66.357C296.279 66.4204 296.371 66.5039 296.444 66.6029C296.517 66.7019 296.569 66.8144 296.599 66.9339C296.628 67.0533 296.634 67.1774 296.615 67.299C296.596 67.4206 296.554 67.5372 296.49 67.6423C296.408 67.7829 296.291 67.9 296.151 67.9821C296.011 68.0642 295.852 68.1085 295.689 68.1108V68.0947ZM120.855 67.4821C120.684 67.4833 120.515 67.4372 120.368 67.3489C120.222 67.2606 120.102 67.1335 120.022 66.9816C119.966 66.8723 119.931 66.7528 119.92 66.63C119.909 66.5072 119.923 66.3835 119.96 66.2659C119.997 66.1484 120.057 66.0393 120.137 65.945C120.216 65.8507 120.313 65.773 120.423 65.7164C122.28 64.7394 124.173 63.7985 126.054 62.9136C126.279 62.8085 126.537 62.7972 126.77 62.882C127.004 62.9668 127.194 63.141 127.299 63.3661C127.403 63.5914 127.414 63.8486 127.329 64.0818C127.245 64.315 127.071 64.5053 126.847 64.6113C124.994 65.4802 123.124 66.4091 121.291 67.37C121.159 67.4499 121.009 67.494 120.855 67.4982V67.4821ZM132.162 62.1889C131.976 62.1889 131.795 62.1337 131.64 62.0303C131.486 61.927 131.365 61.7802 131.294 61.6084C131.206 61.3808 131.211 61.128 131.306 60.9038C131.402 60.6795 131.581 60.5013 131.806 60.4072C133.743 59.6064 135.717 58.8496 137.678 58.1529C137.913 58.0694 138.171 58.0823 138.396 58.1889C138.621 58.2955 138.795 58.487 138.879 58.7215C138.962 58.9562 138.949 59.2145 138.843 59.4396C138.736 59.6648 138.545 59.8385 138.31 59.9227C136.377 60.6114 134.432 61.3561 132.523 62.1449C132.408 62.1887 132.285 62.2091 132.162 62.2049V62.1889ZM284.722 62.1128C284.583 62.1127 284.446 62.0812 284.322 62.0208L283.921 61.8206C282.212 61.0198 280.451 60.219 278.686 59.4742C278.457 59.3771 278.276 59.1933 278.182 58.9629C278.089 58.7326 278.09 58.4745 278.186 58.245C278.282 58.0164 278.465 57.8353 278.695 57.7415C278.924 57.6476 279.182 57.6487 279.41 57.7445C281.204 58.5013 283.013 59.3021 284.73 60.1469L285.13 60.3471C285.242 60.4002 285.341 60.4748 285.424 60.5668C285.506 60.6587 285.569 60.766 285.61 60.8826C285.651 60.9992 285.668 61.1226 285.66 61.2458C285.653 61.369 285.621 61.4895 285.566 61.6003C285.49 61.7593 285.37 61.8933 285.221 61.9869C285.071 62.0804 284.898 62.1296 284.722 62.1289V62.1128ZM143.938 58.0208C143.736 58.0213 143.54 57.9564 143.378 57.8358C143.217 57.7153 143.099 57.5456 143.041 57.3522C143.006 57.2346 142.994 57.1112 143.006 56.989C143.018 56.8668 143.054 56.7481 143.112 56.6399C143.17 56.5316 143.249 56.4359 143.344 56.3582C143.439 56.2804 143.548 56.2223 143.666 56.187C145.667 55.5824 147.705 55.0219 149.73 54.5214C149.971 54.4619 150.225 54.5001 150.438 54.6275C150.651 54.755 150.805 54.9615 150.867 55.202C150.926 55.4436 150.887 55.6988 150.759 55.9119C150.631 56.125 150.423 56.2786 150.182 56.3392C148.181 56.8316 146.179 57.3842 144.206 57.9808C144.119 58.0078 144.029 58.0213 143.938 58.0208ZM273.222 57.2881C273.113 57.2872 273.005 57.2669 272.902 57.228C270.985 56.5354 269.008 55.8667 267.022 55.2501C266.905 55.2136 266.796 55.1543 266.701 55.0755C266.607 54.9968 266.528 54.9002 266.471 54.7913C266.414 54.6823 266.379 54.5632 266.368 54.4406C266.356 54.318 266.369 54.1944 266.406 54.0769C266.481 53.8402 266.646 53.6425 266.865 53.527C267.085 53.4115 267.341 53.3876 267.579 53.4603C269.58 54.0849 271.581 54.7616 273.543 55.4623C273.659 55.5039 273.765 55.568 273.856 55.6511C273.947 55.7341 274.021 55.8343 274.073 55.946C274.125 56.0577 274.155 56.1786 274.16 56.3018C274.165 56.4249 274.146 56.5479 274.103 56.6635C274.039 56.8461 273.92 57.0043 273.762 57.1162C273.604 57.2281 273.416 57.2882 273.222 57.2881ZM156.046 54.9898C155.831 54.99 155.623 54.9165 155.457 54.7817C155.29 54.6469 155.174 54.4589 155.129 54.2491C155.104 54.1284 155.102 54.0038 155.124 53.8824C155.147 53.7611 155.193 53.6454 155.26 53.5419C155.328 53.4385 155.415 53.3494 155.517 53.2797C155.618 53.2101 155.733 53.1612 155.854 53.136C157.903 52.7036 159.969 52.2832 161.99 51.8908C162.111 51.8669 162.235 51.8672 162.356 51.8915C162.477 51.9158 162.592 51.9638 162.694 52.0326C162.796 52.1014 162.884 52.1897 162.952 52.2925C163.02 52.3953 163.067 52.5105 163.091 52.6315C163.137 52.8751 163.084 53.1269 162.946 53.3323C162.807 53.5377 162.593 53.6801 162.35 53.7286C160.349 54.129 158.283 54.5294 156.242 54.9698C156.174 54.9852 156.104 54.9919 156.034 54.9898H156.046ZM261.315 53.5724C261.235 53.5714 261.156 53.5606 261.078 53.5404C259.105 53.0239 257.076 52.5354 255.039 52.091C254.796 52.0382 254.584 51.8914 254.45 51.6827C254.316 51.474 254.27 51.2205 254.322 50.9779C254.348 50.8574 254.398 50.7432 254.468 50.6419C254.538 50.5406 254.628 50.4542 254.732 50.3876C254.835 50.321 254.951 50.2756 255.073 50.2539C255.194 50.2322 255.318 50.2347 255.439 50.2612C257.496 50.7096 259.554 51.2021 261.551 51.7306C261.67 51.7609 261.782 51.8146 261.88 51.8885C261.979 51.9624 262.061 52.0552 262.124 52.1614C262.186 52.2675 262.226 52.385 262.243 52.507C262.259 52.6289 262.251 52.7529 262.219 52.8717C262.166 53.0775 262.044 53.259 261.874 53.3863C261.703 53.5136 261.495 53.5793 261.283 53.5724H261.315ZM168.334 52.6075C168.114 52.6079 167.901 52.5306 167.733 52.3892C167.564 52.2478 167.451 52.0514 167.413 51.8347C167.391 51.7138 167.394 51.5897 167.42 51.4695C167.446 51.3494 167.496 51.2357 167.566 51.1349C167.636 51.034 167.726 50.9481 167.83 50.882C167.933 50.8159 168.049 50.7709 168.17 50.7497C170.243 50.3853 172.321 50.041 174.354 49.7206C174.599 49.6837 174.849 49.745 175.049 49.8912C175.249 50.0374 175.383 50.2567 175.423 50.5014C175.442 50.6232 175.437 50.7475 175.408 50.8674C175.38 50.9873 175.327 51.1003 175.255 51.2C175.182 51.2997 175.091 51.3841 174.986 51.4483C174.881 51.5126 174.764 51.5555 174.642 51.5745C172.641 51.8908 170.555 52.2311 168.498 52.5955L168.334 52.6075ZM249.115 50.9058C249.06 50.9097 249.005 50.9097 248.951 50.9058C246.949 50.5495 244.876 50.2251 242.819 49.9409C242.697 49.9241 242.579 49.8835 242.473 49.8213C242.367 49.7591 242.274 49.6766 242.199 49.5784C242.125 49.4802 242.071 49.3683 242.039 49.2491C242.008 49.13 242.001 49.0058 242.018 48.8838C242.034 48.7616 242.075 48.6437 242.137 48.5372C242.199 48.4306 242.281 48.3374 242.379 48.2629C242.478 48.1884 242.59 48.1342 242.709 48.1033C242.828 48.0724 242.953 48.0655 243.075 48.083C245.156 48.3713 247.245 48.6996 249.279 49.06C249.523 49.1039 249.739 49.2428 249.881 49.4461C250.023 49.6495 250.078 49.9009 250.035 50.1451C249.993 50.3647 249.874 50.5622 249.7 50.7017C249.525 50.8412 249.306 50.9136 249.083 50.9058H249.115ZM180.67 50.6776C180.445 50.6781 180.227 50.5974 180.057 50.4503C179.886 50.3032 179.774 50.0996 179.741 49.8768C179.708 49.631 179.774 49.3822 179.924 49.1848C180.074 48.9874 180.296 48.8576 180.542 48.8238C182.627 48.5395 184.721 48.2752 186.762 48.023C186.884 48.009 187.008 48.0193 187.126 48.0532C187.244 48.0871 187.355 48.144 187.451 48.2206C187.547 48.2972 187.628 48.392 187.687 48.4996C187.747 48.6072 187.785 48.7255 187.799 48.8478C187.813 48.9698 187.803 49.0935 187.77 49.2118C187.737 49.33 187.68 49.4405 187.604 49.5369C187.528 49.6332 187.433 49.7136 187.326 49.7733C187.218 49.833 187.1 49.8709 186.978 49.8848C184.945 50.121 182.867 50.3813 180.794 50.6616C180.747 50.6723 180.698 50.6777 180.65 50.6776H180.67ZM193.078 49.2562C192.845 49.2543 192.621 49.1662 192.448 49.0087C192.276 48.8512 192.168 48.6356 192.145 48.4033C192.124 48.1562 192.202 47.9106 192.361 47.7202C192.519 47.5297 192.747 47.4097 192.994 47.3863C195.079 47.1901 197.185 47.022 199.242 46.8778C199.365 46.8691 199.488 46.8847 199.605 46.9236C199.722 46.9626 199.83 47.0242 199.922 47.1049C200.015 47.1855 200.092 47.2838 200.147 47.3939C200.201 47.504 200.234 47.6239 200.243 47.7467C200.251 47.8695 200.236 47.9928 200.197 48.1095C200.158 48.2263 200.097 48.3343 200.016 48.4272C199.935 48.5202 199.837 48.5963 199.727 48.6513C199.617 48.7063 199.497 48.739 199.374 48.7477C197.329 48.8878 195.24 49.06 193.166 49.2522L193.078 49.2562ZM236.735 49.1841H236.635C234.609 48.9759 232.528 48.7837 230.446 48.6516C230.324 48.643 230.204 48.6102 230.094 48.5552C229.984 48.5002 229.885 48.4241 229.805 48.3311C229.724 48.2382 229.663 48.1302 229.624 48.0135C229.585 47.8967 229.569 47.7734 229.578 47.6506C229.586 47.5278 229.617 47.4077 229.672 47.2974C229.726 47.187 229.802 47.0886 229.895 47.0077C229.987 46.9269 230.095 46.8653 230.212 46.8265C230.329 46.7877 230.452 46.7725 230.575 46.7817C232.676 46.9259 234.781 47.1101 236.827 47.3183C237.074 47.3445 237.3 47.4675 237.457 47.6603C237.614 47.853 237.688 48.1 237.663 48.3473C237.639 48.5798 237.529 48.7948 237.354 48.9498C237.179 49.1047 236.952 49.1884 236.719 49.1841H236.735ZM205.546 48.3833C205.305 48.3835 205.072 48.2903 204.898 48.1232C204.723 47.9561 204.62 47.7279 204.61 47.4864C204.599 47.2386 204.687 46.9965 204.854 46.8133C205.021 46.6302 205.254 46.5209 205.502 46.5095C207.6 46.4134 209.709 46.3493 211.774 46.3093C211.898 46.3061 212.02 46.3275 212.135 46.3722C212.25 46.417 212.355 46.4842 212.444 46.5699C212.532 46.6556 212.603 46.7582 212.652 46.8715C212.7 46.9849 212.726 47.1068 212.727 47.2302C212.729 47.3532 212.707 47.4755 212.662 47.59C212.617 47.7045 212.55 47.8089 212.464 47.8974C212.379 47.9859 212.276 48.0567 212.164 48.1057C212.051 48.1547 211.929 48.181 211.806 48.1831C209.761 48.2232 207.668 48.2872 205.586 48.3793L205.546 48.3833ZM224.278 48.2992H224.242C222.197 48.2232 220.104 48.1711 218.026 48.1551C217.778 48.1519 217.54 48.0503 217.366 47.8725C217.192 47.6946 217.096 47.455 217.098 47.2062C217.101 46.9598 217.201 46.7245 217.376 46.5514C217.552 46.3783 217.788 46.2812 218.034 46.2813C220.132 46.2813 222.241 46.3493 224.307 46.4294C224.429 46.4335 224.55 46.4619 224.661 46.513C224.773 46.564 224.873 46.6367 224.957 46.7268C225.04 46.8169 225.105 46.9226 225.147 47.0379C225.189 47.1532 225.208 47.2757 225.203 47.3984C225.197 47.6433 225.095 47.8761 224.919 48.0468C224.743 48.2174 224.507 48.3124 224.262 48.3113L224.278 48.2992Z" fill="#AED1E5"/>
<path d="M83.2621 116.382C88.7049 110.937 88.7049 102.11 83.2621 96.6651C77.8193 91.2205 68.9948 91.2205 63.5521 96.6651C58.1093 102.11 58.1093 110.937 63.552 116.382C68.9948 121.826 77.8193 121.826 83.2621 116.382Z" fill="#50A4FE"/>
<path d="M73.4079 124.145C68.7386 124.14 64.2621 122.282 60.9605 118.979C57.6589 115.676 55.8017 111.198 55.7964 106.528C55.8017 101.857 57.6589 97.3788 60.9605 94.076C64.2621 90.7733 68.7386 88.9155 73.4079 88.9102C78.0771 88.9155 82.5536 90.7733 85.8553 94.076C89.1569 97.3788 91.0141 101.857 91.0194 106.528C91.0141 111.198 89.1569 115.676 85.8553 118.979C82.5536 122.282 78.0771 124.14 73.4079 124.145ZM73.4079 90.7239C69.2203 90.7282 65.2053 92.3941 62.2442 95.3562C59.2832 98.3183 57.6178 102.335 57.6136 106.524C57.6178 110.713 59.2831 114.73 62.2441 117.692C65.205 120.655 69.2199 122.322 73.4079 122.327C77.5959 122.322 81.6107 120.655 84.5717 117.692C87.5327 114.73 89.1979 110.713 89.2022 106.524C89.1979 102.335 87.5325 98.3183 84.5714 95.3562C81.6103 92.3941 77.5955 90.7282 73.4079 90.7239Z" fill="#AED1E5"/>
<path d="M81.5293 98.9336C79.1037 99.6183 69.6935 104.539 66.1752 106.377C65.757 106.597 65.2942 106.718 64.822 106.733C64.3498 106.747 63.8805 106.654 63.4494 106.461L61.1439 105.428C60.7509 105.252 60.3206 105.176 59.8911 105.207C59.4616 105.237 59.0463 105.374 58.6824 105.604C58.6824 105.604 60.2554 107.486 61.8084 109.056C62.4125 109.669 63.1774 110.099 64.0151 110.297C64.8527 110.494 65.7291 110.451 66.5435 110.173C68.1205 109.628 70.358 108.815 72.9957 107.73L71.891 117.7L73.492 117.188C73.8223 117.083 74.1236 116.902 74.3717 116.66C74.6198 116.418 74.8079 116.122 74.921 115.794L78.5673 105.276C80.1083 104.551 81.7054 103.758 83.3265 102.897C83.3265 102.897 85.9322 101.652 86.0443 99.8945C86.0563 99.8945 84.5273 98.0848 81.5293 98.9336Z" fill="white"/>
<path d="M73.1237 101.48L68.5087 99.7545C67.9097 99.5276 67.2616 99.4622 66.6294 99.5648C65.9971 99.6673 65.4029 99.9344 64.9064 100.339L64.5061 100.675L68.961 103.562L73.1237 101.48Z" fill="white"/>
<path d="M162.946 64.5458C168.388 59.1012 168.388 50.2738 162.946 44.8292C157.503 39.3846 148.678 39.3846 143.236 44.8292C137.793 50.2738 137.793 59.1012 143.236 64.5458C148.678 69.9904 157.503 69.9904 162.946 64.5458Z" fill="#75E0B7"/>
<path d="M153.092 72.307C148.423 72.3017 143.946 70.4439 140.645 67.1411C137.343 63.8384 135.486 59.3604 135.48 54.6896C135.486 50.0188 137.343 45.5409 140.645 42.2381C143.946 38.9354 148.423 37.0776 153.092 37.0723C157.761 37.0776 162.238 38.9354 165.539 42.2381C168.841 45.5409 170.698 50.0188 170.703 54.6896C170.698 59.3604 168.841 63.8384 165.539 67.1411C162.238 70.4439 157.761 72.3017 153.092 72.307ZM153.092 38.8901C148.904 38.8943 144.889 40.5603 141.928 43.5223C138.967 46.4844 137.302 50.5006 137.298 54.6896C137.302 58.879 138.967 62.8956 141.928 65.8583C144.889 68.8211 148.904 70.4879 153.092 70.4932C157.281 70.489 161.296 68.8226 164.258 65.8598C167.22 62.8969 168.886 58.8797 168.89 54.6896C168.886 50.4999 167.22 46.4831 164.258 43.5209C161.296 40.5587 157.28 38.8932 153.092 38.8901Z" fill="#AED1E5"/>
<path d="M162.222 60.4107L161.63 59.1094L161.121 60.3506C160.993 60.6695 160.771 60.9423 160.486 61.1337C160.2 61.3251 159.864 61.4261 159.52 61.4237C159.189 61.4225 158.864 61.3266 158.586 61.1471C158.307 60.9676 158.085 60.712 157.947 60.4107L157.359 59.1094L156.85 60.3506C156.721 60.6692 156.5 60.9417 156.215 61.133C155.929 61.3243 155.593 61.4255 155.249 61.4237C154.918 61.4225 154.594 61.3266 154.315 61.1471C154.036 60.9676 153.815 60.712 153.676 60.4107L153.084 59.1094L152.58 60.3506C152.45 60.6685 152.228 60.9405 151.943 61.1316C151.658 61.3228 151.322 61.4245 150.979 61.4237C150.648 61.4223 150.324 61.3261 150.046 61.1466C149.768 60.9671 149.547 60.7117 149.41 60.4107L148.817 59.1094L148.309 60.3506C148.18 60.6695 147.959 60.9423 147.673 61.1337C147.388 61.3251 147.051 61.4261 146.708 61.4237C146.376 61.4225 146.052 61.3266 145.773 61.1471C145.495 60.9676 145.273 60.712 145.135 60.4107L144.546 59.1094L144.038 60.3506C143.91 60.6695 143.688 60.9423 143.403 61.1337C143.117 61.3251 142.781 61.4261 142.437 61.4237V62.1644C142.869 62.1657 143.294 62.0527 143.669 61.8368C144.044 61.621 144.355 61.3099 144.57 60.9352C144.788 61.308 145.1 61.6175 145.474 61.8331C145.848 62.0487 146.272 62.1629 146.704 62.1644C147.136 62.1657 147.561 62.0527 147.936 61.8368C148.31 61.621 148.621 61.3099 148.837 60.9352C149.055 61.308 149.367 61.6175 149.741 61.8331C150.115 62.0487 150.539 62.1629 150.971 62.1644C151.403 62.1652 151.829 62.052 152.204 61.8362C152.579 61.6204 152.891 61.3097 153.108 60.9352C153.325 61.3088 153.636 61.619 154.011 61.8347C154.385 62.0504 154.809 62.1641 155.241 62.1644C155.674 62.1653 156.098 62.0521 156.473 61.8363C156.848 61.6205 157.159 61.3096 157.375 60.9352C157.592 61.3088 157.903 61.619 158.277 61.8347C158.652 62.0504 159.076 62.1641 159.508 62.1644C159.94 62.1657 160.366 62.0527 160.74 61.8368C161.115 61.621 161.426 61.3099 161.642 60.9352C161.86 61.308 162.171 61.6175 162.545 61.8331C162.919 62.0487 163.343 62.1629 163.775 62.1644V61.4237C163.447 61.4197 163.126 61.3224 162.851 61.143C162.576 60.9636 162.358 60.7096 162.222 60.4107Z" fill="white"/>
<path d="M153.092 49.2832L141.677 52.0659C142.866 52.9801 143.848 54.1354 144.559 55.4562C145.27 56.777 145.694 58.2333 145.803 59.7295C146.052 59.9647 146.382 60.0951 146.724 60.0939C146.993 60.0937 147.256 60.0132 147.479 59.8627C147.702 59.7122 147.875 59.4985 147.977 59.249L148.809 57.215L149.758 59.2931C149.865 59.53 150.037 59.7313 150.255 59.8732C150.473 60.0151 150.727 60.0917 150.987 60.0939C151.256 60.0947 151.519 60.0147 151.743 59.8641C151.966 59.7134 152.139 59.4992 152.239 59.249L153.08 57.215L154.021 59.2931C154.129 59.5303 154.303 59.7316 154.522 59.8735C154.742 60.0153 154.996 60.0917 155.257 60.0939C155.527 60.0942 155.79 60.0139 156.013 59.8634C156.236 59.7128 156.409 59.4988 156.51 59.249L157.343 57.215L158.291 59.2931C158.399 59.5303 158.572 59.7318 158.791 59.8737C159.009 60.0155 159.264 60.092 159.524 60.0939C159.836 60.0948 160.139 59.9841 160.377 59.7815C160.482 58.2763 160.905 56.8103 161.617 55.4804C162.33 54.1505 163.316 52.9868 164.511 52.0659L153.092 49.2832Z" fill="white"/>
<path d="M159.908 49.7119V46.0923H156.346V43.8301H149.898V46.0923H146.335V49.7119L153.124 47.9021L159.908 49.7119Z" fill="white"/>
<path d="M284.306 74.9323C292.003 74.9323 298.243 68.6904 298.243 60.9906C298.243 53.2908 292.003 47.0488 284.306 47.0488C276.608 47.0488 270.368 53.2908 270.368 60.9906C270.368 68.6904 276.608 74.9323 284.306 74.9323Z" fill="#FC8D8D"/>
<path d="M284.306 78.6097C279.635 78.6097 275.155 76.7536 271.852 73.4497C268.55 70.1458 266.694 65.6648 266.694 60.9924C266.699 56.3216 268.557 51.8436 271.858 48.5409C275.16 45.2381 279.636 43.3803 284.306 43.375C288.975 43.3803 293.451 45.2381 296.753 48.5409C300.055 51.8436 301.912 56.3216 301.917 60.9924C301.917 65.6648 300.062 70.1458 296.759 73.4497C293.456 76.7536 288.976 78.6097 284.306 78.6097ZM284.306 45.1928C280.118 45.197 276.102 46.8629 273.141 49.8248C270.179 52.7868 268.513 56.803 268.507 60.9924C268.513 65.1821 270.179 69.1987 273.14 72.1613C276.102 75.1239 280.117 76.7906 284.306 76.7959C288.494 76.7906 292.508 75.1238 295.469 72.1611C298.43 69.1984 300.096 65.1817 300.1 60.9924C300.096 56.8034 298.43 52.7871 295.469 49.8251C292.508 46.863 288.493 45.197 284.306 45.1928Z" fill="#AED1E5"/>
<path d="M293.235 54.1772H293.215C292.875 53.9628 292.599 53.6615 292.415 53.3043V52.5436C292.414 52.0696 292.225 51.6154 291.889 51.2806C291.554 50.9458 291.099 50.7578 290.626 50.7578H278.025C277.791 50.7578 277.559 50.804 277.342 50.8937C277.126 50.9835 276.929 51.115 276.763 51.2808C276.597 51.4467 276.466 51.6435 276.376 51.8602C276.286 52.0769 276.24 52.3091 276.24 52.5436V53.3043C276.056 53.6615 275.78 53.9628 275.44 54.1772C275.042 54.4297 274.714 54.7786 274.487 55.1915C274.259 55.6045 274.14 56.0681 274.139 56.5395V58.3573C274.139 58.4257 274.152 58.4933 274.178 58.5565C274.205 58.6196 274.243 58.677 274.291 58.7254C274.34 58.7737 274.397 58.812 274.46 58.8382C274.523 58.8643 274.591 58.8778 274.659 58.8778H274.847C274.916 58.8778 274.983 58.8643 275.046 58.8381C275.109 58.8119 275.166 58.7735 275.214 58.7251C275.262 58.6767 275.3 58.6193 275.326 58.5562C275.351 58.4931 275.364 58.4255 275.364 58.3573V55.9549C275.361 55.782 275.402 55.6111 275.482 55.458C275.563 55.3048 275.68 55.1742 275.824 55.0781C275.958 54.991 276.116 54.9477 276.276 54.9539V68.7796C276.277 68.963 276.351 69.1385 276.48 69.2682C276.61 69.3979 276.785 69.4712 276.969 69.4722H277.921V70.7695C277.921 70.8973 277.972 71.02 278.062 71.1107C278.152 71.2014 278.274 71.2529 278.402 71.254H279.37C279.499 71.254 279.622 71.203 279.713 71.1121C279.804 71.0212 279.855 70.898 279.855 70.7695V69.5083H288.853V70.7695C288.853 70.8973 288.903 71.02 288.993 71.1107C289.083 71.2014 289.205 71.2529 289.333 71.254H290.301C290.43 71.254 290.553 71.203 290.644 71.1121C290.735 71.0212 290.786 70.898 290.786 70.7695V69.5083H291.738C291.922 69.5072 292.097 69.4339 292.227 69.3042C292.357 69.1746 292.43 68.999 292.431 68.8156V54.99C292.591 54.9837 292.749 55.0271 292.883 55.1141C293.026 55.2105 293.143 55.3412 293.223 55.4944C293.303 55.6476 293.343 55.8183 293.339 55.991V58.3933C293.339 58.5314 293.394 58.6638 293.492 58.7614C293.589 58.859 293.722 58.9138 293.86 58.9138H294.048C294.186 58.9138 294.318 58.859 294.416 58.7614C294.513 58.6638 294.568 58.5314 294.568 58.3933V56.5595C294.568 56.0817 294.445 55.612 294.211 55.195C293.978 54.7781 293.642 54.4277 293.235 54.1772ZM280.755 51.6947C280.755 51.6655 280.76 51.6364 280.771 51.6092C280.782 51.582 280.798 51.5573 280.818 51.5364C280.839 51.5155 280.863 51.499 280.89 51.4877C280.917 51.4763 280.946 51.4705 280.975 51.4705H287.668C287.727 51.4716 287.782 51.4956 287.824 51.5376C287.865 51.5795 287.888 51.636 287.888 51.6947V52.5436C287.888 52.6023 287.865 52.6588 287.824 52.7007C287.782 52.7427 287.727 52.7667 287.668 52.7678H280.975C280.946 52.7678 280.917 52.762 280.89 52.7507C280.863 52.7393 280.839 52.7228 280.818 52.7019C280.798 52.681 280.782 52.6563 280.771 52.6291C280.76 52.6019 280.755 52.5728 280.755 52.5436V51.6947ZM276.797 55.2542C276.796 55.0012 276.884 54.7561 277.046 54.5615C277.208 54.3668 277.432 54.2351 277.681 54.1892C282.046 53.3729 286.525 53.3729 290.89 54.1892C291.139 54.2343 291.365 54.3657 291.527 54.5603C291.69 54.755 291.779 55.0007 291.778 55.2542V61.6926C291.778 62.0212 291.664 62.3395 291.456 62.594C291.248 62.8486 290.959 63.0237 290.638 63.09C286.451 63.9966 282.12 63.9966 277.933 63.09C277.611 63.0236 277.321 62.8478 277.114 62.5925C276.906 62.3372 276.792 62.0179 276.793 61.6886L276.797 55.2542ZM280.399 66.5334C280.399 66.6276 280.362 66.718 280.296 66.7854C280.231 66.8527 280.141 66.8916 280.047 66.8937C279.169 66.9341 278.29 66.856 277.433 66.6615C277.251 66.6136 277.09 66.5065 276.976 66.3572C276.861 66.2079 276.8 66.0248 276.801 65.8367V65.0359C276.801 64.9435 276.821 64.8523 276.862 64.7691C276.902 64.6859 276.96 64.6129 277.033 64.5555C277.105 64.4982 277.189 64.4579 277.28 64.4378C277.37 64.4176 277.463 64.4182 277.553 64.4393C278.472 64.6659 279.336 65.0744 280.095 65.6405C280.19 65.7126 280.267 65.8058 280.32 65.9129C280.372 66.0199 280.4 66.1377 280.399 66.2571V66.5334ZM287.892 68.5874C287.892 68.6462 287.869 68.7026 287.828 68.7445C287.786 68.7865 287.731 68.8105 287.672 68.8116H280.979C280.95 68.8116 280.921 68.8058 280.894 68.7945C280.867 68.7831 280.843 68.7666 280.822 68.7457C280.802 68.7248 280.786 68.7001 280.775 68.6729C280.764 68.6457 280.759 68.6166 280.759 68.5874V67.7385C280.759 67.7093 280.764 67.6802 280.775 67.653C280.786 67.6259 280.802 67.6011 280.822 67.5802C280.843 67.5594 280.867 67.5428 280.894 67.5315C280.921 67.5201 280.95 67.5143 280.979 67.5143H287.672C287.731 67.5154 287.786 67.5395 287.828 67.5814C287.869 67.6233 287.892 67.6798 287.892 67.7385V68.5874ZM291.85 65.8367C291.851 66.0248 291.79 66.2079 291.675 66.3572C291.561 66.5065 291.4 66.6136 291.218 66.6615C290.361 66.856 289.482 66.9341 288.604 66.8937C288.51 66.8916 288.42 66.8529 288.353 66.7856C288.287 66.7184 288.249 66.6279 288.248 66.5334V66.2611C288.247 66.1413 288.275 66.023 288.328 65.9159C288.382 65.8087 288.46 65.7157 288.556 65.6445C289.314 65.079 290.177 64.6707 291.094 64.4433C291.184 64.4215 291.278 64.4204 291.369 64.4402C291.459 64.46 291.544 64.5002 291.617 64.5576C291.69 64.6151 291.749 64.6883 291.789 64.7719C291.83 64.8554 291.851 64.9471 291.85 65.0399V65.8367Z" fill="white"/>
<path d="M344.221 124.313C351.918 124.313 358.158 118.071 358.158 110.371C358.158 102.672 351.918 96.4297 344.221 96.4297C336.523 96.4297 330.283 102.672 330.283 110.371C330.283 118.071 336.523 124.313 344.221 124.313Z" fill="#FFB469"/>
<path d="M344.221 127.994C339.551 127.989 335.075 126.131 331.773 122.829C328.472 119.526 326.614 115.048 326.609 110.377C326.614 105.706 328.472 101.228 331.773 97.9256C335.075 94.6229 339.551 92.7651 344.221 92.7598C348.89 92.7651 353.366 94.6229 356.668 97.9256C359.97 101.228 361.827 105.706 361.832 110.377C361.827 115.048 359.97 119.526 356.668 122.829C353.366 126.131 348.89 127.989 344.221 127.994ZM344.221 94.5736C340.033 94.5789 336.018 96.2457 333.057 99.2084C330.096 102.171 328.431 106.188 328.426 110.377C328.431 114.566 330.096 118.582 333.057 121.544C336.018 124.506 340.033 126.172 344.221 126.177C348.408 126.172 352.423 124.506 355.384 121.544C358.345 118.582 360.011 114.566 360.015 110.377C360.011 106.188 358.345 102.171 355.384 99.2084C352.423 96.2457 348.409 94.5789 344.221 94.5736Z" fill="#AED1E5"/>
<path d="M338.465 100.93C338.552 100.931 338.638 100.914 338.718 100.881C338.799 100.848 338.872 100.799 338.933 100.738C339.059 100.613 339.129 100.443 339.129 100.265C339.129 100.209 339.141 100.153 339.162 100.101C339.184 100.048 339.216 100.001 339.256 99.9611C339.296 99.9213 339.344 99.8898 339.396 99.8685C339.449 99.8472 339.505 99.8365 339.562 99.837H343.564V101.439H341.887C340.866 101.439 339.886 101.844 339.164 102.567C338.442 103.289 338.037 104.269 338.037 105.29V113.21C338.037 113.621 338.2 114.015 338.49 114.306C338.781 114.596 339.175 114.76 339.586 114.76H348.84C349.044 114.761 349.246 114.721 349.435 114.644C349.624 114.567 349.795 114.453 349.94 114.309C350.085 114.165 350.2 113.994 350.278 113.805C350.356 113.617 350.397 113.414 350.397 113.21V105.306C350.397 104.285 349.991 103.305 349.269 102.583C348.547 101.86 347.567 101.455 346.546 101.455H344.869V99.8531H348.892C348.948 99.8527 349.004 99.8635 349.056 99.8848C349.108 99.9061 349.156 99.9375 349.196 99.9772C349.237 100.017 349.269 100.064 349.291 100.116C349.313 100.169 349.324 100.225 349.324 100.281C349.325 100.458 349.394 100.627 349.516 100.754C349.578 100.816 349.652 100.864 349.733 100.897C349.814 100.93 349.901 100.947 349.988 100.946C350.075 100.946 350.162 100.929 350.242 100.895C350.322 100.862 350.395 100.813 350.457 100.751C350.518 100.689 350.567 100.616 350.6 100.536C350.633 100.455 350.649 100.369 350.649 100.281C350.649 99.8121 350.462 99.362 350.131 99.0301C349.799 98.6982 349.349 98.5117 348.88 98.5117H339.566C339.333 98.5109 339.102 98.5565 338.887 98.6459C338.672 98.7352 338.477 98.8666 338.313 99.0322C338.148 99.1959 338.017 99.3905 337.928 99.6049C337.839 99.8193 337.793 100.049 337.792 100.281C337.793 100.459 337.863 100.629 337.989 100.754C338.052 100.813 338.127 100.86 338.209 100.89C338.291 100.92 338.378 100.934 338.465 100.93ZM340.686 113.29C340.44 113.289 340.2 113.216 339.995 113.078C339.791 112.941 339.632 112.746 339.539 112.518C339.445 112.29 339.421 112.04 339.47 111.798C339.519 111.557 339.638 111.335 339.813 111.162C339.988 110.988 340.21 110.87 340.451 110.823C340.693 110.776 340.943 110.801 341.17 110.896C341.398 110.991 341.591 111.151 341.728 111.357C341.864 111.562 341.936 111.803 341.935 112.049C341.935 112.213 341.903 112.376 341.839 112.528C341.776 112.679 341.683 112.817 341.566 112.932C341.449 113.048 341.31 113.139 341.158 113.2C341.006 113.262 340.843 113.292 340.678 113.29H340.686ZM345.634 113.21H342.832C342.764 113.21 342.699 113.183 342.651 113.135C342.603 113.087 342.576 113.022 342.576 112.954C342.576 112.886 342.603 112.821 342.651 112.773C342.699 112.725 342.764 112.698 342.832 112.698H345.634C345.701 112.698 345.767 112.725 345.815 112.773C345.863 112.821 345.89 112.886 345.89 112.954C345.89 113.022 345.863 113.087 345.815 113.135C345.767 113.183 345.701 113.21 345.634 113.21ZM345.634 112.301H342.832C342.796 112.306 342.759 112.303 342.724 112.292C342.69 112.281 342.658 112.263 342.63 112.239C342.603 112.215 342.581 112.186 342.566 112.152C342.551 112.119 342.544 112.083 342.544 112.047C342.544 112.011 342.551 111.975 342.566 111.942C342.581 111.909 342.603 111.879 342.63 111.855C342.658 111.831 342.69 111.813 342.724 111.802C342.759 111.791 342.796 111.788 342.832 111.793H345.634C345.695 111.801 345.752 111.831 345.794 111.878C345.835 111.924 345.858 111.985 345.858 112.047C345.858 112.109 345.835 112.17 345.794 112.217C345.752 112.263 345.695 112.294 345.634 112.301ZM345.377 111.38H343.084C343.016 111.381 342.95 111.368 342.887 111.343C342.825 111.317 342.768 111.28 342.72 111.232C342.672 111.184 342.635 111.127 342.609 111.065C342.584 111.002 342.571 110.935 342.572 110.868C342.572 110.801 342.585 110.734 342.611 110.672C342.636 110.61 342.674 110.554 342.722 110.507C342.769 110.46 342.826 110.422 342.888 110.397C342.95 110.372 343.017 110.359 343.084 110.359H345.377C345.445 110.359 345.511 110.372 345.573 110.398C345.635 110.425 345.691 110.463 345.738 110.512C345.832 110.606 345.886 110.734 345.886 110.868C345.886 110.936 345.873 111.003 345.847 111.066C345.822 111.128 345.784 111.185 345.735 111.233C345.687 111.281 345.63 111.318 345.567 111.344C345.504 111.369 345.437 111.381 345.369 111.38H345.377ZM347.779 113.29C347.533 113.289 347.292 113.216 347.088 113.078C346.884 112.941 346.725 112.746 346.631 112.518C346.538 112.29 346.514 112.04 346.563 111.798C346.612 111.557 346.731 111.335 346.906 111.162C347.08 110.988 347.302 110.87 347.544 110.823C347.786 110.776 348.036 110.801 348.263 110.896C348.49 110.991 348.684 111.151 348.82 111.357C348.956 111.562 349.029 111.803 349.028 112.049C349.028 112.214 348.995 112.378 348.931 112.531C348.867 112.683 348.773 112.821 348.655 112.937C348.536 113.052 348.396 113.143 348.242 113.204C348.089 113.265 347.924 113.294 347.759 113.29H347.779ZM346.47 103.417C347.139 103.417 347.78 103.682 348.253 104.155C348.726 104.628 348.992 105.27 348.992 105.939V107.901C348.992 108.12 348.905 108.33 348.75 108.484C348.596 108.639 348.386 108.726 348.167 108.726H340.246C340.027 108.726 339.818 108.639 339.663 108.484C339.508 108.33 339.421 108.12 339.421 107.901V105.939C339.421 105.27 339.687 104.628 340.16 104.155C340.633 103.682 341.274 103.417 341.943 103.417H346.47Z" fill="white"/>
<path d="M352.394 121.294L352.026 120.609L350.721 118.207L350.409 117.634L349.292 115.564H347.239L347.971 116.914H340.466L341.199 115.564H339.145L338.025 117.634L337.716 118.207L336.412 120.609L336.043 121.294L335.523 122.251L337.576 122.72L338.093 121.294H350.341L350.857 122.72L352.91 122.251L352.394 121.294ZM338.785 119.997L339.762 118.195H348.656L349.632 119.997H338.785Z" fill="white"/>
<path d="M205.366 100.663L176.607 132.294C176.07 132.856 175.419 133.298 174.698 133.589C173.977 133.88 173.202 134.015 172.425 133.984C170.213 133.925 168.091 133.1 166.421 131.65C165.676 131.023 165.027 130.29 164.495 129.475C162.99 127.117 162.818 124.422 164.283 122.593L189.288 91.2938L195.692 91.1816L196.612 92.0865L205.366 100.663Z" fill="#39587C"/>
<path d="M176.015 117.395L140.508 90.168L134.808 96.5382L162.262 129.315C163.601 130.922 165.311 132.178 167.246 132.973C169.18 133.769 171.279 134.08 173.361 133.879C174.121 133.822 174.861 133.611 175.537 133.26C176.214 132.909 176.812 132.425 177.296 131.836C177.78 131.248 178.141 130.568 178.355 129.836C178.57 129.105 178.634 128.338 178.544 127.581L176.015 117.395Z" fill="#39587C"/>
<path d="M205.79 100.583L177.032 132.214C176.494 132.776 175.843 133.218 175.122 133.509C174.401 133.8 173.626 133.935 172.849 133.904C170.638 133.845 168.515 133.02 166.845 131.569C166.1 130.943 165.452 130.21 164.92 129.395C167.677 127.605 174.17 130.3 174.17 130.3L197.853 94.793L205.79 100.583Z" fill="#1E3851"/>
<path d="M203.853 74.373L201.54 74.7734C200.206 75.0226 198.948 75.5754 197.862 76.3892C196.777 77.2029 195.893 78.2557 195.28 79.4661L189.276 91.2937C194.171 92.0104 198.626 94.4608 202.484 99.2255L209.545 82.0806L203.853 74.373Z" fill="#39587C"/>
<path d="M161.169 85.9648H108.451C107.876 85.9648 107.41 86.4309 107.41 87.0059V122.441C107.41 123.016 107.876 123.482 108.451 123.482H161.169C161.744 123.482 162.21 123.016 162.21 122.441V87.0059C162.21 86.4309 161.744 85.9648 161.169 85.9648Z" fill="#CECECE"/>
<path d="M160.185 87.9941H109.436V121.463H160.185V87.9941Z" fill="#39587C"/>
<path d="M153.096 87.9941L119.646 121.463H109.436V118.792L140.224 87.9941H153.096Z" fill="#597A9B"/>
<path d="M127.964 87.9941L109.436 106.524V100.078L121.515 87.9941H127.964Z" fill="#597A9B"/>
<path d="M141.825 87.8585L140.988 84.0748C140.893 83.6394 140.653 83.2491 140.308 82.9671C139.963 82.6851 139.532 82.528 139.087 82.5213L130.009 82.3811C129.51 82.3731 129.026 82.5544 128.654 82.8886C128.283 83.2228 128.052 83.6852 128.008 84.1829L127.792 86.5853L128.656 89.8124C128.824 90.4311 129.177 90.9836 129.668 91.3958C130.159 91.808 130.764 92.0603 131.402 92.1187L138.41 92.7473C138.863 92.7879 139.317 92.6776 139.701 92.4336C140.084 92.1896 140.377 91.8255 140.532 91.398L141.825 87.8585Z" fill="#FFD3AB"/>
<path d="M219.011 341.035L217.586 388.566L217.554 391.925L207.98 393.487L205.462 388.566L194.735 312.239L191.973 306.493C191.216 304.927 190.78 303.225 190.688 301.488L189.796 285.236L189.416 278.209L188.295 257.821L188.215 256.368L217.726 253.145L215.613 265.361L213.635 276.772L211.354 289.921C211.126 291.238 210.954 292.555 210.83 293.881C210.21 300.695 211.028 307.563 213.231 314.041L216.341 323.186C218.287 328.929 219.191 334.974 219.011 341.035Z" fill="#FFD3AB"/>
<path d="M256.063 252.436L253.041 268.403L251.884 274.509L247.758 296.347L247.441 298.045L251.86 338.645L249.375 388.566L249.811 393.238L240.621 392.233L237.255 388.566L230.654 333.127L230.202 312.23L228.165 292.431L226.48 276.015L225.191 263.539L224.554 257.348L256.063 252.436Z" fill="#FFD3AB"/>
<path d="M249.379 388.57C248.53 393.187 243.671 392.002 237.259 388.57L212.663 399.157C212.663 400.151 213.058 401.104 213.76 401.807C214.463 402.51 215.416 402.904 216.409 402.904H249.103C249.922 402.905 250.73 402.716 251.464 402.352C252.198 401.988 252.838 401.459 253.333 400.806C253.829 400.153 254.167 399.395 254.32 398.59C254.473 397.785 254.439 396.955 254.218 396.166L249.379 388.57Z" fill="#1E3851"/>
<path d="M217.586 388.57C216.738 393.187 211.878 392.002 205.466 388.57L180.87 399.157C180.87 400.151 181.265 401.104 181.967 401.807C182.67 402.51 183.623 402.904 184.617 402.904H217.314C218.133 402.904 218.941 402.715 219.674 402.351C220.408 401.986 221.047 401.457 221.542 400.804C222.037 400.152 222.374 399.394 222.527 398.589C222.681 397.784 222.646 396.955 222.425 396.166L217.586 388.57Z" fill="#1E3851"/>
<path d="M213.635 276.779L211.354 289.928C211.126 291.246 210.954 292.563 210.83 293.888C206.655 289.364 194.223 286.229 189.808 285.236L189.427 278.209L213.635 276.779Z" fill="#FFA083"/>
<path d="M251.884 274.514L247.758 296.347C246.853 294.872 245.548 293.683 243.995 292.92C239.508 290.918 231.587 291.875 228.165 292.431L226.48 276.015L251.884 274.514Z" fill="#FFA083"/>
<path d="M259.662 224.001L261.263 209.499C262.127 199.457 260.006 192.706 257.392 182.973L255.839 177.179L215.973 173.691L215.809 177.155L194.887 179.101L188.483 236.197C187.034 249.106 188.115 283.408 188.115 283.408C231.911 294.947 251.672 286.158 251.672 286.158C255.211 274.887 259.662 224.005 259.662 224.001Z" fill="#1E3851"/>
<path d="M252.553 64.242C253.514 60.5184 251.776 52.066 250.952 49.6557C248.122 41.3595 253.249 22.6531 226.608 19.4259C226.608 19.4259 212.999 19.0615 210.501 25.2757C210.501 25.2757 206.059 27.8342 206.383 39.6899C206.531 45.1312 206.675 49.5035 206.659 53.2232C206.831 63.7576 201.303 72.0898 201.303 72.0898C233.825 80.1497 257.024 73.1708 257.024 73.1708C257.024 73.1708 251.544 68.1619 252.553 64.242Z" fill="#1E3851"/>
<path d="M254.098 137.387C251.244 154.756 251.204 158.896 254.038 169.358L259.954 188.597C257.364 189.338 254.714 189.986 252.024 190.523C243.207 192.275 234.232 193.116 225.243 193.034L221.152 177.618L217.754 192.809C207.323 192.221 197.501 190.523 189.456 187.973L198.373 160.057C199.656 154.384 200.061 148.548 199.574 142.752L198.309 127.621C198.211 126.448 197.873 125.307 197.317 124.27C194.534 118.967 193.371 112.963 193.971 107.005C194.363 102.858 195.606 98.8376 197.621 95.1931L202.72 85.984L203.853 74.3726C203.965 74.3446 204.077 74.3246 204.185 74.2925C208.02 73.3636 211.674 72.6349 215.204 72.1064C215.973 71.9863 216.753 71.8862 217.51 71.7821C218.583 71.6419 219.655 71.5098 220.712 71.4177H220.764C227.877 70.729 234.393 70.9092 240.525 72.0143C241.301 72.1477 242.07 72.2999 242.83 72.4707C243.962 72.711 245.085 72.9872 246.201 73.2995C250.113 74.3817 253.905 75.8574 257.52 77.7039C259.194 78.5563 260.605 79.847 261.603 81.4384C262.601 83.0299 263.149 84.8625 263.188 86.7408L261.154 93.2592C260.142 100.098 257.46 116.73 255.711 127.509C254.766 133.287 254.098 137.387 254.098 137.387Z" fill="#39587C"/>
<path d="M240.521 72.0071C240.369 72.2593 239.152 80.103 236.066 89.8687C232.376 101.508 226.032 115.894 215.653 123.482C215.653 123.482 206.847 113.512 212.083 89.16C213.4 83.2271 215.21 77.4146 217.494 71.7828C218.567 71.6427 219.639 71.5106 220.696 71.4185H220.748L221.148 69.5446L222.677 62.1774L223.014 60.5758C223.322 59.0833 224.172 57.7574 225.398 56.8529C226.624 55.9483 228.141 55.5288 229.658 55.675C231.044 55.8128 232.343 56.4142 233.346 57.382C234.348 58.3497 234.995 59.6273 235.182 61.0082L236.146 68.2954C236.26 69.1338 236.628 69.9171 237.201 70.5399C237.773 71.1627 238.523 71.5951 239.348 71.7788L240.521 72.0071Z" fill="#FFD3AB"/>
<path d="M221.152 69.5351C226.608 69.4831 231.159 64.1098 231.159 64.1098L222.681 62.1719L221.152 69.5351Z" fill="#FFA083"/>
<path d="M232.82 49.8615C233.641 54.0176 234.741 57.437 235.266 61.3969C227.328 67.9073 214.408 66.602 212.315 53.1888C210.906 44.1799 211.002 31.3633 211.002 31.3633C212.871 35.159 214.204 37.7976 222.906 39.7155C225.367 40.2566 227.616 41.5051 229.377 43.3076C231.139 45.1101 232.335 47.388 232.82 49.8615Z" fill="#FFD3AB"/>
<path d="M221.588 58.3292C220.872 58.3326 220.156 58.2804 219.447 58.173C219.353 58.157 219.262 58.1226 219.181 58.0717C219.1 58.0207 219.03 57.9543 218.975 57.8763C218.919 57.7982 218.88 57.7099 218.859 57.6166C218.837 57.5232 218.835 57.4266 218.851 57.3322C218.867 57.2378 218.901 57.1475 218.952 57.0664C219.003 56.9853 219.069 56.9151 219.147 56.8597C219.225 56.8043 219.314 56.7648 219.407 56.7435C219.5 56.7222 219.597 56.7195 219.691 56.7356C219.735 56.7356 224.346 57.4964 226.175 55.4143C226.238 55.3426 226.315 55.2841 226.401 55.2421C226.486 55.2 226.579 55.1753 226.675 55.1694C226.77 55.1634 226.865 55.1763 226.955 55.2074C227.046 55.2384 227.129 55.287 227.2 55.3503C227.272 55.413 227.331 55.4893 227.373 55.5748C227.416 55.6603 227.441 55.7534 227.447 55.8486C227.453 55.9439 227.441 56.0394 227.41 56.1298C227.379 56.2202 227.331 56.3036 227.268 56.3753C225.827 57.9969 223.358 58.3292 221.588 58.3292Z" fill="#FFA083"/>
<path d="M236.066 89.8689C232.376 101.508 226.032 115.894 215.653 123.482C215.653 123.482 206.847 113.512 212.083 89.1602C213.784 91.026 216.573 92.5915 221.136 92.7637C227.873 93.04 232.656 91.6706 236.066 89.8689Z" fill="#F44E4E"/>
<path d="M252.008 190.524C257.408 185.319 252.889 178.548 251.5 170.904C248.066 151.934 201.724 144.254 207.167 143.145C211.458 142.268 243.747 130.977 238.6 128.619C235.332 127.181 231.992 125.914 228.593 124.823C228.337 124.739 228.117 124.57 227.97 124.343C227.824 124.116 227.76 123.846 227.789 123.577C227.818 123.309 227.938 123.058 228.13 122.868C228.321 122.678 228.573 122.56 228.841 122.533C230.402 122.381 232.396 122.204 234.937 121.996C245.344 121.147 245.744 110.385 245.744 110.385L255.691 127.51C254.75 133.295 254.09 137.395 254.09 137.395C251.236 154.764 251.196 158.905 254.03 169.367L259.946 188.606C257.364 189.339 254.714 189.987 252.008 190.524Z" fill="#1E3851"/>
<path d="M205.202 132.649L200.091 130.199C198.954 129.66 197.67 129.519 196.444 129.798L184.869 132.429C184.526 132.584 184.222 132.815 183.981 133.104C183.739 133.393 183.566 133.732 183.474 134.097C183.381 134.463 183.373 134.844 183.448 135.213C183.523 135.582 183.68 135.929 183.908 136.229L187.738 141.238C188.219 141.866 188.847 142.365 189.567 142.692C190.287 143.019 191.076 143.163 191.865 143.112L201.391 142.467L204.726 141.238L207.179 138.275L205.202 132.649Z" fill="#FFD3AB"/>
<path d="M266.222 93.2635L260.57 141.747C260.438 142.883 260.069 143.979 259.489 144.964C258.908 145.948 258.128 146.801 257.199 147.467C256.269 148.132 255.211 148.596 254.092 148.828C252.972 149.06 251.817 149.055 250.7 148.814C248.796 148.405 247.1 147.331 245.916 145.786C244.732 144.24 244.136 142.323 244.235 140.378L246.689 92.1785L256.511 87.5859L266.222 93.2635Z" fill="#39587C"/>
<path d="M253.666 132.377L205.202 132.649L204.582 143.8L246.925 149.674C248.991 150.092 251.128 150 253.15 149.406C255.173 148.812 257.02 147.735 258.533 146.267C259.095 145.744 259.545 145.112 259.856 144.411C260.168 143.709 260.334 142.952 260.346 142.184C260.357 141.417 260.213 140.655 259.922 139.944C259.631 139.234 259.199 138.59 258.653 138.051L253.666 132.377Z" fill="#39587C"/>
<path d="M257.516 77.6914C259.617 78.2089 261.453 79.4816 262.675 81.2669C264.187 83.5267 265.176 86.0957 265.569 88.7863L266.222 93.2587C260.007 90.7608 253.142 90.3795 246.689 92.1737L246.289 83.405L257.516 77.6914Z" fill="#39587C"/>
</g>
<defs>
<clipPath id="clip0_1404_1597">
<rect width="423" height="406" fill="white"/>
</clipPath>
</defs>
</svg>
