<svg width="60" height="60" viewBox="0 0 60 60" fill="none" xmlns="http://www.w3.org/2000/svg">
<rect width="60" height="60" fill="white"/>
<g clip-path="url(#clip0_2_31)">
<path d="M58 47.0718C57.6992 48.1614 57.1934 49.1147 56.0996 49.5778C55.5527 49.8093 54.9102 49.9728 54.3086 49.9728C38.0938 50 21.8789 49.9864 5.66406 49.9864C3.76367 49.9864 2.7793 49.1828 1.98633 47.0582C1.98633 46.1866 1.98633 45.3149 1.98633 44.4433C2.28711 43.6806 2.7793 43.1495 3.73633 43.1086C3.73633 42.8771 3.73633 42.6455 3.73633 42.414C3.73633 32.8532 3.73633 23.2788 3.73633 13.7181C3.73633 12.2063 4.31055 11.0214 5.70508 10.3541C6.21094 10.1089 6.82617 9.98637 7.38672 9.98637C22.4668 9.99999 37.5332 9.99999 52.5996 9.99999C54.8145 9.99999 56.2363 11.4845 56.2363 13.7317C56.2363 23.2925 56.2363 32.8669 56.2363 42.4276C56.2363 42.6455 56.2363 42.8635 56.2363 43.1086C57.1523 43.1631 57.6992 43.667 57.9863 44.4569C58 45.3286 58 46.2002 58 47.0718ZM54.6094 43.1358C54.6094 42.9043 54.6094 42.7409 54.6094 42.5775C54.6094 32.9486 54.6094 23.3333 54.6094 13.7045C54.6094 12.3153 53.8984 11.6207 52.4766 11.6207C37.4922 11.6343 22.5078 11.6343 7.52344 11.6343C6.08789 11.6343 5.39062 12.3289 5.39062 13.7862C5.39062 23.3742 5.39062 32.9622 5.39062 42.5502C5.39062 42.7409 5.39062 42.9316 5.39062 43.1495C6.2793 43.1495 7.07227 43.1495 7.87891 43.1495C8.52148 43.1495 8.89062 43.4627 8.89062 43.9666C8.89062 44.4705 8.52148 44.7702 7.86523 44.7838C6.8125 44.7974 5.74609 44.7838 4.69336 44.7838C4.35156 44.7838 4.00977 44.7838 3.6543 44.7838C3.6543 45.492 3.61328 46.1321 3.66797 46.7586C3.75 47.7937 4.55664 48.3793 5.81445 48.3793C21.9473 48.3793 38.0801 48.3793 54.1992 48.3793C54.377 48.3793 54.5684 48.3793 54.7461 48.3657C55.5391 48.2703 56.1953 47.7392 56.291 46.9765C56.3867 46.2683 56.3047 45.5465 56.3047 44.7974C56.0586 44.7974 55.8398 44.7974 55.6211 44.7974C49.4961 44.7974 43.3711 44.8246 37.2461 44.7702C36.1113 44.7565 35.3457 44.9881 34.8125 46.0504C34.3203 47.0446 33.377 47.4259 32.2695 47.4259C31.0801 47.4123 29.8906 47.3306 28.7148 47.4396C26.8008 47.6166 25.4063 46.9629 24.5723 45.2196C24.4082 44.8791 24.1484 44.7974 23.7793 44.7974C19.8555 44.811 15.9453 44.811 12.0215 44.7974C11.8027 44.7974 11.584 44.7838 11.3789 44.7429C10.9687 44.6476 10.75 44.348 10.7773 43.953C10.8047 43.5308 11.0508 43.2448 11.4883 43.1903C11.707 43.1631 11.9258 43.1767 12.1445 43.1767C26.0352 43.1767 39.9258 43.1767 53.8164 43.1767C54.0488 43.1358 54.2949 43.1358 54.6094 43.1358ZM26.3496 44.7838C26.6504 45.5056 27.1016 45.778 27.8125 45.7644C29.3027 45.7235 30.793 45.7508 32.2832 45.7508C33.0352 45.7508 33.3496 45.5192 33.5957 44.7838C31.2031 44.7838 28.7969 44.7838 26.3496 44.7838Z" fill="#FD71AF"/>
<path d="M21.1953 15.1209C21.1953 23.3197 21.1953 31.4505 21.1953 39.6221C31.1621 39.6221 41.1016 39.6221 51.0684 39.6221C51.0684 31.4777 51.0684 23.347 51.0684 15.1209C50.7676 15.1209 50.4668 15.1345 50.166 15.1209C49.7012 15.0936 49.4141 14.8485 49.3594 14.3854C49.3047 13.9496 49.6055 13.5683 50.084 13.5274C50.7129 13.4866 51.3555 13.4866 51.998 13.5274C52.4355 13.5546 52.6816 13.8543 52.7227 14.2765C52.75 14.4535 52.7363 14.6442 52.7363 14.8212C52.7363 23.1971 52.7363 31.573 52.7363 39.9353C52.7363 41.0793 52.5313 41.2836 51.3555 41.2836C37.123 41.2836 22.877 41.2836 8.64453 41.2836C7.44141 41.2836 7.25 41.093 7.25 39.8944C7.25 31.5458 7.25 23.1835 7.25 14.8349C7.25 13.7045 7.46875 13.4866 8.57617 13.4866C21.0996 13.4866 33.623 13.4866 46.1465 13.4866C46.3926 13.4866 46.7207 13.4457 46.8848 13.5819C47.1309 13.7589 47.3906 14.0722 47.4316 14.3446C47.4863 14.7259 47.1992 15.0255 46.7891 15.0936C46.5703 15.1345 46.3516 15.1209 46.1328 15.1209C38.0801 15.1209 30.0137 15.1209 21.9609 15.1209C21.7285 15.1209 21.4961 15.1209 21.1953 15.1209ZM8.93164 15.1481C8.93164 23.3197 8.93164 31.4641 8.93164 39.6084C12.4727 39.6084 15.9727 39.6084 19.4727 39.6084C19.4727 31.4232 19.4727 23.2925 19.4727 15.1481C15.9316 15.1481 12.4453 15.1481 8.93164 15.1481Z" fill="#FD71AF"/>
<path d="M43.6035 29.285C44.0683 28.0048 44.4785 26.8471 44.8887 25.6895C45.1894 24.8587 46.3652 24.4637 47.0762 24.9949C47.2812 25.1583 47.459 25.5124 47.459 25.7712C47.4863 28.3044 47.4863 30.8512 47.4726 33.3844C47.4726 33.9428 47.1309 34.2833 46.6523 34.2833C46.1601 34.2833 45.8457 33.9428 45.832 33.3299C45.8184 31.6275 45.832 29.9251 45.75 28.1954C45.6816 28.3453 45.6133 28.4951 45.5586 28.6449C45.1758 29.6936 44.793 30.7559 44.4238 31.8182C44.2734 32.2268 44.0547 32.54 43.5762 32.54C43.0976 32.54 42.8789 32.2404 42.7285 31.8318C42.3047 30.6469 41.8808 29.462 41.3613 28.2908C41.3476 28.4542 41.334 28.6313 41.334 28.7947C41.334 30.2247 41.334 31.6547 41.334 33.0848C41.334 33.3163 41.3203 33.5615 41.2383 33.7794C41.1152 34.1471 40.7871 34.365 40.4316 34.256C40.1582 34.1743 39.9258 33.9156 39.7344 33.6704C39.6387 33.5478 39.6934 33.3163 39.6934 33.1393C39.6934 30.7423 39.6934 28.3589 39.6934 25.9619C39.6934 25.2128 39.8848 24.9404 40.4453 24.8315C41.4297 24.6544 41.9766 24.8587 42.2226 25.5397C42.6055 26.5747 42.9609 27.6234 43.3437 28.6585C43.4121 28.8355 43.4941 28.999 43.6035 29.285Z" fill="#FD71AF"/>
<path d="M36.1387 19.479C32.2148 19.479 28.3047 19.479 24.3809 19.479C24.1758 19.479 23.9844 19.479 23.7793 19.4654C23.3418 19.4246 23.082 19.1522 23.0547 18.7164C23.0273 18.2805 23.2598 17.9945 23.6973 17.8992C23.8887 17.8583 24.0938 17.8447 24.2988 17.8447C32.1875 17.8447 40.0762 17.8447 47.9648 17.8447C48.7988 17.8447 49.209 18.1035 49.2227 18.6483C49.2363 19.2067 48.8262 19.479 47.9512 19.479C44.0137 19.479 40.0762 19.479 36.1387 19.479Z" fill="#FD71AF"/>
<path d="M36.6309 31.4368C36.9863 31.9544 37.3145 32.4311 37.6152 32.9213C37.9297 33.4116 37.8477 33.9019 37.4375 34.1607C37.0684 34.4059 36.5762 34.2833 36.2617 33.8338C35.9063 33.3299 35.5371 32.826 35.2363 32.2949C34.9629 31.8046 34.5937 31.6003 34.0469 31.682C33.8691 31.7092 33.6914 31.7092 33.4316 31.7092C33.4316 32.2949 33.459 32.8533 33.4316 33.398C33.4043 34.0109 33.0078 34.3378 32.4746 34.2424C31.9687 34.1607 31.8047 33.793 31.8047 33.3299C31.8047 32.3493 31.8047 31.3687 31.8047 30.4018C31.8047 28.9309 31.8047 27.4736 31.8047 26.0027C31.8047 25.0221 32.0508 24.7906 33.0352 24.7906C33.8691 24.7906 34.7168 24.777 35.5371 24.8451C37.0957 24.9813 38.2988 26.0572 38.5996 27.5009C38.9141 28.9854 38.2715 30.4154 36.9316 31.2053C36.8633 31.287 36.7813 31.3415 36.6309 31.4368ZM33.4863 30.0204C34.2246 30.0204 34.8945 30.0749 35.5508 30.0068C36.3984 29.9251 37.0137 29.2033 37.0684 28.3452C37.123 27.5553 36.5625 26.6973 35.7695 26.5611C35.0312 26.4385 34.2656 26.4658 33.4863 26.4249C33.4863 27.6779 33.4863 28.8219 33.4863 30.0204Z" fill="#FD71AF"/>
<path d="M23.8887 29.5301C23.875 28.3044 24.0254 27.1467 24.873 26.1661C26.2949 24.5182 28.9199 24.382 30.4785 25.8938C30.8477 26.2479 30.9023 26.7245 30.6152 27.065C30.3144 27.4191 29.8633 27.4872 29.4531 27.1467C28.8789 26.6837 28.2637 26.3841 27.498 26.493C26.4863 26.6292 25.6934 27.3646 25.5977 28.3725C25.5293 29.1624 25.5019 29.9659 25.5977 30.7559C25.7891 32.4447 27.7852 33.221 29.1387 32.1995C29.8359 31.6684 30.2598 31.6275 30.6016 32.0633C30.9434 32.4855 30.793 32.9758 30.1504 33.4661C28.9609 34.365 27.6348 34.542 26.2812 33.97C24.9277 33.4116 24.1074 32.3629 23.9434 30.8784C23.9297 30.429 23.916 29.9796 23.8887 29.5301Z" fill="#FD71AF"/>
<path d="M14.209 19.4654C13.3887 19.4654 12.5684 19.4791 11.7617 19.4654C11.1602 19.4518 10.791 19.1522 10.7773 18.6755C10.7637 18.1988 11.1328 17.8447 11.7207 17.8447C13.3887 17.8311 15.0566 17.8311 16.7383 17.8447C17.3398 17.8447 17.668 18.1988 17.6543 18.7028C17.6406 19.1794 17.3125 19.4654 16.7246 19.4654C15.877 19.4791 15.043 19.4654 14.209 19.4654Z" fill="#FD71AF"/>
<path d="M14.209 23.8372C13.3887 23.8372 12.5684 23.8509 11.7617 23.8372C11.1602 23.8236 10.791 23.524 10.7773 23.0473C10.7637 22.5706 11.1328 22.2165 11.7207 22.2165C13.3887 22.2029 15.0566 22.2029 16.7383 22.2165C17.3398 22.2302 17.668 22.5706 17.6543 23.0746C17.6406 23.5512 17.3125 23.8372 16.7246 23.8372C15.877 23.8372 15.043 23.8372 14.209 23.8372Z" fill="#FD71AF"/>
<path d="M14.209 28.1954C13.416 28.1954 12.6094 28.2091 11.8164 28.1954C11.1601 28.1818 10.791 27.8958 10.7773 27.4055C10.7637 26.9152 11.1465 26.5747 11.7754 26.5747C13.416 26.5611 15.043 26.5611 16.6836 26.5747C17.3262 26.5747 17.668 26.9152 17.6543 27.4327C17.6406 27.923 17.2988 28.1954 16.6699 28.209C15.8496 28.1954 15.0293 28.1954 14.209 28.1954Z" fill="#FD71AF"/>
<path d="M14.2363 35.2911C15.0566 35.2911 15.877 35.2775 16.6836 35.2911C17.2988 35.3047 17.6406 35.5907 17.6406 36.081C17.6406 36.5713 17.3125 36.8982 16.6973 36.9118C15.043 36.9254 13.3887 36.9254 11.7344 36.9118C11.1328 36.9118 10.7637 36.5713 10.7637 36.0946C10.7637 35.6043 11.1328 35.2911 11.7754 35.2775C12.6094 35.2911 13.416 35.2911 14.2363 35.2911Z" fill="#FD71AF"/>
<path d="M14.25 30.9329C15.0566 30.9329 15.8496 30.9193 16.6562 30.9329C17.3125 30.9465 17.6543 31.2462 17.6543 31.7637C17.6406 32.254 17.3125 32.5536 16.6836 32.5536C15.043 32.5672 13.4023 32.5672 11.7617 32.5536C11.1465 32.5536 10.791 32.2268 10.791 31.7501C10.791 31.2598 11.1602 30.9465 11.8027 30.9329C12.6094 30.9193 13.4297 30.9329 14.25 30.9329Z" fill="#FD71AF"/>
</g>
<defs>
<clipPath id="clip0_2_31">
<rect width="56" height="40" fill="white" transform="translate(2 10)"/>
</clipPath>
</defs>
</svg>
