<svg width="60" height="60" viewBox="0 0 60 60" fill="none" xmlns="http://www.w3.org/2000/svg">
<rect width="60" height="60" fill="white"/>
<g clip-path="url(#clip0_1_12)">
<path d="M32.8874 6C33.9685 6.28111 35.0672 6.52708 36.1307 6.85212C39.6114 7.91508 42.7142 9.68082 45.4477 12.0791C48.3483 14.6354 50.5984 17.6662 52.1454 21.2152C52.954 23.0688 53.5166 24.9927 53.8945 26.9692C53.9121 27.0747 53.9561 27.1801 53.9912 27.2767C53.9912 27.3733 53.9912 27.4612 53.9912 27.5578C53.9824 27.5666 53.9648 27.5754 53.9561 27.593C53.666 28.4012 53.1914 28.7877 52.5673 28.7526C51.8026 28.6998 51.3543 28.2694 51.1873 27.3558C50.5633 23.9912 49.28 20.899 47.276 18.123C44.6567 14.4949 41.299 11.7628 37.1152 10.1113C35.6561 9.54026 34.1091 9.18887 32.5885 8.77598C31.7184 8.5388 31.2701 8.17862 31.191 7.53733C31.1119 6.8609 31.4195 6.4041 32.2194 5.99121C32.4479 6 32.6676 6 32.8874 6Z" fill="#49CCF9"/>
<path d="M20.9687 26.0381C22.7266 30.1493 28.8178 36.6237 33.9597 38.9692C34.074 38.8111 34.197 38.5651 34.3816 38.3807C35.4627 37.3177 36.5175 36.2196 37.6513 35.2269C39.3126 33.7774 41.7912 33.7774 43.391 35.2972C45.6147 37.4231 47.7945 39.6018 49.904 41.8419C51.4159 43.4495 51.5038 45.9268 50.0623 47.5959C48.6471 49.2386 47.1265 50.8023 45.5268 52.2606C43.8744 53.7628 41.8088 54.1493 39.6202 53.9561C35.5682 53.6047 31.9733 51.9707 28.4838 50.0381C24.1681 47.6486 20.3358 44.6354 16.9782 41.0249C12.8998 36.6501 9.52463 31.8009 7.40634 26.1523C6.63285 24.1054 6.06153 21.9971 6 19.7833C5.93847 17.552 6.50101 15.5403 8.10071 13.9151C9.37521 12.6237 10.597 11.2709 11.9681 10.0849C14.0776 8.25768 16.3805 8.26647 18.4109 10.1728C20.5644 12.1933 22.6299 14.3104 24.6427 16.4714C26.1897 18.1318 26.1633 20.5827 24.6603 22.287C23.5968 23.4905 22.419 24.5974 21.2939 25.7482C21.1884 25.8448 21.083 25.9326 20.9687 26.0381ZM8.72478 19.634C8.77751 20.1786 8.82146 20.7233 8.88299 21.2679C8.90936 21.4963 8.96209 21.7247 9.01483 21.9531C9.76195 25.265 11.1419 28.3133 12.9086 31.1859C17.6198 38.8375 23.8956 44.8199 31.9996 48.7994C34.4783 50.0205 37.0273 50.9956 39.8136 51.2504C41.5627 51.4085 43.0921 51.0044 44.3402 49.7042C45.3598 48.6413 46.397 47.6047 47.4166 46.5505C47.5484 46.4187 47.6715 46.2782 47.7858 46.1288C48.5065 45.224 48.5153 44.3192 47.733 43.4671C46.8892 42.5534 45.9839 41.6837 45.1049 40.7965C44.015 39.6984 42.9251 38.6003 41.8176 37.5198C40.9914 36.7116 40.0597 36.7028 39.1807 37.4495C39.0137 37.59 38.8643 37.7482 38.7061 37.8975C37.6338 38.9692 36.5702 40.0498 35.4891 41.1039C34.7156 41.8682 33.8542 42 32.9138 41.5256C32.2633 41.1918 31.6041 40.8668 30.9713 40.489C28.141 38.8023 25.6799 36.6676 23.4561 34.2518C21.4961 32.1171 19.703 29.8594 18.49 27.1977C17.8484 25.7921 17.989 25.0981 19.0965 24.0263C20.2216 22.937 21.3466 21.8565 22.419 20.7233C23.2716 19.8272 23.2452 18.9575 22.4278 18.0176C22.3223 17.9034 22.2168 17.7892 22.1113 17.675C20.3446 15.9092 18.5779 14.1347 16.8112 12.369C15.6598 11.2182 14.6578 11.2182 13.4887 12.3777C12.4779 13.3792 11.4935 14.4158 10.4651 15.3909C9.24336 16.5505 8.66325 17.9473 8.72478 19.634Z" fill="#49CCF9"/>
<path d="M32.4391 14.7145C33.028 14.8638 33.8982 15.022 34.7156 15.3119C40.0773 17.2621 43.5316 20.978 45.017 26.4949C45.1049 26.8111 45.1664 27.1362 45.228 27.4524C45.3774 28.2255 44.9555 28.9283 44.226 29.1215C43.5316 29.2972 42.8108 28.8931 42.5911 28.1464C42.3626 27.3821 42.2395 26.5827 41.9582 25.8536C40.174 21.2679 36.8691 18.448 32.0348 17.4378C31.1295 17.2445 30.646 16.5681 30.8306 15.7511C30.98 15.1537 31.5338 14.7145 32.4391 14.7145Z" fill="#49CCF9"/>
</g>
<defs>
<clipPath id="clip0_1_12">
<rect width="48" height="48" fill="white" transform="translate(6 6)"/>
</clipPath>
</defs>
</svg>
