<svg width="60" height="60" viewBox="0 0 60 60" fill="none" xmlns="http://www.w3.org/2000/svg">
<rect width="60" height="60" fill="white"/>
<g clip-path="url(#clip0_3_76)">
<path d="M7 39.1155C7.28124 37.9511 8.16997 37.2303 8.9912 36.4651C12.7486 32.972 17.091 30.499 22.0858 29.1461C25.3933 28.259 28.7569 27.9596 32.1768 28.1924C37.1267 28.5362 41.6828 30.0222 45.9014 32.5727C48.2076 33.97 50.2888 35.6556 52.145 37.5851C53.2475 38.7273 53.2925 40.3353 52.2125 41.5108C50.7501 43.0965 49.2539 44.638 47.7239 46.1683C46.6214 47.2661 45.1252 47.244 43.9327 46.2348C42.7853 45.2701 41.6378 44.2942 40.4566 43.3738C39.9729 42.9967 39.3879 42.7195 38.8479 42.409C37.9254 41.8767 37.4642 41.0783 37.3517 40.0359C37.1717 38.4723 36.9467 36.9087 36.7217 35.3451C36.6992 35.212 36.5304 35.0235 36.3842 34.9791C33.8193 34.1696 31.2093 33.7815 28.5207 33.9922C26.7995 34.1252 25.1233 34.4912 23.4808 35.0235C23.3683 35.0568 23.2558 35.2342 23.2333 35.3673C23.0083 36.8976 22.7721 38.4279 22.6146 39.9693C22.5021 41.0894 22.0071 41.9211 21.0059 42.4534C19.2397 43.396 17.6872 44.6047 16.2697 45.9909C14.8973 47.3438 13.2998 47.2883 11.9499 45.9022C10.8024 44.7156 9.66618 43.5179 8.51871 42.3425C7.86623 41.6771 7.23624 41.0228 7 40.0913C7 39.7697 7 39.4481 7 39.1155ZM29.4431 32.0626C32.7056 32.0515 35.3042 32.606 37.8579 33.4488C38.2629 33.5819 38.4879 33.8702 38.5441 34.2916C38.7916 36.1657 39.0616 38.0287 39.2979 39.9028C39.3541 40.3131 39.5341 40.6125 39.9054 40.8121C41.8291 41.8545 43.5615 43.1631 45.1027 44.7045C45.6202 45.2257 46.0477 45.1924 46.5539 44.6601C47.9151 43.2518 49.2764 41.8434 50.6376 40.424C51.2225 39.8252 51.2113 39.3262 50.6263 38.7384C45.9239 34.0144 40.2991 31.0868 33.6055 30.2107C29.3869 29.6562 25.247 30.0554 21.2084 31.3529C16.6522 32.8167 12.7486 35.3118 9.40743 38.683C8.7662 39.3372 8.75495 39.7919 9.39618 40.4684C10.7011 41.8324 12.0174 43.1853 13.3223 44.5493C13.9748 45.2257 14.3123 45.2479 14.9648 44.5936C16.4272 43.1409 18.0472 41.8767 19.8697 40.9119C20.4321 40.6125 20.6684 40.2022 20.7359 39.5812C20.9384 37.8069 21.1971 36.0437 21.4334 34.2805C21.4896 33.8369 21.7371 33.5597 22.1646 33.4155C24.7183 32.6171 27.3057 32.0626 29.4431 32.0626Z" fill="#7B68EE"/>
<path d="M19.4647 16.2603C19.4647 16.5153 19.4647 16.6706 19.4647 16.8258C19.4647 18.3118 19.4759 19.8089 19.4647 21.2948C19.4534 22.1044 18.9472 22.5923 18.2834 22.3705C18.0135 22.2818 17.7885 21.9935 17.6197 21.7384C17.5185 21.6053 17.5522 21.3725 17.5522 21.1729C17.5522 18.8663 17.5522 16.5708 17.5522 14.2642C17.5297 13.3327 17.8672 13 18.8234 13C21.1634 13 23.4921 13 25.832 13C25.922 13 26.012 13 26.102 13C26.6982 13.0333 27.1032 13.4103 27.1145 13.9204C27.1257 14.4527 26.7095 14.863 26.0907 14.8741C24.5383 14.8963 22.9746 14.8852 21.4221 14.8852C21.2646 14.8852 21.1071 14.8852 20.9946 14.8852C24.0095 17.8571 27.0245 20.8291 30.0844 23.8454C30.1181 23.8121 30.2531 23.6901 30.3769 23.5682C33.763 20.2303 37.1492 16.8924 40.5353 13.5545C40.6816 13.4103 40.8391 13.2661 41.0078 13.1553C41.3903 12.9224 41.8516 12.9889 42.1553 13.2883C42.4478 13.5877 42.5153 14.0646 42.279 14.4305C42.1778 14.5747 42.054 14.7078 41.9303 14.8297C38.2517 18.4671 34.5618 22.0933 30.8831 25.7195C30.2081 26.3849 29.7581 26.3849 29.0944 25.7195C26.0232 22.6921 22.9521 19.6647 19.8809 16.6484C19.7797 16.5375 19.6559 16.4377 19.4647 16.2603Z" fill="#7B68EE"/>
</g>
<defs>
<clipPath id="clip0_3_76">
<rect width="46" height="34" fill="white" transform="translate(7 13)"/>
</clipPath>
</defs>
</svg>
