<svg width="60" height="60" viewBox="0 0 60 60" fill="none" xmlns="http://www.w3.org/2000/svg">
<rect width="60" height="60" fill="white"/>
<g clip-path="url(#clip0_1_2)">
<path d="M31.5582 6C32.3649 6.2625 33.1807 6.50625 33.8407 7.10625C34.8857 8.04375 35.4632 9.20625 35.4907 10.6219C35.5182 12.3656 35.4999 14.1188 35.4999 15.9375C35.6924 15.9375 35.8757 15.9375 36.0499 15.9375C40.3307 15.9375 44.6024 15.9375 48.8832 15.9375C50.8999 15.9375 52.009 17.0625 52.009 19.1156C52.009 23.2594 52.009 27.3937 52.009 31.5375C52.009 33.5531 50.8907 34.6875 48.9107 34.6875C45.5924 34.6875 42.2832 34.6875 38.9649 34.6969C38.7265 34.6969 38.4515 34.7906 38.259 34.9313C37.4615 35.5125 36.7007 36.1313 35.9032 36.7125C35.619 36.9188 35.4999 37.1438 35.4999 37.5188C35.5182 41.3344 35.4724 45.1406 35.5274 48.9563C35.564 51.3469 34.079 53.4844 31.6865 53.925C31.6499 53.9344 31.6132 53.9719 31.5765 54C25.0407 54 18.4957 54 11.9599 54C11.5199 53.8406 11.0524 53.7375 10.6399 53.5219C8.86153 52.6031 7.99987 51.1031 7.99987 49.0969C7.99987 36.3656 7.99987 23.6344 7.99987 10.9031C7.99987 10.7437 7.9907 10.5937 8.00903 10.4344C8.11903 9.12187 8.64153 8.01562 9.62237 7.13438C10.2915 6.525 11.1165 6.2625 11.9415 6C18.4774 6 25.0224 6 31.5582 6ZM9.85153 44.5875C17.8082 44.5875 25.7282 44.5875 33.639 44.5875C33.639 42.5438 33.639 40.5375 33.639 38.4563C32.9057 39.0188 32.2274 39.5344 31.549 40.0594C31.2374 40.3031 30.8982 40.4062 30.5224 40.2094C30.1374 40.0125 29.9907 39.675 29.9907 39.2531C29.9999 38.1281 29.9907 37.0031 29.9907 35.8781C29.9907 35.4938 29.9907 35.1094 29.9907 34.6875C29.129 34.6875 28.3224 34.6875 27.5157 34.6875C25.6274 34.6875 24.4907 33.525 24.4907 31.5938C24.4907 27.4031 24.4907 23.2219 24.4907 19.0312C24.4907 17.1 25.6274 15.9375 27.5065 15.9375C29.3857 15.9375 31.2649 15.9375 33.144 15.9375C33.309 15.9375 33.4649 15.9375 33.6207 15.9375C33.6207 14.4656 33.6207 13.05 33.6207 11.6531C25.6732 11.6531 17.7715 11.6531 9.84237 11.6531C9.85153 22.6406 9.85153 33.6 9.85153 44.5875ZM31.8332 37.4812C32.0532 37.3219 32.1999 37.2187 32.3465 37.1062C34.0332 35.8125 35.7199 34.5281 37.3974 33.225C37.7732 32.9344 38.149 32.8031 38.6165 32.8031C42.0815 32.8125 45.5465 32.8125 49.0207 32.8125C49.809 32.8125 50.1665 32.4656 50.1665 31.6875C50.1665 27.4406 50.1665 23.1938 50.1665 18.9469C50.1665 18.1781 49.8182 17.8219 49.0757 17.8219C41.8707 17.8219 34.6565 17.8219 27.4515 17.8219C26.6815 17.8219 26.3424 18.1781 26.3424 18.9844C26.3424 23.2125 26.3424 27.45 26.3424 31.6781C26.3424 32.4656 26.6907 32.8125 27.4699 32.8219C28.5424 32.8313 29.6057 32.8219 30.6782 32.8219C31.5124 32.8219 31.8424 33.1594 31.8424 34.0219C31.8332 35.1375 31.8332 36.2625 31.8332 37.4812ZM9.8332 46.5188C9.8332 47.3625 9.8332 48.1594 9.8332 48.9469C9.8332 51 10.9424 52.125 12.959 52.125C18.8257 52.125 24.6832 52.125 30.5499 52.125C30.7515 52.125 30.944 52.125 31.1457 52.1062C32.3557 51.9844 33.4007 51.1687 33.5565 49.9594C33.694 48.8344 33.584 47.6719 33.584 46.5094C25.7007 46.5188 17.799 46.5188 9.8332 46.5188ZM10.044 9.72188C17.8632 9.72188 25.6549 9.72188 33.4557 9.72188C33.089 8.625 32.1265 7.88438 30.9715 7.88438C24.8207 7.875 18.6699 7.875 12.519 7.875C12.4732 7.875 12.4274 7.875 12.3815 7.88438C11.2999 7.96875 10.374 8.69063 10.044 9.72188Z" fill="#00B884"/>
<path d="M40.1292 21.5625C41.8708 21.5625 43.6125 21.5531 45.3542 21.5719C45.6292 21.5719 45.95 21.6469 46.1608 21.8156C46.7108 22.2375 46.5458 23.1281 45.895 23.3625C45.7025 23.4281 45.4733 23.4375 45.2625 23.4375C41.8067 23.4375 38.36 23.4375 34.9042 23.4375C34.7942 23.4375 34.6933 23.4469 34.5833 23.4281C34.0517 23.3812 33.6758 22.9875 33.6758 22.4906C33.6758 21.9937 34.0517 21.5906 34.5833 21.5625C35.1058 21.5344 35.6192 21.5531 36.1417 21.5531C37.4708 21.5625 38.8 21.5625 40.1292 21.5625Z" fill="#00B884"/>
<path d="M40.1292 27.1875C41.8708 27.1875 43.6125 27.1781 45.3542 27.1969C45.6292 27.1969 45.95 27.2719 46.1608 27.4406C46.7108 27.8625 46.5458 28.7531 45.895 28.9875C45.7025 29.0531 45.4733 29.0625 45.2625 29.0625C41.8067 29.0625 38.36 29.0625 34.9042 29.0625C34.7942 29.0625 34.6933 29.0719 34.5833 29.0531C34.0517 29.0063 33.6758 28.6125 33.6758 28.125C33.6758 27.6281 34.0517 27.225 34.5833 27.1969C35.1058 27.1688 35.6192 27.1875 36.1417 27.1875C37.4708 27.1875 38.8 27.1875 40.1292 27.1875Z" fill="#00B884"/>
<path d="M31.8242 22.5094C31.8242 22.9969 31.3842 23.4375 30.9075 23.4375C30.4308 23.4375 30 22.9969 30 22.5C30 22.0125 30.4308 21.5719 30.9167 21.5719C31.4025 21.5719 31.8333 22.0125 31.8242 22.5094Z" fill="#00B884"/>
<path d="M30.935 27.1969C31.4208 27.2063 31.8425 27.6563 31.8242 28.1438C31.815 28.6406 31.375 29.0719 30.8983 29.0531C30.4125 29.0438 29.9908 28.5938 30.0092 28.1063C30.0183 27.6188 30.4492 27.1875 30.935 27.1969Z" fill="#00B884"/>
<path d="M23.5833 50.25C23.015 50.25 22.4558 50.2594 21.8875 50.25C21.255 50.2406 20.8425 49.8562 20.8425 49.3125C20.8425 48.7687 21.2642 48.3844 21.8875 48.375C23.015 48.3656 24.1517 48.3656 25.2792 48.375C25.9117 48.3844 26.3242 48.7687 26.3242 49.3125C26.3242 49.8562 25.9025 50.2406 25.2792 50.25C24.7108 50.2594 24.1517 50.25 23.5833 50.25Z" fill="#00B884"/>
<path d="M18.9908 49.2937C19 49.7812 18.5783 50.2312 18.0925 50.2406C17.6158 50.25 17.1758 49.8188 17.1667 49.3219C17.1575 48.8344 17.5792 48.3844 18.065 48.375C18.5508 48.375 18.9817 48.8062 18.9908 49.2937Z" fill="#00B884"/>
</g>
<defs>
<clipPath id="clip0_1_2">
<rect width="44" height="48" fill="white" transform="translate(8 6)"/>
</clipPath>
</defs>
</svg>
