<svg width="60" height="60" viewBox="0 0 60 60" fill="none" xmlns="http://www.w3.org/2000/svg">
<rect width="60" height="60" fill="white"/>
<g clip-path="url(#clip0_3_91)">
<path d="M32.1545 6C33.2317 6.1502 34.3215 6.26284 35.3862 6.47562C38.38 7.05137 41.1357 8.2279 43.6785 9.9176C44.2296 10.2806 44.3674 10.8063 44.0668 11.2694C43.7537 11.7575 43.2025 11.8451 42.6388 11.4696C39.9582 9.69231 37.0271 8.52829 33.8455 8.10274C27.858 7.30169 22.4217 8.691 17.6493 12.4209C13.215 15.8879 10.572 20.4563 9.67015 26.0136C9.62004 26.339 9.58246 26.6644 9.55741 26.9898C9.51983 27.3153 9.50731 27.6407 9.46973 28.0162C9.60752 27.9285 9.72025 27.8785 9.82046 27.8159C11.0605 27.0149 12.6013 27.1275 13.6534 28.1538C14.9311 29.393 16.1962 30.6446 17.4363 31.9338C18.6138 33.1478 18.6013 34.9752 17.4489 36.2018C17.1232 36.5523 16.7474 36.8652 16.3841 37.1906C18.1628 40.0193 20.3925 42.2472 23.2234 44.0245C23.524 43.6991 23.8121 43.3611 24.1127 43.0608C25.428 41.7716 27.2693 41.7716 28.5971 43.0608C29.7745 44.2248 30.9395 45.4013 32.1169 46.5653C33.1566 47.6042 33.3946 48.8057 32.8434 50.17C32.8184 50.2326 32.8058 50.2827 32.7933 50.3452C32.7933 50.3578 32.7933 50.3703 32.8184 50.4954C33.9833 50.2701 35.1733 50.145 36.2881 49.807C44.618 47.3163 49.8539 41.8342 51.6952 33.3481C52.9102 27.7533 51.7829 22.4714 48.7015 17.6276C48.6514 17.5525 48.6013 17.4649 48.5512 17.3898C48.2129 16.8391 48.2881 16.3009 48.739 15.988C49.215 15.6751 49.7912 15.8128 50.1294 16.401C50.8184 17.6151 51.5699 18.8167 52.1211 20.1059C56.8434 31.2203 52.4217 43.8618 41.7996 49.6443C38.5678 51.4091 35.0856 52.3103 31.4029 52.3979C31.0647 52.4104 30.8017 52.498 30.5261 52.7108C28.785 54.1001 26.8434 54.4256 24.8267 53.4618C16.1962 49.3439 10.0209 42.8855 6.27557 34.0866C6.17537 33.8488 6.08768 33.5984 6 33.3481C6 33.0102 6 32.6597 6 32.3218C6.21294 31.4581 6.68894 30.7697 7.34029 30.1815C7.49061 30.0438 7.57829 29.781 7.57829 29.5807C7.52818 26.0761 8.16701 22.7093 9.68267 19.5551C13.1399 12.3583 18.8142 7.94003 26.6681 6.37549C27.5574 6.20026 28.4593 6.12516 29.3486 6C30.2881 6 31.2276 6 32.1545 6ZM26.8184 52.0975C28.0084 52.0725 28.8225 51.7596 29.499 51.1212C29.9499 50.6957 30.3883 50.2451 30.8267 49.7945C31.4029 49.1937 31.4154 48.5179 30.8392 47.9296C29.6618 46.7405 28.4843 45.5515 27.2944 44.3875C26.7056 43.7992 26.0292 43.8117 25.428 44.4C24.9645 44.8506 24.5261 45.3137 24.0626 45.7518C23.6367 46.1648 23.261 46.2149 22.7474 45.9145C19.2777 43.8743 16.5219 41.1332 14.4802 37.6662C14.167 37.1405 14.2296 36.7651 14.6681 36.327C15.1065 35.8764 15.5574 35.4508 15.9958 35.0003C16.5971 34.3744 16.5971 33.7111 15.9833 33.0978C14.8309 31.9338 13.666 30.7697 12.501 29.6182C11.8747 28.9924 11.2109 28.9924 10.572 29.6182C9.80793 30.3567 9.06889 31.1202 8.31733 31.8712C7.86639 32.3218 7.76618 32.8099 8.0167 33.4107C11.5741 41.734 17.4238 47.842 25.5908 51.7471C26.0418 51.9598 26.5678 52.0349 26.8184 52.0975Z" fill="#FFC800"/>
<path d="M30.9144 34.1366C31.5282 34.8376 32.1169 35.4884 32.6806 36.1518C33.119 36.6649 33.1315 37.2282 32.6931 37.6037C32.2547 37.9791 31.7286 37.904 31.2651 37.3909C30.6263 36.6649 29.9875 35.939 29.2484 35.1004C29.2484 35.7638 29.2609 36.3145 29.2484 36.8652C29.2234 37.5911 28.5845 38.0292 27.9582 37.7664C27.5825 37.6037 27.382 37.3033 27.382 36.8902C27.382 34.412 27.3695 31.9338 27.382 29.4555C27.382 28.8673 27.7578 28.5168 28.3591 28.5043C28.9227 28.4918 29.4864 28.4918 30.0501 28.5043C31.5156 28.5293 32.7181 29.4931 32.9812 30.8574C33.2442 32.1841 32.5177 33.4482 31.1774 34.049C31.1023 34.0365 31.0397 34.0741 30.9144 34.1366ZM29.286 30.3567C29.286 31.0326 29.286 31.6584 29.286 32.3343C29.9123 32.3468 30.5637 32.497 30.952 31.8712C31.1023 31.6209 31.1399 31.1828 31.0271 30.92C30.6764 30.2065 29.9624 30.3317 29.286 30.3567Z" fill="#FFC800"/>
<path d="M34.5219 20.8193C34.5219 21.3325 34.5345 21.8456 34.5219 22.3588C34.4718 24.0485 33.1065 25.4253 31.453 25.4879C29.6618 25.5505 28.1587 24.3239 28.0334 22.5966C27.9457 21.4201 27.9583 20.2185 28.0334 19.042C28.1461 17.3523 29.6743 16.0756 31.3528 16.1382C33.0814 16.2008 34.4593 17.5525 34.5219 19.2798C34.5345 19.793 34.5219 20.3061 34.5219 20.8193ZM32.643 20.8443C32.643 20.3562 32.6555 19.8806 32.643 19.3924C32.618 18.6039 32.0418 18.0157 31.2902 18.0031C30.5637 17.9906 29.9123 18.5413 29.8873 19.2923C29.8497 20.3061 29.8372 21.32 29.8873 22.3338C29.9249 23.1223 30.5637 23.648 31.3403 23.623C32.0793 23.5979 32.643 23.0222 32.6555 22.2587C32.6555 21.7831 32.643 21.32 32.643 20.8443Z" fill="#FFC800"/>
<path d="M43.3779 30.3442C43.3779 30.995 43.3779 31.5833 43.3779 32.2216C43.9165 32.2216 44.4301 32.2091 44.9436 32.2216C45.5699 32.2342 45.9582 32.5971 45.9582 33.1478C45.9582 33.6986 45.5699 34.0741 44.9562 34.0866C44.4426 34.0991 43.929 34.0866 43.3904 34.0866C43.3904 34.7249 43.3904 35.3007 43.3904 35.964C43.9541 35.964 44.5177 35.964 45.0689 35.964C45.7704 35.964 46.1712 36.3145 46.1712 36.8902C46.1712 37.466 45.7578 37.8289 45.0689 37.8289C44.2547 37.8415 43.4405 37.8415 42.6388 37.8289C41.8622 37.8289 41.499 37.4785 41.499 36.7275C41.4864 34.3369 41.4864 31.9588 41.499 29.5682C41.499 28.8172 41.8497 28.4793 42.5887 28.4668C43.453 28.4542 44.3048 28.4542 45.1691 28.4668C45.7954 28.4793 46.1837 28.8297 46.1837 29.3804C46.1837 29.9312 45.8079 30.3066 45.1816 30.3317C44.5804 30.3567 44.0042 30.3442 43.3779 30.3442Z" fill="#FFC800"/>
<path d="M36.8017 32.2216C37.3528 32.2216 37.8664 32.2091 38.3799 32.2216C38.9687 32.2342 39.357 32.5846 39.382 33.1103C39.3946 33.6485 39.0062 34.049 38.405 34.0866C38.1419 34.0991 37.8789 34.0866 37.6033 34.0866C37.3403 34.0866 37.0772 34.0866 36.8017 34.0866C36.8017 34.7249 36.8017 35.3132 36.8017 35.964C37.3779 35.964 37.9415 35.964 38.4927 35.964C39.1941 35.964 39.5824 36.3145 39.5824 36.9027C39.5699 37.466 39.1816 37.8164 38.5177 37.8289C37.6785 37.8415 36.8267 37.8415 35.9875 37.8289C35.286 37.8164 34.9102 37.4535 34.9102 36.7525C34.8977 34.3494 34.8977 31.9463 34.9102 29.5432C34.9102 28.8172 35.2609 28.4668 35.9749 28.4668C36.8392 28.4542 37.691 28.4542 38.5553 28.4668C39.1941 28.4668 39.5824 28.8172 39.595 29.3554C39.6075 29.9186 39.2192 30.3066 38.5678 30.3317C37.9916 30.3442 37.4154 30.3317 36.8142 30.3317C36.8017 30.97 36.8017 31.5583 36.8017 32.2216Z" fill="#FFC800"/>
<path d="M22.7223 30.3442C22.7223 30.9575 22.7223 31.5082 22.7223 32.1465C23.2108 32.1465 23.7119 32.1465 24.2004 32.1465C24.8643 32.1465 25.3027 32.5345 25.2902 33.0978C25.2777 33.636 24.8518 34.0115 24.2004 34.024C23.7495 34.0365 23.2985 34.024 22.8476 34.0365C22.8225 34.0365 22.785 34.049 22.6973 34.0741C22.6973 34.8 22.6973 35.5385 22.6973 36.2769C22.6973 36.4897 22.7098 36.715 22.6973 36.9278C22.6597 37.4409 22.2839 37.8164 21.7954 37.8289C21.3445 37.8415 20.9311 37.5035 20.8434 37.0154C20.8184 36.8902 20.8309 36.7651 20.8309 36.6399C20.8309 34.2993 20.8309 31.9588 20.8309 29.6183C20.8309 28.8047 21.1566 28.4668 21.9582 28.4668C22.785 28.4668 23.6117 28.4668 24.4384 28.4668C25.1023 28.4668 25.5031 28.8172 25.5157 29.3804C25.5282 29.9562 25.1148 30.3317 24.4259 30.3442C23.8622 30.3442 23.3111 30.3442 22.7223 30.3442Z" fill="#FFC800"/>
<path d="M24.5762 18.0031C24.5762 19.4175 24.5762 20.7567 24.5762 22.096C24.5762 22.8469 24.5762 23.5979 24.5762 24.3489C24.5762 25.0873 24.2505 25.5004 23.6493 25.5004C23.0605 25.5004 22.6973 25.0873 22.6973 24.3614C22.6973 22.4214 22.6973 20.4939 22.6973 18.5538C22.6973 18.3911 22.6973 18.2159 22.6973 18.0031C22.3465 18.0031 22.0584 18.0156 21.7703 18.0031C21.2317 17.9781 20.8434 17.5901 20.8434 17.0894C20.8434 16.6138 21.2067 16.1632 21.7202 16.1632C23.0104 16.1382 24.3131 16.1382 25.6033 16.1632C26.142 16.1757 26.4802 16.6263 26.4551 17.152C26.4301 17.6527 26.0668 17.9906 25.5282 18.0156C25.2275 18.0156 24.9269 18.0031 24.5762 18.0031Z" fill="#FFC800"/>
<path d="M44.6555 23.5479C45.0939 23.5479 45.4822 23.5353 45.8705 23.5479C46.5219 23.5604 46.9353 23.9233 46.9353 24.4866C46.9353 25.0373 46.5219 25.4128 45.8705 25.4253C45.1816 25.4378 44.4927 25.4378 43.8163 25.4253C43.1524 25.4128 42.7891 25.0748 42.7891 24.4115C42.7766 22.0209 42.7766 19.6428 42.7891 17.2522C42.7891 16.6138 43.19 16.2008 43.7536 16.2133C44.3048 16.2258 44.6555 16.6263 44.668 17.2897C44.668 19.1922 44.668 21.0947 44.668 22.9971C44.6555 23.1598 44.6555 23.3351 44.6555 23.5479Z" fill="#FFC800"/>
<path d="M38.4927 23.5478C38.9436 23.5478 39.3194 23.5353 39.7077 23.5478C40.3466 23.5604 40.7724 23.9484 40.7599 24.4991C40.7474 25.0248 40.3466 25.4003 39.7328 25.4128C39.0313 25.4253 38.3299 25.4253 37.6284 25.4128C36.977 25.4003 36.6263 25.0748 36.6263 24.424C36.6138 22.0209 36.6138 19.6177 36.6263 17.2146C36.6263 16.6013 37.0271 16.2008 37.5658 16.2133C38.1044 16.2133 38.4802 16.6138 38.4927 17.2396C38.5052 19.1421 38.4927 21.0446 38.4927 22.9471C38.4927 23.1348 38.4927 23.3226 38.4927 23.5478Z" fill="#FFC800"/>
<path d="M47.4614 13.4472C47.4739 13.9604 47.0731 14.3859 46.5721 14.3984C46.0585 14.4235 45.6075 13.9729 45.6075 13.4597C45.6075 12.9591 46.0209 12.546 46.5345 12.546C47.048 12.546 47.4489 12.934 47.4614 13.4472Z" fill="#FFC800"/>
</g>
<defs>
<clipPath id="clip0_3_91">
<rect width="48" height="48" fill="white" transform="translate(6 6)"/>
</clipPath>
</defs>
</svg>
