<svg width="60" height="60" viewBox="0 0 60 60" fill="none" xmlns="http://www.w3.org/2000/svg">
<rect width="60" height="60" fill="white"/>
<g clip-path="url(#clip0_2_52)">
<path d="M54 28.4323C53.8425 29.3638 53.7406 30.3045 53.5367 31.2268C51.9058 38.4205 46.0217 43.9541 38.6919 45.1253C37.1908 45.3651 35.6433 45.3375 34.1143 45.402C33.7993 45.4112 33.6232 45.4942 33.4749 45.7894C32.7985 47.1728 32.085 48.5377 31.4178 49.9211C31.1213 50.539 30.7321 51.0094 29.9815 51.0002C29.2402 50.991 28.8603 50.5114 28.5638 49.9027C27.8873 48.5193 27.1831 47.1543 26.5066 45.7709C26.3676 45.4942 26.2101 45.3928 25.9043 45.402C23.634 45.4666 21.3638 45.3651 19.1861 44.655C12.1344 42.3678 7.668 37.6458 6.3151 30.3783C4.79541 22.2347 8.86337 14.5522 16.3228 10.8632C18.7043 9.68265 21.2433 9.05551 23.9027 9.02784C27.9151 8.99095 31.9367 8.97251 35.9491 9.02784C44.7429 9.13852 52.2394 15.5483 53.7313 24.1715C53.8332 24.7801 53.9166 25.3981 54 26.0068C54 26.8091 54 27.6207 54 28.4323ZM30 46.4811C30.5097 45.4574 30.9823 44.572 31.4085 43.6589C31.7514 42.9211 32.2888 42.6168 33.1043 42.6076C34.7908 42.5891 36.4958 42.6444 38.1545 42.3954C46.3275 41.1412 52.0263 33.597 51.0811 25.4165C50.2101 17.8632 43.6495 11.9238 36.0232 11.8315C32.0109 11.7854 27.9892 11.8131 23.9769 11.8315C22.4665 11.8408 20.9931 12.1082 19.5661 12.5786C12.0788 15.041 7.7236 22.3085 9.07649 30.0371C10.0958 35.8473 14.8587 40.8184 20.6317 42.1649C22.624 42.626 24.6255 42.6537 26.6363 42.5983C27.6464 42.5707 28.2858 42.9211 28.6842 43.8526C29.0549 44.7103 29.5182 45.5404 30 46.4811Z" fill="#668BFF"/>
<path d="M25.7745 27.2609C25.7745 29.9631 25.7653 32.6746 25.7838 35.3768C25.7838 36.0593 25.5707 36.6127 24.922 36.8893C24.2456 37.1845 23.6896 36.9262 23.1985 36.4282C21.6232 34.8511 20.0386 33.2833 18.4726 31.7062C18.2595 31.4849 18.0371 31.4018 17.7406 31.4111C16.2579 31.4203 14.7753 31.4203 13.2927 31.4203C12.2919 31.4203 11.7267 30.8485 11.7267 29.8524C11.7267 28.1001 11.7267 26.3386 11.7267 24.5863C11.7267 23.5903 12.2919 23.0277 13.2927 23.0277C14.7938 23.0277 16.295 23.0369 17.7869 23.0184C18.0093 23.0184 18.2687 22.9078 18.4263 22.751C20.0479 21.1555 21.6602 19.5507 23.2726 17.946C23.8379 17.3926 24.4587 17.2727 25.0518 17.614C25.5799 17.9091 25.7838 18.3887 25.7838 18.9789C25.7745 21.7273 25.7745 24.4941 25.7745 27.2609ZM22.939 22.2253C22.0031 23.166 21.1228 24.0329 20.2518 24.9183C20.1684 25.0013 20.1591 25.1766 20.1591 25.3057C20.1498 26.5784 20.1498 27.8511 20.1684 29.1239C20.1684 29.2991 20.261 29.5204 20.3907 29.6403C21.1506 30.4242 21.929 31.1897 22.7073 31.9552C22.7722 32.0198 22.8649 32.0659 22.9575 32.1304C22.939 28.8379 22.939 25.5823 22.939 22.2253ZM14.5622 25.8406C14.5622 26.7813 14.5622 27.6943 14.5622 28.5797C15.5073 28.5797 16.4155 28.5797 17.3143 28.5797C17.3143 27.6482 17.3143 26.7536 17.3143 25.8406C16.3877 25.8406 15.4888 25.8406 14.5622 25.8406Z" fill="#668BFF"/>
<path d="M37.0239 27.2147C37.0239 29.0132 37.0239 30.8208 37.0239 32.6192C37.0239 33.5692 36.468 34.2055 35.634 34.2147C34.7815 34.224 34.2162 33.5784 34.2162 32.6008C34.2162 28.9855 34.2162 25.361 34.2162 21.7457C34.2162 20.639 35.1614 19.9473 36.1344 20.3162C36.6996 20.5375 37.0332 21.0356 37.0332 21.7088C37.0332 23.5441 37.0239 25.3794 37.0239 27.2147Z" fill="#668BFF"/>
<path d="M42.6487 27.2609C42.6487 29.0501 42.6487 30.83 42.6487 32.6192C42.6487 33.5692 42.0834 34.2055 41.2494 34.2055C40.4154 34.2147 39.8409 33.5692 39.8317 32.6285C39.8317 29.0132 39.8317 25.3887 39.8317 21.7734C39.8317 20.8327 40.4154 20.1963 41.2494 20.2055C42.0649 20.2148 42.6394 20.8419 42.6394 21.7549C42.6579 23.5995 42.6487 25.4348 42.6487 27.2609Z" fill="#668BFF"/>
<path d="M31.3993 27.2609C31.3993 28.1462 31.4085 29.0316 31.3993 29.917C31.39 30.7839 30.8062 31.4111 30 31.4111C29.1939 31.4203 28.5915 30.7931 28.5823 29.9354C28.573 28.1186 28.573 26.3017 28.5823 24.4848C28.5823 23.6271 29.1939 23.0092 30 23.0092C30.7877 23.0184 31.3807 23.6271 31.39 24.4572C31.4085 25.3979 31.3993 26.3294 31.3993 27.2609Z" fill="#668BFF"/>
<path d="M48.2826 27.2332C48.2826 28.1186 48.2826 29.004 48.2826 29.8893C48.2734 30.7839 47.6896 31.4203 46.8741 31.4111C46.0587 31.4111 45.4749 30.7747 45.4749 29.8709C45.4749 28.1001 45.4749 26.3294 45.4749 24.5586C45.4749 23.6548 46.0494 23.0184 46.8649 23.0092C47.6989 23 48.2826 23.6364 48.2826 24.5679C48.2826 25.4625 48.2826 26.3478 48.2826 27.2332Z" fill="#668BFF"/>
</g>
<defs>
<clipPath id="clip0_2_52">
<rect width="48" height="42" fill="white" transform="translate(6 9)"/>
</clipPath>
</defs>
</svg>
