<svg width="24" height="25" viewBox="0 0 24 25" fill="none" xmlns="http://www.w3.org/2000/svg">
<g id="fluent:call-24-regular">
<path id="Vector" d="M7.05726 3.00082L8.22426 2.64982C8.86355 2.45704 9.55115 2.50345 10.1587 2.78038C10.7663 3.05731 11.2524 3.54584 11.5263 4.15482L12.4283 6.16082C12.6637 6.68462 12.7293 7.269 12.6158 7.83195C12.5022 8.39491 12.2153 8.90821 11.7953 9.29982L10.3003 10.6928C10.2566 10.7335 10.2289 10.7885 10.2223 10.8478C10.1783 11.2448 10.4473 12.0178 11.0683 13.0928C11.5183 13.8738 11.9273 14.4228 12.2743 14.7298C12.5173 14.9448 12.6503 14.9908 12.7073 14.9748L14.7173 14.3598C15.2662 14.1919 15.8539 14.2 16.398 14.3829C16.942 14.5658 17.4153 14.9144 17.7513 15.3798L19.0313 17.1558C19.4209 17.6958 19.6014 18.3588 19.5393 19.0218C19.4771 19.6848 19.1765 20.3027 18.6933 20.7608L17.8063 21.6008C17.336 22.0461 16.7585 22.3621 16.1299 22.5179C15.5013 22.6736 14.843 22.664 14.2193 22.4898C11.4653 21.7208 8.99626 19.3968 6.78426 15.5658C4.57026 11.7298 3.79226 8.42582 4.51026 5.65282C4.67144 5.02915 4.99055 4.45752 5.43684 3.99302C5.88312 3.52851 6.44054 3.1868 7.05726 3.00082ZM7.49026 4.43782C7.12015 4.54912 6.78495 4.75389 6.51697 5.03238C6.24899 5.31087 6.05726 5.6537 5.96026 6.02782C5.35826 8.35982 6.04726 11.2888 8.08326 14.8158C10.1173 18.3378 12.3063 20.3978 14.6233 21.0458C14.9975 21.1502 15.3925 21.1559 15.7696 21.0623C16.1467 20.9687 16.4932 20.7791 16.7753 20.5118L17.6613 19.6718C17.8811 19.4636 18.0178 19.1827 18.0462 18.8813C18.0745 18.5798 17.9924 18.2783 17.8153 18.0328L16.5353 16.2578C16.3825 16.046 16.1673 15.8874 15.9198 15.8042C15.6723 15.7209 15.4049 15.7173 15.1553 15.7938L13.1403 16.4108C11.9703 16.7588 10.9093 15.8178 9.76926 13.8428C9.00026 12.5128 8.64226 11.4828 8.73226 10.6818C8.77826 10.2658 8.97226 9.88182 9.27726 9.59582L10.7723 8.20282C10.9631 8.02471 11.0934 7.79133 11.1449 7.5354C11.1964 7.27948 11.1664 7.01386 11.0593 6.77582L10.1583 4.76982C10.0338 4.49301 9.8128 4.27095 9.5366 4.14509C9.26041 4.01923 8.94785 3.99816 8.65726 4.08582L7.49026 4.43782Z" fill="#FBD15B"/>
</g>
</svg>
