<svg width="189" height="150" viewBox="0 0 189 150" fill="none" xmlns="http://www.w3.org/2000/svg">
<g clip-path="url(#clip0_106_2180)">
<path d="M1.16237 29.9977C1.2919 25.8525 2.76855 21.7161 6.72353 19.8796C10.6785 18.0431 15.2898 18.1305 19.6765 18.1305C55.2023 18.7864 130.33 18.0518 165.856 18.7077C170.64 18.7952 175.691 20.2032 177.427 23.9548C180.018 29.6304 179.154 45.9489 178.921 52.8138C178.411 67.7593 179.275 122.775 178.765 137.721C178.334 150.174 170.493 148.547 162.635 148.547C126.055 148.547 52.5945 148.862 14.2018 147.848C10.4713 147.375 6.55944 146.3 4.11564 143.597C1.32643 140.502 1.11922 136.094 1.08468 132.045C0.955153 113.846 0.540627 49.7793 1.16237 29.9977Z" fill="white"/>
<path d="M167.47 149.142C166.702 149.142 165.907 149.142 165.113 149.142C164.318 149.142 163.498 149.142 162.66 149.142H143.663C105.08 149.194 46.7655 149.282 14.2103 148.416C9.35722 147.795 5.98081 146.361 3.84788 144.043C1.01548 140.904 0.739194 136.479 0.704652 132.211C0.704652 131.415 0.0483642 52.5778 0.756462 30.0415H1.17959H0.756462C0.911898 24.9431 2.97573 21.2176 6.56803 19.5473C10.6957 17.6409 15.497 17.7283 19.7283 17.7983C37.4912 18.1306 65.6079 18.1044 92.8092 18.0869C120.011 18.0694 148.136 18.0869 165.907 18.3754C168.757 18.4279 175.639 19.0663 177.85 23.8936C180.285 29.1932 179.75 43.4303 179.456 51.0823C179.456 51.7732 179.456 52.4116 179.387 52.98C179.137 60.4397 179.223 78.2185 179.309 95.4115C179.396 112.604 179.491 130.392 179.232 137.887C178.86 148.101 173.584 149.142 167.47 149.142ZM162.686 148.215C163.55 148.215 164.336 148.215 165.13 148.215C172.038 148.363 177.997 148.486 178.368 137.721C178.619 130.261 178.532 112.473 178.446 95.2803C178.359 78.0874 178.264 60.2997 178.524 52.8139C178.524 52.2454 178.524 51.607 178.593 50.9162C178.878 43.3429 179.456 29.2369 177.064 24.1298C175.052 19.7572 168.567 19.1538 165.838 19.1013C148.075 18.769 119.959 18.7952 92.7574 18.8127C65.556 18.8302 37.4307 18.8127 19.6592 18.5241C15.5229 18.4454 10.8252 18.358 6.87025 20.1944C2.44032 22.2408 1.63725 27.1906 1.5509 29.9278C0.842801 52.4553 1.49045 131.267 1.49909 132.062C1.49909 136.33 1.78407 140.405 4.42648 143.326C6.3867 145.495 9.60767 146.824 14.2276 147.436C46.7742 148.311 105.063 148.215 143.637 148.162H162.635L162.686 148.215Z" fill="black"/>
<path d="M178.619 34.729C159.103 34.729 123.923 34.5016 89.8995 34.3092C55.8762 34.1168 20.7045 33.9244 1.1886 33.8982C1.07409 33.8982 0.964249 33.8521 0.883277 33.7701C0.802305 33.6881 0.756836 33.5769 0.756836 33.4609C0.756836 33.345 0.802305 33.2338 0.883277 33.1518C0.964249 33.0698 1.07409 33.0237 1.1886 33.0237C20.7131 33.0237 55.8848 33.2511 89.908 33.4435C123.931 33.6359 159.103 33.8282 178.619 33.8632C178.675 33.862 178.73 33.8723 178.782 33.8934C178.834 33.9145 178.881 33.9461 178.921 33.9861C178.96 34.0261 178.991 34.0738 179.012 34.1264C179.033 34.1789 179.043 34.2351 179.042 34.2917C179.043 34.3487 179.033 34.4054 179.012 34.4584C178.992 34.5114 178.961 34.5597 178.921 34.6004C178.882 34.6411 178.835 34.6735 178.783 34.6956C178.731 34.7176 178.675 34.729 178.619 34.729Z" fill="black"/>
<g opacity="0.13">
<path d="M176.935 34.7026H177.03C176.835 34.7082 176.641 34.7316 176.451 34.7726C176.322 34.7726 176.192 34.8251 176.071 34.8513H175.959L175.268 34.8076C170.622 34.5015 165.942 34.7201 161.287 34.6239C156.236 34.5452 151.184 34.7901 146.141 34.5627C143.421 34.3266 140.692 34.3091 137.963 34.2916C135.235 34.2741 132.696 33.9418 130.053 33.9418C122.454 33.8456 114.855 34.1692 107.256 34.1779C104.665 34.108 102.144 33.7057 99.5879 33.6095C97.455 33.6095 35.3841 33.9943 33.2512 34.003C31.6709 34.003 30.0993 34.2916 28.5104 34.3441C26.2652 34.3965 24.0287 34.1342 21.7835 34.1167C18.0703 34.1167 14.3571 33.8019 10.6439 33.6794C8.84776 33.5045 7.04296 33.4608 5.23817 33.4083C4.12422 33.4083 2.71663 33.0323 1.7063 33.4083C1.31238 33.5772 0.988086 33.8785 0.788265 34.2615C0.588444 34.6445 0.525368 35.0857 0.609645 35.5103C0.693921 35.935 0.920398 36.3172 1.25081 36.5923C1.58123 36.8674 1.99531 37.0185 2.42305 37.0201C10.8252 37.3961 19.2447 37.3349 27.6468 37.8946C29.2789 37.9383 30.9024 37.6672 32.5345 37.5973C34.3306 37.5273 96.0647 37.16 97.8695 37.125C101.324 37.0113 104.683 37.6148 108.102 37.6672C114.492 37.6148 120.891 37.3874 127.281 37.3174C130.658 37.1425 134.017 37.4573 137.385 37.5885C140.899 37.641 144.397 37.9296 147.903 38.1657C152.635 38.3581 157.402 38.1657 162.099 38.1657C166.235 37.9821 173.42 38.1657 175.916 38.1045C176.209 38.1045 176.503 38.1045 176.779 38.1045C176.973 38.1482 177.173 38.1482 177.366 38.1045C177.812 38.0465 178.216 37.8117 178.491 37.4517C178.765 37.0917 178.887 36.636 178.83 36.1849C178.773 35.7338 178.541 35.3242 178.186 35.0462C177.83 34.7682 177.38 34.6446 176.935 34.7026Z" fill="black"/>
</g>
<path d="M36.3942 86.1679L35.0729 81.6554L37.8449 77.5977L31.0057 72.6917C30.1191 74.1783 29.2355 75.6679 28.3547 77.1604C28.3146 77.2434 28.2553 77.3153 28.1819 77.3703C28.0733 77.4285 27.9502 77.4529 27.828 77.4403L23.2598 77.3528C22.5086 75.8749 21.7745 74.4669 20.9542 73.1289C20.9316 73.0702 20.8967 73.0172 20.852 72.9734C20.8073 72.9297 20.7538 72.8962 20.6951 72.8753C20.6335 72.8687 20.5713 72.8746 20.512 72.8926C20.4527 72.9106 20.3975 72.9404 20.3497 72.9802L14.9181 76.3559C14.8657 76.3815 14.821 76.4207 14.7886 76.4695C14.7108 76.5832 14.7886 76.7494 14.849 76.8718C15.5285 78.1246 16.3422 79.2977 17.2755 80.3699C16.4938 81.8755 15.6289 83.3354 14.6849 84.7425C14.4921 85.0993 14.1886 85.382 13.8214 85.547C13.4973 85.6093 13.1624 85.579 12.8543 85.4596C11.5762 85.0835 10.3155 84.6638 9.07198 84.1915C8.00592 86.8209 7.80601 89.7284 8.50201 92.4819C8.60564 92.6918 13.3378 91.9922 13.3378 91.9922L16.1529 97.0556L13.8905 100.904L19.0717 104.821L21.7659 100.746L26.524 100.842L28.3633 105.145L35.4529 102.609L33.7259 98.2362L36.3165 93.9599L41.1263 93.5576L41.2818 87.4884L36.3942 86.1679ZM28.2079 88.4592C28.2038 88.7487 28.1328 89.0332 28.0006 89.2899C27.9352 89.4561 27.8572 89.6169 27.7675 89.7709C27.5821 90.0601 27.3616 90.3245 27.1112 90.558C26.6136 91.0358 26.0262 91.4075 25.3841 91.6511C25.1176 91.7467 24.8431 91.8169 24.5638 91.861C24.3311 91.9104 24.0926 91.9251 23.8557 91.9048C23.7046 91.8723 23.5518 91.8489 23.398 91.8348C23.8211 91.8348 23.398 91.8348 23.1994 91.8348C22.4282 91.5841 21.7819 91.0423 21.3946 90.3219C21.1563 89.9073 21.0118 89.4443 20.9714 88.9664C20.9676 88.5307 21.0529 88.099 21.2219 87.6983C21.4553 87.1283 21.7446 86.5833 22.0854 86.0717C22.4446 85.4645 22.9496 84.9591 23.5534 84.6026C23.8377 84.4444 24.1525 84.3507 24.4761 84.3281C24.7996 84.3054 25.1243 84.3543 25.4273 84.4714C25.5445 84.4088 25.6728 84.3704 25.8047 84.3584C25.9366 84.3464 26.0696 84.361 26.1959 84.4014C26.6319 84.5549 27.0194 84.8236 27.3184 85.1797C27.6086 85.5341 27.8365 85.9364 27.992 86.3691C28.051 86.5103 28.0972 86.6567 28.1302 86.8063L28.1819 87.0599L28.2338 87.471V87.3748C28.2338 87.2611 28.2338 87.2523 28.2338 87.3748L28.2856 87.7858C28.2899 87.8557 28.2899 87.9258 28.2856 87.9957C28.2774 88.1412 28.2513 88.2852 28.2079 88.4242V88.4592Z" fill="white"/>
<path d="M15.54 91.5375H15.4968C15.4617 91.5237 15.4327 91.4975 15.4152 91.4637C15.3977 91.43 15.393 91.3909 15.4018 91.3538C16.7575 86.5615 18.3551 81.7342 20.1599 77.1517C20.1654 77.1335 20.1748 77.1168 20.1874 77.1027C20.1999 77.0886 20.2153 77.0774 20.2326 77.0699C20.2498 77.0624 20.2685 77.0588 20.2872 77.0594C20.306 77.0599 20.3244 77.0645 20.3412 77.073C20.3583 77.0797 20.374 77.0899 20.3872 77.1028C20.4004 77.1157 20.4109 77.1312 20.4182 77.1483C20.4254 77.1654 20.4292 77.1838 20.4293 77.2024C20.4294 77.221 20.4259 77.2395 20.4189 77.2567C18.6228 81.8828 17.0252 86.6489 15.6781 91.4325C15.6703 91.4633 15.6524 91.4905 15.6273 91.5096C15.6021 91.5286 15.5713 91.5385 15.54 91.5375Z" fill="black"/>
<path d="M17.6217 92.3159C17.5856 92.3056 17.5549 92.2817 17.5356 92.2492C17.5163 92.2167 17.51 92.178 17.518 92.141C18.774 87.6087 20.4181 83.1961 22.4316 78.9533C22.452 78.9269 22.4807 78.9083 22.5129 78.9005C22.5451 78.8928 22.579 78.8962 22.609 78.9104C22.639 78.9246 22.6635 78.9487 22.6783 78.9787C22.6931 79.0087 22.6974 79.0429 22.6906 79.0757C20.6816 83.2943 19.0432 87.6838 17.7944 92.1934C17.7925 92.2137 17.7864 92.2332 17.7763 92.2508C17.7662 92.2684 17.7525 92.2835 17.736 92.2952C17.7196 92.3068 17.7009 92.3147 17.6811 92.3183C17.6614 92.3218 17.6411 92.321 17.6217 92.3159Z" fill="black"/>
<path d="M16.8784 101H16.8266C16.8087 100.994 16.7921 100.985 16.7782 100.972C16.7643 100.959 16.7532 100.944 16.7458 100.926C16.7384 100.909 16.7349 100.89 16.7354 100.871C16.7359 100.852 16.7405 100.833 16.7488 100.816L20.203 92.2284C20.2085 92.2102 20.2179 92.1935 20.2305 92.1794C20.243 92.1653 20.2585 92.1541 20.2757 92.1466C20.293 92.1391 20.3116 92.1355 20.3304 92.136C20.3491 92.1366 20.3675 92.1412 20.3843 92.1497C20.4175 92.165 20.4438 92.1923 20.4582 92.2263C20.4725 92.2602 20.474 92.2984 20.4621 92.3333L17.0079 100.921C16.9962 100.946 16.9777 100.966 16.9547 100.98C16.9317 100.994 16.9052 101.001 16.8784 101Z" fill="black"/>
<path d="M21.3607 99.1545H21.3089C21.2751 99.1375 21.2485 99.1086 21.2342 99.0732C21.2199 99.0378 21.2188 98.9983 21.2312 98.9622L23.1569 94.0299C23.1636 94.0126 23.1735 93.9967 23.1863 93.9834C23.1991 93.97 23.2143 93.9593 23.2312 93.952C23.2481 93.9446 23.2663 93.9408 23.2847 93.9407C23.303 93.9405 23.3212 93.9441 23.3382 93.9512C23.3714 93.9666 23.3977 93.9939 23.4121 94.0278C23.4265 94.0618 23.4278 94.0999 23.4159 94.1348L21.4989 99.0671C21.4869 99.0939 21.4675 99.1165 21.4429 99.132C21.4183 99.1476 21.3897 99.1554 21.3607 99.1545Z" fill="black"/>
<path d="M24.9612 82.8886C24.9435 82.8835 24.927 82.875 24.9127 82.8634C24.8983 82.8519 24.8863 82.8376 24.8775 82.8213C24.8686 82.805 24.8631 82.7871 24.8611 82.7686C24.8592 82.7501 24.8609 82.7314 24.8662 82.7136L25.7816 79.6791C25.7934 79.6442 25.8177 79.615 25.8496 79.5972C25.8815 79.5795 25.9188 79.5744 25.9542 79.5829C25.9729 79.5878 25.9904 79.5966 26.0055 79.6087C26.0206 79.6209 26.033 79.6361 26.0419 79.6534C26.0509 79.6707 26.0562 79.6897 26.0574 79.7092C26.0587 79.7287 26.0559 79.7482 26.0492 79.7665L25.1339 82.7923C25.129 82.8102 25.1205 82.8269 25.1091 82.8415C25.0976 82.8561 25.0835 82.8682 25.0674 82.8771C25.0513 82.8861 25.0337 82.8917 25.0154 82.8937C24.9972 82.8956 24.9787 82.8939 24.9612 82.8886Z" fill="black"/>
<path d="M28.58 83.6843H28.5281C28.4949 83.6689 28.4686 83.6416 28.4542 83.6077C28.4399 83.5737 28.4385 83.5356 28.4504 83.5007C29.3876 80.8959 30.4569 78.3418 31.6541 75.8486C31.662 75.832 31.6732 75.8171 31.6868 75.8048C31.7004 75.7925 31.7163 75.783 31.7336 75.7769C31.7508 75.7708 31.769 75.7682 31.7872 75.7693C31.8055 75.7703 31.8233 75.775 31.8397 75.7831C31.8562 75.7911 31.8709 75.8023 31.8831 75.8161C31.8952 75.8299 31.9046 75.846 31.9106 75.8635C31.9166 75.8809 31.9192 75.8994 31.9182 75.9179C31.9171 75.9364 31.9125 75.9544 31.9046 75.9711C30.7215 78.446 29.6507 81.0083 28.7094 83.5969C28.699 83.6229 28.6811 83.6452 28.658 83.6608C28.6349 83.6764 28.6077 83.6846 28.58 83.6843Z" fill="black"/>
<path d="M24.9523 99.1983H24.8919C24.8582 99.1813 24.8322 99.1518 24.8194 99.116C24.8065 99.0802 24.8077 99.0408 24.8228 99.0059L33.5617 79.8278C33.5822 79.8014 33.6109 79.7828 33.6431 79.775C33.6753 79.7673 33.7092 79.7708 33.7392 79.7849C33.7692 79.7991 33.7937 79.8232 33.8085 79.8532C33.8233 79.8832 33.8276 79.9174 33.8208 79.9502L25.0819 99.1283C25.0689 99.1511 25.05 99.1698 25.027 99.1822C25.0041 99.1946 24.9782 99.2001 24.9523 99.1983Z" fill="black"/>
<path d="M28.4503 99.9679H28.3898C28.3724 99.9604 28.3567 99.9493 28.3437 99.9354C28.3306 99.9214 28.3205 99.9049 28.314 99.8869C28.3076 99.8688 28.3048 99.8496 28.3059 99.8305C28.3071 99.8113 28.3122 99.7926 28.3208 99.7755L34.1929 86.7364C34.1995 86.7191 34.2095 86.7033 34.2223 86.6899C34.235 86.6765 34.2503 86.6658 34.2672 86.6585C34.2841 86.6512 34.3022 86.6474 34.3206 86.6472C34.339 86.6471 34.3572 86.6507 34.3742 86.6577C34.4078 86.6747 34.4337 86.7042 34.4466 86.74C34.4594 86.7758 34.4582 86.8152 34.4432 86.8501L28.5799 99.8979C28.567 99.9207 28.5479 99.9394 28.525 99.9517C28.5021 99.9641 28.4762 99.9697 28.4503 99.9679Z" fill="black"/>
<path d="M34.7021 93.444H34.6416C34.6249 93.4356 34.61 93.424 34.5979 93.4097C34.5857 93.3954 34.5766 93.3788 34.571 93.3608C34.5653 93.3429 34.5633 93.3239 34.5651 93.3051C34.5668 93.2864 34.5723 93.2681 34.5812 93.2516L37.1718 88.4068C37.189 88.3731 37.2186 88.3478 37.2542 88.3363C37.2899 88.3248 37.3285 88.3282 37.3618 88.3455C37.395 88.3629 37.42 88.393 37.4313 88.4291C37.4427 88.4651 37.4394 88.5043 37.4223 88.5379L34.8317 93.3828C34.8176 93.404 34.7981 93.4208 34.7753 93.4316C34.7524 93.4424 34.7272 93.4467 34.7021 93.444Z" fill="black"/>
<path d="M30.3758 102.618C30.3664 102.622 30.356 102.625 30.3455 102.625C30.335 102.625 30.3248 102.622 30.3154 102.618C30.2982 102.611 30.2825 102.601 30.2695 102.588C30.2565 102.575 30.2464 102.559 30.2399 102.542C30.2334 102.524 30.2306 102.506 30.2317 102.487C30.2328 102.468 30.2377 102.45 30.2462 102.434L31.412 100.003C31.4202 99.9858 31.4317 99.9708 31.4458 99.9584C31.4599 99.9461 31.4763 99.9369 31.4941 99.9311C31.5118 99.9254 31.5306 99.9234 31.5491 99.9252C31.5677 99.927 31.5857 99.9325 31.602 99.9416C31.6343 99.96 31.6589 99.9895 31.6716 100.025C31.6843 100.06 31.6841 100.099 31.6711 100.134L30.4967 102.556C30.4848 102.578 30.467 102.595 30.4455 102.606C30.4239 102.617 30.3997 102.621 30.3758 102.618Z" fill="black"/>
<path d="M10.6271 90.4182H10.5667C10.533 90.4012 10.507 90.3718 10.4942 90.336C10.4813 90.3002 10.4825 90.2607 10.4976 90.2258L12.0778 86.8502C12.0861 86.8333 12.0976 86.8182 12.1117 86.8059C12.1258 86.7936 12.1422 86.7843 12.16 86.7786C12.1777 86.7728 12.1964 86.7708 12.2149 86.7726C12.2335 86.7744 12.2514 86.78 12.2678 86.789C12.285 86.7955 12.3006 86.8057 12.3136 86.8188C12.3266 86.8319 12.3367 86.8477 12.3432 86.865C12.3497 86.8824 12.3526 86.9009 12.3515 86.9195C12.3504 86.938 12.3454 86.9561 12.3369 86.9726L10.7566 90.3482C10.7424 90.3698 10.7231 90.3875 10.7005 90.3997C10.6779 90.4119 10.6527 90.4182 10.6271 90.4182Z" fill="black"/>
<path d="M17.2928 77.694H17.2237C17.207 77.6857 17.1921 77.674 17.18 77.6597C17.1678 77.6454 17.1587 77.6288 17.153 77.6108C17.1474 77.5928 17.1453 77.5739 17.1471 77.5551C17.1489 77.5364 17.1544 77.5181 17.1633 77.5016L18.3377 75.3328C18.356 75.3003 18.3863 75.2765 18.422 75.2667C18.4576 75.2568 18.4956 75.2617 18.5276 75.2803C18.5597 75.2989 18.5832 75.3295 18.5929 75.3656C18.6026 75.4017 18.5978 75.4402 18.5794 75.4727L17.4137 77.6327C17.4011 77.6532 17.3831 77.6698 17.3618 77.6806C17.3404 77.6914 17.3165 77.696 17.2928 77.694Z" fill="black"/>
<g opacity="0.13">
<path d="M29.607 89.36C29.5846 89.2018 29.5094 89.0561 29.3938 88.9472C29.2782 88.8383 29.1293 88.7727 28.9718 88.7615C28.8144 88.7503 28.6578 88.794 28.5283 88.8854C28.3987 88.9768 28.3041 89.1103 28.26 89.2638C28.0355 89.9809 28.1218 89.8498 27.3965 90.5931C26.6797 91.179 26.9387 91.0041 25.8248 91.4239C25.3614 91.6528 24.8426 91.7409 24.3309 91.6775C24.2106 91.6547 24.0922 91.6225 23.9768 91.5813C23.5826 91.4533 23.2078 91.2709 22.8628 91.0391C22.5261 90.8642 22.2238 90.5406 21.8352 90.5144C21.5764 90.4912 21.3174 90.5569 21.0999 90.701C20.8825 90.845 20.7192 91.059 20.6364 91.3084C20.5537 91.5579 20.5562 91.8283 20.6437 92.0761C20.7311 92.3239 20.8984 92.5346 21.1185 92.6744C22.9751 93.9862 24.8404 94.5809 26.9647 93.4965C28.0564 92.8615 28.8729 91.8348 29.253 90.6193C29.4689 90.2344 29.5903 89.8025 29.607 89.36Z" fill="black"/>
</g>
<g opacity="0.13">
<path d="M32.8024 101.542C32.0838 101.866 31.3259 102.093 30.5485 102.215C29.9268 102.416 29.1756 102.311 28.6402 102.731C28.4151 102.92 28.2589 103.179 28.1968 103.468C28.1347 103.757 28.1703 104.059 28.2977 104.325C28.4251 104.591 28.6371 104.806 28.8996 104.936C29.1621 105.066 29.46 105.102 29.7455 105.04C31.2999 104.699 33.0874 104.638 34.305 103.448C34.5038 103.232 34.6192 102.95 34.6303 102.655C34.6414 102.36 34.5473 102.07 34.3652 101.839C34.1831 101.608 33.9252 101.451 33.6384 101.396C33.3515 101.342 33.0548 101.393 32.8024 101.542Z" fill="black"/>
</g>
<g opacity="0.13">
<path d="M41.636 91.1001C41.6386 90.8314 41.5731 90.5665 41.4459 90.3306C41.3146 90.1019 41.1219 89.9156 40.8902 89.7934C40.6585 89.6711 40.3974 89.6179 40.137 89.6398C39.8767 89.6618 39.6278 89.7581 39.4193 89.9175C39.2108 90.0769 39.0512 90.2929 38.959 90.5405L38.8726 90.7153C38.7765 90.9258 38.693 91.1419 38.6223 91.3625L38.3977 91.8872C38.2612 92.1232 38.1897 92.392 38.1905 92.6655C38.1767 93.0358 38.2991 93.3981 38.534 93.6821C38.769 93.9662 39.0997 94.1518 39.4621 94.203C39.8245 94.2542 40.1927 94.1673 40.4954 93.9592C40.7982 93.751 41.0138 93.4365 41.1006 93.0766C41.3472 92.52 41.5157 91.9313 41.6014 91.3275C41.6187 91.275 41.6274 91.1876 41.636 91.1001Z" fill="black"/>
</g>
<path d="M28.2772 105.547C28.192 105.547 28.1089 105.521 28.0382 105.473C27.9675 105.424 27.9124 105.356 27.88 105.276C27.3874 103.885 26.7658 102.544 26.0234 101.271C24.5208 101.425 23.0059 101.407 21.5072 101.219C21.0754 102.006 20.6436 102.81 20.2205 103.658L19.4606 105.119C19.4108 105.213 19.329 105.285 19.2304 105.322C19.1319 105.359 19.0233 105.358 18.9252 105.32C16.6721 104.428 14.6912 102.95 13.1827 101.035C13.1273 100.961 13.0975 100.87 13.0975 100.777C13.0975 100.684 13.1273 100.593 13.1827 100.519C13.9685 99.3908 14.7889 98.2276 15.6611 96.8022C14.6376 95.4076 13.7904 93.8887 13.1395 92.281L12.0429 92.5083C10.9375 92.7532 9.78904 92.998 8.58873 93.1729C8.48646 93.1871 8.38257 93.1629 8.29668 93.1049C8.2108 93.0469 8.14882 92.9592 8.12238 92.8581C7.44062 89.9149 7.64514 86.8324 8.70958 84.008C8.73967 83.9039 8.80924 83.816 8.90307 83.7635C8.9969 83.7111 9.10739 83.6984 9.21045 83.7282L14.1326 84.9787C14.8542 83.4699 15.6705 82.0093 16.5764 80.6062C15.6812 79.4212 14.8703 78.1734 14.1499 76.872C14.1038 76.7875 14.0873 76.6896 14.1029 76.5944C14.1186 76.4992 14.1656 76.4121 14.2362 76.3473C16.1267 74.6501 18.2759 73.2739 20.6005 72.272C20.6976 72.2299 20.8067 72.2253 20.9069 72.2592C21.0072 72.293 21.0917 72.3629 21.1445 72.4557C21.936 73.8868 22.6425 75.3644 23.2602 76.8807C24.8962 76.6172 26.558 76.5585 28.2082 76.7058C28.9422 75.2716 29.7107 73.7937 30.6692 72.2458C30.7249 72.1539 30.8133 72.0872 30.9162 72.0595C31.0191 72.0318 31.1286 72.0453 31.2219 72.0971C33.074 73.0784 34.8119 74.2664 36.4031 75.6389C36.8349 76.015 37.2666 76.3997 37.6725 76.7758C37.9184 76.9563 38.1025 77.2101 38.1992 77.5016C38.2155 77.5594 38.2186 77.6201 38.2081 77.6792C38.1976 77.7384 38.1739 77.7943 38.1388 77.8427C37.7762 78.4024 37.4048 78.9533 37.0162 79.513C36.4894 80.2913 35.9369 81.0871 35.3669 81.9704C35.8591 83.2122 36.3599 84.4803 36.8176 85.7658C38.5247 85.8986 40.2019 86.2937 41.7916 86.9376C41.8655 86.969 41.9291 87.0211 41.975 87.0876C42.0209 87.1542 42.0471 87.2326 42.0507 87.3137C42.2167 89.6278 41.8898 91.9511 41.0922 94.1262C41.0609 94.2104 41.0037 94.2822 40.9291 94.331C40.8545 94.3798 40.7663 94.403 40.6777 94.3973H40.1422C38.8626 94.3143 37.5791 94.3143 36.2995 94.3973C35.6876 95.8369 34.8701 97.1776 33.873 98.3763C34.6568 99.7337 35.3575 101.138 35.9714 102.583C36.0098 102.681 36.0118 102.79 35.9768 102.89C35.9419 102.99 35.8725 103.073 35.7814 103.125C33.4844 104.423 30.9584 105.252 28.3464 105.565L28.2772 105.547ZM26.2393 100.379C26.3094 100.379 26.3785 100.396 26.4403 100.43C26.5021 100.463 26.5547 100.512 26.5934 100.571C27.3781 101.861 28.0347 103.226 28.5536 104.647C30.8124 104.341 32.9978 103.624 35.0042 102.53C34.3985 101.158 33.7181 99.8209 32.9663 98.525C32.918 98.4527 32.8922 98.3674 32.8922 98.2801C32.8922 98.1928 32.918 98.1076 32.9663 98.0353C34.057 96.7872 34.9328 95.3623 35.5569 93.8201C35.5844 93.7456 35.6324 93.6805 35.6951 93.6325C35.7578 93.5845 35.8326 93.5555 35.911 93.549C37.3139 93.4491 38.7221 93.4491 40.125 93.549H40.3495C41.0153 91.6603 41.3087 89.6578 41.2131 87.6548C39.6897 87.071 38.089 86.7203 36.4636 86.6141C36.3821 86.6067 36.3044 86.5755 36.2401 86.5242C36.1757 86.473 36.1273 86.404 36.1009 86.3255C35.6001 84.9088 35.0388 83.4833 34.4947 82.1016C34.463 82.041 34.4464 81.9734 34.4464 81.9048C34.4464 81.8362 34.463 81.7687 34.4947 81.7081C35.1165 80.7373 35.7036 79.8716 36.2736 79.0408C36.6104 78.5598 36.9299 78.0788 37.2494 77.6066L37.0594 77.4317C36.6536 77.0556 36.1959 76.6796 35.8073 76.3123C34.3565 75.0666 32.7822 73.9764 31.1097 73.0591C30.2461 74.5458 29.4776 75.98 28.7695 77.3704C28.7285 77.4465 28.667 77.5092 28.592 77.551C28.517 77.5929 28.4318 77.6122 28.3464 77.6066C26.5643 77.4151 24.7643 77.4829 23.0011 77.8077C22.9056 77.8232 22.8077 77.8058 22.7231 77.7582C22.6386 77.7106 22.5722 77.6357 22.5348 77.5454C21.9467 76.0702 21.2749 74.6306 20.5227 73.234C18.5201 74.1224 16.6556 75.3007 14.9875 76.7321C15.7019 77.9722 16.4951 79.1641 17.3622 80.3001C17.4105 80.3724 17.4363 80.4577 17.4363 80.5449C17.4363 80.6322 17.4105 80.7175 17.3622 80.7898C16.3515 82.3378 15.4512 83.9569 14.668 85.6346C14.6297 85.7273 14.5598 85.803 14.471 85.8479C14.3823 85.8928 14.2806 85.904 14.1844 85.8795C12.4573 85.4597 10.8684 85.005 9.30542 84.6377C8.44523 87.0769 8.2601 89.7079 8.77004 92.246C9.83218 92.0798 10.8426 91.8612 11.827 91.6513L13.2777 91.3452C13.3745 91.3276 13.4744 91.344 13.5608 91.3917C13.6472 91.4394 13.7148 91.5156 13.7526 91.6076C14.4261 93.3549 15.3388 94.9976 16.4642 96.4874C16.5143 96.5606 16.5412 96.6475 16.5412 96.7366C16.5412 96.8257 16.5143 96.9127 16.4642 96.9858C15.6006 98.4288 14.7371 99.6094 13.9772 100.729C15.2853 102.31 16.9457 103.554 18.8216 104.358L19.4692 103.291C19.9528 102.355 20.4105 101.463 20.9027 100.589C20.9415 100.516 21.0007 100.456 21.073 100.417C21.1452 100.378 21.2272 100.362 21.3086 100.37C22.9239 100.591 24.56 100.605 26.1789 100.414L26.2393 100.379Z" fill="black"/>
<path d="M24.055 91.9222C23.4187 91.9225 22.7893 91.7885 22.207 91.5287C21.7693 91.3443 21.39 91.0418 21.1104 90.6541C20.8361 90.2101 20.684 89.6998 20.6699 89.1762C20.5155 87.7451 20.8875 86.3066 21.7148 85.1359C22.1483 84.5428 22.7496 84.0971 23.4391 83.8581C24.1285 83.6192 24.8733 83.5982 25.5748 83.7979C25.6538 83.8269 25.723 83.8785 25.7735 83.9466H25.8339C26.5385 84.2135 27.1512 84.6821 27.5974 85.2955C28.0436 85.9088 28.304 86.6404 28.3468 87.4009C28.3725 88.1559 28.2047 88.9048 27.8597 89.5745C27.5146 90.2443 27.0041 90.8121 26.3779 91.2226C25.6838 91.6721 24.8788 91.9145 24.055 91.9222ZM24.6249 84.5325C24.189 84.5459 23.7614 84.6572 23.3731 84.8584C22.9848 85.0595 22.6455 85.3455 22.3797 85.6957C21.6841 86.6946 21.3766 87.9183 21.5162 89.1325C21.5262 89.5032 21.6239 89.8661 21.8012 90.1906C21.9973 90.4402 22.2571 90.6308 22.5524 90.7416C23.0895 90.9878 23.6779 91.0974 24.2663 91.0609C24.8548 91.0243 25.4255 90.8426 25.9288 90.5317C26.4242 90.2039 26.8282 89.7526 27.1019 89.2212C27.3755 88.6899 27.5099 88.0962 27.4919 87.4972C27.4596 86.9073 27.2599 86.3394 26.9168 85.8616C26.5736 85.3839 26.1017 85.0165 25.5576 84.8036H25.4367C25.2992 84.7712 25.1717 84.7052 25.0653 84.6113C24.9308 84.5586 24.7922 84.5176 24.6508 84.4888L24.6249 84.5325ZM25.4367 84.2352L25.5316 84.655L25.4367 84.2352Z" fill="black"/>
<path d="M154.863 92.1759L177.314 91.861C179.706 91.861 182.202 91.7649 184.3 90.558C185.412 89.9079 186.335 88.9719 186.975 87.8448C187.615 86.7176 187.949 85.4393 187.945 84.1391C187.919 82.8428 187.5 81.5859 186.745 80.5392C185.989 79.4925 184.934 78.7067 183.722 78.2886C182.499 77.9742 181.205 78.1179 180.078 78.6932C178.952 79.2685 178.068 80.2366 177.591 81.4193C177.703 76.8893 173.912 72.5692 169.62 72.6042C165.329 72.6392 161.52 77.2741 162.349 81.7254C161.932 80.7292 161.19 79.908 160.247 79.3988C159.304 78.8895 158.218 78.723 157.168 78.927C156.132 79.178 155.158 79.6401 154.304 80.2851C153.45 80.9302 152.735 81.7445 152.203 82.6786C151.154 84.212 150.666 86.0673 150.821 87.9257C151.123 89.7272 152.298 92.2109 154.863 92.1759Z" fill="white"/>
<path d="M154.802 92.6044C152.212 92.6044 150.761 90.2782 150.485 87.952C150.328 86.0039 150.841 84.0609 151.935 82.4513C152.497 81.4662 153.251 80.6079 154.153 79.9296C155.055 79.2512 156.084 78.7672 157.177 78.5072C158.026 78.3601 158.898 78.4249 159.716 78.6962C160.535 78.9674 161.276 79.4369 161.875 80.0639C161.993 78.2719 162.674 76.5651 163.818 75.1928C164.515 74.287 165.4 73.5467 166.41 73.024C167.42 72.5013 168.53 72.2088 169.664 72.167H169.716C170.78 72.1897 171.83 72.429 172.802 72.8707C173.773 73.3124 174.647 73.9474 175.372 74.7381C176.761 76.1661 177.668 78.0029 177.962 79.9852C178.645 79.0956 179.569 78.4262 180.62 78.0583C181.672 77.6903 182.807 77.6397 183.886 77.9126C185.189 78.3489 186.325 79.1857 187.136 80.3064C187.947 81.4271 188.393 82.776 188.411 84.1653C188.417 85.5433 188.063 86.8983 187.385 88.0931C186.707 89.288 185.73 90.2801 184.551 90.9691C182.315 92.2546 179.681 92.2896 177.366 92.3246L154.863 92.6394L154.802 92.6044ZM158.041 79.2943C157.797 79.2922 157.555 79.3127 157.315 79.3555C156.338 79.594 155.419 80.0329 154.615 80.6451C153.812 81.2572 153.141 82.0297 152.643 82.9148C151.654 84.3552 151.184 86.097 151.314 87.8471C151.495 89.2987 152.436 91.7474 154.768 91.7474H154.82L177.323 91.4326C179.534 91.4326 182.047 91.3626 184.102 90.1907C185.154 89.5822 186.027 88.7024 186.634 87.641C187.24 86.5795 187.559 85.3743 187.556 84.1478C187.534 82.9454 187.148 81.7787 186.45 80.8058C185.752 79.8329 184.776 79.1007 183.653 78.7084C182.532 78.4207 181.346 78.5524 180.313 79.0794C179.28 79.6064 178.47 80.4932 178.031 81.5768C178.01 81.6928 177.943 81.7952 177.847 81.8616C177.751 81.9281 177.632 81.953 177.518 81.931C177.403 81.9089 177.302 81.8417 177.236 81.7442C177.171 81.6466 177.146 81.5266 177.168 81.4106C177.181 80.2851 176.971 79.1683 176.552 78.126C176.132 77.0837 175.511 76.1369 174.724 75.3415C174.078 74.6336 173.297 74.0645 172.43 73.6679C171.562 73.2713 170.624 73.0553 169.672 73.0328C168.666 73.0737 167.682 73.3367 166.787 73.8035C165.892 74.2703 165.108 74.9295 164.491 75.735C163.804 76.5371 163.3 77.4827 163.015 78.5045C162.73 79.5263 162.671 80.5992 162.842 81.6467C162.872 81.7627 162.855 81.8859 162.795 81.9892C162.735 82.0926 162.637 82.1675 162.522 82.1977C162.408 82.2278 162.286 82.2107 162.184 82.15C162.082 82.0893 162.008 81.9901 161.978 81.8741C161.657 81.091 161.109 80.425 160.405 79.9644C159.702 79.5038 158.878 79.2701 158.041 79.2943Z" fill="black"/>
<g opacity="0.13">
<path d="M186.132 86.9814C185.937 87.051 185.764 87.1717 185.631 87.3312C185.449 87.4711 185.251 87.5935 185.061 87.7159C184.628 88.037 184.175 88.3291 183.705 88.5905L183.619 88.6342C182.656 88.9864 181.672 89.2784 180.674 89.5087C179.983 89.5961 177.574 89.5087 176.175 89.5787C173.187 89.6399 170.191 89.6486 167.203 89.7448C164.836 89.7086 162.471 89.8694 160.131 90.2258C157.126 90.4707 156.124 90.6018 153.896 89.6224L154 89.6661C153.534 89.3987 153.049 89.1677 152.549 88.9752C152.331 88.9546 152.113 89.0091 151.93 89.1299C151.747 89.2507 151.61 89.4308 151.541 89.6407C151.472 89.8506 151.475 90.078 151.55 90.2859C151.625 90.4938 151.767 90.6699 151.953 90.7855C153.129 91.4828 154.401 91.9986 155.727 92.3159C158.766 92.8406 161.771 91.8874 164.854 91.9836C165.925 91.9836 166.996 92.0448 168.066 91.9836C169.509 91.9224 170.951 91.8174 172.384 91.7912C174.387 91.7591 176.387 91.6249 178.377 91.3889C178.366 91.5127 178.383 91.6374 178.428 91.7534C178.472 91.8694 178.541 91.9736 178.631 92.0581C178.721 92.1425 178.829 92.2049 178.947 92.2405C179.065 92.2761 179.189 92.284 179.31 92.2634C181.054 92.069 182.741 91.5155 184.266 90.6368C184.612 90.4444 184.957 90.2433 185.303 90.0334C185.493 89.9022 185.743 89.8235 185.873 89.6049C186.001 89.4487 186.063 89.2475 186.045 89.0452C186.288 88.8878 186.516 88.7093 186.727 88.5118C186.846 88.4253 186.943 88.3126 187.012 88.1823C187.081 88.0519 187.119 87.9074 187.125 87.7597C187.123 87.6375 187.094 87.5173 187.04 87.408C186.986 87.2987 186.909 87.2031 186.813 87.1284C186.718 87.0536 186.607 87.0015 186.489 86.9761C186.371 86.9506 186.249 86.9524 186.132 86.9814Z" fill="black"/>
</g>
<path d="M97.5332 74.4321C99.9942 73.5576 102.792 73.1465 105.219 74.1522C105.554 74.2551 105.839 74.4792 106.022 74.7819C106.263 75.2978 105.892 75.8925 105.512 76.321C100.547 82.1103 92.4815 84.5327 84.8824 84.0867C83.1553 83.9905 80.9965 83.6495 79.7012 82.4776C79.8776 81.9635 80.1702 81.4981 80.5554 81.1186C80.9407 80.739 81.408 80.4558 81.9204 80.2913C84.8564 78.9621 95.0635 75.3678 97.5332 74.4321Z" fill="white"/>
<path d="M86.6778 84.6201C86.0733 84.6201 85.4689 84.6201 84.8558 84.5677C82.2652 84.419 80.5381 83.8593 79.381 82.8186C79.3209 82.7651 79.2757 82.6965 79.25 82.6198C79.2242 82.5431 79.2187 82.4609 79.2341 82.3814C79.4192 81.7929 79.7409 81.258 80.1721 80.8213C80.6033 80.3846 81.1315 80.0589 81.7125 79.8715C84.044 78.8046 90.771 76.3734 94.795 74.9305L97.3856 73.9948C99.4754 73.2252 102.567 72.5518 105.399 73.7237C105.843 73.8694 106.214 74.1826 106.435 74.5982C106.712 75.1841 106.513 75.8662 105.866 76.6271C101.505 81.708 94.441 84.6201 86.6778 84.6201ZM80.1927 82.3464C81.1857 83.1072 82.7315 83.5357 84.9076 83.6581C93.1026 84.1304 100.676 81.2882 105.175 76.0499C105.451 75.7351 105.745 75.289 105.615 75.0004C105.473 74.8074 105.273 74.6662 105.045 74.5982C102.455 73.5313 99.6308 74.1697 97.6792 74.8868L95.0886 75.8225C91.0818 77.2654 84.3636 79.6878 82.0752 80.7373C81.0044 81.227 80.4172 81.7167 80.1927 82.3464Z" fill="black"/>
<path d="M102.912 80.16C103.154 74.1258 101.669 68.013 102.912 62.1012C103.525 59.0754 104.829 56.2332 105.641 53.2424C106.453 50.2515 106.703 46.9459 105.304 44.1912C103.517 40.6931 99.4927 38.9441 95.6414 38.2357C91.79 37.5273 87.6364 37.6061 84.3205 39.6437C81.6403 41.3595 79.733 44.073 79.0097 47.1995C78.324 50.3088 78.583 53.5555 79.7524 56.5131C80.2187 57.7462 80.8231 58.9268 81.2981 60.1511C84.1909 67.5582 82.5157 75.8924 83.2324 83.763C83.2539 84.3334 83.3829 84.8944 83.6124 85.4158C83.948 85.9673 84.3882 86.4459 84.9077 86.8238C86.6348 88.2668 88.5518 89.7797 90.8056 90.0158C92.6722 90.1067 94.5175 89.582 96.0645 88.5203C99.0523 86.6751 102.757 84.0516 102.912 80.16Z" fill="white"/>
<path d="M99.4156 58.6906L107.187 7.86371C107.282 7.3368 107.272 6.79593 107.156 6.27326C107.041 5.75059 106.823 5.25677 106.515 4.82115C106.207 4.38552 105.816 4.01698 105.365 3.73742C104.914 3.45786 104.412 3.27299 103.889 3.19378L83.8806 0.570237C82.802 0.460621 81.7236 0.779685 80.8729 1.46009C80.0222 2.14049 79.4659 3.129 79.3213 4.21698L71.5495 55.0438C71.4545 55.5707 71.4651 56.1116 71.5807 56.6343C71.6962 57.1569 71.9143 57.6508 72.222 58.0864C72.5297 58.522 72.9208 58.8906 73.3719 59.1701C73.823 59.4497 74.325 59.6346 74.8481 59.7138L94.8562 62.3373C95.934 62.4425 97.01 62.1217 97.8597 61.4421C98.7094 60.7625 99.2669 59.7767 99.4156 58.6906Z" fill="#FBD15B"/>
<path d="M95.3395 62.8621C95.1582 62.8621 94.9768 62.8621 94.7955 62.8621L74.7875 60.2385C74.2281 60.1662 73.6888 59.9802 73.2021 59.6917C72.7154 59.4032 72.2912 59.0181 71.9551 58.5595C71.5841 58.0663 71.3162 57.5019 71.1677 56.9005C71.0193 56.299 70.9934 55.6733 71.0915 55.0614L78.8633 4.23455C79.0272 3.02979 79.6462 1.93639 80.59 1.18445C81.5338 0.432516 82.7289 0.0806909 83.9236 0.203036L103.932 2.82658C104.491 2.89891 105.03 3.08492 105.517 3.37345C106.004 3.66198 106.428 4.04707 106.764 4.50565C107.132 5.00025 107.399 5.56484 107.547 6.1658C107.695 6.76676 107.723 7.3918 107.628 8.00372L99.8558 58.8306C99.6916 59.9332 99.1487 60.9419 98.3227 61.6793C97.4967 62.4167 96.4403 62.8355 95.3395 62.8621ZM83.371 1.05132C82.4781 1.07766 81.6234 1.42315 80.958 2.02658C80.2926 2.63001 79.8595 3.45246 79.7355 4.34825L71.9637 55.1751C71.8831 55.6682 71.9019 56.1727 72.0192 56.6582C72.1364 57.1437 72.3496 57.6 72.6458 57.9998C72.9101 58.3606 73.2437 58.6637 73.6266 58.8906C74.0095 59.1175 74.4337 59.2637 74.8738 59.3203L94.8818 61.9439C95.8434 62.0363 96.8029 61.7483 97.5595 61.1402C98.3161 60.5322 98.811 59.6512 98.9405 58.6819L106.712 7.85505C106.792 7.36253 106.774 6.8588 106.658 6.37363C106.542 5.88847 106.332 5.43172 106.039 5.03037C105.774 4.66727 105.439 4.36228 105.055 4.13382C104.67 3.90536 104.244 3.75815 103.802 3.7011L83.7941 1.07755C83.6537 1.06004 83.5124 1.05128 83.371 1.05132Z" fill="black"/>
<path d="M100.037 54.6329L106.825 10.0326L78.9671 6.40332L72.1797 51.0036L100.037 54.6329Z" fill="white"/>
<path d="M100.037 55.0877H99.9767L72.145 51.4585C72.0857 51.4512 72.0284 51.4319 71.9765 51.4019C71.9246 51.3718 71.8791 51.3316 71.8428 51.2836C71.8061 51.2341 71.7794 51.1776 71.7646 51.1175C71.7497 51.0574 71.747 50.995 71.7565 50.9338L78.5438 6.33347C78.563 6.21731 78.6258 6.1132 78.7192 6.04306C78.8126 5.97292 78.9293 5.94222 79.0446 5.95742L106.911 9.57791C107.028 9.5949 107.133 9.65772 107.204 9.75281C107.241 9.80075 107.267 9.85572 107.282 9.91436C107.297 9.97299 107.3 10.0341 107.291 10.0939L100.503 54.6942C100.488 54.807 100.432 54.91 100.346 54.9828C100.26 55.0557 100.149 55.0931 100.037 55.0877ZM72.689 50.6189L99.6572 54.117L106.306 10.3912L79.3382 6.89316L72.689 50.6189Z" fill="black"/>
<path d="M87.8437 56.7667H87.7832L82.7661 56.1108C82.6483 56.0955 82.5412 56.0335 82.4683 55.9385C82.3955 55.8434 82.3628 55.723 82.3775 55.6036C82.3925 55.4842 82.4537 55.3758 82.5476 55.302C82.6415 55.2283 82.7605 55.1952 82.8784 55.21L87.8955 55.8659C87.9882 55.8983 88.0679 55.9605 88.1224 56.043C88.1769 56.1256 88.2033 56.224 88.1975 56.3231C88.1916 56.4222 88.1538 56.5167 88.0899 56.5921C88.0261 56.6674 87.9396 56.7195 87.8437 56.7404V56.7667Z" fill="black"/>
<g opacity="0.13">
<path d="M80.7802 6.7269C81.7387 6.82309 82.6972 6.89305 83.6471 7.02423C86.2377 7.33031 88.7678 7.66263 91.3152 8.03867C93.3273 8.31852 95.322 8.6858 97.36 8.782C99.847 9.00937 102.343 9.14931 104.795 9.58657C105.141 9.63904 105.486 9.68276 105.831 9.709C106.048 9.68106 106.267 9.7373 106.444 9.86641C107.308 10.4261 106.755 12.1751 105.745 12.0265C104.519 12.0265 103.336 11.7029 102.118 11.5805C100.685 11.3881 99.2252 11.3443 97.8004 11.1957C92.4292 10.5398 87.0494 9.86641 81.7041 9.05311C80.9874 8.97441 80.2793 8.86071 79.5712 8.75577C79.4169 8.7664 79.2623 8.74041 79.1197 8.67984C78.9771 8.61927 78.8505 8.52581 78.7498 8.4069C78.6492 8.28799 78.5774 8.14692 78.5401 7.99493C78.5028 7.84294 78.501 7.68423 78.535 7.53145C78.8372 6.14097 80.0116 6.67443 80.7802 6.7269Z" fill="black"/>
</g>
<g opacity="0.13">
<path d="M77.6366 38.0784C77.4121 37.9822 77.3258 37.9473 77.6366 38.0784V38.0784Z" fill="black"/>
</g>
<g opacity="0.13">
<path d="M87.3262 39.2327L87.5162 39.1453L87.3262 39.2327Z" fill="black"/>
</g>
<g opacity="0.13">
<path d="M87.2054 39.2935L87.3263 39.2327C87.2399 39.2848 87.1708 39.3195 87.2054 39.2935Z" fill="black"/>
</g>
<path d="M72.3354 46.0453C71.6359 45.3457 71.8173 46.1765 71.2992 45.3194C70.7355 44.4581 70.4796 43.4275 70.5738 42.3986C70.6265 41.8812 70.8142 41.3873 71.1177 40.9678C71.4213 40.5482 71.8297 40.218 72.3009 40.0111C73.4407 39.5826 74.6496 40.186 75.6772 40.8157C77.4597 41.8383 79.1102 43.0809 80.5908 44.5149C81.1262 45.0658 81.6615 45.8704 81.3161 46.605C81.1052 46.9758 80.7623 47.2511 80.3576 47.3746C79.8129 47.5902 79.2264 47.6755 78.6437 47.6239C78.0611 47.5724 77.498 47.3853 76.9985 47.0772C76.5667 46.8061 76.1954 46.4563 75.7464 46.2027C75.2154 45.9936 74.7331 45.6749 74.3302 45.267C73.458 44.0776 73.2162 43.1331 72.3354 46.0453Z" fill="white"/>
<path d="M74.0794 41.2004C73.3475 40.5323 72.7006 39.7743 72.1537 38.9442C71.5952 38.0838 71.3396 37.0578 71.4284 36.0321C71.4796 35.5131 71.6666 35.0175 71.9702 34.5962C72.2738 34.175 72.683 33.8435 73.1555 33.6359C74.304 33.2074 75.5042 33.8108 76.5318 34.4404C78.3145 35.4662 79.965 36.7117 81.4454 38.1484C81.9808 38.6906 82.5161 39.4951 82.1707 40.2297C81.9583 40.5977 81.6205 40.8745 81.2208 41.008C80.1069 41.4366 79.1829 42.1449 78.1898 41.524C77.7494 41.2004 73.6994 39.294 74.0794 41.2004Z" fill="white"/>
<path d="M75.4088 35.691C74.6764 35.02 74.0296 34.2591 73.4831 33.426C72.9188 32.5682 72.6626 31.5401 72.7577 30.5139C72.8095 29.9962 72.9969 29.5019 73.3006 29.0822C73.6042 28.6625 74.013 28.3325 74.4848 28.1264C75.6246 27.6892 76.8336 28.3013 77.8612 28.9222C79.6439 29.948 81.2944 31.1935 82.7748 32.6302C83.3102 33.1811 83.8455 33.9857 83.5001 34.7203C83.3188 35.1051 83.1892 36.3119 82.8092 36.4693C81.7039 36.9066 80.1669 35.8222 79.1824 35.2013C78.7334 34.9214 75.0202 33.802 75.4088 35.691Z" fill="white"/>
<path d="M74.4676 28.1264C73.5177 28.4412 73.4746 24.5496 73.6041 23.5177C73.6568 23.0003 73.8446 22.5065 74.1481 22.0869C74.4516 21.6673 74.8599 21.3371 75.3312 21.1303C76.4797 20.7018 77.68 21.3052 78.7076 21.9348C80.4882 22.9605 82.1383 24.2027 83.6212 25.634C84.1566 26.185 84.6919 26.9895 84.3465 27.7241C84.1652 28.1089 85.9527 31.7207 85.5641 31.8781C84.9863 32.1081 84.3662 32.2092 83.7463 32.1745C83.1264 32.1398 82.5211 31.9701 81.9718 31.6769C81.5141 31.4058 76.9719 27.2781 74.4676 28.1264Z" fill="white"/>
<path d="M79.8218 48.415C77.7752 48.415 75.2191 46.22 73.7338 44.9169L73.3021 44.5497C73.2107 44.4729 73.1532 44.3627 73.1418 44.2431C73.1305 44.1235 73.1664 44.0042 73.2417 43.9113C73.2785 43.8645 73.3242 43.8256 73.3762 43.7971C73.4281 43.7686 73.4852 43.751 73.544 43.7453C73.6028 43.7395 73.6622 43.7459 73.7185 43.7639C73.7749 43.7819 73.8271 43.8112 73.872 43.85L74.3124 44.2261C75.8236 45.5204 78.9496 48.2139 80.5471 47.3131C81.2034 46.9458 81.2207 46.5348 81.2207 46.4386C81.2207 45.1443 78.846 42.9405 76.5835 41.4888C75.3141 40.6581 73.9929 39.8797 72.5594 40.1683C72.037 40.3298 71.583 40.6638 71.2699 41.1172C70.9569 41.5705 70.8028 42.117 70.8324 42.6694C70.8324 43.9637 71.7995 45.0744 72.6631 46.0451L72.7236 46.115C72.8064 46.2001 72.8527 46.3148 72.8527 46.4342C72.8527 46.5537 72.8064 46.6684 72.7236 46.7534C72.6825 46.796 72.6335 46.8298 72.5794 46.8529C72.5252 46.876 72.4671 46.8879 72.4084 46.8879C72.3496 46.8879 72.2914 46.876 72.2373 46.8529C72.1832 46.8298 72.1341 46.796 72.0931 46.7534L72.0327 46.6835C71.1087 45.6428 69.9602 44.3485 69.9688 42.7044C69.9365 41.9371 70.1649 41.1818 70.6159 40.5643C71.0668 39.9469 71.7132 39.5046 72.4472 39.3113C74.1742 38.9527 75.7718 39.871 77.1362 40.7543C78.3365 41.5413 82.2569 44.2523 82.1879 46.4998C82.1673 46.8584 82.0502 47.2044 81.8493 47.5004C81.6483 47.7964 81.3713 48.031 81.048 48.1789C80.6682 48.3694 80.2441 48.4511 79.8218 48.415Z" fill="black"/>
<path d="M83.6215 39.1189C83.1378 39.1167 82.6594 39.0165 82.2145 38.8243C81.7696 38.6321 81.3672 38.3516 81.0309 37.9995C80.9903 37.9535 80.9594 37.8995 80.9401 37.841C80.9207 37.7825 80.9133 37.7205 80.9184 37.659C80.9234 37.5975 80.9408 37.5377 80.9694 37.4832C80.998 37.4286 81.0373 37.3806 81.0848 37.342C81.1323 37.3033 81.1871 37.2749 81.2459 37.2584C81.3046 37.2419 81.366 37.2377 81.4264 37.2461C81.4868 37.2544 81.545 37.2751 81.5972 37.3069C81.6495 37.3387 81.6947 37.381 81.7303 37.4311C81.9994 37.6921 82.3181 37.8949 82.6669 38.0272C83.0158 38.1595 83.3875 38.2185 83.7596 38.2007C83.8629 38.2041 83.9653 38.181 84.0574 38.1336C84.1495 38.0862 84.2283 38.016 84.2865 37.9296C84.4937 37.536 84.3728 35.306 82.6371 33.146C80.9014 30.9859 77.8531 28.6072 75.7288 28.5285C75.2733 28.4607 74.8081 28.5146 74.3794 28.6848C73.9508 28.8551 73.5735 29.1358 73.285 29.4992C72.6373 30.435 72.6719 32.1228 73.38 33.8018C73.4027 33.857 73.4144 33.9161 73.4145 33.9758C73.4146 34.0355 73.4031 34.0947 73.3807 34.1499C73.3582 34.2051 73.3253 34.2553 73.2837 34.2976C73.2421 34.3399 73.1927 34.3736 73.1382 34.3965C73.0839 34.4207 73.0254 34.4336 72.9661 34.4343C72.9068 34.435 72.8479 34.4236 72.7931 34.4007C72.7383 34.3779 72.6886 34.344 72.647 34.3012C72.6054 34.2584 72.5727 34.2075 72.551 34.1517C71.6874 32.1228 71.6874 30.1901 72.551 28.9833C72.9191 28.488 73.4104 28.1007 73.9749 27.861C74.5393 27.6213 75.1565 27.5378 75.7633 27.619C78.2675 27.7065 81.454 30.2426 83.3365 32.5688C85.219 34.895 85.4953 37.5798 85.0636 38.3581C84.9346 38.5778 84.7531 38.761 84.5358 38.8909C84.3184 39.0209 84.0724 39.0932 83.8201 39.1014L83.6215 39.1189Z" fill="black"/>
<path d="M81.5146 45.2756C81.2651 45.2842 81.0162 45.2456 80.7807 45.1619C80.6719 45.1109 80.5875 45.0182 80.5462 44.9042C80.5049 44.7902 80.5101 44.6643 80.5604 44.5541C80.6108 44.444 80.7024 44.3586 80.8149 44.3168C80.9275 44.2749 81.0518 44.2801 81.1606 44.3311C81.4023 44.4273 82.6891 44.3836 83.0518 43.684C83.2671 43.1625 83.2975 42.5816 83.1381 42.0399C82.743 40.4889 81.9881 39.0558 80.9361 37.8597C79.5068 36.0238 77.5233 34.7123 75.2886 34.1255C74.6957 34.0244 74.0873 34.0719 73.5167 34.264C72.9462 34.4561 72.4308 34.7869 72.0158 35.2274C71.2127 36.1981 71.1523 37.6761 71.964 39.5126C72.0103 39.6228 72.0118 39.7471 71.9681 39.8584C71.9245 39.9698 71.8392 40.0592 71.7308 40.1072C71.6207 40.1545 71.4968 40.1562 71.3854 40.1121C71.274 40.068 71.1841 39.9815 71.1349 39.8711C69.9778 37.1251 70.6083 35.4985 71.3336 34.624C71.8529 34.0519 72.5075 33.6232 73.2357 33.3784C73.9639 33.1336 74.7418 33.0807 75.4958 33.2248C77.9218 33.8541 80.0761 35.2737 81.6269 37.265C82.7736 38.5696 83.5913 40.1358 84.0103 41.83C84.2254 42.5776 84.1672 43.3787 83.8462 44.0863C83.5964 44.4758 83.2488 44.7912 82.8391 45.0001C82.4295 45.2091 81.9724 45.3041 81.5146 45.2756Z" fill="black"/>
<path d="M84.442 34.0031H84.3297C83.9641 33.9617 83.6108 33.8449 83.2915 33.6599C82.9722 33.4749 82.6936 33.2256 82.4731 32.9275C82.3989 32.8348 82.363 32.7167 82.3726 32.5978C82.3823 32.4789 82.4368 32.3683 82.5249 32.2891C82.57 32.2495 82.6225 32.2194 82.6793 32.2006C82.736 32.1818 82.7958 32.1746 82.8553 32.1795C82.9148 32.1844 82.9728 32.2012 83.0257 32.229C83.0787 32.2569 83.1257 32.2951 83.1639 32.3416C83.3052 32.5428 83.4851 32.7131 83.6928 32.8423C83.9005 32.9715 84.1318 33.057 84.3729 33.0936C84.5598 33.096 84.7452 33.0609 84.9186 32.9904C85.092 32.9199 85.2499 32.8152 85.3832 32.6826C86.3417 31.8081 85.5387 29.9366 84.9083 29.0009L84.5802 28.4937C83.4613 26.6339 82.1053 24.9314 80.5474 23.4302C79.0449 22.1185 76.1088 20.7455 74.589 21.9786C73.0692 23.2116 73.8637 25.188 74.425 26.8321C74.5761 27.2566 74.7057 27.6886 74.8135 28.1264C74.8261 28.1844 74.8272 28.2444 74.8166 28.3029C74.806 28.3613 74.7839 28.417 74.7518 28.4667C74.7196 28.5164 74.6779 28.5591 74.6292 28.5923C74.5805 28.6255 74.5257 28.6484 74.4681 28.6599C74.4102 28.6727 74.3505 28.6738 74.2923 28.6632C74.234 28.6525 74.1783 28.6303 74.1286 28.5978C74.0788 28.5653 74.0359 28.5231 74.0023 28.4737C73.9687 28.4243 73.945 28.3687 73.9327 28.31C73.8365 27.9101 73.7184 27.516 73.5787 27.1295C72.9915 25.4241 72.1107 22.8356 74.0278 21.2702C76.1521 19.5212 79.7357 21.5151 81.1347 22.7394C82.7537 24.2931 84.162 26.0575 85.3228 27.9865L85.6596 28.4937C86.6267 29.9541 87.3003 32.0967 85.9964 33.3385C85.5803 33.7517 85.0246 33.9893 84.442 34.0031Z" fill="black"/>
<path d="M101.151 34.3091C99.7085 32.0091 95.4167 27.6453 97.6187 26.316C98.7327 25.6426 101.47 26.9282 102.36 27.8639C103.888 29.4643 106.962 30.916 108.076 32.8311C108.491 33.5482 110.114 37.6672 109.57 38.2881C109.285 38.6292 109.294 42.1447 109.207 42.582C104.605 65.4593 101.781 48.0215 101.781 46.7622C101.781 43.2904 103.37 37.8596 101.151 34.3091Z" fill="white"/>
<path d="M102.921 86.8849C102.862 86.8827 102.804 86.8687 102.75 86.8437C102.697 86.8188 102.649 86.7834 102.608 86.7395C102.568 86.6956 102.537 86.6442 102.517 86.5881C102.496 86.532 102.487 86.4725 102.489 86.4127C102.636 80.3436 102.403 74.5193 102.152 68.3452V67.7768C101.902 61.5677 103.957 56.6967 105.771 52.4028C106.752 50.25 107.555 48.0181 108.171 45.7302L108.327 45.0744C109.19 41.6288 109.993 38.0782 108.664 34.9912C107.8 32.9711 106.073 31.4144 104.346 29.989L104.095 29.7703C102.966 28.7764 101.742 27.8977 100.443 27.1468C98.6638 26.2723 98.0248 26.4996 97.852 26.5958C97.6793 26.692 97.6103 26.7532 97.6275 27.243C97.6793 29.9103 98.2924 30.5836 99.7518 32.2015C100.08 32.5688 100.46 32.9886 100.874 33.4783C103.327 36.3817 102.748 40.9904 101.945 45.4591C101.906 45.5555 101.834 45.6352 101.744 45.6847C101.653 45.7343 101.548 45.7507 101.447 45.7312C101.346 45.7117 101.254 45.6575 101.187 45.5777C101.121 45.4979 101.084 45.3974 101.082 45.293C101.85 41.0341 102.412 36.6703 100.218 34.0642C99.8123 33.592 99.4409 33.1897 99.1128 32.8137C97.6361 31.1783 96.8158 30.2776 96.7553 27.2605C96.7216 26.9841 96.7643 26.7037 96.8787 26.4505C96.993 26.1973 97.1745 25.9812 97.403 25.8263C98.1111 25.3715 99.2769 25.5377 100.857 26.3335C102.217 27.1238 103.496 28.0495 104.674 29.097L104.924 29.3068C106.729 30.8023 108.569 32.4463 109.518 34.6501C110.969 38.0083 110.088 41.725 109.233 45.3105L109.087 45.9664C108.458 48.3063 107.634 50.5882 106.626 52.7876C104.769 57.1602 102.843 61.7601 103.085 67.768V68.3365C103.344 74.5193 103.577 80.3611 103.43 86.4652C103.425 86.527 103.408 86.587 103.379 86.6418C103.35 86.6966 103.311 86.745 103.263 86.7842C103.216 86.8233 103.161 86.8524 103.102 86.8697C103.043 86.887 102.982 86.8922 102.921 86.8849Z" fill="black"/>
<path d="M82.8351 86.8239C82.716 86.8195 82.603 86.7689 82.5194 86.6827C82.4359 86.5965 82.3882 86.4812 82.3861 86.3604C82.4811 80.1689 82.4552 73.8898 82.317 67.6895C82.3579 65.37 81.836 63.0758 80.7972 61.0082C80.7443 60.8998 80.7346 60.7749 80.7699 60.6594C80.8053 60.5439 80.883 60.4465 80.9872 60.3873C81.093 60.3342 81.215 60.3246 81.3276 60.3604C81.4403 60.3963 81.5348 60.4749 81.5916 60.5797C82.6895 62.7767 83.2465 65.2099 83.215 67.672C83.3532 73.8811 83.3792 80.1688 83.2842 86.3692C83.2842 86.4898 83.2369 86.6054 83.1526 86.6907C83.0684 86.776 82.9542 86.8239 82.8351 86.8239Z" fill="black"/>
<path d="M75.5986 147.384C76.5917 115.333 78.8627 114.083 79.8644 82.0054C84.4128 83.2819 89.2088 83.3532 93.7922 82.2123C98.3756 81.0714 102.592 78.7567 106.038 75.4902C105.175 134.817 106.099 121.411 106.099 145.915L75.5986 147.384Z" fill="white"/>
<path d="M75.5991 147.839C75.5401 147.836 75.4822 147.822 75.4285 147.797C75.3749 147.773 75.3267 147.737 75.2866 147.693C75.2465 147.649 75.2153 147.598 75.1948 147.542C75.1744 147.486 75.165 147.426 75.1673 147.366C75.6682 131.337 76.4972 122.88 77.3002 114.668C78.1033 106.457 78.9323 98.0526 79.4331 81.9877C79.4372 81.9197 79.4555 81.8534 79.4868 81.7931C79.5181 81.7328 79.5616 81.6799 79.6146 81.6379C79.6688 81.5951 79.7326 81.5664 79.8003 81.5542C79.868 81.542 79.9376 81.5467 80.0031 81.5679C84.476 82.8229 89.1923 82.8932 93.6998 81.7723C98.2073 80.6514 102.355 78.3768 105.745 75.1665C105.807 75.0999 105.888 75.0543 105.976 75.0358C106.065 75.0173 106.157 75.0269 106.24 75.0632C106.323 75.0994 106.393 75.1607 106.44 75.2387C106.488 75.3166 106.51 75.4074 106.505 75.4988C105.952 114.555 106.16 122.233 106.358 129.658C106.453 133.532 106.565 137.528 106.565 145.915C106.565 146.035 106.518 146.151 106.434 146.236C106.35 146.322 106.235 146.37 106.116 146.37C105.997 146.37 105.883 146.322 105.799 146.236C105.715 146.151 105.667 146.035 105.667 145.915C105.667 137.554 105.555 133.549 105.46 129.675C105.261 122.312 105.063 114.695 105.598 76.5395C102.179 79.5391 98.0928 81.6562 93.69 82.71C89.2871 83.7638 84.6979 83.723 80.314 82.5911C79.8131 98.2799 78.9928 106.658 78.1983 114.756C77.4039 122.854 76.5663 131.372 76.0654 147.393C76.0643 147.453 76.0513 147.513 76.0272 147.568C76.003 147.623 75.9681 147.673 75.9247 147.715C75.8813 147.756 75.8302 147.789 75.7743 147.81C75.7184 147.831 75.6588 147.841 75.5991 147.839Z" fill="black"/>
<path d="M75.5991 147.839C75.5401 147.836 75.4822 147.822 75.4285 147.797C75.3749 147.773 75.3267 147.737 75.2866 147.693C75.2465 147.649 75.2153 147.598 75.1948 147.542C75.1744 147.486 75.165 147.426 75.1673 147.366C75.6682 131.337 76.4972 122.88 77.3002 114.668C78.1033 106.457 78.9323 98.0526 79.4331 81.9877C79.4372 81.9197 79.4555 81.8534 79.4868 81.7931C79.5181 81.7328 79.5616 81.6799 79.6146 81.6379C79.6688 81.5951 79.7326 81.5664 79.8003 81.5542C79.868 81.542 79.9376 81.5467 80.0031 81.5679C84.476 82.8229 89.1923 82.8932 93.6998 81.7723C98.2073 80.6514 102.355 78.3768 105.745 75.1665C105.807 75.0999 105.888 75.0543 105.976 75.0358C106.065 75.0173 106.157 75.0269 106.24 75.0632C106.323 75.0994 106.393 75.1607 106.44 75.2387C106.488 75.3166 106.51 75.4074 106.505 75.4988C105.952 114.555 106.16 122.233 106.358 129.658C106.453 133.532 106.565 137.528 106.565 145.915C106.565 146.035 106.518 146.151 106.434 146.236C106.35 146.322 106.235 146.37 106.116 146.37C105.997 146.37 105.883 146.322 105.799 146.236C105.715 146.151 105.667 146.035 105.667 145.915C105.667 137.554 105.555 133.549 105.46 129.675C105.261 122.312 105.063 114.695 105.598 76.5395C102.179 79.5391 98.0928 81.6562 93.69 82.71C89.2871 83.7638 84.6979 83.723 80.314 82.5911C79.8131 98.2799 78.9928 106.658 78.1983 114.756C77.4039 122.854 76.5663 131.372 76.0654 147.393C76.0643 147.453 76.0513 147.513 76.0272 147.568C76.003 147.623 75.9681 147.673 75.9247 147.715C75.8813 147.756 75.8302 147.789 75.7743 147.81C75.7184 147.831 75.6588 147.841 75.5991 147.839Z" fill="black"/>
</g>
<defs>
<clipPath id="clip0_106_2180">
<rect width="188" height="149" fill="white" transform="translate(0.411133 0.141846)"/>
</clipPath>
</defs>
</svg>
