<svg width="788" height="654" viewBox="0 0 788 654" fill="none" xmlns="http://www.w3.org/2000/svg">
<g clip-path="url(#clip0_2654_2340)">
<path d="M439.58 115.37L440.48 121.51C440.73 123.28 438.17 124.76 435.1 124.61L430.33 124.38C427.26 124.23 424.7 125.71 424.96 127.49L425.36 130.24C425.62 132.01 423.05 133.49 419.98 133.34L415.21 133.11C412.14 132.96 409.57 134.44 409.83 136.22L410.73 142.36" stroke="#373A3A" stroke-width="3" stroke-linecap="round" stroke-linejoin="round"/>
<path d="M120.91 329.76V348.47L107.42 351.37L99.92 358.87V350.75L97.53 342.55L107.42 332.65L120.91 329.76Z" fill="#373A3A"/>
<path d="M120.91 317.93V329.76L107.42 332.66L97.53 342.55L99.93 350.75L82.22 356.66L71.12 351.36H51.31L40.22 356.66L22.49 350.75L24.89 342.55L14.99 332.66L1.5 329.76V317.93L14.99 315.04L24.9 305.14L22.49 296.96L40.22 291.04L51.3 296.33H71.09L82.19 291.04L99.92 296.96L97.52 305.14L107.41 315.04L120.91 317.93ZM79.91 333.2C83.68 330.71 85.96 327.44 85.96 323.85C85.96 315.96 74.88 309.56 61.21 309.56C47.54 309.56 36.47 315.96 36.47 323.85C36.47 327.44 38.75 330.71 42.52 333.2C47.05 336.2 53.75 338.13 61.21 338.13C68.67 338.13 75.38 336.18 79.91 333.18V333.2Z" fill="white"/>
<path d="M99.9199 358.87V369.46L82.1899 375.38V356.66L99.9199 350.75V358.87Z" fill="#969A9E"/>
<path d="M85.96 323.85C85.96 327.44 83.68 330.71 79.91 333.2C75.37 330.2 68.68 328.28 61.21 328.28C53.74 328.28 47.05 330.18 42.52 333.18C38.75 330.69 36.47 327.42 36.47 323.83C36.47 315.94 47.55 309.54 61.21 309.54C74.87 309.54 85.96 315.96 85.96 323.85Z" fill="#373A3A"/>
<path d="M82.19 356.66V375.38L71.1 370.07H51.31L40.22 375.38V356.66L51.31 351.36H71.1L82.19 356.66Z" fill="#373A3A"/>
<path d="M40.22 356.66V375.38L22.49 369.46V350.75L40.22 356.66Z" fill="#969A9E"/>
<path d="M24.88 342.55L22.49 350.75V358.87L14.99 351.37L1.5 348.47V329.76L14.99 332.65L24.88 342.55Z" fill="#373A3A"/>
<path d="M1.5 329.76V348.47" stroke="#373A3A" stroke-width="3" stroke-linecap="round" stroke-linejoin="round"/>
<path d="M120.91 348.47L107.42 351.37L99.9199 358.87" stroke="#373A3A" stroke-width="3" stroke-linecap="round" stroke-linejoin="round"/>
<path d="M79.91 333.18C75.37 330.18 68.68 328.26 61.21 328.26C53.74 328.26 47.05 330.18 42.52 333.18" stroke="#373A3A" stroke-width="3" stroke-linecap="round" stroke-linejoin="round"/>
<path d="M22.49 350.75L24.88 342.55L14.99 332.65L1.5 329.76V317.93L14.99 315.04L24.89 305.14L22.49 296.95L40.23 291.04L51.31 296.33H71.1L82.19 291.04L99.92 296.95L97.53 305.14L107.42 315.04L120.91 317.93V329.76L107.42 332.65L97.53 342.55L99.92 350.75L82.19 356.66L71.1 351.36H51.31L40.22 356.66L22.49 350.75Z" stroke="#373A3A" stroke-width="3" stroke-linecap="round" stroke-linejoin="round"/>
<path d="M79.91 333.18C83.68 330.68 85.96 327.42 85.96 323.83C85.96 315.94 74.88 309.54 61.21 309.54C47.54 309.54 36.47 315.94 36.47 323.83C36.47 327.42 38.75 330.68 42.52 333.18C47.05 336.18 53.75 338.11 61.21 338.11C68.67 338.11 75.38 336.18 79.91 333.18Z" stroke="#373A3A" stroke-width="3" stroke-linecap="round" stroke-linejoin="round"/>
<path d="M22.49 350.75V369.46L40.22 375.38L51.31 370.07H71.1L82.19 375.38L99.92 369.46V350.75" stroke="#373A3A" stroke-width="3" stroke-linecap="round" stroke-linejoin="round"/>
<path d="M40.22 375.38V356.66" stroke="#373A3A" stroke-width="3" stroke-linecap="round" stroke-linejoin="round"/>
<path d="M82.1899 375.38V356.66" stroke="#373A3A" stroke-width="3" stroke-linecap="round" stroke-linejoin="round"/>
<path d="M1.5 348.47L14.99 351.37L22.49 358.87" stroke="#373A3A" stroke-width="3" stroke-linecap="round" stroke-linejoin="round"/>
<path d="M120.91 348.47V329.76" stroke="#373A3A" stroke-width="3" stroke-linecap="round" stroke-linejoin="round"/>
<path d="M368.09 210.77V218.77C368.09 223.26 365.09 228.77 361.21 231.34C342.805 243.645 323.61 254.726 303.75 264.51C303.048 264.934 302.252 265.176 301.433 265.214C300.614 265.253 299.799 265.086 299.06 264.73L298.95 264.66C297.64 263.87 296.87 262.2 296.87 259.89V251.89L368.09 210.77Z" fill="#373A3A"/>
<path d="M368.09 99.28V210.77L296.87 251.89V140.34C309.31 132.39 321.45 124.69 324.87 122.65C326.05 121.94 327.11 122.15 327.59 123.14C328.23 124.46 329.59 125.78 332.5 124.14C334.914 122.623 336.667 120.252 337.41 117.5C337.851 116.008 338.817 114.725 340.13 113.89C343.51 112.01 355.57 105.72 367.97 99.33H368.11L368.09 99.28ZM350.09 179.28C354.53 171.73 357.29 163.16 357.29 155.43C357.29 140.24 346.63 134.09 333.48 141.67C320.33 149.25 309.67 167.73 309.67 182.92C309.67 190.64 312.43 196.03 316.87 198.46C321.31 200.89 327.01 200.4 333.48 196.66C339.95 192.92 345.8 186.62 350.09 179.32V179.28Z" fill="white"/>
<path d="M368.09 97.1799V99.2699H367.95C355.55 105.66 343.49 111.95 340.11 113.83C338.797 114.665 337.831 115.947 337.39 117.44C336.647 120.192 334.894 122.563 332.48 124.08C329.56 125.76 328.21 124.44 327.57 123.08C327.09 122.08 326.03 121.88 324.85 122.59C321.45 124.59 309.31 132.33 296.85 140.28V138.28C296.848 137.7 296.895 137.122 296.99 136.55C297.748 132.2 300.164 128.314 303.73 125.71C322.143 113.41 341.348 102.339 361.22 92.5699C361.885 92.18 362.63 91.9452 363.399 91.8829C364.168 91.8205 364.94 91.9323 365.66 92.2099L365.9 92.3499C366.463 92.7119 366.939 93.1935 367.295 93.7604C367.651 94.3272 367.878 94.9655 367.96 95.6299C368.051 96.1415 368.094 96.6604 368.09 97.1799Z" fill="#373A3A"/>
<path d="M354.46 85.75L365.65 92.18C364.93 91.9046 364.157 91.7939 363.389 91.8562C362.621 91.9185 361.876 92.1522 361.21 92.54C341.348 102.32 322.153 113.401 303.75 125.71C300.184 128.314 297.768 132.2 297.01 136.55C296.915 137.122 296.868 137.7 296.87 138.28V259.86C296.87 262.17 297.64 263.86 298.95 264.63L299.06 264.7L287.63 258.1C286.27 257.32 285.43 255.63 285.43 253.26V131.72C285.574 129.249 286.267 126.841 287.459 124.672C288.651 122.503 290.312 120.627 292.32 119.18C310.724 106.873 329.918 95.792 349.78 86.01C350.477 85.58 351.27 85.3309 352.087 85.2855C352.904 85.2401 353.72 85.3998 354.46 85.75Z" fill="#969A9E"/>
<path d="M357.29 155.47C357.29 163.2 354.53 171.77 350.09 179.32C348.605 177.063 346.647 175.156 344.353 173.73C342.058 172.303 339.481 171.393 336.8 171.06C338.197 169.155 339 166.88 339.11 164.52C339.11 160.94 336.58 159.52 333.49 161.28C331.855 162.349 330.494 163.787 329.518 165.479C328.541 167.171 327.977 169.069 327.87 171.02C327.87 173.16 328.78 174.53 330.16 174.92C324.603 182.095 320.129 190.046 316.88 198.52C312.44 196.09 309.68 190.7 309.68 182.98C309.68 167.79 320.34 149.33 333.49 141.73C346.64 134.13 357.29 140.28 357.29 155.47Z" fill="#C2C7CC"/>
<path d="M336.8 171.06C339.481 171.393 342.058 172.304 344.353 173.73C346.647 175.156 348.605 177.063 350.09 179.32C345.8 186.62 339.94 192.97 333.48 196.7C327.02 200.43 321.16 200.84 316.87 198.5C320.119 190.026 324.593 182.075 330.15 174.9C331.305 175.117 332.499 174.877 333.48 174.23C334.8 173.418 335.929 172.329 336.79 171.04L336.8 171.06Z" fill="white"/>
<path d="M339.1 164.5C338.991 166.86 338.187 169.135 336.79 171.04C335.929 172.329 334.8 173.417 333.48 174.23C332.501 174.882 331.305 175.122 330.15 174.9C328.77 174.52 327.86 173.14 327.86 171C327.967 169.049 328.531 167.151 329.508 165.459C330.484 163.767 331.845 162.329 333.48 161.26C336.57 159.48 339.1 160.92 339.1 164.5Z" fill="white"/>
<path d="M368.09 210.77V218.77C368.09 223.26 365.09 228.77 361.21 231.34C342.805 243.645 323.61 254.726 303.75 264.51C303.048 264.934 302.252 265.176 301.433 265.214C300.614 265.253 299.798 265.086 299.06 264.73L298.95 264.66C297.64 263.87 296.87 262.2 296.87 259.89V138.31C296.868 137.73 296.915 137.152 297.01 136.58C297.768 132.23 300.184 128.344 303.75 125.74C322.156 113.431 341.354 102.35 361.22 92.5699C361.885 92.18 362.63 91.9452 363.399 91.8829C364.168 91.8205 364.94 91.9323 365.66 92.2099L365.9 92.3499C366.463 92.7119 366.939 93.1935 367.295 93.7604C367.652 94.3272 367.878 94.9655 367.96 95.6299C368.055 96.1445 368.102 96.6667 368.1 97.1899L368.09 210.77Z" stroke="#373A3A" stroke-width="3" stroke-linecap="round" stroke-linejoin="round"/>
<path d="M296.87 140.34C309.31 132.39 321.45 124.69 324.87 122.65C326.05 121.94 327.11 122.15 327.59 123.14C328.23 124.46 329.59 125.78 332.5 124.14C334.914 122.623 336.667 120.252 337.41 117.5C337.851 116.008 338.817 114.725 340.13 113.89C343.51 112.01 355.57 105.72 367.97 99.33H368.11" stroke="#373A3A" stroke-width="3" stroke-linecap="round" stroke-linejoin="round"/>
<path d="M296.86 251.89L368.08 210.76" stroke="#373A3A" stroke-width="3" stroke-linecap="round" stroke-linejoin="round"/>
<path d="M365.89 92.35L354.46 85.75C353.723 85.3938 352.909 85.2274 352.092 85.2658C351.275 85.3042 350.48 85.5463 349.78 85.97C329.917 95.7649 310.722 106.859 292.32 119.18C290.307 120.631 288.643 122.513 287.451 124.69C286.259 126.867 285.568 129.282 285.43 131.76V253.26C285.43 255.63 286.27 257.32 287.63 258.1L299.06 264.7" stroke="#373A3A" stroke-width="3" stroke-linecap="round" stroke-linejoin="round"/>
<path d="M350.09 179.32C354.53 171.77 357.29 163.2 357.29 155.47C357.29 140.28 346.63 134.13 333.48 141.71C320.33 149.29 309.67 167.77 309.67 182.96C309.67 190.68 312.43 196.07 316.87 198.5C321.31 200.93 327.01 200.44 333.48 196.7C339.95 192.96 345.8 186.62 350.09 179.32Z" stroke="#373A3A" stroke-width="3" stroke-linecap="round" stroke-linejoin="round"/>
<path d="M336.79 171.04C338.187 169.135 338.991 166.86 339.1 164.5C339.1 160.92 336.57 159.5 333.48 161.26C331.845 162.329 330.484 163.767 329.508 165.459C328.531 167.151 327.967 169.049 327.86 171C327.86 173.14 328.77 174.52 330.15 174.9C331.305 175.122 332.501 174.882 333.48 174.23C334.8 173.418 335.929 172.329 336.79 171.04Z" stroke="#373A3A" stroke-width="3" stroke-linecap="round" stroke-linejoin="round"/>
<path d="M330.15 174.9C324.593 182.075 320.119 190.026 316.87 198.5" stroke="#373A3A" stroke-width="3" stroke-linecap="round" stroke-linejoin="round"/>
<path d="M336.8 171.06C339.481 171.393 342.058 172.304 344.353 173.73C346.647 175.156 348.605 177.063 350.09 179.32" stroke="#373A3A" stroke-width="3" stroke-linecap="round" stroke-linejoin="round"/>
<path d="M246.54 271.56V343.34C246.54 344.89 245.54 346.43 243.54 347.59C241.259 348.753 238.735 349.36 236.175 349.36C233.615 349.36 231.091 348.753 228.81 347.59C226.81 346.43 225.75 344.89 225.75 343.34V271.48C225.75 273.03 226.75 274.56 228.81 275.73C231.092 276.889 233.616 277.492 236.175 277.492C238.734 277.492 241.258 276.889 243.54 275.73C245.5 274.58 246.51 273.07 246.54 271.56Z" fill="white"/>
<path d="M246.54 271.48V271.56C246.54 273.07 245.54 274.56 243.54 275.73C241.258 276.889 238.734 277.492 236.175 277.492C233.616 277.492 231.092 276.889 228.81 275.73C226.81 274.56 225.75 273.03 225.75 271.48C225.75 269.93 226.75 268.41 228.81 267.23C231.092 266.071 233.616 265.468 236.175 265.468C238.734 265.468 241.258 266.071 243.54 267.23C245.52 268.41 246.54 269.95 246.54 271.48Z" fill="white"/>
<path d="M246.54 271.56C246.54 273.07 245.54 274.56 243.54 275.73C241.258 276.889 238.734 277.492 236.175 277.492C233.616 277.492 231.092 276.889 228.81 275.73C226.81 274.56 225.75 273.03 225.75 271.48C225.75 269.93 226.75 268.41 228.81 267.23C231.092 266.071 233.616 265.468 236.175 265.468C238.734 265.468 241.258 266.071 243.54 267.23C245.54 268.41 246.54 269.95 246.54 271.48V271.56Z" stroke="#373A3A" stroke-width="3" stroke-linecap="round" stroke-linejoin="round"/>
<path d="M246.54 271.48V343.34C246.54 344.89 245.54 346.43 243.54 347.59C241.259 348.753 238.735 349.36 236.175 349.36C233.615 349.36 231.091 348.753 228.81 347.59C226.81 346.43 225.75 344.89 225.75 343.34V271.48" stroke="#373A3A" stroke-width="3" stroke-linecap="round" stroke-linejoin="round"/>
<path d="M535.08 498.96C535.98 499.48 536.35 500.12 536.21 500.74C536.07 501.36 535.45 501.91 534.37 502.31L468.22 527.09C465.864 527.903 463.284 527.763 461.03 526.7L300.53 434.02C300.217 433.889 299.944 433.678 299.738 433.407C299.533 433.137 299.402 432.817 299.36 432.48C299.36 431.81 300.02 431.14 301.22 430.68L367.34 405.9C369.705 405.095 372.289 405.239 374.55 406.3L535.08 498.96ZM503.22 502.31L514.55 498.07L503.75 491.83L492.42 496.09L503.22 502.31ZM484.66 491.61L496.01 487.36L485.22 481.12L473.89 485.37L484.66 491.61ZM483.66 509.61L495.01 505.35L484.22 499.18L472.88 503.44L483.66 509.61ZM466.13 480.86L477.46 476.61L411.01 438.28L399.67 442.53L466.13 480.86ZM465.13 498.86L476.48 494.6L465.68 488.37L454.32 492.62L465.13 498.86ZM464.13 516.86L475.47 512.62L464.67 506.39L453.34 510.64L464.13 516.86ZM446.59 488.12L457.94 483.87L447.13 477.63L435.78 481.88L446.59 488.12ZM445.59 506.12L456.92 501.87L446.12 495.63L434.78 499.88L445.59 506.12ZM428.03 477.36L439.37 473.11L428.59 466.88L417.22 471.29L428.03 477.36ZM427.03 495.36L438.37 491.11L427.56 484.87L416.22 489.32L427.03 495.36ZM409.48 466.61L420.82 462.35L410.01 456.12L398.67 460.37L409.48 466.61ZM408.48 484.61L419.81 480.37L409.02 474.13L397.68 478.39L408.48 484.61ZM391.92 438.05L403.22 433.81L392.41 427.56L381.08 431.82L391.92 438.05ZM390.92 456.05L402.22 451.84L391.43 445.61L380.07 449.86L390.92 456.05ZM389.92 474.05L401.22 469.89L390.41 463.65L379.08 467.9L389.92 474.05ZM373.37 427.25L384.71 423L373.91 416.77L362.57 421.02L373.37 427.25ZM372.37 445.25L383.71 441.18L372.9 434.94L361.55 439.18L372.37 445.25ZM371.37 463.25L382.69 459.18L371.9 452.94L360.56 457.18L371.37 463.25ZM353.8 434.68L365.14 430.41L354.35 424.18L343 428.43L353.8 434.68ZM352.8 452.68L364.14 448.44L353.33 442.18L342 446.44L352.8 452.68ZM334.22 442L345.55 437.75L334.76 431.52L323.42 435.77L334.22 442Z" fill="white"/>
<path d="M536.22 500.74L535.22 507.27C535.137 507.63 534.973 507.967 534.741 508.254C534.509 508.542 534.215 508.773 533.88 508.93L467.28 547.38C466.275 547.893 465.163 548.16 464.035 548.16C462.907 548.16 461.795 547.893 460.79 547.38L300.22 454.69C299.84 454.528 299.513 454.263 299.275 453.926C299.036 453.589 298.896 453.192 298.87 452.78L299.32 432.48C299.362 432.817 299.493 433.137 299.698 433.407C299.904 433.678 300.177 433.889 300.49 434.02L461.03 526.7C463.284 527.763 465.864 527.903 468.22 527.09L534.33 502.31C535.45 501.91 536.07 501.34 536.22 500.74Z" fill="#373A3A"/>
<path d="M514.56 498.07L503.22 502.31L492.43 496.08L503.76 491.83L514.56 498.07Z" fill="#969A9E"/>
<path d="M496.01 487.36L484.67 491.6L473.86 485.37L485.19 481.12L496.01 487.36Z" fill="#969A9E"/>
<path d="M495 505.39L483.65 509.65L472.86 503.42L484.21 499.16L495 505.39Z" fill="#969A9E"/>
<path d="M477.46 476.64L466.12 480.9L399.67 442.53L411 438.28L477.46 476.64Z" fill="#969A9E"/>
<path d="M476.46 494.68L465.11 498.93L454.3 492.7L465.65 488.45L476.46 494.68Z" fill="#969A9E"/>
<path d="M475.44 512.73L464.11 516.97L453.31 510.75L464.65 506.49L475.44 512.73Z" fill="#969A9E"/>
<path d="M457.92 483.97L446.56 488.23L435.75 481.99L447.11 477.74L457.92 483.97Z" fill="#969A9E"/>
<path d="M456.9 502.02L445.56 506.26L434.76 500.03L446.09 495.78L456.9 502.02Z" fill="#969A9E"/>
<path d="M439.35 473.26L428.01 477.51L417.21 471.29L428.56 467.03L439.35 473.26Z" fill="#969A9E"/>
<path d="M438.35 491.3L427.02 495.56L416.2 489.32L427.55 485.07L438.35 491.3Z" fill="#969A9E"/>
<path d="M420.81 462.55L409.46 466.8L398.65 460.57L410 456.32L420.81 462.55Z" fill="#969A9E"/>
<path d="M419.79 480.6L408.45 484.84L397.66 478.62L408.99 474.36L419.79 480.6Z" fill="#969A9E"/>
<path d="M403.25 433.81L391.91 438.05L381.11 431.81L392.44 427.56L403.25 433.81Z" fill="#969A9E"/>
<path d="M402.25 451.83L390.9 456.1L380.1 449.86L391.45 445.61L402.25 451.83Z" fill="#969A9E"/>
<path d="M401.24 469.89L389.91 474.13L379.1 467.9L390.44 463.65L401.24 469.89Z" fill="#969A9E"/>
<path d="M384.69 423.09L373.36 427.33L362.56 421.11L373.89 416.86L384.69 423.09Z" fill="#969A9E"/>
<path d="M383.7 441.13L372.35 445.38L361.54 439.14L372.9 434.89L383.7 441.13Z" fill="#969A9E"/>
<path d="M382.69 459.17L371.35 463.42L360.56 457.19L371.89 452.94L382.69 459.17Z" fill="#969A9E"/>
<path d="M365.14 430.41L353.8 434.67L343 428.44L354.34 424.19L365.14 430.41Z" fill="#969A9E"/>
<path d="M364.13 448.47L352.8 452.71L341.99 446.48L353.33 442.22L364.13 448.47Z" fill="#969A9E"/>
<path d="M345.58 437.75L334.25 441.99L323.45 435.77L334.78 431.52L345.58 437.75Z" fill="#969A9E"/>
<path d="M299.36 432.48C299.402 432.817 299.533 433.137 299.738 433.407C299.944 433.678 300.217 433.889 300.53 434.02L461.07 526.7C463.324 527.763 465.904 527.903 468.26 527.09L534.37 502.31C535.45 501.91 536.08 501.31 536.21 500.74C536.34 500.17 535.98 499.48 535.08 498.96L374.55 406.27C372.289 405.209 369.705 405.065 367.34 405.87L301.22 430.65C300.02 431.11 299.38 431.78 299.36 432.45V432.48Z" stroke="#373A3A" stroke-width="3" stroke-linecap="round" stroke-linejoin="round"/>
<path d="M492.43 496.08L503.22 502.31L514.56 498.07L503.76 491.83L492.43 496.08Z" stroke="#373A3A" stroke-width="2" stroke-linecap="round" stroke-linejoin="round"/>
<path d="M472.86 503.42L483.65 509.65L495 505.39L484.21 499.16L472.86 503.42Z" stroke="#373A3A" stroke-width="2" stroke-linecap="round" stroke-linejoin="round"/>
<path d="M453.31 510.75L464.11 516.97L475.44 512.73L464.65 506.49L453.31 510.75Z" stroke="#373A3A" stroke-width="2" stroke-linecap="round" stroke-linejoin="round"/>
<path d="M473.86 485.37L484.67 491.6L496.01 487.36L485.19 481.12L473.86 485.37Z" stroke="#373A3A" stroke-width="2" stroke-linecap="round" stroke-linejoin="round"/>
<path d="M454.3 492.7L465.11 498.93L476.46 494.68L465.65 488.45L454.3 492.7Z" stroke="#373A3A" stroke-width="2" stroke-linecap="round" stroke-linejoin="round"/>
<path d="M434.76 500.03L445.56 506.26L456.9 502.02L446.09 495.78L434.76 500.03Z" stroke="#373A3A" stroke-width="2" stroke-linecap="round" stroke-linejoin="round"/>
<path d="M399.67 442.53L466.12 480.9L477.46 476.64L411 438.28L399.67 442.53Z" stroke="#373A3A" stroke-width="2" stroke-linecap="round" stroke-linejoin="round"/>
<path d="M435.75 481.99L446.56 488.23L457.92 483.97L447.11 477.74L435.75 481.99Z" stroke="#373A3A" stroke-width="2" stroke-linecap="round" stroke-linejoin="round"/>
<path d="M416.2 489.32L427.02 495.56L438.35 491.3L427.55 485.07L416.2 489.32Z" stroke="#373A3A" stroke-width="2" stroke-linecap="round" stroke-linejoin="round"/>
<path d="M417.21 471.29L428.01 477.51L439.35 473.26L428.56 467.03L417.21 471.29Z" stroke="#373A3A" stroke-width="2" stroke-linecap="round" stroke-linejoin="round"/>
<path d="M397.66 478.62L408.45 484.84L419.79 480.6L408.99 474.36L397.66 478.62Z" stroke="#373A3A" stroke-width="2" stroke-linecap="round" stroke-linejoin="round"/>
<path d="M398.65 460.57L409.46 466.8L420.81 462.55L410 456.32L398.65 460.57Z" stroke="#373A3A" stroke-width="2" stroke-linecap="round" stroke-linejoin="round"/>
<path d="M379.1 467.9L389.91 474.13L401.24 469.89L390.44 463.65L379.1 467.9Z" stroke="#373A3A" stroke-width="2" stroke-linecap="round" stroke-linejoin="round"/>
<path d="M380.1 449.86L390.9 456.1L402.25 451.83L391.45 445.61L380.1 449.86Z" stroke="#373A3A" stroke-width="2" stroke-linecap="round" stroke-linejoin="round"/>
<path d="M360.56 457.19L371.35 463.42L382.69 459.17L371.89 452.94L360.56 457.19Z" stroke="#373A3A" stroke-width="2" stroke-linecap="round" stroke-linejoin="round"/>
<path d="M381.11 431.81L391.91 438.05L403.25 433.81L392.44 427.56L381.11 431.81Z" stroke="#373A3A" stroke-width="2" stroke-linecap="round" stroke-linejoin="round"/>
<path d="M361.54 439.14L372.35 445.38L383.7 441.13L372.9 434.89L361.54 439.14Z" stroke="#373A3A" stroke-width="2" stroke-linecap="round" stroke-linejoin="round"/>
<path d="M341.99 446.48L352.8 452.71L364.13 448.47L353.33 442.22L341.99 446.48Z" stroke="#373A3A" stroke-width="2" stroke-linecap="round" stroke-linejoin="round"/>
<path d="M362.56 421.11L373.36 427.33L384.69 423.09L373.89 416.86L362.56 421.11Z" stroke="#373A3A" stroke-width="2" stroke-linecap="round" stroke-linejoin="round"/>
<path d="M343 428.44L353.8 434.67L365.14 430.41L354.34 424.19L343 428.44Z" stroke="#373A3A" stroke-width="2" stroke-linecap="round" stroke-linejoin="round"/>
<path d="M323.45 435.77L334.25 441.99L345.58 437.75L334.78 431.52L323.45 435.77Z" stroke="#373A3A" stroke-width="2" stroke-linecap="round" stroke-linejoin="round"/>
<path d="M299.36 432.45L298.91 452.78C298.936 453.192 299.076 453.589 299.314 453.926C299.553 454.263 299.88 454.528 300.26 454.69L460.8 547.38C461.805 547.893 462.917 548.16 464.045 548.16C465.173 548.16 466.285 547.893 467.29 547.38L533.89 508.93C534.224 508.773 534.519 508.542 534.751 508.254C534.983 507.967 535.147 507.63 535.23 507.27L536.23 500.65" stroke="#373A3A" stroke-width="3" stroke-linecap="round" stroke-linejoin="round"/>
<path d="M685.75 335.18C685.901 335.768 685.975 336.373 685.97 336.98C685.97 345.98 673.43 355.98 658.97 364.43C663.97 348.97 667.86 335.43 670.26 326.62C677.61 327.66 684.44 330.01 685.75 335.18Z" fill="#5F646B"/>
<path d="M543.57 217.35C540.437 217.734 537.336 218.342 534.29 219.17C532.986 219.529 531.642 219.724 530.29 219.75C528.51 219.75 526.96 219.28 526.96 217.7C526.96 211.09 553.87 202.32 557.96 202.32C561.76 202.32 565.24 203.83 568.77 205.07L568.86 204.82C562.768 199.504 557.713 193.106 553.95 185.95C552.836 183.851 551.873 181.676 551.07 179.44C550.749 178.543 550.666 177.578 550.83 176.64C550.995 175.697 551.392 174.81 551.986 174.06C552.579 173.309 553.351 172.718 554.23 172.34H554.31C555.529 171.82 556.89 171.735 558.164 172.099C559.439 172.464 560.549 173.255 561.31 174.34C561.56 174.7 561.81 175.05 562.07 175.34C573.07 190.07 586.23 193.43 594.92 199.87C600.55 204.04 604.29 209.5 604.29 220.21C604.29 233.63 593.55 237.86 579.41 270.81C577.265 275.853 576.605 281.405 577.51 286.81C582.66 317.57 586.9 335.64 590.42 348.09C591.21 347.6 592.01 347.09 592.82 346.64C612.59 334.92 635.51 325.73 656.65 325.73C661.19 325.688 665.728 325.966 670.23 326.56C667.83 335.38 663.97 348.91 658.94 364.37C657.27 369.46 655.49 374.76 653.58 380.16C637.12 426.76 611.66 481.58 582.63 481.58C566.93 481.58 555.63 467.5 547.52 446.65C529.05 399.2 527.04 316.65 527.04 285.13C527.04 253.61 548.96 253.13 563.24 232.57C559.9 228.99 556.73 226.16 552.16 226.16C547.42 226.16 541.77 228.63 537 231.16C536.334 231.525 535.577 231.692 534.819 231.642C534.061 231.593 533.333 231.328 532.72 230.88C532.72 230.88 532.72 230.88 532.66 230.88C532.176 230.512 531.777 230.045 531.49 229.51C531.065 228.717 530.92 227.804 531.078 226.919C531.236 226.034 531.687 225.227 532.36 224.63C535.721 221.669 539.498 219.216 543.57 217.35Z" fill="#DAE0E5"/>
<path d="M630.72 107.95C631.12 115.71 628.78 124.44 624.72 132.3C621.434 138.898 616.781 144.72 611.07 149.38C610.19 150.06 609.29 150.71 608.36 151.31C604.36 153.91 600.45 155.17 597.02 155.18H596.58C594.718 155.13 592.889 154.677 591.22 153.85C586.68 151.52 583.7 146.19 583.33 138.41C582.96 130.63 585.18 122.18 589.12 114.41C593.17 106.41 599.02 99.3 605.67 95.04C612.32 90.78 618.28 90.19 622.82 92.52C626.76 94.52 629.49 98.87 630.42 105.1C630.57 106.044 630.67 106.995 630.72 107.95ZM615.54 127.56C617.48 123.965 618.474 119.935 618.43 115.85C618.25 112.12 616.81 109.56 614.63 108.44C612.45 107.32 609.53 107.63 606.37 109.64C602.969 112.019 600.233 115.227 598.42 118.96C596.534 122.51 595.578 126.48 595.64 130.5C595.81 134.24 597.26 136.81 599.44 137.92C601.62 139.03 604.53 138.73 607.67 136.7C611.033 134.378 613.744 131.231 615.54 127.56Z" fill="#969A9E"/>
<path d="M618.43 115.85C618.474 119.935 617.48 123.965 615.54 127.56C613.744 131.231 611.033 134.378 607.67 136.7C604.53 138.7 601.6 139.05 599.44 137.92C597.28 136.79 595.81 134.24 595.64 130.5C595.578 126.48 596.534 122.51 598.42 118.96C600.233 115.227 602.969 112.019 606.37 109.64C609.53 107.64 612.44 107.31 614.63 108.44C616.82 109.57 618.22 112.12 618.43 115.85Z" fill="white"/>
<path d="M615.82 181.84L616.45 182.12C609.717 188.532 602.539 194.46 594.97 199.86C586.28 193.42 573.09 190.08 562.12 175.33C567.32 172.17 572.24 169.06 576.89 165.85C577.545 166.757 578.534 167.366 579.638 167.544C580.743 167.723 581.873 167.455 582.78 166.8C587.604 163.354 592.201 159.6 596.54 155.56C596.54 156.38 596.48 157.19 596.48 158C596.51 173.47 603.62 176.36 615.82 181.84Z" fill="#DAE0E5"/>
<path d="M643.31 138.1C651.38 118.95 635.83 84.2 619.51 78.48C617.68 32.28 588.51 2.17004 550.51 5.08004C552.069 5.78965 553.591 6.57731 555.07 7.44004C561.842 11.4754 567.947 16.5354 573.17 22.44C588.17 39.01 598.59 62.52 598.59 82.82V83.54C601.557 82.8461 604.673 83.1994 607.41 84.54L622.86 92.54C626.8 94.54 629.55 98.89 630.46 105.12C630.607 106.064 630.704 107.016 630.75 107.97C631.14 115.73 628.81 124.46 624.75 132.32C621.464 138.918 616.811 144.74 611.1 149.4C610.22 150.08 609.32 150.73 608.39 151.33C604.39 153.93 600.48 155.18 597.05 155.2C596.904 155.351 596.751 155.495 596.59 155.63C596.59 156.45 596.53 157.26 596.53 158.07C596.53 173.49 603.64 176.39 615.84 181.86L616.47 182.14C674.22 208.18 670.22 223.96 677.99 286.11C683.34 277.39 686.51 271.27 689.58 262.48C716.42 185.72 643.31 138.1 643.31 138.1Z" fill="#373A3A"/>
<path d="M597.03 155.18C596.884 155.331 596.73 155.475 596.57 155.61C596.57 155.47 596.57 155.32 596.57 155.17L597.03 155.18Z" fill="white"/>
<path d="M596.59 155.18C596.59 155.33 596.59 155.48 596.59 155.62C592.251 159.66 587.654 163.414 582.83 166.86C581.923 167.515 580.793 167.782 579.688 167.604C578.584 167.426 577.595 166.817 576.94 165.91C576.302 164.998 576.05 163.872 576.237 162.775C576.424 161.678 577.036 160.699 577.94 160.05C581.59 157.41 584.94 154.8 587.94 152.16L591.31 153.89C592.95 154.714 594.755 155.155 596.59 155.18Z" fill="#969A9E"/>
<path d="M592.87 346.67C592.06 347.15 591.26 347.67 590.47 348.12C586.95 335.67 582.71 317.6 577.56 286.84C576.655 281.435 577.314 275.883 579.46 270.84C593.6 237.89 604.34 233.66 604.34 220.24C604.34 209.53 600.6 204.07 594.97 199.9C602.538 194.507 609.716 188.585 616.45 182.18C687.03 214.03 665.34 230.53 685.77 335.18C684.48 330.04 677.63 327.69 670.3 326.62C665.798 326.025 661.26 325.748 656.72 325.79C635.56 325.76 612.64 334.95 592.87 346.67Z" fill="white"/>
<path d="M607.38 84.55L622.83 92.55C618.29 90.22 612.23 90.86 605.68 95.07C599.13 99.28 593.18 106.46 589.13 114.44C585.19 122.2 582.97 130.79 583.34 138.44C583.71 146.09 586.69 151.55 591.23 153.88L575.77 145.88C571.24 143.55 568.25 138.22 567.88 130.44C567.755 127.455 567.97 124.466 568.52 121.53C569.353 117.076 570.737 112.743 572.64 108.63C572.97 107.9 573.32 107.17 573.64 106.46C576.552 100.581 580.514 95.2843 585.33 90.83C586.845 89.4489 588.47 88.1947 590.19 87.08C592.719 85.3872 595.545 84.1893 598.52 83.55C601.5 82.8464 604.632 83.1999 607.38 84.55Z" fill="#FFC727"/>
<path d="M585.37 90.44V90.8201C580.554 95.2743 576.592 100.571 573.68 106.45C573.32 107.16 572.97 107.89 572.68 108.62C536.46 101.84 513.58 87.51 485.29 56.05C483.53 65.0967 482.13 73.6634 481.09 81.7501C472.53 61.5601 476.3 48.5401 489.09 36.3901C492.8 32.8501 496.53 29.6301 500.24 26.7301C504.621 23.2691 509.235 20.1149 514.05 17.2901C518.886 14.4055 523.961 11.943 529.22 9.93005C533.659 11.0017 537.913 12.7308 541.84 15.0601C543.789 16.1913 545.679 17.4229 547.5 18.7501C568.87 34.2801 585.37 64.89 585.37 90.44Z" fill="#373A3A"/>
<path d="M568.82 205.07C565.29 203.83 561.82 202.32 558.01 202.32C553.89 202.32 527.01 211.09 527.01 217.7C527.01 219.28 528.56 219.75 530.34 219.75C531.692 219.724 533.036 219.529 534.34 219.17C537.386 218.342 540.487 217.734 543.62 217.35C539.565 219.22 535.806 221.673 532.46 224.63C531.788 225.227 531.336 226.034 531.178 226.919C531.02 227.804 531.165 228.717 531.59 229.51C528.24 230.366 524.845 231.033 521.42 231.51C511.6 231.51 509.42 223.74 509.42 213.88C509.478 201.653 510.377 189.444 512.11 177.34C497.68 171.8 488.22 161.06 483.24 145.1C478.26 129.14 477.73 108.05 481.13 81.71C482.157 73.63 483.557 65.0633 485.33 56.01C513.62 87.47 536.5 101.8 572.72 108.58C570.828 112.697 569.444 117.029 568.6 121.48C568.05 124.416 567.835 127.405 567.96 130.39C568.33 138.17 571.32 143.5 575.85 145.83L587.94 152.07C584.94 154.71 581.6 157.32 577.94 159.96C577.036 160.609 576.424 161.588 576.237 162.685C576.05 163.782 576.302 164.908 576.94 165.82C572.29 169.03 567.37 172.14 562.17 175.3C561.91 174.96 561.66 174.61 561.41 174.3C560.649 173.215 559.539 172.424 558.265 172.059C556.99 171.695 555.629 171.78 554.41 172.3H554.33C553.45 172.676 552.677 173.267 552.084 174.018C551.49 174.769 551.093 175.657 550.93 176.6C548.996 174.398 546.359 172.933 543.468 172.454C540.576 171.975 537.608 172.512 535.068 173.973C532.527 175.435 530.57 177.73 529.53 180.471C528.49 183.211 528.431 186.227 529.362 189.006C530.294 191.785 532.158 194.156 534.639 195.716C537.121 197.276 540.065 197.929 542.974 197.565C545.882 197.2 548.574 195.84 550.593 193.715C552.612 191.591 553.834 188.833 554.05 185.91C557.813 193.066 562.868 199.464 568.96 204.78L568.82 205.07Z" fill="#DAE0E5"/>
<path d="M551.12 179.44C551.923 181.676 552.886 183.851 554 185.95C553.783 188.87 552.562 191.625 550.544 193.747C548.526 195.869 545.836 197.228 542.93 197.592C540.025 197.955 537.083 197.302 534.604 195.743C532.125 194.184 530.262 191.816 529.332 189.039C528.401 186.262 528.461 183.249 529.5 180.512C530.538 177.774 532.493 175.48 535.031 174.019C537.569 172.559 540.534 172.022 543.423 172.5C546.312 172.977 548.947 174.44 550.88 176.64C550.716 177.578 550.799 178.543 551.12 179.44Z" fill="#373A3A"/>
<path d="M531.54 229.51C531.827 230.045 532.226 230.512 532.71 230.88C532.71 230.88 532.71 230.88 532.77 230.88C533.383 231.328 534.111 231.593 534.869 231.642C535.627 231.692 536.384 231.525 537.05 231.16C541.82 228.62 547.47 226.16 552.21 226.16C556.78 226.16 559.95 228.99 563.29 232.57C549.01 253.17 527.09 253.57 527.09 285.13C527.09 316.69 529.09 399.2 547.57 446.65C512.2 445.05 483.57 427.1 459.7 400.89C457.493 398.456 456.33 395.253 456.46 391.97C456.54 389.82 456.6 387.67 456.6 385.53C456.677 373.979 454.643 362.511 450.6 351.69C445.6 337.84 439.32 327.28 439.32 311.13C439.32 295.13 445.46 283.42 446.88 265.9C440.348 257.443 434.711 248.331 430.06 238.71C426.996 232.425 424.308 225.964 422.01 219.36C442.92 178.27 448.79 147.36 483.13 145.11C488.13 161.11 497.57 171.81 512 177.35C510.267 189.454 509.368 201.663 509.31 213.89C509.31 223.75 511.52 231.52 521.31 231.52C524.755 231.042 528.17 230.371 531.54 229.51Z" fill="white"/>
<path d="M598.56 82.82V83.54C595.585 84.1793 592.759 85.3772 590.23 87.07C588.51 88.1847 586.885 89.4389 585.37 90.82V90.44C585.37 64.89 568.87 34.28 547.51 18.75C545.688 17.4229 543.799 16.1912 541.85 15.06C537.919 12.7298 533.662 11.0006 529.22 9.92998C525.663 9.08147 521.977 8.92193 518.36 9.45998C515.869 9.84139 513.468 10.6679 511.27 11.9L524.27 4.40998C531.13 0.409983 540.27 0.409978 550.48 5.09998C552.039 5.80958 553.561 6.59725 555.04 7.45998C561.812 11.4954 567.917 16.5553 573.14 22.46C588.15 39.01 598.56 62.52 598.56 82.82Z" fill="#FFC727"/>
<path d="M518.37 9.45996C516.489 11.8075 515.009 14.4498 513.99 17.28C509.188 20.1096 504.587 23.2671 500.22 26.73C502.32 19.91 506.12 14.91 511.12 12.02L511.32 11.9C513.505 10.6724 515.893 9.84601 518.37 9.45996Z" fill="#969A9E"/>
<path d="M244.28 181.79C244.565 181.722 244.857 181.688 245.15 181.69C249.15 181.69 252.38 188.23 254.73 191.02C276.25 216.45 275.09 209.07 300.73 212.02C285.13 198.44 274.11 199.37 269.06 192.45C268.379 191.528 268.035 190.401 268.086 189.256C268.136 188.111 268.579 187.018 269.339 186.161C270.1 185.303 271.132 184.733 272.262 184.545C273.393 184.357 274.554 184.564 275.55 185.13C301.55 199.28 323.11 185.98 342.55 228.39C344.2 232.016 346.448 235.339 349.2 238.22C368.6 258.42 388.2 278.52 405.31 300.64C411.98 286.22 414.61 287.24 430.16 238.79C434.811 248.411 440.448 257.523 446.98 265.98C445.56 283.5 439.42 295.26 439.42 311.21C439.42 327.36 445.72 337.92 450.7 351.77C433.81 386.77 427.1 390.86 417.24 390.86C392.91 390.86 363.24 341.32 310.14 256.86C308.044 253.491 305.209 250.642 301.85 248.53C286.06 238.73 274.77 244.97 263 239.71C250.22 234 237.05 199.59 237.05 193.39C237.223 190.906 238.003 188.503 239.32 186.39C240.58 184.12 242.38 182.26 244.28 181.79Z" fill="#DAE0E5"/>
<path d="M481.05 81.7501C472.49 61.5601 476.26 48.5401 489.05 36.3901C492.76 32.8501 496.49 29.6401 500.2 26.7301C504.589 23.2803 509.202 20.1267 514.01 17.2901C518.862 14.4093 523.95 11.9471 529.22 9.93005" stroke="#373A3A" stroke-width="3" stroke-linecap="round" stroke-linejoin="round"/>
<path d="M550.48 5.08004C588.48 2.17004 617.68 32.28 619.48 78.48C635.8 84.2 651.35 118.95 643.28 138.1C643.28 138.1 732.88 196.1 677.98 286.27" stroke="#373A3A" stroke-width="3" stroke-linecap="round" stroke-linejoin="round"/>
<path d="M572.64 108.62C536.42 101.84 513.54 87.51 485.25 56.05C483.49 65.0967 482.09 73.6634 481.05 81.7501C477.66 108.1 478.22 129.18 483.16 145.18C488.1 161.18 497.59 171.89 512.03 177.42C513.6 178.03 515.23 178.56 516.92 179.04C518.15 179.39 519.42 179.7 520.72 179.98" stroke="#373A3A" stroke-width="3" stroke-linecap="round" stroke-linejoin="round"/>
<path d="M508.22 109.05C508.595 111.62 508.785 114.213 508.79 116.81C508.79 132.95 501.62 134.15 501.62 139.81C501.62 143.48 506.68 146.07 510.06 147.39" stroke="#373A3A" stroke-width="3" stroke-linecap="round" stroke-linejoin="round"/>
<path d="M484.59 92.1801C489.126 92.5632 493.623 93.3089 498.04 94.41C500.921 95.1608 503.661 96.3768 506.15 98.0101" stroke="#373A3A" stroke-width="3" stroke-linecap="round" stroke-linejoin="round"/>
<path d="M528.49 109.89C535.55 112.16 545.59 118.89 548.23 125.97" stroke="#373A3A" stroke-width="3" stroke-linecap="round" stroke-linejoin="round"/>
<path d="M622.83 92.5199C618.29 90.1899 612.23 90.8299 605.68 95.0399C599.13 99.2499 593.18 106.43 589.13 114.41C585.19 122.17 582.97 130.76 583.34 138.41C583.71 146.06 586.69 151.51 591.23 153.85C592.9 154.675 594.728 155.129 596.59 155.18H597.03C600.46 155.18 604.33 153.91 608.37 151.31C609.3 150.71 610.2 150.06 611.08 149.38C616.791 144.72 621.444 138.897 624.73 132.3C628.73 124.44 631.12 115.71 630.73 107.95C630.684 106.996 630.587 106.044 630.44 105.1C629.5 98.8699 626.77 94.5399 622.83 92.5199Z" stroke="#373A3A" stroke-width="3" stroke-linecap="round" stroke-linejoin="round"/>
<path d="M614.63 108.44C612.44 107.31 609.53 107.63 606.37 109.64C602.969 112.019 600.233 115.227 598.42 118.96C596.534 122.51 595.578 126.48 595.64 130.5C595.81 134.24 597.26 136.81 599.44 137.92C601.62 139.03 604.53 138.73 607.67 136.7C611.033 134.378 613.744 131.231 615.54 127.56C617.48 123.965 618.474 119.935 618.43 115.85C618.22 112.12 616.81 109.56 614.63 108.44Z" stroke="#373A3A" stroke-width="3" stroke-linecap="round" stroke-linejoin="round"/>
<path d="M622.83 92.51L607.38 84.51C604.642 83.1741 601.528 82.821 598.56 83.51C595.587 84.1539 592.761 85.3514 590.23 87.04C588.512 88.1579 586.887 89.4119 585.37 90.79C580.556 95.2467 576.595 100.543 573.68 106.42C573.32 107.13 572.97 107.86 572.68 108.59C570.777 112.703 569.393 117.036 568.56 121.49C568.01 124.426 567.795 127.415 567.92 130.4C568.29 138.18 571.28 143.51 575.81 145.84L591.27 153.84" stroke="#373A3A" stroke-width="3" stroke-linecap="round" stroke-linejoin="round"/>
<path d="M518.38 9.43994C516.499 11.7875 515.019 14.4298 514 17.2599" stroke="#373A3A" stroke-width="3" stroke-linecap="round" stroke-linejoin="round"/>
<path d="M585.37 90.82V90.44C585.37 64.89 568.87 34.28 547.51 18.75C545.688 17.4229 543.799 16.1912 541.85 15.06C537.919 12.7298 533.662 11.0007 529.22 9.92999C525.664 9.07629 521.977 8.9167 518.36 9.45999C515.869 9.8414 513.468 10.6679 511.27 11.9" stroke="#373A3A" stroke-width="3" stroke-linecap="round" stroke-linejoin="round"/>
<path d="M598.56 83.52V82.82C598.56 62.52 588.15 39.01 573.14 22.44C567.917 16.5354 561.812 11.4754 555.04 7.44001C553.561 6.57728 552.039 5.78962 550.48 5.08001C540.28 0.410014 531.13 0.420012 524.27 4.39001L511.08 12C506.08 14.89 502.28 19.89 500.18 26.71" stroke="#373A3A" stroke-width="3" stroke-linecap="round" stroke-linejoin="round"/>
<path d="M554 185.95C553.783 188.87 552.562 191.625 550.544 193.747C548.526 195.869 545.836 197.228 542.93 197.592C540.025 197.955 537.083 197.302 534.604 195.743C532.125 194.184 530.262 191.816 529.332 189.039C528.401 186.262 528.461 183.249 529.5 180.512C530.538 177.774 532.493 175.48 535.031 174.019C537.569 172.559 540.534 172.022 543.423 172.5C546.312 172.977 548.947 174.44 550.88 176.64" stroke="#373A3A" stroke-width="3" stroke-linecap="round" stroke-linejoin="round"/>
<path d="M562.12 175.34C567.32 172.18 572.24 169.07 576.89 165.86" stroke="#373A3A" stroke-width="3" stroke-linecap="round" stroke-linejoin="round"/>
<path d="M597.03 155.18L596.57 155.61C592.194 159.607 587.6 163.359 582.81 166.85C581.903 167.505 580.773 167.772 579.668 167.594C578.564 167.416 577.575 166.807 576.92 165.9C576.282 164.988 576.03 163.862 576.217 162.765C576.404 161.668 577.016 160.689 577.92 160.04C581.392 157.591 584.73 154.957 587.92 152.15C588.07 152.01 588.22 151.89 588.37 151.76" stroke="#373A3A" stroke-width="3" stroke-linecap="round" stroke-linejoin="round"/>
<path d="M596.59 155.18C596.59 155.33 596.59 155.48 596.59 155.62C596.54 156.44 596.53 157.25 596.53 158.06C596.53 173.48 603.64 176.37 615.84 181.85L616.47 182.13C687.07 213.94 663.83 230.8 685.79 335.13C685.86 335.46 685.93 335.79 685.99 336.13" stroke="#373A3A" stroke-width="3" stroke-linecap="round" stroke-linejoin="round"/>
<path d="M483.16 145.18C448.82 147.45 442.95 178.34 422.04 219.43C424.338 226.034 427.026 232.495 430.09 238.78C434.741 248.401 440.378 257.513 446.91 265.97" stroke="#373A3A" stroke-width="3" stroke-linecap="round" stroke-linejoin="round"/>
<path d="M447 226.55C447 231.01 446.7 235.48 446.7 239.94C446.7 244.7 447.21 252.42 447.21 258.72C447.21 261.24 447.1 263.64 446.91 265.93C445.47 283.45 439.35 295.21 439.35 311.16C439.35 327.31 445.65 337.87 450.63 351.72C454.669 362.542 456.702 374.009 456.63 385.56C456.63 387.7 456.57 389.85 456.49 392C456.36 395.283 457.523 398.486 459.73 400.92C483.58 427.18 512.22 445.08 547.56 446.68" stroke="#373A3A" stroke-width="3" stroke-linecap="round" stroke-linejoin="round"/>
<path d="M568.91 204.82C562.818 199.504 557.763 193.106 554 185.95C552.886 183.851 551.924 181.676 551.12 179.44C550.799 178.543 550.716 177.578 550.88 176.64C551.045 175.697 551.442 174.81 552.036 174.06C552.629 173.309 553.401 172.718 554.28 172.34H554.36C555.579 171.82 556.94 171.735 558.215 172.099C559.489 172.464 560.599 173.255 561.36 174.34C561.61 174.7 561.86 175.05 562.12 175.34C573.12 190.07 586.28 193.44 594.97 199.87C600.6 204.04 604.34 209.5 604.34 220.21C604.34 233.63 593.6 237.86 579.46 270.81C577.315 275.853 576.655 281.405 577.56 286.81C582.71 317.57 586.95 335.64 590.47 348.09C597.6 373.29 601.81 375.51 604.86 413.32" stroke="#373A3A" stroke-width="3" stroke-linecap="round" stroke-linejoin="round"/>
<path d="M580.22 208.47C577.75 207.562 575.225 206.811 572.66 206.22C571.358 205.916 570.075 205.532 568.82 205.07C565.29 203.83 561.82 202.32 558.01 202.32C553.89 202.32 527.01 211.09 527.01 217.7C527.01 219.28 528.56 219.75 530.34 219.75C531.692 219.724 533.036 219.529 534.34 219.17C537.386 218.342 540.487 217.734 543.62 217.35" stroke="#373A3A" stroke-width="3" stroke-linecap="round" stroke-linejoin="round"/>
<path d="M568.39 216.52C564.39 215.52 560.31 214.52 556.18 214.52H556.07C551.748 214.576 547.487 215.551 543.57 217.38C539.515 219.25 535.755 221.703 532.41 224.66C531.737 225.257 531.286 226.064 531.128 226.949C530.97 227.834 531.115 228.747 531.54 229.54C531.827 230.075 532.226 230.542 532.71 230.91C532.71 230.91 532.71 230.91 532.77 230.91C533.383 231.358 534.111 231.623 534.869 231.672C535.627 231.722 536.383 231.555 537.05 231.19C541.82 228.65 547.47 226.19 552.21 226.19C556.78 226.19 559.95 229.02 563.29 232.6C549.01 253.2 527.09 253.6 527.09 285.16C527.09 316.72 529.09 399.22 547.57 446.68C555.69 467.53 566.98 481.61 582.68 481.61C611.68 481.61 637.16 426.79 653.63 380.19C655.54 374.78 657.33 369.49 658.99 364.4C664.04 348.95 667.88 335.4 670.28 326.59" stroke="#373A3A" stroke-width="3" stroke-linecap="round" stroke-linejoin="round"/>
<path d="M609.61 289.24C606.32 308.99 598.42 327.54 592.87 346.67" stroke="#373A3A" stroke-width="3" stroke-linecap="round" stroke-linejoin="round"/>
<path d="M590.47 348.12C591.26 347.63 592.06 347.12 592.87 346.67C612.64 334.95 635.56 325.76 656.7 325.76C661.24 325.718 665.778 325.996 670.28 326.59C677.61 327.65 684.44 330.01 685.75 335.15C685.901 335.738 685.975 336.343 685.97 336.95C685.97 345.95 673.43 355.95 658.97 364.4" stroke="#373A3A" stroke-width="3" stroke-linecap="round" stroke-linejoin="round"/>
<path d="M405.22 300.59C411.89 286.17 414.52 287.19 430.07 238.74" stroke="#373A3A" stroke-width="3" stroke-linecap="round" stroke-linejoin="round"/>
<path d="M450.63 351.72C433.74 386.72 427.03 390.81 417.17 390.81C392.84 390.81 363.17 341.27 310.07 256.81C307.974 253.441 305.139 250.592 301.78 248.48C285.99 238.68 274.7 244.92 262.93 239.66C250.15 233.95 236.98 199.54 236.98 193.34C237.153 190.856 237.932 188.453 239.25 186.34C240.58 184.11 242.38 182.25 244.25 181.78C244.535 181.712 244.827 181.678 245.12 181.68C249.12 181.68 252.35 188.22 254.7 191.01C276.22 216.44 275.06 209.06 300.7 212.01C285.1 198.43 274.08 199.36 269.03 192.44C268.349 191.518 268.005 190.391 268.055 189.246C268.106 188.101 268.549 187.008 269.309 186.151C270.07 185.293 271.101 184.723 272.232 184.535C273.363 184.347 274.523 184.554 275.52 185.12C301.52 199.27 323.08 185.97 342.52 228.38C344.17 232.006 346.418 235.329 349.17 238.21C368.57 258.41 388.17 278.51 405.28 300.63C409.84 306.54 414.28 312.63 418.38 318.83" stroke="#373A3A" stroke-width="3" stroke-linecap="round" stroke-linejoin="round"/>
<path d="M239.22 186.35C245.55 201.07 256.66 220.67 265.78 225.95" stroke="#373A3A" stroke-width="3" stroke-linecap="round" stroke-linejoin="round"/>
<path d="M244.28 181.79C251.23 194.27 256.84 206.12 267.67 216.79" stroke="#373A3A" stroke-width="3" stroke-linecap="round" stroke-linejoin="round"/>
<path d="M512.03 177.38C510.297 189.484 509.398 201.693 509.34 213.92C509.34 223.78 511.55 231.55 521.34 231.55C524.765 231.073 528.16 230.406 531.51 229.55" stroke="#373A3A" stroke-width="3" stroke-linecap="round" stroke-linejoin="round"/>
<path d="M594.97 199.87C602.538 194.486 609.715 188.575 616.45 182.18" stroke="#373A3A" stroke-width="3" stroke-linecap="round" stroke-linejoin="round"/>
<path d="M493.83 122.12C498.7 122.19 498.46 110.83 493.83 110.77C489.66 110.71 488.91 122.06 493.83 122.12Z" fill="#3A3A3A"/>
<path d="M528.83 141.52C533.98 141.7 534 129.66 529.14 129.52C524.68 129.34 523.63 141.33 528.83 141.52Z" fill="#3A3A3A"/>
<path d="M759.8 192.18C761.472 210.011 761.411 227.961 759.62 245.78C759.36 248.78 758.13 250.94 756.3 252L743.09 259.62C744.93 258.62 746.15 256.44 746.42 253.4C748.203 235.584 748.26 217.637 746.59 199.81C745.97 192.68 741.03 184.68 735.13 181.28L655.7 135.42C652.59 133.62 649.7 133.42 647.7 134.55L660.79 126.98C662.89 125.78 665.79 125.98 668.94 127.79L748.38 173.65C754.22 177.07 759.22 185.07 759.8 192.18Z" fill="#DAE0E5"/>
<path d="M746.59 199.83C748.26 217.657 748.203 235.604 746.42 253.42C746.15 256.42 744.93 258.59 743.09 259.64C741 260.85 738.09 260.64 734.94 258.84L687.58 231.49C681.86 237.16 674.43 245.21 656.93 236.62C662.52 236.06 668.93 229.14 668.93 220.72L655.93 213.19C649.99 209.76 645.02 201.69 644.45 194.53C642.83 174.35 642.45 159.53 644.28 140.73C644.57 137.73 645.83 135.59 647.7 134.57C649.78 133.43 652.63 133.64 655.7 135.44L735.13 181.3C741.03 184.7 745.97 192.7 746.59 199.83ZM721.28 211.72C721.182 209.935 720.664 208.198 719.77 206.65C718.875 205.102 717.628 203.786 716.13 202.81C713.29 201.17 710.98 202.5 710.98 205.81C711.076 207.597 711.593 209.336 712.488 210.886C713.383 212.436 714.631 213.753 716.13 214.73C718.97 216.33 721.28 215 721.28 211.72ZM700.56 199.72C700.465 197.934 699.949 196.196 699.054 194.647C698.159 193.099 696.91 191.784 695.41 190.81C692.57 189.17 690.27 190.49 690.27 193.81C690.366 195.595 690.882 197.331 691.775 198.879C692.668 200.428 693.913 201.743 695.41 202.72C698.22 204.37 700.56 203.04 700.56 199.76V199.72ZM679.72 187.72C679.624 185.934 679.108 184.196 678.215 182.646C677.322 181.096 676.077 179.779 674.58 178.8C671.73 177.16 669.43 178.49 669.43 181.8C669.527 183.585 670.044 185.323 670.939 186.871C671.834 188.419 673.081 189.734 674.58 190.71C677.42 192.34 679.72 191.01 679.72 187.73V187.72Z" fill="white"/>
<path d="M716.13 202.81C717.628 203.786 718.875 205.102 719.77 206.65C720.664 208.198 721.182 209.935 721.28 211.72C721.28 215 718.97 216.33 716.13 214.72C714.631 213.743 713.383 212.426 712.488 210.876C711.593 209.326 711.077 207.587 710.98 205.8C710.98 202.5 713.29 201.18 716.13 202.81Z" fill="#373A3A"/>
<path d="M695.41 190.85C696.91 191.824 698.159 193.139 699.054 194.687C699.949 196.236 700.465 197.974 700.56 199.76C700.56 203.04 698.26 204.37 695.41 202.76C693.913 201.783 692.668 200.468 691.775 198.919C690.882 197.371 690.366 195.635 690.27 193.85C690.27 190.53 692.57 189.18 695.41 190.85Z" fill="#373A3A"/>
<path d="M674.58 178.81C676.077 179.789 677.322 181.106 678.215 182.656C679.108 184.206 679.624 185.944 679.72 187.73C679.72 191.01 677.42 192.34 674.58 190.73C673.081 189.754 671.834 188.439 670.939 186.891C670.044 185.343 669.527 183.606 669.43 181.82C669.43 178.5 671.73 177.18 674.58 178.81Z" fill="#373A3A"/>
<path d="M743.09 259.64C740.99 260.85 738.09 260.64 734.94 258.84L687.58 231.49C681.86 237.16 674.43 245.21 656.93 236.62C662.52 236.06 668.93 229.14 668.93 220.72L655.93 213.19C649.99 209.76 645.02 201.69 644.45 194.53C642.83 174.35 642.45 159.53 644.28 140.73C644.57 137.73 645.83 135.59 647.7 134.57C649.78 133.43 652.63 133.64 655.7 135.44L735.13 181.3C741.03 184.7 745.97 192.7 746.59 199.83C748.26 217.657 748.203 235.604 746.42 253.42C746.15 256.46 744.93 258.58 743.09 259.64Z" stroke="#373A3A" stroke-width="3" stroke-linecap="round" stroke-linejoin="round"/>
<path d="M700.56 199.76C700.465 197.974 699.949 196.236 699.054 194.687C698.159 193.139 696.91 191.824 695.41 190.85C692.57 189.21 690.27 190.53 690.27 193.85C690.366 195.635 690.882 197.371 691.775 198.92C692.668 200.468 693.913 201.783 695.41 202.76C698.22 204.37 700.56 203.04 700.56 199.76Z" stroke="#373A3A" stroke-width="3" stroke-linecap="round" stroke-linejoin="round"/>
<path d="M679.72 187.73C679.624 185.944 679.108 184.206 678.215 182.656C677.322 181.106 676.077 179.789 674.58 178.81C671.73 177.17 669.43 178.5 669.43 181.81C669.527 183.596 670.044 185.333 670.939 186.881C671.834 188.429 673.081 189.744 674.58 190.72C677.42 192.34 679.72 191.01 679.72 187.73Z" stroke="#373A3A" stroke-width="3" stroke-linecap="round" stroke-linejoin="round"/>
<path d="M710.98 205.77C710.98 202.5 713.29 201.17 716.13 202.77C717.628 203.746 718.875 205.062 719.77 206.61C720.664 208.158 721.182 209.895 721.28 211.68C721.28 214.96 718.97 216.29 716.13 214.68C714.632 213.704 713.385 212.388 712.49 210.84C711.595 209.292 711.078 207.555 710.98 205.77Z" stroke="#373A3A" stroke-width="3" stroke-linecap="round" stroke-linejoin="round"/>
<path d="M743.09 259.64L756.3 252.02C758.13 250.96 759.36 248.83 759.62 245.8C761.411 227.981 761.472 210.031 759.8 192.2C759.18 185.07 754.23 177.07 748.34 173.67L668.9 127.81C665.74 125.98 662.9 125.81 660.75 127L647.55 134.63" stroke="#373A3A" stroke-width="3" stroke-linecap="round" stroke-linejoin="round"/>
<path d="M785.75 438.7C785.75 438.91 785.75 439.13 785.75 439.33C785.75 440.06 785.75 440.79 785.75 441.53C785.755 441.59 785.755 441.65 785.75 441.71C785.75 442.04 785.75 442.38 785.69 442.71C785.07 448.62 779.88 454.29 772.06 458.83L771.67 459.05V458.8C771.67 450.61 769.52 441.67 765.8 433.14C765.24 431.88 764.66 430.63 764.06 429.41H764.11C770.95 425.46 774.46 420.32 774.64 415.14C776.286 416.849 777.791 418.688 779.14 420.64C782.78 425.99 785.5 432.18 785.75 438.7Z" fill="#969A9E"/>
<path d="M785.65 442.71C785.65 442.38 785.7 442.04 785.71 441.71C785.71 442.044 785.69 442.378 785.65 442.71Z" fill="white"/>
<path d="M780.01 417.03C783.647 423.683 785.617 431.119 785.75 438.7C785.57 432.13 782.75 425.99 779.09 420.7C777.74 418.748 776.236 416.909 774.59 415.2C774.73 410.85 772.53 406.48 767.97 402.77C772.878 406.695 776.957 411.555 779.97 417.07L780.01 417.03Z" fill="#5F646B"/>
<path d="M772.01 458.87C779.83 454.33 785.01 448.66 785.64 442.75C785.155 450.071 782.966 457.178 779.247 463.503C775.528 469.829 770.382 475.197 764.22 479.18C769.33 475.68 771.59 468.18 771.63 459.09L772.01 458.87Z" fill="#5F646B"/>
<path d="M767.97 402.72C772.48 406.49 774.73 410.8 774.59 415.15C765.19 405.4 751.91 400.54 738.59 400.55C741.41 399.14 750.85 393.55 760.26 397.75C762.794 399.091 765.212 400.64 767.49 402.38L767.97 402.72Z" fill="#969A9E"/>
<path d="M774.59 415.18C774.41 420.36 770.9 425.5 764.06 429.45H764.01C756.72 414.82 745.92 404.19 738.63 400.55C751.91 400.54 765.22 405.4 774.59 415.18Z" fill="#DAE0E5"/>
<path d="M771.62 459.03V459.09C762.46 464.27 750.54 466.86 738.62 466.86V435.5C747.8 435.5 756.97 433.5 764 429.45C764.6 430.67 765.18 431.92 765.74 433.18C769.46 441.71 771.61 450.65 771.61 458.84L771.62 459.03Z" fill="#C2C7CC"/>
<path d="M771.62 459.09C771.62 468.14 769.32 475.68 764.21 479.18C756.596 484.124 747.708 486.747 738.63 486.73V466.86C750.54 466.86 762.46 464.27 771.62 459.09Z" fill="#5F646B"/>
<path d="M760.3 397.75C750.89 393.57 741.45 399.14 738.63 400.55V392.48C746.172 392.467 753.606 394.275 760.3 397.75Z" fill="white"/>
<path d="M764.01 429.45C757.01 433.45 747.81 435.5 738.63 435.5V400.5C745.92 404.18 756.72 414.82 764.01 429.45Z" fill="#DAE0E5"/>
<path d="M738.63 486.72C729.55 486.737 720.66 484.118 713.04 479.18C707.93 475.68 705.69 468.18 705.63 459.09C714.81 464.27 726.72 466.86 738.63 466.86V486.72Z" fill="#C2C7CC"/>
<path d="M738.63 435.5V466.86C726.72 466.86 714.81 464.27 705.63 459.09V458.84C705.63 450.65 707.8 441.71 711.51 433.18C712.06 431.92 712.64 430.67 713.26 429.45C720.27 433.49 729.46 435.5 738.63 435.5Z" fill="#DAE0E5"/>
<path d="M738.63 400.55V435.55C729.46 435.55 720.27 433.55 713.26 429.5C720.61 414.67 731.52 404.1 738.63 400.55Z" fill="white"/>
<path d="M738.63 392.49V400.55C735.17 398.82 726.09 393.69 716.95 397.75C723.648 394.276 731.085 392.468 738.63 392.48V392.49Z" fill="white"/>
<path d="M738.63 400.55C731.52 404.1 720.63 414.67 713.26 429.45H713.2C706.36 425.5 702.86 420.36 702.68 415.19C712.04 405.43 725.33 400.55 738.63 400.55Z" fill="white"/>
<path d="M716.95 397.75C726.09 393.69 735.17 398.82 738.63 400.55C725.33 400.55 712.04 405.43 702.68 415.16C702.52 410.66 704.87 406.16 709.68 402.38C711.955 400.616 714.389 399.066 716.95 397.75Z" fill="white"/>
<path d="M713.22 429.42H713.28C712.66 430.64 712.08 431.89 711.53 433.15C707.82 441.68 705.65 450.62 705.65 458.81V459.06L705.27 458.84C697.49 454.33 692.19 448.71 691.64 442.84C691.64 442.4 691.64 441.97 691.57 441.53C691.57 440.8 691.52 440.07 691.57 439.33V439.18C691.57 439.02 691.57 438.85 691.57 438.7C691.87 432.14 694.57 425.99 698.21 420.7C699.566 418.751 701.078 416.915 702.73 415.21C702.86 420.33 706.36 425.47 713.22 429.42Z" fill="white"/>
<path d="M705.63 459.09C705.69 468.14 707.93 475.68 713.04 479.18C706.896 475.199 701.762 469.843 698.045 463.536C694.327 457.229 692.128 450.144 691.62 442.84C692.3 448.73 697.47 454.36 705.25 458.84L705.63 459.09Z" fill="#DAE0E5"/>
<path d="M697.22 417.02C700.326 411.335 704.571 406.351 709.69 402.38C704.83 406.16 702.48 410.66 702.69 415.16C701.038 416.865 699.526 418.701 698.17 420.65C694.48 425.99 691.69 432.13 691.53 438.65C691.646 431.089 693.599 423.669 697.22 417.03V417.02Z" fill="white"/>
<path d="M691.55 441.53C691.55 441.97 691.55 442.4 691.62 442.84C691.572 442.405 691.548 441.968 691.55 441.53Z" fill="white"/>
<path d="M716.95 397.75C726.09 393.69 735.17 398.82 738.63 400.55C741.45 399.14 750.89 393.55 760.3 397.75" stroke="#373A3A" stroke-width="2" stroke-linecap="round" stroke-linejoin="round"/>
<path d="M713.04 479.18C707.93 475.68 705.66 468.18 705.63 459.09V458.84C705.63 450.65 707.8 441.71 711.51 433.18C712.06 431.92 712.65 430.67 713.26 429.45C720.65 414.69 731.52 404.1 738.63 400.55C745.92 404.19 756.74 414.82 764.01 429.45C764.61 430.67 765.19 431.92 765.75 433.18C769.47 441.71 771.62 450.65 771.62 458.84V459.09C771.62 468.14 769.32 475.68 764.21 479.18" stroke="#373A3A" stroke-width="2" stroke-linecap="round" stroke-linejoin="round"/>
<path d="M767.97 402.72C772.53 406.43 774.73 410.8 774.59 415.15C774.41 420.33 770.9 425.47 764.06 429.42H764.01C757.01 433.42 747.81 435.47 738.63 435.47C729.45 435.47 720.27 433.47 713.26 429.42H713.2C706.36 425.47 702.86 420.33 702.68 415.16C702.52 410.66 704.87 406.16 709.68 402.38" stroke="#373A3A" stroke-width="2" stroke-linecap="round" stroke-linejoin="round"/>
<path d="M691.52 438.7C691.68 432.13 694.52 425.99 698.16 420.7C699.516 418.751 701.028 416.915 702.68 415.21C712.06 405.5 725.33 400.61 738.63 400.6C751.93 400.59 765.19 405.45 774.63 415.2C776.276 416.909 777.781 418.748 779.13 420.7C782.82 426.04 785.61 432.18 785.79 438.7" stroke="#373A3A" stroke-width="2" stroke-linecap="round" stroke-linejoin="round"/>
<path d="M785.72 441.53C785.72 440.79 785.72 440.06 785.72 439.33C785.72 439.13 785.72 438.91 785.72 438.7C785.528 431.127 783.562 423.705 779.98 417.03C776.923 411.545 772.851 406.692 767.98 402.73L767.54 402.39C765.259 400.653 762.841 399.105 760.31 397.76C749.372 392.112 736.658 390.966 724.886 394.566C713.114 398.167 703.217 406.229 697.31 417.03C693.746 423.712 691.781 431.13 691.57 438.7C691.57 438.85 691.57 439.02 691.57 439.18V439.33C691.57 440.07 691.57 440.8 691.57 441.53C691.57 441.97 691.57 442.4 691.64 442.84C692.501 454.724 697.832 465.841 706.561 473.952C715.289 482.063 726.766 486.566 738.682 486.555C750.597 486.543 762.066 482.018 770.778 473.89C779.491 465.763 784.801 454.636 785.64 442.75" stroke="#373A3A" stroke-width="3" stroke-linecap="round" stroke-linejoin="round"/>
<path d="M785.65 442.71C785.65 442.38 785.7 442.04 785.71 441.71" stroke="#373A3A" stroke-width="3" stroke-linecap="round" stroke-linejoin="round"/>
<path d="M785.72 441.53C785.725 441.59 785.725 441.65 785.72 441.71C785.72 442.044 785.7 442.378 785.66 442.71C785.04 448.62 779.85 454.29 772.03 458.83L771.64 459.05C762.42 464.14 750.56 466.82 738.64 466.82C726.72 466.82 714.78 464.29 705.64 459.05L705.26 458.83C697.48 454.32 692.32 448.69 691.63 442.83C691.582 442.395 691.559 441.958 691.56 441.52" stroke="#373A3A" stroke-width="2" stroke-linecap="round" stroke-linejoin="round"/>
<path d="M738.63 392.49V486.72" stroke="#373A3A" stroke-width="2" stroke-linecap="round" stroke-linejoin="round"/>
<path d="M358.53 588.18C359.23 592.33 358.37 595.18 356.44 596.26L341.44 604.85C343.23 603.67 344.02 600.85 343.34 596.85L305.8 373.11C304.57 365.77 298.93 357.11 293.19 353.83L60.9901 219.77C58.6001 218.39 56.5801 218.15 55.1101 218.87L70.1101 210.28C71.5801 209.44 73.6801 209.63 76.1801 211.08L308.41 345.18C314.15 348.5 319.79 357.13 321.02 364.47L358.53 588.18Z" fill="white"/>
<path d="M179.3 395.68L221.9 420.27C223.53 421.27 224.57 420.27 224.22 418.2L219.92 392.97C219.479 390.745 218.192 388.777 216.33 387.48L173.73 362.89L164.27 357.44L150.11 349.27C148.48 348.33 147.44 349.27 147.79 351.35L152.09 376.58C152.532 378.808 153.823 380.777 155.69 382.07L179.3 395.68ZM343.3 596.83C343.98 600.83 343.19 603.62 341.4 604.83L341.22 604.94C339.75 605.78 337.64 605.59 335.14 604.14L208.83 531.18C213.28 510.75 219.47 491.18 227.34 475.85L224.22 457.18L153.03 416.08C151.346 417.416 149.925 419.054 148.84 420.91C138.56 438.13 130.62 459.91 124.84 482.74L102.94 470.1C97.2001 466.78 91.5601 458.1 90.3301 450.83L52.8301 227.06C52.1401 222.91 52.9901 220.06 54.9201 218.98L55.1101 218.87C56.5801 218.15 58.6001 218.39 60.9901 219.77L293.22 353.83C298.96 357.14 304.6 365.77 305.83 373.11L343.3 596.83Z" fill="#C2C7CC"/>
<path d="M249.84 599.66V610.53C249.84 612.39 248.48 614.34 245.84 615.86L186.51 650.12C181.66 652.93 174.33 653.23 170.14 650.81L74.84 595.81C72.94 594.71 72 593.24 72 591.7V580.81C72 582.35 72.94 583.81 74.84 584.92L170.14 639.92C174.33 642.34 181.66 642.04 186.51 639.23L245.84 604.97C248.48 603.46 249.84 601.5 249.84 599.66Z" fill="#969A9E"/>
<path d="M247.01 595.55C248.91 596.65 249.84 598.11 249.84 599.66C249.84 601.5 248.48 603.46 245.84 604.99L186.51 639.25C181.66 642.06 174.33 642.36 170.14 639.94L74.84 584.94C72.94 583.84 72 582.37 72 580.83C72 578.98 73.36 577.02 76 575.49L113.81 553.67C113.4 560.13 113.17 566.35 113.14 572.21L184.33 613.32L200.41 604.04C200.529 592.625 201.233 581.223 202.52 569.88L247.01 595.55Z" fill="white"/>
<path d="M224.22 418.18C224.57 420.28 223.53 421.18 221.9 420.25L217.22 417.55L211.64 384.75L216.38 387.48C218.242 388.777 219.529 390.745 219.97 392.97L224.22 418.18Z" fill="#5F646B"/>
<path d="M220.03 461.98C221.12 460.136 222.541 458.509 224.22 457.18L227.36 475.89C219.49 491.27 213.3 510.79 208.85 531.22C206.083 543.996 203.977 556.907 202.54 569.9C201.254 581.243 200.549 592.645 200.43 604.06L184.35 613.34C184.63 568.37 195.82 502.5 220.03 461.98Z" fill="#969A9E"/>
<path d="M224.22 457.18C222.544 458.523 221.13 460.164 220.05 462.02C195.84 502.54 184.65 568.41 184.35 613.34L113.14 572.18C113.14 566.32 113.4 560.1 113.81 553.64C115.348 529.692 119.029 505.93 124.81 482.64C130.56 459.81 138.5 438.03 148.81 420.81C149.895 418.954 151.315 417.316 153 415.98L224.22 457.18Z" fill="white"/>
<path d="M202.12 379.28L211.59 384.75L217.16 417.54L207.7 412.08L202.12 379.28Z" fill="#5F646B"/>
<path d="M202.12 379.28L207.7 412.08L198.23 406.61L192.66 373.81L202.12 379.28Z" fill="#5F646B"/>
<path d="M192.66 373.81L198.23 406.61L188.76 401.14L183.2 368.35L192.66 373.81Z" fill="#5F646B"/>
<path d="M183.2 368.35L188.76 401.14L179.29 395.67L173.73 362.89L183.2 368.35Z" fill="#5F646B"/>
<path d="M173.73 362.89L179.29 395.67L169.84 390.22L164.26 357.42L173.73 362.88V362.89Z" fill="#5F646B"/>
<path d="M169.84 390.22L160.37 384.75L154.79 351.96L164.26 357.41V357.42L169.84 390.22Z" fill="#5F646B"/>
<path d="M154.8 351.96L160.38 384.75L155.69 382.05C153.823 380.757 152.532 378.788 152.09 376.56L147.79 351.33C147.44 349.24 148.48 348.33 150.11 349.25L154.8 351.96Z" fill="#5F646B"/>
<path d="M341.22 604.91C339.75 605.75 337.64 605.56 335.14 604.11L208.83 531.18" stroke="#373A3A" stroke-width="3" stroke-linecap="round" stroke-linejoin="round"/>
<path d="M55.1101 218.87C56.5801 218.15 58.6001 218.39 60.9901 219.77L293.22 353.83C298.96 357.14 304.6 365.77 305.83 373.11L343.34 596.83C344.02 600.83 343.23 603.62 341.44 604.83" stroke="#373A3A" stroke-width="3" stroke-linecap="round" stroke-linejoin="round"/>
<path d="M124.85 482.7L102.95 470.06C97.2101 466.74 91.5701 458.06 90.3401 450.79L52.8301 227.06C52.1401 222.91 52.9901 220.06 54.9201 218.98" stroke="#373A3A" stroke-width="3" stroke-linecap="round" stroke-linejoin="round"/>
<path d="M173.73 362.89L216.33 387.48C218.192 388.777 219.478 390.745 219.92 392.97L224.22 418.18C224.57 420.28 223.53 421.18 221.9 420.25L155.69 382.03C153.823 380.737 152.532 378.768 152.09 376.54L147.79 351.31C147.44 349.22 148.48 348.31 150.11 349.23L164.27 357.4" stroke="#373A3A" stroke-width="3" stroke-linecap="round" stroke-linejoin="round"/>
<path d="M164.26 357.42L173.73 362.88" stroke="#373A3A" stroke-width="3" stroke-linecap="round" stroke-linejoin="round"/>
<path d="M154.79 351.96L160.37 384.75" stroke="#373A3A" stroke-width="3" stroke-linecap="round" stroke-linejoin="round"/>
<path d="M164.26 357.41V357.42L169.84 390.22" stroke="#373A3A" stroke-width="3" stroke-linecap="round" stroke-linejoin="round"/>
<path d="M173.73 362.88V362.89L179.29 395.67V395.69" stroke="#373A3A" stroke-width="3" stroke-linecap="round" stroke-linejoin="round"/>
<path d="M183.2 368.35L188.76 401.14V401.15" stroke="#373A3A" stroke-width="3" stroke-linecap="round" stroke-linejoin="round"/>
<path d="M192.66 373.82L198.23 406.61" stroke="#373A3A" stroke-width="3" stroke-linecap="round" stroke-linejoin="round"/>
<path d="M202.12 379.28L207.7 412.08" stroke="#373A3A" stroke-width="3" stroke-linecap="round" stroke-linejoin="round"/>
<path d="M211.59 384.75L217.16 417.54" stroke="#373A3A" stroke-width="3" stroke-linecap="round" stroke-linejoin="round"/>
<path d="M341.22 604.91L356.43 596.21C358.36 595.12 359.22 592.28 358.52 588.13L321.02 364.42C319.79 357.08 314.15 348.42 308.41 345.13L76.2199 211.08C73.7199 209.63 71.6199 209.44 70.1499 210.28L54.9299 218.98" stroke="#373A3A" stroke-width="3" stroke-linecap="round" stroke-linejoin="round"/>
<path d="M224.22 457.18L227.36 475.89C219.49 491.27 213.3 510.79 208.85 531.22C206.082 543.996 203.976 556.907 202.54 569.9C201.254 581.243 200.549 592.645 200.43 604.06L184.35 613.34C184.65 568.41 195.84 502.54 220.05 462.02C221.13 460.164 222.544 458.523 224.22 457.18Z" stroke="#373A3A" stroke-width="3" stroke-linecap="round" stroke-linejoin="round"/>
<path d="M184.33 613.3L113.14 572.18C113.14 566.32 113.4 560.1 113.81 553.64C115.353 529.693 119.034 505.931 124.81 482.64C130.57 459.81 138.5 438.03 148.81 420.81C149.895 418.954 151.315 417.316 153 415.98L224.22 457.18" stroke="#373A3A" stroke-width="3" stroke-linecap="round" stroke-linejoin="round"/>
<path d="M202.52 569.86L247.01 595.55C248.91 596.65 249.84 598.11 249.84 599.66C249.84 601.5 248.48 603.46 245.84 604.99L186.51 639.25C181.66 642.06 174.33 642.36 170.14 639.94L74.84 584.94C72.94 583.84 72 582.37 72 580.83C72 578.98 73.36 577.02 76 575.49L113.81 553.67" stroke="#373A3A" stroke-width="3" stroke-linecap="round" stroke-linejoin="round"/>
<path d="M71.99 580.81V591.68C71.99 593.22 72.93 594.68 74.83 595.79L170.13 650.79C174.32 653.21 181.65 652.91 186.5 650.1L245.83 615.84C248.48 614.32 249.83 612.37 249.83 610.51V599.66" stroke="#373A3A" stroke-width="3" stroke-linecap="round" stroke-linejoin="round"/>
<path d="M21.9 427.44L21 433.58C20.75 435.36 23.31 436.84 26.38 436.69L31.15 436.46C34.22 436.31 36.78 437.79 36.52 439.56L36.12 442.31C35.86 444.08 38.43 445.57 41.5 445.42L46.27 445.19C49.34 445.04 51.91 446.52 51.65 448.29L50.75 454.44" stroke="#373A3A" stroke-width="3" stroke-linecap="round" stroke-linejoin="round"/>
<path d="M600.262 525.179C604.938 524.075 607.835 519.39 606.731 514.713C605.627 510.037 600.941 507.141 596.265 508.244C591.589 509.348 588.692 514.034 589.796 518.71C590.9 523.387 595.586 526.283 600.262 525.179Z" fill="white" stroke="#373A3A" stroke-width="3" stroke-linecap="round" stroke-linejoin="round"/>
<path d="M52.5999 522.35C57.4048 522.35 61.2999 518.455 61.2999 513.65C61.2999 508.845 57.4048 504.95 52.5999 504.95C47.795 504.95 43.8999 508.845 43.8999 513.65C43.8999 518.455 47.795 522.35 52.5999 522.35Z" fill="white" stroke="#373A3A" stroke-width="3" stroke-linecap="round" stroke-linejoin="round"/>
<path d="M194.527 210.874C198.685 208.467 200.104 203.144 197.697 198.986C195.289 194.828 189.967 193.408 185.808 195.816C181.65 198.223 180.231 203.546 182.639 207.704C185.046 211.862 190.369 213.282 194.527 210.874Z" fill="white" stroke="#373A3A" stroke-width="3" stroke-linecap="round" stroke-linejoin="round"/>
</g>
<defs>
<clipPath id="clip0_2654_2340">
<rect width="787.25" height="653.94" fill="white"/>
</clipPath>
</defs>
</svg>
