<svg width="34" height="33" viewBox="0 0 34 33" fill="none" xmlns="http://www.w3.org/2000/svg">
<path d="M4.75705 0C2.25933 0 0.210938 2.04826 0.210938 4.54611C0.210938 11.2805 0.210938 18.0149 0.210938 24.7493C0.210784 25.7838 1.44828 26.3166 2.19972 25.6055L8.0924 20.0351H20.467C22.9647 20.0351 25.0108 17.9869 25.0108 15.489V4.54611C25.0108 2.04826 22.9647 0 20.467 0H4.75705ZM4.75705 2.35707H20.467C21.6994 2.35707 22.6538 3.31303 22.6538 4.54611V15.489C22.6538 16.7221 21.6994 17.678 20.467 17.678H7.62282C7.32148 17.6779 7.03154 17.7933 6.81258 18.0003L2.56801 22.0124C2.56801 16.1903 2.56801 10.3682 2.56801 4.54611C2.56801 3.31303 3.52465 2.35707 4.75705 2.35707Z" fill="white"/>
<path d="M28.4964 9.42871C27.8455 9.42871 27.3179 9.95636 27.3179 10.6072C27.3179 11.2581 27.8455 11.7858 28.4964 11.7858H29.0028C30.0475 11.7858 30.8535 12.5919 30.8535 13.6388C30.8535 18.8562 30.8535 24.0737 30.8535 29.2912L27.1844 26.2044C26.9716 26.0257 26.7026 25.9279 26.4248 25.9282H15.0261C13.9814 25.9282 13.1754 25.1221 13.1754 24.0752V23.5711C13.1754 22.9203 12.6478 22.3926 11.9969 22.3926C11.346 22.3926 10.8184 22.9203 10.8184 23.5711V24.0752C10.8184 26.3862 12.7154 28.2853 15.0261 28.2853H25.9943L31.2747 32.7232C32.0414 33.3659 33.2097 32.8214 33.2105 31.8209C33.2105 25.7602 33.2105 19.6995 33.2105 13.6388C33.2105 11.3278 31.3135 9.42871 29.0028 9.42871H28.4964Z" fill="white"/>
<path d="M8.46066 10.6073C8.46066 10.9199 8.33649 11.2196 8.11546 11.4407C7.89444 11.6617 7.59466 11.7859 7.28209 11.7859C6.96951 11.7859 6.66974 11.6617 6.44871 11.4407C6.22769 11.2196 6.10352 10.9199 6.10352 10.6073C6.10352 10.2947 6.22769 9.99493 6.44871 9.77391C6.66974 9.55288 6.96951 9.42871 7.28209 9.42871C7.59466 9.42871 7.89444 9.55288 8.11546 9.77391C8.33649 9.99493 8.46066 10.2947 8.46066 10.6073Z" fill="white"/>
<path d="M13.7653 10.6073C13.7653 10.9199 13.6412 11.2196 13.4202 11.4407C13.1991 11.6617 12.8994 11.7859 12.5868 11.7859C12.2742 11.7859 11.9744 11.6617 11.7534 11.4407C11.5324 11.2196 11.4082 10.9199 11.4082 10.6073C11.4082 10.2947 11.5324 9.99493 11.7534 9.77391C11.9744 9.55288 12.2742 9.42871 12.5868 9.42871C12.8994 9.42871 13.1991 9.55288 13.4202 9.77391C13.6412 9.99493 13.7653 10.2947 13.7653 10.6073Z" fill="white"/>
<path d="M19.0681 10.6073C19.0681 10.9199 18.9439 11.2196 18.7229 11.4407C18.5019 11.6617 18.2021 11.7859 17.8895 11.7859C17.5769 11.7859 17.2772 11.6617 17.0561 11.4407C16.8351 11.2196 16.7109 10.9199 16.7109 10.6073C16.7109 10.2947 16.8351 9.99493 17.0561 9.77391C17.2772 9.55288 17.5769 9.42871 17.8895 9.42871C18.2021 9.42871 18.5019 9.55288 18.7229 9.77391C18.9439 9.99493 19.0681 10.2947 19.0681 10.6073Z" fill="white"/>
</svg>
