<svg width="353" height="247" viewBox="0 0 353 247" fill="none" xmlns="http://www.w3.org/2000/svg">
<g clip-path="url(#clip0_1404_2776)">
<g opacity="0.22">
<path d="M187.418 238.855C156.104 242.105 93.08 236.713 63.0965 228.011C34.1223 219.596 15.7008 202.251 6.14266 182.742C-3.41548 163.233 -2.40629 137.333 13.0754 122.124C23.8841 111.5 40.609 106.613 47.4466 93.0617C51.4396 85.1084 51.1032 75.7831 51.8345 66.9127C53.6627 45.7674 62.9868 24.6809 79.7848 11.7751C96.5829 -1.13066 121.242 -4.36628 139.298 6.72726C154.963 16.3387 166.225 35.8111 184.588 36.2807C197.291 36.6035 207.895 27.3516 218.908 20.9831C236.203 10.9827 257.864 7.65906 276.513 14.7833C295.161 21.9075 309.75 40.4041 309.707 60.4341C309.707 69.686 306.847 79.5103 310.972 87.8231C313.005 91.8951 316.493 95.006 319.901 98.0068C329.02 106.078 338.33 114.222 344.575 124.655C356.093 143.907 355.376 169.205 345.08 189.147C334.783 209.089 315.864 223.77 294.854 231.504C273.843 239.237 216.824 237.571 187.425 238.841" fill="url(#paint0_linear_1404_2776)"/>
</g>
<path opacity="0.56" d="M177.634 247C246.795 247 302.862 244.356 302.862 241.094C302.862 237.832 246.795 235.188 177.634 235.188C108.472 235.188 52.4053 237.832 52.4053 241.094C52.4053 244.356 108.472 247 177.634 247Z" fill="url(#paint1_linear_1404_2776)"/>
<path d="M138.918 84.4276C138.74 81.0179 138.968 77.5991 139.598 74.2438C139.903 72.5469 140.314 70.8708 140.827 69.2253C141.358 67.5646 142.001 65.9419 142.75 64.3682C143.534 62.7859 144.444 61.2696 145.471 59.8339C146.537 58.3932 147.737 57.0568 149.054 55.8426L150.093 54.9695C150.268 54.8301 150.436 54.676 150.619 54.544L151.175 54.1478C151.548 53.891 151.906 53.6195 152.294 53.3774L153.471 52.6877C153.861 52.4542 154.264 52.2436 154.678 52.0567C155.087 51.866 155.49 51.6532 155.906 51.4771L157.172 50.9782L157.815 50.7434L158.466 50.5453L159.79 50.1638C160.228 50.0464 160.667 49.973 161.106 49.8703C161.545 49.7676 161.991 49.6796 162.437 49.6062C162.883 49.5328 163.336 49.4594 163.783 49.4154C165.567 49.2227 167.364 49.1688 169.158 49.254C172.655 49.4385 176.128 49.942 179.535 50.7581C182.906 51.4918 186.182 52.4749 189.422 53.4288C192.662 54.3826 195.865 55.4097 199.061 56.3636C202.256 57.3174 205.43 58.1685 208.626 58.8288C211.779 59.5239 214.983 59.9583 218.206 60.1274C221.355 60.3048 224.513 60.058 227.596 59.3937C230.658 58.7051 233.587 57.5205 236.269 55.8867C237.623 55.055 238.918 54.1308 240.145 53.1206L241.059 52.3429C241.359 52.0787 241.644 51.7999 241.944 51.5285L242.164 51.323L242.259 51.2423L242.346 51.1469L242.734 50.7361C242.997 50.4499 243.253 50.1418 243.509 49.841C244.53 48.5878 245.468 47.2692 246.317 45.8937C247.178 44.5051 247.962 43.0697 248.665 41.5942C250.085 38.6053 251.195 35.478 251.978 32.2615C252.755 28.9862 253.23 25.646 253.396 22.2832C253.583 23.9741 253.678 25.6739 253.682 27.3751C253.668 29.0912 253.565 30.8055 253.374 32.511C252.971 35.9437 252.168 39.3172 250.983 42.5627C249.79 45.8619 248.175 48.9916 246.178 51.8733C245.923 52.2328 245.659 52.607 245.381 52.9592L244.943 53.4948L244.818 53.6415L244.694 53.7809L244.467 54.023C244.16 54.3385 243.86 54.6687 243.553 54.9769L242.602 55.9087C241.302 57.1275 239.914 58.2482 238.449 59.2617C235.483 61.3259 232.178 62.8507 228.686 63.7666C225.219 64.676 221.642 65.0885 218.06 64.9919C214.556 64.8931 211.067 64.4906 207.631 63.7886C204.231 63.1136 200.911 62.2258 197.642 61.2867C194.373 60.3475 191.163 59.291 187.967 58.2932C184.771 57.2954 181.597 56.3269 178.423 55.5051C172.083 53.8983 165.633 52.8638 159.585 54.4486C156.554 55.1848 153.71 56.5466 151.233 58.4473C149.996 59.4316 148.848 60.5242 147.804 61.7122C146.76 62.9372 145.814 64.2423 144.973 65.6155C144.133 67.0159 143.383 68.4692 142.728 69.9663C142.068 71.4861 141.491 73.0415 141.002 74.6253C140.5 76.221 140.083 77.8423 139.752 79.4824C139.383 81.114 139.104 82.7649 138.918 84.4276Z" fill="#F69A2B"/>
<path d="M237.629 6.25182C235.958 6.07238 234.279 5.9842 232.598 5.98769C230.931 5.98769 229.263 6.04638 227.611 6.20046C225.966 6.35906 224.33 6.60396 222.711 6.93416C221.113 7.26762 219.538 7.70135 217.994 8.23281C216.483 8.77433 215.016 9.43171 213.606 10.1991C212.229 10.9723 210.925 11.8686 209.708 12.8771C207.344 14.9081 205.423 17.4056 204.063 20.2141C201.254 25.8196 200.925 32.3642 201.137 38.9161C201.276 42.2031 201.54 45.5194 201.869 48.8651C202.198 52.2108 202.505 55.5785 202.761 58.9828C203.017 62.3872 203.17 65.8282 203.119 69.306C203.084 72.8234 202.746 76.3312 202.11 79.7905C201.457 83.3244 200.31 86.7479 198.702 89.9596C197.071 93.1897 194.893 96.1115 192.267 98.5953C190.973 99.8227 189.59 100.951 188.128 101.97L187.031 102.704C186.658 102.946 186.299 103.174 185.904 103.401L185.619 103.577L185.458 103.672L185.29 103.768L184.676 104.083C184.266 104.281 183.857 104.465 183.447 104.641C180.225 105.988 176.843 106.913 173.385 107.392C169.971 107.879 166.513 107.961 163.08 107.634C161.385 107.475 159.698 107.23 158.027 106.901C156.372 106.539 154.736 106.091 153.127 105.558C156.434 106.093 159.783 106.324 163.132 106.248C166.442 106.157 169.734 105.719 172.953 104.942C174.54 104.566 176.103 104.095 177.633 103.533C179.151 102.988 180.632 102.343 182.065 101.603C182.416 101.42 182.796 101.229 183.104 101.031L183.586 100.738L183.696 100.672L183.798 100.598L184.04 100.422C184.369 100.187 184.698 99.9673 185.02 99.7252L185.97 98.9915C187.213 98.0006 188.384 96.9217 189.473 95.7632C191.63 93.4778 193.399 90.853 194.709 87.9933C196 85.1047 196.904 82.0581 197.401 78.9321C197.906 75.7341 198.151 72.4999 198.132 69.2619C198.132 65.9896 197.971 62.6587 197.73 59.357C197.488 56.0554 197.181 52.6877 196.911 49.3053C196.64 45.923 196.406 42.5039 196.369 39.0335C196.298 35.5213 196.543 32.0097 197.101 28.5416C197.391 26.7672 197.819 25.0181 198.38 23.3103C198.519 22.8775 198.695 22.4519 198.848 22.0264C199.002 21.6008 199.207 21.1899 199.39 20.7791C199.573 20.3682 199.741 19.9427 199.945 19.5465L200.596 18.3432L200.918 17.7489L201.284 17.1693L202.015 16.032C202.271 15.6579 202.564 15.2983 202.841 14.9462C203.111 14.5793 203.399 14.2267 203.704 13.8896L204.626 12.8845C204.94 12.5543 205.284 12.2608 205.613 11.9453L206.11 11.4831C206.279 11.3364 206.461 11.197 206.637 11.0575L207.705 10.2211C209.162 9.18071 210.714 8.28156 212.341 7.53579C213.957 6.82718 215.627 6.25058 217.336 5.8116C219.021 5.40856 220.731 5.11932 222.455 4.94583C224.156 4.78349 225.866 4.72958 227.574 4.78442C230.972 4.87284 234.347 5.36542 237.629 6.25182Z" fill="#F69A2B"/>
<path d="M229.85 5.17003L229.25 5.77148L252.797 29.4206L253.397 28.8191L229.85 5.17003Z" fill="#F69A2B"/>
<path d="M219.269 5.377L218.669 5.97852L250.904 38.3533L251.504 37.7517L219.269 5.377Z" fill="#F69A2B"/>
<path d="M213.471 9.76023L212.876 10.3672L247.62 44.6331L248.214 44.0261L213.471 9.76023Z" fill="#F69A2B"/>
<path d="M207.273 14.5989L206.678 15.2051L243.833 51.9391L244.428 51.3329L207.273 14.5989Z" fill="#F69A2B"/>
<path d="M201.8 20.5372L201.206 21.1445L237.873 57.257L238.467 56.6497L201.8 20.5372Z" fill="#F69A2B"/>
<path d="M199.956 28.9161L199.355 29.5176L231.591 61.8923L232.191 61.2908L199.956 28.9161Z" fill="#F69A2B"/>
<path d="M199.012 38.9395L198.426 39.5547L223.869 63.9562L224.455 63.3411L199.012 38.9395Z" fill="#F69A2B"/>
<path d="M139.518 79.8393L138.9 80.4219L163.991 107.228L164.609 106.646L139.518 79.8393Z" fill="#F69A2B"/>
<path d="M141.621 71.3967L141.007 71.9844L173.3 105.923L173.914 105.335L141.621 71.3967Z" fill="#F69A2B"/>
<path d="M144.511 64.0111L143.898 64.5996L180.88 103.358L181.493 102.77L144.511 64.0111Z" fill="#F69A2B"/>
<path d="M150.144 57.8892L149.527 58.4727L187.349 98.7683L187.967 98.1849L150.144 57.8892Z" fill="#F69A2B"/>
<path d="M156.965 54.0748L156.35 54.6602L192.727 93.1866L193.343 92.6012L156.965 54.0748Z" fill="#F69A2B"/>
<path d="M165.272 52.2711L164.665 52.8652L196.503 85.6327L197.111 85.0386L165.272 52.2711Z" fill="#F69A2B"/>
<path d="M175.348 51.5275L174.727 52.1074L198.709 77.9547L199.33 77.3748L175.348 51.5275Z" fill="#F69A2B"/>
<path d="M151.277 49.7442C151.925 50.1447 152.439 50.7288 152.756 51.4228C153.072 52.1167 153.177 52.8892 153.056 53.6427C152.935 54.3961 152.594 55.0967 152.076 55.6558C151.559 56.215 150.887 56.6075 150.147 56.7839C149.407 56.9603 148.632 56.9126 147.919 56.6468C147.206 56.3811 146.587 55.9092 146.141 55.2908C145.696 54.6724 145.443 53.9352 145.414 53.1726C145.386 52.41 145.584 51.656 145.982 51.0061C146.247 50.5743 146.595 50.1991 147.004 49.902C147.414 49.6049 147.877 49.3916 148.369 49.2744C148.861 49.1572 149.371 49.1384 149.87 49.219C150.369 49.2996 150.847 49.478 151.277 49.7442Z" fill="#F69A2B"/>
<path d="M122.488 80.3877C123.871 78.7694 123.684 76.3331 122.071 74.946C120.458 73.5589 118.029 73.7464 116.647 75.3647C115.264 76.983 115.451 79.4194 117.064 80.8064C118.677 82.1935 121.106 82.0061 122.488 80.3877Z" fill="#F69A2B"/>
<path d="M135.379 87.677C136.026 88.0775 136.541 88.6617 136.857 89.3556C137.174 90.0495 137.278 90.822 137.158 91.5755C137.037 92.3289 136.696 93.0295 136.178 93.5886C135.66 94.1478 134.989 94.5403 134.249 94.7167C133.509 94.8931 132.733 94.8454 132.02 94.5797C131.307 94.3139 130.689 93.842 130.243 93.2236C129.797 92.6052 129.544 91.8681 129.516 91.1054C129.488 90.3428 129.685 89.5888 130.084 88.9389C130.62 88.0684 131.479 87.4467 132.471 87.2102C133.464 86.9736 134.509 87.1415 135.379 87.677Z" fill="#F69A2B"/>
<path d="M51.418 32.5546C51.5482 31.8021 51.898 31.1054 52.4231 30.5525C52.9482 29.9996 53.625 29.6154 54.3678 29.4486C55.1107 29.2818 55.8861 29.3399 56.596 29.6155C57.3059 29.8911 57.9184 30.3717 58.3559 30.9967C58.7934 31.6217 59.0362 32.3628 59.0536 33.1263C59.0711 33.8898 58.8624 34.6413 58.4539 35.2857C58.0454 35.9302 57.4555 36.4385 56.7589 36.7464C56.0623 37.0543 55.2904 37.148 54.5407 37.0155C53.5376 36.8382 52.6455 36.269 52.0601 35.4328C51.4747 34.5965 51.2438 33.5614 51.418 32.5546Z" fill="#F69A2B"/>
<path d="M127.313 55.3798C127.96 55.7811 128.474 56.3658 128.79 57.0602C129.106 57.7545 129.209 58.5272 129.088 59.2807C128.966 60.0341 128.624 60.7344 128.106 61.2929C127.587 61.8515 126.915 62.2433 126.175 62.4187C125.434 62.5942 124.659 62.5454 123.946 62.2786C123.233 62.0118 122.615 61.5389 122.17 60.9198C121.725 60.3007 121.473 59.5631 121.446 58.8003C121.419 58.0375 121.618 57.2838 122.018 56.6344C122.283 56.2025 122.63 55.8273 123.04 55.5303C123.45 55.2334 123.914 55.0205 124.406 54.9039C124.898 54.7874 125.408 54.7694 125.906 54.8511C126.405 54.9327 126.883 55.1124 127.313 55.3798Z" fill="#F69A2B"/>
<path d="M113.498 39.3992C114.146 39.7996 114.662 40.3839 114.979 41.0783C115.296 41.7726 115.4 42.5457 115.279 43.2996C115.158 44.0536 114.816 44.7546 114.298 45.3138C113.78 45.873 113.108 46.2653 112.367 46.4411C111.626 46.6169 110.85 46.5682 110.137 46.3012C109.424 46.0343 108.805 45.561 108.36 44.9414C107.915 44.3217 107.664 43.5836 107.637 42.8203C107.611 42.0571 107.81 41.3031 108.211 40.6538C108.747 39.785 109.605 39.165 110.596 38.9298C111.587 38.6946 112.631 38.8634 113.498 39.3992Z" fill="#F69A2B"/>
<path d="M121.131 26.4035C122.68 24.945 122.758 22.5028 121.304 20.9485C119.85 19.3943 117.416 19.3166 115.867 20.7751C114.317 22.2337 114.24 24.676 115.694 26.2302C117.148 27.7845 119.582 27.8621 121.131 26.4035Z" fill="#F69A2B"/>
<path d="M87.6028 66.8399C88.2503 67.2404 88.7649 67.8246 89.0815 68.5185C89.3981 69.2124 89.5026 69.9849 89.3817 70.7384C89.2608 71.4918 88.9199 72.1924 88.4022 72.7515C87.8844 73.3107 87.2131 73.7033 86.473 73.8797C85.733 74.056 84.9574 74.0083 84.2443 73.7426C83.5313 73.4768 82.9127 73.0049 82.467 72.3865C82.0212 71.7681 81.7682 71.031 81.74 70.2683C81.7117 69.5057 81.9094 68.7517 82.3082 68.1018C82.5731 67.67 82.9203 67.2949 83.3298 66.9977C83.7393 66.7006 84.2032 66.4873 84.6949 66.3701C85.1866 66.2529 85.6964 66.2341 86.1954 66.3147C86.6944 66.3953 87.1726 66.5738 87.6028 66.8399Z" fill="#F69A2B"/>
<path d="M90.9889 46.627C91.6361 47.0283 92.1501 47.6131 92.466 48.3074C92.782 49.0017 92.8856 49.7745 92.7638 50.5279C92.642 51.2813 92.3003 51.9816 91.7818 52.5402C91.2633 53.0987 90.5914 53.4905 89.8509 53.666C89.1105 53.8414 88.3349 53.7927 87.6221 53.5258C86.9093 53.259 86.2914 52.7862 85.8465 52.167C85.4016 51.5479 85.1497 50.8103 85.1226 50.0475C85.0955 49.2847 85.2944 48.531 85.6942 47.8817C85.9598 47.4505 86.3074 47.076 86.7172 46.7796C87.1269 46.4832 87.5909 46.2706 88.0825 46.1541C88.5742 46.0376 89.0839 46.0194 89.5826 46.1006C90.0813 46.1817 90.5591 46.3606 90.9889 46.627Z" fill="#F69A2B"/>
<path d="M100.693 79.5107C101.34 79.9119 101.854 80.4967 102.17 81.191C102.486 81.8854 102.59 82.6581 102.468 83.4115C102.346 84.165 102.004 84.8652 101.486 85.4238C100.967 85.9824 100.295 86.3741 99.5551 86.5496C98.8147 86.725 98.0391 86.6763 97.3263 86.4095C96.6135 86.1427 95.9956 85.6698 95.5506 85.0507C95.1057 84.4315 94.8538 83.6939 94.8267 82.9312C94.7996 82.1684 94.9985 81.4147 95.3984 80.7653C95.6632 80.3334 96.0105 79.9582 96.4202 79.6612C96.8299 79.3642 97.294 79.1513 97.786 79.0348C98.2779 78.9182 98.7879 78.9003 99.2868 78.9819C99.7857 79.0636 100.264 79.2433 100.693 79.5107Z" fill="#F69A2B"/>
<path d="M71.6967 30.455C71.8269 29.7025 72.1767 29.0058 72.7018 28.4529C73.2269 27.9 73.9037 27.5158 74.6466 27.349C75.3894 27.1822 76.1648 27.2403 76.8747 27.5159C77.5846 27.7914 78.1971 28.2721 78.6346 28.8971C79.0721 29.5221 79.3149 30.2632 79.3323 31.0267C79.3498 31.7902 79.141 32.5417 78.7326 33.1861C78.3241 33.8305 77.7342 34.3389 77.0376 34.6468C76.341 34.9547 75.569 35.0484 74.8194 34.9159C74.3218 34.8299 73.8461 34.6461 73.4195 34.3751C72.993 34.1041 72.624 33.7512 72.3338 33.3366C72.0436 32.9221 71.838 32.4541 71.7286 31.9596C71.6193 31.4651 71.6084 30.9537 71.6967 30.455Z" fill="#F69A2B"/>
<path d="M164.66 64.5285C165.307 64.9291 165.822 65.5132 166.139 66.2071C166.455 66.901 166.56 67.6736 166.439 68.427C166.318 69.1805 165.977 69.8811 165.459 70.4402C164.942 70.9993 164.27 71.3919 163.53 71.5683C162.79 71.7447 162.014 71.697 161.301 71.4312C160.588 71.1654 159.97 70.6935 159.524 70.0751C159.078 69.4567 158.825 68.7196 158.797 67.957C158.769 67.1943 158.967 66.4404 159.365 65.7905C159.902 64.92 160.76 64.2983 161.753 64.0617C162.745 63.8252 163.791 63.9931 164.66 64.5285Z" fill="#F69A2B"/>
<path d="M157.018 84.3242C157.665 84.7248 158.18 85.3089 158.497 86.0028C158.813 86.6968 158.918 87.4693 158.797 88.2227C158.676 88.9762 158.335 89.6768 157.817 90.2359C157.3 90.795 156.628 91.1876 155.888 91.364C155.148 91.5404 154.372 91.4927 153.659 91.2269C152.946 90.9611 152.328 90.4892 151.882 89.8708C151.436 89.2524 151.183 88.5153 151.155 87.7527C151.127 86.99 151.324 86.2361 151.723 85.5862C151.988 85.1544 152.335 84.7792 152.745 84.4821C153.154 84.185 153.618 83.9717 154.11 83.8545C154.602 83.7373 155.112 83.7185 155.61 83.7991C156.109 83.8797 156.588 84.0581 157.018 84.3242Z" fill="#F69A2B"/>
<path d="M119.89 78.2271L98.5724 83.1796L98.4335 83.0548L84.6704 71.1322L88.6487 49.6495L111.597 42.3125L125.704 58.6226L119.89 78.2271ZM98.7699 82.3578L119.312 77.6108L124.885 58.7474L111.363 43.1049L89.2922 50.1631L85.4602 70.8021L98.7699 82.3578Z" fill="#F69A2B"/>
<path d="M155.263 87.9419L133.236 91.3536L120.687 79.0127L121.199 78.4918L133.485 90.5759L154.736 87.2815L162.218 67.8972L149.127 53.436L127.378 58.4031L127.218 57.6841L149.383 52.6289L163.066 67.7431L155.263 87.9419Z" fill="#F69A2B"/>
<path d="M75.6605 30.7344L89.2774 50.5443L88.6777 50.9551L75.3022 31.5121L55.2426 33.5591L55.1694 32.8328L75.6605 30.7344Z" fill="#F69A2B"/>
<path d="M118.124 23.4355L111.873 40.9531L112.561 41.2005L118.813 23.6829L118.124 23.4355Z" fill="#F69A2B"/>
<path d="M199.075 174.378C194.973 153.834 195.419 127.795 203.573 108.528C211.727 89.2613 226.975 72.7971 246.208 64.6237C256.878 60.0895 268.439 58.1451 279.453 54.528C288 51.7222 296.19 47.9227 303.856 43.207C304.697 42.6861 309.115 39.2891 309.115 39.2891C309.985 39.2891 308.946 45.4888 308.683 47.5799C306.592 63.9927 304.463 80.545 299.059 96.1728C293.655 111.801 284.645 126.651 271.182 136.211C259.964 144.171 246.442 147.994 233.52 152.675C220.598 157.356 207.456 163.431 199.097 174.378" fill="url(#paint2_linear_1404_2776)"/>
<path d="M203.105 167.702C205.184 157.759 208.957 148.251 214.257 139.594C219.61 130.848 225.866 122.691 232.92 115.257C240.586 107.01 248.834 99.3274 257.602 92.2705C265.646 85.77 274.224 79.9444 282.466 73.6419C290.393 67.5522 298.035 60.9636 304.171 53.0176C304.902 52.0638 305.633 51.1027 306.299 50.1195C306.613 49.6719 305.882 49.2464 305.568 49.6939C299.761 57.9921 292.243 64.8815 284.36 71.118C276.316 77.4498 267.862 83.1873 259.81 89.4605C250.847 96.4736 242.399 104.124 234.529 112.352C227.397 119.667 220.995 127.663 215.413 136.226C209.829 144.71 205.666 154.054 203.09 163.887C202.79 165.09 202.527 166.294 202.286 167.504C202.176 168.04 203.017 168.238 203.105 167.732V167.702Z" fill="white"/>
<path d="M215.01 138.332C218.632 133.848 222.864 129.896 227.581 126.593C232.294 123.313 237.286 120.458 242.5 118.06C245.22 116.776 247.97 115.558 250.771 114.458C253.894 113.24 257.067 112.169 260.241 111.097C266.201 109.102 272.198 107.099 277.793 104.157C282.758 101.537 287.446 98.1695 290.956 93.7306C291.387 93.1804 291.804 92.6227 292.199 92.0505C292.514 91.5956 291.775 91.17 291.468 91.6176C288.228 96.2986 283.694 99.879 278.78 102.623C273.368 105.675 267.488 107.759 261.616 109.718C258.442 110.789 255.261 111.838 252.109 113.012C249.235 114.091 246.412 115.301 243.626 116.578C238.394 118.912 233.363 121.676 228.583 124.84C223.844 127.981 219.541 131.738 215.785 136.014C215.317 136.557 214.857 137.114 214.403 137.679C214.067 138.097 214.659 138.706 215.003 138.281L215.01 138.332Z" fill="white"/>
<path d="M224.079 125.331C224.21 121.389 224.652 117.464 225.402 113.592C226.197 109.51 227.277 105.489 228.635 101.559C230.007 97.5818 231.672 93.7119 233.615 89.9816C235.506 86.3093 237.708 82.8064 240.197 79.5117C242.563 76.3906 245.26 73.5368 248.241 71.0008C248.607 70.7 248.972 70.4065 249.338 70.113C249.417 70.0332 249.462 69.925 249.462 69.8122C249.462 69.6994 249.417 69.5912 249.338 69.5114C249.257 69.435 249.15 69.3926 249.038 69.3926C248.927 69.3926 248.82 69.435 248.738 69.5114C245.661 71.9677 242.872 74.7663 240.423 77.8536C237.832 81.0991 235.531 84.5683 233.549 88.2207C231.512 91.9628 229.757 95.8525 228.298 99.8572C226.871 103.798 225.727 107.836 224.876 111.941C224.036 115.887 223.508 119.893 223.296 123.923C223.296 124.392 223.252 124.862 223.238 125.331C223.238 125.444 223.283 125.552 223.362 125.632C223.442 125.712 223.549 125.757 223.662 125.757C223.774 125.757 223.882 125.712 223.962 125.632C224.041 125.552 224.086 125.444 224.086 125.331H224.079Z" fill="white"/>
<path d="M268.352 83.9134C269.624 80.5971 271.021 77.3101 272.615 74.1552C274.23 70.7807 276.191 67.5841 278.466 64.6171C279.628 63.1327 280.958 61.7884 282.429 60.6111C282.509 60.5313 282.554 60.4231 282.554 60.3103C282.554 60.1974 282.509 60.0892 282.429 60.0094C282.348 59.9331 282.241 59.8906 282.13 59.8906C282.018 59.8906 281.911 59.9331 281.83 60.0094C279.107 62.285 276.796 65.0154 274.999 68.0801C272.994 71.3407 271.229 74.7444 269.719 78.2639C268.937 80.0468 268.198 81.8517 267.525 83.6639C267.51 83.7174 267.505 83.7734 267.512 83.8288C267.518 83.8841 267.535 83.9376 267.562 83.9861C267.59 84.0346 267.626 84.0772 267.67 84.1113C267.714 84.1455 267.764 84.1705 267.818 84.1848C267.926 84.2126 268.041 84.1976 268.139 84.1431C268.237 84.0885 268.311 83.9985 268.344 83.8914L268.352 83.9134Z" fill="white"/>
<path d="M136.878 190.438C131.028 173.967 119.612 155.492 105.52 145.213C91.4275 134.934 73.496 129.681 56.2153 132.094C46.6425 133.437 37.5232 137.018 28.0967 139.16C20.7802 140.826 13.294 141.624 5.79192 141.537C4.96555 141.537 0.351023 140.994 0.351023 140.994C-0.277898 141.368 3.11536 145.396 4.205 146.754C12.7101 157.605 21.3029 168.545 31.8556 177.415C42.4083 186.285 55.2061 193.05 68.9327 194.107C80.3702 194.987 91.6908 191.906 102.946 189.704C114.2 187.503 126.208 186.205 136.878 190.438Z" fill="url(#paint3_linear_1404_2776)"/>
<path d="M131.137 187.365C125.401 181.136 118.637 175.947 111.143 172.023C103.575 168.071 95.6136 164.926 87.3907 162.639C78.3744 160.025 69.1827 158.064 59.8864 156.77C51.3375 155.581 42.7154 155.09 34.1372 154.107C25.8589 153.153 17.5659 151.722 9.77752 148.67C8.84877 148.303 7.92735 147.936 7.01322 147.511C6.59638 147.327 6.94738 146.703 7.35691 146.887C15.0648 150.343 23.3944 152.023 31.7239 153.101C40.1851 154.187 48.7048 154.649 57.1586 155.699C66.5748 156.874 75.8957 158.72 85.0505 161.223C93.2845 163.395 101.287 166.371 108.942 170.109C116.536 173.791 123.48 178.693 129.499 184.621C130.23 185.355 130.962 186.088 131.62 186.866C131.927 187.204 131.437 187.717 131.13 187.38L131.137 187.365Z" fill="white"/>
<path d="M110.061 171.473C105.555 169.828 100.841 168.826 96.0567 168.494C91.2769 168.172 86.4781 168.273 81.7159 168.795C79.2221 169.052 76.7284 169.36 74.2566 169.778C71.4995 170.248 68.7718 170.842 66.0367 171.444C60.9176 172.574 55.7985 173.725 50.5038 174.019C45.7977 174.387 41.0666 173.772 36.6091 172.214C36.0679 172.009 35.5267 171.781 35.0002 171.546C34.4737 171.312 34.9271 170.732 35.3366 170.923C39.6943 172.77 44.4117 173.605 49.1363 173.366C54.3212 173.219 59.4184 172.17 64.4937 171.062C67.2288 170.461 69.9565 169.844 72.7062 169.338C75.2219 168.876 77.7595 168.524 80.3118 168.237C85.0544 167.662 89.8361 167.478 94.6087 167.687C99.347 167.901 104.036 168.742 108.555 170.189C109.125 170.372 109.688 170.578 110.259 170.783C110.675 170.945 110.507 171.634 110.083 171.473H110.061Z" fill="white"/>
<path d="M98.0094 166.087C96.2327 163.314 94.2371 160.689 92.0419 158.236C89.7276 155.653 87.235 153.235 84.5826 151.002C81.9005 148.731 79.0554 146.661 76.0703 144.81C73.1342 142.998 70.049 141.442 66.8485 140.158C63.8224 138.937 60.6708 138.056 57.4513 137.531C57.0637 137.465 56.6761 137.414 56.2885 137.363C56.1985 137.337 56.1214 137.278 56.0727 137.198C56.0239 137.118 56.007 137.022 56.0253 136.93C56.051 136.84 56.11 136.763 56.1902 136.715C56.2704 136.668 56.3657 136.652 56.4567 136.673C59.7054 137.112 62.8945 137.917 65.9637 139.072C69.2075 140.28 72.3376 141.775 75.317 143.54C78.3749 145.344 81.2937 147.374 84.0488 149.615C86.7707 151.818 89.3297 154.216 91.7056 156.791C93.9945 159.255 96.0852 161.897 97.9582 164.693C98.1776 165.016 98.3897 165.346 98.6017 165.676C98.8138 166.006 98.2434 166.41 97.9947 166.043L98.0094 166.087Z" fill="white"/>
<path d="M48.6317 155.442C46.3109 153.609 43.8994 151.895 41.4064 150.306C38.8069 148.593 36.0346 147.159 33.1354 146.029C31.6701 145.462 30.1433 145.07 28.5867 144.862C28.4955 144.84 28.4169 144.782 28.3682 144.701C28.3195 144.621 28.3047 144.524 28.327 144.433C28.3493 144.341 28.407 144.262 28.4872 144.214C28.5674 144.165 28.6637 144.15 28.7549 144.172C31.675 144.63 34.4949 145.588 37.0917 147.004C39.925 148.475 42.6456 150.155 45.2311 152.03C46.5474 152.969 47.8492 153.945 49.1216 154.965C49.1544 154.998 49.1803 155.037 49.1981 155.079C49.2158 155.122 49.2249 155.168 49.2249 155.214C49.2249 155.261 49.2158 155.307 49.1981 155.35C49.1803 155.392 49.1544 155.431 49.1216 155.464C49.0536 155.529 48.9633 155.565 48.8694 155.565C48.7754 155.565 48.685 155.529 48.617 155.464L48.6317 155.442Z" fill="white"/>
<g opacity="0.6">
<path d="M130.267 176.146C134.369 155.602 133.923 129.571 125.769 110.304C117.615 91.0367 102.368 74.5652 83.1344 66.3918C72.472 61.8575 60.9027 59.9132 49.8966 56.3034C41.3568 53.4974 33.1739 49.6979 25.515 44.9824C24.6667 44.4615 20.2496 41.0645 20.2496 41.0645C19.3794 41.0645 20.4178 47.2642 20.6884 49.3553C22.7799 65.7681 24.9007 82.3131 30.305 97.9482C35.7094 113.583 44.7263 128.426 58.1823 137.979C69.4005 145.947 82.9223 149.769 95.8517 154.443C108.781 159.117 121.908 165.206 130.267 176.146Z" fill="url(#paint4_linear_1404_2776)"/>
</g>
<path d="M126.245 169.477C124.161 159.534 120.389 150.023 115.092 141.362C109.744 132.62 103.499 124.463 96.4588 117.025C88.7878 108.783 80.5396 101.101 71.7773 94.0385C63.7329 87.5379 55.1548 81.7123 46.913 75.4099C38.993 69.3275 31.3435 62.7389 25.2079 54.7856C24.4766 53.8366 23.7672 52.8731 23.0798 51.8948C22.7653 51.4472 23.5039 51.0143 23.8111 51.4619C29.6176 59.7674 37.1427 66.6495 45.0189 72.8933C53.0632 79.2251 61.5244 84.9626 69.576 91.2358C78.5346 98.2511 86.9808 105.901 94.8499 114.127C101.98 121.444 108.382 129.44 113.966 138.002C119.513 146.476 123.646 155.802 126.201 165.611C126.493 166.807 126.764 168.017 126.998 169.228C127.108 169.764 126.267 169.962 126.186 169.455L126.245 169.477Z" fill="white"/>
<path d="M114.332 140.101C110.713 135.617 106.483 131.665 101.768 128.362C97.0493 125.099 92.055 122.256 86.8425 119.865C84.1293 118.582 81.3723 117.364 78.5714 116.27C75.4561 115.045 72.2822 113.974 69.0645 112.91C63.1044 110.907 57.1077 108.904 51.5132 105.969C46.5403 103.35 41.8527 99.9749 38.3497 95.536C37.9183 94.9931 37.5014 94.4354 37.0992 93.8558C36.7921 93.4083 37.5234 92.9827 37.8305 93.4303C41.0629 98.1039 45.597 101.684 50.5113 104.436C55.9303 107.488 61.8099 109.572 67.675 111.531C70.8561 112.602 74.0373 113.644 77.1819 114.825C80.0559 115.896 82.8788 117.107 85.6724 118.383C90.8993 120.724 95.9277 123.487 100.708 126.645C105.447 129.787 109.75 133.544 113.506 137.819C113.981 138.369 114.442 138.92 114.895 139.485C115.232 139.91 114.632 140.512 114.288 140.086L114.332 140.101Z" fill="white"/>
<path d="M105.264 127.107C105.141 123.164 104.698 119.238 103.94 115.367C103.153 111.281 102.073 107.257 100.708 103.327C99.3358 99.3497 97.6712 95.4798 95.7278 91.7495C93.8372 88.079 91.6352 84.5785 89.146 81.287C86.7819 78.1642 84.0844 75.3103 81.1017 72.7761C80.7434 72.4753 80.3704 72.1744 80.012 71.8883C79.9718 71.8493 79.9398 71.8026 79.9179 71.7509C79.8961 71.6992 79.8848 71.6436 79.8848 71.5875C79.8848 71.5313 79.8961 71.4758 79.9179 71.4241C79.9398 71.3724 79.9718 71.3257 80.012 71.2867C80.0916 71.2069 80.1994 71.1621 80.3119 71.1621C80.4243 71.1621 80.5322 71.2069 80.6117 71.2867C83.6625 73.7426 86.4272 76.5361 88.8535 79.6142C91.4412 82.8585 93.7391 86.3251 95.7204 89.974C97.7574 93.716 99.5126 97.6057 100.971 101.61C102.416 105.557 103.577 109.603 104.445 113.717C105.284 117.66 105.814 121.664 106.032 125.691C106.032 126.16 106.068 126.637 106.083 127.107C106.098 127.576 105.249 127.649 105.235 127.107H105.264Z" fill="white"/>
<path d="M60.9978 85.6882C59.718 82.3793 58.3212 79.085 56.727 75.9374C55.1154 72.5726 53.1544 69.3878 50.8766 66.436C49.7158 64.9499 48.3856 63.6054 46.9129 62.43C46.8366 62.3495 46.7946 62.2424 46.7959 62.1313C46.7973 62.0202 46.8418 61.9141 46.9201 61.8356C46.9984 61.7571 47.1042 61.7123 47.2149 61.711C47.3256 61.7096 47.4324 61.7517 47.5125 61.8283C50.2372 64.1022 52.5483 66.8329 54.3429 69.899C56.3461 73.1523 58.1037 76.5515 59.601 80.0681C60.3835 81.851 61.1148 83.6486 61.7949 85.4608C61.8222 85.5706 61.8063 85.6868 61.7505 85.7852C61.6946 85.8836 61.6032 85.9566 61.4951 85.9891C61.3865 86.0182 61.2708 86.0029 61.1734 85.9465C61.0761 85.8901 61.005 85.7972 60.9759 85.6882H60.9978Z" fill="white"/>
<g opacity="0.6">
<path d="M196.582 187.321C203.119 170.864 215.398 152.587 230.068 142.719C244.738 132.851 263.108 128.221 280.528 131.332C290.174 133.056 299.271 137.033 308.742 139.572C316.087 141.537 323.637 142.633 331.236 142.837C332.07 142.837 336.765 142.492 336.765 142.492C337.387 142.895 333.796 146.813 332.64 148.17C323.609 158.838 314.49 169.587 303.461 178.171C292.433 186.756 279.219 193.102 265.28 193.645C253.66 194.093 242.317 190.542 230.997 187.871C219.676 185.2 207.595 183.432 196.625 187.321" fill="url(#paint5_linear_1404_2776)"/>
</g>
<path d="M202.505 184.429C208.555 178.344 215.606 173.35 223.347 169.667C231.16 165.94 239.342 163.048 247.758 161.039C256.988 158.744 266.37 157.119 275.833 156.174C284.535 155.294 293.289 155.133 302.006 154.465C310.423 153.819 318.877 152.689 326.87 149.894C327.828 149.556 328.772 149.204 329.715 148.823C330.139 148.654 329.817 148.008 329.393 148.184C321.451 151.383 312.954 152.777 304.478 153.54C295.87 154.311 287.219 154.45 278.612 155.191C269.034 156.014 259.527 157.524 250.164 159.711C241.742 161.597 233.522 164.3 225.621 167.782C217.788 171.231 210.568 175.94 204.245 181.722C203.485 182.431 202.754 183.165 202.051 183.923C201.73 184.253 202.205 184.789 202.527 184.459L202.505 184.429Z" fill="white"/>
<path d="M224.466 169.141C229.093 167.65 233.906 166.815 238.763 166.661C243.613 166.521 248.465 166.808 253.265 167.519C255.788 167.871 258.296 168.253 260.79 168.803C263.562 169.376 266.304 170.087 269.047 170.806C274.166 172.149 279.373 173.506 284.682 174.005C289.432 174.563 294.246 174.123 298.818 172.714C299.374 172.523 299.93 172.318 300.471 172.098C301.012 171.877 300.573 171.276 300.149 171.452C295.67 173.166 290.862 173.841 286.086 173.426C280.835 173.081 275.723 171.826 270.648 170.491C267.906 169.757 265.163 169.023 262.399 168.429C259.869 167.864 257.28 167.417 254.742 167.028C249.959 166.259 245.121 165.889 240.277 165.92C235.471 165.951 230.691 166.622 226.061 167.915C225.476 168.084 224.891 168.26 224.313 168.451C223.881 168.598 224.028 169.302 224.466 169.185V169.141Z" fill="white"/>
<path d="M236.876 164.129C238.78 161.388 240.903 158.807 243.224 156.411C245.661 153.878 248.276 151.524 251.049 149.367C253.853 147.195 256.813 145.233 259.905 143.497C262.945 141.776 266.125 140.318 269.412 139.139C272.527 138.021 275.754 137.249 279.036 136.835L280.221 136.711C280.312 136.69 280.392 136.633 280.443 136.554C280.493 136.474 280.511 136.378 280.491 136.285C280.47 136.193 280.414 136.112 280.335 136.06C280.256 136.008 280.16 135.989 280.067 136.006C276.756 136.328 273.491 137.02 270.333 138.068C267.005 139.172 263.78 140.567 260.695 142.235C257.529 143.944 254.495 145.889 251.619 148.054C248.775 150.183 246.087 152.515 243.575 155.031C241.163 157.436 238.945 160.029 236.942 162.786L236.211 163.762C235.948 164.144 236.554 164.54 236.818 164.158L236.876 164.129Z" fill="white"/>
<path d="M287.315 155.265C289.737 153.494 292.246 151.846 294.832 150.327C297.532 148.693 300.394 147.347 303.374 146.314C304.879 145.796 306.441 145.459 308.025 145.308C308.117 145.287 308.198 145.231 308.249 145.152C308.301 145.073 308.32 144.976 308.303 144.883C308.28 144.79 308.223 144.709 308.143 144.657C308.062 144.605 307.965 144.586 307.871 144.604C304.899 144.953 302.01 145.815 299.33 147.15C296.403 148.531 293.582 150.128 290.891 151.926C289.526 152.831 288.175 153.766 286.839 154.729C286.773 154.797 286.735 154.888 286.735 154.982C286.735 155.077 286.773 155.168 286.839 155.235C286.907 155.3 286.998 155.337 287.091 155.337C287.185 155.337 287.276 155.3 287.344 155.235L287.315 155.265Z" fill="white"/>
<path d="M174.211 99.1016C174.229 99.3003 174.306 99.4892 174.43 99.6445C174.675 99.9015 174.991 100.078 175.337 100.151C175.722 100.268 176.11 100.371 176.5 100.459C175.694 100.083 174.928 99.6282 174.211 99.1016Z" fill="#F46969"/>
<path d="M83.6174 134.334C84.9729 134.082 86.1735 133.301 86.9551 132.162C87.7368 131.023 88.0356 129.619 87.7857 128.259C87.5352 126.899 86.7566 125.694 85.6212 124.91C84.4857 124.126 83.0863 123.826 81.7306 124.077L75.4194 125.251L77.3062 135.522L83.6174 134.334Z" fill="#1C3077"/>
<path d="M75.4192 125.25L69.1081 126.417C67.7525 126.668 66.5519 127.449 65.7703 128.588C64.9886 129.727 64.6898 131.131 64.9396 132.492C65.0627 133.165 65.3172 133.808 65.6885 134.383C66.0597 134.957 66.5404 135.453 67.103 135.841C67.6656 136.229 68.299 136.501 68.9669 136.643C69.6347 136.785 70.3239 136.793 70.9948 136.666L77.306 135.5L75.4192 125.25Z" fill="#F69A2B"/>
<path d="M77.3134 98.8884C78.1389 97.7822 78.4939 96.3928 78.3007 95.0246C78.1074 93.6563 77.3816 92.4206 76.2823 91.5881C75.1803 90.7579 73.795 90.4006 72.4306 90.5946C71.0663 90.7886 69.8344 91.518 69.0058 92.6226L65.1445 97.7585L73.4521 104.024L77.3134 98.8884Z" fill="#1C3077"/>
<path d="M65.1443 97.7734L61.2903 102.909C60.874 103.458 60.5702 104.083 60.3966 104.75C60.223 105.417 60.183 106.111 60.2789 106.794C60.3748 107.476 60.6047 108.133 60.9553 108.725C61.3059 109.318 61.7703 109.835 62.3214 110.246C63.4243 111.076 64.8102 111.432 66.1746 111.236C67.539 111.041 68.7703 110.31 69.5979 109.204L73.4519 104.069L65.1443 97.7734Z" fill="#F69A2B"/>
<path d="M48.5367 107.758C48.4831 107.075 48.2959 106.409 47.9856 105.799C47.6753 105.189 47.2481 104.646 46.7284 104.202C46.2088 103.757 45.6069 103.42 44.9572 103.209C44.3075 102.999 43.6228 102.919 42.9422 102.974C42.2622 103.029 41.5996 103.217 40.9922 103.529C40.3848 103.841 39.8446 104.269 39.4025 104.791C38.9604 105.312 38.625 105.915 38.4154 106.567C38.2059 107.218 38.1264 107.905 38.1815 108.587L38.6933 115.007L49.0486 114.178L48.5367 107.758Z" fill="#1C3077"/>
<path d="M38.6934 115.007L39.2053 121.427C39.2588 122.109 39.4459 122.773 39.7559 123.383C40.0658 123.992 40.4924 124.534 41.0114 124.978C41.5304 125.421 42.1314 125.758 42.7802 125.968C43.4291 126.178 44.1128 126.258 44.7924 126.203C45.4725 126.149 46.1352 125.962 46.7429 125.651C47.3506 125.34 47.8913 124.912 48.3341 124.391C48.7769 123.871 49.1132 123.268 49.3236 122.617C49.534 121.966 49.6145 121.28 49.5606 120.598L49.0486 114.178L38.6934 115.007Z" fill="#F69A2B"/>
<path d="M254.691 147.401V115.852H229.695V147.445C229.696 149.098 229.204 150.715 228.283 152.086C227.362 153.457 226.053 154.521 224.525 155.141C214.899 159.024 206.902 166.117 201.882 175.226C196.862 184.335 195.127 194.903 196.968 205.146C198.809 215.389 204.115 224.682 211.99 231.458C219.866 238.234 229.829 242.078 240.2 242.342C250.572 242.606 260.716 239.274 268.924 232.907C277.132 226.541 282.901 217.53 285.257 207.393C287.614 197.257 286.415 186.615 281.862 177.262C277.309 167.91 269.681 160.418 260.264 156.051C258.607 155.295 257.201 154.079 256.214 152.545C255.226 151.012 254.697 149.226 254.691 147.401Z" fill="#E1EBF9"/>
<path d="M197.818 185.26C195.977 192.039 195.735 199.155 197.11 206.045C198.486 212.934 201.441 219.408 205.743 224.952C210.044 230.497 215.574 234.961 221.893 237.989C228.212 241.018 235.147 242.53 242.15 242.403C249.152 242.277 256.028 240.516 262.235 237.261C268.441 234.006 273.807 229.346 277.907 223.65C282.007 217.953 284.729 211.378 285.856 204.443C286.984 197.508 286.487 190.406 284.404 183.697C255.542 184.553 226.68 185.074 197.818 185.26Z" fill="#F69A2B"/>
<path d="M217.76 189.962C224.653 190.668 231.607 190.518 238.463 189.514C245.828 188.568 253.089 186.939 260.402 185.941C266.655 185.09 272.981 184.877 279.204 183.85V183.799C252.131 184.586 225.049 185.075 197.957 185.266C204.394 187.46 211.025 189.032 217.76 189.962Z" fill="#EA871B"/>
<path d="M285.91 190.299C283.256 198.516 277.486 206.367 271.752 212.633C265.573 219.39 257.931 224.159 249.477 227.549C240.138 231.291 230.302 230.425 220.561 229.016C215.062 228.306 209.758 226.511 204.955 223.734C210.552 231.455 218.442 237.2 227.494 240.145C236.546 243.09 246.295 243.083 255.343 240.125C264.391 237.168 272.273 231.412 277.859 223.682C283.445 215.953 286.448 206.647 286.437 197.1C286.435 194.823 286.259 192.549 285.91 190.299Z" fill="#EA871B"/>
<path d="M241.337 242.701H240.233C229.773 242.448 219.721 238.582 211.774 231.756C203.826 224.929 198.47 215.56 196.609 205.231C194.748 194.901 196.497 184.244 201.56 175.059C206.623 165.873 214.691 158.721 224.4 154.811C225.87 154.223 227.129 153.204 228.014 151.888C228.898 150.571 229.367 149.018 229.358 147.43V115.463H255.02V147.371C255.035 149.128 255.55 150.844 256.503 152.318C257.457 153.792 258.809 154.962 260.402 155.692C268.264 159.362 274.92 165.205 279.591 172.535C284.261 179.866 286.753 188.38 286.773 197.08C286.771 209.17 281.984 220.764 273.463 229.313C264.943 237.863 253.388 242.668 241.337 242.672V242.701ZM229.995 116.197V147.452C230.004 149.174 229.496 150.858 228.537 152.286C227.578 153.714 226.213 154.819 224.62 155.457C215.063 159.309 207.123 166.349 202.138 175.391C197.152 184.433 195.427 194.922 197.253 205.091C199.079 215.26 204.344 224.487 212.161 231.215C219.978 237.942 229.868 241.76 240.163 242.024C250.459 242.288 260.53 238.982 268.68 232.664C276.829 226.346 282.557 217.401 284.898 207.339C287.24 197.277 286.051 186.712 281.533 177.427C277.014 168.142 269.443 160.704 260.095 156.367C258.387 155.582 256.937 154.325 255.916 152.744C254.894 151.163 254.342 149.322 254.325 147.438V116.197H229.995Z" fill="#1D3078"/>
<path d="M255.576 115.83H228.803C227.628 115.83 226.675 116.786 226.675 117.965V119.462C226.675 120.641 227.628 121.597 228.803 121.597H255.576C256.751 121.597 257.704 120.641 257.704 119.462V117.965C257.704 116.786 256.751 115.83 255.576 115.83Z" fill="#1D3078"/>
<path opacity="0.56" d="M254.742 161.686C254.742 161.686 275.116 185.898 266.641 215.048C266.641 215.011 291.424 178.194 254.742 161.686Z" fill="white"/>
<path d="M210.206 207.953C211.898 207.953 213.27 206.577 213.27 204.879C213.27 203.181 211.898 201.805 210.206 201.805C208.513 201.805 207.142 203.181 207.142 204.879C207.142 206.577 208.513 207.953 210.206 207.953Z" fill="#EA871B"/>
<path d="M242.632 223.389C244.324 223.389 245.696 222.012 245.696 220.314C245.696 218.617 244.324 217.24 242.632 217.24C240.939 217.24 239.567 218.617 239.567 220.314C239.567 222.012 240.939 223.389 242.632 223.389Z" fill="#EA871B"/>
<path d="M253.36 199.031C255.052 199.031 256.424 197.655 256.424 195.957C256.424 194.259 255.052 192.883 253.36 192.883C251.668 192.883 250.296 194.259 250.296 195.957C250.296 197.655 251.668 199.031 253.36 199.031Z" fill="#EA871B"/>
<path d="M259.488 212.28C260.445 212.28 261.221 211.502 261.221 210.542C261.221 209.581 260.445 208.803 259.488 208.803C258.531 208.803 257.755 209.581 257.755 210.542C257.755 211.502 258.531 212.28 259.488 212.28Z" fill="#EA871B"/>
<path d="M215.01 218.979C215.012 219.325 214.911 219.663 214.721 219.951C214.53 220.239 214.259 220.464 213.941 220.598C213.623 220.731 213.273 220.767 212.935 220.7C212.597 220.633 212.286 220.468 212.042 220.224C211.798 219.98 211.631 219.669 211.563 219.33C211.496 218.991 211.53 218.639 211.661 218.32C211.793 218 212.016 217.727 212.302 217.535C212.588 217.343 212.925 217.24 213.27 217.24C213.73 217.24 214.172 217.423 214.498 217.749C214.824 218.075 215.008 218.517 215.01 218.979Z" fill="#EA871B"/>
<path d="M235.18 200.77C235.181 201.116 235.08 201.455 234.889 201.743C234.699 202.031 234.427 202.256 234.109 202.389C233.79 202.522 233.44 202.558 233.101 202.49C232.763 202.423 232.452 202.257 232.209 202.012C231.965 201.768 231.799 201.456 231.732 201.116C231.665 200.777 231.7 200.425 231.833 200.106C231.965 199.786 232.19 199.514 232.477 199.323C232.764 199.131 233.102 199.03 233.447 199.031C233.906 199.031 234.347 199.214 234.672 199.541C234.997 199.867 235.18 200.309 235.18 200.77Z" fill="#EA871B"/>
<path d="M174.716 84.7285C175.755 86.6815 176.298 88.8612 176.298 91.075C176.298 93.2888 175.755 95.4685 174.716 97.4215C174.335 98.1552 173.897 99.0283 174.401 99.6226C174.645 99.8796 174.962 100.056 175.308 100.129C177.825 100.899 180.484 101.083 183.082 100.664C183.779 100.605 184.445 100.351 185.005 99.9308C185.108 99.8495 185.184 99.7398 185.225 99.6153C185.276 99.3585 185.049 99.1457 184.859 98.9696C183.517 97.6112 182.734 95.7962 182.665 93.8851C182.605 91.9869 182.785 90.0887 183.199 88.2356" fill="#FF8181"/>
<path d="M176.354 90.0625C177.349 93.3788 179.908 94.4647 182.804 94.8096C182.753 94.5087 182.709 94.2006 182.687 93.8998C182.627 92.0016 182.807 90.1034 183.221 88.2503L174.716 84.7285C175.557 86.2803 176.075 87.9879 176.237 89.747C176.281 89.8497 176.317 89.9525 176.354 90.0625Z" fill="#F46969"/>
<path d="M180.34 182.64C179.636 185.596 179.147 188.6 178.877 191.627C177.517 204.007 176.154 216.38 174.789 228.745C174.796 229.277 174.62 229.795 174.292 230.213C173.787 230.726 172.946 230.653 172.222 230.535L166.964 229.684C166.655 229.676 166.361 229.547 166.145 229.325C166.024 229.123 165.961 228.892 165.962 228.657C164.99 215.451 164.024 202.185 164.5 188.935C164.726 182.75 165.275 176.579 165.319 170.387" fill="#1C3077"/>
<path d="M166.869 228.4C166.708 229.56 166.262 231.937 166.138 233.096C165.939 233.873 166.016 234.696 166.357 235.422C166.92 236.317 168.141 236.493 169.195 236.559C172.602 236.765 176.01 236.816 179.433 236.867L182.914 236.919C183.449 236.906 183.971 236.752 184.428 236.471C184.947 235.906 184.428 234.923 184.333 234.82C182.87 232.663 180.405 232.949 177.868 232.414C176.145 232.16 174.516 231.468 173.136 230.403" fill="#1C3077"/>
<path d="M183.433 182.743C183.929 185.743 184.203 188.777 184.252 191.819C184.739 204.257 185.249 216.693 185.78 229.127C185.738 229.646 185.875 230.164 186.168 230.595C186.643 231.145 187.484 231.123 188.208 231.057L193.517 230.58C193.825 230.588 194.125 230.48 194.358 230.279C194.497 230.086 194.576 229.856 194.585 229.619C196.464 216.5 198.344 203.345 198.775 190.094C198.973 183.909 198.856 177.717 199.236 171.539" fill="#1C3077"/>
<path d="M186.98 230.323C186.826 231.482 186.665 232.641 186.504 233.8C186.308 234.578 186.386 235.399 186.724 236.126C187.294 237.029 188.508 237.197 189.568 237.263C192.969 237.476 196.384 237.52 199.807 237.572L203.295 237.623C203.831 237.616 204.355 237.461 204.809 237.175C205.321 236.61 204.809 235.635 204.706 235.525C203.244 233.375 200.787 233.661 198.242 233.125C196.574 232.773 192.91 231.775 192.881 229.846" fill="#1C3077"/>
<path d="M226.338 100.216C226.982 99.5268 227.633 98.8371 228.291 98.1621C228.548 97.8772 228.843 97.6302 229.169 97.4284C230.031 96.9221 231.114 97.0616 232.094 97.1349C234.584 97.3099 237.082 96.9264 239.407 96.0124C239.753 95.8241 240.15 95.7521 240.54 95.8069C240.775 95.8997 240.973 96.0665 241.105 96.2823C241.237 96.498 241.296 96.7509 241.272 97.0029C241.227 97.3784 241.083 97.7353 240.856 98.0369C240.628 98.3386 240.325 98.5742 239.977 98.7197C239.279 99.003 238.536 99.1595 237.783 99.1819L235.034 99.4167C233.904 99.4671 232.785 99.6644 231.706 100.004C230.615 100.35 229.701 101.111 229.161 102.124" fill="#FF8181"/>
<path d="M196.143 100.055L210.037 113.599L225.607 97.9492L231.925 102.99C231.925 102.99 219.274 119.476 211.398 125.588C211.081 125.837 210.701 125.99 210.301 126.03C209.901 126.071 209.497 125.996 209.138 125.815C206.593 124.553 200.574 121.303 197.715 117.539C193.993 112.697 196.143 100.055 196.143 100.055Z" fill="#F5F7FD"/>
<path d="M176.068 96.2459C177.378 97.0237 180.156 98.1976 182.957 96.4147C183.15 96.294 183.368 96.2199 183.594 96.1982C183.819 96.1766 184.047 96.208 184.259 96.29L186.453 97.1337L185.298 130.759L172.953 98.271L174.621 96.4734C174.801 96.278 175.043 96.1493 175.305 96.1081C175.568 96.0668 175.837 96.1154 176.068 96.2459Z" fill="#1131C6"/>
<path d="M174.175 96.834C174.175 96.834 182.065 111.662 184.069 116.835L186.446 185.802C186.446 185.802 174.899 187.351 157.786 184.254C157.786 184.254 164.712 139.11 164.368 128.06C164.112 119.05 163.044 108.199 162.657 104.486C162.617 104.094 162.694 103.699 162.878 103.351C163.061 103.002 163.343 102.716 163.688 102.527L174.175 96.834Z" fill="#F5F7FD"/>
<path d="M184.771 96.5332L184.04 117.312L186.431 185.832L205.123 184.54C205.123 184.54 200.808 154.84 199.075 133.71C197.686 116.791 196.984 105.338 196.757 101.427C196.732 100.996 196.575 100.584 196.306 100.248C196.038 99.9112 195.671 99.6669 195.258 99.5487L184.771 96.5332Z" fill="#F5F7FD"/>
<path d="M184.069 116.835L174.123 108.97L176.478 105.301L171.856 104.692L171.71 98.1845L174.174 96.8418C174.174 96.8418 182.592 112.081 184.069 116.835Z" fill="#DFE4EF"/>
<path d="M184.069 116.835L189.846 106.768L186.848 104.692L190.461 103.804L188.581 97.6264L184.808 96.5332C184.808 96.5332 183.842 113.1 184.069 116.835Z" fill="#DFE4EF"/>
<path d="M176.485 151.582L163.278 151.12L163.965 146.85L176.631 147.29L176.485 151.582Z" fill="#DFE4EF"/>
<path d="M194.497 151.398L201.028 151.09L200.56 146.812L194.292 147.113L194.497 151.398Z" fill="#DFE4EF"/>
<path d="M184.098 116.584L184.508 186.014L185.597 185.926L184.5 115.264L184.098 116.584Z" fill="#DFE4EF"/>
<path d="M163.892 137.474L164.514 132.066L184.354 125.859C184.354 125.859 178.635 133.541 163.892 137.474Z" fill="#DFE4EF"/>
<path d="M166.613 117.936C166.613 117.936 166.92 119.572 167.344 122.25C167.768 124.928 179.732 121.949 179.732 121.949C179.732 121.949 169.428 132.287 165.443 130.702C161.457 129.117 163.878 120.746 163.878 120.746L165.274 114.59L166.613 117.936Z" fill="#DFE4EF"/>
<path d="M192.496 108.962L177.187 110.19C176.543 110.241 176.063 110.807 176.114 111.453L177.943 134.404C177.994 135.05 178.558 135.532 179.202 135.48L194.511 134.253C195.155 134.201 195.635 133.635 195.584 132.989L193.755 110.039C193.704 109.392 193.14 108.91 192.496 108.962Z" fill="#11215E"/>
<path d="M180.939 122.748C181.331 122.827 181.737 122.807 182.12 122.69C182.502 122.574 182.85 122.364 183.133 122.08C183.693 121.506 184.222 120.904 184.72 120.275C185.708 119.322 186.979 118.717 188.34 118.551C188.727 118.478 189.32 118.206 189.378 118.595C189.387 118.729 189.354 118.863 189.283 118.977C188.742 120.048 186.87 120.026 186.943 121.222C189.561 120.319 192.508 120.033 195.126 119.124C195.47 119.006 195.916 118.918 196.143 119.197C196.37 119.476 196.187 119.894 196.004 120.202C194.242 123.078 192.347 125.133 189.071 126.006C187.535 126.424 185.568 127.187 183.952 127.268C182.35 127.235 180.778 127.704 179.455 128.61" fill="#FF8181"/>
<path d="M163 103.209C165.356 108.112 166.591 113.482 166.613 118.925L165.735 125.609L181.553 121.463L182.621 127.891C182.621 127.891 173.728 135.609 158.532 136.592C158.217 136.612 157.902 136.567 157.605 136.46C157.308 136.352 157.037 136.184 156.807 135.967C156.578 135.749 156.396 135.487 156.273 135.195C156.149 134.904 156.087 134.59 156.089 134.274C156.133 128.162 157.201 111.933 163 103.209Z" fill="#F5F7FD"/>
<path d="M173.136 72.9083C172.107 75.7969 171.877 78.9116 172.472 81.9206C173.067 84.9297 174.464 87.7206 176.515 89.9962C177.802 91.3756 179.52 92.6082 181.4 92.4541C183.901 92.2413 185.539 89.7541 186.519 87.4283C187.689 84.6182 187.85 81.1845 187.557 78.1543C187.265 75.1241 186.373 72.4901 183.769 70.9274C181.166 69.3646 177.444 69.6067 175.411 71.8738" fill="#FF8181"/>
<path d="M173.136 81.6101C172.566 80.737 171.586 80.5389 171.023 81.1186C170.74 81.5291 170.565 82.004 170.513 82.5C170.46 82.996 170.533 83.4972 170.723 83.958C170.871 84.422 171.12 84.8474 171.451 85.2038C171.782 85.5602 172.188 85.8388 172.639 86.0197C172.814 86.0877 173.004 86.1126 173.191 86.0921C173.378 86.0717 173.557 86.0066 173.714 85.9023C174.233 85.5061 174.379 84.567 174.445 83.7012" fill="#FF8181"/>
<path d="M173.194 83.4885C173.37 84.0387 173.267 84.5523 172.982 84.6477C172.697 84.7431 172.317 84.3689 172.149 83.8186C171.98 83.2684 172.075 82.7548 172.361 82.6594C172.646 82.564 173.026 82.9382 173.194 83.4885Z" fill="#F46969"/>
<path d="M186.424 81.7122C186.424 82.1231 186.153 82.4459 185.846 82.4459C185.539 82.4459 185.305 82.0937 185.319 81.7122C185.334 81.3307 185.597 80.9785 185.897 80.9785C186.197 80.9785 186.438 81.316 186.424 81.7122Z" fill="#0F1E57"/>
<path d="M179.872 81.4993C179.872 81.9102 179.601 82.233 179.294 82.233C178.987 82.233 178.753 81.8808 178.767 81.4993C178.782 81.1178 179.038 80.7656 179.345 80.7656C179.652 80.7656 179.886 81.0885 179.872 81.4993Z" fill="#0F1E57"/>
<path d="M182.504 81.3388C182.415 81.7186 182.395 82.1113 182.446 82.4981C182.555 83.5331 182.882 84.5332 183.404 85.4329L183.499 85.1027C183.066 85.3876 182.552 85.5217 182.036 85.4842C181.729 85.4842 181.707 85.9391 182.036 85.9758C182.639 86.0181 183.239 85.8637 183.747 85.5356C183.804 85.5045 183.846 85.4527 183.865 85.3912C183.884 85.3296 183.878 85.2631 183.85 85.2054C183.359 84.3622 183.05 83.4248 182.943 82.4541C182.922 82.2099 182.922 81.9645 182.943 81.7204C182.939 81.6813 182.939 81.642 182.943 81.603C182.943 81.5149 182.943 81.603 182.943 81.5663C182.939 81.542 182.939 81.5172 182.943 81.4929C183.023 81.1848 182.563 81.038 182.475 81.3462L182.504 81.3388Z" fill="#F46969"/>
<path d="M180.815 78.9164C180.127 78.6053 179.374 78.4692 178.621 78.5202C177.414 78.6083 176.427 79.32 176.668 79.4153C176.91 79.5107 178.131 78.9091 179.33 79.2099C180.53 79.5107 180.742 79.4667 180.925 79.408C181.107 79.3493 181.1 79.0338 180.815 78.9164Z" fill="#0F1E57"/>
<path d="M184.113 79.0271C184.69 78.7662 185.33 78.6771 185.956 78.7703C186.958 78.9464 187.748 79.7094 187.528 79.7901C187.309 79.8708 186.329 79.1958 185.334 79.4159C184.34 79.636 184.15 79.5847 184.003 79.5113C183.857 79.4379 183.864 79.1298 184.113 79.0271Z" fill="#0F1E57"/>
<path d="M179.579 84.4415C179.647 84.7805 179.608 85.1325 179.468 85.4484C179.328 85.7644 179.093 86.0287 178.796 86.2046C178.499 86.3806 178.155 86.4594 177.812 86.4303C177.468 86.4011 177.142 86.2654 176.879 86.0419C176.616 85.8184 176.429 85.5183 176.343 85.1832C176.258 84.8481 176.279 84.4946 176.403 84.1719C176.526 83.8491 176.748 83.5731 177.035 83.3821C177.322 83.1911 177.662 83.0947 178.007 83.1061C178.391 83.0756 178.772 83.1989 179.067 83.449C179.361 83.6991 179.545 84.0558 179.579 84.4415Z" fill="#F46969"/>
<path d="M187.33 84.5147C187.32 84.769 187.234 85.0143 187.085 85.2197C186.935 85.4251 186.728 85.5812 186.489 85.6682C186.251 85.7553 185.992 85.7693 185.746 85.7085C185.5 85.6478 185.277 85.515 185.106 85.327C184.935 85.139 184.824 84.9042 184.786 84.6526C184.748 84.401 184.786 84.1438 184.894 83.9137C185.003 83.6836 185.177 83.4909 185.394 83.3602C185.612 83.2294 185.863 83.1665 186.116 83.1794C186.453 83.1984 186.768 83.3488 186.995 83.5985C187.222 83.8481 187.342 84.177 187.33 84.5147Z" fill="#F46969"/>
<path d="M183.616 87.5808C182.572 87.2871 181.474 87.2468 180.413 87.4634C180.413 87.4634 181.948 89.2757 183.616 87.5808Z" fill="#F46969"/>
<path d="M191.908 72.3934C191.752 71.7212 191.44 71.0954 190.998 70.5665C190.556 70.0376 189.996 69.6203 189.363 69.3485C187.404 68.6148 185.151 69.7154 183.213 68.8936C182.036 68.3947 181.122 67.2355 179.922 66.8099C178.409 66.267 176.763 67.0227 175.432 68.0499C174.811 68.5375 174.251 69.0993 173.765 69.7227C173.574 69.9812 173.331 70.1973 173.053 70.3576C172.775 70.5179 172.467 70.619 172.149 70.6545C169.794 70.8966 169.362 74.4477 169.494 76.2673C169.624 78.1112 170.248 79.8855 171.3 81.4032C171.907 82.2543 172.865 83.0687 173.735 82.6065C174.423 82.2323 174.467 81.2051 174.686 80.3394C174.842 79.4267 175.065 78.5268 175.352 77.6467C175.995 75.9665 177.385 76.8103 178.913 77.2065C180.9 77.7831 182.926 78.2122 184.976 78.4904C187.769 78.8059 189.817 78.5491 191.177 76.5902C191.581 75.979 191.854 75.2906 191.98 74.5684C192.106 73.8462 192.081 73.1057 191.908 72.3934Z" fill="#0F1E57"/>
<path d="M227.34 93.3479C226.53 93.3676 225.745 93.0645 225.157 92.5048C224.569 91.9451 224.226 91.1745 224.203 90.3617L223.706 71.2415L229.819 71.0801L230.309 90.2003C230.331 91.0125 230.03 91.8002 229.474 92.3903C228.917 92.9804 228.15 93.3248 227.34 93.3479Z" fill="white"/>
<path d="M227.34 93.5101C226.487 93.5298 225.661 93.2096 225.043 92.6197C224.425 92.0298 224.065 91.2181 224.042 90.3625L223.538 71.0809L229.98 70.9121L230.478 90.1937C230.499 91.0507 230.181 91.8813 229.593 92.503C229.005 93.1248 228.194 93.487 227.34 93.5101ZM223.874 71.4404L224.371 90.3918C224.497 91.0795 224.864 91.6996 225.405 92.1403C225.946 92.581 226.626 92.8134 227.322 92.7958C228.019 92.7781 228.687 92.5114 229.205 92.0438C229.723 91.5762 230.058 90.9383 230.149 90.2451L229.659 71.2936L223.874 71.4404Z" fill="#1133A2"/>
<path d="M229.702 71.8888L223.925 72.0355C223.731 72.0355 223.545 71.9582 223.408 71.8206C223.271 71.683 223.194 71.4964 223.194 71.3018C223.194 71.1072 223.271 70.9206 223.408 70.783C223.545 70.6454 223.731 70.5681 223.925 70.5681L229.702 70.4141C229.896 70.4141 230.082 70.4914 230.22 70.629C230.357 70.7666 230.434 70.9532 230.434 71.1478C230.435 71.2447 230.417 71.3409 230.38 71.4308C230.344 71.5206 230.29 71.6024 230.222 71.6713C230.154 71.7402 230.073 71.7949 229.984 71.8322C229.895 71.8696 229.799 71.8888 229.702 71.8888Z" fill="#1133A2"/>
<mask id="mask0_1404_2776" style="mask-type:luminance" maskUnits="userSpaceOnUse" x="224" y="82" width="6" height="11">
<path d="M224.43 82.9602L224.62 90.1431C224.625 90.4945 224.698 90.8414 224.837 91.1641C224.976 91.4868 225.176 91.7788 225.428 92.0235C225.679 92.2682 225.976 92.4607 226.302 92.59C226.628 92.7194 226.975 92.7829 227.326 92.7771C227.675 92.7648 228.018 92.6834 228.336 92.5376C228.654 92.3918 228.94 92.1845 229.178 91.9275C229.416 91.6705 229.601 91.3689 229.722 91.04C229.844 90.7111 229.899 90.3615 229.885 90.011L229.702 82.8281L224.43 82.9602Z" fill="white"/>
</mask>
<g mask="url(#mask0_1404_2776)">
<path d="M229.71 83.0115L224.437 83.0482V82.9675L229.702 82.8281L229.71 83.0115Z" fill="#AEB1F8"/>
<path d="M229.71 83.2098L224.444 83.2538L224.437 83.0484L229.71 83.0117V83.2098Z" fill="#ADB0F8"/>
<path d="M229.717 83.4071L224.444 83.4511V83.253L229.71 83.209L229.717 83.4071Z" fill="#ADAFF7"/>
<path d="M229.724 83.6136L224.452 83.6503L224.444 83.4522L229.717 83.4082L229.724 83.6136Z" fill="#ACAEF7"/>
<path d="M229.724 83.8114L224.459 83.8481L224.452 83.65L229.724 83.6133V83.8114Z" fill="#ABADF6"/>
<path d="M229.732 84.0086L224.466 84.0527L224.459 83.8472L229.724 83.8105L229.732 84.0086Z" fill="#AAACF6"/>
<path d="M229.739 84.2079L224.466 84.2519V84.0538L229.732 84.0098L229.739 84.2079Z" fill="#A9ABF5"/>
<path d="M229.739 84.4125L224.474 84.4492L224.466 84.2511L229.739 84.207V84.4125Z" fill="#A8AAF4"/>
<path d="M229.746 84.6102L224.481 84.6469L224.474 84.4488L229.739 84.4121L229.746 84.6102Z" fill="#A7A9F4"/>
<path d="M229.753 84.8094L224.48 84.8535V84.648L229.746 84.6113L229.753 84.8094Z" fill="#A6A8F3"/>
<path d="M229.76 85.0067L224.488 85.0507L224.48 84.8526L229.753 84.8086L229.76 85.0067Z" fill="#A5A7F3"/>
<path d="M229.76 85.2132L224.495 85.2499L224.488 85.0518L229.76 85.0078V85.2132Z" fill="#A4A6F2"/>
<path d="M229.768 85.411L224.502 85.4477L224.495 85.2496L229.76 85.2129L229.768 85.411Z" fill="#A4A5F2"/>
<path d="M229.775 85.6083L224.502 85.6523V85.4468L229.768 85.4102L229.775 85.6083Z" fill="#A3A4F1"/>
<path d="M229.775 85.8075L224.51 85.8515L224.502 85.6534L229.775 85.6094V85.8075Z" fill="#A2A3F0"/>
<path d="M229.782 86.0047L224.517 86.0488L224.51 85.8507L229.775 85.8066L229.782 86.0047Z" fill="#A1A2F0"/>
<path d="M229.79 86.2113L224.517 86.248V86.0499L229.782 86.0059L229.79 86.2113Z" fill="#A0A1EF"/>
<path d="M229.797 86.409L224.524 86.4531L224.517 86.2476L229.79 86.2109L229.797 86.409Z" fill="#9FA0EF"/>
<path d="M229.797 86.6063L224.532 86.6503L224.524 86.4522L229.797 86.4082V86.6063Z" fill="#9E9FEE"/>
<path d="M229.804 86.8055L224.532 86.8495V86.6514L229.797 86.6074L229.804 86.8055Z" fill="#9D9EEE"/>
<path d="M229.812 87.0101L224.539 87.0468L224.532 86.8487L229.804 86.8047L229.812 87.0101Z" fill="#9C9DED"/>
<path d="M229.812 87.2079L224.546 87.2519L224.539 87.0465L229.812 87.0098V87.2079Z" fill="#9C9CED"/>
<path d="M229.819 87.4071L224.554 87.4511L224.546 87.253L229.812 87.209L229.819 87.4071Z" fill="#9B9BEC"/>
<path d="M229.826 87.6117L224.554 87.6484V87.4503L229.819 87.4062L229.826 87.6117Z" fill="#9A9AEB"/>
<path d="M229.834 87.8094L224.561 87.8461L224.554 87.648L229.826 87.6113L229.834 87.8094Z" fill="#9999EB"/>
<path d="M229.834 88.0086L224.568 88.0453L224.561 87.8472L229.834 87.8105V88.0086Z" fill="#9898EA"/>
<path d="M229.841 88.2059L224.568 88.2499V88.0445L229.834 88.0078L229.841 88.2059Z" fill="#9797EA"/>
<path d="M229.848 88.4051L224.576 88.4492L224.568 88.2511L229.841 88.207L229.848 88.4051Z" fill="#9696E9"/>
<path d="M229.848 88.6097L224.583 88.6464L224.576 88.4483L229.848 88.4043V88.6097Z" fill="#9595E9"/>
<path d="M229.856 88.8075L224.59 88.8442L224.583 88.6461L229.848 88.6094L229.856 88.8075Z" fill="#9494E8"/>
<path d="M229.863 89.0067L224.59 89.0507V88.8453L229.856 88.8086L229.863 89.0067Z" fill="#9493E8"/>
<path d="M229.87 89.204L224.598 89.248L224.59 89.0499L229.863 89.0059L229.87 89.204Z" fill="#9392E7"/>
<path d="M229.87 89.4086L224.605 89.4452L224.598 89.2471L229.87 89.2031V89.4086Z" fill="#9291E6"/>
<path d="M229.878 89.6083L224.605 89.6449V89.4468L229.87 89.4102L229.878 89.6083Z" fill="#9190E6"/>
<path d="M229.885 89.8055L224.612 89.8495L224.605 89.6441L229.878 89.6074L229.885 89.8055Z" fill="#908FE5"/>
<path d="M229.885 90.0028L224.62 90.0468L224.612 89.8487L229.885 89.8047V90.0028Z" fill="#8F8EE5"/>
<path d="M229.892 90.2093L224.62 90.246V90.0479L229.885 90.0039L229.892 90.2093Z" fill="#8E8DE4"/>
<path d="M229.9 90.4071L224.627 90.4438L224.62 90.2457L229.892 90.209L229.9 90.4071Z" fill="#8D8CE4"/>
<path d="M229.907 90.6063L224.634 90.6503L224.627 90.4449L229.9 90.4082L229.907 90.6063Z" fill="#8C8BE3"/>
<path d="M229.907 90.8036L224.642 90.8476L224.634 90.6495L229.907 90.6055V90.8036Z" fill="#8C8AE3"/>
<path d="M229.914 91.0008L224.642 91.0449V90.8468L229.907 90.8027L229.914 91.0008Z" fill="#8B89E2"/>
<path d="M229.922 91.2074L224.649 91.2441L224.642 91.046L229.914 91.002L229.922 91.2074Z" fill="#8A88E1"/>
<path d="M229.922 91.4051L224.656 91.4492L224.649 91.2437L229.922 91.207V91.4051Z" fill="#8987E1"/>
<path d="M229.929 91.6024L224.656 91.6464V91.4483L229.922 91.4043L229.929 91.6024Z" fill="#8886E0"/>
<path d="M229.936 91.809L224.664 91.8456L224.656 91.6475L229.929 91.6035L229.936 91.809Z" fill="#8784E0"/>
<path d="M229.944 92.0067L224.671 92.0434L224.664 91.8453L229.936 91.8086L229.944 92.0067Z" fill="#8683DF"/>
<path d="M229.944 92.204L224.678 92.2406L224.671 92.0425L229.944 92.0059V92.204Z" fill="#8582DF"/>
<path d="M229.951 92.4032L224.678 92.4472V92.2418L229.944 92.2051L229.951 92.4032Z" fill="#8481DE"/>
<path d="M229.958 92.6078L224.686 92.6445L224.678 92.4464L229.951 92.4023L229.958 92.6078Z" fill="#8380DD"/>
<path d="M224.832 92.8422H224.693L224.686 92.6441L229.958 92.6074V92.7101L224.832 92.8422Z" fill="#837FDD"/>
</g>
<path d="M237.264 93.0847C236.862 93.0954 236.463 93.0267 236.088 92.8824C235.713 92.7381 235.37 92.5211 235.079 92.2438C234.787 91.9665 234.553 91.6343 234.39 91.2662C234.227 90.8981 234.137 90.5013 234.127 90.0985L233.629 70.9856L239.736 70.8242L240.233 89.9444C240.253 90.7554 239.951 91.5412 239.395 92.1297C238.838 92.7182 238.072 93.0616 237.264 93.0847Z" fill="white"/>
<path d="M237.264 93.2542C236.411 93.2739 235.585 92.9538 234.967 92.3638C234.349 91.7739 233.989 90.9623 233.966 90.1066L233.461 70.825L239.896 70.6562L240.401 89.9379C240.421 90.7943 240.102 91.6238 239.514 92.2451C238.926 92.8665 238.117 93.2292 237.264 93.2542ZM233.797 71.1478L234.295 90.0993C234.24 90.5197 234.277 90.947 234.403 91.3518C234.529 91.7565 234.74 92.1292 235.023 92.444C235.306 92.7588 235.654 93.0083 236.042 93.1754C236.431 93.3426 236.851 93.4232 237.273 93.412C237.695 93.4007 238.111 93.2977 238.49 93.1102C238.869 92.9226 239.202 92.6549 239.468 92.3254C239.734 91.996 239.926 91.6126 240.03 91.2017C240.134 90.7908 240.149 90.3621 240.072 89.9452L239.582 70.9938L233.797 71.1478Z" fill="#1133A2"/>
<path d="M239.626 71.6241L233.849 71.7782C233.655 71.7782 233.469 71.7009 233.332 71.5633C233.195 71.4257 233.118 71.2391 233.118 71.0445C233.118 70.8499 233.195 70.6633 233.332 70.5257C233.469 70.3881 233.655 70.3108 233.849 70.3108L239.626 70.1641C239.82 70.1641 240.006 70.2414 240.143 70.379C240.28 70.5166 240.358 70.7032 240.358 70.8978C240.356 71.0911 240.278 71.2758 240.141 71.4118C240.004 71.5478 239.819 71.6241 239.626 71.6241Z" fill="#1133A2"/>
<mask id="mask1_1404_2776" style="mask-type:luminance" maskUnits="userSpaceOnUse" x="234" y="82" width="6" height="11">
<path d="M234.383 82.7019L234.573 89.8848C234.578 90.2358 234.652 90.5825 234.79 90.9047C234.929 91.227 235.13 91.5186 235.381 91.7627C235.633 92.0068 235.93 92.1986 236.256 92.3271C236.581 92.4556 236.929 92.5183 237.279 92.5115C237.984 92.4847 238.649 92.1784 239.129 91.6598C239.609 91.1411 239.864 90.4526 239.838 89.7454L239.655 82.5625L234.383 82.7019Z" fill="white"/>
</mask>
<g mask="url(#mask1_1404_2776)">
<path d="M239.648 83.6048L239.421 82.5777L239.626 82.5703L239.648 83.6048Z" fill="#B0B3F9"/>
<path d="M239.736 86.8849L238.785 82.5928L239.421 82.5781L239.648 83.6053L239.736 86.8849Z" fill="#AFB2F9"/>
<path d="M239.824 90.1709L238.149 82.6065L238.785 82.5918L239.736 86.8839L239.824 90.1709Z" fill="#AEB1F8"/>
<path d="M239.685 92.4537L237.513 82.6221L238.149 82.6074L239.824 90.1719L239.882 92.4463L239.685 92.4537Z" fill="#ADB0F8"/>
<path d="M239.048 92.4673L236.869 82.6431L237.513 82.6211L239.685 92.4527L239.048 92.4673Z" fill="#ADAFF7"/>
<path d="M238.412 92.4908L236.233 82.6592L236.869 82.6445L239.048 92.4688L238.412 92.4908Z" fill="#ACAEF7"/>
<path d="M237.769 92.5045L235.597 82.6729L236.233 82.6582L238.412 92.4898L237.769 92.5045Z" fill="#ABADF6"/>
<path d="M237.132 92.5201L234.96 82.6885L235.597 82.6738L237.769 92.5054L237.132 92.5201Z" fill="#AAACF6"/>
<path d="M236.496 92.5411L234.361 82.8929V82.7095L234.961 82.6875L237.132 92.5191L236.496 92.5411Z" fill="#A9ABF5"/>
<path d="M235.86 92.5554L234.449 86.1796L234.361 82.8926L236.496 92.5407L235.86 92.5554Z" fill="#A8AAF4"/>
<path d="M235.224 92.5702L234.536 89.4593L234.449 86.1797L235.86 92.5555L235.224 92.5702Z" fill="#A7A9F4"/>
<path d="M234.536 89.459L235.224 92.5699L234.617 92.5845L234.536 89.459Z" fill="#A6A8F3"/>
</g>
<path d="M247.378 92.8195C246.568 92.8392 245.784 92.5358 245.197 91.9759C244.61 91.4161 244.269 90.6455 244.248 89.8333L243.75 70.7571L249.857 70.5957L250.354 89.7159C250.364 90.5218 250.057 91.2993 249.5 91.8801C248.943 92.4609 248.181 92.7983 247.378 92.8195Z" fill="white"/>
<path d="M247.385 92.9886C246.532 93.0083 245.705 92.6884 245.086 92.0987C244.466 91.5089 244.105 90.6973 244.08 89.841L243.583 70.5594L250.018 70.3906L250.523 89.6723C250.542 90.5287 250.223 91.3581 249.636 91.9795C249.048 92.6008 248.239 92.9636 247.385 92.9886ZM243.89 70.8822L244.38 89.8337C244.329 90.2525 244.369 90.6774 244.496 91.0794C244.624 91.4815 244.836 91.8511 245.119 92.1633C245.402 92.4754 245.749 92.7227 246.136 92.8882C246.523 93.0537 246.941 93.1336 247.361 93.1224C247.781 93.1112 248.194 93.0092 248.572 92.8233C248.95 92.6374 249.283 92.3721 249.549 92.0453C249.815 91.7185 250.008 91.3381 250.114 90.9298C250.22 90.5216 250.237 90.0951 250.164 89.6796L249.667 70.7281L243.89 70.8822Z" fill="#1133A2"/>
<path d="M249.74 71.3605L243.963 71.5145C243.769 71.5145 243.583 71.4372 243.446 71.2996C243.309 71.162 243.231 70.9754 243.231 70.7808C243.231 70.5862 243.309 70.3996 243.446 70.262C243.583 70.1244 243.769 70.0471 243.963 70.0471L249.74 69.9004C249.934 69.9004 250.12 69.9777 250.257 70.1153C250.394 70.2529 250.471 70.4395 250.471 70.6341C250.469 70.8274 250.392 71.0121 250.255 71.1482C250.118 71.2842 249.933 71.3605 249.74 71.3605Z" fill="#1133A2"/>
<path d="M244.475 82.446L244.665 89.629C244.676 90.336 244.967 91.0096 245.473 91.502C245.979 91.9944 246.658 92.2654 247.363 92.2556C247.713 92.2433 248.057 92.162 248.375 92.0163C248.693 91.8706 248.98 91.6633 249.218 91.4064C249.457 91.1495 249.642 90.848 249.764 90.5191C249.886 90.1902 249.943 89.8403 249.93 89.4896L249.74 82.3066L244.475 82.446Z" fill="#F69A2B"/>
<path d="M255.195 96.6353L216.729 97.6405C216.543 97.6503 216.358 97.6228 216.183 97.5594C216.008 97.4961 215.848 97.3983 215.712 97.2717C215.575 97.1452 215.466 96.9925 215.389 96.8227C215.313 96.6529 215.271 96.4694 215.266 96.2831C215.257 96.0972 215.286 95.9115 215.349 95.7367C215.413 95.5618 215.51 95.4014 215.636 95.2648C215.762 95.1282 215.914 95.0182 216.083 94.9411C216.251 94.864 216.434 94.8213 216.619 94.8157L255.086 93.8105C255.272 93.8007 255.458 93.8284 255.633 93.8922C255.808 93.956 255.969 94.0545 256.105 94.1818C256.242 94.3091 256.351 94.4627 256.427 94.6334C256.504 94.804 256.545 94.9883 256.548 95.1752C256.557 95.3607 256.529 95.5461 256.465 95.7205C256.402 95.8949 256.304 96.0548 256.178 96.1909C256.052 96.3269 255.9 96.4362 255.731 96.5126C255.563 96.5889 255.38 96.6306 255.195 96.6353Z" fill="#1133A2"/>
<path d="M255.115 74.7195L215.669 75.754C215.551 75.7569 215.433 75.7364 215.323 75.6938C215.213 75.6511 215.112 75.5871 215.026 75.5053C214.941 75.4235 214.872 75.3257 214.824 75.2173C214.776 75.1089 214.75 74.992 214.747 74.8735C214.741 74.6334 214.83 74.4008 214.995 74.2262C215.159 74.0517 215.386 73.9494 215.625 73.9417L255.071 72.9145C255.19 72.9106 255.308 72.9304 255.418 72.9727C255.529 73.015 255.63 73.079 255.716 73.161C255.802 73.2429 255.87 73.3412 255.918 73.4501C255.965 73.5589 255.991 73.6762 255.993 73.795C255.996 73.9135 255.975 74.0315 255.933 74.1421C255.89 74.2527 255.826 74.3538 255.745 74.4396C255.663 74.5255 255.566 74.5944 255.458 74.6424C255.35 74.6904 255.233 74.7166 255.115 74.7195Z" fill="#1133A2"/>
<path d="M219.485 73.8824L218.271 73.9141L218.814 94.8321L220.027 94.8004L219.485 73.8824Z" fill="#1133A2"/>
<path d="M252.704 73.0152L251.49 73.0469L252.033 93.9649L253.246 93.9332L252.704 73.0152Z" fill="#1133A2"/>
<path d="M146.663 162.697L147.036 165.375C147.077 165.668 147.214 165.938 147.427 166.143C147.639 166.348 147.913 166.475 148.206 166.505C149.828 166.726 151.477 166.423 152.916 165.639C153.148 165.492 153.328 165.276 153.433 165.021C153.538 164.766 153.561 164.485 153.501 164.216L152.85 161.472C152.773 161.139 152.569 160.85 152.282 160.666C151.995 160.482 151.647 160.419 151.314 160.489L147.694 161.223C147.366 161.289 147.076 161.478 146.884 161.753C146.693 162.028 146.613 162.366 146.663 162.697Z" fill="#1D3078"/>
<path d="M140.973 153.381L142.099 161.495C142.137 161.774 142.263 162.033 142.46 162.234C142.656 162.435 142.912 162.567 143.189 162.61C145.471 162.977 151.365 163.513 155.387 160.233C155.579 160.075 155.724 159.867 155.804 159.631C155.884 159.395 155.897 159.141 155.84 158.898L153.939 150.754C153.86 150.422 153.656 150.134 153.37 149.95C153.083 149.767 152.736 149.702 152.403 149.771L142.019 151.913C141.691 151.977 141.4 152.165 141.205 152.438C141.011 152.711 140.928 153.048 140.973 153.381Z" fill="#091847"/>
<path d="M136.68 143.563L138.282 155.083C138.318 155.357 138.44 155.613 138.631 155.814C138.821 156.014 139.07 156.149 139.342 156.198C142.15 156.682 150.641 157.665 156.206 152.845C156.38 152.689 156.508 152.488 156.576 152.264C156.644 152.041 156.651 151.802 156.594 151.575L153.881 140.049C153.802 139.718 153.598 139.43 153.311 139.248C153.024 139.065 152.677 139.003 152.345 139.073L137.719 142.089C137.391 142.155 137.1 142.344 136.907 142.619C136.714 142.893 136.633 143.231 136.68 143.563Z" fill="#1D3078"/>
<path d="M131.869 136.908C131.869 136.908 108.248 134.949 109.805 168.67C111.363 202.391 141.208 191.143 141.208 191.143L117.374 216.617C117.374 216.617 93.7386 202.772 95.6693 169.756C97.5999 136.739 118.164 124.156 127.62 124.266C137.076 124.376 131.869 136.908 131.869 136.908Z" fill="#1D3078"/>
<path d="M141.207 191.144L120.256 213.5C120.587 210.622 120.411 207.709 119.736 204.893C118.413 199.185 113.966 194.944 111.568 189.713C108.675 183.531 107.375 176.72 107.787 169.903C108.145 165.083 109.432 160.365 110.661 155.691C109.836 159.962 109.548 164.32 109.805 168.663C111.37 202.384 141.207 191.144 141.207 191.144Z" fill="#091847"/>
<path d="M127.868 101.213L148.03 97.5444C148.432 97.475 148.845 97.5647 149.182 97.7946C149.519 98.0245 149.753 98.3768 149.837 98.777L157.676 138.001C157.756 138.406 157.674 138.827 157.446 139.172C157.219 139.516 156.865 139.757 156.462 139.842L134.026 144.472C133.817 144.516 133.6 144.517 133.391 144.473C133.182 144.43 132.984 144.343 132.809 144.219C132.635 144.095 132.488 143.936 132.377 143.752C132.267 143.569 132.196 143.364 132.168 143.151L126.603 102.988C126.543 102.586 126.642 102.175 126.878 101.844C127.114 101.513 127.469 101.286 127.868 101.213Z" fill="#1D3078"/>
<path d="M157.596 137.672C150.422 137.393 143.255 136.982 137.967 131.479C134.451 127.748 131.935 123.185 130.654 118.214C129.25 112.961 129.002 107.326 126.874 102.278C126.874 102.182 126.8 102.08 126.771 101.984C126.595 102.282 126.525 102.632 126.574 102.975L132.139 143.182C132.167 143.394 132.238 143.599 132.348 143.783C132.458 143.967 132.605 144.125 132.78 144.249C132.954 144.373 133.152 144.46 133.362 144.503C133.571 144.547 133.787 144.547 133.996 144.502L156.433 139.873C156.836 139.788 157.19 139.547 157.417 139.202C157.644 138.857 157.727 138.437 157.647 138.031L157.596 137.672Z" fill="#091847"/>
<path d="M135.477 126.71C139.725 123.015 140.182 116.564 136.499 112.303C132.816 108.041 126.387 107.582 122.139 111.278C117.892 114.973 117.434 121.423 121.117 125.685C124.801 129.946 131.23 130.405 135.477 126.71Z" fill="#5067B2"/>
<path d="M132.865 123.085C135.095 120.847 135.095 117.219 132.865 114.981C130.634 112.744 127.018 112.744 124.788 114.981C122.557 117.219 122.557 120.847 124.788 123.085C127.018 125.323 130.634 125.323 132.865 123.085Z" fill="#1D3078"/>
<path d="M129.565 100.913L123.824 75.0212L141.639 71.8223L145.463 98.0447L129.565 100.913Z" fill="#091847"/>
<path d="M121.915 75.0272L121.36 72.9655C121.33 72.8584 121.323 72.7465 121.339 72.6366C121.355 72.5267 121.394 72.4213 121.452 72.327C121.51 72.2326 121.587 72.1514 121.678 72.0883C121.77 72.0252 121.873 71.9817 121.981 71.9604L141.317 68.1818C141.429 68.1609 141.543 68.1637 141.654 68.1901C141.764 68.2165 141.868 68.2659 141.958 68.335C142.049 68.4042 142.124 68.4916 142.178 68.5916C142.233 68.6916 142.266 68.8019 142.275 68.9155L142.487 71.1166C142.505 71.3171 142.449 71.5173 142.329 71.6785C142.208 71.8398 142.033 71.9506 141.836 71.9897L122.822 75.6582C122.619 75.6907 122.411 75.6432 122.242 75.5256C122.073 75.408 121.956 75.2294 121.915 75.0272Z" fill="#5067B2"/>
<path d="M125.689 91.3671L125.126 89.3054C125.099 89.1984 125.094 89.087 125.111 88.9779C125.128 88.8687 125.166 88.7642 125.224 88.6703C125.282 88.5765 125.358 88.4954 125.448 88.4318C125.538 88.3682 125.64 88.3235 125.748 88.3002L145.091 84.5217C145.202 84.5007 145.316 84.5036 145.427 84.53C145.537 84.5565 145.64 84.6059 145.73 84.6752C145.819 84.7444 145.894 84.8319 145.947 84.9319C146.001 85.0319 146.033 85.1421 146.041 85.2554L146.254 87.4565C146.274 87.6562 146.219 87.8564 146.1 88.0178C145.981 88.1793 145.806 88.2904 145.61 88.3296L126.596 91.9981C126.393 92.0306 126.185 91.9831 126.016 91.8655C125.847 91.7479 125.73 91.5693 125.689 91.3671Z" fill="#5067B2"/>
<path d="M188.106 188.517C187.316 181.283 173.546 175.523 156.66 175.523C139.774 175.523 126.026 181.283 125.214 188.517V188.554C125.203 188.762 125.203 188.97 125.214 189.178C125.203 189.393 125.203 189.608 125.214 189.823V193.749C125.203 193.964 125.203 194.179 125.214 194.394C125.203 194.604 125.203 194.815 125.214 195.025V195.436H125.272C126.457 202.509 140.045 208.085 156.645 208.085C173.246 208.085 186.834 202.509 188.018 195.436H188.106V188.554V188.517Z" fill="#091847"/>
<path d="M156.682 200.175C171.512 200.175 183.535 194.959 183.535 188.524C183.535 182.089 171.512 176.873 156.682 176.873C141.851 176.873 129.828 182.089 129.828 188.524C129.828 194.959 141.851 200.175 156.682 200.175Z" fill="#ADC3EF"/>
<path d="M111.019 231.798L118.661 204.651C118.862 203.943 119.287 203.319 119.873 202.876C120.459 202.432 121.174 202.192 121.908 202.193H131.313C132.046 202.195 132.759 202.435 133.345 202.879C133.93 203.322 134.357 203.944 134.56 204.651L142.202 231.798C142.343 232.301 142.366 232.83 142.269 233.344C142.172 233.857 141.958 234.341 141.644 234.758C141.329 235.174 140.923 235.512 140.456 235.745C139.99 235.977 139.476 236.098 138.955 236.098H114.259C113.738 236.097 113.225 235.975 112.76 235.742C112.294 235.509 111.888 235.171 111.575 234.755C111.261 234.339 111.047 233.855 110.951 233.342C110.855 232.829 110.878 232.301 111.019 231.798Z" fill="#1D3078"/>
<path d="M142.238 231.797L134.596 204.65C134.465 204.207 134.246 203.796 133.953 203.439C133.977 203.683 133.977 203.929 133.953 204.173C133.628 207.307 133.611 210.464 133.901 213.601C134.231 216.404 134.713 219.192 134.494 222.017C134.414 223.721 133.933 225.382 133.091 226.864C132.248 228.346 131.067 229.606 129.645 230.542C124.438 234.064 117.462 234.211 111.282 234.247C111.56 234.809 111.988 235.282 112.52 235.612C113.051 235.943 113.663 236.118 114.288 236.118H138.984C139.508 236.121 140.025 236.001 140.495 235.768C140.965 235.534 141.374 235.195 141.689 234.775C142.005 234.356 142.219 233.868 142.315 233.351C142.41 232.834 142.384 232.302 142.238 231.797Z" fill="#091847"/>
<path d="M130.881 212.31C130.881 213.158 130.631 213.986 130.162 214.691C129.692 215.395 129.025 215.945 128.245 216.269C127.465 216.593 126.606 216.678 125.777 216.513C124.949 216.347 124.188 215.939 123.591 215.34C122.993 214.741 122.587 213.977 122.422 213.146C122.257 212.315 122.342 211.453 122.665 210.67C122.988 209.888 123.536 209.218 124.238 208.748C124.94 208.277 125.766 208.025 126.611 208.025C127.743 208.027 128.828 208.479 129.628 209.283C130.429 210.086 130.88 211.174 130.881 212.31Z" fill="#5067B2"/>
<path d="M168.098 233.162H84.1878C83.4245 233.162 82.8057 233.783 82.8057 234.549V235.825C82.8057 236.591 83.4245 237.212 84.1878 237.212H168.098C168.861 237.212 169.48 236.591 169.48 235.825V234.549C169.48 233.783 168.861 233.162 168.098 233.162Z" fill="#1D3078"/>
<path opacity="0.24" d="M175.118 180.05L148.418 199.61L139.006 197.291L172.47 179.096" fill="white"/>
</g>
<defs>
<linearGradient id="paint0_linear_1404_2776" x1="226.718" y1="33.4706" x2="85.9949" y2="379.823" gradientUnits="userSpaceOnUse">
<stop stop-color="#B9BDFF"/>
<stop offset="1" stop-color="#564DC1"/>
</linearGradient>
<linearGradient id="paint1_linear_1404_2776" x1="52.4053" y1="241.094" x2="302.855" y2="241.094" gradientUnits="userSpaceOnUse">
<stop stop-color="#B9BDFF"/>
<stop offset="1" stop-color="#564DC1"/>
</linearGradient>
<linearGradient id="paint2_linear_1404_2776" x1="296.668" y1="59.5979" x2="195.275" y2="159.46" gradientUnits="userSpaceOnUse">
<stop stop-color="#B9BDFF"/>
<stop offset="1" stop-color="#564DC1"/>
</linearGradient>
<linearGradient id="paint3_linear_1404_2776" x1="17.0373" y1="152.346" x2="132.158" y2="180.931" gradientUnits="userSpaceOnUse">
<stop stop-color="#B9BDFF"/>
<stop offset="1" stop-color="#564DC1"/>
</linearGradient>
<linearGradient id="paint4_linear_1404_2776" x1="32.6745" y1="61.3659" x2="134.067" y2="161.236" gradientUnits="userSpaceOnUse">
<stop stop-color="#B9BDFF"/>
<stop offset="1" stop-color="#564DC1"/>
</linearGradient>
<linearGradient id="paint5_linear_1404_2776" x1="318.589" y1="151.143" x2="200.793" y2="175.217" gradientUnits="userSpaceOnUse">
<stop stop-color="#B9BDFF"/>
<stop offset="1" stop-color="#564DC1"/>
</linearGradient>
<clipPath id="clip0_1404_2776">
<rect width="353" height="247" fill="white"/>
</clipPath>
</defs>
</svg>
