<svg width="445" height="385" viewBox="0 0 445 385" fill="none" xmlns="http://www.w3.org/2000/svg">
<g clip-path="url(#clip0_1404_2992)">
<g style="mix-blend-mode:hard-light">
<path d="M392.579 0H125.812C116.596 0 109.125 7.47155 109.125 16.6882V258.155C109.125 267.372 116.596 274.843 125.812 274.843H392.579C401.795 274.843 409.267 267.372 409.267 258.155V16.6882C409.267 7.47155 401.795 0 392.579 0Z" fill="#F5F5F5"/>
</g>
<path d="M220.36 83.25C223.973 73.1672 223.616 62.088 219.362 52.2586C215.108 42.4293 207.276 34.5856 197.452 30.3179C196.596 29.9469 195.719 29.5967 194.821 29.2777C186.958 26.4661 178.438 26.0492 170.338 28.0799C162.238 30.1106 154.922 34.4975 149.316 40.6861C143.709 46.8746 140.064 54.5867 138.84 62.8472C137.616 71.1077 138.87 79.5455 142.442 87.0937C146.013 94.6418 151.743 100.961 158.907 105.253C166.07 109.545 174.345 111.616 182.685 111.204C191.025 110.793 199.056 107.917 205.763 102.942C212.469 97.9657 217.549 91.113 220.36 83.25ZM169.943 98.8529C166.029 97.4529 162.429 95.2958 159.349 92.5046C156.269 89.7134 153.768 86.3428 151.991 82.5852C150.213 78.8277 149.193 74.7568 148.988 70.6049C148.784 66.4531 149.399 62.3016 150.799 58.3876C152.199 54.4735 154.356 50.8735 157.147 47.7932C159.938 44.7128 163.309 42.2123 167.066 40.4346C170.824 38.6568 174.894 37.6366 179.046 37.4321C183.198 37.2276 187.349 37.8429 191.263 39.2428C191.931 39.474 192.589 39.734 193.236 40.023C200.724 43.3265 206.641 49.4019 209.746 56.9742C212.851 64.5465 212.902 73.0271 209.889 80.6364C206.876 88.2457 201.033 94.3921 193.585 97.786C186.138 101.18 177.666 101.557 169.947 98.839L169.943 98.8529Z" fill="#78C3FF"/>
<path d="M171.171 38.8169L168.019 28.7305C159.638 31.3545 152.283 36.5235 146.974 43.5194C141.665 50.5153 138.667 58.9909 138.395 67.7689L148.96 68.0845C149.165 61.5031 151.414 55.1488 155.394 49.904C159.375 44.6592 164.891 40.7841 171.174 38.8169H171.171Z" fill="#1173C2"/>
<path d="M193.236 40.0091L197.452 30.3006C196.596 29.9296 195.719 29.5794 194.821 29.2604C186.186 26.1567 176.773 25.9643 168.019 28.7126L171.171 38.799C177.739 36.7333 184.803 36.8782 191.281 39.2116C191.94 39.4636 192.591 39.7294 193.236 40.0091Z" fill="#1487E3"/>
<path d="M207.962 36.851C204.801 34.1614 201.26 31.9553 197.452 30.3047L193.236 40.0132C196.091 41.2489 198.747 42.9011 201.117 44.9159L207.962 36.851Z" fill="#4AAFFF"/>
<path d="M354.74 168.963H340.088V219.152H354.74V168.963Z" fill="#4AAFFF"/>
<path d="M332.956 183.039H318.303V219.151H332.956V183.039Z" fill="#4AAFFF"/>
<path d="M375.87 145.703H361.217V219.151H375.87V145.703Z" fill="#4AAFFF"/>
<path d="M373.509 109.012L373.249 107.428L334.582 113.759L322.048 140.475L280.358 143.307L266.853 163.227L234.982 162.437L234.94 164.042L267.689 164.853L281.245 144.857L323.099 142.014L335.678 115.208L373.509 109.012Z" fill="#4AAFFF"/>
<path d="M325.838 42.1309L368.336 42.1309C370.737 42.1309 372.684 40.1842 372.684 37.7829V36.9542C372.684 34.5528 370.737 32.6062 368.336 32.6062L325.838 32.6062C323.436 32.6062 321.49 34.5528 321.49 36.9542V37.7829C321.49 40.1842 323.436 42.1309 325.838 42.1309Z" fill="#1487E3"/>
<path d="M325.838 58.7539L368.336 58.7539C370.737 58.7539 372.684 56.8072 372.684 54.4059V53.5737C372.684 51.1724 370.737 49.2257 368.336 49.2257L325.838 49.2257C323.436 49.2257 321.49 51.1724 321.49 53.5737V54.4059C321.49 56.8072 323.436 58.7539 325.838 58.7539Z" fill="#4AAFFF"/>
<path d="M325.838 75.3691H368.336C370.737 75.3691 372.684 73.4225 372.684 71.0211V70.189C372.684 67.7876 370.737 65.841 368.336 65.841H325.838C323.436 65.841 321.49 67.7876 321.49 70.189V71.0211C321.49 73.4225 323.436 75.3691 325.838 75.3691Z" fill="#4AAFFF"/>
<path d="M250.831 50.3737H226.997V49.4584H250.45L262.997 36.9102H278.368V37.8255H263.379L250.831 50.3737Z" fill="#4AAFFF"/>
<path d="M273.413 92.0017H242.745L232.808 82.0644L233.453 81.416L243.123 91.0864H273.413V92.0017Z" fill="#4AAFFF"/>
<path d="M297.056 42.9629H265.265V46.8636H297.056V42.9629Z" fill="#1487E3"/>
<path d="M281.162 82.7402H255.57V86.641H281.162V82.7402Z" fill="#1487E3"/>
<path d="M7.40565 132.868C14.7146 129.373 21.9889 152.631 21.9889 152.631C34.4155 169.052 51.7795 147.208 50.0736 171.754C47.1022 214.7 99.5061 185.259 75.329 230.095C51.1519 274.93 96.6768 255.447 81.6532 291.598C66.6297 327.748 86.1017 370.871 63.4953 353.153C63.4953 353.153 43.5898 309.503 23.0637 295.998C2.53765 282.493 35.362 266.47 28.9407 248.128C19.6103 221.485 -2.86434 222.532 13.3381 193.899C29.5405 165.266 -17.4441 144.754 7.40565 132.868Z" fill="url(#paint0_linear_1404_2992)"/>
<path d="M70.6588 336.735C60.8604 329.845 49.3942 281.819 48.7111 253.217C48.3644 238.564 44.0304 232.459 40.206 227.074C36.555 221.925 33.3998 217.48 35.2374 207.272C38.7497 187.761 29.5165 179.339 29.4229 179.26L30.4908 178.039C30.9034 178.386 40.518 187.085 36.8324 207.56C35.1161 217.098 37.9454 221.082 41.5305 226.138C45.289 231.436 49.9663 238.031 50.3304 253.183C51.0654 283.879 62.7881 329.221 71.5915 335.413L70.6588 336.735Z" fill="white"/>
<path d="M74.3271 340.296C72.9286 340.286 71.5347 340.135 70.1664 339.845C66.3906 339.082 63.9254 337.089 62.8055 333.923C60.1634 326.368 66.2727 314.097 71.2517 308.182C71.3349 308.081 79.6493 297.922 78.7617 283.838C78.6126 281.477 78.3699 279.292 78.1515 277.364C77.5274 271.789 77.0767 267.763 79.4691 265.073C81.5806 262.701 85.6511 261.675 93.0884 261.64C106.129 261.581 111.284 256.183 115.428 251.841C117.189 250 118.85 248.26 120.868 247.157C127.369 243.61 134.252 243.086 137.237 245.916C138.655 247.261 139.851 249.893 137.504 254.803C135.358 259.289 132.573 262.132 130.337 264.414C127.327 267.486 125.337 269.514 126.374 273.557C126.617 274.507 126.897 275.464 127.178 276.428C129.186 283.304 131.467 291.098 119.699 296.386C117.2 297.509 114.925 298.401 112.918 299.191C104.704 302.412 99.742 304.361 94.1459 316.181C93.0641 318.466 92.1071 320.633 91.1814 322.731C86.7849 332.73 83.446 340.296 74.3271 340.296ZM121.662 248.579C119.866 249.56 118.361 251.138 116.617 252.961C112.262 257.521 106.843 263.197 93.1127 263.263C86.2753 263.294 82.4474 264.185 80.6999 266.151C78.786 268.301 79.202 272.045 79.7811 277.184C79.9995 279.129 80.2457 281.345 80.3983 283.734C81.3275 298.484 72.8709 308.792 72.5137 309.222C67.5937 315.078 62.0253 326.732 64.3518 333.389C65.2603 335.976 67.3267 337.616 70.5062 338.243C81.6014 340.483 84.6491 333.549 89.7182 322.061C90.6474 319.953 91.6079 317.776 92.7 315.474C98.5735 303.078 104.052 300.928 112.342 297.676C114.332 296.892 116.589 296.008 119.051 294.902C129.533 290.19 127.639 283.723 125.639 276.872C125.351 275.894 125.067 274.916 124.821 273.949C123.559 269.022 126.045 266.484 129.196 263.27C131.46 260.957 134.03 258.339 136.058 254.095C137.122 251.869 138 248.846 136.138 247.084C133.69 244.761 127.47 245.399 121.662 248.568V248.579Z" fill="url(#paint1_linear_1404_2992)"/>
<path d="M70.357 349.651L68.7412 349.565C68.821 348.046 70.8632 312.208 85.2522 301.716C101.039 290.208 106.014 277.84 108.386 269.539C111.18 259.758 125.396 257.143 125.999 257.057L126.28 258.652C126.145 258.676 112.456 261.197 109.942 270.004C107.515 278.533 102.398 291.241 86.2057 303.04C72.4338 313.068 70.3778 349.287 70.357 349.651Z" fill="url(#paint2_linear_1404_2992)"/>
<path d="M103.258 169.035C93.0296 165.53 95.155 185.241 90.8348 199.828C86.5146 214.415 42.758 206.191 61.124 242.712C79.49 279.233 37.8935 254.927 50.3201 286.799C62.7467 318.67 51.4019 352.758 64.9068 344.086C78.4117 335.414 72.4931 295.283 86.5389 290.512C100.585 285.741 102.873 280.183 88.966 267.216C75.0589 254.248 125.403 241.381 112.98 215.206C100.557 189.031 115.074 173.088 103.258 169.035Z" fill="url(#paint3_linear_1404_2992)"/>
<path d="M71.1721 342.559C69.8857 337.102 58.9015 289.086 69.1507 283.268C78.1655 278.154 77.9609 258.255 76.5532 239.469C75.305 222.826 96.6633 215.063 97.5751 214.74L98.116 216.266C97.9045 216.342 77.0144 223.953 78.169 239.348C79.6148 258.643 79.7708 279.118 69.9481 284.679C62.1676 289.086 69.331 327.674 72.7497 342.174L71.1721 342.559Z" fill="white"/>
<path d="M94.4233 325.463L79.8192 380.864H47.189L32.585 325.463H94.4233Z" fill="url(#paint4_linear_1404_2992)"/>
<path d="M94.4198 325.463C94.4198 325.463 62.275 331.499 62.275 380.864H47.1855L32.585 325.463H94.4198Z" fill="url(#paint5_linear_1404_2992)"/>
<path d="M346.281 256.689H216.869V262.157H346.281V256.689Z" fill="#E8E8E8"/>
<path d="M356.703 269.445H216.869V274.913H356.703V269.445Z" fill="#E8E8E8"/>
<path d="M307.6 282.205H216.869V287.673H307.6V282.205Z" fill="#E8E8E8"/>
<path d="M284.252 256.689H216.869V262.157H284.252V256.689Z" fill="#4AAFFF"/>
<path d="M289.678 269.445H216.869V274.913H289.678V269.445Z" fill="#4AAFFF"/>
<path d="M264.114 282.205H216.869V287.673H264.114V282.205Z" fill="#4AAFFF"/>
<path d="M237.315 233.59H186.912V236.582H237.315V233.59Z" fill="#E2D2CA"/>
<path d="M193.666 380.441H198.083L198.083 244.37H193.666L193.666 380.441Z" fill="#706865"/>
<path d="M264.464 232.744H229.427V237.016H264.464V232.744Z" fill="#CCBDB7"/>
<path d="M253.577 196.285H240.311V236.582H253.577V196.285Z" fill="#998E89"/>
<path d="M362.944 236.633H168.831V244.368H362.944V236.633Z" fill="#B59074"/>
<g style="mix-blend-mode:hard-light">
<path d="M131.575 189.805C131.575 189.805 129.453 219.575 135.271 223.139C138.915 225.372 153.443 232.9 153.013 234.314C152.583 235.729 144.809 246.876 144.809 246.876C144.809 246.876 116.898 228.5 116 222.702C115.119 217.044 117.387 179.108 121.201 177.36C124.075 176.053 125.59 177.135 129.214 179.822C134.3 183.598 131.575 189.805 131.575 189.805Z" fill="#F5F5F5"/>
</g>
<path d="M165.915 361.864C165.915 361.864 165.048 367.886 164.937 368.798C164.826 369.71 155.284 368.264 155.284 368.264L154.511 361.094C154.511 361.094 164.722 361.014 165.915 361.864Z" fill="#424773"/>
<path d="M165.041 368.023C165.041 368.023 168.064 371.654 170.99 373.224C173.917 374.795 178.511 375.437 180.241 377.073C181.489 378.256 184.79 383.346 172.641 383.242C160.491 383.138 154.632 383.963 153.332 382.011C152.031 380.059 155.214 367.607 155.214 367.607C155.214 367.607 158.092 368.651 165.041 368.023Z" fill="#292C47"/>
<path d="M227.077 361.918C227.077 361.918 226.21 367.944 226.099 368.852C225.988 369.761 216.446 368.318 216.446 368.318L215.673 361.144C215.673 361.144 225.884 361.068 227.077 361.918Z" fill="#424773"/>
<path d="M226.203 368.084C226.203 368.084 229.226 371.714 232.152 373.285C235.079 374.855 245.841 376.166 247.571 377.792C248.819 378.971 250.896 383.732 233.803 383.288C221.667 382.972 215.794 384.006 214.494 382.054C213.194 380.101 216.376 367.65 216.376 367.65C216.376 367.65 219.088 368.781 226.203 368.084Z" fill="#292C47"/>
<path d="M135.125 257.799C135.125 257.799 169.829 263.672 177.668 264.903C185.508 266.134 228.013 276.692 233.328 279.934C237.558 282.5 231.109 344.111 229.601 367.619H212.861L211.647 297.104C191.558 297.607 177.221 292.406 162.593 294.629C147.964 296.851 135.767 300.02 126.471 287.538C126.471 287.538 126.124 260.524 135.125 257.799Z" fill="#292C47"/>
<path d="M169.333 367.674L153.037 366.665L151.445 297.103C142.798 297.318 139.834 296.757 132.833 295.921L119.658 265.305C131.2 267.61 168.199 276.941 173.119 279.933C177.339 282.499 170.838 344.165 169.333 367.674Z" fill="#292C47"/>
<path d="M151.099 127.694C151.099 127.694 163.824 124.178 168.678 134.056C173.532 143.935 171.33 162.658 164.919 164.42C158.508 166.181 149.285 164.149 146.623 158.005C143.96 151.861 141.838 143.12 142.462 137.465C143.086 131.81 147.722 129.053 151.099 127.694Z" fill="#EEA886"/>
<path d="M161.594 162.454C161.594 162.454 161.455 169.964 162.287 171.566C163.12 173.168 144.573 172.765 144.573 172.765C144.573 172.765 147.496 163.75 145.839 156.063C144.188 148.456 161.594 162.454 161.594 162.454Z" fill="#EEA886"/>
<path d="M144.83 153.218C144.83 153.218 145.822 155.233 150.624 154.91C155.426 154.588 161.753 148.794 163.799 148.274C165.845 147.754 165.956 146.599 165.956 146.599L167.034 148.516L169.114 148.832C169.114 148.832 167.696 143.028 170.786 140.985C173.875 138.943 169.399 122.484 153.741 126.45C153.741 126.45 141.796 128.638 141.637 135.309C141.477 141.98 142.514 149.685 144.83 153.218Z" fill="#3A3F47"/>
<path d="M163.259 171.382C163.259 171.382 163.207 168.32 161.82 168.029C160.433 167.738 147.257 165.921 145.524 166.59L144.792 170.63C144.792 170.63 148.103 172.641 163.259 171.382Z" fill="#E2D2CA"/>
<path d="M167.072 145.228C166.726 142.721 163.869 139.84 162.218 143.747C160.568 147.655 163.317 153.342 165.151 153.036C166.986 152.731 167.558 148.633 167.072 145.228Z" fill="#EEA886"/>
<path d="M218.506 207.526C218.502 207.524 218.498 207.523 218.494 207.523C218.489 207.523 218.485 207.524 218.481 207.526C218.579 207.564 218.592 207.568 218.506 207.526Z" fill="#323657"/>
<path d="M147.389 129.495C147.389 129.495 131.876 128.763 144.681 152.982L147.389 129.495Z" fill="#3A3F47"/>
<path d="M112.828 375.926L113.982 379.175L162.739 364.064L160.402 357.49L112.828 375.926Z" fill="#918783"/>
<path d="M164.41 308.74H158.869V361.752H164.41V308.74Z" fill="#918783"/>
<path d="M177.984 305.924H145.298V309.048H177.984V305.924Z" fill="#5E5854"/>
<path d="M210.885 375.926L209.73 379.175L160.97 364.065L163.113 357.078L210.885 375.926Z" fill="#918783"/>
<path d="M176.531 378.825V382.601L160.97 364.065L163.113 357.078L176.531 378.825Z" fill="#918783"/>
<path d="M215.437 380.441C215.437 381.342 215.17 382.223 214.669 382.972C214.169 383.721 213.457 384.305 212.625 384.65C211.792 384.995 210.876 385.085 209.992 384.909C209.109 384.734 208.297 384.3 207.66 383.662C207.022 383.025 206.589 382.213 206.413 381.33C206.237 380.446 206.327 379.53 206.672 378.697C207.017 377.865 207.601 377.153 208.35 376.653C209.099 376.152 209.98 375.885 210.881 375.885C212.089 375.885 213.248 376.365 214.103 377.219C214.957 378.074 215.437 379.232 215.437 380.441Z" fill="#BFB2AC"/>
<path d="M176.916 380.441C176.916 381.342 176.649 382.224 176.147 382.973C175.646 383.723 174.934 384.307 174.1 384.651C173.267 384.996 172.35 385.085 171.466 384.908C170.582 384.731 169.77 384.296 169.134 383.658C168.497 383.019 168.064 382.206 167.89 381.321C167.716 380.436 167.808 379.52 168.155 378.688C168.502 377.855 169.088 377.145 169.839 376.646C170.59 376.147 171.472 375.882 172.374 375.885C173.58 375.888 174.735 376.37 175.587 377.224C176.438 378.078 176.916 379.235 176.916 380.441Z" fill="#BFB2AC"/>
<path d="M117.384 380.441C117.384 381.343 117.117 382.225 116.617 382.975C116.116 383.726 115.404 384.31 114.57 384.656C113.737 385.002 112.82 385.092 111.935 384.916C111.051 384.741 110.238 384.306 109.6 383.668C108.962 383.03 108.528 382.218 108.352 381.333C108.176 380.448 108.267 379.531 108.612 378.698C108.958 377.865 109.543 377.152 110.293 376.652C111.043 376.151 111.925 375.884 112.828 375.885C114.036 375.885 115.195 376.365 116.049 377.219C116.904 378.074 117.384 379.232 117.384 380.441Z" fill="#BFB2AC"/>
<path d="M195.244 294.09H128.472C125.527 294.09 123.139 296.477 123.139 299.423V300.588C123.139 303.533 125.527 305.92 128.472 305.92H195.244C198.189 305.92 200.577 303.533 200.577 300.588V299.423C200.577 296.477 198.189 294.09 195.244 294.09Z" fill="#E2D2CA"/>
<path d="M338.112 244.369H333.694V380.44H338.112V244.369Z" fill="#706865"/>
<path d="M298.908 134.879H194.984C192.046 134.879 189.665 137.26 189.665 140.198V210.376C189.665 213.314 192.046 215.695 194.984 215.695H298.908C301.845 215.695 304.226 213.314 304.226 210.376V140.198C304.226 137.26 301.845 134.879 298.908 134.879Z" fill="#B8ABA5"/>
<path d="M299.74 139.248H194.152V203.033H299.74V139.248Z" fill="#F5F7FF"/>
<path d="M295.045 209.047C295.045 210.861 293.138 212.331 290.787 212.331C288.436 212.331 286.533 210.861 286.533 209.047C286.533 207.234 288.436 205.764 290.787 205.764C293.138 205.764 295.045 207.234 295.045 209.047Z" fill="#918681"/>
<path d="M270.66 236.734V235.295C270.66 235.295 268.638 226.35 254.336 226.35C240.033 226.35 240.325 236.752 240.325 236.752L270.66 236.734Z" fill="#998E89"/>
<path d="M240.152 227.681C240.152 227.681 243.272 227.439 244.396 226.752C245.519 226.065 252.342 221.485 253.944 222.22C255.546 222.955 266.187 226.215 265.82 227.768C265.452 229.321 264.464 229.176 263.715 228.902C262.966 228.628 255.234 227.002 254.551 227.276C254.551 227.276 262.144 230.049 262.179 232.067C262.214 234.085 260.591 234.581 259.873 235.344C259.156 236.107 258.289 238.007 256.33 238.153C254.371 238.298 244.826 234.976 242.86 234.824C240.894 234.671 237.257 234.945 237.01 234.626C236.764 234.307 240.152 227.681 240.152 227.681Z" fill="#EEA886"/>
<path d="M183.59 175.616C173.684 173.882 163.258 171.375 163.258 171.375L144.809 170.623C144.809 170.623 127.875 174.35 121.208 177.36C120.577 177.648 120.573 192.467 118.836 196.354L124.384 208.018C124.384 208.018 127.577 231.121 128.239 241.394C128.544 246.113 127.379 286.986 127.379 286.986C127.379 286.986 129.037 287.804 141.626 289.191C154.216 290.578 185.66 288.689 185.875 287.201C186.09 285.714 179.783 231.825 179.506 229.033C179.079 224.751 180.744 204.96 180.744 204.96C183.115 208.146 189.162 222.539 195.466 229.384C199.175 233.413 217.535 235.881 220.995 235.996C228.529 236.249 242.273 237.75 242.676 237.015C242.998 236.575 243.872 224.817 243.022 224.533C242.266 224.28 216.747 222.799 210.208 219.332C207.816 218.063 200.666 202.47 200.666 202.47C200.666 202.47 189.055 178.071 183.59 175.616Z" fill="#DBDFF0"/>
<path d="M148.214 211.842H115.282C109.629 211.842 105.047 216.424 105.047 222.077V275.568C105.047 281.22 109.629 285.803 115.282 285.803H148.214C153.867 285.803 158.449 281.22 158.449 275.568V222.077C158.449 216.424 153.867 211.842 148.214 211.842Z" fill="#E2D2CA"/>
<path d="M148.984 302.978C141.113 302.978 134.727 300.336 130.004 295.121C119.328 283.332 121.246 262.615 121.336 261.738C121.374 261.349 121.489 260.972 121.673 260.628C121.857 260.284 122.108 259.98 122.409 259.732C122.711 259.485 123.059 259.299 123.432 259.186C123.806 259.073 124.198 259.035 124.587 259.073C124.975 259.112 125.352 259.226 125.696 259.41C126.04 259.595 126.345 259.845 126.592 260.146C126.839 260.448 127.025 260.796 127.138 261.17C127.251 261.543 127.29 261.935 127.251 262.324C127.227 262.559 125.518 281.338 134.421 291.144C138.02 295.107 142.784 297.038 148.984 297.038C149.772 297.038 150.528 297.351 151.085 297.909C151.642 298.466 151.955 299.222 151.955 300.01C151.955 300.798 151.642 301.554 151.085 302.111C150.528 302.668 149.772 302.981 148.984 302.981V302.978Z" fill="#E2D2CA"/>
<path d="M231.802 144.33H202.4C201.979 144.33 201.637 144.672 201.637 145.093V146.937C201.637 147.359 201.979 147.7 202.4 147.7H231.802C232.224 147.7 232.565 147.359 232.565 146.937V145.093C232.565 144.672 232.224 144.33 231.802 144.33Z" fill="#DFE1E8"/>
<path d="M231.802 151.557H202.4C201.979 151.557 201.637 151.898 201.637 152.319V154.164C201.637 154.585 201.979 154.927 202.4 154.927H231.802C232.224 154.927 232.565 154.585 232.565 154.164V152.319C232.565 151.898 232.224 151.557 231.802 151.557Z" fill="#DFE1E8"/>
<path d="M230.003 159.846H204.2C202.784 159.846 201.637 160.993 201.637 162.408V195.389C201.637 196.804 202.784 197.951 204.2 197.951H230.003C231.418 197.951 232.565 196.804 232.565 195.389V162.408C232.565 160.993 231.418 159.846 230.003 159.846Z" fill="#DFE1E8"/>
<path d="M242.87 144.33H289.83C290.906 144.33 291.938 144.757 292.699 145.518C293.459 146.279 293.887 147.311 293.887 148.387V193.895C293.887 194.971 293.459 196.003 292.699 196.764C291.938 197.525 290.906 197.952 289.83 197.952H242.87C241.793 197.952 240.76 197.524 239.999 196.763C239.237 196.001 238.81 194.969 238.81 193.892V148.401C238.808 147.867 238.912 147.338 239.116 146.844C239.319 146.35 239.618 145.901 239.995 145.523C240.372 145.145 240.82 144.845 241.314 144.64C241.807 144.435 242.336 144.33 242.87 144.33Z" fill="#DFE1E8"/>
<path d="M381.962 267.916C381.962 267.916 398.657 263.197 419.061 267.916L409.273 217.793C409.273 217.793 384.836 243.694 381.962 267.916Z" fill="#B3B7C4"/>
<path d="M329.052 181.504C329.052 181.504 325.304 184.188 324.198 183.851C323.092 183.515 321.226 184.056 320.176 183.945C319.125 183.834 316.362 182.516 315.263 182.801C314.812 182.915 312.305 184.701 311.362 184.836C310.419 184.971 308.477 185.016 308.609 185.817C308.741 186.618 310.481 187.052 310.481 187.052C310.481 187.052 309.628 187.228 309.524 187.97C309.316 189.416 310.076 189.923 310.076 189.923C310.076 189.923 309.316 190.658 309.382 191.282C309.528 192.648 310.277 193.116 310.277 193.116C310.08 193.632 310.073 194.201 310.256 194.721C310.385 195.056 310.599 195.352 310.877 195.58C311.155 195.808 311.487 195.96 311.84 196.022C311.84 196.022 312 197.554 312.842 197.755C313.685 197.956 314.42 197.662 315.117 197.644C315.814 197.627 321.816 195.564 325.387 192.443C327.721 190.46 330.31 188.797 333.084 187.499L329.052 181.504Z" fill="#EEA987"/>
<path d="M405.92 78.9466C405.92 78.9466 411.516 75.3545 416.561 81.7378C421.606 88.1212 419.793 94.2583 418.739 99.9863C417.685 105.714 412.605 118.672 414.765 124.403C416.925 130.135 414.165 133.113 414.165 133.113C414.165 133.113 396.812 137.558 398.833 111.453C400.855 85.3473 405.92 78.9466 405.92 78.9466Z" fill="#FCCCA2"/>
<path d="M398.483 128.239C398.483 128.239 391.875 127.334 387.44 130.666C383.005 133.998 379.971 140.219 378.616 142.171C377.26 144.123 361.425 161.588 360.635 161.934C359.844 162.281 349.99 167.69 343.35 172.083C336.711 176.476 326.25 181.771 326.25 181.771L331.922 188.73C331.922 188.73 359.879 178.72 365.693 173.311C371.907 167.531 400.626 138.853 400.626 138.853C400.626 138.853 407.845 133 398.483 128.239Z" fill="#DBDFF0"/>
<path d="M350.406 371.366C350.406 371.366 343.257 380.991 344.238 382.517C345.219 384.042 352.736 384.25 357.309 382.517C361.883 380.783 361.994 369.494 364.064 364.65C364.931 362.621 363.076 356.633 360.468 356.196C357.861 355.76 355.028 357.039 355.028 357.039C355.028 357.039 357.729 363.866 350.406 371.366Z" fill="#1D3B54"/>
<path d="M354.98 356.963C354.053 359.564 353.365 362.245 352.924 364.972C352.47 368.217 347.834 375.107 348.052 375.977C348.271 376.848 354.151 377.638 356.547 375.391C358.943 373.145 360.486 366.612 361.016 362.704C361.505 359.064 362.126 357.264 362.126 357.264C362.126 357.264 357.265 354.567 354.98 356.963Z" fill="#EEA886"/>
<path d="M364.258 363.805V373.881H362.951V366.093L364.258 363.805Z" fill="#1D3B54"/>
<path d="M412.619 371.53C412.619 371.53 405.73 380.992 406.725 382.518C407.72 384.043 415.223 384.251 419.796 382.518C424.37 380.784 424.481 369.494 426.551 364.65C427.417 362.622 425.562 356.634 422.955 356.197C420.348 355.76 417.293 357.133 417.293 357.133C417.293 357.133 419.935 364.026 412.619 371.53Z" fill="#1D3B54"/>
<path d="M417.279 357.133C416.961 359.702 416.487 362.249 415.861 364.761C414.991 367.92 410.314 375.111 410.525 375.981C410.737 376.851 416.624 377.642 419.02 375.395C421.416 373.148 423.271 366.644 423.489 362.708C423.707 358.773 422.941 356.2 422.941 356.2C422.941 356.2 419.568 354.737 417.279 357.133Z" fill="#EEA886"/>
<path d="M426.731 363.805V373.881H425.424V366.093L426.731 363.805Z" fill="#1D3B54"/>
<path d="M382.835 200.469C382.835 200.469 376.702 229.005 375.294 236.182C373.887 243.36 369.951 278.175 369.528 284.069C369.105 289.964 363.128 312.279 363.412 314.391C363.696 316.503 354.213 358.426 354.213 358.426C354.213 358.426 363.97 361.082 365.614 359.293C367.001 357.774 381.026 319.419 381.026 308.868C381.026 294.263 392.041 275.672 393.435 272.402C406.382 242.052 403.615 232.299 405.307 230.329C406.999 228.36 407.141 231.546 408.129 235.915C409.117 240.284 411.225 278.033 412.494 282.825C413.763 287.616 412.779 303.812 413.482 311.985C414.186 320.157 414.998 356.762 414.998 356.762C414.998 356.762 422.064 358.384 425.424 356.82C426.391 356.366 428.835 316.041 428.974 306.319C429.113 296.597 429.265 283.196 429.539 278.99C432.15 238.713 435.999 232.996 428.461 204.443C413.999 149.725 382.835 200.469 382.835 200.469Z" fill="#3B3B40"/>
<path d="M398.726 124.441C398.726 124.441 392.322 127.465 390.099 127.909C387.877 128.353 379.25 139.555 377.739 143.647C376.227 147.738 377.739 153.872 380.859 161.074C383.98 168.275 381.036 170.678 382.461 177.88C383.886 185.081 382.534 201.964 382.267 205.965C382 209.966 414.984 215.049 427.664 202.276C427.664 202.276 420.781 189.35 419.717 187.571C418.652 185.792 419.536 176.101 420.517 173.611C421.499 171.122 428.003 149.95 428.003 149.95C428.003 149.95 433.329 133.689 428.52 129.951C424.338 126.706 412.948 125.551 410.903 124.837C408.857 124.122 402.904 123.821 398.726 124.441Z" fill="#E8734D"/>
<path d="M396.68 138.714L392.79 134.161L396.167 122.168C396.167 122.168 397.301 128.846 396.68 138.714Z" fill="#D6C5BE"/>
<path d="M395.665 117.057C395.665 117.057 396.944 128.801 396.677 132.625C396.677 132.625 403.327 139.29 410.893 124.841C410.893 124.841 407.71 118.888 410.106 110.774C412.501 102.661 395.665 117.057 395.665 117.057Z" fill="#EEA886"/>
<path d="M396.68 132.625V138.717L404.336 132.996L396.68 132.625Z" fill="#EEA886"/>
<path d="M396.68 138.717L399.86 134.782L410.567 124.109L414.03 127.445L396.68 138.717Z" fill="#D6C5BE"/>
<path d="M392.79 134.161L387.887 135.517L396.167 122.168L392.79 134.161Z" fill="#FAE6DE"/>
<path d="M399.86 134.782L404.336 140.652L413.483 125.035L410.3 123.402L399.86 134.782Z" fill="#FAE6DE"/>
<path d="M395.932 119.64L396.15 121.967C396.15 121.967 401.441 122.986 408.358 114.547C408.358 114.547 403.456 120.528 395.932 119.64Z" fill="#A77860"/>
<path d="M397.273 119.813C395.193 119.733 389.378 119.054 386.525 105.659C383.023 89.2936 390.765 80.8056 397.395 79.235C404.024 77.6643 410.14 79.9666 413.535 88.5204C413.535 88.5204 416.017 95.1881 411.992 107.067C407.966 118.946 399.506 119.893 397.273 119.813Z" fill="#EEA987"/>
<path d="M402.599 89.8489C402.599 89.8489 393.691 90.4037 385.415 102.838C385.415 102.838 381.542 87.876 391.656 81.0489C401.77 74.2218 408.874 80.0885 411.347 83.0669C411.347 83.0669 414.89 83.8817 415.001 90.6048C415.112 97.328 419.633 107.473 409.713 112.286C409.713 112.286 410.66 104.609 409.786 102.855C408.913 101.1 405.889 102.286 402.599 89.8489Z" fill="#FCCCA2"/>
<path d="M409.305 99.8718C409.756 98.7102 410.976 98.2421 411.652 99.4904C412.328 100.739 411.524 105.576 409.724 106.103C407.925 106.63 408.396 102.233 409.305 99.8718Z" fill="#EEA987"/>
<path d="M413.483 125.031C413.483 125.031 403.427 137.063 402.387 162.353C401.347 187.644 410.31 268.425 409.752 278.28L435.832 265.659C435.832 265.659 435.68 224.9 426.949 199.259C416.704 169.17 428.354 159.992 429.421 141.487C429.421 141.487 428.936 127.933 421.384 126.706C414.273 125.548 413.483 125.031 413.483 125.031Z" fill="#DBDFF0"/>
<path d="M393.272 126.834C393.272 126.834 389.181 127.312 387.887 128.838C386.594 130.364 378.526 139.687 377.923 142.43C377.319 145.173 375.447 147.218 379.327 159.999C382.794 171.441 381.924 184.27 381.206 189.391C380.488 194.512 367.999 263.879 368.682 265.672C369.365 267.465 374.577 271.695 374.577 271.695C374.577 271.695 385.759 203.264 385.644 191.836C385.53 180.407 381.043 146.362 393.272 126.834Z" fill="#DBDFF0"/>
<path d="M307.718 162.949L316.438 207.851L345.258 202.254L337.664 157.131L307.718 162.949Z" fill="#616161"/>
<path d="M309.881 165.134L317.627 205.015L343.222 200.042L336.479 159.971L309.881 165.134Z" fill="#E0CEC7"/>
<path d="M317.995 164.59L317.45 161.788L327.8 159.777L328.746 162.499L317.995 164.59Z" fill="#616161"/>
<path d="M310.96 186.687C310.96 186.687 316.119 185.002 317.648 185.969C319.177 186.937 317.35 187.648 317.35 187.648C317.35 187.648 319.146 186.916 319.857 188.261C320.567 189.607 318.383 190.342 318.383 190.342C318.587 190.313 318.794 190.327 318.992 190.383C319.19 190.438 319.375 190.534 319.534 190.664C319.693 190.795 319.824 190.956 319.918 191.14C320.011 191.323 320.066 191.523 320.078 191.729C320.269 193.31 318.327 193.501 318.327 193.501C318.327 193.501 320.581 194.388 319.16 195.827C316.76 198.254 312.919 197.88 312.919 197.88C312.919 197.88 311.715 197.738 311.639 196.202C311.639 196.202 309.361 195.727 310.124 193.171C310.124 193.171 308.113 191.344 309.874 189.947C309.878 189.929 308.019 187.599 310.96 186.687Z" fill="#DB9C7C"/>
<path d="M435.884 212.463C435.884 212.463 436.925 217.317 434.799 220.604C433.988 221.859 434.768 231.353 434.841 232.542C434.903 233.537 435.798 234.387 436.165 234.182C436.533 233.978 436.616 228.718 437.174 227.026C437.646 225.601 438.062 225.067 438.318 225.521C438.575 225.975 437.701 233.607 437.205 236.131C436.71 238.655 437.33 243.981 438.641 243.121C439.951 242.261 444.337 230.441 444.012 226.478C443.686 222.515 442.195 217.601 442.195 217.601L435.884 212.463Z" fill="#EEA886"/>
<path d="M415.022 125.746C415.022 125.746 425.424 125.105 430.659 131.183C435.895 137.261 435.6 144.48 436.928 147.614C438.256 150.749 441.297 164.237 441.962 166.421C442.628 168.605 443.276 180.883 444.226 190.762C445.176 200.64 444.982 219.086 444.982 219.086L435.017 217.28C435.017 217.28 434.619 199.697 434.366 189.503C434.113 179.309 425.815 161.293 422.681 153.408C419.547 145.524 407.068 130.69 415.022 125.746Z" fill="#DBDFF0"/>
</g>
<defs>
<linearGradient id="paint0_linear_1404_2992" x1="-0.000387824" y1="244.893" x2="84.7737" y2="244.893" gradientUnits="userSpaceOnUse">
<stop stop-color="#40D5E6"/>
<stop offset="1" stop-color="#5577FF"/>
</linearGradient>
<linearGradient id="paint1_linear_1404_2992" x1="62.1883" y1="292.197" x2="138.849" y2="292.197" gradientUnits="userSpaceOnUse">
<stop stop-color="#40D5E6"/>
<stop offset="1" stop-color="#5577FF"/>
</linearGradient>
<linearGradient id="paint2_linear_1404_2992" x1="68.7412" y1="303.345" x2="126.28" y2="303.345" gradientUnits="userSpaceOnUse">
<stop stop-color="#40D5E6"/>
<stop offset="1" stop-color="#5577FF"/>
</linearGradient>
<linearGradient id="paint3_linear_1404_2992" x1="47.9624" y1="257.042" x2="114.974" y2="257.042" gradientUnits="userSpaceOnUse">
<stop stop-color="#40D5E6"/>
<stop offset="1" stop-color="#5577FF"/>
</linearGradient>
<linearGradient id="paint4_linear_1404_2992" x1="32.585" y1="353.163" x2="94.4233" y2="353.163" gradientUnits="userSpaceOnUse">
<stop stop-color="#FF9340"/>
<stop offset="1" stop-color="#FFCE45"/>
</linearGradient>
<linearGradient id="paint5_linear_1404_2992" x1="32.585" y1="353.163" x2="94.4198" y2="353.163" gradientUnits="userSpaceOnUse">
<stop stop-color="#C97332"/>
<stop offset="1" stop-color="#FFCE45"/>
</linearGradient>
<clipPath id="clip0_1404_2992">
<rect width="445" height="385" fill="white"/>
</clipPath>
</defs>
</svg>
