<svg width="292" height="293" viewBox="0 0 292 293" fill="none" xmlns="http://www.w3.org/2000/svg">
<g clip-path="url(#clip0_1_72)">
<path d="M146 146.355H6.10352e-05C6.10352e-05 65.7307 65.3758 0.35498 146 0.35498V146.355Z" fill="#FF4B4B"/>
<path d="M292 146.355H146V0.35498C226.624 0.35498 292 65.7307 292 146.355Z" fill="#FBD15B"/>
<path d="M146 292.355C65.3758 292.355 6.10352e-05 226.979 6.10352e-05 146.355H146V292.355Z" fill="#0A335B"/>
<path d="M146 292.355V146.355H292C292 226.979 226.624 292.355 146 292.355Z" fill="#FF4B4B"/>
<path d="M146 146.355H73.7888C73.7888 106.393 106.214 73.9685 146.175 73.9685V146.355H146Z" fill="#F9FBFC"/>
<path d="M218.387 146.355H146V74.1436C185.962 74.1436 218.387 106.393 218.387 146.355Z" fill="#FF4B4B"/>
<path d="M146 218.742C106.038 218.742 73.6135 186.317 73.6135 146.355H146V218.742Z" fill="#FBD15B"/>
<path d="M146 218.742V146.355H218.387C218.387 186.317 185.962 218.742 146 218.742Z" fill="#0A335B"/>
</g>
<defs>
<clipPath id="clip0_1_72">
<rect width="292" height="292" fill="white" transform="translate(6.10352e-05 0.35498)"/>
</clipPath>
</defs>
</svg>
