<svg width="328" height="326" viewBox="0 0 328 326" fill="none" xmlns="http://www.w3.org/2000/svg">
<g clip-path="url(#clip0_2665_1623)">
<path d="M225.879 127.77C221.451 105.351 205.821 81.6771 187.254 70.9472C184.766 69.4985 182.147 68.2877 179.431 67.3312C171.579 64.586 164.554 64.9993 159.093 68.1282C151.846 72.2903 147.359 81.2343 147.359 94.001C147.359 119.446 165.218 150.381 187.209 163.103C206.397 174.187 222.499 167.782 226.263 149.082C226.838 146.111 227.119 143.09 227.104 140.064C227.097 135.936 226.686 131.818 225.879 127.77ZM256.874 82.4593V301.426L117.884 221.181V2.21387L256.874 82.4593ZM227.886 245.843V199.986C227.836 197.774 227.264 195.605 226.219 193.655C225.315 191.801 223.921 190.229 222.189 189.109C219.046 187.294 216.507 189.227 216.507 193.419V239.275C216.507 243.452 219.046 248.323 222.189 250.138C225.333 251.953 227.827 250.02 227.827 245.843H227.886ZM204.67 232.427V203.233C204.619 201.021 204.048 198.852 203.002 196.902C202.099 195.056 200.711 193.49 198.987 192.371C195.844 190.555 193.29 192.474 193.29 196.666V225.859C193.29 230.051 195.844 234.921 198.987 236.737C202.131 238.552 204.611 236.619 204.611 232.427H204.67ZM181.453 219.026V206.48C181.402 204.273 180.831 202.108 179.785 200.163C178.89 198.303 177.495 196.729 175.756 195.618C172.612 193.802 170.074 195.736 170.074 199.913V212.458C170.074 216.649 172.612 221.505 175.756 223.321C178.9 225.136 181.394 223.217 181.394 219.026H181.453ZM158.177 205.624V182.01C158.127 179.797 157.555 177.628 156.51 175.678C155.61 173.83 154.222 172.263 152.495 171.147C149.351 169.332 146.798 171.25 146.798 175.442V199.057C146.798 203.248 149.351 208.104 152.495 209.919C155.639 211.735 158.177 209.816 158.177 205.624Z" fill="white"/>
<path d="M227.827 199.986V245.843C227.827 250.02 225.274 251.953 222.13 250.138C218.986 248.323 216.448 243.452 216.448 239.275V193.419C216.448 189.227 218.986 187.293 222.13 189.109C223.862 190.229 225.256 191.801 226.16 193.655C227.205 195.605 227.777 197.774 227.827 199.986Z" fill="#DAE0E5"/>
<path d="M227.207 140.064C227.223 143.09 226.941 146.111 226.366 149.082L205.629 132.065C205.905 130.67 206.039 129.251 206.028 127.829C206.017 125.891 205.819 123.958 205.437 122.058L225.879 127.77C226.721 131.815 227.166 135.933 227.207 140.064Z" fill="white"/>
<path d="M205.629 132.065L226.366 149.082C222.558 167.782 206.515 174.173 187.313 163.103C165.277 150.381 147.462 119.446 147.462 94.001C147.462 81.2343 151.89 72.2903 159.196 68.1282L174.147 94.0895C170.752 96.0525 168.642 100.244 168.642 106.222C168.642 118.162 177.01 132.67 187.357 138.692C196.36 143.843 203.858 140.832 205.629 132.065Z" fill="#FFC727"/>
<path d="M225.879 127.77L205.378 122.058C203.282 111.535 195.977 100.451 187.254 95.4031C186.086 94.7309 184.861 94.163 183.593 93.7058L179.431 67.3312C182.147 68.2877 184.766 69.4984 187.254 70.9472C205.88 81.6476 221.451 105.351 225.879 127.77Z" fill="#969A9E"/>
<path d="M206.028 127.829C206.039 129.251 205.905 130.67 205.629 132.065C203.858 140.832 196.331 143.872 187.313 138.647C176.981 132.67 168.598 118.162 168.598 106.177C168.598 100.274 170.708 96.0082 174.103 94.0452C175.572 93.2927 177.186 92.8686 178.835 92.8023C180.484 92.7361 182.128 93.0293 183.652 93.6615C184.92 94.1187 186.145 94.6866 187.313 95.3588C196.036 100.406 203.342 111.491 205.437 122.014C205.822 123.929 206.02 125.876 206.028 127.829Z" fill="white"/>
<path d="M204.611 203.233V232.427C204.611 236.619 202.057 238.537 198.928 236.737C195.799 234.936 193.231 230.051 193.231 225.859V196.666C193.231 192.474 195.785 190.555 198.928 192.371C200.652 193.49 202.04 195.056 202.943 196.902C203.989 198.852 204.56 201.021 204.611 203.233Z" fill="#DAE0E5"/>
<path d="M183.652 93.7058C182.128 93.0736 180.484 92.7804 178.835 92.8466C177.186 92.9129 175.571 93.337 174.103 94.0896L159.151 68.1282C164.612 64.9993 171.638 64.586 179.49 67.3312L183.652 93.7058Z" fill="#373A3A"/>
<path d="M181.394 206.48V219.026C181.394 223.217 178.841 225.136 175.697 223.321C172.553 221.505 170.015 216.65 170.015 212.458V199.913C170.015 195.736 172.553 193.802 175.697 195.618C177.436 196.729 178.831 198.303 179.726 200.164C180.772 202.108 181.343 204.273 181.394 206.48Z" fill="#DAE0E5"/>
<path d="M158.177 182.01V205.624C158.177 209.816 155.624 211.735 152.495 209.919C149.366 208.104 146.798 203.248 146.798 199.057V175.442C146.798 171.25 149.351 169.332 152.495 171.147C154.222 172.263 155.61 173.83 156.51 175.678C157.555 177.628 158.127 179.797 158.177 182.01Z" fill="#DAE0E5"/>
<path d="M256.8 301.426L117.81 221.181V2.21387L256.8 82.4593V301.426Z" stroke="#373A3A" stroke-width="3" stroke-linecap="round" stroke-linejoin="round"/>
<path d="M226.366 149.082C226.941 146.111 227.223 143.091 227.208 140.064C227.185 135.935 226.76 131.817 225.938 127.77C221.51 105.351 205.88 81.6771 187.313 70.9472C184.825 69.4985 182.206 68.2878 179.49 67.3312C171.638 64.6008 164.612 64.9993 159.151 68.1282C151.905 72.2903 147.418 81.2343 147.418 94.001C147.418 119.446 165.277 150.381 187.268 163.103C206.515 174.187 222.588 167.782 226.366 149.082Z" stroke="#373A3A" stroke-width="3" stroke-linecap="round" stroke-linejoin="round"/>
<path d="M205.629 132.065C205.905 130.67 206.039 129.251 206.028 127.829C206.017 125.891 205.819 123.958 205.437 122.058C203.356 111.535 196.036 100.451 187.313 95.4031C186.145 94.7309 184.92 94.1629 183.652 93.7058C182.128 93.0735 180.484 92.7803 178.835 92.8466C177.186 92.9128 175.572 93.3369 174.103 94.0895C170.693 96.0377 168.598 100.244 168.598 106.222C168.598 118.162 176.966 132.67 187.313 138.692C196.36 143.843 203.829 140.832 205.629 132.065Z" stroke="#373A3A" stroke-width="3" stroke-linecap="round" stroke-linejoin="round"/>
<path d="M174.088 94.0896L159.152 68.1282" stroke="#373A3A" stroke-width="3" stroke-linecap="round" stroke-linejoin="round"/>
<path d="M179.49 67.3312L183.637 93.7206" stroke="#373A3A" stroke-width="3" stroke-linecap="round" stroke-linejoin="round"/>
<path d="M226.351 149.097L205.629 132.065" stroke="#373A3A" stroke-width="3" stroke-linecap="round" stroke-linejoin="round"/>
<path d="M205.422 122.058L225.938 127.77" stroke="#373A3A" stroke-width="3" stroke-linecap="round" stroke-linejoin="round"/>
<path d="M152.495 209.919C149.351 208.104 146.798 203.248 146.798 199.057V175.442C146.798 171.25 149.351 169.332 152.495 171.147C154.222 172.263 155.61 173.83 156.51 175.678C157.555 177.628 158.127 179.797 158.177 182.01V205.624C158.177 209.816 155.624 211.735 152.495 209.919Z" stroke="#373A3A" stroke-width="3" stroke-linecap="round" stroke-linejoin="round"/>
<path d="M175.697 223.335C172.553 221.52 170.015 216.664 170.015 212.473V199.927C170.015 195.751 172.553 193.817 175.697 195.632C177.436 196.744 178.831 198.318 179.726 200.178C180.772 202.123 181.343 204.288 181.394 206.495V219.04C181.394 223.217 178.841 225.136 175.697 223.335Z" stroke="#373A3A" stroke-width="3" stroke-linecap="round" stroke-linejoin="round"/>
<path d="M198.928 236.737C195.785 234.921 193.231 230.051 193.231 225.859V196.666C193.231 192.474 195.785 190.555 198.928 192.371C200.652 193.49 202.04 195.056 202.943 196.902C203.989 198.852 204.56 201.021 204.611 203.233V232.427C204.611 236.619 202.057 238.537 198.928 236.737Z" stroke="#373A3A" stroke-width="3" stroke-linecap="round" stroke-linejoin="round"/>
<path d="M222.13 250.138C218.986 248.323 216.448 243.452 216.448 239.275V193.419C216.448 189.227 218.986 187.293 222.13 189.109C223.862 190.229 225.256 191.801 226.16 193.655C227.205 195.605 227.777 197.774 227.827 199.986V245.843C227.827 250.02 225.274 251.953 222.13 250.138Z" stroke="#373A3A" stroke-width="3" stroke-linecap="round" stroke-linejoin="round"/>
<path d="M168.11 187.367C168.11 194.083 165.882 198.953 162.207 201.418L161.542 201.831L148.879 209.137C148.882 209.113 148.882 209.088 148.879 209.063C152.274 206.51 154.325 201.787 154.325 195.322C154.066 187.668 151.883 180.201 147.979 173.612C144.477 167.26 139.57 161.793 133.632 157.628C137.599 155.024 140.856 151.473 143.108 147.296C144.021 147.693 144.908 148.146 145.765 148.654C152.463 152.857 157.967 158.712 161.749 165.657C165.668 172.241 167.857 179.709 168.11 187.367Z" fill="#5F646B"/>
<path d="M39.7769 110.384C41.5905 106.2 44.0841 102.345 47.1567 98.9748L78.7272 64.3056C79.142 63.854 79.6497 63.4975 80.2152 63.2606C80.7808 63.0237 81.3909 62.9119 82.0038 62.933C82.6199 62.9471 83.2252 63.0973 83.7764 63.3729C84.3276 63.6485 84.8109 64.0426 85.1918 64.527C91.0956 72.0246 90.9923 78.2235 85.1918 88.6287L74.0042 106.591C78.8453 102.576 83.3764 98.7091 88.2028 94.37C91.9384 90.9874 96.3435 88.4279 101.132 86.8576L117.028 81.6476C117.853 81.3786 118.729 81.3036 119.587 81.4284C120.446 81.5532 121.264 81.8745 121.978 82.3673C122.692 82.86 123.283 83.5108 123.704 84.2692C124.126 85.0275 124.367 85.8729 124.408 86.7395C124.895 98.2812 120.969 105.07 108.763 110.044C107.647 110.502 106.641 111.191 105.811 112.066L87.5829 131.637C86.144 133.18 85.2971 135.182 85.1918 137.29C84.856 142.67 84.066 148.012 82.8303 153.259C87.429 148.8 92.9228 145.369 98.9477 143.193L137.499 129.393C138.294 129.109 139.142 129.005 139.982 129.089C140.822 129.173 141.633 129.444 142.355 129.88C143.073 130.317 143.686 130.906 144.153 131.604C144.619 132.303 144.928 133.094 145.056 133.924C145.825 138.485 145.128 143.172 143.064 147.311C140.812 151.488 137.555 155.038 133.588 157.642C127.837 161.432 121.568 164.37 114.976 166.365C113.016 167.013 111.19 168.013 109.589 169.317C107.586 170.907 105.962 172.924 104.837 175.221L89.8263 206.126C88.4712 208.912 87.9322 212.025 88.2718 215.104C88.6113 218.183 89.8155 221.104 91.745 223.527C94.3995 226.794 97.6006 229.575 101.206 231.748C102.247 232.409 103.468 232.727 104.699 232.658C105.93 232.589 107.108 232.137 108.069 231.364L134.99 209.757C139.935 211.853 144.377 211.749 147.743 209.757C148.112 209.536 148.48 209.285 148.835 209.034C148.838 209.058 148.838 209.083 148.835 209.108L162.118 201.389C163.257 201.412 164.364 201.764 165.307 202.402C166.25 203.04 166.988 203.938 167.432 204.986C167.877 206.034 168.009 207.188 167.812 208.31C167.616 209.431 167.099 210.472 166.325 211.307C161.174 216.431 156.709 222.2 153.041 228.472C151.038 231.982 148.389 235.082 145.233 237.607C132.641 247.967 123.042 261.5 117.427 276.808C115.773 283.789 110.283 290.519 100.999 295.877C78.3582 308.953 41.6661 308.953 19.0251 295.877C6.95183 288.925 1.31369 279.641 2.12546 270.52C2.98151 234.169 17.5639 204.503 20.3092 179.486C22.3607 160.786 20.3091 129.777 19.0989 115.328C18.6581 110.074 19.3166 104.786 21.0324 99.8013L27.4675 81.2491C27.6673 80.6574 27.9971 80.118 28.4329 79.6706C28.8687 79.2233 29.3992 78.8793 29.9854 78.664C30.5717 78.4488 31.1988 78.3678 31.8205 78.4269C32.4422 78.486 33.0427 78.6838 33.5779 79.0057C42.2713 84.1123 43.0535 90.7097 39.1865 108.303L39.7769 110.384Z" fill="white"/>
<path d="M154.325 195.293C154.325 201.758 152.274 206.48 148.879 209.034C145.704 200.03 141.104 191.593 135.256 184.047L135.507 183.958C136.175 183.623 136.723 183.091 137.077 182.433C137.431 181.775 137.573 181.025 137.485 180.283C137.387 178.388 136.843 176.543 135.897 174.899C134.95 173.255 133.628 171.858 132.038 170.822C129.013 169.081 126.563 170.498 126.563 173.966C126.663 176.26 127.438 178.472 128.791 180.327C125.942 180.673 123.216 181.693 120.839 183.302C118.462 184.911 116.503 187.064 115.124 189.581C111.749 183.424 109.878 176.556 109.663 169.538V169.273C111.264 167.969 113.09 166.969 115.05 166.321C121.642 164.326 127.911 161.388 133.662 157.598C139.599 161.764 144.506 167.231 148.008 173.582C151.902 180.174 154.075 187.641 154.325 195.293Z" fill="#C2C7CC"/>
<path d="M148.879 209.063C148.525 209.314 148.156 209.565 147.787 209.786C144.422 211.72 139.979 211.808 135.035 209.786C133.987 209.369 132.971 208.875 131.994 208.311C125.384 204.196 119.942 198.453 116.187 191.633C115.818 190.983 115.449 190.319 115.094 189.655C116.474 187.138 118.433 184.985 120.809 183.376C123.186 181.767 125.912 180.747 128.762 180.401C129.601 181.653 130.705 182.706 131.994 183.486C132.461 183.801 132.986 184.019 133.539 184.126C134.092 184.232 134.661 184.225 135.212 184.106C141.073 191.64 145.687 200.067 148.879 209.063Z" fill="white"/>
<path d="M131.994 170.778C133.584 171.814 134.906 173.211 135.852 174.855C136.799 176.499 137.343 178.344 137.44 180.239C137.529 180.98 137.386 181.731 137.032 182.389C136.678 183.046 136.13 183.579 135.462 183.914L135.212 184.002C134.661 184.119 134.093 184.124 133.54 184.017C132.988 183.911 132.462 183.695 131.994 183.382C130.705 182.602 129.601 181.549 128.762 180.298C127.409 178.443 126.633 176.23 126.533 173.937C126.518 170.453 128.968 169.037 131.994 170.778Z" fill="white"/>
<path d="M2.30246 270.565C1.49069 279.686 7.12883 288.969 19.2021 295.921C41.8431 308.997 78.5352 308.997 101.176 295.921C110.46 290.563 115.936 283.833 117.604 276.852C123.219 261.544 132.818 248.012 145.41 237.652C148.566 235.126 151.215 232.026 153.218 228.516C156.886 222.245 161.351 216.475 166.502 211.351C167.276 210.516 167.793 209.476 167.989 208.354C168.186 207.233 168.054 206.078 167.609 205.03C167.165 203.982 166.427 203.085 165.484 202.446C164.541 201.808 163.434 201.456 162.295 201.433" stroke="#373A3A" stroke-width="3" stroke-linecap="round" stroke-linejoin="round"/>
<path d="M135.035 209.727L108.113 231.335C107.153 232.107 105.974 232.56 104.743 232.629C103.512 232.697 102.291 232.379 101.25 231.719C97.6449 229.546 94.4438 226.764 91.7893 223.498C89.8598 221.074 88.6556 218.154 88.3161 215.074C87.9765 211.995 88.5155 208.883 89.8706 206.097L104.851 175.191C105.977 172.894 107.601 170.878 109.604 169.287C111.205 167.984 113.031 166.983 114.991 166.336C121.583 164.34 127.852 161.402 133.603 157.613C137.573 155.013 140.83 151.461 143.079 147.281C145.142 143.142 145.84 138.456 145.071 133.895C144.942 133.065 144.634 132.273 144.167 131.575C143.701 130.876 143.087 130.288 142.37 129.851C141.648 129.414 140.837 129.144 139.997 129.06C139.157 128.975 138.309 129.079 137.514 129.364L98.9477 143.193C92.9231 145.357 87.4252 148.773 82.8156 153.215C80.9869 154.971 79.3128 156.882 77.8121 158.926L54.0493 191.087" stroke="#373A3A" stroke-width="3" stroke-linecap="round" stroke-linejoin="round"/>
<path d="M74.0632 106.591L68.1594 111.476C62.9128 115.791 58.7861 121.31 56.1304 127.563L39.3784 166.911" stroke="#373A3A" stroke-width="3" stroke-linecap="round" stroke-linejoin="round"/>
<path d="M82.8597 153.215C84.0954 147.968 84.8853 142.625 85.2212 137.245C85.3265 135.138 86.1734 133.136 87.6122 131.593L105.84 112.022C106.67 111.146 107.676 110.457 108.792 110C120.998 105.026 124.924 98.1926 124.437 86.6952C124.396 85.8287 124.155 84.9833 123.734 84.2249C123.312 83.4666 122.722 82.8157 122.007 82.323C121.293 81.8303 120.475 81.509 119.617 81.3842C118.758 81.2593 117.882 81.3344 117.057 81.6033L101.22 86.8576C96.4318 88.4279 92.0268 90.9874 88.2911 94.37C83.4648 98.7092 78.9336 102.576 74.0925 106.591" stroke="#373A3A" stroke-width="3" stroke-linecap="round" stroke-linejoin="round"/>
<path d="M29.209 158.395L37.1053 118.914C37.6793 115.991 38.5753 113.14 39.7768 110.413C41.5904 106.229 44.084 102.374 47.1565 99.0043L78.727 64.3351C79.1419 63.8835 79.6495 63.527 80.2151 63.2901C80.7807 63.0531 81.3908 62.9414 82.0036 62.9625C82.6197 62.9765 83.2251 63.1268 83.7762 63.4023C84.3274 63.6779 84.8108 64.0721 85.1917 64.5565C91.0955 72.0541 90.9922 78.253 85.1917 88.6582L74.004 106.62" stroke="#373A3A" stroke-width="3" stroke-linecap="round" stroke-linejoin="round"/>
<path d="M2.30249 270.565C3.15854 234.213 17.7409 204.547 20.4862 179.53C22.5378 160.83 20.4862 129.821 19.2759 115.372C18.8352 110.119 19.4937 104.831 21.2094 99.8456L27.6445 81.2934C27.8443 80.7016 28.1742 80.1622 28.6099 79.7149C29.0457 79.2675 29.5762 78.9235 30.1625 78.7083C30.7487 78.4931 31.3758 78.412 31.9975 78.4712C32.6192 78.5303 33.2198 78.728 33.7549 79.0499C42.4483 84.1566 43.2306 90.7539 39.3636 108.347L39.7768 110.457" stroke="#373A3A" stroke-width="3" stroke-linecap="round" stroke-linejoin="round"/>
<path d="M115.095 189.552C111.72 183.394 109.849 176.527 109.634 169.509V169.243" stroke="#373A3A" stroke-width="3" stroke-linecap="round" stroke-linejoin="round"/>
<path d="M133.632 157.628C139.57 161.793 144.477 167.26 147.979 173.612C151.883 180.201 154.066 187.668 154.325 195.323C154.325 201.787 152.288 206.525 148.879 209.063C148.525 209.314 148.156 209.565 147.787 209.786C144.422 211.72 139.979 211.809 135.035 209.786C133.987 209.369 132.971 208.875 131.994 208.311C125.384 204.196 119.942 198.453 116.187 191.633C115.818 190.983 115.449 190.319 115.094 189.655" stroke="#373A3A" stroke-width="3" stroke-linecap="round" stroke-linejoin="round"/>
<path d="M143.108 147.311C144.021 147.708 144.908 148.161 145.765 148.669C152.463 152.872 157.967 158.727 161.749 165.671C165.666 172.251 167.854 179.715 168.11 187.367C168.11 194.083 165.882 198.953 162.207 201.418L161.542 201.831L148.879 209.137" stroke="#373A3A" stroke-width="3" stroke-linecap="round" stroke-linejoin="round"/>
<path d="M128.762 180.298C129.601 181.549 130.705 182.602 131.994 183.382C132.462 183.695 132.988 183.911 133.54 184.017C134.093 184.124 134.661 184.119 135.212 184.002L135.463 183.914C136.13 183.579 136.678 183.046 137.032 182.389C137.386 181.731 137.529 180.98 137.44 180.239C137.343 178.344 136.799 176.499 135.852 174.855C134.906 173.211 133.584 171.814 131.994 170.778C128.968 169.036 126.518 170.453 126.518 173.922C126.619 176.215 127.394 178.428 128.747 180.283L128.762 180.298Z" stroke="#373A3A" stroke-width="3" stroke-linecap="round" stroke-linejoin="round"/>
<path d="M128.762 180.298C125.912 180.644 123.186 181.663 120.809 183.273C118.433 184.882 116.474 187.034 115.094 189.552" stroke="#373A3A" stroke-width="3" stroke-linecap="round" stroke-linejoin="round"/>
<path d="M135.212 184.032C141.06 191.579 145.659 200.015 148.835 209.019C148.838 209.043 148.838 209.068 148.835 209.093" stroke="#373A3A" stroke-width="3" stroke-linecap="round" stroke-linejoin="round"/>
</g>
<defs>
<clipPath id="clip0_2665_1623">
<rect width="328" height="326" fill="white"/>
</clipPath>
</defs>
</svg>
