<svg xmlns="http://www.w3.org/2000/svg" viewBox="0 0 64 64"><defs><style>.cls-1{fill:#1a4d7e;}.cls-2,.cls-3{fill:#ff4b4b;}.cls-3{opacity:0.3;}</style></defs><g id="Layer_2" data-name="Layer 2"><g id="digital_marketing" data-name="digital marketing"><path class="cls-1" d="M50.92,14.38A1,1,0,0,1,50,15H49V39h2V14A1,1,0,0,1,50.92,14.38ZM50,10H47a1,1,0,0,0-.77,1.64L47.58,13h0L49,14.41V39H15V11a1,1,0,0,0-1-1,5.55,5.55,0,0,0-1,.08A7,7,0,0,0,7,17V42a7,7,0,0,0,7,7H50a7,7,0,0,0,7-7V17A7,7,0,0,0,50,10Zm5,32a5,5,0,0,1-5,5H14a5,5,0,0,1-5-5V17a5,5,0,0,1,4-4.9V40a1,1,0,0,0,1,1H50a1,1,0,0,0,1-1V14a.49.49,0,0,0,0-.12.06.06,0,0,0,0,0,.28.28,0,0,0,0-.13.7.7,0,0,0-.08-.2l0,0a.66.66,0,0,0-.14-.2L49.42,12H50a5,5,0,0,1,5,5ZM50.92,14.38A1,1,0,0,1,50,15H49V39h2V14A1,1,0,0,1,50.92,14.38Z"/><path class="cls-2" d="M33,45H31a1,1,0,0,1,0-2h2a1,1,0,0,1,0,2Z"/><path class="cls-1" d="M39.82,57,38.4,49.92,38.22,49,38,47.8a1,1,0,0,0-1-.8H27a1,1,0,0,0-1,.8L25.78,49l-1.6,8-.16.8a1,1,0,0,0,.21.83A1,1,0,0,0,25,59H39a1,1,0,0,0,.77-.37A1,1,0,0,0,40,57.8Zm-13.6,0,1.6-8h8.36l.52,2.62L37.78,57Z"/><path class="cls-1" d="M42,58a1,1,0,0,1-1,1H23a1,1,0,0,1,0-2H41A1,1,0,0,1,42,58Z"/><path class="cls-2" d="M51,13.88a.06.06,0,0,0,0,0,.28.28,0,0,0,0-.13.7.7,0,0,0-.08-.2l0,0a.66.66,0,0,0-.14-.2l-8-8A1,1,0,0,0,42.24,5,.93.93,0,0,0,42,5H16a3,3,0,0,0-3,3V40a1,1,0,0,0,1,1H50a1,1,0,0,0,1-1V14A.49.49,0,0,0,51,13.88ZM15,39V8a1,1,0,0,1,1-1H41.59l4.64,4.64L47.58,13h0L49,14.41V39Z"/><path class="cls-2" d="M51,13.88s0,0,0,0a.28.28,0,0,0,0-.13.7.7,0,0,0-.08-.2.82.82,0,0,0-.16-.22l-8-8A1,1,0,0,0,42.24,5,.93.93,0,0,0,42,5a1,1,0,0,0-1,1v6a3,3,0,0,0,3,3h6a1,1,0,0,0,1-1A.49.49,0,0,0,51,13.88ZM44,13a1,1,0,0,1-1-1V8.41l3.23,3.23L47.58,13Z"/><path class="cls-1" d="M42,25H41a1,1,0,0,1,0-2h1a1,1,0,0,1,0,2Z"/><path class="cls-1" d="M39.83,22.17a1,1,0,0,1-.71-.29,1,1,0,0,1,0-1.41l.71-.71a1,1,0,0,1,1.41,1.41l-.7.71A1,1,0,0,1,39.83,22.17Z"/><path class="cls-1" d="M40.54,28.54a1,1,0,0,1-.71-.3l-.71-.7a1,1,0,1,1,1.42-1.42l.7.71a1,1,0,0,1,0,1.41A1,1,0,0,1,40.54,28.54Z"/><path class="cls-2" d="M24,12H19a1,1,0,0,1,0-2h5a1,1,0,0,1,0,2Z"/><path class="cls-2" d="M24,16H19a1,1,0,0,1,0-2h5a1,1,0,0,1,0,2Z"/><path class="cls-1" d="M34.7,31a1.66,1.66,0,0,1-.4,0,2.24,2.24,0,0,1-1.53-1,4.41,4.41,0,0,0-3.68-2H28a1,1,0,0,1-1-1V21a1,1,0,0,1,1-1h1.09a4.43,4.43,0,0,0,3.69-2,2.26,2.26,0,0,1,1.52-1,1.66,1.66,0,0,1,.4,0A2.3,2.3,0,0,1,37,19.3v9.4A2.3,2.3,0,0,1,34.7,31Zm.12-2h0ZM29,26h.09a6.39,6.39,0,0,1,5.35,2.87.28.28,0,0,0,.2.12h.06a.3.3,0,0,0,.3-.3V19.3a.31.31,0,0,0-.29-.3h-.07a.27.27,0,0,0-.19.11A6.41,6.41,0,0,1,29.09,22H29Zm5.7-8,0,1h0Zm.13,1h0ZM34.51,18h0Z"/><path class="cls-1" d="M28,28H26a4,4,0,0,1,0-8h2a1,1,0,0,1,1,1v6A1,1,0,0,1,28,28Zm-2-6a2,2,0,0,0,0,4h1V22Z"/><path class="cls-1" d="M28,33a1,1,0,0,1-.93-.63l-2-5a1,1,0,1,1,1.86-.74l2,5a1,1,0,0,1-.56,1.3A1,1,0,0,1,28,33Z"/><path class="cls-1" d="M56,39H8a1,1,0,0,0-1,1v2a7,7,0,0,0,7,7H50a7,7,0,0,0,7-7V40A1,1,0,0,0,56,39Zm-1,3a5,5,0,0,1-5,5H14a5,5,0,0,1-5-5V41H55Z"/><path class="cls-3" d="M29.32,59A17.2,17.2,0,0,1,5,34.64l2-2V42a7,7,0,0,0,7,7H25.78l-1.6,8H23a1,1,0,0,0,0,2Z"/><path class="cls-3" d="M64,17.2a17.14,17.14,0,0,1-5,12.16l-2,2V17a7,7,0,0,0-7-7H47.42L42.71,5.29A1,1,0,0,0,42.24,5,.93.93,0,0,0,42,5H34.68A17.2,17.2,0,0,1,64,17.2Z"/></g></g></svg>