<svg xmlns="http://www.w3.org/2000/svg" viewBox="0 0 532.16 290.15"><defs><style>.cls-1{fill:#fff;}.cls-2{fill:#ebebeb;}.cls-3{fill:#37474f;}.cls-4{fill:#eb2b37;}.cls-5{fill:#a6a5a5;}.cls-6{fill:#c7c7c6;}.cls-7{fill:#273339;}.cls-8{fill:#263238;}.cls-9{fill:#f8a9a0;}.cls-10{fill:#ffce26;}.cls-11{fill:#cc982b;}.cls-12{fill:none;stroke:#f4a69d;stroke-linecap:round;stroke-linejoin:round;stroke-width:0;}.cls-13{opacity:0.1;}.cls-14{fill:#010101;}.cls-15{fill:#ae645a;}.cls-16{fill:#ba2027;}.cls-17{fill:#eb9482;}</style></defs><g id="Layer_2" data-name="Layer 2"><g id="Layer_1-2" data-name="Layer 1"><rect class="cls-1" x="27.47" y="83.3" width="123.73" height="83.38"/><path class="cls-2" d="M151.6,167.09H27.06V82.9H151.6Zm-123.73-.81H150.8V83.71H27.87Z"/><path class="cls-3" d="M39.42,89.61a2.85,2.85,0,1,1-2.85-2.85A2.85,2.85,0,0,1,39.42,89.61Z"/><path class="cls-2" d="M51.06,89.61a2.85,2.85,0,1,1-2.85-2.85A2.86,2.86,0,0,1,51.06,89.61Z"/><path class="cls-4" d="M62.7,89.61a2.85,2.85,0,1,1-2.85-2.85A2.86,2.86,0,0,1,62.7,89.61Z"/><rect class="cls-2" x="27.47" y="95.46" width="123.73" height="0.81"/><rect class="cls-1" x="400.32" y="141.47" width="123.73" height="83.38"/><path class="cls-2" d="M524.45,225.26H399.91V141.07H524.45Zm-123.73-.81H523.65V141.88H400.72Z"/><path class="cls-3" d="M412.27,147.78a2.85,2.85,0,1,1-2.85-2.85A2.84,2.84,0,0,1,412.27,147.78Z"/><path class="cls-2" d="M423.91,147.78a2.85,2.85,0,1,1-2.85-2.85A2.85,2.85,0,0,1,423.91,147.78Z"/><path class="cls-4" d="M435.54,147.78a2.85,2.85,0,1,1-2.85-2.85A2.84,2.84,0,0,1,435.54,147.78Z"/><rect class="cls-2" x="400.32" y="153.63" width="123.73" height="0.81"/><path class="cls-5" d="M114.42,165.13a13.09,13.09,0,0,1-13.1,13.1h-.67l-23.3,0a13.1,13.1,0,1,1,0-26.2h23.09l.88,0A13.1,13.1,0,0,1,114.42,165.13Z"/><g id="IaQ7Yo"><path class="cls-1" d="M77.49,165.56A2.61,2.61,0,0,1,78,164.2c.11-.19.24-.36.36-.55l.79-.79c.31-.22.61-.45.92-.66a11.33,11.33,0,0,1,4.15-1.61,26.55,26.55,0,0,1,10.32,0,11.44,11.44,0,0,1,4.09,1.59c.33.22.64.46,1,.68l.77.77a8.55,8.55,0,0,1,.56.91,8,8,0,0,1,.32,1l-.23,0H94.44a.27.27,0,0,1-.27-.15,2.22,2.22,0,0,0-1.92-1.23,44.53,44.53,0,0,0-5.89,0,2.26,2.26,0,0,0-1.92,1.23c0,.09-.1.16-.22.16H77.49Z"/><path class="cls-1" d="M77.49,169.37v-2.45h6.68c0,.15,0,.32,0,.49,0,.65,0,1.3,0,1.95a.76.76,0,0,1-.85.85h-5A.74.74,0,0,1,77.49,169.37Z"/><path class="cls-1" d="M94.48,169.41c0-.84,0-1.68.06-2.51h6.58s0,.09,0,.14v2.34a.74.74,0,0,1-.81.82h-5A.72.72,0,0,1,94.48,169.41Z"/></g><path class="cls-2" d="M517,144.07a3.61,3.61,0,0,1,0-3.8c.2-.32.38-.65.56-1s.35-.68.51-1a3.61,3.61,0,0,1,3.14-2.11l4.68-.15-.47-15.24-4.71.14a3.58,3.58,0,0,1-3.26-1.92q-.54-1-1.17-1.89a3.66,3.66,0,0,1-.26-3.82l2.2-4.12L504.79,102l-2.21,4.12a3.65,3.65,0,0,1-3.33,1.89A20.59,20.59,0,0,0,497,108a3.6,3.6,0,0,1-3.4-1.66l-2.49-4-13,8,2.48,4a3.55,3.55,0,0,1,0,3.73c-.2.34-.4.68-.59,1s-.36.7-.53,1.06a3.58,3.58,0,0,1-3.13,2.07l-4.68.14.47,15.24,4.67-.14a3.54,3.54,0,0,1,3.25,1.84c.39.71.82,1.4,1.28,2.07a3.54,3.54,0,0,1,.2,3.72l-2.2,4.12,13.44,7.21,2.21-4.12a3.65,3.65,0,0,1,3.33-1.89,20.68,20.68,0,0,0,2.23-.07,3.6,3.6,0,0,1,3.41,1.66l2.47,4,13-8Zm-22.59-3.14A12.5,12.5,0,1,1,509,136.52,12.51,12.51,0,0,1,494.4,140.93Z"/><path class="cls-2" d="M463.08,99a2.55,2.55,0,0,1-1.24-2.36c0-.26,0-.52,0-.79s0-.53,0-.79a2.52,2.52,0,0,1,1.24-2.35l2.84-1.64-5.34-9.25-2.84,1.63a2.52,2.52,0,0,1-2.67-.09c-.44-.29-.9-.55-1.37-.8a2.52,2.52,0,0,1-1.41-2.25V77H441.61V80.3a2.52,2.52,0,0,1-1.41,2.25c-.47.25-.93.51-1.38.8a2.51,2.51,0,0,1-2.66.09l-2.84-1.63L428,91.06l2.85,1.65a2.54,2.54,0,0,1,1.24,2.35c0,.26,0,.52,0,.78s0,.53,0,.79A2.55,2.55,0,0,1,430.83,99L428,100.62l5.34,9.26,2.83-1.64a2.57,2.57,0,0,1,2.67.09,13.41,13.41,0,0,0,1.38.8,2.54,2.54,0,0,1,1.41,2.26v3.27h10.68v-3.27a2.54,2.54,0,0,1,1.41-2.26,14.56,14.56,0,0,0,1.38-.8,2.55,2.55,0,0,1,2.66-.09l2.84,1.64,5.34-9.26ZM447,104.6a8.75,8.75,0,1,1,8.75-8.76A8.76,8.76,0,0,1,447,104.6Z"/><path class="cls-2" d="M75.51,74.2l5.34,9.26,2.83-1.64a2.54,2.54,0,0,1,2.67.09,13.41,13.41,0,0,0,1.38.8A2.54,2.54,0,0,1,89.13,85v3.27H99.82V85a2.53,2.53,0,0,1,1.41-2.26,14.56,14.56,0,0,0,1.38-.8,2.53,2.53,0,0,1,2.66-.09l2.84,1.64,5.34-9.26-2.85-1.64a2.54,2.54,0,0,1-1.24-2.35c0-.26,0-.53,0-.79s0-.53,0-.79a2.52,2.52,0,0,1,1.23-2.34l2.86-1.65-5.34-9.26L105.27,57a2.57,2.57,0,0,1-2.67-.09,14.4,14.4,0,0,0-1.37-.8,2.53,2.53,0,0,1-1.41-2.26V50.6H89.13v3.27a2.52,2.52,0,0,1-1.4,2.26,15.93,15.93,0,0,0-1.38.8,2.55,2.55,0,0,1-2.66.09l-2.84-1.64-5.34,9.26,2.84,1.64a2.54,2.54,0,0,1,1.24,2.35c0,.26,0,.52,0,.79s0,.53,0,.79a2.54,2.54,0,0,1-1.24,2.35Zm10.22-4.78a8.75,8.75,0,1,1,8.74,8.76A8.74,8.74,0,0,1,85.73,69.42Z"/><circle class="cls-2" cx="242.61" cy="71.19" r="47.46" transform="translate(114.94 289.42) rotate(-76.02)"/><circle class="cls-1" cx="242.61" cy="71.19" r="36.23" transform="translate(114.6 289.22) rotate(-75.94)"/><circle class="cls-2" cx="242.61" cy="71.19" r="25.89" transform="translate(114.28 289.04) rotate(-75.85)"/><circle class="cls-1" cx="242.61" cy="71.19" r="14.31" transform="translate(113.93 288.83) rotate(-75.76)"/><circle class="cls-2" cx="242.61" cy="71.19" r="6.47" transform="translate(113.68 288.68) rotate(-75.69)"/><rect class="cls-6" x="235.09" y="39.34" width="76.89" height="1.84" transform="translate(51.65 205.21) rotate(-45)"/><polygon class="cls-5" points="249.72 69.28 242.61 71.19 244.51 64.08 249.72 69.28"/><polygon class="cls-5" points="309.82 9.54 299.62 19.73 291.63 22.17 294.06 14.17 304.26 3.98 301.82 11.98 309.82 9.54"/><polygon class="cls-7" points="0 265.52 66.52 265.33 133.04 265.26 266.08 265.12 399.12 265.26 465.64 265.33 532.16 265.52 465.64 265.72 399.12 265.79 266.08 265.93 133.04 265.79 66.52 265.72 0 265.52"/><polygon class="cls-3" points="168.33 270.28 57.11 270.28 48.5 194.74 159.72 194.74 168.33 270.28"/><polygon class="cls-1" points="162.27 265.22 62.02 265.22 54.56 199.81 154.82 199.81 162.27 265.22"/><rect class="cls-3" x="117.04" y="265.22" width="114.15" height="5.07"/><rect class="cls-8" x="173.74" y="265.22" width="57.45" height="5.07"/><polygon class="cls-2" points="126.86 199.81 61.96 264.71 60.03 247.74 107.94 199.81 126.86 199.81"/><polygon class="cls-2" points="160.58 250.32 145.68 265.22 126.76 265.22 158.64 233.34 160.58 250.32"/><polygon class="cls-2" points="66.98 199.81 55.84 210.96 55.18 205.17 60.54 199.81 66.98 199.81"/><polygon class="cls-2" points="157.4 222.43 114.61 265.22 108.15 265.22 156.74 216.63 157.4 222.43"/><polygon class="cls-2" points="75.39 199.81 56.69 218.51 56.53 217.06 73.78 199.81 75.39 199.81"/><polygon class="cls-2" points="136.13 199.81 70.73 265.22 69.11 265.22 134.52 199.81 136.13 199.81"/><polygon class="cls-2" points="156.31 212.86 103.95 265.22 102.34 265.22 156.15 211.41 156.31 212.86"/><polygon class="cls-3" points="363.17 270.28 474.39 270.28 483 194.74 371.78 194.74 363.17 270.28"/><polygon class="cls-1" points="369.23 265.22 469.49 265.22 476.94 199.81 376.69 199.81 369.23 265.22"/><rect class="cls-3" x="300.31" y="265.22" width="114.15" height="5.07"/><rect class="cls-8" x="300.31" y="265.22" width="57.45" height="5.07"/><polygon class="cls-2" points="474.06 225.15 471.62 246.5 452.9 265.22 433.99 265.22 474.06 225.15"/><polygon class="cls-2" points="438.51 199.81 373.11 265.22 369.23 265.22 371.17 248.24 419.6 199.81 438.51 199.81"/><polygon class="cls-2" points="395.9 199.81 374.22 221.5 375.05 214.21 389.45 199.81 395.9 199.81"/><polygon class="cls-2" points="467.24 199.81 401.83 265.22 395.38 265.22 460.78 199.81 467.24 199.81"/><polygon class="cls-2" points="474.99 217 474.78 218.82 428.39 265.22 426.77 265.22 474.99 217"/><polygon class="cls-2" points="474.01 199.81 408.61 265.22 407 265.22 472.4 199.81 474.01 199.81"/><polygon class="cls-2" points="413.09 199.81 372 240.91 372.21 239.08 411.48 199.81 413.09 199.81"/><path class="cls-9" d="M160.45,156.52c13.8,27.85,34.22,55.65,39.7,60.9,14.7,14.11,54,24.26,65.53,24.58,5,.14,11.9-33.05,8.22-36.92s-52.16-14.41-54.75-16.4c-1.81-1.38-24.93-23.35-40.25-36.4C159.85,136.07,156.83,149.21,160.45,156.52Z"/><path class="cls-10" d="M263.19,200.48,250.68,240s-41-10.83-52-21.35-33.71-48.34-38.15-60.8-1.54-22.3,18.53-6.13,37.16,32.7,40.72,35.37S263.19,200.48,263.19,200.48Z"/><path class="cls-8" d="M250.49,202.06a2,2,0,0,0,2.29,1.69,2,2,0,1,0-2.29-1.69Z"/><path class="cls-8" d="M240.44,199.16a2,2,0,1,0,1.69-2.29A2,2,0,0,0,240.44,199.16Z"/><path class="cls-11" d="M220.42,230.19c-9-3.49-17.55-7.55-21.73-11.56-11-10.52-33.72-48.34-38.15-60.8-2.84-8-2.69-14.86,3-14.57Z"/><path class="cls-10" d="M95,265.2l103.54,0c.42-3.78-20.89-109.29-31-122.51-2.17-2.83-9.33-3.62-15.41-2.86a27,27,0,0,0-4.69,1l-.15,0a11.25,11.25,0,0,0-3.44,1.68C126.93,156.05,94.22,264.28,95,265.2Z"/><polygon class="cls-8" points="159.13 166.56 163.53 157.98 169.21 164.19 167.82 170.35 162.21 171.08 159.13 166.56"/><polygon class="cls-8" points="162.21 171.08 159.53 234.13 171.34 254.98 177.48 231.51 167.82 170.35 162.21 171.08"/><path class="cls-9" d="M162.05,156.84c-1.63-.06-12.45-8.52-15.77-15.11-.23-.46.61-5.11,1.36-10.81.44-3.47.85-7.33,1-10.89,0-.73,2.46.7,2.46.7l4.56,1.26,15.09,4.21a56.63,56.63,0,0,0-2.61,13.57,8.71,8.71,0,0,0,.1,1.47,1.29,1.29,0,0,1,0,.24C168.6,144.26,164.72,157,162.05,156.84Z"/><path class="cls-8" d="M168.21,141.24a1.29,1.29,0,0,1,0,.24,14.4,14.4,0,0,1-2.3,0c-15-.83-16.23-20-16.23-20l5.92.45,15.09,4.21a56.63,56.63,0,0,0-2.61,13.57A8.71,8.71,0,0,0,168.21,141.24Z"/><path class="cls-12" d="M156.87,135.47h0"/><path class="cls-9" d="M145.1,93.92c-2.26,8,2.35,30.72,8.07,35.7,8.3,7.23,21.66,7.68,27.75-2.24,5.9-9.61-.64-39.17-7-43.68C164.53,77.06,148.44,82.17,145.1,93.92Z"/><path class="cls-8" d="M167.65,107.17c0-.06-.11.1-.09.16.35,1.52.49,3.33-.79,4.11,0,0,0,.1,0,.09C168.44,111,168.23,108.56,167.65,107.17Z"/><path class="cls-8" d="M166,105.84c-2.51.3-1.72,5.29.6,5S168.06,105.59,166,105.84Z"/><path class="cls-8" d="M176.63,106c0-.06.14,0,.14.11.2,1.56.68,3.3,2.16,3.6,0,0,0,.08,0,.08C177.19,109.84,176.57,107.52,176.63,106Z"/><path class="cls-8" d="M177.76,104.19c2.46-.58,3.43,4.37,1.16,4.91S175.7,104.67,177.76,104.19Z"/><path class="cls-8" d="M163.63,103.87a20.11,20.11,0,0,0,1.83-1,3.34,3.34,0,0,0,1.67-1.36,1.09,1.09,0,0,0-.37-1.25,2.66,2.66,0,0,0-2.68.15,3.83,3.83,0,0,0-2,2A1.14,1.14,0,0,0,163.63,103.87Z"/><path class="cls-8" d="M179.29,101.37a20.23,20.23,0,0,1-2.06-.2,3.38,3.38,0,0,1-2.06-.61,1.07,1.07,0,0,1-.15-1.3,2.67,2.67,0,0,1,2.53-.9,3.88,3.88,0,0,1,2.58,1.1A1.14,1.14,0,0,1,179.29,101.37Z"/><path class="cls-8" d="M168.47,121.74c.43.3.88.74,1.45.7a4.2,4.2,0,0,0,1.6-.65s.1,0,.08.07a2.12,2.12,0,0,1-1.83,1.15,1.66,1.66,0,0,1-1.43-1.18C168.3,121.75,168.41,121.69,168.47,121.74Z"/><path class="cls-1" d="M174.36,117.94a6.32,6.32,0,0,1-2.19,2.33,2.88,2.88,0,0,1-1.69.38c-1.29-.13-1.5-1.26-1.42-2.27a6.4,6.4,0,0,1,.32-1.57A8.11,8.11,0,0,0,174.36,117.94Z"/><path class="cls-8" d="M169.37,116.86a5.38,5.38,0,0,0,3.88,1.79,6.92,6.92,0,0,0,1.91-.22,2,2,0,0,0,.35-.09l.33-.11a.38.38,0,0,0,.26-.39v0a.83.83,0,0,0,0-.15h0l0-.14c-.15-1.19-.55-3-.55-3,.47.15,2.84.79,2.71.18-1.12-5.1-2.36-10.77-4.55-15.61a.15.15,0,0,0-.28.09c.88,4.94,2.63,9.69,3.59,14.64a9.6,9.6,0,0,0-2.6-.36c-.17.08.83,3.45.86,4v.06c-2,.57-3.56.2-5.72-.84C169.36,116.62,169.26,116.75,169.37,116.86Z"/><path class="cls-8" d="M147.78,111.67c5.44-.81,5.05-10.83,5.05-10.83s9.11-2.9,9.44-10.12c0,0,9.69,4.36,16.29.82s4-11.21,3-12.79-4.43,2.13-4.43,2.13-1.09-4.4-2.35-4.68-2.16,2.61-2.16,2.61-9.41-1.7-17.52-.28-10.95,10.22-10.95,10.22-4.22,1.56-5.18,4.81S144.32,112.19,147.78,111.67Z"/><path class="cls-8" d="M150.64,101.23c7.36-.1,11.45-5.6,11.49-12.67a.07.07,0,0,1,.14,0c.73,6.48-4.24,14.54-11.65,13A.16.16,0,0,1,150.64,101.23Z"/><path class="cls-8" d="M144.3,88.59c.08,0,.14.09.07.13C142.48,90,140.27,91,139.12,93c-1.39,2.48-.6,5.34.41,7.78,1.57,3.77,4.33,8.57,8.17,10.36.22.1.05.43-.17.34-4.56-1.87-8-8.11-9.22-12.64C136.9,93.81,139.69,90.4,144.3,88.59Z"/><path class="cls-8" d="M170.48,91.58a10.77,10.77,0,0,0,11-1.79c3.41-3.21,2-7.47-.21-10.88-.11-.16.12-.4.27-.24,2.72,2.88,3.61,7.73.91,10.94s-8.39,4-12.2,2.45C169.92,91.93,170.16,91.44,170.48,91.58Z"/><path class="cls-10" d="M166.36,116.23a6.7,6.7,0,1,1,6.17-8.59h0A6.72,6.72,0,0,1,168,116,6.61,6.61,0,0,1,166.36,116.23Zm-.47-12.49a5.8,5.8,0,1,0,5.78,4.15A5.84,5.84,0,0,0,165.89,103.74Z"/><path class="cls-10" d="M181.53,113.78c-2.56.1-5-2.44-5.52-5.89a8,8,0,0,1,.68-4.84,4.17,4.17,0,0,1,7.05-1.1,7.94,7.94,0,0,1,2.12,4.4c.57,3.65-1.18,7-3.89,7.39Zm-1.15-12.42a2,2,0,0,0-.34,0,3.58,3.58,0,0,0-2.56,2.06,7.15,7.15,0,0,0-.59,4.3c.5,3.16,2.7,5.45,4.94,5.1s3.64-3.2,3.15-6.36a7.12,7.12,0,0,0-1.87-3.91A3.68,3.68,0,0,0,180.38,101.36Z"/><path class="cls-10" d="M172.43,108.44l-.68-.59c.87-1,3-2.49,4.9-1l-.55.71C174.41,106.21,172.51,108.35,172.43,108.44Z"/><path class="cls-10" d="M143.22,114.74l-.85-.28c.13-.4,1.35-3.89,3.27-4.52s13.83-1.32,14.34-1.35l.05.89c-3.44.21-12.72.86-14.11,1.31S143.54,113.78,143.22,114.74Z"/><path class="cls-9" d="M151.24,112.69s-5.45-7.18-8.73-5.21,1,12.52,5,13.83A4,4,0,0,0,152.8,119Z"/><path class="cls-8" d="M143.82,110.47a.06.06,0,0,0,0,.11c2.8,1,4.36,3.51,5.48,6.12-.86-1-2-1.51-3.33-.48a.09.09,0,0,0,.08.15,2.46,2.46,0,0,1,2.74.75,11.49,11.49,0,0,1,1.38,2.14c.14.24.58.09.48-.19l0-.06C150.53,115.49,147.61,110.68,143.82,110.47Z"/><path class="cls-10" d="M168.29,141.77,162.9,155l-16.34-16.71-4.65,5.34s16,26.52,16.06,25.33l5.46-11.35,7.82,7.92-.59-19.84Z"/><path class="cls-8" d="M171.51,155.71c-.21-3.27-.33-6.58-.68-9.83,0-.12-.2-.17-.23,0-.66,3.16.2,15.67.18,18.67l0,0c-.33-.34-7.25-7-7.32-6.86-1.18,1.8-5.19,10.06-5.46,10.82-2.52-4.22-12.2-19.53-15.19-23.52a.11.11,0,0,0-.19.12c2.22,4.44,15,25.07,15.22,25a128.11,128.11,0,0,0,5.71-12c1.17,1.44,8.15,8.91,8.18,8.43A101.77,101.77,0,0,0,171.51,155.71Z"/><polygon class="cls-4" points="202.14 279.76 121.5 287.74 121.25 225.23 201.88 217.25 202.14 279.76"/><polygon class="cls-4" points="147.57 215.71 121.18 218.32 121.25 225.23 149.49 222.44 147.57 215.71"/><g class="cls-13"><polygon class="cls-14" points="202.14 279.76 121.5 287.74 121.25 225.23 201.88 217.25 202.14 279.76"/><polygon class="cls-14" points="147.57 215.71 121.18 218.32 121.25 225.23 149.49 222.44 147.57 215.71"/></g><polygon class="cls-2" points="202.09 279.77 124.32 287.46 113.19 224.78 196.08 217.82 202.09 279.77"/><polygon class="cls-1" points="202.09 279.77 122.34 287.66 110.42 227.41 194.24 219.12 202.09 279.77"/><polygon class="cls-4" points="201.94 279.78 121.13 287.78 109.34 228.83 190.15 220.84 201.94 279.78"/><path class="cls-9" d="M133,152c-27.56,25-47.45,68.11-46.84,79.72.81,15.35,28.61,41.58,46.71,49.18,4.58,1.92,22.28-35.56,15.59-37.51-7.07-2.06-23.42-16.88-24.22-17.56-1.7-1.43,11.48-34.22,17-54.13C147.46,149.19,144.61,141.43,133,152Z"/><path class="cls-9" d="M122.64,275.12c17.53,12.66,41.36,15.4,45.48,15,3.5-.35,5.31-.56,5.31-.56,6.3-.5,8.56-3.48,8.56-3.48s7.45,1.57,9.15-2.78c1.92-4.87-8.92-6.12-14.46-10.46-12.7-9.93-28-27.6-31.34-30.83Z"/><path class="cls-8" d="M156.06,271.77a103.1,103.1,0,0,0,11.6,8.07,104.43,104.43,0,0,0,14.25,6.07.13.13,0,0,1-.07.24,55,55,0,0,1-26.05-14.06C155.63,271.93,155.86,271.63,156.06,271.77Z"/><path class="cls-8" d="M149,278.56c3.84,2.57,10.63,7,24.52,10.84,0,0,0,.09,0,.09A49.29,49.29,0,0,1,148.7,279C148.47,278.78,148.69,278.39,149,278.56Z"/><path class="cls-9" d="M162.14,259.9c-1.15-1.95-.13-2.57,3.6-1.1s17.28,10.46,20,5.47-16.54-17.39-22.95-19.36S145.34,242,145.34,242C148.61,245.17,155.8,253.6,162.14,259.9Z"/><path class="cls-10" d="M123.28,277.94l21.95-36.86s-20.54-14.41-20.64-15.85,14.44-41.15,18.83-60.7,2.22-28.87-17-7.08S82.49,215.9,83.8,231.62,123.28,277.94,123.28,277.94Z"/><path class="cls-11" d="M139.77,183.22c-.8,1.4-1.65,2.77-2.38,4.21-.23.46-.47.93-.7,1.4l.54-1.69c1.13-3.54,2.22-7.1,3.17-10.7,0-.08-.11-.14-.15-.06-2.54,6.1-4.63,12.4-6.71,18.66s-4.07,12.67-5.95,19.05c-1,3.57-2.13,7.15-3,10.77a.06.06,0,1,0,.12,0c1.21-3.1,2.24-6.29,3.29-9.45s2.11-6.32,3.13-9.49q2.46-7.57,4.88-15.16a17,17,0,0,0,1.76-3c.75-1.46,1.35-3,2-4.5A0,0,0,0,0,139.77,183.22Z"/><path class="cls-8" d="M119.38,268.69a2,2,0,1,0,2.54-1.29A2,2,0,0,0,119.38,268.69Z"/><path class="cls-8" d="M111.7,261.59a2,2,0,1,0,2.55-1.29A2,2,0,0,0,111.7,261.59Z"/><path class="cls-11" d="M97.9,254.32c2.55,2.17,4.93,4.49,7.3,6.82,1.17,1.18,2.35,2.36,3.5,3.56s2.29,2.41,3.43,3.64a71.57,71.57,0,0,1-7.5-6.62A92.57,92.57,0,0,1,97.9,254.32Z"/><path class="cls-8" d="M379,87.94c1.72-5.55,9.28-17.77,21.47-14.08,17.4,5.26,16.74,39.69,24.56,51.18,14.17,20.82,12.88,40-.52,41.8-15,2-27.83-15.09-24.06-49.17,2.36-21.3-2.77-31.33-7.08-31.1s-7.15,5.4-7.15,5.4Z"/><path class="cls-8" d="M379.82,85.87a34.63,34.63,0,0,1,4.27-7.18,20.32,20.32,0,0,1,6.38-5.55,14,14,0,0,1,8.42-1.6,18,18,0,0,1,8,3.07A20.21,20.21,0,0,1,412.6,81a37.12,37.12,0,0,1,3.28,7.79,74.63,74.63,0,0,1,2.58,16.48,110.25,110.25,0,0,0-3.75-16.11,39.65,39.65,0,0,0-3.38-7.4A19,19,0,0,0,406,75.89,16.74,16.74,0,0,0,398.69,73,13,13,0,0,0,391,74.23a20.92,20.92,0,0,0-6.35,5,34.9,34.9,0,0,0-2.6,3.2C381.29,83.52,380.54,84.68,379.82,85.87Z"/><path class="cls-8" d="M401.49,105.91c-.14,3.4-.65,6.77-1,10.15s-.85,6.73-1.17,10.1-.54,6.74-.52,10.1a51.11,51.11,0,0,0,.89,10,26.3,26.3,0,0,0,3.48,9.21,28.59,28.59,0,0,0,6.83,7.14,21.31,21.31,0,0,0,9.06,3.88,19.09,19.09,0,0,0,5,.2,16.34,16.34,0,0,0,2.49-.4,8.91,8.91,0,0,0,2.38-.85,12.59,12.59,0,0,1-4.82,1.67,20.25,20.25,0,0,1-5.16.14,21,21,0,0,1-5.05-1.22,23.11,23.11,0,0,1-4.62-2.42,27.73,27.73,0,0,1-4-3.32l-.9-.94-.86-1a18.37,18.37,0,0,1-1.59-2.1,27.08,27.08,0,0,1-3.78-9.7c-1.3-6.84-.9-13.77,0-20.53.42-3.38,1-6.74,1.63-10.08S401,109.27,401.49,105.91Z"/><path class="cls-10" d="M378,87.94c0-1.6,1.11-3.65,2.14-3.94s8.69,3,9.34,5-2.74,3.7-2.74,3.7Z"/><path class="cls-15" d="M383.91,158.41c-4.55,9.89-38.38,56.41-55.18,57.68C311.15,217.42,269,188.69,265,186.3c-11.08-6.56,19.81-36.81,25.16-31.43,8.93,9,30.27,25.89,35.49,24.75,11-2.41,33.82-21.6,50-31.58C385.41,142,388.94,147.46,383.91,158.41Z"/><path class="cls-15" d="M267.6,187.84c-1.91-1.27-17.29-9.81-23.05-18.05-3.06-4.36-10.11-17.31-7.68-19.5,2.21-2,5,1.08,5,1.08s-3.06-5.82.05-8.56,7.56,2.68,7.56,2.68-2.7-6.2.59-8.72,6.87,3.7,6.87,3.7-2.74-5.56.85-6.49c4.31-1.12,8.2,9.69,12.38,13.85.95.94,20.61,17.77,20.61,17.77Z"/><path class="cls-8" d="M257.19,140.46c2.88,7.94,5.51,10.92,12.08,16a.13.13,0,0,1-.14.22c-6.88-4.41-10.73-7.66-12.34-16.12C256.72,140.17,257.05,140.08,257.19,140.46Z"/><path class="cls-8" d="M249.74,145.45c3.71,8,6.53,11.25,13,17.09.09.09,0,.25-.14.17-6.84-5.2-10.6-8.54-13.26-17C249.24,145.32,249.57,145.09,249.74,145.45Z"/><path class="cls-8" d="M242.2,151.64c4.15,7.47,7.1,11.18,14.13,16a.16.16,0,0,1-.17.27c-7.65-4.26-11.36-8.86-14.17-16.16C241.79,151.29,241.94,151.17,242.2,151.64Z"/><path class="cls-15" d="M297.44,163.17s-4.36-9.65-7.21-13.46-18.71-14.12-21.13-10.82c-3.12,4.26,4.86,12,9.26,15.29,0,0-7.23,9.85-2.71,16.65S297.44,163.17,297.44,163.17Z"/><path class="cls-8" d="M268.63,140.34c-.05,5.94,6,9.88,10.05,13.38a.5.5,0,0,1-.05.81c-2.76,4.33-5.39,11.24-3.3,16.24a.12.12,0,0,1-.22.11c-3-5.06-.94-12.06,2.38-16.61-4.19-3.53-10.1-7.75-8.92-13.94C268.57,140.3,268.63,140.3,268.63,140.34Z"/><path class="cls-4" d="M383.45,161.22c-5.27,10.5-36,55.29-52.58,56s-51.35-13.45-51.35-13.45l25.76-39.21s17.82,12.86,20.62,13,40.23-24.63,49-30.07S392,144.14,383.45,161.22Z"/><path class="cls-1" d="M303,204.06a15.89,15.89,0,0,1,1-7.05,15.89,15.89,0,0,1-1,7.05Z"/><path class="cls-1" d="M354.29,196.21a15.89,15.89,0,0,1,1-7.05,15.89,15.89,0,0,1-1,7.05Z"/><path class="cls-1" d="M357.13,166.38a14.26,14.26,0,0,1-3.58-.1,13.85,13.85,0,0,1-3.47-.89,16.08,16.08,0,0,1,7.05,1Z"/><path class="cls-1" d="M315.82,179.91a15.89,15.89,0,0,1-7.05-1,13.8,13.8,0,0,1,3.58.09A14.17,14.17,0,0,1,315.82,179.91Z"/><path class="cls-1" d="M321.85,216.34a1.46,1.46,0,0,1-.16.19l-.21,0Z"/><path class="cls-1" d="M292.72,190a14.1,14.1,0,0,1,2.6-2.47,13.77,13.77,0,0,1,3.08-1.83,13.79,13.79,0,0,1-2.6,2.47A14.16,14.16,0,0,1,292.72,190Z"/><path class="cls-1" d="M335.68,181.07a13.68,13.68,0,0,1,2.59-2.46,14.07,14.07,0,0,1,3.09-1.83,14.44,14.44,0,0,1-2.6,2.47A14.61,14.61,0,0,1,335.68,181.07Z"/><path class="cls-1" d="M321.42,193.37a14.44,14.44,0,0,1,2.47,2.6,14.12,14.12,0,0,1,1.82,3.08,15.88,15.88,0,0,1-4.29-5.68Z"/><path class="cls-1" d="M362.2,175a16.06,16.06,0,0,1,4.3,5.68,16.06,16.06,0,0,1-4.3-5.68Z"/><path class="cls-8" d="M310.85,170.93c-3.25,5.86-6.37,11.79-9.87,17.5a191.16,191.16,0,0,1-11,16.55.11.11,0,0,1-.19-.12c3.1-5.85,6.64-11.49,10.09-17.15s7.18-11.24,10.64-17C310.61,170.55,311,170.7,310.85,170.93Z"/><path class="cls-16" d="M383.45,161.22c-5.27,10.5-36,55.29-52.58,56a61.32,61.32,0,0,1-14.53-1.71c12.89-13.79,49-52.69,65.66-70.69C387.07,144.52,389.53,149.1,383.45,161.22Z"/><path class="cls-4" d="M352.84,265.2h97.39s-37.87-95.87-58-115.15c-5.48-5.25-19-4.86-25.65,4-5.44,7.25-20.54,36.12-21.23,46.5s7.45,20.63,7.45,20.63Z"/><path class="cls-1" d="M365.28,229.28a15.89,15.89,0,0,1,1-7.05,15.89,15.89,0,0,1-1,7.05Z"/><path class="cls-1" d="M432.2,247.33a14.25,14.25,0,0,1,.1-3.58,13.74,13.74,0,0,1,.89-3.47,16.08,16.08,0,0,1-1,7.05Z"/><path class="cls-1" d="M390.19,263.1a14.25,14.25,0,0,1,.09-3.58,13.74,13.74,0,0,1,.89-3.47,15.89,15.89,0,0,1-1,7.05Z"/><path class="cls-1" d="M380.51,190.73a14.26,14.26,0,0,1,.09-3.58,13.74,13.74,0,0,1,.89-3.47,15.89,15.89,0,0,1-1,7Z"/><path class="cls-1" d="M406.39,219.87a15.9,15.9,0,0,1,1-7.06,15.9,15.9,0,0,1-1,7.06Z"/><path class="cls-1" d="M354.29,196.21a15.89,15.89,0,0,1,1-7.05,15.89,15.89,0,0,1-1,7.05Z"/><path class="cls-1" d="M388.54,224.87a14.26,14.26,0,0,1-3.58-.1,13.85,13.85,0,0,1-3.47-.89,16.08,16.08,0,0,1,7.05,1Z"/><path class="cls-1" d="M417.92,197a14.34,14.34,0,0,1-3.59-.09,14,14,0,0,1-3.47-.89,15.9,15.9,0,0,1,7.06,1Z"/><path class="cls-1" d="M365.5,257.62a15.89,15.89,0,0,1-7.05-1,13.8,13.8,0,0,1,3.58.09A14.17,14.17,0,0,1,365.5,257.62Z"/><path class="cls-1" d="M420.14,233.5a14.26,14.26,0,0,1-3.58-.1,13.85,13.85,0,0,1-3.47-.89,16.08,16.08,0,0,1,7.05,1Z"/><path class="cls-1" d="M374,246.73a14.44,14.44,0,0,1,2.6-2.47,14.12,14.12,0,0,1,3.08-1.82,15.88,15.88,0,0,1-5.68,4.29Z"/><path class="cls-1" d="M410.86,253.77a16.06,16.06,0,0,1,5.68-4.3,13.74,13.74,0,0,1-2.59,2.47A14.47,14.47,0,0,1,410.86,253.77Z"/><path class="cls-1" d="M420.62,219.31a14.33,14.33,0,0,1,2.59-2.46A14.07,14.07,0,0,1,426.3,215a14.1,14.1,0,0,1-2.6,2.47A13.74,13.74,0,0,1,420.62,219.31Z"/><path class="cls-1" d="M362.47,206.93a15.88,15.88,0,0,1,5.68-4.29,15.88,15.88,0,0,1-5.68,4.29Z"/><path class="cls-1" d="M400.13,183.22a14.06,14.06,0,0,1,2.59-2.47,14.43,14.43,0,0,1,3.09-1.82,14.44,14.44,0,0,1-2.6,2.47A14.61,14.61,0,0,1,400.13,183.22Z"/><path class="cls-1" d="M355.35,235.29a14.07,14.07,0,0,1-2.56,2.44v-1A12.83,12.83,0,0,1,355.35,235.29Z"/><path class="cls-1" d="M380.94,168a14.44,14.44,0,0,1,2.6-2.47,14.12,14.12,0,0,1,3.08-1.82,14.06,14.06,0,0,1-2.59,2.47A14.43,14.43,0,0,1,380.94,168Z"/><path class="cls-1" d="M348.83,211.85a14.44,14.44,0,0,1,2.47,2.6,14.12,14.12,0,0,1,1.82,3.08,15.88,15.88,0,0,1-4.29-5.68Z"/><path class="cls-1" d="M362.2,175a16.06,16.06,0,0,1,4.3,5.68,16.06,16.06,0,0,1-4.3-5.68Z"/><path class="cls-1" d="M396,234.6a15.65,15.65,0,0,1,4.29,5.68,14.44,14.44,0,0,1-2.47-2.6A14.12,14.12,0,0,1,396,234.6Z"/><path class="cls-1" d="M431,258a14.44,14.44,0,0,1,2.47,2.6,14.12,14.12,0,0,1,1.82,3.08,14.06,14.06,0,0,1-2.47-2.59A14.43,14.43,0,0,1,431,258Z"/><path class="cls-1" d="M395.33,157.57a16.19,16.19,0,0,1,4.29,5.68,15.88,15.88,0,0,1-4.29-5.68Z"/><path class="cls-1" d="M389,203a15.83,15.83,0,0,1,4.3,5.68A16.06,16.06,0,0,1,389,203Z"/><path class="cls-15" d="M385.72,151c-.54,1.43-8.87,10.14-15.6,8.94-2.2-.39-.58-12.46-.58-12.46l-.09-.92-1.17-12.85,15.9-7.51,2.28-1s.09,3.54.15,7.94c0,.21,0,.41,0,.63s0,.49,0,.72c0,.66,0,1.33,0,2,0,.51,0,1,0,1.54s0,1.06,0,1.6A84.12,84.12,0,0,1,385.72,151Z"/><path class="cls-8" d="M386.61,133.15a25.86,25.86,0,0,1-17.16,13.39l-1.17-12.85,15.9-7.51,2.28-1S386.55,128.75,386.61,133.15Z"/><path class="cls-15" d="M351.94,114.76c-1.8,22.58,11.52,26.2,16.39,26.59,4.42.34,19.52,1,23.64-21.31s-5.81-30.25-15.88-31.57S353.73,92.18,351.94,114.76Z"/><path class="cls-8" d="M355.74,110a15.54,15.54,0,0,0,1.54-.31,2.46,2.46,0,0,0,1.5-.61.8.8,0,0,0,0-1,2,2,0,0,0-2-.49,2.94,2.94,0,0,0-1.85,1A.86.86,0,0,0,355.74,110Z"/><path class="cls-8" d="M370.77,110.28a12.84,12.84,0,0,1-1.52-.33,2.56,2.56,0,0,1-1.5-.65.81.81,0,0,1,0-1,2,2,0,0,1,2-.45,2.94,2.94,0,0,1,1.83,1.06A.86.86,0,0,1,370.77,110.28Z"/><path class="cls-8" d="M367.24,116s.11.08.11.14c-.1,1.54,0,3.32,1.42,3.88.05,0,0,.1,0,.09C367.06,119.78,366.9,117.42,367.24,116Z"/><path class="cls-8" d="M368.67,114.41c2.48-.11,2.51,4.87.21,5S366.58,114.5,368.67,114.41Z"/><path class="cls-8" d="M369.64,114.67c.44.28.87.77,1.39.82s1.07-.47,1.46-1c0,0,.08,0,.09,0,0,1-.35,1.94-1.37,2.09s-1.6-.71-1.85-1.66C369.32,114.82,369.47,114.55,369.64,114.67Z"/><path class="cls-8" d="M358.68,115.63s-.12.08-.12.14c.07,1.54-.11,3.32-1.5,3.85,0,0,0,.1,0,.09C358.78,119.45,359,117.08,358.68,115.63Z"/><path class="cls-8" d="M357.28,114c-2.49-.15-2.61,4.83-.31,5S359.36,114.17,357.28,114Z"/><path class="cls-8" d="M356.23,114.34c-.4.26-.8.73-1.27.75s-.93-.53-1.27-1c0-.06-.07,0-.08,0-.05,1,.24,2,1.15,2.15s1.46-.61,1.71-1.55C356.52,114.51,356.39,114.24,356.23,114.34Z"/><path class="cls-8" d="M367.35,128.18c-.35.38-.69.89-1.25,1a4.26,4.26,0,0,1-1.68-.3.05.05,0,0,0-.06.08,2.06,2.06,0,0,0,2,.73,1.63,1.63,0,0,0,1.14-1.42C367.52,128.15,367.4,128.12,367.35,128.18Z"/><path class="cls-8" d="M360.93,122.57s-.33,2.3-.33,3.39c0,.1.26.15.63.17,0,0,0,0,0,0a5.17,5.17,0,0,0,5-1.9c.07-.11-.07-.22-.17-.15a7.72,7.72,0,0,1-4.72,1.32c-.07-.3.7-3.92.53-3.93a9.18,9.18,0,0,0-2.47.54c.55-4.81,1.87-9.5,2.34-14.3a.15.15,0,0,0-.28-.07c-1.73,4.81-2.49,10.34-3.18,15.3C358.26,123.55,360.5,122.75,360.93,122.57Z"/><path class="cls-8" d="M361.46,125.91a6.35,6.35,0,0,0,2.5,2,2.9,2.9,0,0,0,1.73.13c1.25-.32,1.3-1.46,1.08-2.45a7.1,7.1,0,0,0-.54-1.51A8.21,8.21,0,0,1,361.46,125.91Z"/><path class="cls-17" d="M364,127.9a2.9,2.9,0,0,0,1.73.13c1.25-.32,1.3-1.46,1.08-2.45A3,3,0,0,0,364,127.9Z"/><path class="cls-8" d="M391,122.29a9.28,9.28,0,0,1-5.16-7.59,24.11,24.11,0,0,1-9.84-8c.15.46,1.22,3.82,1.82,5.52-14.28-2.74-18.65-13.7-18.65-13.7-4.66,4.61-5.6,7.56-6.28,9,0,0-.06-8.77,4.47-14.62,5.55-7.16,24.2-9,32.78.4C399.34,103.5,391,122.29,391,122.29Z"/><path class="cls-8" d="M366.93,109.81a26.52,26.52,0,0,0,7.32,2.73s0,0,0,0a22.4,22.4,0,0,1-10.46-6.39,21.44,21.44,0,0,1-3.07-4.32,14.9,14.9,0,0,1-1.87-5.46.11.11,0,0,0-.22,0,17.19,17.19,0,0,0,1.11,5.64,15.75,15.75,0,0,0,3.15,4.75,18.09,18.09,0,0,0,4,3.08"/><path class="cls-15" d="M388.24,121.49s4.89-7.11,8.11-5.37-.42,12-4.18,13.45a3.83,3.83,0,0,1-5.14-2Z"/><path class="cls-8" d="M395.24,119a.05.05,0,0,1,0,.1c-2.64,1.09-4,3.55-5,6.1a2.12,2.12,0,0,1,3.16-.61c.07.05,0,.16-.07.15a2.34,2.34,0,0,0-2.58.84,11,11,0,0,0-1.23,2.1c-.12.24-.55.12-.46-.16,0,0,0,0,0-.06C389,124.14,391.62,119.41,395.24,119Z"/><path class="cls-1" d="M389,129.05a1.65,1.65,0,1,0,1.65-1.65A1.65,1.65,0,0,0,389,129.05Z"/><path class="cls-15" d="M362.19,155.58s-4.62,13.12,3.74,14,30.17-15.2,30.17-15.2-6.06-9.8-15.73-8.76C372.35,146.54,362.19,155.58,362.19,155.58Z"/><path class="cls-15" d="M401.64,170.94c0,16.21-9.31,64.8-18.25,71.35-17.9,13.09-59.86,12.19-71.43,12.39-5,.09-11.55-33.17-7.83-37s54.84-5.24,57.46-7.2c1.81-1.37,16.24-25,24.6-40.23C397.48,149.7,401.65,162.78,401.64,170.94Z"/><path class="cls-15" d="M313,215.91s-15.1-1.67-25-2.3c-5.54-.35-15.09-.1-19.28,1.5-6.26,2.4-30.92,16.43-27.65,22.49,3,5.47,10.5-.59,10.5-.59s-8.86,5.86-4.25,10.39,13.7-4.28,13.7-4.28-9.83,5.56-4.45,9.92c4.67,3.79,16.19-5.27,16.19-5.27s-11,4.71-6.55,9.06c4.87,4.81,23.85-6.6,23.85-6.6,12.36,4.11,20.33,4.92,29.78,4.32C321.58,254.44,313,215.91,313,215.91Z"/><path class="cls-8" d="M258.27,245.12c.74-.67,1.5-1.31,2.24-2a47.86,47.86,0,0,1,4.48-3.68c1.55-1.08,3.14-2.09,4.76-3.06s3.55-1.87,5.23-2.93a.11.11,0,1,1,.11.19,50.51,50.51,0,0,0-4.84,3.38c-1.56,1.13-3.11,2.29-4.66,3.45s-3.09,2.15-4.63,3.24c-.77.54-1.51,1.12-2.26,1.69a15.18,15.18,0,0,1-2.15,1.6c-.08,0-.15-.07-.1-.13A11.72,11.72,0,0,1,258.27,245.12Z"/><path class="cls-8" d="M249.75,238.27c1-1.33,6.66-5.93,8.17-7a54.42,54.42,0,0,1,9.33-5.45c.11-.05.21.12.11.2-2.92,2.12-5.87,4.21-8.81,6.29-1.44,1-7.84,5.86-8.57,6.28C249.81,238.67,249.64,238.41,249.75,238.27Z"/><path class="cls-8" d="M266.1,251.76a77.68,77.68,0,0,1,7.81-6.46,69.88,69.88,0,0,1,9.29-4.6c.12,0,.22.12.11.19-3,1.76-5.95,3.47-8.83,5.37-1.41.93-6.79,5-8.2,5.72A.15.15,0,0,1,266.1,251.76Z"/><path class="cls-4" d="M323.21,257.13l-13.8-43.86s50.22-3.21,51.85-4.05,19.53-32.46,26.61-44.76,18-7.23,13.95,20.52c-4.11,27.92-8.63,49.61-14.88,56.07C379.35,248.87,351.58,256.94,323.21,257.13Z"/><path class="cls-1" d="M365.28,229.28a15.89,15.89,0,0,1,1-7.05,15.89,15.89,0,0,1-1,7.05Z"/><path class="cls-1" d="M337.53,254.38a14.26,14.26,0,0,1,.1-3.58,13.74,13.74,0,0,1,.89-3.47,16.08,16.08,0,0,1-1,7Z"/><path class="cls-1" d="M380.51,190.73a14.26,14.26,0,0,1,.09-3.58,13.74,13.74,0,0,1,.89-3.47,15.89,15.89,0,0,1-1,7Z"/><path class="cls-1" d="M388.54,224.87a14.26,14.26,0,0,1-3.58-.1,13.85,13.85,0,0,1-3.47-.89,16.08,16.08,0,0,1,7.05,1Z"/><path class="cls-1" d="M340.33,226.25a15.89,15.89,0,0,1-7.05-1,13.39,13.39,0,0,1,3.58.09A14,14,0,0,1,340.33,226.25Z"/><path class="cls-1" d="M374,246.73a14.44,14.44,0,0,1,2.6-2.47,14.12,14.12,0,0,1,3.08-1.82,15.88,15.88,0,0,1-5.68,4.29Z"/><path class="cls-1" d="M316.17,220.63a15.88,15.88,0,0,1,5.68-4.29,15.88,15.88,0,0,1-5.68,4.29Z"/><path class="cls-1" d="M368.15,202.64a14.12,14.12,0,0,1-2.6,2.47,15.42,15.42,0,0,1-2.32,1.47c.25-.38.52-.81.8-1.27h0c.33-.29.68-.57,1-.84A14.12,14.12,0,0,1,368.15,202.64Z"/><path class="cls-1" d="M402.3,181.08c0,.34-.06.68-.1,1a12.14,12.14,0,0,1-2.08,1.11A14.21,14.21,0,0,1,402.3,181.08Z"/><path class="cls-1" d="M349.67,239.58a16.19,16.19,0,0,1,5.68-4.29,15.88,15.88,0,0,1-5.68,4.29Z"/><path class="cls-1" d="M348.83,211.85a14.44,14.44,0,0,1,2.47,2.6,14.12,14.12,0,0,1,1.82,3.08,15.88,15.88,0,0,1-4.29-5.68Z"/><path class="cls-1" d="M399.61,163.25a14.68,14.68,0,0,1-2.46-2.59,15.46,15.46,0,0,1-1.56-2.51,3.17,3.17,0,0,1,.44,0,15.76,15.76,0,0,1,1.76,2A14,14,0,0,1,399.61,163.25Z"/><path class="cls-1" d="M389,203a15.83,15.83,0,0,1,4.3,5.68A16.06,16.06,0,0,1,389,203Z"/><path class="cls-8" d="M377,183c-1.64,2.46-3.15,5-4.67,7.51l-.13.21c.08-.19.16-.38.23-.57.49-1.26.93-2.54,1.46-3.78,0-.07-.07-.13-.11-.06-.54,1.22-1.15,2.41-1.66,3.64q-.53,1.24-1,2.52c-1.13,1.87-2.25,3.74-3.35,5.63-1.49,2.54-3,5.09-4.46,7.62l-1.1,1.86a2.46,2.46,0,0,1-1.31,1.21,10.86,10.86,0,0,1-2.05.27l-2.21.25c-3.34.41-6.66,1-10,1.4-.08,0-.08.13,0,.12,3.07-.23,6.14-.34,9.21-.59,1.52-.12,3-.23,4.54-.42a3.09,3.09,0,0,0,1.58-.57,4.42,4.42,0,0,0,1-1.33l9.12-15.79c1.71-3,3.46-6,5-9A.11.11,0,0,0,377,183Z"/><path class="cls-8" d="M401.91,194.72a16,16,0,0,1-.72,3c-.23.87-.47,1.73-.73,2.59s-.63,1.93-1,2.89q1-6.42,1.62-12.88c0-.13-.22-.16-.23,0-.81,6-1.92,12-3.18,18s-2.81,11.88-4.54,17.71c-.85,2.87-1.76,5.74-2.76,8.56a23.64,23.64,0,0,1-3.52,6.89,17.8,17.8,0,0,1-6.69,4.73,76.09,76.09,0,0,1-8.22,3.22c-6.35,2.08-12.93,3.41-19.42,5-.07,0-.05.13,0,.12a146.55,146.55,0,0,0,17.71-3.58,73.64,73.64,0,0,0,8.68-2.9,24.57,24.57,0,0,0,7.35-4.18,18.49,18.49,0,0,0,4.33-6.67c1.08-2.65,1.94-5.39,2.79-8.12,1.85-5.95,3.4-12,4.67-18.07.36-1.77.7-3.54,1-5.32a34,34,0,0,0,1.76-5.21c.25-.93.49-1.86.67-2.8s.24-1.93.51-2.84C402.06,194.65,401.92,194.62,401.91,194.72Z"/><path class="cls-8" d="M332,253.59c-2.28-6.3-4.68-12.55-6.68-19a187.59,187.59,0,0,1-5.19-19.2c0-.12.16-.18.21-.06,2.36,6.18,4.28,12.56,6.27,18.88s3.74,12.81,5.76,19.17C332.39,253.67,332,253.84,332,253.59Z"/><path class="cls-8" d="M323.48,212.25c-1.19-.09-2.41,0-3.6,0s-2.41.08-3.61.13c-2.4.1-4.8.28-7.2.49a.3.3,0,0,0-.28.39,10.38,10.38,0,0,0,1.23,2.5s.12,0,.11,0a8.2,8.2,0,0,0-.62-2.29c2.29-.15,4.58-.29,6.88-.46,1.2-.1,2.4-.17,3.6-.27s2.36-.13,3.52-.31C323.61,212.39,323.57,212.25,323.48,212.25Z"/><path class="cls-9" d="M269.28,202.85c3,1.48,16.67,2.05,20.66,7,2.65,3.26,2.39,6.56,3.94,16.31,1.34,8.45-5.67,6.44-7.68,2.11-3.16-6.8-5.88-14.26-5.88-14.26a53.54,53.54,0,0,0-7,.11Z"/><path class="cls-9" d="M279.14,234.83c4.73-3,19.89,16.12,12.32,21.19S273.78,238.23,279.14,234.83Z"/><path class="cls-9" d="M271.46,238.9c4.74-3,19.89,16.12,12.32,21.19S266.1,242.31,271.46,238.9Z"/><path class="cls-9" d="M266,239.66c4.72-2.07,15.83,17.42,8.24,21S260.68,242,266,239.66Z"/><path class="cls-9" d="M260.46,239.12c5-.59,9.79,20.63,1.75,21.79S254.84,239.79,260.46,239.12Z"/><path class="cls-8" d="M278.06,241.45a23.42,23.42,0,0,1,2.35,3.08c.79,1.13,1.56,2.29,2.24,3.49a32.89,32.89,0,0,1,1.77,3.57c.54,1.31.91,2.69,1.48,4a.11.11,0,1,1-.2.08,29.07,29.07,0,0,0-1.93-3.61c-.67-1.17-1.27-2.37-1.93-3.55S280.6,246.17,280,245s-1.44-2.28-2-3.48A.09.09,0,0,1,278.06,241.45Z"/><path class="cls-8" d="M270.17,241.34c.49,1.44,2.11,6.93,2.67,8.35s1.15,2.84,1.77,4.24,1.19,2.94,1.94,4.3a.11.11,0,0,1-.19.11c-.77-1.38-1.65-2.66-2.34-4.07a46.29,46.29,0,0,1-1.86-4.27,73.37,73.37,0,0,1-2.22-8.63C269.92,241.23,270.13,241.22,270.17,241.34Z"/><path class="cls-8" d="M264.23,242.71c.37,2,.62,4.12,1,6.17.19,1,.39,2,.57,3,.09.49.17,1,.26,1.47a8.46,8.46,0,0,0,.32,1.68c.05.14-.2.2-.22,0a13.45,13.45,0,0,0-.58-1.8c-.14-.47-.28-.95-.4-1.43-.25-1-.45-2-.61-3a41.64,41.64,0,0,1-.63-6.09C264,242.59,264.2,242.55,264.23,242.71Z"/><path class="cls-10" d="M338.07,107a18.16,18.16,0,0,0,3.11-10c0-12.71-14-23-31.18-23s-31.16,10.31-31.16,23,14,23,31.16,23a37.46,37.46,0,0,0,21.51-6.37l10.74,2.73Z"/><path class="cls-8" d="M298.79,97a3.23,3.23,0,1,1-3.23-3.23A3.23,3.23,0,0,1,298.79,97Z"/><circle class="cls-8" cx="310.01" cy="96.95" r="3.23"/><path class="cls-8" d="M327.69,97a3.24,3.24,0,1,1-3.24-3.23A3.24,3.24,0,0,1,327.69,97Z"/><path class="cls-10" d="M225.54,37.93c-1.8,15-11.48,17.8-13.11,21.81a69.93,69.93,0,0,0-2,7.69l-15.73,0a68.36,68.36,0,0,0-2-7.71c-1.6-4-11.27-6.81-13-21.87-1.14-9.9,6.34-25.51,23-25.47S226.71,28,225.54,37.93Z"/><rect class="cls-1" x="195.96" y="43.19" width="0.81" height="25.46" transform="translate(-6.88 36.47) rotate(-10.43)"/><rect class="cls-1" x="196.04" y="55.54" width="25.46" height="0.81" transform="translate(115.06 250.71) rotate(-79.31)"/><path class="cls-1" d="M202.58,51.74h0c-1.24,0-2.48-1-3.5-2.77l-.14-.24a1.88,1.88,0,0,1-1.35.73h0c-2.36,0-3.29-4.86-3.33-5.07l.4-.08s.9,4.74,2.93,4.75h0a1.64,1.64,0,0,0,1.15-.72c-1-2.05-1.54-4.73-.84-6a1.21,1.21,0,0,1,1.09-.63h0a1.42,1.42,0,0,1,1.3.74c.71,1.23.18,3.78-.75,5.39a4.61,4.61,0,0,1-.32.49,2.93,2.93,0,0,0,.21.39c.55,1,1.69,2.56,3.15,2.57h0c1,0,2-.77,2.77-2.16l.19-.36a4.59,4.59,0,0,1-.55-.77c-1-1.69-1.17-4.2-.43-5.48a1.44,1.44,0,0,1,1.27-.8h0a1.12,1.12,0,0,1,1,.62c.69,1.21.3,4.09-.8,6.36a2.34,2.34,0,0,0,1.58.66h0c1.44,0,2.72-3.44,3.09-4.76l.39.11c-.06.2-1.44,5.05-3.48,5.05h0a2.65,2.65,0,0,1-1.77-.69c-.05.09-.1.17-.14.26C205.07,50.46,204,51.74,202.58,51.74Zm3.25-9.56a1,1,0,0,0-.92.59c-.67,1.15-.47,3.52.43,5.08a4,4,0,0,0,.4.58c1-2.11,1.35-4.77.74-5.84a.71.71,0,0,0-.64-.41Zm-6.84,0a.79.79,0,0,0-.74.44c-.56,1-.2,3.32.76,5.37.06-.09.12-.18.18-.29.86-1.47,1.38-3.89.75-5a1,1,0,0,0-.95-.54Z"/><rect class="cls-8" x="192.83" y="66.74" width="19.41" height="3.79" transform="translate(0.16 -0.48) rotate(0.14)"/><rect class="cls-8" x="192.82" y="71.15" width="19.41" height="3.79" transform="translate(0.17 -0.48) rotate(0.14)"/><rect class="cls-8" x="192.81" y="75.56" width="19.41" height="3.79" transform="matrix(1, 0, 0, 1, 0.18, -0.48)"/><path class="cls-8" d="M203.39,0a11.26,11.26,0,0,1,.35,3.14,10.87,10.87,0,0,1-.45,3.13,10.86,10.86,0,0,1-.35-3.14A10.87,10.87,0,0,1,203.39,0Z"/><path class="cls-8" d="M185.79,4.3a11.14,11.14,0,0,1,1.88,2.54,11,11,0,0,1,1.17,2.94A11.44,11.44,0,0,1,187,7.24,11.29,11.29,0,0,1,185.79,4.3Z"/><path class="cls-8" d="M172.7,16.82a11.11,11.11,0,0,1,2.9,1.27A11,11,0,0,1,178.09,20a10.62,10.62,0,0,1-2.9-1.26A11.32,11.32,0,0,1,172.7,16.82Z"/><path class="cls-8" d="M167.63,34.21a10.9,10.9,0,0,1,3.14-.35,10.53,10.53,0,0,1,3.13.45,12.49,12.49,0,0,1-6.27-.1Z"/><path class="cls-8" d="M171.93,51.81a11.14,11.14,0,0,1,2.54-1.88,10.63,10.63,0,0,1,2.94-1.17,11.09,11.09,0,0,1-2.54,1.87A11,11,0,0,1,171.93,51.81Z"/><path class="cls-8" d="M232.53,53.15a11,11,0,0,1-2.9-1.27,10.77,10.77,0,0,1-2.49-2,10.76,10.76,0,0,1,2.9,1.26A11.32,11.32,0,0,1,232.53,53.15Z"/><path class="cls-8" d="M237.6,35.76a10.9,10.9,0,0,1-3.14.35,10.53,10.53,0,0,1-3.13-.45,12.49,12.49,0,0,1,6.27.1Z"/><path class="cls-8" d="M233.3,18.16A11,11,0,0,1,230.75,20a10.45,10.45,0,0,1-2.93,1.17,12.53,12.53,0,0,1,5.48-3.05Z"/><path class="cls-8" d="M220.78,5.07A11.11,11.11,0,0,1,219.51,8a11,11,0,0,1-1.95,2.49,10.76,10.76,0,0,1,1.26-2.9A11.32,11.32,0,0,1,220.78,5.07Z"/></g></g></svg>