<svg width="724" height="701" viewBox="0 0 724 701" fill="none" xmlns="http://www.w3.org/2000/svg">
<g clip-path="url(#clip0_2653_2168)">
<g style="mix-blend-mode:multiply">
<path d="M699.97 423.49C691.91 423.49 687.5 429.7 686.53 436.92C684.07 455.28 678.37 471.83 667.53 487.81C657.45 502.65 643.93 516.41 629.65 528.81C601.2 553.59 567.65 574.02 533.14 591.18C524.58 595.44 515.89 599.42 507.27 603.53C505.52 595.4 496.52 588.87 488.42 594.27C481.65 598.79 479.19 605.88 476.66 613.27C474.734 618.711 473.298 624.313 472.37 630.01C470.72 640.8 467.66 656.32 474.31 666.01C476.42 669.07 480.99 670.29 483.81 667.24C490.87 659.57 492.44 647.07 496.04 637.52L496.84 635.38C501.423 634.195 505.939 632.766 510.37 631.1C520.78 627.32 530.95 623.04 541.03 618.45C559.824 609.995 578.078 600.39 595.69 589.69C613.788 578.61 631.051 566.22 647.34 552.62C663.56 539.06 679.05 524.05 690.94 506.45C704.18 486.83 715.3 461.06 713.42 436.88C712.85 429.69 707.64 423.49 699.97 423.49Z" fill="#D7DCE0"/>
</g>
<g style="mix-blend-mode:multiply">
<path d="M156.49 601.57C164.93 596.18 165.89 582.95 156.49 577.78C145.54 571.78 133.44 578.44 123.1 582.87C113.42 587 101.1 591.34 95.2699 600.52C90.3599 608.2 96.7299 619.34 105.85 618.96C106.957 618.909 108.06 618.782 109.15 618.58C109.59 618.77 110.041 618.933 110.5 619.07C119.36 621.77 128 616.89 135.75 613.12C142.88 609.672 149.805 605.816 156.49 601.57Z" fill="#D7DCE0"/>
</g>
<g style="mix-blend-mode:multiply">
<path d="M351.21 491.03C348.97 489.268 346.242 488.237 343.397 488.076C340.551 487.915 337.725 488.632 335.3 490.13L335.36 489.91C315.66 502.26 295.94 514.33 275.18 524.84C266.026 529.633 256.498 533.677 246.69 536.93L244.13 537.72C246.811 536.003 249.377 534.113 251.81 532.06C257.23 527.43 257.11 518.28 252.94 513.06C248.23 507.14 240.94 506.12 234.26 509.33C223.35 514.57 216.72 518.78 205.58 521.88C184.881 527.536 162.989 527.102 142.53 520.63C137.904 519.144 133.563 516.885 129.69 513.95C125.4 510.59 121.37 506.28 115.89 505.12C115.079 504.918 114.225 504.98 113.452 505.297C112.679 505.613 112.027 506.168 111.59 506.88C104.09 519.45 119.71 535.12 129.4 541.27C141.71 549.1 156.29 552.56 170.6 554.14C183.451 555.453 196.431 554.625 209.01 551.69C209.1 552.25 209.22 552.81 209.36 553.37C211.73 562.47 219.93 566.97 228.72 567.88C235.95 568.63 243.79 566.88 250.81 565.19C258.33 563.38 265.53 560.41 272.62 557.38C299.71 545.722 325.563 531.377 349.79 514.56C357.9 508.93 359.53 497.45 351.21 491.03Z" fill="#D7DCE0"/>
</g>
<g style="mix-blend-mode:multiply">
<path d="M119.19 374.6C122.359 374.556 125.385 373.278 127.626 371.037C129.867 368.796 131.146 365.769 131.19 362.6C131.19 355.42 125.65 351.45 119.19 350.6C115.29 350.09 111.36 349.75 107.4 349.53C108.335 345.859 109.456 342.237 110.76 338.68C113.11 332.09 117.81 324.01 122.28 317.51C131.63 303.89 144.75 291.7 157.93 281.11C170.863 270.819 184.718 261.744 199.32 254C206.81 250 214.32 246.15 222.01 242.51C225.32 240.95 228.6 239.32 231.94 237.82C233.5 240.89 235.29 243.82 236.85 246.46C241.38 254.09 246.76 263.73 254.8 268.01C259.65 270.59 265.7 269.3 269.47 265.84C272.915 265.698 276.203 264.361 278.77 262.06C291.67 250.69 304.09 238.81 316.77 227.19C322.956 221.503 329.223 215.893 335.57 210.36C342.01 204.75 348.79 199.5 352.14 191.42C353.5 188.15 350.06 183.97 346.68 184.25C337.95 184.99 330.76 190.2 323.68 194.96C316.6 199.72 309.29 204.77 302.19 209.82C288.743 219.25 275.818 229.401 263.47 240.23C261.19 237.54 258.82 234.92 256.7 232.23C251.82 226.13 247.38 218.04 240 214.65C234.57 212.16 229.75 214.78 228.33 220.03C225.97 220.41 223.62 220.81 221.27 221.27C214.321 222.685 207.479 224.576 200.79 226.93C186.607 231.909 173.039 238.492 160.35 246.55C134.73 262.66 110.16 283.18 93.7097 308.87C88.9986 316.337 85.068 324.269 81.9798 332.54C79.7679 338.046 78.0412 343.734 76.8196 349.54L68.8196 349.77C60.5796 350 52.2899 350.21 44.0999 351.21C35.4099 352.21 27.7097 354.45 19.3997 357.01C16.0897 358.01 15.8197 363.1 19.3997 364.01C27.6897 366.08 35.5599 368.01 44.0999 369.06C52.2999 370.06 60.5896 370.33 68.8196 370.9C73.4396 371.22 78.0797 371.63 82.7097 372.07C85.5888 374.103 89.1531 374.918 92.6297 374.34C93.8619 374.166 95.0658 373.83 96.2097 373.34C103.86 373.99 111.53 374.54 119.19 374.6Z" fill="#D7DCE0"/>
</g>
<g style="mix-blend-mode:multiply">
<path d="M414.35 166.26C413.013 167.037 411.786 167.989 410.7 169.09C410.535 169.261 410.388 169.449 410.26 169.65C409.87 169.89 409.48 170.16 409.08 170.4C409.08 170.4 408.95 170.4 408.61 170.49L408.17 170.59H408.02L408.52 170.7L408.14 170.62C406.36 170.51 404.87 170.05 403.14 170.52C401.785 170.815 400.528 171.454 399.491 172.375C398.454 173.296 397.672 174.469 397.22 175.78C394.12 184.2 404.83 190.78 411.9 190.99C415.764 191.167 419.583 190.094 422.79 187.93C427.41 184.73 429.55 180.99 430.24 175.4C431.21 167.36 420.55 162.3 414.35 166.26Z" fill="#D7DCE0"/>
</g>
<g style="mix-blend-mode:multiply">
<path d="M389.79 101.99C389.73 117.99 413.58 119.51 423.56 112.42C431.74 106.6 429.87 95.9601 420.93 92.3101C412.76 88.9701 401.7 85.4901 394.37 92.0701C393.044 93.345 392.158 95.0085 391.84 96.8201C391.17 97.5009 390.643 98.3092 390.291 99.1973C389.939 100.085 389.768 101.035 389.79 101.99Z" fill="#D7DCE0"/>
</g>
<g style="mix-blend-mode:multiply">
<path d="M370.79 421.22C366.79 425.69 369.79 431.7 375.39 432.31C387.39 433.62 400.56 426.37 411.24 421.73C416.24 419.54 422.64 417.73 426.47 413.6C432.29 407.37 429.83 398.42 424.29 393.03C416.16 385.11 404.29 380.77 394.07 376.37C381.93 371.15 369.51 366.52 357.07 362.13C351.37 360.13 344.41 363.47 341.49 368.47C338.27 373.97 339.55 380.59 343.64 385.2C350.5 392.809 358.307 399.507 366.87 405.13C371.407 408.286 376.166 411.11 381.11 413.58C377.243 415.493 373.749 418.08 370.79 421.22Z" fill="#D7DCE0"/>
</g>
<g style="mix-blend-mode:multiply">
<path d="M461.22 369.93C460.45 371.62 460.22 374.22 461.94 375.54C467.78 380.09 476.52 377.64 483.24 376.2C490.33 374.68 499.75 372.94 505.94 369C514.09 363.83 511.05 354.19 504.23 349.71C498.39 345.87 490.97 344.47 484.54 341.84C479.73 339.84 473.81 343.58 472.05 347.97C471.099 350.243 470.969 352.776 471.68 355.135C472.392 357.494 473.901 359.532 475.95 360.9C470.64 362.85 463.52 364.93 461.22 369.93Z" fill="#D7DCE0"/>
</g>
<g style="mix-blend-mode:multiply">
<path d="M643.79 324.77C635.79 329.1 627.71 333.28 619.79 337.77C611.87 342.26 603.79 346.46 596.12 351.3C592.288 353.671 588.653 356.347 585.25 359.3C582.49 361.74 579.32 363.99 578.58 367.8C578.42 368.423 578.465 369.082 578.708 369.678C578.951 370.274 579.38 370.776 579.93 371.11C584.71 373.32 590.79 371.33 595.64 369.89C602.2 367.89 608.47 364.68 614.64 361.75C626.69 356 638.64 350.06 650.41 343.83C656.163 340.803 661.907 337.757 667.64 334.69C672.77 331.95 679.3 329.32 682.47 324.11C690.35 311.11 673.67 292.67 660.23 293.48C652.16 293.97 644.02 303.66 649.89 311.48C651.725 313.975 654.019 316.096 656.65 317.73L643.79 324.77Z" fill="#D7DCE0"/>
</g>
<g style="mix-blend-mode:multiply">
<path d="M566.43 312.4C573.129 311.72 579.781 310.638 586.35 309.16C594.71 307.11 601.84 304.16 605.1 295.62C606.53 291.92 604.91 286.69 602.1 284.09C591.99 274.9 576.39 282.09 564.51 283.69C554.854 285.025 545.038 284.652 535.51 282.59C525.51 280.43 515.51 277.75 505.78 274.76C496.51 271.92 486.25 267.58 476.51 268.38C475.841 268.394 475.183 268.559 474.587 268.862C473.99 269.166 473.47 269.6 473.064 270.132C472.659 270.665 472.379 271.282 472.245 271.938C472.111 272.594 472.126 273.271 472.29 273.92C474.37 284.55 485.41 292.12 494.7 296.58C505.63 301.84 517.17 306.92 528.89 310.12C541.143 313.272 553.886 314.046 566.43 312.4Z" fill="#D7DCE0"/>
</g>
<g style="mix-blend-mode:multiply">
<path d="M381.79 281.93C377.02 284.88 372.15 287.65 367.59 290.93C365.034 292.69 362.577 294.589 360.23 296.62C357.93 298.62 356.55 301.02 354.64 303.34C354.26 303.748 354.003 304.256 353.902 304.804C353.801 305.352 353.859 305.918 354.07 306.435C354.28 306.951 354.634 307.396 355.089 307.718C355.545 308.04 356.083 308.224 356.64 308.25C362.58 308.72 367.48 308.72 373.34 306.99C379.154 305.138 384.834 302.889 390.34 300.26C401.46 295.287 412.5 290.143 423.46 284.83C434.39 279.54 445.02 273.64 455.73 267.92C461.23 264.99 466.73 262.07 472.19 259.04C478.62 255.48 485.7 252.66 489.79 246.3C494.79 238.55 488.23 228.23 479.43 228.24C472.25 228.24 466.06 232.76 459.91 236.08C454.71 238.87 449.56 241.75 444.4 244.64C433.54 250.72 422.52 256.64 411.9 263.1C401.79 269.22 391.88 275.67 381.79 281.93Z" fill="#D7DCE0"/>
</g>
<path d="M175.79 151.41C177.87 152.61 177.87 154.57 175.79 155.77C174.616 156.362 173.319 156.67 172.005 156.67C170.69 156.67 169.394 156.362 168.22 155.77C166.14 154.57 166.14 152.61 168.22 151.41C169.392 150.812 170.689 150.5 172.005 150.5C173.321 150.5 174.618 150.812 175.79 151.41Z" fill="white"/>
<path d="M141.79 139.22C144.739 139.22 147.13 137.841 147.13 136.14C147.13 134.439 144.739 133.06 141.79 133.06C138.841 133.06 136.45 134.439 136.45 136.14C136.45 137.841 138.841 139.22 141.79 139.22Z" fill="white"/>
<path d="M141.79 174.11C144.739 174.11 147.13 172.731 147.13 171.03C147.13 169.329 144.739 167.95 141.79 167.95C138.841 167.95 136.45 169.329 136.45 171.03C136.45 172.731 138.841 174.11 141.79 174.11Z" fill="white"/>
<path d="M115.35 116.52C117.44 117.72 117.44 119.68 115.35 120.88C114.18 121.471 112.887 121.78 111.575 121.78C110.264 121.78 108.97 121.471 107.8 120.88C105.71 119.68 105.71 117.72 107.8 116.52C108.969 115.924 110.263 115.613 111.575 115.613C112.888 115.613 114.181 115.924 115.35 116.52Z" fill="white"/>
<path d="M111.57 156.67C114.519 156.67 116.91 155.291 116.91 153.59C116.91 151.889 114.519 150.51 111.57 150.51C108.621 150.51 106.23 151.889 106.23 153.59C106.23 155.291 108.621 156.67 111.57 156.67Z" fill="white"/>
<path d="M111.57 191.56C114.519 191.56 116.91 190.181 116.91 188.48C116.91 186.779 114.519 185.4 111.57 185.4C108.621 185.4 106.23 186.779 106.23 188.48C106.23 190.181 108.621 191.56 111.57 191.56Z" fill="white"/>
<path d="M81.36 139.22C84.3092 139.22 86.7 137.841 86.7 136.14C86.7 134.439 84.3092 133.06 81.36 133.06C78.4108 133.06 76.02 134.439 76.02 136.14C76.02 137.841 78.4108 139.22 81.36 139.22Z" fill="white"/>
<path d="M81.36 174.11C84.3092 174.11 86.7 172.731 86.7 171.03C86.7 169.329 84.3092 167.95 81.36 167.95C78.4108 167.95 76.02 169.329 76.02 171.03C76.02 172.731 78.4108 174.11 81.36 174.11Z" fill="white"/>
<path d="M51.1501 156.67C54.0993 156.67 56.4901 155.291 56.4901 153.59C56.4901 151.889 54.0993 150.51 51.1501 150.51C48.2009 150.51 45.8101 151.889 45.8101 153.59C45.8101 155.291 48.2009 156.67 51.1501 156.67Z" fill="white"/>
<path d="M175.79 151.41C177.87 152.61 177.87 154.57 175.79 155.77C174.616 156.362 173.319 156.67 172.005 156.67C170.69 156.67 169.394 156.362 168.22 155.77C166.14 154.57 166.14 152.61 168.22 151.41C169.392 150.812 170.689 150.5 172.005 150.5C173.321 150.5 174.618 150.812 175.79 151.41Z" stroke="#3A3A3A" stroke-width="3" stroke-linecap="round" stroke-linejoin="round"/>
<path d="M141.79 174.11C144.739 174.11 147.13 172.731 147.13 171.03C147.13 169.329 144.739 167.95 141.79 167.95C138.841 167.95 136.45 169.329 136.45 171.03C136.45 172.731 138.841 174.11 141.79 174.11Z" stroke="#3A3A3A" stroke-width="3" stroke-linecap="round" stroke-linejoin="round"/>
<path d="M111.57 191.56C114.519 191.56 116.91 190.181 116.91 188.48C116.91 186.779 114.519 185.4 111.57 185.4C108.621 185.4 106.23 186.779 106.23 188.48C106.23 190.181 108.621 191.56 111.57 191.56Z" stroke="#3A3A3A" stroke-width="3" stroke-linecap="round" stroke-linejoin="round"/>
<path d="M141.79 139.22C144.739 139.22 147.13 137.841 147.13 136.14C147.13 134.439 144.739 133.06 141.79 133.06C138.841 133.06 136.45 134.439 136.45 136.14C136.45 137.841 138.841 139.22 141.79 139.22Z" stroke="#3A3A3A" stroke-width="3" stroke-linecap="round" stroke-linejoin="round"/>
<path d="M111.57 156.67C114.519 156.67 116.91 155.291 116.91 153.59C116.91 151.889 114.519 150.51 111.57 150.51C108.621 150.51 106.23 151.889 106.23 153.59C106.23 155.291 108.621 156.67 111.57 156.67Z" stroke="#3A3A3A" stroke-width="3" stroke-linecap="round" stroke-linejoin="round"/>
<path d="M81.36 174.11C84.3092 174.11 86.7 172.731 86.7 171.03C86.7 169.329 84.3092 167.95 81.36 167.95C78.4108 167.95 76.02 169.329 76.02 171.03C76.02 172.731 78.4108 174.11 81.36 174.11Z" stroke="#3A3A3A" stroke-width="3" stroke-linecap="round" stroke-linejoin="round"/>
<path d="M115.35 116.52C117.44 117.72 117.44 119.68 115.35 120.88C114.18 121.471 112.887 121.78 111.575 121.78C110.264 121.78 108.97 121.471 107.8 120.88C105.71 119.68 105.71 117.72 107.8 116.52C108.969 115.924 110.263 115.613 111.575 115.613C112.888 115.613 114.181 115.924 115.35 116.52Z" stroke="#3A3A3A" stroke-width="3" stroke-linecap="round" stroke-linejoin="round"/>
<path d="M81.36 139.22C84.3092 139.22 86.7 137.841 86.7 136.14C86.7 134.439 84.3092 133.06 81.36 133.06C78.4108 133.06 76.02 134.439 76.02 136.14C76.02 137.841 78.4108 139.22 81.36 139.22Z" stroke="#3A3A3A" stroke-width="3" stroke-linecap="round" stroke-linejoin="round"/>
<path d="M51.1501 156.67C54.0993 156.67 56.4901 155.291 56.4901 153.59C56.4901 151.889 54.0993 150.51 51.1501 150.51C48.2009 150.51 45.8101 151.889 45.8101 153.59C45.8101 155.291 48.2009 156.67 51.1501 156.67Z" stroke="#3A3A3A" stroke-width="3" stroke-linecap="round" stroke-linejoin="round"/>
<path d="M705.99 383.4V420.82C705.99 508.44 613.89 586.66 474.67 619.26L463.67 584.26C609.02 553.31 705.99 473.3 705.99 383.4Z" fill="#3A3A3A"/>
<path d="M614.35 383.4H705.99C705.99 473.3 608.99 553.31 463.7 584.29L477.43 628.05L335.13 571.05L433.79 488.93L447.05 531.2C548 505.7 614.35 447.93 614.35 383.4Z" fill="white"/>
<path d="M477.43 628.05V665.46L335.13 608.49V571.07L477.43 628.05Z" fill="#3A3A3A"/>
<path d="M474.67 619.26L463.67 584.26C608.99 553.26 705.96 473.26 705.96 383.37H614.32C614.32 447.9 547.97 505.67 446.99 531.13L433.79 488.93L335.16 571.11L477.46 628.11L474.67 619.26Z" stroke="#3A3A3A" stroke-width="3" stroke-linecap="round" stroke-linejoin="round"/>
<path d="M335.13 571.07V608.49L477.43 665.46V628.05" stroke="#3A3A3A" stroke-width="3" stroke-linecap="round" stroke-linejoin="round"/>
<path d="M705.99 383.4V420.82C705.99 508.44 613.89 586.66 474.67 619.26" stroke="#3A3A3A" stroke-width="3" stroke-linecap="round" stroke-linejoin="round"/>
<path d="M349 151.57V187.03L258.18 262.71V227.26L349 151.57Z" fill="#3A3A3A"/>
<path d="M349 151.57L258.17 227.26L245.96 188.33C152.96 211.78 91.8799 264.97 91.8799 324.39H7.47998C7.47998 243.77 92.16 171.78 220.21 141.73C223.643 140.93 227.11 140.153 230.61 139.4L217.96 99.11L349 151.57Z" fill="white"/>
<path d="M258.17 227.26V262.71L245.96 223.79C152.96 247.24 91.8799 300.43 91.8799 359.85V324.39C91.8799 264.97 152.97 211.78 245.96 188.33L258.17 227.26Z" fill="#3A3A3A"/>
<path d="M217.96 99.11L230.61 139.4C227.103 140.153 223.637 140.93 220.21 141.73L217.96 134.57V99.11Z" fill="white"/>
<path d="M91.88 324.39H7.47998V359.85H91.88V324.39Z" fill="#3A3A3A"/>
<path d="M217.96 99.11L230.61 139.4C227.103 140.153 223.637 140.93 220.21 141.73C92.21 171.81 7.47998 243.73 7.47998 324.39H91.8799C91.8799 264.97 152.97 211.78 245.96 188.33L258.17 227.26L349 151.57L217.96 99.11Z" stroke="#3A3A3A" stroke-width="3" stroke-linecap="round" stroke-linejoin="round"/>
<path d="M91.8801 324.39V359.85" stroke="#3A3A3A" stroke-width="3" stroke-linecap="round" stroke-linejoin="round"/>
<path d="M217.97 99.11V134.57L220.21 141.73" stroke="#3A3A3A" stroke-width="3" stroke-linecap="round" stroke-linejoin="round"/>
<path d="M258.18 227.26V262.71" stroke="#3A3A3A" stroke-width="3" stroke-linecap="round" stroke-linejoin="round"/>
<path d="M349 151.57V187.03L258.17 262.71L245.96 223.79C152.96 247.24 91.8799 300.43 91.8799 359.85H7.47998V324.39" stroke="#3A3A3A" stroke-width="3" stroke-linecap="round" stroke-linejoin="round"/>
<path d="M563.32 284.06C563.32 284.27 563.32 284.46 563.32 284.66C536.71 291.41 506.64 286.93 484.83 278.66C481.78 229.66 483.44 197.47 485.91 175.16C486.528 169.697 489.229 164.682 493.45 161.16C494.82 160.01 496.14 158.88 497.45 157.79C503.7 152.4 508.96 147.41 513.53 142.71C532.35 123.31 538.65 108.78 545.88 91.65C545.983 91.6976 546.083 91.7511 546.18 91.81C570.78 103.67 592.38 116.03 595.05 137.81C597.72 159.43 601.75 223.5 601.29 280.9C591.38 289.4 574.86 289.45 564.15 284.44C563.84 284.33 563.58 284.2 563.32 284.06ZM504.92 251.21C505.073 250.787 505.093 250.327 504.978 249.892C504.863 249.457 504.617 249.068 504.274 248.776C503.932 248.485 503.509 248.304 503.061 248.26C502.613 248.215 502.162 248.308 501.769 248.527C501.376 248.745 501.058 249.078 500.859 249.482C500.66 249.885 500.589 250.34 500.656 250.785C500.722 251.23 500.923 251.644 501.231 251.972C501.539 252.3 501.94 252.526 502.38 252.62C502.639 252.702 502.913 252.73 503.183 252.703C503.454 252.676 503.716 252.594 503.954 252.462C504.191 252.33 504.4 252.151 504.566 251.935C504.732 251.72 504.852 251.473 504.92 251.21ZM503.39 215.43C503.415 214.905 503.253 214.389 502.932 213.973C502.611 213.557 502.152 213.27 501.638 213.161C501.124 213.053 500.589 213.131 500.127 213.382C499.666 213.633 499.309 214.04 499.12 214.53C499.049 215.069 499.192 215.615 499.52 216.049C499.847 216.483 500.332 216.771 500.87 216.85C501.129 216.929 501.401 216.954 501.669 216.925C501.938 216.895 502.198 216.812 502.434 216.679C502.669 216.546 502.876 216.367 503.04 216.152C503.204 215.938 503.323 215.692 503.39 215.43Z" fill="white"/>
<path d="M564.11 284.45L563.31 284.66C563.31 284.46 563.31 284.27 563.31 284.06C563.58 284.2 563.84 284.33 564.11 284.45Z" fill="white"/>
<path d="M522.63 2.28002C529.41 2.87002 546.54 7 546.24 30.01C546.095 36.298 545.449 42.5644 544.31 48.75C543.487 47.5456 542.381 46.5618 541.089 45.8853C539.797 45.2087 538.358 44.8601 536.9 44.87C535.97 44.87 535 44.93 534.02 44.93C518.19 44.93 528.55 25.93 513.63 25.93C507.63 25.93 499.23 28.65 492.63 28.65C491.022 28.6838 489.419 28.4645 487.88 28C487.28 27.8071 486.703 27.5489 486.16 27.23C485.207 26.644 484.39 25.8622 483.763 24.9364C483.135 24.0106 482.711 22.962 482.52 21.86C482.52 21.54 482.52 21.22 482.52 20.86V20.17C482.44 19.0448 482.618 17.9163 483.04 16.87C492.53 -2.52999 516.2 1.72002 522.63 2.28002Z" fill="#3A3A3A"/>
<path d="M543.79 90.24C544.4 90.7799 545.071 91.2464 545.79 91.63C538.56 108.76 532.26 123.29 513.44 142.69V95.69C522.14 98.18 532.79 97.54 543.79 90.24Z" fill="#3A3A3A"/>
<path d="M544.31 48.7501C542.66 58.3501 540.55 68.0601 540.4 82.4701C540.383 83.9352 540.68 85.387 541.272 86.7274C541.863 88.0679 542.736 89.2657 543.83 90.2401C532.83 97.5401 522.16 98.1301 513.49 95.6601C512.61 95.4101 511.67 95.1001 510.83 94.7801C508.075 93.7316 505.47 92.3263 503.08 90.6001C514.08 84.0001 523.72 70.14 526.39 62.23C504.1 69.51 492.95 69.8201 486.87 65.6301C486.87 65.0601 486.74 52.7101 486.63 48.3101C486.45 41.6201 486.38 34.5201 487.87 27.9901C489.41 28.4545 491.013 28.6738 492.62 28.64C499.23 28.64 507.62 25.92 513.62 25.92C528.54 25.92 518.18 44.92 534.01 44.92C535.01 44.92 536.01 44.86 536.89 44.86C538.351 44.8496 539.793 45.199 541.087 45.8774C542.381 46.5558 543.488 47.5424 544.31 48.7501Z" fill="#D7DCE0"/>
<path d="M486.87 65.63C492.95 69.82 504.1 69.51 526.39 62.23C523.72 70.14 514.08 84 503.08 90.6C498.31 93.45 493.24 94.93 488.41 93.94L488.18 93.89C479.36 91.83 477.99 84.75 480.36 76.77C481.67 72.6018 483.587 68.6494 486.05 65.04C486.32 65.25 486.6 65.46 486.87 65.63Z" fill="#3A3A3A"/>
<path d="M513.49 95.66V142.66C508.92 147.36 503.66 152.35 497.41 157.74C493.45 150.629 490.626 142.943 489.04 134.96C496.51 120.91 506.24 103.11 510.83 94.75C511.7 95.0998 512.588 95.4036 513.49 95.66Z" fill="#FFC727"/>
<path d="M503.17 248.93C503.513 249.056 503.812 249.277 504.034 249.568C504.255 249.858 504.388 250.207 504.417 250.571C504.446 250.935 504.37 251.299 504.199 251.622C504.027 251.944 503.767 252.21 503.448 252.389C503.13 252.568 502.766 252.652 502.402 252.63C502.037 252.609 501.686 252.484 501.39 252.269C501.095 252.054 500.867 251.76 500.734 251.419C500.601 251.079 500.569 250.708 500.64 250.35C500.707 250.087 500.826 249.84 500.991 249.625C501.156 249.409 501.363 249.229 501.6 249.097C501.837 248.964 502.098 248.88 502.367 248.852C502.637 248.823 502.91 248.85 503.17 248.93Z" fill="white"/>
<path d="M503.08 90.6C505.467 92.3299 508.073 93.7355 510.83 94.78C506.24 103.14 496.51 120.94 489.04 134.99C485.81 119.42 486.95 104.44 488.18 93.89L488.41 93.94C493.24 94.93 498.31 93.45 503.08 90.6Z" fill="#3A3A3A"/>
<path d="M501.64 213.14C501.907 213.171 502.166 213.255 502.4 213.387C502.634 213.52 502.839 213.699 503.002 213.913C503.166 214.127 503.284 214.371 503.35 214.632C503.417 214.893 503.431 215.164 503.39 215.43C503.323 215.692 503.204 215.938 503.04 216.152C502.876 216.367 502.669 216.546 502.434 216.679C502.198 216.812 501.938 216.895 501.669 216.925C501.401 216.954 501.129 216.929 500.87 216.85C500.332 216.771 499.847 216.483 499.519 216.049C499.192 215.615 499.049 215.069 499.12 214.53C499.19 214.271 499.312 214.028 499.477 213.817C499.643 213.605 499.85 213.43 500.085 213.3C500.32 213.17 500.579 213.089 500.846 213.062C501.113 213.034 501.383 213.061 501.64 213.14Z" fill="white"/>
<path d="M460.44 244.79C435.95 262.89 390.58 288.24 386.27 290.63C389.14 288.63 391.09 283.52 391.85 277.48C393.17 267.02 390.97 253.73 384.03 248.94C388.13 246.42 420.94 222.33 436.41 210.94C438.876 209.131 440.901 206.788 442.334 204.087C443.768 201.386 444.573 198.396 444.69 195.34C445.35 178.13 447.55 141.34 454.62 113.34C460.57 89.87 471.14 80.16 480.32 76.75C477.95 84.75 479.32 91.94 488.14 93.87C486.91 104.42 485.77 119.4 489 134.97C490.586 142.953 493.41 150.639 497.37 157.75C496.09 158.84 494.77 159.97 493.37 161.12C489.149 164.642 486.448 169.657 485.83 175.12C483.36 197.43 481.7 229.62 484.75 278.62C473.89 274.52 465.07 269.48 459.75 264.44C460.02 258.82 460.21 252.12 460.44 244.79Z" fill="white"/>
<path d="M486.86 63.9301C486.86 64.5301 486.86 65.1 486.86 65.67C486.59 65.5 486.31 65.29 486.04 65.08C486.32 64.65 486.6 64.2701 486.86 63.9301Z" fill="white"/>
<path d="M384.03 248.93C390.97 253.72 393.17 267.01 391.85 277.47C385.31 280.95 361.67 293.38 361.67 293.38C347.58 302.38 334.37 297.5 334.37 288.02C334.37 281.75 341.71 274.47 347.58 269.63C348.444 268.923 349.147 268.04 349.644 267.041C350.141 266.042 350.421 264.949 350.464 263.834C350.508 262.718 350.314 261.607 349.896 260.572C349.479 259.537 348.846 258.602 348.04 257.83L344.4 254.36C344.138 254.109 343.969 253.777 343.92 253.418C343.87 253.059 343.943 252.694 344.127 252.381C344.311 252.069 344.595 251.828 344.933 251.697C345.271 251.566 345.644 251.553 345.99 251.66C366.43 257.64 379.12 251.93 384.03 248.93Z" fill="#D7DCE0"/>
<path d="M391.85 277.48C391.09 283.48 389.09 288.57 386.27 290.63C386.179 290.695 386.082 290.752 385.98 290.8C385.549 291.075 385.076 291.278 384.58 291.4C380.58 292.32 377.3 289.9 374.76 286.52C379.48 284.03 385.31 280.93 391.85 277.48Z" fill="white"/>
<path d="M487.87 27.99C486.38 34.52 486.45 41.62 486.63 48.31C486.74 52.71 486.87 65.65 486.87 65.65" stroke="#3A3A3A" stroke-width="3" stroke-linecap="round" stroke-linejoin="round"/>
<path d="M561.85 167.73C563.45 196.21 563.58 245.36 563.32 284.06C563.32 284.27 563.32 284.46 563.32 284.66" stroke="#3A3A3A" stroke-width="3" stroke-linecap="round" stroke-linejoin="round"/>
<path d="M563.31 284.06C563.57 284.2 563.83 284.33 564.1 284.45C574.81 289.45 591.33 289.45 601.24 280.91C601.7 223.51 597.67 159.44 595 137.82C592.33 116.01 570.73 103.65 546.13 91.8201C546.033 91.7611 545.933 91.7077 545.83 91.66C545.113 91.273 544.443 90.8067 543.83 90.27C542.733 89.2978 541.859 88.1004 541.267 86.7594C540.675 85.4185 540.379 83.9657 540.4 82.5C540.55 68.09 542.67 58.38 544.31 48.78C545.454 42.5951 546.1 36.3283 546.24 30.04C546.54 7.04003 529.41 2.90004 522.63 2.31004C516.2 1.75004 492.53 -2.49996 483.06 16.9C482.638 17.9463 482.461 19.0748 482.54 20.2V20.89C482.54 21.24 482.54 21.56 482.54 21.89C482.731 22.992 483.155 24.0406 483.783 24.9664C484.41 25.8923 485.227 26.6741 486.18 27.26C486.723 27.5789 487.3 27.8372 487.9 28.03C489.439 28.4945 491.042 28.7138 492.65 28.68C499.26 28.68 507.65 25.96 513.65 25.96C528.57 25.96 518.21 44.96 534.04 44.96C535.04 44.96 536.04 44.9 536.92 44.9C538.378 44.8901 539.817 45.2387 541.109 45.9153C542.401 46.5919 543.507 47.5756 544.33 48.78" stroke="#3A3A3A" stroke-width="3" stroke-linecap="round" stroke-linejoin="round"/>
<path d="M486.05 65.04C486.32 65.25 486.6 65.46 486.87 65.63C492.95 69.82 504.1 69.51 526.39 62.23C523.72 70.14 514.09 84.02 503.08 90.6C498.31 93.45 493.24 94.93 488.41 93.94L488.18 93.89C479.36 91.83 478.01 84.76 480.36 76.77C481.664 72.5991 483.581 68.6457 486.05 65.04ZM486.05 65.04C486.32 64.65 486.6 64.27 486.86 63.89" stroke="#3A3A3A" stroke-width="3" stroke-linecap="round" stroke-linejoin="round"/>
<path d="M480.36 76.77C471.18 80.18 460.61 89.89 454.66 113.36C447.59 141.36 445.39 178.12 444.73 195.36C444.613 198.416 443.808 201.406 442.375 204.107C440.941 206.808 438.916 209.151 436.45 210.96C420.98 222.34 388.17 246.43 384.07 248.96C379.16 251.96 366.47 257.66 346.07 251.69C345.723 251.583 345.351 251.596 345.013 251.727C344.675 251.858 344.391 252.099 344.208 252.411C344.024 252.724 343.95 253.089 344 253.448C344.049 253.807 344.218 254.139 344.48 254.39L348.12 257.86C348.926 258.632 349.559 259.567 349.977 260.602C350.394 261.637 350.588 262.748 350.544 263.863C350.501 264.979 350.221 266.072 349.724 267.071C349.227 268.07 348.524 268.953 347.66 269.66C341.79 274.5 334.45 281.78 334.45 288.05C334.45 297.53 347.66 302.39 361.75 293.41C361.75 293.41 385.39 280.98 391.93 277.5" stroke="#3A3A3A" stroke-width="3" stroke-linecap="round" stroke-linejoin="round"/>
<path d="M385.94 290.82C385.509 291.095 385.036 291.298 384.54 291.42C380.54 292.34 377.26 289.92 374.72 286.54" stroke="#3A3A3A" stroke-width="3" stroke-linecap="round" stroke-linejoin="round"/>
<path d="M384.03 248.93C390.97 253.72 393.16 267.01 391.85 277.47C391.08 283.47 389.14 288.64 386.27 290.62" stroke="#3A3A3A" stroke-width="3" stroke-linecap="round" stroke-linejoin="round"/>
<path d="M385.94 290.82C386.041 290.772 386.139 290.715 386.23 290.65C390.54 288.26 435.91 262.91 460.4 244.81" stroke="#3A3A3A" stroke-width="3" stroke-linecap="round" stroke-linejoin="round"/>
<path d="M488.18 93.9301C486.95 104.48 485.82 119.46 489.04 135.03C490.628 143.013 493.452 150.699 497.41 157.81" stroke="#3A3A3A" stroke-width="3" stroke-linecap="round" stroke-linejoin="round"/>
<path d="M545.84 91.63C538.61 108.76 532.31 123.28 513.49 142.69C508.92 147.39 503.66 152.38 497.41 157.77C496.13 158.86 494.81 159.99 493.41 161.14C489.189 164.662 486.488 169.677 485.87 175.14C483.4 197.45 481.74 229.64 484.79 278.64" stroke="#3A3A3A" stroke-width="3" stroke-linecap="round" stroke-linejoin="round"/>
<path d="M564.11 284.45L563.31 284.66C536.75 291.6 506.63 286.92 484.82 278.66C473.96 274.56 465.14 269.52 459.82 264.48C460.01 258.8 460.2 252.1 460.43 244.77C461.68 204.27 463.76 144.41 466.72 130.08" stroke="#3A3A3A" stroke-width="3" stroke-linecap="round" stroke-linejoin="round"/>
<path d="M503.08 90.6C505.47 92.3262 508.075 93.7315 510.83 94.78C511.67 95.1 512.61 95.41 513.49 95.66C522.16 98.13 532.81 97.54 543.83 90.24" stroke="#3A3A3A" stroke-width="3" stroke-linecap="round" stroke-linejoin="round"/>
<path d="M489.04 134.99C496.51 120.94 506.24 103.14 510.83 94.78" stroke="#3A3A3A" stroke-width="3" stroke-linecap="round" stroke-linejoin="round"/>
<path d="M513.49 95.66V142.69" stroke="#3A3A3A" stroke-width="3" stroke-linecap="round" stroke-linejoin="round"/>
<path d="M503.39 215.43C503.323 215.692 503.204 215.938 503.04 216.152C502.876 216.367 502.669 216.546 502.434 216.679C502.198 216.812 501.938 216.895 501.669 216.925C501.401 216.954 501.129 216.929 500.87 216.85C500.332 216.771 499.847 216.483 499.519 216.049C499.192 215.615 499.049 215.069 499.12 214.53C499.309 214.04 499.666 213.633 500.127 213.382C500.589 213.131 501.124 213.053 501.638 213.161C502.152 213.269 502.611 213.557 502.932 213.973C503.253 214.389 503.415 214.905 503.39 215.43Z" stroke="#3A3A3A" stroke-width="3" stroke-linecap="round" stroke-linejoin="round"/>
<path d="M504.92 251.21C504.894 251.661 504.731 252.092 504.452 252.447C504.173 252.802 503.793 253.063 503.361 253.195C502.93 253.328 502.468 253.325 502.038 253.187C501.609 253.049 501.231 252.783 500.957 252.424C500.683 252.066 500.526 251.632 500.506 251.181C500.485 250.73 500.604 250.284 500.844 249.903C501.085 249.521 501.438 249.222 501.853 249.047C502.269 248.871 502.728 248.827 503.17 248.92C503.704 248.995 504.188 249.277 504.515 249.706C504.843 250.134 504.988 250.675 504.92 251.21Z" stroke="#3A3A3A" stroke-width="3" stroke-linecap="round" stroke-linejoin="round"/>
<path d="M274.56 307.63L255.7 356.24L374.08 424.58L392.94 375.98L274.56 307.63Z" fill="#EBEDEF"/>
<path d="M392.94 375.98L374.08 424.58L411.79 402.81L392.94 375.98Z" fill="#3A3A3A"/>
<path d="M374.08 424.58L411.79 402.81L392.94 375.98L374.08 424.58Z" stroke="#3A3A3A" stroke-width="3" stroke-linecap="round" stroke-linejoin="round"/>
<path d="M392.94 375.98L274.56 307.63L255.7 356.24L374.08 424.58" stroke="#3A3A3A" stroke-width="3" stroke-linecap="round" stroke-linejoin="round"/>
<path d="M282.05 409.1L337.04 335.67" stroke="#3A3A3A" stroke-width="3" stroke-linecap="round" stroke-linejoin="round"/>
<path d="M305.75 422.78L360.74 349.35" stroke="#3A3A3A" stroke-width="3" stroke-linecap="round" stroke-linejoin="round"/>
<path d="M292.28 395.44L315.8 409.36" stroke="#3A3A3A" stroke-width="3" stroke-linecap="round" stroke-linejoin="round"/>
<path d="M304.49 379.14L328.01 393.06" stroke="#3A3A3A" stroke-width="3" stroke-linecap="round" stroke-linejoin="round"/>
<path d="M316.69 362.84L340.22 376.76" stroke="#3A3A3A" stroke-width="3" stroke-linecap="round" stroke-linejoin="round"/>
<path d="M328.9 346.55L352.42 360.46" stroke="#3A3A3A" stroke-width="3" stroke-linecap="round" stroke-linejoin="round"/>
<path d="M568 475.41C566.39 474.41 564.78 473.52 563.19 472.56C555.65 468 548.63 463.1 544.24 456.56C546.225 456.188 548.228 455.921 550.24 455.76C555.35 455.32 562.77 455.29 568.55 457.76C569.86 458.299 571.096 459.001 572.23 459.85C582.29 467.51 586.43 476.48 590.23 491.36C584.51 484.93 576.22 480.21 568 475.41Z" fill="white"/>
<path d="M568.57 457.69C562.79 455.26 555.37 455.29 550.26 455.69C550.653 451.981 551.544 448.341 552.91 444.87C555.173 445.633 557.357 446.614 559.43 447.8C564.27 450.64 567.32 454.08 568.57 457.69Z" fill="#3A3A3A"/>
<path d="M568 475.41C566.73 488.68 565.37 500.32 563.33 511.41C562.14 514.21 559.65 516.87 555.85 519.06C544.79 525.45 526.85 525.45 515.85 519.06C511.33 516.46 508.66 513.2 507.85 509.81L507.68 508.9C507.68 508.9 507.68 508.83 507.68 508.79V508.71C507.68 508.71 507.68 508.71 507.68 508.64C504.91 493.91 504.11 480.54 502.57 462.99C503.14 467.45 506.37 471.82 512.28 475.21C512.69 475.45 513.11 475.68 513.54 475.91C513.92 483.74 516.25 494.11 519.12 504.11C521.34 494.34 523.92 486.8 527.25 480.21C538.41 481.93 550.81 480.27 559.56 475.21C560.883 474.456 562.14 473.593 563.32 472.63C564.79 473.52 566.39 474.46 568 475.41Z" fill="#FFC727"/>
<path d="M563.33 511.44C562.97 513.44 562.583 515.403 562.17 517.33C561.72 520.84 559.17 524.33 554.49 527C544.16 533 527.41 533 517.08 527C512.41 524.3 509.85 520.84 509.4 517.33C508.8 514.77 508.26 512.33 507.8 509.84C508.62 513.23 511.29 516.49 515.8 519.09C526.8 525.48 544.8 525.48 555.8 519.09C559.65 516.93 562.14 514.24 563.33 511.44Z" fill="#3A3A3A"/>
<path d="M544.24 456.53C548.63 463.1 555.65 468 563.19 472.53C562.01 473.493 560.753 474.356 559.43 475.11C550.68 480.17 538.28 481.83 527.12 480.11C531.38 471.72 536.89 464.89 544.5 457L544.2 456.52L544.24 456.53Z" fill="#3A3A3A"/>
<path d="M544.24 456.53C543.346 455.064 542.174 453.787 540.79 452.77C541.61 453 542.44 453.2 543.28 453.35C543.802 448.109 543.33 442.816 541.89 437.75C547.35 429.3 554.98 424.49 567.29 421.59C561.19 427.37 555.95 436.74 552.95 444.89C551.584 448.361 550.692 452.001 550.3 455.71C548.267 455.875 546.244 456.149 544.24 456.53Z" fill="white"/>
<path d="M541.85 437.77C543.29 442.836 543.762 448.129 543.24 453.37C542.4 453.22 541.57 453.02 540.75 452.79C539.357 451.777 537.723 451.146 536.01 450.96C531.343 448.542 527.147 445.308 523.62 441.41C511.49 428.54 503.04 409.19 496.23 401.35C513.04 409.14 535.79 417.1 541.85 437.77Z" fill="white"/>
<path d="M540.79 452.79C539.16 452.32 537.573 451.707 536.05 450.96C537.762 451.146 539.397 451.777 540.79 452.79Z" fill="white"/>
<path d="M540.79 452.79C542.176 453.804 543.349 455.082 544.24 456.55C544.34 456.703 544.44 456.863 544.54 457.03C536.93 464.92 531.42 471.75 527.16 480.14C523.83 486.73 521.25 494.27 519.03 504.04C516.16 494.04 513.83 483.67 513.45 475.84C513.194 472.878 513.472 469.894 514.27 467.03C515.322 464.315 516.879 461.824 518.86 459.69C523.35 454.63 530.07 450.27 536.05 450.96C537.573 451.708 539.159 452.32 540.79 452.79Z" fill="white"/>
<path d="M536.01 450.93C530.01 450.24 523.31 454.6 518.82 459.66C515.981 460.449 513.063 460.915 510.12 461.05C507.524 461.128 504.931 460.811 502.43 460.11C491.73 457.26 482.71 448.92 482.71 448.92C491.38 449.98 509.95 438.78 523.62 441.38C527.147 445.278 531.343 448.512 536.01 450.93Z" fill="white"/>
<path d="M512.15 475.14C506.24 471.75 503.01 467.38 502.44 462.92C502.33 461.997 502.33 461.063 502.44 460.14C504.941 460.841 507.534 461.158 510.13 461.08C513.073 460.945 515.991 460.478 518.83 459.69C516.849 461.824 515.292 464.315 514.24 467.03C513.442 469.894 513.164 472.878 513.42 475.84C512.98 475.61 512.56 475.38 512.15 475.14Z" fill="#3A3A3A"/>
<path d="M507.61 508.93L507.78 509.84C507.707 509.54 507.65 509.236 507.61 508.93Z" fill="white"/>
<path d="M568.57 457.69C567.32 454.08 564.27 450.69 559.43 447.84C557.357 446.654 555.173 445.673 552.91 444.91" stroke="#3A3A3A" stroke-width="3" stroke-linecap="round" stroke-linejoin="round"/>
<path d="M502.43 460.14C502.315 461.063 502.315 461.997 502.43 462.92C503 467.38 506.23 471.75 512.14 475.14C512.55 475.38 512.97 475.61 513.4 475.84" stroke="#3A3A3A" stroke-width="3" stroke-linecap="round" stroke-linejoin="round"/>
<path d="M527.12 480.14C538.28 481.86 550.68 480.2 559.43 475.14C560.753 474.386 562.01 473.523 563.19 472.56" stroke="#3A3A3A" stroke-width="3" stroke-linecap="round" stroke-linejoin="round"/>
<path d="M563.33 511.44C565.33 500.32 566.73 488.68 568 475.44" stroke="#3A3A3A" stroke-width="3" stroke-linecap="round" stroke-linejoin="round"/>
<path d="M507.79 509.84C508.25 512.28 508.79 514.77 509.39 517.33C509.84 520.84 512.39 524.33 517.07 527C527.4 533 544.15 533 554.48 527C559.15 524.3 561.71 520.84 562.16 517.33C562.567 515.37 562.953 513.407 563.32 511.44" stroke="#3A3A3A" stroke-width="3" stroke-linecap="round" stroke-linejoin="round"/>
<path d="M507.61 508.89L507.78 509.8" stroke="#3A3A3A" stroke-width="3" stroke-linecap="round" stroke-linejoin="round"/>
<path d="M507.57 508.67V508.86" stroke="#3A3A3A" stroke-width="3" stroke-linecap="round" stroke-linejoin="round"/>
<path d="M502.44 462.93C503.98 480.48 504.78 493.85 507.55 508.58" stroke="#3A3A3A" stroke-width="3" stroke-linecap="round" stroke-linejoin="round"/>
<path d="M507.55 508.57C507.55 508.57 507.55 508.62 507.55 508.64V508.72C507.55 508.72 507.55 508.79 507.55 508.83C507.59 509.136 507.647 509.44 507.72 509.74C508.54 513.13 511.21 516.39 515.72 518.99C526.72 525.38 544.72 525.38 555.72 518.99C559.52 516.8 562.01 514.14 563.2 511.34" stroke="#3A3A3A" stroke-width="3" stroke-linecap="round" stroke-linejoin="round"/>
<path d="M544.24 456.53C548.63 463.1 555.64 468.02 563.19 472.53C564.78 473.53 566.39 474.43 568 475.38C576.21 480.19 584.51 484.92 590.26 491.26C586.45 476.38 582.31 467.41 572.26 459.75C571.129 458.897 569.892 458.195 568.58 457.66C562.8 455.23 555.38 455.27 550.27 455.66C548.246 455.843 546.233 456.133 544.24 456.53Z" stroke="#3A3A3A" stroke-width="3" stroke-linecap="round" stroke-linejoin="round"/>
<path d="M544.2 456.55C544.3 456.703 544.4 456.863 544.5 457.03C536.89 464.92 531.38 471.75 527.12 480.14C523.79 486.72 521.21 494.27 518.99 504.04C516.12 494.04 513.79 483.67 513.41 475.84C513.154 472.878 513.432 469.894 514.23 467.03C515.282 464.315 516.839 461.824 518.82 459.69C523.31 454.63 530.03 450.27 536.01 450.96C537.721 451.152 539.354 451.782 540.75 452.79C542.136 453.804 543.309 455.082 544.2 456.55Z" stroke="#3A3A3A" stroke-width="3" stroke-linecap="round" stroke-linejoin="round"/>
<path d="M550.25 455.87C550.245 455.823 550.245 455.776 550.25 455.73C550.671 452.026 551.562 448.39 552.9 444.91C555.9 436.76 561.14 427.39 567.24 421.61C554.93 424.51 547.3 429.32 541.84 437.77" stroke="#3A3A3A" stroke-width="3" stroke-linecap="round" stroke-linejoin="round"/>
<path d="M540.79 452.79C541.61 453.02 542.44 453.22 543.28 453.37C543.802 448.129 543.33 442.836 541.89 437.77C535.76 417.1 513.08 409.14 496.27 401.35C503.08 409.19 511.53 428.54 523.66 441.41C527.19 445.304 531.385 448.538 536.05 450.96C537.571 451.712 539.158 452.324 540.79 452.79Z" stroke="#3A3A3A" stroke-width="3" stroke-linecap="round" stroke-linejoin="round"/>
<path d="M523.62 441.41C509.95 438.81 491.38 450.01 482.71 448.95C482.71 448.95 491.71 457.26 502.43 460.14C504.931 460.841 507.524 461.158 510.12 461.08C513.063 460.945 515.981 460.479 518.82 459.69" stroke="#3A3A3A" stroke-width="3" stroke-linecap="round" stroke-linejoin="round"/>
<path d="M458.78 322.22L443.5 361.61L462.73 372.71L478.02 333.33L458.78 322.22Z" fill="white"/>
<path d="M478.02 333.33L462.73 372.71L493.3 355.07L478.02 333.33Z" fill="#3A3A3A"/>
<path d="M462.73 372.71L493.3 355.07L478.02 333.33L462.73 372.71Z" stroke="#3A3A3A" stroke-width="3" stroke-linecap="round" stroke-linejoin="round"/>
<path d="M478.02 333.33L458.78 322.22L443.5 361.61L462.73 372.71" stroke="#3A3A3A" stroke-width="3" stroke-linecap="round" stroke-linejoin="round"/>
<path d="M409.79 158.69C411.734 158.69 413.635 159.267 415.251 160.347C416.868 161.427 418.128 162.962 418.872 164.758C419.616 166.554 419.81 168.531 419.431 170.438C419.052 172.345 418.115 174.096 416.741 175.471C415.366 176.846 413.615 177.782 411.708 178.161C409.801 178.54 407.825 178.346 406.028 177.602C404.232 176.858 402.697 175.598 401.617 173.981C400.537 172.365 399.96 170.464 399.96 168.52C399.96 165.913 400.996 163.413 402.839 161.569C404.683 159.726 407.183 158.69 409.79 158.69Z" fill="white"/>
<path d="M419.64 168.52C419.642 166.575 419.067 164.674 417.988 163.056C416.909 161.438 415.375 160.177 413.579 159.431C411.783 158.686 409.806 158.49 407.898 158.868C405.991 159.246 404.239 160.181 402.863 161.556C401.487 162.93 400.55 164.682 400.169 166.589C399.789 168.496 399.984 170.473 400.728 172.27C401.471 174.066 402.731 175.602 404.348 176.683C405.964 177.763 407.866 178.34 409.81 178.34C412.415 178.34 414.914 177.306 416.757 175.464C418.601 173.623 419.638 171.125 419.64 168.52Z" stroke="#3A3A3A" stroke-width="3" stroke-linecap="round" stroke-linejoin="round"/>
<path d="M558.79 269.17C555.37 271.17 553.08 279.29 551.56 291.08C550.44 299.75 549.73 310.4 549.29 321.97C548.92 331.13 548.73 340.87 548.63 350.68C549.34 350.76 550.07 350.85 550.79 350.98C553.417 351.467 555.976 352.269 558.41 353.37C565.04 356.37 571.78 361.51 578.09 368.37C578.56 356.91 578.81 341.15 577.99 325.52C576.77 300.2 572.78 275.2 562.5 269.33C561.953 268.972 561.32 268.768 560.667 268.74C560.014 268.712 559.366 268.86 558.79 269.17Z" fill="#3A3A3A"/>
<path d="M577.97 325.54C578.79 341.17 578.54 356.93 578.07 368.39L665.73 318.83C666.14 307.15 666.37 291.47 665.65 275.99L632.2 294.93L632.5 296.58C632.97 298.634 632.61 300.79 631.5 302.58C630.998 303.357 630.337 304.019 629.56 304.52L622.99 308.23C621.18 309.23 619.73 308.14 619.75 305.74L619.1 302.4L577.97 325.54Z" fill="#EBEDEF"/>
<path d="M620.53 234.2L558.75 269.2C559.327 268.893 559.977 268.748 560.63 268.779C561.283 268.811 561.915 269.019 562.46 269.38C572.74 275.25 576.73 300.25 577.95 325.57L619.04 302.37L618.04 297.24L631.16 289.81L632.16 294.94L665.57 276.02C664.35 250.37 660.5 225.27 650.52 219.56C649.969 219.201 649.332 218.995 648.674 218.964C648.017 218.932 647.364 219.076 646.78 219.38L620.53 234.2Z" fill="white"/>
<path d="M618.09 297.21L619.71 305.68C619.71 308.08 621.14 309.21 622.95 308.17L629.52 304.46C630.297 303.959 630.958 303.297 631.46 302.52C632.57 300.73 632.93 298.574 632.46 296.52L631.17 289.74L618.09 297.21Z" fill="#FFC727"/>
<path d="M620.63 230.93C620.372 230.742 620.168 230.49 620.038 230.199C619.908 229.908 619.857 229.587 619.89 229.27C619.89 226.73 618.17 225.63 616.01 226.72C616.01 226.83 616.01 226.93 616.01 227.03C615.975 227.35 616.026 227.673 616.158 227.967C616.29 228.26 616.498 228.513 616.76 228.7L620.63 230.93Z" fill="white"/>
<path d="M619.89 229.31C619.823 229.632 619.859 229.967 619.993 230.267C620.128 230.568 620.353 230.818 620.638 230.982C620.923 231.146 621.253 231.216 621.581 231.181C621.908 231.147 622.215 231.01 622.46 230.79C623.212 230.301 623.838 229.641 624.286 228.864C624.735 228.087 624.993 227.216 625.04 226.32C625.04 223.32 624.04 221.32 622.31 220.32L618.45 218.09C616.76 217.09 614.45 217.25 611.87 218.74L598.39 226.52C593.26 229.52 589.09 236.7 589.09 242.63C589.056 242.951 589.109 243.275 589.243 243.568C589.376 243.862 589.586 244.115 589.85 244.3L593.6 246.47C593.898 246.641 594.24 246.72 594.583 246.699C594.926 246.677 595.255 246.556 595.53 246.35C596.282 245.86 596.907 245.2 597.355 244.424C597.803 243.647 598.062 242.775 598.11 241.88C598.19 240.443 598.607 239.044 599.326 237.797C600.045 236.55 601.046 235.489 602.25 234.7C602.25 234.7 615.92 226.81 616.01 226.77C618.19 225.73 619.89 226.77 619.89 229.31Z" fill="#3A3A3A"/>
<path d="M558.79 269.17C555.35 271.1 553.08 279.29 551.56 291.08C550.44 299.75 549.73 310.4 549.29 321.97C548.92 331.13 548.73 340.87 548.63 350.68C549.34 350.76 550.07 350.85 550.79 350.98C553.417 351.467 555.976 352.269 558.41 353.37C565.04 356.37 571.78 361.51 578.09 368.37C578.56 356.91 578.78 341.15 577.99 325.52C576.72 300.2 572.78 275.2 562.5 269.33C561.954 268.97 561.32 268.765 560.667 268.736C560.014 268.708 559.365 268.858 558.79 269.17Z" stroke="#3A3A3A" stroke-width="3" stroke-linecap="round" stroke-linejoin="round"/>
<path d="M578.05 368.39L665.71 318.83C666.12 307.15 666.35 291.47 665.63 275.99C664.42 250.34 660.56 225.24 650.58 219.53C650.029 219.171 649.392 218.965 648.734 218.934C648.077 218.902 647.423 219.046 646.84 219.35L558.79 269.17" stroke="#3A3A3A" stroke-width="3" stroke-linecap="round" stroke-linejoin="round"/>
<path d="M665.61 275.99L632.2 294.9" stroke="#3A3A3A" stroke-width="3" stroke-linecap="round" stroke-linejoin="round"/>
<path d="M619.06 302.34L577.98 325.54" stroke="#3A3A3A" stroke-width="3" stroke-linecap="round" stroke-linejoin="round"/>
<path d="M619.06 302.34L619.71 305.68C619.71 308.08 621.14 309.21 622.95 308.17L629.52 304.46C630.297 303.959 630.958 303.297 631.46 302.52C632.57 300.73 632.93 298.574 632.46 296.52L631.17 289.74L618.05 297.17L619.06 302.34Z" stroke="#3A3A3A" stroke-width="3" stroke-linecap="round" stroke-linejoin="round"/>
<path d="M620.53 238.57V230.91" stroke="#3A3A3A" stroke-width="3" stroke-linecap="round" stroke-linejoin="round"/>
<path d="M620.63 230.93L616.77 228.7C616.508 228.513 616.3 228.26 616.168 227.967C616.036 227.673 615.985 227.35 616.02 227.03C616.02 226.93 616.02 226.83 616.02 226.72" stroke="#3A3A3A" stroke-width="3" stroke-linecap="round" stroke-linejoin="round"/>
<path d="M593.6 254.12V246.46C593.898 246.631 594.24 246.71 594.583 246.689C594.926 246.667 595.255 246.546 595.53 246.34C596.282 245.85 596.907 245.19 597.355 244.414C597.803 243.637 598.062 242.765 598.11 241.87C598.19 240.433 598.607 239.034 599.326 237.787C600.045 236.54 601.046 235.479 602.25 234.69C602.25 234.69 615.92 226.8 616.01 226.76C618.19 225.76 619.89 226.76 619.89 229.31C619.823 229.632 619.859 229.967 619.993 230.267C620.128 230.568 620.353 230.818 620.638 230.982C620.923 231.146 621.253 231.216 621.581 231.181C621.908 231.147 622.215 231.01 622.46 230.79C623.212 230.301 623.838 229.641 624.286 228.864C624.735 228.087 624.993 227.216 625.04 226.32C625.04 223.32 624.04 221.32 622.31 220.32L618.45 218.09C616.76 217.09 614.45 217.25 611.87 218.74L598.39 226.52C593.26 229.52 589.09 236.7 589.09 242.63C589.056 242.951 589.109 243.275 589.243 243.568C589.376 243.862 589.586 244.115 589.85 244.3L593.71 246.53" stroke="#3A3A3A" stroke-width="3" stroke-linecap="round" stroke-linejoin="round"/>
<path d="M361.21 478.7C361.526 479.443 361.685 480.243 361.677 481.05C361.668 481.857 361.492 482.654 361.16 483.39L355.57 495.71C353.299 500.76 349.334 504.857 344.36 507.29L326.93 515.81C313.132 523.283 298.938 529.999 284.41 535.93C292.56 523.8 288.68 508.99 281.79 500.02C292.803 497.687 304.003 494.793 315.39 491.34C316.725 490.913 317.952 490.204 318.987 489.26C320.023 488.316 320.842 487.16 321.39 485.87L324.59 478.22C324.939 477.84 325.366 477.54 325.842 477.34C326.318 477.14 326.83 477.045 327.346 477.062C327.862 477.08 328.368 477.208 328.83 477.439C329.291 477.67 329.697 477.998 330.02 478.4C331.115 479.778 332.621 480.769 334.32 481.23C336.018 481.69 337.819 481.596 339.46 480.96L353.71 475.51C354.369 475.252 355.072 475.123 355.78 475.13C356.937 475.123 358.069 475.458 359.035 476.093C360.001 476.729 360.758 477.636 361.21 478.7Z" fill="#3A3A3A"/>
<path d="M202.34 510.44C203.825 514.99 205.537 519.462 207.47 523.84C166.9 536.08 126.05 527.2 106.65 499.84C106.86 499.29 109.65 492.07 110.65 489.13C123.55 506.45 163.68 526.66 202.34 510.44Z" fill="#3A3A3A"/>
<path d="M202.34 510.44C163.68 526.66 123.55 506.44 110.65 489.1C114.09 479.49 116.65 471.04 116.65 463.97C116.65 451.12 111.42 427.09 106.82 408.48C101.71 432.56 99.8998 460.91 107 496.65C106.64 496.97 106.28 497.25 105.91 497.54C91.6 508.32 70.9099 499.13 68.8499 481.35C67.9399 473.66 67.3297 466.12 66.8997 458.97C66.8397 457.97 61.6299 325.1 134.85 334.69C143.3 335.94 151.52 338.434 159.24 342.09C161.35 343.09 163.61 344.09 165.99 345.32C186.49 355.64 215.36 375 222.81 404.71C229.57 431.83 236.1 482.55 238.23 500.11C238.429 501.755 239.258 503.259 240.543 504.305C241.828 505.352 243.469 505.859 245.12 505.72C257.457 504.53 269.717 502.641 281.84 500.06C288.73 509.06 292.61 523.84 284.46 535.97C264.09 544.18 241.31 550.85 227.92 547.16C227.42 547.03 226.92 546.85 226.41 546.67C218.83 543.75 212.62 535.24 207.52 523.87C205.569 519.483 203.84 515.001 202.34 510.44Z" fill="white"/>
<path d="M197.39 267C198.595 278.547 198.505 290.193 197.12 301.72C193.62 330.61 166.88 326.28 166.88 326.28L165.94 345.28C163.56 344.07 161.3 343.02 159.19 342.05C151.469 338.394 143.25 335.9 134.8 334.65C136.53 328.01 138.55 319.82 140.25 311.56C143.887 311.046 147.357 309.701 150.39 307.63C162.82 299.54 158.78 284.15 171.48 278.75C179.35 275.41 190.03 272.16 197.39 267Z" fill="#3A3A3A"/>
<path d="M140.25 311.57C132.46 312.51 126.8 307.86 127.19 300.36C127.59 292.36 120.35 275.3 125.19 258.55C112.42 256.82 102.59 246.32 102.59 233.65C102.59 219.74 114.36 208.49 128.91 208.49C143.46 208.49 155.18 219.7 155.23 233.54C178.47 231.27 206.97 245.21 205.78 254.98C205.18 259.98 201.9 263.87 197.4 266.98C190.04 272.14 179.4 275.39 171.49 278.74C158.79 284.14 162.83 299.53 150.4 307.62C147.365 309.699 143.892 311.051 140.25 311.57Z" fill="#FFC727"/>
<path d="M106.79 408.48C101.68 432.56 99.6002 460.97 106.97 496.65C107.08 497.16 107.18 497.65 107.29 498.2" stroke="#3A3A3A" stroke-width="3" stroke-linecap="round" stroke-linejoin="round"/>
<path d="M185.79 424.93C188.22 443.12 192.74 481.44 202.32 510.45C203.804 515 205.517 519.472 207.45 523.85C212.54 535.22 218.76 543.73 226.34 546.65C226.83 546.83 227.34 547.01 227.85 547.14C241.24 550.83 264.03 544.14 284.39 535.95C298.921 530.011 313.115 523.281 326.91 515.79L344.34 507.27C349.313 504.837 353.279 500.74 355.55 495.69L361.14 483.37C361.542 482.485 361.715 481.513 361.644 480.543C361.572 479.574 361.258 478.638 360.731 477.822C360.203 477.005 359.478 476.334 358.624 475.871C357.769 475.408 356.812 475.167 355.84 475.17C355.132 475.163 354.429 475.292 353.77 475.55L339.52 481C337.879 481.636 336.078 481.73 334.38 481.27C332.681 480.809 331.175 479.818 330.08 478.44C329.757 478.037 329.351 477.71 328.889 477.479C328.428 477.248 327.922 477.119 327.406 477.102C326.89 477.085 326.377 477.18 325.901 477.38C325.425 477.579 324.999 477.88 324.65 478.26L321.45 485.91C320.902 487.2 320.083 488.356 319.047 489.3C318.012 490.244 316.785 490.953 315.45 491.38C304.07 494.82 292.87 497.713 281.85 500.06C269.728 502.645 257.468 504.535 245.13 505.72C243.478 505.859 241.838 505.352 240.553 504.305C239.267 503.259 238.439 501.755 238.24 500.11C236.11 482.55 229.58 431.83 222.82 404.71C215.37 375 186.48 355.71 166 345.32C163.61 344.11 161.36 343.06 159.25 342.09C151.529 338.434 143.31 335.94 134.86 334.69C61.6296 325.17 66.8599 457.94 66.9099 458.97C67.3399 466.12 67.9096 473.66 68.8596 481.35C70.9596 499.13 91.6097 508.35 105.92 497.54C106.29 497.25 106.65 496.97 107.01 496.65" stroke="#3A3A3A" stroke-width="3" stroke-linecap="round" stroke-linejoin="round"/>
<path d="M281.79 500.06C288.68 509.06 292.56 523.84 284.41 535.97" stroke="#3A3A3A" stroke-width="3" stroke-linecap="round" stroke-linejoin="round"/>
<path d="M110.65 489.1C123.55 506.45 163.65 526.66 202.34 510.44" stroke="#3A3A3A" stroke-width="3" stroke-linecap="round" stroke-linejoin="round"/>
<path d="M165.94 345.32L166.88 326.32C166.88 326.32 193.62 330.65 197.12 301.76C198.505 290.233 198.595 278.587 197.39 267.04" stroke="#3A3A3A" stroke-width="3" stroke-linecap="round" stroke-linejoin="round"/>
<path d="M134.79 334.67C136.52 328.03 138.54 319.84 140.24 311.58" stroke="#3A3A3A" stroke-width="3" stroke-linecap="round" stroke-linejoin="round"/>
<path d="M152.05 246.12C154.107 242.244 155.195 237.928 155.22 233.54C155.15 219.7 143.42 208.49 128.9 208.49C114.38 208.49 102.58 219.74 102.58 233.65C102.58 246.32 112.41 256.82 125.18 258.55C131.16 259.299 137.227 258.229 142.59 255.48" stroke="#3A3A3A" stroke-width="3" stroke-linecap="round" stroke-linejoin="round"/>
<path d="M125.18 258.55C120.35 275.3 127.59 292.39 127.18 300.36C126.79 307.86 132.45 312.5 140.24 311.57C143.876 311.051 147.344 309.706 150.38 307.64C162.81 299.55 158.77 284.16 171.47 278.76C179.34 275.41 190 272.14 197.38 267C201.88 263.86 205.16 260 205.76 255C206.95 245.23 178.45 231.29 155.21 233.56" stroke="#3A3A3A" stroke-width="3" stroke-linecap="round" stroke-linejoin="round"/>
<path d="M99.9902 382.66C99.9902 382.66 103.19 393.91 106.77 408.48C111.35 427.1 116.6 451.12 116.6 463.97C116.6 471.04 114.09 479.49 110.6 489.1C109.6 492.04 106.81 499.26 106.6 499.81C126 527.2 166.85 536.08 207.42 523.81" stroke="#3A3A3A" stroke-width="3" stroke-linecap="round" stroke-linejoin="round"/>
<path d="M305.16 637.78L278.88 652.96L252.59 637.78V607.44L305.16 637.78Z" fill="white"/>
<path d="M278.88 652.96L252.59 668.13L226.32 652.96L252.59 637.78L278.88 652.96Z" fill="#D7DCE0"/>
<path d="M252.59 607.44V637.78L226.32 652.96L200.04 637.78L252.59 607.44Z" fill="#3A3A3A"/>
<path d="M252.59 607.44L305.16 637.78L252.59 668.13L200.04 637.78L252.59 607.44Z" stroke="#3A3A3A" stroke-width="3" stroke-linecap="round" stroke-linejoin="round"/>
<path d="M226.32 652.96L252.59 637.78L278.88 652.96" stroke="#3A3A3A" stroke-width="3" stroke-linecap="round" stroke-linejoin="round"/>
<path d="M252.6 607.44V637.79" stroke="#3A3A3A" stroke-width="3" stroke-linecap="round" stroke-linejoin="round"/>
<path d="M159.1 502.92L121.83 567.46L106.4 558.55L143.09 493.67L159.1 502.92Z" fill="#D7DCE0"/>
<path d="M102.95 556.56L121.83 567.46L159.1 502.92L174.55 511.84L121.83 603.15L86.1501 582.55L101.61 555.79L102.95 556.56Z" fill="white"/>
<path d="M86.1077 546.824L70.6577 573.584L86.0903 582.494L101.54 555.734L86.1077 546.824Z" fill="#D7DCE0"/>
<path d="M101.61 555.79L86.17 546.88L70.72 573.64L87.5 583.33" stroke="#3A3A3A" stroke-width="3" stroke-linecap="round" stroke-linejoin="round"/>
<path d="M159.1 502.92L143.09 493.67L105.83 558.22" stroke="#3A3A3A" stroke-width="3" stroke-linecap="round" stroke-linejoin="round"/>
<path d="M159.1 502.92L121.83 567.46L101.61 555.79L86.1501 582.55L121.83 603.15L174.55 511.84L159.1 502.92Z" stroke="#3A3A3A" stroke-width="3" stroke-linecap="round" stroke-linejoin="round"/>
</g>
<defs>
<clipPath id="clip0_2653_2168">
<rect width="723.93" height="700.96" fill="white"/>
</clipPath>
</defs>
</svg>
