<svg width="204" height="234" viewBox="0 0 204 234" fill="none" xmlns="http://www.w3.org/2000/svg">
<path d="M50.4845 203.605C54.4637 203.287 59.5512 202.19 64.4388 198.998C69.7262 195.552 76.6034 188.46 74.8137 183.998C74.1414 182.329 72.2154 180.905 70.5166 181.041C68.0091 181.241 67.7184 184.723 63.3577 188.505C62.5492 189.203 58.3883 192.822 56.326 191.598C55.2995 190.99 54.9906 189.312 55.1632 188.043C55.6538 184.315 60.2144 183.744 64.6023 179.699C69.0448 175.609 72.7514 168.463 70.6347 163.638C69.4173 160.863 66.2013 158.677 64.0845 159.285C63.176 159.548 62.6037 160.282 59.8601 166.214C57.607 171.074 57.1073 172.489 55.6538 172.952C54.1548 173.423 51.8291 172.834 50.9478 171.356C48.6494 167.519 58.5973 161.869 59.4967 151.141C59.9055 146.334 58.5973 139.215 54.2365 137.683C51.293 136.649 47.0868 138.227 45.5696 140.929C44.1978 143.36 45.8603 145.192 44.8156 150.66C44.4976 152.32 43.8435 155.73 42.4717 155.911C40.8546 156.12 39.0467 151.767 38.6288 150.706C35.4854 142.725 39.0921 138.626 36.1214 134.753C33.8138 131.733 28.7808 130.518 24.7926 132.042C21.304 133.375 18.515 136.848 18.3333 140.449C18.1425 144.112 21.2313 147.749 27.3999 155.041C30.3252 158.496 32.651 160.836 32.5238 164.264C32.4602 165.941 31.797 168.29 30.5887 168.508C27.9359 168.98 26.6277 158.324 20.3501 156.673C17.1341 155.83 13.1367 157.489 11.3743 160.382C9.22117 163.928 10.6657 168.952 13.3639 171.6C16.8888 175.047 20.5136 172.426 27.1455 176.135C30.089 177.776 34.7223 181.277 34.0409 184.161C33.7502 185.422 32.4238 186.655 30.9703 186.818C27.7179 187.19 26.6459 181.867 21.4221 179.527C17.6519 177.84 12.4463 178.021 11.2107 180.143C9.46646 183.136 15.6623 189.929 18.9601 192.931C22.9574 196.576 32.3602 203.46 50.4845 203.605Z" fill="#D8DEE8"/>
<path opacity="0.5" d="M48.695 201.9C49.2219 193.003 43.3167 174.883 39.0196 166.313C34.8133 157.933 30.7978 144.666 30.7615 144.539L30.498 144.62C30.5344 144.756 34.5681 158.033 38.7743 166.44C43.0533 174.983 48.9403 193.03 48.4133 201.882L48.695 201.9Z" fill="white"/>
<path d="M59.8601 204.766C62.8581 200.612 67.2461 193.121 68.0365 183.1C68.3636 178.973 68.9995 170.902 64.0573 163.946C61.5953 160.482 56.3716 155.349 52.8376 156.827C50.5664 157.779 49.1582 161.398 49.7941 164.155C50.4392 166.93 52.7921 167.184 55.3541 171.9C56.2989 173.641 57.38 175.691 56.5533 176.842C55.8628 177.804 53.955 177.985 52.5196 177.405C49.567 176.207 50.4846 172.535 47.2958 169.905C45.0246 168.036 41.2362 167.157 39.61 168.689C38.1928 170.022 38.4381 173.133 39.6918 175.201C41.6996 178.52 45.2972 177.55 47.641 181.177C48.6858 182.792 49.4217 185.222 48.5132 186.183C47.4775 187.281 44.425 186.328 42.4627 185.122C39.8826 183.526 39.7827 181.821 38.0838 181.603C36.1851 181.368 33.8139 183.172 33.4414 185.168C32.9236 187.961 36.3577 190.981 39.0831 192.287C42.5717 193.964 45.1609 192.976 46.8597 195.27C47.4866 196.114 48.0589 197.483 47.5411 198.318C46.8143 199.506 44.1706 199.116 42.4173 198.853C38.1474 198.218 36.9754 196.676 35.4492 197.42C33.9048 198.182 33.1053 200.748 33.7685 202.544C34.141 203.541 35.2584 205.092 40.8002 206.062C44.6612 206.77 51.175 207.241 59.8601 204.766Z" fill="#97A6B7"/>
<path d="M134.565 39.783L0 52.0623C8.13093 57.0775 20.7134 67.1259 28.2811 87.4857C43.1893 127.571 26.6277 164.908 44.543 191.87C49.3125 199.043 59.5965 212.039 75.4768 215.222L203.991 197.728C161.91 185.549 150.49 162.522 148.301 142.888C146.102 123.181 152.362 99.62 144.858 67.9058C141.796 54.9372 137.599 45.6052 134.565 39.783Z" fill="url(#paint0_linear_939_5486)"/>
<path d="M16.6343 17.9177C56.1533 15.4419 95.6633 12.9661 135.182 10.4902C140.506 14.9884 147.974 22.9873 152.843 36.8265C164.045 68.6768 150.999 100.173 154.769 131.126C157.177 150.869 167.097 175.6 202.637 192.133C160.202 197.674 117.776 203.215 75.3405 208.765C66.5736 205.41 54.8905 198.445 48.1223 182.229C40.9544 165.035 45.9692 153.408 43.5072 99.3752C41.772 61.349 38.347 46.3489 31.2336 34.3235C26.2915 25.9891 20.7315 20.9468 16.6343 17.9177Z" fill="white"/>
<path d="M146.175 128.224C146.202 128.532 146.229 128.849 146.257 129.158C146.284 129.448 146.075 129.711 145.775 129.747L53.0825 139.905C52.7555 139.941 52.4829 139.687 52.4829 139.36C52.4829 139.043 52.492 138.726 52.492 138.408C52.492 138.136 52.7009 137.9 52.9735 137.873L145.575 127.716C145.875 127.689 146.148 127.915 146.175 128.224Z" fill="#D8DEE8"/>
<path d="M145.802 118.257C145.802 118.574 145.802 118.883 145.802 119.2C145.802 119.481 145.593 119.708 145.321 119.744L53.1099 129.548C52.7919 129.584 52.5103 129.33 52.5103 129.013C52.5103 128.695 52.5103 128.387 52.5103 128.06C52.5103 127.779 52.7192 127.543 52.9917 127.516L145.203 117.713C145.521 117.685 145.802 117.939 145.802 118.257Z" fill="#D8DEE8"/>
<path d="M147.492 138.082C147.547 138.39 147.61 138.698 147.674 139.007C147.737 139.315 147.519 139.614 147.201 139.651L52.9553 150.279C52.6282 150.316 52.3466 150.062 52.3557 149.735C52.3557 149.418 52.3648 149.11 52.3648 148.783C52.3648 148.511 52.5737 148.284 52.8463 148.248L146.902 137.637C147.183 137.61 147.447 137.801 147.492 138.082Z" fill="#D8DEE8"/>
<path d="M132.084 190.119L174.828 184.651C175.01 184.624 175.201 184.696 175.319 184.85C175.546 185.132 175.837 185.358 176.155 185.531C176.645 185.794 176.491 186.483 175.982 186.555L134.037 191.915C133.374 191.317 132.729 190.718 132.084 190.119Z" fill="#D8DEE8"/>
<path d="M73.2234 197.647L121.5 191.471C122.127 192.078 122.754 192.677 123.39 193.275L74.8405 199.479C74.7315 199.488 74.6225 199.479 74.5316 199.424C74.0229 199.179 73.5232 198.916 73.0326 198.653C72.5693 198.408 72.7056 197.71 73.2234 197.647Z" fill="#D8DEE8"/>
<path d="M146.147 108.227C146.129 108.544 146.111 108.861 146.093 109.179C146.075 109.442 145.875 109.659 145.611 109.687L52.9916 119.218C52.6736 119.254 52.4011 119.01 52.392 118.692C52.3829 118.375 52.3829 118.066 52.3738 117.749C52.3647 117.468 52.5828 117.223 52.8644 117.196L145.557 107.655C145.884 107.628 146.166 107.9 146.147 108.227Z" fill="#D8DEE8"/>
<path d="M158.948 166.767C159.139 167.057 159.339 167.347 159.53 167.637C159.757 167.973 159.557 168.426 159.148 168.481L56.9982 180.951C56.762 180.978 56.5348 180.851 56.4349 180.642C56.2986 180.343 56.1624 180.035 56.0261 179.735C55.8807 179.4 56.0988 179.019 56.4531 178.983L158.439 166.531C158.639 166.504 158.839 166.594 158.948 166.767Z" fill="#D8DEE8"/>
<path d="M153.697 157.38C153.833 157.68 153.979 157.979 154.124 158.269C154.288 158.605 154.07 158.995 153.706 159.04L53.8274 170.948C53.5458 170.984 53.2823 170.793 53.2278 170.503C53.1733 170.186 53.1188 169.877 53.0734 169.551C53.028 169.252 53.246 168.97 53.5458 168.934L153.143 157.072C153.37 157.045 153.597 157.172 153.697 157.38Z" fill="#D8DEE8"/>
<path d="M149.945 147.804C150.045 148.112 150.136 148.411 150.236 148.711C150.345 149.037 150.126 149.382 149.781 149.418L52.9369 160.654C52.6189 160.691 52.3373 160.446 52.3282 160.128C52.3191 159.811 52.3191 159.494 52.3101 159.176C52.3101 158.895 52.5099 158.659 52.7916 158.632L149.354 147.432C149.627 147.405 149.872 147.559 149.945 147.804Z" fill="#D8DEE8"/>
<path d="M146.956 98.1691C146.929 98.4865 146.893 98.8039 146.865 99.1304C146.838 99.3843 146.638 99.5929 146.384 99.6201L52.7192 108.925C52.4103 108.952 52.1378 108.716 52.1196 108.408C52.1105 108.091 52.1015 107.782 52.0833 107.465C52.0742 107.184 52.2832 106.939 52.5739 106.902L146.357 97.5796C146.702 97.5433 146.993 97.8244 146.956 98.1691Z" fill="#D8DEE8"/>
<path d="M144.158 38.2867C144.403 38.2685 144.621 38.4136 144.712 38.6404C144.83 38.9487 144.939 39.2571 145.048 39.5654C145.048 39.5654 145.048 39.5654 145.048 39.5745C145.166 39.91 144.93 40.2637 144.576 40.2909L46.1145 47.7728C45.8601 47.791 45.6239 47.6277 45.5512 47.3738C45.4694 47.0654 45.3786 46.7571 45.2877 46.4578C45.1878 46.1313 45.424 45.7958 45.7692 45.7686L144.158 38.2867Z" fill="#D8DEE8"/>
<path d="M147.492 48.3442C147.556 48.6526 147.619 48.97 147.683 49.2874C147.746 49.6048 147.51 49.9041 147.192 49.9313L48.4036 57.8485C48.122 57.8666 47.8767 57.6762 47.8313 57.4041C47.7768 57.0958 47.7132 56.7784 47.6586 56.4791C47.5951 56.1617 47.8222 55.8624 48.1492 55.8443L146.92 47.918C147.192 47.8908 147.437 48.0722 147.492 48.3442Z" fill="#D8DEE8"/>
<path d="M139.961 30.2515L42.5532 37.6428C42.326 37.6609 42.108 37.5249 42.0171 37.3163C40.9088 34.777 39.6823 32.4009 38.3287 30.1155C37.6473 28.9637 36.9387 27.8392 36.2029 26.7509C35.9666 26.4063 36.1938 25.9347 36.6117 25.9075L132.466 19.4595C132.62 19.4504 132.784 19.5048 132.893 19.6227C135.745 22.5157 138.253 25.7896 140.388 29.4444C140.588 29.78 140.36 30.2153 139.961 30.2515Z" fill="#D8DEE8"/>
<path d="M147.946 88.1024C147.919 88.4198 147.883 88.7372 147.856 89.0637C147.828 89.3177 147.628 89.5262 147.365 89.5534L52.3103 98.6496C52.0015 98.6768 51.7289 98.441 51.7198 98.1327C51.7017 97.8153 51.6926 97.5069 51.6744 97.1895C51.6562 96.8993 51.8743 96.6545 52.165 96.6272L147.356 87.5129C147.692 87.4766 147.974 87.7578 147.946 88.1024Z" fill="#D8DEE8"/>
<path d="M148.809 78.0632C148.791 78.3807 148.764 78.6981 148.737 79.0155C148.718 79.2785 148.51 79.4961 148.246 79.5143L51.747 88.3928C51.4472 88.42 51.1746 88.1933 51.1564 87.8849C51.1383 87.5675 51.1201 87.2592 51.0929 86.9418C51.0747 86.6516 51.2927 86.3976 51.5834 86.3704L148.21 77.4738C148.546 77.4556 148.828 77.7277 148.809 78.0632Z" fill="#D8DEE8"/>
<path d="M149.236 68.0691C149.236 68.3865 149.227 68.7039 149.227 69.0213C149.218 69.3025 149.009 69.5292 148.728 69.5473L50.9929 78.1719C50.6931 78.1991 50.4297 77.9724 50.4024 77.6822C50.3752 77.3648 50.3479 77.0564 50.3207 76.7481C50.2934 76.4488 50.5114 76.1858 50.8112 76.1586L148.637 67.5249C148.964 67.4977 149.236 67.7517 149.236 68.0691Z" fill="#D8DEE8"/>
<path d="M148.9 58.1568C148.928 58.4742 148.955 58.7916 148.973 59.1C148.991 59.3993 148.773 59.6532 148.473 59.6804L49.93 67.9876C49.6393 68.0148 49.385 67.7971 49.3486 67.516C49.3123 67.1986 49.2669 66.8902 49.2305 66.5819C49.1942 66.2735 49.4122 66.0015 49.7211 65.9743L148.31 57.6671C148.61 57.6399 148.873 57.8575 148.9 58.1568Z" fill="#D8DEE8"/>
<path d="M131.994 222.296C131.994 222.296 132.458 224.173 132.476 224.853C132.494 225.534 124.999 226.477 124.881 225.978C124.763 225.479 126.016 224.563 126.925 224.209C127.833 223.847 130.486 222.876 130.486 222.876L131.994 222.296Z" fill="url(#paint1_linear_939_5486)"/>
<path d="M130.014 220.555L130.441 222.895C130.441 222.895 131.358 223.402 132.094 222.895L132.276 220.292L130.014 220.555Z" fill="url(#paint2_linear_939_5486)"/>
<path d="M145.649 224.309C145.649 224.309 146.112 226.186 146.13 226.867C146.148 227.547 138.653 228.49 138.535 227.991C138.417 227.492 139.671 226.576 140.579 226.223C141.488 225.86 144.14 224.89 144.14 224.89L145.649 224.309Z" fill="url(#paint3_linear_939_5486)"/>
<path d="M143.668 222.559L144.095 224.899C144.095 224.899 145.013 225.407 145.748 224.899L145.93 222.296L143.668 222.559Z" fill="url(#paint4_linear_939_5486)"/>
<path d="M126.425 158.768C125.698 160.6 124.971 162.423 124.245 164.254C124.354 174.348 124.881 185.285 126.043 196.939C126.906 205.609 128.033 213.798 129.323 221.462C130.495 221.316 131.667 221.162 132.848 221.017C134.283 217.507 135.882 212.229 135.555 205.908C135.219 199.306 133.148 198.599 132.775 192.278C132.285 184.097 135.537 181.64 136.582 171.664C136.982 167.846 137.054 162.903 136.019 156.99C132.812 157.58 129.623 158.178 126.425 158.768Z" fill="url(#paint5_linear_939_5486)"/>
<path opacity="0.3" d="M136 156.99C134.274 157.308 132.548 157.634 130.831 157.952C128.142 163.638 127.715 169.369 128.469 171.827C129.532 175.31 131.676 176.28 131.849 179.844C132.021 183.372 130.014 184.451 129.032 188.704C128.351 191.652 128.805 194.273 129.741 199.388C131.622 209.699 134.392 212.683 132.557 216.256C132.039 217.272 131.049 218.514 129.005 219.566C129.105 220.201 129.214 220.836 129.314 221.462C130.486 221.316 131.658 221.162 132.839 221.017C134.274 217.507 135.873 212.229 135.546 205.908C135.21 199.306 133.139 198.599 132.766 192.278C132.276 184.097 135.528 181.64 136.573 171.664C136.963 167.846 137.045 162.903 136 156.99Z" fill="url(#paint6_linear_939_5486)"/>
<path d="M131.358 161.561C133.702 170.313 135.909 179.699 137.835 189.684C140.17 201.746 141.815 213.154 142.95 223.783C144.249 223.72 145.539 223.647 146.838 223.584C151.127 213.118 150.89 206.271 149.8 201.882C149.382 200.195 148.337 196.903 147.765 191.897C147.365 188.414 147.374 185.73 147.393 182.51C147.438 175.446 148.065 173.858 147.738 168.49C147.438 163.447 147.247 160.899 145.694 159.53C141.587 155.911 132.076 161.153 131.358 161.561Z" fill="url(#paint7_linear_939_5486)"/>
<path d="M93.7287 141.237C93.7287 141.237 90.8852 140.993 90.4673 140.53C90.0585 140.067 89.7859 140.049 89.7314 139.623C89.6678 139.197 88.4686 139.405 88.9683 140.321C89.4679 141.237 88.3414 140.757 88.1234 140.739C87.6146 140.684 85.6796 140.63 85.7341 140.748C85.7886 140.866 84.8619 142.072 86.2428 142.697C87.4511 143.242 87.0968 143.006 87.8781 143.042C88.6594 143.078 91.085 142.289 91.085 142.289L93.1564 142.444L93.7287 141.237Z" fill="url(#paint8_linear_939_5486)"/>
<path d="M92.057 139.904C91.9299 140.848 91.8027 141.8 91.6846 142.743C93.5742 144.312 97.7351 147.323 103.54 147.776C113.77 148.574 123.908 141.02 125.798 132.522C126.734 128.314 125.971 122.41 123.345 121.458C122.618 121.195 121.528 121.231 119.275 122.746C113.261 126.773 112.752 132.069 109.436 135.651C107.038 138.227 102.341 140.839 92.057 139.904Z" fill="url(#paint9_linear_939_5486)"/>
<path d="M123.4 166.132C122.001 164.182 123.391 162.078 123.436 158.16C123.482 153.725 121.728 153.127 119.457 145.953C117.949 141.183 116.505 136.612 117.34 131.053C117.74 128.387 118.431 123.87 121.937 121.431C123.745 120.17 126.343 120.08 131.476 119.934C137.818 119.762 140.988 119.671 143.441 120.723C143.805 120.878 151.272 124.197 152.272 130.491C153.289 136.902 146.321 138.335 146.076 147.014C145.967 150.914 147.193 156.791 147.993 160.6C148.756 164.264 149.155 165.18 148.51 166.358C146.966 169.197 141.506 168.862 130.586 168.19C126.307 167.918 124.445 167.583 123.4 166.132Z" fill="url(#paint10_linear_939_5486)"/>
<path opacity="0.3" d="M138.326 146.235C138.917 147.876 140.661 148.992 142.133 152.982C142.451 153.843 144.713 159.974 142.56 161.697C141.315 162.695 139.998 161.099 136.782 161.135C131.213 161.198 128.95 166.05 125.235 165.071C124.59 164.898 123.727 164.499 122.809 163.484C122.718 164.472 122.818 165.307 123.4 166.123C124.444 167.583 126.307 167.918 130.586 168.181C141.506 168.853 146.957 169.197 148.51 166.35C149.155 165.171 148.755 164.246 147.992 160.591C147.193 156.773 145.966 150.896 146.075 147.005C146.321 138.326 153.289 136.894 152.271 130.482C151.999 128.768 151.236 127.28 150.282 126.011C141.642 130.346 136.473 141.083 138.326 146.235Z" fill="url(#paint11_linear_939_5486)"/>
<path d="M155.878 166.059C155.878 166.059 157.614 166.64 157.804 169.515C157.523 169.487 156.86 169.506 156.86 169.506C156.86 169.506 156.987 167.42 155.742 166.993C155.842 166.749 155.878 166.059 155.878 166.059Z" fill="url(#paint12_linear_939_5486)"/>
<path d="M149.437 165.787C149.482 166.313 149.528 166.848 149.573 167.374C150.445 167.148 151.399 166.885 152.426 166.848C153.752 166.803 154.961 166.966 156.042 167.229C156.087 167.166 156.187 167.002 156.242 166.749C156.314 166.331 156.187 165.987 156.169 165.923C155.624 165.724 155.024 165.551 154.388 165.434C152.535 165.089 150.872 165.37 149.437 165.787Z" fill="url(#paint13_linear_939_5486)"/>
<path d="M149.346 166.241C149.346 166.05 149.364 165.815 149.428 165.787C149.492 165.76 149.573 165.932 149.61 166.032C149.628 166.068 149.655 166.168 149.673 166.477C149.7 166.876 149.673 167.066 149.637 167.193C149.619 167.266 149.591 167.374 149.555 167.374C149.528 167.374 149.501 167.311 149.455 167.175C149.41 166.984 149.346 166.685 149.346 166.241Z" fill="url(#paint14_linear_939_5486)"/>
<path d="M147.729 169.569C148.101 169.641 148.992 169.859 148.992 169.859C148.992 169.859 148.41 167.991 149.51 167.148C149.537 167.011 149.564 166.785 149.528 166.513C149.501 166.304 149.446 166.141 149.401 166.023C148.937 166.277 147.92 167.147 147.729 169.569Z" fill="url(#paint15_linear_939_5486)"/>
<path d="M140.025 169.977C140.025 169.977 140.071 168.988 141.642 169.007C141.888 169.188 141.897 169.995 141.897 169.995L140.025 169.977Z" fill="url(#paint16_linear_939_5486)"/>
<path d="M138.626 189.421L142.914 191.951L145.485 182.411L141.233 169.642L140.016 169.986L138.163 188.423C138.126 188.832 138.308 189.231 138.626 189.421Z" fill="url(#paint17_linear_939_5486)"/>
<path opacity="0.3" d="M145.494 182.402L141.243 169.633L140.025 169.977C140.325 171.111 140.471 172.952 140.534 173.977C140.825 178.339 141.77 179.545 141.315 182.592C140.934 185.122 140.089 185.476 140.162 187.181C140.243 189.031 141.325 190.573 142.596 191.761L142.914 191.942L145.494 182.402Z" fill="url(#paint18_linear_939_5486)"/>
<path d="M141.233 169.633L164.055 169.868L167.516 189.485L142.914 191.942L141.233 169.633Z" fill="url(#paint19_linear_939_5486)"/>
<g opacity="0.2">
<path d="M164.054 169.868L156.523 169.787C156.387 170.195 156.169 170.757 155.86 171.392C152.435 178.339 144.477 179.236 144.622 180.397C144.84 182.129 162.319 179.617 162.755 181.939C162.964 183.055 159.348 185.648 155.533 186.664C150.909 187.897 147.475 186.455 145.176 189.14C144.395 190.056 144.05 191.117 143.877 191.833L167.525 189.484L164.054 169.868Z" fill="url(#paint20_linear_939_5486)"/>
</g>
<path d="M141.633 169.007C141.37 169.007 140.997 168.97 140.598 169.197C140.516 169.243 140.434 169.306 140.371 169.36L140.552 169.297C140.852 169.215 141.261 169.333 141.415 169.633C141.606 170.004 141.67 170.857 141.715 171.283C141.833 172.489 142.551 179.962 142.551 179.962C142.605 180.588 143.078 181.068 143.641 181.05L164.772 179.844C164.927 179.844 165.081 179.79 165.209 179.69C165.481 179.472 165.599 179.11 165.536 178.756L164.5 170.122C164.409 169.623 164.037 169.261 163.591 169.261L141.633 169.007Z" fill="url(#paint21_linear_939_5486)"/>
<path d="M141.869 169.016C141.606 169.016 141.288 168.97 140.943 169.061C140.852 169.088 140.697 169.134 140.634 169.188C140.634 169.188 141.379 169.016 141.66 169.641C141.833 170.022 141.915 170.866 141.96 171.292C142.078 172.498 142.796 179.962 142.796 179.962C142.85 180.588 143.323 181.068 143.886 181.05L165.236 180.488C165.39 180.488 165.544 180.434 165.672 180.334C165.935 180.116 166.062 179.753 165.999 179.4L164.727 170.122C164.636 169.623 164.263 169.261 163.818 169.261L141.869 169.016Z" fill="url(#paint22_linear_939_5486)"/>
<path opacity="0.1" d="M165.99 179.391L164.718 170.113C164.627 169.614 164.255 169.252 163.809 169.252L141.861 169.007C141.597 169.007 141.279 168.961 140.934 169.052C140.843 169.079 140.689 169.125 140.625 169.179C140.625 169.179 141.37 169.007 141.652 169.632C141.679 169.696 141.706 169.768 141.724 169.841C143.868 169.95 145.994 169.905 148.111 170.068C152.263 170.376 156.414 170.412 160.248 172.117C161.466 172.661 162.301 174.584 161.965 175.464C161.729 176.099 160.911 176.053 160.63 176.888C160.33 177.767 161.048 178.366 160.748 178.992C160.43 179.645 159.476 179.336 157.923 179.808C157.059 180.071 156.405 180.452 155.987 180.724L165.227 180.479C165.381 180.479 165.536 180.425 165.663 180.325C165.935 180.116 166.053 179.744 165.99 179.391Z" fill="url(#paint23_linear_939_5486)"/>
<path d="M155.951 182.275L153.28 182.946L152.998 182.973C152.717 183 152.462 182.746 152.453 182.42L152.335 179.3C152.326 178.974 152.553 178.692 152.835 178.692L153.117 178.683L155.806 179.028C156.06 179.028 156.278 178.883 156.287 179.191L156.396 182.102C156.405 182.411 156.205 182.247 155.951 182.275Z" fill="url(#paint24_linear_939_5486)"/>
<path d="M156.151 182.701L153.189 182.964C152.908 182.991 152.653 182.737 152.644 182.411L152.526 179.291C152.517 178.964 152.744 178.683 153.026 178.683L155.997 178.638C156.251 178.638 156.469 178.883 156.478 179.191L156.587 182.102C156.605 182.402 156.405 182.674 156.151 182.701Z" fill="url(#paint25_linear_939_5486)"/>
<path d="M152.571 161.806C152.571 161.806 152.326 163.456 152.072 163.611C151.826 163.765 151.045 164.635 151.2 165.198C151.354 165.76 150.763 167.03 151.872 167.347C152.98 167.655 154.243 167.991 154.37 167.002C154.497 166.014 154.188 164.898 154.216 164.055C154.243 163.212 154.679 162.377 154.679 162.377L152.571 161.806Z" fill="url(#paint26_linear_939_5486)"/>
<path d="M142.133 120.225C140.652 127.416 141.933 132.069 143.468 135.061C146.584 141.11 151.944 142.534 152.835 147.894C153.48 151.766 153.761 159.393 151.863 161.86C153.571 162.54 153.743 162.504 155.033 162.504C156.759 161.525 160.43 154.959 161.983 146.588C163.873 136.431 156.005 124.442 142.133 120.225Z" fill="url(#paint27_linear_939_5486)"/>
<path d="M137.527 120.152C136.791 119.853 133.248 119.137 132.457 117.595C131.585 115.899 131.295 113.55 131.295 113.55C131.295 113.55 128.842 114.203 129.205 115.464C129.568 116.724 128.951 119.626 127.543 120.27C126.561 120.724 125.335 120.905 125.071 121.204C125.044 121.204 125.026 121.213 125.017 121.213C124.817 121.34 125.444 122.311 127.979 123.716C136.718 122.401 137.636 120.914 137.672 120.397C137.708 120.297 137.672 120.207 137.527 120.152Z" fill="url(#paint28_linear_939_5486)"/>
<path d="M128.015 112.96C126.879 112.008 126.725 111.899 126.579 111.555C126.007 110.158 126.961 108.109 128.378 107.501C128.451 107.474 129.405 107.075 129.814 107.474C130.159 107.809 129.732 108.344 130.013 109.025C130.277 109.659 130.84 109.659 131.958 110.43C132.875 111.065 133.448 111.455 133.62 112.063C133.974 113.305 132.584 115.264 131.222 115.327C130.731 115.337 130.586 115.101 128.015 112.96Z" fill="url(#paint29_linear_939_5486)"/>
<path d="M131.104 115.527C131.104 115.527 130.086 116.878 128.342 116.597C126.788 116.343 126.897 112.815 127.969 112.162C128.324 111.945 129.005 111.908 129.532 112.108C129.841 112.226 129.941 112.371 130.459 112.561C130.931 112.734 131.076 112.697 131.213 112.833C131.385 113.006 131.476 113.396 131.076 114.393C131.403 114.121 131.776 114.04 132.021 114.185C132.057 114.212 132.157 114.294 132.212 114.411C132.385 114.829 131.976 115.309 131.104 115.527Z" fill="url(#paint30_linear_939_5486)"/>
<path d="M130.377 123.435C130.377 123.435 129.886 126.065 129.114 126.12C128.342 126.174 127.779 126.274 127.779 126.274L126.916 123.054C126.906 123.054 128.033 123.97 130.377 123.435Z" fill="url(#paint31_linear_939_5486)"/>
<path d="M129.478 125.893C129.478 125.893 131.195 145.137 137.218 148.221C137.064 148.837 137.218 153.843 137.218 153.843C137.218 153.843 131.604 152.157 131.286 152.265C130.968 152.374 124.49 141.664 127.779 126.265L129.478 125.893Z" fill="url(#paint32_linear_939_5486)"/>
<path d="M83.3902 141.827C83.3902 141.827 85.725 139.777 86.1974 139.025C86.6698 138.272 86.6789 139.741 86.2065 140.04C85.734 140.34 92.8747 139.351 91.621 140.585C90.3582 141.818 89.4588 142.988 87.76 143.06C86.0702 143.142 84.0715 143.65 83.7263 143.877C83.3811 144.112 83.3902 141.827 83.3902 141.827Z" fill="url(#paint33_linear_939_5486)"/>
<path d="M37.2299 127.543C36.6576 127.761 27.927 131.225 26.1282 140.322C25.9829 141.056 24.5838 148.874 29.8894 154.397C35.849 160.591 47.3141 160.437 51.8656 155.258C52.9285 154.052 53.4827 152.71 53.8006 151.585L52.6014 148.402C51.1388 146.643 49.1492 146.216 48.0772 145.963C45.4517 145.319 43.4712 146.479 41.9722 145.219C41.1364 144.521 40.9729 143.514 40.8275 142.616C40.3278 139.56 42.0539 137.674 42.1811 135.787C42.272 134.372 42.7717 131.289 40.9274 129.267C39.7555 127.997 38.1384 127.652 37.2299 127.543Z" fill="url(#paint34_linear_939_5486)"/>
<path d="M33.8231 228.944C33.7232 228.381 31.9062 227.873 31.0159 228.626C30.5708 228.998 30.2619 229.751 30.5254 230.095C30.6162 230.222 30.2346 230.44 30.6071 230.44C31.8154 230.458 33.9231 229.506 33.8231 228.944Z" fill="url(#paint35_linear_939_5486)"/>
<path d="M31.9244 229.152L30.062 228.889C30.9251 227.855 30.7615 224.545 30.7615 224.545L32.742 224.989C32.742 224.989 32.5149 225.896 32.1334 227.238C32.0062 227.692 31.9426 228.408 31.9244 229.152Z" fill="url(#paint36_linear_939_5486)"/>
<path d="M32.088 228.925C32.088 228.925 29.844 228.408 29.5987 228.853C29.3534 229.297 29.1717 230.485 30.589 230.449C32.0153 230.403 32.2152 229.297 32.088 228.925Z" fill="url(#paint37_linear_939_5486)"/>
<path d="M59.3968 231.048C59.2151 230.503 57.3527 230.259 56.5714 231.129C56.1808 231.565 55.9809 232.354 56.2898 232.653C56.3988 232.762 56.0536 233.034 56.417 232.988C57.6162 232.825 59.5694 231.583 59.3968 231.048Z" fill="url(#paint38_linear_939_5486)"/>
<path d="M57.5436 231.519H55.6631C56.3717 230.367 55.7539 227.121 55.7539 227.121L57.7799 227.284C57.7799 227.284 57.6799 228.218 57.4891 229.596C57.4165 230.059 57.4619 230.775 57.5436 231.519Z" fill="url(#paint39_linear_939_5486)"/>
<path d="M62.4223 160.464C63.2944 163.338 64.5391 167.973 65.3385 173.795C67.6279 190.4 62.7675 190.926 63.676 209.327C63.9667 215.204 58.5794 228.744 58.107 229.043C57.8799 229.061 57.6255 229.079 57.362 229.07C56.8896 229.052 56.2355 228.989 55.4633 228.753C54.6093 228.608 51.5296 220.292 52.2473 215.34C52.756 211.839 52.6016 208.085 52.3109 200.576C52.2654 199.36 49.1403 176.897 49.1403 176.897C48.1954 185.213 47.0962 192.278 46.1514 197.755C43.1079 215.358 33.2236 226.005 32.7149 226.177C32.6149 226.223 31.6883 226.558 30.9252 226.059C30.589 225.842 30.4709 225.552 30.4709 225.552C30.2075 225.343 30.5527 207.985 33.5598 194.917C37.9387 175.944 36.0308 171.51 37.4208 163.039C38.6291 155.693 62.4223 160.464 62.4223 160.464Z" fill="url(#paint40_linear_939_5486)"/>
<path d="M63.594 163.329C60.9685 164.672 54.2003 167.084 46.1329 165.887C42.4445 165.343 39.501 164.118 37.4297 163.021C37.684 162.259 37.8839 161.534 38.0293 160.854C39.1376 155.884 37.784 152.936 37.1026 150.189C36.0033 145.736 35.9852 146.071 35.0767 142.543C33.5777 136.712 33.3324 130.754 34.359 129.538C37.1389 126.256 42.1447 126.138 44.752 126.056C47.6592 125.974 54.3365 124.95 58.0159 128.251C58.0795 128.305 57.3254 128.713 57.6979 129.139C58.0431 129.538 59.2242 130.953 60.2962 132.858C61.0684 134.236 61.777 135.85 62.4765 138.245C63.4486 141.555 63.8847 144.484 64.0846 146.352C64.1391 146.869 64.1754 147.305 64.2027 147.649C64.8659 156.482 64.1936 160.554 63.594 163.329Z" fill="url(#paint41_linear_939_5486)"/>
<path d="M57.6709 231.265C57.6709 231.265 55.3725 231.066 55.1998 231.537C55.0181 232.009 55 233.215 56.4081 232.979C57.8163 232.743 57.8526 231.619 57.6709 231.265Z" fill="url(#paint42_linear_939_5486)"/>
<path d="M52.1834 122.773C53.0283 121.34 52.6558 119.708 52.565 119.354C52.2107 117.876 52.0744 117.649 51.8019 117.341L51.4112 116.933C51.4112 116.933 51.384 116.915 51.3658 116.896C51.0933 116.715 50.0848 116.407 49.8668 116.398C49.1673 116.361 47.7591 118.855 46.9415 122.691C46.8779 122.827 46.8143 122.964 46.7416 123.109C46.3419 123.979 45.9967 124.832 45.6969 125.666C41 126.065 40.3459 126.609 40.3277 126.936C40.2823 127.607 42.9623 128.378 44.9792 128.677C49.3762 129.321 53.8914 128.16 53.8641 127.344C53.855 126.99 52.9829 126.528 49.2581 126.038C49.349 125.421 49.4307 124.805 49.5216 124.197C49.8305 124.124 51.5566 123.834 52.1834 122.773Z" fill="url(#paint43_linear_939_5486)"/>
<path d="M53.0647 116.225C52.7467 117.395 51.8564 118.502 51.5202 118.629C51.4748 118.647 51.2295 118.756 50.9751 118.982C50.9388 119.009 50.9025 119.055 50.8752 119.1C50.421 119.771 51.3658 120.95 51.0478 121.222C50.8207 121.422 50.103 120.887 49.9576 121.068C49.8123 121.24 50.3755 121.821 50.212 122.029C50.0848 122.184 49.7214 121.912 49.3944 122.12C49.2309 122.22 49.2399 122.338 48.9947 122.71C48.8584 122.918 48.6767 123.145 48.5586 123.263C47.9681 123.843 46.7507 123.789 46.6053 123.453C46.5599 123.363 46.6326 123.308 46.6417 123.036C46.6417 123.036 46.6508 122.782 46.5508 122.465C46.4146 122.011 45.924 121.576 45.4516 121.005C44.5885 119.953 44.4704 119.218 44.4432 118.964C44.4341 118.873 44.4341 118.81 44.425 118.765C44.3796 117.831 44.7157 116.561 45.3153 115.881C46.3146 114.747 47.6228 115.763 49.1673 114.783C50.957 113.659 50.6753 111.392 51.4839 111.373C52.3742 111.337 53.6552 114.058 53.0647 116.225Z" fill="#26264F"/>
<path d="M50.7026 120.832C50.5209 120.361 49.9122 120.596 49.7759 121.104C49.6397 121.612 49.994 122.274 50.5027 122.301C51.0024 122.338 50.9479 121.467 50.7026 120.832Z" fill="url(#paint44_linear_939_5486)"/>
<path d="M38.3566 159.058C38.3475 159.058 38.3475 159.058 38.3384 159.058C38.2658 159.049 38.2203 158.985 38.2294 158.922C38.5746 155.848 37.9296 153.608 37.3664 151.63C37.2301 151.141 37.0938 150.678 36.9848 150.216C36.3579 147.695 36.0854 146.715 35.7947 145.681C35.6039 145.01 35.4131 144.312 35.1042 143.151C35.0861 143.088 35.1224 143.015 35.1951 142.997C35.2587 142.979 35.3314 143.015 35.3495 143.087C35.6493 144.248 35.8492 144.938 36.04 145.609C36.3307 146.643 36.6032 147.622 37.2301 150.143C37.3482 150.606 37.4754 151.059 37.6117 151.549C38.184 153.544 38.829 155.811 38.4838 158.931C38.4656 159.013 38.4111 159.058 38.3566 159.058Z" fill="url(#paint45_linear_939_5486)"/>
<path d="M50.6935 119.916L51.1295 120.959C51.1295 120.959 51.5656 122.211 52.1379 121.739C52.6104 121.358 52.6921 121.385 52.7103 121.413C52.7103 121.422 52.7103 121.422 52.7103 121.422C52.7194 121.422 52.7285 121.168 52.7285 120.95C52.8375 121.249 52.9737 121.73 52.9737 122.329C52.9737 122.909 52.9737 123.526 52.5195 123.997C52.4922 124.025 52.0017 124.523 51.3294 124.505C51.3294 124.505 51.0659 124.496 50.0757 124.034C50.0757 124.034 51.4384 123.508 51.502 123.317C51.6928 122.8 51.0296 122.31 50.7661 121.068C50.6844 120.606 50.6753 120.197 50.6935 119.916Z" fill="#26264F"/>
<path opacity="0.3" d="M63.594 163.329C60.9685 164.672 54.2003 167.084 46.133 165.887C42.4445 165.343 39.501 164.118 37.4297 163.021C37.6841 162.259 37.8839 161.534 38.0293 160.854C43.3893 164.608 45.6333 160.953 49.1037 160.101C52.7104 159.212 57.3436 161.062 54.5183 152.755C51.6929 144.448 56.3807 145.046 56.3807 145.046L64.0755 146.361C64.13 146.878 64.1664 147.314 64.1936 147.658C64.8659 156.482 64.1936 160.554 63.594 163.329Z" fill="url(#paint46_linear_939_5486)"/>
<path d="M83.4355 141.51C84.4893 142.244 85.0526 143.242 85.3433 143.877C84.5711 145.69 82.8177 149.046 79.1929 151.522C73.2514 155.585 64.5299 155.721 58.4613 151.086C51.2025 145.554 49.9942 134.944 53.0376 130.4C53.3919 129.874 54.5457 128.16 56.3354 127.961C57.4619 127.834 59.0063 128.305 61.432 131.144C66.5013 137.066 64.7116 140.766 67.7005 142.498C72.1884 145.092 78.8567 138.308 83.4355 141.51Z" fill="url(#paint47_linear_939_5486)"/>
<path d="M63.0129 153.635C63.0038 153.635 62.9947 153.635 62.9856 153.635C62.9129 153.617 55.7723 151.984 52.5653 143.151C52.5381 143.088 52.5744 143.015 52.638 142.988C52.7016 142.961 52.7743 142.997 52.8015 143.06C55.963 151.758 62.9674 153.372 63.0401 153.39C63.1037 153.408 63.1491 153.472 63.131 153.535C63.1219 153.599 63.0674 153.635 63.0129 153.635Z" fill="url(#paint48_linear_939_5486)"/>
<path d="M90.1672 139.977C90.1672 139.977 89.6403 138.961 88.9044 139.46C88.1685 139.959 87.1329 140.303 87.8233 140.476C88.5138 140.657 90.1672 139.977 90.1672 139.977Z" fill="url(#paint49_linear_939_5486)"/>
<path d="M69.4901 63.3896C69.4901 79.7138 56.6986 92.5554 40.355 92.0567C23.3482 91.5397 9.03955 76.8752 9.03955 59.3177C9.03955 41.7692 23.3482 29.0273 40.355 30.7957C56.7077 32.5007 69.4901 47.0655 69.4901 63.3896Z" fill="url(#paint50_linear_939_5486)"/>
<path d="M73.9051 61.9838C73.9051 78.308 61.1136 91.1497 44.77 90.6509C27.7632 90.1339 13.4546 75.4694 13.4546 57.9209C13.4546 40.3725 27.7632 27.6306 44.77 29.399C61.1227 31.0949 73.9051 45.6597 73.9051 61.9838Z" fill="url(#paint51_linear_939_5486)"/>
<path d="M72.6245 61.8931C72.6245 77.5008 60.3872 89.753 44.7794 89.2542C28.563 88.7282 14.9448 74.7348 14.9448 58.0116C14.9448 41.2884 28.5539 29.1269 44.7794 30.7865C60.3872 32.3827 72.6245 46.2854 72.6245 61.8931Z" fill="url(#paint52_linear_939_5486)"/>
<path d="M71.7066 61.8297C71.7066 76.9205 59.869 88.7645 44.7791 88.2567C29.1168 87.7307 15.9893 74.2179 15.9893 58.0842C15.9893 41.9505 29.1168 30.2062 44.77 31.7842C59.869 33.3078 71.7066 46.7389 71.7066 61.8297Z" fill="url(#paint53_linear_939_5486)"/>
<path d="M44.625 36.9171C45.4244 36.9896 46.0785 37.7152 46.0785 38.5314V41.3065C47.6866 41.4879 49.2946 41.7599 50.9026 42.1408C52.0927 42.422 53.2737 42.7484 54.4366 43.1384C55.1361 43.3651 55.6176 44.0725 55.5449 44.8071L55.1997 48.2896C55.1089 49.2146 54.1913 49.7588 53.3282 49.3688C52.556 49.0242 51.7657 48.734 50.9571 48.4891C49.5399 48.0629 48.05 47.7817 46.4783 47.6548L46.0695 47.6185V55.572C50.2576 56.7419 53.3373 58.3199 55.3269 60.2969C57.3074 62.2649 58.2886 64.7226 58.2886 67.67C58.2886 70.8623 57.1984 73.4106 55.0089 75.3333C52.8104 77.2649 49.7216 78.3532 45.7333 78.589V81.6543C45.7333 82.4705 45.0792 83.1054 44.2797 83.0691H44.2525C43.4439 83.0328 42.7898 82.3526 42.7898 81.5274V78.4983L42.1448 78.4711C40.2733 78.3895 38.4836 78.199 36.7757 77.8998C35.5038 77.6821 34.2683 77.3919 33.06 77.0473C32.3332 76.8387 31.8244 76.1404 31.8971 75.3967L32.2968 70.9167C32.3877 69.9463 33.3598 69.384 34.2773 69.7468C35.3494 70.173 36.4395 70.5267 37.5388 70.8169C39.2558 71.2704 41.0001 71.5606 42.7626 71.6875L42.7898 62.8362C38.7653 61.8386 35.7582 60.3695 33.7777 58.4196C31.7881 56.4607 30.7979 53.9577 30.7979 50.9105C30.7979 47.7545 31.8789 45.324 34.0321 43.6191C36.1761 41.9232 39.2195 41.0707 43.1532 41.0797V38.2412C43.1623 37.4431 43.8164 36.8445 44.625 36.9171ZM43.1623 47.5369C41.9177 47.6275 40.9547 47.9722 40.2552 48.5617C39.5647 49.1511 39.2104 49.9492 39.2104 50.9468C39.2104 51.89 39.5284 52.688 40.1734 53.3229C40.8184 53.9577 41.8087 54.4655 43.1532 54.8464V47.5369H43.1623ZM45.7424 63.5708V71.6875C47.096 71.6875 48.1317 71.3701 48.8494 70.7262C49.5671 70.0823 49.9305 69.1754 49.9305 67.9965C49.9305 66.9263 49.5944 66.0285 48.9221 65.3211C48.2589 64.6047 47.196 64.0242 45.7424 63.5708Z" fill="url(#paint54_linear_939_5486)"/>
<path opacity="0.3" d="M39.9007 65.5298C40.8092 56.5606 49.0673 52.7607 47.9953 44.5079C47.3321 39.4202 43.4711 35.1397 39.1649 31.7932C26.1009 33.1626 15.9985 43.9638 15.9985 58.0842C15.9985 74.2179 29.1261 87.7306 44.7793 88.2566C46.2965 88.311 47.7864 88.2294 49.2309 88.039C43.0078 81.863 39.1194 73.2384 39.9007 65.5298Z" fill="url(#paint55_linear_939_5486)"/>
<path d="M97.2713 20.4116C97.2713 30.1607 89.631 37.8331 79.8738 37.5338C69.717 37.2255 61.1772 28.4648 61.1772 17.9811C61.1772 7.49737 69.717 -0.102431 79.8738 0.949569C89.631 1.96529 97.2713 10.6624 97.2713 20.4116Z" fill="url(#paint56_linear_939_5486)"/>
<path d="M99.9061 19.5774C99.9061 29.3265 92.2657 36.9988 82.5086 36.6996C72.3518 36.3912 63.812 27.6306 63.812 17.1469C63.812 6.66314 72.3518 -0.93666 82.5086 0.115341C92.2657 1.13107 99.9061 9.82821 99.9061 19.5774Z" fill="url(#paint57_linear_939_5486)"/>
<path d="M99.1426 19.523C99.1426 28.8459 91.8384 36.1646 82.5082 35.8562C72.8238 35.5388 64.6929 27.1863 64.6929 17.2013C64.6929 7.21641 72.8238 -0.0478333 82.5082 0.949754C91.8293 1.902 99.1426 10.2001 99.1426 19.523Z" fill="url(#paint58_linear_939_5486)"/>
<path d="M98.5885 19.4868C98.5885 28.5013 91.5205 35.5661 82.5083 35.2668C73.16 34.9494 65.3198 26.878 65.3198 17.2467C65.3198 7.61549 73.16 0.596109 82.5083 1.53928C91.5205 2.45525 98.5885 10.4722 98.5885 19.4868Z" fill="url(#paint59_linear_939_5486)"/>
<path d="M82.4175 4.60441C82.899 4.64976 83.2896 5.08507 83.2896 5.56573V7.22535C84.2526 7.33417 85.2065 7.49742 86.1695 7.72414C86.8781 7.88738 87.5868 8.0869 88.2863 8.31362C88.7042 8.44966 88.9949 8.8759 88.9495 9.31121L88.7496 11.388C88.6951 11.9412 88.15 12.2677 87.6322 12.0319C87.1689 11.8233 86.6964 11.651 86.2149 11.5059C85.3701 11.252 84.4797 11.0887 83.544 11.0071L83.2987 10.989V15.7411C85.797 16.4394 87.6413 17.3826 88.8223 18.5616C90.0033 19.7405 90.5938 21.2006 90.5938 22.9691C90.5938 24.8736 89.9397 26.3972 88.6406 27.5489C87.3233 28.7007 85.4882 29.3536 83.0989 29.4987V31.3307C83.0989 31.8204 82.7082 32.1922 82.2267 32.1741H82.2085C81.727 32.156 81.3364 31.7478 81.3364 31.2581V29.4534L80.9457 29.4353C79.8283 29.3808 78.7563 29.272 77.7388 29.0906C76.9848 28.9637 76.2398 28.7914 75.5221 28.5828C75.086 28.4558 74.7862 28.0386 74.8226 27.5943L75.0588 24.9189C75.1133 24.3385 75.6947 24.0029 76.2398 24.2206C76.8848 24.4745 77.5298 24.6831 78.193 24.8554C79.2196 25.1275 80.2553 25.2998 81.3091 25.3724L81.3273 20.0851C78.9289 19.4957 77.1301 18.616 75.9491 17.4461C74.759 16.2762 74.1685 14.7798 74.1685 12.9569C74.1685 11.0706 74.8135 9.61955 76.1035 8.60383C77.3845 7.58811 79.2015 7.08024 81.5544 7.08931V5.41155C81.5453 4.92183 81.936 4.55907 82.4175 4.60441ZM81.5453 10.9527C80.8004 11.0071 80.228 11.2066 79.8101 11.5603C79.3922 11.914 79.1833 12.3856 79.1833 12.9841C79.1833 13.5464 79.3741 14.018 79.7556 14.3989C80.1372 14.7798 80.7368 15.0791 81.5363 15.3058V10.9527H81.5453ZM83.0807 20.5205V25.3724C83.8892 25.3724 84.507 25.1819 84.934 24.7919C85.361 24.411 85.579 23.8669 85.579 23.1595C85.579 22.5156 85.3791 21.9896 84.9794 21.5634C84.5888 21.1462 83.9528 20.7925 83.0807 20.5205Z" fill="url(#paint60_linear_939_5486)"/>
<path opacity="0.3" d="M79.6012 21.6903C80.1463 16.3306 85.0793 14.0633 84.4343 9.13886C84.0346 6.10075 81.727 3.5433 79.156 1.53906C71.3522 2.36434 65.3198 8.81238 65.3198 17.2465C65.3198 26.8778 73.16 34.9492 82.5083 35.2666C83.4168 35.2938 84.3071 35.2484 85.1611 35.1396C81.4545 31.4485 79.1288 26.2974 79.6012 21.6903Z" fill="url(#paint61_linear_939_5486)"/>
<defs>
<linearGradient id="paint0_linear_939_5486" x1="-14.5181" y1="127.5" x2="209.227" y2="170.561" gradientUnits="userSpaceOnUse">
<stop stop-color="#AA80F9"/>
<stop offset="0.9964" stop-color="#6165D7"/>
</linearGradient>
<linearGradient id="paint1_linear_939_5486" x1="122.414" y1="202.453" x2="132.1" y2="237.47" gradientUnits="userSpaceOnUse">
<stop stop-color="#311944"/>
<stop offset="1" stop-color="#893976"/>
</linearGradient>
<linearGradient id="paint2_linear_939_5486" x1="131.063" y1="227.204" x2="131.203" y2="215.394" gradientUnits="userSpaceOnUse">
<stop stop-color="#FFC444"/>
<stop offset="0.9964" stop-color="#F36F56"/>
</linearGradient>
<linearGradient id="paint3_linear_939_5486" x1="134.58" y1="199.087" x2="144.267" y2="234.104" gradientUnits="userSpaceOnUse">
<stop stop-color="#311944"/>
<stop offset="1" stop-color="#893976"/>
</linearGradient>
<linearGradient id="paint4_linear_939_5486" x1="144.743" y1="227.367" x2="144.883" y2="215.557" gradientUnits="userSpaceOnUse">
<stop stop-color="#FFC444"/>
<stop offset="0.9964" stop-color="#F36F56"/>
</linearGradient>
<linearGradient id="paint5_linear_939_5486" x1="124.243" y1="189.221" x2="136.839" y2="189.221" gradientUnits="userSpaceOnUse">
<stop stop-color="#444B8C"/>
<stop offset="0.9964" stop-color="#26264F"/>
</linearGradient>
<linearGradient id="paint6_linear_939_5486" x1="124.243" y1="189.221" x2="136.839" y2="189.221" gradientUnits="userSpaceOnUse">
<stop stop-color="#444B8C"/>
<stop offset="0.9964" stop-color="#26264F"/>
</linearGradient>
<linearGradient id="paint7_linear_939_5486" x1="131.354" y1="191.018" x2="150.476" y2="191.018" gradientUnits="userSpaceOnUse">
<stop stop-color="#444B8C"/>
<stop offset="0.9964" stop-color="#26264F"/>
</linearGradient>
<linearGradient id="paint8_linear_939_5486" x1="91.1314" y1="143.214" x2="102.941" y2="155.256" gradientUnits="userSpaceOnUse">
<stop stop-color="#FFC444"/>
<stop offset="0.9964" stop-color="#F36F56"/>
</linearGradient>
<linearGradient id="paint9_linear_939_5486" x1="143.395" y1="102.788" x2="86.8763" y2="160.673" gradientUnits="userSpaceOnUse">
<stop offset="0.003597" stop-color="#6165D7"/>
<stop offset="1" stop-color="#AA80F9"/>
</linearGradient>
<linearGradient id="paint10_linear_939_5486" x1="169.79" y1="193.28" x2="127.215" y2="132.05" gradientUnits="userSpaceOnUse">
<stop offset="0.003597" stop-color="#6165D7"/>
<stop offset="1" stop-color="#AA80F9"/>
</linearGradient>
<linearGradient id="paint11_linear_939_5486" x1="169.785" y1="193.283" x2="127.21" y2="132.053" gradientUnits="userSpaceOnUse">
<stop stop-color="#AA80F9"/>
<stop offset="0.9964" stop-color="#6165D7"/>
</linearGradient>
<linearGradient id="paint12_linear_939_5486" x1="155.743" y1="167.786" x2="157.804" y2="167.786" gradientUnits="userSpaceOnUse">
<stop stop-color="#FFC444"/>
<stop offset="0.9964" stop-color="#F36F56"/>
</linearGradient>
<linearGradient id="paint13_linear_939_5486" x1="152.451" y1="171.964" x2="152.944" y2="164.612" gradientUnits="userSpaceOnUse">
<stop offset="0.0999605" stop-color="#311944"/>
<stop offset="0.267" stop-color="#371B47"/>
<stop offset="0.4803" stop-color="#462150"/>
<stop offset="0.7186" stop-color="#612A5F"/>
<stop offset="0.9736" stop-color="#853774"/>
<stop offset="1" stop-color="#893976"/>
</linearGradient>
<linearGradient id="paint14_linear_939_5486" x1="149.678" y1="166.668" x2="155.331" y2="169.704" gradientUnits="userSpaceOnUse">
<stop offset="0.0999605" stop-color="#311944"/>
<stop offset="0.267" stop-color="#371B47"/>
<stop offset="0.4803" stop-color="#462150"/>
<stop offset="0.7186" stop-color="#612A5F"/>
<stop offset="0.9736" stop-color="#853774"/>
<stop offset="1" stop-color="#893976"/>
</linearGradient>
<linearGradient id="paint15_linear_939_5486" x1="147.731" y1="167.937" x2="149.55" y2="167.937" gradientUnits="userSpaceOnUse">
<stop stop-color="#FFC444"/>
<stop offset="0.9964" stop-color="#F36F56"/>
</linearGradient>
<linearGradient id="paint16_linear_939_5486" x1="141.636" y1="176.121" x2="138.413" y2="146.61" gradientUnits="userSpaceOnUse">
<stop offset="0.0999605" stop-color="#311944"/>
<stop offset="0.6853" stop-color="#6D2F66"/>
<stop offset="1" stop-color="#893976"/>
</linearGradient>
<linearGradient id="paint17_linear_939_5486" x1="155.706" y1="188.366" x2="134.309" y2="176.43" gradientUnits="userSpaceOnUse">
<stop stop-color="#311944"/>
<stop offset="1" stop-color="#893976"/>
</linearGradient>
<linearGradient id="paint18_linear_939_5486" x1="136.382" y1="171.803" x2="142.823" y2="182.624" gradientUnits="userSpaceOnUse">
<stop stop-color="#311944"/>
<stop offset="1" stop-color="#893976"/>
</linearGradient>
<linearGradient id="paint19_linear_939_5486" x1="152.836" y1="158.908" x2="155.183" y2="190.464" gradientUnits="userSpaceOnUse">
<stop offset="0.0999605" stop-color="#311944"/>
<stop offset="0.6853" stop-color="#6D2F66"/>
<stop offset="1" stop-color="#893976"/>
</linearGradient>
<linearGradient id="paint20_linear_939_5486" x1="148.652" y1="176.771" x2="165.973" y2="190.14" gradientUnits="userSpaceOnUse">
<stop stop-color="#311944"/>
<stop offset="1" stop-color="#893976"/>
</linearGradient>
<linearGradient id="paint21_linear_939_5486" x1="144.185" y1="174.961" x2="151.488" y2="174.677" gradientUnits="userSpaceOnUse">
<stop offset="0.0999605" stop-color="#311944"/>
<stop offset="0.6853" stop-color="#6D2F66"/>
<stop offset="1" stop-color="#893976"/>
</linearGradient>
<linearGradient id="paint22_linear_939_5486" x1="155.552" y1="199.416" x2="153.025" y2="170.966" gradientUnits="userSpaceOnUse">
<stop offset="0.0999605" stop-color="#311944"/>
<stop offset="0.267" stop-color="#371B47"/>
<stop offset="0.4803" stop-color="#462150"/>
<stop offset="0.7186" stop-color="#612A5F"/>
<stop offset="0.9736" stop-color="#853774"/>
<stop offset="1" stop-color="#893976"/>
</linearGradient>
<linearGradient id="paint23_linear_939_5486" x1="156.789" y1="206.015" x2="152.502" y2="166.766" gradientUnits="userSpaceOnUse">
<stop stop-color="#311944"/>
<stop offset="1" stop-color="#893976"/>
</linearGradient>
<linearGradient id="paint24_linear_939_5486" x1="162.853" y1="185.333" x2="149.894" y2="178.546" gradientUnits="userSpaceOnUse">
<stop stop-color="#FFC444"/>
<stop offset="0.9964" stop-color="#F36F56"/>
</linearGradient>
<linearGradient id="paint25_linear_939_5486" x1="151.226" y1="179.606" x2="164.457" y2="184.349" gradientUnits="userSpaceOnUse">
<stop stop-color="#FFC444"/>
<stop offset="0.9964" stop-color="#F36F56"/>
</linearGradient>
<linearGradient id="paint26_linear_939_5486" x1="153.924" y1="175.493" x2="152.822" y2="163.09" gradientUnits="userSpaceOnUse">
<stop stop-color="#FFC444"/>
<stop offset="0.9964" stop-color="#F36F56"/>
</linearGradient>
<linearGradient id="paint27_linear_939_5486" x1="186.038" y1="191.114" x2="139.249" y2="123.825" gradientUnits="userSpaceOnUse">
<stop offset="0.003597" stop-color="#6165D7"/>
<stop offset="1" stop-color="#AA80F9"/>
</linearGradient>
<linearGradient id="paint28_linear_939_5486" x1="131.337" y1="124.966" x2="131.337" y2="112.659" gradientUnits="userSpaceOnUse">
<stop stop-color="#FFC444"/>
<stop offset="0.9964" stop-color="#F36F56"/>
</linearGradient>
<linearGradient id="paint29_linear_939_5486" x1="133.827" y1="121.248" x2="128.739" y2="108.304" gradientUnits="userSpaceOnUse">
<stop stop-color="#444B8C"/>
<stop offset="0.9964" stop-color="#3E4177"/>
</linearGradient>
<linearGradient id="paint30_linear_939_5486" x1="123.157" y1="117.445" x2="134.101" y2="111.473" gradientUnits="userSpaceOnUse">
<stop stop-color="#FFC444"/>
<stop offset="0.9964" stop-color="#F36F56"/>
</linearGradient>
<linearGradient id="paint31_linear_939_5486" x1="129.242" y1="114.441" x2="128.217" y2="129.489" gradientUnits="userSpaceOnUse">
<stop stop-color="#444B8C"/>
<stop offset="0.9964" stop-color="#26264F"/>
</linearGradient>
<linearGradient id="paint32_linear_939_5486" x1="132.027" y1="144.421" x2="132.027" y2="110.619" gradientUnits="userSpaceOnUse">
<stop stop-color="#444B8C"/>
<stop offset="0.9964" stop-color="#26264F"/>
</linearGradient>
<linearGradient id="paint33_linear_939_5486" x1="83.3859" y1="141.359" x2="91.7626" y2="141.359" gradientUnits="userSpaceOnUse">
<stop stop-color="#FFC444"/>
<stop offset="0.9964" stop-color="#F36F56"/>
</linearGradient>
<linearGradient id="paint34_linear_939_5486" x1="42.034" y1="157.532" x2="34.5129" y2="127.395" gradientUnits="userSpaceOnUse">
<stop stop-color="#FF9085"/>
<stop offset="1" stop-color="#FB6FBB"/>
</linearGradient>
<linearGradient id="paint35_linear_939_5486" x1="34.8292" y1="227.331" x2="30.8433" y2="229.985" gradientUnits="userSpaceOnUse">
<stop stop-color="#444B8C"/>
<stop offset="0.9964" stop-color="#26264F"/>
</linearGradient>
<linearGradient id="paint36_linear_939_5486" x1="30.9683" y1="230.003" x2="31.8383" y2="223.838" gradientUnits="userSpaceOnUse">
<stop stop-color="#FFC444"/>
<stop offset="0.9964" stop-color="#F36F56"/>
</linearGradient>
<linearGradient id="paint37_linear_939_5486" x1="34.5295" y1="226.881" x2="30.5437" y2="229.534" gradientUnits="userSpaceOnUse">
<stop stop-color="#444B8C"/>
<stop offset="0.9964" stop-color="#26264F"/>
</linearGradient>
<linearGradient id="paint38_linear_939_5486" x1="60.1649" y1="229.307" x2="56.5908" y2="232.492" gradientUnits="userSpaceOnUse">
<stop stop-color="#444B8C"/>
<stop offset="0.9964" stop-color="#26264F"/>
</linearGradient>
<linearGradient id="paint39_linear_939_5486" x1="56.7169" y1="232.492" x2="56.7169" y2="226.267" gradientUnits="userSpaceOnUse">
<stop stop-color="#FFC444"/>
<stop offset="0.9964" stop-color="#F36F56"/>
</linearGradient>
<linearGradient id="paint40_linear_939_5486" x1="70.4456" y1="150.229" x2="18.9573" y2="254.306" gradientUnits="userSpaceOnUse">
<stop stop-color="#444B8C"/>
<stop offset="0.9964" stop-color="#26264F"/>
</linearGradient>
<linearGradient id="paint41_linear_939_5486" x1="75.9562" y1="165.21" x2="16.9996" y2="124.136" gradientUnits="userSpaceOnUse">
<stop stop-color="#FF9085"/>
<stop offset="1" stop-color="#FB6FBB"/>
</linearGradient>
<linearGradient id="paint42_linear_939_5486" x1="59.8053" y1="228.903" x2="56.2311" y2="232.088" gradientUnits="userSpaceOnUse">
<stop stop-color="#444B8C"/>
<stop offset="0.9964" stop-color="#26264F"/>
</linearGradient>
<linearGradient id="paint43_linear_939_5486" x1="40.3354" y1="122.632" x2="53.8713" y2="122.632" gradientUnits="userSpaceOnUse">
<stop stop-color="#FFC444"/>
<stop offset="0.9964" stop-color="#F36F56"/>
</linearGradient>
<linearGradient id="paint44_linear_939_5486" x1="49.7421" y1="121.444" x2="50.8823" y2="121.444" gradientUnits="userSpaceOnUse">
<stop stop-color="#FFC444"/>
<stop offset="0.9964" stop-color="#F36F56"/>
</linearGradient>
<linearGradient id="paint45_linear_939_5486" x1="35.0989" y1="151.035" x2="38.5744" y2="151.035" gradientUnits="userSpaceOnUse">
<stop stop-color="#FF9085"/>
<stop offset="1" stop-color="#FB6FBB"/>
</linearGradient>
<linearGradient id="paint46_linear_939_5486" x1="37.4267" y1="155.624" x2="64.4723" y2="155.624" gradientUnits="userSpaceOnUse">
<stop stop-color="#FF9085"/>
<stop offset="1" stop-color="#FB6FBB"/>
</linearGradient>
<linearGradient id="paint47_linear_939_5486" x1="26.0262" y1="168.472" x2="82.3693" y2="129.218" gradientUnits="userSpaceOnUse">
<stop stop-color="#FF9085"/>
<stop offset="1" stop-color="#FB6FBB"/>
</linearGradient>
<linearGradient id="paint48_linear_939_5486" x1="52.5591" y1="148.308" x2="63.136" y2="148.308" gradientUnits="userSpaceOnUse">
<stop stop-color="#FF9085"/>
<stop offset="1" stop-color="#FB6FBB"/>
</linearGradient>
<linearGradient id="paint49_linear_939_5486" x1="88.1316" y1="139.36" x2="91.0558" y2="142.342" gradientUnits="userSpaceOnUse">
<stop stop-color="#FFC444"/>
<stop offset="0.9964" stop-color="#F36F56"/>
</linearGradient>
<linearGradient id="paint50_linear_939_5486" x1="28.9094" y1="64.6657" x2="-6.33101" y2="75.9952" gradientUnits="userSpaceOnUse">
<stop stop-color="#FCB148"/>
<stop offset="0.0520724" stop-color="#FDBA46"/>
<stop offset="0.1424" stop-color="#FFC244"/>
<stop offset="0.3183" stop-color="#FFC444"/>
<stop offset="0.4849" stop-color="#FDB946"/>
<stop offset="0.7754" stop-color="#F99C4D"/>
<stop offset="0.8658" stop-color="#F8924F"/>
<stop offset="1" stop-color="#F8924F"/>
</linearGradient>
<linearGradient id="paint51_linear_939_5486" x1="57.4259" y1="29.6371" x2="26.0463" y2="98.9874" gradientUnits="userSpaceOnUse">
<stop stop-color="#FFDB44"/>
<stop offset="1" stop-color="#FEEF06"/>
</linearGradient>
<linearGradient id="paint52_linear_939_5486" x1="51.6372" y1="102.82" x2="45.5853" y2="69.701" gradientUnits="userSpaceOnUse">
<stop stop-color="#FCB148"/>
<stop offset="0.0520724" stop-color="#FDBA46"/>
<stop offset="0.1424" stop-color="#FFC244"/>
<stop offset="0.3183" stop-color="#FFC444"/>
<stop offset="0.4849" stop-color="#FDB946"/>
<stop offset="0.7754" stop-color="#F99C4D"/>
<stop offset="0.8658" stop-color="#F8924F"/>
<stop offset="1" stop-color="#F8924F"/>
</linearGradient>
<linearGradient id="paint53_linear_939_5486" x1="38.7623" y1="49.2195" x2="63.7157" y2="102.284" gradientUnits="userSpaceOnUse">
<stop stop-color="#FCB148"/>
<stop offset="0.0520724" stop-color="#FDBA46"/>
<stop offset="0.1424" stop-color="#FFC244"/>
<stop offset="0.3183" stop-color="#FFC444"/>
<stop offset="0.4849" stop-color="#FDB946"/>
<stop offset="0.7754" stop-color="#F99C4D"/>
<stop offset="0.8658" stop-color="#F8924F"/>
<stop offset="1" stop-color="#F8924F"/>
</linearGradient>
<linearGradient id="paint54_linear_939_5486" x1="37.7656" y1="37.808" x2="50.308" y2="84.8968" gradientUnits="userSpaceOnUse">
<stop stop-color="#FFDB44"/>
<stop offset="1" stop-color="#FEEF06"/>
</linearGradient>
<linearGradient id="paint55_linear_939_5486" x1="31.4003" y1="52.6513" x2="56.3033" y2="105.608" gradientUnits="userSpaceOnUse">
<stop stop-color="#FCB148"/>
<stop offset="0.0520724" stop-color="#FDBA46"/>
<stop offset="0.1424" stop-color="#FFC244"/>
<stop offset="0.3183" stop-color="#FFC444"/>
<stop offset="0.4849" stop-color="#FDB946"/>
<stop offset="0.7754" stop-color="#F99C4D"/>
<stop offset="0.8658" stop-color="#F8924F"/>
<stop offset="1" stop-color="#F8924F"/>
</linearGradient>
<linearGradient id="paint56_linear_939_5486" x1="73.0324" y1="21.177" x2="51.9876" y2="27.9427" gradientUnits="userSpaceOnUse">
<stop stop-color="#FCB148"/>
<stop offset="0.0520724" stop-color="#FDBA46"/>
<stop offset="0.1424" stop-color="#FFC244"/>
<stop offset="0.3183" stop-color="#FFC444"/>
<stop offset="0.4849" stop-color="#FDB946"/>
<stop offset="0.7754" stop-color="#F99C4D"/>
<stop offset="0.8658" stop-color="#F8924F"/>
<stop offset="1" stop-color="#F8924F"/>
</linearGradient>
<linearGradient id="paint57_linear_939_5486" x1="90.0621" y1="0.258912" x2="71.3229" y2="41.6734" gradientUnits="userSpaceOnUse">
<stop stop-color="#FFDB44"/>
<stop offset="1" stop-color="#FEEF06"/>
</linearGradient>
<linearGradient id="paint58_linear_939_5486" x1="86.6047" y1="43.9621" x2="82.9906" y2="24.1843" gradientUnits="userSpaceOnUse">
<stop stop-color="#FCB148"/>
<stop offset="0.0520724" stop-color="#FDBA46"/>
<stop offset="0.1424" stop-color="#FFC244"/>
<stop offset="0.3183" stop-color="#FFC444"/>
<stop offset="0.4849" stop-color="#FDB946"/>
<stop offset="0.7754" stop-color="#F99C4D"/>
<stop offset="0.8658" stop-color="#F8924F"/>
<stop offset="1" stop-color="#F8924F"/>
</linearGradient>
<linearGradient id="paint59_linear_939_5486" x1="78.9164" y1="11.9532" x2="93.818" y2="43.6419" gradientUnits="userSpaceOnUse">
<stop stop-color="#FCB148"/>
<stop offset="0.0520724" stop-color="#FDBA46"/>
<stop offset="0.1424" stop-color="#FFC244"/>
<stop offset="0.3183" stop-color="#FFC444"/>
<stop offset="0.4849" stop-color="#FDB946"/>
<stop offset="0.7754" stop-color="#F99C4D"/>
<stop offset="0.8658" stop-color="#F8924F"/>
<stop offset="1" stop-color="#F8924F"/>
</linearGradient>
<linearGradient id="paint60_linear_939_5486" x1="78.321" y1="5.13834" x2="85.811" y2="33.2588" gradientUnits="userSpaceOnUse">
<stop stop-color="#FFDB44"/>
<stop offset="1" stop-color="#FEEF06"/>
</linearGradient>
<linearGradient id="paint61_linear_939_5486" x1="74.5198" y1="14.0024" x2="89.3914" y2="45.6271" gradientUnits="userSpaceOnUse">
<stop stop-color="#FCB148"/>
<stop offset="0.0520724" stop-color="#FDBA46"/>
<stop offset="0.1424" stop-color="#FFC244"/>
<stop offset="0.3183" stop-color="#FFC444"/>
<stop offset="0.4849" stop-color="#FDB946"/>
<stop offset="0.7754" stop-color="#F99C4D"/>
<stop offset="0.8658" stop-color="#F8924F"/>
<stop offset="1" stop-color="#F8924F"/>
</linearGradient>
</defs>
</svg>
