<svg width="140" height="148" viewBox="0 0 140 148" fill="none" xmlns="http://www.w3.org/2000/svg">
<g clip-path="url(#clip0_106_2379)">
<path d="M112.393 37.4768C111.345 43.3227 113.99 49.8549 119.207 52.6681C122.053 54.1929 125.371 54.5586 128.324 55.8471C131.277 57.1355 134.057 59.96 133.58 63.1614C133.261 65.2882 131.311 69.9131 137.206 73.7279C142.064 76.873 138.887 89.2681 121.863 92.025C116.657 92.869 120.484 89.2906 115.458 87.687C110.431 86.0835 106.329 82.4938 103.41 78.1671C100.49 73.8404 98.7251 68.8104 97.5315 63.7241C96.1641 57.8613 95.5533 51.526 97.8285 45.9502C100.104 40.3744 105.999 35.9351 112.393 37.4768Z" fill="#1D1D1D"/>
<path d="M120.512 92.4638C118.949 92.4638 118.59 91.7661 118.271 90.7252C117.968 89.7743 117.626 88.6941 115.385 87.9795C110.694 86.4885 106.357 83.062 103.169 78.3358C100.58 74.493 98.6407 69.7386 97.251 63.7915C95.5082 56.3252 95.6035 50.62 97.5648 45.8376C98.7441 42.9378 100.79 40.4767 103.421 38.7933C104.742 37.9206 106.226 37.3273 107.783 37.0497C109.34 36.772 110.937 36.8159 112.476 37.1785C112.553 37.1961 112.621 37.2426 112.665 37.3086C112.708 37.3745 112.725 37.4548 112.712 37.533C111.641 43.5082 114.443 49.7592 119.369 52.4036C120.962 53.1819 122.634 53.7856 124.356 54.2041C125.754 54.5672 127.127 55.024 128.464 55.5713C131.434 56.871 134.404 59.8136 133.9 63.2063C133.855 63.482 133.787 63.8027 133.715 64.1347C133.227 66.4247 132.409 70.2506 137.385 73.469C139.195 74.6393 139.968 77.0361 139.408 79.7255C138.433 84.3899 133.278 90.4889 121.93 92.3287C121.462 92.4117 120.988 92.4569 120.512 92.4638ZM109.865 37.4823C104.485 37.4823 99.9464 41.5615 98.0972 46.0626C96.1919 50.7269 96.1022 56.314 97.817 63.6452C99.1843 69.5136 101.095 74.206 103.645 77.987C106.755 82.6007 110.98 85.9371 115.536 87.3887C118.075 88.1989 118.506 89.5493 118.82 90.5283C119.134 91.5073 119.33 92.1206 121.801 91.7155C132.84 89.9488 137.884 84.0691 138.792 79.5961C139.296 77.1655 138.629 75.0162 137.038 73.9697C131.708 70.5207 132.555 66.4303 133.115 63.9884C133.182 63.6508 133.25 63.3583 133.289 63.0994C133.743 60.0274 130.974 57.3267 128.212 56.117C126.902 55.581 125.558 55.1355 124.188 54.7836C122.423 54.3502 120.71 53.7277 119.078 52.9269C114.001 50.2093 111.075 43.8402 112.051 37.6961C111.331 37.5494 110.599 37.4778 109.865 37.4823Z" fill="#1D1D1D"/>
<path d="M91.9332 23.332C93.6591 31.7717 84.2336 43.7278 80.7873 51.6217C79.6666 54.1874 78.0471 56.5223 77.1225 59.1668C76.0353 62.3063 76.0017 65.7215 76.2987 69.0355C76.8591 75.3034 78.7363 81.7344 83.1241 86.2243C87.5118 90.7141 94.8527 92.6721 100.272 89.5045C105.018 86.725 107.187 80.7497 106.89 75.2358C106.593 69.7219 104.25 64.5456 101.773 59.6225C95.8558 47.7507 100.019 33.5496 91.9332 23.332Z" fill="#1D1D1D"/>
<path d="M94.2977 91.3501C90.0068 91.2858 85.9155 89.5201 82.9165 86.4382C78.9939 82.4378 76.6795 76.592 76.0015 69.0638C75.6316 64.9621 75.9006 61.7832 76.8476 59.0656C77.4288 57.531 78.1295 56.0448 78.9434 54.6208C79.5038 53.608 80.0642 52.5615 80.5181 51.4981C81.5099 49.2475 82.9949 46.62 84.5584 43.8686C88.4474 37.0438 92.8519 29.3018 91.6471 23.3941C91.6137 23.3195 91.6111 23.2346 91.64 23.1581C91.6689 23.0816 91.7269 23.0197 91.8012 22.9862C91.8755 22.9526 91.9601 22.95 92.0363 22.979C92.1125 23.0081 92.174 23.0663 92.2075 23.1409C96.6905 28.8292 97.4302 35.5865 98.2035 42.7377C98.8087 48.3642 99.4363 54.2044 102.081 59.482C104.519 64.3432 106.923 69.5589 107.231 75.236C107.567 81.4701 104.906 87.1809 100.456 89.7859C98.5782 90.8473 96.4525 91.3872 94.2977 91.3501ZM92.4204 24.48C92.9248 30.4159 88.778 37.6965 85.0907 44.1725C83.5329 46.9125 82.0591 49.5007 81.0784 51.7456C80.6077 52.8315 80.0361 53.8893 79.4814 54.9133C78.6826 56.3083 77.995 57.7644 77.4248 59.2682C76.5114 61.9014 76.2536 64.9959 76.6123 69.0132C77.2791 76.395 79.5486 82.1115 83.3368 86.0106C87.9599 90.7424 95.1719 92.1265 100.109 89.2402C104.362 86.7477 106.906 81.2619 106.576 75.2529C106.279 69.7108 103.903 64.5626 101.499 59.7577C98.7975 54.3788 98.1363 48.5048 97.5759 42.7996C96.853 36.1436 96.1749 29.8307 92.4204 24.48Z" fill="#1D1D1D"/>
<path d="M103.488 66.8186C103.337 62.3175 103.409 57.8839 103.589 54.5193C101.776 53.6091 99.835 52.9812 97.8337 52.6569C96.9371 52.5106 95.9229 52.4544 95.2336 53.0001C94.8021 53.3377 92.7511 51.526 92.5382 52.0211C91.0812 55.4589 89.5962 63.7297 88.1392 67.1618C88.0216 67.4263 81.1682 68.3715 81.0561 68.636C80.5798 69.7612 84.0877 74.2624 84.4183 74.5043C103.118 86.9894 113.21 68.3153 113.21 68.3153C113.21 68.3153 108.744 67.8314 103.488 66.8186Z" fill="white"/>
<path d="M96.8367 79.1125C92.8132 79.1125 88.6048 77.6553 84.2675 74.7633C83.864 74.4932 80.1992 69.8683 80.7763 68.518C80.8772 68.276 81.0117 68.2085 84.5533 67.5952C85.8085 67.3814 87.5008 67.0832 87.9155 66.9482C88.7814 64.5189 89.4982 62.0386 90.0618 59.5213C90.7903 56.6293 91.5412 53.6417 92.3033 51.9031C92.3277 51.8448 92.3644 51.7925 92.4108 51.7498C92.4572 51.7071 92.5123 51.6749 92.5723 51.6556C92.8973 51.5487 93.3119 51.7793 94.0236 52.2182C94.3697 52.4566 94.7468 52.6459 95.1444 52.7809C95.9513 52.1676 97.0665 52.252 97.9462 52.3983C99.9788 52.7266 101.95 53.3641 103.791 54.2887C103.844 54.3164 103.888 54.3587 103.917 54.4105C103.947 54.4623 103.962 54.5215 103.959 54.5813C103.763 58.2779 103.724 62.644 103.847 66.6106C108.935 67.5727 113.284 68.0285 113.329 68.0341C113.378 68.0397 113.426 68.0575 113.467 68.086C113.508 68.1145 113.541 68.1527 113.564 68.1973C113.588 68.2411 113.601 68.2905 113.601 68.3407C113.601 68.391 113.588 68.4404 113.564 68.4842C113.519 68.5686 109.081 76.6144 100.849 78.6737C99.5346 78.985 98.187 79.1324 96.8367 79.1125ZM81.3143 68.8443C81.1854 69.8458 84.1162 73.8631 84.6149 74.2569C90.2187 78.0098 95.6263 79.2813 100.636 78.0323C107.568 76.305 111.726 70.1553 112.729 68.5461C111.44 68.3998 107.686 67.9384 103.432 67.1226C103.364 67.1097 103.302 67.0736 103.257 67.0203C103.212 66.967 103.187 66.8998 103.186 66.83C103.046 62.8578 103.079 58.4523 103.275 54.7051C101.54 53.8563 99.6896 53.2686 97.7837 52.9609C97.0104 52.8315 96.041 52.7527 95.4246 53.2422C95.0435 53.5348 94.4383 53.1803 93.6706 52.7302C93.3851 52.5483 93.0853 52.3902 92.774 52.2576C91.9141 54.6826 91.1993 57.157 90.6333 59.6676C89.9105 62.5596 89.1596 65.5472 88.4199 67.2858C88.3134 67.5277 88.1957 67.5896 84.6542 68.2029C83.4101 68.4167 81.7402 68.7093 81.3143 68.8443Z" fill="#1D1D1D"/>
<path d="M86.2514 23.1406C85.2315 27.2142 84.4077 31.5803 81.8916 35.0462C80.5187 36.9366 76.3495 47.6494 83.696 54.0916C85.7122 55.8559 88.0976 57.1426 90.6758 57.8565C93.254 58.5703 95.959 58.6931 98.5908 58.2158C102.513 57.5519 108.65 53.152 110.219 46.9236C112.533 48.679 115.822 47.9419 116.753 45.6013C117.313 44.2566 116.489 41.9723 114.887 41.4209C113.648 40.9989 113.497 40.9539 112.292 41.2971C112.744 38.1517 113.583 35.0749 114.791 32.1373C113.11 27.6981 109.042 24.1421 104.587 21.5427C103.122 20.6418 101.542 19.9435 99.8909 19.4666C95.1165 18.2288 87.2937 18.949 86.2514 23.1406Z" fill="white"/>
<path d="M95.3687 58.8011C90.9951 58.8117 86.7697 57.21 83.4943 54.3C79.4877 50.7834 78.9553 46.1135 79.2187 42.8164C79.5325 38.8779 80.9895 35.744 81.6451 34.8438C83.8194 31.8561 84.716 28.1371 85.5677 24.5418C85.691 24.0354 85.8143 23.5346 85.9376 23.0395L86.2346 23.1183L85.9376 23.0395C86.109 22.4263 86.4032 21.8545 86.802 21.3592C87.2009 20.8639 87.6962 20.4555 88.2575 20.1588C91.3284 18.3302 96.5735 18.2739 99.9469 19.146C101.626 19.6303 103.232 20.34 104.721 21.2559C108.403 23.3996 113.183 27.0062 115.06 32.008C115.088 32.0804 115.088 32.1607 115.06 32.2331C113.924 35.0083 113.121 37.9095 112.667 40.8753C113.547 40.6615 113.861 40.7459 114.987 41.1341C115.407 41.2975 115.79 41.5448 116.111 41.8611C116.433 42.1773 116.688 42.556 116.859 42.9739C117.275 43.8302 117.339 44.8162 117.038 45.7197C116.798 46.287 116.43 46.7908 115.963 47.1919C115.496 47.593 114.944 47.8805 114.349 48.0321C113.688 48.205 112.999 48.2397 112.324 48.1342C111.649 48.0287 111.003 47.7852 110.426 47.4188C108.627 53.6642 102.508 57.8671 98.6581 58.5198C97.5717 58.7083 96.4712 58.8025 95.3687 58.8011ZM95.2958 19.2304C92.8638 19.2304 90.3533 19.6637 88.605 20.7102C88.1135 20.9666 87.6792 21.3209 87.3285 21.7513C86.9778 22.1818 86.7181 22.6794 86.5652 23.2139L86.1954 24.7049C85.3156 28.3621 84.4021 32.1431 82.155 35.232C81.5554 36.0534 80.1433 39.1199 79.8463 42.8839C79.5941 46.046 80.0985 50.5134 83.9146 53.8611C85.893 55.6016 88.2376 56.8705 90.7732 57.573C93.3089 58.2755 95.9699 58.3934 98.5572 57.9178C102.222 57.2876 108.386 52.989 109.938 46.8449C109.951 46.7961 109.976 46.7511 110.01 46.714C110.044 46.6769 110.087 46.6488 110.135 46.6322C110.182 46.6155 110.233 46.6108 110.283 46.6185C110.333 46.6262 110.38 46.6459 110.42 46.6761C110.95 47.083 111.565 47.3633 112.218 47.4959C112.871 47.6285 113.546 47.6098 114.192 47.4413C114.698 47.3143 115.168 47.0722 115.567 46.7337C115.965 46.3952 116.281 45.9693 116.489 45.489C116.726 44.7448 116.664 43.9371 116.316 43.2384C116.178 42.8969 115.973 42.5869 115.713 42.3269C115.453 42.0668 115.143 41.8621 114.802 41.7249C113.586 41.3085 113.514 41.286 112.393 41.6011C112.343 41.6163 112.291 41.6186 112.24 41.6075C112.19 41.5965 112.143 41.5727 112.104 41.5382C112.065 41.5038 112.036 41.4599 112.019 41.4109C112.001 41.3618 111.997 41.3091 112.006 41.2579C112.456 38.1315 113.286 35.0722 114.477 32.1487C112.634 27.3719 108.016 23.9004 104.447 21.8242C101.725 20.0562 98.5364 19.1524 95.2958 19.2304Z" fill="#1D1D1D"/>
<path d="M100.742 46.5746C100.293 46.5756 99.8446 46.5207 99.4085 46.4115C98.6377 46.2085 97.9186 45.8439 97.2984 45.3415C96.6783 44.8391 96.1713 44.2105 95.8109 43.497C95.0487 41.977 94.8604 40.2313 95.2806 38.5827C95.7009 36.934 96.7014 35.4939 98.0972 34.5285C98.7505 34.0698 99.4947 33.7578 100.279 33.6139C101.063 33.47 101.869 33.4975 102.642 33.6946C103.414 33.8916 104.136 34.2535 104.757 34.7557C105.377 35.2579 105.883 35.8885 106.239 36.6046C107.027 38.1152 107.227 39.8661 106.8 41.5165C105.998 44.5323 103.454 46.5746 100.742 46.5746ZM101.303 34.1402C100.278 34.1475 99.2795 34.4609 98.4334 35.0405C97.1678 35.9249 96.2625 37.2381 95.8837 38.7388C95.5049 40.2396 95.678 41.8271 96.3712 43.21C96.6905 43.848 97.1415 44.4103 97.6942 44.8595C98.2469 45.3087 98.8886 45.6344 99.5766 45.8151C102.418 46.5409 105.382 44.5435 106.189 41.3646C106.591 39.8556 106.417 38.2504 105.701 36.8634C105.298 36.0376 104.672 35.3421 103.894 34.8557C103.117 34.3693 102.219 34.1117 101.303 34.1121V34.1402Z" fill="#1D1D1D"/>
<path d="M85.0185 41.1451C84.5689 41.1464 84.1209 41.0916 83.6848 40.9819C80.5186 40.1717 78.6414 36.6665 79.5492 33.1556C80.457 29.6447 83.7352 27.456 86.9013 28.2662C90.0674 29.0764 91.9447 32.5817 91.0369 36.087C90.2523 39.1027 87.7307 41.1451 85.0185 41.1451ZM85.5788 28.7107C83.1412 28.7107 80.8437 30.5731 80.1544 33.3075C79.3475 36.4864 81.0062 39.6597 83.8473 40.3855C86.6884 41.1114 89.6527 39.114 90.4541 35.935C91.261 32.7561 89.6023 29.5828 86.7612 28.857C86.3706 28.7606 85.9699 28.7115 85.5676 28.7107H85.5788Z" fill="#1D1D1D"/>
<path d="M119.939 21.6914C125.589 20.22 128.981 14.4286 127.516 8.75572C126.051 3.08288 120.282 -0.32313 114.633 1.14819C108.983 2.61952 105.59 8.411 107.056 14.0838C108.521 19.7567 114.289 23.1627 119.939 21.6914Z" fill="#1D1D1D"/>
<path d="M117.307 22.3418C117.005 22.3418 116.702 22.3418 116.394 22.3024C113.578 22.0608 110.969 20.7213 109.126 18.571C107.282 16.4207 106.351 13.6308 106.532 10.7994C106.713 7.96793 107.992 5.32037 110.094 3.42429C112.196 1.5282 114.954 0.534506 117.777 0.656239C120.601 0.777972 123.264 2.00544 125.196 4.07549C127.129 6.14555 128.177 8.89342 128.115 11.73C128.054 14.5666 126.888 17.2661 124.868 19.2498C122.847 21.2335 120.133 22.3434 117.307 22.3418ZM117.268 1.11324C115.274 1.11668 113.325 1.70302 111.657 2.80064C109.99 3.89826 108.677 5.45967 107.878 7.29416C107.08 9.12865 106.831 11.1568 107.162 13.131C107.493 15.1052 108.389 16.94 109.741 18.4112C111.093 19.8824 112.843 20.9264 114.776 21.4158C116.71 21.9051 118.743 21.8186 120.628 21.1668C122.514 20.5149 124.169 19.326 125.392 17.7452C126.616 16.1643 127.354 14.26 127.517 12.2648C127.629 10.9159 127.474 9.5582 127.063 8.26929C126.651 6.98038 125.99 5.78553 125.119 4.75303C124.247 3.72054 123.181 2.87064 121.982 2.25189C120.783 1.63315 119.475 1.2577 118.131 1.147C117.84 1.12449 117.554 1.11324 117.268 1.11324Z" fill="#1D1D1D"/>
<path d="M111.793 41.5616C110.835 36.6835 110.409 33.2795 111.457 28.227C100.087 30.0387 91.0088 27.4168 82.3174 23.5739C82.7209 21.9929 84.3515 18.7859 85.5395 17.6099C88.4479 14.7179 91.5468 12.4449 97.8117 12.1692C102.205 11.9779 107.663 12.8612 111.468 15.0499C115.273 17.2386 117.845 20.7776 119.622 24.5079C121.106 27.8895 121.555 31.6384 120.91 35.2769C120.35 38.394 118.792 40.2451 116.343 42.6757C115.783 41.9949 115.251 41.331 114.348 41.1565C113.476 41.0365 112.587 41.1774 111.793 41.5616Z" fill="#1D1D1D"/>
<path d="M116.354 42.9851C116.312 42.9835 116.271 42.9731 116.234 42.9547C116.196 42.9363 116.163 42.9103 116.136 42.8782L116.068 42.7938C115.508 42.1581 115.076 41.6067 114.32 41.466C113.5 41.3518 112.664 41.487 111.921 41.8542C111.839 41.888 111.746 41.888 111.664 41.8542C111.625 41.8316 111.591 41.8008 111.565 41.7639C111.539 41.727 111.521 41.6849 111.512 41.6404C110.644 37.2406 110.106 33.7015 111.087 28.6209C99.1617 30.4101 89.7923 27.2368 82.2216 23.8778C82.1541 23.8491 82.0993 23.7967 82.0674 23.7305C82.0354 23.6643 82.0285 23.5887 82.0479 23.5177C82.4738 21.8635 84.1549 18.6002 85.3485 17.413C88.0047 14.7742 91.1484 12.1748 97.828 11.8879C101.751 11.7135 107.45 12.3943 111.653 14.808C115.015 16.7547 117.817 19.9843 119.924 24.3729C121.444 27.8122 121.901 31.6304 121.235 35.3332C120.63 38.664 118.848 40.6502 116.584 42.8951C116.554 42.9255 116.518 42.9492 116.478 42.9647C116.439 42.9802 116.396 42.9872 116.354 42.9851ZM113.737 40.7965C113.965 40.7957 114.192 40.8165 114.415 40.8584C115.211 41.063 115.907 41.5483 116.376 42.2256C118.831 39.7612 120.103 38.0395 120.619 35.2263C121.245 31.6503 120.804 27.9682 119.352 24.643C117.307 20.3444 114.606 17.2105 111.327 15.3256C107.242 12.9738 101.683 12.3155 97.8337 12.4843C91.3781 12.7656 88.3073 15.2975 85.7632 17.8294C84.7041 18.8815 83.1911 21.7679 82.6923 23.4052C90.2462 26.7304 99.5596 29.8193 111.406 27.9063C111.455 27.8977 111.505 27.9014 111.553 27.917C111.6 27.9326 111.643 27.9597 111.677 27.9959C111.711 28.0321 111.736 28.0762 111.75 28.1244C111.763 28.1725 111.764 28.2233 111.753 28.272C110.705 33.3358 111.193 36.8411 112.028 41.1284C112.574 40.9173 113.152 40.805 113.737 40.7965Z" fill="#1D1D1D"/>
<path d="M94.0518 51.2953C93.4672 51.3294 92.8844 51.2028 92.366 50.9292C91.8477 50.6555 91.4134 50.2453 91.1098 49.7424C91.0712 49.6678 91.0637 49.5809 91.0889 49.5007C91.1141 49.4205 91.17 49.3536 91.2443 49.3148C91.3186 49.276 91.4053 49.2685 91.4851 49.2938C91.565 49.3191 91.6316 49.3753 91.6702 49.4499C91.9297 49.8646 92.2985 50.1992 92.7356 50.4167C93.1727 50.6341 93.6612 50.726 94.1471 50.6821C95.4302 50.6428 96.6527 50.1253 97.5766 49.2304C97.6056 49.2027 97.6399 49.181 97.6773 49.1666C97.7147 49.1522 97.7546 49.1453 97.7946 49.1463C97.8347 49.1474 97.8742 49.1563 97.9108 49.1727C97.9474 49.1891 97.9805 49.2125 98.0081 49.2417C98.0357 49.2709 98.0573 49.3052 98.0716 49.3428C98.086 49.3804 98.0929 49.4204 98.0918 49.4606C98.0908 49.5009 98.0819 49.5405 98.0656 49.5773C98.0493 49.614 98.0259 49.6472 97.9969 49.6749C96.9633 50.6767 95.5943 51.2547 94.1583 51.2953H94.0518Z" fill="#1D1D1D"/>
<path d="M100.653 40.2112C100.712 40.0199 100.712 39.8153 100.654 39.6237C100.596 39.4322 100.482 39.2626 100.326 39.1368C100.171 39.011 99.9823 38.9347 99.7836 38.9179C99.5849 38.901 99.3857 38.9443 99.2118 39.0423C99.0378 39.1402 98.8971 39.2882 98.8078 39.4672C98.7185 39.6462 98.6847 39.848 98.7107 40.0465C98.7367 40.245 98.8214 40.4311 98.9538 40.5808C99.0862 40.7305 99.2603 40.837 99.4535 40.8864C99.7017 40.9557 99.9671 40.9236 100.192 40.7971C100.416 40.6706 100.582 40.46 100.653 40.2112Z" fill="#1D1D1D"/>
<path d="M86.6156 35.4683C86.6756 35.276 86.6767 35.0701 86.6188 34.8771C86.5609 34.6842 86.4468 34.5131 86.291 34.386C86.1353 34.2589 85.9452 34.1816 85.7452 34.1642C85.5453 34.1467 85.3447 34.1899 85.1695 34.2881C84.9942 34.3863 84.8524 34.535 84.7622 34.7151C84.672 34.8951 84.6377 35.0981 84.6637 35.298C84.6897 35.4978 84.7748 35.6852 84.908 35.8359C85.0412 35.9866 85.2163 36.0938 85.4108 36.1435C85.5341 36.1795 85.6632 36.1905 85.7907 36.1759C85.9183 36.1614 86.0417 36.1215 86.1538 36.0587C86.2658 35.9959 86.3644 35.9114 86.4437 35.81C86.5229 35.7087 86.5814 35.5926 86.6156 35.4683Z" fill="#1D1D1D"/>
<path d="M89.6916 43.1483C89.6142 43.1483 89.5398 43.118 89.4843 43.0638L88.4196 42.0905C88.2972 42.0174 88.1986 41.9102 88.1358 41.7819C88.073 41.6536 88.0487 41.5097 88.0659 41.3677C88.0832 41.2258 88.1411 41.092 88.2328 40.9825C88.3244 40.8731 88.4458 40.7928 88.5821 40.7514C89.2985 40.309 89.9054 39.7089 90.3568 38.9963C90.8083 38.2838 91.0924 37.4775 91.1878 36.6385C91.1963 36.5573 91.2364 36.4827 91.2994 36.4311C91.3624 36.3795 91.4431 36.3549 91.5241 36.3628C91.5639 36.367 91.6025 36.3791 91.6376 36.3983C91.6728 36.4176 91.7038 36.4437 91.7288 36.4751C91.7538 36.5065 91.7724 36.5426 91.7834 36.5813C91.7944 36.6199 91.7977 36.6604 91.793 36.7004C91.6881 37.6331 91.3732 38.5296 90.8723 39.3221C90.3713 40.1146 89.6974 40.7823 88.9015 41.2746C88.7614 41.3647 88.683 41.4266 88.6717 41.4603C88.714 41.5268 88.767 41.5858 88.8287 41.6347L89.899 42.6137C89.9554 42.6716 89.9871 42.7494 89.9871 42.8304C89.9871 42.9114 89.9554 42.9891 89.899 43.047C89.8729 43.0769 89.8411 43.1012 89.8055 43.1186C89.7699 43.136 89.7312 43.1461 89.6916 43.1483Z" fill="#1D1D1D"/>
<path d="M96.2649 36.4977C96.2081 36.4977 96.1524 36.482 96.1039 36.4522C96.0554 36.4224 96.0161 36.3797 95.9903 36.3289C95.679 35.758 95.2383 35.2686 94.7039 34.9001C94.1695 34.5316 93.5563 34.2945 92.9138 34.2078C92.2526 34.1234 91.4849 34.3034 91.2944 34.8098C91.2801 34.8472 91.2586 34.8814 91.2311 34.9104C91.2037 34.9394 91.1708 34.9627 91.1343 34.9789C91.0979 34.9951 91.0586 35.0039 91.0187 35.0048C90.9789 35.0057 90.9393 34.9987 90.9021 34.9842C90.8639 34.9711 90.8288 34.9503 90.7988 34.9231C90.7689 34.8959 90.7448 34.8629 90.728 34.826C90.7113 34.7892 90.7022 34.7493 90.7012 34.7087C90.7003 34.6682 90.7077 34.6279 90.7228 34.5904C91.0366 33.7464 92.0901 33.4651 92.9923 33.6001C93.7325 33.7003 94.4389 33.9741 95.0541 34.3993C95.6694 34.8245 96.1763 35.3892 96.5339 36.0476C96.5715 36.12 96.579 36.2045 96.5549 36.2825C96.5307 36.3604 96.4768 36.4257 96.405 36.464C96.3615 36.4858 96.3135 36.4973 96.2649 36.4977Z" fill="#1D1D1D"/>
<path d="M111.484 41.4099C111.447 41.4154 111.409 41.4154 111.372 41.4099L106.816 39.6094C106.779 39.5951 106.745 39.5735 106.716 39.546C106.687 39.5184 106.664 39.4854 106.648 39.4488C106.632 39.4122 106.623 39.3727 106.622 39.3327C106.621 39.2927 106.628 39.2529 106.643 39.2156C106.673 39.1397 106.731 39.0788 106.806 39.0461C106.88 39.0134 106.965 39.0117 107.041 39.0412L111.596 40.836C111.672 40.8661 111.733 40.925 111.765 40.9998C111.798 41.0747 111.799 41.1594 111.77 41.2355C111.745 41.2895 111.704 41.3349 111.653 41.3659C111.603 41.397 111.544 41.4122 111.484 41.4099Z" fill="#1D1D1D"/>
<path d="M111.064 44.9374C111.025 44.9454 110.985 44.9454 110.947 44.9374C110.872 44.9062 110.813 44.8469 110.781 44.7722C110.75 44.6975 110.749 44.6133 110.778 44.5379C111.234 43.4133 111.455 42.207 111.428 40.9933C111.427 40.9121 111.457 40.8337 111.513 40.7747C111.568 40.7158 111.645 40.6811 111.725 40.6782C111.766 40.6767 111.806 40.6833 111.843 40.6975C111.881 40.7117 111.916 40.7334 111.945 40.7611C111.974 40.7889 111.997 40.8222 112.014 40.8592C112.03 40.8962 112.039 40.936 112.039 40.9764C112.071 42.2751 111.834 43.5662 111.344 44.7686C111.319 44.8207 111.279 44.8643 111.229 44.8942C111.179 44.9242 111.122 44.9391 111.064 44.9374Z" fill="#1D1D1D"/>
<path d="M120.512 106.266C124.939 103.683 132.28 94.5176 130.268 87.0907C129.198 83.1522 127.31 68.8892 106.621 67.5614C106.206 74.1781 99.7784 77.1657 95.6708 77.689C93.4293 77.959 85.0237 77.689 85.0237 67.8821C79.42 68.1859 72.3928 69.0524 61.544 73.3904C53.3233 76.6818 39.3083 78.8536 39.3083 78.8536C39.3083 78.8536 25.1364 60.6521 20.0482 53.1859C17.2463 49.0898 12.203 66.0704 9.09289 58.9023C8.62217 57.8164 23.6066 87.9122 24.8282 90.1853C31.1941 102.085 60.5801 94.557 66.2679 94.557C65.7076 102.845 69.2379 107.745 72.107 110.26C72.9924 129.39 68.3301 142.64 68.3301 142.64C68.3301 142.64 94.3988 152.363 121.386 144.357C123.443 143.693 116.203 126.937 120.512 106.266Z" fill="#FBD15B"/>
<path d="M98.5735 147.766C93.923 147.76 89.2788 147.422 84.6762 146.754C79.0765 145.988 73.5619 144.69 68.2068 142.877C68.1319 142.849 68.0711 142.793 68.0375 142.72C68.0039 142.647 68.0003 142.564 68.0275 142.489C68.0723 142.354 72.6337 129.137 71.7876 110.356C69.3387 108.173 65.4609 103.329 65.9261 94.8216C64.7381 94.8666 62.7599 95.1536 60.3223 95.5137C49.6304 97.0666 29.7314 99.9585 24.5536 90.2811C23.926 89.1108 19.768 80.8118 15.7557 72.7829C13.0659 67.4209 10.3088 61.907 9.26094 59.8421C9.08705 59.5678 8.93526 59.2799 8.80704 58.9813C8.78694 58.9438 8.77461 58.9026 8.7708 58.8602C8.76699 58.8178 8.77177 58.7751 8.78486 58.7346C8.79795 58.6941 8.81908 58.6567 8.84697 58.6246C8.87486 58.5926 8.90894 58.5665 8.94713 58.548C9.21611 58.4186 9.32259 58.6212 9.50751 58.9813C9.57475 59.1219 9.67001 59.302 9.78209 59.5439C9.88435 59.7481 10.0312 59.9265 10.2117 60.0658C10.3921 60.2051 10.6016 60.3017 10.8244 60.3485C12.0236 60.4779 13.5926 58.2104 14.9768 56.2187C16.3609 54.2269 17.7786 52.2014 19.0395 52.2014C19.2964 52.2162 19.5454 52.2956 19.7638 52.4322C19.9821 52.5689 20.1628 52.7584 20.2891 52.9835C25.0747 60.0053 38.0866 76.7664 39.4259 78.4937C41.079 78.2293 53.822 76.1137 61.4206 73.0811C72.2359 68.7544 79.4087 67.8541 84.9956 67.5447C85.0782 67.5437 85.1582 67.5738 85.2198 67.6291C85.2503 67.6579 85.2746 67.6928 85.291 67.7316C85.3074 67.7703 85.3156 67.812 85.315 67.8541C85.315 71.0837 86.2509 73.5537 88.0833 75.1685C90.4817 77.3065 93.9616 77.5316 95.6371 77.3347C99.1451 76.9127 105.892 74.3189 106.323 67.5166C106.326 67.4769 106.336 67.438 106.353 67.4022C106.37 67.3665 106.395 67.3346 106.424 67.3084C106.454 67.2805 106.49 67.2591 106.528 67.2455C106.567 67.232 106.608 67.2265 106.649 67.2296C114.97 67.7641 121.257 70.4592 125.326 75.2304C128.688 79.1689 129.753 83.6194 130.33 86.0162C130.42 86.3876 130.498 86.7139 130.571 86.9896C132.633 94.5966 125.253 103.751 120.787 106.44C117.985 119.944 120.193 131.973 121.347 138.443C122.076 142.477 122.412 144.317 121.442 144.604C114.009 146.748 106.308 147.813 98.5735 147.766ZM68.6999 142.399C73.9363 144.137 79.3194 145.393 84.7827 146.152C93.7487 147.446 107.399 148.132 121.286 144.013C121.728 143.884 121.213 141.054 120.759 138.556C119.576 132.018 117.363 119.854 120.198 106.181C120.208 106.139 120.225 106.1 120.25 106.065C120.275 106.03 120.307 106.001 120.344 105.979C124.827 103.363 131.877 94.2252 129.966 87.1472C129.887 86.8658 129.809 86.5395 129.714 86.1569C128.492 81.0931 125.628 69.1932 106.895 67.8654C106.754 69.3066 106.307 70.7008 105.584 71.9538C104.861 73.2069 103.879 74.2897 102.703 75.1291C100.639 76.6433 98.2282 77.6108 95.6932 77.9423C95.2057 78.0042 90.8123 78.4375 87.663 75.6299C85.7521 73.9419 84.7547 71.4157 84.693 68.1523C79.2013 68.4787 72.1574 69.4183 61.628 73.6269C53.4689 76.8902 39.4652 79.0845 39.3251 79.107C39.2718 79.1149 39.2174 79.1087 39.1672 79.089C39.1171 79.0693 39.073 79.0367 39.0393 78.9945C38.8936 78.8088 24.8001 60.6973 19.768 53.3098C19.6956 53.1692 19.5897 53.0489 19.4596 52.9595C19.3295 52.8702 19.1794 52.8146 19.0227 52.7978C18.07 52.7978 16.6803 54.7896 15.4587 56.5506C13.8336 58.8856 12.2982 61.0968 10.7459 60.9393C10.6473 60.9292 10.5498 60.9103 10.4545 60.883L11.4688 62.8973L16.2824 72.5072C20.1098 80.1591 24.4527 88.8238 25.0747 89.9941C30.0509 99.289 49.6752 96.4364 60.2214 94.906C62.2149 94.558 64.226 94.3214 66.2455 94.1971C66.2874 94.1966 66.329 94.2048 66.3676 94.2213C66.4061 94.2377 66.4409 94.2621 66.4696 94.2927C66.4991 94.323 66.5219 94.3592 66.5364 94.399C66.5509 94.4388 66.5568 94.4812 66.5537 94.5234C65.9933 103.098 69.9159 107.886 72.2863 109.979C72.3487 110.036 72.3869 110.114 72.3928 110.199C73.1997 127.646 69.3668 140.345 68.6999 142.399Z" fill="#1D1D1D"/>
<path d="M11.24 7.51611L72.0911 10.3631L64.0666 69.5644L2.90723 68.4391L11.24 7.51611Z" fill="white"/>
<path d="M64.0713 69.8684L2.9064 68.7431C2.82099 68.7369 2.741 68.6987 2.68226 68.6362C2.65442 68.6029 2.63361 68.5643 2.62108 68.5227C2.60856 68.4811 2.60459 68.4374 2.6094 68.3942L10.9366 7.47688C10.9521 7.40847 10.9907 7.34755 11.0458 7.30448C11.101 7.2614 11.1693 7.23882 11.2392 7.24057L72.0903 10.0538C72.1332 10.0549 72.1753 10.0652 72.2139 10.0839C72.2525 10.1026 72.2867 10.1293 72.3143 10.1623C72.3418 10.1953 72.3621 10.2337 72.3737 10.2752C72.3853 10.3166 72.3881 10.3601 72.3817 10.4026L64.3739 69.6039C64.3632 69.677 64.3269 69.7438 64.2714 69.7923C64.2159 69.8408 64.1449 69.8678 64.0713 69.8684ZM3.25944 68.1354L63.7799 69.2607L71.7597 10.6502L11.5194 7.83697L3.25944 68.1354Z" fill="#1D1D1D"/>
<path d="M79.2014 77.6327C77.3129 75.731 75.1611 73.9587 73.1774 69.3337C71.9109 66.3855 67.6521 59.8926 66.0886 59.0936C63.4605 57.7602 61.8802 56.5561 59.409 56.2185C57.3468 55.9428 53.2897 56.4717 53.172 57.1975C52.8077 59.4481 58.2154 58.019 58.6469 58.1822C60.2439 58.7448 61.813 59.3806 63.2307 61.1923C61.0228 61.2767 57.1731 61.7549 56.198 62.3851C55.223 63.0153 52.4827 66.3686 52.1801 66.9594C51.6478 67.989 52.1801 69.0074 53.4802 67.9328C53.5474 67.8765 56.142 66.0423 57.0834 64.8776C57.4645 64.4106 61.3366 64.0505 63.1074 64.3937C61.2806 63.7917 57.8231 64.1968 57.061 64.8889C56.8817 65.052 54.0181 68.1859 53.8388 68.5067C53.0879 69.8289 54.3656 70.324 55.3799 69.5644C56.5286 68.698 57.739 67.3139 58.036 67.1394C59.6667 66.3011 61.3422 66.7793 62.7376 66.9481C61.3703 66.6837 59.7844 66.3855 58.1089 67.0494C57.8119 67.1619 54.7466 69.6207 55.4583 70.8304C55.8394 71.483 57.2963 71.1398 59.0727 69.1424C59.9291 69.2991 60.7765 69.502 61.6112 69.7501C62.222 69.8964 64.3066 74.5494 66.6546 75.9054C67.1309 76.1755 68.7448 80.2096 71.6363 85.6673C72.264 86.8488 75.1443 88.6943 78.3048 84.2832C79.4704 82.6853 80.989 79.4276 79.2014 77.6327Z" fill="white"/>
<path d="M74.1859 87.3776H73.9674C73.4447 87.3447 72.9375 87.186 72.4888 86.9147C72.0401 86.6434 71.6631 86.2676 71.3897 85.8191C70.0055 83.2084 68.9072 80.9016 68.1003 79.2193C67.6533 78.1621 67.123 77.1423 66.5144 76.1698C64.9678 75.2864 63.5893 73.1259 62.5918 71.5449C62.2898 71.0132 61.9349 70.5137 61.5327 70.0539C61.2301 69.9807 60.9723 69.9019 60.7033 69.8288C60.211 69.6776 59.7093 69.5592 59.2015 69.4743C57.9967 70.7965 56.7863 71.528 55.9401 71.4436C55.7911 71.4345 55.6465 71.3893 55.5187 71.3119C55.3908 71.2345 55.2836 71.1272 55.206 70.9991C55.0536 70.7228 55.0154 70.3975 55.0996 70.0932C54.8672 70.2103 54.6072 70.2607 54.3481 70.2388C54.0891 70.217 53.841 70.1238 53.6314 69.9695C53.2335 69.615 53.2111 69.013 53.5809 68.3659C53.5809 68.3209 53.6706 68.2365 53.7603 68.124L53.6818 68.1859C52.7572 68.9623 52.2136 68.6866 52.0007 68.5347C51.5972 68.2028 51.5524 67.5051 51.8998 66.8468C52.2473 66.1885 54.9539 62.8239 56.0298 62.1543C57.0216 61.5298 60.4736 61.0797 62.5918 60.9447C61.4877 59.7842 60.0947 58.9411 58.5571 58.5028C58.251 58.5166 57.946 58.5485 57.6437 58.5984C56.1867 58.7954 53.9788 59.0936 53.1607 58.2496C53.0281 58.1081 52.9318 57.9363 52.8801 57.7491C52.8283 57.5619 52.8227 57.3648 52.8637 57.175C53.0486 56.0497 57.7333 55.7121 59.4425 55.9428C61.3589 56.2072 62.7207 56.9555 64.4466 57.9008C65.007 58.2046 65.5674 58.5197 66.223 58.8516C67.9041 59.6956 72.1686 66.256 73.4518 69.2436C74.6447 72.1256 76.459 74.7063 78.7642 76.7999L79.4142 77.4414C81.3419 79.3768 79.7953 82.7808 78.5737 84.4856C76.8757 86.8319 75.2843 87.3776 74.1859 87.3776ZM59.0558 68.8104H59.1006C59.6907 68.8969 60.2733 69.0285 60.8434 69.2043C61.1012 69.2774 61.3702 69.3562 61.6616 69.4237C61.953 69.4912 62.3172 69.9863 63.0793 71.1791C64.0488 72.7039 65.3881 74.7913 66.8114 75.6071C67.1308 75.7872 67.5007 76.5467 68.6382 78.9211C69.4396 80.609 70.5379 82.899 71.9164 85.4984C72.1398 85.8543 72.4444 86.1516 72.8049 86.3659C73.1655 86.5802 73.5716 86.7052 73.9898 86.7306C74.9312 86.7925 76.405 86.3874 78.0637 84.0749C79.0948 82.6345 80.6134 79.4725 78.9715 77.8239L78.3271 77.1882C75.9631 75.0486 74.1025 72.408 72.8803 69.4574C71.5746 66.4192 67.3438 60.0838 65.9316 59.3693C65.2816 59.0373 64.6988 58.7222 64.1384 58.4128C62.4573 57.4957 61.1516 56.7699 59.3528 56.5279C57.2458 56.241 53.7491 56.8261 53.4577 57.2593C53.4325 57.3525 53.4317 57.4507 53.4552 57.5443C53.4788 57.6379 53.5259 57.7238 53.5921 57.7939C54.1917 58.4128 56.394 58.1202 57.5484 57.9627C57.937 57.8681 58.3392 57.8434 58.7364 57.8895C60.4175 58.4522 62.009 59.1611 63.4547 61.0009C63.4886 61.0464 63.5096 61.1002 63.5155 61.1566C63.5214 61.2131 63.5121 61.2701 63.4884 61.3216C63.4655 61.3733 63.4287 61.4175 63.3822 61.4493C63.3357 61.4811 63.2812 61.4992 63.225 61.5017C60.7874 61.5917 57.1786 62.1206 56.338 62.627C55.3854 63.2234 52.7404 66.4979 52.4154 67.0887C52.1968 67.5163 52.2136 67.9102 52.3593 68.0227C52.505 68.1352 52.802 68.0565 53.2503 67.6795L53.3792 67.5838C54.3573 66.8908 55.293 66.1392 56.1811 65.3333C56.5397 64.9451 56.7975 64.6694 56.8479 64.6243C57.6941 63.8535 61.2469 63.4259 63.1914 64.0617C63.2652 64.0852 63.3273 64.1362 63.3648 64.2042C63.4024 64.2722 63.4125 64.3521 63.3931 64.4274C63.3732 64.5026 63.3259 64.5676 63.2604 64.6093C63.195 64.651 63.1163 64.6664 63.0401 64.6525C61.2301 64.298 57.7838 64.6975 57.3242 65.0182C57.1109 65.2772 56.8787 65.5198 56.6294 65.744C55.7384 66.7174 54.2422 68.3828 54.1133 68.5966C53.8948 68.9792 53.8667 69.283 54.0405 69.4349C54.229 69.5315 54.443 69.5661 54.6522 69.5338C54.8614 69.5015 55.0551 69.4039 55.206 69.2549C55.3685 69.1311 55.531 69.0017 55.6936 68.8611C56.3376 68.0125 57.1224 67.2817 58.0135 66.7005C58.2711 66.6019 58.5351 66.5211 58.8036 66.4586C59.2481 66.3422 59.706 66.2855 60.1653 66.2898C61.0552 66.287 61.9425 66.3851 62.8103 66.5823C62.8879 66.5974 62.9565 66.6423 63.0015 66.7075C63.0466 66.7727 63.0644 66.853 63.0513 66.9312C63.0388 67.0093 62.997 67.0797 62.9345 67.1278C62.8719 67.1759 62.7934 67.1982 62.715 67.19C62.4741 67.19 62.2331 67.1225 61.9754 67.0831C61.2918 66.9557 60.5972 66.8973 59.902 66.9087C59.6332 66.9305 59.3657 66.9661 59.1006 67.0156C58.7843 67.0901 58.4778 67.2015 58.1872 67.3475C57.9417 67.5537 57.7079 67.7735 57.4868 68.0058C57.1113 68.3828 56.635 68.8554 56.1363 69.2887C55.9579 69.5288 55.8163 69.7943 55.716 70.0764C55.6757 70.1646 55.6548 70.2606 55.6548 70.3577C55.6548 70.4548 55.6757 70.5507 55.716 70.639C55.7449 70.6837 55.7849 70.7202 55.832 70.7448C55.8792 70.7695 55.9318 70.7815 55.985 70.7797C56.4837 70.8303 57.5316 70.3689 58.8373 68.8948C58.87 68.8683 58.9077 68.8487 58.9481 68.8371C58.9885 68.8255 59.0309 68.8221 59.0726 68.8273L59.0558 68.8104Z" fill="#1D1D1D"/>
<path d="M0.87261 33.2232C0.267405 30.0668 1.79723 24.2209 3.11411 23.0506C5.29397 21.0645 6.47637 19.4835 8.79632 18.4988C10.7128 17.683 14.7643 17.1204 15.0669 17.7843C16.0083 19.8548 10.4438 19.9111 10.0235 20.1868C8.6338 21.1545 7.2889 22.1898 6.3979 24.3109C8.54974 23.8046 12.3939 23.2588 13.4979 23.5908C14.6018 23.9227 18.1266 26.4434 18.5805 26.9329C19.365 27.7881 19.096 28.9134 17.583 28.2157C17.4989 28.1763 14.5121 27.0904 13.3017 26.2296C12.8086 25.8807 8.98123 26.5615 7.36175 27.3548C8.96442 26.2858 12.4051 25.7569 13.3241 26.2296C13.5427 26.3421 17.1291 28.5983 17.3869 28.8571C18.4572 29.9317 17.3532 30.7532 16.1764 30.2862C14.8428 29.763 13.3017 28.7277 12.9767 28.6545C11.1835 28.2832 9.69292 29.2172 8.39285 29.7236C9.64249 29.1047 11.0939 28.4182 12.8758 28.5983C13.1953 28.5983 16.7985 30.1793 16.4286 31.5409C16.2381 32.2723 14.7475 32.323 12.506 30.8657C11.7231 31.2431 10.9617 31.6638 10.2253 32.1261C9.6649 32.4355 8.88596 37.4712 6.95827 39.4067C6.57162 39.7949 6.23541 43.3733 5.87116 46.6535C5.45649 50.4007 1.52264 36.5934 0.87261 33.2232Z" fill="white"/>
<path d="M5.56255 47.6047C5.23192 47.6047 4.60991 47.3458 2.76067 41.4831C1.73518 38.1917 0.832984 34.7314 0.5584 33.2798C-0.0636157 30.0502 1.455 24.1143 2.87275 22.8202C3.43313 22.3364 3.88142 21.875 4.33532 21.4361C5.74747 20.0633 6.86262 18.9774 8.64461 18.2178C10.2305 17.537 14.8367 16.6087 15.3131 17.6552C15.4048 17.8284 15.4528 18.0216 15.4528 18.2178C15.4528 18.414 15.4048 18.6072 15.3131 18.7805C14.7527 19.8157 12.5448 20.1139 11.0879 20.3109C10.7822 20.3413 10.479 20.3921 10.18 20.4628C8.81067 21.2922 7.68822 22.4756 6.92986 23.8893C9.00885 23.456 12.4608 22.9722 13.5815 23.3266C14.7975 23.6867 18.3055 26.2186 18.7986 26.7531C19.2917 27.2876 19.4542 27.9966 19.146 28.441C19.0059 28.638 18.552 29.0487 17.4649 28.5423L17.3809 28.5086C17.462 28.5645 17.5388 28.6266 17.6106 28.6942C18.143 29.2231 18.2831 29.8195 17.9861 30.2528C17.8265 30.4584 17.6129 30.6153 17.3694 30.7058C17.1259 30.7962 16.862 30.8167 16.6075 30.7648C16.6878 30.8986 16.741 31.0469 16.7641 31.2014C16.7872 31.3559 16.7797 31.5134 16.742 31.665C16.7018 31.8092 16.6272 31.9415 16.5247 32.0503C16.4222 32.1591 16.2948 32.2412 16.1536 32.2895C15.3579 32.5934 13.9962 32.2108 12.4888 31.2599C12.0219 31.4769 11.5689 31.7231 11.1327 31.997C10.9029 32.1376 10.662 32.2839 10.393 32.4358C10.1272 32.9854 9.91698 33.5602 9.76536 34.1519C9.20498 35.9467 8.44848 38.3998 7.18204 39.6714C6.91306 40.0202 6.58804 43.0191 6.32466 45.4216C6.27983 45.8605 6.2294 46.2993 6.18457 46.7326C6.15655 46.9801 6.0837 47.6272 5.6242 47.644L5.56255 47.6047ZM1.1524 33.1616C1.77441 36.425 4.51465 45.6973 5.50091 46.8901C5.52326 46.8015 5.53825 46.7112 5.54573 46.62C5.59617 46.1868 5.641 45.7479 5.69144 45.3091C6.12293 41.3706 6.34707 39.5645 6.72253 39.1931C7.8825 38.0229 8.61659 35.6541 9.15455 33.9268C9.56923 32.5765 9.75416 32.0251 10.0568 31.8563C10.3594 31.6875 10.5555 31.5693 10.7852 31.4287C11.2893 31.1064 11.8176 30.8242 12.3655 30.5847C12.4095 30.5611 12.4585 30.5487 12.5084 30.5487C12.5583 30.5487 12.6073 30.5611 12.6513 30.5847C14.3044 31.6594 15.4532 31.8282 15.9015 31.6481C16.0864 31.575 16.1144 31.4737 16.1256 31.4399C16.1426 31.3476 16.1399 31.2528 16.1176 31.1616C16.0954 31.0704 16.0542 30.9851 15.9967 30.9111C15.8299 30.6631 15.6235 30.4445 15.3859 30.264C14.7919 29.9827 14.2035 29.6507 13.744 29.3919C13.4706 29.2226 13.186 29.0722 12.8923 28.9418C12.5611 28.8704 12.2216 28.8458 11.8836 28.8687C11.6446 28.886 11.407 28.9179 11.1719 28.9643C10.4807 29.1349 9.80995 29.3801 9.17136 29.6957L8.4877 29.9939C8.41471 30.0202 8.33454 30.0179 8.26318 29.9874C8.19182 29.957 8.1345 29.9006 8.10268 29.8296C8.07086 29.7586 8.06688 29.6782 8.0915 29.6044C8.11612 29.5305 8.16756 29.4687 8.23554 29.4313C9.02024 29.0118 9.84911 28.6815 10.7068 28.4467C11.1496 28.3183 11.6076 28.2502 12.0685 28.2441C12.3427 28.2246 12.618 28.2246 12.8923 28.2441C13.9026 28.5701 14.8501 29.0667 15.6941 29.7126L16.2545 29.9658C16.4407 30.0675 16.6536 30.109 16.8641 30.0849C17.0747 30.0607 17.2727 29.972 17.4313 29.8308C17.5546 29.6395 17.4313 29.3469 17.1343 29.0375C16.955 28.8687 15.0721 27.659 13.957 26.9557C13.6569 26.8016 13.3668 26.6287 13.0884 26.438H13.0211C12.3823 26.2918 9.09852 26.8206 7.46222 27.6196C7.3934 27.6545 7.31389 27.6617 7.23994 27.6398C7.166 27.6178 7.10319 27.5683 7.06435 27.5014C7.02419 27.4339 7.01169 27.3534 7.02946 27.2768C7.04723 27.2002 7.09388 27.1335 7.15962 27.0907C8.84074 25.9654 12.4047 25.4028 13.4246 25.9654C13.4862 25.9654 13.8113 26.1961 14.254 26.4718C15.3145 27.0062 16.4054 27.4778 17.5209 27.884L17.6723 27.9403C18.2046 28.1879 18.5296 28.1654 18.6249 28.0416C18.7201 27.9178 18.6249 27.4789 18.3223 27.1526C17.8684 26.6631 14.4557 24.2156 13.3742 23.8893C12.4327 23.6079 8.80711 24.0581 6.43673 24.6151C6.38206 24.6272 6.32514 24.6242 6.27206 24.6063C6.21898 24.5884 6.17177 24.5563 6.13547 24.5135C6.09918 24.4707 6.07518 24.4188 6.06606 24.3633C6.05694 24.3079 6.06303 24.251 6.08369 24.1987C6.9915 22.0382 8.36442 20.9523 9.81579 19.9395C10.1851 19.7906 10.5779 19.7087 10.9758 19.6976C12.147 19.5344 14.338 19.2418 14.7471 18.4766C14.7963 18.3911 14.8222 18.2941 14.8222 18.1953C14.8222 18.0966 14.7963 17.9995 14.7471 17.914C14.3492 17.5708 10.8245 17.914 8.87436 18.7748C7.19324 19.4894 6.11733 20.5359 4.75001 21.8638C4.2905 22.3082 3.81418 22.7696 3.27061 23.2647C2.11064 24.3225 0.547186 30.0164 1.14679 33.1504L1.1524 33.1616Z" fill="#1D1D1D"/>
<path d="M33.5596 29.6619L33.6156 42.839L47.8884 36.0929L33.5596 29.6619Z" fill="#1D1D1D"/>
<path d="M33.6152 43.1426C33.5581 43.1417 33.5022 43.1262 33.4527 43.0976C33.4094 43.0699 33.3739 43.0316 33.3493 42.9864C33.3248 42.9411 33.3122 42.8903 33.3126 42.8388L33.251 29.656C33.2514 29.6048 33.2644 29.5546 33.2889 29.5097C33.3134 29.4648 33.3486 29.4267 33.3913 29.3988C33.4341 29.3709 33.4831 29.3541 33.5339 29.3499C33.5847 29.3457 33.6357 29.3542 33.6825 29.3747L48.0113 35.8114C48.0649 35.836 48.1104 35.8757 48.1422 35.9255C48.1741 35.9754 48.1911 36.0334 48.1911 36.0927C48.1911 36.1519 48.1741 36.2099 48.1422 36.2598C48.1104 36.3097 48.0649 36.3493 48.0113 36.374L33.7441 43.1257C33.7024 43.1386 33.6588 43.1443 33.6152 43.1426ZM33.8674 30.1287L33.9234 42.3493L47.1539 36.0983L33.8674 30.1287Z" fill="#1D1D1D"/>
<path d="M69.5185 14.0824L67.0696 13.9754C67.0291 13.9748 66.9892 13.9658 66.9523 13.9491C66.9154 13.9324 66.8823 13.9083 66.855 13.8783C66.8277 13.8482 66.8068 13.8129 66.7936 13.7745C66.7804 13.736 66.7752 13.6953 66.7782 13.6547C66.7796 13.6143 66.7891 13.5746 66.806 13.5379C66.8229 13.5012 66.847 13.4683 66.8767 13.4411C66.9064 13.4138 66.9413 13.3928 66.9792 13.3793C67.0172 13.3657 67.0574 13.3599 67.0976 13.3622L69.5409 13.4691C69.5814 13.4697 69.6213 13.4787 69.6582 13.4954C69.6951 13.5121 69.7282 13.5362 69.7555 13.5663C69.7828 13.5963 69.8037 13.6316 69.8169 13.6701C69.8301 13.7085 69.8353 13.7492 69.8323 13.7898C69.8308 13.8297 69.8216 13.8689 69.805 13.9052C69.7884 13.9415 69.7649 13.9742 69.7358 14.0014C69.7066 14.0286 69.6724 14.0497 69.6351 14.0636C69.5978 14.0775 69.5582 14.0839 69.5185 14.0824ZM64.6264 13.8742L62.1831 13.7729C62.1024 13.7685 62.0266 13.7324 61.972 13.6725C61.9175 13.6125 61.8887 13.5333 61.8918 13.4522C61.8925 13.4118 61.9012 13.372 61.9174 13.335C61.9337 13.298 61.9571 13.2647 61.9863 13.2369C62.0155 13.2092 62.05 13.1875 62.0876 13.1733C62.1252 13.159 62.1654 13.1525 62.2056 13.154L64.6544 13.2609C64.7283 13.271 64.796 13.3076 64.8451 13.364C64.8941 13.4203 64.9212 13.4927 64.9212 13.5675C64.9212 13.6424 64.8941 13.7147 64.8451 13.7711C64.796 13.8275 64.7283 13.8641 64.6544 13.8742H64.6264ZM59.7343 13.666L57.2911 13.5647C57.2098 13.5604 57.1334 13.5245 57.078 13.4646C57.0226 13.4048 56.9925 13.3257 56.9941 13.244C56.9984 13.1629 57.0344 13.0868 57.0941 13.0321C57.1539 12.9773 57.2327 12.9484 57.3135 12.9514L59.7623 13.0527C59.8431 13.0571 59.9189 13.0932 59.9734 13.1532C60.0279 13.2132 60.0568 13.2923 60.0537 13.3734C60.0508 13.452 60.0177 13.5265 59.9612 13.581C59.9048 13.6356 59.8295 13.666 59.7511 13.666H59.7343ZM54.8366 13.4578L52.3934 13.3565C52.3498 13.3625 52.3055 13.359 52.2634 13.3463C52.2212 13.3336 52.1823 13.312 52.1492 13.283C52.1161 13.2539 52.0895 13.2181 52.0713 13.1779C52.0531 13.1377 52.0437 13.0941 52.0437 13.0499C52.0437 13.0057 52.0531 12.9621 52.0713 12.9219C52.0895 12.8817 52.1161 12.8459 52.1492 12.8168C52.1823 12.7878 52.2212 12.7662 52.2634 12.7535C52.3055 12.7408 52.3498 12.7373 52.3934 12.7433L54.8422 12.8445C54.9161 12.8546 54.9838 12.8912 55.0329 12.9476C55.0819 13.004 55.109 13.0763 55.109 13.1512C55.109 13.226 55.0819 13.2984 55.0329 13.3547C54.9838 13.4111 54.9161 13.4477 54.8422 13.4578H54.8366ZM49.9446 13.2496L47.4957 13.1484C47.4219 13.1354 47.3552 13.0959 47.3083 13.0372C47.2614 12.9784 47.2374 12.9045 47.2408 12.8293C47.2443 12.7541 47.2749 12.6828 47.327 12.6286C47.379 12.5744 47.449 12.5412 47.5237 12.5351L49.9726 12.6364C50.0465 12.6464 50.1142 12.683 50.1632 12.7394C50.2123 12.7958 50.2393 12.8681 50.2393 12.943C50.2393 13.0179 50.2123 13.0902 50.1632 13.1466C50.1142 13.2029 50.0465 13.2396 49.9726 13.2496H49.9446ZM45.0525 13.0471L42.6036 12.9402C42.5601 12.9461 42.5157 12.9426 42.4736 12.9299C42.4315 12.9173 42.3926 12.8957 42.3594 12.8666C42.3263 12.8376 42.2998 12.8017 42.2816 12.7615C42.2634 12.7213 42.254 12.6777 42.254 12.6335C42.254 12.5894 42.2634 12.5457 42.2816 12.5055C42.2998 12.4653 42.3263 12.4295 42.3594 12.4005C42.3926 12.3714 42.4315 12.3498 42.4736 12.3371C42.5157 12.3245 42.5601 12.321 42.6036 12.3269L45.0469 12.4282C45.1286 12.4282 45.207 12.4608 45.2648 12.5188C45.3226 12.5769 45.3551 12.6556 45.3551 12.7376C45.3551 12.8197 45.3226 12.8984 45.2648 12.9564C45.207 13.0145 45.1286 13.0471 45.0469 13.0471H45.0525ZM40.1604 12.8389L37.7116 12.732C37.6679 12.7356 37.6241 12.7298 37.5828 12.715C37.5416 12.7002 37.504 12.6767 37.4725 12.6462C37.441 12.6157 37.4164 12.5788 37.4002 12.538C37.384 12.4971 37.3767 12.4533 37.3787 12.4094C37.3807 12.3655 37.392 12.3225 37.4118 12.2833C37.4317 12.2442 37.4596 12.2097 37.4937 12.1822C37.5279 12.1547 37.5675 12.1348 37.6098 12.1239C37.6522 12.1129 37.6965 12.1112 37.7396 12.1187L40.1828 12.2256C40.2228 12.2263 40.2622 12.2351 40.2988 12.2515C40.3353 12.2679 40.3681 12.2915 40.3953 12.3209C40.4225 12.3503 40.4436 12.3849 40.4571 12.4227C40.4707 12.4605 40.4765 12.5006 40.4742 12.5407C40.4773 12.582 40.4719 12.6235 40.4584 12.6626C40.4449 12.7017 40.4236 12.7376 40.3958 12.7682C40.368 12.7988 40.3343 12.8233 40.2967 12.8403C40.2591 12.8573 40.2184 12.8664 40.1772 12.867L40.1604 12.8389ZM35.2683 12.6307L32.8251 12.5238C32.7512 12.5138 32.6835 12.4771 32.6344 12.4208C32.5854 12.3644 32.5584 12.2921 32.5584 12.2172C32.5584 12.1423 32.5854 12.07 32.6344 12.0136C32.6835 11.9572 32.7512 11.9206 32.8251 11.9106L35.2739 12.0175C35.3144 12.0181 35.3544 12.0271 35.3913 12.0438C35.4282 12.0605 35.4613 12.0846 35.4886 12.1146C35.5159 12.1447 35.5368 12.18 35.55 12.2184C35.5632 12.2569 35.5684 12.2976 35.5653 12.3382C35.5628 12.413 35.5328 12.4843 35.481 12.5383C35.4293 12.5923 35.3596 12.6252 35.2851 12.6307H35.2683ZM30.3763 12.4226L27.933 12.3213C27.8926 12.3213 27.8525 12.3133 27.8151 12.2977C27.7777 12.2822 27.7437 12.2594 27.7151 12.2306C27.6865 12.2019 27.6638 12.1678 27.6483 12.1302C27.6328 12.0927 27.6248 12.0525 27.6248 12.0118C27.6248 11.9712 27.6328 11.9309 27.6483 11.8934C27.6638 11.8559 27.6865 11.8217 27.7151 11.793C27.7437 11.7643 27.7777 11.7415 27.8151 11.7259C27.8525 11.7104 27.8926 11.7024 27.933 11.7024L30.3819 11.8093C30.4626 11.8136 30.5384 11.8497 30.593 11.9097C30.6475 11.9697 30.6763 12.0488 30.6733 12.13C30.6707 12.2049 30.6407 12.2761 30.589 12.3301C30.5372 12.3841 30.4675 12.417 30.3931 12.4226H30.3763ZM25.4786 12.2144L23.0297 12.1131C22.949 12.1087 22.8732 12.0727 22.8186 12.0127C22.7641 11.9527 22.7353 11.8735 22.7383 11.7924C22.7427 11.7113 22.7786 11.6352 22.8384 11.5804C22.8981 11.5257 22.9769 11.4967 23.0578 11.4998L25.5066 11.6011C25.5805 11.6112 25.6482 11.6478 25.6973 11.7042C25.7463 11.7606 25.7733 11.8329 25.7733 11.9077C25.7733 11.9826 25.7463 12.0549 25.6973 12.1113C25.6482 12.1677 25.5805 12.2043 25.5066 12.2144H25.4786ZM20.5865 12.0062L18.1377 11.9049C18.0569 11.9006 17.9811 11.8645 17.9266 11.8045C17.8721 11.7445 17.8432 11.6654 17.8463 11.5842C17.8469 11.5436 17.8558 11.5035 17.8725 11.4664C17.8891 11.4293 17.9132 11.3961 17.9431 11.3687C17.973 11.3413 18.0082 11.3203 18.0464 11.3071C18.0847 11.2938 18.1253 11.2886 18.1657 11.2916L20.6089 11.3929C20.6494 11.3944 20.6892 11.4038 20.726 11.4207C20.7629 11.4376 20.796 11.4617 20.8236 11.4915C20.8512 11.5212 20.8727 11.5562 20.8868 11.5943C20.9009 11.6324 20.9074 11.673 20.9059 11.7136C20.9004 11.7913 20.8664 11.8642 20.8106 11.9183C20.7547 11.9723 20.6808 12.0036 20.6033 12.0062H20.5865ZM15.7224 11.798L13.2736 11.6967C13.23 11.7003 13.1861 11.6945 13.1449 11.6797C13.1037 11.6649 13.0661 11.6415 13.0346 11.611C13.0031 11.5804 12.9784 11.5435 12.9622 11.5027C12.9461 11.4619 12.9387 11.418 12.9408 11.3741C12.9428 11.3302 12.954 11.2873 12.9739 11.2481C12.9937 11.2089 13.0216 11.1744 13.0558 11.1469C13.0899 11.1194 13.1295 11.0995 13.1719 11.0886C13.2143 11.0777 13.2585 11.0759 13.3016 11.0835L15.7224 11.1791C15.7963 11.1892 15.8641 11.2258 15.9131 11.2822C15.9622 11.3386 15.9892 11.4109 15.9892 11.4858C15.9892 11.5606 15.9622 11.6329 15.9131 11.6893C15.8641 11.7457 15.7963 11.7823 15.7224 11.7924V11.798Z" fill="#1D1D1D"/>
<path d="M48.1343 65.5471L45.6855 65.5134C45.6047 65.5119 45.5277 65.4786 45.4711 65.4207C45.4146 65.3629 45.3828 65.285 45.3829 65.2039C45.3843 65.1228 45.4174 65.0455 45.4751 64.9887C45.5327 64.9319 45.6103 64.9001 45.6911 64.9001L48.1399 64.9338C48.1799 64.9338 48.2194 64.9419 48.2562 64.9576C48.293 64.9732 48.3262 64.9962 48.354 65.0251C48.3817 65.054 48.4033 65.0882 48.4176 65.1257C48.4318 65.1632 48.4384 65.2032 48.4369 65.2433C48.4369 65.3239 48.405 65.4011 48.3483 65.4581C48.2915 65.5151 48.2146 65.5471 48.1343 65.5471ZM43.2366 65.4796L40.7878 65.4458C40.707 65.4444 40.6301 65.4111 40.5735 65.3532C40.5169 65.2954 40.4852 65.2175 40.4852 65.1364C40.4852 65.0955 40.4933 65.0551 40.5092 65.0175C40.5251 64.9798 40.5484 64.9458 40.5777 64.9175C40.607 64.8891 40.6417 64.867 40.6797 64.8524C40.7178 64.8378 40.7583 64.831 40.799 64.8326L43.2478 64.8663C43.3286 64.8678 43.4056 64.901 43.4622 64.9589C43.5187 65.0168 43.5504 65.0947 43.5504 65.1758C43.5497 65.2164 43.541 65.2565 43.5248 65.2938C43.5087 65.331 43.4853 65.3647 43.4562 65.3929C43.4271 65.4212 43.3927 65.4433 43.355 65.4582C43.3173 65.4731 43.2771 65.4803 43.2366 65.4796ZM38.3389 65.4121L35.8901 65.3783C35.8093 65.3768 35.7324 65.3436 35.6758 65.2857C35.6192 65.2278 35.5875 65.15 35.5875 65.0689C35.5875 65.028 35.5956 64.9875 35.6116 64.9499C35.6275 64.9123 35.6508 64.8783 35.6801 64.8499C35.7094 64.8216 35.7441 64.7994 35.7821 64.7849C35.8201 64.7703 35.8606 64.7635 35.9013 64.765L38.3502 64.7988C38.4309 64.8003 38.5079 64.8335 38.5645 64.8914C38.6211 64.9493 38.6528 65.0271 38.6528 65.1082C38.652 65.1489 38.6433 65.189 38.6272 65.2262C38.611 65.2635 38.5877 65.2972 38.5585 65.3254C38.5294 65.3536 38.495 65.3758 38.4573 65.3907C38.4196 65.4056 38.3794 65.4128 38.3389 65.4121ZM33.4413 65.3446L30.9924 65.3108C30.9185 65.3007 30.8508 65.2641 30.8018 65.2077C30.7527 65.1513 30.7257 65.079 30.7257 65.0042C30.7257 64.9293 30.7527 64.857 30.8018 64.8006C30.8508 64.7442 30.9185 64.7076 30.9924 64.6975L33.4413 64.7313C33.522 64.7327 33.599 64.766 33.6556 64.8239C33.7122 64.8818 33.7439 64.9596 33.7439 65.0407C33.7424 65.1209 33.7101 65.1973 33.6536 65.254C33.5972 65.3106 33.5211 65.3431 33.4413 65.3446ZM28.5436 65.277L26.0948 65.2433C26.0541 65.2433 26.0138 65.2351 25.9763 65.2191C25.9388 65.2032 25.905 65.1798 25.8767 65.1504C25.8485 65.1209 25.8264 65.0861 25.8119 65.0479C25.7973 65.0098 25.7906 64.969 25.7921 64.9282C25.7936 64.8486 25.8261 64.7728 25.8827 64.717C25.9393 64.6612 26.0155 64.63 26.0948 64.63L28.5436 64.6638C28.6244 64.6652 28.7013 64.6985 28.7579 64.7564C28.8145 64.8142 28.8462 64.8921 28.8462 64.9732C28.8448 65.0533 28.8124 65.1298 28.756 65.1865C28.6995 65.2431 28.6234 65.2756 28.5436 65.277ZM23.6459 65.2095L21.1971 65.1758C21.1153 65.1758 21.0369 65.1432 20.9791 65.0851C20.9213 65.0271 20.8889 64.9484 20.8889 64.8663C20.8889 64.7842 20.9213 64.7055 20.9791 64.6475C21.0369 64.5895 21.1153 64.5569 21.1971 64.5569L23.6459 64.5962C23.7198 64.6063 23.7875 64.6429 23.8366 64.6993C23.8856 64.7557 23.9126 64.828 23.9126 64.9029C23.9126 64.9777 23.8856 65.0501 23.8366 65.1064C23.7875 65.1628 23.7198 65.1994 23.6459 65.2095ZM18.7538 65.142L16.305 65.1082C16.2237 65.1053 16.1468 65.0709 16.0903 65.0121C16.0339 64.9533 16.0023 64.8748 16.0024 64.7932C16.0039 64.7121 16.037 64.6348 16.0946 64.578C16.1523 64.5212 16.2298 64.4893 16.3106 64.4893L18.7594 64.5231C18.7999 64.5238 18.8399 64.5326 18.877 64.5488C18.9141 64.565 18.9476 64.5884 18.9757 64.6177C19.0038 64.647 19.0259 64.6815 19.0407 64.7193C19.0556 64.7571 19.0628 64.7975 19.062 64.8382C19.062 64.8786 19.054 64.9185 19.0385 64.9558C19.0229 64.993 19.0001 65.0267 18.9714 65.055C18.9427 65.0833 18.9087 65.1056 18.8714 65.1205C18.834 65.1354 18.794 65.1428 18.7538 65.142ZM13.8562 65.0745L11.4073 65.0407C11.326 65.0378 11.2491 65.0033 11.1926 64.9446C11.1362 64.8858 11.1047 64.8073 11.1047 64.7256C11.1055 64.685 11.1141 64.6449 11.1303 64.6076C11.1465 64.5704 11.1698 64.5367 11.1989 64.5085C11.2281 64.4803 11.2625 64.4581 11.3001 64.4432C11.3378 64.4283 11.3781 64.4211 11.4185 64.4218L13.8618 64.4556C13.9022 64.4563 13.9422 64.465 13.9793 64.4813C14.0164 64.4975 14.05 64.5209 14.0781 64.5502C14.1062 64.5794 14.1282 64.614 14.1431 64.6518C14.1579 64.6896 14.1651 64.73 14.1644 64.7707C14.1644 64.811 14.1564 64.851 14.1408 64.8882C14.1252 64.9255 14.1025 64.9592 14.0738 64.9875C14.0451 65.0158 14.011 65.0381 13.9737 65.053C13.9363 65.0679 13.8964 65.0752 13.8562 65.0745ZM8.95847 65.007L6.50964 64.9732C6.42837 64.9703 6.3514 64.9358 6.29495 64.877C6.2385 64.8183 6.20698 64.7398 6.20703 64.6581C6.20776 64.6175 6.21647 64.5774 6.23263 64.5401C6.2488 64.5029 6.27212 64.4692 6.30126 64.4409C6.3304 64.4127 6.36479 64.3906 6.40246 64.3757C6.44014 64.3608 6.48036 64.3536 6.52084 64.3543L8.96969 64.3881C9.05046 64.391 9.12683 64.4257 9.18238 64.4846C9.23793 64.5435 9.26821 64.622 9.26669 64.7031C9.2667 64.7435 9.25868 64.7835 9.24313 64.8207C9.22757 64.858 9.20478 64.8917 9.17609 64.92C9.14739 64.9483 9.11336 64.9705 9.07599 64.9855C9.03863 65.0004 8.99868 65.0077 8.95847 65.007Z" fill="#1D1D1D"/>
<path d="M99.4254 95.6035H99.3806C98.4335 95.491 83.1857 81.9257 78.9885 77.8521C78.932 77.7943 78.9004 77.7165 78.9004 77.6355C78.9004 77.5545 78.932 77.4768 78.9885 77.4189C79.0167 77.3902 79.0502 77.3673 79.0873 77.3517C79.1243 77.3361 79.1641 77.3281 79.2042 77.3281C79.2444 77.3281 79.2842 77.3361 79.3212 77.3517C79.3582 77.3673 79.3918 77.3902 79.42 77.4189C84.5923 82.4433 98.3438 94.5007 99.4758 95.0015C100.866 94.9621 113.816 85.009 118.702 81.2505C118.734 81.2263 118.771 81.2086 118.809 81.1986C118.848 81.1886 118.888 81.1864 118.928 81.1922C118.968 81.1979 119.006 81.2115 119.04 81.2322C119.074 81.2528 119.104 81.2801 119.128 81.3124C119.153 81.3438 119.172 81.38 119.183 81.4188C119.194 81.4576 119.196 81.4983 119.191 81.5382C119.186 81.5782 119.173 81.6167 119.152 81.6514C119.132 81.6861 119.105 81.7162 119.072 81.74C108.234 90.0559 100.742 95.6035 99.4254 95.6035Z" fill="#1D1D1D"/>
<path d="M97.0835 118.362C96.388 118.373 95.6954 118.27 95.0325 118.059C90.6279 116.584 76.8819 97.4546 72.3653 91.1643L71.8442 90.4384C70.7234 88.8968 69.6027 85.656 70.5049 83.833C70.5406 83.7584 70.6043 83.7011 70.682 83.6737C70.7598 83.6462 70.8452 83.6509 70.9196 83.6867C70.9939 83.7225 71.051 83.7865 71.0783 83.8646C71.1056 83.9427 71.1009 84.0285 71.0653 84.1031C70.32 85.6279 71.3286 88.6605 72.3485 90.0784L72.8753 90.8042C84.9121 107.565 92.438 116.539 95.2342 117.473C99.6164 118.948 108.941 114.458 122.939 104.128C123.005 104.089 123.082 104.076 123.157 104.091C123.232 104.106 123.298 104.149 123.343 104.21C123.389 104.272 123.41 104.348 123.402 104.424C123.395 104.5 123.36 104.571 123.303 104.623C110.796 113.839 102.177 118.362 97.0835 118.362Z" fill="#1D1D1D"/>
<path d="M74.2539 89.9488C74.2295 89.9504 74.2054 89.9425 74.1866 89.9268C74.1678 89.9111 74.1558 89.8888 74.153 89.8644C74.1506 89.8511 74.1509 89.8374 74.1538 89.8242C74.1568 89.811 74.1623 89.7985 74.1702 89.7875C74.178 89.7765 74.188 89.7672 74.1994 89.7601C74.2109 89.753 74.2237 89.7483 74.237 89.7462C76.7811 89.3918 78.72 87.4056 80.5973 85.2451C80.6067 85.2352 80.618 85.2274 80.6305 85.222C80.6431 85.2166 80.6565 85.2139 80.6701 85.2139C80.6838 85.2139 80.6972 85.2166 80.7097 85.222C80.7223 85.2274 80.7336 85.2352 80.743 85.2451C80.7615 85.2649 80.7718 85.2911 80.7718 85.3182C80.7718 85.3454 80.7615 85.3716 80.743 85.3914C78.8153 87.6026 76.8708 89.6168 74.2539 89.9769V89.9488Z" fill="#1D1D1D"/>
<path d="M75.6829 91.8957C75.6588 91.8961 75.6354 91.8878 75.6169 91.8723C75.5984 91.8568 75.586 91.8352 75.582 91.8113C75.5787 91.7984 75.5782 91.7849 75.5805 91.7717C75.5827 91.7585 75.5877 91.7459 75.5951 91.7348C75.6025 91.7236 75.6121 91.7142 75.6234 91.707C75.6347 91.6999 75.6473 91.6951 75.6605 91.6932C76.7159 91.4523 77.6852 90.9249 78.4623 90.1684C78.4718 90.1586 78.4831 90.1507 78.4956 90.1453C78.5081 90.14 78.5216 90.1372 78.5352 90.1372C78.5488 90.1372 78.5623 90.14 78.5748 90.1453C78.5873 90.1507 78.5986 90.1586 78.608 90.1684C78.6262 90.1873 78.6363 90.2125 78.6363 90.2388C78.6363 90.265 78.6262 90.2902 78.608 90.3091C77.7969 91.0958 76.7843 91.6411 75.6829 91.8845V91.8957Z" fill="#1D1D1D"/>
<path d="M99.1392 143.524C89.624 143.454 80.1466 142.312 70.8851 140.12C70.8717 140.117 70.859 140.112 70.8477 140.104C70.8364 140.096 70.8268 140.086 70.8195 140.075C70.8121 140.063 70.8072 140.05 70.805 140.037C70.8028 140.023 70.8034 140.009 70.8067 139.996C70.8092 139.983 70.8145 139.97 70.8223 139.959C70.8301 139.948 70.8402 139.938 70.8518 139.931C70.8635 139.924 70.8765 139.92 70.89 139.919C70.9034 139.917 70.9171 139.918 70.93 139.923C77.2958 141.453 99.5763 146.067 118.853 141.014C118.88 141.007 118.908 141.011 118.932 141.025C118.956 141.038 118.974 141.061 118.982 141.087C118.986 141.113 118.981 141.14 118.968 141.162C118.955 141.185 118.934 141.202 118.909 141.211C112.442 142.814 105.8 143.591 99.1392 143.524Z" fill="#1D1D1D"/>
<path d="M69.2158 17.5932L11.6877 14.8194C11.6742 14.8195 11.6608 14.8167 11.6485 14.8112C11.6361 14.8057 11.6251 14.7977 11.6161 14.7875C11.607 14.7774 11.6003 14.7655 11.5962 14.7526C11.5922 14.7396 11.5909 14.726 11.5925 14.7125C11.5932 14.6992 11.5965 14.6862 11.6022 14.6742C11.608 14.6621 11.616 14.6514 11.6259 14.6425C11.6358 14.6336 11.6473 14.6268 11.6599 14.6224C11.6724 14.618 11.6857 14.6161 11.6989 14.6169L69.2214 17.3682C69.2487 17.371 69.2738 17.3843 69.2915 17.4053C69.3093 17.4262 69.3183 17.4533 69.3167 17.4807C69.3175 17.4948 69.3154 17.5088 69.3108 17.5221C69.3061 17.5353 69.2989 17.5475 69.2895 17.558C69.2801 17.5684 69.2688 17.5769 69.2562 17.583C69.2435 17.589 69.2298 17.5925 69.2158 17.5932Z" fill="#1D1D1D"/>
<path d="M54.1921 62.222L6.50975 61.288C6.49578 61.2889 6.48177 61.2868 6.46873 61.2816C6.45569 61.2765 6.44393 61.2686 6.4343 61.2583C6.42467 61.2481 6.41741 61.2359 6.41301 61.2226C6.40862 61.2092 6.40721 61.1951 6.40889 61.1811C6.41032 61.1552 6.42158 61.1309 6.44034 61.1131C6.4591 61.0953 6.48394 61.0854 6.50975 61.0854L54.1921 62.0138C54.2193 62.0153 54.245 62.0271 54.2638 62.047C54.2825 62.0669 54.293 62.0933 54.2929 62.1207C54.2929 62.1476 54.2823 62.1733 54.2634 62.1923C54.2445 62.2113 54.2188 62.222 54.1921 62.222Z" fill="#1D1D1D"/>
<path d="M66.0837 95.1703C66.0467 95.1777 66.0087 95.1777 65.9717 95.1703C65.9344 95.156 65.9004 95.1344 65.8715 95.1068C65.8426 95.0792 65.8194 95.0462 65.8033 95.0096C65.7871 94.973 65.7783 94.9336 65.7774 94.8936C65.7765 94.8535 65.7835 94.8137 65.7979 94.7764L68.4317 87.9685C68.4397 87.9232 68.4577 87.8803 68.4842 87.8429C68.5108 87.8054 68.5454 87.7744 68.5854 87.7521C68.6255 87.7298 68.6699 87.7167 68.7156 87.7138C68.7613 87.7108 68.8071 87.7182 68.8496 87.7353C68.8921 87.7523 68.9303 87.7787 68.9614 87.8125C68.9925 87.8462 69.0157 87.8865 69.0294 87.9304C69.043 87.9743 69.0467 88.0207 69.0403 88.0662C69.0338 88.1117 69.0174 88.1552 68.9921 88.1935L66.3583 94.9959C66.3338 95.0482 66.2949 95.0923 66.2463 95.1232C66.1977 95.1541 66.1413 95.1704 66.0837 95.1703Z" fill="#1D1D1D"/>
</g>
<defs>
<clipPath id="clip0_106_2379">
<rect width="139.141" height="147.266" fill="white" transform="translate(0.429688 0.5)"/>
</clipPath>
</defs>
</svg>
