<svg width="1833" height="1830" viewBox="0 0 1833 1830" fill="none" xmlns="http://www.w3.org/2000/svg">
<g clip-path="url(#clip0_2740_1412)">
<path d="M1581.94 1460.35C1281.58 1785.6 770.59 1845 415 1652.22C357.14 1620.85 199.33 1532.6 98.15 1346.78C-96.58 989.07 23.26 461.78 381.67 188.41C642.53 -10.5901 996.34 -49.5901 1279.88 60.2599C1340.95 83.9299 1573.69 178.32 1719.97 423.89C1741.46 459.95 1787.31 543.8 1813.97 660.31C1876.56 933.88 1777.69 1248.37 1581.94 1460.35Z" fill="#EFEFF4"/>
<path d="M122.55 1605C122.574 1612.4 125.525 1619.49 130.758 1624.72C135.992 1629.95 143.082 1632.89 150.48 1632.91H1661.13C1668.53 1632.89 1675.62 1629.95 1680.86 1624.72C1686.09 1619.49 1689.05 1612.4 1689.07 1605L1701.64 736.88C1701.64 721.53 1683.55 691.56 1650.41 693.81L174.04 655.64C164.506 655.39 155.02 657.079 146.158 660.606C137.296 664.132 129.243 669.423 122.487 676.156C115.732 682.889 110.415 690.924 106.859 699.774C103.302 708.624 101.582 718.105 101.8 727.64L122.55 1605Z" fill="#333435"/>
<path d="M150.13 1578.26C150.151 1585.26 152.943 1591.97 157.895 1596.93C162.847 1601.88 169.557 1604.67 176.56 1604.69H1624.7C1631.7 1604.67 1638.41 1601.88 1643.37 1596.93C1648.32 1591.97 1651.11 1585.26 1651.13 1578.26L1662.99 790.16C1661.6 742.74 1619.99 725.69 1594.81 726.7L179.81 688.7C173.107 688.523 166.438 689.711 160.208 692.191C153.979 694.671 148.318 698.392 143.57 703.127C138.823 707.863 135.088 713.514 132.592 719.737C130.095 725.961 128.891 732.627 129.05 739.33L150.13 1578.26Z" fill="#F6D84C"/>
<path d="M12.5304 1705.01L1768.46 1705.01C1775.38 1705.01 1780.99 1699.4 1780.99 1692.48V1641.26C1780.99 1634.34 1775.38 1628.73 1768.46 1628.73L12.5304 1628.73C5.61023 1628.73 0.000366211 1634.34 0.000366211 1641.26V1692.48C0.000366211 1699.4 5.61023 1705.01 12.5304 1705.01Z" fill="#48494B"/>
<path d="M699.46 453.76C669.65 389.7 641.66 325.25 609.23 262.11C526.504 304.127 452.903 362.09 392.664 432.662C332.425 503.234 286.738 585.022 258.23 673.32C329.17 685.19 401.4 691.12 473.23 698.96C517.71 593.327 597.742 506.583 699.46 453.76Z" fill="#979AA0"/>
<path d="M483.96 1101.15C453.814 1038.7 437.267 970.554 435.412 901.23C433.557 831.905 446.437 762.977 473.2 699C401.41 691.16 329.2 685.23 258.2 673.36C205.326 838.554 215.297 1017.45 286.2 1175.75C293.13 1173.26 300.09 1170.75 307.04 1168.08C367.1 1146.41 426.33 1125.64 483.96 1101.15Z" fill="#5C5E61"/>
<path d="M1219.99 1525.08C1189.21 1460.76 1160.44 1395.86 1131.16 1331.24C1067.27 1361.01 997.705 1376.65 927.219 1377.08C856.733 1377.51 786.983 1362.73 722.73 1333.75C690.3 1396.41 659.53 1459.82 622.38 1520.39C715.527 1565.04 817.37 1588.61 920.662 1589.42C1023.95 1590.23 1126.15 1568.26 1219.99 1525.08Z" fill="#5C5E61"/>
<path d="M483.96 1101.15C426.33 1125.64 367.1 1146.41 307.11 1168C300.16 1170.66 293.2 1173.18 286.27 1175.67C354.32 1326.49 473.319 1448.52 622.38 1520.35C659.53 1459.78 690.3 1396.35 722.73 1333.71C618.455 1286.41 533.995 1204.14 483.96 1101.15Z" fill="#979AA0"/>
<path d="M1017.33 192.47C877.392 174.3 735.223 198.561 609.23 262.11C641.66 325.25 669.65 389.7 699.46 453.76C792.842 405.57 899.232 388.642 1002.96 405.47C1012.76 338.7 1019.08 271.2 1017.44 203.18C1017.33 199.62 1017.26 196.05 1017.33 192.47Z" fill="#5C5E61"/>
<path d="M1017.33 192.47C1017.24 196.05 1017.26 199.62 1017.42 203.18C1019.06 271.18 1012.74 338.7 1002.94 405.47C1102.55 421.708 1194.68 468.413 1266.65 539.16C1321.16 493.06 1374.34 445.16 1427.65 397.71C1319.96 287.62 1176.6 213.17 1017.33 192.47Z" fill="#979AA0"/>
<path d="M1619.45 781.49C1597.35 636.613 1530.25 502.354 1427.65 397.71C1374.36 445.18 1321.18 493.06 1266.65 539.16C1340.71 611.662 1389.73 705.894 1406.57 808.16C1477.8 800.41 1548.43 791.7 1619.45 781.49Z" fill="#5C5E61"/>
<path d="M1406.59 808.14C1409.77 827.426 1411.81 846.883 1412.68 866.41C1417.2 964.815 1391.74 1062.27 1339.68 1145.9C1402.59 1179.79 1462.68 1218.07 1521.77 1258.46C1596.7 1138.36 1633.35 998.304 1626.84 856.89C1625.71 831.642 1623.23 806.473 1619.41 781.49C1548.43 791.7 1477.8 800.41 1406.59 808.14Z" fill="#979AA0"/>
<path d="M1131.16 1331.24C1160.44 1395.86 1189.21 1460.76 1219.99 1525.08C1344.42 1467.5 1449.32 1374.83 1521.81 1258.46C1462.81 1218.07 1402.63 1179.79 1339.72 1145.9C1289.6 1226.56 1217.15 1290.94 1131.16 1331.24Z" fill="#74767B"/>
<path d="M763.26 1301.48L550.51 1310.93C548.222 1311.03 545.989 1311.67 543.988 1312.78C541.986 1313.89 540.271 1315.46 538.976 1317.35C537.682 1319.24 536.844 1321.4 536.529 1323.67C536.214 1325.94 536.43 1328.25 537.16 1330.42L608.41 1542.42C609.299 1545.06 610.918 1547.4 613.08 1549.17C615.241 1550.93 617.858 1552.04 620.626 1552.38C623.395 1552.72 626.203 1552.27 628.727 1551.09C631.251 1549.9 633.388 1548.02 634.89 1545.67L776.38 1324.2C777.833 1321.92 778.632 1319.28 778.691 1316.58C778.75 1313.87 778.065 1311.2 776.712 1308.86C775.359 1306.52 773.39 1304.59 771.018 1303.29C768.646 1301.99 765.963 1301.36 763.26 1301.48Z" fill="#5C5E61"/>
<path d="M994.33 444L1178.02 336.26C1180 335.102 1181.67 333.5 1182.93 331.582C1184.18 329.664 1184.96 327.481 1185.23 325.206C1185.49 322.931 1185.22 320.626 1184.44 318.473C1183.66 316.32 1182.39 314.378 1180.73 312.8L1018.73 158.62C1016.71 156.697 1014.19 155.385 1011.45 154.836C1008.72 154.287 1005.88 154.522 1003.28 155.516C1000.67 156.509 998.397 158.22 996.722 160.451C995.047 162.681 994.038 165.34 993.81 168.12L972.16 430.03C971.945 432.721 972.47 435.42 973.679 437.833C974.888 440.247 976.734 442.284 979.018 443.723C981.302 445.162 983.936 445.949 986.635 445.998C989.335 446.047 991.996 445.356 994.33 444Z" fill="#5C5E61"/>
<path d="M681.11 1782.59C660.11 1784.41 623.67 1787.36 594.93 1788.59C577.66 1789.35 567.71 1787.66 561.99 1785.37C561.99 1786.01 561.99 1786.62 562.04 1787.19C562.12 1788.66 562.742 1790.05 563.786 1791.08C564.83 1792.12 566.221 1792.73 567.69 1792.8C605.272 1794.94 642.944 1794.98 680.53 1792.92C681.257 1792.89 681.962 1792.66 682.578 1792.28C683.194 1791.89 683.7 1791.35 684.047 1790.71C684.394 1790.07 684.57 1789.35 684.558 1788.63C684.546 1787.9 684.347 1787.19 683.98 1786.56C683.119 1785.17 682.16 1783.84 681.11 1782.59Z" fill="#5C5E61"/>
<path d="M594.93 1788.62C623.67 1787.36 660.11 1784.41 681.11 1782.62C660.47 1757.29 594.93 1740.22 594.93 1740.22H576.42C563.69 1758.57 561.85 1776.04 561.99 1785.43C567.71 1787.69 577.66 1789.38 594.93 1788.62Z" fill="#5C5E61"/>
<path d="M573.33 1710L575.06 1744.28C575.148 1746.09 575.862 1747.82 577.08 1749.16C578.299 1750.5 579.946 1751.38 581.74 1751.64C586.4 1752.33 591.158 1751.94 595.64 1750.49C597.223 1749.97 598.638 1749.04 599.734 1747.79C600.831 1746.53 601.569 1745.01 601.87 1743.37L607.87 1710H573.33Z" fill="url(#paint0_linear_2740_1412)"/>
<path d="M358.48 1822.13C349.37 1820.49 345.25 1814.38 343.53 1807.84V1808.02C342.848 1811.4 343.254 1814.91 344.692 1818.04C346.129 1821.18 348.523 1823.77 351.53 1825.46C359.03 1829.56 367.24 1830.26 373.61 1829.92C376.97 1829.77 380.241 1828.79 383.13 1827.07C386.019 1825.34 388.438 1822.93 390.17 1820.05L390.22 1819.97C383.33 1824.35 373.67 1824.87 358.48 1822.13Z" fill="#5C5E61"/>
<path d="M401.42 1720.53H386.16C362.91 1719.92 348.31 1783.3 343.53 1807.84C345.25 1814.38 349.37 1820.49 358.48 1822.13C373.67 1824.87 383.3 1824.35 390.16 1819.97C402.72 1798.6 408.95 1767.32 411.94 1749.06C415.33 1728.29 401.42 1720.53 401.42 1720.53Z" fill="#5C5E61"/>
<path d="M388.12 1688.72L379.64 1722.43C379.142 1724.44 379.341 1726.56 380.206 1728.45C381.071 1730.33 382.549 1731.87 384.4 1732.8C389.14 1735.23 395.82 1737.8 401.96 1737.05C403.37 1736.86 404.701 1736.29 405.802 1735.39C406.902 1734.49 407.729 1733.3 408.19 1731.95L420.64 1696.48L388.12 1688.72Z" fill="url(#paint1_linear_2740_1412)"/>
<path d="M686.33 1244.71C686.33 1244.71 610.59 1718.19 611.84 1720.79C611.84 1720.79 590.92 1730.3 568.11 1722C568.11 1722 574.96 1468.9 591.01 1371.85C591.01 1371.85 461.74 1598.08 420.69 1710.85C420.69 1710.85 399.27 1708.3 381.55 1696.63C381.55 1696.63 520.74 1289.43 557.87 1235.2L686.33 1244.71Z" fill="#333435"/>
<path d="M593.98 1369.38C593.562 1369.38 593.152 1369.27 592.8 1369.04C592.551 1368.89 592.334 1368.68 592.164 1368.44C591.993 1368.2 591.871 1367.93 591.805 1367.65C591.739 1367.36 591.73 1367.07 591.779 1366.78C591.828 1366.49 591.934 1366.21 592.09 1365.96L620.4 1320.75C620.561 1320.49 620.772 1320.27 621.022 1320.1C621.271 1319.93 621.553 1319.81 621.85 1319.75L642.68 1315.56C642.973 1315.49 643.276 1315.48 643.572 1315.53C643.869 1315.58 644.152 1315.69 644.405 1315.85C644.658 1316.02 644.876 1316.23 645.046 1316.48C645.215 1316.73 645.333 1317 645.392 1317.3C645.451 1317.59 645.45 1317.9 645.39 1318.19C645.329 1318.49 645.209 1318.77 645.038 1319.01C644.867 1319.26 644.648 1319.47 644.394 1319.63C644.14 1319.79 643.857 1319.9 643.56 1319.95L623.68 1323.95L595.88 1368.34C595.678 1368.66 595.398 1368.93 595.065 1369.11C594.733 1369.29 594.359 1369.38 593.98 1369.38Z" fill="#5C5E61"/>
<path d="M1033.88 781.08C1033.88 781.08 982.77 792.35 951.68 806.7C945.521 809.558 940.588 814.523 937.77 820.7C928.48 841.07 900.66 892.14 846.71 916.52C854.48 926.83 866.99 948.28 872.44 984.33C904.84 960.21 932.81 919.94 946.24 853.89C946.24 853.89 956.47 859.45 969.24 853.25C975.98 849.98 983.76 845.33 989.6 841.68C995.443 838.098 999.683 832.405 1001.44 825.78C1003.66 817.06 1002.35 809.39 1002.35 801.16L1028.63 793.02C1028.63 793.02 1036.51 790 1033.88 781.08Z" fill="url(#paint2_linear_2740_1412)"/>
<path d="M872.44 984.31C866.99 948.31 854.44 926.81 846.71 916.5C813.2 931.64 769.61 936.5 714.09 917.24C708.971 915.475 703.635 914.422 698.23 914.11C668.67 912.38 571.29 909.22 490.71 935.84C482.349 938.593 474.664 943.079 468.156 949.005C461.647 954.931 456.462 962.164 452.94 970.23C431.14 1020.23 395.85 1134.17 493.82 1191.69C500.122 1175.99 508.045 1160.99 517.46 1146.94C501.68 1120.33 497.01 1083.94 525.01 1036.65C545.43 1091.77 555.01 1172.21 557.01 1207.81C557.665 1219.53 555.612 1231.24 551.01 1242.04L550.51 1243.22C550.279 1243.77 550.17 1244.36 550.192 1244.95C550.214 1245.54 550.366 1246.12 550.637 1246.65C550.907 1247.18 551.291 1247.64 551.759 1248.01C552.228 1248.37 552.771 1248.63 553.35 1248.76C608.51 1261.15 665.87 1257.76 683.01 1256.36C684.494 1256.24 685.903 1255.66 687.034 1254.69C688.166 1253.72 688.962 1252.42 689.31 1250.97C716.13 1137.97 716.2 1060.87 709.63 1012.14C734.72 1017.75 811.44 1029.71 872.44 984.31Z" fill="#C6C9D3"/>
<path d="M709.74 1015.18C709.189 1015.18 708.658 1014.97 708.248 1014.6C707.838 1014.24 707.579 1013.73 707.52 1013.18C701.22 965.6 688.4 944.84 688.27 944.63C687.994 944.13 687.919 943.543 688.061 942.99C688.203 942.437 688.551 941.959 689.034 941.653C689.516 941.348 690.098 941.239 690.658 941.348C691.219 941.457 691.717 941.776 692.05 942.24C692.6 943.1 705.51 963.89 711.96 1012.6C712.037 1013.19 711.876 1013.78 711.515 1014.25C711.153 1014.72 710.619 1015.03 710.03 1015.11L709.74 1015.18Z" fill="#A8ABB2"/>
<path d="M573.63 848.28C573.63 848.28 568.05 907.28 563.13 924.73C562.774 926.016 562.858 927.384 563.367 928.617C563.876 929.85 564.781 930.879 565.94 931.54C574.28 936.3 594.28 944.07 621.63 930.67C623.788 929.601 625.588 927.928 626.811 925.854C628.035 923.78 628.628 921.395 628.52 918.99L626.11 861.99L573.63 848.28Z" fill="url(#paint3_linear_2740_1412)"/>
<path d="M627.33 772.81C627.33 772.81 645.17 813.81 646.33 835.32C647.49 856.83 652.17 870.8 627.33 875.13C602.49 879.46 581.49 867.07 570.13 845.64C570.13 845.64 552.34 812.64 556.33 799.08C560.32 785.52 627.33 772.81 627.33 772.81Z" fill="url(#paint4_linear_2740_1412)"/>
<path d="M578.62 830.23L580.04 829.6C580.467 829.413 580.851 829.14 581.169 828.799C581.487 828.457 581.731 828.055 581.888 827.615C582.044 827.176 582.109 826.71 582.078 826.244C582.048 825.779 581.923 825.325 581.71 824.91C578.2 818.13 571.36 802.6 580.2 798.98C591.58 794.31 636.69 785.11 646.42 769.1C655.77 753.72 647.49 733.87 635.03 728.22C634.634 728.031 634.181 728.002 633.764 728.138C633.347 728.273 632.999 728.564 632.79 728.95L631.79 730.95C631.633 731.248 631.39 731.493 631.093 731.653C630.796 731.812 630.458 731.879 630.122 731.844C629.786 731.81 629.469 731.676 629.21 731.46C628.951 731.243 628.763 730.954 628.67 730.63C628.575 730.328 628.397 730.058 628.155 729.853C627.914 729.648 627.619 729.515 627.306 729.47C626.992 729.425 626.672 729.47 626.382 729.599C626.093 729.728 625.846 729.936 625.67 730.2C622.67 734.98 614.6 742.75 593 746.73C562.31 752.4 542 764.82 541.51 786.03C541.506 786.333 541.421 786.63 541.263 786.889C541.105 787.148 540.88 787.36 540.612 787.502C540.344 787.644 540.043 787.711 539.74 787.697C539.437 787.683 539.143 787.587 538.89 787.42C536.63 786.04 533 785.42 528.16 789.42C519.73 796.51 523.16 814.89 541.65 830.02C541.858 830.182 542.026 830.391 542.138 830.63C542.251 830.869 542.305 831.131 542.297 831.395C542.29 831.659 542.22 831.918 542.093 832.15C541.967 832.381 541.788 832.58 541.57 832.73C538.22 834.91 533.23 840.1 546.17 847.01C559.55 854.17 569.55 853.58 573.4 852.94C573.623 852.902 573.835 852.819 574.025 852.697C574.215 852.575 574.378 852.416 574.505 852.229C574.632 852.042 574.72 851.832 574.764 851.61C574.808 851.389 574.806 851.161 574.76 850.94L570.66 832.3C570.613 832.057 570.62 831.806 570.681 831.566C570.742 831.326 570.856 831.102 571.013 830.911C571.171 830.72 571.369 830.566 571.593 830.46C571.817 830.355 572.062 830.3 572.31 830.3L578.62 830.23Z" fill="#333435"/>
<path d="M579.4 834.16C579.4 834.16 572.59 807.97 560.85 815.32C549.11 822.67 566.94 844.66 576.38 845.64L579.4 834.16Z" fill="url(#paint5_linear_2740_1412)"/>
<path d="M959.87 847.77C959.448 847.771 959.035 847.651 958.678 847.426C958.321 847.201 958.035 846.879 957.854 846.497C957.673 846.116 957.603 845.691 957.654 845.272C957.705 844.853 957.873 844.457 958.14 844.13C960.07 841.75 977.23 820.78 983.83 817.04C986.24 815.69 987.67 814.28 987.98 813.04C988.108 812.323 988.002 811.584 987.68 810.93L967.52 814.93L956.1 824.73C955.646 825.084 955.072 825.25 954.499 825.192C953.925 825.134 953.396 824.858 953.022 824.42C952.647 823.982 952.455 823.417 952.487 822.841C952.518 822.266 952.77 821.725 953.19 821.33L965.05 811.15C965.34 810.909 965.683 810.741 966.05 810.66L988.36 806.19C988.794 806.102 989.243 806.145 989.653 806.312C990.062 806.479 990.412 806.764 990.66 807.13C992.29 809.56 992.83 811.81 992.31 814.02C991.69 816.64 989.63 818.9 986.01 820.95C981.01 823.76 966.7 840.68 961.59 846.95C961.381 847.205 961.119 847.41 960.822 847.552C960.525 847.694 960.2 847.768 959.87 847.77Z" fill="url(#paint6_linear_2740_1412)"/>
<path d="M578.53 1220L657.41 1221L629.81 1195C626.467 1191.84 622.165 1189.9 617.588 1189.47C613.011 1189.04 608.422 1190.15 604.55 1192.63C599.253 1196.03 594.528 1200.25 590.55 1205.13C590.55 1205.13 541.35 1187.13 517.49 1146.91C508.075 1160.96 500.152 1175.96 493.85 1191.66C515.2 1204.24 542.92 1214.11 578.53 1220Z" fill="url(#paint7_linear_2740_1412)"/>
<path d="M587.03 1230.21C587.183 1230.22 587.337 1230.22 587.49 1230.21L787.73 1230C790.082 1230 792.338 1229.07 794.002 1227.4C795.665 1225.74 796.6 1223.48 796.6 1221.13C796.6 1218.78 795.665 1216.52 794.002 1214.86C792.338 1213.19 790.082 1212.26 787.73 1212.26L587.49 1212.48C585.14 1212.42 582.863 1213.3 581.161 1214.92C579.458 1216.54 578.468 1218.77 578.41 1221.12C578.352 1223.47 579.229 1225.75 580.849 1227.45C582.47 1229.15 584.7 1230.14 587.05 1230.2L587.03 1230.21Z" fill="#333435"/>
<path d="M967.73 1050.33H800.97C794.969 1050.31 789.087 1052 784.001 1055.18C778.916 1058.37 774.835 1062.92 772.23 1068.33L695.13 1230.08H902.33C906.195 1230.1 909.977 1228.95 913.186 1226.8C916.395 1224.64 918.883 1221.57 920.33 1217.99L980.11 1068.32C980.891 1066.31 981.17 1064.15 980.922 1062.01C980.673 1059.87 979.905 1057.82 978.684 1056.05C977.463 1054.27 975.826 1052.82 973.917 1051.83C972.008 1050.83 969.884 1050.32 967.73 1050.33Z" fill="#333435"/>
<path d="M875.184 1141.29C878.84 1130.2 876.225 1119.36 869.343 1117.1C862.461 1114.83 853.918 1121.98 850.262 1133.08C846.606 1144.17 849.221 1155 856.103 1157.27C862.985 1159.54 871.527 1152.38 875.184 1141.29Z" fill="#74767B"/>
<path d="M1379.85 834.45L1524.85 990.38C1526.41 992.057 1528.34 993.349 1530.48 994.153C1532.63 994.958 1534.93 995.253 1537.21 995.015C1539.48 994.777 1541.68 994.014 1543.61 992.784C1545.54 991.555 1547.16 989.893 1548.34 987.93L1663.67 796.29C1665.11 793.903 1665.84 791.157 1665.79 788.37C1665.73 785.583 1664.89 782.869 1663.36 780.539C1661.83 778.209 1659.68 776.359 1657.14 775.202C1654.6 774.045 1651.79 773.629 1649.03 774L1388.66 809.72C1385.97 810.086 1383.44 811.183 1381.34 812.891C1379.23 814.599 1377.64 816.852 1376.73 819.405C1375.82 821.958 1375.63 824.711 1376.18 827.365C1376.73 830.018 1378 832.469 1379.85 834.45Z" fill="#5C5E61"/>
<path d="M494.33 728.39L416.07 530.32C415.23 528.192 413.909 526.289 412.209 524.758C410.509 523.228 408.477 522.112 406.273 521.5C404.069 520.887 401.754 520.794 399.508 521.228C397.262 521.662 395.147 522.611 393.33 524L216.06 660.47C213.851 662.172 212.169 664.464 211.207 667.081C210.244 669.699 210.042 672.535 210.622 675.262C211.202 677.99 212.542 680.498 214.486 682.497C216.43 684.496 218.9 685.904 221.61 686.56L477.09 748.19C479.723 748.827 482.48 748.73 485.061 747.908C487.641 747.086 489.947 745.57 491.726 743.528C493.504 741.485 494.688 738.993 495.147 736.324C495.606 733.654 495.324 730.91 494.33 728.39Z" fill="#5C5E61"/>
<path d="M1712.73 556.46C1712.73 623.05 1650.28 677.03 1583.73 677.03C1551.94 676.74 1521.56 663.911 1499.18 641.332C1476.81 618.753 1464.26 588.252 1464.26 556.465C1464.26 524.678 1476.81 494.177 1499.18 471.598C1521.56 449.019 1551.94 436.189 1583.73 435.9C1650.33 435.9 1712.73 489.88 1712.73 556.46Z" fill="#F6D84C"/>
<path opacity="0.65" d="M1686.33 556.46C1686.35 580.987 1677.26 604.648 1660.82 622.849C1644.38 641.05 1621.76 652.491 1597.36 654.951C1572.96 657.411 1548.51 650.715 1528.77 636.162C1509.02 621.609 1495.39 600.239 1490.52 576.2C1487.87 563.177 1487.87 549.753 1490.52 536.73C1495.41 512.712 1509.05 491.366 1528.79 476.831C1548.53 462.297 1572.96 455.611 1597.34 458.068C1621.73 460.525 1644.34 471.952 1660.78 490.131C1677.22 508.311 1686.33 531.948 1686.33 556.46ZM1673.15 556.46C1673.12 550.995 1672.55 545.547 1671.42 540.2C1670.28 534.847 1668.58 529.628 1666.35 524.63C1661.83 514.537 1655.3 505.475 1647.15 498C1638.89 490.468 1629.25 484.616 1618.76 480.77C1608.25 476.945 1597.12 475.15 1585.94 475.48C1563.92 476.039 1542.95 484.952 1527.26 500.41C1519.79 507.827 1513.84 516.627 1509.73 526.32C1505.7 535.865 1503.63 546.12 1503.63 556.48C1503.63 566.84 1505.7 577.095 1509.73 586.64C1513.83 596.334 1519.79 605.134 1527.26 612.55C1542.94 628.014 1563.92 636.931 1585.94 637.49C1597.12 637.815 1608.25 636.02 1618.76 632.2C1629.25 628.363 1638.89 622.521 1647.15 615C1655.31 607.522 1661.86 598.453 1666.38 588.35C1668.61 583.349 1670.31 578.127 1671.45 572.77C1672.58 567.406 1673.16 561.941 1673.18 556.46H1673.15Z" fill="white"/>
<g opacity="0.8">
<path d="M1561.97 522C1561.67 522.036 1561.38 522.103 1561.09 522.2C1560.26 522.481 1559.54 523.003 1559.01 523.7C1558.47 524.4 1558.15 525.245 1558.09 526.127C1558.03 527.01 1558.23 527.89 1558.67 528.658C1559.11 529.425 1559.77 530.045 1560.56 530.438C1561.35 530.832 1562.24 530.981 1563.12 530.867C1564 530.754 1564.82 530.382 1565.49 529.8C1566.15 529.218 1566.63 528.452 1566.86 527.598C1567.09 526.743 1567.06 525.84 1566.78 525.002C1566.5 524.164 1565.97 523.429 1565.27 522.89C1564.81 522.529 1564.28 522.264 1563.71 522.111C1563.14 521.958 1562.55 521.92 1561.97 522Z" fill="white"/>
<path d="M1585.53 512.29L1581.75 507.49C1581.7 507.419 1581.63 507.366 1581.54 507.341C1581.46 507.315 1581.37 507.318 1581.29 507.35L1576.48 509.01C1574.6 507.504 1572.48 506.315 1570.21 505.49L1569.14 500.49C1569.12 500.405 1569.07 500.329 1569.01 500.27C1568.95 500.212 1568.87 500.173 1568.78 500.16L1562.72 499.43C1562.63 499.421 1562.54 499.439 1562.47 499.482C1562.39 499.525 1562.33 499.591 1562.29 499.67L1560.07 504.25C1557.67 504.511 1555.34 505.163 1553.15 506.18L1548.87 503.42C1548.8 503.369 1548.71 503.341 1548.63 503.341C1548.54 503.341 1548.45 503.369 1548.38 503.42L1543.58 507.19C1543.51 507.244 1543.46 507.318 1543.43 507.402C1543.41 507.487 1543.41 507.577 1543.44 507.66L1545.11 512.47C1543.6 514.352 1542.41 516.466 1541.58 518.73L1536.58 519.81C1536.49 519.825 1536.41 519.869 1536.35 519.934C1536.29 519.999 1536.26 520.082 1536.25 520.17L1535.52 526.23C1535.51 526.317 1535.53 526.405 1535.57 526.482C1535.61 526.559 1535.67 526.621 1535.75 526.66L1540.33 528.88C1540.59 531.276 1541.25 533.613 1542.26 535.8L1539.5 540.08C1539.45 540.15 1539.42 540.234 1539.42 540.32C1539.42 540.406 1539.45 540.489 1539.5 540.56L1543.27 545.37C1543.32 545.439 1543.39 545.489 1543.48 545.514C1543.56 545.54 1543.65 545.538 1543.73 545.51L1548.54 543.84C1550.42 545.349 1552.54 546.538 1554.81 547.36L1555.88 552.36C1555.9 552.446 1555.94 552.525 1556.01 552.584C1556.07 552.644 1556.15 552.681 1556.24 552.69L1562.3 553.42C1562.39 553.431 1562.47 553.415 1562.55 553.374C1562.63 553.332 1562.69 553.268 1562.73 553.19L1564.95 548.61C1567.35 548.348 1569.69 547.693 1571.88 546.67L1576.15 549.43C1576.22 549.481 1576.31 549.509 1576.4 549.509C1576.48 549.509 1576.57 549.481 1576.64 549.43L1581.44 545.66C1581.51 545.606 1581.56 545.532 1581.59 545.447C1581.61 545.363 1581.61 545.273 1581.58 545.19L1579.91 540.38C1581.42 538.497 1582.61 536.383 1583.44 534.12L1588.44 533.05C1588.52 533.03 1588.6 532.985 1588.66 532.92C1588.71 532.856 1588.75 532.776 1588.76 532.69L1589.49 526.62C1589.5 526.534 1589.49 526.447 1589.44 526.372C1589.4 526.296 1589.34 526.236 1589.26 526.2L1584.68 523.97C1584.42 521.574 1583.76 519.237 1582.75 517.05L1585.51 512.78C1585.56 512.709 1585.59 512.625 1585.59 512.538C1585.6 512.451 1585.58 512.364 1585.53 512.29ZM1576.09 520.86C1575.86 520.96 1575.6 520.971 1575.36 520.889C1575.13 520.808 1574.93 520.64 1574.81 520.42C1574.38 519.536 1573.86 518.701 1573.25 517.93C1571.24 515.364 1568.38 513.594 1565.19 512.934C1562 512.274 1558.67 512.768 1555.81 514.326C1552.94 515.885 1550.72 518.408 1549.54 521.448C1548.36 524.487 1548.3 527.847 1549.36 530.93C1549.87 532.392 1550.62 533.761 1551.57 534.98C1553.07 536.898 1555.06 538.383 1557.33 539.283C1559.59 540.183 1562.05 540.466 1564.47 540.103C1566.88 539.74 1569.15 538.744 1571.05 537.217C1572.95 535.69 1574.41 533.686 1575.28 531.41C1575.38 531.179 1575.56 530.994 1575.79 530.892C1576.02 530.791 1576.28 530.779 1576.52 530.86C1576.65 530.912 1576.76 530.991 1576.86 531.091C1576.96 531.191 1577.03 531.31 1577.08 531.44C1577.15 531.651 1577.15 531.879 1577.08 532.09C1576.09 534.683 1574.42 536.965 1572.26 538.705C1570.1 540.445 1567.51 541.58 1564.77 541.994C1562.02 542.408 1559.22 542.086 1556.64 541.061C1554.06 540.036 1551.79 538.345 1550.08 536.16C1548.99 534.774 1548.14 533.216 1547.57 531.55C1546.37 528.04 1546.45 524.218 1547.8 520.761C1549.15 517.305 1551.67 514.438 1554.93 512.668C1558.19 510.898 1561.98 510.34 1565.61 511.093C1569.24 511.845 1572.49 513.86 1574.78 516.78L1574.92 516.96C1575.44 517.645 1575.91 518.37 1576.31 519.13C1576.34 519.185 1576.37 519.241 1576.39 519.3V519.36C1576.39 519.44 1576.48 519.53 1576.52 519.61V519.72C1576.58 519.931 1576.58 520.157 1576.5 520.363C1576.42 520.569 1576.28 520.744 1576.09 520.86ZM1567.59 530.35C1566.81 531.341 1565.76 532.081 1564.57 532.476C1563.37 532.871 1562.09 532.904 1560.87 532.57C1559.66 532.236 1558.57 531.551 1557.75 530.6C1556.92 529.649 1556.4 528.476 1556.24 527.227C1556.08 525.979 1556.29 524.711 1556.85 523.583C1557.41 522.455 1558.29 521.518 1559.38 520.89C1560.47 520.262 1561.72 519.97 1562.98 520.052C1564.24 520.134 1565.44 520.585 1566.44 521.35C1567.12 521.858 1567.68 522.497 1568.11 523.228C1568.53 523.959 1568.81 524.768 1568.92 525.607C1569.02 526.446 1568.96 527.298 1568.73 528.113C1568.51 528.927 1568.12 529.688 1567.59 530.35Z" fill="white"/>
</g>
<g opacity="0.84">
<path d="M1608.33 570.27C1607.86 570.179 1607.37 570.132 1606.89 570.13C1605.5 570.129 1604.14 570.54 1602.98 571.31C1601.6 572.207 1600.58 573.554 1600.09 575.12C1599.59 576.686 1599.66 578.375 1600.27 579.899C1600.88 581.423 1602 582.688 1603.44 583.479C1604.88 584.27 1606.55 584.537 1608.16 584.235C1609.78 583.933 1611.24 583.081 1612.29 581.824C1613.35 580.567 1613.94 578.983 1613.96 577.34C1613.98 575.698 1613.43 574.1 1612.4 572.818C1611.38 571.536 1609.94 570.65 1608.33 570.31V570.27Z" fill="white"/>
<path d="M1648.83 567.75L1645.61 558.55C1645.57 558.418 1645.48 558.304 1645.37 558.225C1645.25 558.146 1645.12 558.105 1644.98 558.11H1636.87C1634.81 554.864 1632.22 551.976 1629.23 549.56L1630.18 541.5C1630.2 541.362 1630.17 541.221 1630.11 541.099C1630.04 540.976 1629.94 540.879 1629.81 540.82L1621.04 536.59C1620.92 536.528 1620.78 536.507 1620.64 536.53C1620.5 536.554 1620.38 536.62 1620.28 536.72L1614.56 542.48C1610.81 541.647 1606.94 541.427 1603.12 541.83L1598.12 535.46C1598.03 535.352 1597.92 535.274 1597.78 535.236C1597.65 535.198 1597.51 535.203 1597.38 535.25L1588.18 538.46C1588.05 538.504 1587.93 538.589 1587.85 538.702C1587.77 538.815 1587.73 538.951 1587.73 539.09V547.2C1584.48 549.265 1581.6 551.845 1579.18 554.84L1571.12 553.84C1570.98 553.819 1570.84 553.844 1570.72 553.91C1570.59 553.977 1570.5 554.083 1570.44 554.21L1566.21 562.98C1566.15 563.106 1566.13 563.248 1566.15 563.386C1566.17 563.524 1566.24 563.651 1566.34 563.75L1572.1 569.46C1571.27 573.217 1571.05 577.083 1571.45 580.91L1565.08 585.91C1564.97 585.998 1564.89 586.117 1564.85 586.251C1564.81 586.385 1564.82 586.527 1564.86 586.66L1568.07 595.85C1568.12 595.982 1568.2 596.096 1568.32 596.176C1568.43 596.257 1568.57 596.3 1568.71 596.3H1576.82C1578.88 599.544 1581.47 602.428 1584.46 604.84L1583.46 612.91C1583.44 613.047 1583.47 613.186 1583.53 613.306C1583.6 613.427 1583.7 613.523 1583.83 613.58L1592.6 617.82C1592.73 617.879 1592.87 617.898 1593 617.873C1593.14 617.848 1593.26 617.78 1593.36 617.68L1599.08 611.92C1602.83 612.758 1606.7 612.978 1610.52 612.57L1615.52 618.94C1615.6 619.05 1615.72 619.13 1615.85 619.169C1615.99 619.209 1616.13 619.206 1616.26 619.16L1625.46 615.95C1625.59 615.903 1625.71 615.816 1625.79 615.701C1625.87 615.587 1625.91 615.45 1625.91 615.31V607.2C1629.16 605.142 1632.05 602.564 1634.46 599.57L1642.52 600.57C1642.66 600.587 1642.8 600.559 1642.92 600.491C1643.04 600.423 1643.14 600.317 1643.2 600.19L1647.43 591.42C1647.49 591.296 1647.51 591.155 1647.49 591.019C1647.47 590.882 1647.4 590.756 1647.3 590.66L1641.54 584.94C1642.37 581.187 1642.59 577.323 1642.19 573.5L1648.56 568.5C1648.68 568.419 1648.77 568.303 1648.82 568.169C1648.86 568.034 1648.87 567.887 1648.83 567.75ZM1630.17 575.81C1629.77 575.858 1629.37 575.747 1629.05 575.499C1628.73 575.252 1628.52 574.89 1628.47 574.49C1627.85 569.468 1625.52 564.812 1621.88 561.306C1618.23 557.801 1613.48 555.66 1608.44 555.244C1603.4 554.829 1598.37 556.165 1594.19 559.026C1590.02 561.888 1586.96 566.1 1585.53 570.954C1584.1 575.807 1584.39 581.005 1586.34 585.672C1588.3 590.339 1591.8 594.189 1596.27 596.574C1600.73 598.958 1605.88 599.732 1610.84 598.764C1615.81 597.796 1620.29 595.146 1623.53 591.26C1623.79 590.951 1624.16 590.757 1624.57 590.721C1624.97 590.686 1625.37 590.811 1625.68 591.07C1625.83 591.198 1625.96 591.356 1626.05 591.533C1626.15 591.711 1626.21 591.906 1626.22 592.105C1626.24 592.305 1626.22 592.507 1626.16 592.698C1626.1 592.889 1626 593.067 1625.87 593.22C1622.33 597.455 1617.49 600.401 1612.1 601.597C1606.72 602.793 1601.08 602.173 1596.09 599.834C1591.09 597.494 1587 593.566 1584.47 588.663C1581.94 583.759 1581.1 578.156 1582.09 572.725C1583.07 567.295 1585.83 562.344 1589.92 558.644C1594.02 554.943 1599.22 552.702 1604.72 552.269C1610.22 551.835 1615.71 553.235 1620.34 556.248C1624.96 559.262 1628.46 563.721 1630.28 568.93L1630.4 569.27C1630.84 570.575 1631.17 571.912 1631.4 573.27C1631.4 573.36 1631.4 573.46 1631.4 573.55V573.66L1631.46 574.11C1631.46 574.173 1631.46 574.237 1631.46 574.3C1631.46 574.665 1631.34 575.019 1631.1 575.297C1630.86 575.575 1630.53 575.757 1630.17 575.81ZM1612.45 585.74C1610.8 586.838 1608.86 587.423 1606.87 587.42C1604.68 587.424 1602.55 586.723 1600.79 585.419C1599.03 584.115 1597.74 582.279 1597.11 580.183C1596.48 578.087 1596.54 575.843 1597.29 573.785C1598.03 571.727 1599.42 569.965 1601.25 568.76C1603.5 567.277 1606.25 566.749 1608.89 567.291C1611.53 567.833 1613.85 569.4 1615.34 571.65C1616.08 572.765 1616.58 574.014 1616.84 575.325C1617.09 576.637 1617.08 577.985 1616.81 579.294C1616.55 580.602 1616.02 581.845 1615.27 582.951C1614.52 584.057 1613.56 585.005 1612.45 585.74Z" fill="white"/>
</g>
<path d="M953 152.86C953 223.79 886.47 281.29 815.54 281.29C798.579 281.44 781.757 278.228 766.045 271.842C750.332 265.455 736.04 256.019 723.994 244.079C711.948 232.138 702.387 217.93 695.861 202.275C689.336 186.619 685.977 169.826 685.977 152.865C685.977 135.904 689.336 119.111 695.861 103.455C702.387 87.7998 711.948 73.5918 723.994 61.6515C736.04 49.7113 750.332 40.2754 766.045 33.8885C781.757 27.5017 798.579 24.2904 815.54 24.4401C886.47 24.4401 953 81.94 953 152.86Z" fill="#F6D84C"/>
<path opacity="0.65" d="M924.9 152.86C924.918 178.983 915.228 204.181 897.712 223.562C880.197 242.943 856.104 255.124 830.112 257.741C804.121 260.358 778.084 253.224 757.056 237.723C736.028 222.223 721.51 199.462 716.32 173.86C713.494 159.986 713.494 145.684 716.32 131.81C720.553 110.943 731.013 91.8497 746.32 77.0499C761.197 62.6695 779.978 52.9869 800.321 49.2094C820.664 45.4319 841.669 47.7267 860.717 55.8077C879.765 63.8887 896.012 77.3983 907.433 94.6517C918.854 111.905 924.942 132.139 924.94 152.83L924.9 152.86ZM910.9 152.86C910.874 147.039 910.257 141.236 909.06 135.54C907.85 129.835 906.04 124.274 903.66 118.95C898.837 108.189 891.864 98.5274 883.17 90.5599C874.375 82.5407 864.104 76.3084 852.93 72.2099C841.726 68.1328 829.848 66.2222 817.93 66.5799C794.21 67.1899 771.41 77.0699 755.43 93.1399C747.47 101.039 741.125 110.414 736.75 120.74C732.467 130.908 730.26 141.831 730.26 152.865C730.26 163.899 732.467 174.821 736.75 184.99C741.125 195.316 747.47 204.691 755.43 212.59C771.43 228.66 794.21 238.53 817.93 239.15C829.848 239.508 841.726 237.597 852.93 233.52C864.104 229.421 874.375 223.189 883.17 215.17C891.864 207.202 898.837 197.541 903.66 186.78C906.04 181.456 907.85 175.895 909.06 170.19C910.244 164.489 910.847 158.683 910.86 152.86H910.9Z" fill="white"/>
<path opacity="0.83" d="M849.23 112.71C849.23 128.07 836.78 144.65 821.43 144.65C806.08 144.65 793.62 128.07 793.62 112.71C793.62 97.35 806.07 86.46 821.43 86.46C836.79 86.46 849.23 97.36 849.23 112.71Z" fill="white"/>
<path opacity="0.83" d="M786.92 203.77H854.8C858.282 203.771 861.674 202.665 864.487 200.612C867.3 198.56 869.388 195.666 870.45 192.35L874.1 180.93C875.394 176.904 875.085 172.534 873.237 168.73C871.389 164.926 868.145 161.981 864.18 160.51C836.56 150.41 808 151.71 778.74 161.44C774.793 162.788 771.509 165.592 769.56 169.28C767.61 172.967 767.142 177.259 768.25 181.28L771.06 191.64C772.006 195.122 774.071 198.196 776.937 200.389C779.804 202.581 783.311 203.769 786.92 203.77Z" fill="white"/>
<path d="M1456.44 231.71C1456.44 301.05 1391.44 357.25 1322.07 357.25C1305.58 357.25 1289.26 354.003 1274.03 347.694C1258.8 341.385 1244.96 332.138 1233.3 320.48C1221.64 308.823 1212.39 294.983 1206.09 279.752C1199.78 264.521 1196.53 248.196 1196.53 231.71C1196.53 215.224 1199.78 198.899 1206.09 183.668C1212.39 168.437 1221.64 154.597 1233.3 142.94C1244.96 131.282 1258.8 122.035 1274.03 115.726C1289.26 109.417 1305.58 106.17 1322.07 106.17C1391.41 106.17 1456.44 162.38 1456.44 231.71Z" fill="#F6D84C"/>
<path opacity="0.65" d="M1428.98 231.71C1428.97 248.454 1424.87 264.942 1417.06 279.75C1409.24 294.558 1397.94 307.239 1384.12 316.697C1370.3 326.156 1354.39 332.107 1337.76 334.036C1321.13 335.965 1304.27 333.815 1288.66 327.77C1272.58 321.521 1258.33 311.331 1247.22 298.137C1236.11 284.942 1228.5 269.167 1225.08 252.26C1222.32 238.699 1222.32 224.721 1225.08 211.16C1230.2 186.175 1244.42 163.98 1264.96 148.871C1285.51 133.762 1310.93 126.814 1336.31 129.371C1361.68 131.929 1385.21 143.81 1402.33 162.716C1419.45 181.621 1428.94 206.205 1428.98 231.71ZM1415.25 231.71C1415.23 226.021 1414.63 220.349 1413.46 214.78C1412.27 209.204 1410.5 203.767 1408.18 198.56C1403.47 188.046 1396.66 178.604 1388.18 170.81C1379.58 162.967 1369.54 156.873 1358.61 152.87C1347.67 148.892 1336.08 147.022 1324.44 147.36C1301.25 147.97 1278.97 157.62 1263.34 173.36C1255.56 181.089 1249.36 190.26 1245.08 200.36C1240.9 210.302 1238.74 220.979 1238.74 231.765C1238.74 242.551 1240.9 253.228 1245.08 263.17C1249.36 273.269 1255.56 282.439 1263.34 290.17C1278.97 305.88 1301.25 315.52 1324.44 316.17C1336.08 316.512 1347.67 314.642 1358.61 310.66C1369.54 306.657 1379.58 300.563 1388.18 292.72C1396.66 284.926 1403.47 275.484 1408.18 264.97C1410.5 259.763 1412.27 254.326 1413.46 248.75C1414.63 243.145 1415.23 237.436 1415.25 231.71Z" fill="white"/>
<path opacity="0.86" d="M1292.33 277.91C1290.84 277.91 1289.59 277.91 1288.59 277.91C1287.77 277.897 1286.97 277.586 1286.36 277.036C1285.75 276.485 1285.35 275.732 1285.25 274.915C1285.15 274.097 1285.35 273.27 1285.81 272.586C1286.26 271.902 1286.95 271.406 1287.75 271.19C1296.54 268.528 1305.1 265.15 1313.34 261.09C1279.46 258.33 1272.7 240.93 1271.34 232.97C1268.05 212.9 1285.47 190.19 1310.17 182.35C1335.38 174.35 1360.92 177.23 1375.24 189.7C1382.85 196.32 1391.11 209 1387.24 231.83C1380.04 274.49 1313.44 277.91 1292.33 277.91ZM1337.7 255L1326.97 261C1326.4 261.31 1316.97 266.55 1305.47 271.36C1331.62 269.78 1375.86 262.36 1381.26 230.74C1383.99 214.68 1380.65 202.41 1371.26 194.28C1356.77 181.67 1331.1 182.13 1312.08 188.16C1290.54 195 1274.69 215.04 1277.46 231.92C1279.98 247.25 1297.46 255.83 1325.36 255.24L1337.7 255Z" fill="white"/>
<path d="M520.99 365.82C520.99 434.82 456.29 490.7 387.32 490.7C354.2 490.7 322.436 477.543 299.016 454.123C275.597 430.704 262.44 398.94 262.44 365.82C262.44 332.7 275.597 300.936 299.016 277.516C322.436 254.097 354.2 240.94 387.32 240.94C456.33 240.94 520.99 296.85 520.99 365.82Z" fill="#F6D84C"/>
<path opacity="0.65" d="M493.67 365.82C493.658 382.477 489.588 398.88 481.812 413.611C474.037 428.342 462.791 440.958 449.045 450.367C435.3 459.775 419.47 465.694 402.923 467.611C386.377 469.529 369.613 467.386 354.08 461.37C338.091 455.15 323.921 445.012 312.872 431.888C301.822 418.764 294.246 403.075 290.84 386.26C288.107 372.767 288.107 358.863 290.84 345.37C295.917 320.498 310.047 298.396 330.492 283.349C350.937 268.302 376.24 261.381 401.497 263.927C426.754 266.474 450.167 278.306 467.196 297.132C484.226 315.957 493.66 340.435 493.67 365.82ZM480.01 365.82C479.982 360.168 479.385 354.533 478.23 349C477.041 343.457 475.282 338.051 472.98 332.87C468.289 322.404 461.506 313.008 453.05 305.26C444.496 297.463 434.507 291.403 423.64 287.42C412.755 283.461 401.218 281.602 389.64 281.94C366.835 282.517 345.104 291.752 328.86 307.77C321.119 315.451 314.951 324.568 310.7 334.61C306.536 344.499 304.39 355.12 304.39 365.85C304.39 376.58 306.536 387.201 310.7 397.09C314.953 407.128 321.121 416.241 328.86 423.92C345.104 439.938 366.835 449.173 389.64 449.75C401.218 450.093 412.756 448.234 423.64 444.27C434.507 440.287 444.496 434.227 453.05 426.43C461.506 418.682 468.289 409.286 472.98 398.82C475.283 393.639 477.042 388.234 478.23 382.69C479.389 377.141 479.986 371.489 480.01 365.82Z" fill="white"/>
<g opacity="0.84">
<path d="M390.39 424.48C387.787 424.491 385.227 423.825 382.96 422.546C380.693 421.268 378.797 419.422 377.46 417.19C362.22 392.01 344.05 358.83 344.05 343.77C344.05 320.18 364.84 300.98 390.39 300.98C415.94 300.98 436.74 320.18 436.74 343.77C436.74 358.83 418.57 392.01 403.32 417.19C401.982 419.422 400.087 421.268 397.82 422.546C395.553 423.825 392.992 424.491 390.39 424.48ZM390.39 307.55C368.46 307.55 350.62 323.8 350.62 343.77C350.62 354.18 362.45 379.7 383.08 413.77C383.84 415.029 384.913 416.07 386.193 416.792C387.474 417.515 388.919 417.895 390.39 417.895C391.86 417.895 393.306 417.515 394.587 416.792C395.867 416.07 396.94 415.029 397.7 413.77C418.33 379.69 430.16 354.17 430.16 343.77C430.16 323.8 412.33 307.55 390.39 307.55Z" fill="white"/>
<path d="M386.83 373.75C379.177 373.742 371.84 370.699 366.428 365.289C361.016 359.879 357.971 352.543 357.96 344.89C357.96 344.017 358.307 343.181 358.924 342.564C359.541 341.947 360.377 341.6 361.25 341.6C362.123 341.6 362.959 341.947 363.576 342.564C364.193 343.181 364.54 344.017 364.54 344.89C364.542 350.186 366.43 355.308 369.865 359.338C373.3 363.369 378.058 366.045 383.287 366.886C388.515 367.728 393.873 366.681 398.399 363.932C402.926 361.184 406.326 356.913 407.99 351.886C409.655 346.858 409.475 341.402 407.483 336.496C405.491 331.589 401.817 327.551 397.119 325.107C392.422 322.662 387.007 321.97 381.845 323.154C376.684 324.339 372.112 327.322 368.95 331.57C368.7 331.937 368.378 332.249 368.005 332.488C367.631 332.728 367.212 332.889 366.775 332.962C366.337 333.035 365.889 333.02 365.457 332.915C365.026 332.811 364.62 332.62 364.264 332.355C363.909 332.089 363.61 331.755 363.387 331.371C363.164 330.987 363.021 330.563 362.966 330.122C362.912 329.682 362.947 329.235 363.069 328.808C363.192 328.382 363.4 327.984 363.68 327.64C366.622 323.694 370.525 320.566 375.017 318.553C379.509 316.54 384.441 315.71 389.344 316.141C394.248 316.572 398.96 318.25 403.032 321.015C407.104 323.781 410.401 327.542 412.609 331.941C414.818 336.34 415.864 341.231 415.65 346.148C415.435 351.066 413.966 355.847 411.383 360.037C408.799 364.227 405.187 367.686 400.89 370.087C396.592 372.487 391.752 373.748 386.83 373.75Z" fill="white"/>
</g>
</g>
<defs>
<linearGradient id="paint0_linear_2740_1412" x1="573.31" y1="1730.95" x2="607.84" y2="1730.95" gradientUnits="userSpaceOnUse">
<stop stop-color="white"/>
<stop offset="1" stop-color="#EFEFF4"/>
</linearGradient>
<linearGradient id="paint1_linear_2740_1412" x1="379.37" y1="1712.95" x2="420.64" y2="1712.95" gradientUnits="userSpaceOnUse">
<stop stop-color="white"/>
<stop offset="1" stop-color="#EFEFF4"/>
</linearGradient>
<linearGradient id="paint2_linear_2740_1412" x1="1067.14" y1="775.96" x2="1211.07" y2="665.41" gradientUnits="userSpaceOnUse">
<stop stop-color="white"/>
<stop offset="1" stop-color="#EFEFF4"/>
</linearGradient>
<linearGradient id="paint3_linear_2740_1412" x1="581.46" y1="949.06" x2="621.61" y2="817.65" gradientUnits="userSpaceOnUse">
<stop stop-color="white"/>
<stop offset="1" stop-color="#EFEFF4"/>
</linearGradient>
<linearGradient id="paint4_linear_2740_1412" x1="567.76" y1="760.27" x2="471.81" y2="608" gradientUnits="userSpaceOnUse">
<stop stop-color="white"/>
<stop offset="1" stop-color="#EFEFF4"/>
</linearGradient>
<linearGradient id="paint5_linear_2740_1412" x1="537.37" y1="779.42" x2="441.42" y2="627.15" gradientUnits="userSpaceOnUse">
<stop stop-color="white"/>
<stop offset="1" stop-color="#EFEFF4"/>
</linearGradient>
<linearGradient id="paint6_linear_2740_1412" x1="952.41" y1="826.95" x2="992.52" y2="826.95" gradientUnits="userSpaceOnUse">
<stop stop-color="white"/>
<stop offset="1" stop-color="#EFEFF4"/>
</linearGradient>
<linearGradient id="paint7_linear_2740_1412" x1="673.41" y1="1162.6" x2="956.57" y2="1092.21" gradientUnits="userSpaceOnUse">
<stop stop-color="white"/>
<stop offset="1" stop-color="#EFEFF4"/>
</linearGradient>
<clipPath id="clip0_2740_1412">
<rect width="1832.66" height="1830" fill="white"/>
</clipPath>
</defs>
</svg>
