<svg width="24" height="25" viewBox="0 0 24 25" fill="none" xmlns="http://www.w3.org/2000/svg">
<g id="teenyicons:tick-circle-outline">
<path id="Vector" d="M7.04256 12.463L11.2919 16.0042L16.9578 8.9219M12.0002 22.3782C10.6981 22.3782 9.40874 22.1218 8.20577 21.6235C7.00281 21.1252 5.90976 20.3949 4.98905 19.4741C4.06834 18.5534 3.338 17.4604 2.83971 16.2574C2.34143 15.0545 2.08496 13.7651 2.08496 12.463C2.08496 11.161 2.34143 9.87163 2.83971 8.66866C3.338 7.4657 4.06834 6.37265 4.98905 5.45194C5.90976 4.53123 7.00281 3.80089 8.20577 3.3026C9.40874 2.80432 10.6981 2.54785 12.0002 2.54785C14.6298 2.54785 17.1518 3.59249 19.0113 5.45194C20.8707 7.3114 21.9153 9.83337 21.9153 12.463C21.9153 15.0927 20.8707 17.6147 19.0113 19.4741C17.1518 21.3336 14.6298 22.3782 12.0002 22.3782Z" stroke="#646464" stroke-width="2.49004"/>
</g>
</svg>
