<svg width="248" height="241" viewBox="0 0 248 241" fill="none" xmlns="http://www.w3.org/2000/svg">
<g clip-path="url(#clip0_1409_12564)">
<path d="M218.699 207.221C212.361 213.728 206.689 217.552 202.347 220.439C159.996 248.598 111.584 240.481 96.6167 237.708C72.4688 233.232 52.084 230.075 34.5698 214.318C-5.22725 178.515 -3.29187 103.827 27.1181 57.5624C30.7241 52.0764 61.0881 7.25791 109.605 0.94186C110.792 0.787957 111.678 0.699766 112.453 0.617627C119.959 -0.1735 166.468 -4.34962 204.391 27.2886C209.82 31.8175 218.556 39.9864 226.657 52.449C256.277 97.9998 256.371 168.553 218.699 207.221Z" fill="url(#paint0_linear_1409_12564)"/>
<path d="M63.1947 11.2906C60.4013 11.535 57.8009 12.8113 55.9049 14.8685C54.0088 16.9256 52.9544 19.6148 52.9489 22.407C52.8482 57.7933 52.6815 179.854 54.998 223.055C55.1154 225.26 56.0715 227.337 57.672 228.864C59.2726 230.392 61.3973 231.255 63.614 231.278C86.3788 231.522 151.86 231.969 189.034 229.602C192.763 229.368 196.262 227.727 198.819 225.014C201.375 222.3 202.796 218.718 202.793 214.997C202.747 177.857 202.152 73.4067 197.042 25.6632C196.746 22.8915 195.485 20.3105 193.478 18.3679C191.47 16.4253 188.844 15.2438 186.053 15.0283C161.226 13.1046 95.2909 8.5117 63.1947 11.2906Z" fill="url(#paint1_linear_1409_12564)"/>
<path d="M62.0888 31.6828C61.6416 61.954 60.3687 162.651 62.5907 199.817C62.9154 205.249 67.1535 209.538 72.3858 209.719C93.9289 210.467 149.174 211.914 180.652 208.465C186.321 207.843 190.653 202.951 190.804 197.027C191.592 166.136 193.718 72.3484 191.559 35.6021C191.212 29.7391 186.717 25.0615 181.078 24.6828C157.751 23.1178 97.8527 19.508 71.0834 21.7284C66.0586 22.1373 62.1661 26.4388 62.0888 31.6828Z" fill="#91B3FA"/>
<path d="M114.14 16.5529C114.148 16.9554 114.311 17.3394 114.595 17.6256C114.88 17.9117 115.264 18.078 115.668 18.0902C119.813 18.2155 131.491 18.5717 136.71 18.7594C136.95 18.7678 137.189 18.7215 137.408 18.6241C137.628 18.5267 137.822 18.3807 137.976 18.1972C138.13 18.0138 138.24 17.7977 138.298 17.5655C138.355 17.3333 138.359 17.091 138.308 16.8572C138.29 16.8261 138.156 15.5404 136.838 15.4496C133.308 15.2049 122.656 14.5461 115.617 14.9507C114.172 15.0329 114.093 16.6696 114.14 16.5529Z" fill="url(#paint2_linear_1409_12564)"/>
<path d="M87.3749 123.096C87.3749 123.096 117.07 115.678 148.442 120.151C157.269 121.41 165.087 126.524 169.851 134.03C178.434 147.555 190.569 171.657 188.002 196.795L174.53 200.112C174.53 200.112 165.22 170.283 154.742 158.141C154.742 158.141 142.331 186.308 142.959 201.776C142.977 202.213 143.006 202.64 143.046 203.056C144.47 218.187 83.4746 205.88 83.4746 205.88L87.3749 123.096Z" fill="url(#paint3_linear_1409_12564)"/>
<path d="M119.476 97.8421L113.154 117.894C112.566 119.759 113.154 121.757 114.62 122.883C118.006 125.477 124.692 129.61 132.864 129.491C134.359 129.469 135.615 128.199 135.72 126.637L137.966 93.123L119.476 97.8421Z" fill="url(#paint4_linear_1409_12564)"/>
<path d="M143.953 75.8644C143.953 75.8644 146.409 91.655 144.863 99.2014C143.317 106.748 143.653 111.998 134.617 111.233C125.582 110.469 119.441 104.284 117.455 95.8432C117.455 95.8432 114.292 82.8116 116.91 78.4989C119.529 74.1862 143.953 75.8644 143.953 75.8644Z" fill="url(#paint5_linear_1409_12564)"/>
<path d="M121.814 91.2935L122.907 91.5797C122.907 91.5797 120.832 81.2146 125.211 80.6344C129.59 80.0543 146.085 80.9716 150.923 76.3234C155.586 71.8421 154.5 64.1928 150.662 61.1286C150.542 61.038 150.392 60.9956 150.242 61.01C150.091 61.0245 149.952 61.0946 149.851 61.2064L149.312 61.7909C149.23 61.8787 149.124 61.9402 149.006 61.9677C148.889 61.9951 148.766 61.9873 148.654 61.9451C148.541 61.903 148.443 61.8284 148.373 61.7309C148.303 61.6334 148.263 61.5174 148.26 61.3975C148.247 60.8787 147.626 60.6081 147.25 60.9652C145.779 62.3486 142.269 64.307 134.399 63.7216C123.226 62.8924 115.049 65.3436 112.94 72.6272C112.911 72.7309 112.854 72.8248 112.775 72.8993C112.697 72.9737 112.6 73.0259 112.495 73.0505C112.389 73.0751 112.279 73.0712 112.176 73.0392C112.072 73.0072 111.979 72.9482 111.906 72.8684C111.246 72.1854 110.046 71.632 107.991 72.6004C104.419 74.2847 103.94 80.9535 108.974 87.8592C109.032 87.9341 109.07 88.0215 109.088 88.1142C109.105 88.2069 109.1 88.3023 109.073 88.3928C109.047 88.4832 108.999 88.5661 108.934 88.6347C108.869 88.7034 108.789 88.7558 108.7 88.7878C107.337 89.2374 105.132 90.5776 108.992 94.1433C112.941 97.7911 115.731 98.2364 116.826 98.2433C116.968 98.2449 117.106 98.197 117.216 98.1077C117.327 98.0185 117.402 97.8936 117.429 97.7548L118.741 91.1508C118.758 91.0701 118.79 90.9935 118.837 90.9258C118.884 90.8581 118.945 90.8006 119.015 90.7569C119.085 90.7132 119.163 90.6842 119.245 90.6716C119.326 90.6591 119.41 90.6633 119.49 90.6839L121.814 91.2935Z" fill="url(#paint6_linear_1409_12564)"/>
<path d="M121.724 92.7257C121.724 92.7257 121.749 83.0558 117.004 84.5274C112.259 85.999 116.443 95.2228 119.63 96.4185L121.724 92.7257Z" fill="url(#paint7_linear_1409_12564)"/>
<path d="M88.6138 186.612C87.2984 177.361 95.8623 160.553 99.8408 155.399C100.982 153.924 101.61 152.12 101.631 150.258C101.748 137.16 96.2244 128.748 87.3748 123.1C87.3748 123.1 55.256 160.365 63.4344 189.022C64.2472 191.922 65.5987 194.646 67.419 197.051C68.7066 186.251 82.2971 187.111 88.6138 186.612Z" fill="url(#paint8_linear_1409_12564)"/>
<path d="M88.1579 179.821L86.9336 179.681C87.9712 170.611 95.9638 159.415 99.3501 155.021L100.327 155.769C97.004 160.08 89.1608 171.06 88.1579 179.821Z" fill="url(#paint9_linear_1409_12564)"/>
<path d="M88.7789 186.178C85.166 186.184 68.5478 186.75 67.0127 196.624C81.3464 215.5 120.854 208.69 120.854 208.69V201.345C120.854 201.345 96.0882 196.866 89.7931 186.741C89.6862 186.568 89.537 186.426 89.3595 186.328C89.182 186.229 88.9821 186.178 88.7789 186.178Z" fill="url(#paint10_linear_1409_12564)"/>
<path d="M117.461 207.09C117.461 207.09 123.295 193.383 133.574 198.245C143.852 203.106 143.044 206.286 143.044 206.286L117.461 207.09Z" fill="url(#paint11_linear_1409_12564)"/>
<path d="M116.151 209.933C116.19 210.433 116.421 210.897 116.796 211.231C117.172 211.564 117.662 211.741 118.164 211.723L171.427 209.873C171.831 209.859 172.221 209.72 172.542 209.476C172.863 209.232 173.101 208.895 173.221 208.511L174.768 203.583C174.856 203.3 174.879 203.001 174.834 202.708C174.789 202.416 174.677 202.137 174.507 201.894C174.338 201.651 174.114 201.45 173.855 201.306C173.595 201.162 173.305 201.079 173.009 201.063L153.586 200.036C153.41 200.027 153.233 200.041 153.061 200.079L117.674 207.882C117.215 207.984 116.808 208.247 116.527 208.624C116.247 209.001 116.114 209.466 116.151 209.933Z" fill="url(#paint12_linear_1409_12564)"/>
<path d="M151.854 207.997L153.32 201.197L173.272 202.146L171.959 207.787L151.854 207.997Z" fill="url(#paint13_linear_1409_12564)"/>
<path d="M141.626 134.801C140.498 143.988 135.417 181.317 133.964 191.983C133.916 192.335 133.945 192.694 134.051 193.034C134.156 193.373 134.334 193.686 134.573 193.95C134.812 194.214 135.106 194.424 135.435 194.563C135.763 194.703 136.118 194.769 136.475 194.759L222.645 192.303C223.193 192.287 223.72 192.09 224.143 191.742C224.566 191.395 224.86 190.917 224.979 190.384L238.385 130.271C238.467 129.901 238.462 129.516 238.371 129.148C238.279 128.78 238.102 128.438 237.855 128.149C237.608 127.86 237.298 127.633 236.947 127.484C236.597 127.335 236.217 127.269 235.836 127.291L143.927 132.652C143.352 132.685 142.806 132.918 142.385 133.31C141.965 133.703 141.696 134.231 141.626 134.801Z" fill="url(#paint14_linear_1409_12564)"/>
<path d="M176.263 172.498L163.528 208.492L193.142 209.117L195.607 172.717C195.634 172.314 195.575 171.911 195.433 171.533C195.29 171.155 195.069 170.812 194.782 170.527C194.496 170.241 194.152 170.02 193.773 169.878C193.394 169.736 192.988 169.677 192.584 169.704L178.755 170.617C178.2 170.654 177.669 170.852 177.226 171.186C176.783 171.52 176.448 171.976 176.263 172.498Z" fill="url(#paint15_linear_1409_12564)"/>
<path d="M151.522 209.005C151.446 209.235 151.426 209.48 151.464 209.719C151.501 209.958 151.595 210.185 151.738 210.381C151.88 210.577 152.068 210.737 152.284 210.847C152.5 210.957 152.74 211.014 152.983 211.015H199.359C199.561 211.015 199.761 210.975 199.948 210.898C200.135 210.821 200.304 210.709 200.447 210.566C200.59 210.424 200.703 210.255 200.781 210.07C200.858 209.884 200.898 209.684 200.898 209.483V207.502C200.898 207.296 200.856 207.091 200.774 206.901C200.693 206.711 200.573 206.539 200.424 206.396C200.274 206.253 200.096 206.142 199.902 206.069C199.708 205.996 199.501 205.963 199.293 205.972L152.917 207.953C152.605 207.966 152.304 208.074 152.055 208.262C151.805 208.45 151.619 208.709 151.522 209.005Z" fill="url(#paint16_linear_1409_12564)"/>
<path d="M140.324 172.775L139.716 172.699L143.95 139.45C144.078 138.449 144.552 137.525 145.292 136.835C146.031 136.146 146.988 135.736 147.999 135.675L227.423 130.898L227.461 131.511L148.037 136.287C147.17 136.34 146.348 136.693 145.715 137.284C145.081 137.876 144.674 138.668 144.563 139.526L140.324 172.775Z" fill="#91B3FA"/>
<path d="M138.506 182.17L137.595 189.369L138.207 189.446L139.118 182.247L138.506 182.17Z" fill="#91B3FA"/>
<path d="M135.493 102.916C125.923 103.637 120.361 93.7834 120.306 93.6839L120.947 93.332C121 93.428 126.341 102.874 135.437 102.19L135.493 102.916Z" fill="url(#paint17_linear_1409_12564)"/>
<path d="M139.4 102.548C139.4 102.819 139.292 103.079 139.099 103.271C138.907 103.463 138.646 103.57 138.374 103.57H135.632C135.359 103.57 135.098 103.463 134.906 103.271C134.713 103.079 134.605 102.819 134.604 102.548C134.604 102.277 134.713 102.017 134.905 101.825C135.098 101.633 135.359 101.525 135.632 101.525H138.37C138.505 101.525 138.639 101.552 138.763 101.603C138.888 101.655 139.001 101.73 139.096 101.825C139.192 101.92 139.267 102.033 139.319 102.157C139.37 102.281 139.397 102.414 139.397 102.548H139.4Z" fill="url(#paint18_linear_1409_12564)"/>
<path d="M120.969 82.7552C120.969 82.7552 124.404 65.213 134.522 63.5607C134.522 63.5607 131.657 62.1245 128.669 63.6826C125.681 65.2406 118.131 73.7796 118.439 83.191C120.493 83.9233 120.969 82.7552 120.969 82.7552Z" fill="url(#paint19_linear_1409_12564)"/>
<path d="M119.21 81.9242C113.95 82.9877 114.597 89.6115 114.597 89.6115C114.218 94.4188 115.627 96.8026 117.433 97.9378C118.04 98.3186 118.736 98.5365 119.452 98.5703C120.169 98.6041 120.882 98.4525 121.523 98.1305C122.163 97.8084 122.709 97.3268 123.107 96.7324C123.505 96.138 123.742 95.4512 123.794 94.7387C123.891 93.4305 124.003 92.1863 124.1 91.7454C124.336 90.6776 124.471 80.8607 119.21 81.9242Z" fill="url(#paint20_linear_1409_12564)"/>
<path d="M119.694 83.5998C119.165 83.508 118.62 83.5963 118.148 83.8506C117.675 84.1049 117.302 84.5102 117.089 85.0013C113.945 92.2538 117.806 96.972 119.7 97.0706C121.697 97.1734 121.657 87.6056 121.234 85.1518C121.052 84.1237 120.397 83.7208 119.694 83.5998Z" fill="url(#paint21_linear_1409_12564)"/>
<path d="M195.614 114.131C213.522 114.131 228.039 99.6755 228.039 81.8431C228.039 64.0107 213.522 49.5547 195.614 49.5547C177.706 49.5547 163.188 64.0107 163.188 81.8431C163.188 99.6755 177.706 114.131 195.614 114.131Z" fill="white"/>
<path d="M193.019 90.9978C192.412 91.0219 191.846 90.851 191.532 90.5439L186.249 85.3968C185.754 84.9147 186.02 84.254 186.845 83.9215C187.669 83.5891 188.736 83.7104 189.231 84.1926L192.893 87.7654L203.727 75.6373C204.161 75.1011 205.203 74.8552 206.055 75.0876C206.906 75.3201 207.245 75.9427 206.811 76.4785L194.566 90.359C194.28 90.7127 193.711 90.9562 193.08 90.9946L193.019 90.9978Z" fill="url(#paint22_linear_1409_12564)"/>
<path d="M89.8745 232.393V194.097C89.876 191.679 88.9192 189.358 87.212 187.639C85.5049 185.92 83.1853 184.942 80.7575 184.916C65.5937 184.752 34.3181 184.743 8.72792 186.891C7.04008 187.033 5.46308 187.786 4.29513 189.008C3.12717 190.23 2.44921 191.835 2.38943 193.521L0.00512035 230.546C-0.0365783 231.708 0.154568 232.868 0.567472 233.956C0.980375 235.045 1.60675 236.041 2.41008 236.886C3.21341 237.731 4.17762 238.408 5.24651 238.878C6.3154 239.348 7.46758 239.602 8.63588 239.624L81.0657 240.995C82.2142 241.016 83.3555 240.81 84.423 240.388C85.4904 239.966 86.4627 239.336 87.2828 238.535C88.103 237.734 88.7546 236.778 89.1996 235.724C89.6446 234.669 89.874 233.537 89.8745 232.393Z" fill="url(#paint23_linear_1409_12564)"/>
<path d="M81.092 198.24C81.1562 201.499 81.0589 206.669 80.9791 210.009C80.9694 210.42 80.8738 210.824 80.6984 211.195C80.5229 211.567 80.2715 211.898 79.9602 212.167C79.6488 212.436 79.2845 212.638 78.8904 212.759C78.4964 212.88 78.0813 212.917 77.6718 212.869L65.1927 211.412C64.7983 211.366 64.4171 211.242 64.0719 211.046C63.7267 210.851 63.4245 210.588 63.1833 210.274C62.9421 209.96 62.7667 209.601 62.6677 209.218C62.5687 208.835 62.5481 208.436 62.607 208.045L64.1387 197.869C64.244 197.17 64.598 196.531 65.1363 196.07C65.6747 195.608 66.3615 195.355 67.0717 195.355H78.1311C78.9054 195.355 79.649 195.657 80.2026 196.196C80.7561 196.735 81.0754 197.469 81.092 198.24Z" fill="white"/>
<path opacity="0.37" d="M48.4781 217.524L38.0709 218.642C37.7288 218.679 37.3827 218.641 37.0572 218.53C36.7316 218.419 36.4345 218.238 36.1871 218C35.9396 217.762 35.7478 217.472 35.6253 217.152C35.5028 216.832 35.4526 216.489 35.4782 216.147L37.754 185.311C42.118 185.173 46.4229 185.073 50.5759 185.002V215.2C50.5766 215.777 50.3626 216.334 49.9752 216.763C49.5878 217.192 49.0545 217.463 48.4781 217.524Z" fill="white"/>
<path d="M44.2115 212.179C44.1962 212.444 44.0799 212.693 43.8862 212.876C43.6926 213.059 43.4363 213.161 43.1695 213.162C43.1495 213.162 43.1287 213.162 43.1087 213.162C42.9713 213.154 42.8366 213.12 42.7126 213.061C42.5886 213.001 42.4775 212.918 42.386 212.816C42.2944 212.713 42.2242 212.594 42.1792 212.465C42.1343 212.335 42.1155 212.198 42.1241 212.061L43.6939 185.148C44.3972 185.131 45.0953 185.115 45.7934 185.1L44.2115 212.179Z" fill="white"/>
<path d="M75.3205 207.954C75.4093 207.954 75.4947 207.92 75.5593 207.86C75.6239 207.799 75.6627 207.716 75.6678 207.628L76.2079 199.155C76.211 199.109 76.205 199.063 76.1902 199.02C76.1754 198.977 76.1521 198.937 76.1218 198.903C76.0914 198.869 76.0545 198.841 76.0133 198.821C75.972 198.801 75.9272 198.789 75.8814 198.786C75.8355 198.782 75.7891 198.788 75.7453 198.802C75.7015 198.817 75.661 198.84 75.6264 198.87C75.5917 198.901 75.5636 198.938 75.5437 198.979C75.5239 199.021 75.5126 199.066 75.5107 199.111L74.9715 207.585C74.9684 207.63 74.9745 207.676 74.9892 207.719C75.004 207.763 75.0273 207.802 75.0576 207.837C75.088 207.871 75.1248 207.899 75.1661 207.919C75.2073 207.939 75.2522 207.95 75.298 207.953L75.3205 207.954Z" fill="url(#paint24_linear_1409_12564)"/>
<path d="M74.209 207.955C74.2994 207.955 74.3863 207.92 74.4512 207.857C74.5161 207.794 74.5538 207.709 74.5563 207.619L74.8393 198.98C74.8412 198.934 74.8339 198.889 74.8179 198.846C74.8018 198.803 74.7774 198.763 74.7459 198.73C74.7145 198.697 74.6767 198.67 74.6348 198.651C74.5928 198.632 74.5475 198.622 74.5015 198.62C74.4551 198.616 74.4083 198.622 74.3642 198.637C74.3201 198.652 74.2797 198.676 74.2457 198.708C74.2116 198.74 74.1848 198.779 74.1668 198.821C74.1488 198.864 74.14 198.91 74.1412 198.957L73.8582 207.596C73.8564 207.642 73.8638 207.687 73.8799 207.73C73.8959 207.773 73.9204 207.812 73.9518 207.846C73.9832 207.879 74.021 207.906 74.0629 207.925C74.1048 207.943 74.15 207.954 74.1959 207.955H74.209Z" fill="url(#paint25_linear_1409_12564)"/>
<path d="M72.7026 207.952C72.6568 207.951 72.6117 207.94 72.5701 207.92C72.5286 207.901 72.4912 207.874 72.4603 207.84C72.4294 207.806 72.4055 207.767 72.39 207.724C72.3745 207.681 72.3677 207.635 72.3701 207.589C72.509 204.688 72.773 199.152 72.7765 198.963C72.7765 198.871 72.813 198.783 72.8782 198.718C72.9433 198.654 73.0317 198.617 73.1238 198.617C73.2159 198.617 73.3042 198.654 73.3693 198.718C73.4345 198.783 73.4711 198.871 73.4711 198.963C73.4711 199.107 73.1315 206.198 73.0638 207.619C73.06 207.708 73.0217 207.792 72.957 207.854C72.8923 207.916 72.8061 207.95 72.7165 207.95L72.7026 207.952Z" fill="url(#paint26_linear_1409_12564)"/>
<path d="M70.3918 208.301C70.5725 208.301 70.746 208.231 70.8757 208.106C71.0054 207.98 71.081 207.81 71.0864 207.63C71.3816 199.26 71.3304 199.07 71.2956 198.947C71.259 198.766 71.152 198.608 70.9981 198.506C70.8443 198.405 70.6561 198.368 70.4751 198.404C70.2941 198.441 70.1351 198.547 70.033 198.701C69.9309 198.854 69.8941 199.041 69.9307 199.221C69.9533 199.724 69.797 204.594 69.6919 207.581C69.6883 207.673 69.7029 207.764 69.7348 207.849C69.7668 207.935 69.8155 208.014 69.878 208.08C69.9406 208.147 70.0158 208.201 70.0994 208.239C70.1829 208.276 70.2732 208.297 70.3649 208.3L70.3918 208.301Z" fill="url(#paint27_linear_1409_12564)"/>
<path d="M68.8795 207.954C68.9717 207.954 69.06 207.918 69.1251 207.853C69.1903 207.788 69.2269 207.7 69.2269 207.608V199.135C69.2269 199.043 69.1903 198.955 69.1251 198.89C69.06 198.826 68.9717 198.789 68.8795 198.789C68.7874 198.789 68.6991 198.826 68.634 198.89C68.5688 198.955 68.5322 199.043 68.5322 199.135V207.608C68.5322 207.7 68.5688 207.788 68.634 207.853C68.6991 207.918 68.7874 207.954 68.8795 207.954Z" fill="url(#paint28_linear_1409_12564)"/>
<path d="M67.6576 207.955C67.7486 207.955 67.8361 207.919 67.901 207.856C67.966 207.792 68.0033 207.706 68.0049 207.615C68.0717 204.67 68.2272 199.858 68.3669 199.28C68.4067 199.212 68.4221 199.133 68.4106 199.055C68.3991 198.978 68.3615 198.906 68.3038 198.853C68.2461 198.799 68.1718 198.767 68.0932 198.761C68.0146 198.755 67.9363 198.776 67.8712 198.82C67.681 198.945 67.5004 199.062 67.3068 207.599C67.3055 207.645 67.3133 207.69 67.3298 207.733C67.3462 207.776 67.371 207.815 67.4026 207.848C67.4343 207.881 67.4722 207.907 67.5141 207.926C67.5561 207.944 67.6013 207.954 67.6471 207.955H67.6576Z" fill="url(#paint29_linear_1409_12564)"/>
<path d="M77.1985 208.727C77.3773 208.727 77.5493 208.659 77.6787 208.536C77.8081 208.413 77.8849 208.245 77.8932 208.068L78.3595 199.162C78.3646 199.071 78.3515 198.979 78.321 198.893C78.2904 198.807 78.243 198.727 78.1815 198.66C78.12 198.592 78.0456 198.537 77.9625 198.498C77.8795 198.459 77.7895 198.436 77.6978 198.432C77.5135 198.425 77.3336 198.49 77.1965 198.612C77.0594 198.735 76.976 198.907 76.9641 199.09L76.4987 207.991C76.4934 208.083 76.5064 208.174 76.5369 208.26C76.5673 208.347 76.6146 208.426 76.676 208.494C76.7375 208.562 76.8118 208.617 76.8948 208.656C76.9778 208.695 77.0678 208.718 77.1595 208.722L77.1985 208.727Z" fill="url(#paint30_linear_1409_12564)"/>
<path d="M70.8175 180.57V153.68C70.8188 151.983 70.1472 150.354 68.9488 149.146C67.7504 147.939 66.122 147.251 64.4174 147.233C53.7687 147.117 31.8045 147.112 13.8336 148.616C12.6485 148.716 11.5413 149.245 10.7214 150.103C9.90154 150.961 9.42592 152.089 9.3845 153.272L7.70521 179.273C7.67555 180.09 7.80952 180.905 8.09929 181.669C8.38906 182.434 8.82885 183.134 9.39298 183.727C9.95712 184.321 10.6343 184.797 11.3851 185.127C12.1359 185.458 12.9452 185.636 13.7659 185.652L64.6327 186.614C65.4394 186.629 66.241 186.484 66.9907 186.187C67.7403 185.89 68.4231 185.447 68.9989 184.885C69.5748 184.322 70.0322 183.651 70.3445 182.91C70.6567 182.169 70.8175 181.374 70.8175 180.57Z" fill="url(#paint31_linear_1409_12564)"/>
<path d="M64.6502 156.582C64.6954 158.871 64.6268 162.502 64.5712 164.848C64.5638 165.136 64.4961 165.42 64.3727 165.68C64.2492 165.941 64.0726 166.173 63.8541 166.362C63.6356 166.55 63.38 166.692 63.1036 166.777C62.8271 166.862 62.536 166.889 62.2486 166.856L53.4841 165.833C53.2073 165.8 52.9399 165.713 52.6978 165.575C52.4557 165.438 52.2436 165.253 52.0744 165.033C51.9051 164.812 51.782 164.56 51.7122 164.291C51.6425 164.023 51.6276 163.743 51.6685 163.468L52.7443 156.322C52.8187 155.832 53.0671 155.384 53.4446 155.06C53.8222 154.736 54.3038 154.557 54.8021 154.557H62.569C63.1131 154.556 63.6359 154.768 64.025 155.146C64.4142 155.525 64.6386 156.041 64.6502 156.582Z" fill="white"/>
<path opacity="0.37" d="M41.7462 170.127L34.4352 170.912C34.1948 170.938 33.9517 170.911 33.7229 170.833C33.4942 170.755 33.2854 170.628 33.1114 170.461C32.9375 170.294 32.8026 170.09 32.7162 169.865C32.6299 169.641 32.5942 169.4 32.6118 169.159L34.2103 147.504C37.2754 147.407 40.2979 147.336 43.2145 147.287V168.495C43.2144 168.899 43.0645 169.289 42.7936 169.59C42.5227 169.891 42.1498 170.082 41.7462 170.127Z" fill="white"/>
<path d="M38.7501 166.372C38.7399 166.559 38.6581 166.735 38.5217 166.864C38.3852 166.992 38.2044 167.064 38.0164 167.064H37.973C37.8759 167.059 37.7808 167.035 37.6932 166.993C37.6056 166.951 37.5272 166.892 37.4626 166.819C37.398 166.747 37.3484 166.663 37.3168 166.571C37.2852 166.479 37.2721 166.383 37.2784 166.286L38.3811 147.386L39.8572 147.352L38.7501 166.372Z" fill="white"/>
<path d="M60.5968 163.405C60.6592 163.405 60.7193 163.381 60.7647 163.339C60.8102 163.296 60.8377 163.238 60.8417 163.176L61.2203 157.223C61.2224 157.191 61.2181 157.159 61.2077 157.129C61.1974 157.098 61.181 157.07 61.1598 157.046C61.1385 157.022 61.1126 157.002 61.0836 156.988C61.0547 156.974 61.0232 156.966 60.9911 156.964C60.9587 156.961 60.9261 156.965 60.8952 156.975C60.8643 156.985 60.8358 157.001 60.8114 157.022C60.787 157.044 60.7673 157.07 60.7534 157.099C60.7395 157.128 60.7317 157.16 60.7306 157.192L60.3511 163.145C60.349 163.177 60.3532 163.209 60.3636 163.24C60.374 163.27 60.3903 163.298 60.4116 163.322C60.4329 163.346 60.4588 163.366 60.4877 163.38C60.5167 163.394 60.5482 163.402 60.5804 163.404L60.5968 163.405Z" fill="url(#paint32_linear_1409_12564)"/>
<path d="M59.8163 163.404C59.8799 163.404 59.941 163.38 59.9867 163.336C60.0324 163.291 60.0591 163.231 60.0611 163.168L60.2599 157.101C60.2621 157.036 60.2383 156.973 60.1938 156.926C60.1494 156.879 60.0879 156.851 60.0229 156.849C59.9903 156.846 59.9575 156.85 59.9265 156.86C59.8956 156.871 59.8673 156.888 59.8434 156.91C59.8195 156.932 59.8007 156.96 59.7881 156.99C59.7755 157.02 59.7694 157.052 59.7703 157.085L59.5714 163.152C59.5693 163.216 59.5931 163.279 59.6375 163.327C59.682 163.374 59.7434 163.402 59.8085 163.404H59.8163Z" fill="url(#paint33_linear_1409_12564)"/>
<path d="M58.7576 163.405C58.7252 163.404 58.6933 163.396 58.6639 163.382C58.6346 163.368 58.6083 163.348 58.5867 163.324C58.565 163.3 58.5484 163.272 58.5378 163.241C58.5272 163.211 58.5228 163.178 58.5249 163.146C58.6222 161.107 58.8071 157.22 58.8098 157.088C58.8135 157.025 58.8409 156.967 58.8865 156.924C58.9321 156.881 58.9924 156.857 59.055 156.857C59.1177 156.857 59.178 156.881 59.2235 156.924C59.2691 156.967 59.2966 157.025 59.3003 157.088C59.3003 157.188 59.0624 162.168 59.0138 163.166C59.0111 163.228 58.9842 163.288 58.9388 163.331C58.8933 163.374 58.8328 163.398 58.7698 163.398L58.7576 163.405Z" fill="url(#paint34_linear_1409_12564)"/>
<path d="M57.1359 163.648C57.2628 163.648 57.3847 163.599 57.4759 163.511C57.5671 163.424 57.6205 163.304 57.6248 163.178C57.8323 157.298 57.7984 157.167 57.7724 157.079C57.735 156.965 57.6569 156.869 57.553 156.809C57.449 156.748 57.3265 156.728 57.2087 156.752C57.0908 156.776 56.9858 156.842 56.9137 156.938C56.8415 157.033 56.8072 157.152 56.8173 157.272C56.8329 157.625 56.7235 161.046 56.6497 163.143C56.6452 163.273 56.6925 163.398 56.781 163.493C56.8696 163.588 56.9922 163.643 57.122 163.648H57.1359Z" fill="url(#paint35_linear_1409_12564)"/>
<path d="M56.073 163.405C56.138 163.405 56.2003 163.38 56.2464 163.334C56.2925 163.288 56.3185 163.226 56.3187 163.161V157.208C56.3207 157.175 56.3158 157.142 56.3044 157.11C56.2929 157.079 56.2752 157.05 56.2522 157.026C56.2292 157.002 56.2015 156.982 56.1708 156.969C56.14 156.956 56.1069 156.949 56.0734 156.949C56.0399 156.949 56.0067 156.956 55.976 156.969C55.9452 156.982 55.9175 157.002 55.8945 157.026C55.8716 157.05 55.8538 157.079 55.8424 157.11C55.831 157.142 55.8261 157.175 55.8281 157.208V163.161C55.8281 163.226 55.8539 163.288 55.8998 163.334C55.9457 163.379 56.008 163.405 56.073 163.405Z" fill="url(#paint36_linear_1409_12564)"/>
<path d="M55.2154 163.405C55.2794 163.405 55.3409 163.38 55.3867 163.335C55.4325 163.291 55.4588 163.23 55.4602 163.166C55.5071 161.098 55.6174 157.719 55.7155 157.313C55.7418 157.265 55.7514 157.21 55.7428 157.157C55.7342 157.103 55.7079 157.054 55.668 157.017C55.6282 156.98 55.577 156.957 55.5227 156.952C55.4683 156.947 55.414 156.961 55.3682 156.99C55.2353 157.077 55.1077 157.163 54.9722 163.155C54.9708 163.22 54.9953 163.282 55.0402 163.329C55.0851 163.376 55.1469 163.403 55.2119 163.405H55.2154Z" fill="url(#paint37_linear_1409_12564)"/>
<path d="M61.916 163.946C62.0414 163.946 62.162 163.898 62.2529 163.812C62.3438 163.726 62.3982 163.609 62.4049 163.484L62.7322 157.233C62.7388 157.103 62.6936 156.977 62.6065 156.88C62.5194 156.784 62.3976 156.726 62.2677 156.719C62.1382 156.714 62.0119 156.76 61.9157 156.846C61.8195 156.933 61.7611 157.053 61.7528 157.182L61.4254 163.433C61.4188 163.562 61.464 163.689 61.5511 163.785C61.6382 163.881 61.7601 163.939 61.8899 163.946L61.916 163.946Z" fill="url(#paint38_linear_1409_12564)"/>
</g>
<defs>
<linearGradient id="paint0_linear_1409_12564" x1="270.254" y1="280.244" x2="99.3194" y2="97.5097" gradientUnits="userSpaceOnUse">
<stop stop-color="#DAE3FE"/>
<stop offset="1" stop-color="#E9EFFD"/>
</linearGradient>
<linearGradient id="paint1_linear_1409_12564" x1="257.695" y1="322.894" x2="-16.1296" y2="-93.7505" gradientUnits="userSpaceOnUse">
<stop stop-color="#09005D"/>
<stop offset="1" stop-color="#1A0F91"/>
</linearGradient>
<linearGradient id="paint2_linear_1409_12564" x1="114.13" y1="16.7906" x2="138.344" y2="16.7906" gradientUnits="userSpaceOnUse">
<stop stop-color="#4F52FF"/>
<stop offset="1" stop-color="#4042E2"/>
</linearGradient>
<linearGradient id="paint3_linear_1409_12564" x1="116.842" y1="185.37" x2="246.155" y2="26.3197" gradientUnits="userSpaceOnUse">
<stop stop-color="#E1473D"/>
<stop offset="1" stop-color="#E9605A"/>
</linearGradient>
<linearGradient id="paint4_linear_1409_12564" x1="112.891" y1="148.102" x2="127.294" y2="109.043" gradientUnits="userSpaceOnUse">
<stop stop-color="#FEBBBA"/>
<stop offset="1" stop-color="#FF928E"/>
</linearGradient>
<linearGradient id="paint5_linear_1409_12564" x1="141.93" y1="88.6736" x2="99.4519" y2="106.519" gradientUnits="userSpaceOnUse">
<stop stop-color="#FEBBBA"/>
<stop offset="1" stop-color="#FF928E"/>
</linearGradient>
<linearGradient id="paint6_linear_1409_12564" x1="139.444" y1="44.3014" x2="121.694" y2="97.7782" gradientUnits="userSpaceOnUse">
<stop stop-color="#09005D"/>
<stop offset="1" stop-color="#1A0F91"/>
</linearGradient>
<linearGradient id="paint7_linear_1409_12564" x1="139.046" y1="81.8092" x2="96.5673" y2="99.6541" gradientUnits="userSpaceOnUse">
<stop stop-color="#FEBBBA"/>
<stop offset="1" stop-color="#FF928E"/>
</linearGradient>
<linearGradient id="paint8_linear_1409_12564" x1="84.5164" y1="159.088" x2="213.828" y2="0.0381185" gradientUnits="userSpaceOnUse">
<stop stop-color="#E1473D"/>
<stop offset="1" stop-color="#E9605A"/>
</linearGradient>
<linearGradient id="paint9_linear_1409_12564" x1="75.5113" y1="88.9014" x2="109.222" y2="236.791" gradientUnits="userSpaceOnUse">
<stop stop-color="#FF928E"/>
<stop offset="1" stop-color="#FE7062"/>
</linearGradient>
<linearGradient id="paint10_linear_1409_12564" x1="84.8204" y1="175.109" x2="106.612" y2="232.699" gradientUnits="userSpaceOnUse">
<stop stop-color="#FEBBBA"/>
<stop offset="1" stop-color="#FF928E"/>
</linearGradient>
<linearGradient id="paint11_linear_1409_12564" x1="113.23" y1="161.802" x2="136.47" y2="223.22" gradientUnits="userSpaceOnUse">
<stop stop-color="#FEBBBA"/>
<stop offset="1" stop-color="#FF928E"/>
</linearGradient>
<linearGradient id="paint12_linear_1409_12564" x1="137.437" y1="219.747" x2="167.664" y2="174.215" gradientUnits="userSpaceOnUse">
<stop stop-color="#4F52FF"/>
<stop offset="1" stop-color="#4042E2"/>
</linearGradient>
<linearGradient id="paint13_linear_1409_12564" x1="147.814" y1="226.636" x2="178.041" y2="181.104" gradientUnits="userSpaceOnUse">
<stop stop-color="#4F52FF"/>
<stop offset="1" stop-color="#4042E2"/>
</linearGradient>
<linearGradient id="paint14_linear_1409_12564" x1="169.242" y1="170.102" x2="275.899" y2="111.842" gradientUnits="userSpaceOnUse">
<stop stop-color="#4F52FF"/>
<stop offset="1" stop-color="#4042E2"/>
</linearGradient>
<linearGradient id="paint15_linear_1409_12564" x1="181.032" y1="150.529" x2="179.258" y2="199.506" gradientUnits="userSpaceOnUse">
<stop stop-color="#4F52FF"/>
<stop offset="1" stop-color="#4042E2"/>
</linearGradient>
<linearGradient id="paint16_linear_1409_12564" x1="165.946" y1="226.699" x2="211.746" y2="148.935" gradientUnits="userSpaceOnUse">
<stop stop-color="#4F52FF"/>
<stop offset="1" stop-color="#4042E2"/>
</linearGradient>
<linearGradient id="paint17_linear_1409_12564" x1="119.951" y1="105.872" x2="132.432" y2="93.8209" gradientUnits="userSpaceOnUse">
<stop stop-color="#4F52FF"/>
<stop offset="1" stop-color="#4042E2"/>
</linearGradient>
<linearGradient id="paint18_linear_1409_12564" x1="134.604" y1="102.548" x2="139.397" y2="102.548" gradientUnits="userSpaceOnUse">
<stop stop-color="#4F52FF"/>
<stop offset="1" stop-color="#4042E2"/>
</linearGradient>
<linearGradient id="paint19_linear_1409_12564" x1="161.81" y1="60.5341" x2="57.2397" y2="96.9426" gradientUnits="userSpaceOnUse">
<stop stop-color="#4F52FF"/>
<stop offset="1" stop-color="#4042E2"/>
</linearGradient>
<linearGradient id="paint20_linear_1409_12564" x1="135.559" y1="59.2262" x2="118.681" y2="92.234" gradientUnits="userSpaceOnUse">
<stop stop-color="#4F52FF"/>
<stop offset="1" stop-color="#4042E2"/>
</linearGradient>
<linearGradient id="paint21_linear_1409_12564" x1="128.616" y1="81.235" x2="144.944" y2="65.4334" gradientUnits="userSpaceOnUse">
<stop stop-color="#4F52FF"/>
<stop offset="1" stop-color="#4042E2"/>
</linearGradient>
<linearGradient id="paint22_linear_1409_12564" x1="190.881" y1="69.8359" x2="191.475" y2="78.2625" gradientUnits="userSpaceOnUse">
<stop stop-color="#FF928E"/>
<stop offset="1" stop-color="#FE7062"/>
</linearGradient>
<linearGradient id="paint23_linear_1409_12564" x1="102.273" y1="174.522" x2="-76.9405" y2="300.085" gradientUnits="userSpaceOnUse">
<stop stop-color="#FF928E"/>
<stop offset="1" stop-color="#FE7062"/>
</linearGradient>
<linearGradient id="paint24_linear_1409_12564" x1="71.3706" y1="197.261" x2="93.5808" y2="229.674" gradientUnits="userSpaceOnUse">
<stop stop-color="#09005D"/>
<stop offset="1" stop-color="#1A0F91"/>
</linearGradient>
<linearGradient id="paint25_linear_1409_12564" x1="70.5665" y1="197.813" x2="92.7778" y2="230.225" gradientUnits="userSpaceOnUse">
<stop stop-color="#09005D"/>
<stop offset="1" stop-color="#1A0F91"/>
</linearGradient>
<linearGradient id="paint26_linear_1409_12564" x1="69.5976" y1="198.475" x2="91.8087" y2="230.888" gradientUnits="userSpaceOnUse">
<stop stop-color="#09005D"/>
<stop offset="1" stop-color="#1A0F91"/>
</linearGradient>
<linearGradient id="paint27_linear_1409_12564" x1="67.9215" y1="199.624" x2="90.1319" y2="232.036" gradientUnits="userSpaceOnUse">
<stop stop-color="#09005D"/>
<stop offset="1" stop-color="#1A0F91"/>
</linearGradient>
<linearGradient id="paint28_linear_1409_12564" x1="66.8156" y1="200.383" x2="89.0268" y2="232.795" gradientUnits="userSpaceOnUse">
<stop stop-color="#09005D"/>
<stop offset="1" stop-color="#1A0F91"/>
</linearGradient>
<linearGradient id="paint29_linear_1409_12564" x1="66.1294" y1="200.854" x2="88.3406" y2="233.265" gradientUnits="userSpaceOnUse">
<stop stop-color="#09005D"/>
<stop offset="1" stop-color="#1A0F91"/>
</linearGradient>
<linearGradient id="paint30_linear_1409_12564" x1="72.5193" y1="196.475" x2="94.7304" y2="228.887" gradientUnits="userSpaceOnUse">
<stop stop-color="#09005D"/>
<stop offset="1" stop-color="#1A0F91"/>
</linearGradient>
<linearGradient id="paint31_linear_1409_12564" x1="76.8755" y1="141.767" x2="-48.9824" y2="229.946" gradientUnits="userSpaceOnUse">
<stop stop-color="#FF928E"/>
<stop offset="1" stop-color="#FE7062"/>
</linearGradient>
<linearGradient id="paint32_linear_1409_12564" x1="57.8227" y1="155.896" x2="73.4211" y2="178.658" gradientUnits="userSpaceOnUse">
<stop stop-color="#09005D"/>
<stop offset="1" stop-color="#1A0F91"/>
</linearGradient>
<linearGradient id="paint33_linear_1409_12564" x1="57.2584" y1="156.281" x2="72.8568" y2="179.043" gradientUnits="userSpaceOnUse">
<stop stop-color="#09005D"/>
<stop offset="1" stop-color="#1A0F91"/>
</linearGradient>
<linearGradient id="paint34_linear_1409_12564" x1="56.5773" y1="156.75" x2="72.1755" y2="179.512" gradientUnits="userSpaceOnUse">
<stop stop-color="#09005D"/>
<stop offset="1" stop-color="#1A0F91"/>
</linearGradient>
<linearGradient id="paint35_linear_1409_12564" x1="55.4003" y1="157.555" x2="70.9986" y2="180.317" gradientUnits="userSpaceOnUse">
<stop stop-color="#09005D"/>
<stop offset="1" stop-color="#1A0F91"/>
</linearGradient>
<linearGradient id="paint36_linear_1409_12564" x1="54.6237" y1="158.088" x2="70.2216" y2="180.851" gradientUnits="userSpaceOnUse">
<stop stop-color="#09005D"/>
<stop offset="1" stop-color="#1A0F91"/>
</linearGradient>
<linearGradient id="paint37_linear_1409_12564" x1="54.1422" y1="158.418" x2="69.7405" y2="181.18" gradientUnits="userSpaceOnUse">
<stop stop-color="#09005D"/>
<stop offset="1" stop-color="#1A0F91"/>
</linearGradient>
<linearGradient id="paint38_linear_1409_12564" x1="58.6305" y1="155.343" x2="74.2288" y2="178.105" gradientUnits="userSpaceOnUse">
<stop stop-color="#09005D"/>
<stop offset="1" stop-color="#1A0F91"/>
</linearGradient>
<clipPath id="clip0_1409_12564">
<rect width="248" height="241" fill="white"/>
</clipPath>
</defs>
</svg>
