<svg width="30" height="30" viewBox="0 0 30 30" fill="none" xmlns="http://www.w3.org/2000/svg">
<path d="M24.3124 7.23881L16.1895 2.4592C15.6756 2.15833 15.0933 2 14.5006 2C13.908 2 13.3257 2.15833 12.8118 2.4592L4.68882 7.23881C4.17598 7.54176 3.75012 7.97654 3.45376 8.49973C3.15741 9.02291 3.00095 9.61619 3 10.2203V19.7782C3.00107 20.3823 3.15759 20.9755 3.45393 21.4987C3.75027 22.0219 4.17607 22.4567 4.68882 22.7597L12.8118 27.5406C13.3256 27.8416 13.908 28 14.5006 28C15.0933 28 15.6756 27.8416 16.1895 27.5406L24.3124 22.7623C24.825 22.4592 25.2507 22.0243 25.5468 21.5011C25.8429 20.978 25.9992 20.3848 26 19.7808V10.2203C25.9993 9.61629 25.8431 9.02305 25.5469 8.49985C25.2508 7.97665 24.8251 7.54182 24.3124 7.23881ZM24.3011 19.7782C24.3007 20.0783 24.223 20.373 24.0758 20.6329C23.9286 20.8929 23.7171 21.1089 23.4624 21.2593L15.3494 26.0325V16.2577C15.3485 15.7219 15.2081 15.196 14.9426 14.7335C14.6771 14.2711 14.296 13.8887 13.8382 13.6253L5.45704 8.78923L5.5389 8.73789L13.6619 3.95956C13.917 3.80989 14.2062 3.73112 14.5006 3.73112C14.795 3.73112 15.0842 3.80989 15.3394 3.95956L23.4624 8.73789C23.7171 8.88869 23.9286 9.10493 24.0758 9.36504C24.223 9.62515 24.3007 9.92004 24.3011 10.2203V19.7782Z" fill="#3364FA"/>
</svg>
