<svg width="409" height="323" viewBox="0 0 409 323" fill="none" xmlns="http://www.w3.org/2000/svg">
<path d="M98.035 290.542C204.213 358.134 331.918 304.537 366.989 244.566C401.549 185.468 358.054 97.7268 264.767 102.539C171.481 107.351 151.932 40.7307 127.906 24.0513C88.7814 -3.16206 54.2394 11.7779 31.6705 35.2032C30.9288 35.9626 30.2136 36.7484 29.4896 37.5343C22.1143 45.6441 15.9357 54.7662 11.1413 64.624C10.638 65.6659 10.1612 66.699 9.7109 67.7321C9.54313 68.0941 9.3842 68.4561 9.23409 68.827C-7.09213 107.475 -9.18479 222.288 98.035 290.542Z" fill="#EEF5FF"/>
<mask id="mask0_1001_12450" style="mask-type:luminance" maskUnits="userSpaceOnUse" x="0" y="9" width="379" height="314">
<path d="M8.67799 68.8976C-7.65706 107.545 -9.74971 222.359 97.5054 290.613C203.674 358.205 331.379 304.608 366.451 244.636C401.011 185.539 357.515 97.7974 264.238 102.61C170.96 107.422 151.367 40.8102 127.368 24.1396C70.6099 -15.3383 23.4767 33.8523 8.67799 68.8976Z" fill="white"/>
</mask>
<g mask="url(#mask0_1001_12450)">
<path d="M481.856 267.294H-79.0458V442.256H481.856V267.294Z" fill="#CEDDEF"/>
<path d="M125.231 301.598C155.47 301.598 179.984 296.455 179.984 290.111C179.984 283.766 155.47 278.623 125.231 278.623C94.9913 278.623 70.4774 283.766 70.4774 290.111C70.4774 296.455 94.9913 301.598 125.231 301.598Z" fill="#BACEE0"/>
</g>
<path d="M291.504 44.9254C287.424 57.0399 259.973 79.7677 229.74 72.024C201.272 64.7571 188.452 33.8529 196.398 18.8423C203.462 5.51823 220.936 3.09888 236.397 15.4341C251.858 27.7692 266.012 22.3742 275.345 21.4913C285.173 20.4582 295.936 31.7426 291.504 44.9254Z" fill="#EEF5FF"/>
<path d="M334.01 101.065L350.557 95.7672L351.078 82.4166C355.002 79.442 358.34 75.7655 360.923 71.5736L373.876 70.9379L377.673 53.4903L366.53 45.7466C366.221 43.308 365.692 40.9024 364.95 38.5591C364.199 36.2213 363.235 33.9573 362.071 31.7956L367.122 19.4339L353.824 7.31063L342.504 13.9771C337.969 12.0703 333.118 11.0253 328.2 10.8955L320.015 0.299805L303.494 5.59766L302.973 18.9218C299.05 21.8963 295.711 25.5728 293.128 29.7647L280.087 30.7271L276.255 48.3337L287.495 55.6359C288.09 60.5254 289.603 65.2586 291.954 69.5869L286.126 81.2422L299.733 93.6039L311.547 87.423C316.083 89.3451 320.936 90.4051 325.86 90.5488L334.01 101.065ZM304.625 57.8433C303.21 53.4137 303.14 48.6639 304.424 44.1945C305.708 39.7251 308.288 35.7369 311.839 32.734C315.39 29.7311 319.751 27.8484 324.371 27.324C328.992 26.7996 333.664 27.657 337.798 29.7879C341.931 31.9187 345.339 35.2272 347.593 39.2952C349.846 43.3631 350.842 48.0078 350.455 52.6419C350.069 57.276 348.317 61.6915 345.421 65.33C342.525 68.9686 338.616 71.6668 334.187 73.0835C328.246 74.9814 321.794 74.4421 316.25 71.5842C310.707 68.7263 306.525 63.7837 304.625 57.8433Z" fill="#CEDDEF"/>
<path d="M377.408 163.032L389.276 159.235L389.646 149.664C392.463 147.528 394.858 144.887 396.71 141.876L406.043 141.381L408.772 128.852L400.763 123.28C400.548 121.527 400.17 119.798 399.633 118.115C399.092 116.436 398.397 114.81 397.558 113.259L401.187 104.376L391.615 95.6609L383.483 100.447C380.225 99.0702 376.74 98.3098 373.205 98.2039L367.351 90.6191L355.458 94.4248L355.078 103.996C352.261 106.132 349.866 108.773 348.014 111.784L338.637 112.482L335.908 125.135L343.988 130.38C344.428 133.892 345.515 137.293 347.193 140.41L342.972 148.781L352.756 157.672L361.241 153.204C364.499 154.58 367.984 155.34 371.519 155.447L377.408 163.032ZM356.296 131.969C355.279 128.785 355.229 125.37 356.152 122.157C357.076 118.945 358.931 116.078 361.484 113.92C364.037 111.762 367.172 110.409 370.494 110.033C373.816 109.657 377.174 110.275 380.145 111.808C383.115 113.34 385.565 115.72 387.183 118.645C388.801 121.57 389.516 124.909 389.236 128.24C388.956 131.571 387.695 134.744 385.612 137.359C383.528 139.973 380.717 141.911 377.532 142.927C375.417 143.607 373.187 143.864 370.973 143.681C368.758 143.499 366.601 142.881 364.626 141.863C362.65 140.845 360.895 139.447 359.461 137.749C358.027 136.051 356.943 134.087 356.27 131.969H356.296Z" fill="#CEDDEF"/>
<path d="M28.1914 147.536L33.3215 158.918L42.8753 158.203C45.3196 160.76 48.2179 162.841 51.4225 164.339L52.9765 173.558L65.7179 174.838L70.3358 166.247C72.0607 165.835 73.7429 165.261 75.36 164.534C76.9661 163.806 78.5029 162.934 79.9515 161.929L89.1874 164.534L96.7457 154.026L91.0593 146.494C92.0616 143.1 92.4209 139.549 92.1189 136.022L98.9884 129.338L93.8583 117.957L84.3045 118.619C81.8578 116.064 78.9601 113.984 75.7573 112.482L73.9914 103.246L61.1087 101.948L56.8175 110.575C55.101 110.996 53.4255 111.569 51.811 112.288C50.2032 113.03 48.6664 113.916 47.2195 114.937L38.3898 111.732L30.6726 122.46L36.0764 130.407C35.0741 133.801 34.7147 137.352 35.0168 140.879L28.1914 147.536ZM56.6409 123.034C59.688 121.659 63.0744 121.219 66.3716 121.769C69.6689 122.319 72.7289 123.835 75.1647 126.125C77.6005 128.414 79.3026 131.374 80.0558 134.631C80.809 137.888 80.5793 141.295 79.396 144.422C78.2126 147.548 76.1287 150.253 73.4078 152.195C70.6868 154.137 67.4511 155.228 64.1098 155.331C60.7686 155.434 57.4719 154.544 54.6367 152.773C51.8015 151.002 49.5553 148.43 48.182 145.382C46.3436 141.296 46.2018 136.648 47.7878 132.458C49.3738 128.268 52.5579 124.878 56.6409 123.034Z" fill="#CEDDEF"/>
<path d="M246.534 81.1543C243.437 81.159 240.468 82.3912 238.279 84.581C236.089 86.7707 234.857 89.7393 234.852 92.8361V134.106C236.053 135.263 237.271 136.402 238.481 137.55V92.8361C238.483 90.7011 239.333 88.6542 240.842 87.1445C242.352 85.6348 244.399 84.7857 246.534 84.7833H269.438V81.1543H246.534Z" fill="#FBD15B"/>
<path d="M63.1574 177.901C60.0599 177.904 57.0899 179.135 54.8997 181.325C52.7094 183.516 51.4779 186.486 51.4756 189.583V230.853C52.6676 232.01 53.8949 233.149 55.1046 234.297V189.583C55.107 187.448 55.9561 185.401 57.4658 183.892C58.9755 182.382 61.0224 181.533 63.1574 181.53H86.0264V177.901H63.1574Z" fill="#FBD15B"/>
<path d="M164.744 85.3653V81.5332H133.027C131.491 81.5355 129.97 81.8404 128.551 82.4305C127.133 83.0206 125.844 83.8843 124.76 84.9724C123.675 86.0604 122.815 87.3514 122.229 88.7718C121.643 90.1921 121.343 91.7139 121.345 93.2503V208.682C118.917 208.849 117.151 209.37 117.151 209.98C117.151 210.73 119.844 211.339 123.164 211.339C126.484 211.339 129.177 210.73 129.177 209.98C129.177 209.37 127.411 208.849 124.983 208.682V93.2503C124.986 91.1168 125.834 89.0713 127.341 87.5618C128.849 86.0524 130.894 85.2022 133.027 85.1976H155.985V85.3653H164.744Z" fill="#FBD15B"/>
<path d="M232.044 208.682V93.2503C232.046 91.7139 231.746 90.1921 231.16 88.7718C230.575 87.3514 229.715 86.0604 228.63 84.9724C227.545 83.8843 226.257 83.0206 224.838 82.4305C223.42 81.8404 221.899 81.5355 220.362 81.5332H138.184V85.3388H211.524V85.1711H220.354C222.489 85.1734 224.535 86.0226 226.045 87.5322C227.555 89.0419 228.404 91.0888 228.406 93.2238V208.682C225.969 208.849 224.203 209.37 224.203 209.98C224.203 210.73 226.896 211.339 230.216 211.339C233.536 211.339 236.229 210.73 236.229 209.98C236.238 209.362 234.481 208.841 232.044 208.682Z" fill="#FBD15B"/>
<path d="M374.406 51.1592H265.12C264.033 51.1592 263.151 52.0408 263.151 53.1282V133.682C263.151 134.77 264.033 135.651 265.12 135.651H374.406C375.494 135.651 376.375 134.77 376.375 133.682V53.1282C376.375 52.0408 375.494 51.1592 374.406 51.1592Z" fill="#297EEC"/>
<path d="M372.331 61.3936H267.204C266.175 61.3936 265.341 62.2277 265.341 63.2566V131.837C265.341 132.866 266.175 133.7 267.204 133.7H372.331C373.36 133.7 374.194 132.866 374.194 131.837V63.2566C374.194 62.2277 373.36 61.3936 372.331 61.3936Z" fill="#DFE9F7"/>
<path d="M321.339 64.8447H270.224C269.034 64.8447 268.069 65.8093 268.069 66.9992V100.464C268.069 101.654 269.034 102.618 270.224 102.618H321.339C322.529 102.618 323.494 101.654 323.494 100.464V66.9992C323.494 65.8093 322.529 64.8447 321.339 64.8447Z" fill="white"/>
<path d="M372.481 64.8447H326.187C326.109 64.8447 326.046 64.908 326.046 64.986V132.331C326.046 132.409 326.109 132.472 326.187 132.472H372.481C372.559 132.472 372.623 132.409 372.623 132.331V64.986C372.623 64.908 372.559 64.8447 372.481 64.8447Z" fill="white"/>
<path d="M323.353 106.336H268.211C268.133 106.336 268.069 106.399 268.069 106.477V132.322C268.069 132.4 268.133 132.463 268.211 132.463H323.353C323.431 132.463 323.494 132.4 323.494 132.322V106.477C323.494 106.399 323.431 106.336 323.353 106.336Z" fill="white"/>
<path d="M272.808 55.6969C272.928 54.9508 272.421 54.2481 271.675 54.1275C270.929 54.0069 270.226 54.5141 270.106 55.2603C269.985 56.0064 270.492 56.7091 271.238 56.8297C271.984 56.9503 272.687 56.4431 272.808 55.6969Z" fill="white"/>
<path d="M277.988 55.6921C278.108 54.9459 277.601 54.2432 276.855 54.1226C276.109 54.002 275.406 54.5092 275.285 55.2554C275.165 56.0016 275.672 56.7042 276.418 56.8248C277.164 56.9454 277.867 56.4382 277.988 55.6921Z" fill="white"/>
<path d="M283.166 55.6969C283.287 54.9508 282.779 54.2481 282.033 54.1275C281.287 54.0069 280.584 54.5141 280.464 55.2603C280.343 56.0064 280.85 56.7091 281.597 56.8297C282.343 56.9503 283.045 56.4431 283.166 55.6969Z" fill="white"/>
<path d="M21.1631 92.9508H24.4389V96.2443C24.4389 96.4132 24.4723 96.5804 24.5372 96.7363C24.6021 96.8922 24.6972 97.0338 24.817 97.1528C24.9369 97.2718 25.079 97.3659 25.2354 97.4297C25.3918 97.4935 25.5592 97.5258 25.7281 97.5246C25.8965 97.5258 26.0635 97.4935 26.2194 97.4296C26.3753 97.3656 26.5169 97.2714 26.636 97.1522C26.7551 97.0331 26.8494 96.8915 26.9133 96.7357C26.9772 96.5798 27.0096 96.4128 27.0084 96.2443V92.9508H30.2931C30.4608 92.952 30.6271 92.9199 30.7823 92.8566C30.9376 92.7932 31.0788 92.6997 31.1978 92.5815C31.3168 92.4634 31.4113 92.3228 31.4757 92.1679C31.5402 92.0131 31.5734 91.847 31.5734 91.6793C31.5781 91.5082 31.5485 91.3379 31.4862 91.1785C31.424 91.0191 31.3305 90.8737 31.2111 90.7511C31.0917 90.6284 30.949 90.531 30.7913 90.4644C30.6336 90.3979 30.4642 90.3636 30.2931 90.3637H27.0084V87.1143C27.0095 86.9455 26.9773 86.778 26.9135 86.6217C26.8496 86.4653 26.7555 86.3231 26.6365 86.2033C26.5175 86.0835 26.376 85.9884 26.2201 85.9235C26.0642 85.8586 25.8969 85.8252 25.7281 85.8252C25.3862 85.8252 25.0583 85.961 24.8165 86.2028C24.5747 86.4445 24.4389 86.7724 24.4389 87.1143V90.3637H21.1631C20.8212 90.3637 20.4933 90.4995 20.2515 90.7413C20.0098 90.983 19.8739 91.3109 19.8739 91.6528C19.8704 91.8235 19.9012 91.9932 19.9646 92.1517C20.028 92.3102 20.1227 92.4543 20.243 92.5755C20.3633 92.6966 20.5068 92.7922 20.6649 92.8567C20.8229 92.9212 20.9924 92.9532 21.1631 92.9508Z" fill="#93BBE5"/>
<path d="M221.74 26.1532H225.024V29.4378C225.051 29.7602 225.198 30.0607 225.436 30.2797C225.674 30.4988 225.986 30.6204 226.309 30.6204C226.633 30.6204 226.944 30.4988 227.182 30.2797C227.42 30.0607 227.567 29.7602 227.594 29.4378V26.1532H230.879C231.218 26.1532 231.544 26.0183 231.784 25.7782C232.024 25.5381 232.159 25.2124 232.159 24.8728C232.159 24.5333 232.024 24.2076 231.784 23.9675C231.544 23.7274 231.218 23.5925 230.879 23.5925H227.594V20.3079C227.609 20.1302 227.586 19.9514 227.529 19.7828C227.471 19.6141 227.378 19.4594 227.258 19.3282C227.137 19.197 226.99 19.0923 226.827 19.0207C226.664 18.9491 226.487 18.9121 226.309 18.9121C226.131 18.9121 225.955 18.9491 225.791 19.0207C225.628 19.0923 225.481 19.197 225.361 19.3282C225.24 19.4594 225.148 19.6141 225.09 19.7828C225.032 19.9514 225.01 20.1302 225.024 20.3079V23.5925H221.74C221.4 23.5925 221.075 23.7274 220.834 23.9675C220.594 24.2076 220.459 24.5333 220.459 24.8728C220.459 25.2124 220.594 25.5381 220.834 25.7782C221.075 26.0183 221.4 26.1532 221.74 26.1532Z" fill="#93BBE5"/>
<path d="M41.966 73.587C41.966 72.4536 41.6299 71.3456 41.0003 70.4033C40.3706 69.4609 39.4756 68.7264 38.4285 68.2927C37.3814 67.8589 36.2292 67.7454 35.1176 67.9666C34.0059 68.1877 32.9849 68.7334 32.1834 69.5349C31.382 70.3363 30.8362 71.3574 30.6151 72.469C30.394 73.5806 30.5075 74.7328 30.9412 75.7799C31.3749 76.827 32.1094 77.722 33.0518 78.3517C33.9942 78.9814 35.1021 79.3175 36.2355 79.3175C37.7539 79.3128 39.2088 78.7076 40.2825 77.6339C41.3561 76.5602 41.9614 75.1054 41.966 73.587ZM39.7674 73.587C39.7674 74.2855 39.5603 74.9684 39.1722 75.5492C38.7841 76.13 38.2325 76.5827 37.5871 76.85C36.9418 77.1173 36.2316 77.1873 35.5465 77.051C34.8614 76.9147 34.232 76.5783 33.7381 76.0844C33.2441 75.5905 32.9078 74.9611 32.7715 74.276C32.6352 73.5909 32.7051 72.8807 32.9725 72.2354C33.2398 71.59 33.6925 71.0384 34.2733 70.6503C34.8541 70.2622 35.537 70.0551 36.2355 70.0551C37.1722 70.0551 38.0706 70.4272 38.733 71.0895C39.3953 71.7519 39.7674 72.6502 39.7674 73.587Z" fill="#93BBE5"/>
<path d="M245.156 290.11C245.156 288.977 244.82 287.869 244.191 286.927C243.561 285.984 242.666 285.25 241.619 284.816C240.572 284.382 239.419 284.269 238.308 284.49C237.196 284.711 236.175 285.257 235.374 286.058C234.572 286.86 234.027 287.881 233.805 288.992C233.584 290.104 233.698 291.256 234.132 292.303C234.565 293.35 235.3 294.245 236.242 294.875C237.185 295.505 238.292 295.841 239.426 295.841C240.945 295.839 242.401 295.234 243.475 294.16C244.549 293.086 245.154 291.63 245.156 290.11ZM242.958 290.11C242.958 290.809 242.751 291.492 242.362 292.073C241.974 292.653 241.423 293.106 240.777 293.373C240.132 293.641 239.422 293.711 238.737 293.574C238.052 293.438 237.422 293.102 236.928 292.608C236.434 292.114 236.098 291.485 235.962 290.799C235.826 290.114 235.895 289.404 236.163 288.759C236.43 288.113 236.883 287.562 237.464 287.174C238.044 286.786 238.727 286.578 239.426 286.578C240.363 286.578 241.261 286.951 241.923 287.613C242.586 288.275 242.958 289.174 242.958 290.11Z" fill="#93BBE5"/>
<path d="M251.328 13.544C251.328 12.4106 250.992 11.3027 250.362 10.3603C249.733 9.41791 248.838 8.68342 247.791 8.24969C246.744 7.81596 245.591 7.70248 244.48 7.92359C243.368 8.1447 242.347 8.69048 241.546 9.49191C240.744 10.2933 240.198 11.3144 239.977 12.426C239.756 13.5376 239.87 14.6899 240.303 15.737C240.737 16.7841 241.472 17.6791 242.414 18.3087C243.356 18.9384 244.464 19.2745 245.598 19.2745C247.117 19.2722 248.573 18.6677 249.647 17.5935C250.721 16.5193 251.326 15.0631 251.328 13.544ZM249.13 13.544C249.13 14.2425 248.922 14.9254 248.534 15.5062C248.146 16.087 247.595 16.5397 246.949 16.807C246.304 17.0744 245.594 17.1443 244.909 17.008C244.224 16.8718 243.594 16.5354 243.1 16.0414C242.606 15.5475 242.27 14.9182 242.134 14.233C241.997 13.5479 242.067 12.8378 242.335 12.1924C242.602 11.547 243.055 10.9954 243.635 10.6073C244.216 10.2192 244.899 10.0121 245.598 10.0121C246.062 10.0121 246.521 10.1034 246.949 10.2809C247.378 10.4584 247.767 10.7186 248.095 11.0466C248.423 11.3745 248.683 11.7639 248.861 12.1924C249.038 12.6209 249.13 13.0802 249.13 13.544Z" fill="#93BBE5"/>
<path d="M101.982 32.1755C102.173 32.1755 102.362 32.1377 102.538 32.0644C102.714 31.9911 102.874 31.8836 103.009 31.7482C103.143 31.6128 103.25 31.4522 103.322 31.2754C103.394 31.0987 103.431 30.9095 103.43 30.7186C103.43 30.5288 103.392 30.3409 103.32 30.1657C103.247 29.9906 103.14 29.8315 103.005 29.6977C102.871 29.564 102.711 29.4581 102.535 29.3863C102.36 29.3145 102.172 29.2782 101.982 29.2793H87.5363C87.3466 29.2782 87.1585 29.3145 86.9828 29.3863C86.8072 29.4581 86.6475 29.564 86.5129 29.6977C86.3783 29.8315 86.2715 29.9906 86.1986 30.1657C86.1258 30.3409 86.0883 30.5288 86.0883 30.7186C86.0882 31.1034 86.2405 31.4727 86.5119 31.7457C86.7832 32.0186 87.1515 32.1732 87.5363 32.1755H101.982Z" fill="#93BBE5"/>
<path d="M81.3467 32.1755C81.7315 32.1732 82.0998 32.0186 82.3712 31.7457C82.6425 31.4727 82.7948 31.1034 82.7947 30.7186C82.7948 30.5288 82.7572 30.3409 82.6844 30.1657C82.6115 29.9906 82.5047 29.8315 82.3701 29.6977C82.2355 29.564 82.0758 29.4581 81.9002 29.3863C81.7245 29.3145 81.5364 29.2782 81.3467 29.2793H78.6977C78.508 29.2782 78.3199 29.3145 78.1443 29.3863C77.9686 29.4581 77.8089 29.564 77.6743 29.6977C77.5397 29.8315 77.4329 29.9906 77.3601 30.1657C77.2872 30.3409 77.2497 30.5288 77.2497 30.7186C77.2485 30.9095 77.2851 31.0987 77.3573 31.2754C77.4296 31.4522 77.5361 31.6128 77.6707 31.7482C77.8052 31.8836 77.9653 31.9911 78.1415 32.0644C78.3178 32.1377 78.5068 32.1755 78.6977 32.1755H81.3467Z" fill="#93BBE5"/>
<path d="M305.985 285.007C306.348 284.979 306.687 284.814 306.935 284.546C307.182 284.279 307.32 283.928 307.32 283.563C307.32 283.199 307.182 282.848 306.935 282.58C306.687 282.313 306.348 282.148 305.985 282.12H291.539C291.34 282.104 291.14 282.13 290.951 282.195C290.763 282.261 290.59 282.365 290.443 282.5C290.296 282.636 290.179 282.8 290.099 282.983C290.019 283.166 289.978 283.364 289.978 283.563C289.978 283.763 290.019 283.961 290.099 284.143C290.179 284.326 290.296 284.491 290.443 284.626C290.59 284.762 290.763 284.866 290.951 284.931C291.14 284.997 291.34 285.023 291.539 285.007H305.985Z" fill="#93BBE5"/>
<path d="M280.016 285.007C280.215 285.023 280.415 284.997 280.604 284.931C280.793 284.866 280.966 284.762 281.112 284.626C281.259 284.491 281.376 284.326 281.456 284.143C281.536 283.961 281.577 283.763 281.577 283.563C281.577 283.364 281.536 283.166 281.456 282.983C281.376 282.8 281.259 282.636 281.112 282.5C280.966 282.365 280.793 282.261 280.604 282.195C280.415 282.13 280.215 282.104 280.016 282.12H277.367C277.004 282.148 276.665 282.313 276.417 282.58C276.17 282.848 276.032 283.199 276.032 283.563C276.032 283.928 276.17 284.279 276.417 284.546C276.665 284.814 277.004 284.979 277.367 285.007H280.016Z" fill="#93BBE5"/>
<path d="M209.166 76.8529C209.079 76.4578 208.913 76.0844 208.678 75.7551C208.443 75.4258 208.143 75.1475 207.798 74.9369C206.747 74.3188 205.414 74.5042 204.266 74.1157C201.714 73.2327 201.034 69.277 203.153 67.617C204.222 66.787 205.732 66.5309 206.517 65.4272C207.586 63.9438 206.712 61.8953 205.829 60.2883L203.63 56.2884C202.624 54.4695 201.078 52.368 199.039 52.7565C197.882 52.9596 197.017 53.9132 195.939 54.3812C193.414 55.4761 190.165 52.8713 190.642 50.1694C190.924 48.6948 192.063 47.3527 191.789 45.8781C191.516 44.4035 190.112 43.653 188.823 43.0526C187.233 42.3021 185.6 41.6222 183.94 41.0217C181.75 40.2182 178.757 39.7944 177.538 41.7988C177.179 42.6347 176.884 43.4966 176.655 44.3771C176.366 44.9316 175.947 45.4083 175.434 45.7667C174.922 46.1251 174.33 46.3548 173.71 46.4362C173.09 46.5176 172.459 46.4484 171.871 46.2345C171.283 46.0205 170.756 45.6681 170.333 45.2071C169.53 44.1828 169.318 42.8054 168.7 41.6752C168.34 40.9692 167.718 40.4319 166.967 40.1779C166.217 39.9239 165.397 39.9732 164.682 40.3154C162.722 41.0747 160.603 41.2425 158.625 41.9312C156.4 42.6906 154.21 44.6684 154.572 46.9907C154.713 47.8736 155.243 48.7566 155.455 49.6396C155.976 52.1384 153.177 54.6549 150.74 53.8867C149.186 53.3922 147.95 51.8647 146.325 51.9177C144.7 51.9706 143.623 53.4982 142.793 54.8668L140.374 58.8137C139.235 60.668 138.14 63.2286 139.561 64.8179C140.294 65.7009 141.486 65.9482 142.387 66.5839C142.985 67.0321 143.439 67.645 143.694 68.3474C143.948 69.0499 143.993 69.8114 143.821 70.5386C143.65 71.2659 143.27 71.9273 142.728 72.4419C142.186 72.9565 141.506 73.3019 140.771 73.4358C139.956 73.479 139.145 73.5764 138.343 73.7272C136.091 74.4689 135.871 77.5416 136.224 79.908C136.489 81.674 136.833 83.4222 137.257 85.1529C137.584 86.5127 138.14 88.0314 139.411 88.5612C140.683 89.091 142.307 88.261 143.826 88.261C146.475 88.261 148.382 91.6516 147.067 93.9208C146.351 95.157 144.939 95.9782 144.577 97.3556C143.879 100.005 147.499 102.45 150.59 105.126C151.985 106.344 153.821 107.633 155.526 106.892C156.788 106.362 157.38 104.914 158.439 104.031C160.532 102.265 164.338 103.792 164.682 106.494C164.85 107.819 164.338 109.232 164.885 110.441C165.636 112.101 167.834 112.384 169.662 112.419L174.077 112.525C176.223 112.569 178.916 112.269 179.64 110.247C180.028 109.161 179.64 107.942 179.799 106.795C180.143 104.146 183.807 102.68 185.882 104.331C187.127 105.329 187.772 107.112 189.291 107.589C190.809 108.066 192.24 107.068 193.458 106.141L196.99 103.43C198.013 102.749 198.909 101.894 199.639 100.905C199.985 100.4 200.194 99.8141 200.245 99.2042C200.296 98.5944 200.187 97.9817 199.93 97.4262C199.412 96.7232 198.836 96.0646 198.209 95.4572C197.754 94.875 197.476 94.1748 197.408 93.4396C197.339 92.7044 197.482 91.9648 197.82 91.3082C198.158 90.6516 198.677 90.1056 199.315 89.7346C199.954 89.3636 200.685 89.1831 201.423 89.2146C202.756 89.2764 204.072 90.0181 205.37 89.6914C207.136 89.2322 207.842 87.0424 208.213 85.2765L209.096 80.8616C209.404 79.5456 209.428 78.179 209.166 76.8529ZM172.223 63.4847C174.139 63.3944 176.049 63.7733 177.785 64.5884C179.101 65.1397 180.3 65.9368 181.317 66.9371C183.665 69.1485 185.043 72.1989 185.149 75.4225C185.229 77.2602 184.9 79.0927 184.185 80.7876C183.471 82.4826 182.389 83.9977 181.017 85.2235C179.938 86.2025 178.687 86.972 177.326 87.4928C176.022 88.0405 174.626 88.34 173.212 88.3757C170.247 88.4868 167.34 87.5369 165.012 85.6967C162.685 83.8566 161.09 81.2468 160.514 78.3363C160.372 77.6979 160.289 77.0476 160.267 76.3938C160.241 75.6016 160.294 74.8089 160.426 74.0274C160.861 71.1731 162.276 68.5594 164.429 66.6354C166.582 64.7115 169.338 63.5974 172.223 63.4847Z" fill="#FBD15B"/>
<path d="M173.344 57.0653C169.559 57.0011 165.84 58.0611 162.657 60.1113C159.475 62.1614 156.972 65.1095 155.466 68.5826C153.959 72.0556 153.517 75.8974 154.195 79.6219C154.872 83.3464 156.64 86.7862 159.273 89.506C161.906 92.2257 165.287 94.1033 168.988 94.901C172.688 95.6988 176.542 95.3808 180.062 93.9874C183.582 92.5941 186.61 90.1879 188.762 87.0733C190.914 83.9588 192.093 80.2759 192.152 76.4907C192.232 71.4212 190.296 66.5273 186.769 62.8847C183.242 59.2421 178.414 57.1489 173.344 57.0653Z" fill="#FF4B4B"/>
<path d="M146.139 265.828H71.4219V269.457H146.139V265.828Z" fill="#93BBE5"/>
<path d="M152.214 164.154H67.3427V250.236H152.214V164.154Z" fill="#93BBE5"/>
<path d="M67.9343 139.606H151.632C151.788 139.606 151.939 139.669 152.05 139.78C152.161 139.891 152.223 140.041 152.223 140.198V164.153H67.3427V140.198C67.3427 140.041 67.405 139.891 67.5159 139.78C67.6269 139.669 67.7774 139.606 67.9343 139.606Z" fill="#93BBE5"/>
<path d="M164.911 153.028H54.6542V184.948H164.911V153.028Z" fill="#A9CBF7"/>
<path d="M148.78 162.944H71.1572V175.032H148.78V162.944Z" fill="#93BBE5"/>
<path d="M145.83 164.64H73.7355V173.346H145.83V164.64Z" fill="#71A3D1"/>
<g style="mix-blend-mode:multiply">
<path d="M145.83 168.984L73.7355 164.64H145.83V168.984Z" fill="#E6E7E8"/>
</g>
<g style="mix-blend-mode:multiply">
<path d="M152.214 189.301L67.3427 184.948H152.214V189.301Z" fill="#E6E7E8"/>
</g>
<g style="mix-blend-mode:multiply">
<path d="M152.214 230.774L67.3427 226.421H152.214V230.774Z" fill="#E6E7E8"/>
</g>
<g style="mix-blend-mode:multiply">
<path d="M146.139 268.265L73.4175 266.676H146.139V268.265Z" fill="#E6E7E8"/>
</g>
<path d="M62.9896 171.703C64.4916 171.703 65.7092 170.485 65.7092 168.983C65.7092 167.481 64.4916 166.264 62.9896 166.264C61.4876 166.264 60.27 167.481 60.27 168.983C60.27 170.485 61.4876 171.703 62.9896 171.703Z" fill="#93BBE5"/>
<path d="M157.477 171.703C158.979 171.703 160.196 170.485 160.196 168.983C160.196 167.481 158.979 166.264 157.477 166.264C155.975 166.264 154.757 167.481 154.757 168.983C154.757 170.485 155.975 171.703 157.477 171.703Z" fill="#93BBE5"/>
<path d="M164.911 234.757H54.6542V266.676H164.911V234.757Z" fill="#A9CBF7"/>
<path d="M148.78 244.672H71.1572V256.76H148.78V244.672Z" fill="#93BBE5"/>
<path d="M145.83 246.367H73.7355V255.073H145.83V246.367Z" fill="#71A3D1"/>
<path d="M62.9896 253.44C64.4916 253.44 65.7092 252.223 65.7092 250.721C65.7092 249.219 64.4916 248.001 62.9896 248.001C61.4876 248.001 60.27 249.219 60.27 250.721C60.27 252.223 61.4876 253.44 62.9896 253.44Z" fill="#93BBE5"/>
<path d="M157.477 253.44C158.979 253.44 160.196 252.223 160.196 250.721C160.196 249.219 158.979 248.001 157.477 248.001C155.975 248.001 154.757 249.219 154.757 250.721C154.757 252.223 155.975 253.44 157.477 253.44Z" fill="#93BBE5"/>
<path d="M164.911 194.378H54.6542V226.298H164.911V194.378Z" fill="#A9CBF7"/>
<path d="M148.78 204.294H71.1572V216.382H148.78V204.294Z" fill="#93BBE5"/>
<path d="M145.83 205.98H73.7355V214.687H145.83V205.98Z" fill="#71A3D1"/>
<path d="M66.3061 210.758C66.5464 209.271 65.5358 207.871 64.0488 207.63C62.5619 207.39 61.1617 208.401 60.9213 209.888C60.681 211.375 61.6916 212.775 63.1786 213.015C64.6655 213.256 66.0658 212.245 66.3061 210.758Z" fill="#93BBE5"/>
<path d="M160.114 210.948C160.459 209.486 159.554 208.022 158.092 207.677C156.63 207.332 155.166 208.237 154.821 209.699C154.475 211.161 155.381 212.625 156.843 212.97C158.304 213.315 159.769 212.41 160.114 210.948Z" fill="#93BBE5"/>
<path d="M143.287 143.562H118.387C118.168 143.562 117.99 143.74 117.99 143.96V149.673C117.99 149.892 118.168 150.07 118.387 150.07H143.287C143.507 150.07 143.685 149.892 143.685 149.673V143.96C143.685 143.74 143.507 143.562 143.287 143.562Z" fill="#71A3D1"/>
<path d="M79.6879 145.926C79.9318 144.887 79.2866 143.846 78.2468 143.602C77.2071 143.358 76.1665 144.003 75.9226 145.043C75.6788 146.083 76.324 147.123 77.3637 147.367C78.4035 147.611 79.444 146.966 79.6879 145.926Z" fill="#71A3D1"/>
<path d="M83.1921 147.43C84.2601 147.43 85.1258 146.564 85.1258 145.496C85.1258 144.428 84.2601 143.562 83.1921 143.562C82.1242 143.562 81.2584 144.428 81.2584 145.496C81.2584 146.564 82.1242 147.43 83.1921 147.43Z" fill="#71A3D1"/>
<g style="mix-blend-mode:multiply">
<path d="M145.83 250.72L73.7355 246.367H145.83V250.72Z" fill="#E6E7E8"/>
</g>
<g style="mix-blend-mode:multiply">
<path d="M145.83 210.342L73.7355 205.989H145.83V210.342Z" fill="#E6E7E8"/>
</g>
<g style="mix-blend-mode:multiply">
<path d="M143.685 147.916L117.99 143.563H143.226C143.287 143.562 143.347 143.575 143.403 143.598C143.46 143.622 143.511 143.657 143.553 143.7C143.596 143.744 143.63 143.795 143.652 143.852C143.675 143.909 143.686 143.969 143.685 144.03V147.916Z" fill="#E6E7E8"/>
</g>
<path d="M357.338 114.283H182.571C181.082 114.283 179.653 114.875 178.6 115.928C177.547 116.981 176.955 118.41 176.955 119.899V232.39H362.963V119.899C362.961 118.409 362.367 116.98 361.312 115.927C360.258 114.875 358.829 114.283 357.338 114.283Z" fill="#184785"/>
<path d="M181.167 232.39V119.899C181.169 119.527 181.318 119.172 181.581 118.909C181.844 118.646 182.199 118.497 182.571 118.495H357.338C357.711 118.495 358.068 118.643 358.331 118.906C358.594 119.17 358.742 119.527 358.742 119.899V232.39H181.167Z" fill="#4095F2"/>
<path d="M355.228 122.434H184.681V225.203H355.228V122.434Z" fill="#CEDDEF"/>
<path d="M241.925 269.643H270.665H299.398L301.896 267.842H239.426L241.925 269.643Z" fill="#113E70"/>
<path d="M248.988 263.312C248.988 263.312 248.635 266.517 244.574 267.065L239.426 267.842H301.896L296.74 267.065C292.678 266.517 292.325 263.312 292.325 263.312L291.663 257.131L249.73 256.248L248.988 263.312Z" fill="#184785"/>
<path d="M249.739 256.266L291.68 257.167L291.036 251.127H250.286L249.739 256.266Z" fill="#113E70"/>
<path d="M176.973 232.39V245.511C176.973 247 177.565 248.428 178.618 249.482C179.671 250.535 181.099 251.126 182.589 251.126H357.338C358.829 251.126 360.258 250.535 361.312 249.482C362.367 248.429 362.961 247.001 362.963 245.511V232.39H176.973Z" fill="#184785"/>
<path d="M280.034 241.935C280.034 242.474 279.82 242.99 279.439 243.371C279.058 243.752 278.542 243.966 278.003 243.966H263.319C262.78 243.966 262.264 243.752 261.883 243.371C261.502 242.99 261.288 242.474 261.288 241.935C261.288 241.397 261.502 240.88 261.883 240.499C262.264 240.118 262.78 239.904 263.319 239.904H278.003C278.542 239.904 279.058 240.118 279.439 240.499C279.82 240.88 280.034 241.397 280.034 241.935Z" fill="#4095F2"/>
<path d="M349.957 129.046H191.357V144.807H349.957V129.046Z" fill="#FBD15B"/>
<path d="M349.966 151.085H298.373V159.261H349.966V151.085Z" fill="#FBD15B"/>
<path d="M349.966 159.262H298.373V218.66H349.966V159.262Z" fill="white"/>
<path d="M293.332 173.08H237.36V181.954H293.332V173.08Z" fill="#FBD15B"/>
<path d="M293.332 181.955H237.36V218.66H293.332V181.955Z" fill="white"/>
<path d="M293.331 151.085H191.357V159.261H293.331V151.085Z" fill="#FBD15B"/>
<path d="M293.332 159.262V170.608H235.241V218.668H191.365V159.262H293.332Z" fill="white"/>
<path d="M4.47485 272.045C4.54549 272.142 4.63379 272.256 4.73092 272.371C5.60941 273.54 6.88964 274.342 8.32463 274.623C11.4239 275.082 14.2759 272.204 15.5915 270.058C16.1481 269.175 16.5344 268.196 16.7306 267.171C17.0043 265.793 16.969 264.46 17.4016 262.756C17.4811 262.464 17.5694 262.164 17.6753 261.873C17.9617 261.077 18.3131 260.306 18.7261 259.568C18.7967 259.445 18.8585 259.321 18.9292 259.206C18.9998 259.091 19.1941 258.765 19.3265 258.57C19.8233 257.75 20.4668 257.029 21.2249 256.442C21.3778 256.326 21.5402 256.222 21.7105 256.133C22.0173 255.957 22.3517 255.835 22.6995 255.771C23.5825 255.595 24.0769 255.851 25.2336 255.683C26.6319 255.451 27.9343 254.823 28.9863 253.873C28.0062 252.866 17.2074 240.116 15.7416 239.701L9.07516 258.862C7.53878 263.253 6.00535 267.647 4.47485 272.045Z" fill="#0F335B"/>
<path d="M103.633 290.446H145.133C144.631 288.631 143.616 287 142.21 285.748C140.568 284.344 138.864 283.982 136.912 283.523C131.817 282.428 129.848 283.806 126.131 282.393C124.732 281.844 123.444 281.048 122.325 280.044C122.601 279.041 122.558 277.976 122.202 276.998C121.852 276.066 121.238 275.256 120.436 274.667L107.421 277.554C107.147 278.049 106.873 278.552 106.617 279.082C104.898 282.642 103.885 286.501 103.633 290.446Z" fill="#0F335B"/>
<path d="M98.3174 146.336C102.403 158.856 106.3 171.93 110.008 185.557C117.974 215 124.239 244.876 128.771 275.038C125.08 278.788 120.307 281.289 115.123 282.19C109.939 283.091 104.603 282.347 99.8626 280.062C98.78 259.652 96.0128 239.366 91.5892 219.411C88.3354 204.704 84.1835 190.211 79.1569 176.013L81.0641 141.303L98.3174 146.336Z" fill="#184785"/>
<path d="M63.1662 143.174L39.8292 214.342L13.6931 237.431C13.6977 242.569 15.5887 247.525 19.0069 251.36C22.4252 255.195 27.1327 257.641 32.2356 258.234C37.2672 254.619 42.09 250.722 46.6811 246.561C53.6743 240.239 58.354 235.798 62.9632 229.282C66.8659 223.763 69.3559 216.629 74.1681 202.501C77.2939 193.362 78.583 188.532 80.8611 181.248C83.4305 172.948 87.3421 161.01 92.9049 146.467L63.1662 143.174Z" fill="#184785"/>
<path d="M71.7665 146.096L39.8292 214.342L63.1751 143.174L71.7665 146.096Z" fill="#0F335B"/>
<path d="M85.6114 79.4314C85.6114 79.4314 81.2936 76.3233 76.4637 80.7206C73.5764 83.3695 74.2828 87.131 73.1261 93.2323C72.8435 94.6981 69.7178 95.1219 68.4728 97.6472C67.8724 98.8745 68.4728 102.3 67.7664 103.166C64.7908 106.963 66.4773 111.06 69.2145 112.499C78.7771 117.505 81.0817 111.616 83.5099 108.411C85.9381 105.205 90.1764 86.5129 85.6114 79.4314Z" fill="#FBD15B"/>
<path d="M51.9084 143.695C53.4934 144.556 55.3196 144.867 57.1003 144.578L61.109 143.995L60.4202 148.26L57.7713 164.021C57.7713 164.021 72.1373 165.902 74.9982 155.818L76.7641 147.068H94.6091C94.6091 147.068 93.3552 157.151 104.066 160.904L101.037 138.68L102.6 130.097L108.322 135.077C110.027 136.585 112.058 137.679 114.255 138.273C117.787 139.156 122.573 138.927 125.398 132.614C130.308 121.638 133.072 107.184 133.072 107.184L126.643 100.491L113.884 119.139L102.803 103.855C102.36 103.235 101.708 102.796 100.966 102.619L86.3179 99.0869H75.7399L60.6763 103.149C60.2222 103.273 59.801 103.496 59.4424 103.801C59.0839 104.106 58.7967 104.486 58.6013 104.915C56.5175 109.409 49.9746 123.907 48.7032 131.307C48.7032 131.271 46.0807 140.322 51.9084 143.695Z" fill="#297EEC"/>
<path d="M96.3837 120.861C95.8275 114.451 89.1257 103.131 86.2736 99.0693H75.7397C75.7397 99.0693 81.1612 128.896 76.817 147.068H94.6619C94.6619 147.068 96.7899 125.506 96.3837 120.861Z" fill="#A9CBF7"/>
<path d="M96.1718 128.949C90.5737 130.715 83.6689 131.642 78.5123 132.093C78.4785 137.14 77.9222 142.17 76.8523 147.103H94.6972C94.6972 147.103 95.6685 136.834 96.1718 128.949Z" fill="#A9CBF7"/>
<path d="M62.3892 127.28C63.4043 124.305 64.2358 121.271 64.8792 118.194L64.5878 127.139L62.3892 127.28Z" fill="#184785"/>
<path d="M80.7285 126.857C80.7285 126.857 83.6688 125.515 84.6048 124.314C85.5407 123.113 88.7459 121.409 88.7459 121.409L88.4369 124.058C88.4369 124.058 98.2997 120.985 99.5536 121.48C100.807 121.974 98.388 123.44 98.388 123.44C98.388 123.44 100.71 122.601 100.799 123.087C100.658 123.917 100.233 124.672 99.5977 125.224C99.5977 125.224 100.225 125.047 100.269 125.674C100.313 126.301 97.0547 128.923 94.3793 129.956C94.3793 129.956 98.547 128.791 98.2114 129.956C98.2114 129.956 93.7966 132.137 92.2337 132.605C90.6708 133.073 81.2406 134.168 81.2406 134.168L80.7285 126.857Z" fill="#F0BB74"/>
<path d="M80.702 126.856L81.2142 134.176L82.9006 133.973L80.702 126.856Z" fill="#F0BB74"/>
<path d="M127.049 100.958L132.065 94.2919C133.406 92.8634 134.99 91.6853 136.745 90.813C139.412 89.4613 141.99 87.9394 144.462 86.2568C144.462 86.2568 145.936 87.1928 144.462 88.5791L140.497 92.42L142.961 94.2478C143.192 94.3983 143.383 94.603 143.517 94.844C143.651 95.0851 143.724 95.3552 143.73 95.631C143.736 95.9068 143.675 96.1799 143.552 96.4266C143.428 96.6733 143.247 96.8862 143.022 97.0468L142.864 97.1439C143.008 97.6018 142.978 98.0969 142.779 98.5339C142.58 98.9709 142.227 99.3187 141.786 99.5103C141.788 99.8655 141.683 100.213 141.485 100.508C141.286 100.802 141.004 101.03 140.674 101.161C139.517 101.656 137.53 100.897 137.53 100.897C137.53 100.897 137.107 103.281 133.619 103.952L132.091 106.133L127.049 100.958Z" fill="#F0BB74"/>
<path d="M135.676 93.5148L142.819 92.8438C142.819 92.8438 143.482 94.8128 141.654 95.2543C140.402 95.576 139.167 95.9621 137.954 96.411C138.028 97.2037 137.819 97.9971 137.365 98.6512C136.911 99.3054 136.241 99.7784 135.473 99.987L135.676 93.5148Z" fill="#F0BB74"/>
<path d="M127.049 100.941L133.274 104.517L132.091 106.116L127.049 100.941Z" fill="#F0BB74"/>
<path d="M61.1088 144.031L60.42 148.26C65.9916 146.653 78.0796 138.759 78.0796 138.759L78.7065 134.177L61.4708 138.23L61.1088 144.031Z" fill="#184785"/>
<path d="M53.6124 133.681C53.6124 133.681 54.8663 128.242 62.1773 127.351C69.4883 126.459 77.5322 127.077 80.6492 126.097L81.2849 135.2C81.2849 135.2 68.1021 143.5 61.1089 144.03L53.6124 133.681Z" fill="#297EEC"/>
<path d="M84.0044 94.8752C84.9252 94.5765 85.7621 94.0639 86.4467 93.3793C87.1312 92.6948 87.6438 91.8579 87.9425 90.9371C89.1875 87.6171 88.4104 82.1956 87.5804 81.4539C86.7505 80.7122 84.0044 94.8752 84.0044 94.8752Z" fill="#FBD15B"/>
<path d="M77.9118 92.9416L76.8081 90.3633L77.5675 90.8224C77.5675 90.8224 77.9207 91.8202 78.0619 92.4559C78.2032 93.0917 77.9118 92.9416 77.9118 92.9416Z" fill="#FBD15B"/>
<path d="M77.8677 90.0283V101.436C78.2571 101.879 78.7312 102.239 79.262 102.495C79.7927 102.751 80.3694 102.899 80.9581 102.929C82.1841 102.853 83.3372 102.321 84.1898 101.436V94.2578L77.8677 90.0283Z" fill="#F0BB74"/>
<path d="M82.4945 96.4114C79.5542 96.4644 77.6116 93.6388 77.5675 90.8575L77.488 86.4426C77.4379 85.1324 77.9101 83.8559 78.801 82.8939C79.6918 81.9319 80.9282 81.363 82.2384 81.3125C82.8877 81.3148 83.5303 81.445 84.1293 81.6956C84.7283 81.9463 85.2721 82.3124 85.7296 82.7732C86.1872 83.234 86.5494 83.7804 86.7958 84.3812C87.0421 84.982 87.1677 85.6255 87.1654 86.2748L87.1213 90.6897C87.1654 93.4622 85.4348 96.3672 82.4945 96.4114Z" fill="#F0BB74"/>
<path d="M76.0488 89.843C76.1769 90.1863 76.4303 90.4683 76.758 90.6321C77.0857 90.796 77.4633 90.8295 77.8148 90.726C78.9185 90.1874 78.477 89.3221 78.0974 88.5274C77.7177 87.7327 77.2144 87.4767 76.4285 87.8563C76.1185 88.0725 75.9053 88.4012 75.8343 88.7724C75.7634 89.1436 75.8404 89.5278 76.0488 89.843Z" fill="#F0BB74"/>
<g style="mix-blend-mode:multiply">
<path d="M76.3137 89.0305C76.3098 88.9135 76.3324 88.7972 76.3798 88.6901C76.4272 88.5831 76.4981 88.4882 76.5874 88.4124C76.6297 88.3856 76.6774 88.3686 76.7272 88.3627C76.7769 88.3568 76.8273 88.3621 76.8747 88.3781C76.9221 88.3942 76.9653 88.4207 77.0012 88.4557C77.037 88.4906 77.0646 88.5332 77.0819 88.5802C77.0819 88.5802 77.0289 88.6508 77.0112 88.5802C76.9919 88.5352 76.9575 88.4983 76.9141 88.4758C76.8706 88.4533 76.8207 88.4465 76.7728 88.4566C76.722 88.4741 76.6753 88.502 76.6358 88.5384C76.5963 88.5749 76.5647 88.6192 76.5432 88.6685C76.4678 88.8828 76.4678 89.1164 76.5432 89.3307C76.6024 89.5518 76.7327 89.7473 76.9141 89.887C76.9952 89.9517 77.0934 89.9915 77.1966 90.0018C77.2922 90.0128 77.3888 89.991 77.4704 89.94C77.4704 89.94 77.5587 89.94 77.541 89.94C77.5238 89.9844 77.4964 90.0243 77.4612 90.0565C77.426 90.0887 77.3838 90.1123 77.3379 90.1254C77.2372 90.1561 77.1296 90.1561 77.0289 90.1254C76.8111 90.0347 76.6306 89.8728 76.5167 89.6662C76.3933 89.4764 76.3231 89.2568 76.3137 89.0305Z" fill="#DEAC93"/>
</g>
<path d="M84.34 79.2116C84.34 79.2116 86.5033 77.9666 88.075 82.3638C88.4122 83.3309 88.508 84.3657 88.3541 85.3783C88.2002 86.3909 87.8013 87.3505 87.192 88.1738C87.2804 86.7722 87.1006 85.3667 86.6622 84.0326C86.3178 83.3174 85.17 83.1496 85.17 83.1496L84.34 79.2116Z" fill="#FBD15B"/>
<path d="M85.1434 83.1936C85.1434 83.1936 82.8035 82.0722 81.8057 83.8205C80.8079 85.5688 79.7749 87.8028 76.3136 88.4208C72.8523 89.0389 73.3115 85.1892 76.552 82.9464C79.7925 80.7036 85.6378 78.6375 85.1434 83.1936Z" fill="#FBD15B"/>
<path d="M84.2073 89.8246C84.3928 89.8246 85.3022 89.648 85.3552 89.1536C85.1998 88.4512 84.9282 87.7798 84.5517 87.1669C84.5425 87.1505 84.5302 87.1362 84.5154 87.1246C84.5007 87.1131 84.4838 87.1046 84.4657 87.0997C84.4476 87.0948 84.4287 87.0935 84.4101 87.0959C84.3916 87.0984 84.3736 87.1045 84.3574 87.1139C84.3261 87.1339 84.3033 87.1649 84.2936 87.2008C84.2838 87.2367 84.2877 87.275 84.3045 87.3081C84.6513 87.872 84.9103 88.4853 85.0727 89.1271C85.0727 89.3302 84.5164 89.4979 84.1897 89.5421C84.1547 89.5504 84.1238 89.571 84.1028 89.6002C84.0817 89.6294 84.0718 89.6652 84.0749 89.701C84.079 89.7339 84.0945 89.7642 84.1187 89.7868C84.1429 89.8094 84.1743 89.8228 84.2073 89.8246Z" fill="#B75F3D"/>
<path d="M86.415 87.3782C86.4132 87.4552 86.3889 87.5301 86.3453 87.5935C86.3017 87.657 86.2405 87.7065 86.1693 87.7358C86.0981 87.7652 86.0198 87.7732 85.9441 87.759C85.8684 87.7447 85.7985 87.7087 85.7429 87.6554C85.6873 87.6021 85.6484 87.5338 85.6309 87.4587C85.6134 87.3837 85.6181 87.3052 85.6444 87.2328C85.6707 87.1604 85.7175 87.0972 85.7791 87.0509C85.8406 87.0046 85.9143 86.9772 85.9912 86.9721C86.046 86.9697 86.1007 86.9784 86.1521 86.9978C86.2034 87.0171 86.2503 87.0466 86.2899 87.0846C86.3295 87.1226 86.361 87.1681 86.3825 87.2186C86.404 87.2691 86.4151 87.3234 86.415 87.3782Z" fill="#363435"/>
<path d="M81.4879 86.267C81.5192 86.2793 81.5539 86.2793 81.5851 86.267C81.7787 86.1103 82.0138 86.0135 82.2616 85.9884C82.5094 85.9633 82.7591 86.0111 82.9802 86.1258C82.9969 86.1348 83.0153 86.1405 83.0342 86.1423C83.0532 86.1441 83.0723 86.142 83.0905 86.1363C83.1086 86.1305 83.1254 86.1211 83.1398 86.1087C83.1543 86.0962 83.166 86.081 83.1744 86.0639C83.1905 86.0297 83.193 85.9907 83.1816 85.9547C83.1701 85.9187 83.1455 85.8883 83.1126 85.8697C82.8324 85.7225 82.5146 85.6624 82.2 85.697C81.8853 85.7316 81.5882 85.8594 81.3467 86.0639C81.3218 86.0902 81.308 86.1249 81.308 86.1611C81.308 86.1972 81.3218 86.232 81.3467 86.2582C81.367 86.2729 81.391 86.2815 81.416 86.2831C81.441 86.2846 81.466 86.2791 81.4879 86.267Z" fill="black"/>
<path d="M85.373 85.9489C85.3987 85.9576 85.4267 85.9576 85.4524 85.9489C85.594 85.8435 85.7639 85.783 85.9401 85.7752C86.1164 85.7673 86.291 85.8124 86.4414 85.9047C86.4717 85.9194 86.5063 85.9228 86.5389 85.9143C86.5715 85.9057 86.6 85.8858 86.6192 85.858C86.6384 85.8303 86.647 85.7966 86.6436 85.7631C86.6401 85.7296 86.6248 85.6984 86.6003 85.6752C86.4034 85.5441 86.1702 85.4787 85.9339 85.4882C85.6976 85.4977 85.4704 85.5817 85.2847 85.7281C85.2598 85.7544 85.246 85.7891 85.246 85.8253C85.246 85.8614 85.2598 85.8961 85.2847 85.9224C85.3103 85.9408 85.3414 85.9502 85.373 85.9489Z" fill="black"/>
<path d="M82.8213 90.6553C83.7245 90.9127 84.6817 90.9127 85.585 90.6553C85.6258 90.9671 85.5435 91.2826 85.3555 91.5348C85.1676 91.787 84.8889 91.9561 84.5784 92.0062C84.3727 92.0454 84.1611 92.0406 83.9575 91.9921C83.7538 91.9437 83.5627 91.8526 83.3967 91.725C83.2307 91.5974 83.0937 91.4361 82.9945 91.2517C82.8953 91.0674 82.8363 90.8641 82.8213 90.6553Z" fill="#B75F3D"/>
<path d="M85.5232 90.6641C85.5232 90.6641 85.479 90.8848 85.4614 90.929C85.4437 90.9731 85.2671 91.1144 84.4724 91.1939C83.9463 91.225 83.4187 91.1713 82.9096 91.035C82.8627 90.9131 82.833 90.7853 82.8213 90.6553L83.148 90.7082C83.9293 90.8902 84.7419 90.8902 85.5232 90.7082V90.6641Z" fill="white"/>
<path d="M82.7414 88.2439C82.965 88.2267 83.1309 88.0117 83.1119 87.7638C83.0928 87.5158 82.8961 87.3287 82.6724 87.3459C82.4488 87.363 82.2829 87.578 82.3019 87.826C82.321 88.0739 82.5177 88.261 82.7414 88.2439Z" fill="#363435"/>
<path d="M76.3137 84.7914C79.4395 84.7914 81.9736 82.2574 81.9736 79.1316C81.9736 76.0057 79.4395 73.4717 76.3137 73.4717C73.1878 73.4717 70.6538 76.0057 70.6538 79.1316C70.6538 82.2574 73.1878 84.7914 76.3137 84.7914Z" fill="#FBD15B"/>
<path d="M160.15 81.2832L164.512 71.4972H166.749L171.124 81.2832H168.748L165.169 72.6436H166.064L162.471 81.2832H160.15ZM162.331 79.1862L162.932 77.4667H167.965L168.58 79.1862H162.331ZM172.14 81.2832V71.4972H176.376C177.252 71.4972 178.007 71.6417 178.64 71.9306C179.274 72.2102 179.763 72.6156 180.108 73.1468C180.453 73.6781 180.626 74.3118 180.626 75.0481C180.626 75.7751 180.453 76.4042 180.108 76.9354C179.763 77.4667 179.274 77.8767 178.64 78.1657C178.007 78.4453 177.252 78.5851 176.376 78.5851H173.398L174.404 77.5645V81.2832H172.14ZM174.404 77.8162L173.398 76.7397H176.25C176.949 76.7397 177.471 76.5906 177.816 76.2923C178.16 75.9941 178.333 75.5794 178.333 75.0481C178.333 74.5076 178.16 74.0882 177.816 73.7899C177.471 73.4917 176.949 73.3426 176.25 73.3426H173.398L174.404 72.2661V77.8162ZM161.436 98.2832V88.4972H163.701V98.2832H161.436Z" fill="white"/>
</svg>
