<svg width="502" height="319" viewBox="0 0 502 319" fill="none" xmlns="http://www.w3.org/2000/svg">
<g clip-path="url(#clip0_960_2456)">
<path d="M194.31 252.372C189.84 237.079 177.199 225.321 160.782 224.937C151.224 224.706 141.975 228.779 133.882 233.39C122.937 239.692 109.988 247.223 96.8854 245.302C88.484 244.072 78.5412 239.384 76.5372 229.702C74.4561 219.404 82.7804 212.41 91.6442 208.261C99.2748 204.726 109.988 196.272 113.38 188.126C126.945 156.003 88.9465 119.346 99.7372 82.6895C110.99 44.3418 162.863 37.8865 188.992 63.9383C191.458 66.3975 193.848 69.0872 195.929 71.9306C201.247 79.0007 204.407 88.6068 211.807 93.9094C221.364 100.749 233.851 98.5972 244.179 94.5242C263.91 86.7625 269.152 81.6136 288.421 73.2371C302.295 67.2428 319.406 61.8634 334.975 67.166C346.151 71.0084 358.483 77.9248 364.727 87.9152C376.365 106.513 371.124 126.493 389.468 152.929C397.792 164.918 411.05 168.222 421.532 176.906C448.894 199.346 439.722 246.531 409.894 262.747C385.383 276.041 355.246 272.967 328.732 269.586C326.728 269.356 324.647 269.048 322.643 268.741" stroke="#E0E0E0" stroke-miterlimit="10" stroke-linejoin="round" stroke-dasharray="3.5 3.5"/>
<path d="M388.081 78.2321C390.393 75.6193 392.397 72.699 394.093 69.4713C395.788 66.2437 397.022 62.9392 397.947 59.5578L388.852 56.3302C389.545 53.1794 389.854 50.0285 389.699 46.8777L399.257 45.4176C398.794 38.3475 396.636 31.4311 393.014 25.2832L384.304 29.433C382.608 26.7433 380.604 24.2841 378.215 22.1324L383.919 14.3706C381.298 12.0652 378.369 10.0671 375.132 8.37642C371.895 6.68574 368.58 5.45616 365.189 4.53397L361.952 13.6021C358.792 12.9105 355.632 12.6031 352.471 12.7568L351.007 3.22754C343.916 3.68863 336.979 5.8404 330.813 9.4523L334.975 18.1362C332.277 19.8269 329.811 21.825 327.653 24.2073L319.868 18.5205C317.556 21.1333 315.552 24.0536 313.856 27.2813C312.16 30.5089 310.927 33.8134 310.002 37.1948L319.097 40.4224C318.404 43.5732 318.095 46.724 318.249 49.8749L308.692 51.335C309.154 58.4051 311.313 65.3215 314.935 71.4694L323.645 67.3196C325.34 70.0093 327.344 72.4684 329.734 74.6202L324.03 82.382C326.651 84.6874 329.58 86.6855 332.817 88.3762C336.054 90.0669 339.368 91.2964 342.76 92.2186L345.997 83.1504C349.157 83.8421 352.317 84.1495 355.477 83.9958L356.942 93.5251C364.033 93.064 370.97 90.9122 377.136 87.3003L372.974 78.6164C375.671 76.9257 378.138 74.9276 380.296 72.5453L388.081 78.2321ZM343.376 68.3954C332.277 62.5549 328.038 48.8758 333.896 37.8096C339.754 26.7433 353.473 22.5166 364.572 28.3571C375.671 34.1977 379.911 47.8768 374.053 58.943C368.195 70.0093 354.475 74.236 343.376 68.3954ZM346.459 62.5549C338.598 58.4051 335.592 48.7221 339.754 40.8835C343.916 33.0449 353.628 30.0478 361.489 34.1977C369.351 38.3475 372.357 48.0305 368.195 55.8691C364.11 63.7077 354.321 66.7048 346.459 62.5549Z" fill="#E0E0E0"/>
<path d="M181.053 100.134C182.286 98.3667 183.365 96.4455 184.213 94.3706C185.061 92.2957 185.6 90.1439 185.986 88.069L180.205 86.6088C180.436 84.6108 180.436 82.6895 180.128 80.6915L185.909 79.1545C185.215 74.8509 183.442 70.7011 180.822 67.166L175.657 70.24C174.501 68.703 173.037 67.3197 171.495 66.0902L174.501 60.9413C172.728 59.7117 170.802 58.6358 168.721 57.7905C166.639 56.9451 164.481 56.4072 162.4 56.0229L160.936 61.7866C158.932 61.5561 157.005 61.5561 155.001 61.8635L153.459 56.0998C149.143 56.7914 144.981 58.559 141.435 61.1718L144.518 66.3207C142.977 67.4734 141.59 68.9336 140.356 70.4705L135.192 67.4734C133.959 69.241 132.88 71.1622 132.032 73.2371C131.184 75.312 130.645 77.4638 130.259 79.5387L136.04 80.9989C135.809 82.9969 135.809 84.9182 136.117 86.9162L130.336 88.4532C131.03 92.7567 132.803 96.9066 135.423 100.442L140.588 97.3677C141.744 98.9047 143.208 100.288 144.75 101.518L141.744 106.666C143.516 107.896 145.443 108.972 147.524 109.817C149.606 110.663 151.764 111.2 153.845 111.585L155.309 105.821C157.313 106.052 159.24 106.052 161.244 105.744L162.786 111.508C167.102 110.816 171.264 109.049 174.81 106.436L171.727 101.287C173.268 100.134 174.655 98.6741 175.889 97.1371L181.053 100.134ZM152.92 96.7529C145.752 93.8326 142.283 85.6866 145.212 78.5397C148.141 71.3927 156.311 67.9345 163.479 70.8548C170.647 73.7751 174.116 81.921 171.187 89.068C168.258 96.215 160.088 99.6732 152.92 96.7529ZM154.461 93.0641C149.374 90.9892 146.908 85.2255 148.989 80.0767C151.07 75.0046 156.851 72.5455 162.015 74.6204C167.102 76.6953 169.568 82.459 167.487 87.6079C165.329 92.6799 159.548 95.0622 154.461 93.0641Z" fill="#E0E0E0"/>
<path d="M204.099 46.8011C205.101 45.6483 205.949 44.4187 206.719 43.0355C207.49 41.6522 208.03 40.192 208.415 38.7319L204.484 37.3486C204.792 35.9653 204.947 34.5821 204.87 33.2756L209.032 32.6608C208.8 29.5869 207.876 26.5898 206.334 23.9769L202.557 25.7444C201.864 24.5917 200.939 23.5158 199.937 22.5936L202.403 19.2123C201.247 18.2132 200.014 17.3679 198.626 16.5994C197.239 15.8309 195.774 15.293 194.31 14.9087L192.923 18.828C191.535 18.5206 190.148 18.3669 188.838 18.4438L188.221 14.2939C185.138 14.5245 182.132 15.4467 179.511 16.9837L181.13 20.7493C179.974 21.4409 178.895 22.3631 177.97 23.3621L174.578 20.903C173.576 22.0557 172.729 23.2853 171.958 24.6686C171.187 26.0518 170.647 27.512 170.262 28.9721L174.193 30.3554C173.885 31.7387 173.731 33.1219 173.808 34.4284L169.646 35.0432C169.877 38.1171 170.802 41.1142 172.343 43.7271L176.12 41.9596C176.814 43.1123 177.739 44.1882 178.741 45.1104L176.274 48.4917C177.43 49.4908 178.663 50.3361 180.051 51.1046C181.438 51.8731 182.903 52.411 184.367 52.7953L185.755 48.876C187.142 49.1834 188.529 49.3371 189.84 49.2602L190.456 53.4101C193.539 53.1795 196.545 52.2573 199.166 50.7203L197.393 46.9548C198.549 46.2631 199.628 45.3409 200.553 44.3419L204.099 46.8011ZM186.063 40.1152C182.594 38.2708 181.284 34.0441 183.134 30.5859C184.984 27.1277 189.223 25.8213 192.691 27.6657C196.16 29.51 197.47 33.7367 195.62 37.1949C193.77 40.5763 189.531 41.9596 186.063 40.1152Z" fill="#E0E0E0"/>
<path d="M110.99 108.126C110.99 107.588 110.913 107.05 110.836 106.512C110.296 101.748 107.059 102.209 104.978 102.286C102.974 102.44 100.43 102.516 99.4285 100.288C98.966 99.2887 99.0431 98.136 98.7348 97.1369C98.1182 94.8315 96.0371 93.4482 94.1102 93.4482C92.1062 93.4482 90.2563 94.6009 88.6377 95.9842C87.7899 96.6758 86.865 97.598 85.863 97.2906C85.2464 97.1369 84.7068 96.5221 84.3214 95.8305C82.0091 92.0649 82.0091 86.5318 79.4656 82.9967C76.6138 79.0774 71.3726 79.0006 67.827 81.844C64.2815 84.6874 62.2005 89.7594 61.2755 94.9083C60.9672 96.599 60.736 98.3665 59.6569 99.5192C58.1925 101.133 55.9572 100.595 53.9533 100.365C51.641 100.134 49.2516 100.518 47.4017 102.132C45.8602 103.515 44.9353 105.898 45.0894 108.126H110.99Z" fill="white" stroke="#E0E0E0" stroke-miterlimit="10" stroke-linejoin="round"/>
<path d="M243.022 25.437H307.921C307.921 25.437 305.3 22.4399 302.371 21.364C298.672 20.0575 297.13 23.6694 294.818 18.9817C293.507 16.3688 292.583 12.9106 289.114 11.9884C283.719 10.6051 282.331 15.0624 279.788 13.8328C277.553 12.7569 277.63 8.5302 275.317 4.99515C273.082 1.53694 267.687 -0.537978 263.987 1.22955C257.204 4.53405 258.129 9.75978 255.894 11.4505C253.736 13.1411 248.726 7.14692 243.099 13.6022C239.168 18.2132 243.022 25.437 243.022 25.437Z" fill="white" stroke="#E0E0E0" stroke-miterlimit="10" stroke-linejoin="round"/>
<path d="M310.773 3.22769C310.773 4.76467 309.463 6.0711 307.921 6.0711C306.38 6.0711 305.069 4.76467 305.069 3.22769C305.069 1.69071 306.38 0.384277 307.921 0.384277C309.463 0.384277 310.773 1.69071 310.773 3.22769Z" stroke="#E0E0E0" stroke-miterlimit="10" stroke-linejoin="round"/>
<path d="M498.377 232.007C498.377 233.544 497.067 234.85 495.526 234.85C493.984 234.85 492.674 233.544 492.674 232.007C492.674 230.47 493.984 229.164 495.526 229.164C497.067 229.164 498.377 230.393 498.377 232.007Z" stroke="#E0E0E0" stroke-miterlimit="10" stroke-linejoin="round"/>
<path d="M362.414 114.351C362.414 115.888 361.104 117.195 359.562 117.195C358.021 117.195 356.71 115.888 356.71 114.351C356.71 112.814 358.021 111.508 359.562 111.508C361.104 111.508 362.414 112.814 362.414 114.351Z" stroke="#E0E0E0" stroke-miterlimit="10" stroke-linejoin="round"/>
<path d="M10.251 148.011C10.251 149.548 8.94073 150.854 7.3992 150.854C5.85767 150.854 4.54736 149.548 4.54736 148.011C4.54736 146.474 5.85767 145.167 7.3992 145.167C9.01781 145.167 10.251 146.474 10.251 148.011Z" stroke="#E0E0E0" stroke-miterlimit="10" stroke-linejoin="round"/>
<path d="M126.405 41.652C126.405 43.189 125.095 44.4954 123.553 44.4954C122.012 44.4954 120.702 43.189 120.702 41.652C120.702 40.115 122.012 38.8086 123.553 38.8086C125.172 38.8086 126.405 40.0382 126.405 41.652Z" stroke="#E0E0E0" stroke-miterlimit="10" stroke-linejoin="round"/>
<path d="M160.165 28.7415C160.165 29.8174 159.317 30.6628 158.238 30.6628C157.159 30.6628 156.311 29.8174 156.311 28.7415C156.311 27.6657 157.159 26.8203 158.238 26.8203C159.317 26.8203 160.165 27.6657 160.165 28.7415Z" stroke="#E0E0E0" stroke-miterlimit="10" stroke-linejoin="round"/>
<path d="M475.331 165.302C475.331 166.378 474.484 167.223 473.404 167.223C472.325 167.223 471.478 166.378 471.478 165.302C471.478 164.226 472.325 163.381 473.404 163.381C474.484 163.381 475.331 164.226 475.331 165.302Z" stroke="#E0E0E0" stroke-miterlimit="10" stroke-linejoin="round"/>
<path d="M334.744 103.362C335.808 103.362 336.671 102.502 336.671 101.441C336.671 100.38 335.808 99.5195 334.744 99.5195C333.68 99.5195 332.817 100.38 332.817 101.441C332.817 102.502 333.68 103.362 334.744 103.362Z" stroke="#E0E0E0" stroke-miterlimit="10" stroke-linejoin="round"/>
<path d="M412.822 52.8719C412.822 53.9478 411.974 54.7931 410.895 54.7931C409.816 54.7931 408.968 53.9478 408.968 52.8719C408.968 51.796 409.816 50.9507 410.895 50.9507C411.897 50.9507 412.822 51.796 412.822 52.8719Z" stroke="#E0E0E0" stroke-miterlimit="10" stroke-linejoin="round"/>
<path d="M408.66 194.274C408.66 195.35 407.812 196.195 406.733 196.195C405.654 196.195 404.806 195.35 404.806 194.274C404.806 193.198 405.654 192.353 406.733 192.353C407.812 192.353 408.66 193.198 408.66 194.274Z" stroke="#E0E0E0" stroke-miterlimit="10" stroke-linejoin="round"/>
<path d="M108.292 212.718C108.292 213.794 107.444 214.639 106.365 214.639C105.286 214.639 104.438 213.794 104.438 212.718C104.438 211.642 105.286 210.797 106.365 210.797C107.444 210.797 108.292 211.642 108.292 212.718Z" stroke="#E0E0E0" stroke-miterlimit="10" stroke-linejoin="round"/>
<path d="M114.073 124.572C114.073 125.648 113.225 126.493 112.146 126.493C111.067 126.493 110.219 125.648 110.219 124.572C110.219 123.496 111.067 122.651 112.146 122.651C113.225 122.651 114.073 123.496 114.073 124.572Z" stroke="#E0E0E0" stroke-miterlimit="10" stroke-linejoin="round"/>
<path d="M487.201 137.713H484.58C484.118 137.713 483.732 137.329 483.732 136.868V134.255C483.732 133.794 484.118 133.41 484.58 133.41H487.201C487.663 133.41 488.049 133.794 488.049 134.255V136.868C488.049 137.329 487.74 137.713 487.201 137.713Z" fill="#E0E0E0"/>
<path d="M88.6379 226.551H86.0173C85.5548 226.551 85.1694 226.166 85.1694 225.705V223.092C85.1694 222.631 85.5548 222.247 86.0173 222.247H88.6379C89.1003 222.247 89.4857 222.631 89.4857 223.092V225.705C89.4857 226.166 89.1003 226.551 88.6379 226.551Z" fill="#E0E0E0"/>
<path d="M84.1677 69.3177H81.5471C81.0846 69.3177 80.6992 68.9335 80.6992 68.4724V65.8595C80.6992 65.3984 81.0846 65.0142 81.5471 65.0142H84.1677C84.6301 65.0142 85.0155 65.3984 85.0155 65.8595V68.4724C85.0155 68.9335 84.6301 69.3177 84.1677 69.3177Z" fill="#E0E0E0"/>
<path d="M416.83 38.8086H411.82C410.895 38.8086 410.202 38.1169 410.202 37.1948V32.2764C410.202 31.3542 410.895 30.6626 411.82 30.6626H416.83C417.755 30.6626 418.449 31.3542 418.449 32.2764V37.2716C418.449 38.1169 417.755 38.8086 416.83 38.8086Z" fill="#E0E0E0"/>
<path d="M370.43 162.535H367.809C367.347 162.535 366.961 162.151 366.961 161.69V159.077C366.961 158.616 367.347 158.232 367.809 158.232H370.43C370.892 158.232 371.278 158.616 371.278 159.077V161.69C371.278 162.151 370.892 162.535 370.43 162.535Z" fill="#E0E0E0"/>
<path d="M311.466 131.95C311.466 131.565 311.543 131.181 311.543 130.797C312.006 127.339 314.704 127.723 316.322 127.8C318.018 127.877 320.099 127.954 320.87 126.34C321.255 125.648 321.178 124.803 321.409 124.034C321.949 122.344 323.644 121.345 325.263 121.345C326.882 121.345 328.423 122.113 329.733 123.112C334.05 126.34 335.283 117.81 337.287 115.35C339.599 112.507 343.916 110.97 346.844 112.968C349.773 115.043 351.469 118.655 352.24 122.344C352.471 123.573 352.548 125.033 353.55 125.648C356.402 127.569 360.025 123.804 363.493 126.724C364.726 127.723 364.957 130.182 364.803 131.796H311.466V131.95Z" fill="white" stroke="#E0E0E0" stroke-miterlimit="10" stroke-linejoin="round"/>
<path d="M99.12 307.626C89.4854 293.102 69.2143 256.368 86.7878 243.765C96.4223 236.848 109.217 243.15 115.383 258.443C121.241 272.967 123.476 290.182 125.943 307.473" fill="white"/>
<path d="M99.3514 307.473C97.1932 304.168 95.1893 300.864 93.2623 297.405C90.95 293.256 88.7148 288.952 86.7879 284.572C84.7839 280.037 83.0882 275.427 81.7779 270.662C80.6989 266.358 79.9281 261.901 80.1593 257.521C80.3906 253.755 81.3925 249.913 83.859 246.839C86.4025 243.611 90.3334 241.382 94.4956 241.229C99.0431 240.998 103.282 243.15 106.597 246.07C110.99 249.99 113.765 255.215 115.846 260.748C118.235 267.204 119.931 273.966 121.318 280.652C122.706 287.799 123.785 294.946 124.787 302.17C125.018 303.938 125.326 305.705 125.557 307.549C125.635 307.934 126.251 307.78 126.174 307.396C125.095 300.018 124.093 292.641 122.783 285.263C121.549 278.27 120.008 271.277 117.773 264.514C115.846 258.597 113.533 252.833 109.371 248.068C106.288 244.533 102.126 241.613 97.4245 240.921C93.1082 240.23 88.869 241.613 85.4776 244.38C82.4716 246.839 80.6989 250.374 79.9281 254.139C79.0802 258.366 79.3886 262.746 80.2364 266.973C81.1613 271.815 82.7028 276.502 84.5527 281.113C86.4025 285.724 88.5607 290.258 90.873 294.639C92.877 298.404 95.1122 302.17 97.4245 305.782C97.8869 306.474 98.3494 307.165 98.8119 307.934C99.1202 307.934 99.5055 307.703 99.3514 307.473Z" fill="#ADBBF9"/>
<path d="M91.7207 241.536L114.535 307.626" stroke="#D8DEE8" stroke-miterlimit="10" stroke-linejoin="round"/>
<path d="M60.3506 307.626C52.0263 296.867 33.7592 269.74 48.9433 260.364C57.2675 255.215 67.5187 259.903 72.837 271.2C77.9241 281.959 79.851 294.639 81.9321 307.472" fill="white"/>
<path d="M60.5819 307.473C56.5739 302.17 52.7971 296.637 49.7141 290.796C47.9413 287.569 46.3998 284.187 45.1666 280.652C44.1646 277.578 43.3938 274.274 43.4709 270.969C43.548 268.126 44.3187 265.282 46.1686 263.054C48.3267 260.518 51.641 258.827 54.9553 258.52C58.5779 258.212 62.1234 259.519 65.0523 261.671C68.5979 264.283 71.1414 268.049 72.9141 272.045C77.3846 281.882 79.2344 292.794 80.9301 303.4C81.1613 304.783 81.3926 306.166 81.6238 307.473C81.7009 307.857 82.3175 307.703 82.2404 307.319C80.4677 296.329 78.849 285.109 74.6869 274.658C72.9141 270.278 70.756 266.051 67.2875 262.746C64.5128 260.21 61.1214 258.289 57.2676 257.905C53.7221 257.598 50.1765 258.75 47.4018 260.979C45.0895 262.823 43.625 265.436 43.0855 268.356C42.546 271.507 42.9313 274.735 43.7021 277.809C44.627 281.421 46.0144 284.879 47.633 288.183C50.7932 294.562 54.647 300.556 58.9633 306.243C59.3487 306.781 59.734 307.242 60.1194 307.78C60.3507 308.01 60.736 307.703 60.5819 307.473Z" fill="#ADBBF9"/>
<path d="M53.2598 258.75L72.9143 307.626" stroke="#D8DEE8" stroke-miterlimit="10" stroke-linejoin="round"/>
<path d="M157.852 307.472C135.038 266.128 120.239 225.167 138.737 205.724C157.005 186.435 176.12 209.26 180.744 229.548C186.448 254.37 187.296 281.19 187.142 307.472" fill="white"/>
<path d="M157.852 307.472C135.038 266.128 120.239 225.167 138.737 205.724C157.005 186.435 176.12 209.26 180.744 229.548C186.448 254.37 187.296 281.19 187.142 307.472" stroke="#D8DEE8" stroke-miterlimit="10" stroke-linejoin="round"/>
<path d="M145.443 200.729L172.883 307.396" stroke="#D8DEE8" stroke-miterlimit="10" stroke-linejoin="round"/>
<path d="M123.553 307.549C114.458 285.724 94.0331 241.459 108.446 227.857C117.619 219.096 134.267 229.855 142.823 248.914C150.916 267.05 153.382 285.724 158.238 307.319" fill="white"/>
<path d="M123.785 307.549C121.781 302.631 119.622 297.713 117.618 292.718C115.229 286.954 112.994 281.113 110.913 275.196C108.832 269.279 106.982 263.361 105.672 257.213C104.515 251.988 103.668 246.531 103.899 241.152C104.053 237.002 104.978 232.622 107.598 229.317C108.986 227.627 110.759 226.32 112.763 225.628C114.844 224.937 117.156 224.937 119.314 225.398C124.864 226.628 129.642 230.547 133.342 234.62C138.429 240.153 141.898 246.839 144.595 253.755C147.524 261.133 149.605 268.818 151.455 276.502C153.382 284.648 154.923 292.794 156.619 300.94C157.082 303.092 157.544 305.167 158.007 307.319C158.084 307.703 158.7 307.549 158.623 307.165C156.696 298.712 155.078 290.182 153.228 281.651C151.532 273.736 149.605 265.897 146.908 258.212C144.364 250.912 141.281 243.688 136.579 237.463C132.957 232.622 128.332 228.164 122.628 225.782C118.389 224.015 113.456 223.63 109.525 226.474C106.057 228.933 104.284 232.929 103.59 237.002C102.743 242.074 103.205 247.223 104.053 252.295C105.055 258.366 106.751 264.36 108.6 270.278C110.604 276.426 112.84 282.42 115.229 288.414C117.387 293.793 119.622 299.019 121.858 304.322C122.32 305.398 122.783 306.474 123.245 307.626C123.476 307.934 123.939 307.78 123.785 307.549Z" fill="#ADBBF9"/>
<path d="M300.598 307.473C292.891 219.557 311.62 187.358 332.123 185.974C341.834 185.283 370.276 190.893 335.9 307.473" fill="white"/>
<path d="M300.753 307.473C300.136 298.174 299.442 288.875 299.211 279.576C298.98 271.661 299.057 263.669 299.442 255.753C299.751 249.067 300.367 242.382 301.292 235.772C302.063 230.316 303.142 224.937 304.529 219.557C305.686 215.177 307.15 210.95 308.923 206.8C310.387 203.496 312.16 200.268 314.318 197.348C316.091 194.966 318.095 192.737 320.484 190.893C322.488 189.356 324.723 188.049 327.113 187.281C328.963 186.666 330.89 186.282 332.894 186.205C333.896 186.205 334.975 186.205 335.822 186.359C336.979 186.512 338.135 186.82 339.214 187.281C340.37 187.742 341.68 188.51 342.682 189.279C343.993 190.278 345.072 191.508 345.997 192.891C347.23 194.581 348.155 196.503 348.848 198.424C349.85 200.96 350.467 203.573 351.007 206.263C351.623 209.721 351.931 213.256 352.086 216.791C352.24 221.325 352.086 225.859 351.777 230.393C351.392 236.157 350.621 241.844 349.773 247.53C348.694 254.524 347.307 261.517 345.842 268.433C343.993 276.887 341.912 285.186 339.599 293.563C338.366 298.174 337.133 302.785 335.745 307.396C335.668 307.703 336.131 307.78 336.208 307.549C337.595 302.785 339.06 298.02 340.37 293.256C341.603 288.875 342.682 284.418 343.838 279.961C345.688 272.276 347.461 264.591 348.848 256.906C350.005 250.681 351.007 244.38 351.7 238.001C352.24 232.929 352.702 227.857 352.779 222.708C352.856 218.712 352.779 214.639 352.317 210.643C352.009 207.569 351.469 204.495 350.621 201.498C350.005 199.192 349.157 196.964 348.001 194.889C347.153 193.275 346.074 191.738 344.763 190.355C343.684 189.279 342.528 188.28 341.218 187.588C340.062 186.973 338.906 186.435 337.595 186.128C336.516 185.821 335.437 185.667 334.281 185.667C332.971 185.59 331.66 185.667 330.427 185.898C327.961 186.282 325.648 187.127 323.49 188.28C321.101 189.586 318.943 191.354 317.016 193.352C314.703 195.734 312.777 198.501 311.158 201.344C309.154 204.879 307.535 208.645 306.148 212.487C304.529 217.252 303.219 222.093 302.294 227.012C301.061 233.006 300.29 239.077 299.751 245.148C299.057 252.449 298.749 259.826 298.749 267.127C298.672 275.888 298.98 284.572 299.442 293.256C299.751 297.943 300.059 302.708 300.598 307.396C300.521 307.626 300.753 307.626 300.753 307.473Z" fill="#ADBBF9"/>
<path d="M336.131 186.128L318.018 307.396" stroke="#D8DEE8" stroke-miterlimit="10" stroke-linejoin="round"/>
<path d="M361.181 307.473C367.424 255.215 388.62 225.091 407.735 233.237C423.381 239.922 415.288 269.048 390.932 307.396" fill="white"/>
<path d="M361.335 307.472C362.029 303.092 362.568 298.712 363.416 294.331C364.187 290.258 365.035 286.262 366.037 282.189C367.809 275.119 369.967 268.203 372.819 261.44C375.132 255.984 377.829 250.681 381.221 245.84C383.841 242.074 387.001 238.539 390.778 235.849C393.707 233.774 397.176 232.237 400.875 232.161C404.267 232.007 407.966 233.006 410.587 235.234C413.439 237.54 414.826 240.998 415.289 244.61C415.905 249.528 415.057 254.524 413.824 259.288C412.128 265.897 409.585 272.276 406.733 278.5C403.11 286.339 398.871 293.87 394.478 301.248C393.245 303.246 392.011 305.244 390.855 307.319C390.701 307.549 391.086 307.78 391.241 307.549C393.938 303.553 396.405 299.326 398.794 295.1C400.952 291.334 403.033 287.492 404.96 283.572C408.198 277.04 411.203 270.278 413.362 263.284C414.98 258.135 416.213 252.756 416.136 247.3C416.059 243.457 415.211 239.461 412.745 236.464C410.51 233.697 407.041 232.16 403.496 231.699C399.95 231.238 396.328 232.084 393.168 233.697C389.314 235.696 385.999 238.846 383.302 242.151C379.756 246.531 376.827 251.45 374.438 256.522C371.432 262.823 369.043 269.509 367.116 276.195C364.803 284.264 363.108 292.564 361.874 300.863C361.566 303.015 361.258 305.244 361.104 307.396C361.027 307.626 361.335 307.703 361.335 307.472Z" fill="#ADBBF9"/>
<path d="M407.735 233.236L376.519 307.396" stroke="#D8DEE8" stroke-miterlimit="10" stroke-linejoin="round"/>
<path d="M113.457 225.167L141.435 307.626" stroke="#D8DEE8" stroke-miterlimit="10" stroke-linejoin="round"/>
<path d="M363.57 307.549C375.902 281.421 400.798 221.863 382.069 200.729C371.74 189.125 352.934 203.342 342.914 228.933C333.433 253.217 326.342 278.27 320.407 307.165" fill="white"/>
<path d="M363.724 307.703C366.576 301.632 369.351 295.561 371.894 289.413C374.977 281.959 377.906 274.351 380.45 266.666C383.07 258.827 385.306 250.835 386.924 242.689C388.389 235.388 389.314 227.934 389.005 220.556C388.697 214.562 387.541 208.414 384.227 203.265C382.762 200.96 380.835 198.808 378.369 197.578C375.979 196.426 373.282 196.195 370.738 196.656C367.655 197.271 364.803 198.808 362.26 200.652C359.1 202.958 356.402 205.724 353.935 208.798C351.007 212.487 348.463 216.483 346.305 220.633C343.916 225.244 342.066 230.162 340.216 235.004C336.439 245.071 333.125 255.369 330.119 265.667C326.959 276.579 324.261 287.645 321.795 298.788C321.178 301.632 320.561 304.475 320.022 307.319C319.945 307.703 320.561 307.934 320.638 307.472C322.951 296.252 325.494 285.109 328.423 274.12C331.198 263.745 334.358 253.524 337.904 243.38C339.676 238.385 341.449 233.467 343.376 228.549C345.226 223.938 347.461 219.404 350.159 215.177C352.471 211.565 355.092 208.107 358.098 205.033C360.564 202.574 363.416 200.268 366.576 198.731C369.043 197.502 371.817 196.81 374.592 197.117C377.29 197.425 379.679 198.808 381.452 200.806C385.383 205.11 387.233 210.95 387.926 216.637C388.774 223.63 388.235 230.777 387.078 237.77C385.768 245.763 383.764 253.601 381.375 261.363C378.985 269.125 376.211 276.733 373.205 284.341C370.584 290.873 367.809 297.328 364.88 303.784C364.264 305.09 363.724 306.32 363.108 307.626C363.185 307.703 363.647 307.934 363.724 307.703Z" fill="#ADBBF9"/>
<path d="M376.519 197.041L343.453 307.626" stroke="#D8DEE8" stroke-miterlimit="10" stroke-linejoin="round"/>
<path d="M385.382 307.473C401.645 274.581 415.828 265.897 429.085 268.51C439.413 270.585 441.032 285.724 419.219 307.473" fill="white"/>
<path d="M385.46 307.549C387.001 304.86 388.311 302.093 389.853 299.403C391.163 297.021 392.551 294.639 394.015 292.333C396.482 288.414 399.179 284.648 402.185 281.19C404.498 278.5 407.118 275.888 409.97 273.736C412.282 272.045 414.749 270.585 417.446 269.586C419.759 268.741 422.225 268.356 424.692 268.356C426.927 268.356 429.316 268.587 431.32 269.586C433.17 270.508 434.557 272.045 435.251 273.966C436.176 276.349 436.099 278.961 435.636 281.421C434.943 285.033 433.401 288.414 431.551 291.565C428.931 296.022 425.617 300.095 422.148 303.937C421.069 305.09 420.067 306.166 418.988 307.319C418.757 307.549 419.065 307.857 419.296 307.626C421.609 305.551 423.69 303.246 425.617 300.863C427.312 298.865 428.854 296.79 430.318 294.639C432.553 291.257 434.557 287.645 435.714 283.726C436.484 281.036 436.947 278.193 436.33 275.426C435.868 273.351 434.789 271.353 433.093 270.047C431.243 268.664 429.008 268.126 426.773 267.895C424.306 267.665 421.763 267.818 419.373 268.433C416.676 269.125 414.132 270.278 411.743 271.738C408.814 273.582 406.27 275.811 403.881 278.347C400.875 281.497 398.177 285.033 395.711 288.644C392.551 293.332 389.776 298.174 387.155 303.169C386.385 304.552 385.691 306.012 385.074 307.472C385.151 307.549 385.383 307.703 385.46 307.549Z" fill="#ADBBF9"/>
<path d="M427.775 268.664L402.879 307.473" stroke="#D8DEE8" stroke-miterlimit="10" stroke-linejoin="round"/>
<path d="M35.5322 307.703H465.311" stroke="#222935" stroke-miterlimit="10"/>
<path d="M441.571 286.262L442.882 308.164L442.188 315.081L415.982 314.927C415.288 314.927 414.749 314.389 414.826 313.697C414.826 313.236 415.134 312.775 415.596 312.622L427.312 307.242L424.691 284.418" fill="#FFCBBD"/>
<path d="M413.593 314.696C413.901 313.851 414.363 312.852 414.903 312.621L427.312 307.319C434.172 310.085 443.036 307.934 443.036 307.934L443.73 317.232C443.73 317.54 443.498 317.77 443.19 317.77L413.901 317.617C413.207 317.693 413.593 314.696 413.593 314.696Z" fill="#F7471E"/>
<path d="M424.615 307.857C425.308 308.779 425.925 309.778 426.387 310.777" stroke="#B22B19" stroke-width="0.75" stroke-miterlimit="10"/>
<path d="M423.073 308.779C423.767 309.778 424.075 310.316 424.538 311.238" stroke="#B22B19" stroke-width="0.75" stroke-miterlimit="10"/>
<path d="M421.763 309.471C422.225 310.162 422.765 311.008 423.073 311.776" stroke="#B22B19" stroke-width="0.75" stroke-miterlimit="10"/>
<path d="M443.498 315.773L413.516 315.619" stroke="#B22B19" stroke-width="0.75" stroke-miterlimit="10"/>
<path d="M443.267 311.392C443.267 311.392 436.33 311.469 435.713 315.772" stroke="#B22B19" stroke-width="0.75" stroke-miterlimit="10"/>
<path d="M417.446 311.545C417.446 311.545 419.45 314.389 419.836 315.695" stroke="#B22B19" stroke-width="0.75" stroke-miterlimit="10"/>
<path d="M420.992 201.959C420.992 201.959 417.215 232.852 418.68 255.215C420.144 277.655 422.225 303.63 422.225 303.63H445.04C445.04 303.63 442.111 265.129 442.419 247.146C442.805 227.165 448.894 201.959 448.894 201.959" fill="#263238"/>
<path d="M440.338 303.707C440.338 303.707 437.409 265.205 437.718 247.223C438.103 227.242 444.192 202.036 444.192 202.036" stroke="#121649" stroke-width="0.75" stroke-miterlimit="10"/>
<path d="M471.554 256.906L492.673 263.668L499.071 266.435L490.978 291.334C490.747 291.949 490.13 292.333 489.436 292.103C488.974 291.949 488.665 291.488 488.588 291.027L486.97 278.27L465.003 271.123" fill="#FFCBBD"/>
<path d="M490.053 293.486C489.282 292.948 488.511 292.18 488.511 291.642L487.201 278.27C491.903 272.583 492.597 263.592 492.597 263.592L501.692 265.744C502 265.82 502.154 266.128 502.077 266.435L493.059 294.255C492.751 294.792 490.053 293.563 490.053 293.486Z" fill="#F7471E"/>
<path d="M486.815 280.959C487.895 280.575 488.974 280.345 490.13 280.191" stroke="#B22B19" stroke-width="0.75" stroke-miterlimit="10"/>
<path d="M487.201 282.727C488.357 282.343 488.974 282.266 490.053 282.112" stroke="#B22B19" stroke-width="0.75" stroke-miterlimit="10"/>
<path d="M487.432 284.187C488.203 283.957 489.205 283.726 490.053 283.572" stroke="#B22B19" stroke-width="0.75" stroke-miterlimit="10"/>
<path d="M500.15 265.436L490.901 293.947" stroke="#B22B19" stroke-width="0.75" stroke-miterlimit="10"/>
<path d="M495.834 264.36C495.834 264.36 493.752 270.969 497.76 272.891" stroke="#B22B19" stroke-width="0.75" stroke-miterlimit="10"/>
<path d="M488.203 288.875C488.203 288.875 491.517 287.799 492.905 287.876" stroke="#B22B19" stroke-width="0.75" stroke-miterlimit="10"/>
<path d="M458.143 202.958C458.143 202.958 460.224 211.719 460.224 215.485C460.224 218.251 459.145 220.096 458.528 222.17C458.297 223.016 458.143 223.938 458.066 224.783C457.912 228.856 457.68 240.153 460.224 245.533C463.307 252.142 489.282 260.902 489.282 260.902L482.73 280.652C482.73 280.652 443.036 270.739 438.103 258.597C431.166 241.69 433.17 202.881 433.17 202.881" fill="#263238"/>
<path d="M442.805 264.36C440.492 262.516 438.797 260.672 438.026 258.673C431.089 241.767 433.093 202.958 433.093 202.958" stroke="#121649" stroke-width="0.75" stroke-miterlimit="10"/>
<path d="M454.751 202.267C454.751 202.267 457.064 213.333 457.064 217.098C457.064 219.942 455.908 221.863 455.368 223.861C455.137 224.63 454.983 225.475 454.906 226.32C454.674 230.316 454.212 241.844 457.064 247.146C460.995 254.447 488.126 264.13 488.126 264.13" stroke="#121649" stroke-width="0.75" stroke-miterlimit="10"/>
<path d="M429.856 205.187C429.856 205.187 429.47 213.179 430.626 214.101C431.783 215.023 432.862 215.715 432.862 215.715" stroke="#121649" stroke-width="0.75" stroke-miterlimit="10"/>
<path d="M485.967 259.826L478.722 279.653" stroke="#121649" stroke-width="0.75" stroke-miterlimit="10"/>
<path d="M421.917 299.788H444.732" stroke="#121649" stroke-width="0.75" stroke-miterlimit="10"/>
<path d="M448.508 203.573C448.508 203.573 449.896 208.645 456.293 210.182" stroke="#121649" stroke-width="0.75" stroke-miterlimit="10"/>
<path d="M420.298 209.26C420.298 209.26 426.002 207.569 427.775 203.573" stroke="#121649" stroke-width="0.75" stroke-miterlimit="10"/>
<path d="M434.095 142.017L433.093 149.164C433.093 149.164 433.016 151.162 436.87 152.545C441.571 154.236 444.423 150.624 444.423 150.624L444.115 143.4" fill="#FFCBBB"/>
<path d="M433.478 132.564C433.478 132.564 428.546 140.864 431.937 144.168C435.097 147.165 441.957 145.321 442.574 144.245C443.19 143.169 447.121 133.947 444.963 132.641C441.186 130.412 435.637 129.029 433.478 132.564Z" fill="#FFCBBB"/>
<path d="M433.556 145.705C433.556 145.705 436.947 146.781 440.03 145.398" stroke="#EF977F" stroke-miterlimit="10"/>
<path d="M432.631 127.185C433.247 122.266 439.259 125.955 441.649 128.184C442.342 128.875 446.659 130.105 447.275 130.797C447.969 131.488 448.508 132.41 448.74 133.333C448.894 134.178 448.74 135.1 448.585 135.869C448.2 137.406 447.583 138.789 447.044 140.249C446.427 141.786 445.271 144.937 442.959 144.629C442.496 144.553 442.034 144.476 441.803 144.168C441.494 143.861 441.494 143.4 441.572 142.939C441.649 142.247 441.88 141.555 442.188 140.941C441.726 141.094 441.263 141.325 440.801 141.171C440.647 141.094 440.569 140.941 440.492 140.864C440.184 140.403 440.569 137.252 442.034 135.945C439.876 134.946 438.257 134.87 436.022 133.947C434.249 133.179 433.478 132.334 432.862 131.488C432.014 130.259 432.476 128.645 432.631 127.185Z" fill="#4A1A1A"/>
<path d="M441.648 140.633C442.188 139.865 443.036 139.019 443.806 139.788C444.115 140.095 444.192 140.556 444.192 141.018C444.269 142.478 442.804 144.399 441.417 143.861C440.801 143.63 440.569 142.708 440.492 142.017" fill="#FFCBBB"/>
<path d="M434.558 136.176C434.558 136.176 432.399 138.251 432.399 139.019C432.399 139.711 434.018 140.172 434.018 140.172" stroke="#F7A794" stroke-width="0.5" stroke-miterlimit="10"/>
<path d="M431.628 140.479L435.482 141.94C435.482 141.94 434.557 144.245 432.245 143.169C430.626 142.401 431.628 140.479 431.628 140.479Z" fill="white"/>
<path d="M432.939 135.023C432.939 135.1 432.862 135.1 432.862 135.177C432.862 135.254 432.785 135.254 432.785 135.331C432.708 135.408 432.708 135.484 432.63 135.561C432.63 135.638 432.553 135.715 432.63 135.792C432.63 135.869 432.708 135.946 432.785 135.946C432.862 135.946 432.939 136.022 433.016 135.946C433.093 135.946 433.17 135.869 433.17 135.792C433.247 135.715 433.247 135.638 433.324 135.484C433.401 135.408 433.401 135.254 433.478 135.177C433.478 135.1 433.478 135.023 433.478 134.946C433.478 134.87 433.401 134.87 433.324 134.87C433.247 134.87 433.17 134.87 433.17 134.87H433.093C433.016 134.946 433.016 135.023 432.939 135.023Z" fill="#212237"/>
<path d="M434.635 134.332C434.635 134.332 434.172 133.256 433.016 133.794" stroke="#212237" stroke-width="0.5" stroke-miterlimit="10" stroke-linecap="round" stroke-linejoin="round"/>
<path d="M437.795 137.329C437.795 137.406 437.718 137.406 437.718 137.483C437.718 137.559 437.64 137.559 437.64 137.636C437.64 137.713 437.563 137.713 437.563 137.79C437.563 137.867 437.486 137.944 437.486 138.021C437.486 138.097 437.486 138.097 437.486 138.174C437.486 138.251 437.486 138.251 437.486 138.251C437.486 138.328 437.563 138.328 437.64 138.405C437.718 138.405 437.795 138.405 437.872 138.405C437.949 138.405 438.026 138.328 438.026 138.251C438.103 138.174 438.103 138.021 438.18 137.867C438.18 137.79 438.257 137.636 438.257 137.559C438.257 137.483 438.257 137.406 438.257 137.329C438.257 137.252 438.18 137.252 438.103 137.252C437.949 137.175 437.872 137.252 437.795 137.329Z" fill="#212237"/>
<path d="M437.949 135.561C437.949 135.561 439.105 135.408 439.953 136.945" stroke="#212237" stroke-width="0.5" stroke-miterlimit="10" stroke-linecap="round" stroke-linejoin="round"/>
<path d="M417.369 110.739C417.061 106.589 417.601 94.8313 416.907 94.5239C416.213 94.2165 415.905 98.2126 415.288 97.8284C414.749 97.4441 414.749 91.2962 413.978 91.2194C412.899 91.0657 413.13 97.3673 413.13 97.3673C413.13 97.3673 412.437 90.4509 411.435 90.6046C410.741 90.6814 410.972 95.984 410.818 98.0589C410.741 95.8303 410.047 91.6805 409.353 91.8342C408.66 91.9879 408.737 96.1377 408.737 98.9043C408.583 97.1367 408.274 93.3711 407.581 93.448C406.887 93.5248 406.733 103.362 406.656 111.661" fill="#FFCBBD"/>
<path d="M416.368 152.314C416.368 152.314 411.897 142.939 409.122 132.103C406.348 121.19 406.81 107.05 406.81 107.05L417.293 108.818C417.293 108.818 417.755 128.568 429.779 148.241" fill="#FFCBBD"/>
<path d="M408.968 99.2114C409.816 100.518 410.972 102.055 410.895 104.668" stroke="#F7A794" stroke-miterlimit="10"/>
<path d="M415.211 98.7505C414.209 99.6727 413.13 102.055 413.67 103.285" stroke="#F7A794" stroke-miterlimit="10"/>
<path d="M451.206 108.741C452.748 106.974 454.135 104.976 455.214 102.747C456.37 100.518 457.141 98.2897 457.758 95.9842L451.514 93.9093C451.977 91.7575 452.131 89.6057 452.054 87.454L458.528 86.3781C458.143 81.5366 456.602 76.8488 454.058 72.7758L448.123 75.6961C446.967 73.9285 445.58 72.2379 443.884 70.7777L447.661 65.3983C445.888 63.8613 443.884 62.478 441.649 61.4022C439.413 60.2494 437.178 59.4809 434.866 58.8661L432.785 65.0909C430.627 64.6298 428.469 64.4761 426.31 64.553L425.231 58.0977C420.376 58.4819 415.674 60.0189 411.589 62.5549L414.518 68.4723C412.745 69.625 411.049 71.0083 409.585 72.699L404.189 68.9334C402.648 70.7009 401.261 72.699 400.181 74.9276C399.025 77.1562 398.255 79.3848 397.638 81.6903L403.881 83.7652C403.419 85.917 403.265 88.0688 403.342 90.2205L396.867 91.2964C397.253 96.1379 398.794 100.826 401.338 104.899L407.273 101.978C408.429 103.746 409.816 105.437 411.512 106.897L407.735 112.276C409.508 113.813 411.512 115.196 413.747 116.272C415.982 117.425 418.217 118.194 420.53 118.808L422.611 112.584C424.769 113.045 426.927 113.198 429.085 113.122L430.164 119.577C435.02 119.193 439.722 117.656 443.807 115.12L440.878 109.202C442.651 108.049 444.346 106.666 445.811 104.976L451.206 108.741ZM422.38 99.2887C416.522 96.2916 414.209 89.2215 417.215 83.381C420.221 77.5404 427.312 75.235 433.17 78.2321C439.028 81.2292 441.34 88.2993 438.334 94.1398C435.328 99.9035 428.16 102.209 422.38 99.2887Z" fill="#E0E0E0"/>
<path d="M433.17 148.165C430.01 148.165 425.154 138.174 425.154 138.174L412.591 147.55C412.591 147.55 416.599 159.999 423.382 167.915" fill="#F7471E"/>
<path d="M426.233 140.172L413.438 149.778" stroke="#B22B19" stroke-width="0.75" stroke-miterlimit="10"/>
<path d="M465.697 105.667C465.003 101.056 463.307 90.2971 462.536 90.1434C461.766 89.9897 461.457 92.5258 461.766 93.6016C461.303 91.6804 459.916 87.3769 459.068 87.3769C457.989 87.4537 459.376 93.6016 459.376 93.6016C459.376 93.6016 457.526 86.9158 456.524 87.2232C455.831 87.4537 457.064 92.6026 457.218 94.6007C456.679 92.4489 455.368 88.4528 454.675 88.6833C453.981 88.9139 454.829 92.9868 455.291 95.7534C454.906 94.0627 453.827 90.374 453.21 90.6045C452.594 90.8351 454.289 99.2885 455.291 107.665" fill="#FFCBBD"/>
<path d="M463.538 148.625C463.538 148.625 466.313 138.635 467.161 127.415C468.009 116.195 465.08 102.362 465.08 102.362L455.06 105.897C455.06 105.897 457.989 125.417 449.665 146.858" fill="#FFCBBD"/>
<path d="M433.17 148.165C433.17 148.165 433.787 149.932 437.255 150.086C441.726 150.316 444.192 148.165 444.192 148.165C444.192 148.165 457.526 149.932 458.605 164.38C459.839 181.056 460.147 204.495 460.147 204.495H418.68C418.68 204.495 418.988 177.751 419.836 164.918C420.684 152.775 433.17 148.165 433.17 148.165Z" fill="#F7471E"/>
<path d="M458.529 166.224C463.539 153.236 465.311 143.323 465.311 143.323L451.977 136.868C451.977 136.868 448.817 145.705 444.192 148.088" fill="#F7471E"/>
<path d="M450.975 139.48L464.772 146.089" stroke="#B22B19" stroke-width="0.75" stroke-miterlimit="10"/>
<path d="M418.68 202.266H460.147" stroke="#B22B19" stroke-width="0.75" stroke-miterlimit="10"/>
<path d="M458.914 165.302C458.914 165.302 457.218 168.914 457.064 170.681" stroke="#B22B19" stroke-width="0.75" stroke-miterlimit="10"/>
<path d="M422.919 155.772C422.919 155.772 420.375 159.999 419.836 164.994" stroke="#B22B19" stroke-width="0.75" stroke-miterlimit="10"/>
<path d="M431.629 147.55C431.629 147.55 432.323 152.391 437.718 152.391C444.347 152.391 445.657 147.55 445.657 147.55" stroke="#B22B19" stroke-width="0.75" stroke-miterlimit="10"/>
<path d="M461.688 93.5251C461.688 93.4483 461.765 93.602 461.765 93.6788L461.843 93.8325L461.997 94.2168C462.074 94.4473 462.228 94.7547 462.305 94.9852C462.459 95.5232 462.613 96.0611 462.613 96.5991C462.459 96.3685 462.305 96.138 462.228 95.9074C462.074 95.6769 461.997 95.3695 461.92 95.1389C461.843 94.9084 461.765 94.601 461.688 94.3705L461.611 93.9862V93.7557L461.688 93.5251C461.688 93.602 461.688 93.4483 461.688 93.5251Z" fill="#EF977F"/>
<path d="M363.57 285.11L364.264 307.857L363.493 315.004L336.285 314.851C335.591 314.851 335.052 314.313 335.052 313.621C335.052 313.083 335.36 312.622 335.823 312.468L348.001 306.935L346.151 283.266" fill="#FFCBBD"/>
<path d="M333.896 314.543C334.204 313.621 334.744 312.622 335.206 312.392L348.078 306.858C355.169 309.702 364.341 307.55 364.341 307.55L365.035 317.233C365.035 317.54 364.803 317.848 364.418 317.771L333.973 317.617C333.433 317.694 333.819 314.62 333.896 314.543Z" fill="#263238"/>
<path d="M345.303 307.473C345.997 308.395 346.614 309.471 347.153 310.547" stroke="#121649" stroke-width="0.75" stroke-miterlimit="10"/>
<path d="M343.685 308.395C344.455 309.394 344.764 310.009 345.149 311.008" stroke="#121649" stroke-width="0.75" stroke-miterlimit="10"/>
<path d="M342.297 309.164C342.837 309.855 343.299 310.777 343.685 311.546" stroke="#121649" stroke-width="0.75" stroke-miterlimit="10"/>
<path d="M364.881 315.773L333.742 315.542" stroke="#121649" stroke-width="0.75" stroke-miterlimit="10"/>
<path d="M364.649 311.085C364.649 311.085 357.404 311.162 356.788 315.696" stroke="#121649" stroke-width="0.75" stroke-miterlimit="10"/>
<path d="M337.827 311.315C337.827 311.315 339.908 314.236 340.293 315.619" stroke="#121649" stroke-width="0.75" stroke-miterlimit="10"/>
<path d="M360.41 195.658C360.41 195.658 363.725 201.191 364.649 205.341C366.191 211.95 364.649 218.712 364.649 218.712L364.572 298.251H344.378C344.378 298.251 339.908 206.57 341.912 194.659" fill="#263238"/>
<path d="M347.461 298.251C347.461 298.251 342.991 206.57 344.995 194.659" stroke="#121649" stroke-width="0.75" stroke-miterlimit="10"/>
<path d="M341.218 276.119L350.39 296.945L352.394 303.861L327.113 313.851C326.497 314.082 325.726 313.775 325.495 313.16C325.34 312.699 325.418 312.161 325.803 311.777L334.975 302.094L324.416 280.806" fill="#FFCBBD"/>
<path d="M324.724 314.543C324.647 313.621 324.801 312.468 325.186 312.084L335.052 302.171C342.683 302.171 350.39 296.714 350.39 296.714L354.63 305.398C354.784 305.706 354.63 306.013 354.321 306.167L326.034 317.31C325.495 317.54 324.724 314.543 324.724 314.543Z" fill="#263238"/>
<path d="M332.663 303.708C333.665 304.322 334.667 305.014 335.514 305.859" stroke="#121649" stroke-width="0.75" stroke-miterlimit="10"/>
<path d="M331.506 305.167C332.585 305.859 333.048 306.32 333.819 307.012" stroke="#121649" stroke-width="0.75" stroke-miterlimit="10"/>
<path d="M330.504 306.32C331.198 306.781 332.046 307.473 332.663 308.011" stroke="#121649" stroke-width="0.75" stroke-miterlimit="10"/>
<path d="M353.936 304.092L324.955 315.465" stroke="#121649" stroke-width="0.75" stroke-miterlimit="10"/>
<path d="M351.932 299.865C351.932 299.865 345.226 302.632 346.305 307.012" stroke="#121649" stroke-width="0.75" stroke-miterlimit="10"/>
<path d="M327.19 310.009C327.19 310.009 330.196 312.007 331.121 313.083" stroke="#121649" stroke-width="0.75" stroke-miterlimit="10"/>
<path d="M325.572 208.645C315.166 234.082 315.012 236.772 313.316 249.222C311.544 261.979 330.736 299.481 330.736 299.481L349.157 291.335C349.157 291.335 336.902 256.983 337.75 251.143C339.214 240.307 351.778 221.787 351.778 221.787C351.778 221.787 357.712 217.099 359.023 210.797C360.333 204.572 357.481 197.963 357.481 197.963" fill="#263238"/>
<path d="M344.532 211.642C344.763 211.565 352.779 209.029 352.779 209.029" stroke="#121649" stroke-width="0.75" stroke-miterlimit="10"/>
<path d="M362.183 206.724L364.804 205.878" stroke="#121649" stroke-width="0.75" stroke-miterlimit="10"/>
<path d="M331.738 207.876C331.738 207.876 318.866 235.696 317.17 248.453C315.397 261.21 334.127 297.636 334.127 297.636" stroke="#121649" stroke-width="0.75" stroke-miterlimit="10"/>
<path d="M341.989 238.847C345.997 230.086 351.7 221.71 351.7 221.71C351.7 221.71 357.635 217.022 358.946 210.72" stroke="#121649" stroke-width="0.75" stroke-miterlimit="10"/>
<path d="M323.799 145.629L329.117 154.774C329.117 154.774 325.957 161.613 317.401 158.386L315.243 153.544L323.799 145.629Z" fill="#FFCBBD"/>
<path d="M309.771 139.481C309.771 139.481 307.15 151.7 311.698 153.852C314.087 155.005 320.639 154.313 322.18 151.777C323.336 149.933 322.874 141.095 321.486 140.096C316.091 135.946 309.771 139.481 309.771 139.481Z" fill="#FFCBBD"/>
<path d="M321.255 135.869C319.251 132.411 315.243 133.103 308.692 136.791C307.844 137.252 305.917 137.483 305.917 138.482C305.917 139.788 306.842 142.017 308.383 142.401C309.385 142.709 309.925 142.632 311.004 142.324C312.391 142.017 314.164 142.555 314.164 144.169C314.164 144.553 314.01 145.322 314.395 145.475C314.627 145.552 315.089 145.475 315.32 145.475C315.937 145.475 316.245 146.244 316.168 146.859C316.091 147.473 316.476 147.934 316.399 148.549C316.245 150.009 318.018 151.546 319.482 151.7C320.793 151.777 324.492 151.162 326.265 148.78C327.807 146.705 327.576 143.17 325.032 137.944C324.107 135.946 321.949 135.331 321.255 135.869Z" fill="#212237"/>
<path d="M314.01 146.09C314.396 144.169 315.475 143.938 316.323 144.476C317.479 145.168 317.247 147.935 316.785 148.626C315.937 150.01 314.858 150.394 314.241 149.472" fill="#FFCBBD"/>
<path d="M315.628 154.313C317.016 153.16 316.785 151.085 316.785 151.085" stroke="#E88872" stroke-width="0.5" stroke-miterlimit="10" stroke-linejoin="round"/>
<path d="M310.156 145.322C310.002 145.706 309.925 146.397 310.233 146.628C310.311 146.705 310.465 146.705 310.542 146.628C311.313 146.167 310.542 144.399 310.156 145.322Z" fill="#28364C"/>
<path d="M309.617 143.938C310.156 143.862 311.081 143.938 311.621 144.323" stroke="#28364C" stroke-width="0.75" stroke-miterlimit="10"/>
<path d="M311.852 149.779L309.848 149.702C309.848 149.702 309.771 152.084 310.696 152.161C311.775 152.238 311.852 149.779 311.852 149.779Z" fill="white"/>
<path d="M327.884 152.699C327.884 152.699 332.508 151.546 338.983 153.391C344.455 155.005 351.469 159.078 356.71 164.687C365.805 174.37 361.643 198.347 361.643 198.347L349.774 197.886C349.774 197.886 351.623 182.44 345.457 176.292C339.214 170.067 330.504 168.684 330.504 168.684" fill="#FBD15B"/>
<path d="M277.63 186.436C273.93 187.435 262.677 188.664 262.523 189.433C262.369 190.201 266.3 189.817 266.068 190.432C265.837 191.046 259.748 192.046 259.748 192.814C259.748 193.89 265.914 192.583 265.914 192.583C265.914 192.583 263.371 193.045 263.679 193.967C263.91 194.658 264.912 194.812 266.993 194.658C265.914 194.889 265.452 195.427 265.683 196.119C265.914 196.81 266.993 196.733 268.149 196.58C267.379 196.733 266.762 197.271 267.302 197.732C267.995 198.347 272.543 198.04 280.713 196.656" fill="#FFCBBD"/>
<path d="M316.168 155.773C316.168 155.773 319.328 157.156 322.874 155.773C326.419 154.39 327.884 152.699 327.884 152.699C327.884 152.699 335.823 152.161 345.534 161.844C355.323 171.604 362.954 199.27 362.954 199.27L322.797 212.718C322.797 212.718 315.937 188.511 313.239 177.445C310.542 166.378 316.168 155.773 316.168 155.773Z" fill="#FBD15B"/>
<path d="M344.995 159.308C353.011 168.684 362.953 199.27 362.953 199.27" stroke="#263238" stroke-width="0.75" stroke-miterlimit="10"/>
<path d="M316.168 155.773C310.85 157.771 306.379 162.92 303.527 168.146C298.98 176.753 296.205 183.054 296.205 183.054L273.159 186.513L274.315 198.732C274.315 198.732 289.962 198.27 302.371 196.426C311.235 195.12 318.095 176.83 318.095 176.83" fill="#FBD15B"/>
<path d="M314.626 156.464C314.626 156.464 317.17 159.846 323.259 157.54C329.348 155.235 329.579 152.468 329.579 152.468" stroke="#263238" stroke-width="0.75" stroke-miterlimit="10"/>
<path d="M315.166 183.131L317.71 177.829" stroke="#263238" stroke-width="0.75" stroke-miterlimit="10"/>
<path d="M276.782 185.975L277.707 198.578" stroke="#263238" stroke-width="0.75" stroke-miterlimit="10"/>
<path d="M322.103 210.105L362.183 196.887" stroke="#263238" stroke-width="0.75" stroke-miterlimit="10"/>
<path d="M211.652 177.751C211.806 177.905 212.038 177.982 212.192 178.136C213.965 179.288 215.814 180.441 217.896 181.056C219.052 181.44 220.362 181.594 221.364 182.362C221.749 182.67 222.058 182.977 222.52 183.285C222.597 183.361 223.753 183.746 223.753 183.669C223.908 184.053 224.37 184.284 224.755 184.437C224.832 184.437 224.832 184.514 224.91 184.437C224.987 184.437 224.987 184.36 224.987 184.36C225.141 184.668 225.68 184.745 225.834 184.591C225.989 184.437 225.603 183.746 225.603 183.746C225.603 183.746 225.912 183.746 225.989 183.669C226.143 183.515 226.143 183.285 226.143 183.131C226.297 181.287 225.526 179.365 224.216 178.059" fill="#FFCBBD"/>
<path d="M224.447 181.594C224.447 181.671 224.447 181.748 224.447 181.825C224.447 181.902 224.524 181.978 224.524 182.055C224.601 182.209 224.678 182.363 224.678 182.516C224.755 182.67 224.832 182.824 224.909 182.978C224.986 183.131 225.063 183.285 225.14 183.439C225.218 183.592 225.372 183.515 225.372 183.362C225.372 183.208 225.295 183.054 225.218 182.901C225.14 182.747 225.063 182.593 224.986 182.44C224.909 182.286 224.832 182.132 224.755 181.979C224.678 181.902 224.678 181.825 224.601 181.748C224.524 181.671 224.524 181.671 224.447 181.594C224.524 181.517 224.447 181.517 224.447 181.594Z" fill="#F49C8E"/>
<path d="M222.52 181.594C222.829 181.979 223.214 182.363 223.599 182.67C223.753 182.824 223.908 183.054 224.062 183.208C224.139 183.285 224.216 183.439 224.293 183.516C224.37 183.592 224.447 183.746 224.524 183.823C224.601 183.9 224.755 183.9 224.678 183.746C224.678 183.592 224.601 183.516 224.524 183.362C224.447 183.285 224.37 183.131 224.293 183.054C224.139 182.824 223.985 182.67 223.753 182.44C223.368 182.055 222.983 181.748 222.597 181.364C222.52 181.441 222.443 181.517 222.52 181.594Z" fill="#F49C8E"/>
<path d="M210.111 318.923L196.391 179.596" stroke="#263238" stroke-miterlimit="10"/>
<path d="M263.448 318.923L249.728 179.596H196.391" stroke="#263238" stroke-miterlimit="10"/>
<path d="M236.008 318.923L249.728 179.596" stroke="#263238" stroke-miterlimit="10"/>
<path d="M182.671 318.923L196.391 179.596H249.728" stroke="#263238" stroke-miterlimit="10"/>
<path d="M261.212 299.173H184.675" stroke="#263238" stroke-miterlimit="10"/>
<path d="M259.44 282.113H186.294" stroke="#263238" stroke-miterlimit="10"/>
<path d="M258.052 264.591H188.067" stroke="#263238" stroke-miterlimit="10"/>
<path d="M256.357 247.915H189.686" stroke="#263238" stroke-miterlimit="10"/>
<path d="M254.738 230.394H191.304" stroke="#263238" stroke-miterlimit="10"/>
<path d="M253.042 213.103H193.077" stroke="#263238" stroke-miterlimit="10"/>
<path d="M251.038 196.811H194.695" stroke="#263238" stroke-miterlimit="10"/>
<path d="M208.646 179.212C214.118 179.212 219.591 179.212 225.063 179.212C224.524 178.289 224.215 177.675 223.676 177.137C222.982 176.445 222.366 175.984 221.672 175.6C219.128 174.293 216.277 173.602 213.425 173.602" fill="#FFCBBD"/>
<path d="M189.531 141.633C189.531 141.633 197.008 161.076 198.857 162.689C200.707 164.303 218.589 173.141 218.589 173.141L213.117 184.668C213.117 184.668 191.689 176.138 188.606 173.141C185.523 170.144 175.734 158.616 174.81 146.935" fill="#E23917"/>
<path d="M175.272 268.741L174.501 289.644L175.118 296.253H200.168C200.785 296.253 201.324 295.715 201.324 295.1C201.324 294.639 201.016 294.178 200.553 294.025L189.377 288.876L191.15 267.127" fill="#FFCBBD"/>
<path d="M202.48 295.946C202.249 295.1 201.709 294.178 201.247 293.948L189.454 288.799C182.903 291.412 174.501 289.337 174.501 289.337L173.808 298.251C173.808 298.559 174.039 298.789 174.347 298.789H202.326C202.788 298.789 202.48 296.023 202.48 295.946Z" fill="#F7471E"/>
<path d="M191.998 289.414C191.304 290.259 190.765 291.181 190.302 292.18" stroke="#B22B19" stroke-width="0.75" stroke-miterlimit="10"/>
<path d="M193.462 290.259C192.768 291.181 192.46 291.719 192.075 292.641" stroke="#B22B19" stroke-width="0.75" stroke-miterlimit="10"/>
<path d="M194.696 290.951C194.233 291.565 193.771 292.411 193.385 293.102" stroke="#B22B19" stroke-width="0.75" stroke-miterlimit="10"/>
<path d="M173.885 296.868H202.557" stroke="#B22B19" stroke-width="0.75" stroke-miterlimit="10"/>
<path d="M174.193 292.641C174.193 292.641 180.821 292.718 181.438 296.868" stroke="#B22B19" stroke-width="0.75" stroke-miterlimit="10"/>
<path d="M198.781 292.949C198.781 292.949 196.854 295.638 196.468 296.868" stroke="#B22B19" stroke-width="0.75" stroke-miterlimit="10"/>
<path d="M169.722 190.048C169.722 190.048 167.333 200.73 172.497 213.64C172.497 213.64 175.041 227.166 175.195 242.612C175.426 258.366 173.268 278.424 173.268 285.955H193.847C193.847 285.955 196.391 264.591 196.622 243.073C196.853 218.943 194.849 191.738 194.849 184.745" fill="#E0E0E0"/>
<path d="M190.841 285.955C190.841 285.955 193.385 264.207 193.616 242.458C193.847 218.558 191.843 191.738 191.843 184.822" stroke="#263238" stroke-width="0.75" stroke-miterlimit="10"/>
<path d="M210.111 251.681L209.34 272.584L209.956 279.193H235.006C235.623 279.193 236.162 278.655 236.162 278.04C236.162 277.579 235.854 277.118 235.392 276.964L224.216 271.815L225.988 250.067" fill="#FFCBBD"/>
<path d="M237.241 278.962C237.01 278.117 236.471 277.194 236.008 276.964L224.215 271.815C217.664 274.428 209.263 272.353 209.263 272.353L208.569 281.267C208.569 281.575 208.8 281.805 209.108 281.805H237.087C237.627 281.805 237.318 278.962 237.241 278.962Z" fill="#F7471E"/>
<path d="M226.759 272.353C226.065 273.198 225.526 274.121 225.063 275.12" stroke="#B22B19" stroke-width="0.75" stroke-miterlimit="10"/>
<path d="M228.3 273.275C227.607 274.198 227.298 274.736 226.913 275.658" stroke="#B22B19" stroke-width="0.75" stroke-miterlimit="10"/>
<path d="M229.533 273.89C229.071 274.505 228.609 275.35 228.223 276.042" stroke="#B22B19" stroke-width="0.75" stroke-miterlimit="10"/>
<path d="M208.723 279.884H237.396" stroke="#B22B19" stroke-width="0.75" stroke-miterlimit="10"/>
<path d="M209.031 275.658C209.031 275.658 215.66 275.735 216.276 279.884" stroke="#B22B19" stroke-width="0.75" stroke-miterlimit="10"/>
<path d="M233.619 275.888C233.619 275.888 231.692 278.578 231.307 279.807" stroke="#B22B19" stroke-width="0.75" stroke-miterlimit="10"/>
<path d="M204.407 191.2C204.407 191.2 224.216 209.875 228.686 222.094C231.769 230.547 227.299 269.356 227.299 269.356H207.567C207.567 269.356 209.957 234.082 208.723 230.47C207.259 226.167 190.302 211.565 190.302 211.565C190.302 211.565 183.057 209.951 179.665 202.267C176.582 195.35 178.047 186.974 178.047 186.974" fill="#E0E0E0"/>
<path d="M199.782 191.2C199.782 191.2 220.285 212.795 224.061 222.093C226.913 229.164 222.674 269.356 222.674 269.356" stroke="#263238" stroke-width="0.75" stroke-miterlimit="10"/>
<path d="M196.237 216.868C194.695 215.485 191.998 213.025 191.15 212.334C190.61 211.873 189.994 211.488 189.377 211.258C187.373 210.566 182.286 208.261 179.588 202.267" stroke="#263238" stroke-width="0.75" stroke-miterlimit="10"/>
<path d="M185.061 197.963C185.061 197.963 190.995 198.195 193.462 197.963" stroke="#263238" stroke-width="0.75" stroke-miterlimit="10"/>
<path d="M169.183 197.963H173.961" stroke="#263238" stroke-width="0.75" stroke-miterlimit="10"/>
<path d="M239.785 143.861C241.866 142.939 251.27 138.789 251.501 139.404C251.732 139.942 248.726 141.94 249.034 142.017C249.189 142.093 251.886 141.402 253.196 140.71C254.353 140.095 256.357 139.404 256.742 139.865C257.359 140.787 250.807 143.861 250.807 143.861C250.807 143.861 251.963 143.323 252.58 144.015C253.428 145.014 251.655 146.013 251.655 146.013C251.655 146.013 252.657 145.475 253.042 146.397C253.428 147.319 251.886 148.088 251.886 148.088C251.886 148.088 253.119 147.473 253.274 148.626C253.505 150.086 243.716 153.544 243.716 153.544" fill="#FFCBBD"/>
<path d="M192.075 134.332C192.075 134.332 190.071 135.869 186.988 135.331C183.828 134.793 183.057 133.256 183.057 133.256C183.057 133.256 174.733 134.409 170.647 160.153C167.796 178.212 168.798 192.891 168.798 192.891H206.951C206.951 192.891 208.107 153.621 206.18 146.32" fill="#F7471E"/>
<path d="M195.081 153.237C195.081 153.237 206.334 165.686 216.893 165.686C227.453 165.686 247.262 154.543 247.262 154.543L242.56 141.556L219.514 149.855C219.514 149.855 207.413 138.559 201.786 136.484C196.16 134.409 192.075 134.409 192.075 134.409" fill="#F7471E"/>
<path d="M207.182 162.843C207.182 162.843 200.091 157.463 196.699 154.927" stroke="#B22B19" stroke-width="0.75" stroke-miterlimit="10"/>
<path d="M240.325 142.401L244.641 155.926" stroke="#B22B19" stroke-width="0.75" stroke-miterlimit="10"/>
<path d="M168.644 189.817H207.028" stroke="#B22B19" stroke-width="0.75" stroke-miterlimit="10"/>
<path d="M200.476 157.771C200.861 168.683 200.476 192.967 200.476 192.967" stroke="#B22B19" stroke-width="0.75" stroke-miterlimit="10"/>
<path d="M183.211 127.723L182.363 134.64C182.363 134.64 189.069 138.175 193.539 134.409V130.336L183.211 127.723Z" fill="#FFCBBD"/>
<path d="M192.306 116.887C192.306 116.887 200.168 126.724 197.316 130.413C195.851 132.334 190.996 131.873 188.606 130.413C186.91 129.337 182.055 123.65 182.825 122.19C185.6 116.503 192.306 116.887 192.306 116.887Z" fill="#FFCBBD"/>
<path d="M191.304 118.655C191.458 122.651 190.919 126.263 190.919 126.263L190.302 139.25C190.302 139.25 179.974 140.326 173.345 135.792C173.345 135.792 175.58 122.113 180.513 118.04C185.215 114.121 191.304 114.428 194.464 116.964C194.464 116.964 194.002 118.117 193.462 118.424C192.846 118.578 191.304 118.655 191.304 118.655Z" fill="#4A1A1A"/>
<path d="M191.998 124.956C191.073 123.727 190.302 123.957 189.839 124.572C189.3 125.494 190.379 127.339 190.918 127.646C191.998 128.261 192.845 128.184 192.922 127.339" fill="#FFCBBD"/>
<path d="M193.616 131.565C192.46 131.565 192.152 130.643 192.152 130.643" stroke="#E88872" stroke-width="0.5" stroke-miterlimit="10" stroke-linejoin="round"/>
<path d="M194.387 121.882C194.696 122.19 195.004 122.651 194.85 123.035C194.773 123.112 194.696 123.189 194.619 123.189C193.848 123.035 193.694 121.268 194.387 121.882Z" fill="#28364C"/>
<path d="M194.31 120.499C193.539 120.499 193.077 121.114 192.846 121.652" stroke="#28364C" stroke-width="0.5" stroke-miterlimit="10" stroke-linecap="round"/>
<path d="M195.004 126.954L196.777 126.417C196.777 126.417 197.47 128.568 196.623 128.799C195.698 129.106 195.004 126.954 195.004 126.954Z" fill="white"/>
<path d="M185.446 115.658C186.14 115.504 186.603 114.735 186.603 114.044C186.603 113.352 186.14 112.661 185.446 112.353C184.83 112.046 184.059 111.969 183.365 112.199C183.134 112.276 182.826 112.353 182.595 112.507C181.67 113.199 181.747 114.582 182.363 115.504C182.595 115.888 182.98 116.196 183.442 116.272C183.905 116.349 184.83 116.196 185.292 115.888" fill="#4A1A1A"/>
<path d="M195.235 121.729C195.466 121.805 197.47 122.728 197.547 123.573C197.547 124.034 196.391 124.572 196.391 124.572" fill="#FFCBBD"/>
<path d="M222.366 177.598C223.599 178.905 223.984 180.211 224.524 181.287C224.524 181.364 224.601 181.364 224.601 181.441C224.601 181.671 224.216 181.671 223.984 181.594C223.445 181.364 222.982 181.133 222.52 180.749C222.366 180.595 222.212 180.442 221.98 180.365C221.595 180.134 221.21 180.134 220.824 180.057C219.206 179.827 217.51 179.058 216.662 177.598" fill="#FFCBBD"/>
<path d="M222.366 177.598C223.214 178.367 223.83 179.366 224.293 180.442L224.678 181.21C224.678 181.287 224.755 181.364 224.755 181.517C224.755 181.671 224.601 181.748 224.524 181.825C224.293 181.902 224.139 181.902 223.985 181.825C223.445 181.594 222.905 181.287 222.443 180.903C222.212 180.672 222.058 180.518 221.826 180.442C221.595 180.365 221.287 180.288 221.056 180.288C220.516 180.211 219.899 180.057 219.36 179.904C218.281 179.443 217.279 178.674 216.816 177.675C217.433 178.674 218.435 179.289 219.514 179.673C220.054 179.827 220.593 179.98 221.133 180.057C221.441 180.057 221.749 180.134 222.058 180.211C222.366 180.288 222.597 180.518 222.828 180.749C223.214 181.133 223.753 181.441 224.216 181.594C224.293 181.594 224.447 181.671 224.524 181.594V181.517C224.37 181.287 224.293 180.979 224.216 180.749C223.599 179.519 223.137 178.52 222.366 177.598Z" fill="#E88872"/>
<path d="M43.7025 286.262L43.0088 308.164L43.7025 315.081L69.9085 314.927C70.6022 314.927 71.1418 314.389 71.0647 313.697C71.0647 313.236 70.7564 312.775 70.2939 312.622L58.5783 307.242L60.351 284.418" fill="#FFCBBD"/>
<path d="M72.3748 314.696C72.0664 313.851 71.604 312.852 71.0644 312.621L58.6551 307.319C51.7953 310.085 42.9315 307.934 42.9315 307.934L42.2378 317.232C42.2378 317.54 42.469 317.77 42.7773 317.77L72.0664 317.617C72.7601 317.693 72.3748 314.696 72.3748 314.696Z" fill="#263238"/>
<path d="M61.3528 307.857C60.6591 308.779 60.0425 309.778 59.5801 310.777" stroke="#5565AA" stroke-width="0.75" stroke-miterlimit="10"/>
<path d="M62.8941 308.779C62.2005 309.778 61.8921 310.316 61.4297 311.238" stroke="#5565AA" stroke-width="0.75" stroke-miterlimit="10"/>
<path d="M64.2048 309.471C63.7424 310.162 63.2028 311.008 62.8945 311.776" stroke="#5565AA" stroke-width="0.75" stroke-miterlimit="10"/>
<path d="M42.3921 315.773L72.452 315.619" stroke="#5565AA" stroke-width="0.75" stroke-miterlimit="10"/>
<path d="M42.7002 311.392C42.7002 311.392 49.6371 311.469 50.2537 315.772" stroke="#5565AA" stroke-width="0.75" stroke-miterlimit="10"/>
<path d="M68.5207 311.545C68.5207 311.545 66.5167 314.389 66.1313 315.695" stroke="#5565AA" stroke-width="0.75" stroke-miterlimit="10"/>
<path d="M46.1688 207.799C46.1688 207.799 60.1197 233.851 64.513 250.22C68.9064 266.589 63.0486 303.476 63.0486 303.476H41.39C41.39 303.476 45.7063 263.438 40.6193 250.22C35.5322 237.002 17.188 202.189 17.188 202.189" fill="#E0E0E0"/>
<path d="M44.3188 303.476C44.3188 303.476 47.8643 261.824 45.7062 251.527C43.548 241.229 28.5181 217.252 28.5181 217.252" stroke="#263238" stroke-width="0.75" stroke-miterlimit="10"/>
<path d="M18.8837 274.12L6.0119 291.719L2.54346 297.713L23.8166 313.006C24.3561 313.39 25.1269 313.236 25.5123 312.698C25.8206 312.314 25.8206 311.776 25.5123 311.315L19.2691 300.172L33.4512 281.728" fill="#FFCBBD"/>
<path d="M25.9747 314.158C26.283 313.313 26.4371 312.237 26.1288 311.699L19.269 300.095C12.1009 298.328 6.16597 291.411 6.16597 291.411L0.153991 298.558C-0.000162646 298.789 -0.000162646 299.173 0.308144 299.327L24.1248 316.387C24.5102 316.771 25.8976 314.158 25.9747 314.158Z" fill="#263238"/>
<path d="M21.042 302.093C19.9629 302.401 18.8838 302.862 17.8818 303.4" stroke="#5565AA" stroke-width="0.75" stroke-miterlimit="10"/>
<path d="M21.8125 303.784C20.6564 304.168 20.0397 304.475 19.1919 304.936" stroke="#5565AA" stroke-width="0.75" stroke-miterlimit="10"/>
<path d="M22.4293 305.09C21.6586 305.321 20.7337 305.782 19.9629 306.166" stroke="#5565AA" stroke-width="0.75" stroke-miterlimit="10"/>
<path d="M1.0791 297.482L25.5124 315.004" stroke="#5565AA" stroke-width="0.75" stroke-miterlimit="10"/>
<path d="M3.93066 294.024C3.93066 294.024 9.55726 298.174 7.47619 302.016" stroke="#5565AA" stroke-width="0.75" stroke-miterlimit="10"/>
<path d="M24.6644 309.317C24.6644 309.317 21.3501 310.47 20.271 311.238" stroke="#5565AA" stroke-width="0.75" stroke-miterlimit="10"/>
<path d="M11.407 202.189C7.24484 213.87 11.407 223.016 11.407 223.016C11.407 223.016 25.512 248.683 25.512 253.909C25.512 258.673 7.47607 285.955 7.47607 285.955L23.9705 299.173C23.9705 299.173 49.9453 271.354 49.4058 252.064C48.7891 228.241 35.7632 202.189 35.7632 202.189" fill="#E0E0E0"/>
<path d="M14.4902 202.958C10.3281 214.639 15.3381 222.478 15.3381 222.478C15.3381 222.478 28.5953 249.452 28.5953 254.677C28.5953 259.442 9.78857 287.876 9.78857 287.876" stroke="#263238" stroke-width="0.75" stroke-miterlimit="10"/>
<path d="M42.8542 273.198C46.7081 266.128 49.5599 258.597 49.4057 252.064C48.7891 228.241 35.7632 202.189 35.7632 202.189" stroke="#263238" stroke-width="0.75" stroke-miterlimit="10"/>
<path d="M13.103 212.103C13.103 212.103 20.5024 212.564 23.3542 206.646" stroke="#263238" stroke-width="0.75" stroke-miterlimit="10"/>
<path d="M41.3901 215.484C41.3901 215.484 43.3941 215.715 43.24 214.716C43.0858 213.717 41.3901 208.337 41.3901 208.337" stroke="#263238" stroke-width="0.75" stroke-miterlimit="10"/>
<path fill-rule="evenodd" clip-rule="evenodd" d="M50.7166 140.249C51.4874 144.937 50.8708 149.087 46.8628 149.702C42.8548 150.317 37.2282 149.164 36.1492 142.478C35.3784 137.79 38.0761 133.487 42.0841 132.795C46.092 132.257 50.023 135.562 50.7166 140.249Z" fill="#FFCBBB"/>
<path d="M47.479 140.326C47.4019 140.787 47.479 141.325 47.8644 141.556C47.9415 141.633 48.0956 141.556 48.1727 141.479C48.7122 140.864 47.6332 139.404 47.479 140.326Z" fill="#28364C"/>
<path d="M46.1689 139.25C47.1709 138.713 48.0959 138.789 48.9437 139.097" stroke="#28364C" stroke-width="0.5" stroke-miterlimit="10" stroke-linecap="round" stroke-linejoin="round"/>
<path d="M50.0998 145.168H47.4792C47.4792 145.168 47.3251 147.32 48.6354 147.55C49.7144 147.781 50.0998 145.168 50.0998 145.168Z" fill="white"/>
<path fill-rule="evenodd" clip-rule="evenodd" d="M44.7045 154.928C44.7045 154.928 41.5444 155.466 38.6155 154.697C35.147 153.775 34.145 152.315 34.145 152.315L39.0008 142.248L46.4773 145.629L44.7045 154.928Z" fill="#FFCBBB"/>
<path d="M45.6292 149.856C45.6292 149.856 42.392 149.932 40.6963 148.396" stroke="#EF977F" stroke-miterlimit="10"/>
<path fill-rule="evenodd" clip-rule="evenodd" d="M49.8687 140.096C49.8687 140.096 51.8726 143.016 51.7956 143.554C51.7185 144.092 50.254 144.322 50.254 144.322" fill="#FFCBBB"/>
<path d="M39.0778 146.782C38.6154 146.935 38.0759 147.012 37.6905 147.089C36.7656 147.166 35.7636 147.089 34.9157 146.628C33.3742 145.783 32.3722 144.015 32.7576 142.248C32.8346 141.94 32.9117 141.71 32.9117 141.402C33.143 140.096 32.3722 138.866 32.141 137.483C31.9097 136.176 32.2951 134.87 32.9888 133.794C33.6825 132.718 34.7616 131.95 35.9948 131.489C36.9968 131.104 37.9988 130.951 38.8466 130.259C39.232 129.952 39.5403 129.567 40.0028 129.337C42.0068 128.107 44.8586 128.799 46.6314 130.105C46.8626 130.259 47.0938 130.413 47.325 130.49C47.7875 130.643 48.25 130.413 48.6353 130.49C50.331 130.797 51.1018 133.333 51.1018 134.87C51.1018 135.331 50.9477 135.792 50.7164 136.1C50.331 136.638 49.6373 136.868 49.0207 136.945C48.0958 137.022 47.1709 136.868 46.3231 137.175C45.7064 137.329 45.1669 137.79 44.5503 138.021C43.6254 138.405 42.5463 138.328 41.6985 137.944C41.8526 138.559 42.0068 139.25 41.9297 139.865C41.7755 141.095 40.6965 141.633 39.6174 141.94C40.0028 143.17 40.234 144.707 39.9257 145.936C39.6945 146.32 39.3862 146.628 39.0778 146.782Z" fill="#14122D"/>
<path d="M40.5424 141.018C40.5424 141.018 39.6175 139.865 38.4614 140.787C36.9969 142.017 38.9238 144.63 40.08 145.014C41.2361 145.475 41.5444 144.169 41.5444 144.169" fill="#FFCBBB"/>
<path d="M95.2667 192.199C96.8083 190.893 98.1956 189.433 99.4289 187.742C100.662 186.051 101.664 184.284 102.435 182.439L97.579 179.827C98.2727 178.136 98.6581 176.368 98.8893 174.524H104.439C104.747 170.451 104.131 166.378 102.666 162.612L97.3478 164.226C96.6541 162.536 95.7292 160.999 94.573 159.539L98.5039 155.619C97.1936 154.082 95.7292 152.699 94.0335 151.469C92.3378 150.24 90.565 149.241 88.7152 148.472L86.0946 153.314C84.3989 152.622 82.6262 152.238 80.7763 152.007V146.474C76.6913 146.167 72.6062 146.782 68.8294 148.242L70.4481 153.544C68.7524 154.236 67.2108 155.158 65.7464 156.311L61.8155 152.392C60.2739 153.698 58.8866 155.158 57.6533 156.849C56.4201 158.539 55.4181 160.307 54.6473 162.151L59.5032 164.764C58.8095 166.455 58.4241 168.222 58.1929 170.067H52.6434C52.335 174.14 52.9517 178.213 54.4161 181.978L59.7344 180.365C60.4281 182.055 61.353 183.592 62.5092 185.052L58.5783 188.972C59.8886 190.509 61.353 191.892 63.0487 193.121C64.7444 194.351 66.5171 195.35 68.367 196.119L70.9876 191.277C72.6833 191.969 74.456 192.353 76.3059 192.584V198.117C80.3909 198.424 84.476 197.809 88.2528 196.349L86.6341 191.047C88.3298 190.355 89.8714 189.433 91.3358 188.28L95.2667 192.199ZM72.7604 180.288C68.4441 177.06 67.5191 170.989 70.6793 166.609C73.9165 162.305 80.0056 161.383 84.3989 164.534C88.7152 167.761 89.6401 173.832 86.48 178.213C83.2428 182.593 77.0766 183.515 72.7604 180.288Z" fill="#E0E0E0"/>
<path d="M80.0826 191.046C82.3178 191.277 92.569 192.276 92.492 192.891C92.4149 193.506 88.9464 193.659 89.1006 193.967C89.2547 194.428 91.8753 194.812 93.3398 194.889C94.6501 194.966 96.8082 195.273 96.8082 195.888C96.8853 196.964 89.6401 196.503 89.6401 196.503C89.6401 196.81 97.5019 195.58 97.6561 196.503C97.8873 197.809 89.486 198.501 89.2547 198.808C89.2547 198.808 96.3458 196.272 96.577 197.194C96.7312 198.193 90.488 200.653 88.4069 200.653C90.0255 200.345 94.8813 197.579 95.0355 198.27C95.1896 198.962 90.8733 200.806 90.1797 200.96C84.476 201.882 78.6182 201.344 78.6182 201.344" fill="#FFCBBD"/>
<path d="M44.8584 154.236C44.8584 154.236 42.6232 155.312 39.3089 153.852C35.6863 152.315 34.9155 150.47 34.9155 150.47C34.9155 150.47 15.338 152.238 8.16992 206.416L48.3268 211.411C48.3268 211.411 51.5641 192.045 51.0245 176.368C50.7162 166.378 46.8624 158.616 44.8584 154.236Z" fill="#263238"/>
<path d="M33.0654 175.984C33.0654 175.984 39.2316 196.58 55.9572 201.037C70.833 205.033 82.3945 204.956 82.3945 204.956L84.0131 191.047C84.0131 191.047 65.823 187.819 58.3466 182.901C52.6429 179.135 51.5638 167.147 50.0994 162.843C48.0954 156.926 44.8582 154.159 44.8582 154.159" fill="#263238"/>
<path d="M33.374 150.932C33.374 150.932 34.6072 154.697 40.3109 155.927C44.4731 156.849 46.0917 155.619 46.0917 155.619" stroke="#121649" stroke-width="0.75" stroke-miterlimit="10"/>
<path d="M49.406 198.731C49.406 198.731 34.2219 191.738 33.374 171.911" stroke="#121649" stroke-width="0.75" stroke-miterlimit="10"/>
<path d="M80.6221 190.432L78.541 204.879" stroke="#121649" stroke-width="0.75" stroke-miterlimit="10"/>
</g>
<defs>
<clipPath id="clip0_960_2456">
<rect width="502" height="319" fill="white"/>
</clipPath>
</defs>
</svg>
