<svg width="221" height="325" viewBox="0 0 221 325" fill="none" xmlns="http://www.w3.org/2000/svg">
<g clip-path="url(#clip0_2660_1356)">
<path d="M216.08 233.24L218.44 234.61C218.514 234.24 218.567 233.866 218.6 233.49C218.645 232.924 218.645 232.356 218.6 231.79L216.08 233.24Z" fill="#C2C7CC"/>
<path d="M211.37 221.26C210.911 220.405 210.393 219.583 209.82 218.8L209.03 218.35L205.34 220.48L209.03 222.61L211.37 221.26Z" fill="#C2C7CC"/>
<path d="M207.91 244.53C208.44 244.42 208.91 244.29 209.48 244.13L209.03 243.88L207.91 244.53Z" fill="#C2C7CC"/>
<path d="M198.63 209.67C197.32 208.98 195.98 208.33 194.63 207.67L198.32 209.8L198.63 209.67Z" fill="#C2C7CC"/>
<path d="M201.98 220.48L198.28 218.35L194.59 220.48L198.28 222.61L201.98 220.48Z" fill="#C2C7CC"/>
<path d="M206.19 214.77C205.211 213.88 204.176 213.055 203.09 212.3L199.96 214.1L203.66 216.23L206.19 214.77Z" fill="#C2C7CC"/>
<path d="M192.91 216.23L196.6 214.1L192.91 211.97L189.21 214.1L192.91 216.23Z" fill="#C2C7CC"/>
<path d="M201.98 233.25L198.28 231.11L194.59 233.25L198.28 235.38L201.98 233.25Z" fill="#C2C7CC"/>
<path d="M192.91 229L196.6 226.86L192.91 224.73L189.21 226.86L192.91 229Z" fill="#C2C7CC"/>
<path d="M192.91 237.49L189.21 239.63L192.21 241.38L192.91 241.74L196.56 239.63L192.91 237.49Z" fill="#C2C7CC"/>
<path d="M191.23 207.72L187.53 205.59L183.84 207.72L187.53 209.85L191.23 207.72Z" fill="#C2C7CC"/>
<path d="M191.23 220.48L187.53 218.35L183.84 220.48L187.53 222.61L191.23 220.48Z" fill="#C2C7CC"/>
<path d="M187.53 231.11L183.84 233.25L187.53 235.38L191.23 233.25L187.53 231.11Z" fill="#C2C7CC"/>
<path d="M180.48 207.72L176.79 205.59L173.09 207.72L176.79 209.85L180.48 207.72Z" fill="#C2C7CC"/>
<path d="M183.12 202.91L182.12 202.56C181.05 202.2 179.97 201.88 178.87 201.56L182.16 203.46L183.12 202.91Z" fill="#C2C7CC"/>
<path d="M180.48 220.48L176.79 218.35L173.09 220.48L176.79 222.61L180.48 220.48Z" fill="#C2C7CC"/>
<path d="M185.85 214.1L182.16 211.97L178.47 214.1L182.16 216.23L185.85 214.1Z" fill="#C2C7CC"/>
<path d="M175.95 231.59C176.02 231.647 176.097 231.694 176.18 231.73C176.82 232.02 177.46 232.31 178.08 232.63C178.7 232.95 179.28 233.26 179.86 233.63L180.48 233.27L176.79 231.14L175.95 231.59Z" fill="#C2C7CC"/>
<path d="M185.85 226.86L182.16 224.73L178.47 226.86L182.16 229L185.85 226.86Z" fill="#C2C7CC"/>
<path d="M169.73 207.72L166.04 205.59L162.34 207.72L166.04 209.85L169.73 207.72Z" fill="#C2C7CC"/>
<path d="M175.11 201.34L173.34 200.34C172.34 200.16 171.28 200 170.24 199.9L167.72 201.36L171.41 203.49L175.11 201.34Z" fill="#C2C7CC"/>
<path d="M166.04 218.35L162.34 220.48L166.04 222.61L169.73 220.48L166.04 218.35Z" fill="#C2C7CC"/>
<path d="M175.11 214.1L171.41 211.97L167.72 214.1L171.41 216.23L175.11 214.1Z" fill="#C2C7CC"/>
<path d="M167.72 226.86L171.41 229L175.11 226.86L171.41 224.73L167.72 226.86Z" fill="#C2C7CC"/>
<path d="M155.29 209.85L158.99 207.72L155.29 205.59L151.6 207.72L155.29 209.85Z" fill="#C2C7CC"/>
<path d="M160.66 203.47L164.36 201.34L161.91 199.92C160.74 200.06 159.58 200.23 158.45 200.48L156.97 201.34L160.66 203.47Z" fill="#C2C7CC"/>
<path d="M160.66 224.73L158.93 225.73C160.397 226.35 161.883 226.913 163.39 227.42L164.39 226.86L160.66 224.73Z" fill="#C2C7CC"/>
<path d="M155.29 218.35L151.6 220.48L155.29 222.61L158.99 220.48L155.29 218.35Z" fill="#C2C7CC"/>
<path d="M164.36 214.1L160.66 211.97L156.97 214.1L160.66 216.23L164.36 214.1Z" fill="#C2C7CC"/>
<path d="M148.24 207.72L147.87 207.51C147.77 207.7 147.68 207.9 147.58 208.09L148.24 207.72Z" fill="#C2C7CC"/>
<path d="M149.92 211.97L146.7 213.82C146.7 214.03 146.78 214.24 146.83 214.45L149.92 216.23L153.61 214.1L149.92 211.97Z" fill="#C2C7CC"/>
<path d="M210.71 239.67L214.21 241.67C215.196 240.873 216.053 239.929 216.75 238.87L214.41 237.51L210.71 239.67Z" fill="#C2C7CC"/>
<path d="M212.73 233.24L209.03 231.11L205.34 233.24L209.03 235.38L212.73 233.24ZM208.46 232.71L208.37 232.84L208.27 232.94L208.37 232.82C208.387 232.699 208.448 232.589 208.54 232.51V232.7L208.46 232.71ZM208.46 232.52C208.43 232.448 208.42 232.369 208.43 232.292C208.441 232.214 208.472 232.141 208.52 232.08C208.52 232.08 208.52 232.17 208.52 232.22L208.46 232.52Z" fill="#C2C7CC"/>
<path d="M208.33 232.87L208.42 232.77L208.3 232.89L208.33 232.87Z" fill="#C2C7CC"/>
<path d="M199.96 239.63L203.66 241.76L207.35 239.63L203.66 237.49L199.96 239.63Z" fill="#C2C7CC"/>
<path d="M217.35 227.29C217.14 226.854 216.907 226.43 216.65 226.02L214.41 224.73L210.71 226.86L214.41 229L217.35 227.29Z" fill="#C2C7CC"/>
<path d="M207.35 226.86L203.66 224.73L199.96 226.86L203.66 229L207.35 226.86Z" fill="#C2C7CC"/>
<path d="M71.3801 310.76C71.0741 309.992 70.6778 309.264 70.2 308.59C70.05 308.36 69.88 308.14 69.71 307.92L69.3101 307.69L65.6101 309.83L69.3101 311.96L71.3801 310.76Z" fill="#C2C7CC"/>
<path d="M65.6101 322.59L68.1001 324.03C69.0248 323.182 69.8138 322.197 70.4399 321.11L69.3101 320.46L65.6101 322.59Z" fill="#C2C7CC"/>
<path d="M71.97 316.78C72.0407 316.376 72.0876 315.969 72.1101 315.56L70.98 316.21L71.97 316.78Z" fill="#C2C7CC"/>
<path d="M54.8601 322.59L58.5601 324.72L62.2501 322.59L58.5601 320.46L54.8601 322.59Z" fill="#C2C7CC"/>
<path d="M51.55 297.06L50.6702 296.55C49.6002 296.07 48.5199 295.61 47.4399 295.17L44.1602 297.06L47.8601 299.2L51.55 297.06Z" fill="#C2C7CC"/>
<path d="M40.7601 297.06L37.0601 294.93L33.3701 297.06L37.0601 299.19L40.7601 297.06Z" fill="#C2C7CC"/>
<path d="M30.0101 297.06L26.3101 294.93L22.6201 297.06L26.3101 299.19L30.0101 297.06Z" fill="#C2C7CC"/>
<path d="M34.6201 291.12C32.7801 290.7 30.92 290.367 29.04 290.12L28.04 290.73L31.74 292.86L34.6201 291.12Z" fill="#C2C7CC"/>
<path d="M30.0101 309.83L26.3101 307.69L22.6201 309.83L26.3101 311.96L30.0101 309.83Z" fill="#C2C7CC"/>
<path d="M24.6501 321.41C25.5201 321.77 28.45 322.91 29.05 323.14L30.05 322.59L26.3501 320.46L24.6501 321.41Z" fill="#C2C7CC"/>
<path d="M19.2601 297.06L15.5601 294.93L11.8701 297.06L15.5601 299.19L19.2601 297.06Z" fill="#C2C7CC"/>
<path d="M24.6301 290.67L22.22 289.28C21.45 289.21 20.6899 289.16 19.9299 289.12L17.24 290.67L20.9399 292.8L24.6301 290.67Z" fill="#C2C7CC"/>
<path d="M15.5601 307.69L11.8701 309.83L15.5601 311.96L19.2601 309.83L15.5601 307.69Z" fill="#C2C7CC"/>
<path d="M24.63 303.44L20.94 301.31L17.24 303.44L20.94 305.58L24.63 303.44Z" fill="#C2C7CC"/>
<path d="M17.24 316.21L20.94 318.34L24.63 316.21L20.94 314.07L17.24 316.21Z" fill="#C2C7CC"/>
<path d="M10.19 301.31L6.5 303.44L10.19 305.58L13.88 303.44L10.19 301.31Z" fill="#C2C7CC"/>
<path d="M4.82012 299.19L8.51012 297.06L4.82012 294.93L1.12012 297.06L4.82012 299.19Z" fill="#C2C7CC"/>
<path d="M13.8901 290.67L11.3601 289.21C10.248 289.316 9.145 289.503 8.06006 289.77L6.5 290.67L10.1899 292.8L13.8901 290.67Z" fill="#C2C7CC"/>
<path d="M4.05005 308.13C4.91558 309.074 5.83017 309.972 6.79004 310.82L8.51001 309.82L4.82007 307.68L4.05005 308.13Z" fill="#C2C7CC"/>
<path d="M0 301.67C0.06 301.87 0.119941 302.06 0.189941 302.26C0.502259 303.048 0.876889 303.811 1.31006 304.54L3.14014 303.48L0 301.67Z" fill="#C2C7CC"/>
<path d="M67.6301 316.21L63.9299 314.07L62.9299 314.62C62.9346 314.68 62.9346 314.74 62.9299 314.8C62.9228 314.754 62.9228 314.706 62.9299 314.66L60.25 316.21L63.9399 318.34L67.6301 316.21Z" fill="#C2C7CC"/>
<path d="M62.2501 309.83L58.5601 307.69L54.8601 309.83L58.5601 311.96L62.2501 309.83Z" fill="#C2C7CC"/>
<path d="M64.1799 304.45C63.3699 303.81 62.5202 303.21 61.6602 302.62L60.24 303.44L63.9299 305.58L65.52 304.66L65.3501 304.6C64.1401 304.43 63.87 304.39 64.54 304.5C65.01 304.57 64.94 304.56 64.3 304.5L64.1799 304.45Z" fill="#C2C7CC"/>
<path d="M51.5001 309.83L47.8101 307.69L44.1101 309.83L47.8101 311.96L51.5001 309.83Z" fill="#C2C7CC"/>
<path d="M56.88 303.44L53.18 301.31L49.49 303.44L53.18 305.58L56.88 303.44Z" fill="#C2C7CC"/>
<path d="M47.8101 320.46L44.1101 322.59L47.8101 324.72L51.5001 322.59L47.8101 320.46Z" fill="#C2C7CC"/>
<path d="M56.88 316.21L53.18 314.07L49.49 316.21L53.18 318.34L56.88 316.21Z" fill="#C2C7CC"/>
<path d="M40.7601 309.83L37.0601 307.69L33.3701 309.83L37.0601 311.96L40.7601 309.83Z" fill="#C2C7CC"/>
<path d="M46.13 303.44L42.44 301.31L38.74 303.44L42.44 305.58L46.13 303.44Z" fill="#C2C7CC"/>
<path d="M35.38 303.44L31.69 301.31L27.99 303.44L31.69 305.58L35.38 303.44Z" fill="#C2C7CC"/>
<path d="M33.3701 322.59L37.0601 324.72L40.7601 322.59L37.0601 320.46L33.3701 322.59Z" fill="#C2C7CC"/>
<path d="M31.69 314.07L27.99 316.21L31.69 318.34L35.38 316.21L31.69 314.07Z" fill="#C2C7CC"/>
<path d="M46.1301 316.21L42.4399 314.07L38.74 316.21L42.4399 318.34L46.1301 316.21ZM41.29 315.94L42.45 316.69L41.01 316.22C41.1 316.13 41.2 316.04 41.29 315.94Z" fill="#C2C7CC"/>
<path d="M28.1602 271.26L50.8601 284.37C56.3501 287.54 65.7 284.3 65.55 279.98C65.39 277.23 67.13 274.45 70.77 272.36C77.77 268.36 89.05 268.36 96.02 272.36C99.51 274.36 101.25 277 101.25 279.64V295.23C101.25 297.87 99.51 300.51 96.02 302.52C93.2718 304.025 90.2549 304.977 87.1401 305.32L111.41 319.32L146.88 298.84C152.37 295.67 161.72 298.91 161.57 303.22C161.41 305.98 163.16 308.76 166.79 310.86C173.46 314.71 184.08 314.86 191.09 311.37C187.256 309.576 183.051 308.716 178.82 308.86C173.44 308.92 169.02 306.14 169.02 303.4V287.8C169.02 286.73 169.69 285.67 171.23 284.8L194.66 271.27L171.97 258.17C166.47 254.99 157.12 258.23 157.27 262.55C157.43 265.3 155.69 268.08 152.05 270.18C145.05 274.18 133.77 274.18 126.8 270.18C123.32 268.18 121.57 265.53 121.57 262.9V247.3C121.57 244.66 123.31 242.03 126.8 240.01C129.549 238.508 132.566 237.56 135.68 237.22L111.41 223.22L74.48 244.54C68.98 247.72 59.63 244.48 59.78 240.16C59.94 237.41 58.2001 234.63 54.5601 232.53C47.8901 228.68 37.27 228.53 30.26 232.02C34.0946 233.813 38.2993 234.673 42.53 234.53C47.92 234.46 52.3301 237.24 52.3301 239.99V255.58C52.3301 256.65 51.6601 257.72 50.1201 258.58L28.1602 271.26Z" fill="#C2C7CC"/>
<path d="M169.02 287.81V303.41C169.02 306.15 173.44 308.93 178.82 308.87C183.051 308.726 187.256 309.586 191.09 311.38L192.04 310.87C199.04 306.87 199.04 300.31 192.04 296.29C187.975 294.143 183.414 293.108 178.82 293.29C173.44 293.34 169.02 290.56 169.02 287.81Z" fill="#3A3A3A"/>
<path d="M82.8001 289.94C75.3201 289.86 69.71 295.26 75.21 298.43L87.1402 305.32C90.2549 304.977 93.2718 304.025 96.0201 302.52C99.5101 300.52 101.25 297.87 101.25 295.23V279.67C101.25 282.31 99.5101 284.95 96.0201 286.96C91.9526 289.1 87.3923 290.128 82.8001 289.94Z" fill="#3A3A3A"/>
<path d="M14.6602 263.47L28.1602 271.26L50.1602 258.58C51.7002 257.7 52.3701 256.58 52.3701 255.58V239.97C52.3701 241.04 51.7002 242.1 50.1602 242.97L14.6602 263.47Z" fill="#3A3A3A"/>
<path d="M29.3101 216.92C22.3101 220.92 22.3101 227.47 29.3101 231.49C29.6201 231.67 29.93 231.84 30.26 232C37.26 228.49 47.8901 228.66 54.5601 232.51C58.2001 234.61 59.94 237.39 59.78 240.14C59.63 244.46 68.98 247.7 74.48 244.52L111.41 223.2V207.61L74.48 228.93C68.98 232.11 59.63 228.87 59.78 224.55C59.94 221.8 58.2001 219.02 54.5601 216.92C47.5501 212.89 36.2801 212.89 29.3101 216.92Z" fill="#3A3A3A"/>
<path d="M111.41 207.61V223.2L135.68 237.2C137.12 237.027 138.57 236.953 140.02 236.98C147.5 237.07 153.11 231.67 147.61 228.5L111.41 207.61Z" fill="#3A3A3A"/>
<path d="M121.55 247.29V262.89C121.55 265.52 123.3 268.16 126.78 270.17C133.78 274.17 145.06 274.17 152.03 270.17C155.67 268.07 157.41 265.29 157.25 262.54C157.1 258.22 166.45 254.98 171.95 258.16L194.64 271.26L208.15 263.47L171.95 242.57C166.45 239.39 157.1 242.63 157.25 246.95C157.41 249.7 155.67 252.48 152.03 254.58C145.03 258.58 133.75 258.58 126.78 254.58C123.31 252.57 121.55 249.93 121.55 247.29Z" fill="#3A3A3A"/>
<path d="M121.55 247.29C121.55 244.65 123.29 242.02 126.78 240C129.529 238.498 132.546 237.55 135.66 237.21C137.1 237.037 138.55 236.963 140 236.99C147.48 237.08 153.09 231.68 147.59 228.51L111.39 207.61L74.46 228.93C68.96 232.11 59.61 228.87 59.76 224.55C59.92 221.8 58.18 219.02 54.54 216.92C47.54 212.92 36.26 212.92 29.29 216.92C22.32 220.92 22.29 227.47 29.29 231.49C29.6 231.67 29.91 231.84 30.24 232C34.0767 233.787 38.2798 234.647 42.51 234.51C47.9 234.44 52.3101 237.22 52.3101 239.97C52.3101 241.04 51.6401 242.1 50.1001 242.97L14.6401 263.45" stroke="#3A3A3A" stroke-width="3" stroke-linecap="round" stroke-linejoin="round"/>
<path d="M208.17 263.47L171.97 242.57C166.47 239.39 157.12 242.63 157.27 246.95C157.43 249.7 155.69 252.48 152.05 254.58C145.05 258.58 133.77 258.58 126.8 254.58C123.31 252.58 121.57 249.93 121.57 247.29" stroke="#3A3A3A" stroke-width="3" stroke-linecap="round" stroke-linejoin="round"/>
<path d="M191.09 311.38L192.04 310.87C199.04 306.87 199.04 300.31 192.04 296.29C187.975 294.143 183.414 293.108 178.82 293.29C173.44 293.35 169.02 290.57 169.02 287.82C169.02 286.75 169.69 285.69 171.23 284.82L208.17 263.5" stroke="#3A3A3A" stroke-width="3" stroke-linecap="round" stroke-linejoin="round"/>
<path d="M14.6602 263.47L50.8601 284.37C56.3501 287.54 65.7 284.3 65.55 279.98C65.39 277.23 67.13 274.45 70.77 272.36C77.77 268.36 89.05 268.36 96.02 272.36C99.51 274.36 101.25 277 101.25 279.64C101.25 282.28 99.51 284.92 96.02 286.93C91.9545 289.077 87.394 290.112 82.8 289.93C75.32 289.85 69.71 295.25 75.21 298.42L111.41 319.32L146.88 298.84C152.37 295.67 161.72 298.91 161.57 303.22C161.41 305.98 163.16 308.76 166.79 310.86C173.46 314.71 184.08 314.86 191.09 311.37" stroke="#3A3A3A" stroke-width="3" stroke-linecap="round" stroke-linejoin="round"/>
<path d="M135.68 237.21L111.41 223.21L74.48 244.53C68.98 247.71 59.63 244.47 59.78 240.15C59.94 237.4 58.2001 234.62 54.5601 232.52C47.8901 228.67 37.27 228.52 30.26 232.01" stroke="#3A3A3A" stroke-width="3" stroke-linecap="round" stroke-linejoin="round"/>
<path d="M52.3301 239.97V255.56C52.3301 256.63 51.6601 257.7 50.1201 258.56L28.1201 271.24" stroke="#3A3A3A" stroke-width="3" stroke-linecap="round" stroke-linejoin="round"/>
<path d="M101.25 279.67V295.26C101.25 297.9 99.51 300.54 96.02 302.55C93.2718 304.056 90.2549 305.007 87.1401 305.35" stroke="#3A3A3A" stroke-width="3" stroke-linecap="round" stroke-linejoin="round"/>
<path d="M169.02 287.81V303.41C169.02 306.15 173.44 308.93 178.82 308.87C183.051 308.726 187.256 309.586 191.09 311.38" stroke="#3A3A3A" stroke-width="3" stroke-linecap="round" stroke-linejoin="round"/>
<path d="M121.55 247.29V262.89C121.55 265.52 123.3 268.16 126.78 270.17C133.78 274.17 145.06 274.17 152.03 270.17C155.67 268.07 157.41 265.29 157.25 262.54C157.1 258.22 166.45 254.98 171.95 258.16L194.64 271.26" stroke="#3A3A3A" stroke-width="3" stroke-linecap="round" stroke-linejoin="round"/>
<path d="M111.41 223.2V207.61" stroke="#3A3A3A" stroke-width="3" stroke-linecap="round" stroke-linejoin="round"/>
<path d="M167.91 118.15C167.91 129.66 171.78 137.06 173.25 147.22C173.25 147.22 174.15 161.54 174.94 174.02L173.26 199.73C173.52 200.12 173.78 200.5 174.04 200.86C175.475 202.996 177.449 204.714 179.761 205.842C182.074 206.969 184.644 207.465 187.21 207.28C187.93 207.28 188.67 207.23 189.43 207.13C188.36 185.46 190.59 166.06 190.59 162.25C190.59 150.32 188.16 150.95 188.16 142.25C188.16 138.06 188.37 133.86 188.6 129.66C187.8 124.74 187.18 119.8 186.85 114.81C186.504 114.122 186.2 113.414 185.94 112.69C185.911 112.609 185.865 112.536 185.804 112.476C185.744 112.415 185.671 112.369 185.59 112.34C185.514 112.304 185.43 112.285 185.345 112.285C185.26 112.285 185.177 112.304 185.1 112.34C183.234 113.446 181.109 114.039 178.94 114.06C177.522 114.078 176.115 113.81 174.804 113.27C173.493 112.73 172.304 111.931 171.31 110.92C171.124 110.729 171 110.487 170.956 110.224C170.911 109.961 170.947 109.691 171.06 109.45C171.174 109.21 171.359 109.012 171.59 108.881C171.821 108.751 172.086 108.694 172.35 108.72H172.86C176.13 108.72 178.48 105.72 181.35 104.51C183.35 103.63 185.48 102.8 187.59 101.95C180.895 101.106 174.794 97.6787 170.59 92.4C169.77 101.05 167.91 109.59 167.91 118.15Z" fill="#3A3A3A"/>
<path d="M210.88 101.86C215.75 98.7599 219.34 94.5199 219.34 88.8599C219.34 85.7066 219.317 82.7666 219.27 80.04C216.41 83.81 209.67 84.04 207.2 80.39C207.452 81.7458 207.586 83.1209 207.6 84.4999C207.6 91.1399 202.12 92.84 197.47 96.21C195.75 97.46 194.14 99.15 192.26 100.15C190.73 100.82 189.16 101.45 187.59 102.08C185.48 102.93 183.37 103.76 181.35 104.64C178.48 105.89 176.13 108.85 172.86 108.85H172.35C172.086 108.824 171.821 108.881 171.59 109.011C171.359 109.142 171.174 109.34 171.06 109.58C170.947 109.821 170.911 110.091 170.956 110.354C171 110.617 171.124 110.859 171.31 111.05C172.304 112.061 173.493 112.86 174.804 113.4C176.115 113.94 177.522 114.208 178.94 114.19C181.109 114.169 183.234 113.576 185.1 112.47C185.177 112.434 185.26 112.415 185.345 112.415C185.43 112.415 185.514 112.434 185.59 112.47C185.671 112.499 185.744 112.545 185.804 112.606C185.865 112.666 185.911 112.739 185.94 112.82C186.204 113.543 186.508 114.25 186.85 114.94C186.873 114.992 186.899 115.042 186.93 115.09C187.35 115.82 187.85 116.38 188.47 116.38C190.11 116.38 189.47 114.52 191.15 111.15C191.539 110.362 192.1 109.672 192.793 109.132C193.486 108.592 194.291 108.215 195.15 108.03C200.7 106.862 206.016 104.777 210.88 101.86Z" fill="#969A9E"/>
<path d="M197.2 34.2399C196.165 31.5727 195.62 28.7407 195.59 25.8799C195.59 25.6299 195.59 25.39 195.59 25.14C196.415 24.5029 197.181 23.7934 197.88 23.02C197.88 22.91 197.88 22.8 197.88 22.69C197.947 21.8778 197.7 21.071 197.19 20.435C196.681 19.799 195.947 19.3822 195.14 19.27C193.67 19.27 193.05 21.27 193.05 22.73C193.05 23.86 193.28 25.03 193.28 26.15C193.28 30.69 187.49 33.57 183.12 33.57H182.68C182.143 34.5259 181.861 35.6037 181.86 36.7C181.86 39.7 184.33 42.07 188.25 42.07C192.36 42.07 196.94 40.52 201.51 36.43C200.09 35.74 198.67 35.06 197.23 34.43L197.2 34.2399Z" fill="#969A9E"/>
<path d="M133.43 91.92C138.08 91.92 141.89 88.6299 147.33 86.5099C148.269 86.0978 149.252 85.7957 150.26 85.6099C157.969 84.2193 165.002 80.3164 170.26 74.5099C169.82 71.1499 169.26 67.7999 168.72 64.5099C167.488 63.8178 166.518 62.7389 165.96 61.44C163.54 66.05 159.56 68.78 149.39 74.71C146.68 76.28 144.06 78.34 141.29 79.98C140.408 80.5032 139.36 80.6678 138.36 80.44C137.015 80.0539 135.635 79.8026 134.24 79.69C133.49 79.69 132.63 79.85 132.63 80.6C132.63 81.35 133.63 82.73 133.63 83.66C133.63 85.01 130.63 85.32 129.23 85.32C127.903 85.3002 126.58 85.1562 125.28 84.89C125.012 84.8412 124.736 84.8732 124.487 84.9819C124.238 85.0905 124.027 85.2708 123.88 85.4999C123.729 85.7245 123.648 85.9892 123.648 86.2599C123.648 86.5307 123.729 86.7954 123.88 87.02C124.994 88.5097 126.433 89.7255 128.088 90.5746C129.743 91.4238 131.57 91.884 133.43 91.92Z" fill="#969A9E"/>
<path d="M185.55 28.5099C190.72 28.5099 192.3 19.89 192.3 14.7C192.301 13.6458 192.224 12.5929 192.07 11.55C190.12 12.7503 187.898 13.4383 185.61 13.55C183.132 13.4726 180.73 12.6732 178.7 11.2499C177.81 14.2884 177.339 17.4342 177.3 20.6C177.301 22.176 177.442 23.7488 177.72 25.3C177.895 25.1285 178.103 24.9948 178.332 24.907C178.561 24.8193 178.805 24.7794 179.05 24.79C181.3 24.76 182.77 28.5099 185.55 28.5099Z" fill="#969A9E"/>
<path d="M195.17 19.27C195.977 19.3822 196.711 19.799 197.22 20.435C197.73 21.071 197.977 21.8778 197.91 22.69C197.91 22.8 197.91 22.91 197.91 23.02C200.239 20.6333 201.606 17.4716 201.75 14.14C201.75 8.00995 197.26 1.49994 189.42 1.49994C185.35 1.49994 182.02 3.06992 178.32 3.85992C177.82 3.95791 177.348 4.1658 176.938 4.46844C176.528 4.77109 176.191 5.16092 175.95 5.60992C175.61 6.25925 175.493 7.00218 175.616 7.72467C175.739 8.44716 176.095 9.10936 176.63 9.60992C177.251 10.2101 177.92 10.7586 178.63 11.2499C180.66 12.6732 183.062 13.4726 185.54 13.55C187.828 13.4383 190.05 12.7503 192 11.55C192.154 12.5929 192.231 13.6458 192.23 14.7C192.23 19.89 190.65 28.5099 185.48 28.5099C182.75 28.5099 181.28 24.7599 178.98 24.7599C178.735 24.7494 178.491 24.7893 178.262 24.877C178.033 24.9647 177.825 25.0984 177.65 25.27C177.154 25.8952 176.911 26.6841 176.97 27.48C176.924 28.781 177.25 30.068 177.91 31.19C178.449 31.9489 179.168 32.5624 180.002 32.9759C180.836 33.3894 181.76 33.5901 182.69 33.56H183.13C187.5 33.56 193.29 30.68 193.29 26.14C193.29 25.02 193.06 23.85 193.06 22.72C193.08 21.23 193.7 19.27 195.17 19.27Z" fill="#3A3A3A"/>
<path d="M187.21 207.28C184.644 207.465 182.074 206.969 179.761 205.842C177.449 204.714 175.475 202.996 174.04 200.86C171.958 204.627 168.833 207.714 165.04 209.75C162.88 210.86 158.35 211.06 158.35 214.03C158.35 217 162.97 217.36 165.86 217.36C173.22 217.36 172.99 214.36 177.67 212C179.6 211.06 182.23 211.67 184.3 211.26C185.097 210.901 185.79 210.345 186.315 209.646C186.839 208.947 187.178 208.126 187.3 207.26L187.21 207.28Z" fill="white"/>
<path d="M171.05 84.8699C171.036 87.4222 170.893 89.9722 170.62 92.5099C174.824 97.7887 180.925 101.216 187.62 102.06C189.19 101.44 190.76 100.8 192.29 100.13C194.17 99.1299 195.78 97.44 197.5 96.19C202.15 92.82 207.63 91.12 207.63 84.48C207.616 83.1011 207.482 81.7258 207.23 80.3699C209.7 84.0099 216.44 83.79 219.3 80.02C218.93 58.41 216.83 49.1699 209.86 41.7499C209.822 41.6986 209.778 41.6516 209.73 41.6099C208.476 40.3105 207.025 39.2171 205.43 38.3699C204.15 37.7099 202.86 37.0599 201.57 36.3699C197 40.4599 192.42 42.0099 188.31 42.0099C184.39 42.0099 181.92 39.64 181.92 36.64C181.921 35.5436 182.203 34.4658 182.74 33.5099C181.81 33.5383 180.887 33.3369 180.053 32.9235C179.219 32.5101 178.5 31.8975 177.96 31.14C172.18 33.38 167.5 39.14 167.5 49.59C167.5 51.89 167.7 54.22 167.9 56.59C168.04 58.11 168.18 59.65 168.27 61.2C168.44 62.28 168.62 63.37 168.79 64.46C169.33 67.76 169.89 71.11 170.33 74.46C170.791 77.9112 171.032 81.3881 171.05 84.8699Z" fill="white"/>
<path d="M208.71 225.12C205.979 224.762 203.224 224.618 200.47 224.69C199.875 228.914 198.574 233.008 196.62 236.8C196.415 237.228 196.299 237.694 196.279 238.168C196.258 238.642 196.333 239.116 196.5 239.56C196.663 240.006 196.915 240.413 197.242 240.758C197.569 241.102 197.963 241.375 198.4 241.56C199.453 242.039 200.593 242.294 201.75 242.31C203.949 242.233 206.059 241.427 207.75 240.02C208.676 239.319 209.38 238.366 209.779 237.276C210.178 236.185 210.255 235.003 210 233.87C209.323 230.995 208.892 228.068 208.71 225.12Z" fill="white"/>
<path d="M210.16 159.61C210.16 148.08 212.81 137.84 212.81 126.53C212.93 118.265 212.284 110.006 210.88 101.86C206.004 104.748 200.681 106.802 195.13 107.94C194.271 108.125 193.466 108.502 192.773 109.042C192.08 109.582 191.519 110.272 191.13 111.06C189.45 114.43 190.13 116.29 188.45 116.29C187.83 116.29 187.33 115.73 186.91 115C186.88 114.952 186.853 114.902 186.83 114.85C187.16 119.85 187.78 124.78 188.58 129.7C190.65 142.36 193.89 154.84 196.29 167.54C197.208 174.037 197.762 180.581 197.95 187.14C198.41 199.47 196.25 225 196.25 225C197.76 224.83 199.14 224.73 200.45 224.69C203.204 224.618 205.959 224.762 208.69 225.12L211.25 225.45C211.358 217.382 212.066 209.333 213.37 201.37C214.112 197.413 214.481 193.396 214.47 189.37C214.49 177.89 210.16 170.49 210.16 159.61Z" fill="#3A3A3A"/>
<path d="M166 61.43C166.558 62.7289 167.528 63.8078 168.76 64.4999C168.59 63.4099 168.41 62.3199 168.24 61.2399C168.15 59.6899 168.01 58.1499 167.87 56.6299C167.398 58.2847 166.771 59.8917 166 61.43Z" fill="white"/>
<path d="M187.55 102.06C189.12 101.44 190.69 100.8 192.22 100.13C194.1 99.1299 195.71 97.44 197.43 96.19C202.08 92.82 207.56 91.12 207.56 84.48C207.546 83.1011 207.412 81.7258 207.16 80.3699C206.184 73.9123 205.619 67.3992 205.47 60.8699C205.47 60.7199 205.47 60.57 205.47 60.42" stroke="#3A3A3A" stroke-width="3" stroke-linecap="round" stroke-linejoin="round"/>
<path d="M209.83 41.7499C216.83 49.1499 218.89 58.41 219.27 80.02C219.323 82.7533 219.347 85.6934 219.34 88.84C219.34 94.52 215.75 98.76 210.88 101.84C206.004 104.728 200.681 106.782 195.13 107.92C194.271 108.105 193.466 108.482 192.773 109.022C192.08 109.562 191.519 110.252 191.13 111.04C189.45 114.41 190.13 116.27 188.45 116.27C187.83 116.27 187.33 115.71 186.91 114.98C186.88 114.932 186.853 114.882 186.83 114.83C186.488 114.14 186.185 113.433 185.92 112.71C185.891 112.629 185.845 112.556 185.784 112.496C185.724 112.435 185.651 112.389 185.57 112.36C185.494 112.323 185.41 112.305 185.325 112.305C185.24 112.305 185.157 112.323 185.08 112.36C183.214 113.466 181.089 114.059 178.92 114.08C177.502 114.098 176.095 113.83 174.784 113.29C173.473 112.75 172.284 111.951 171.29 110.94C171.104 110.749 170.98 110.507 170.936 110.244C170.891 109.981 170.927 109.711 171.04 109.47C171.154 109.23 171.339 109.032 171.57 108.901C171.801 108.771 172.066 108.714 172.33 108.74H172.84C176.11 108.74 178.46 105.74 181.33 104.53C183.33 103.65 185.46 102.82 187.57 101.97" stroke="#3A3A3A" stroke-width="3" stroke-linecap="round" stroke-linejoin="round"/>
<path d="M187.21 207.28C187.088 208.146 186.749 208.967 186.225 209.666C185.7 210.365 185.007 210.921 184.21 211.28C182.14 211.69 179.51 211.08 177.58 212.02C172.9 214.34 173.13 217.38 165.77 217.38C162.88 217.38 158.26 216.95 158.26 214.05C158.26 211.15 162.79 210.88 164.95 209.77C168.743 207.734 171.868 204.647 173.95 200.88" stroke="#3A3A3A" stroke-width="3" stroke-linecap="round" stroke-linejoin="round"/>
<path d="M208.71 225.12C208.875 228.066 209.29 230.994 209.95 233.87C210.205 235.003 210.128 236.185 209.729 237.276C209.33 238.366 208.626 239.319 207.7 240.02C206.009 241.427 203.898 242.233 201.7 242.31C200.543 242.294 199.403 242.038 198.35 241.56C197.913 241.375 197.519 241.102 197.192 240.758C196.865 240.413 196.612 240.006 196.45 239.56C196.283 239.116 196.208 238.642 196.229 238.168C196.249 237.694 196.365 237.228 196.57 236.8C198.524 233.008 199.826 228.914 200.42 224.69" stroke="#3A3A3A" stroke-width="3" stroke-linecap="round" stroke-linejoin="round"/>
<path d="M188.6 129.67C190.67 142.33 193.91 154.81 196.31 167.51C197.228 174.007 197.782 180.551 197.97 187.11C198.43 199.44 196.27 224.97 196.27 224.97C197.78 224.8 199.16 224.7 200.47 224.66C203.224 224.588 205.979 224.732 208.71 225.09L211.27 225.42C211.378 217.352 212.086 209.303 213.39 201.34C214.133 197.383 214.501 193.366 214.49 189.34C214.49 177.82 210.16 170.42 210.16 159.54C210.16 148.01 212.81 137.77 212.81 126.46C212.93 118.195 212.284 109.936 210.88 101.79" stroke="#3A3A3A" stroke-width="3" stroke-linecap="round" stroke-linejoin="round"/>
<path d="M186.85 114.85C187.18 119.85 187.8 124.78 188.6 129.7" stroke="#3A3A3A" stroke-width="3" stroke-linecap="round" stroke-linejoin="round"/>
<path d="M187.55 102.06C180.855 101.216 174.754 97.7887 170.55 92.5099" stroke="#3A3A3A" stroke-width="3" stroke-linecap="round" stroke-linejoin="round"/>
<path d="M201.55 36.42C196.98 40.51 192.4 42.06 188.29 42.06C184.37 42.06 181.9 39.69 181.9 36.69C181.901 35.5937 182.183 34.5159 182.72 33.56" stroke="#3A3A3A" stroke-width="3" stroke-linecap="round" stroke-linejoin="round"/>
<path d="M177.93 31.19C172.15 33.43 167.47 39.19 167.47 49.64C167.47 51.94 167.67 54.27 167.87 56.64C168.01 58.16 168.15 59.6999 168.24 61.2499C168.41 62.3299 168.59 63.4199 168.76 64.5099C169.3 67.8099 169.86 71.1599 170.3 74.5099C170.769 77.9439 171.02 81.4042 171.05 84.8699C171.036 87.4222 170.893 89.9722 170.62 92.5099C169.76 101.05 167.91 109.59 167.91 118.15C167.91 129.66 171.78 137.06 173.25 147.22C173.25 147.22 174.15 161.54 174.94 174.02L173.26 199.73C173.52 200.12 173.78 200.5 174.04 200.86C175.475 202.996 177.449 204.714 179.761 205.842C182.074 206.969 184.644 207.465 187.21 207.28C187.93 207.28 188.67 207.23 189.43 207.13C188.36 185.46 190.59 166.06 190.59 162.25C190.59 150.32 188.16 150.95 188.16 142.25C188.16 138.06 188.37 133.86 188.6 129.66" stroke="#3A3A3A" stroke-width="3" stroke-linecap="round" stroke-linejoin="round"/>
<path d="M167.87 56.67C167.398 58.3247 166.771 59.9317 166 61.47C163.58 66.08 159.6 68.8099 149.43 74.7399C146.72 76.3099 144.1 78.3699 141.33 80.0099C140.448 80.5331 139.4 80.6978 138.4 80.47C137.055 80.0839 135.675 79.8327 134.28 79.72C133.53 79.72 132.67 79.8799 132.67 80.6299C132.67 81.3799 133.67 82.76 133.67 83.69C133.67 85.04 130.67 85.35 129.27 85.35C127.943 85.3302 126.62 85.1862 125.32 84.92C125.053 84.8712 124.776 84.9031 124.527 85.0118C124.278 85.1204 124.067 85.3008 123.92 85.53C123.769 85.7545 123.688 86.0192 123.688 86.29C123.688 86.5608 123.769 86.8254 123.92 87.05C125.024 88.5298 126.448 89.7404 128.086 90.5908C129.725 91.4412 131.535 91.9093 133.38 91.96C138.03 91.96 141.84 88.67 147.28 86.55C148.219 86.1378 149.202 85.8358 150.21 85.65C157.919 84.2593 164.951 80.3564 170.21 74.55" stroke="#3A3A3A" stroke-width="3" stroke-linecap="round" stroke-linejoin="round"/>
<path d="M178.65 11.22C177.76 14.2585 177.289 17.4042 177.25 20.57C177.251 22.146 177.392 23.7187 177.67 25.27" stroke="#3A3A3A" stroke-width="3" stroke-linecap="round" stroke-linejoin="round"/>
<path d="M209.83 41.7499C209.792 41.6986 209.748 41.6516 209.7 41.6099C208.446 40.3105 206.995 39.2171 205.4 38.3699C204.12 37.7099 202.83 37.0599 201.54 36.3699C200.25 35.6799 198.7 34.9999 197.26 34.3699L197.2 34.23C196.165 31.5629 195.62 28.7307 195.59 25.8699C195.59 25.6199 195.59 25.3799 195.59 25.1299C196.415 24.4929 197.181 23.7834 197.88 23.0099C200.209 20.6233 201.576 17.4616 201.72 14.1299C201.72 7.99994 197.23 1.48993 189.39 1.48993C185.32 1.48993 181.99 3.06004 178.29 3.85004C177.79 3.94802 177.318 4.15579 176.908 4.45844C176.498 4.76108 176.161 5.15104 175.92 5.60004C175.58 6.24936 175.463 6.99217 175.586 7.71466C175.709 8.43715 176.065 9.09947 176.6 9.60004C177.221 10.2002 177.89 10.7486 178.6 11.2399C180.63 12.6632 183.032 13.4626 185.51 13.54C187.797 13.4283 190.02 12.7403 191.97 11.54C192.124 12.5829 192.201 13.6358 192.2 14.69C192.2 19.88 190.62 28.4999 185.45 28.4999C182.72 28.4999 181.25 24.7499 178.95 24.7499C178.705 24.7394 178.461 24.7793 178.232 24.867C178.003 24.9547 177.795 25.0884 177.62 25.2599C177.124 25.8852 176.881 26.6741 176.94 27.47C176.894 28.771 177.22 30.058 177.88 31.18C178.419 31.9388 179.138 32.5523 179.972 32.9659C180.806 33.3794 181.73 33.5801 182.66 33.55H183.1C187.47 33.55 193.26 30.6699 193.26 26.1299C193.26 25.0099 193.03 23.84 193.03 22.71C193.03 21.21 193.65 19.2499 195.12 19.2499C195.927 19.3622 196.661 19.779 197.17 20.415C197.68 21.0509 197.927 21.8578 197.86 22.67C197.86 22.78 197.86 22.8899 197.86 22.9999" stroke="#3A3A3A" stroke-width="3" stroke-linecap="round" stroke-linejoin="round"/>
<path d="M219.27 80.02C216.41 83.79 209.67 84.0199 207.2 80.3699" stroke="#3A3A3A" stroke-width="3" stroke-linecap="round" stroke-linejoin="round"/>
<path d="M168.76 64.4999C167.528 63.8078 166.558 62.7289 166 61.43" stroke="#3A3A3A" stroke-width="3" stroke-linecap="round" stroke-linejoin="round"/>
<path d="M103.37 165.67C103.37 165.14 101.9 164.97 101.53 164.97C100.72 164.97 100.12 165.29 99.1301 165.29H98.9399C102.3 163.99 104.82 162.92 104.82 162.01C104.82 161.78 104.08 157.59 92.71 161.51C91.71 161.85 80.3101 166.61 80.3101 168.31C80.3395 169.072 80.5974 169.807 81.05 170.42C81.68 171.62 83.2101 171.9 84.5601 171.9C86.7801 171.9 88.3301 170.75 90.3801 169.8C91.7153 169.184 93.1283 168.753 94.5801 168.52C97.7901 167.98 103.37 166.14 103.37 165.67Z" fill="white"/>
<path d="M81.05 170.45C80.5974 169.837 80.3395 169.102 80.3101 168.34C80.3101 166.64 91.75 161.88 92.71 161.54C104.08 157.62 104.82 161.81 104.82 162.04C104.82 162.95 102.3 164.04 98.9399 165.32H99.1301C100.13 165.32 100.72 165 101.53 165C101.9 165 103.37 165.17 103.37 165.7C103.37 166.23 97.7901 167.97 94.5801 168.54C93.1283 168.773 91.7153 169.204 90.3801 169.82C88.3801 170.77 86.7801 171.92 84.5601 171.92C83.2101 171.93 81.68 171.67 81.05 170.45Z" stroke="#3A3A3A" stroke-width="3" stroke-linecap="round" stroke-linejoin="round"/>
<path d="M21.55 122.77L57.76 143.68C63.25 146.85 72.6 143.61 72.45 139.29C72.29 136.54 74.0302 133.76 77.6702 131.66C84.2402 127.87 94.6702 127.66 101.67 131.01C102.11 130.8 102.52 130.58 102.93 130.35C109.93 126.35 109.93 119.79 102.93 115.77C95.9299 111.75 84.6499 111.77 77.6799 115.77C74.0399 117.87 72.3 120.65 72.46 123.4C72.61 127.72 63.26 130.96 57.77 127.78L21.5601 106.88L21.55 122.77Z" fill="white"/>
<path d="M190.55 136.97L215.14 122.77V106.88L178.2 128.21C172.7 131.38 178.31 136.78 185.79 136.69C187.382 136.657 188.973 136.751 190.55 136.97Z" fill="white"/>
<path d="M57.04 86.4C62.54 83.23 56.93 77.84 49.45 77.92C44.856 78.1018 40.2955 77.0669 36.23 74.92C32.75 72.92 31 70.2699 31 67.6299V83.52C31 86.16 32.75 88.8 36.23 90.81C38.8496 92.2541 41.7211 93.1841 44.6899 93.55L57.04 86.4Z" fill="white"/>
<path d="M204.19 146.99C204.19 149.63 202.44 152.27 198.96 154.28C191.96 158.28 180.68 158.28 173.71 154.28C170.07 152.18 168.34 149.4 168.49 146.65C168.64 142.33 159.29 139.1 153.8 142.27L118.33 162.74V178.67L153.8 158.19C159.29 155.02 168.64 158.26 168.49 162.57C168.34 165.33 170.07 168.1 173.71 170.21C180.71 174.21 191.99 174.21 198.96 170.21C202.44 168.21 204.19 165.55 204.19 162.92V146.99Z" fill="white"/>
<path d="M66.7 67.96C66.86 65.21 65.12 62.43 61.48 60.33C54.48 56.33 43.21 56.33 36.23 60.33C32.75 62.33 31 64.9799 31 67.6199C31 70.2599 32.75 72.9 36.23 74.91C40.2955 77.0569 44.856 78.0918 49.45 77.91C56.93 77.83 62.54 83.22 57.04 86.39L21.55 106.88L57.76 127.78C63.25 130.96 72.6 127.72 72.45 123.4C72.29 120.65 74.0302 117.87 77.6702 115.77C84.6702 111.77 95.9502 111.77 102.92 115.77C109.89 119.77 109.92 126.32 102.92 130.35C102.51 130.58 102.1 130.8 101.66 131.01C97.8899 132.693 93.7866 133.496 89.6602 133.36C84.2702 133.3 79.8601 136.08 79.8601 138.82C79.8601 139.89 80.5301 140.96 82.0701 141.82L118.27 162.71L153.74 142.24C159.23 139.07 168.58 142.3 168.43 146.62C168.28 149.37 170.01 152.15 173.65 154.25C180.65 158.25 191.93 158.25 198.9 154.25C202.38 152.25 204.13 149.6 204.13 146.96C204.13 144.32 202.38 141.69 198.9 139.67C196.278 138.234 193.407 137.307 190.44 136.94C188.863 136.721 187.272 136.627 185.68 136.66C178.2 136.75 172.59 131.35 178.09 128.18L215.03 106.85L178.82 85.95C173.33 82.78 163.98 86.02 164.13 90.34C164.29 93.09 162.55 95.87 158.91 97.97C152.34 101.76 141.91 101.97 134.91 98.6199C134.48 98.4199 134.06 98.2 133.66 97.97C126.66 93.97 126.66 87.41 133.66 83.39C137.726 81.243 142.286 80.2081 146.88 80.39C152.27 80.46 156.68 77.68 156.68 74.93C156.68 73.86 156.01 72.8 154.47 71.93L118.27 51.03L81.3401 72.35C75.9001 75.52 66.55 72.28 66.7 67.96Z" fill="#FFC727"/>
<path d="M82.1301 157.74L118.33 178.64V162.74L82.1301 141.85C80.5901 140.96 79.9202 139.85 79.9202 138.85V154.67C79.9202 155.79 80.5501 156.85 82.1301 157.74Z" fill="white"/>
<path d="M133.72 83.42C126.72 87.42 126.72 93.9699 133.72 97.9999C134.12 98.2299 134.54 98.45 134.97 98.65C138.739 96.964 142.843 96.1603 146.97 96.3C152.36 96.36 156.77 93.58 156.77 90.84V74.94C156.77 77.69 152.36 80.47 146.97 80.4C142.364 80.219 137.792 81.261 133.72 83.42Z" fill="white"/>
<path d="M190.55 136.97C193.517 137.337 196.388 138.264 199.01 139.7C202.49 141.7 204.24 144.35 204.24 146.99C204.24 149.63 202.49 152.27 199.01 154.28C192.01 158.28 180.73 158.28 173.76 154.28C170.12 152.18 168.39 149.4 168.54 146.65C168.69 142.33 159.34 139.1 153.85 142.27L118.38 162.74L82.1799 141.85C80.6399 140.96 79.97 139.85 79.97 138.85C79.97 136.11 84.38 133.33 89.77 133.39C93.8968 133.531 98.0013 132.727 101.77 131.04C102.21 130.83 102.62 130.61 103.03 130.38C110.03 126.38 110.03 119.82 103.03 115.8C96.03 111.78 84.75 111.8 77.78 115.8C74.14 117.9 72.4001 120.68 72.5601 123.43C72.7101 127.75 63.3601 130.99 57.8701 127.81L21.6602 106.91L57.1301 86.43C62.6301 83.26 57.02 77.87 49.54 77.95C44.9461 78.1318 40.3856 77.0969 36.3201 74.95C32.8401 72.95 31.0901 70.3 31.0901 67.66C31.0901 65.02 32.8401 62.3799 36.3201 60.3699C43.3201 56.3699 54.6001 56.3699 61.5701 60.3699C65.2101 62.4699 66.95 65.2499 66.79 67.9999C66.64 72.3199 75.99 75.5599 81.49 72.3799L118.42 51.06L154.62 71.96C156.16 72.85 156.83 73.96 156.83 74.96C156.83 77.71 152.42 80.49 147.03 80.42C142.436 80.2382 137.876 81.2731 133.81 83.42C126.81 87.42 126.81 93.9699 133.81 97.9999C134.21 98.2299 134.63 98.45 135.06 98.65C142.06 101.99 152.49 101.79 159.06 97.9999C162.7 95.8999 164.44 93.1199 164.28 90.3699C164.13 86.0499 173.48 82.81 178.97 85.98L215.18 106.88L178.24 128.21C172.74 131.38 178.35 136.78 185.83 136.69C187.408 136.66 188.986 136.753 190.55 136.97Z" stroke="#3A3A3A" stroke-width="3" stroke-linecap="round" stroke-linejoin="round"/>
<path d="M21.55 106.88V122.77L57.76 143.68C63.25 146.85 72.6 143.61 72.45 139.29C72.29 136.54 74.0302 133.76 77.6702 131.66C84.2402 127.87 94.6702 127.66 101.67 131.01" stroke="#3A3A3A" stroke-width="3" stroke-linecap="round" stroke-linejoin="round"/>
<path d="M118.33 162.75V178.64" stroke="#3A3A3A" stroke-width="3" stroke-linecap="round" stroke-linejoin="round"/>
<path d="M215.09 106.88V122.77L190.5 136.97" stroke="#3A3A3A" stroke-width="3" stroke-linecap="round" stroke-linejoin="round"/>
<path d="M31 67.67V83.56C31 86.2 32.75 88.84 36.23 90.85C38.8496 92.2941 41.7211 93.2242 44.6899 93.59" stroke="#3A3A3A" stroke-width="3" stroke-linecap="round" stroke-linejoin="round"/>
<path d="M79.9202 138.82V154.67C79.9202 155.75 80.5901 156.81 82.1301 157.67L118.33 178.57L153.8 158.09C159.29 154.92 168.64 158.16 168.49 162.47C168.34 165.23 170.07 168 173.71 170.11C180.71 174.11 191.99 174.11 198.96 170.11C202.44 168.11 204.19 165.45 204.19 162.82V146.92" stroke="#3A3A3A" stroke-width="3" stroke-linecap="round" stroke-linejoin="round"/>
<path d="M156.74 74.94V90.84C156.74 93.58 152.33 96.36 146.94 96.3C142.813 96.1603 138.709 96.964 134.94 98.65" stroke="#3A3A3A" stroke-width="3" stroke-linecap="round" stroke-linejoin="round"/>
<path d="M62.4299 317.94C66.0899 316.07 69.35 313.94 70.5 312.05C70.573 311.796 70.6101 311.534 70.6101 311.27C70.6101 308.95 67.41 308.27 65.24 308.27C64.0228 308.342 62.8166 308.54 61.6401 308.86C61.8885 309.546 62.0432 310.263 62.1001 310.99C62.1001 313.69 57.6001 314.29 54.9001 314.29C51.1201 314.29 49.1401 313.55 47.8301 312.63C47.4826 313.939 47.2617 315.279 47.1702 316.63C47.1702 319.88 49.53 320.63 53.04 320.63C56.55 320.63 59.2299 319.12 62.4299 317.94Z" fill="#3A3A3A"/>
<path d="M88.3401 175.72C88.5694 174.777 88.6834 173.81 88.6799 172.84C88.6831 172.055 88.6129 171.272 88.47 170.5C88.045 168.179 86.8888 166.056 85.1702 164.44C82.9302 165.32 78.8601 166.96 69.6501 170.96C68.5401 166.56 68.0099 147.45 65.9299 138.76C65.7061 137.66 65.3469 136.592 64.8601 135.58C64.2096 134.516 63.4078 133.553 62.48 132.72C58.4972 129.144 54.2185 125.913 49.6899 123.06C48.4899 123.16 47.16 123.22 46.76 123.22C42.55 123.22 38.65 121.74 35.98 116.65L35.55 116.48C30.69 114.55 25.78 116.78 24.27 118.96C22.9458 120.89 21.8928 122.993 21.1401 125.21C18.3901 132.12 17.73 146.52 17.73 147.8C17.73 153.31 18.96 159.11 24.45 159.11C26.8607 158.977 29.1844 158.162 31.1501 156.76C31.3107 157.916 31.3909 159.082 31.3901 160.25C31.3075 164.983 30.2451 169.648 28.27 173.95C33.59 180.33 40.7001 184.45 49.1101 184.79C51.9436 184.862 54.7742 184.562 57.53 183.9C59.8772 183.657 62.1312 182.851 64.1001 181.55L64.5801 181.7C65.9213 181.993 67.3207 181.857 68.5801 181.31C74.7101 179.03 82.0701 176.58 88.3401 175.72Z" fill="white"/>
<path d="M50.4299 122.98C50.3419 122.739 50.235 122.505 50.1101 122.28C49.442 121.239 48.8342 120.161 48.29 119.05C44.4727 119.143 40.7051 118.17 37.4102 116.24C37.0202 116.41 36.64 116.57 36.26 116.76L35.98 116.65C38.65 121.74 42.55 123.22 46.76 123.22C47.16 123.22 48.4899 123.16 49.6899 123.06L50.4299 122.98Z" fill="white"/>
<path d="M57.76 305.9C57.76 304.97 57.9102 304 57.9102 303.32C59.3302 287.95 58.08 272.39 59.79 257.01C60 255.1 60.24 253.21 60.51 251.36C56.51 254.36 50.65 255.2 44.46 254.5C43.82 258.81 42.75 263.11 42.75 267.83C42.75 277.43 48.02 295.41 48.02 309.7C48.0343 310.703 47.9708 311.706 47.8301 312.7C49.1401 313.62 51.1201 314.36 54.9001 314.36C57.6001 314.36 62.1001 313.76 62.1001 311.06C62.0432 310.333 61.8885 309.616 61.6401 308.93C61.2527 308.988 60.8616 309.018 60.47 309.02C58.69 308.97 57.76 308.23 57.76 305.9Z" fill="white"/>
<path d="M51.2601 118.91C53.8222 118.85 56.3552 118.353 58.7501 117.44C58.1583 115.058 57.7043 112.644 57.3902 110.21C57.1802 108.66 57.0302 107.11 56.9102 105.56C56.7816 103.75 57.1248 101.938 57.9066 100.301C58.6883 98.6638 59.8819 97.2577 61.3702 96.2201L61.5701 96.0801C59.2501 92.4201 55.09 87.51 48.23 86.3C47.4668 86.1714 46.6942 86.1078 45.9202 86.11C42.294 86.1621 38.812 87.5387 36.1302 89.9801C34.349 91.3736 32.8834 93.1287 31.8301 95.13C28.4601 101.43 29.6502 111.41 37.4102 116.24C40.7052 118.17 44.4727 119.143 48.2901 119.05C49.2401 119.05 50.2201 119.01 51.2601 118.91Z" fill="#3A3A3A"/>
<path d="M38.9102 253.47C32.9933 252.005 27.4765 249.241 22.76 245.38C21.7263 249.036 21.1751 252.811 21.1201 256.61C21.1201 263.8 23.4102 269.18 23.4102 284.16C23.4251 288.938 23.0909 293.711 22.4102 298.44C23.5112 299.037 24.7476 299.34 26 299.32C27.38 299.32 36.3701 297.89 36.3701 294.32C36.37 294.085 36.3499 293.851 36.3101 293.62C34.6601 293.46 33.6802 292.7 33.1602 289.75C33.0831 289.053 33.0463 288.351 33.05 287.65C33.05 276.94 35.8102 264.33 38.9102 253.47Z" fill="white"/>
<path d="M67.55 203.25C67.637 197.46 67.0224 191.682 65.72 186.04C65.2066 184.619 64.8152 183.157 64.55 181.67L64.0701 181.52C62.1011 182.821 59.8472 183.627 57.5 183.87C54.7441 184.532 51.9135 184.832 49.0801 184.76C40.6701 184.42 33.56 180.3 28.24 173.92C25.3 180.83 21.3501 186.75 21.3501 193.58C21.3501 203.58 25.6401 205.89 25.6401 227.58C25.6401 235.08 24.04 240.2 22.73 245.31C27.4464 249.171 32.9633 251.935 38.8801 253.4C40.7045 253.862 42.5589 254.197 44.4299 254.4C50.6199 255.1 56.49 254.22 60.48 251.26C61.3296 250.637 62.0958 249.908 62.76 249.09C62.76 249.09 65.4901 229.89 66.6401 216.09C67.2162 211.834 67.52 207.545 67.55 203.25Z" fill="#D7DCE0"/>
<path d="M21.49 303.67C21.3893 304.137 21.41 304.623 21.5501 305.08C22.2501 306.53 23.7501 306.94 25.2601 306.94C29.9601 306.94 35.2601 301.52 38.7701 300.37C40.7701 299.7 44.19 297.89 44.19 295.66C44.19 293.66 42.1101 293.53 40.5201 293.53C38.9301 293.53 37.9201 293.53 37.2801 293.53C36.9301 293.53 36.6101 293.53 36.2801 293.53C36.3199 293.761 36.34 293.995 36.3401 294.23C36.3401 297.84 27.34 299.23 25.97 299.23C24.7176 299.25 23.4812 298.947 22.3802 298.35C22.1535 300.163 21.8567 301.937 21.49 303.67Z" fill="#3A3A3A"/>
<path d="M37.4102 116.24C29.6502 111.41 28.4101 101.43 31.8301 95.13C32.8834 93.1287 34.349 91.3736 36.1302 89.9801C38.8119 87.5387 42.294 86.1621 45.9202 86.11C46.6942 86.1078 47.4668 86.1714 48.23 86.3C55.09 87.51 59.2301 92.4201 61.5701 96.0801L61.3702 96.2201C59.8819 97.2577 58.6883 98.6638 57.9065 100.301C57.1248 101.938 56.7816 103.75 56.9102 105.56C57.0302 107.11 57.1802 108.66 57.3902 110.21C57.7043 112.644 58.1583 115.058 58.7501 117.44C56.3552 118.353 53.8222 118.85 51.2601 118.91C50.2601 119.01 49.2601 119.05 48.2601 119.05C44.4523 119.142 40.6946 118.169 37.4102 116.24Z" stroke="#3A3A3A" stroke-width="3" stroke-linecap="round" stroke-linejoin="round"/>
<path d="M37.4102 116.24C37.0202 116.41 36.64 116.57 36.26 116.76L35.55 116.48C30.69 114.55 25.78 116.78 24.27 118.96C22.9458 120.89 21.8928 122.993 21.1401 125.21C18.3901 132.12 17.73 146.52 17.73 147.8C17.73 153.31 18.96 159.11 24.45 159.11C26.8607 158.977 29.1844 158.162 31.1501 156.76" stroke="#3A3A3A" stroke-width="3" stroke-linecap="round" stroke-linejoin="round"/>
<path d="M44.46 254.5C43.82 258.81 42.75 263.11 42.75 267.83C42.75 277.43 48.02 295.41 48.02 309.7C48.0343 310.703 47.9708 311.706 47.8301 312.7C47.4826 314.009 47.2617 315.349 47.1702 316.7C47.1702 319.95 49.53 320.7 53.04 320.7C56.55 320.7 59.2299 319.08 62.4299 317.9C66.0899 316.03 69.35 313.9 70.5 312.01C70.573 311.756 70.6101 311.494 70.6101 311.23C70.6101 308.91 67.41 308.23 65.24 308.23C64.0228 308.302 62.8166 308.5 61.6401 308.82C61.2533 308.883 60.8618 308.913 60.47 308.91C58.69 308.91 57.76 308.17 57.76 305.84C57.76 304.91 57.9102 303.94 57.9102 303.26C59.3302 287.89 58.08 272.33 59.79 256.95C60 255.04 60.24 253.15 60.51 251.3" stroke="#3A3A3A" stroke-width="3" stroke-linecap="round" stroke-linejoin="round"/>
<path d="M64.1001 181.55C62.1312 182.851 59.8772 183.657 57.53 183.9C54.7742 184.562 51.9436 184.862 49.1101 184.79C40.7001 184.45 33.59 180.33 28.27 173.95" stroke="#3A3A3A" stroke-width="3" stroke-linecap="round" stroke-linejoin="round"/>
<path d="M25.8701 140.67C28.1201 145.92 30.4201 151.2 31.1501 156.75C31.3107 157.906 31.3909 159.072 31.3901 160.24C31.3075 164.973 30.2451 169.638 28.27 173.94C25.33 180.85 21.3801 186.77 21.3801 193.6C21.3801 203.6 25.6702 205.91 25.6702 227.6C25.6702 235.1 24.07 240.22 22.76 245.33C21.7263 248.986 21.1751 252.761 21.1201 256.56C21.1201 263.75 23.4102 269.13 23.4102 284.11C23.4251 288.888 23.0909 293.661 22.4102 298.39C22.1635 300.143 21.8567 301.9 21.49 303.66C21.3893 304.127 21.41 304.613 21.55 305.07C22.25 306.52 23.75 306.93 25.26 306.93C29.96 306.93 35.26 301.51 38.77 300.36C40.77 299.69 44.1899 297.88 44.1899 295.65C44.1899 293.65 42.11 293.52 40.52 293.52C38.93 293.52 37.92 293.52 37.28 293.52C36.93 293.52 36.61 293.52 36.28 293.52C34.63 293.36 33.6501 292.6 33.1301 289.65C33.0531 288.953 33.0162 288.252 33.02 287.55C33.02 276.88 35.7801 264.27 38.8801 253.41" stroke="#3A3A3A" stroke-width="3" stroke-linecap="round" stroke-linejoin="round"/>
<path d="M22.76 245.38C27.4765 249.241 32.9933 252.005 38.9102 253.47C40.7346 253.932 42.5889 254.267 44.46 254.47C50.65 255.17 56.51 254.29 60.51 251.33C61.3596 250.707 62.1259 249.978 62.79 249.16C62.79 249.16 65.5202 229.96 66.6702 216.16C67.2463 211.85 67.5435 207.508 67.5601 203.16C67.647 197.37 67.0324 191.592 65.73 185.95C65.2181 184.559 64.8234 183.127 64.55 181.67" stroke="#3A3A3A" stroke-width="3" stroke-linecap="round" stroke-linejoin="round"/>
<path d="M47.8301 312.67C49.1401 313.59 51.1201 314.33 54.9001 314.33C57.6001 314.33 62.1001 313.73 62.1001 311.03C62.0432 310.303 61.8885 309.586 61.6401 308.9" stroke="#3A3A3A" stroke-width="3" stroke-linecap="round" stroke-linejoin="round"/>
<path d="M22.4102 298.44C23.5112 299.037 24.7476 299.34 26 299.32C27.38 299.32 36.3701 297.89 36.3701 294.32C36.37 294.085 36.3499 293.851 36.3101 293.62" stroke="#3A3A3A" stroke-width="3" stroke-linecap="round" stroke-linejoin="round"/>
<path d="M48.29 119.05C48.8342 120.161 49.442 121.239 50.1101 122.28C50.235 122.505 50.3419 122.739 50.4299 122.98L49.6899 123.06C48.4899 123.17 47.16 123.22 46.76 123.22C42.55 123.22 38.65 121.74 35.98 116.65" stroke="#3A3A3A" stroke-width="3" stroke-linecap="round" stroke-linejoin="round"/>
<path d="M49.6899 123.06C54.2185 125.913 58.4972 129.144 62.48 132.72C63.4078 133.553 64.2096 134.516 64.8601 135.58C65.3469 136.592 65.7061 137.66 65.9299 138.76C68.0099 147.45 68.5401 166.56 69.6501 170.96C78.8601 166.96 82.9302 165.32 85.1702 164.44C86.8888 166.056 88.045 168.179 88.47 170.5C88.6129 171.272 88.6831 172.055 88.6799 172.84C88.6834 173.81 88.5694 174.777 88.3401 175.72C82.0701 176.58 74.7101 179.03 68.6201 181.31C67.3608 181.857 65.9613 181.993 64.6201 181.7L64.1401 181.55C60.0601 180.01 55.78 172.55 55.28 146.26" stroke="#3A3A3A" stroke-width="3" stroke-linecap="round" stroke-linejoin="round"/>
</g>
<defs>
<clipPath id="clip0_2660_1356">
<rect width="220.84" height="324.72" fill="white"/>
</clipPath>
</defs>
</svg>
