<svg width="463" height="365" viewBox="0 0 463 365" fill="none" xmlns="http://www.w3.org/2000/svg">
<path d="M110.894 329.21C231.144 405.76 375.774 345.06 415.494 277.14C454.634 210.21 405.374 110.84 299.724 116.29C194.074 121.74 171.934 46.2901 144.724 27.4001C100.414 -3.41985 61.2943 13.5001 35.7343 40.0301C34.8943 40.8901 34.0843 41.7801 33.2643 42.6701C24.9115 51.8547 17.9141 62.1858 12.4843 73.3501C11.9143 74.5301 11.3743 75.7002 10.8643 76.8702C10.6743 77.2802 10.4943 77.6902 10.3243 78.1102C-8.16572 121.88 -10.5357 251.91 110.894 329.21Z" fill="#EEF5FF"/>
<mask id="mask0_962_2909" style="mask-type:luminance" maskUnits="userSpaceOnUse" x="0" y="10" width="429" height="355">
<path d="M9.69448 78.1899C-8.80552 121.96 -11.1755 251.99 110.294 329.29C230.534 405.84 375.164 345.14 414.884 277.22C454.024 210.29 404.764 110.92 299.124 116.37C193.484 121.82 171.294 46.3799 144.114 27.4999C79.8345 -17.2101 26.4545 38.4999 9.69448 78.1899Z" fill="white"/>
</mask>
<g mask="url(#mask0_962_2909)">
<path d="M545.585 302.88H-89.6553V501.03H545.585V302.88Z" fill="#CEDDEF"/>
<path d="M141.695 341.73C175.942 341.73 203.705 335.905 203.705 328.72C203.705 321.535 175.942 315.71 141.695 315.71C107.447 315.71 79.6846 321.535 79.6846 328.72C79.6846 335.905 107.447 341.73 141.695 341.73Z" fill="#BACEE0"/>
</g>
<path d="M330.004 51.04C325.384 64.76 294.294 90.5 260.054 81.73C227.814 73.5 213.294 38.5 222.294 21.5C230.294 6.40996 250.084 3.66995 267.594 17.64C285.104 31.61 301.134 25.5 311.704 24.5C322.834 23.33 335.024 36.11 330.004 51.04Z" fill="#EEF5FF"/>
<path d="M378.144 114.62L396.884 108.62L397.474 93.5C401.918 90.1312 405.699 85.9675 408.624 81.22L423.294 80.5L427.594 60.74L414.974 51.97C414.624 49.2083 414.025 46.4838 413.184 43.83C412.334 41.1823 411.243 38.6183 409.924 36.17L415.644 22.17L400.584 8.44L387.764 15.99C382.628 13.8305 377.134 12.6469 371.564 12.5L362.294 0.5L343.584 6.5L342.994 21.59C338.55 24.9588 334.77 29.1225 331.844 33.87L317.074 34.96L312.734 54.9L325.464 63.17C326.139 68.7075 327.852 74.068 330.514 78.97L323.914 92.17L339.324 106.17L352.704 99.17C357.841 101.347 363.338 102.547 368.914 102.71L378.144 114.62ZM344.864 65.67C343.262 60.6533 343.182 55.274 344.637 50.2122C346.091 45.1505 349.014 40.6337 353.035 37.2328C357.056 33.8319 361.995 31.6997 367.228 31.1058C372.461 30.5119 377.753 31.483 382.434 33.8962C387.115 36.3095 390.975 40.0565 393.527 44.6636C396.079 49.2707 397.207 54.5309 396.769 59.7792C396.331 65.0275 394.347 70.0282 391.068 74.1489C387.788 78.2697 383.361 81.3255 378.344 82.93C371.616 85.0794 364.309 84.4687 358.031 81.232C351.752 77.9953 347.016 72.3977 344.864 65.67Z" fill="#CEDDEF"/>
<path d="M427.294 184.8L440.734 180.5L441.154 169.66C444.344 167.241 447.057 164.25 449.154 160.84L459.724 160.28L462.814 146.09L453.744 139.78C453.501 137.794 453.073 135.836 452.464 133.93C451.852 132.028 451.065 130.187 450.114 128.43L454.224 118.37L443.384 108.5L434.174 113.92C430.485 112.361 426.538 111.5 422.534 111.38L415.904 102.79L402.434 107.1L402.004 117.94C398.815 120.359 396.102 123.35 394.004 126.76L383.384 127.55L380.294 141.88L389.444 147.82C389.943 151.798 391.174 155.65 393.074 159.18L388.294 168.66L399.374 178.73L408.984 173.67C412.674 175.228 416.621 176.089 420.624 176.21L427.294 184.8ZM403.384 149.62C402.232 146.014 402.176 142.147 403.221 138.508C404.267 134.87 406.369 131.623 409.26 129.179C412.151 126.735 415.702 125.203 419.464 124.777C423.226 124.351 427.029 125.051 430.394 126.787C433.758 128.523 436.532 131.217 438.365 134.53C440.197 137.843 441.006 141.624 440.69 145.397C440.373 149.17 438.944 152.763 436.585 155.724C434.226 158.685 431.041 160.879 427.434 162.03C425.039 162.801 422.514 163.092 420.006 162.885C417.498 162.678 415.055 161.978 412.818 160.825C410.58 159.672 408.593 158.089 406.969 156.166C405.345 154.243 404.117 152.019 403.354 149.62H403.384Z" fill="#CEDDEF"/>
<path d="M31.7944 167.25L37.6044 180.14L48.4244 179.33C51.1927 182.226 54.4751 184.583 58.1044 186.28L59.8644 196.72L74.2944 198.17L79.5244 188.44C81.4779 187.974 83.383 187.324 85.2144 186.5C87.0335 185.676 88.7739 184.689 90.4144 183.55L100.874 186.5L109.434 174.6L102.994 166.07C104.13 162.226 104.537 158.204 104.194 154.21L111.974 146.64L106.164 133.75L95.3444 134.5C92.5734 131.607 89.2916 129.251 85.6644 127.55L83.6644 117.09L69.0744 115.62L64.2144 125.39C62.2704 125.867 60.3729 126.516 58.5444 127.33C56.7236 128.17 54.983 129.174 53.3444 130.33L43.3444 126.7L34.6044 138.85L40.7244 147.85C39.5893 151.694 39.1823 155.717 39.5244 159.71L31.7944 167.25ZM64.0144 139.5C67.4654 137.943 71.3006 137.445 75.0348 138.068C78.7691 138.691 82.2347 140.408 84.9933 143.001C87.7519 145.593 89.6796 148.946 90.5326 152.635C91.3856 156.323 91.1255 160.182 89.7854 163.723C88.4452 167.263 86.085 170.327 83.0035 172.526C79.9219 174.726 76.2573 175.962 72.4733 176.078C68.6892 176.194 64.9556 175.186 61.7446 173.18C58.5337 171.175 55.9897 168.262 54.4344 164.81C52.3524 160.183 52.1918 154.919 53.988 150.173C55.7842 145.428 59.3903 141.589 64.0144 139.5Z" fill="#CEDDEF"/>
<path d="M279.075 92.0698C275.568 92.0751 272.206 93.4707 269.726 95.9506C267.246 98.4306 265.85 101.793 265.845 105.3V152.04C267.205 153.35 268.585 154.64 269.955 155.94V105.3C269.957 102.882 270.919 100.564 272.629 98.8539C274.339 97.1442 276.657 96.1825 279.075 96.1798H305.015V92.0698H279.075Z" fill="#FBD15B"/>
<path d="M71.3946 201.64C67.8865 201.643 64.523 203.038 62.0425 205.518C59.5619 207.999 58.1672 211.362 58.1646 214.87V261.61C59.5146 262.92 60.9046 264.21 62.2746 265.51V214.87C62.2772 212.452 63.2389 210.134 64.9487 208.424C66.6584 206.714 68.9766 205.753 71.3946 205.75H97.2946V201.64H71.3946Z" fill="#FBD15B"/>
<path d="M186.444 96.84V92.5H150.524C148.784 92.5026 147.062 92.8479 145.455 93.5162C143.849 94.1845 142.39 95.1627 141.161 96.395C139.933 97.6272 138.959 99.0894 138.295 100.698C137.632 102.306 137.292 104.03 137.294 105.77V236.5C134.544 236.69 132.544 237.28 132.544 237.97C132.544 238.82 135.594 239.51 139.354 239.51C143.114 239.51 146.164 238.82 146.164 237.97C146.164 237.28 144.164 236.69 141.414 236.5V105.77C141.417 103.354 142.377 101.037 144.085 99.3276C145.793 97.6182 148.108 96.6553 150.524 96.65H176.524V96.84H186.444Z" fill="#FBD15B"/>
<path d="M262.664 236.5V105.77C262.667 104.03 262.327 102.306 261.663 100.698C261 99.0894 260.026 97.6272 258.798 96.395C257.569 95.1627 256.11 94.1845 254.503 93.5162C252.897 92.8479 251.174 92.5026 249.434 92.5H156.364V96.81H239.424V96.62H249.424C251.842 96.6226 254.16 97.5844 255.87 99.2941C257.58 101.004 258.542 103.322 258.544 105.74V236.5C255.784 236.69 253.784 237.28 253.784 237.97C253.784 238.82 256.834 239.51 260.594 239.51C264.354 239.51 267.404 238.82 267.404 237.97C267.414 237.27 265.424 236.68 262.664 236.5Z" fill="#FBD15B"/>
<path d="M423.895 58.1001H300.125C298.893 58.1001 297.895 59.0985 297.895 60.3301V151.56C297.895 152.792 298.893 153.79 300.125 153.79H423.895C425.126 153.79 426.125 152.792 426.125 151.56V60.3301C426.125 59.0985 425.126 58.1001 423.895 58.1001Z" fill="#297EEC"/>
<path d="M421.545 69.6899H302.485C301.319 69.6899 300.375 70.6346 300.375 71.7999V149.47C300.375 150.635 301.319 151.58 302.485 151.58H421.545C422.71 151.58 423.655 150.635 423.655 149.47V71.7999C423.655 70.6346 422.71 69.6899 421.545 69.6899Z" fill="#DFE9F7"/>
<path d="M363.794 73.6001H305.904C304.557 73.6001 303.464 74.6925 303.464 76.0401V113.94C303.464 115.288 304.557 116.38 305.904 116.38H363.794C365.142 116.38 366.234 115.288 366.234 113.94V76.0401C366.234 74.6925 365.142 73.6001 363.794 73.6001Z" fill="white"/>
<path d="M421.715 73.6001H369.285C369.196 73.6001 369.125 73.6717 369.125 73.7601V150.03C369.125 150.118 369.196 150.19 369.285 150.19H421.715C421.803 150.19 421.875 150.118 421.875 150.03V73.7601C421.875 73.6717 421.803 73.6001 421.715 73.6001Z" fill="white"/>
<path d="M366.074 120.59H303.624C303.536 120.59 303.464 120.661 303.464 120.75V150.02C303.464 150.108 303.536 150.18 303.624 150.18H366.074C366.163 150.18 366.234 150.108 366.234 150.02V120.75C366.234 120.661 366.163 120.59 366.074 120.59Z" fill="white"/>
<path d="M308.831 63.2388C308.967 62.3938 308.393 61.598 307.548 61.4614C306.703 61.3248 305.907 61.8992 305.77 62.7443C305.634 63.5894 306.208 64.3851 307.053 64.5217C307.898 64.6583 308.694 64.0839 308.831 63.2388Z" fill="white"/>
<path d="M314.697 63.234C314.833 62.3889 314.259 61.5931 313.414 61.4565C312.569 61.3199 311.773 61.8943 311.636 62.7394C311.5 63.5845 312.074 64.3802 312.919 64.5168C313.764 64.6534 314.56 64.079 314.697 63.234Z" fill="white"/>
<path d="M320.562 63.2388C320.699 62.3938 320.124 61.598 319.279 61.4614C318.434 61.3249 317.638 61.8992 317.502 62.7443C317.365 63.5894 317.939 64.3851 318.785 64.5217C319.63 64.6583 320.425 64.0839 320.562 63.2388Z" fill="white"/>
<path d="M23.8343 105.43H27.5443V109.16C27.5443 109.351 27.5822 109.54 27.6557 109.717C27.7292 109.894 27.8369 110.054 27.9726 110.189C28.1083 110.323 28.2693 110.43 28.4464 110.502C28.6235 110.575 28.8131 110.611 29.0043 110.61C29.1951 110.611 29.3843 110.575 29.5608 110.502C29.7373 110.43 29.8977 110.323 30.0326 110.188C30.1675 110.053 30.2743 109.893 30.3467 109.716C30.4191 109.54 30.4557 109.351 30.4543 109.16V105.43H34.1743C34.3643 105.431 34.5526 105.395 34.7285 105.323C34.9043 105.251 35.0643 105.145 35.199 105.012C35.3338 104.878 35.4408 104.719 35.5138 104.543C35.5868 104.368 35.6243 104.18 35.6243 103.99C35.6297 103.796 35.5961 103.603 35.5257 103.423C35.4552 103.242 35.3492 103.078 35.2141 102.939C35.0789 102.8 34.9172 102.689 34.7386 102.614C34.56 102.539 34.3682 102.5 34.1743 102.5H30.4543V98.8199C30.4557 98.6286 30.4191 98.439 30.3468 98.2619C30.2746 98.0848 30.168 97.9238 30.0332 97.7881C29.8984 97.6524 29.7381 97.5447 29.5615 97.4712C29.385 97.3977 29.1956 97.3599 29.0043 97.3599C28.6171 97.3599 28.2458 97.5137 27.972 97.7875C27.6982 98.0613 27.5443 98.4326 27.5443 98.8199V102.5H23.8343C23.4471 102.5 23.0758 102.654 22.802 102.927C22.5282 103.201 22.3743 103.573 22.3743 103.96C22.3703 104.153 22.4052 104.345 22.477 104.525C22.5488 104.704 22.6561 104.868 22.7923 105.005C22.9286 105.142 23.0911 105.25 23.2701 105.323C23.4491 105.396 23.641 105.433 23.8343 105.43Z" fill="#93BBE5"/>
<path d="M250.994 29.7798H254.714V33.4998C254.745 33.8649 254.911 34.2052 255.181 34.4533C255.45 34.7014 255.803 34.8391 256.169 34.8391C256.536 34.8391 256.889 34.7014 257.158 34.4533C257.428 34.2052 257.594 33.8649 257.624 33.4998V29.7798H261.344C261.729 29.7798 262.098 29.6271 262.37 29.3551C262.642 29.0832 262.794 28.7144 262.794 28.3298C262.794 27.9453 262.642 27.5765 262.37 27.3045C262.098 27.0326 261.729 26.8798 261.344 26.8798H257.624V23.1598C257.641 22.9586 257.616 22.7561 257.55 22.5652C257.485 22.3742 257.38 22.1989 257.244 22.0503C257.107 21.9018 256.941 21.7832 256.756 21.7021C256.571 21.621 256.371 21.5791 256.169 21.5791C255.968 21.5791 255.768 21.621 255.583 21.7021C255.398 21.7832 255.232 21.9018 255.095 22.0503C254.958 22.1989 254.854 22.3742 254.788 22.5652C254.723 22.7561 254.698 22.9586 254.714 23.1598V26.8798H250.994C250.61 26.8798 250.241 27.0326 249.969 27.3045C249.697 27.5765 249.544 27.9453 249.544 28.3298C249.544 28.7144 249.697 29.0832 249.969 29.3551C250.241 29.6271 250.61 29.7798 250.994 29.7798Z" fill="#93BBE5"/>
<path d="M47.3946 83.4998C47.3946 82.2162 47.0139 80.9614 46.3008 79.8941C45.5877 78.8268 44.5741 77.995 43.3882 77.5038C42.2023 77.0126 40.8974 76.8841 39.6384 77.1345C38.3795 77.3849 37.2231 78.003 36.3154 78.9106C35.4078 79.8183 34.7897 80.9747 34.5393 82.2336C34.2888 83.4926 34.4174 84.7975 34.9086 85.9834C35.3998 87.1693 36.2316 88.1829 37.2989 88.896C38.3662 89.6091 39.621 89.9898 40.9046 89.9898C42.6242 89.9845 44.2719 89.299 45.4878 88.0831C46.7038 86.8671 47.3893 85.2194 47.3946 83.4998ZM44.9046 83.4998C44.9046 84.2909 44.67 85.0643 44.2304 85.7221C43.7909 86.3798 43.1662 86.8925 42.4353 87.1953C41.7044 87.498 40.9001 87.5773 40.1242 87.4229C39.3483 87.2686 38.6355 86.8876 38.0761 86.3282C37.5167 85.7688 37.1358 85.0561 36.9814 84.2801C36.8271 83.5042 36.9063 82.6999 37.209 81.969C37.5118 81.2381 38.0245 80.6134 38.6823 80.1739C39.3401 79.7344 40.1134 79.4998 40.9046 79.4998C41.9654 79.4998 42.9828 79.9212 43.733 80.6713C44.4831 81.4215 44.9046 82.4389 44.9046 83.4998Z" fill="#93BBE5"/>
<path d="M277.515 328.72C277.515 327.436 277.134 326.182 276.421 325.114C275.708 324.047 274.694 323.215 273.508 322.724C272.322 322.233 271.017 322.104 269.759 322.355C268.5 322.605 267.343 323.223 266.436 324.131C265.528 325.039 264.91 326.195 264.659 327.454C264.409 328.713 264.537 330.018 265.029 331.204C265.52 332.389 266.352 333.403 267.419 334.116C268.486 334.829 269.741 335.21 271.025 335.21C272.745 335.207 274.394 334.523 275.611 333.306C276.827 332.09 277.512 330.44 277.515 328.72ZM275.025 328.72C275.025 329.511 274.79 330.284 274.351 330.942C273.911 331.6 273.286 332.113 272.555 332.416C271.825 332.718 271.02 332.797 270.244 332.643C269.468 332.489 268.756 332.108 268.196 331.548C267.637 330.989 267.256 330.276 267.102 329.5C266.947 328.724 267.026 327.92 267.329 327.189C267.632 326.458 268.145 325.834 268.802 325.394C269.46 324.955 270.234 324.72 271.025 324.72C272.086 324.72 273.103 325.141 273.853 325.892C274.603 326.642 275.025 327.659 275.025 328.72Z" fill="#93BBE5"/>
<path d="M284.504 15.4998C284.504 14.2162 284.124 12.9614 283.411 11.8941C282.698 10.8268 281.684 9.995 280.498 9.50379C279.312 9.01258 278.007 8.88405 276.748 9.13447C275.489 9.38489 274.333 10.003 273.425 10.9106C272.518 11.8183 271.9 12.9747 271.649 14.2336C271.399 15.4926 271.527 16.7975 272.018 17.9834C272.51 19.1693 273.341 20.1829 274.409 20.896C275.476 21.6091 276.731 21.9898 278.014 21.9898C279.735 21.9871 281.384 21.3025 282.601 20.086C283.817 18.8694 284.502 17.2202 284.504 15.4998ZM282.014 15.4998C282.014 16.2909 281.78 17.0643 281.34 17.722C280.901 18.3798 280.276 18.8925 279.545 19.1953C278.814 19.498 278.01 19.5773 277.234 19.4229C276.458 19.2686 275.745 18.8876 275.186 18.3282C274.627 17.7688 274.246 17.0561 274.091 16.2801C273.937 15.5042 274.016 14.6999 274.319 13.969C274.622 13.2381 275.134 12.6134 275.792 12.1739C276.45 11.7344 277.223 11.4998 278.014 11.4998C278.54 11.4998 279.06 11.6032 279.545 11.8043C280.03 12.0053 280.471 12.2999 280.843 12.6713C281.214 13.0428 281.509 13.4837 281.71 13.969C281.911 14.4543 282.014 14.9745 282.014 15.4998Z" fill="#93BBE5"/>
<path d="M115.364 36.5999C115.58 36.5999 115.795 36.5571 115.994 36.4741C116.194 36.391 116.375 36.2693 116.527 36.116C116.68 35.9626 116.8 35.7807 116.882 35.5805C116.964 35.3804 117.006 35.1661 117.004 34.9499C117.004 34.735 116.962 34.5222 116.879 34.3238C116.797 34.1253 116.676 33.9452 116.523 33.7937C116.371 33.6422 116.19 33.5224 115.991 33.441C115.792 33.3597 115.579 33.3185 115.364 33.3199H99.0043C98.7894 33.3185 98.5763 33.3597 98.3774 33.441C98.1785 33.5224 97.9976 33.6422 97.8452 33.7937C97.6928 33.9452 97.5718 34.1253 97.4893 34.3238C97.4067 34.5222 97.3643 34.735 97.3643 34.9499C97.3642 35.3857 97.5367 35.8039 97.844 36.1131C98.1513 36.4222 98.5684 36.5972 99.0043 36.5999H115.364Z" fill="#93BBE5"/>
<path d="M91.9945 36.5999C92.4304 36.5972 92.8475 36.4222 93.1548 36.1131C93.4621 35.8039 93.6345 35.3857 93.6345 34.9499C93.6345 34.735 93.592 34.5222 93.5095 34.3238C93.427 34.1253 93.306 33.9452 93.1536 33.7937C93.0012 33.6422 92.8203 33.5224 92.6214 33.441C92.4225 33.3597 92.2094 33.3185 91.9945 33.3199H88.9945C88.7796 33.3185 88.5666 33.3597 88.3677 33.441C88.1688 33.5224 87.9879 33.6422 87.8355 33.7937C87.6831 33.9452 87.5621 34.1253 87.4796 34.3238C87.397 34.5222 87.3545 34.735 87.3545 34.9499C87.3532 35.1661 87.3947 35.3804 87.4765 35.5805C87.5583 35.7807 87.6789 35.9626 87.8313 36.116C87.9837 36.2693 88.165 36.391 88.3646 36.4741C88.5642 36.5571 88.7783 36.5999 88.9945 36.5999H91.9945Z" fill="#93BBE5"/>
<path d="M346.404 322.94C346.816 322.908 347.2 322.722 347.48 322.419C347.761 322.115 347.916 321.718 347.916 321.305C347.916 320.892 347.761 320.495 347.48 320.192C347.2 319.888 346.816 319.702 346.404 319.67H330.044C329.819 319.652 329.592 319.682 329.379 319.756C329.165 319.83 328.969 319.947 328.803 320.101C328.637 320.255 328.504 320.441 328.414 320.648C328.323 320.855 328.276 321.079 328.276 321.305C328.276 321.531 328.323 321.755 328.414 321.962C328.504 322.169 328.637 322.356 328.803 322.509C328.969 322.663 329.165 322.78 329.379 322.854C329.592 322.928 329.819 322.958 330.044 322.94H346.404Z" fill="#93BBE5"/>
<path d="M316.994 322.94C317.22 322.958 317.447 322.928 317.66 322.854C317.874 322.78 318.07 322.663 318.236 322.509C318.402 322.356 318.534 322.169 318.625 321.962C318.716 321.755 318.762 321.531 318.762 321.305C318.762 321.079 318.716 320.855 318.625 320.648C318.534 320.441 318.402 320.255 318.236 320.101C318.07 319.947 317.874 319.83 317.66 319.756C317.447 319.682 317.22 319.652 316.994 319.67H313.994C313.583 319.702 313.199 319.888 312.918 320.192C312.638 320.495 312.482 320.892 312.482 321.305C312.482 321.718 312.638 322.115 312.918 322.419C313.199 322.722 313.583 322.908 313.994 322.94H316.994Z" fill="#93BBE5"/>
<path d="M236.755 87.2002C236.656 86.7527 236.468 86.3298 236.201 85.9569C235.935 85.584 235.596 85.2687 235.205 85.0302C234.015 84.3302 232.505 84.5402 231.205 84.1002C228.315 83.1002 227.545 78.6202 229.945 76.7402C231.155 75.8002 232.865 75.5102 233.755 74.2602C234.965 72.5802 233.975 70.2602 232.975 68.4402L230.485 63.9102C229.345 61.8502 227.595 59.4702 225.285 59.9102C223.975 60.1402 222.995 61.2202 221.775 61.7502C218.915 62.9902 215.235 60.0402 215.775 56.9802C216.095 55.3102 217.385 53.7902 217.075 52.1202C216.765 50.4502 215.175 49.6002 213.715 48.9202C211.915 48.0702 210.065 47.3002 208.185 46.6202C205.705 45.7102 202.315 45.2302 200.935 47.5002C200.528 48.4469 200.194 49.423 199.935 50.4202C199.607 51.0482 199.133 51.5881 198.552 51.994C197.971 52.3999 197.301 52.66 196.599 52.7522C195.897 52.8445 195.182 52.7661 194.517 52.5238C193.851 52.2815 193.253 51.8823 192.775 51.3602C191.865 50.2002 191.625 48.6402 190.925 47.3602C190.517 46.5607 189.813 45.9522 188.963 45.6645C188.113 45.3768 187.184 45.4326 186.375 45.8202C184.155 46.6802 181.755 46.8702 179.515 47.6502C176.995 48.5102 174.515 50.7502 174.925 53.3802C175.085 54.3802 175.685 55.3802 175.925 56.3802C176.515 59.2102 173.345 62.0602 170.585 61.1902C168.825 60.6302 167.425 58.9002 165.585 58.9602C163.745 59.0202 162.525 60.7502 161.585 62.3002L158.845 66.7702C157.555 68.8702 156.315 71.7702 157.925 73.5702C158.755 74.5702 160.105 74.8502 161.125 75.5702C161.802 76.0778 162.316 76.7719 162.604 77.5674C162.893 78.363 162.943 79.2254 162.749 80.049C162.555 80.8727 162.125 81.6218 161.511 82.2046C160.897 82.7874 160.127 83.1785 159.295 83.3302C158.372 83.3791 157.453 83.4894 156.545 83.6602C153.995 84.5002 153.745 87.9802 154.145 90.6602C154.445 92.6602 154.835 94.6402 155.315 96.6002C155.685 98.1402 156.315 99.8602 157.755 100.46C159.195 101.06 161.035 100.12 162.755 100.12C165.755 100.12 167.915 103.96 166.425 106.53C165.615 107.93 164.015 108.86 163.605 110.42C162.815 113.42 166.915 116.19 170.415 119.22C171.995 120.6 174.075 122.06 176.005 121.22C177.435 120.62 178.105 118.98 179.305 117.98C181.675 115.98 185.985 117.71 186.375 120.77C186.565 122.27 185.985 123.87 186.605 125.24C187.455 127.12 189.945 127.44 192.015 127.48L197.015 127.6C199.445 127.65 202.495 127.31 203.315 125.02C203.755 123.79 203.315 122.41 203.495 121.11C203.885 118.11 208.035 116.45 210.385 118.32C211.795 119.45 212.525 121.47 214.245 122.01C215.965 122.55 217.585 121.42 218.965 120.37L222.965 117.3C224.123 116.528 225.138 115.56 225.965 114.44C226.356 113.868 226.593 113.204 226.65 112.514C226.708 111.823 226.586 111.129 226.295 110.5C225.708 109.704 225.055 108.958 224.345 108.27C223.83 107.611 223.515 106.818 223.437 105.985C223.359 105.152 223.521 104.315 223.904 103.571C224.287 102.828 224.874 102.209 225.598 101.789C226.321 101.369 227.149 101.165 227.985 101.2C229.495 101.27 230.985 102.11 232.455 101.74C234.455 101.22 235.255 98.7402 235.675 96.7402L236.675 91.7402C237.024 90.2498 237.051 88.702 236.755 87.2002ZM194.915 72.0602C197.085 71.9579 199.248 72.387 201.215 73.3102C202.705 73.9345 204.062 74.8373 205.215 75.9702C207.874 78.4747 209.434 81.9294 209.555 85.5802C209.645 87.6614 209.272 89.7368 208.463 91.6563C207.653 93.5759 206.428 95.2918 204.875 96.6802C203.653 97.7889 202.235 98.6604 200.695 99.2502C199.217 99.8705 197.637 100.21 196.035 100.25C192.677 100.376 189.384 99.3001 186.749 97.2161C184.113 95.1321 182.307 92.1764 181.655 88.8802C181.493 88.1571 181.399 87.4206 181.375 86.6802C181.345 85.7831 181.405 84.8853 181.555 84.0002C182.047 80.7676 183.65 77.8075 186.088 75.6285C188.526 73.4496 191.647 72.1879 194.915 72.0602Z" fill="#FBD15B"/>
<path d="M196.184 64.7902C191.898 64.7175 187.686 65.9181 184.081 68.2399C180.477 70.5618 177.643 73.9006 175.937 77.834C174.231 81.7673 173.73 86.1183 174.497 90.3364C175.265 94.5545 177.266 98.4502 180.248 101.53C183.231 104.611 187.059 106.737 191.251 107.641C195.442 108.544 199.807 108.184 203.793 106.606C207.779 105.028 211.208 102.303 213.645 98.7754C216.082 95.2481 217.419 91.0771 217.484 86.7902C217.575 81.0488 215.383 75.5063 211.389 71.3809C207.395 67.2555 201.926 64.8849 196.184 64.7902Z" fill="#FF4B4B"/>
<path d="M165.374 301.22H80.7544V305.33H165.374V301.22Z" fill="#93BBE5"/>
<path d="M172.254 186.07H76.1343V283.56H172.254V186.07Z" fill="#93BBE5"/>
<path d="M76.8043 158.27H171.594C171.772 158.27 171.942 158.341 172.068 158.466C172.194 158.592 172.264 158.762 172.264 158.94V186.07H76.1343V158.94C76.1343 158.762 76.2049 158.592 76.3305 158.466C76.4562 158.341 76.6266 158.27 76.8043 158.27Z" fill="#93BBE5"/>
<path d="M186.635 173.47H61.7646V209.62H186.635V173.47Z" fill="#A9CBF7"/>
<path d="M168.365 184.7H80.4546V198.39H168.365V184.7Z" fill="#93BBE5"/>
<path d="M165.025 186.62H83.3745V196.48H165.025V186.62Z" fill="#71A3D1"/>
<g style="mix-blend-mode:multiply">
<path d="M165.025 191.54L83.3745 186.62H165.025V191.54Z" fill="#E6E7E8"/>
</g>
<g style="mix-blend-mode:multiply">
<path d="M172.254 214.55L76.1343 209.62H172.254V214.55Z" fill="#E6E7E8"/>
</g>
<g style="mix-blend-mode:multiply">
<path d="M172.254 261.52L76.1343 256.59H172.254V261.52Z" fill="#E6E7E8"/>
</g>
<g style="mix-blend-mode:multiply">
<path d="M165.375 303.98L83.0146 302.18H165.375V303.98Z" fill="#E6E7E8"/>
</g>
<path d="M71.2045 194.62C72.9056 194.62 74.2845 193.241 74.2845 191.54C74.2845 189.839 72.9056 188.46 71.2045 188.46C69.5035 188.46 68.1245 189.839 68.1245 191.54C68.1245 193.241 69.5035 194.62 71.2045 194.62Z" fill="#93BBE5"/>
<path d="M178.214 194.62C179.915 194.62 181.294 193.241 181.294 191.54C181.294 189.839 179.915 188.46 178.214 188.46C176.513 188.46 175.134 189.839 175.134 191.54C175.134 193.241 176.513 194.62 178.214 194.62Z" fill="#93BBE5"/>
<path d="M186.635 266.03H61.7646V302.18H186.635V266.03Z" fill="#A9CBF7"/>
<path d="M168.365 277.26H80.4546V290.95H168.365V277.26Z" fill="#93BBE5"/>
<path d="M165.025 279.18H83.3745V289.04H165.025V279.18Z" fill="#71A3D1"/>
<path d="M71.2045 287.19C72.9056 287.19 74.2845 285.811 74.2845 284.11C74.2845 282.409 72.9056 281.03 71.2045 281.03C69.5035 281.03 68.1245 282.409 68.1245 284.11C68.1245 285.811 69.5035 287.19 71.2045 287.19Z" fill="#93BBE5"/>
<path d="M178.214 287.19C179.915 287.19 181.294 285.811 181.294 284.11C181.294 282.409 179.915 281.03 178.214 281.03C176.513 281.03 175.134 282.409 175.134 284.11C175.134 285.811 176.513 287.19 178.214 287.19Z" fill="#93BBE5"/>
<path d="M186.635 220.3H61.7646V256.45H186.635V220.3Z" fill="#A9CBF7"/>
<path d="M168.365 231.53H80.4546V245.22H168.365V231.53Z" fill="#93BBE5"/>
<path d="M165.025 233.44H83.3745V243.3H165.025V233.44Z" fill="#71A3D1"/>
<path d="M74.9603 238.851C75.2325 237.167 74.088 235.581 72.4039 235.309C70.7199 235.037 69.1341 236.181 68.8619 237.865C68.5898 239.549 69.7343 241.135 71.4183 241.407C73.1024 241.68 74.6882 240.535 74.9603 238.851Z" fill="#93BBE5"/>
<path d="M181.201 239.066C181.592 237.411 180.567 235.752 178.911 235.361C177.256 234.97 175.597 235.996 175.206 237.651C174.815 239.307 175.841 240.966 177.496 241.356C179.152 241.747 180.811 240.722 181.201 239.066Z" fill="#93BBE5"/>
<path d="M162.145 162.75H133.945C133.696 162.75 133.495 162.951 133.495 163.2V169.67C133.495 169.919 133.696 170.12 133.945 170.12H162.145C162.393 170.12 162.595 169.919 162.595 169.67V163.2C162.595 162.951 162.393 162.75 162.145 162.75Z" fill="#71A3D1"/>
<path d="M90.1159 165.427C90.3921 164.25 89.6614 163.071 88.4839 162.795C87.3063 162.519 86.1278 163.249 85.8517 164.427C85.5755 165.604 86.3062 166.783 87.4837 167.059C88.6613 167.335 89.8397 166.605 90.1159 165.427Z" fill="#71A3D1"/>
<path d="M94.0845 167.13C95.294 167.13 96.2745 166.15 96.2745 164.94C96.2745 163.73 95.294 162.75 94.0845 162.75C92.875 162.75 91.8945 163.73 91.8945 164.94C91.8945 166.15 92.875 167.13 94.0845 167.13Z" fill="#71A3D1"/>
<g style="mix-blend-mode:multiply">
<path d="M165.025 284.11L83.3745 279.18H165.025V284.11Z" fill="#E6E7E8"/>
</g>
<g style="mix-blend-mode:multiply">
<path d="M165.025 238.38L83.3745 233.45H165.025V238.38Z" fill="#E6E7E8"/>
</g>
<g style="mix-blend-mode:multiply">
<path d="M162.595 167.68L133.495 162.75H162.075C162.144 162.75 162.212 162.764 162.276 162.791C162.34 162.817 162.397 162.856 162.446 162.906C162.494 162.955 162.532 163.014 162.558 163.078C162.583 163.142 162.596 163.211 162.595 163.28V167.68Z" fill="#E6E7E8"/>
</g>
<path d="M404.564 129.59H206.634C204.948 129.59 203.33 130.26 202.137 131.453C200.944 132.645 200.274 134.263 200.274 135.95V263.35H410.934V135.95C410.932 134.262 410.259 132.644 409.065 131.452C407.871 130.26 406.252 129.59 404.564 129.59Z" fill="#184785"/>
<path d="M205.044 263.35V135.95C205.047 135.529 205.215 135.126 205.513 134.828C205.811 134.531 206.214 134.362 206.634 134.36H404.564C404.986 134.36 405.391 134.527 405.689 134.826C405.987 135.124 406.154 135.528 406.154 135.95V263.35H205.044Z" fill="#4095F2"/>
<path d="M402.174 138.82H209.024V255.21H402.174V138.82Z" fill="#CEDDEF"/>
<path d="M273.854 305.54H306.404H338.944L341.774 303.5H271.024L273.854 305.54Z" fill="#113E70"/>
<path d="M281.854 298.37C281.854 298.37 281.454 302 276.854 302.62L271.024 303.5H341.774L335.934 302.62C331.334 302 330.934 298.37 330.934 298.37L330.184 291.37L282.694 290.37L281.854 298.37Z" fill="#184785"/>
<path d="M282.705 290.39L330.205 291.41L329.475 284.57H283.325L282.705 290.39Z" fill="#113E70"/>
<path d="M200.294 263.35V278.21C200.294 279.897 200.965 281.515 202.157 282.707C203.35 283.9 204.968 284.57 206.654 284.57H404.564C406.252 284.57 407.871 283.9 409.065 282.708C410.26 281.515 410.932 279.898 410.934 278.21V263.35H200.294Z" fill="#184785"/>
<path d="M317.015 274.16C317.015 274.77 316.772 275.355 316.341 275.786C315.91 276.218 315.325 276.46 314.715 276.46H298.085C297.475 276.46 296.89 276.218 296.458 275.786C296.027 275.355 295.785 274.77 295.785 274.16C295.785 273.55 296.027 272.965 296.458 272.534C296.89 272.102 297.475 271.86 298.085 271.86H314.715C315.325 271.86 315.91 272.102 316.341 272.534C316.772 272.965 317.015 273.55 317.015 274.16Z" fill="#4095F2"/>
<path d="M396.204 146.31H216.584V164.16H396.204V146.31Z" fill="#FBD15B"/>
<path d="M396.215 171.27H337.785V180.53H396.215V171.27Z" fill="#FBD15B"/>
<path d="M396.215 180.53H337.785V247.8H396.215V180.53Z" fill="white"/>
<path d="M332.075 196.18H268.685V206.23H332.075V196.18Z" fill="#FBD15B"/>
<path d="M332.075 206.23H268.685V247.8H332.075V206.23Z" fill="white"/>
<path d="M332.074 171.27H216.584V180.53H332.074V171.27Z" fill="#FBD15B"/>
<path d="M332.075 180.53V193.38H266.285V247.81H216.595V180.53H332.075Z" fill="white"/>
<path d="M4.93457 308.26C5.01457 308.37 5.11457 308.5 5.22457 308.63C6.21949 309.954 7.66939 310.862 9.29457 311.18C12.8046 311.7 16.0346 308.44 17.5246 306.01C18.1549 305.01 18.5924 303.901 18.8146 302.74C19.1246 301.18 19.0846 299.67 19.5746 297.74C19.6646 297.41 19.7646 297.07 19.8846 296.74C20.2089 295.839 20.6069 294.966 21.0746 294.13C21.1546 293.99 21.2246 293.85 21.3046 293.72C21.3846 293.59 21.6046 293.22 21.7546 293C22.3172 292.071 23.046 291.254 23.9046 290.59C24.0777 290.458 24.2617 290.341 24.4546 290.24C24.8019 290.041 25.1807 289.902 25.5746 289.83C26.5746 289.63 27.1346 289.92 28.4446 289.73C30.0282 289.467 31.5032 288.756 32.6946 287.68C31.5846 286.54 19.3546 272.1 17.6946 271.63L10.1446 293.33C8.40457 298.303 6.6679 303.28 4.93457 308.26Z" fill="#0F335B"/>
<path d="M117.234 329.1H164.234C163.666 327.045 162.517 325.198 160.924 323.78C159.064 322.19 157.134 321.78 154.924 321.26C149.154 320.02 146.924 321.58 142.714 319.98C141.13 319.358 139.671 318.457 138.404 317.32C138.717 316.183 138.668 314.978 138.264 313.87C137.868 312.815 137.173 311.897 136.264 311.23L121.524 314.5C121.214 315.06 120.904 315.63 120.614 316.23C118.668 320.262 117.52 324.632 117.234 329.1Z" fill="#0F335B"/>
<path d="M111.215 165.89C115.841 180.07 120.255 194.877 124.455 210.31C133.477 243.654 140.572 277.49 145.705 311.65C141.524 315.897 136.119 318.729 130.248 319.749C124.376 320.77 118.333 319.927 112.965 317.34C111.739 294.224 108.605 271.249 103.595 248.65C99.9097 231.994 95.2075 215.58 89.5146 199.5L91.6746 160.19L111.215 165.89Z" fill="#184785"/>
<path d="M71.4045 162.31L44.9745 242.91L15.3745 269.06C15.3797 274.878 17.5213 280.492 21.3926 284.835C25.2639 289.178 30.5953 291.949 36.3745 292.62C42.0729 288.526 47.535 284.112 52.7345 279.4C60.6545 272.24 65.9545 267.21 71.1745 259.83C75.5945 253.58 78.4145 245.5 83.8645 229.5C87.4045 219.15 88.8645 213.68 91.4445 205.43C94.3545 196.03 98.7845 182.51 105.085 166.04L71.4045 162.31Z" fill="#184785"/>
<path d="M81.1446 165.62L44.9746 242.91L71.4146 162.31L81.1446 165.62Z" fill="#0F335B"/>
<path d="M96.8244 90.1201C96.8244 90.1201 91.9344 86.6001 86.4644 91.5801C83.1944 94.5801 83.9944 98.8401 82.6844 105.75C82.3644 107.41 78.8244 107.89 77.4144 110.75C76.7344 112.14 77.4144 116.02 76.6144 117C73.2444 121.3 75.1544 125.94 78.2544 127.57C89.0844 133.24 91.6944 126.57 94.4444 122.94C97.1944 119.31 101.994 98.1401 96.8244 90.1201Z" fill="#FBD15B"/>
<path d="M58.6543 162.9C60.4494 163.875 62.5176 164.227 64.5343 163.9L69.0743 163.24L68.2943 168.07L65.2943 185.92C65.2943 185.92 81.5643 188.05 84.8043 176.63L86.8043 166.72H107.014C107.014 166.72 105.594 178.14 117.724 182.39L114.294 157.22L116.064 147.5L122.544 153.14C124.475 154.848 126.775 156.087 129.264 156.76C133.264 157.76 138.684 157.5 141.884 150.35C147.444 137.92 150.574 121.55 150.574 121.55L143.294 113.97L128.844 135.09L116.294 117.78C115.792 117.078 115.054 116.581 114.214 116.38L97.6243 112.38H85.6443L68.5843 116.98C68.07 117.121 67.593 117.373 67.1869 117.719C66.7808 118.064 66.4556 118.495 66.2343 118.98C63.8743 124.07 56.4643 140.49 55.0243 148.87C55.0243 148.83 52.0543 159.08 58.6543 162.9Z" fill="#297EEC"/>
<path d="M109.025 137.04C108.395 129.78 100.805 116.96 97.5745 112.36H85.6445C85.6445 112.36 91.7845 146.14 86.8645 166.72H107.075C107.075 166.72 109.485 142.3 109.025 137.04Z" fill="#A9CBF7"/>
<path d="M108.784 146.2C102.444 148.2 94.6243 149.25 88.7843 149.76C88.746 155.477 88.116 161.174 86.9043 166.76H107.114C107.114 166.76 108.214 155.13 108.784 146.2Z" fill="#A9CBF7"/>
<path d="M70.5244 144.31C71.674 140.941 72.6158 137.504 73.3444 134.02L73.0144 144.15L70.5244 144.31Z" fill="#184785"/>
<path d="M91.2944 143.83C91.2944 143.83 94.6244 142.31 95.6844 140.95C96.7444 139.59 100.374 137.66 100.374 137.66L100.024 140.66C100.024 140.66 111.194 137.18 112.614 137.74C114.034 138.3 111.294 139.96 111.294 139.96C111.294 139.96 113.924 139.01 114.024 139.56C113.865 140.5 113.384 141.355 112.664 141.98C112.664 141.98 113.374 141.78 113.424 142.49C113.474 143.2 109.784 146.17 106.754 147.34C106.754 147.34 111.474 146.02 111.094 147.34C111.094 147.34 106.094 149.81 104.324 150.34C102.554 150.87 91.8744 152.11 91.8744 152.11L91.2944 143.83Z" fill="#F0BB74"/>
<path d="M91.2646 143.83L91.8447 152.12L93.7547 151.89L91.2646 143.83Z" fill="#F0BB74"/>
<path d="M143.754 114.5L149.434 106.95C150.953 105.332 152.748 103.998 154.734 103.01C157.755 101.479 160.675 99.7557 163.474 97.8501C163.474 97.8501 165.144 98.9101 163.474 100.48L158.984 104.83L161.774 106.9C162.036 107.071 162.252 107.302 162.404 107.575C162.556 107.848 162.639 108.154 162.646 108.467C162.653 108.779 162.584 109.088 162.444 109.368C162.304 109.647 162.098 109.888 161.844 110.07L161.664 110.18C161.828 110.699 161.794 111.259 161.569 111.754C161.344 112.249 160.943 112.643 160.444 112.86C160.447 113.262 160.328 113.656 160.103 113.99C159.878 114.323 159.558 114.581 159.184 114.73C157.874 115.29 155.624 114.43 155.624 114.43C155.624 114.43 155.144 117.13 151.194 117.89L149.464 120.36L143.754 114.5Z" fill="#F0BB74"/>
<path d="M153.524 106.07L161.614 105.31C161.614 105.31 162.364 107.54 160.294 108.04C158.876 108.404 157.478 108.842 156.104 109.35C156.188 110.248 155.952 111.146 155.438 111.887C154.924 112.628 154.165 113.164 153.294 113.4L153.524 106.07Z" fill="#F0BB74"/>
<path d="M143.754 114.48L150.804 118.53L149.464 120.34L143.754 114.48Z" fill="#F0BB74"/>
<path d="M69.0744 163.28L68.2944 168.07C74.6044 166.25 88.2944 157.31 88.2944 157.31L89.0044 152.12L69.4844 156.71L69.0744 163.28Z" fill="#184785"/>
<path d="M60.5845 151.56C60.5845 151.56 62.0045 145.4 70.2845 144.39C78.5645 143.38 87.6745 144.08 91.2045 142.97L91.9245 153.28C91.9245 153.28 76.9945 162.68 69.0745 163.28L60.5845 151.56Z" fill="#297EEC"/>
<path d="M95.0044 107.61C96.0472 107.272 96.9951 106.691 97.7703 105.916C98.5456 105.141 99.1261 104.193 99.4644 103.15C100.874 99.3898 99.9944 93.2498 99.0544 92.4098C98.1144 91.5698 95.0044 107.61 95.0044 107.61Z" fill="#FBD15B"/>
<path d="M88.1045 105.42L86.8545 102.5L87.7145 103.02C87.7145 103.02 88.1145 104.15 88.2745 104.87C88.4345 105.59 88.1045 105.42 88.1045 105.42Z" fill="#FBD15B"/>
<path d="M88.0547 102.12V115.04C88.4957 115.541 89.0326 115.949 89.6338 116.239C90.2349 116.529 90.888 116.696 91.5547 116.73C92.9431 116.644 94.2491 116.041 95.2147 115.04V106.91L88.0547 102.12Z" fill="#F0BB74"/>
<path d="M93.2947 109.35C89.9647 109.41 87.7647 106.21 87.7147 103.06L87.6247 98.06C87.5679 96.5762 88.1028 95.1305 89.1117 94.041C90.1206 92.9515 91.5209 92.3072 93.0047 92.25C93.7401 92.2526 94.4678 92.4001 95.1462 92.6839C95.8246 92.9678 96.4405 93.3825 96.9587 93.9043C97.4768 94.4262 97.8871 95.045 98.1661 95.7254C98.4451 96.4059 98.5873 97.1346 98.5847 97.87L98.5347 102.87C98.5847 106.01 96.6247 109.3 93.2947 109.35Z" fill="#F0BB74"/>
<path d="M85.9943 101.91C86.1393 102.299 86.4263 102.618 86.7974 102.804C87.1686 102.989 87.5962 103.027 87.9943 102.91C89.2443 102.3 88.7443 101.32 88.3143 100.42C87.8843 99.52 87.3143 99.23 86.4243 99.66C86.0732 99.9048 85.8317 100.277 85.7513 100.697C85.671 101.118 85.7582 101.553 85.9943 101.91Z" fill="#F0BB74"/>
<g style="mix-blend-mode:multiply">
<path d="M86.2944 100.99C86.29 100.857 86.3156 100.726 86.3693 100.604C86.423 100.483 86.5034 100.376 86.6044 100.29C86.6523 100.26 86.7064 100.24 86.7627 100.234C86.819 100.227 86.8761 100.233 86.9298 100.251C86.9835 100.269 87.0325 100.299 87.0731 100.339C87.1137 100.379 87.1449 100.427 87.1644 100.48C87.1644 100.48 87.1044 100.56 87.0844 100.48C87.0625 100.429 87.0237 100.387 86.9744 100.362C86.9252 100.336 86.8687 100.328 86.8144 100.34C86.7568 100.36 86.704 100.391 86.6592 100.433C86.6145 100.474 86.5788 100.524 86.5544 100.58C86.469 100.823 86.469 101.087 86.5544 101.33C86.6214 101.58 86.769 101.802 86.9744 101.96C87.0663 102.033 87.1775 102.078 87.2944 102.09C87.4027 102.102 87.512 102.078 87.6044 102.02C87.6044 102.02 87.7044 102.02 87.6844 102.02C87.6649 102.07 87.634 102.115 87.5941 102.152C87.5542 102.188 87.5064 102.215 87.4544 102.23C87.3404 102.265 87.2185 102.265 87.1044 102.23C86.8578 102.127 86.6533 101.944 86.5244 101.71C86.3846 101.495 86.3051 101.246 86.2944 100.99Z" fill="#DEAC93"/>
</g>
<path d="M95.3843 89.8698C95.3843 89.8698 97.8343 88.4598 99.6143 93.4398C99.9962 94.5351 100.105 95.7071 99.9304 96.8539C99.7562 98.0007 99.3043 99.0875 98.6143 100.02C98.7145 98.4326 98.5108 96.8408 98.0143 95.3298C97.6243 94.5198 96.3243 94.3298 96.3243 94.3298L95.3843 89.8698Z" fill="#FBD15B"/>
<path d="M96.2946 94.3799C96.2946 94.3799 93.6446 93.1099 92.5146 95.0899C91.3846 97.0699 90.2146 99.5999 86.2946 100.3C82.3746 101 82.8946 96.6399 86.5646 94.0999C90.2346 91.5599 96.8546 89.2199 96.2946 94.3799Z" fill="#FBD15B"/>
<path d="M95.2346 101.89C95.4446 101.89 96.4746 101.69 96.5346 101.13C96.3586 100.335 96.051 99.5742 95.6246 98.88C95.6142 98.8615 95.6003 98.8453 95.5835 98.8322C95.5668 98.8192 95.5477 98.8096 95.5272 98.804C95.5067 98.7984 95.4853 98.7969 95.4643 98.7997C95.4432 98.8025 95.423 98.8094 95.4046 98.82C95.3691 98.8428 95.3433 98.8778 95.3323 98.9185C95.3212 98.9591 95.3256 99.0025 95.3446 99.04C95.7374 99.6786 96.0308 100.373 96.2146 101.1C96.2146 101.33 95.5846 101.52 95.2146 101.57C95.175 101.579 95.14 101.603 95.1162 101.636C95.0923 101.669 95.0811 101.709 95.0846 101.75C95.0892 101.787 95.1068 101.822 95.1342 101.847C95.1616 101.873 95.1972 101.888 95.2346 101.89Z" fill="#B75F3D"/>
<path d="M97.7343 99.1201C97.7322 99.2073 97.7048 99.292 97.6553 99.364C97.6059 99.4359 97.5367 99.4918 97.456 99.5251C97.3754 99.5584 97.2868 99.5675 97.201 99.5513C97.1153 99.5351 97.0361 99.4944 96.9731 99.434C96.9101 99.3736 96.866 99.2962 96.8462 99.2113C96.8264 99.1263 96.8317 99.0374 96.8615 98.9554C96.8913 98.8734 96.9443 98.8018 97.0141 98.7494C97.0838 98.697 97.1673 98.6659 97.2543 98.6601C97.3164 98.6574 97.3784 98.6673 97.4365 98.6892C97.4947 98.7111 97.5478 98.7446 97.5926 98.7876C97.6375 98.8305 97.6732 98.8822 97.6975 98.9393C97.7219 98.9965 97.7344 99.058 97.7343 99.1201Z" fill="#363435"/>
<path d="M92.1545 97.86C92.1898 97.8739 92.2292 97.8739 92.2645 97.86C92.4838 97.6825 92.75 97.5728 93.0306 97.5444C93.3113 97.516 93.5941 97.57 93.8445 97.6999C93.8634 97.7102 93.8843 97.7166 93.9057 97.7187C93.9272 97.7207 93.9489 97.7184 93.9694 97.7118C93.99 97.7053 94.009 97.6947 94.0253 97.6806C94.0417 97.6665 94.055 97.6493 94.0645 97.6299C94.0827 97.5912 94.0855 97.547 94.0726 97.5062C94.0596 97.4655 94.0317 97.4311 93.9945 97.41C93.6771 97.2433 93.3172 97.1752 92.9609 97.2144C92.6046 97.2536 92.2681 97.3983 91.9945 97.6299C91.9664 97.6597 91.9507 97.699 91.9507 97.7399C91.9507 97.7809 91.9664 97.8202 91.9945 97.85C92.0175 97.8666 92.0447 97.8763 92.073 97.8781C92.1014 97.8799 92.1296 97.8736 92.1545 97.86Z" fill="black"/>
<path d="M96.5545 97.4998C96.5836 97.5097 96.6153 97.5097 96.6445 97.4998C96.8048 97.3805 96.9972 97.312 97.1968 97.3031C97.3964 97.2942 97.5941 97.3453 97.7645 97.4498C97.7988 97.4665 97.838 97.4703 97.8749 97.4606C97.9119 97.4509 97.9441 97.4283 97.9659 97.3969C97.9876 97.3655 97.9974 97.3274 97.9935 97.2894C97.9895 97.2514 97.9722 97.2161 97.9445 97.1898C97.7215 97.0414 97.4573 96.9673 97.1897 96.9781C96.9221 96.9889 96.6648 97.084 96.4545 97.2498C96.4263 97.2795 96.4106 97.3189 96.4106 97.3598C96.4106 97.4007 96.4263 97.4401 96.4545 97.4698C96.4835 97.4907 96.5187 97.5013 96.5545 97.4998Z" fill="black"/>
<path d="M93.6646 102.83C94.6875 103.122 95.7716 103.122 96.7945 102.83C96.8407 103.183 96.7475 103.541 96.5347 103.826C96.3219 104.112 96.0062 104.303 95.6545 104.36C95.4216 104.404 95.182 104.399 94.9513 104.344C94.7206 104.289 94.5042 104.186 94.3162 104.042C94.1283 103.897 93.973 103.714 93.8607 103.506C93.7484 103.297 93.6815 103.067 93.6646 102.83Z" fill="#B75F3D"/>
<path d="M96.7245 102.84C96.7245 102.84 96.6745 103.09 96.6545 103.14C96.6345 103.19 96.4345 103.35 95.5345 103.44C94.9387 103.475 94.3411 103.415 93.7645 103.26C93.7115 103.122 93.6779 102.977 93.6646 102.83L94.0345 102.89C94.9194 103.096 95.8397 103.096 96.7245 102.89V102.84Z" fill="white"/>
<path d="M93.5738 100.1C93.8271 100.081 94.015 99.8371 93.9934 99.5562C93.9719 99.2754 93.7491 99.0635 93.4958 99.083C93.2425 99.1024 93.0546 99.3458 93.0761 99.6267C93.0977 99.9075 93.3205 100.119 93.5738 100.1Z" fill="#363435"/>
<path d="M86.2943 96.1901C89.8344 96.1901 92.7043 93.3203 92.7043 89.7801C92.7043 86.24 89.8344 83.3701 86.2943 83.3701C82.7541 83.3701 79.8843 86.24 79.8843 89.7801C79.8843 93.3203 82.7541 96.1901 86.2943 96.1901Z" fill="#FBD15B"/>
<path d="M181.258 90.3599L185.62 80.5739H187.857L192.233 90.3599H189.856L186.277 81.7202H187.172L183.579 90.3599H181.258ZM183.439 88.2629L184.04 86.5433H189.073L189.688 88.2629H183.439ZM193.248 90.3599V80.5739H197.484C198.36 80.5739 199.115 80.7183 199.749 81.0072C200.383 81.2868 200.872 81.6923 201.217 82.2235C201.561 82.7547 201.734 83.3885 201.734 84.1248C201.734 84.8517 201.561 85.4808 201.217 86.0121C200.872 86.5433 200.383 86.9534 199.749 87.2423C199.115 87.5219 198.36 87.6617 197.484 87.6617H194.506L195.513 86.6412V90.3599H193.248ZM195.513 86.8928L194.506 85.8164H197.358C198.057 85.8164 198.579 85.6672 198.924 85.369C199.269 85.0708 199.441 84.656 199.441 84.1248C199.441 83.5842 199.269 83.1648 198.924 82.8666C198.579 82.5683 198.057 82.4192 197.358 82.4192H194.506L195.513 81.3428V86.8928ZM203.351 90.3599V80.5739H205.616V90.3599H203.351Z" fill="white"/>
</svg>
