<svg xmlns="http://www.w3.org/2000/svg" viewBox="0 0 90.15 90.15"><defs><style>.cls-1{fill:#f3725f;}.cls-2{fill:#fff;}</style></defs><g id="Layer_2" data-name="Layer 2"><g id="Layer_1-2" data-name="Layer 1"><rect class="cls-1" width="90.15" height="90.15" rx="45.07"/><path class="cls-2" d="M24.07,42.61c1.36-.76,2.63-1.49,3.92-2.18a2.26,2.26,0,0,1,1-.26q17.24,0,34.47,0a3.19,3.19,0,0,0,1.23-.21,2.11,2.11,0,0,0,1.38-2.09q0-5.2,0-10.41a2.28,2.28,0,0,0-2.44-2.3H42.4a.77.77,0,0,1-.86-.73c0-.44.34-.76.87-.76H64a3.73,3.73,0,0,1,3.6,3.62q0,5.36,0,10.73a3.73,3.73,0,0,1-3.67,3.65H29.35a1.88,1.88,0,0,0-.87.23c-1.54.84-3.07,1.68-4.57,2.57-.81.47-1.36-.06-1.36-.81,0-5.38,0-10.75,0-16.13a3.75,3.75,0,0,1,3.87-3.87H36c.55,0,.87.29.86.76s-.32.72-.84.73H26.65a2.34,2.34,0,0,0-2.58,2.59V42.61Z"/><path class="cls-2" d="M41.54,47.66H57.06a.75.75,0,1,1,0,1.49H26.74a2.35,2.35,0,0,0-2.67,2.67v9.76a2.33,2.33,0,0,0,2.58,2.58h7.08a.73.73,0,0,1,.83.59.69.69,0,0,1-.42.85,1.13,1.13,0,0,1-.41.06c-2.52,0-5,0-7.55,0A3.73,3.73,0,0,1,22.58,62q0-5.37,0-10.74a3.74,3.74,0,0,1,3.68-3.64Z"/><path class="cls-2" d="M66.09,66.62v-.54q0-7.17,0-14.34a2.89,2.89,0,0,0-.47-1.69A.74.74,0,0,1,65.8,49a.75.75,0,0,1,1.06.25,3.45,3.45,0,0,1,.73,2.09v16.5c0,.77-.55,1.1-1.24.72-1.55-.86-3.09-1.75-4.65-2.6a2,2,0,0,0-.88-.24H40.19a3.68,3.68,0,0,1-.47,0,.75.75,0,0,1,0-1.49c.13,0,.25,0,.38,0,7,0,14.06,0,21.1,0a2,2,0,0,1,1,.26C63.45,65.13,64.73,65.86,66.09,66.62Z"/><path class="cls-2" d="M67.59,45.31a2.43,2.43,0,0,1-.81,1.91L57.7,56.3a.32.32,0,0,0-.1.1c-1,1.59-2.74,1.73-4.37,2a.69.69,0,0,1-.82-.74c.15-1,.37-2,.58-3,0-.14.18-.26.29-.36Q58.46,49.15,63.65,44a2.26,2.26,0,0,1,3.88,1C67.57,45.1,67.58,45.27,67.59,45.31ZM54.14,56.65a2.64,2.64,0,0,0,1.9-.82c2.59-2.64,5.22-5.24,7.84-7.86l.32-.34-1.07-1.09a2.22,2.22,0,0,1-.24.32c-2.65,2.66-5.28,5.32-8,7.94A2.77,2.77,0,0,0,54.14,56.65ZM65.36,46.49c.33-.39.87-.63.69-1.21a.93.93,0,0,0-.53-.52c-.6-.17-.85.36-1.19.68Z"/><path class="cls-2" d="M29.24,34.23a1.91,1.91,0,0,0-.21-.32c-.54-.56-1.09-1.12-1.64-1.67-.25-.25-.45-.57-.27-.87a1.23,1.23,0,0,1,.74-.54c.71-.17,1.44-.24,2.17-.34a.6.6,0,0,0,.55-.41c.31-.71.66-1.41,1-2.12a.78.78,0,0,1,1.5,0c.34.72.66,1.44,1,2.15a.78.78,0,0,0,.47.36c.67.13,1.35.22,2,.31.4,0,.79.13.94.57s-.1.71-.38,1c-.52.51-1,1-1.53,1.58a.77.77,0,0,0-.19.56c.11.82.3,1.63.38,2.45a1,1,0,0,1-.3.8,1,1,0,0,1-.85,0c-.7-.33-1.36-.75-2.06-1.11a.75.75,0,0,0-.57,0c-.67.33-1.32.7-2,1.07a.79.79,0,0,1-1.25-.89C29,36,29.1,35.15,29.24,34.23ZM32.32,30c-.24.51-.46.93-.64,1.35a1,1,0,0,1-.83.59l-1.37.21-.09.13c.36.32.71.65,1.07,1a1.07,1.07,0,0,1,.32,1.11c-.09.44-.15.9-.23,1.43.46-.26.85-.45,1.22-.68a1,1,0,0,1,1.1,0l1.23.68c-.09-.53-.14-1-.24-1.41a1.11,1.11,0,0,1,.35-1.14c.35-.32.66-.67,1-1.06l-1.49-.22a.93.93,0,0,1-.79-.58C32.78,30.89,32.57,30.47,32.32,30Z"/><path class="cls-2" d="M42.42,37.9a.78.78,0,0,1-.87-.9c.12-.8.24-1.6.4-2.4a.74.74,0,0,0-.24-.78c-.53-.51-1.06-1-1.54-1.58a1.37,1.37,0,0,1-.3-.87c0-.38.41-.51.77-.57.69-.1,1.38-.22,2.08-.3a.72.72,0,0,0,.65-.49c.31-.7.65-1.38,1-2.07a.78.78,0,0,1,1.48,0c.34.72.66,1.45,1,2.15a.86.86,0,0,0,.5.38c.69.14,1.39.22,2.08.32.37.05.72.15.86.54a.88.88,0,0,1-.33,1c-.53.53-1.06,1.06-1.56,1.61a.86.86,0,0,0-.19.61c.1.82.29,1.63.38,2.45a1,1,0,0,1-.29.76.92.92,0,0,1-.81.06c-.72-.33-1.41-.73-2.1-1.13a.54.54,0,0,0-.63,0c-.63.37-1.28.72-1.92,1.07C42.68,37.8,42.5,37.86,42.42,37.9Zm4.44-2.18c-.09-.54-.15-1-.24-1.43a1.07,1.07,0,0,1,.33-1.1c.35-.32.67-.68,1-1.07-.51-.08-1-.17-1.4-.22a1,1,0,0,1-.89-.64c-.18-.42-.39-.82-.63-1.31-.24.51-.44.91-.62,1.32a1,1,0,0,1-.86.63c-.45.05-.9.14-1.35.21l-.09.14,1.07,1a1,1,0,0,1,.33,1.06c-.09.45-.16.91-.25,1.45.44-.24.83-.43,1.2-.65a1,1,0,0,1,1.18,0C46,35.29,46.41,35.48,46.86,35.72Z"/><path class="cls-2" d="M54.29,37.11c.14-.83.26-1.68.42-2.52a.73.73,0,0,0-.22-.75c-.53-.51-1-1.05-1.55-1.56a.9.9,0,0,1-.33-.92.89.89,0,0,1,.84-.57c.7-.1,1.39-.21,2.09-.3a.6.6,0,0,0,.55-.4c.31-.72.67-1.41,1-2.12a.8.8,0,0,1,.77-.57.77.77,0,0,1,.73.55c.33.71.68,1.41,1,2.12a.66.66,0,0,0,.6.43c.69.08,1.39.19,2.08.3a.81.81,0,0,1,.49,1.47c-.53.53-1.06,1-1.56,1.61a.91.91,0,0,0-.21.65c.1.81.29,1.62.38,2.44a1,1,0,0,1-.31.76,1,1,0,0,1-.81.05c-.72-.34-1.39-.77-2.1-1.12a.75.75,0,0,0-.57,0c-.71.36-1.4.77-2.1,1.14A.77.77,0,0,1,54.29,37.11Zm1.77-1.38c.46-.26.85-.45,1.22-.68a1,1,0,0,1,1.1,0c.39.23.78.43,1.23.68-.08-.53-.14-1-.23-1.41a1.09,1.09,0,0,1,.35-1.14c.34-.32.66-.67,1-1.05-.55-.09-1-.17-1.44-.22a1,1,0,0,1-.86-.63c-.18-.42-.39-.83-.63-1.32-.22.47-.41.85-.57,1.23a1.08,1.08,0,0,1-1,.73c-.43,0-.85.13-1.27.2l-.1.12c.34.3.67.61,1,.9a1.13,1.13,0,0,1,.38,1.22A13.65,13.65,0,0,0,56.06,35.73Z"/><path class="cls-2" d="M50.71,60.42H62.25c.14,0,.28,0,.42,0a.75.75,0,0,1,0,1.49c-.11,0-.22,0-.33,0H39.08a1.6,1.6,0,0,1-.38,0,.74.74,0,0,1-.62-.72.75.75,0,0,1,.63-.76,3.68,3.68,0,0,1,.47,0Z"/><path class="cls-2" d="M39.05,58.91H27.84a.75.75,0,1,1,0-1.5H50.05a2.41,2.41,0,0,1,.38,0,.75.75,0,0,1,0,1.48,3,3,0,0,1-.42,0Z"/><path class="cls-2" d="M43.2,52.91H34.06c-.67,0-1.09-.56-.77-1.07a1.1,1.1,0,0,1,.67-.41,8.68,8.68,0,0,1,1.35,0H52.24a2.36,2.36,0,0,1,.46,0,.71.71,0,0,1,.63.71.73.73,0,0,1-.61.77,3,3,0,0,1-.42,0Z"/><path class="cls-2" d="M34.72,54.41h6.7c.61,0,1,.37.86.89a.73.73,0,0,1-.81.61H28a.78.78,0,0,1-.87-.54c-.16-.52.22-1,.82-1h6.8Z"/><path class="cls-2" d="M31.91,61.91H28c-.59,0-.91-.28-.9-.77s.33-.72.9-.72q4,0,8,0c.56,0,.88.27.88.74s-.32.75-.87.75Z"/><path class="cls-2" d="M47.05,54.41h3.18c.54,0,.86.3.85.77s-.32.73-.85.73H43.86a.75.75,0,1,1,0-1.5Z"/><path class="cls-2" d="M29,52.91H27.89a.75.75,0,1,1,0-1.5h2.2a.75.75,0,1,1,0,1.5Z"/><path class="cls-2" d="M36.85,64.17a5.45,5.45,0,0,1,.7,0,.74.74,0,0,1,0,1.47,11.69,11.69,0,0,1-1.45,0,.74.74,0,0,1,0-1.47A6.26,6.26,0,0,1,36.85,64.17Z"/><path class="cls-2" d="M39.42,25.14h-.37a.75.75,0,0,1,0-1.49,7.12,7.12,0,0,1,.8,0,.75.75,0,0,1,0,1.49Z"/></g></g></svg>