<svg width="207" height="140" viewBox="0 0 207 140" fill="none" xmlns="http://www.w3.org/2000/svg">
<g clip-path="url(#clip0_978_4044)">
<path d="M147.26 30.7134H48.2842V90.8352H147.26V30.7134Z" fill="#AACEEE"/>
<path d="M147.629 91.2051H47.9141V30.3423H147.629V91.2051ZM48.6535 90.4656H146.89V31.0817H48.6535V90.4656Z" fill="white"/>
<path d="M108.709 39.5513H72.5723V71.8505H108.709V39.5513Z" fill="#AACEEE"/>
<path d="M109.077 72.2203H72.2021V39.1816H109.077V72.2203ZM72.9416 71.4809H108.338V39.9211H72.9416V71.4809Z" fill="white"/>
<path d="M105.35 65.8848H75.2412V66.6242H105.35V65.8848Z" fill="white"/>
<path d="M100.009 47.9812L100.139 48.7103L105.138 47.8126L92.8925 59.0242L84.2498 50.2218L75.0303 59.2741L75.5494 59.8021L84.2394 51.2674L92.8644 60.052L105.766 48.2386L104.826 53.8806L105.556 54.0033L106.762 46.77L100.009 47.9812Z" fill="white"/>
<path d="M136.845 39.9155H119.286V55.4011H136.845V39.9155Z" fill="#AACEEE"/>
<path d="M137.216 55.7705H118.916V39.5454H137.216V55.7705ZM119.655 55.031H136.477V40.2849H119.655V55.031Z" fill="white"/>
<path d="M136.845 60.9766H119.286V61.716H136.845V60.9766Z" fill="white"/>
<path d="M136.845 65.811H119.286V66.6984H136.845V65.811Z" fill="white"/>
<path d="M60.7436 40.1519H54.5322V40.8913H60.7436V40.1519Z" fill="white"/>
<path d="M65.4761 44.293H54.5322V45.0324H65.4761V44.293Z" fill="white"/>
<path d="M65.4761 48.4336H54.5322V49.173H65.4761V48.4336Z" fill="white"/>
<path d="M124.034 47.5924C123.682 47.1858 123.506 46.6548 123.506 45.9952C123.506 45.3356 123.682 44.8047 124.034 44.398C124.205 44.1991 124.419 44.0412 124.66 43.936C124.9 43.8308 125.162 43.781 125.424 43.7902C125.687 43.7808 125.948 43.83 126.19 43.9341C126.431 44.0382 126.646 44.1946 126.82 44.3921C127.177 44.7944 127.355 45.3287 127.354 45.9952C127.353 46.6617 127.175 47.1961 126.82 47.5984C126.647 47.7961 126.431 47.9528 126.19 48.0572C125.948 48.1615 125.687 48.2109 125.424 48.2018C125.161 48.2111 124.9 48.1612 124.659 48.0557C124.419 47.9502 124.205 47.7919 124.034 47.5924ZM126.155 47.029C126.324 46.7102 126.413 46.3548 126.413 45.9938C126.413 45.6328 126.324 45.2773 126.155 44.9585C126.073 44.8428 125.964 44.7485 125.838 44.6834C125.712 44.6183 125.572 44.5843 125.431 44.5843C125.289 44.5843 125.149 44.6183 125.023 44.6834C124.897 44.7485 124.789 44.8428 124.707 44.9585C124.529 45.272 124.436 45.6261 124.436 45.9864C124.436 46.3466 124.529 46.7007 124.707 47.0142C124.789 47.1299 124.897 47.2242 125.023 47.2893C125.149 47.3544 125.289 47.3884 125.431 47.3884C125.572 47.3884 125.712 47.3544 125.838 47.2893C125.964 47.2242 126.073 47.1299 126.155 47.0142V47.029ZM130.245 43.87H131.372L125.879 51.9123H124.754L130.245 43.87ZM129.303 51.3844C128.951 50.9782 128.775 50.4457 128.775 49.7871C128.775 49.1275 128.951 48.5966 129.303 48.1899C129.481 47.9978 129.696 47.8445 129.936 47.7397C130.176 47.6348 130.435 47.5807 130.696 47.5807C130.958 47.5807 131.217 47.6348 131.457 47.7397C131.696 47.8445 131.912 47.9978 132.089 48.1899C132.446 48.5966 132.623 49.1275 132.623 49.7871C132.623 50.4467 132.446 50.9703 132.089 51.3844C131.912 51.5761 131.696 51.729 131.456 51.8336C131.217 51.9382 130.958 51.9922 130.696 51.9922C130.435 51.9922 130.176 51.9382 129.936 51.8336C129.697 51.729 129.481 51.5761 129.303 51.3844ZM131.418 50.815C131.591 50.4999 131.681 50.1464 131.681 49.7871C131.681 49.4279 131.591 49.0744 131.418 48.7593C131.336 48.6436 131.227 48.5493 131.102 48.4842C130.976 48.4191 130.836 48.3851 130.694 48.3851C130.552 48.3851 130.413 48.4191 130.287 48.4842C130.161 48.5493 130.052 48.6436 129.97 48.7593C129.796 49.0765 129.705 49.4326 129.705 49.7945C129.705 50.1565 129.796 50.5125 129.97 50.8298C130.052 50.9454 130.161 51.0398 130.287 51.1049C130.413 51.17 130.552 51.204 130.694 51.204C130.836 51.204 130.976 51.17 131.102 51.1049C131.227 51.0398 131.336 50.9454 131.418 50.8298V50.815Z" fill="white"/>
<path d="M202.052 28.4687H191.108C191.03 28.4687 190.954 28.4375 190.899 28.382C190.844 28.3266 190.812 28.2513 190.812 28.1729V22.9967C190.812 22.9183 190.844 22.843 190.899 22.7876C190.954 22.7321 191.03 22.7009 191.108 22.7009V22.1094C190.873 22.1094 190.647 22.2029 190.481 22.3693C190.314 22.5357 190.221 22.7614 190.221 22.9967V28.1729C190.221 28.2513 190.19 28.3266 190.134 28.382C190.079 28.4375 190.003 28.4687 189.925 28.4687H178.981C178.903 28.4687 178.827 28.4375 178.772 28.382C178.717 28.3266 178.685 28.2513 178.685 28.1729V27.5813H178.094V28.1729C178.094 28.4082 178.187 28.6339 178.354 28.8003C178.52 28.9667 178.746 29.0602 178.981 29.0602H184.305V29.2081C184.384 29.2081 184.459 29.2393 184.514 29.2947C184.57 29.3502 184.601 29.4254 184.601 29.5039V34.6801C184.601 34.7585 184.57 34.8337 184.514 34.8892C184.459 34.9447 184.384 34.9758 184.305 34.9758H173.361V35.5674H184.305C184.383 35.4796 184.477 35.4081 184.582 35.3568C184.687 35.3056 184.802 35.2757 184.918 35.2688C185.035 35.2619 185.152 35.2782 185.263 35.3168C185.373 35.3553 185.475 35.4154 185.562 35.4934H190.147C190.093 35.6094 190.066 35.7355 190.066 35.8632V41.0393H190.657V35.8632C190.657 35.7847 190.688 35.7095 190.744 35.654C190.799 35.5986 190.874 35.5674 190.953 35.5674H201.897V34.9758H197.312C197.366 34.86 197.394 34.7338 197.394 34.6061V29.4299C197.393 29.3023 197.366 29.1762 197.312 29.0602H202.052V28.4687ZM196.802 34.6061C196.802 34.6846 196.771 34.7598 196.715 34.8153C196.66 34.8707 196.585 34.9019 196.506 34.9019H185.562C185.484 34.9019 185.409 34.8707 185.353 34.8153C185.298 34.7598 185.266 34.6846 185.266 34.6061V29.4299C185.266 29.3515 185.298 29.2763 185.353 29.2208C185.409 29.1653 185.484 29.1342 185.562 29.1342H196.506C196.585 29.1342 196.66 29.1653 196.715 29.2208C196.771 29.2763 196.802 29.3515 196.802 29.4299V34.6061Z" fill="white"/>
<path d="M48.7633 17.7466H47.876V18.6339H48.7633V17.7466Z" fill="white"/>
<path d="M48.7633 15.9231H47.876V14.0996H48.7633V15.9231ZM48.7633 12.2747H47.876V10.4512H48.7633V12.2747ZM48.7633 8.6277H47.876V6.80274H48.7633V8.6277ZM48.7633 4.97925H47.876V3.15576H48.7633V4.97925Z" fill="white"/>
<path d="M48.7633 1.33101H47.876V0H49.207V0.887342H48.7633V1.33101Z" fill="white"/>
<path d="M87.9679 0.887342H86.205V0H87.9679V0.887342ZM84.4437 0.887342H82.6823V0H84.4437V0.887342ZM80.9194 0.887342H79.1581V0H80.9194V0.887342ZM77.3967 0.887342H75.6338V0H77.3967V0.887342ZM73.8725 0.887342H72.1111V0H73.8725V0.887342ZM70.3482 0.887342H68.5869V0H70.3482V0.887342ZM66.8255 0.887342H65.0641V0H66.8255V0.887342ZM63.3013 0.887342H61.5399V0H63.3013V0.887342ZM59.7785 0.887342H58.0157V0H59.7785V0.887342ZM56.2543 0.887342H54.4929V0H56.2543V0.887342ZM52.7301 0.887342H50.9746V0H52.736L52.7301 0.887342Z" fill="white"/>
<path d="M91.0605 1.33101H90.1732V0.887342H89.7295V0H91.0605V1.33101Z" fill="white"/>
<path d="M91.0602 16.318H90.1729V14.4443H91.0602V16.318ZM91.0602 12.5705H90.1729V10.6982H91.0602V12.5705ZM91.0602 8.82442H90.1729V6.95065H91.0602V8.82442ZM91.0602 5.07836H90.1729V3.20459H91.0602V5.07836Z" fill="white"/>
<path d="M91.5039 19.5214H90.1729V18.1904H91.0602V18.6341H91.5039V19.5214Z" fill="white"/>
<path d="M152.992 19.5216H151.183V18.6343H152.992V19.5216ZM149.375 19.5216H147.566V18.6343H149.375V19.5216ZM145.759 19.5216H143.95V18.6343H145.759V19.5216ZM142.141 19.5216H140.333V18.6343H142.141V19.5216ZM138.524 19.5216H136.715V18.6343H138.526L138.524 19.5216ZM134.907 19.5216H133.098V18.6343H134.907V19.5216ZM131.291 19.5216H129.482V18.6343H131.291V19.5216ZM127.673 19.5216H125.865V18.6343H127.673V19.5216ZM124.056 19.5216H122.247V18.6343H124.056V19.5216ZM120.44 19.5216H118.631V18.6343H120.44V19.5216ZM116.823 19.5216H115.011V18.6343H116.82L116.823 19.5216ZM113.205 19.5216H111.397V18.6343H113.205V19.5216ZM109.588 19.5216H107.781V18.6343H109.588V19.5216ZM105.972 19.5216H104.163V18.6343H105.972V19.5216ZM102.355 19.5216H100.546V18.6343H102.355V19.5216ZM98.7371 19.5216H96.9284V18.6343H98.743L98.7371 19.5216ZM95.1212 19.5216H93.3125V18.6343H95.1212V19.5216Z" fill="white"/>
<path d="M156.132 19.9653H155.244V19.5216H154.801V18.6343H156.132V19.9653Z" fill="white"/>
<path d="M156.131 54.7551H155.244V53.0159H156.131V54.7551ZM156.131 51.2767H155.244V49.5375H156.131V51.2767ZM156.131 47.7969H155.244V46.0577H156.131V47.7969ZM156.131 44.3185H155.244V42.5793H156.131V44.3185ZM156.131 40.8401H155.244V39.0994H156.131V40.8401ZM156.131 37.3602H155.244V35.6211H156.131V37.3602ZM156.131 33.8819H155.244V32.1427H156.131V33.8819ZM156.131 30.402H155.244V28.6628H156.131V30.402ZM156.131 26.9236H155.244V25.1844H156.131V26.9236ZM156.131 23.4452H155.244V21.7061H156.131V23.4452Z" fill="white"/>
<path d="M156.131 56.4941H155.244V57.3815H156.131V56.4941Z" fill="white"/>
<path d="M107.473 5.87891H73.9756V33.9041H107.473V5.87891Z" fill="#AACEEE"/>
<path d="M107.843 34.2739H73.6016V5.50928H107.838L107.843 34.2739ZM74.3455 33.5345H107.103V6.24873H74.341L74.3455 33.5345Z" fill="white"/>
<path d="M99.6125 21.2091C99.6128 23.0197 99.0762 24.7898 98.0705 26.2954C97.0647 27.801 95.6351 28.9746 93.9624 29.6677C92.2897 30.3608 90.449 30.5423 88.6731 30.1893C86.8972 29.8362 85.2659 28.9644 83.9855 27.6842C82.7051 26.404 81.8331 24.7729 81.4797 22.997C81.1264 21.2212 81.3076 19.3805 82.0004 17.7077C82.6932 16.0348 83.8666 14.605 85.372 13.5991C86.8775 12.5931 88.6475 12.0562 90.4581 12.0562H90.5261V21.2771L98.6158 17.0534C99.2729 18.3399 99.6146 19.7644 99.6125 21.2091Z" fill="white"/>
<path d="M100.144 14.4152L92.0547 18.6404V9.41943C93.7315 9.43066 95.3729 9.90259 96.7996 10.7836C98.2263 11.6647 99.3833 12.921 100.144 14.4152Z" fill="#FBD15B"/>
<path d="M140.454 10.728H117.805V27.4692H140.454V10.728Z" fill="#AACEEE"/>
<path d="M140.826 27.839H117.436V10.3584H140.826V27.839ZM118.175 27.0996H140.086V11.0979H118.175V27.0996Z" fill="white"/>
<path d="M124.11 21.1602H121.647V25.3455H124.11V21.1602Z" fill="white"/>
<path d="M128.295 17.8979H125.833V25.3457H128.295V17.8979Z" fill="white"/>
<path d="M132.516 15.1899H130.054V25.3456H132.516V15.1899Z" fill="white"/>
<path d="M136.616 12.8501H134.153V25.3439H136.616V12.8501Z" fill="white"/>
<path d="M61.3353 18.8765H36.2842V35.7256H61.3353V18.8765Z" fill="#AACEEE"/>
<path d="M61.7047 36.0954H35.9141V18.5112H61.7047V36.0954ZM36.6535 35.3559H60.9652V19.2507H36.6535V35.3559Z" fill="white"/>
<path d="M48.8834 32.6171L44.2308 28.0458L39.8399 32.4352L39.2129 31.8081L44.2249 26.7961L48.6542 31.1471L53.5213 21.8906L58.4904 27.0328L57.8515 27.6495L53.7357 23.3902L48.8834 32.6171Z" fill="white"/>
<path d="M39.6468 32.9571C40.1744 32.9571 40.6022 32.5294 40.6022 32.0018C40.6022 31.4741 40.1744 31.0464 39.6468 31.0464C39.1191 31.0464 38.6914 31.4741 38.6914 32.0018C38.6914 32.5294 39.1191 32.9571 39.6468 32.9571Z" fill="#FBD15B"/>
<path d="M45.1442 27.4617C45.1442 27.651 45.088 27.8361 44.9828 27.9935C44.8776 28.1509 44.7281 28.2735 44.5531 28.3459C44.3782 28.4183 44.1858 28.4371 44.0001 28.4001C43.8145 28.363 43.644 28.2718 43.5102 28.1378C43.3764 28.0038 43.2854 27.8332 43.2487 27.6475C43.2119 27.4618 43.2311 27.2694 43.3037 27.0945C43.3764 26.9197 43.4993 26.7704 43.6568 26.6654C43.8143 26.5605 43.9995 26.5046 44.1888 26.5049C44.3144 26.5049 44.4387 26.5296 44.5548 26.5777C44.6708 26.6259 44.7761 26.6964 44.8649 26.7852C44.9536 26.8741 45.024 26.9796 45.0719 27.0957C45.1198 27.2118 45.1444 27.3362 45.1442 27.4617Z" fill="#FBD15B"/>
<path d="M48.7308 32.7975C49.2584 32.7975 49.6861 32.3697 49.6861 31.8421C49.6861 31.3145 49.2584 30.8867 48.7308 30.8867C48.2031 30.8867 47.7754 31.3145 47.7754 31.8421C47.7754 32.3697 48.2031 32.7975 48.7308 32.7975Z" fill="#FBD15B"/>
<path d="M53.5901 23.5558C54.1178 23.5558 54.5455 23.128 54.5455 22.6004C54.5455 22.0728 54.1178 21.645 53.5901 21.645C53.0625 21.645 52.6348 22.0728 52.6348 22.6004C52.6348 23.128 53.0625 23.5558 53.5901 23.5558Z" fill="#FBD15B"/>
<path d="M58.9274 27.1419C58.9277 27.3313 58.8717 27.5165 58.7667 27.674C58.6617 27.8316 58.5123 27.9545 58.3374 28.0271C58.1625 28.0997 57.97 28.1188 57.7842 28.0819C57.5985 28.045 57.4278 27.9539 57.2939 27.82C57.16 27.6861 57.0689 27.5154 57.032 27.3297C56.9951 27.1439 57.0142 26.9514 57.0868 26.7765C57.1594 26.6016 57.2823 26.4522 57.4398 26.3472C57.5974 26.2421 57.7826 26.1862 57.972 26.1865C58.2253 26.1869 58.468 26.2877 58.6471 26.4668C58.8262 26.6459 58.927 26.8886 58.9274 27.1419Z" fill="#FBD15B"/>
<path d="M128.773 123.785H103.143V128.073H128.773V123.785Z" fill="#FBD15B"/>
<path d="M106.032 123.869H105.588V128.073H106.032V123.869Z" fill="black"/>
<path d="M107.377 123.869H106.934V128.073H107.377V123.869Z" fill="black"/>
<path d="M124.741 123.869H124.297V128.073H124.741V123.869Z" fill="black"/>
<path d="M126.087 123.869H125.644V128.073H126.087V123.869Z" fill="black"/>
<path d="M110.68 119.034H102.52V123.549H110.68V119.034Z" fill="white"/>
<path d="M107.634 107.098L108.277 117.84C108.293 118.1 108.407 118.343 108.596 118.52C108.786 118.698 109.036 118.796 109.296 118.794L114.796 118.759C115.056 118.757 115.305 118.655 115.493 118.475C115.68 118.295 115.791 118.05 115.803 117.79L116.296 107.098H107.634Z" fill="white"/>
<path d="M127.886 118.528V123.873H101.783V123.089H109.8V119.358H101.783V118.528H127.886Z" fill="#455A64"/>
<path d="M107.799 109.821H116.128C116.207 109.821 116.282 109.852 116.337 109.907C116.393 109.963 116.424 110.038 116.424 110.117L116.14 116.127C116.135 116.2 116.103 116.269 116.049 116.32C115.996 116.371 115.925 116.4 115.852 116.402H108.09C108.015 116.402 107.943 116.374 107.888 116.323C107.833 116.272 107.8 116.202 107.795 116.127L107.511 110.117C107.511 110.039 107.541 109.965 107.595 109.91C107.649 109.855 107.722 109.823 107.799 109.821Z" fill="#455A64"/>
<path d="M116.653 105.789H107.275V107.678H116.653V105.789Z" fill="#455A64"/>
<path d="M108.394 106.135L108.624 104.707H115.396L115.627 106.135H108.394Z" fill="#455A64"/>
<path d="M111.964 114.954C111.623 114.954 111.289 114.853 111.005 114.663C110.722 114.474 110.501 114.205 110.37 113.889C110.24 113.574 110.206 113.227 110.273 112.893C110.339 112.558 110.504 112.251 110.745 112.01C110.986 111.769 111.294 111.605 111.628 111.538C111.963 111.472 112.31 111.506 112.625 111.637C112.94 111.768 113.209 111.989 113.398 112.273C113.587 112.557 113.688 112.89 113.688 113.231C113.687 113.688 113.505 114.126 113.182 114.449C112.859 114.772 112.421 114.954 111.964 114.954ZM111.964 112.098C111.74 112.098 111.521 112.165 111.334 112.289C111.148 112.414 111.003 112.591 110.917 112.798C110.831 113.005 110.809 113.233 110.853 113.452C110.896 113.672 111.004 113.874 111.163 114.032C111.321 114.191 111.523 114.299 111.743 114.342C111.962 114.386 112.19 114.364 112.397 114.278C112.604 114.192 112.781 114.047 112.906 113.861C113.03 113.674 113.097 113.455 113.097 113.231C113.096 112.931 112.977 112.643 112.764 112.431C112.552 112.218 112.264 112.099 111.964 112.098Z" fill="white"/>
<path d="M109.799 119.925H102.52V120.368H109.799V119.925Z" fill="black"/>
<path d="M109.799 120.959H102.52V121.403H109.799V120.959Z" fill="black"/>
<path d="M109.799 121.995H102.52V122.438H109.799V121.995Z" fill="black"/>
<path d="M115.627 105.493H111.964V106.085H115.627V105.493Z" fill="white"/>
<path d="M110.731 118.528V123.873H101.783V123.089H109.8V119.358H101.783V118.528H110.731Z" fill="#3E4268"/>
<path d="M87.9091 97.4583C91.3195 92.3073 96.4868 89.7222 99.4446 91.6906C102.231 93.5348 102.073 98.7464 99.205 103.645L95.6911 102.921L97.6137 105.969C94.2581 110.171 89.7755 112.119 87.0957 110.344C84.1335 108.376 84.4973 102.609 87.9091 97.4583Z" fill="#227756"/>
<path d="M82.9264 79.269C83.6602 79.277 84.3815 79.4604 85.0301 79.8039C85.6786 80.1473 86.2357 80.6409 86.6547 81.2434L84.5029 84.4704L87.5169 83.163C87.6088 83.5657 87.6549 83.9775 87.6544 84.3905C87.6544 87.2211 85.5381 89.5134 82.9219 89.5134C80.3058 89.5134 78.1895 87.2211 78.1895 84.3905C78.1895 81.5599 80.3146 79.269 82.9264 79.269Z" fill="#227756"/>
<path d="M70.6306 102.125H68.0426C67.4406 100.212 67.9656 98.1205 69.5333 96.9004C71.5949 95.2973 74.674 95.806 76.4117 98.0392C78.1494 100.272 77.8906 103.382 75.8201 104.99C73.7496 106.598 70.6794 106.083 68.9417 103.851C68.9092 103.81 68.8796 103.768 68.85 103.727L70.6306 102.125Z" fill="#227756"/>
<path d="M83.4543 121.638L82.8701 121.548C84.7528 109.437 88.7857 101.935 91.85 97.7731C95.179 93.2417 98.0303 91.6105 98.1501 91.5439L98.4459 92.0586C98.4178 92.0749 95.5635 93.715 92.307 98.1591C89.2915 102.266 85.3147 109.672 83.4543 121.638Z" fill="black"/>
<path d="M83.4587 79.6641H82.8672V122.697H83.4587V79.6641Z" fill="black"/>
<path d="M83.4589 124.43H82.8674C82.8674 114.711 70.4446 97.8219 70.3145 97.6518L70.7892 97.2998C73.0656 100.449 75.1769 103.714 77.1144 107.083C81.3234 114.423 83.4589 120.26 83.4589 124.43Z" fill="black"/>
<path d="M91.8793 93.3523L91.2891 93.3921L91.6147 98.2186L92.2049 98.1788L91.8793 93.3523Z" fill="black"/>
<path d="M96.4379 121.908L95.3347 127.531L95.1764 128.341H71.4607L71.1442 126.729L70.1992 121.908H96.4379Z" fill="white"/>
<path d="M95.335 127.531L95.1767 128.341H71.461L71.1445 126.729L95.335 127.531Z" fill="black"/>
<path d="M194.731 129.847H156.132L156.984 123.946L158.054 116.537H193.992L194.295 121.985L194.731 129.847Z" fill="#181B3F"/>
<path d="M155.172 54.1512L133.553 57.5134C132.618 57.6589 131.977 58.5351 132.123 59.4705L134.54 75.0118C134.685 75.9472 135.562 76.5876 136.497 76.4421L158.116 73.0799C159.051 72.9344 159.692 72.0582 159.546 71.1228L157.129 55.5815C156.984 54.6461 156.107 54.0057 155.172 54.1512Z" fill="black"/>
<path d="M136.226 76.7713C135.746 76.7704 135.283 76.5986 134.92 76.2869C134.556 75.9751 134.315 75.5439 134.241 75.0706L131.824 59.5288C131.743 59.0021 131.874 58.4647 132.188 58.0345C132.503 57.6042 132.975 57.3162 133.501 57.2335L155.121 53.872C155.648 53.7911 156.185 53.9222 156.615 54.2365C157.046 54.5509 157.334 55.0228 157.417 55.549L159.833 71.0923C159.914 71.6188 159.784 72.156 159.469 72.586C159.155 73.0161 158.683 73.3038 158.156 73.3861L136.536 76.7476C136.433 76.7635 136.33 76.7714 136.226 76.7713ZM155.432 54.4399C155.359 54.4399 155.286 54.4458 155.213 54.4576L133.593 57.8192C133.222 57.8774 132.889 58.0804 132.667 58.3837C132.446 58.6869 132.353 59.0657 132.41 59.4371L134.828 74.9789C134.857 75.1634 134.922 75.3405 135.02 75.4999C135.117 75.6592 135.245 75.7978 135.396 75.9077C135.547 76.0176 135.718 76.0966 135.9 76.1403C136.082 76.1839 136.27 76.1913 136.455 76.162L158.075 72.8004C158.446 72.7426 158.78 72.5394 159.002 72.2357C159.224 71.9321 159.316 71.5527 159.258 71.181L156.841 55.6393C156.789 55.3037 156.618 54.9981 156.359 54.778C156.101 54.5579 155.772 54.4379 155.432 54.4399Z" fill="black"/>
<path d="M156.563 53.9339L134.944 57.2962C134.008 57.4416 133.368 58.3179 133.513 59.2533L135.93 74.7946C136.076 75.73 136.952 76.3703 137.888 76.2248L159.507 72.8626C160.442 72.7171 161.082 71.8409 160.937 70.9055L158.52 55.3642C158.374 54.4288 157.498 53.7884 156.563 53.9339Z" fill="white"/>
<path d="M137.614 76.5552C137.135 76.5542 136.672 76.3824 136.309 76.0706C135.945 75.7589 135.705 75.3276 135.631 74.8544L133.214 59.3126C133.133 58.7859 133.263 58.2483 133.578 57.818C133.892 57.3876 134.365 57.0997 134.891 57.0174L156.511 53.6558C157.038 53.5746 157.575 53.7056 158.005 54.02C158.435 54.3344 158.723 54.8066 158.805 55.3329L161.222 70.8747C161.303 71.4014 161.172 71.9387 160.858 72.369C160.543 72.7993 160.071 73.0873 159.545 73.17L137.924 76.5315C137.822 76.5475 137.718 76.5554 137.614 76.5552ZM156.82 54.2237C156.747 54.2238 156.674 54.2298 156.602 54.2415L134.976 57.603C134.604 57.6613 134.271 57.8643 134.05 58.1676C133.828 58.4708 133.735 58.8496 133.792 59.221L136.209 74.7627C136.268 75.134 136.471 75.4669 136.774 75.6887C137.078 75.9104 137.457 76.0029 137.828 75.9459L159.448 72.5843C159.633 72.5553 159.81 72.4902 159.969 72.3928C160.129 72.2953 160.267 72.1673 160.377 72.0162C160.487 71.8651 160.566 71.6939 160.61 71.5122C160.653 71.3305 160.661 71.142 160.632 70.9575L158.215 55.4157C158.161 55.0843 157.991 54.7828 157.736 54.5646C157.481 54.3464 157.156 54.2256 156.82 54.2237Z" fill="black"/>
<path d="M138.04 69.4284L137.56 69.0823L142.057 62.8191L147.98 67.0739L154.305 58.8853L154.774 59.2461L148.1 67.8873L142.193 63.6444L138.04 69.4284Z" fill="black"/>
<path d="M154.347 62.9817L154.325 59.3776L151.202 60.5149L150.999 59.9589L154.911 58.5347L154.939 62.9773L154.347 62.9817Z" fill="black"/>
<path d="M138.527 58.8942L136.476 59.2158L136.567 59.8002L138.619 59.4786L138.527 58.8942Z" fill="black"/>
<path d="M140.525 59.9476L136.718 60.5649L136.812 61.1489L140.62 60.5316L140.525 59.9476Z" fill="black"/>
<path d="M139.886 83.2238L134.927 87.103L133.441 81.495L131.427 73.883L130.809 66.3983C131.002 64.4757 132.403 63.124 132.403 63.124L134.398 70.452L135.383 67.4676C136.014 64.214 137.827 64.7434 137.827 64.7434L137.514 71.2595C137.83 73.4231 137.73 77.0686 137.73 77.0686L138.858 80.2808L139.886 83.2238Z" fill="#E99798"/>
<path d="M139.886 83.2238L134.928 87.1029L133.441 81.4949C134.577 80.8472 136.299 80.2867 138.854 80.2808L139.886 83.2238Z" fill="black"/>
<path d="M194.296 121.985C183.056 126.781 165.067 125.158 156.984 123.946L158.055 116.537H193.992L194.296 121.985Z" fill="black"/>
<path d="M163.423 68.9035L163.674 68.621L160.125 64.7759C159.089 63.5927 158.35 63.4449 158.35 63.4449C157.611 63.1491 157.019 63.7406 157.019 63.7406C156.28 63.4449 155.836 64.1843 155.836 64.1843C155.096 64.0364 154.505 65.0717 154.505 65.0717L148.737 61.0786C147.702 62.5575 150.364 64.628 150.364 64.628L153.192 67.5577C153.06 68.411 152.777 69.3575 153.174 69.952C153.765 70.8394 160.716 74.8324 160.716 74.8324L165.597 70.5436L163.423 68.9035Z" fill="#E99798"/>
<path d="M179.387 69.4356L167.512 71.7708L167.412 63.6664V63.6575C163.41 64.4695 163.283 63.3499 162.881 60.8669C162.705 59.7374 162.603 58.5977 162.576 57.455L162.021 57.2332C161.461 57.0853 161.186 56.4937 161.529 56.0501L162.94 53.6838C162.94 53.3762 163.667 49.6405 163.732 49.3773C163.917 48.6156 164.075 48.0876 164.075 48.0876L177.146 46.418L176.804 58.9398L176.825 59.0197L179.387 69.4356Z" fill="#E99798"/>
<path d="M165.751 53.8909C165.629 54.1737 165.429 54.4157 165.175 54.5882C164.92 54.7607 164.621 54.8565 164.313 54.8641C164.117 54.8729 163.921 54.838 163.739 54.762C163.415 54.6336 163.152 54.3881 163 54.0743C163.222 53.7244 163.568 53.4709 163.969 53.3645C164.414 53.2565 165.005 53.3334 165.751 53.8909Z" fill="white"/>
<path d="M164.315 53.9563C164.327 54.1365 164.276 54.3152 164.171 54.4622C164.066 54.6091 163.914 54.7152 163.739 54.7623C163.415 54.6339 163.152 54.3884 163 54.0746C163.222 53.7246 163.568 53.4712 163.969 53.3647C164.068 53.4304 164.15 53.5178 164.21 53.6204C164.27 53.7229 164.306 53.8378 164.315 53.9563Z" fill="black"/>
<path d="M163.065 59.4281C162.937 59.4284 162.808 59.421 162.681 59.4059L162.731 58.9622C163.961 59.1012 164.467 58.4461 164.488 58.418L164.847 58.6812C164.822 58.7167 164.291 59.4281 163.065 59.4281Z" fill="black"/>
<path d="M162.928 51.5277C162.833 51.7007 162.75 51.9595 162.928 52.1666C162.973 52.2186 163.029 52.2598 163.093 52.2869C163.156 52.3141 163.225 52.3265 163.294 52.3234C163.639 52.3234 164.452 52.3056 164.764 52.3426C165.208 52.3958 165.967 52.4594 165.967 52.4594C166.016 52.4572 166.065 52.445 166.109 52.4235C166.154 52.402 166.194 52.3717 166.227 52.3344C166.259 52.2971 166.284 52.2535 166.299 52.2064C166.315 52.1592 166.32 52.1095 166.316 52.0601C166.291 51.6963 165.693 50.8252 163.263 51.2911C163.193 51.3029 163.127 51.3302 163.068 51.3712C163.01 51.4122 162.962 51.4656 162.928 51.5277Z" fill="black"/>
<path d="M179.16 48.268C179.881 47.9668 180.679 47.8986 181.442 48.0728L181.561 47.6454C180.833 47.4675 180.071 47.4905 179.355 47.712C179.633 47.338 179.822 46.9058 179.909 46.448C179.995 45.9902 179.977 45.5188 179.855 45.0692C179.115 42.7295 175.743 42.91 174.154 43.1362C173.759 43.1555 173.398 43.1998 173.106 43.2427C169.735 43.7544 168.849 43.6745 167.589 43.114C164.412 41.7032 163.479 41.7431 162.454 42.2267C159.827 43.4749 160.264 46.8113 160.994 48.1083C162.309 50.4553 165.993 49.3003 167.108 48.8847C166.477 49.4068 164.823 50.2497 160.956 49.8283L160.907 50.2719C161.58 50.3484 162.256 50.3879 162.933 50.3902C165.314 50.3902 166.586 49.8297 167.234 49.355C167.182 49.6168 167.121 49.9939 167.05 50.5381C166.802 52.4326 168.273 53.8376 168.273 53.8376L168.126 55.349L170.153 55.7143C170.354 54.3833 171.484 53.5655 172.395 53.6616C174.134 53.845 174.207 55.5102 173.716 56.6534C173.356 57.4934 172.542 58.0584 172.542 58.0584C172.542 58.0584 173.429 58.7105 175.056 59.0063C176.518 59.2725 176.863 59.0196 176.863 59.0196L179.673 53.4457C181.761 50.1921 179.574 49.0814 178.621 48.7664C180.948 48.3449 182.345 50.2586 182.412 50.3518L182.774 50.0959C182.765 50.0752 181.413 48.2059 179.16 48.268ZM176.645 43.5015C177.873 43.6183 179.066 44.0487 179.433 45.2052C179.569 45.738 179.538 46.2998 179.343 46.8141C179.149 47.3285 178.801 47.7705 178.346 48.0802C178.822 45.3206 177.9 44.0487 176.645 43.5045V43.5015Z" fill="black"/>
<path d="M167.408 63.6667C168.566 63.4049 169.165 63.3576 170.728 62.3638C170.715 62.4614 170.063 64.7552 167.438 66.0241L167.408 63.6667Z" fill="black"/>
<path d="M171.247 55.741L170.825 55.6049C170.979 55.1707 171.298 54.8146 171.713 54.614C172.167 54.4159 172.702 54.4558 173.302 54.7324L173.116 55.1346C172.635 54.9128 172.229 54.8743 171.89 55.0207C171.591 55.1698 171.361 55.4275 171.247 55.741Z" fill="black"/>
<path d="M199.02 97.6072C198.083 102.449 193.105 103.671 193.105 103.671L194.732 120.826C194.732 120.826 189.555 122.896 178.464 122.896C166.632 122.896 156.217 120.826 156.217 120.826L158.222 104.583L157.738 99.2828L157.315 94.6479L157.199 94.7411L146.076 103.521C140.012 108.106 137.139 102.248 137.139 102.248L131.435 87.4027C133.777 80.5303 139.992 80.8675 139.992 80.8675L142.72 86.3394L153.938 72.5856C154.801 71.528 155.921 70.7097 157.191 70.209L167.1 66.3032L178.444 65.1201L187.143 68.5216C188.428 69.0239 189.592 69.7939 190.557 70.7804C191.521 71.7669 192.265 72.9474 192.738 74.2435C195.203 81.0109 199.705 94.0696 199.02 97.6072Z" fill="#455A64"/>
<path d="M143.061 85.5976L139.816 89.9062L140.289 90.2621L143.533 85.9535L143.061 85.5976Z" fill="black"/>
<path d="M163.822 89.1777L157.738 99.2846L157.315 94.6497L157.198 94.7428L163.822 89.1777Z" fill="black"/>
<path d="M192.354 92.1225L191.766 92.1826L192.943 103.711L193.531 103.651L192.354 92.1225Z" fill="black"/>
<path d="M153.306 67.4082L153.04 67.7632L154.223 68.6505L154.489 68.2956L153.306 67.4082Z" fill="black"/>
<path d="M155.896 64.0887L155.638 64.4497L156.673 65.189L156.931 64.828L155.896 64.0887Z" fill="black"/>
<path d="M157.068 63.6299L156.822 63.999L157.709 64.5905L157.956 64.2213L157.068 63.6299Z" fill="black"/>
<path d="M38.649 68.4219V68.3716C38.649 68.3716 40.6972 68.8952 41.5254 69.0046C45.0393 69.466 44.0499 63.5755 44.0499 63.5755C44.576 63.4264 45.0824 63.2149 45.5584 62.9455C45.6271 62.9077 45.6851 62.8532 45.727 62.7869C45.7689 62.7207 45.7933 62.6449 45.7981 62.5667C45.8028 62.4884 45.7876 62.4103 45.754 62.3395C45.7204 62.2687 45.6693 62.2075 45.6057 62.1617C44.7539 61.5435 43.9242 60.7967 43.9242 60.7967C44.3028 56.252 42.2826 55.1162 42.2826 55.1162L31.4245 53.7275L29.4354 63.827C29.4354 66.3529 27.4492 76.8886 27.4492 76.8886L38.7702 78.3823L38.6963 70.8399V70.7822L38.649 68.4219Z" fill="#F9C19E"/>
<path d="M43.8104 64.5542L43.5147 65.6605C42.1038 65.6605 42.0254 64.3945 42.0254 64.3945L43.8104 64.5542Z" fill="white"/>
<path d="M43.2848 60.2921C43.1732 60.6216 42.9354 60.8934 42.6237 61.0478C42.4354 61.1359 42.2296 61.1799 42.0218 61.1765C41.7423 61.1913 41.4659 61.112 41.2369 60.9511C41.0079 60.7902 40.8395 60.5571 40.7588 60.2891C40.7588 60.2891 41.5263 59.3692 42.461 59.6813C42.7881 59.8023 43.0739 60.0142 43.2848 60.2921Z" fill="white"/>
<path d="M43.2852 60.2919C43.1736 60.6214 42.9359 60.8932 42.6241 61.0476C42.4366 61.0497 42.2557 60.9785 42.1198 60.8493C41.9839 60.72 41.9038 60.5429 41.8965 60.3555C41.9005 60.1961 41.9586 60.0428 42.0612 59.9207C42.1639 59.7987 42.305 59.7153 42.4614 59.6841C42.7882 59.8043 43.0739 60.0152 43.2852 60.2919Z" fill="black"/>
<path d="M40.2531 58.8471C40.7929 58.6578 41.9301 58.3517 42.7302 58.7702C42.7761 58.7932 42.8268 58.8052 42.8781 58.8052C42.9295 58.8052 42.9801 58.7932 43.026 58.7702C43.0824 58.7409 43.1294 58.6963 43.1616 58.6415C43.1938 58.5866 43.2097 58.5238 43.2077 58.4602C43.2057 58.3967 43.1858 58.335 43.1502 58.2823C43.1147 58.2296 43.0649 58.188 43.0068 58.1624C42.427 57.8991 41.1922 57.556 40.1466 58.7096C40.1332 58.7251 40.1256 58.7447 40.125 58.7652C40.1245 58.7857 40.131 58.8057 40.1436 58.8219C40.1561 58.8381 40.1739 58.8494 40.1938 58.854C40.2138 58.8586 40.2347 58.8562 40.2531 58.8471Z" fill="black"/>
<path d="M46.2251 51.4171L45.7814 51.3654C45.6511 52.2246 45.3247 53.0424 44.8276 53.7553C45.0784 53.0812 45.1794 52.3605 45.1233 51.6434C45.039 50.0166 43.2008 46.7334 39.4414 48.4874C38.843 48.8265 38.3069 49.2651 37.856 49.7844C38.4224 48.2227 39.9442 47.6282 39.962 47.6208L39.8052 47.2067C39.7194 47.2377 37.7554 47.9994 37.2911 50.129C35.9704 49.499 29.8122 46.9331 27.7891 52.862C25.2646 47.3797 17.1114 47.1934 17.0286 47.1919V47.6356C17.107 47.6356 24.3477 47.8056 27.0689 52.4243C25.346 50.5475 20.4715 46.0872 17.0952 51.389C16.0954 52.9611 14.76 56.6288 17.0952 58.8383C18.1629 59.8484 20.8368 60.292 24.0342 59.3677C21.9548 60.6721 19.4836 60.4517 19.4496 60.4488L19.4067 60.8924C19.4407 60.8924 19.6433 60.9146 19.9642 60.9146C20.8516 60.9146 22.6396 60.7667 24.2412 59.77C23.7975 60.536 23.4204 61.4914 23.453 62.466C23.4675 62.9061 23.5735 63.3384 23.7642 63.7353C23.9549 64.1323 24.2262 64.4852 24.5607 64.7716C25.3001 65.4371 26.4049 65.659 27.835 65.659C28.3703 65.659 28.953 65.6264 29.5756 65.5732C30.3008 65.6345 31.0311 65.5771 31.7378 65.4031C32.1326 65.3129 33.1782 64.9594 32.7479 64.1401C32.3515 63.3888 31.2793 62.568 31.8605 60.857C32.041 60.3275 32.807 59.4047 34.0064 60.2255C34.5181 60.576 34.8938 61.3628 34.6379 62.6243C34.6379 62.6243 39.1826 61.4885 37.1624 55.175C37.1624 55.175 40.9513 56.506 43.3028 55.3687C45.8243 54.6263 46.2103 51.5487 46.2251 51.4171ZM26.7287 63.9493C25.7157 63.5589 25.0886 63.0029 24.8638 62.2885C24.5518 61.2918 25.065 60.1619 25.5353 59.4062C25.5382 60.3941 25.6758 62.4719 26.7287 63.9493ZM24.8579 64.4418C24.5685 64.1948 24.3335 63.8903 24.168 63.5476C24.0025 63.2049 23.9101 62.8315 23.8966 62.4512C23.8567 61.2533 24.5414 60.0436 25.096 59.2671C24.5976 60.0938 24.0889 61.3006 24.4409 62.4202C24.7603 63.4391 25.7246 64.1727 27.3055 64.603C27.5744 64.8488 27.8785 65.0532 28.2076 65.2094C26.498 65.2449 25.4805 65.0068 24.8579 64.4418Z" fill="black"/>
<path d="M38.647 68.3744C37.7804 68.0934 36.2024 67.3731 35.3564 66.2847C35.3727 66.3749 35.6522 68.9822 38.6943 70.8397L38.647 68.3744Z" fill="black"/>
<path d="M33.4217 64.63C33.4827 64.7298 33.5719 64.8093 33.6781 64.8584C33.7843 64.9075 33.9026 64.9241 34.0182 64.906C34.1338 64.8878 34.2414 64.8359 34.3274 64.7566C34.4134 64.6773 34.474 64.5743 34.5015 64.4606C34.529 64.3469 34.5222 64.2276 34.4819 64.1178C34.4416 64.0079 34.3696 63.9125 34.2751 63.8436C34.1806 63.7747 34.0677 63.7353 33.9509 63.7305C33.834 63.7257 33.7183 63.7556 33.6184 63.8166C33.5521 63.857 33.4944 63.9102 33.4486 63.973C33.4028 64.0358 33.3698 64.107 33.3515 64.1825C33.3333 64.258 33.3301 64.3364 33.3421 64.4132C33.3541 64.49 33.3812 64.5636 33.4217 64.63Z" fill="#0A0A09"/>
<path d="M33.3455 64.5054C33.4065 64.6053 33.4958 64.6848 33.6019 64.7339C33.7081 64.783 33.8264 64.7996 33.942 64.7815C34.0576 64.7633 34.1652 64.7113 34.2512 64.6321C34.3372 64.5528 34.3978 64.4498 34.4253 64.3361C34.4528 64.2224 34.446 64.1031 34.4057 63.9932C34.3654 63.8834 34.2934 63.788 34.1989 63.7191C34.1044 63.6501 33.9916 63.6108 33.8747 63.606C33.7578 63.6012 33.6421 63.6311 33.5422 63.692C33.4759 63.7325 33.4182 63.7857 33.3724 63.8485C33.3266 63.9112 33.2936 63.9825 33.2754 64.058C33.2571 64.1335 33.2539 64.2119 33.2659 64.2887C33.278 64.3655 33.305 64.4391 33.3455 64.5054Z" fill="#455A64"/>
<path d="M25.1109 59.3646C24.9106 58.1051 25.0305 56.8155 25.4595 55.6145C25.8886 54.4135 26.6129 53.3397 27.5659 52.4922L27.9356 52.9536C27.0723 53.7438 26.4165 54.7341 26.026 55.8374C25.6356 56.9407 25.5224 58.123 25.6965 59.2804L25.1109 59.3646Z" fill="#FBD15B"/>
<path d="M65.5493 73.4518C65.5493 73.4518 64.0349 73.5775 64.1769 71.7688C64.1769 71.7688 64.094 71.9655 63.9506 72.2834L63.9195 72.3544C63.4019 73.4991 62.2055 75.9999 61.2575 76.8562L61.2131 77.0129L58.7892 85.5817L52.5068 83.6192L54.7784 75.5962L55.37 73.5257C55.256 71.7662 55.3829 69.9993 55.7471 68.2741L56.7143 64.8519C56.7143 64.8519 58.1326 65.0679 57.6993 67.9029L59.3749 63.9424L62.1478 59.3682C62.1478 59.3682 63.1032 60.5616 62.4968 62.0539L61.4276 64.5221L60.629 66.6976C60.6852 66.6414 62.1951 65.1462 62.6802 67.2788C62.6802 67.2788 63.9003 66.8854 64.3203 68.6675C64.3159 68.6675 65.5848 68.1026 65.5493 73.4518Z" fill="#F9C19E"/>
<path d="M63.9491 69.7066L63.7109 72.4678L64.153 72.5059L64.3911 69.7447L63.9491 69.7066Z" fill="black"/>
<path d="M63.5817 72.6069C63.2603 72.6154 62.9451 72.5171 62.6855 72.3274C62.3565 72.0616 62.1391 71.6822 62.0762 71.264V71.233L62.5627 68.1968L63.0064 68.2663L62.5302 71.2359C62.5829 71.5258 62.7364 71.7877 62.9635 71.9754C63.0992 72.0647 63.2518 72.1251 63.4118 72.1528C63.5719 72.1805 63.7359 72.175 63.8937 72.1366L63.9677 72.5802C63.84 72.6002 63.7109 72.6091 63.5817 72.6069Z" fill="black"/>
<path d="M61.6914 71.5776C61.4707 71.5809 61.2535 71.5226 61.0643 71.409C60.5526 71.0969 60.4728 70.4654 60.4609 70.4388V70.4166L60.6769 67.6821L61.1205 67.7161L60.909 70.4004C60.9515 70.6546 61.0929 70.8817 61.3024 71.0318C61.5272 71.1694 61.8378 71.1664 62.2253 71.0318L62.3731 71.4504C62.1548 71.5315 61.9242 71.5745 61.6914 71.5776Z" fill="black"/>
<path d="M60.4137 75.754L59.97 75.6948C60.4551 72.0922 58.216 69.2778 58.1953 69.2497L58.5399 68.9702C58.6405 69.09 60.9239 71.9635 60.4137 75.754Z" fill="black"/>
<path d="M47.3586 130.366H12.3086L13.8112 124.583L15.2664 118.978L45.2881 121.64L45.6667 123.236L47.3586 130.366Z" fill="#181B3F"/>
<path d="M45.6671 123.236C36.4313 126.293 21.2489 125.32 13.8115 124.583L15.2668 118.978L45.2885 121.64L45.6671 123.236Z" fill="black"/>
<path d="M61.2151 77.0125L58.7912 85.5813L52.5088 83.6188L54.7804 75.5957C56.0522 75.9181 59.257 76.6014 61.2151 77.0125Z" fill="black"/>
<path d="M63.4055 79.713L56.0036 100.277C55.6496 101.259 55.0366 102.128 54.2296 102.79C53.4225 103.453 52.4514 103.885 51.419 104.041L43.146 105.298L45.6601 122.158C45.6601 122.158 39.0051 123.784 28.533 123.243C22.5966 122.937 13.7158 121.566 13.7158 121.566L15.6384 112.693C15.6384 112.693 15.3618 112.704 14.8989 112.71C12.5608 112.737 5.74897 112.4 3.95506 110.474C2.03249 108.404 3.21561 103.967 3.21561 103.967C3.21561 103.967 8.36959 81.0869 13.5679 75.72C16.2388 72.9633 27.9133 70.248 27.9133 70.248C27.9133 70.248 38.7093 78.5299 38.8572 71.5791L44.5598 75.2763C45.2825 75.7443 45.9049 76.3515 46.3906 77.0624C46.8763 77.7734 47.2157 78.5739 47.389 79.4172L49.2095 88.2907L54.0899 76.0158L63.4055 79.713Z" fill="#FBD15B"/>
<path d="M43.4323 105.791L42.8496 105.693L43.904 99.3636L44.0017 99.2926C47.1074 97.0373 46.8471 94.1371 46.1032 89.9755C45.3726 85.8819 44.7722 82.4671 44.7722 82.4331L45.3549 82.3311C45.3549 82.3651 45.9464 85.7799 46.6859 89.8735C47.4372 94.0839 47.7211 97.268 44.4483 99.7052L43.4323 105.791Z" fill="black"/>
<path d="M43.6596 91.4749L30.2441 114.442L45.1724 123.162L58.5878 100.195L43.6596 91.4749Z" fill="black"/>
<path d="M42.2651 91.7195L28.8496 114.687L43.7778 123.406L57.1933 100.439L42.2651 91.7195Z" fill="#004DAC"/>
<path d="M38.983 102.006H35.9749L39.548 103.322L42.3667 106.143C42.3667 106.143 41.2398 108.213 37.8561 104.826L35.2236 104.639L37.6683 105.391L40.2992 107.834C40.2992 107.834 39.3601 109.151 37.1033 107.459L35.4115 107.083L37.1033 108.022L38.2317 109.339C38.2317 109.339 37.6683 110.279 35.9749 108.775L32.5912 108.398C32.5912 108.398 29.2075 109.191 27.14 108.439L26.72 108.527L25.1553 108.855L25.3978 102.383H26.3872C26.3872 102.383 28.4577 101.443 32.779 100.504C32.779 100.504 36.0163 98.4331 38.6473 97.8711L37.6653 99.563L39.545 99.7508L43.4922 102.006C43.4922 102.006 41.9911 103.887 38.983 102.006Z" fill="#F9C19E"/>
<path d="M26.72 108.526L25.1553 108.854L25.3978 102.383H26.3428L26.72 108.526Z" fill="black"/>
<path d="M15.6363 112.693L25.397 111.953V112.693L15.0684 115.31L15.6363 112.693Z" fill="black"/>
<path d="M15.6456 112.989L15.6264 112.397C19.4434 112.27 23.75 111.806 24.8178 111.689L25.2363 102.759L14.708 101.857L21.7387 89.4771L22.2534 89.7728L15.6782 101.351L25.8545 102.224L25.3901 112.218L25.1402 112.248C25.0855 112.254 20.0439 112.842 15.6456 112.989Z" fill="black"/>
<path d="M197.395 132.953H9.53125V139.312H197.395V132.953Z" fill="black"/>
<path d="M204.293 128.073H2.63379V133.693H204.293V128.073Z" fill="#07498B"/>
<path d="M206.927 139.017H0V139.757H206.927V139.017Z" fill="black"/>
</g>
<defs>
<clipPath id="clip0_978_4044">
<rect width="206.927" height="139.756" fill="white"/>
</clipPath>
</defs>
</svg>
