<svg width="150" height="150" viewBox="0 0 150 150" fill="none" xmlns="http://www.w3.org/2000/svg">
<g clip-path="url(#clip0_977_3268)">
<path d="M53.4713 140.777C48.4954 142.807 46.2641 149.863 54.8595 148.967C63.4549 148.071 72.0527 145.942 78.7516 147.502C85.4504 149.063 97.8901 150.596 102.389 149.741C111.237 148.061 109.594 142.975 102.517 140.768C96.0889 138.763 77.8717 139.007 73.1549 138.76C68.3305 138.514 59.5323 138.304 53.4713 140.777Z" fill="#E4E6EB"/>
<path d="M146.945 58.8508C146.492 56.0971 145.859 53.376 145.051 50.7048C144.358 48.4131 143.542 46.1601 142.607 43.9555C136.11 28.6442 124.134 16.3023 109.017 9.33995C108.402 9.05426 107.773 8.78321 107.145 8.51461C100.351 5.64143 93.1243 3.9247 85.7632 3.43557C84.2504 3.33058 82.7327 3.28174 81.2003 3.28174C79.734 3.28174 78.2733 3.32813 76.8183 3.42092C69.4973 3.88642 62.3054 5.56916 55.5388 8.39984C55.4459 8.43403 55.3506 8.47798 55.2553 8.51461C39.2792 15.2848 26.5612 27.9927 19.7863 43.9555C18.8516 46.1601 18.0358 48.4131 17.3423 50.7048C16.5341 53.376 15.9014 56.0971 15.4482 58.8508C14.8383 62.4949 14.5334 66.1834 14.5366 69.8781C14.5366 70.7181 14.5521 71.5557 14.5831 72.3908C14.6965 75.4636 15.0231 78.5249 15.5607 81.5526C15.7236 82.5065 15.9134 83.4589 16.1301 84.4095C16.8403 87.5962 17.7871 90.7255 18.9626 93.7716C19.2241 94.4504 19.4954 95.1268 19.7814 95.8007C26.1882 110.893 37.9222 123.107 52.7527 130.121C53.5788 130.512 54.413 130.885 55.2553 131.242C62.105 134.139 69.395 135.862 76.8183 136.335C78.2733 136.428 79.734 136.475 81.2003 136.475C82.7327 136.475 84.2504 136.426 85.7632 136.321C89.4695 136.075 93.1485 135.517 96.761 134.653C100.307 133.802 103.776 132.658 107.133 131.234C107.622 131.024 108.111 130.812 108.599 130.59C119.918 125.508 129.587 117.364 136.514 107.077C143.441 96.791 147.349 84.7733 147.796 72.3835C147.827 71.5484 147.842 70.7108 147.842 69.8708C147.85 66.179 147.55 62.4929 146.945 58.8508ZM113.815 117.421C110.096 119.984 106.087 122.1 101.871 123.723C96.7071 125.709 91.2822 126.936 85.7656 127.366C84.2626 127.486 82.7376 127.545 81.2028 127.545C79.7364 127.545 78.27 127.491 76.8208 127.384C66.4081 126.601 56.407 122.993 47.8966 116.947C39.9115 111.293 33.4889 103.712 29.2272 94.9095C27.766 91.9005 26.5736 88.7685 25.664 85.5499C25.4 84.6293 25.1605 83.6916 24.943 82.7515C24.2512 79.7377 23.8042 76.673 23.6061 73.5873C23.5279 72.3664 23.4888 71.1259 23.4888 69.8781C23.4885 66.7701 23.7386 63.6671 24.2367 60.5991C24.7199 57.6318 25.4365 54.7072 26.38 51.8524C29.1632 43.454 33.8366 35.8048 40.0408 29.4929C46.2451 23.1809 53.8152 18.3742 62.1693 15.4421C66.8968 13.7834 71.822 12.7523 76.8183 12.3752C78.2651 12.2677 79.7291 12.214 81.2003 12.214C82.7351 12.214 84.2601 12.2726 85.7632 12.3923C95.9541 13.1951 105.746 16.6991 114.13 22.543C121.782 27.843 128.033 34.9175 132.349 43.1603C136.664 51.4031 138.916 60.5683 138.909 69.8708C138.909 71.1186 138.87 72.3517 138.792 73.58C138.596 76.6657 138.149 79.7305 137.458 82.7442C137.323 83.3327 137.179 83.9138 137.03 84.495C133.495 97.8957 125.254 109.579 113.812 117.413L113.815 117.421Z" fill="#E4E6EB"/>
<path d="M59.6349 123.36C61.0866 127.042 62.6996 130.71 64.474 134.365C61.3286 133.551 58.2474 132.507 55.2554 131.242C54.4114 130.885 53.5772 130.513 52.7528 130.124C50.9214 125.758 49.3011 121.362 47.8917 116.938C44.7802 107.222 42.6851 97.211 41.6401 87.0641C41.5489 86.1785 41.4674 85.2905 41.3957 84.4C41.1464 81.4047 40.9917 78.402 40.9314 75.3921C40.694 62.695 42.1078 50.0208 45.1374 37.6876C46.4925 32.1457 48.1561 26.6837 50.1206 21.3272C51.8974 16.4753 53.7597 12.1508 55.5389 8.4074C59.4154 6.78613 63.4387 5.53997 67.5533 4.68604C65.955 7.54299 64.0854 11.1618 62.1766 15.4521C58.6211 23.4221 55.7997 31.6992 53.7475 40.1807C50.8739 51.9225 49.5591 63.9912 49.8371 76.0758C49.9105 79.0792 50.0864 82.077 50.365 85.0691C51.5658 97.9636 54.6558 110.727 59.6349 123.36Z" fill="#E4E6EB"/>
<path d="M121.797 75.3749C121.683 78.3279 121.475 81.2752 121.174 84.2168C121.174 84.2778 121.174 84.3389 121.154 84.4024C119.982 95.6573 117.522 106.741 113.822 117.436C112.302 121.855 110.57 126.251 108.624 130.622C108.135 130.841 107.647 131.054 107.158 131.264C103.799 132.688 100.328 133.831 96.7808 134.682C98.6382 131.051 100.338 127.404 101.879 123.743C107.234 111.013 110.662 98.1272 112.161 85.0861C112.506 82.0908 112.75 79.0881 112.894 76.0781C113.472 63.0506 112.191 50.0072 109.089 37.3407C107.342 30.1249 105.038 23.0549 102.199 16.1944C100.452 11.9748 98.6919 8.2901 97.0911 5.20605C100.532 6.04793 103.9 7.16417 107.163 8.54405C107.791 8.81022 108.414 9.0837 109.032 9.37184C110.758 13.2788 112.508 17.701 114.14 22.5822C115.418 26.3988 116.623 30.4987 117.686 34.8574C120.941 48.1056 122.325 61.7436 121.797 75.3749Z" fill="#E4E6EB"/>
<path d="M85.7657 3.43557V136.321C84.2537 136.425 82.7319 136.476 81.2004 136.475C79.734 136.475 78.2733 136.428 76.8184 136.335V3.42092C78.2701 3.32813 79.7307 3.28174 81.2004 3.28174C82.7303 3.28174 84.252 3.33302 85.7657 3.43557Z" fill="#E4E6EB"/>
<path d="M143.548 83.6211C143.433 86.693 143.107 89.7534 142.57 92.7805C139.598 93.1907 136.621 93.5732 133.638 93.9281L133.188 93.9818C127.762 94.6167 122.328 95.1621 116.884 95.6179C113.886 95.8718 110.886 96.094 107.883 96.2845C99.0849 96.8543 90.2867 97.1798 81.4885 97.2612C79.9683 97.2791 78.4466 97.2873 76.9232 97.2857H76.2951L72.5436 97.2661C63.7258 97.1847 54.9064 96.8591 46.0854 96.2894C43.0989 96.0957 40.1099 95.8751 37.1185 95.6276C34.4791 95.4079 31.8445 95.1637 29.2148 94.8951C26.3635 94.6118 23.5123 94.3017 20.661 93.9647C20.0915 93.8988 19.5172 93.8304 18.9502 93.7596C17.7803 90.7171 16.8384 87.5919 16.1323 84.4098C17.2052 84.549 18.2732 84.6857 19.3486 84.8152C21.4536 85.0756 23.5587 85.3198 25.6637 85.5477C29.328 85.9498 32.994 86.3071 36.6615 86.6197C39.6301 86.8753 42.5987 87.1015 45.5673 87.2985C54.5578 87.9025 63.5523 88.2459 72.551 88.329C73.8023 88.329 75.0585 88.3485 76.3147 88.3485H76.9305C78.4539 88.3485 79.9757 88.3404 81.4958 88.3241C90.5303 88.2362 99.5681 87.8878 108.609 87.279C111.586 87.0787 114.56 86.85 117.532 86.5928C123.205 86.1045 128.869 85.5119 134.525 84.8152L137.025 84.5026C139.202 84.2193 141.376 83.9255 143.548 83.6211Z" fill="#E4E6EB"/>
<path d="M146.945 58.8511C146.916 59.0611 146.879 59.2735 146.84 59.4811C143.95 59.8815 141.057 60.2535 138.161 60.597C137.917 60.6287 137.692 60.6556 137.458 60.6824C132.035 61.3173 126.602 61.8635 121.156 62.3209C118.155 62.5716 115.154 62.7938 112.153 62.9875C103.355 63.5573 94.5565 63.8829 85.7583 63.9643C84.2382 63.9789 82.7164 63.9863 81.193 63.9863H80.5649C79.3136 63.9863 78.0623 63.9741 76.8134 63.9667C67.9973 63.8853 59.1787 63.5598 50.3576 62.99C47.3679 62.7946 44.3789 62.5732 41.3908 62.3258C35.8935 61.8684 30.4093 61.3173 24.9381 60.6727L24.2367 60.5897C21.3382 60.2478 18.4453 59.8766 15.5582 59.4762C15.5191 59.2686 15.4825 59.0562 15.4531 58.8462C15.9084 56.0965 16.5427 53.3795 17.3521 50.7124C19.4376 50.9957 21.5239 51.2667 23.611 51.5255C24.5373 51.6379 25.4587 51.7502 26.3849 51.8552C31.2256 52.4233 36.0736 52.9117 40.9289 53.3203C43.8991 53.5742 46.8677 53.7997 49.8346 53.9967C58.8251 54.6023 67.8197 54.9457 76.8183 55.0271C78.0696 55.0385 79.3242 55.045 80.582 55.0467H81.1979C82.7213 55.0467 84.243 55.0385 85.7632 55.0223C94.8009 54.9343 103.844 54.586 112.891 53.9771C115.866 53.7769 118.84 53.549 121.811 53.2934C126.558 52.8832 131.298 52.4005 136.033 51.8454C136.957 51.7404 137.883 51.6281 138.804 51.5158C140.893 51.2569 142.979 50.9859 145.063 50.7026C145.867 53.3749 146.496 56.0969 146.945 58.8511Z" fill="#E4E6EB"/>
<path d="M39.5823 104.907C27.3039 89.4912 13.5982 69.4559 18.034 61.5345C18.9724 59.8545 22.4013 57.4615 29.2028 55.7791C34.5526 54.4556 43.825 53.1712 57.6333 54.5728C67.1892 55.5496 71.4368 48.1532 75.545 41.0059C79.013 34.977 82.5958 28.7406 89.3509 28.0251C96.106 27.3096 104.591 29.6172 108.292 36.3835C108.712 37.1599 109.077 37.9644 109.386 38.7912C110.522 38.7015 111.665 38.7771 112.779 39.0158C113.568 39.1746 132.179 43.0644 136.465 54.7145C137.056 56.2091 137.272 57.8253 137.094 59.4223C136.99 60.2145 136.779 60.9891 136.468 61.725C140.07 65.0312 141.813 68.7697 141.651 72.8403C141.439 78.1171 138.076 81.3476 137.052 82.2121C135.292 83.6967 133.955 83.748 133.462 83.6991C132.614 83.6186 131.099 83.2474 130.478 81.6748C129.967 80.3855 130.233 78.6738 131.072 77.7679C132.318 76.442 134.896 76.3883 137.059 78.5908L136.922 78.7764C134.848 76.6617 132.389 76.6935 131.211 77.9486C130.444 78.7642 130.199 80.3904 130.666 81.5625C131.243 83.0276 132.675 83.3695 133.479 83.4452C133.948 83.4891 135.226 83.4452 136.93 82.0045C137.937 81.1547 141.236 77.9852 141.444 72.8183C141.603 68.843 139.897 65.1851 136.373 61.935C135.579 63.7256 134.2 65.1937 132.462 66.0983C130.15 67.2558 126.206 67.6269 124.673 64.831C123.696 63.0314 123.855 60.2281 125.033 58.829C127.327 56.1063 133 58.6263 136.214 61.493L136.289 61.5614C136.582 60.8582 136.779 60.1191 136.876 59.3637C137.049 57.812 136.838 56.2416 136.263 54.7902C132.02 43.2598 113.517 39.3943 112.732 39.2356C111.659 39.0052 110.558 38.9279 109.462 39.0061C110.462 41.7678 111.061 45.2987 109.518 47.7332C108.431 49.4425 106.192 50.7733 104.02 49.9748C102.008 49.2423 100.488 46.8786 100.635 44.72C100.745 43.0742 101.928 40.7862 106.923 39.2405C107.647 39.0171 108.391 38.8658 109.144 38.7887C108.851 38.0009 108.504 37.234 108.106 36.4934C104.44 29.8125 96.0571 27.5392 89.3558 28.2473C82.7009 28.953 79.3014 34.8647 75.7039 41.1232C71.5638 48.3266 67.2796 55.7742 57.604 54.7975C43.8201 53.3959 34.5673 54.6778 29.2346 55.9964C22.4844 57.6691 19.0677 60.0865 18.1928 61.6493C13.8475 69.4559 27.5165 89.3886 39.7362 104.738L39.5823 104.907ZM127.865 57.9304C126.775 57.9304 125.834 58.2502 125.191 59.0121C124.075 60.3356 123.921 62.9972 124.859 64.7089C126.325 67.3827 130.148 67.0067 132.394 65.8834C134.093 64.9933 135.438 63.5505 136.206 61.7934L136.101 61.6981C133.931 59.7642 130.478 57.9304 127.865 57.9304ZM109.245 39.0476C108.479 39.1199 107.723 39.2713 106.989 39.4993C102.101 41.0084 100.957 43.1938 100.852 44.7615C100.715 46.8126 102.169 49.0567 104.093 49.7624C106.175 50.5291 108.321 49.2594 109.364 47.6087C110.855 45.2548 110.215 41.7263 109.245 39.0476Z" fill="#2E3433" stroke="#2E3433" stroke-width="0.42418" stroke-miterlimit="10"/>
<path d="M98.6355 19.3567C98.6033 19.3569 98.5715 19.3507 98.5417 19.3386C98.5119 19.3264 98.4848 19.3085 98.462 19.2859L96.5068 17.3324C96.4812 17.3105 96.4605 17.2836 96.4458 17.2533C96.4311 17.223 96.4229 17.19 96.4216 17.1563C96.4203 17.1227 96.426 17.0892 96.4382 17.0578C96.4505 17.0265 96.4692 16.9981 96.493 16.9743C96.5168 16.9505 96.5453 16.9318 96.5766 16.9196C96.608 16.9073 96.6416 16.9016 96.6752 16.9029C96.7089 16.9042 96.7419 16.9125 96.7722 16.9271C96.8026 16.9418 96.8295 16.9625 96.8514 16.9881L98.5622 18.6827L99.7842 15.7232C99.7994 15.687 99.8231 15.6551 99.8533 15.63C99.8835 15.6049 99.9193 15.5875 99.9577 15.5791C99.9964 15.5703 100.037 15.5711 100.075 15.5813C100.113 15.5915 100.149 15.6109 100.178 15.6377L101.688 17.0565L103.301 13.6379C103.318 13.6008 103.344 13.5686 103.377 13.5443C103.41 13.52 103.449 13.5043 103.489 13.4987C103.529 13.4934 103.571 13.4982 103.608 13.5127C103.646 13.5272 103.68 13.5509 103.707 13.5817L105.173 15.291C105.197 15.3147 105.216 15.3431 105.229 15.3745C105.242 15.4059 105.248 15.4395 105.247 15.4734C105.246 15.5072 105.237 15.5404 105.223 15.571C105.208 15.6015 105.187 15.6287 105.162 15.6508C105.136 15.6729 105.106 15.6894 105.074 15.6993C105.041 15.7091 105.007 15.7122 104.974 15.7082C104.94 15.7042 104.908 15.6933 104.878 15.6761C104.849 15.659 104.824 15.6359 104.804 15.6084L103.582 14.1873L101.986 17.5692C101.97 17.6043 101.945 17.6351 101.915 17.6588C101.884 17.6826 101.848 17.6988 101.81 17.706C101.772 17.7129 101.733 17.7108 101.696 17.6997C101.659 17.6887 101.625 17.6691 101.598 17.6425L100.099 16.236L98.8799 19.2126C98.8642 19.2494 98.8398 19.2817 98.8087 19.3069C98.7776 19.332 98.7408 19.3491 98.7015 19.3567C98.6797 19.3613 98.6573 19.3613 98.6355 19.3567Z" fill="#2E3433"/>
<path d="M50.2599 68.4886C50.2438 68.4608 50.2333 68.4301 50.2291 68.3982C50.2249 68.3664 50.2271 68.334 50.2354 68.303L50.9686 65.639C50.9761 65.6071 50.9898 65.577 51.0092 65.5505C51.0285 65.524 51.053 65.5017 51.0811 65.4849C51.1093 65.468 51.1405 65.457 51.173 65.4525C51.2055 65.448 51.2385 65.4501 51.2702 65.4586C51.3019 65.4671 51.3315 65.4819 51.3573 65.5021C51.3832 65.5224 51.4046 65.5475 51.4205 65.5762C51.4364 65.6049 51.4463 65.6365 51.4497 65.6691C51.4531 65.7017 51.4499 65.7346 51.4403 65.7659L50.8098 68.0808L53.9869 67.6828C54.0258 67.6783 54.0653 67.6831 54.102 67.697C54.1386 67.7109 54.1714 67.7334 54.1975 67.7626C54.2236 67.7919 54.2423 67.8269 54.252 67.8649C54.2617 67.9028 54.2622 67.9425 54.2533 67.9807L53.7645 69.9952L57.538 69.6998C57.5783 69.6964 57.6189 69.7031 57.656 69.7193C57.6931 69.7355 57.7256 69.7607 57.7506 69.7926C57.7757 69.825 57.7923 69.8633 57.7987 69.9038C57.8051 69.9444 57.8011 69.9859 57.7872 70.0245L57.0296 72.144C57.0189 72.1743 57.0022 72.2022 56.9807 72.2261C56.9592 72.25 56.9331 72.2694 56.9041 72.2833C56.875 72.2971 56.8435 72.3051 56.8114 72.3067C56.7793 72.3084 56.7471 72.3037 56.7168 72.293C56.6865 72.2823 56.6585 72.2656 56.6346 72.2441C56.6107 72.2226 56.5913 72.1966 56.5775 72.1676C56.5636 72.1385 56.5556 72.1071 56.554 72.075C56.5523 72.0429 56.557 72.0107 56.5677 71.9804L57.1982 70.215L53.4688 70.5104C53.4302 70.5138 53.3913 70.508 53.3554 70.4934C53.3194 70.4789 53.2875 70.456 53.2622 70.4266C53.2369 70.3973 53.2189 70.3623 53.2098 70.3247C53.2007 70.287 53.2007 70.2478 53.2097 70.2101L53.6985 68.2102L50.5018 68.6107C50.4619 68.6156 50.4214 68.6106 50.3839 68.5961C50.3464 68.5816 50.313 68.5581 50.2867 68.5277C50.2764 68.5156 50.2674 68.5025 50.2599 68.4886Z" fill="#2E3433"/>
<path d="M47.3294 99.6491C46.9911 99.6491 46.6603 99.5488 46.379 99.361C46.0976 99.1732 45.8784 98.9062 45.7489 98.5939C45.6194 98.2815 45.5855 97.9379 45.6515 97.6063C45.7175 97.2747 45.8805 96.9702 46.1197 96.7311C46.359 96.4921 46.6638 96.3293 46.9957 96.2633C47.3275 96.1974 47.6715 96.2312 47.9841 96.3606C48.2967 96.49 48.5639 96.709 48.7519 96.9901C48.9398 97.2712 49.0402 97.6017 49.0402 97.9398C49.0402 98.3931 48.8599 98.8279 48.5391 99.1484C48.2183 99.469 47.7831 99.6491 47.3294 99.6491ZM47.3294 96.7188C47.0877 96.7188 46.8515 96.7904 46.6505 96.9246C46.4496 97.0588 46.2929 97.2494 46.2005 97.4725C46.108 97.6956 46.0838 97.9411 46.1309 98.1779C46.1781 98.4148 46.2945 98.6323 46.4654 98.8031C46.6362 98.9738 46.854 99.0901 47.091 99.1372C47.3281 99.1843 47.5738 99.1602 47.797 99.0677C48.0203 98.9753 48.2112 98.8189 48.3455 98.6181C48.4797 98.4173 48.5514 98.1812 48.5514 97.9398C48.5514 97.616 48.4226 97.3054 48.1935 97.0764C47.9643 96.8475 47.6535 96.7188 47.3294 96.7188Z" fill="#2E3433"/>
<path d="M128.766 33.4581C128.428 33.4581 128.097 33.3579 127.816 33.1701C127.535 32.9822 127.315 32.7153 127.186 32.403C127.056 32.0906 127.023 31.7469 127.089 31.4154C127.155 31.0838 127.317 30.7792 127.557 30.5402C127.796 30.3011 128.101 30.1383 128.433 30.0724C128.765 30.0064 129.108 30.0403 129.421 30.1697C129.734 30.299 130.001 30.5181 130.189 30.7992C130.377 31.0803 130.477 31.4108 130.477 31.7488C130.477 32.2022 130.297 32.6369 129.976 32.9575C129.655 33.278 129.22 33.4581 128.766 33.4581ZM128.766 30.5279C128.525 30.5279 128.288 30.5995 128.088 30.7337C127.887 30.8678 127.73 31.0585 127.637 31.2816C127.545 31.5047 127.521 31.7502 127.568 31.987C127.615 32.2239 127.731 32.4414 127.902 32.6122C128.073 32.7829 128.291 32.8992 128.528 32.9463C128.765 32.9934 129.011 32.9692 129.234 32.8768C129.457 32.7844 129.648 32.6279 129.782 32.4271C129.917 32.2264 129.988 31.9903 129.988 31.7488C129.988 31.425 129.86 31.1145 129.63 30.8855C129.401 30.6566 129.091 30.5279 128.766 30.5279Z" fill="#2E3433"/>
<path d="M30.5251 73.4581L29.2103 72.6059L30.5349 71.7707C30.562 71.7536 30.5855 71.7313 30.604 71.7051C30.6225 71.6788 30.6356 71.6492 30.6426 71.6179C30.6497 71.5867 30.6505 71.5543 30.645 71.5227C30.6395 71.4911 30.6278 71.4609 30.6106 71.4338C30.5935 71.4067 30.5711 71.3832 30.5449 71.3648C30.5186 71.3463 30.489 71.3332 30.4577 71.3261C30.4264 71.3191 30.394 71.3183 30.3624 71.3238C30.3307 71.3293 30.3005 71.3409 30.2734 71.3581L28.7581 72.3153L27.2551 71.3385C27.228 71.3209 27.1977 71.3088 27.166 71.3029C27.1342 71.297 27.1015 71.2975 27.0699 71.3043C27.0383 71.3111 27.0084 71.3241 26.9819 71.3426C26.9554 71.361 26.9328 71.3846 26.9154 71.4118C26.8805 71.4662 26.8686 71.5323 26.8823 71.5954C26.8961 71.6586 26.9343 71.7137 26.9887 71.7488L28.3036 72.601L26.9789 73.4385C26.9337 73.4665 26.8989 73.5085 26.8797 73.5581C26.8605 73.6077 26.8581 73.6622 26.8727 73.7133C26.8874 73.7644 26.9183 73.8094 26.9609 73.8413C27.0034 73.8733 27.0553 73.8904 27.1085 73.8903C27.1553 73.8902 27.2011 73.8766 27.2404 73.8512L28.7557 72.894L30.2587 73.8707C30.2981 73.8961 30.3439 73.9097 30.3907 73.9098C30.4436 73.9102 30.4952 73.8934 30.5378 73.862C30.5803 73.8306 30.6115 73.7862 30.6267 73.7356C30.6418 73.6849 30.6401 73.6307 30.6218 73.5811C30.6035 73.5315 30.5696 73.4892 30.5251 73.4605V73.4581Z" fill="#2E3433"/>
<path d="M115.279 102.953L113.964 102.101L115.288 101.264C115.315 101.246 115.339 101.224 115.357 101.198C115.376 101.172 115.389 101.142 115.396 101.111C115.403 101.079 115.404 101.047 115.398 101.016C115.393 100.984 115.381 100.954 115.364 100.927C115.347 100.9 115.325 100.876 115.298 100.858C115.272 100.839 115.242 100.826 115.211 100.819C115.18 100.812 115.147 100.811 115.116 100.817C115.084 100.822 115.054 100.834 115.027 100.851L113.512 101.808L112.009 100.831C111.982 100.814 111.951 100.802 111.92 100.796C111.888 100.79 111.856 100.791 111.824 100.797C111.793 100.804 111.763 100.817 111.737 100.835C111.71 100.853 111.688 100.876 111.67 100.903C111.653 100.93 111.641 100.96 111.635 100.992C111.629 101.024 111.629 101.056 111.636 101.087C111.643 101.119 111.655 101.149 111.674 101.175C111.692 101.202 111.715 101.224 111.742 101.242L113.057 102.094L111.732 102.929C111.687 102.957 111.652 102.999 111.633 103.049C111.614 103.098 111.611 103.153 111.626 103.204C111.641 103.255 111.672 103.3 111.714 103.332C111.757 103.364 111.809 103.381 111.862 103.381C111.909 103.381 111.955 103.367 111.994 103.342L113.509 102.387L115.012 103.364C115.051 103.389 115.097 103.403 115.144 103.403C115.185 103.403 115.225 103.392 115.261 103.373C115.297 103.353 115.327 103.325 115.349 103.29C115.385 103.236 115.397 103.17 115.384 103.107C115.37 103.044 115.332 102.989 115.279 102.953Z" fill="#2E3433"/>
<path d="M86.5573 15.4298C86.3617 14.8729 86.0568 14.3607 85.6604 13.9231C85.5505 13.801 85.4429 13.6936 85.3403 13.5984C85.3339 13.2517 85.293 12.9065 85.2181 12.5679C84.2217 11.7531 83.1253 11.0687 81.9554 10.5314C80.7041 9.92095 78.3628 8.74887 75.9921 9.71828L75.9335 9.74514C74.0688 10.5339 73.057 12.2065 72.837 12.5826C72.4044 13.3151 72.2138 14.0477 71.8594 15.4859C71.791 15.7618 71.7152 16.0598 71.6419 16.3821C71.4293 17.3173 71.1531 19.2073 70.9918 20.2426C70.8626 20.6797 70.6725 21.0964 70.4273 21.4806C70.1462 21.9153 69.8041 22.284 69.9018 22.6576C69.9701 22.8067 70.077 22.9349 70.2115 23.029C70.346 23.123 70.5032 23.1794 70.6668 23.1924C70.5519 23.7491 70.3075 24.0079 70.5715 24.2131C70.767 24.3669 70.8159 24.2472 72.2969 24.384C71.18 24.9212 70.9014 24.9432 70.7548 25.075C70.4346 25.3607 70.8085 25.8076 70.9283 26.8747C71.0383 27.805 70.8525 27.8514 70.9967 28.1127C71.3389 28.7134 72.6879 28.9478 74.1934 28.689L74.2521 29.5461C74.2814 29.9465 74.3083 30.3445 74.3351 30.745C74.4557 32.4592 74.5738 34.1685 74.6895 35.8729C76.3783 37.3819 78.7049 37.7067 80.4377 36.7397C82.1118 35.8069 82.5737 34.0366 82.6593 33.6777C82.2536 30.6058 81.8462 27.5348 81.4373 24.4646C82.2438 24.0592 83.0943 23.4659 83.5537 22.6478L83.5757 22.6283C85.3769 21.1388 87.4836 18.1207 86.5573 15.4298Z" fill="white" stroke="#2E3433" stroke-width="0.922131" stroke-linecap="round" stroke-linejoin="round"/>
<path d="M99.8577 130.771C99.8797 130.915 100.036 131.015 100.102 131.039C100.562 131.303 101.16 130.971 101.832 130.619C103.88 129.552 104.829 129.244 105.058 128.444C105.076 128.409 105.085 128.371 105.085 128.332C105.085 128.294 105.076 128.256 105.058 128.221C104.885 127.977 103.986 128.49 101.82 129.508C100.559 130.099 99.8039 130.429 99.8577 130.771Z" fill="#2E3433" stroke="#2E3433" stroke-width="0.842213" stroke-miterlimit="10"/>
<path d="M100.576 130.68L103.035 134.924C103.985 135.771 105.21 135.901 105.941 135.371C106.292 135.091 106.53 134.694 106.61 134.252C106.2 133.488 105.787 132.67 105.388 131.811C104.922 130.802 104.513 129.828 104.166 128.902C102.866 129.252 101.649 129.86 100.588 130.69L100.576 130.68Z" fill="white" stroke="#2E3433" stroke-width="0.842213" stroke-linecap="round" stroke-linejoin="round"/>
<path d="M63.2372 132.912C63.3032 132.807 63.5745 132.895 66.4266 134.009C69.2787 135.122 69.5866 135.264 69.5646 135.398C69.5084 135.708 67.7488 135.906 66.1431 135.317C64.3517 134.67 63.0613 133.188 63.2372 132.912Z" fill="#2E3433" stroke="#2E3433" stroke-width="0.842213" stroke-miterlimit="10"/>
<path d="M75.8823 72.552C76.0461 73.6875 76.2342 74.9206 76.4518 76.2441C77.5586 82.9979 79.0271 89.6876 80.8509 96.2843C81.0953 97.2097 81.3568 98.1059 81.606 98.9874C82.3683 101.782 83.2729 104.536 84.3164 107.238C86.6015 113.05 90.9933 121.804 99.9064 130.973L105.105 128.463C101.368 117.668 98.6795 111.902 96.8759 108.608C96.1322 107.285 95.479 105.913 94.9207 104.501C93.3321 100.465 92.9216 97.1072 92.5379 93.7741C91.8047 87.3227 91.3428 83.3865 91.135 81.5649C91.0788 81.0545 91.0397 80.7126 91.0226 80.5295C90.6658 77.0938 90.0768 72.0026 89.109 65.7197L78.71 71.0771L75.8823 72.552Z" fill="#96999E" stroke="#2E3433" stroke-width="0.842213" stroke-miterlimit="10"/>
<path d="M76.481 76.2612C77.5929 83.0152 79.0662 89.7049 80.8947 96.3014C81.1391 97.2268 81.3982 98.123 81.6475 99.0045C82.7546 97.4173 84.5069 94.7972 86.291 91.7083C89.0184 87.0102 90.2649 83.9359 90.6314 83.0153C90.8758 82.4317 91.0518 81.9384 91.1789 81.5917C90.5044 76.3108 89.829 71.0291 89.1528 65.7466L78.7514 71.104C78.0304 72.7449 77.2557 74.4981 76.481 76.2612Z" fill="#2E3433" stroke="#2E3433" stroke-width="0.842213" stroke-miterlimit="10"/>
<path d="M62.6504 140.535L63.0414 140.955H66.1428L68.1542 135.146C66.9134 134.397 65.5524 133.869 64.1314 133.583L62.6504 140.535Z" fill="white" stroke="#2E3433" stroke-width="0.842213" stroke-linecap="round" stroke-linejoin="round"/>
<path d="M63.2373 133.137C65.0034 134.58 67.2145 135.37 69.4963 135.371C70.2539 133.303 71.295 130.287 72.3361 126.58C73.3406 123.013 73.9565 120.346 74.5113 117.509C76.3858 107.949 75.7333 104.626 78.8517 97.6543C80.736 93.447 84.4117 86.9737 85.4748 85.1032C88.652 79.487 90.1379 77.448 90.2723 73.922C90.2723 73.8244 90.2894 73.3311 90.2479 72.6059C90.1232 70.2934 89.4511 65.6344 86.1616 64.1083C82.6545 62.4795 76.9601 64.7651 73.5997 70.4986C73.0815 72.3397 72.5732 74.2216 72.0746 76.1441C70.0193 84.0337 68.1179 92.5875 66.5171 101.761C65.9965 104.748 65.5053 107.578 64.9847 111.456C64.0127 118.646 63.4294 125.884 63.2373 133.137Z" fill="#96999E" stroke="#2E3433" stroke-width="0.842213" stroke-miterlimit="10"/>
<path d="M55.187 142.525L69.2739 142.303L67.4849 137.388L66.5905 138.059C66.3241 138.521 65.7497 139.456 65.3685 139.524H65.3343C65.0582 139.543 64.7836 139.471 64.5522 139.319C63.9094 138.916 63.819 136.958 63.4695 136.938C63.4206 136.938 63.3449 136.97 63.2471 137.163C63.1961 137.557 62.9914 137.914 62.6777 138.157C62.3847 138.317 62.0828 138.459 61.7734 138.584L61.4166 138.743C61.1551 138.86 60.9034 138.965 60.6639 139.068C60.5906 139.095 60.5172 139.126 60.4464 139.158L59.6447 139.488L59.2586 139.659C59.1682 139.695 59.0851 139.734 59.002 139.773C58.3079 140.098 55.187 140.772 55.011 141.886C54.9827 142.114 55.046 142.344 55.187 142.525Z" fill="#96999E"/>
<path d="M55.187 142.525L69.2739 142.303L67.4849 137.388L66.5905 138.059C66.3241 138.521 65.7497 139.456 65.3685 139.524H65.3343C65.0582 139.543 64.7836 139.471 64.5522 139.319C63.9094 138.916 63.819 136.958 63.4695 136.938C63.4206 136.938 63.3449 136.97 63.2471 137.163C63.1961 137.557 62.9914 137.914 62.6777 138.157C62.3847 138.317 62.0828 138.459 61.7734 138.584L61.4166 138.743C61.1551 138.86 60.9034 138.965 60.6639 139.068C60.5906 139.095 60.5172 139.126 60.4464 139.158L59.6447 139.488L59.2586 139.659C59.1682 139.695 59.0851 139.734 59.002 139.773C58.3079 140.098 55.187 140.772 55.011 141.886C54.9827 142.114 55.046 142.344 55.187 142.525Z" stroke="#2E3433" stroke-width="0.842213"/>
<path d="M69.4329 142.137L54.7691 142.394C54.693 142.456 54.6316 142.534 54.5894 142.623C54.5473 142.712 54.5254 142.809 54.5254 142.908C54.5254 143.006 54.5473 143.103 54.5894 143.192C54.6316 143.281 54.693 143.359 54.7691 143.422H69.4329C69.5247 143.317 69.5938 143.195 69.6358 143.063C69.6779 142.93 69.692 142.791 69.6773 142.652C69.6502 142.46 69.5649 142.28 69.4329 142.137Z" fill="#2E3433"/>
<path d="M61.407 138.738C61.406 138.743 61.406 138.748 61.407 138.753C61.5806 139.056 61.7297 139.371 61.9227 139.661C62.1122 139.956 62.3178 140.239 62.5386 140.511C62.5831 140.561 62.645 140.591 62.7115 140.596C62.778 140.602 62.8439 140.581 62.8955 140.539C62.9471 140.497 62.9805 140.436 62.9887 140.37C62.9969 140.304 62.9792 140.237 62.9394 140.184C62.7131 139.942 62.5009 139.686 62.304 139.42C62.106 139.153 61.9496 138.87 61.7688 138.592L61.407 138.738Z" fill="#F8F8F8"/>
<path d="M60.5977 139.153C60.6685 139.398 60.7345 139.627 60.8274 139.859C60.9521 140.185 61.0957 140.504 61.2575 140.814C61.2899 140.875 61.3452 140.92 61.4112 140.94C61.4772 140.96 61.5485 140.954 61.6095 140.921C61.6704 140.889 61.7159 140.834 61.7361 140.768C61.7563 140.702 61.7494 140.63 61.717 140.57L61.6926 140.533C61.4944 140.265 61.3116 139.986 61.1451 139.698C61.0229 139.49 60.9203 139.271 60.8176 139.053C60.7541 139.09 60.671 139.122 60.5977 139.153Z" fill="#F8F8F8"/>
<path d="M59.2485 139.654C59.2779 139.727 59.3072 139.803 59.3414 139.876C59.4802 140.197 59.6361 140.51 59.8082 140.814C59.8429 140.872 59.8989 140.915 59.9645 140.933C60.0301 140.951 60.1002 140.944 60.1601 140.911C60.19 140.897 60.2166 140.876 60.2382 140.851C60.2599 140.826 60.2761 140.796 60.2859 140.764C60.2958 140.733 60.299 140.699 60.2955 140.666C60.2919 140.633 60.2816 140.601 60.2652 140.572V140.555C60.0793 140.28 59.9096 139.995 59.7569 139.7C59.7194 139.635 59.6852 139.567 59.6542 139.495L59.2485 139.654Z" fill="#F8F8F8"/>
<path d="M106.612 134.155C105.588 135.422 104.1 135.049 103.025 134.763C102.609 136.567 102.463 137.871 102.047 139.676L98.0782 141.229C97.8844 141.392 97.7572 141.621 97.7207 141.871C97.6843 142.122 97.741 142.377 97.8802 142.589H104.968L110.151 136.113C109.562 135.774 108.946 135.432 108.301 135.095C107.729 134.797 107.157 134.414 106.612 134.155Z" fill="#96999E"/>
<path d="M106.612 134.155C105.588 135.422 104.1 135.049 103.025 134.763C102.609 136.567 102.463 137.871 102.047 139.676L98.0782 141.229C97.8844 141.392 97.7572 141.621 97.7207 141.871C97.6843 142.122 97.741 142.377 97.8802 142.589H104.968L110.151 136.113C109.562 135.774 108.946 135.432 108.301 135.095C107.729 134.797 107.157 134.414 106.612 134.155Z" stroke="#2E3433" stroke-width="0.842213"/>
<path d="M109.699 136.233L104.545 142.174H98.0661C97.906 142.174 97.7524 142.238 97.6392 142.351C97.526 142.464 97.4624 142.617 97.4624 142.777V142.819C97.463 142.978 97.5269 143.131 97.6399 143.244C97.753 143.357 97.9062 143.421 98.0661 143.422H104.963L110.608 137.029C110.675 136.954 110.722 136.864 110.745 136.766C110.768 136.669 110.767 136.567 110.741 136.47C110.715 136.374 110.665 136.285 110.597 136.212C110.528 136.139 110.442 136.084 110.347 136.052C110.233 136.015 110.111 136.012 109.996 136.044C109.88 136.076 109.777 136.142 109.699 136.233Z" fill="#2E3433" stroke="#2E3433" stroke-width="0.842213" stroke-miterlimit="10"/>
<path d="M102.619 137.243H102.634C103.005 137.263 103.367 137.312 103.746 137.307C104.12 137.305 104.493 137.283 104.865 137.241C104.934 137.228 104.995 137.19 105.036 137.134C105.078 137.078 105.097 137.008 105.089 136.939C105.081 136.87 105.047 136.806 104.995 136.761C104.942 136.715 104.874 136.691 104.804 136.694H104.787C104.438 136.757 104.087 136.8 103.734 136.823C103.382 136.848 103.035 136.823 102.68 136.823C102.661 136.97 102.641 137.107 102.619 137.243Z" fill="#F8F8F8"/>
<path d="M102.431 138.355C102.676 138.428 102.937 138.506 103.199 138.555C103.564 138.63 103.932 138.685 104.303 138.721C104.376 138.728 104.449 138.706 104.506 138.66C104.563 138.614 104.599 138.547 104.606 138.474C104.614 138.401 104.592 138.329 104.546 138.272C104.499 138.215 104.432 138.179 104.359 138.171H104.313C103.957 138.192 103.601 138.192 103.245 138.171C102.986 138.171 102.732 138.13 102.475 138.096C102.458 138.188 102.446 138.272 102.431 138.355Z" fill="#F8F8F8"/>
<path d="M102.196 139.708L102.441 139.754C102.809 139.813 103.18 139.853 103.553 139.874C103.626 139.877 103.697 139.851 103.752 139.803C103.806 139.754 103.839 139.685 103.844 139.612C103.846 139.576 103.84 139.54 103.828 139.506C103.816 139.472 103.797 139.441 103.773 139.415C103.748 139.388 103.719 139.367 103.686 139.351C103.654 139.336 103.618 139.328 103.582 139.327H103.562C103.209 139.334 102.854 139.322 102.502 139.29L102.257 139.263C102.243 139.417 102.218 139.564 102.196 139.708Z" fill="#F8F8F8"/>
<path d="M64.9847 111.456C65.5053 107.578 65.9965 104.748 66.5171 101.761C68.1179 92.5875 70.0193 84.0337 72.0746 76.1441C72.5748 74.2216 73.0832 72.3397 73.5996 70.4986C76.9601 64.7651 82.6423 62.4795 86.1616 64.1083C87.0817 64.5517 87.8615 65.2404 88.4149 66.0984L89.1285 65.7296V65.7589L89.1554 65.7467C89.2043 66.1325 89.2531 66.5208 89.3045 66.9091L89.5489 68.5207C89.9484 69.8488 90.1839 71.2207 90.2503 72.6059C90.2894 73.2627 90.2821 73.7242 90.2747 73.8805C90.5827 76.2979 90.8173 78.3882 91.0079 80.1023L91.1985 81.5919L91.1765 81.6505C91.3867 83.4965 91.8364 87.4108 92.5696 93.7742C92.9533 97.1073 93.3639 100.465 94.9525 104.501C95.5108 105.913 96.164 107.285 96.9076 108.608C98.7113 111.902 101.4 117.668 105.136 128.463L99.9381 130.973C91.025 121.804 86.6333 113.05 84.3482 107.239C83.3047 104.536 82.4 101.782 81.6378 98.9876C81.3934 98.106 81.149 97.2099 80.8826 96.2844C80.7197 95.6789 80.5568 95.0798 80.3938 94.4872C79.8268 95.608 79.3014 96.6849 78.8688 97.6616C75.7454 104.633 76.4029 107.956 74.5283 117.516C73.9736 120.354 73.3577 123.02 72.3532 126.588C71.3121 130.294 70.271 133.31 69.5134 135.378C67.2316 135.377 65.0205 134.588 63.2544 133.144C63.4405 125.889 64.0182 118.649 64.9847 111.456Z" stroke="#2E3433" stroke-width="0.842213"/>
<path d="M52.7283 36.3468C51.4826 36.0442 50.278 35.5925 49.1406 35.0014C47.6376 34.2151 46.8408 33.7804 46.5793 32.8989C46.3178 32.0174 46.7015 31.1506 47.1439 30.1421C47.5447 29.2313 47.7427 28.7771 48.1459 28.5842C49.4852 27.9371 51.8387 30.1934 53.0021 31.9051C53.6082 32.7988 54.2778 33.8586 53.9185 34.9525C53.6988 35.543 53.2772 36.0368 52.7283 36.3468Z" fill="white" stroke="#2E3433" stroke-width="0.922131" stroke-linecap="round" stroke-linejoin="round"/>
<path d="M50.7339 27.927L46.9287 34.9083C46.849 35.0537 46.8068 35.2166 46.8057 35.3824C46.8046 35.5482 46.8448 35.7117 46.9225 35.8581C47.0003 36.0046 47.1133 36.1294 47.2513 36.2215C47.3893 36.3136 47.548 36.37 47.7132 36.3856C47.8719 36.4003 48.0319 36.377 48.1799 36.3175C48.3278 36.2581 48.4594 36.1642 48.5637 36.0437L54.0992 29.6754C54.2061 29.5524 54.2814 29.4051 54.3184 29.2464C54.3554 29.0877 54.3531 28.9224 54.3117 28.7648C54.2703 28.6072 54.191 28.4621 54.0807 28.342C53.9704 28.222 53.8325 28.1307 53.6789 28.076L51.9559 27.4606C51.73 27.3803 51.4828 27.3831 51.2588 27.4686C51.0348 27.5541 50.8486 27.7167 50.7339 27.927Z" fill="#2E3433"/>
<path d="M56.399 26.4012C56.0413 27.4227 55.3849 28.3134 54.5147 28.9578L46.8407 26.3084L46.6892 26.2572L46.413 26.3109C46.2615 26.3377 46.1149 26.3695 45.9633 26.3988C44.2526 26.7284 42.5589 27.0654 40.8555 27.3951L40.4107 27.4805C39.46 27.6686 38.5166 27.8541 37.5684 28.0373C37.6959 22.8298 39.357 17.7753 42.3438 13.5059L44.3381 15.6718L44.6509 16.0112L48.1287 19.7838L48.4366 20.1208L48.5295 20.2185L48.6395 20.2551L49.0598 20.4041L56.443 23.0071C56.7922 24.114 56.7768 25.3037 56.399 26.4012Z" fill="#F5D84C" stroke="#2E3433" stroke-width="0.922131" stroke-miterlimit="10"/>
<path d="M40.9409 26.9726L40.4961 27.0459C41.4883 21.4687 43.0696 18.0331 44.2427 16.1162L44.5579 16.4361C43.4239 18.3358 41.9014 21.6738 40.9409 26.9726Z" fill="white"/>
<path d="M46.4643 26.0494L46.0171 26.1251C46.257 25.0607 46.5515 24.0093 46.8994 22.9751C47.244 21.9667 47.6325 20.9753 48.0798 20.0034L48.3926 20.3233C47.9869 21.2317 47.6203 22.162 47.3002 23.1046C46.98 24.0471 46.6941 25.0458 46.4643 26.0494Z" fill="white"/>
<path d="M54.7128 33.4895C54.4838 32.8588 54.1249 32.2832 53.6594 31.7997C53.0118 31.138 52.7258 31.2283 51.868 30.4885C51.0102 29.7486 50.7291 29.0429 50.3356 29.1357C50.0326 29.2065 49.9128 29.6704 49.8982 29.7315C49.7833 30.1954 50.0253 30.5593 50.343 31.1575C51.1764 32.7301 50.9735 32.9352 51.5283 33.4504C51.9071 33.7996 52.2346 33.785 52.9409 34.0267C53.7059 34.288 53.7914 34.4613 54.0553 34.3832C54.4464 34.2684 54.6443 33.7752 54.7128 33.4895Z" fill="white" stroke="#2E3433" stroke-width="0.922131" stroke-linecap="round" stroke-linejoin="round"/>
<path d="M50.4893 29.7391C50.1936 29.4021 48.9056 28.5939 48.0282 28.064C47.8914 27.981 47.7521 27.9028 47.6128 27.8198C47.4565 27.8366 47.3093 27.9011 47.1912 28.0047C47.073 28.1083 46.9899 28.2457 46.9529 28.3984C46.916 28.551 46.9272 28.7113 46.9849 28.8573C47.0427 29.0033 47.1442 29.1279 47.2755 29.2141C47.109 29.2318 46.9512 29.2972 46.8211 29.4025C46.691 29.5078 46.5942 29.6484 46.5423 29.8075C46.5056 29.942 46.5011 30.0833 46.5291 30.2198C46.5571 30.3564 46.6169 30.4845 46.7036 30.5938C46.5865 30.5367 46.4542 30.5186 46.3261 30.5423C46.198 30.566 46.0809 30.6301 45.992 30.7252C45.9031 30.8203 45.847 30.9414 45.8322 31.0707C45.8173 31.2001 45.8443 31.3307 45.9093 31.4435L45.9313 31.4826C45.8896 31.5194 45.8527 31.5612 45.8214 31.6071C45.7507 31.7221 45.7222 31.8582 45.741 31.9918C45.7597 32.1255 45.8244 32.2485 45.924 32.3397C46.0462 32.4667 47.7227 33.8048 48.6123 33.8585C48.7785 33.8707 49.0767 33.5533 49.1011 33.2627L49.2673 33.3482C49.2673 33.3482 50.719 33.6876 49.8197 32.4007C49.8197 32.4007 50.8315 31.9758 50.1398 31.192L47.3122 29.2947L49.9443 30.4424C49.9443 30.4424 50.9512 30.2592 50.4893 29.7391Z" fill="white" stroke="#2E3433" stroke-width="0.922131" stroke-linecap="round" stroke-linejoin="round"/>
<path d="M88.2951 43.7528L69.4767 44.373C64.0291 39.7677 60.6466 36.6372 58.9921 34.674C58.5277 34.1246 57.1542 32.4275 55.7734 32.6863C55.4056 32.7658 55.0702 32.9538 54.8105 33.226L51.1152 36.6934C51.0667 37.0731 51.0536 37.4565 51.0761 37.8386C51.2106 40.1706 52.6403 41.9189 53.8769 43.2107C55.9029 45.34 60.2654 49.2616 66.3753 53.9792C67.1504 54.5789 68.1201 54.8711 69.0978 54.7997L89.6466 53.3077C89.1969 50.1235 88.7464 46.9386 88.2951 43.7528Z" fill="#F5D84C" stroke="#2E3433" stroke-width="0.922131" stroke-miterlimit="10"/>
<path d="M51.6262 39.5163L51.4014 39.4162C53.4787 34.9085 56.2599 33.4166 56.7976 33.1626C56.8285 33.146 56.8603 33.1314 56.8929 33.1187L56.9858 33.3335L56.9174 33.3677C56.387 33.6192 53.6669 35.0843 51.6262 39.5163Z" fill="white"/>
<path d="M56.3699 45.245L56.1523 45.1375C57.6156 42.4384 59.4989 39.9887 61.7319 37.8804L61.9078 38.0464C59.6908 40.1368 57.8214 42.5668 56.3699 45.245Z" fill="white"/>
<path d="M62.922 50.8951L62.8071 50.8584C63.6674 47.3788 65.4637 44.3753 66.8176 42.4707L67.0205 42.6026C65.6763 44.4925 63.8947 47.4716 63.0417 50.9244L62.922 50.8951Z" fill="white"/>
<path d="M72.7101 54.6752L72.6759 54.5629C71.5444 50.7976 71.6519 46.8906 71.9427 44.2754L72.1871 44.3023C71.9012 46.893 71.7937 50.7658 72.9203 54.4945L72.9545 54.6093L72.7101 54.6752Z" fill="white"/>
<path d="M91.2204 70.4446C88.4367 70.6619 79.245 75.3282 75.2027 75.3502C69.5963 75.3917 69.7234 67.844 69.7234 67.844C76.0043 67.5607 80.5183 66.6597 90.8684 66.4326C91.0584 67.7626 91.1759 69.1019 91.2204 70.4446Z" fill="#2E3433"/>
<path d="M78.4189 26.4646C77.3582 27.7173 75.7306 28.4181 74.2446 28.6623C74.2666 28.9675 74.2886 29.2752 74.3082 29.5804C74.3399 30.0077 74.3693 30.435 74.3986 30.8624C75.7355 30.1639 76.9143 29.1981 77.8617 28.0249C78.5792 27.1308 79.15 26.1286 79.5529 25.0557L79.2279 25.1289C78.8564 25.8053 78.7977 26.0178 78.4189 26.4646Z" fill="#2E3433" stroke="#2E3433" stroke-width="0.903688" stroke-miterlimit="10"/>
<path d="M83.5564 22.6308C83.4049 22.7578 83.2484 22.875 83.0945 22.9873C81.9774 23.7702 80.6988 24.2925 79.3528 24.5159C79.3516 24.4989 79.3516 24.4817 79.3528 24.4647C79.2966 23.3805 79.998 22.5356 78.6587 20.1377L76.5129 16.5409L76.4249 16.3944C75.6945 16.8159 74.8653 17.0366 74.0218 17.0341C73.1782 17.0315 72.3504 16.8057 71.6226 16.3797C71.0552 16.0393 70.5927 15.5493 70.2857 14.9634C69.5696 13.5398 69.9313 11.6157 71.1875 10.4094C71.8101 9.81977 72.6016 9.43926 73.4512 9.32105C74.3008 9.20284 75.1662 9.35285 75.9263 9.75011C75.9336 9.74878 75.9411 9.74878 75.9484 9.75011L75.985 9.71348C76.7234 8.89978 77.7002 8.34 78.776 8.11407C81.4399 7.6257 84.1527 9.57918 85.0228 11.8794C85.1068 12.1002 85.1737 12.3272 85.2232 12.5582C85.298 12.8968 85.339 13.242 85.3453 13.5887C85.448 13.6839 85.5555 13.7914 85.6655 13.9135C86.0619 14.351 86.3668 14.8632 86.5624 15.4201C87.4838 18.1207 85.3771 21.1389 83.5564 22.6308Z" fill="#96999E" stroke="#2E3433" stroke-width="0.842213" stroke-miterlimit="10"/>
<path d="M71.7717 17.4321C71.7717 17.4321 73.1989 17.5152 74.1814 18.4089C75.1639 19.3026 74.8828 19.1414 73.3211 18.636C71.7594 18.1305 71.1802 18.5065 71.7717 17.4321Z" fill="#2E3433"/>
<path d="M72.4853 19.9863C72.4413 20.3208 72.5439 20.6114 72.7126 20.6334C72.8812 20.6553 73.0523 20.3892 73.0938 20.062C73.1354 19.7348 73.0352 19.4369 72.8665 19.4149C72.6979 19.3929 72.5146 19.6493 72.4853 19.9863Z" fill="#2E3433"/>
<path d="M72.793 10.0088C72.3885 10.157 72.0016 10.3494 71.6394 10.5826C71.2766 10.803 70.9474 11.0744 70.6618 11.3884C70.5909 11.4663 70.524 11.5478 70.4614 11.6326C70.393 11.7108 70.3368 11.7987 70.2733 11.8768C70.1551 12.0497 70.0482 12.2299 69.9531 12.4165C69.7533 12.7744 69.6207 13.1658 69.5621 13.5714C69.5001 13.9616 69.5625 14.3614 69.7405 14.7142C69.9368 15.0687 70.2109 15.3743 70.5421 15.6079C70.8853 15.8504 71.2659 16.0352 71.6688 16.1549C72.0793 16.2872 72.5044 16.3692 72.9347 16.3991V16.4235C72.0554 16.4542 71.1865 16.2248 70.437 15.7642C70.0691 15.5253 69.7654 15.2 69.5523 14.8168C69.3447 14.4245 69.266 13.9768 69.3275 13.5373C69.3977 13.1074 69.5451 12.6938 69.7625 12.3163C69.9685 11.9299 70.2285 11.5747 70.5348 11.2615C71.1615 10.6469 71.9397 10.2089 72.7905 9.9917L72.793 10.0088Z" fill="#2E3433"/>
<path d="M92.3181 64.1544C92.3865 67.8049 89.6908 70.9915 86.2571 71.3383C85.541 71.4115 84.7907 71.4921 84.0037 71.5825C80.0348 72.022 78.9154 72.1539 77.1387 72.1441C75.5282 72.1303 73.9287 71.8777 72.3925 71.3945C69.9681 70.6424 68.3356 68.3031 68.3527 65.578C68.3527 65.2508 68.3527 64.9114 68.3527 64.5646C68.3527 64.3367 68.3576 64.1047 68.3673 63.8687C68.42 60.1664 68.7057 56.4711 69.2227 52.8047C69.3425 51.994 69.4671 51.1638 69.6382 50.3189C70.2809 46.8857 71.5249 39.7726 73.8467 34.2809C74.5432 32.6351 75.8018 33.7363 77.4075 33.1601L83.5712 30.9453L88.1609 32.5032C88.7377 34.8254 89.2827 37.2819 89.7788 39.8654C90.1161 41.63 90.4289 43.4516 90.7173 45.3302C91.382 49.7255 91.883 54.4139 92.1397 59.405C92.2342 61.0166 92.2936 62.5997 92.3181 64.1544Z" fill="#F5D84C" stroke="#2E3433" stroke-width="0.922131" stroke-miterlimit="10"/>
<path d="M70.0415 64.4129C69.5869 64.2599 69.1299 64.0914 68.6704 63.9075L68.7584 63.6804C79.3309 67.8853 88.3784 64.1907 91.778 62.4058L91.8611 62.6206C88.5862 64.3397 80.0959 67.8266 70.0415 64.4129Z" fill="white"/>
<path d="M69.0049 58.3256L69.0709 58.0815C73.5922 59.2853 78.1135 60.2034 79.1571 60.1302C80.5208 60.0301 87.5007 57.4026 91.5406 55.8447L91.5992 56.0694C87.5471 57.6322 80.5452 60.2669 79.1571 60.3695C78.0793 60.4549 73.6215 59.5539 69.0049 58.3256Z" fill="white"/>
<path d="M69.8774 51.6324L69.9239 51.3883C73.101 51.9157 75.4936 52.1477 77.0651 52.0744C80.0589 51.9303 86.3839 49.8328 90.8808 48.2676L90.9321 48.4971C86.423 50.0648 80.0785 52.1599 77.0602 52.3137C75.4741 52.3943 73.057 52.1623 69.8774 51.6324Z" fill="white"/>
<path d="M71.4468 44.8518L71.4883 44.6076C72.9446 44.82 74.4159 44.9131 75.8874 44.8859C78.8984 44.7419 85.3089 42.6126 89.8693 41.0229L89.9206 41.25C85.348 42.8446 78.9228 44.9787 75.8801 45.1252C74.3974 45.1541 72.9147 45.0626 71.4468 44.8518Z" fill="white"/>
<path d="M84.2774 43.186C84.2774 43.186 93.2393 53.0731 90.9273 64.9477C89.9302 68.2393 87.0537 71.3796 86.7726 71.3649C84.0329 71.2208 68.1693 78.0018 78.06 63.2165C80.3353 54.2451 84.2774 43.186 84.2774 43.186Z" fill="#2E3433" stroke="#2E3433" stroke-width="0.842213" stroke-miterlimit="10"/>
<path d="M70.2856 65.0016C70.2856 64.8184 70.904 46.4924 72.4852 40.8835C74.0664 35.2746 74.7899 34.5347 74.8216 34.5078L74.9854 34.6861L74.9047 34.5982L74.9878 34.6861C74.9585 34.7154 74.2546 35.4675 72.7198 40.9494C71.1581 46.529 70.5471 64.8257 70.5423 65.0089L70.2856 65.0016Z" fill="#2E3433"/>
<path d="M66.9519 60.0936L66.8565 60.0179L66.749 59.9618C66.7612 59.9325 67.0643 59.1706 67.883 49.9038C68.7384 40.2414 74.1811 33.5825 74.2373 33.5166L74.4255 33.6729C74.3717 33.7388 68.9779 40.3416 68.1298 49.9258C67.3062 59.2268 67.0056 60.0277 66.9519 60.0936Z" fill="#2E3433"/>
<path d="M85.6606 13.9232C82.4688 15.486 76.618 16.4383 76.618 16.4383C76.5838 16.4774 76.5544 16.514 76.5202 16.5482L76.4323 16.4017C74.0298 17.7325 71.2437 16.8534 70.2906 14.9634C69.5745 13.5398 69.9362 11.6157 71.1924 10.4094C71.8185 9.81754 72.6144 9.43659 73.4683 9.32008C74.3223 9.20357 75.1913 9.35738 75.9532 9.75987C76.6975 8.92773 77.6881 8.35459 78.7809 8.12384C81.4448 7.63547 84.1576 9.58895 85.0276 11.8892C85.2322 12.4363 85.3413 13.0145 85.3502 13.5985C85.4382 13.6937 85.5506 13.8011 85.6606 13.9232Z" fill="#2E3433" stroke="#2E3433" stroke-width="0.842213" stroke-miterlimit="10"/>
<path d="M69.7067 72.625C69.7067 72.625 69.4794 73.128 68.1035 73.9534C66.7275 74.7787 62.0522 78.3487 62.0522 78.9005C62.0522 79.4524 62.326 79.7259 62.8783 79.45C63.4306 79.174 66.4538 76.7029 66.4538 76.7029C66.4538 76.7029 62.0547 80.2753 62.6021 80.8247C63.1496 81.3741 63.152 81.3741 63.9781 81.1006C63.9781 81.1006 64.528 82.473 65.6277 81.6501L68.6534 78.9005C68.6534 78.9005 66.7275 81.3741 66.7275 81.9235C66.7275 82.473 67.5536 82.473 67.8298 82.1995C68.1059 81.926 71.679 76.7029 71.679 76.7029L73.3311 73.128L69.7067 72.625Z" fill="white" stroke="#2E3433" stroke-width="0.922131" stroke-linecap="round" stroke-linejoin="round"/>
<path d="M74.0834 43.8748C75.2239 49.1768 76.3644 54.4789 77.5049 59.781C74.4206 64.6231 72.2675 67.1895 70.6814 68.6375C70.0484 69.2187 68.1886 70.8205 68.3743 72.7301C68.3999 72.9912 68.4616 73.2476 68.5576 73.4919L71.2459 75.084C71.7145 75.3912 72.2501 75.5813 72.8076 75.6383C74.8825 75.8263 76.5615 73.8728 77.7737 72.5225C79.421 70.6887 81.772 68.2151 85.0665 65.1701C86.5618 61.2671 87.2729 57.1081 87.1593 52.9305C87.0456 48.7529 86.1094 44.6386 84.4042 40.8225C84.1769 40.5368 82.5614 38.5833 79.9562 38.7079C77.3509 38.8324 74.8972 40.9226 74.0834 43.8748Z" fill="#F5D84C" stroke="#2E3433" stroke-width="0.922131" stroke-miterlimit="10"/>
<path d="M76.7596 73.2405L76.6862 73.4334C73.2427 72.1417 71.3609 70.3835 70.3882 69.1382L70.5422 69.0039C71.5075 70.2322 73.3576 71.9561 76.7596 73.2405Z" fill="white"/>
<path d="M80.8606 68.6887L80.7872 68.8816C78.3455 67.931 76.0791 66.5809 74.0811 64.8867L74.2081 64.7231C76.1896 66.4053 78.4379 67.7455 80.8606 68.6887Z" fill="white"/>
<path d="M85.5165 62.2743C82.1854 62.2011 79.1622 61.1511 77.207 60.2818L77.2901 60.0913C79.2282 60.9533 82.2318 61.9959 85.5311 62.0692L85.5165 62.2743Z" fill="white"/>
<path d="M86.7163 55.574C82.0483 56.2357 77.6736 54.9025 76.4517 54.4776L76.5201 54.2822C77.7421 54.7022 82.0703 56.0257 86.6967 55.3688L86.7163 55.574Z" fill="white"/>
<path d="M86.4621 48.3487C82.063 49.5256 77.6957 49.3718 75.4644 49.1765L75.4888 48.9713C77.6884 49.1667 82.0508 49.3181 86.4108 48.1509L86.4621 48.3487Z" fill="white"/>
<path d="M85.1255 42.8272C80.8901 43.7795 76.8161 43.5768 74.7876 43.3717L74.812 43.1666C76.8454 43.3693 80.8803 43.5719 85.0913 42.6245L85.1255 42.8272Z" fill="white"/>
<path d="M90.4483 45.1741C86.6324 44.0102 83.1534 41.9447 80.3059 39.1525C79.7413 38.5909 76.64 35.5044 77.2021 34.6962C77.6127 34.1126 80.0395 34.5863 89.2825 39.5921C89.7012 41.3942 90.0898 43.2548 90.4483 45.1741Z" fill="#2E3433" stroke="#2E3433" stroke-width="0.842213" stroke-miterlimit="10"/>
<path d="M74.1447 33.9585C74.0511 33.8759 73.9796 33.7713 73.9367 33.6541C73.8938 33.5369 73.8809 33.4109 73.8991 33.2874C73.9173 33.164 73.9661 33.047 74.041 32.9472C74.1158 32.8473 74.2145 32.7677 74.328 32.7156C76.7318 31.6032 79.2716 30.8117 81.8822 30.3617C85.5848 29.7243 89.72 29.0138 91.5603 31.2188C92.2152 32.0026 92.2274 33.9243 92.2519 37.7702C92.2666 40.4074 92.0441 41.9018 90.9835 42.9274C90.6172 43.2609 90.1965 43.5294 89.7395 43.721C86.7921 44.9175 77.1776 36.6616 74.1447 33.9585Z" fill="#F5D84C" stroke="#2E3433" stroke-width="0.922131" stroke-miterlimit="10"/>
<path d="M20.9274 9.86257C23.6026 9.86257 25.7713 7.69575 25.7713 5.02284C25.7713 2.34993 23.6026 0.183105 20.9274 0.183105C18.2522 0.183105 16.0835 2.34993 16.0835 5.02284C16.0835 7.69575 18.2522 9.86257 20.9274 9.86257Z" fill="white" stroke="#2E3433" stroke-width="0.922131" stroke-linecap="round" stroke-linejoin="round"/>
<path d="M22.1079 3.43773C22.1079 3.67117 22.0387 3.89938 21.9091 4.09357C21.7794 4.28776 21.5951 4.43924 21.3794 4.52891C21.1637 4.61857 20.9262 4.6424 20.697 4.59738C20.4677 4.55237 20.2569 4.44054 20.0912 4.27599C19.9255 4.11143 19.8123 3.90153 19.7658 3.67276C19.7194 3.44399 19.7417 3.20659 19.8301 2.99051C19.9185 2.77443 20.069 2.58935 20.2626 2.45861C20.4561 2.32787 20.6841 2.25733 20.9177 2.25588C21.0737 2.25492 21.2283 2.28477 21.3726 2.34373C21.517 2.40269 21.6483 2.4896 21.7589 2.59944C21.8695 2.70928 21.9573 2.83989 22.0172 2.98376C22.0771 3.12763 22.1079 3.28191 22.1079 3.43773Z" fill="#DBE0E6"/>
<path d="M22.9197 6.75913V7.65529C22.9197 7.6968 22.9197 7.73831 22.9197 7.77738H18.936C18.936 7.73831 18.936 7.6968 18.936 7.65529V6.75913C18.936 5.71402 19.6081 4.85938 20.4293 4.85938H21.4264C22.2476 4.86914 22.9197 5.72379 22.9197 6.75913Z" fill="#DBE0E6"/>
<path d="M27.3014 16.8903C27.3014 16.8903 29.2248 14.2409 29.3177 13.7159C29.4716 12.8466 29.2443 11.7624 29.8333 11.4108C29.9245 11.3567 30.0264 11.323 30.1319 11.312C30.2373 11.3011 30.3439 11.3131 30.4443 11.3473C31.3877 11.7185 30.9551 14.7659 30.9136 15.0345C31.3437 15.0345 31.9205 15.0589 32.6023 15.0809C33.8854 15.1248 34.3131 15.1541 34.5257 15.474C34.5964 15.5808 34.6421 15.7021 34.6595 15.8289C34.6768 15.9557 34.6654 16.0848 34.6259 16.2066C34.5812 16.3277 34.5115 16.4381 34.4215 16.5306C34.3314 16.6231 34.2229 16.6958 34.1029 16.7438C34.2916 16.8252 34.4486 16.9657 34.5505 17.1441C34.6523 17.3224 34.6933 17.529 34.6675 17.7327C34.6355 17.8742 34.5724 18.0067 34.4828 18.1207C34.3932 18.2348 34.2793 18.3274 34.1494 18.392C34.2427 18.5362 34.2964 18.7024 34.305 18.8738C34.3135 19.0453 34.2767 19.216 34.1982 19.3688C34.1337 19.48 34.0477 19.5773 33.9454 19.6552C33.8431 19.7332 33.7263 19.7902 33.6019 19.8229C33.6019 19.8229 34.12 21.1733 32.7123 21.1415C31.3046 21.1098 28.9902 21.2514 28.0981 20.8974C27.2061 20.5433 27.1743 20.0036 27.1743 20.0036L27.3014 16.8903Z" fill="#DBE0E6"/>
<path d="M27.3014 16.8903C27.3014 16.8903 29.2248 14.2409 29.3177 13.7159C29.4716 12.8466 29.2443 11.7624 29.8333 11.4108C29.9245 11.3567 30.0264 11.323 30.1319 11.312C30.2373 11.3011 30.3439 11.3131 30.4443 11.3473C31.3877 11.7185 30.9551 14.7659 30.9136 15.0345C31.3437 15.0345 31.9205 15.0589 32.6023 15.0809C33.8854 15.1248 34.3131 15.1541 34.5257 15.474C34.5964 15.5808 34.6421 15.7021 34.6595 15.8289C34.6768 15.9557 34.6654 16.0848 34.6259 16.2066C34.5812 16.3277 34.5115 16.4381 34.4215 16.5306C34.3314 16.6231 34.2229 16.6958 34.1029 16.7438C34.2916 16.8252 34.4486 16.9657 34.5505 17.1441C34.6523 17.3224 34.6933 17.529 34.6675 17.7327C34.6355 17.8742 34.5724 18.0067 34.4828 18.1207C34.3932 18.2348 34.2793 18.3274 34.1494 18.392C34.2427 18.5362 34.2964 18.7024 34.305 18.8738C34.3135 19.0453 34.2767 19.216 34.1982 19.3688C34.1337 19.48 34.0477 19.5773 33.9454 19.6552C33.8431 19.7332 33.7263 19.7902 33.6019 19.8229C33.6019 19.8229 34.12 21.1733 32.7123 21.1415C31.3046 21.1098 28.9902 21.2514 28.0981 20.8974C27.2061 20.5433 27.1743 20.0036 27.1743 20.0036L27.3014 16.8903Z" stroke="#2E3433" stroke-width="0.922131" stroke-linecap="round" stroke-linejoin="round"/>
<path d="M26.8397 15.6768H24.9627C24.5308 15.6768 24.1807 16.0266 24.1807 16.4581V20.5434C24.1807 20.9749 24.5308 21.3247 24.9627 21.3247H26.8397C27.2716 21.3247 27.6217 20.9749 27.6217 20.5434V16.4581C27.6217 16.0266 27.2716 15.6768 26.8397 15.6768Z" fill="#96999E" stroke="#2E3433" stroke-width="0.922131" stroke-miterlimit="10"/>
<path d="M1.50545 31.0162C1.50545 31.0162 2.38283 29.7953 2.42438 29.5511C2.49525 29.1556 2.39016 28.6574 2.66877 28.5011C2.71046 28.4767 2.75686 28.4615 2.8049 28.4565C2.85295 28.4514 2.90152 28.4566 2.94737 28.4718C3.37751 28.6403 3.19177 30.0273 3.16244 30.1518L3.93229 30.1738C4.5164 30.1933 4.70948 30.208 4.80968 30.3521C4.84124 30.4011 4.86155 30.4566 4.86915 30.5144C4.87676 30.5722 4.87147 30.631 4.85367 30.6866C4.833 30.7425 4.80045 30.7933 4.75826 30.8354C4.71607 30.8776 4.66524 30.9101 4.60927 30.9308C4.693 30.9701 4.7619 31.0351 4.80589 31.1164C4.84987 31.1978 4.86662 31.291 4.85367 31.3825C4.83824 31.4477 4.80824 31.5087 4.76591 31.5607C4.72359 31.6127 4.67004 31.6545 4.60927 31.6829C4.6518 31.7485 4.67603 31.8243 4.67947 31.9024C4.68291 31.9805 4.66542 32.0582 4.62881 32.1273C4.6002 32.1778 4.56164 32.2221 4.51543 32.2573C4.46922 32.2926 4.41634 32.3181 4.35998 32.3324C4.35998 32.3324 4.60438 32.9477 3.95185 32.9331C3.29931 32.9184 2.25574 32.9844 1.85004 32.8281C1.44434 32.6718 1.42969 32.4203 1.42969 32.4203L1.50545 31.0162Z" fill="#DBE0E6"/>
<path d="M1.50545 31.0162C1.50545 31.0162 2.38283 29.7953 2.42438 29.5511C2.49525 29.1556 2.39016 28.6574 2.66877 28.5011C2.71046 28.4767 2.75686 28.4615 2.8049 28.4565C2.85295 28.4514 2.90152 28.4566 2.94737 28.4718C3.37751 28.6403 3.19177 30.0273 3.16244 30.1518L3.93229 30.1738C4.5164 30.1933 4.70948 30.208 4.80968 30.3521C4.84124 30.4011 4.86154 30.4566 4.86915 30.5144C4.87676 30.5722 4.87147 30.631 4.85367 30.6866C4.833 30.7425 4.80045 30.7933 4.75826 30.8354C4.71607 30.8776 4.66524 30.9101 4.60927 30.9308C4.693 30.9701 4.7619 31.0351 4.80589 31.1164C4.84987 31.1978 4.86662 31.291 4.85367 31.3825C4.83824 31.4477 4.80824 31.5087 4.76591 31.5607C4.72359 31.6127 4.67004 31.6545 4.60927 31.6829C4.6518 31.7485 4.67603 31.8243 4.67947 31.9024C4.68291 31.9805 4.66541 32.0582 4.62881 32.1273C4.6002 32.1778 4.56164 32.2221 4.51543 32.2573C4.46922 32.2926 4.41634 32.3181 4.35998 32.3324C4.35998 32.3324 4.60438 32.9477 3.95185 32.9331C3.29931 32.9184 2.25574 32.9844 1.85004 32.8281C1.44434 32.6718 1.42969 32.4203 1.42969 32.4203L1.50545 31.0162Z" stroke="#2E3433" stroke-width="0.418033" stroke-linecap="round" stroke-linejoin="round"/>
<path d="M1.29521 30.4619H0.439825C0.24276 30.4619 0.0830078 30.6215 0.0830078 30.8184V32.6791C0.0830078 32.876 0.24276 33.0356 0.439825 33.0356H1.29521C1.49227 33.0356 1.65202 32.876 1.65202 32.6791V30.8184C1.65202 30.6215 1.49227 30.4619 1.29521 30.4619Z" fill="#96999E" stroke="#2E3433" stroke-width="0.418033" stroke-miterlimit="10"/>
<path d="M16.8514 16.1115C16.749 16.9293 16.3603 17.6844 15.754 18.2433L12.0172 21.9744L11.9464 21.9036L8.28043 18.2408C8.19734 18.1578 8.12159 18.0748 8.04827 17.9966C7.01203 16.805 6.98515 15.5328 7.5106 14.6318C8.27555 13.3156 10.2209 12.7882 11.9464 14.4437L12.0172 14.5146C14.3194 12.207 17.0518 13.8626 16.8514 16.1115Z" fill="#F5D84C" stroke="#2E3433" stroke-width="0.922131" stroke-miterlimit="10"/>
<path d="M25.6053 29.4391C25.5484 29.8898 25.3337 30.3059 24.9992 30.6136L22.9389 32.6721L22.8998 32.633L20.8787 30.6136C20.8322 30.5672 20.7907 30.5233 20.7516 30.4769C20.1797 29.82 20.165 29.1168 20.4534 28.6211C20.8762 27.8885 21.9491 27.6053 22.8974 28.5161C22.8974 28.5307 22.9243 28.5429 22.9365 28.5551C24.2098 27.2878 25.7153 28.1986 25.6053 29.4391Z" fill="#F5D84C" stroke="#2E3433" stroke-width="0.922131" stroke-miterlimit="10"/>
<path d="M13.4518 52.0088H28.6996C29.2298 52.0088 29.7383 52.2192 30.1132 52.5938C30.4881 52.9684 30.6988 53.4765 30.6988 54.0062V66.3766C30.7016 66.4063 30.6942 66.4362 30.6779 66.4612C30.6615 66.4862 30.6371 66.5049 30.6087 66.5143C30.5803 66.5237 30.5496 66.5231 30.5215 66.5127C30.4935 66.5024 30.4698 66.4828 30.4544 66.4572L27.766 63.1143C27.7543 63.0989 27.7391 63.0865 27.7217 63.0781C27.7043 63.0696 27.6852 63.0653 27.6658 63.0655H13.4518C13.1894 63.0655 12.9295 63.0138 12.6871 62.9134C12.4447 62.813 12.2245 62.6658 12.039 62.4803C11.8536 62.2948 11.7066 62.0745 11.6064 61.8322C11.5062 61.5899 11.4548 61.3302 11.4551 61.068V54.0062C11.4551 53.4769 11.6654 52.9692 12.0397 52.5947C12.4141 52.2202 12.922 52.0094 13.4518 52.0088Z" fill="#DBE0E6" stroke="#2E3433" stroke-width="0.663934" stroke-linecap="round" stroke-linejoin="round"/>
<path d="M30.2855 66.6013L27.6362 63.295H13.4613C12.8708 63.2937 12.3049 63.0586 11.8875 62.6412C11.4702 62.2238 11.2355 61.6581 11.2349 61.0681V54.0063C11.2355 53.4165 11.4703 52.851 11.8877 52.434C12.3051 52.017 12.871 51.7824 13.4613 51.7817H28.7091C29.2994 51.7824 29.8653 52.017 30.2827 52.434C30.7001 52.851 30.9349 53.4165 30.9356 54.0063V66.3766C30.9358 66.4512 30.9128 66.5239 30.8697 66.5848C30.8267 66.6457 30.7657 66.6917 30.6953 66.7164C30.6249 66.7411 30.5486 66.7433 30.4769 66.7226C30.4052 66.702 30.3417 66.6596 30.2952 66.6013H30.2855ZM13.4515 52.2384C12.9824 52.239 12.5328 52.4255 12.2011 52.7569C11.8694 53.0883 11.6828 53.5376 11.6821 54.0063V61.0681C11.6828 61.5367 11.8694 61.986 12.2011 62.3174C12.5328 62.6488 12.9824 62.8353 13.4515 62.836H27.6851C27.7393 62.8359 27.7927 62.8483 27.8414 62.8719C27.8901 62.8956 27.9328 62.9301 27.9662 62.9727L30.4688 66.0958V54.0063C30.4681 53.5376 30.2815 53.0883 29.9498 52.7569C29.6181 52.4255 29.1684 52.239 28.6993 52.2384H13.4515Z" fill="#2E3433"/>
<path d="M27.1594 58.3867H14.793V58.9019H27.1594V58.3867Z" fill="white"/>
<path d="M27.1594 55.437H14.793V55.9522H27.1594V55.437Z" fill="white"/>
<path d="M11.4867 49.3057C10.9431 49.3061 10.4117 49.4677 9.9599 49.7698C9.50808 50.072 9.15606 50.5012 8.94834 51.0032C8.74061 51.5052 8.68651 52.0574 8.79288 52.5902C8.89924 53.1229 9.16129 53.6121 9.5459 53.9961C9.93051 54.38 10.4204 54.6414 10.9537 54.7472C11.487 54.853 12.0397 54.7985 12.5419 54.5905C13.0442 54.3825 13.4734 54.0304 13.7754 53.5787C14.0774 53.127 14.2386 52.596 14.2386 52.0527C14.2386 51.6918 14.1674 51.3344 14.0291 51.0009C13.8908 50.6675 13.688 50.3645 13.4325 50.1094C13.1769 49.8543 12.8735 49.652 12.5397 49.5141C12.2058 49.3762 11.848 49.3053 11.4867 49.3057ZM12.9531 53.9012H10.0155V52.8585C10.0149 52.7317 10.0407 52.6062 10.0913 52.4898C10.1865 52.2612 10.3683 52.0795 10.5972 51.9844C10.6708 51.9544 10.748 51.9339 10.8269 51.9233C10.87 51.9197 10.9133 51.9197 10.9564 51.9233H11.9975H12.1051C12.1889 51.9325 12.2711 51.9531 12.3495 51.9844H12.3739C12.4864 52.0316 12.5885 52.1005 12.6745 52.187C12.7614 52.2742 12.8311 52.3769 12.8798 52.4898C12.9292 52.6065 12.955 52.7318 12.9556 52.8585L12.9531 53.9012Z" fill="white"/>
<path d="M11.4865 49.125C10.9064 49.125 10.3394 49.2969 9.85712 49.6188C9.37483 49.9408 8.99892 50.3984 8.77695 50.9339C8.55498 51.4693 8.4969 52.0585 8.61006 52.6269C8.72323 53.1953 9.00255 53.7174 9.4127 54.1272C9.82285 54.537 10.3454 54.8161 10.9143 54.9291C11.4832 55.0422 12.0729 54.9842 12.6088 54.7624C13.1447 54.5406 13.6027 54.165 13.9249 53.6832C14.2472 53.2013 14.4192 52.6348 14.4192 52.0552C14.4192 51.2781 14.1102 50.5328 13.5602 49.9832C13.0102 49.4337 12.2643 49.125 11.4865 49.125ZM11.4865 54.6216C10.9779 54.6216 10.4809 54.4709 10.0581 54.1887C9.63527 53.9064 9.30573 53.5052 9.11113 53.0358C8.91654 52.5664 8.86562 52.0499 8.96483 51.5516C9.06403 51.0533 9.3089 50.5956 9.66846 50.2363C10.028 49.8771 10.4861 49.6324 10.9849 49.5333C11.4836 49.4342 12.0006 49.4851 12.4704 49.6795C12.9402 49.8739 13.3417 50.2032 13.6242 50.6256C13.9067 51.0481 14.0575 51.5447 14.0575 52.0528C14.0562 52.7334 13.7848 53.3858 13.3029 53.8669C12.8209 54.348 12.1677 54.6185 11.4865 54.6191V54.6216Z" fill="#2E3433"/>
<path d="M12.9601 52.8584V53.901H10.0151V52.8584C10.0146 52.7315 10.0404 52.606 10.0909 52.4896C10.1861 52.261 10.368 52.0793 10.5968 51.9842C10.6705 51.9542 10.7477 51.9337 10.8265 51.9231C10.8696 51.9195 10.913 51.9195 10.9561 51.9231H11.9972H12.1047C12.1886 51.9324 12.2708 51.9529 12.3491 51.9842H12.3736C12.486 52.0315 12.5882 52.1003 12.6742 52.1869C12.7611 52.274 12.8307 52.3767 12.8795 52.4896C12.9306 52.606 12.958 52.7313 12.9601 52.8584Z" fill="#DBE0E6"/>
<path d="M12.3322 51.0465C12.3326 51.1597 12.3101 51.2718 12.2662 51.3762C12.1808 51.5789 12.0194 51.7401 11.8166 51.8255C11.7121 51.8693 11.5999 51.8917 11.4866 51.8914C11.3741 51.8918 11.2627 51.8693 11.1591 51.8255C11.0595 51.7817 10.9684 51.7205 10.8903 51.6448C10.8129 51.568 10.7514 51.4767 10.7094 51.3762C10.666 51.2721 10.6436 51.1605 10.6436 51.0478C10.6436 50.935 10.666 50.8234 10.7094 50.7193C10.7514 50.6188 10.8129 50.5275 10.8903 50.4507C10.9678 50.3742 11.059 50.3129 11.1591 50.27C11.2627 50.2262 11.3741 50.2038 11.4866 50.2041C11.5999 50.2038 11.7121 50.2262 11.8166 50.27C11.9167 50.3129 12.0079 50.3742 12.0854 50.4507C12.1612 50.5288 12.2224 50.6198 12.2662 50.7193C12.3099 50.8229 12.3323 50.9342 12.3322 51.0465Z" fill="#DBE0E6"/>
<path d="M124.231 74.791H108.983C108.721 74.791 108.461 74.8427 108.218 74.9431C107.976 75.0435 107.756 75.1907 107.57 75.3762C107.385 75.5617 107.238 75.7819 107.138 76.0243C107.037 76.2666 106.986 76.5263 106.986 76.7885V89.1589C106.986 89.186 106.994 89.2126 107.01 89.2348C107.025 89.2571 107.048 89.2738 107.073 89.2828C107.099 89.2917 107.127 89.2923 107.153 89.2845C107.179 89.2767 107.202 89.261 107.219 89.2394L109.907 85.8965C109.919 85.8811 109.935 85.8687 109.953 85.8603C109.97 85.8518 109.99 85.8475 110.01 85.8477H124.241C124.771 85.8477 125.279 85.6373 125.654 85.2627C126.029 84.8881 126.24 84.38 126.24 83.8503V76.7885C126.24 76.5253 126.188 76.2648 126.087 76.0218C125.986 75.7788 125.837 75.5582 125.651 75.3726C125.464 75.187 125.243 75.0401 124.999 74.9403C124.755 74.8405 124.494 74.7898 124.231 74.791Z" fill="#DBE0E6" stroke="#2E3433" stroke-width="0.663934" stroke-linecap="round" stroke-linejoin="round"/>
<path d="M107.118 89.5178C107.077 89.5185 107.037 89.5119 106.998 89.4983C106.927 89.4746 106.865 89.4291 106.821 89.3681C106.777 89.3072 106.754 89.2339 106.754 89.1589V76.7885C106.755 76.1987 106.989 75.6333 107.407 75.2162C107.824 74.7992 108.39 74.5646 108.98 74.564H124.228C124.818 74.5646 125.384 74.7992 125.802 75.2162C126.219 75.6333 126.454 76.1987 126.455 76.7885V83.8503C126.454 84.4401 126.219 85.0055 125.802 85.4226C125.384 85.8396 124.818 86.0742 124.228 86.0748H110.053L107.406 89.3835C107.372 89.4267 107.328 89.4613 107.278 89.4846C107.228 89.5079 107.173 89.5193 107.118 89.5178ZM108.983 75.0206C108.514 75.0212 108.064 75.2077 107.732 75.5391C107.401 75.8705 107.214 76.3198 107.213 76.7885V88.8805L109.718 85.7549C109.752 85.7121 109.794 85.6774 109.843 85.6537C109.892 85.63 109.945 85.6178 109.999 85.6182H124.231C124.7 85.6175 125.149 85.4311 125.481 85.0997C125.813 84.7683 125.999 84.319 126 83.8503V76.7885C125.999 76.3198 125.813 75.8705 125.481 75.5391C125.149 75.2077 124.7 75.0212 124.231 75.0206H108.983Z" fill="#2E3433"/>
<path d="M110.526 81.6821H122.892V81.1669H110.526V81.6821Z" fill="white"/>
<path d="M110.526 78.7324H122.892V78.2172H110.526V78.7324Z" fill="white"/>
<path d="M127.731 77.1255C128.992 76.2804 129.329 74.5739 128.483 73.3139C127.637 72.0539 125.929 71.7175 124.668 72.5626C123.407 73.4077 123.07 75.1142 123.916 76.3742C124.762 77.6342 126.47 77.9706 127.731 77.1255Z" fill="white"/>
<path d="M126.195 77.7628C125.615 77.7628 125.048 77.5909 124.566 77.2689C124.084 76.947 123.708 76.4893 123.486 75.9539C123.264 75.4185 123.206 74.8293 123.319 74.2609C123.432 73.6925 123.712 73.1704 124.122 72.7606C124.532 72.3508 125.054 72.0717 125.623 71.9586C126.192 71.8456 126.782 71.9036 127.318 72.1254C127.854 72.3472 128.312 72.7227 128.634 73.2046C128.956 73.6865 129.128 74.253 129.128 74.8326C129.128 75.6097 128.819 76.355 128.269 76.9045C127.719 77.4541 126.973 77.7628 126.195 77.7628ZM126.195 72.2662C125.687 72.2662 125.19 72.4168 124.767 72.6991C124.344 72.9814 124.015 73.3826 123.82 73.8519C123.626 74.3213 123.575 74.8378 123.674 75.3361C123.773 75.8344 124.018 76.2922 124.377 76.6514C124.737 77.0107 125.195 77.2553 125.694 77.3545C126.193 77.4536 126.71 77.4027 127.179 77.2083C127.649 77.0138 128.051 76.6846 128.333 76.2622C128.616 75.8397 128.766 75.3431 128.766 74.835C128.766 74.1539 128.495 73.5009 128.013 73.0193C127.531 72.5377 126.877 72.2668 126.195 72.2662Z" fill="#2E3433"/>
<path d="M127.667 75.641V76.6837H124.734V75.641C124.735 75.5143 124.761 75.389 124.81 75.2723C124.859 75.1593 124.929 75.0566 125.015 74.9695C125.101 74.8821 125.203 74.8132 125.316 74.7668H125.34C125.419 74.7355 125.501 74.715 125.585 74.7058H125.692H126.734C126.777 74.7022 126.82 74.7022 126.863 74.7058C126.942 74.7163 127.019 74.7368 127.093 74.7668C127.206 74.8138 127.309 74.8826 127.396 74.9695C127.482 75.0568 127.551 75.1595 127.599 75.2723C127.647 75.3892 127.67 75.5147 127.667 75.641Z" fill="#DBE0E6"/>
<path d="M127.039 73.8292C127.042 73.9399 127.024 74.0502 126.985 74.1539C126.943 74.2545 126.882 74.3458 126.804 74.4225C126.726 74.4983 126.635 74.5595 126.535 74.6032C126.431 74.6467 126.319 74.669 126.207 74.669C126.094 74.669 125.982 74.6467 125.878 74.6032C125.675 74.5178 125.514 74.3566 125.428 74.1539C125.385 74.0499 125.362 73.9382 125.362 73.8255C125.362 73.7127 125.385 73.6011 125.428 73.4971C125.472 73.3975 125.533 73.3065 125.609 73.2285C125.686 73.1519 125.778 73.0906 125.878 73.0478C125.982 73.0043 126.094 72.9819 126.207 72.9819C126.319 72.9819 126.431 73.0043 126.535 73.0478C126.635 73.0906 126.727 73.1519 126.804 73.2285C126.882 73.3052 126.943 73.3965 126.985 73.4971C127.025 73.603 127.043 73.716 127.039 73.8292Z" fill="#DBE0E6"/>
<path d="M80.2156 21.371C80.0016 21.573 79.8128 21.8001 79.6535 22.0473C79.4086 22.4438 79.238 22.8815 79.15 23.3391C79.0058 23.952 78.8567 24.5844 79.15 24.8359C79.2249 24.8936 79.3148 24.9284 79.4091 24.9361C79.6535 24.8897 83.0139 24.2035 83.5125 22.0644C83.5418 21.935 83.7569 20.9094 83.2412 20.4675C82.7255 20.0255 81.4473 20.2917 80.2156 21.371Z" fill="white" stroke="#2E3433" stroke-width="0.922131" stroke-linecap="round" stroke-linejoin="round"/>
</g>
<defs>
<clipPath id="clip0_977_3268">
<rect width="150" height="150" fill="white"/>
</clipPath>
</defs>
</svg>
