<svg width="421" height="215" viewBox="0 0 421 215" fill="none" xmlns="http://www.w3.org/2000/svg">
<path d="M236.224 185.257H188.765V203.531H236.224V185.257Z" fill="url(#paint0_linear_930_2425)"/>
<path opacity="0.18" d="M236.224 185.257H188.765V192.147H236.224V185.257Z" fill="#222935"/>
<path d="M330.141 188.852H94.9482C89.942 188.852 85.937 184.857 85.937 179.864V54.9418C85.937 49.9489 89.942 45.9546 94.9482 45.9546H330.141C335.147 45.9546 339.152 49.9489 339.152 54.9418V179.864C339.152 184.857 335.147 188.852 330.141 188.852Z" fill="url(#paint1_linear_930_2425)"/>
<path d="M326.837 182.361H98.3526C95.2487 182.361 92.6455 179.864 92.6455 176.669V58.0374C92.6455 54.9418 95.1486 52.3455 98.3526 52.3455H326.837C329.941 52.3455 332.544 54.8419 332.544 58.0374V176.669C332.444 179.864 329.941 182.361 326.837 182.361Z" fill="#DEF2FB"/>
<path d="M332.444 60.8333H92.6455V174.072H332.444V60.8333Z" fill="white"/>
<path d="M281.18 208.923H143.909C142.507 208.923 141.406 207.825 141.406 206.427V206.027C141.406 204.629 142.507 203.531 143.909 203.531H281.18C282.582 203.531 283.683 204.629 283.683 206.027V206.427C283.583 207.825 282.481 208.923 281.18 208.923Z" fill="url(#paint2_linear_930_2425)"/>
<path d="M102.658 106.568C105.662 114.257 113.171 119.65 121.882 119.65C133.296 119.65 142.507 110.463 142.507 99.0791C142.507 92.9877 139.904 87.5954 135.699 83.8008C132.094 80.5055 127.188 78.5083 121.882 78.5083C114.272 78.5083 107.664 82.6025 104.06 88.6938C102.257 91.7894 101.256 95.2845 101.256 99.0791C101.256 101.675 101.757 104.172 102.658 106.568ZM111.469 92.9877C113.571 89.3928 117.476 86.9962 121.982 86.9962C125.086 86.9962 127.989 88.1945 130.192 90.1917C132.595 92.3886 134.197 95.584 134.197 99.0791C134.197 105.67 128.89 110.962 122.382 111.162C122.282 111.162 122.182 111.162 122.082 111.162C116.976 111.162 112.57 107.966 110.768 103.473C110.167 102.075 109.967 100.577 109.967 99.0791C109.867 96.8822 110.367 94.7852 111.469 92.9877Z" fill="#43FFD9"/>
<path d="M121.982 119.65V111.162C122.082 111.162 122.182 111.162 122.282 111.162C128.79 110.962 134.097 105.67 134.097 99.0791C134.097 95.584 132.595 92.3886 130.092 90.1917L135.799 83.8008C140.004 87.5954 142.607 92.9877 142.607 99.0791C142.607 110.463 133.296 119.65 121.982 119.65Z" fill="#FF6570"/>
<path d="M101.256 99.0791C101.256 95.2845 102.257 91.6896 104.06 88.6938L111.369 93.0876C110.367 94.8851 109.767 96.8822 109.767 99.1789C109.767 100.777 110.067 102.275 110.568 103.573L102.558 106.568C101.757 104.172 101.256 101.675 101.256 99.0791Z" fill="#00D1FF"/>
<path d="M104.16 88.6938C107.764 82.6025 114.372 78.5083 121.982 78.5083C127.288 78.5083 132.195 80.5055 135.799 83.8008L130.092 90.1917C127.989 88.1945 125.086 86.9962 121.882 86.9962C117.376 86.9962 113.471 89.3928 111.369 92.9877L104.16 88.6938Z" fill="#FFE000"/>
<path d="M160.73 79.9063C153.02 82.9021 147.614 90.3914 147.614 99.0791C147.614 110.463 156.825 119.65 168.239 119.65C174.347 119.65 179.754 117.054 183.558 112.859C186.862 109.265 188.865 104.372 188.865 99.0791C188.865 91.4898 184.76 84.8992 178.652 81.3043C175.548 79.5069 172.044 78.5083 168.239 78.5083C165.536 78.5083 163.033 79.0076 160.73 79.9063ZM174.247 88.594C177.851 90.691 180.254 94.5854 180.254 99.0791C180.254 102.175 179.053 105.071 177.05 107.267C174.847 109.664 171.643 111.262 168.139 111.262C161.531 111.262 156.224 105.969 156.024 99.4785C156.024 99.3786 156.024 99.2788 156.024 99.1789C156.024 94.0862 159.228 89.6924 163.734 87.895C165.135 87.2958 166.637 87.0961 168.139 87.0961C170.342 86.9962 172.444 87.5954 174.247 88.594Z" fill="#DEF2FB"/>
<path opacity="0.75" d="M147.513 99.0791H156.024C156.024 99.179 156.024 99.2788 156.024 99.3787C156.224 105.869 161.531 111.162 168.139 111.162C171.643 111.162 174.847 109.664 177.05 107.168L183.458 112.86C179.653 117.054 174.247 119.65 168.139 119.65C156.725 119.65 147.513 110.463 147.513 99.0791Z" fill="#00D1FF"/>
<path opacity="0.22" d="M168.139 78.5083C171.944 78.5083 175.548 79.5069 178.552 81.3043L174.147 88.594C172.344 87.5954 170.342 86.9962 168.039 86.9962C166.437 86.9962 164.935 87.2958 163.634 87.7951L160.63 79.8065C163.033 79.0076 165.536 78.5083 168.139 78.5083Z" fill="#00D1FF"/>
<path opacity="0.48" d="M178.552 81.3044C184.66 84.8993 188.765 91.49 188.765 99.0792C188.765 104.372 186.762 109.265 183.458 112.86L177.05 107.168C179.053 105.071 180.254 102.175 180.254 98.9793C180.254 94.4857 177.851 90.5912 174.247 88.4942L178.552 81.3044Z" fill="#00D1FF"/>
<path d="M180.955 132.132H108.365C106.963 132.132 105.862 131.034 105.862 129.636V129.236C105.862 127.838 106.963 126.74 108.365 126.74H180.955C182.357 126.74 183.458 127.838 183.458 129.236V129.636C183.458 131.034 182.357 132.132 180.955 132.132ZM180.955 135.927H108.365C106.963 135.927 105.862 137.025 105.862 138.423V138.823C105.862 140.221 106.963 141.319 108.365 141.319H180.955C182.357 141.319 183.458 140.221 183.458 138.823V138.423C183.458 137.025 182.357 135.927 180.955 135.927ZM180.955 145.114H108.365C106.963 145.114 105.862 146.212 105.862 147.61V148.01C105.862 149.408 106.963 150.506 108.365 150.506H180.955C182.357 150.506 183.458 149.408 183.458 148.01V147.61C183.458 146.212 182.357 145.114 180.955 145.114ZM180.955 154.301H108.365C106.963 154.301 105.862 155.399 105.862 156.797V157.196C105.862 158.594 106.963 159.693 108.365 159.693H180.955C182.357 159.693 183.458 158.594 183.458 157.196V156.797C183.458 155.399 182.357 154.301 180.955 154.301Z" fill="#DEF2FB"/>
<path d="M315.923 167.282H247.338C243.433 167.282 240.329 164.187 240.329 160.292V94.8851C240.329 90.9906 243.433 87.895 247.338 87.895H315.923C319.828 87.895 322.932 90.9906 322.932 94.8851V160.292C322.932 164.187 319.828 167.282 315.923 167.282Z" fill="#DEF2FB"/>
<path d="M271.768 123.345H250.642C248.339 123.345 246.537 121.547 246.537 119.25V98.1804C246.537 95.8836 248.339 94.0862 250.642 94.0862H271.768C274.071 94.0862 275.873 95.8836 275.873 98.1804V119.25C275.873 121.547 273.971 123.345 271.768 123.345ZM316.724 97.2816V97.0819C316.724 96.3829 316.123 95.8836 315.522 95.8836H281.28C280.579 95.8836 280.078 96.4828 280.078 97.0819V97.2816C280.078 97.9807 280.679 98.4799 281.28 98.4799H315.522C316.123 98.4799 316.724 97.9807 316.724 97.2816ZM316.724 104.771V104.971C316.724 105.67 316.123 106.169 315.522 106.169H281.28C280.579 106.169 280.078 105.57 280.078 104.971V104.771C280.078 104.072 280.679 103.573 281.28 103.573H315.522C316.123 103.573 316.724 104.072 316.724 104.771ZM316.724 112.46V112.66C316.724 113.359 316.123 113.858 315.522 113.858H281.28C280.579 113.858 280.078 113.259 280.078 112.66V112.46C280.078 111.761 280.679 111.262 281.28 111.262H315.522C316.123 111.262 316.724 111.761 316.724 112.46ZM316.724 120.149V120.349C316.724 121.048 316.123 121.547 315.522 121.547H281.28C280.579 121.547 280.078 120.948 280.078 120.349V120.149C280.078 119.45 280.679 118.951 281.28 118.951H315.522C316.123 118.951 316.724 119.55 316.724 120.149Z" fill="white"/>
<path d="M271.768 160.991H250.642C248.339 160.991 246.537 159.194 246.537 156.897V135.827C246.537 133.53 248.339 131.733 250.642 131.733H271.768C274.071 131.733 275.873 133.53 275.873 135.827V156.897C275.873 159.194 273.971 160.991 271.768 160.991ZM316.724 134.928V134.728C316.724 134.029 316.123 133.53 315.522 133.53H281.28C280.579 133.53 280.078 134.129 280.078 134.728V134.928C280.078 135.627 280.679 136.126 281.28 136.126H315.522C316.123 136.126 316.724 135.627 316.724 134.928ZM316.724 142.417V142.617C316.724 143.316 316.123 143.815 315.522 143.815H281.28C280.579 143.815 280.078 143.216 280.078 142.617V142.417C280.078 141.718 280.679 141.219 281.28 141.219H315.522C316.123 141.219 316.724 141.718 316.724 142.417ZM316.724 150.107V150.306C316.724 151.005 316.123 151.505 315.522 151.505H281.28C280.579 151.505 280.078 150.905 280.078 150.306V150.107C280.078 149.408 280.679 148.908 281.28 148.908H315.522C316.123 148.908 316.724 149.408 316.724 150.107ZM316.724 157.895V158.095C316.724 158.794 316.123 159.293 315.522 159.293H281.28C280.579 159.293 280.078 158.694 280.078 158.095V157.895C280.078 157.196 280.679 156.697 281.28 156.697H315.522C316.123 156.597 316.724 157.196 316.724 157.895Z" fill="white"/>
<path d="M203.684 144.415C210.192 147.211 218.402 147.31 223.909 146.312L222.607 138.822L204.785 122.945L203.684 144.415Z" fill="#FFD2D2"/>
<path d="M207.488 145.713C206.187 145.413 204.885 144.914 203.684 144.415L204.685 122.945L208.389 126.24C207.689 132.631 207.488 139.122 207.488 145.713Z" fill="#FFDEDE"/>
<path d="M213.296 146.711C217.1 147.111 220.905 146.811 223.809 146.212L222.507 138.723L211.594 132.631C211.894 136.226 212.495 143.116 213.296 146.711Z" fill="#FCCACA"/>
<path d="M216.399 107.367C222.106 105.37 226.512 106.668 230.917 114.058C235.323 121.547 241.33 127.938 238.427 130.235C235.523 132.531 229.916 139.222 221.406 138.623C208.69 137.724 199.779 113.359 216.399 107.367Z" fill="#FCCACA"/>
<path d="M231.919 133.131C229.115 134.728 225.611 133.73 224.009 130.934L205.786 98.2802L220.304 90.1917L234.522 125.941C235.623 128.637 234.522 131.633 231.919 133.131Z" fill="#F8B024"/>
<path d="M209.591 101.875L206.187 103.772C202.282 105.969 197.276 104.571 195.073 100.577L194.372 99.3785C192.169 95.4841 193.571 90.4912 197.576 88.2943L200.98 86.397C204.885 84.2001 209.891 85.5981 212.094 89.5924L212.795 90.7908C214.897 94.6852 213.496 99.6781 209.591 101.875Z" fill="url(#paint3_linear_930_2425)"/>
<path opacity="0.44" d="M198.177 93.8862L204.485 90.3912C207.588 88.6936 211.593 89.7921 213.396 92.8877L215.398 96.3827C215.298 95.5838 215.098 94.6851 214.597 93.9861L212.294 89.8919C210.592 86.7963 206.587 85.598 203.383 87.3955L197.075 90.8905C193.972 92.5881 192.77 96.5824 194.572 99.7779L194.873 100.277C194.572 97.7807 195.874 95.1844 198.177 93.8862Z" fill="url(#paint4_linear_930_2425)"/>
<path opacity="0.42" d="M213.496 92.1887L211.193 88.0945C210.893 87.5953 210.492 87.096 210.092 86.6965L211.293 88.7936C212.995 91.8892 211.894 95.8835 208.79 97.6809L202.482 101.176C199.879 102.674 196.675 102.075 194.672 100.078L195.774 101.975C197.476 105.07 201.481 106.269 204.685 104.471L210.993 100.976C214.097 99.2787 215.298 95.3842 213.496 92.1887Z" fill="url(#paint5_linear_930_2425)"/>
<path d="M223.608 98.3799L216.399 102.374C211.393 105.17 205.085 103.373 202.282 98.3799L200.079 94.3856C197.276 89.3927 199.078 83.1017 204.084 80.3056L211.293 76.3113C216.299 73.5153 222.607 75.3127 225.41 80.3056L227.613 84.3C230.417 89.2929 228.614 95.5839 223.608 98.3799Z" fill="url(#paint6_linear_930_2425)"/>
<path opacity="0.44" d="M204.384 86.8963L215.899 80.5054C219.703 78.4083 224.509 79.7065 226.612 83.5011L230.617 90.591C230.517 89.6923 230.217 88.7936 229.716 87.9947L225.01 79.6066C222.907 75.812 218.101 74.414 214.297 76.6109L202.782 83.0018C198.978 85.0988 197.576 89.892 199.779 93.6866L200.48 94.9848C199.979 91.8892 201.481 88.5939 204.384 86.8963Z" fill="url(#paint7_linear_930_2425)"/>
<path opacity="0.42" d="M228.915 86.4969L224.209 78.1088C223.508 76.8106 222.407 75.812 221.205 75.113C221.205 75.2129 221.305 75.2129 221.305 75.3128L226.011 83.7008C228.114 87.4954 226.812 92.2886 223.008 94.3856L211.493 100.777C208.99 102.175 206.087 102.075 203.784 100.777C205.986 104.371 210.692 105.67 214.397 103.573L225.911 97.1817C229.616 95.0847 231.018 90.2915 228.915 86.4969Z" fill="url(#paint8_linear_930_2425)"/>
<path d="M272.369 93.5868C251.743 94.8849 240.229 92.2886 227.613 99.2787C219.003 104.072 203.984 77.2101 212.595 72.317C226.412 64.628 230.116 53.9431 241.03 37.3667L272.369 93.5868Z" fill="url(#paint9_linear_930_2425)"/>
<path d="M214.797 79.2072C228.615 71.5182 232.92 62.3312 243.934 45.7548L242.632 42.759C231.718 59.3355 227.313 68.5224 213.496 76.2115C209.491 78.4084 211.493 84.999 214.697 91.2901C212.595 85.8977 211.493 81.1045 214.797 79.2072Z" fill="url(#paint10_linear_930_2425)"/>
<path opacity="0.3" d="M269.165 87.795C249.24 88.9932 237.926 86.4968 225.41 93.4869C220.705 96.0832 214.096 89.2928 210.492 81.8035C212.695 90.9904 221.606 102.574 227.613 99.2786C240.329 92.1887 251.743 94.8849 272.369 93.5867L269.165 87.795Z" fill="url(#paint11_linear_930_2425)"/>
<path d="M265.761 60.5337C274.472 76.0117 277.375 90.8905 272.369 93.6865C267.363 96.4826 256.249 86.0973 247.638 70.6193C239.028 55.0415 236.024 40.2625 241.03 37.4665C246.036 34.6704 257.05 45.0557 265.761 60.5337Z" fill="url(#paint12_linear_930_2425)"/>
<path opacity="0.3" d="M270.166 94.0859C271.768 88.394 268.464 76.4111 261.455 63.9288C253.946 50.448 244.534 40.8616 238.927 40.4622C237.325 46.1541 240.629 58.137 247.638 70.6193C255.147 84.1001 264.559 93.5867 270.166 94.0859Z" fill="url(#paint13_linear_930_2425)"/>
<path d="M268.364 59.0359C258.652 41.5608 245.235 30.4765 238.527 34.1713C231.819 37.866 234.322 55.0416 244.034 72.5168C253.746 89.9919 267.163 101.076 273.871 97.3814C280.579 93.6867 278.076 76.5111 268.364 59.0359ZM272.369 93.5868C267.363 96.3829 256.249 85.9976 247.638 70.5196C239.028 55.0416 236.024 40.2626 241.03 37.4666C246.036 34.6706 257.15 45.0558 265.761 60.5338C274.372 76.0118 277.375 90.8907 272.369 93.5868Z" fill="url(#paint14_linear_930_2425)"/>
<g opacity="0.5">
<path d="M266.562 58.4367C257.851 42.9587 246.837 32.5735 241.831 35.3695C240.73 35.9687 240.029 37.167 239.628 38.8646C240.029 38.2654 240.429 37.7661 241.03 37.4665C246.036 34.6705 257.15 45.0558 265.761 60.5338C272.469 72.6166 275.773 84.3 274.572 90.1916C277.475 85.3984 274.272 72.2172 266.562 58.4367Z" fill="url(#paint15_linear_930_2425)"/>
<path d="M274.672 95.3843C267.964 99.079 254.647 87.9948 244.835 70.5196C237.426 57.2385 234.222 44.0572 236.024 36.8674C232.72 43.2583 235.724 57.8376 244.034 72.6166C253.746 90.0918 267.163 101.176 273.871 97.4813C275.473 96.5826 276.574 94.9848 277.075 92.788C276.474 93.8864 275.673 94.7851 274.672 95.3843Z" fill="url(#paint16_linear_930_2425)"/>
</g>
<path d="M247.638 70.6193C249.541 74.0145 251.543 77.1101 253.546 80.006L262.357 75.1129L251.543 55.8403L242.732 60.7334C244.134 63.829 245.736 67.2241 247.638 70.6193Z" fill="url(#paint17_linear_930_2425)"/>
<path d="M245.135 65.8261C245.135 65.8261 243.433 62.3311 242.732 60.6335L251.543 55.7405L254.447 60.9331L245.135 65.8261Z" fill="url(#paint18_linear_930_2425)"/>
<path opacity="0.5" d="M258.452 69.8206L249.941 74.5139C251.143 76.4112 252.344 78.2086 253.546 79.9062L262.357 75.0132L258.452 69.8206Z" fill="url(#paint19_linear_930_2425)"/>
<path d="M260.054 63.6294C263.057 68.9219 264.058 74.0147 262.356 75.0132C260.654 76.0118 256.85 72.4169 253.846 67.1245C250.842 61.832 249.841 56.7392 251.543 55.7406C253.245 54.8419 257.05 58.3369 260.054 63.6294Z" fill="url(#paint20_linear_930_2425)"/>
<path d="M236.825 124.243C239.528 123.544 242.332 128.537 238.827 130.634C234.923 132.931 231.418 133.63 230.317 133.73C227.613 134.129 226.412 130.434 229.115 128.337C231.919 126.24 234.522 124.842 236.825 124.243Z" fill="#FFDEDE"/>
<path d="M230.317 133.83C231.318 133.63 234.922 133.031 238.827 130.734C240.229 129.835 240.629 128.537 240.329 127.239C240.129 127.439 239.929 127.539 239.728 127.738C235.824 130.035 232.319 130.734 231.218 130.834C229.816 131.034 228.815 130.135 228.514 129.036C226.612 131.133 227.814 134.129 230.317 133.83Z" fill="#FFD2D2"/>
<path d="M235.123 117.852C238.327 117.053 241.631 122.945 237.526 125.342C232.92 128.038 228.715 128.837 227.513 129.036C224.309 129.536 222.908 125.242 226.112 122.645C229.316 120.149 232.419 118.551 235.123 117.852Z" fill="#FFDEDE"/>
<path d="M227.513 129.037C228.715 128.837 232.92 128.038 237.526 125.342C239.328 124.243 239.728 122.546 239.328 120.948C239.128 121.747 238.527 122.546 237.526 123.045C232.92 125.841 228.715 126.54 227.513 126.74C226.011 126.939 224.91 126.141 224.409 124.842C223.809 127.139 225.21 129.436 227.513 129.037Z" fill="#FFD2D2"/>
<path d="M230.517 110.363C233.921 108.566 239.228 114.357 235.223 118.252C230.817 122.546 226.212 124.643 224.91 125.142C221.406 126.54 218.602 122.046 221.606 118.352C224.509 114.557 227.613 111.861 230.517 110.363Z" fill="#FFDEDE"/>
<path d="M224.91 125.142C226.312 124.643 230.817 122.546 235.223 118.252C236.725 116.754 236.925 115.056 236.324 113.558C236.124 114.157 235.723 114.757 235.223 115.256C230.817 119.55 226.212 121.647 224.91 122.146C222.908 122.945 221.205 121.847 220.605 120.149C219.503 123.344 221.906 126.24 224.91 125.142Z" fill="#FFD2D2"/>
<path d="M225.01 104.571C228.114 102.874 233.12 108.266 229.416 111.861C225.311 115.855 221.806 118.052 220.605 118.651C217.2 120.349 214.097 116.454 216.8 113.059C219.503 109.564 222.307 105.969 225.01 104.571Z" fill="#FFDEDE"/>
<path d="M220.504 118.651C221.706 118.052 225.21 115.955 229.315 111.861C231.118 110.163 230.817 107.966 229.816 106.369C229.816 107.367 229.416 108.266 228.514 109.165C224.409 113.159 220.905 115.356 219.703 115.955C218.101 116.754 216.6 116.354 215.698 115.356C215.498 117.952 217.901 119.949 220.504 118.651Z" fill="#FFD2D2"/>
<path d="M221.306 100.876C224.51 100.876 227.113 107.267 216.8 112.16C217 114.857 215.098 116.654 217 118.951C219.904 122.446 221.506 124.443 220.805 128.337C220.204 132.232 215.398 134.728 210.692 132.332C205.886 129.835 199.178 117.852 211.293 107.068C212.395 106.069 217.801 103.373 218.302 102.874C219.904 101.176 220.404 100.876 221.306 100.876Z" fill="#FFDEDE"/>
<path d="M210.692 132.232C215.398 134.628 220.204 132.232 220.805 128.238C221.406 124.443 219.904 122.446 217 118.851C215.098 116.554 217 114.757 216.8 112.061C227.113 107.168 224.51 100.777 221.306 100.777C221.205 100.777 221.205 100.777 221.105 100.777C222.507 102.874 221.706 107.168 214.297 110.762C214.497 113.459 212.595 115.256 214.497 117.553C217.401 121.048 219.003 123.045 218.302 126.939C217.801 130.534 216.299 132.232 210.692 132.232Z" fill="#FFD2D2"/>
<path d="M224.71 138.922H201.08V173.973H224.71V138.922Z" fill="white"/>
<path d="M227.113 143.216H198.677V173.973H227.113V143.216Z" fill="url(#paint21_linear_930_2425)"/>
<path opacity="0.8" d="M227.113 173.973H204.585C210.492 164.985 214.697 155.998 217.301 143.216H227.113V173.973Z" fill="url(#paint22_linear_930_2425)"/>
<path d="M264.659 41.2612C264.259 41.2612 263.758 41.1614 263.358 40.8618C262.256 40.1628 261.956 38.7648 262.657 37.6663L283.383 5.51204C284.083 4.4136 285.485 4.11403 286.587 4.81304C287.688 5.51204 287.988 6.91006 287.287 8.00849L266.562 40.1628C266.261 40.8618 265.46 41.2612 264.659 41.2612ZM279.177 55.4411L313.52 38.2655C314.722 37.6663 315.122 36.2683 314.521 35.1699C313.921 33.9716 312.519 33.5722 311.417 34.1713L277.075 51.247C275.873 51.8462 275.473 53.2442 276.074 54.3426C276.274 54.7421 276.574 55.0416 276.975 55.3412C277.575 55.7407 278.476 55.8405 279.177 55.4411ZM284.083 76.5111L322.431 75.0133C323.733 74.9134 324.734 73.9148 324.634 72.6167C324.534 71.3185 323.533 70.3199 322.231 70.4198L283.883 71.9177C282.582 72.0175 281.58 73.0161 281.68 74.3143C281.68 74.8135 281.881 75.213 282.081 75.5126C282.481 76.1117 283.282 76.5111 284.083 76.5111Z" fill="url(#paint23_linear_930_2425)"/>
<path d="M100.956 56.8392C100.956 57.638 100.355 58.2372 99.5538 58.2372C98.7528 58.2372 98.1521 57.638 98.1521 56.8392C98.1521 56.0403 98.7528 55.4412 99.5538 55.4412C100.255 55.4412 100.956 56.0403 100.956 56.8392ZM104.16 55.4412C103.359 55.4412 102.758 56.0403 102.758 56.8392C102.758 57.638 103.359 58.2372 104.16 58.2372C104.961 58.2372 105.561 57.638 105.561 56.8392C105.561 56.0403 104.86 55.4412 104.16 55.4412ZM108.765 55.4412C107.964 55.4412 107.364 56.0403 107.364 56.8392C107.364 57.638 107.964 58.2372 108.765 58.2372C109.566 58.2372 110.167 57.638 110.167 56.8392C110.167 56.0403 109.566 55.4412 108.765 55.4412Z" fill="white"/>
<path d="M56.1999 86.1973H79.0283C80.8306 86.1973 82.2323 87.6951 82.2323 89.3927V104.971C82.2323 106.768 80.7304 108.166 79.0283 108.166H77.3262L80.9307 111.761L71.6191 108.166H56.1999C54.3977 108.166 52.9959 106.668 52.9959 104.971V89.4926C52.8958 87.6951 54.3977 86.1973 56.1999 86.1973Z" fill="#E6F4FF"/>
<path d="M54.4978 106.469H76.2249C78.3275 106.469 80.0296 104.771 80.0296 102.674V88.2944C80.0296 86.1973 78.3275 84.4998 76.2249 84.4998H54.4978C52.3952 84.4998 50.6931 86.1973 50.6931 88.2944V102.674C50.6931 104.771 52.3952 106.469 54.4978 106.469Z" fill="white"/>
<path d="M74.0222 105.37L78.7281 110.063L66.613 105.37" fill="white"/>
<path d="M76.8257 91.8892H53.8972C53.3966 91.8892 52.9961 91.4898 52.9961 90.9905C52.9961 90.4912 53.3966 90.0918 53.8972 90.0918H76.8257C77.3264 90.0918 77.7269 90.4912 77.7269 90.9905C77.7269 91.4898 77.3264 91.8892 76.8257 91.8892ZM77.7269 95.4841C77.7269 94.9848 77.3264 94.5854 76.8257 94.5854H53.8972C53.3966 94.5854 52.9961 94.9848 52.9961 95.4841C52.9961 95.9834 53.3966 96.3829 53.8972 96.3829H76.8257C77.3264 96.3829 77.7269 95.9834 77.7269 95.4841ZM77.7269 99.9777C77.7269 99.4785 77.3264 99.079 76.8257 99.079H53.8972C53.3966 99.079 52.9961 99.4785 52.9961 99.9777C52.9961 100.477 53.3966 100.876 53.8972 100.876H76.8257C77.3264 100.777 77.7269 100.377 77.7269 99.9777Z" fill="#DEF2FB"/>
<path d="M392.719 19.6919H369.89C368.088 19.6919 366.686 21.1898 366.686 22.8874V38.3654C366.686 40.1628 368.188 41.5608 369.89 41.5608H371.592L367.988 45.1557L377.299 41.5608H392.719C394.521 41.5608 395.923 40.0629 395.923 38.3654V22.8874C396.023 21.0899 394.521 19.6919 392.719 19.6919Z" fill="#E6F4FF"/>
<path d="M389.715 39.8633H367.988C365.885 39.8633 364.183 38.1657 364.183 36.0687V21.6891C364.183 19.5921 365.885 17.8945 367.988 17.8945H389.715C391.817 17.8945 393.52 19.5921 393.52 21.6891V36.0687C393.52 38.1657 391.817 39.8633 389.715 39.8633Z" fill="white"/>
<path d="M370.19 38.7649L365.485 43.5581L377.6 38.7649" fill="white"/>
<path d="M366.486 24.4854C366.486 23.9861 366.886 23.5867 367.387 23.5867H390.315C390.816 23.5867 391.217 23.9861 391.217 24.4854C391.217 24.9847 390.816 25.3841 390.315 25.3841H367.387C366.886 25.2843 366.486 24.8848 366.486 24.4854ZM367.387 29.7779H390.315C390.816 29.7779 391.217 29.3784 391.217 28.8791C391.217 28.3799 390.816 27.9804 390.315 27.9804H367.387C366.886 27.9804 366.486 28.3799 366.486 28.8791C366.486 29.3784 366.886 29.7779 367.387 29.7779ZM367.387 34.1716H390.315C390.816 34.1716 391.217 33.7722 391.217 33.2729C391.217 32.7736 390.816 32.3742 390.315 32.3742H367.387C366.886 32.3742 366.486 32.7736 366.486 33.2729C366.486 33.8721 366.886 34.1716 367.387 34.1716Z" fill="#DEF2FB"/>
<path d="M416.148 104.172V100.976H414.846C414.746 100.777 414.646 100.477 414.546 100.277L415.547 99.2787L413.244 96.982L412.243 97.9805C412.043 97.8807 411.742 97.7808 411.542 97.681V96.3828H408.338V97.681C408.138 97.7808 407.837 97.8807 407.637 97.9805L406.636 96.982L404.333 99.2787L405.334 100.277C405.234 100.477 405.134 100.777 405.034 100.976H403.732V104.172H405.034C405.134 104.371 405.234 104.671 405.334 104.871L404.333 105.869L406.636 108.166L407.637 107.167C407.837 107.267 408.138 107.367 408.338 107.467V108.765H411.542V107.467C411.742 107.367 412.043 107.267 412.243 107.167L413.244 108.166L415.547 105.869L414.546 104.871C414.646 104.671 414.746 104.371 414.846 104.172H416.148ZM409.94 105.769C408.138 105.769 406.736 104.371 406.736 102.574C406.736 100.777 408.138 99.3786 409.94 99.3786C411.742 99.3786 413.144 100.777 413.144 102.574C413.144 104.272 411.642 105.769 409.94 105.769ZM420.253 117.553V115.855H419.552C419.552 115.755 419.452 115.655 419.352 115.456L419.852 114.956L418.651 113.758L418.15 114.257C418.05 114.158 417.95 114.158 417.75 114.058V113.359H416.248V114.058C416.148 114.058 416.048 114.158 415.847 114.257L415.347 113.758L414.145 114.956L414.646 115.456C414.546 115.556 414.546 115.655 414.446 115.855H413.745V117.553H414.446C414.446 117.653 414.546 117.752 414.646 117.952L414.145 118.451L415.347 119.65L415.847 119.15C415.947 119.25 416.047 119.25 416.248 119.35V120.049H417.95V119.35C418.05 119.35 418.15 119.25 418.35 119.15L418.851 119.65L420.052 118.451L419.552 117.952C419.652 117.852 419.652 117.752 419.752 117.553H420.253ZM417.049 118.352C416.148 118.352 415.347 117.553 415.347 116.654C415.347 115.755 416.148 114.956 417.049 114.956C417.95 114.956 418.751 115.755 418.751 116.654C418.751 117.653 417.95 118.352 417.049 118.352Z" fill="white"/>
<path d="M23.7595 129.536L22.0574 126.939L20.9561 127.638C20.7558 127.439 20.5556 127.339 20.3553 127.239L20.6557 125.941L17.5518 125.342L17.2515 126.64C17.0512 126.64 16.7508 126.74 16.5506 126.74L15.8497 125.641L13.2465 127.339L13.9473 128.437C13.7471 128.637 13.647 128.837 13.5468 129.036L12.2452 128.737L11.6445 131.832L12.9461 132.132C12.9461 132.332 13.0462 132.631 13.0462 132.831L11.9449 133.53L13.647 136.126L14.7483 135.427C14.9486 135.627 15.1488 135.727 15.3491 135.827L15.0487 137.125L18.1526 137.724L18.4529 136.426C18.6532 136.426 18.9536 136.326 19.1538 136.326L19.8547 137.424L22.4579 135.727L21.7571 134.628C21.9573 134.429 22.0574 134.229 22.1576 134.029L23.4592 134.329L24.0599 131.233L22.7583 130.934C22.7583 130.734 22.6582 130.434 22.6582 130.235L23.7595 129.536ZM19.5543 134.229C18.0525 135.228 16.1501 134.828 15.1488 133.33C14.1476 131.832 14.5481 129.935 16.05 128.936C17.5518 127.938 19.4542 128.337 20.4554 129.835C21.3566 131.333 20.9561 133.23 19.5543 134.229ZM7.73962 133.829L6.63825 132.232L5.93738 132.731C5.83725 132.631 5.637 132.531 5.53688 132.431L5.73713 131.633L3.83476 131.233L3.63452 132.032C3.43427 132.032 3.33414 132.032 3.13389 132.132L2.63327 131.433L1.03127 132.531L1.5319 133.23C1.43177 133.33 1.33165 133.53 1.23152 133.63L0.430529 133.43L0.0300293 135.327L0.831025 135.527C0.831025 135.727 0.831027 135.827 0.931152 136.026L0.230279 136.526L1.33165 138.123L2.03252 137.624C2.13264 137.724 2.3329 137.824 2.43302 137.924L2.23277 138.723L4.13514 139.122L4.33538 138.323C4.53563 138.323 4.63576 138.323 4.83601 138.223L5.33663 138.922L6.93862 137.824L6.438 137.125C6.53813 137.025 6.63825 136.825 6.73837 136.725L7.53937 136.925L7.93987 135.028L7.13887 134.828C7.13887 134.628 7.13887 134.528 7.03875 134.329L7.73962 133.829ZM5.13638 136.825C4.23526 137.424 3.03377 137.125 2.43302 136.226C1.83227 135.327 2.13264 134.129 3.03377 133.53C3.93489 132.931 5.13638 133.23 5.73713 134.129C6.23775 134.928 6.0375 136.226 5.13638 136.825Z" fill="white"/>
<path d="M185.661 20.7903L183.358 17.1954L181.856 18.194C181.556 17.9943 181.356 17.7946 181.055 17.5949L181.456 15.7974L177.25 14.8987L176.85 16.6961C176.55 16.6961 176.149 16.796 175.849 16.8958L174.847 15.398L171.243 17.6947L172.244 19.1926C172.044 19.4922 171.844 19.6919 171.644 19.9914L169.841 19.592L168.94 23.7861L170.742 24.1855C170.742 24.4851 170.843 24.8845 170.943 25.1841L169.441 26.1826L171.744 29.7775L173.246 28.779C173.546 28.9787 173.746 29.1784 174.047 29.3781L173.646 31.1755L177.851 32.0743L178.252 30.2768C178.552 30.2768 178.953 30.177 179.253 30.0771L180.254 31.575L183.859 29.2782L182.857 27.7804C183.058 27.4808 183.258 27.2811 183.458 26.9815L185.26 27.3809L186.162 23.1869L184.359 22.7875C184.359 22.4879 184.259 22.0885 184.159 21.7889L185.661 20.7903ZM179.954 27.0814C177.951 28.3795 175.348 27.8802 174.047 25.8831C172.745 23.8859 173.246 21.2896 175.248 19.9914C177.25 18.6933 179.854 19.1926 181.155 21.1897C182.457 23.087 181.956 25.7832 179.954 27.0814ZM163.934 26.5821L162.432 24.3852L161.531 24.9843C161.331 24.8845 161.231 24.6848 161.03 24.5849L161.231 23.4865L158.627 22.9872L158.427 24.0856C158.227 24.0856 158.027 24.1855 157.826 24.1855L157.226 23.2868L155.023 24.7846L155.624 25.6834C155.523 25.8831 155.323 25.9829 155.223 26.1826L154.122 25.9829L153.621 28.5792L154.722 28.779C154.722 28.9787 154.823 29.1784 154.823 29.3781L153.921 29.9773L155.423 32.1741L156.324 31.575C156.525 31.6748 156.625 31.8746 156.825 31.9744L156.625 33.0729L159.228 33.5721L159.428 32.4737C159.629 32.4737 159.829 32.3738 160.029 32.3738L160.63 33.2726L162.833 31.7747L162.232 30.876C162.332 30.6763 162.532 30.5764 162.632 30.3767L163.734 30.5764L164.234 27.9801L163.133 27.7804C163.133 27.5807 163.033 27.3809 163.033 27.1812L163.934 26.5821ZM160.329 30.5764C159.128 31.3753 157.426 31.0757 156.625 29.7775C155.824 28.5792 156.124 26.8817 157.426 26.0828C158.627 25.2839 160.329 25.5835 161.13 26.8816C161.931 28.0799 161.531 29.7775 160.329 30.5764Z" fill="white"/>
<path d="M93.8599 34.5234C98.9738 32.4255 101.414 26.5902 99.3107 21.49C97.2072 16.3897 91.3563 13.9558 86.2424 16.0537C81.1285 18.1516 78.6881 23.9869 80.7916 29.0872C82.8952 34.1874 88.746 36.6214 93.8599 34.5234Z" fill="#FFC444"/>
<path d="M89.3412 33.6722V31.5751C88.1397 31.5751 86.9382 31.1757 86.2373 30.6764L86.7379 29.2784C87.4388 29.7777 88.5402 30.1771 89.6415 30.1771C91.0433 30.1771 92.0445 29.3783 92.0445 28.18C92.0445 27.0815 91.2435 26.3825 89.7417 25.7834C87.639 24.9845 86.3374 23.9859 86.3374 22.2883C86.3374 20.5907 87.5389 19.2926 89.4413 18.993V16.896H90.7429V18.8932C91.9444 18.8932 92.8455 19.2926 93.4463 19.5922L92.9457 20.8903C92.5452 20.6906 91.644 20.1913 90.3424 20.1913C88.7404 20.1913 88.1397 21.09 88.1397 21.9888C88.1397 23.0872 88.9407 23.5865 90.6428 24.2855C92.7454 25.1842 93.8468 26.1828 93.8468 27.9802C93.8468 29.578 92.7454 31.0758 90.6428 31.4753V33.5723H89.3412V33.6722Z" fill="white"/>
<path d="M252.345 14.6302C253.315 8.64134 249.234 3.00152 243.23 2.0333C237.225 1.06509 231.57 5.13513 230.599 11.124C229.628 17.1128 233.709 22.7527 239.714 23.7209C245.719 24.6891 251.374 20.6191 252.345 14.6302Z" fill="#FFC444"/>
<path d="M240.729 22.0885V19.7918C239.428 19.7918 238.126 19.3923 237.325 18.7932L237.826 17.2953C238.627 17.7946 239.828 18.2939 241.03 18.2939C242.632 18.2939 243.733 17.3952 243.733 16.097C243.733 14.8987 242.832 14.0998 241.23 13.4008C238.927 12.5021 237.525 11.5035 237.525 9.50637C237.525 7.60907 238.827 6.21106 240.93 5.91148V3.61475H242.331V5.81162C243.633 5.81162 244.634 6.21106 245.235 6.61049L244.634 8.10836C244.134 7.80879 243.233 7.3095 241.831 7.3095C240.129 7.3095 239.428 8.30807 239.428 9.2068C239.428 10.4051 240.229 10.9044 242.231 11.8031C244.534 12.7018 245.736 13.9001 245.736 15.8973C245.736 17.6947 244.534 19.2925 242.231 19.6919V22.0885H240.729Z" fill="white"/>
<path d="M408.501 59.0896C409.208 54.7341 406.241 50.6317 401.873 49.9267C397.506 49.2216 393.393 52.1809 392.686 56.5365C391.979 60.892 394.946 64.9944 399.313 65.6994C403.681 66.4045 407.794 63.4452 408.501 59.0896Z" fill="#FFC444"/>
<path d="M400.028 64.6281V62.9305C399.027 62.9305 398.126 62.6309 397.525 62.2315L397.925 61.133C398.526 61.5325 399.327 61.832 400.328 61.832C401.53 61.832 402.331 61.133 402.331 60.2343C402.331 59.3356 401.73 58.7364 400.429 58.2371C398.726 57.5381 397.725 56.8391 397.725 55.4411C397.725 54.0431 398.726 53.0445 400.228 52.8448V51.1472H401.23V52.7449C402.231 52.7449 402.932 53.0445 403.332 53.3441L402.932 54.4425C402.631 54.2428 401.93 53.8434 400.829 53.8434C399.527 53.8434 399.127 54.6422 399.127 55.2414C399.127 56.1401 399.728 56.5396 401.129 57.1387C402.832 57.8377 403.633 58.6366 403.633 60.1344C403.633 61.4326 402.731 62.6309 401.029 62.9305V64.6281H400.028Z" fill="white"/>
<path d="M26.2628 167.282C26.2628 170.677 23.5594 173.374 20.1552 173.374C16.751 173.374 14.0476 170.677 14.0476 167.282C14.0476 163.887 16.751 161.191 20.1552 161.191C23.4593 161.191 26.2628 163.887 26.2628 167.282Z" fill="#FFC444"/>
<path d="M19.6546 172.375V171.077C18.9537 171.077 18.1527 170.877 17.7522 170.578L18.0526 169.779C18.4531 170.078 19.1539 170.278 19.8548 170.278C20.7559 170.278 21.3567 169.779 21.3567 169.08C21.3567 168.381 20.8561 167.981 19.9549 167.582C18.6533 167.083 17.8523 166.483 17.8523 165.385C17.8523 164.386 18.5532 163.587 19.7547 163.388V162.09H20.5557V163.288C21.2566 163.288 21.8573 163.488 22.1577 163.687L21.8573 164.486C21.5569 164.386 21.0563 164.087 20.2553 164.087C19.2541 164.087 18.9537 164.686 18.9537 165.185C18.9537 165.784 19.4543 166.184 20.4556 166.583C21.7572 167.083 22.3579 167.782 22.3579 168.88C22.3579 169.879 21.6571 170.777 20.3554 170.977V172.275H19.6546V172.375Z" fill="white"/>
<path d="M34.3491 84.4537C38.7466 82.6481 40.8438 77.629 39.0333 73.2432C37.2229 68.8574 32.1904 66.7658 27.7929 68.5714C23.3954 70.3771 21.2982 75.3962 23.1087 79.782C24.9191 84.1677 29.9516 86.2593 34.3491 84.4537Z" fill="white"/>
<path d="M31.0686 70.0203C31.369 71.1187 31.4691 72.2171 31.5692 73.3156C31.6693 74.414 31.6693 75.5125 31.6693 76.6109L30.9684 75.9119C31.9697 75.9119 32.8708 76.0117 33.8721 76.1116C34.8733 76.2115 35.7744 76.3113 36.7757 76.6109C35.7744 76.9105 34.8733 77.0103 33.8721 77.1102C32.8708 77.21 31.9697 77.21 30.9684 77.3099H30.2676V76.6109C30.2676 75.5125 30.2676 74.414 30.3677 73.3156C30.6681 72.1173 30.7682 71.1187 31.0686 70.0203Z" fill="#7FD4FF"/>
<path d="M345.66 21.6889C345.66 27.1811 341.154 31.6747 335.647 31.6747C330.141 31.6747 325.635 27.1811 325.635 21.6889C325.635 16.1967 330.141 11.7031 335.647 11.7031C341.154 11.7031 345.66 16.1967 345.66 21.6889Z" fill="white"/>
<path d="M341.455 21.3894C342.857 18.9928 342.056 15.9971 339.653 14.599C337.25 13.201 334.246 13.9999 332.844 16.3965C331.643 18.4935 332.143 21.1897 334.046 22.6875L331.242 27.4807C331.042 27.7803 331.142 28.2796 331.543 28.4793C331.843 28.679 332.344 28.5792 332.544 28.1797L335.347 23.3866C337.55 24.3851 340.253 23.5863 341.455 21.3894ZM335.447 21.9885C333.745 20.99 333.245 18.8929 334.146 17.1954C335.147 15.4978 337.25 14.9985 338.952 15.8972C340.654 16.8958 341.155 18.9928 340.253 20.6904C339.252 22.388 337.049 22.8873 335.447 21.9885Z" fill="#7FD4FF"/>
<path d="M404.433 160.592C404.433 163.987 401.63 166.783 398.225 166.783C394.821 166.783 392.018 163.987 392.018 160.592C392.018 157.196 394.821 154.4 398.225 154.4C401.73 154.5 404.433 157.196 404.433 160.592Z" fill="white"/>
<path d="M400.528 160.791C400.929 160.292 401.129 159.693 401.129 158.994C401.129 158.195 400.728 157.396 400.128 156.897C399.527 156.398 398.726 156.098 397.825 156.198C396.623 156.398 395.522 157.296 395.322 158.495C395.222 159.293 395.422 160.192 395.922 160.791C396.423 161.39 396.723 162.189 396.723 162.888V163.188H396.623V164.586H399.627V163.188H399.527V162.888C399.727 162.189 400.027 161.49 400.528 160.791ZM396.523 160.492C396.123 159.992 395.922 159.293 396.023 158.694C396.223 157.696 397.024 156.997 398.025 156.797C398.726 156.697 399.327 156.897 399.827 157.396C400.328 157.796 400.628 158.495 400.628 159.094C400.628 159.593 400.428 160.092 400.128 160.492C399.527 161.191 399.227 162.089 399.227 162.888V162.988H398.926C399.126 162.289 399.527 160.891 399.227 160.392C399.126 160.292 399.126 160.192 399.026 160.192C398.926 160.192 398.826 160.192 398.726 160.192C398.626 160.092 398.526 159.992 398.325 159.992C398.225 159.992 398.025 160.092 397.925 160.192C397.825 160.092 397.625 160.192 397.524 160.292C397.224 160.592 397.524 161.89 397.825 162.888H397.524C397.524 162.089 397.124 161.191 396.523 160.492ZM398.125 162.988C397.825 161.89 397.524 160.691 397.725 160.592C397.725 160.592 397.725 160.592 397.825 160.592C397.825 160.592 397.825 160.592 397.925 160.592C397.925 160.691 397.925 160.891 398.025 160.991C398.125 161.091 398.225 161.091 398.325 160.991C398.426 160.991 398.426 160.891 398.426 160.791C398.426 160.691 398.325 160.592 398.325 160.492C398.325 160.492 398.325 160.492 398.325 160.392L398.426 160.292C398.426 160.292 398.526 160.292 398.626 160.392C398.526 160.492 398.526 160.492 398.526 160.592C398.426 160.791 398.526 160.891 398.726 160.891C398.826 160.891 398.926 160.891 398.926 160.791C399.026 160.691 399.026 160.492 399.026 160.392C399.126 160.392 399.126 160.392 399.126 160.392C399.327 160.691 399.026 161.89 398.726 162.788H398.125V162.988Z" fill="#7FD4FF"/>
<path d="M165.536 208.923H115.774C114.272 208.923 112.971 207.725 112.971 206.127V173.474C112.971 171.976 114.172 170.677 115.774 170.677H165.536C167.038 170.677 168.34 171.876 168.34 173.474V206.127C168.34 207.625 167.038 208.923 165.536 208.923Z" fill="#E6F4FF"/>
<path d="M162.432 208.923H112.67C111.168 208.923 109.867 207.725 109.867 206.127V173.474C109.867 171.976 111.068 170.677 112.67 170.677H162.432C163.934 170.677 165.236 171.876 165.236 173.474V206.127C165.135 207.625 163.934 208.923 162.432 208.923Z" fill="#FFCC00"/>
<path opacity="0.22" d="M112.57 206.427L137.101 180.863C137.301 180.663 137.701 180.663 138.002 180.863L161.931 205.827L112.57 206.427Z" fill="#FFCC00"/>
<path d="M112.57 206.427L136.2 184.757C137.001 184.058 138.202 184.058 138.903 184.757L162.532 206.427C163.534 207.325 162.833 208.923 161.531 208.923H113.571C112.17 208.923 111.569 207.325 112.57 206.427Z" fill="#FFDA00"/>
<path d="M135.298 192.846L111.969 172.475C111.168 171.776 111.669 170.578 112.67 170.578H162.232C163.233 170.578 163.734 171.776 162.933 172.475L139.704 192.846C138.402 193.944 136.6 193.944 135.298 192.846Z" fill="#FFE356"/>
<path opacity="0.22" d="M135.999 195.442L111.969 172.575H162.933L138.903 195.442C138.102 196.141 136.9 196.141 135.999 195.442Z" fill="#FFCC00"/>
<path d="M398.025 214.015H28.0649C26.6632 214.015 25.4617 212.917 25.4617 211.419C25.4617 210.021 26.563 208.823 28.0649 208.823H398.025C399.427 208.823 400.628 209.921 400.628 211.419C400.628 212.817 399.427 214.015 398.025 214.015Z" fill="#222935"/>
<path d="M392.018 119.45L394.02 121.547L401.029 122.646L391.517 125.142L388.914 120.748L392.018 119.45Z" fill="#222935"/>
<path d="M344.759 83.6012C341.855 91.8894 344.759 94.0863 349.865 95.7839C351.868 96.4829 368.488 94.8852 373.494 96.4829C378.501 98.0806 389.014 122.546 389.014 122.546L393.619 119.85C393.619 119.85 383.207 91.1904 381.705 90.1918C379.402 88.5941 365.585 87.1961 361.68 86.1975C357.775 85.0991 354.571 81.1047 354.571 81.1047L344.759 83.6012Z" fill="url(#paint24_linear_930_2425)"/>
<path d="M346.061 64.7278C346.061 64.7278 347.162 76.3114 348.564 78.8078C349.865 81.2044 365.785 86.4969 367.087 86.5967C368.488 86.6966 370.691 85.5982 370.691 85.5982C370.691 85.5982 374.196 86.8963 374.796 86.4969C375.397 86.1973 371.692 83.601 370.291 83.3014C368.889 83.0019 366.686 84.1003 366.686 84.1003C366.686 84.1003 354.471 79.0075 353.069 76.8107C351.668 74.6138 350.666 63.8291 350.666 63.8291L346.061 64.7278Z" fill="#F8C3C7"/>
<path d="M349.064 53.344L347.562 57.3383L351.367 58.237L352.068 53.7434L349.064 53.344Z" fill="#FFCCCC"/>
<path d="M347.562 50.4483C347.562 50.5481 347.662 50.7478 347.662 50.8477C347.763 51.8463 348.063 52.8448 348.664 53.7436C349.264 54.6423 350.266 55.3413 351.367 55.4412C352.368 55.541 353.37 55.0417 354.07 54.4426C354.771 53.7436 355.272 52.8449 355.672 51.9461C356.173 50.4483 356.774 48.6508 355.973 47.3527C355.572 46.7535 353.37 45.6551 351.868 44.9561C350.967 44.5566 349.865 44.7563 349.164 45.5552L347.662 47.2528C347.062 47.8519 346.962 48.7507 347.162 49.5495L347.562 50.4483Z" fill="#FFCCCC"/>
<path d="M349.765 46.3541C349.264 46.2542 348.864 46.5538 348.664 46.9533C348.463 47.3527 348.564 47.852 348.764 48.3513C348.964 48.7507 349.264 49.1501 349.565 49.4497C348.964 50.2486 347.963 51.347 348.063 52.3456C347.262 51.8463 347.362 51.2471 346.661 50.4483C345.46 49.1501 343.657 43.8576 347.863 42.2599C352.368 36.4681 358.676 45.3555 359.677 44.8562C359.677 46.0545 358.576 47.9518 356.073 48.2514C354.971 48.3513 353.97 48.2514 352.969 47.7521C352.468 47.4525 352.068 47.153 351.567 47.0531C351.167 46.9532 350.766 48.551 350.466 48.3513C350.266 48.2514 350.065 46.454 349.765 46.3541Z" fill="#222935"/>
<path d="M390.516 120.748L392.418 122.845L399.527 123.944L390.015 126.54L387.412 122.046L390.516 120.748Z" fill="#222935"/>
<path d="M345.059 82.203C342.156 90.4912 343.157 95.4841 348.263 97.0818C350.266 97.7809 373.795 97.9806 373.795 97.9806L387.412 123.844L392.018 121.148C392.018 121.148 380.704 92.2887 379.402 91.1902C378.1 90.0918 364.484 88.1945 360.479 87.1959C356.574 86.0975 354.872 79.7065 354.872 79.7065L345.059 82.203Z" fill="url(#paint25_linear_930_2425)"/>
<path d="M351.768 57.7378C347.963 54.5424 343.457 56.7392 342.556 66.7251C341.755 76.611 342.356 89.6924 342.356 89.6924C348.864 91.1903 355.572 88.9934 361.279 86.3971C361.279 86.3971 355.973 79.8065 354.871 73.3157C354.071 68.0232 354.871 60.2343 351.768 57.7378Z" fill="url(#paint26_linear_930_2425)"/>
<path d="M348.864 65.5268C347.662 65.7265 346.861 66.825 346.962 68.1231C347.362 71.6181 348.263 78.2088 349.164 80.0062C350.466 82.4028 363.182 87.196 364.583 87.2959C365.485 87.3957 366.686 86.8964 367.487 86.5969C367.988 86.3971 368.588 86.3971 369.089 86.497C370.19 86.7966 371.893 87.3957 372.293 87.196C372.894 86.8964 369.189 84.3001 367.787 84.0005C366.986 83.8008 365.885 84.2003 365.084 84.4C364.483 84.5997 363.782 84.5997 363.182 84.3001C360.779 83.002 354.771 79.8065 353.77 78.1089C352.769 76.6111 352.068 70.9191 351.667 67.524C351.467 66.2258 350.166 65.3271 348.864 65.5268Z" fill="#FFCCCC"/>
<path d="M348.063 58.1372C343.357 59.4354 345.56 69.3213 345.56 69.3213C347.762 70.1202 350.466 69.8206 353.369 68.9219C352.468 66.5253 352.268 57.0388 348.063 58.1372Z" fill="white"/>
<path d="M380.003 88.1946H361.58C360.979 88.1946 360.478 87.6953 360.478 87.0962C360.478 86.4971 360.979 85.9978 361.58 85.9978H379.101L381.605 69.7209C381.705 69.1217 382.205 68.7223 382.806 68.8222C383.407 68.922 383.807 69.4213 383.707 70.0205L381.104 87.1961C381.004 87.7952 380.503 88.1946 380.003 88.1946Z" fill="#FF9A25"/>
<path d="M371.993 208.923H315.322C310.917 208.923 307.312 205.328 307.312 200.934V103.972C307.312 99.5783 310.917 95.9834 315.322 95.9834H371.993C376.398 95.9834 380.003 99.5783 380.003 103.972V200.934C380.003 205.328 376.398 208.923 371.993 208.923Z" fill="#E6F4FF"/>
<path d="M368.188 208.923H311.518C307.112 208.923 303.508 205.328 303.508 200.934V103.972C303.508 99.5783 307.112 95.9834 311.518 95.9834H368.188C372.594 95.9834 376.198 99.5783 376.198 103.972V200.934C376.098 205.328 372.594 208.923 368.188 208.923Z" fill="url(#paint27_linear_930_2425)"/>
<path d="M376.098 103.673H303.508V201.334H376.098V103.673Z" fill="white"/>
<g opacity="0.55">
<path opacity="0.69" d="M369.489 110.962H310.216C309.415 110.962 308.814 110.363 308.814 109.564C308.814 108.765 309.415 108.166 310.216 108.166H369.489C370.29 108.166 370.891 108.765 370.891 109.564C370.891 110.263 370.29 110.962 369.489 110.962Z" fill="#C2EEFF"/>
<path opacity="0.69" d="M369.489 117.054H310.216C309.415 117.054 308.814 116.454 308.814 115.656C308.814 114.857 309.415 114.258 310.216 114.258H369.489C370.29 114.258 370.891 114.857 370.891 115.656C370.891 116.454 370.29 117.054 369.489 117.054Z" fill="#C2EEFF"/>
<path opacity="0.69" d="M369.489 123.145H310.216C309.415 123.145 308.814 122.546 308.814 121.747C308.814 120.948 309.415 120.349 310.216 120.349H369.489C370.29 120.349 370.891 120.948 370.891 121.747C370.891 122.546 370.29 123.145 369.489 123.145Z" fill="#C2EEFF"/>
<path opacity="0.69" d="M369.489 129.336H310.216C309.415 129.336 308.814 128.737 308.814 127.938C308.814 127.139 309.415 126.54 310.216 126.54H369.489C370.29 126.54 370.891 127.139 370.891 127.938C370.891 128.737 370.29 129.336 369.489 129.336Z" fill="#C2EEFF"/>
<path d="M366.286 179.665H313.32C310.817 179.665 308.714 177.667 308.714 175.071V137.025C308.714 134.529 310.717 132.432 313.32 132.432H366.286C368.789 132.432 370.891 134.429 370.891 137.025V175.071C370.891 177.567 368.789 179.665 366.286 179.665Z" fill="#C2EEFF"/>
</g>
<path opacity="0.55" d="M367.487 196.041H312.218C310.316 196.041 308.814 194.543 308.814 192.646V192.047C308.814 190.15 310.316 188.652 312.218 188.652H367.487C369.39 188.652 370.891 190.15 370.891 192.047V192.646C370.891 194.543 369.39 196.041 367.487 196.041ZM369.49 183.16H310.116C309.315 183.16 308.714 183.759 308.714 184.558C308.714 185.357 309.315 185.956 310.116 185.956H369.49C370.291 185.956 370.891 185.357 370.891 184.558C370.891 183.859 370.291 183.16 369.49 183.16Z" fill="#C2EEFF"/>
<path d="M95.1484 124.144C95.1484 124.144 102.157 117.154 104.46 105.77L107.464 105.171C107.464 105.171 106.262 119.65 101.456 124.743C96.6503 129.736 95.1484 124.144 95.1484 124.144Z" fill="url(#paint28_linear_930_2425)"/>
<path d="M105.161 105.57C105.161 105.57 103.759 104.472 104.159 102.674C104.56 100.877 105.761 100.677 105.561 101.676C105.361 102.674 105.861 103.074 105.962 103.473C106.462 104.671 106.162 105.27 106.162 105.27L105.161 105.57Z" fill="#FFCCCC"/>
<path d="M95.8493 118.052C96.1496 118.552 95.3486 122.146 95.3486 122.146L98.5526 121.248L97.8517 117.653L95.8493 118.052Z" fill="#FFCCCC"/>
<path d="M96.1496 118.352C95.3486 118.452 93.5464 117.853 92.8455 117.453L90.3424 115.456L90.042 110.962L95.2485 107.367C95.2485 107.367 102.758 117.353 96.1496 118.352Z" fill="#FFCCCC"/>
<path d="M91.2434 112.86C94.7477 111.162 96.8503 107.168 96.2496 103.373C95.4486 104.372 94.147 104.971 93.0456 105.37C91.8441 105.869 90.6426 106.369 89.6414 107.168C88.6401 107.967 87.9392 109.365 88.2396 110.563C86.8379 110.962 86.3372 112.86 86.7377 114.258C87.1382 115.755 88.2396 117.054 89.5412 117.753C90.943 118.452 92.9455 118.052 94.3472 117.453C92.9455 117.054 90.3422 115.456 92.545 114.957C92.0444 113.858 91.2434 112.86 91.2434 112.86Z" fill="#222935"/>
<path d="M93.2461 122.146C93.2461 121.847 94.3475 119.55 94.3475 119.55L100.055 119.151L100.355 120.748L93.2461 122.146Z" fill="white"/>
<path d="M100.755 203.431L100.855 206.027L106.763 208.823L97.4512 208.723L98.6527 202.932L100.755 203.431Z" fill="#222935"/>
<path d="M82.0321 203.431L81.932 206.027L76.0247 208.823L85.3362 208.723L84.1348 202.932L82.0321 203.431Z" fill="#222935"/>
<path d="M93.2461 151.804C93.2461 151.704 93.2461 151.704 93.2461 151.604L91.3437 151.704L89.5415 151.604V151.704L81.5315 152.004V206.027L85.136 205.728C85.136 205.728 88.9407 181.063 91.3437 164.886C93.7467 181.063 97.5514 205.728 97.5514 205.728L101.156 206.027V152.004L93.2461 151.804Z" fill="url(#paint29_linear_930_2425)"/>
<path d="M125.286 113.858C125.286 113.858 125.787 111.861 126.888 111.761L126.588 112.959C126.588 112.959 128.19 111.961 128.59 111.162C129.091 110.363 130.392 113.359 129.091 114.557C127.789 115.755 126.788 115.755 126.788 115.755L125.286 113.858Z" fill="#FFCCCC"/>
<path d="M79.3286 159.393C79.3286 159.393 86.3373 125.841 93.4462 121.647C96.2497 119.95 104.36 121.547 111.669 119.95C121.281 117.853 125.386 113.259 125.386 113.259L128.39 115.156C128.39 115.156 122.482 123.345 103.859 128.537C99.9543 139.122 103.359 159.393 103.359 159.393C103.359 159.393 86.5376 157.995 79.3286 159.393Z" fill="url(#paint30_linear_930_2425)"/>
<path d="M284.684 156.897C283.483 157.197 276.074 155.1 272.97 152.503C272.97 152.503 277.075 137.425 276.875 133.73C276.774 130.035 278.777 122.246 281.48 128.038C284.184 133.93 284.684 156.897 284.684 156.897Z" fill="url(#paint31_linear_930_2425)"/>
<path d="M284.384 202.931L284.584 205.428L278.977 208.923H288.589L287.188 202.232L284.384 202.931Z" fill="#222935"/>
<path d="M290.492 150.306C290.592 154.8 287.788 205.029 287.788 205.029L284.184 205.628L278.977 150.806L290.492 150.306Z" fill="url(#paint32_linear_930_2425)"/>
<path d="M279.578 202.931L279.678 205.428L274.171 208.923L283.583 208.523L282.281 202.232L279.578 202.931Z" fill="#222935"/>
<path d="M285.686 150.306C285.786 154.8 282.982 205.029 282.982 205.029L279.378 205.628L275.873 150.306H285.686Z" fill="url(#paint33_linear_930_2425)"/>
<path d="M287.388 153.202C279.578 153.402 275.773 151.305 275.373 150.606C274.972 149.907 275.573 149.308 275.773 148.309C276.775 144.315 279.378 134.129 279.278 131.134C279.178 127.439 281.18 119.65 283.883 125.442C286.587 131.333 287.388 153.202 287.388 153.202Z" fill="white"/>
<path d="M246.437 135.427L266.061 151.804L271.067 142.817L253.946 130.135L246.437 135.427Z" fill="#FDB42C"/>
<path d="M247.838 135.627L266.061 150.307L270.266 142.917L254.046 130.834L247.838 135.627Z" fill="white"/>
<path d="M247.338 133.93L248.139 134.529L252.945 131.134L252.344 130.734L247.338 133.93Z" fill="#00D1FF"/>
<path d="M259.653 124.842L259.353 128.238C259.353 128.238 272.369 142.018 284.284 128.937L283.383 121.148C283.383 121.048 275.773 136.825 259.653 124.842Z" fill="url(#paint34_linear_930_2425)"/>
<path d="M259.653 124.843C258.051 124.243 257.35 122.546 256.449 124.443C254.747 127.838 259.353 128.238 259.353 128.238L259.653 124.843Z" fill="#FFCCCC"/>
<path d="M258.452 117.952L255.748 127.938L255.848 129.336L256.649 128.238L259.253 118.252C259.353 117.553 258.752 117.253 258.452 117.952Z" fill="#222935"/>
<path d="M258.252 125.342C258.252 125.342 256.249 126.041 256.149 125.641C255.949 125.242 257.651 124.443 258.051 123.844C258.452 123.245 259.153 124.842 259.153 124.842L258.252 125.342Z" fill="#FFCCCC"/>
<path d="M279.778 115.755L281.68 120.249L283.383 118.751L283.683 113.758L279.778 115.755Z" fill="#FFCCCC"/>
<path d="M276.774 108.665C275.973 113.559 275.373 116.854 279.077 117.054C282.481 117.253 285.285 112.061 285.285 112.061C287.888 106.269 278.176 100.078 276.774 108.665Z" fill="#FFCCCC"/>
<path d="M273.37 103.773C276.774 108.666 281.58 109.464 283.082 108.865C283.783 108.666 283.783 109.365 283.483 110.862C285.385 109.964 284.684 112.36 283.282 113.259C282.882 114.158 282.682 115.356 282.682 115.356C282.682 115.356 287.388 112.36 287.388 109.165C287.388 105.27 284.484 105.67 284.484 105.67C284.484 105.67 282.782 100.377 278.076 102.075C273.37 103.773 273.37 103.773 273.37 103.773Z" fill="#222935"/>
<path d="M279.878 118.951L284.584 116.355L285.886 118.751L279.077 122.446L279.878 118.951Z" fill="white"/>
<path d="M258.051 142.817L258.552 146.911C258.452 147.011 272.97 152.503 279.077 136.326C279.077 136.326 277.475 147.211 275.173 155.1C275.173 155.1 282.281 158.495 291.793 156.897C291.793 156.897 293.095 128.138 286.687 119.251C283.283 114.457 278.577 122.246 277.375 127.039C275.974 133.131 272.469 146.711 258.051 142.817Z" fill="url(#paint35_linear_930_2425)"/>
<path d="M258.051 142.817C258.051 142.817 255.548 142.118 254.647 142.717C253.746 143.316 255.047 145.314 256.149 146.512C257.25 147.71 258.652 146.911 258.652 146.911L258.051 142.817Z" fill="#FFCCCC"/>
<defs>
<linearGradient id="paint0_linear_930_2425" x1="212.554" y1="216.337" x2="212.554" y2="184.268" gradientUnits="userSpaceOnUse">
<stop stop-color="#085EFF"/>
<stop offset="0.9981" stop-color="#0E0092"/>
</linearGradient>
<linearGradient id="paint1_linear_930_2425" x1="212.554" y1="17.0977" x2="212.554" y2="234.583" gradientUnits="userSpaceOnUse">
<stop stop-color="#28E8FF"/>
<stop offset="1" stop-color="#0129FF"/>
</linearGradient>
<linearGradient id="paint2_linear_930_2425" x1="212.555" y1="181.392" x2="212.555" y2="225.172" gradientUnits="userSpaceOnUse">
<stop stop-color="#085EFF"/>
<stop offset="0.9981" stop-color="#0E0092"/>
</linearGradient>
<linearGradient id="paint3_linear_930_2425" x1="195.852" y1="99.2992" x2="211.178" y2="90.8842" gradientUnits="userSpaceOnUse">
<stop offset="0.00116186" stop-color="#00D1FF"/>
<stop offset="0.9958" stop-color="#0162FF"/>
</linearGradient>
<linearGradient id="paint4_linear_930_2425" x1="188.936" y1="103.52" x2="207.202" y2="93.1176" gradientUnits="userSpaceOnUse">
<stop offset="0.00116186" stop-color="#00D1FF"/>
<stop offset="0.9958" stop-color="#0162FF"/>
</linearGradient>
<linearGradient id="paint5_linear_930_2425" x1="207.202" y1="96.0811" x2="191.789" y2="105.968" gradientUnits="userSpaceOnUse">
<stop offset="0.00116186" stop-color="#00D1FF"/>
<stop offset="0.9958" stop-color="#0162FF"/>
</linearGradient>
<linearGradient id="paint6_linear_930_2425" x1="202.035" y1="95.9879" x2="218.027" y2="86.9823" gradientUnits="userSpaceOnUse">
<stop offset="0.00116186" stop-color="#00D1FF"/>
<stop offset="0.9958" stop-color="#0162FF"/>
</linearGradient>
<linearGradient id="paint7_linear_930_2425" x1="199.363" y1="95.8425" x2="219.677" y2="85.072" gradientUnits="userSpaceOnUse">
<stop offset="0.00116186" stop-color="#00D1FF"/>
<stop offset="0.9958" stop-color="#0162FF"/>
</linearGradient>
<linearGradient id="paint8_linear_930_2425" x1="219.389" y1="88.6245" x2="200.979" y2="99.6852" gradientUnits="userSpaceOnUse">
<stop offset="0.00116186" stop-color="#00D1FF"/>
<stop offset="0.9958" stop-color="#0162FF"/>
</linearGradient>
<linearGradient id="paint9_linear_930_2425" x1="210.064" y1="93.711" x2="247.116" y2="71.2198" gradientUnits="userSpaceOnUse">
<stop offset="0.00693109" stop-color="#FF9A25"/>
<stop offset="1" stop-color="#FFE000"/>
</linearGradient>
<linearGradient id="paint10_linear_930_2425" x1="206.215" y1="85.7897" x2="239.617" y2="57.6873" gradientUnits="userSpaceOnUse">
<stop stop-color="#FFE000"/>
<stop offset="0.9996" stop-color="#FFE000" stop-opacity="0"/>
</linearGradient>
<linearGradient id="paint11_linear_930_2425" x1="205.599" y1="98.3354" x2="253.195" y2="84.1849" gradientUnits="userSpaceOnUse">
<stop offset="0.00693109" stop-color="#FF9A25"/>
<stop offset="1" stop-color="#FFE000"/>
</linearGradient>
<linearGradient id="paint12_linear_930_2425" x1="236.234" y1="76.7794" x2="269.414" y2="58.4816" gradientUnits="userSpaceOnUse">
<stop offset="0.00693109" stop-color="#FF9A25"/>
<stop offset="1" stop-color="#FFE000"/>
</linearGradient>
<linearGradient id="paint13_linear_930_2425" x1="238.586" y1="67.2568" x2="270.528" y2="67.2568" gradientUnits="userSpaceOnUse">
<stop offset="0.00693109" stop-color="#FF9A25"/>
<stop offset="1" stop-color="#FFE000"/>
</linearGradient>
<linearGradient id="paint14_linear_930_2425" x1="247.129" y1="50.5665" x2="282.542" y2="110.393" gradientUnits="userSpaceOnUse">
<stop offset="0.00116186" stop-color="#00D1FF"/>
<stop offset="0.9958" stop-color="#0162FF"/>
</linearGradient>
<linearGradient id="paint15_linear_930_2425" x1="239.628" y1="62.5397" x2="275.6" y2="62.5397" gradientUnits="userSpaceOnUse">
<stop offset="0.00116186" stop-color="#00D1FF"/>
<stop offset="0.9958" stop-color="#0162FF"/>
</linearGradient>
<linearGradient id="paint16_linear_930_2425" x1="234.768" y1="67.5076" x2="277.123" y2="67.5076" gradientUnits="userSpaceOnUse">
<stop offset="0.00116186" stop-color="#00D1FF"/>
<stop offset="0.9958" stop-color="#0162FF"/>
</linearGradient>
<linearGradient id="paint17_linear_930_2425" x1="254.332" y1="66.6279" x2="244.107" y2="73.7561" gradientUnits="userSpaceOnUse">
<stop offset="0.00116186" stop-color="#00D1FF"/>
<stop offset="0.9958" stop-color="#0162FF"/>
</linearGradient>
<linearGradient id="paint18_linear_930_2425" x1="254.534" y1="56.8819" x2="242.15" y2="65.1773" gradientUnits="userSpaceOnUse">
<stop offset="0.00116186" stop-color="#00D1FF"/>
<stop offset="0.9958" stop-color="#0162FF"/>
</linearGradient>
<linearGradient id="paint19_linear_930_2425" x1="269.42" y1="67.5698" x2="249.634" y2="78.4134" gradientUnits="userSpaceOnUse">
<stop offset="0.00116186" stop-color="#00D1FF"/>
<stop offset="0.9958" stop-color="#0162FF"/>
</linearGradient>
<linearGradient id="paint20_linear_930_2425" x1="254.573" y1="60.8212" x2="267.806" y2="86.3899" gradientUnits="userSpaceOnUse">
<stop offset="0.00116186" stop-color="#00D1FF"/>
<stop offset="0.9958" stop-color="#0162FF"/>
</linearGradient>
<linearGradient id="paint21_linear_930_2425" x1="212.875" y1="154.83" x2="212.875" y2="203.178" gradientUnits="userSpaceOnUse">
<stop stop-color="#085EFF"/>
<stop offset="0.9981" stop-color="#0E0092"/>
</linearGradient>
<linearGradient id="paint22_linear_930_2425" x1="215.819" y1="182.147" x2="215.819" y2="142.247" gradientUnits="userSpaceOnUse">
<stop offset="0.00116186" stop-color="#00D1FF"/>
<stop offset="0.9958" stop-color="#0162FF"/>
</linearGradient>
<linearGradient id="paint23_linear_930_2425" x1="234.643" y1="73.5236" x2="309.577" y2="36.7168" gradientUnits="userSpaceOnUse">
<stop offset="0.00693109" stop-color="#FF9A25"/>
<stop offset="1" stop-color="#FFE000"/>
</linearGradient>
<linearGradient id="paint24_linear_930_2425" x1="404.468" y1="128.999" x2="355.192" y2="84.0678" gradientUnits="userSpaceOnUse">
<stop stop-color="#085EFF"/>
<stop offset="0.9981" stop-color="#0E0092"/>
</linearGradient>
<linearGradient id="paint25_linear_930_2425" x1="400.317" y1="101.732" x2="344.219" y2="101.732" gradientUnits="userSpaceOnUse">
<stop stop-color="#085EFF"/>
<stop offset="0.9981" stop-color="#0E0092"/>
</linearGradient>
<linearGradient id="paint26_linear_930_2425" x1="349.896" y1="102.476" x2="353.706" y2="55.4097" gradientUnits="userSpaceOnUse">
<stop offset="0.1321" stop-color="#00A373"/>
<stop offset="1" stop-color="#43FFD9"/>
</linearGradient>
<linearGradient id="paint27_linear_930_2425" x1="339.832" y1="243.361" x2="339.832" y2="108.175" gradientUnits="userSpaceOnUse">
<stop offset="0.00693109" stop-color="#FF9A25"/>
<stop offset="1" stop-color="#FFE000"/>
</linearGradient>
<linearGradient id="paint28_linear_930_2425" x1="101.292" y1="133.075" x2="101.292" y2="103.809" gradientUnits="userSpaceOnUse">
<stop offset="0.00693109" stop-color="#FF9A25"/>
<stop offset="1" stop-color="#FFE000"/>
</linearGradient>
<linearGradient id="paint29_linear_930_2425" x1="91.3886" y1="152.63" x2="91.3886" y2="221.063" gradientUnits="userSpaceOnUse">
<stop stop-color="#085EFF"/>
<stop offset="0.9981" stop-color="#0E0092"/>
</linearGradient>
<linearGradient id="paint30_linear_930_2425" x1="103.879" y1="165.277" x2="103.879" y2="126.219" gradientUnits="userSpaceOnUse">
<stop offset="0.00693109" stop-color="#FF9A25"/>
<stop offset="1" stop-color="#FFE000"/>
</linearGradient>
<linearGradient id="paint31_linear_930_2425" x1="286.887" y1="125.208" x2="276.9" y2="155.885" gradientUnits="userSpaceOnUse">
<stop stop-color="#FF6570"/>
<stop offset="1" stop-color="#EC374F"/>
</linearGradient>
<linearGradient id="paint32_linear_930_2425" x1="284.759" y1="139.439" x2="284.759" y2="191.58" gradientUnits="userSpaceOnUse">
<stop stop-color="#085EFF"/>
<stop offset="0.9981" stop-color="#0E0092"/>
</linearGradient>
<linearGradient id="paint33_linear_930_2425" x1="280.723" y1="147.815" x2="280.723" y2="206.903" gradientUnits="userSpaceOnUse">
<stop stop-color="#085EFF"/>
<stop offset="0.9981" stop-color="#0E0092"/>
</linearGradient>
<linearGradient id="paint34_linear_930_2425" x1="249.293" y1="125.86" x2="284.019" y2="128.256" gradientUnits="userSpaceOnUse">
<stop stop-color="#FF6570"/>
<stop offset="1" stop-color="#EC374F"/>
</linearGradient>
<linearGradient id="paint35_linear_930_2425" x1="274.959" y1="121.377" x2="274.959" y2="161.374" gradientUnits="userSpaceOnUse">
<stop stop-color="#FF6570"/>
<stop offset="1" stop-color="#EC374F"/>
</linearGradient>
</defs>
</svg>
