<svg xmlns="http://www.w3.org/2000/svg" viewBox="0 0 686.27 413.62"><defs><style>.cls-1{fill:#fff;}.cls-2{fill:#e0e0e0;}.cls-3{fill:#263238;}.cls-4{fill:#ffcf33;}.cls-5{opacity:0.1;}.cls-6{fill:#f3725f;}.cls-7{opacity:0.2;}.cls-16,.cls-8{opacity:0.3;}.cls-9{fill:#455b64;}.cls-10{fill:#ebebeb;}.cls-11{fill:#fbbf9e;}.cls-12{fill:#f7996e;}.cls-13{fill:#cc6760;}.cls-14{fill:#9d4a42;}.cls-15{fill:#f7941d;}</style></defs><g id="Layer_2" data-name="Layer 2"><g id="Layer_1-2" data-name="Layer 1"><path class="cls-1" d="M270.2,90.52h0A39.36,39.36,0,0,1,216.75,75h0a39.35,39.35,0,0,1,15.52-53.45h0a39.35,39.35,0,0,1,53.45,15.52h0A39.36,39.36,0,0,1,270.2,90.52Z"/><path class="cls-2" d="M270.2,90.52l.53-.36,1.58-1,1.17-.73c.41-.29.84-.65,1.32-1l1.53-1.19c.56-.41,1.05-1,1.63-1.49A37.61,37.61,0,0,0,285,75.88a39.22,39.22,0,0,0,4.93-14.09c.09-.69.19-1.38.29-2.09s.06-1.43.1-2.16.1-1.46.05-2.2-.09-1.49-.13-2.25c0-.38-.05-.76-.07-1.14L290,50.8c-.11-.76-.23-1.53-.35-2.31s-.39-1.54-.58-2.32a20,20,0,0,0-.67-2.34,36.87,36.87,0,0,0-1.88-4.61c-.38-.75-.72-1.54-1.14-2.28L284,34.74c-.24-.37-.44-.76-.7-1.11l-.81-1.05c-.54-.69-1.06-1.42-1.64-2.1A42.32,42.32,0,0,0,277,26.65a41.64,41.64,0,0,0-4.42-3.39c-.79-.5-1.63-1-2.45-1.43-.42-.23-.81-.5-1.25-.69l-1.31-.59a43.28,43.28,0,0,0-5.44-2.07,45.1,45.1,0,0,0-5.82-1.18l-1.49-.2-1.5-.07L251.8,17a9.65,9.65,0,0,0-1.52,0l-3.05.16-3,.47a38.63,38.63,0,0,0-21.62,11.89l-2,2.32-1.78,2.5-.44.62-.38.66-.75,1.31-.75,1.31-.62,1.37a46.12,46.12,0,0,0-2.13,5.54,44.12,44.12,0,0,0-1.16,5.71l-.2,1.42c-.07.47-.06,1-.09,1.43,0,1-.11,1.89-.1,2.83a40.46,40.46,0,0,0,.49,5.55,41.74,41.74,0,0,0,1.17,5.31c.27.86.61,1.68.9,2.52l.45,1.24c.16.4.37.79.56,1.18l1.13,2.34c.4.75.88,1.46,1.31,2.18A36.58,36.58,0,0,0,221,80.89a20.11,20.11,0,0,0,1.61,1.82c.56.58,1.08,1.19,1.65,1.72L226.06,86l.87.76.93.67,1.83,1.31c.6.45,1.27.76,1.89,1.14s1.25.74,1.88,1.07l1.92.88a39,39,0,0,0,14.54,3.37A37.39,37.39,0,0,0,261.16,94a21.05,21.05,0,0,0,2.13-.58l1.83-.66c.56-.21,1.09-.37,1.56-.57l1.24-.59,1.7-.8.58-.25s-.18.11-.56.3l-1.67.84-1.24.62c-.47.2-1,.38-1.56.6l-1.82.68a21.64,21.64,0,0,1-2.13.61,37.25,37.25,0,0,1-11.31,1.3,38.9,38.9,0,0,1-14.68-3.33l-1.95-.87c-.63-.34-1.25-.71-1.89-1.07s-1.31-.7-1.92-1.15l-1.85-1.32-.94-.67-.88-.77L224,84.74c-.59-.54-1.11-1.16-1.68-1.74a19,19,0,0,1-1.63-1.83,37,37,0,0,1-2.93-4.1c-.44-.73-.93-1.44-1.34-2.21s-.76-1.57-1.15-2.36c-.18-.4-.4-.78-.56-1.2l-.46-1.25c-.3-.84-.65-1.68-.91-2.54a43.11,43.11,0,0,1-1.71-11c0-1,.07-1.91.1-2.87,0-.48,0-1,.08-1.45l.2-1.44A45.23,45.23,0,0,1,213.2,45a45.72,45.72,0,0,1,2.15-5.62L216,38l.75-1.33.77-1.33.38-.67.44-.63,1.8-2.53,2.06-2.35a42,42,0,0,1,10-7.82,42.21,42.21,0,0,1,11.93-4.23l3.09-.47,3.1-.17a9.9,9.9,0,0,1,1.54,0l1.53.06,1.53.08,1.51.21a35.83,35.83,0,0,1,11.4,3.3l1.32.6c.45.2.85.47,1.27.7.83.49,1.68.94,2.48,1.45a42.36,42.36,0,0,1,4.47,3.44,40.81,40.81,0,0,1,3.89,3.89c.59.69,1.11,1.42,1.66,2.13l.81,1.06c.27.36.48.75.71,1.12l1.38,2.23c.43.75.77,1.55,1.15,2.31a37.11,37.11,0,0,1,1.89,4.67,21.87,21.87,0,0,1,.68,2.36c.18.79.42,1.56.57,2.35s.23,1.56.35,2.34l.18,1.15.06,1.16.12,2.27a20.69,20.69,0,0,1-.06,2.23c0,.73,0,1.46-.11,2.18l-.3,2.11a39.16,39.16,0,0,1-5,14.18,37.38,37.38,0,0,1-7.16,8.85,21.61,21.61,0,0,1-1.66,1.48l-1.55,1.17c-.49.36-.92.71-1.34,1l-1.18.71-1.61,1Z"/><path class="cls-2" d="M254,54a9.66,9.66,0,0,0,.74-10.61c-2.56-4.69-8.19-6.55-12.59-4.16s-5.89,8.13-3.34,12.82a9.64,9.64,0,0,0,9.41,5.13C237,65.78,244.9,78.76,244.9,78.76l29-15.77S267.16,49.2,254,54Z"/><path class="cls-1" d="M30.07,30.59h0A16.3,16.3,0,0,1,24.31,8.27h0A16.3,16.3,0,0,1,46.63,2.51h0a16.3,16.3,0,0,1,5.75,22.32h0A16.29,16.29,0,0,1,30.07,30.59Z"/><path class="cls-2" d="M30.07,30.59a27,27,0,0,0,3.71,1.48,15.88,15.88,0,0,0,4.62.62,16.16,16.16,0,0,0,6-1.24,15.78,15.78,0,0,0,6-4.32,16.1,16.1,0,0,0,3.68-7.63,15.08,15.08,0,0,0,.17-4.61,17.49,17.49,0,0,0-.4-2.35,19.65,19.65,0,0,0-.81-2.3A16,16,0,0,0,36.75.6a19.09,19.09,0,0,0-2.4.41,18.81,18.81,0,0,0-2.26.78,15.22,15.22,0,0,0-4,2.38A16.13,16.13,0,0,0,24.2,24.3,15.39,15.39,0,0,0,27,28.05a26.78,26.78,0,0,0,3.1,2.54l-.24-.13-.66-.4a7.77,7.77,0,0,1-1-.73,11.25,11.25,0,0,1-1.31-1.13,15.7,15.7,0,0,1-2.89-3.76,16.47,16.47,0,0,1-1.11-13.51,16.55,16.55,0,0,1,5-7.13A15.65,15.65,0,0,1,31.9,1.33,19.23,19.23,0,0,1,34.22.52,18.34,18.34,0,0,1,36.7.1,16.43,16.43,0,0,1,53.55,10a17.5,17.5,0,0,1,.82,2.37,19,19,0,0,1,.42,2.43,15.66,15.66,0,0,1-.2,4.75,16.57,16.57,0,0,1-3.82,7.83A16.45,16.45,0,0,1,38.41,33a15.65,15.65,0,0,1-4.69-.71,12.75,12.75,0,0,1-1.62-.6A7.13,7.13,0,0,1,31,31.11l-.67-.38Z"/><path class="cls-2" d="M39.65,17.12a4,4,0,0,0,3.94-2,3.76,3.76,0,1,0-6.45-3.85,4,4,0,0,0,.16,4.43c-5.42-2.18-8.38,3.36-8.38,3.36l11.73,7S44.15,20.78,39.65,17.12Z"/><circle class="cls-1" cx="667" cy="32.17" r="19.26" transform="translate(492.23 676.67) rotate(-77.59)"/><path class="cls-2" d="M686.26,32.17a1.44,1.44,0,0,1,0-.31c0-.23,0-.53-.07-.91a9.48,9.48,0,0,0-.18-1.48,13,13,0,0,0-.41-2,18.22,18.22,0,0,0-2.15-5.08,19,19,0,0,0-22.89-8.1,17.69,17.69,0,0,0-4.81,2.59,20.6,20.6,0,0,0-2.15,1.83,21,21,0,0,0-1.87,2.21,18.95,18.95,0,0,0,0,22.47,23.23,23.23,0,0,0,1.86,2.2,23.35,23.35,0,0,0,2.16,1.84A18.26,18.26,0,0,0,660.52,50a19.24,19.24,0,0,0,10,.84,19,19,0,0,0,8-3.54,19.19,19.19,0,0,0,4.88-5.41,18.47,18.47,0,0,0,2.14-5.08,12.74,12.74,0,0,0,.41-2,9.37,9.37,0,0,0,.18-1.47c0-.38.05-.68.07-.92a1.61,1.61,0,0,1,0-.31,1,1,0,0,1,0,.32c0,.23,0,.53,0,.91a8.61,8.61,0,0,1-.12,1.49,13.79,13.79,0,0,1-.37,2,18.27,18.27,0,0,1-2.09,5.18,19.43,19.43,0,0,1-13.07,9.23,19.61,19.61,0,0,1-10.24-.82,18.49,18.49,0,0,1-5-2.64A23.11,23.11,0,0,1,653.2,46a23.13,23.13,0,0,1-1.92-2.26,19.41,19.41,0,0,1,0-23.07,21,21,0,0,1,1.92-2.26,20.64,20.64,0,0,1,2.22-1.88,18,18,0,0,1,4.94-2.64A19.48,19.48,0,0,1,670.59,13a19.4,19.4,0,0,1,13.07,9.22,18.15,18.15,0,0,1,2.1,5.18,14.29,14.29,0,0,1,.37,2,8.75,8.75,0,0,1,.12,1.49c0,.38,0,.68,0,.92A.9.9,0,0,1,686.26,32.17Z"/><path class="cls-2" d="M658.69,31.14a5.18,5.18,0,0,1,1.15-2.88,5,5,0,0,1,2.48-1.75,4,4,0,0,1,3.16.42,4,4,0,0,1,1.37,1.36,3.94,3.94,0,0,1,1.1-1.36,4,4,0,0,1,3.09-.81,4.92,4.92,0,0,1,2.68,1.42,5.22,5.22,0,0,1,1.5,2.72,6.31,6.31,0,0,1-.54,3.9,8.88,8.88,0,0,1-2.88,3.06c-1.92,1.33-4.45,3-4.45,3S665,38.7,663,37.62A9,9,0,0,1,659.71,35,6.41,6.41,0,0,1,658.69,31.14Z"/><path class="cls-2" d="M671.81,318.48c-26.85-9.47-50.26,1.91-50.26,1.91C641.66,333.64,671.81,318.48,671.81,318.48Z"/><path class="cls-2" d="M599.23,296.7C597,314,607,327.53,607,327.53,612.51,314.05,599.23,296.7,599.23,296.7Z"/><path class="cls-2" d="M610.63,333.91c18.48,9.94,37.9,4.51,37.9,4.51C635.72,326.54,610.63,333.91,610.63,333.91Z"/><path class="cls-2" d="M631.78,307.09c-.28-.26-10.77,10.71-23.42,24.52S585.7,356.82,586,357.08s10.78-10.71,23.42-24.52S632.07,307.35,631.78,307.09Z"/><path class="cls-2" d="M667,276s-31.76,6.75-39.36,34.75C627.64,310.71,654.82,305.33,667,276Z"/><path class="cls-2" d="M626.29,271.32s-18.42,20.87-9.33,44A50.12,50.12,0,0,0,626.29,271.32Z"/><path class="cls-2" d="M65.91,242.57c-6.64,30.57,9,54.54,9,54.54C86.57,273.37,65.91,242.57,65.91,242.57Z"/><path class="cls-2" d="M52.11,324.68c19.2.1,32.55-12.72,32.55-12.72C69.2,307.83,52.11,324.68,52.11,324.68Z"/><path class="cls-2" d="M91.11,307.16c8.31-21.51-.27-41.94-.27-41.94C79.64,280.81,91.11,307.16,91.11,307.16Z"/><path class="cls-2" d="M59,287.77c-.25.35,13.15,10.28,29.93,22.17s30.59,21.26,30.84,20.91-13.16-10.27-29.94-22.17S59.23,287.42,59,287.77Z"/><path class="cls-2" d="M20.22,253.64s11.7,33.7,43.27,38.15C63.49,291.79,53.9,262.89,20.22,253.64Z"/><path class="cls-2" d="M20.74,298.65S46,315.87,70,302.8C70,302.8,48.65,287.81,20.74,298.65Z"/><polygon class="cls-2" points="676.94 84.69 623.04 98.16 637.51 111.57 600.02 132.36 663.94 119.57 649.01 105.74 676.94 84.69"/><polygon class="cls-2" points="428.87 2.33 417.68 31.07 428.4 28.81 425.79 52.47 440.5 19.41 429.45 21.73 428.87 2.33"/><polygon class="cls-2" points="652.65 239.13 622.54 232.47 626.41 242.71 602.63 243.75 637.55 253.24 633.57 242.67 652.65 239.13"/><path class="cls-3" d="M659.81,413.36c0,.14-143.66.26-320.83.26s-320.87-.12-320.87-.26,143.63-.26,320.87-.26S659.81,413.22,659.81,413.36Z"/><path class="cls-4" d="M655.39,365.64a38.64,38.64,0,1,1-46.49-28.71A38.63,38.63,0,0,1,655.39,365.64Z"/><g class="cls-5"><path class="cls-1" d="M608.9,336.93a38.64,38.64,0,0,0-28.72,46.49s26.7-5.06,30.55-17.21S608.9,336.93,608.9,336.93Z"/></g><path class="cls-6" d="M645.63,367.32a29.37,29.37,0,1,1-35.34-21.83A29.36,29.36,0,0,1,645.63,367.32Z"/><g class="cls-7"><path d="M645.63,367.32a29.37,29.37,0,1,1-35.34-21.83A29.36,29.36,0,0,1,645.63,367.32Z"/></g><path class="cls-6" d="M646.72,368.32a29,29,0,1,1-34.86-21.54A29,29,0,0,1,646.72,368.32Z"/><g class="cls-7"><path class="cls-1" d="M646.72,368.32a29,29,0,1,1-34.86-21.54A29,29,0,0,1,646.72,368.32Z"/></g><path class="cls-6" d="M619.07,372.28l-1.71-7.22h0a15.53,15.53,0,0,1,4.07.09,13.26,13.26,0,0,1,2.06.71l0-.24.5-2.86.12-.66-1.61-1-.55.43a13.93,13.93,0,0,0-5.58-.28l-.94-4-1.47-.71.23,1-1.69.4.95,4c-5.45,1.85-7.34,5.66-6.48,9.31,1.18,5,5.73,5.25,9.93,5.27l1.69,7.15a14.17,14.17,0,0,1-7.79-1l-.76,4c2.24,1.17,5.91,1.51,9.46.89l.71,3-1.39.35,1.62.62,2.93-.69-1-4c5.48-1.89,7.42-5.67,6.56-9.32C627.88,372.53,623.26,372.3,619.07,372.28Zm-3.11-.06c-2.22-.12-3.94-.54-4.35-2.26-.37-1.57.4-3.11,2.84-4.11Zm1.4-7.17Zm4.22,17.88-1.49-6.33c2.29.1,4,.55,4.47,2.3C624.92,380.44,624.1,381.92,621.58,382.93Z"/><g class="cls-8"><path d="M619.07,372.28l-1.71-7.22h0a15.53,15.53,0,0,1,4.07.09,13.26,13.26,0,0,1,2.06.71l0-.24.5-2.86.12-.66-1.61-1-.55.43a13.93,13.93,0,0,0-5.58-.28l-.94-4-1.47-.71.23,1-1.69.4.95,4c-5.45,1.85-7.34,5.66-6.48,9.31,1.18,5,5.73,5.25,9.93,5.27l1.69,7.15a14.17,14.17,0,0,1-7.79-1l-.76,4c2.24,1.17,5.91,1.51,9.46.89l.71,3-1.39.35,1.62.62,2.93-.69-1-4c5.48-1.89,7.42-5.67,6.56-9.32C627.88,372.53,623.26,372.3,619.07,372.28Zm-3.11-.06c-2.22-.12-3.94-.54-4.35-2.26-.37-1.57.4-3.11,2.84-4.11Zm1.4-7.17Zm4.22,17.88-1.49-6.33c2.29.1,4,.55,4.47,2.3C624.92,380.44,624.1,381.92,621.58,382.93Z"/></g><path class="cls-6" d="M621.06,386.13l1,4-2.93.69-.94-4c-3.56.61-7.22.27-9.46-.9l.75-4a14.11,14.11,0,0,0,7.8,1l-1.69-7.15c-4.2,0-8.76-.31-9.93-5.28-.87-3.65,1-7.46,6.48-9.31l-1-4,2.93-.69.94,4a15.75,15.75,0,0,1,7.78.46l-.62,4a15.06,15.06,0,0,0-6.24-.56l1.7,7.22c4.2,0,8.82.26,10,5.23C628.48,380.45,626.54,384.23,621.06,386.13Zm-6.55-14.61-1.5-6.36c-2.45,1-3.22,2.53-2.84,4.1C610.57,371,612.3,371.4,614.51,371.52Zm8.6,6.69c-.41-1.75-2.18-2.2-4.47-2.3l1.5,6.32C622.66,381.22,623.48,379.75,623.11,378.21Z"/><path class="cls-3" d="M624.73,403.59l.23-.08.67-.21,1.09-.33a11,11,0,0,0,1.46-.5l1.8-.74a7.68,7.68,0,0,0,1-.49l1.06-.56a12.49,12.49,0,0,0,1.12-.62l1.14-.76c.39-.27.81-.51,1.2-.82l1.18-1a30.76,30.76,0,0,0,4.72-4.9l1.05-1.54c.18-.26.37-.52.54-.79l.47-.85c.31-.58.66-1.14.95-1.75s.53-1.23.81-1.86l.21-.48c.06-.16.11-.33.16-.49l.33-1,.33-1c.12-.34.16-.7.25-1.05.15-.7.33-1.41.45-2.13l.27-2.21A29,29,0,0,0,643,359.71c-.42-.62-.82-1.24-1.23-1.85s-.91-1.15-1.36-1.71c-.24-.27-.44-.57-.7-.82l-.74-.76-.74-.74c-.13-.13-.24-.26-.37-.37l-.4-.33-1.56-1.31c-.53-.41-1.1-.76-1.63-1.14l-.8-.55-.83-.47-1.64-.9a31.11,31.11,0,0,0-6.41-2.27l-1.49-.33c-.49-.1-1-.13-1.43-.2l-1.36-.16a11.35,11.35,0,0,0-1.29-.06l-1.2,0a8,8,0,0,0-1.1,0l-1.94.14a11.49,11.49,0,0,0-1.54.21l-1.12.19-.69.11-.24,0,.23-.05.69-.14,1.12-.22a9.8,9.8,0,0,1,1.54-.24l1.94-.17a8.1,8.1,0,0,1,1.11,0l1.21,0c.41,0,.85,0,1.29.05l1.37.15c.47.07.95.09,1.44.19l1.5.32a31.13,31.13,0,0,1,6.48,2.25l1.65.91c.28.16.56.3.84.47l.81.55c.54.38,1.11.73,1.64,1.14l1.59,1.32.4.33.37.37.75.75.76.77c.26.24.46.55.7.82.45.57.94,1.12,1.38,1.72l1.24,1.88a29.06,29.06,0,0,1,4.23,17.91c-.09.75-.18,1.5-.27,2.23s-.31,1.45-.46,2.16c-.09.35-.14.71-.26,1.05s-.22.68-.34,1l-.33,1c-.05.16-.1.33-.16.5l-.21.47-.83,1.89c-.29.61-.65,1.18-1,1.76l-.48.85c-.17.27-.36.53-.54.8l-1.07,1.55a31.09,31.09,0,0,1-4.78,4.91l-1.2,1c-.39.31-.82.55-1.21.81l-1.15.75a11.59,11.59,0,0,1-1.13.62l-1.07.56a7,7,0,0,1-1,.47l-1.82.72a9.66,9.66,0,0,1-1.48.48l-1.1.3-.67.19Z"/><path class="cls-1" d="M589.93,399.74s-.09-.08-.24-.25l-.66-.75c-.29-.33-.63-.73-1-1.23s-.81-1.05-1.22-1.71c-.22-.32-.44-.66-.67-1s-.44-.74-.68-1.13c-.47-.78-.9-1.67-1.36-2.58a38.13,38.13,0,0,1-3.57-12.83c-.08-1-.17-2-.17-2.91,0-.46,0-.9,0-1.33s0-.83,0-1.21c0-.78.1-1.48.16-2.09a15.12,15.12,0,0,1,.21-1.57q.11-.6.18-1a1.15,1.15,0,0,1,.08-.33,1.45,1.45,0,0,1,0,.34q0,.39-.12,1c-.06.43-.12,1-.16,1.57s-.12,1.31-.12,2.08l0,1.22c0,.42,0,.86,0,1.31,0,.91.11,1.88.19,2.89a43.41,43.41,0,0,0,1.24,6.52,42.78,42.78,0,0,0,2.31,6.22c.45.92.86,1.8,1.33,2.58.23.39.43.78.65,1.14l.66,1c.4.66.83,1.22,1.18,1.72s.67.92,1,1.26l.61.78A1.47,1.47,0,0,1,589.93,399.74Z"/><path class="cls-1" d="M608.76,373a2.36,2.36,0,0,1-1-.63,4.61,4.61,0,0,1-1.44-2.51,4.56,4.56,0,0,1,.37-2.88,2.4,2.4,0,0,1,.7-1s-.25.39-.52,1.05a4.74,4.74,0,0,0,1,5.17C608.38,372.72,608.78,372.94,608.76,373Z"/><path class="cls-1" d="M612.55,360.53a2.82,2.82,0,0,1-.42-1.15,2.57,2.57,0,0,1-.13-1.2,2.73,2.73,0,0,1,.41,1.14A2.54,2.54,0,0,1,612.55,360.53Z"/><path class="cls-1" d="M612.7,344.14a5.57,5.57,0,0,1-.93.19,10.75,10.75,0,0,0-1.08.2c-.42.09-.91.17-1.43.31s-1.1.28-1.7.48-1.25.42-1.92.66a33.62,33.62,0,0,0-4.2,2,32.1,32.1,0,0,0-3.84,2.61c-.55.46-1.08.88-1.54,1.32s-.9.84-1.27,1.23-.71.75-1,1.07-.53.6-.72.83a4.76,4.76,0,0,1-.63.71A8.28,8.28,0,0,1,593,355a11.13,11.13,0,0,1,.69-.88c.28-.32.58-.71,1-1.1s.78-.83,1.26-1.26,1-.89,1.53-1.36a31.49,31.49,0,0,1,3.87-2.65,30.92,30.92,0,0,1,4.25-2c.68-.23,1.32-.47,1.94-.64s1.19-.32,1.73-.44a13.89,13.89,0,0,1,1.44-.28c.43-.08.8-.13,1.1-.16A6.48,6.48,0,0,1,612.7,344.14Z"/><path class="cls-1" d="M630.79,409.11a4.57,4.57,0,0,1-.63.34c-.41.2-1,.47-1.78.76a28.18,28.18,0,0,1-6.23,1.55,27.88,27.88,0,0,1-6.41.09,16.48,16.48,0,0,1-1.92-.28,4.17,4.17,0,0,1-.7-.16,3.4,3.4,0,0,1,.71,0c.46.06,1.11.13,1.93.19A31.1,31.1,0,0,0,628.31,410c.77-.27,1.39-.5,1.81-.68A2.79,2.79,0,0,1,630.79,409.11Z"/><path class="cls-3" d="M655.39,365.64s-.07-.2-.18-.6-.25-1-.5-1.77a39.73,39.73,0,0,0-2.68-6.52,38.7,38.7,0,0,0-2.66-4.35,36.75,36.75,0,0,0-3.87-4.67,39,39,0,0,0-12.06-8.41A38.48,38.48,0,0,0,616,336.06a38.17,38.17,0,0,0-9.79,1.75,37.53,37.53,0,0,0-4.86,1.89,40.74,40.74,0,0,0-4.67,2.62,38.54,38.54,0,0,0-14.33,17.18,37.38,37.38,0,0,0-1.9,5.64,36,36,0,0,0-1,6A38.54,38.54,0,0,0,585,394.76c.52.87,1.11,1.69,1.69,2.52s1.22,1.61,1.88,2.35a38,38,0,0,0,4.22,4.2,38.62,38.62,0,0,0,20.51,9,42,42,0,0,0,5.35.24,38.91,38.91,0,0,0,14.73-3.3A38.4,38.4,0,0,0,647.55,399a39.14,39.14,0,0,0,7-12.91,37.41,37.41,0,0,0,1.37-5.91,40.62,40.62,0,0,0,.43-5.08,38.55,38.55,0,0,0-.53-7c-.11-.8-.27-1.4-.34-1.81s-.11-.62-.11-.62.21.83.51,2.42a37.54,37.54,0,0,1,.17,12.14,36.72,36.72,0,0,1-1.35,5.94,39,39,0,0,1-7,13A38.66,38.66,0,0,1,633.51,410a38.74,38.74,0,0,1-9.6,2.85,37.37,37.37,0,0,1-5.22.49,40.74,40.74,0,0,1-5.39-.24,38.78,38.78,0,0,1-24.91-13.23c-.67-.75-1.28-1.56-1.9-2.37s-1.18-1.66-1.7-2.54a38.7,38.7,0,0,1-5.63-23.83,35.26,35.26,0,0,1,1-6,37.9,37.9,0,0,1,1.91-5.68,38.85,38.85,0,0,1,14.44-17.3,41.93,41.93,0,0,1,4.71-2.62,37.11,37.11,0,0,1,4.89-1.9,38.73,38.73,0,0,1,19.18-1.05,37.83,37.83,0,0,1,8.22,2.62,39.07,39.07,0,0,1,12.09,8.48,36.66,36.66,0,0,1,3.86,4.7,37.47,37.47,0,0,1,5.28,10.94C655.21,364.81,655.39,365.64,655.39,365.64Z"/><circle class="cls-4" cx="67.02" cy="363.29" r="46.51" transform="translate(-266.33 204.08) rotate(-54.02)"/><g class="cls-5"><path class="cls-1" d="M37,327.76a46.52,46.52,0,0,0-5.52,65.55s25.91-20,23.42-35.11S37,327.76,37,327.76Z"/></g><path class="cls-6" d="M93,340.38a35.36,35.36,0,1,1-49.82-4.19A35.36,35.36,0,0,1,93,340.38Z"/><g class="cls-7"><path d="M93,340.38a35.36,35.36,0,1,1-49.82-4.19A35.36,35.36,0,0,1,93,340.38Z"/></g><path class="cls-6" d="M94.7,340.87a34.88,34.88,0,1,1-49.15-4.14A34.86,34.86,0,0,1,94.7,340.87Z"/><g class="cls-7"><path class="cls-1" d="M94.7,340.87a34.88,34.88,0,1,1-49.15-4.14A34.86,34.86,0,0,1,94.7,340.87Z"/></g><path class="cls-6" d="M67.17,360.17l-5.76-6.82,0,0a18.08,18.08,0,0,1,4.42-2.12,14.92,14.92,0,0,1,2.61-.36l-.09-.29-1-3.34-.24-.77-2.29-.25-.36.75a16.91,16.91,0,0,0-6.15,2.75L55.16,346l-2,.05.8.94-1.6,1.35,3.22,3.82c-4.84,5-4.8,10.07-1.89,13.52,4,4.69,9,2.51,13.53.26L73,372.64A16.87,16.87,0,0,1,64,375.78l1.36,4.7c3,0,7.16-1.6,10.64-4.19l2.39,2.83-1.3,1.14,2.08-.22L82,377.7l-3.2-3.78c4.85-5,4.87-10.14,2-13.58C76.77,355.64,71.69,357.92,67.17,360.17ZM63.8,361.8c-2.44,1.08-4.52,1.57-5.89-.06s-1.27-3.55.81-5.95Zm-2.4-8.45Zm14.27,16.89-5-6c2.51-1.14,4.66-1.62,6,0C77.9,365.75,77.82,367.78,75.67,370.24Z"/><g class="cls-8"><path d="M67.17,360.17l-5.76-6.82,0,0a18.08,18.08,0,0,1,4.42-2.12,14.92,14.92,0,0,1,2.61-.36l-.09-.29-1-3.34-.24-.77-2.29-.25-.36.75a16.91,16.91,0,0,0-6.15,2.75L55.16,346l-2,.05.8.94-1.6,1.35,3.22,3.82c-4.84,5-4.8,10.07-1.89,13.52,4,4.69,9,2.51,13.53.26L73,372.64A16.87,16.87,0,0,1,64,375.78l1.36,4.7c3,0,7.16-1.6,10.64-4.19l2.39,2.83-1.3,1.14,2.08-.22L82,377.7l-3.2-3.78c4.85-5,4.87-10.14,2-13.58C76.77,355.64,71.69,357.92,67.17,360.17ZM63.8,361.8c-2.44,1.08-4.52,1.57-5.89-.06s-1.27-3.55.81-5.95Zm-2.4-8.45Zm14.27,16.89-5-6c2.51-1.14,4.66-1.62,6,0C77.9,365.75,77.82,367.78,75.67,370.24Z"/></g><path class="cls-6" d="M76.85,374l3.2,3.78-2.77,2.34-3.17-3.75c-3.48,2.6-7.6,4.23-10.64,4.19l-1.36-4.69A17,17,0,0,0,71,372.68l-5.71-6.75c-4.52,2.25-9.56,4.43-13.53-.26-2.91-3.45-2.95-8.56,1.89-13.52l-3.23-3.82L53.22,346l3.17,3.75A18.87,18.87,0,0,1,65,346l1.5,4.58a18.27,18.27,0,0,0-7,2.8l5.77,6.82c4.52-2.26,9.61-4.53,13.57.17C81.72,363.82,81.7,368.94,76.85,374Zm-15-12.12-5.08-6c-2.08,2.4-2.07,4.47-.81,5.95C57.35,363.41,59.43,362.92,61.87,361.84Zm12.88,2.5c-1.4-1.66-3.54-1.18-6.06,0l5,6C75.9,367.82,76,365.79,74.75,364.34Z"/><path class="cls-3" d="M90.3,390.7l.2-.21.61-.59,1-.95a12,12,0,0,0,1.31-1.34l1.52-1.77a9,9,0,0,0,.81-1.06c.27-.38.55-.77.83-1.18a15.1,15.1,0,0,0,.87-1.28c.26-.47.53-.94.81-1.43s.59-1,.84-1.53l.74-1.68a36.76,36.76,0,0,0,2.4-7.83c.1-.73.2-1.47.3-2.23,0-.37.1-.75.14-1.14s0-.77,0-1.17c0-.78.09-1.58.07-2.38l-.15-2.45,0-.63c0-.2-.07-.41-.1-.62-.06-.41-.12-.83-.19-1.25s-.13-.84-.2-1.26-.2-.84-.29-1.26c-.23-.84-.42-1.7-.68-2.54l-.92-2.52a34.8,34.8,0,0,0-14.16-16.76l-2.33-1.33c-.79-.4-1.6-.73-2.39-1.09-.4-.16-.78-.38-1.19-.5l-1.22-.4-1.2-.41-.59-.19-.61-.14L74.13,329c-.79-.15-1.59-.22-2.37-.34l-1.16-.15c-.38,0-.77,0-1.15-.05l-2.24-.08a36.54,36.54,0,0,0-8.12,1.06l-1.78.45c-.58.16-1.11.39-1.65.57l-1.54.57a15.33,15.33,0,0,0-1.41.63l-1.31.63a10.1,10.1,0,0,0-1.18.62l-2,1.21a12.39,12.39,0,0,0-1.54,1.06l-1.1.81-.68.5-.24.16.22-.19.66-.52,1.08-.85A12.48,12.48,0,0,1,48.15,334l2-1.24a9.39,9.39,0,0,1,1.18-.63l1.31-.64a15.36,15.36,0,0,1,1.41-.66l1.55-.57c.54-.19,1.07-.43,1.65-.59l1.79-.47a37.5,37.5,0,0,1,8.17-1.11l2.27.08c.38,0,.77,0,1.16,0l1.17.15c.78.11,1.59.18,2.39.33l2.41.55.61.14.61.19L79,330l1.23.4c.41.13.79.34,1.2.51.8.36,1.62.69,2.42,1.09l2.35,1.34a35,35,0,0,1,14.3,16.93c.31.85.62,1.7.92,2.54s.45,1.72.68,2.56a11.27,11.27,0,0,1,.29,1.28c.07.42.14.85.2,1.27s.13.85.19,1.26c0,.21.07.42.1.63l0,.63c0,.83.09,1.66.14,2.47s0,1.62-.07,2.41c0,.39,0,.79-.05,1.18s-.1.77-.15,1.15c-.1.76-.21,1.51-.31,2.24a37,37,0,0,1-2.45,7.88c-.26.57-.52,1.13-.76,1.68s-.58,1-.86,1.53-.56,1-.83,1.44a13.71,13.71,0,0,1-.88,1.28l-.85,1.18a9,9,0,0,1-.82,1.06l-1.56,1.76A13.65,13.65,0,0,1,92.17,389l-1,.92-.63.57Z"/><path class="cls-1" d="M50.85,405.52a2.17,2.17,0,0,1-.4-.14l-1.12-.45c-.48-.19-1.07-.44-1.73-.78s-1.44-.68-2.24-1.16l-1.28-.73c-.44-.26-.87-.56-1.34-.86-.93-.57-1.87-1.29-2.87-2A51.35,51.35,0,0,1,34,393.94a50.52,50.52,0,0,1-4.9-6.39c-.64-1.05-1.27-2.05-1.76-3-.25-.49-.52-.95-.73-1.42s-.42-.9-.62-1.33c-.41-.84-.68-1.64-1-2.33s-.47-1.3-.62-1.8L24,376.49a1.9,1.9,0,0,1-.1-.41,2.17,2.17,0,0,1,.17.39c.1.29.24.66.41,1.13s.38,1.09.68,1.77.58,1.47,1,2.3L26.8,383c.22.45.49.91.74,1.39.5,1,1.14,2,1.78,3a47.49,47.49,0,0,0,10.75,11.75c1,.73,1.91,1.45,2.83,2,.46.3.89.61,1.32.87l1.26.75c.79.49,1.55.85,2.21,1.2s1.22.62,1.7.83l1.09.51Z"/><path class="cls-1" d="M56.49,366.54a2.93,2.93,0,0,1-1.45-.11,5.56,5.56,0,0,1-2.92-1.92A5.62,5.62,0,0,1,51,361.22a3,3,0,0,1,.23-1.43c.06,0,0,.56,0,1.42a5.68,5.68,0,0,0,3.91,5C55.94,366.47,56.49,366.48,56.49,366.54Z"/><path class="cls-1" d="M53.78,351.11c-.07.06-.55-.39-1.07-1s-.88-1.16-.81-1.23.55.39,1.07,1S53.85,351,53.78,351.11Z"/><path class="cls-1" d="M45,333.44a7.5,7.5,0,0,1-.9.7c-.3.21-.66.47-1,.8s-.88.68-1.36,1.12-1,.9-1.57,1.44-1.11,1.13-1.7,1.76A40.34,40.34,0,0,0,35,343.68a39.79,39.79,0,0,0-2.7,4.9c-.34.79-.68,1.53-.94,2.26s-.5,1.39-.7,2-.34,1.19-.48,1.69-.25.93-.32,1.29a6.06,6.06,0,0,1-.29,1.1,7.17,7.17,0,0,1,.16-1.13,12,12,0,0,1,.26-1.31c.12-.5.24-1.09.44-1.71s.39-1.32.66-2,.58-1.49.92-2.29a37.18,37.18,0,0,1,2.7-5A38.87,38.87,0,0,1,38.2,339c.6-.63,1.16-1.23,1.74-1.75s1.1-1,1.61-1.42,1-.77,1.4-1.08A11.82,11.82,0,0,1,44,334,7.4,7.4,0,0,1,45,333.44Z"/><path class="cls-1" d="M99.81,393.32a3.33,3.33,0,0,1-.49.71c-.33.45-.84,1.06-1.5,1.79a33.64,33.64,0,0,1-12.67,8.65c-.93.35-1.69.6-2.22.75a3.16,3.16,0,0,1-.84.19,5.44,5.44,0,0,1,.8-.32c.52-.18,1.26-.47,2.17-.85a37.71,37.71,0,0,0,12.58-8.58c.68-.71,1.22-1.3,1.58-1.72A4.4,4.4,0,0,1,99.81,393.32Z"/><path class="cls-3" d="M102.55,333.27s-.18-.18-.52-.55-.81-.94-1.5-1.62a47.5,47.5,0,0,0-6.43-5.55,45.84,45.84,0,0,0-5.23-3.22,44.81,44.81,0,0,0-6.69-2.91A47.07,47.07,0,0,0,64.66,317a46.42,46.42,0,0,0-20.51,6,47.57,47.57,0,0,0-13.74,11.89,51.45,51.45,0,0,0-3.59,5.35,46.44,46.44,0,0,0-5,33.34A43.17,43.17,0,0,0,24,380.48a46.35,46.35,0,0,0,18.88,22.36c1,.65,2.12,1.21,3.19,1.79s2.18,1.06,3.3,1.5a47.13,47.13,0,0,0,6.82,2.21,46.41,46.41,0,0,0,26.89-1.56A49.65,49.65,0,0,0,89,404.13a48.55,48.55,0,0,0,5.31-3.34,46.48,46.48,0,0,0,8.71-8.22,46.58,46.58,0,0,0,9.33-19.22,47,47,0,0,0,.5-17.68,43.25,43.25,0,0,0-1.75-7.09,45.09,45.09,0,0,0-2.3-5.69,47.33,47.33,0,0,0-4.4-7.26c-.55-.8-1-1.36-1.34-1.76s-.46-.6-.46-.6.68.77,1.86,2.32a45.37,45.37,0,0,1,4.46,7.24,46.64,46.64,0,0,1,2.34,5.7,44.34,44.34,0,0,1,1.78,7.1,47,47,0,0,1-.45,17.77,46.36,46.36,0,0,1-9.35,19.35A46.38,46.38,0,0,1,94.44,401a47.76,47.76,0,0,1-5.34,3.38,48.75,48.75,0,0,1-5.92,2.67,46.71,46.71,0,0,1-27.08,1.59,46.2,46.2,0,0,1-6.87-2.22c-1.13-.45-2.22-1-3.32-1.51s-2.17-1.15-3.22-1.81a46.75,46.75,0,0,1-19-22.52,43.88,43.88,0,0,1-2.17-7,46.62,46.62,0,0,1,5-33.57,50.62,50.62,0,0,1,3.63-5.38,45.25,45.25,0,0,1,4.22-4.7A46.54,46.54,0,0,1,44,322.71a46.63,46.63,0,0,1,20.64-6,47.33,47.33,0,0,1,17.59,2.52A44.61,44.61,0,0,1,89,322.18a47.23,47.23,0,0,1,5.23,3.26,45.84,45.84,0,0,1,6.4,5.61C101.91,332.48,102.55,333.27,102.55,333.27Z"/><rect class="cls-6" x="508.86" y="303.58" width="85.53" height="15.53" transform="translate(1103.25 622.69) rotate(180)"/><path class="cls-3" d="M586,319.22c.19,0,.35-3.45.35-7.71s-.16-7.7-.35-7.7-.36,3.45-.36,7.7S585.81,319.22,586,319.22Z"/><path class="cls-3" d="M590.69,319.22c.19,0,.35-3.45.35-7.71s-.16-7.7-.35-7.7-.36,3.45-.36,7.7S590.49,319.22,590.69,319.22Z"/><path class="cls-3" d="M575.73,319.22c.2,0,.36-3.45.36-7.71s-.16-7.7-.36-7.7-.36,3.45-.36,7.7S575.53,319.22,575.73,319.22Z"/><path class="cls-3" d="M580.41,319.22c.2,0,.36-3.45.36-7.71s-.16-7.7-.36-7.7-.36,3.45-.36,7.7S580.21,319.22,580.41,319.22Z"/><path class="cls-3" d="M565.45,319.22c.2,0,.36-3.45.36-7.71s-.16-7.7-.36-7.7-.35,3.45-.35,7.7S565.26,319.22,565.45,319.22Z"/><path class="cls-3" d="M570.13,319.22c.2,0,.36-3.45.36-7.71s-.16-7.7-.36-7.7-.35,3.45-.35,7.7S569.94,319.22,570.13,319.22Z"/><path class="cls-3" d="M555.18,319.22c.19,0,.35-3.45.35-7.71s-.16-7.7-.35-7.7-.36,3.45-.36,7.7S555,319.22,555.18,319.22Z"/><path class="cls-3" d="M559.85,319.22c.2,0,.36-3.45.36-7.71s-.16-7.7-.36-7.7-.35,3.45-.35,7.7S559.66,319.22,559.85,319.22Z"/><path class="cls-3" d="M544.9,319.22c.19,0,.35-3.45.35-7.71s-.16-7.7-.35-7.7-.36,3.45-.36,7.7S544.7,319.22,544.9,319.22Z"/><path class="cls-3" d="M549.58,319.22c.19,0,.35-3.45.35-7.71s-.16-7.7-.35-7.7-.36,3.45-.36,7.7S549.38,319.22,549.58,319.22Z"/><path class="cls-3" d="M534.62,319.22c.2,0,.36-3.45.36-7.71s-.16-7.7-.36-7.7-.36,3.45-.36,7.7S534.42,319.22,534.62,319.22Z"/><path class="cls-3" d="M539.3,319.22c.2,0,.36-3.45.36-7.71s-.16-7.7-.36-7.7-.36,3.45-.36,7.7S539.1,319.22,539.3,319.22Z"/><path class="cls-3" d="M524.34,319.22c.2,0,.36-3.45.36-7.71s-.16-7.7-.36-7.7-.35,3.45-.35,7.7S524.15,319.22,524.34,319.22Z"/><path class="cls-3" d="M529,319.22c.2,0,.36-3.45.36-7.71s-.16-7.7-.36-7.7-.35,3.45-.35,7.7S528.83,319.22,529,319.22Z"/><path class="cls-3" d="M514.07,319.22c.19,0,.35-3.45.35-7.71s-.16-7.7-.35-7.7-.36,3.45-.36,7.7S513.87,319.22,514.07,319.22Z"/><path class="cls-3" d="M518.74,319.22c.2,0,.36-3.45.36-7.71s-.16-7.7-.36-7.7-.35,3.45-.35,7.7S518.55,319.22,518.74,319.22Z"/><path class="cls-3" d="M508.86,303.58c0,.2,19.23.35,43,.35s43-.15,43-.35-19.24-.36-43-.36S508.86,303.38,508.86,303.58Z"/><rect class="cls-6" x="514.45" y="319.36" width="85.53" height="15.53" transform="translate(1114.44 654.25) rotate(180)"/><path class="cls-3" d="M591.61,335c.19,0,.35-3.45.35-7.71s-.16-7.7-.35-7.7-.36,3.45-.36,7.7S591.41,335,591.61,335Z"/><path class="cls-3" d="M596.29,335c.19,0,.35-3.45.35-7.71s-.16-7.7-.35-7.7-.36,3.45-.36,7.7S596.09,335,596.29,335Z"/><path class="cls-3" d="M581.33,335c.2,0,.36-3.45.36-7.71s-.16-7.7-.36-7.7-.36,3.45-.36,7.7S581.13,335,581.33,335Z"/><path class="cls-3" d="M586,335c.19,0,.35-3.45.35-7.71s-.16-7.7-.35-7.7-.36,3.45-.36,7.7S585.81,335,586,335Z"/><path class="cls-3" d="M571.05,335c.2,0,.36-3.45.36-7.71s-.16-7.7-.36-7.7-.35,3.45-.35,7.7S570.86,335,571.05,335Z"/><path class="cls-3" d="M575.73,335c.2,0,.36-3.45.36-7.71s-.16-7.7-.36-7.7-.36,3.45-.36,7.7S575.53,335,575.73,335Z"/><path class="cls-3" d="M560.77,335c.2,0,.36-3.45.36-7.71s-.16-7.7-.36-7.7-.35,3.45-.35,7.7S560.58,335,560.77,335Z"/><path class="cls-3" d="M565.45,335c.2,0,.36-3.45.36-7.71s-.16-7.7-.36-7.7-.35,3.45-.35,7.7S565.26,335,565.45,335Z"/><path class="cls-3" d="M550.5,335c.19,0,.35-3.45.35-7.71s-.16-7.7-.35-7.7-.36,3.45-.36,7.7S550.3,335,550.5,335Z"/><path class="cls-3" d="M555.18,335c.19,0,.35-3.45.35-7.71s-.16-7.7-.35-7.7-.36,3.45-.36,7.7S555,335,555.18,335Z"/><path class="cls-3" d="M540.22,335c.2,0,.36-3.45.36-7.71s-.16-7.7-.36-7.7-.36,3.45-.36,7.7S540,335,540.22,335Z"/><path class="cls-3" d="M544.9,335c.19,0,.35-3.45.35-7.71s-.16-7.7-.35-7.7-.36,3.45-.36,7.7S544.7,335,544.9,335Z"/><path class="cls-3" d="M529.94,335c.2,0,.36-3.45.36-7.71s-.16-7.7-.36-7.7-.35,3.45-.35,7.7S529.75,335,529.94,335Z"/><path class="cls-3" d="M534.62,335c.2,0,.36-3.45.36-7.71s-.16-7.7-.36-7.7-.36,3.45-.36,7.7S534.42,335,534.62,335Z"/><path class="cls-3" d="M519.66,335c.2,0,.36-3.45.36-7.71s-.16-7.7-.36-7.7-.35,3.45-.35,7.7S519.47,335,519.66,335Z"/><path class="cls-3" d="M524.34,335c.2,0,.36-3.45.36-7.71s-.16-7.7-.36-7.7-.35,3.45-.35,7.7S524.15,335,524.34,335Z"/><path class="cls-3" d="M514.45,319.36c0,.19,19.24.35,43,.35s43-.16,43-.35-19.24-.36-43-.36S514.45,319.16,514.45,319.36Z"/><rect class="cls-6" x="507.46" y="335" width="85.53" height="15.53" transform="translate(1100.46 685.53) rotate(180)"/><path class="cls-3" d="M584.62,350.64c.19,0,.35-3.45.35-7.71s-.16-7.7-.35-7.7-.36,3.45-.36,7.7S584.42,350.64,584.62,350.64Z"/><path class="cls-3" d="M589.3,350.64c.19,0,.35-3.45.35-7.71s-.16-7.7-.35-7.7-.36,3.45-.36,7.7S589.1,350.64,589.3,350.64Z"/><path class="cls-3" d="M574.34,350.64c.2,0,.36-3.45.36-7.71s-.16-7.7-.36-7.7-.36,3.45-.36,7.7S574.14,350.64,574.34,350.64Z"/><path class="cls-3" d="M579,350.64c.19,0,.35-3.45.35-7.71s-.16-7.7-.35-7.7-.36,3.45-.36,7.7S578.82,350.64,579,350.64Z"/><path class="cls-3" d="M564.06,350.64c.2,0,.36-3.45.36-7.71s-.16-7.7-.36-7.7-.35,3.45-.35,7.7S563.87,350.64,564.06,350.64Z"/><path class="cls-3" d="M568.74,350.64c.2,0,.36-3.45.36-7.71s-.16-7.7-.36-7.7-.36,3.45-.36,7.7S568.54,350.64,568.74,350.64Z"/><path class="cls-3" d="M553.78,350.64c.2,0,.36-3.45.36-7.71s-.16-7.7-.36-7.7-.35,3.45-.35,7.7S553.59,350.64,553.78,350.64Z"/><path class="cls-3" d="M558.46,350.64c.2,0,.36-3.45.36-7.71s-.16-7.7-.36-7.7-.35,3.45-.35,7.7S558.27,350.64,558.46,350.64Z"/><path class="cls-3" d="M543.51,350.64c.19,0,.35-3.45.35-7.71s-.16-7.7-.35-7.7-.36,3.45-.36,7.7S543.31,350.64,543.51,350.64Z"/><path class="cls-3" d="M548.19,350.64c.19,0,.35-3.45.35-7.71s-.16-7.7-.35-7.7-.36,3.45-.36,7.7S548,350.64,548.19,350.64Z"/><path class="cls-3" d="M533.23,350.64c.2,0,.36-3.45.36-7.71s-.16-7.7-.36-7.7-.36,3.45-.36,7.7S533,350.64,533.23,350.64Z"/><path class="cls-3" d="M537.91,350.64c.19,0,.35-3.45.35-7.71s-.16-7.7-.35-7.7-.36,3.45-.36,7.7S537.71,350.64,537.91,350.64Z"/><path class="cls-3" d="M523,350.64c.2,0,.36-3.45.36-7.71s-.16-7.7-.36-7.7-.35,3.45-.35,7.7S522.76,350.64,523,350.64Z"/><path class="cls-3" d="M527.63,350.64c.2,0,.36-3.45.36-7.71s-.16-7.7-.36-7.7-.36,3.45-.36,7.7S527.43,350.64,527.63,350.64Z"/><path class="cls-3" d="M512.67,350.64c.2,0,.36-3.45.36-7.71s-.16-7.7-.36-7.7-.35,3.45-.35,7.7S512.48,350.64,512.67,350.64Z"/><path class="cls-3" d="M517.35,350.64c.2,0,.36-3.45.36-7.71s-.16-7.7-.36-7.7-.35,3.45-.35,7.7S517.16,350.64,517.35,350.64Z"/><path class="cls-3" d="M507.46,335c0,.19,19.29.35,43.07.35s43.07-.16,43.07-.35-19.28-.36-43.07-.36S507.46,334.8,507.46,335Z"/><rect class="cls-6" x="514.17" y="350.41" width="85.53" height="15.53" transform="translate(1113.87 716.34) rotate(180)"/><path class="cls-3" d="M591.32,366.05c.2,0,.36-3.45.36-7.71s-.16-7.7-.36-7.7-.35,3.45-.35,7.7S591.13,366.05,591.32,366.05Z"/><path class="cls-3" d="M596,366.05c.2,0,.36-3.45.36-7.71s-.16-7.7-.36-7.7-.36,3.45-.36,7.7S595.8,366.05,596,366.05Z"/><path class="cls-3" d="M581,366.05c.2,0,.36-3.45.36-7.71s-.16-7.7-.36-7.7-.35,3.45-.35,7.7S580.85,366.05,581,366.05Z"/><path class="cls-3" d="M585.72,366.05c.2,0,.36-3.45.36-7.71s-.16-7.7-.36-7.7-.35,3.45-.35,7.7S585.53,366.05,585.72,366.05Z"/><path class="cls-3" d="M570.77,366.05c.19,0,.35-3.45.35-7.71s-.16-7.7-.35-7.7-.36,3.45-.36,7.7S570.57,366.05,570.77,366.05Z"/><path class="cls-3" d="M575.45,366.05c.19,0,.35-3.45.35-7.71s-.16-7.7-.35-7.7-.36,3.45-.36,7.7S575.25,366.05,575.45,366.05Z"/><path class="cls-3" d="M560.49,366.05c.2,0,.36-3.45.36-7.71s-.16-7.7-.36-7.7-.36,3.45-.36,7.7S560.29,366.05,560.49,366.05Z"/><path class="cls-3" d="M565.17,366.05c.19,0,.35-3.45.35-7.71s-.16-7.7-.35-7.7-.36,3.45-.36,7.7S565,366.05,565.17,366.05Z"/><path class="cls-3" d="M550.21,366.05c.2,0,.36-3.45.36-7.71s-.16-7.7-.36-7.7-.35,3.45-.35,7.7S550,366.05,550.21,366.05Z"/><path class="cls-3" d="M554.89,366.05c.2,0,.36-3.45.36-7.71s-.16-7.7-.36-7.7-.36,3.45-.36,7.7S554.69,366.05,554.89,366.05Z"/><path class="cls-3" d="M539.93,366.05c.2,0,.36-3.45.36-7.71s-.16-7.7-.36-7.7-.35,3.45-.35,7.7S539.74,366.05,539.93,366.05Z"/><path class="cls-3" d="M544.61,366.05c.2,0,.36-3.45.36-7.71s-.16-7.7-.36-7.7-.35,3.45-.35,7.7S544.42,366.05,544.61,366.05Z"/><path class="cls-3" d="M529.66,366.05c.19,0,.35-3.45.35-7.71s-.16-7.7-.35-7.7-.36,3.45-.36,7.7S529.46,366.05,529.66,366.05Z"/><path class="cls-3" d="M534.34,366.05c.19,0,.35-3.45.35-7.71s-.16-7.7-.35-7.7-.36,3.45-.36,7.7S534.14,366.05,534.34,366.05Z"/><path class="cls-3" d="M519.38,366.05c.2,0,.36-3.45.36-7.71s-.16-7.7-.36-7.7-.36,3.45-.36,7.7S519.18,366.05,519.38,366.05Z"/><path class="cls-3" d="M524.06,366.05c.19,0,.35-3.45.35-7.71s-.16-7.7-.35-7.7-.36,3.45-.36,7.7S523.86,366.05,524.06,366.05Z"/><path class="cls-3" d="M514.17,350.41c0,.19,19.24.35,43,.35s43-.16,43-.35-19.23-.36-43-.36S514.17,350.21,514.17,350.41Z"/><rect class="cls-6" x="505.6" y="366.16" width="85.53" height="15.53" transform="translate(1096.73 747.86) rotate(180)"/><path class="cls-3" d="M582.75,381.8c.2,0,.36-3.45.36-7.7s-.16-7.71-.36-7.71-.36,3.45-.36,7.71S582.55,381.8,582.75,381.8Z"/><path class="cls-3" d="M587.43,381.8c.2,0,.35-3.45.35-7.7s-.15-7.71-.35-7.71-.36,3.45-.36,7.71S587.23,381.8,587.43,381.8Z"/><path class="cls-3" d="M572.47,381.8c.2,0,.36-3.45.36-7.7s-.16-7.71-.36-7.71-.35,3.45-.35,7.71S572.28,381.8,572.47,381.8Z"/><path class="cls-3" d="M577.15,381.8c.2,0,.36-3.45.36-7.7s-.16-7.71-.36-7.71-.35,3.45-.35,7.71S577,381.8,577.15,381.8Z"/><path class="cls-3" d="M562.2,381.8c.19,0,.35-3.45.35-7.7s-.16-7.71-.35-7.71-.36,3.45-.36,7.71S562,381.8,562.2,381.8Z"/><path class="cls-3" d="M566.87,381.8c.2,0,.36-3.45.36-7.7s-.16-7.71-.36-7.71-.35,3.45-.35,7.71S566.68,381.8,566.87,381.8Z"/><path class="cls-3" d="M551.92,381.8c.19,0,.35-3.45.35-7.7s-.16-7.71-.35-7.71-.36,3.45-.36,7.71S551.72,381.8,551.92,381.8Z"/><path class="cls-3" d="M556.6,381.8c.19,0,.35-3.45.35-7.7s-.16-7.71-.35-7.71-.36,3.45-.36,7.71S556.4,381.8,556.6,381.8Z"/><path class="cls-3" d="M541.64,381.8c.2,0,.36-3.45.36-7.7s-.16-7.71-.36-7.71-.36,3.45-.36,7.71S541.44,381.8,541.64,381.8Z"/><path class="cls-3" d="M546.32,381.8c.2,0,.35-3.45.35-7.7s-.15-7.71-.35-7.71-.36,3.45-.36,7.71S546.12,381.8,546.32,381.8Z"/><path class="cls-3" d="M531.36,381.8c.2,0,.36-3.45.36-7.7s-.16-7.71-.36-7.71-.35,3.45-.35,7.71S531.17,381.8,531.36,381.8Z"/><path class="cls-3" d="M536,381.8c.2,0,.36-3.45.36-7.7s-.16-7.71-.36-7.71-.35,3.45-.35,7.71S535.84,381.8,536,381.8Z"/><path class="cls-3" d="M521.09,381.8c.19,0,.35-3.45.35-7.7s-.16-7.71-.35-7.71-.36,3.45-.36,7.71S520.89,381.8,521.09,381.8Z"/><path class="cls-3" d="M525.76,381.8c.2,0,.36-3.45.36-7.7s-.16-7.71-.36-7.71-.35,3.45-.35,7.71S525.57,381.8,525.76,381.8Z"/><path class="cls-3" d="M510.81,381.8c.19,0,.35-3.45.35-7.7s-.16-7.71-.35-7.71-.36,3.45-.36,7.71S510.61,381.8,510.81,381.8Z"/><path class="cls-3" d="M515.49,381.8c.19,0,.35-3.45.35-7.7s-.16-7.71-.35-7.71-.36,3.45-.36,7.71S515.29,381.8,515.49,381.8Z"/><path class="cls-3" d="M505.6,366.16c0,.2,19.24.36,43,.36s43-.16,43-.36-19.23-.35-43-.35S505.6,366,505.6,366.16Z"/><rect class="cls-6" x="510.96" y="381.87" width="85.53" height="15.53" transform="translate(1107.46 779.28) rotate(180)"/><path class="cls-3" d="M588.11,397.51c.2,0,.36-3.45.36-7.7s-.16-7.71-.36-7.71-.35,3.45-.35,7.71S587.92,397.51,588.11,397.51Z"/><path class="cls-3" d="M592.79,397.51c.2,0,.36-3.45.36-7.7s-.16-7.71-.36-7.71-.35,3.45-.35,7.71S592.6,397.51,592.79,397.51Z"/><path class="cls-3" d="M577.84,397.51c.19,0,.35-3.45.35-7.7s-.16-7.71-.35-7.71-.36,3.45-.36,7.71S577.64,397.51,577.84,397.51Z"/><path class="cls-3" d="M582.51,397.51c.2,0,.36-3.45.36-7.7s-.16-7.71-.36-7.71-.35,3.45-.35,7.71S582.32,397.51,582.51,397.51Z"/><path class="cls-3" d="M567.56,397.51c.2,0,.35-3.45.35-7.7s-.15-7.71-.35-7.71-.36,3.45-.36,7.71S567.36,397.51,567.56,397.51Z"/><path class="cls-3" d="M572.24,397.51c.19,0,.35-3.45.35-7.7s-.16-7.71-.35-7.71-.36,3.45-.36,7.71S572,397.51,572.24,397.51Z"/><path class="cls-3" d="M557.28,397.51c.2,0,.36-3.45.36-7.7s-.16-7.71-.36-7.71-.36,3.45-.36,7.71S557.08,397.51,557.28,397.51Z"/><path class="cls-3" d="M562,397.51c.2,0,.36-3.45.36-7.7s-.16-7.71-.36-7.71-.36,3.45-.36,7.71S561.76,397.51,562,397.51Z"/><path class="cls-3" d="M547,397.51c.2,0,.36-3.45.36-7.7s-.16-7.71-.36-7.71-.35,3.45-.35,7.71S546.81,397.51,547,397.51Z"/><path class="cls-3" d="M551.68,397.51c.2,0,.36-3.45.36-7.7s-.16-7.71-.36-7.71-.35,3.45-.35,7.71S551.49,397.51,551.68,397.51Z"/><path class="cls-3" d="M536.73,397.51c.19,0,.35-3.45.35-7.7s-.16-7.71-.35-7.71-.36,3.45-.36,7.71S536.53,397.51,536.73,397.51Z"/><path class="cls-3" d="M541.4,397.51c.2,0,.36-3.45.36-7.7s-.16-7.71-.36-7.71-.35,3.45-.35,7.71S541.21,397.51,541.4,397.51Z"/><path class="cls-3" d="M526.45,397.51c.2,0,.35-3.45.35-7.7s-.15-7.71-.35-7.71-.36,3.45-.36,7.71S526.25,397.51,526.45,397.51Z"/><path class="cls-3" d="M531.13,397.51c.19,0,.35-3.45.35-7.7s-.16-7.71-.35-7.71-.36,3.45-.36,7.71S530.93,397.51,531.13,397.51Z"/><path class="cls-3" d="M516.17,397.51c.2,0,.36-3.45.36-7.7s-.16-7.71-.36-7.71-.36,3.45-.36,7.71S516,397.51,516.17,397.51Z"/><path class="cls-3" d="M520.85,397.51c.2,0,.36-3.45.36-7.7s-.16-7.71-.36-7.71-.36,3.45-.36,7.71S520.65,397.51,520.85,397.51Z"/><path class="cls-3" d="M511,381.87c0,.2,19.28.36,43.07.36s43.07-.16,43.07-.36-19.28-.35-43.07-.35S511,381.68,511,381.87Z"/><rect class="cls-6" x="517.67" y="397.28" width="85.53" height="15.53" transform="translate(1120.87 810.1) rotate(180)"/><path class="cls-3" d="M594.82,412.92c.2,0,.35-3.45.35-7.7s-.15-7.71-.35-7.71-.36,3.45-.36,7.71S594.62,412.92,594.82,412.92Z"/><path class="cls-3" d="M599.5,412.92c.19,0,.35-3.45.35-7.7s-.16-7.71-.35-7.71-.36,3.45-.36,7.71S599.3,412.92,599.5,412.92Z"/><path class="cls-3" d="M584.54,412.92c.2,0,.36-3.45.36-7.7s-.16-7.71-.36-7.71-.36,3.45-.36,7.71S584.34,412.92,584.54,412.92Z"/><path class="cls-3" d="M589.22,412.92c.2,0,.36-3.45.36-7.7s-.16-7.71-.36-7.71-.36,3.45-.36,7.71S589,412.92,589.22,412.92Z"/><path class="cls-3" d="M574.26,412.92c.2,0,.36-3.45.36-7.7s-.16-7.71-.36-7.71-.35,3.45-.35,7.71S574.07,412.92,574.26,412.92Z"/><path class="cls-3" d="M578.94,412.92c.2,0,.36-3.45.36-7.7s-.16-7.71-.36-7.71-.35,3.45-.35,7.71S578.75,412.92,578.94,412.92Z"/><path class="cls-3" d="M564,412.92c.19,0,.35-3.45.35-7.7s-.16-7.71-.35-7.71-.36,3.45-.36,7.71S563.79,412.92,564,412.92Z"/><path class="cls-3" d="M568.66,412.92c.2,0,.36-3.45.36-7.7s-.16-7.71-.36-7.71-.35,3.45-.35,7.71S568.47,412.92,568.66,412.92Z"/><path class="cls-3" d="M553.71,412.92c.2,0,.35-3.45.35-7.7s-.15-7.71-.35-7.71-.36,3.45-.36,7.71S553.51,412.92,553.71,412.92Z"/><path class="cls-3" d="M558.39,412.92c.19,0,.35-3.45.35-7.7s-.16-7.71-.35-7.71S558,401,558,405.22,558.19,412.92,558.39,412.92Z"/><path class="cls-3" d="M543.43,412.92c.2,0,.36-3.45.36-7.7s-.16-7.71-.36-7.71-.36,3.45-.36,7.71S543.23,412.92,543.43,412.92Z"/><path class="cls-3" d="M548.11,412.92c.2,0,.36-3.45.36-7.7s-.16-7.71-.36-7.71-.36,3.45-.36,7.71S547.91,412.92,548.11,412.92Z"/><path class="cls-3" d="M533.15,412.92c.2,0,.36-3.45.36-7.7s-.16-7.71-.36-7.71-.35,3.45-.35,7.71S533,412.92,533.15,412.92Z"/><path class="cls-3" d="M537.83,412.92c.2,0,.36-3.45.36-7.7s-.16-7.71-.36-7.71-.35,3.45-.35,7.71S537.64,412.92,537.83,412.92Z"/><path class="cls-3" d="M522.88,412.92c.19,0,.35-3.45.35-7.7s-.16-7.71-.35-7.71-.36,3.45-.36,7.71S522.68,412.92,522.88,412.92Z"/><path class="cls-3" d="M527.55,412.92c.2,0,.36-3.45.36-7.7s-.16-7.71-.36-7.71-.35,3.45-.35,7.71S527.36,412.92,527.55,412.92Z"/><path class="cls-3" d="M517.67,397.28c0,.2,19.23.36,43,.36s43-.16,43-.36-19.24-.35-43-.35S517.67,397.08,517.67,397.28Z"/><g class="cls-8"><path d="M593,335c-12.78,3.14-26.39,3.74-39.51,2.87s-26.38-2.8-39.54-2.64Z"/></g><g class="cls-8"><path d="M592.23,319.53c-12.78,3.14-26.39,3.75-39.51,2.88s-26.38-2.8-39.54-2.64Z"/></g><g class="cls-8"><path d="M588.09,350.56c-12.78,3.14-26.39,3.75-39.52,2.88s-26.38-2.81-39.53-2.65Z"/></g><g class="cls-8"><path d="M591.44,366.07c-12.77,3.14-26.39,3.74-39.51,2.87s-26.38-2.8-39.54-2.64Z"/></g><g class="cls-8"><path d="M590.42,381.51c-12.77,3.14-26.38,3.75-39.51,2.88s-26.38-2.81-39.53-2.65Z"/></g><g class="cls-8"><path d="M594.6,397.25c-12.77,3.14-26.38,3.75-39.51,2.88s-26.38-2.81-39.53-2.65Z"/></g><path class="cls-1" d="M592.82,314.2c.2,0,.36-1.9.36-4.25s-.16-4.25-.36-4.25-.35,1.9-.35,4.25S592.62,314.2,592.82,314.2Z"/><path class="cls-1" d="M598.22,330.8c.19,0,.35-2,.35-4.56s-.16-4.57-.35-4.57-.36,2-.36,4.57S598,330.8,598.22,330.8Z"/><path class="cls-1" d="M590.54,346.77c.2,0,.36-1.81.36-4s-.16-4.05-.36-4.05-.36,1.81-.36,4.05S590.34,346.77,590.54,346.77Z"/><path class="cls-1" d="M598.42,361.5c.2,0,.36-1.62.36-3.63s-.16-3.63-.36-3.63-.35,1.63-.35,3.63S598.23,361.5,598.42,361.5Z"/><path class="cls-1" d="M567.1,320.63c0,.2,6.31.36,14.1.36s14.11-.16,14.11-.36-6.31-.35-14.11-.35S567.1,320.44,567.1,320.63Z"/><path class="cls-1" d="M558,305.7c0,.19,6.36.35,14.21.35s14.21-.16,14.21-.35-6.36-.36-14.21-.36S558,305.5,558,305.7Z"/><path class="cls-1" d="M544.28,305.9c0,.2,2.09.36,4.66.36s4.67-.16,4.67-.36-2.09-.35-4.67-.35S544.28,305.71,544.28,305.9Z"/><path class="cls-1" d="M589.92,381.14a68,68,0,0,0,0-11.88,65.47,65.47,0,0,0,0,11.88Z"/><path class="cls-1" d="M524.92,364.33c0,.14,15.55.26,34.74.26s34.74-.12,34.74-.26-15.55-.27-34.74-.27S524.92,364.18,524.92,364.33Z"/><path class="cls-1" d="M538.82,395.7c0,.15,12.29.26,27.45.26s27.46-.11,27.46-.26-12.29-.26-27.46-.26S538.82,395.56,538.82,395.7Z"/><path class="cls-1" d="M602,409.82a21.84,21.84,0,0,0,0-6.72,21.84,21.84,0,0,0,0,6.72Z"/><path class="cls-1" d="M541.51,411.17c0,.14,12.74.26,28.46.26s28.46-.12,28.46-.26-12.74-.26-28.46-.26S541.51,411,541.51,411.17Z"/><path class="cls-3" d="M603.2,412.81a1,1,0,0,0,0-.28c0-.22,0-.49,0-.82,0-.77,0-1.82.06-3.14,0-2.77,0-6.67.08-11.43v-.21h-.21l-6.1.05.23.23c0-4.68,0-9.93,0-15.52v-.26h-5.92l.26.26c0-5.62,0-10.95,0-15.75l-.24.24,8.26,0h.21v-.2c0-4.72-.07-8.59-.09-11.34,0-1.31,0-2.34-.06-3.11q0-.48,0-.81a.14.14,0,1,0-.06,0q0,.33,0,.81c0,.77,0,1.8,0,3.11,0,2.75-.05,6.62-.09,11.34l.2-.21-8.26,0h-.24v.24c0,4.8,0,10.13,0,15.75V382h5.92l-.26-.26c0,5.59,0,10.84,0,15.52v.23h.23l6.1-.1-.2-.2c0,4.76.06,8.66.08,11.43,0,1.32,0,2.37.06,3.14,0,.33,0,.6,0,.82A1,1,0,0,0,603.2,412.81Z"/><path class="cls-3" d="M118.29,131.7H491.45a23,23,0,0,1,23,23v224a30.86,30.86,0,0,1-30.86,30.86H125.1a30.86,30.86,0,0,1-30.86-30.86v-223A24,24,0,0,1,118.29,131.7Z"/><path class="cls-3" d="M76.67,389H532a0,0,0,0,1,0,0v10.59a13.72,13.72,0,0,1-13.72,13.72H90.4a13.72,13.72,0,0,1-13.72-13.72V389a0,0,0,0,1,0,0Z"/><rect class="cls-1" x="105.53" y="142.74" width="396.5" height="234.68" rx="15.37"/><polygon class="cls-9" points="262.94 389.05 268.59 398.03 348.09 398.03 353.33 389.05 262.94 389.05"/><rect class="cls-9" x="94.32" y="388.96" width="420.23" height="1.34"/><rect class="cls-10" x="139.06" y="303.74" width="35.89" height="73.68"/><rect class="cls-10" x="195.61" y="266.77" width="35.89" height="110.65"/><rect class="cls-10" x="254.15" y="266.77" width="35.89" height="110.65"/><rect class="cls-10" x="374.18" y="212.97" width="35.89" height="164.45"/><rect class="cls-10" x="429.09" y="177.52" width="35.89" height="199.91"/><path class="cls-11" d="M213.72,296.68l41.88-60.3L334.3,175l42.43,112.52s-48.1,30.79-60.61,33.89-21.65,2.77-35.5,23Z"/><path class="cls-11" d="M393.14,156.59c1.18-.06,15.58,10.34,7.47,18.8-8.63,9-39.39,35.27-39.39,35.27s-15.6-1.45-12.24-10.44S393.14,156.59,393.14,156.59Z"/><path class="cls-6" d="M405.43,310.46a90.92,90.92,0,0,1-22.36-1.61,90.3,90.3,0,0,1-34.22-162.66L428.4,90.73l24.45,35.08-79.54,55.46a47.53,47.53,0,0,0,53.9,78.3l79-60,25.88,34L452.31,294.2l-.39.27A89.61,89.61,0,0,1,405.43,310.46Z"/><polygon class="cls-2" points="491.7 248.02 499.62 258.24 532.06 233.58 525.16 224.54 491.7 248.02"/><polygon class="cls-2" points="412.82 140.09 419.4 149.14 452.85 125.81 446.27 116.6 412.82 140.09"/><g class="cls-8"><path d="M405.51,310.57A90.89,90.89,0,0,1,383.15,309,90.29,90.29,0,0,1,348.93,146.3l79.54-55.46,24.46,35.08-79.55,55.46a47.53,47.53,0,0,0,53.91,78.29l79-60,25.88,34.05-79.74,60.62-.39.27A89.61,89.61,0,0,1,405.51,310.57Z"/></g><path class="cls-6" d="M398.79,301.35a91,91,0,0,1-22.37-1.61,90.29,90.29,0,0,1-34.21-162.66l79.54-55.46,24.46,35.08-79.55,55.46a47.53,47.53,0,0,0,53.91,78.29l79-60,25.9,34.44-79.76,60.23-.39.27A89.64,89.64,0,0,1,398.79,301.35Z"/><path class="cls-11" d="M361.15,226.87l2.56-2c5.79-6.34,4.76-12.44-1.17-16.39a7.81,7.81,0,0,0-3.71-1.4c-6.45-.49-22.86,2-29.75,5.16s-10.14,11-5.56,16.63,10.51,4.43,20,3.38A54.71,54.71,0,0,0,361.15,226.87Z"/><path class="cls-11" d="M339.4,238.75s-9.56,6.88-5.65,14.61,8.53,7.12,16.93,5.76S372,245.18,372,245.18s5.23-7.84,1-13.34c-5.72-7.46-10.43-4.38-15.34-2.63S339.4,238.75,339.4,238.75Z"/><path class="cls-11" d="M359.94,257.41s-6.88,12.52,2.08,16.85c7.94,3.84,15-3.72,19.28-9.77s8.05-11.19,2-15.84c-5.74-4.4-8.85-4.87-12.58-2.22C365.14,250.39,359.94,257.41,359.94,257.41Z"/><path class="cls-11" d="M237.56,263.45s17.48-47.71,23.18-59.71,40.33-39.65,40.33-39.65l36.17-16.52s13.51,15.86-2.94,27.45a304.91,304.91,0,0,1-31.37,19.33l-3.41,22.88s10.62,54.59-32.5,87.56Z"/><path class="cls-12" d="M304.05,194.29a1.09,1.09,0,0,1-.08.26l-.26.75c-.25.65-.58,1.62-1,2.88a63.23,63.23,0,0,0-2.28,10.95,117.24,117.24,0,0,0-.65,16.59c.11,6.25.54,13.13.51,20.38A80.4,80.4,0,0,1,298,266.36a46.79,46.79,0,0,1-7,15.09,33.13,33.13,0,0,1-8,7.91l-1.48,1c-.44.26-.83.45-1.13.62l-.71.37-.25.11a.8.8,0,0,1,.23-.16l.68-.41c.29-.18.67-.39,1.1-.66l1.45-1a34.58,34.58,0,0,0,7.77-8,47,47,0,0,0,6.82-15,81.15,81.15,0,0,0,2.25-20.14c0-7.22-.38-14.09-.47-20.37a113.74,113.74,0,0,1,.76-16.64,59.34,59.34,0,0,1,2.46-11c.43-1.26.79-2.22,1.07-2.86l.31-.73C304,194.37,304,194.28,304.05,194.29Z"/><polygon class="cls-2" points="387.55 105.59 412.82 140.09 446.27 116.6 421.93 81.31 387.55 105.59"/><polygon class="cls-2" points="465.89 215.83 492.82 249.39 525.43 224.87 499.69 190.34 465.89 215.83"/><path class="cls-12" d="M354.82,207.11A6.12,6.12,0,0,1,356,207l.66,0,.79.06.91.06,1,.19a10.87,10.87,0,0,1,8.28,7.53h0v0a10.84,10.84,0,0,1-.83,5,15.31,15.31,0,0,1-5.21,6.4,25.81,25.81,0,0,1-6,3.1c-1.8.67-3.29,1.09-4.32,1.38a10.64,10.64,0,0,1-1.62.38,10.4,10.4,0,0,1,1.56-.57c1-.35,2.48-.82,4.24-1.53a26.66,26.66,0,0,0,5.84-3.15,15.12,15.12,0,0,0,5-6.21,10.36,10.36,0,0,0,.8-4.78v0a10.63,10.63,0,0,0-3.41-5.14,10.77,10.77,0,0,0-4.45-2.19l-1-.22-.89-.1-.78-.09H356A6.43,6.43,0,0,1,354.82,207.11Z"/><path class="cls-12" d="M373.57,242.51a3.05,3.05,0,0,1-.48.79c-.33.49-.84,1.18-1.5,2a48.57,48.57,0,0,1-5.67,6,34.31,34.31,0,0,1-6.75,4.79,18.49,18.49,0,0,1-2.27,1.06,3.53,3.53,0,0,1-.88.28c0-.08,1.16-.6,3-1.66a41.77,41.77,0,0,0,6.59-4.86,67.07,67.07,0,0,0,5.73-5.87A31.94,31.94,0,0,1,373.57,242.51Z"/><polygon class="cls-6" points="123.88 377.42 212.61 286.72 292.23 351.18 271.73 377.56 123.88 377.42"/><path class="cls-2" d="M168.94,163.64a31,31,0,0,1,7.56-3.29l1.56-7.49,12.65-.22,1.82,7.43a30.91,30.91,0,0,1,7.68,3l6.39-4.19,9.11,8.79-4,6.53a31.09,31.09,0,0,1,3.29,7.57l7.49,1.56.22,12.65-7.43,1.82a30.91,30.91,0,0,1-3,7.68l4.19,6.39-8.79,9.1-6.53-4a30.92,30.92,0,0,1-7.57,3.29L192,227.81l-12.65.22-1.82-7.43a30.85,30.85,0,0,1-7.67-3l-6.4,4.19-9.1-8.79,4-6.53a31.48,31.48,0,0,1-3.29-7.57l-7.48-1.56-.23-12.65,7.43-1.82a31.31,31.31,0,0,1,3-7.68l-4.19-6.39,8.79-9.1,6.54,4Zm6.74,16.85a13.57,13.57,0,1,0,19.19-.33A13.58,13.58,0,0,0,175.68,180.49Z"/><path class="cls-10" d="M145,237.94a22.49,22.49,0,0,1,5.5-2.39l1.14-5.45,9.21-.16,1.32,5.4a22.82,22.82,0,0,1,5.59,2.2l4.65-3,6.63,6.4-2.89,4.76a22.52,22.52,0,0,1,2.4,5.5l5.45,1.14.16,9.21-5.41,1.32a22.43,22.43,0,0,1-2.2,5.59l3.05,4.65-6.39,6.63-4.76-2.89a22.59,22.59,0,0,1-5.51,2.4l-1.13,5.45-9.21.16-1.33-5.41a22.21,22.21,0,0,1-5.58-2.2L141,280.25l-6.62-6.39,2.88-4.76a22.55,22.55,0,0,1-2.39-5.51l-5.45-1.13-.16-9.21,5.4-1.33a22.59,22.59,0,0,1,2.2-5.58l-3-4.66,6.4-6.62,4.76,2.88Zm4.91,12.27a9.88,9.88,0,1,0,14-.25A9.88,9.88,0,0,0,149.9,250.21Z"/><path class="cls-10" d="M238.77,161.91a15.5,15.5,0,0,1,3.72-1.62l.76-3.68,6.22-.11.89,3.65a14.89,14.89,0,0,1,3.77,1.49l3.15-2.06,4.47,4.32-1.95,3.21a15.26,15.26,0,0,1,1.62,3.71l3.67.77.11,6.21-3.65.9a15.16,15.16,0,0,1-1.48,3.77l2.06,3.14-4.32,4.47-3.21-1.94a15.29,15.29,0,0,1-3.72,1.61l-.76,3.68-6.22.11-.89-3.65a15.55,15.55,0,0,1-3.77-1.48l-3.14,2.05-4.48-4.31,1.95-3.21a15.08,15.08,0,0,1-1.61-3.72l-3.68-.77-.11-6.21,3.65-.9a15.16,15.16,0,0,1,1.48-3.77l-2.06-3.14,4.32-4.47,3.21,1.95Zm3.32,8.28a6.67,6.67,0,1,0,9.42-.17A6.67,6.67,0,0,0,242.09,170.19Z"/><rect class="cls-10" x="313.14" y="327.28" width="35.89" height="50.14"/><path class="cls-1" d="M156,232.84a12.63,12.63,0,0,0-13.6-.35A15,15,0,0,0,118.5,225a15.16,15.16,0,0,0-25.61,9.52c-6,.32-12.15,4.26-13.4,11H161A12.62,12.62,0,0,0,156,232.84Z"/><path class="cls-3" d="M156,232.84s.27.17.77.55a11.65,11.65,0,0,1,1.94,2,12.89,12.89,0,0,1,2.07,4,12.42,12.42,0,0,1,.33,6.12l0,.11H161l-81.52.12h-.33l.07-.3.1-.4a13.1,13.1,0,0,1,5-7.74,15.76,15.76,0,0,1,8.49-3l-.24.23a15.4,15.4,0,0,1,26-9.66h-.29a15.38,15.38,0,0,1,8.06-3.34,14.88,14.88,0,0,1,7.81,1.23,15.44,15.44,0,0,1,8.33,9.73l-.2-.08a12.43,12.43,0,0,1,5.86-1.78,13.16,13.16,0,0,1,4.48.57,12.42,12.42,0,0,1,2.54,1.14c.53.34.79.54.79.54a1.18,1.18,0,0,1-.22-.11l-.6-.37a13.22,13.22,0,0,0-2.55-1.06,13.08,13.08,0,0,0-4.43-.5,12.25,12.25,0,0,0-5.73,1.8l-.15.1,0-.18a15.2,15.2,0,0,0-8.22-9.47,14.5,14.5,0,0,0-7.62-1.16,15,15,0,0,0-7.82,3.28l-.15.12-.14-.13a14.93,14.93,0,0,0-25.21,9.39l0,.21-.22,0a15.27,15.27,0,0,0-8.21,2.95,12.51,12.51,0,0,0-4.85,7.43,3,3,0,0,0-.09.38l-.26-.31,81.52.13-.13.11a12.4,12.4,0,0,0-.27-6,12.79,12.79,0,0,0-3.85-6l-.55-.45C156.08,232.9,156,232.84,156,232.84Z"/><path class="cls-1" d="M290,342.43a12.32,12.32,0,0,0-13.29-.35,14.63,14.63,0,0,0-23.41-7.32,14.83,14.83,0,0,0-25.05,9.31c-5.84.31-11.88,4.16-13.1,10.73h79.73A12.33,12.33,0,0,0,290,342.43Z"/><path class="cls-3" d="M290,342.43s.27.16.76.53a12,12,0,0,1,1.9,2,12.7,12.7,0,0,1,2,3.93,12.1,12.1,0,0,1,.32,6l0,.11h-.11l-79.73.12h-.33l.08-.3.09-.39a12.68,12.68,0,0,1,4.95-7.57,15.38,15.38,0,0,1,8.3-3l-.24.23a15.06,15.06,0,0,1,25.46-9.45h-.3a15,15,0,0,1,7.89-3.26,14.48,14.48,0,0,1,7.64,1.2,15.11,15.11,0,0,1,8.15,9.52l-.2-.08a12.21,12.21,0,0,1,5.73-1.75,12.85,12.85,0,0,1,4.38.56,11.64,11.64,0,0,1,2.49,1.12,8,8,0,0,1,.76.53l-.2-.11-.6-.36a12.52,12.52,0,0,0-6.82-1.53,12.07,12.07,0,0,0-5.6,1.77l-.15.09-.05-.17a14.84,14.84,0,0,0-8-9.26,14.07,14.07,0,0,0-7.45-1.13,14.58,14.58,0,0,0-7.65,3.2l-.15.12-.14-.13a14.6,14.6,0,0,0-24.64,9.18l0,.22h-.22a14.87,14.87,0,0,0-8,2.88,12.25,12.25,0,0,0-4.75,7.27l-.09.37-.26-.31,79.73.13-.13.1a11.92,11.92,0,0,0-.27-5.86,12.53,12.53,0,0,0-1.93-3.9,13.15,13.15,0,0,0-1.83-2l-.54-.44Z"/><path class="cls-1" d="M467.7,339.6a12.34,12.34,0,0,0-13.3-.35,14.62,14.62,0,0,0-23.4-7.32A14.83,14.83,0,0,0,406,341.24c-5.85.31-11.88,4.16-13.1,10.73h79.72A12.32,12.32,0,0,0,467.7,339.6Z"/><path class="cls-3" d="M467.7,339.6s.27.16.76.53a12,12,0,0,1,1.9,2,12.76,12.76,0,0,1,2,3.92,12.26,12.26,0,0,1,.33,6l0,.11h-.12l-79.72.12h-.33l.07-.31.09-.38a12.77,12.77,0,0,1,4.95-7.57,15.36,15.36,0,0,1,8.31-3l-.24.23a15.06,15.06,0,0,1,25.45-9.45h-.29a15.07,15.07,0,0,1,7.89-3.27,14.5,14.5,0,0,1,7.64,1.21,15.07,15.07,0,0,1,8.14,9.51l-.2-.07a12.28,12.28,0,0,1,5.74-1.75,12.64,12.64,0,0,1,4.38.56,11.88,11.88,0,0,1,2.49,1.12c.51.33.76.53.76.53l-.21-.12-.59-.35a12.52,12.52,0,0,0-6.82-1.53,11.92,11.92,0,0,0-5.6,1.77l-.16.09-.05-.17a14.83,14.83,0,0,0-8-9.26,14.21,14.21,0,0,0-7.45-1.14,14.61,14.61,0,0,0-7.65,3.21l-.15.12-.14-.13a14.6,14.6,0,0,0-24.64,9.17l0,.22-.22,0a14.85,14.85,0,0,0-8,2.88,12.26,12.26,0,0,0-4.75,7.27c0,.13-.06.25-.08.37l-.26-.31,79.72.13-.13.1a11.92,11.92,0,0,0-.26-5.86,13.17,13.17,0,0,0-1.93-3.91,12.91,12.91,0,0,0-1.84-2l-.53-.44Z"/><path class="cls-1" d="M236.31,203.3a8.07,8.07,0,0,0-8.68-.23,9.55,9.55,0,0,0-15.27-4.78A9.69,9.69,0,0,0,196,204.37c-3.81.21-7.75,2.72-8.55,7H239.5A8.07,8.07,0,0,0,236.31,203.3Z"/><path class="cls-3" d="M236.31,203.3a5.9,5.9,0,0,1,1.76,1.61,8.21,8.21,0,0,1,1.56,6.5l0,.1h-.11c-10.6.08-29.95.13-52.05.13h-.33l.07-.31.06-.26a8.42,8.42,0,0,1,3.27-5,10.14,10.14,0,0,1,5.47-2l-.24.23a9.91,9.91,0,0,1,16.76-6.21h-.29A9.7,9.7,0,0,1,227.76,203l-.2-.08a8,8,0,0,1,3.77-1.14,8.45,8.45,0,0,1,2.87.38,5.8,5.8,0,0,1,2.11,1.1,10.17,10.17,0,0,0-2.15-1,8.38,8.38,0,0,0-2.82-.31,7.85,7.85,0,0,0-3.63,1.16l-.16.09-.05-.17a9.63,9.63,0,0,0-5.22-6,9.51,9.51,0,0,0-9.79,1.35l-.15.13-.14-.14a9.44,9.44,0,0,0-15.94,6l0,.22H196a9.57,9.57,0,0,0-5.19,1.87,7.93,7.93,0,0,0-3.07,4.69l0,.23-.26-.3c22.1,0,41.45,0,52.05.12l-.14.11a7.73,7.73,0,0,0-.16-3.81A8.12,8.12,0,0,0,238,205,9.54,9.54,0,0,0,236.31,203.3Z"/><path class="cls-1" d="M657.57,198.84h0a19.11,19.11,0,0,1-9.32-25.38h0a19.12,19.12,0,0,1,25.37-9.33h0A19.13,19.13,0,0,1,683,189.51h0A19.12,19.12,0,0,1,657.57,198.84Z"/><path class="cls-3" d="M657.57,198.84a1,1,0,0,1,.3.09l.86.31a10,10,0,0,0,1.4.46,13.16,13.16,0,0,0,2,.45,18.07,18.07,0,0,0,5.47.19,19,19,0,0,0,6.9-2.14,18.7,18.7,0,0,0,6.53-5.76,19,19,0,0,0,3.41-9.35,18,18,0,0,0-.33-5.41,22.35,22.35,0,0,0-.76-2.71,20.25,20.25,0,0,0-1.21-2.59A18.78,18.78,0,0,0,661.85,163a21.65,21.65,0,0,0-2.76.76,20.39,20.39,0,0,0-2.55,1.18,17.6,17.6,0,0,0-4.34,3.25,19,19,0,0,0-4.92,8.65,18.8,18.8,0,0,0-.15,8.71,19.06,19.06,0,0,0,2.84,6.64,18.34,18.34,0,0,0,3.68,4,13.75,13.75,0,0,0,1.62,1.19,8.71,8.71,0,0,0,1.25.77l.79.45c.18.1.27.16.26.17a1.1,1.1,0,0,1-.28-.12l-.82-.4a8.83,8.83,0,0,1-1.29-.74,13,13,0,0,1-1.65-1.16,18.11,18.11,0,0,1-3.8-4,19.25,19.25,0,0,1-2.87-15.61,19.37,19.37,0,0,1,5-8.89,18.31,18.31,0,0,1,4.44-3.35,21.51,21.51,0,0,1,2.62-1.21,20.78,20.78,0,0,1,2.83-.79,19.26,19.26,0,0,1,20.79,9.61,21.39,21.39,0,0,1,1.23,2.67,21.7,21.7,0,0,1,.77,2.78,18.31,18.31,0,0,1,.33,5.55,19.41,19.41,0,0,1-3.53,9.56,19.33,19.33,0,0,1-13.76,7.94,18.18,18.18,0,0,1-5.54-.28,13,13,0,0,1-2-.5,8,8,0,0,1-1.39-.51l-.84-.36Z"/><path class="cls-6" d="M667.19,182a4.68,4.68,0,0,0,4.36-2.77,4.41,4.41,0,1,0-8-3.73,4.7,4.7,0,0,0,.71,5.16c-6.58-1.92-9.39,4.9-9.39,4.9l14.51,6.79S672.86,185.74,667.19,182Z"/><path class="cls-1" d="M478.83,187h0a23.18,23.18,0,0,1-32.67-2.6h0a23.19,23.19,0,0,1,2.6-32.68h0a23.18,23.18,0,0,1,32.67,2.6h0A23.18,23.18,0,0,1,478.83,187Z"/><path class="cls-3" d="M478.83,187l.26-.28c.2-.19.45-.45.78-.78l.58-.56c.21-.22.41-.48.64-.74a17.16,17.16,0,0,0,1.5-1.93,22.09,22.09,0,0,0,3-5.93,23.09,23.09,0,0,0,1.15-8.69,22.79,22.79,0,0,0-3-10.14,23.08,23.08,0,0,0-8.59-8.51,22.78,22.78,0,0,0-2.94-1.42,24.65,24.65,0,0,0-3.2-1,26.59,26.59,0,0,0-3.37-.54,27,27,0,0,0-3.48,0,22.26,22.26,0,0,0-6.93,1.61,24.35,24.35,0,0,0-6.27,3.79,24.69,24.69,0,0,0-4.74,5.59,22.37,22.37,0,0,0-2.68,6.59,27.38,27.38,0,0,0-.56,3.44,24.25,24.25,0,0,0,0,3.41,24,24,0,0,0,.45,3.31,22.69,22.69,0,0,0,.94,3.13,23,23,0,0,0,7.05,9.83,22.68,22.68,0,0,0,9.53,4.58,23,23,0,0,0,8.76.24,22,22,0,0,0,6.33-2,17.13,17.13,0,0,0,2.14-1.18c.3-.18.58-.34.83-.51l.65-.48.89-.66a1.92,1.92,0,0,1,.31-.2,1.66,1.66,0,0,1-.28.25l-.86.69-.63.51c-.25.17-.53.34-.83.53a17.27,17.27,0,0,1-2.13,1.23,22,22,0,0,1-6.37,2.12,23.28,23.28,0,0,1-25.84-14.77,24,24,0,0,1-1-3.19,23.64,23.64,0,0,1-.47-3.39,26.92,26.92,0,0,1,0-3.48A26.45,26.45,0,0,1,441,164a22.89,22.89,0,0,1,2.74-6.75A23.09,23.09,0,0,1,455,147.63a22.93,22.93,0,0,1,7.08-1.64,28.2,28.2,0,0,1,3.56,0,26,26,0,0,1,3.44.57,23.78,23.78,0,0,1,3.27,1,25.22,25.22,0,0,1,3,1.46,23.45,23.45,0,0,1,8.72,8.72,23.27,23.27,0,0,1,1.77,19.13,21.84,21.84,0,0,1-3.1,6,15.9,15.9,0,0,1-1.54,1.91c-.24.26-.45.52-.66.73l-.6.55-.82.74Z"/><path class="cls-6" d="M465.17,167.85a5.68,5.68,0,0,0-.83-6.21,5.35,5.35,0,1,0-8.16,6.89,5.67,5.67,0,0,0,6,1.84c-5.45,6.28.63,12.83.63,12.83l14.84-12.54S472.17,163.5,465.17,167.85Z"/><circle class="cls-1" cx="562.55" cy="252.54" r="14.23" transform="translate(-13.8 471.75) rotate(-45)"/><path class="cls-3" d="M576.78,252.54a24.68,24.68,0,0,0-.54-3.45,14.17,14.17,0,0,0-5.19-7.72,13.89,13.89,0,0,0-5.91-2.6,14.07,14.07,0,0,0-7.35.63,13.83,13.83,0,0,0-6.49,4.88,13.9,13.9,0,0,0,0,16.52,14,14,0,0,0,6.49,4.88,14.06,14.06,0,0,0,7.35.62,13.89,13.89,0,0,0,5.91-2.6,14.19,14.19,0,0,0,5.19-7.71,24.92,24.92,0,0,0,.54-3.45.6.6,0,0,1,0,.23v.68a6.82,6.82,0,0,1-.09,1.1,9.76,9.76,0,0,1-.26,1.49,14,14,0,0,1-1.54,3.84,14.47,14.47,0,0,1-9.68,6.85,14.48,14.48,0,0,1-7.6-.6,13.57,13.57,0,0,1-3.67-2,13.76,13.76,0,0,1-3.07-3.07,14.4,14.4,0,0,1,0-17.13,14.45,14.45,0,0,1,6.73-5,14.38,14.38,0,0,1,7.6-.6,14.15,14.15,0,0,1,6,2.73,14.3,14.3,0,0,1,3.63,4.12,13.71,13.71,0,0,1,1.54,3.84,9.65,9.65,0,0,1,.26,1.48,7,7,0,0,1,.09,1.11c0,.27,0,.49,0,.68A.6.6,0,0,1,576.78,252.54Z"/><path class="cls-6" d="M556.41,251.77a3.8,3.8,0,0,1,.85-2.12,3.67,3.67,0,0,1,1.83-1.3,3,3,0,0,1,3.35,1.32,2.86,2.86,0,0,1,.82-1,3,3,0,0,1,2.27-.6,3.64,3.64,0,0,1,2,1.06,3.77,3.77,0,0,1,1.11,2,4.64,4.64,0,0,1-.4,2.89,6.64,6.64,0,0,1-2.12,2.26c-1.42,1-3.29,2.21-3.29,2.21s-1.72-1.12-3.25-1.92a6.55,6.55,0,0,1-2.39-2A4.68,4.68,0,0,1,556.41,251.77Z"/><circle class="cls-1" cx="26.88" cy="207.06" r="26.62" transform="translate(-87.04 32.08) rotate(-25.67)"/><path class="cls-3" d="M53.51,207.06a2.14,2.14,0,0,1,0-.43l-.09-1.26-.06-.93c0-.34-.11-.71-.17-1.11a19.75,19.75,0,0,0-.56-2.75,25.63,25.63,0,0,0-3-7A26.4,26.4,0,0,0,17.9,182.28a28.27,28.27,0,0,0-3.44,1.51,27.81,27.81,0,0,0-3.24,2.08,29.87,29.87,0,0,0-3,2.55,30.33,30.33,0,0,0-2.58,3.05,25.63,25.63,0,0,0-3.77,7.27,26.13,26.13,0,0,0,0,16.64,25.57,25.57,0,0,0,3.77,7.26,28.19,28.19,0,0,0,2.58,3.06,29.87,29.87,0,0,0,3,2.55,27.81,27.81,0,0,0,3.24,2.08,26.8,26.8,0,0,0,3.44,1.51,26.46,26.46,0,0,0,31.72-11.26,25.32,25.32,0,0,0,3-7,19.19,19.19,0,0,0,.56-2.75c.06-.4.13-.77.17-1.11l.06-.93.09-1.26a2.14,2.14,0,0,1,0-.43,2.35,2.35,0,0,1,0,.43l0,1.27,0,.94c0,.34-.09.71-.15,1.12a18.29,18.29,0,0,1-.52,2.77,25.07,25.07,0,0,1-2.9,7.14,26.78,26.78,0,0,1-18,12.7,27.36,27.36,0,0,1-17.61-2.67,28.78,28.78,0,0,1-3.3-2.11,31.06,31.06,0,0,1-3.06-2.59A31.53,31.53,0,0,1,5.24,223a25.85,25.85,0,0,1-3.85-7.41,26.56,26.56,0,0,1,0-17,26.11,26.11,0,0,1,3.85-7.41,30.31,30.31,0,0,1,2.64-3.11,29.84,29.84,0,0,1,3.05-2.59,28.78,28.78,0,0,1,3.3-2.11,28.34,28.34,0,0,1,3.5-1.53,26.81,26.81,0,0,1,14.11-1.13,26.79,26.79,0,0,1,18,12.69,25,25,0,0,1,2.9,7.15,17.85,17.85,0,0,1,.52,2.77c.06.4.12.77.15,1.12l0,.93,0,1.27A2.35,2.35,0,0,1,53.51,207.06Z"/><path class="cls-6" d="M15.4,205.63a7.15,7.15,0,0,1,1.59-4,6.86,6.86,0,0,1,3.42-2.42,5.55,5.55,0,0,1,6.26,2.46,5.53,5.53,0,0,1,5.8-3,6.88,6.88,0,0,1,3.7,2,7.14,7.14,0,0,1,2.07,3.76,8.7,8.7,0,0,1-.74,5.39,12.39,12.39,0,0,1-4,4.23c-2.65,1.83-6.16,4.14-6.16,4.14s-3.21-2.1-6.07-3.59a12.29,12.29,0,0,1-4.48-3.69A8.74,8.74,0,0,1,15.4,205.63Z"/><path class="cls-1" d="M342.2,89.56h0A14.74,14.74,0,0,1,337,69.37h0a14.75,14.75,0,0,1,20.19-5.21h0a14.75,14.75,0,0,1,5.21,20.2h0A14.75,14.75,0,0,1,342.2,89.56Z"/><path class="cls-3" d="M342.2,89.56a25.17,25.17,0,0,0,3.37,1.34,14.68,14.68,0,0,0,9.62-.57,14.43,14.43,0,0,0,5.44-3.9,14.6,14.6,0,0,0,3.31-6.9,13.43,13.43,0,0,0,.16-4.16,13.65,13.65,0,0,0-1.09-4.2,14.45,14.45,0,0,0-14.76-8.71A13.59,13.59,0,0,0,344,63.53a13.74,13.74,0,0,0-3.56,2.15,14.61,14.61,0,0,0-1.07,21.58,23,23,0,0,0,2.79,2.3l-.21-.11-.6-.36a7.23,7.23,0,0,1-.94-.66,10,10,0,0,1-1.18-1,13.86,13.86,0,0,1-2.62-3.4,14.92,14.92,0,0,1-1-12.24,15,15,0,0,1,4.53-6.46,15,15,0,0,1,8-3.36,14.88,14.88,0,0,1,15.27,9,14.8,14.8,0,0,1,.94,8.65A14.92,14.92,0,0,1,361,86.71a14.81,14.81,0,0,1-11.2,5,13.9,13.9,0,0,1-4.24-.65,10.21,10.21,0,0,1-1.47-.54,6.63,6.63,0,0,1-1-.5l-.61-.35A.93.93,0,0,1,342.2,89.56Z"/><path class="cls-6" d="M350.88,77.38a3.6,3.6,0,0,0,3.56-1.79,3.41,3.41,0,1,0-5.84-3.48,3.64,3.64,0,0,0,.15,4c-4.9-2-7.59,3-7.59,3l10.62,6.33S354.94,80.69,350.88,77.38Z"/><circle class="cls-1" cx="585.33" cy="48.36" r="35.63" transform="translate(41.13 269.27) rotate(-26.82)"/><path class="cls-3" d="M600,37a9.6,9.6,0,0,0-3.14-6.71,12.12,12.12,0,0,0-7.69-2.82A25.63,25.63,0,0,0,581,28.83a12.49,12.49,0,0,0-4.24,1.94,17.79,17.79,0,0,0-5.6,7.67,31.22,31.22,0,0,0-.66,10.28,5.09,5.09,0,0,0,1.69,2.45,19.62,19.62,0,0,0,2.79,6.33l2.62-4.15Z"/><path class="cls-3" d="M599.35,34l-4.24-1.83c1.06,6.32-1.38,19.63-1.43,26,2.18-2,7.66-8.29,8.13-11.2S604.71,34.7,599.35,34Z"/><path class="cls-11" d="M576.15,38.59A7.75,7.75,0,0,1,583.46,33l10.78-.2c4.51.56,6.17,6.66,5.42,11.15-.83,5-1.86,10.19-3.29,13.72-2.89,7.09-8.75,6.71-8.75,6.71s-.82,3.5-1.33,5.64l-4.18,9.12-12-9.27,6-31.18C576.13,38.55,576.09,38.76,576.15,38.59Z"/><path class="cls-3" d="M595.84,49.41a1,1,0,0,1-1.13.74.93.93,0,0,1-.78-1.07,1,1,0,0,1,1.14-.75A.93.93,0,0,1,595.84,49.41Z"/><path class="cls-3" d="M597.88,46.55c-.15.09-.74-.6-1.76-.84s-1.87.1-2-.05.13-.26.51-.42a2.69,2.69,0,0,1,1.61-.11,2.55,2.55,0,0,1,1.36.82C597.9,46.26,598,46.51,597.88,46.55Z"/><path class="cls-3" d="M586.77,47a1,1,0,0,1-1.14.74.93.93,0,0,1-.77-1.08,1,1,0,0,1,1.13-.74A.94.94,0,0,1,586.77,47Z"/><path class="cls-3" d="M588.24,44.27c-.15.1-.74-.6-1.76-.83s-1.88.1-2,0,.13-.26.51-.42a2.61,2.61,0,0,1,1.61-.11,2.55,2.55,0,0,1,1.36.81C588.25,44,588.31,44.23,588.24,44.27Z"/><path class="cls-3" d="M589.53,53a7.05,7.05,0,0,1,1.72.08c.27,0,.52,0,.61-.12a1.44,1.44,0,0,0,0-.81L591.56,50a35.38,35.38,0,0,1-.52-5.57,34.11,34.11,0,0,1,1,5.52q.13,1.13.27,2.16a1.51,1.51,0,0,1-.11,1,.68.68,0,0,1-.51.28,1.58,1.58,0,0,1-.46,0A6.68,6.68,0,0,1,589.53,53Z"/><path class="cls-12" d="M578.48,59.44s1.21,5.62,8.73,6.65l.41-1.73A19.1,19.1,0,0,1,578.48,59.44Z"/><path class="cls-3" d="M588.78,40.53c-.16.25-1.15-.11-2.37-.25s-2.27,0-2.37-.32c0-.13.19-.35.64-.53a3.91,3.91,0,0,1,1.86-.2,4.06,4.06,0,0,1,1.75.63C588.69,40.14,588.86,40.41,588.78,40.53Z"/><path class="cls-3" d="M598.28,43.36c-.23.19-.88-.21-1.72-.42s-1.59-.21-1.69-.48.12-.34.48-.49a2.57,2.57,0,0,1,2.75.73C598.34,43,598.38,43.27,598.28,43.36Z"/><path class="cls-3" d="M599.25,36.74a3.32,3.32,0,0,0-2.43-2.51,6.43,6.43,0,0,0-3.63.19c-5,1.5-8.67,7.09-13.61,8.68-1.22.4-2.47-.52-3.57.12a3.22,3.22,0,0,0-1.79,3.12,10.55,10.55,0,0,1-.9-2.89,3.56,3.56,0,0,1,.8-2.84c.52-.56,1.3-.9,1.66-1.58a9.88,9.88,0,0,0,.39-2,4.39,4.39,0,0,1,1.12-1.71,19.55,19.55,0,0,1,8.78-5.74,12.75,12.75,0,0,1,6.85-.15,9.78,9.78,0,0,1,5.57,3.88c.75,1.13,1.55,2.31.76,3.42"/><path class="cls-11" d="M575.9,44.16c0-.23-3.54-2.52-4.55,1.55s3.2,4.11,3.23,4S575.9,44.16,575.9,44.16Z"/><path class="cls-12" d="M573.73,47.91s-.08,0-.21.06a.73.73,0,0,1-.52-.12,1.73,1.73,0,0,1-.41-1.72,2.47,2.47,0,0,1,.43-.94.8.8,0,0,1,.65-.4.35.35,0,0,1,.36.29c0,.12,0,.19,0,.2s.1,0,.11-.21a.51.51,0,0,0-.09-.29.55.55,0,0,0-.36-.19,1,1,0,0,0-.87.43,2.52,2.52,0,0,0-.51,1,1.82,1.82,0,0,0,.59,2,.73.73,0,0,0,.65,0C573.7,48,573.74,47.92,573.73,47.91Z"/><path class="cls-1" d="M574.8,41.75l.27-.08c.18-.06.44-.13.77-.26A14.28,14.28,0,0,0,578.43,40a36.55,36.55,0,0,0,3.42-2.78,31.51,31.51,0,0,1,4.23-3.3,13.13,13.13,0,0,1,2.5-1.17,11.11,11.11,0,0,1,2.53-.5,11.57,11.57,0,0,1,4.32.48,11.09,11.09,0,0,1,2.68,1.21c.3.18.52.34.67.45l.24.15a1.19,1.19,0,0,0-.22-.18,5.49,5.49,0,0,0-.65-.48,10.49,10.49,0,0,0-2.68-1.28,11.59,11.59,0,0,0-4.38-.52,10.35,10.35,0,0,0-2.56.5A12.73,12.73,0,0,0,586,33.72a32.75,32.75,0,0,0-4.24,3.33,42.31,42.31,0,0,1-3.38,2.81,15.4,15.4,0,0,1-2.55,1.48c-.32.14-.58.23-.75.3Z"/><path class="cls-3" d="M575.53,43.11a6.35,6.35,0,0,0-.36,3.27,2.16,2.16,0,0,0,2.45,1.72c.87-.26,1.33-1.19,1.67-2,1-2.44,1.74-5,2.73-7.37Z"/><path class="cls-9" d="M598.72,34.62s-.34-.15-1-.32a7.12,7.12,0,0,0-2.73-.14,8.76,8.76,0,0,0-1.85.46,18,18,0,0,0-2,.9A20.88,20.88,0,0,0,587,38.31c-.67.59-1.28,1.21-1.93,1.77a9.89,9.89,0,0,1-2,1.41,18,18,0,0,1-3.87,1.45c-1.14.3-2.08.48-2.72.6l-.75.13-.26,0a.76.76,0,0,1,.25-.08l.74-.17c.64-.15,1.57-.35,2.7-.66A19.75,19.75,0,0,0,583,41.31a10.9,10.9,0,0,0,2-1.4c.63-.55,1.24-1.18,1.92-1.77a20.64,20.64,0,0,1,4.22-2.81,19.34,19.34,0,0,1,2-.89A9,9,0,0,1,595,34a6.72,6.72,0,0,1,2.78.22,3.81,3.81,0,0,1,.7.27Z"/><path class="cls-1" d="M576,40.63a1.53,1.53,0,0,1-.41.16l-1.14.35-.38.11a1.2,1.2,0,0,1-.47,0,.47.47,0,0,1-.25-.13.33.33,0,0,1-.09-.3.87.87,0,0,1,.31-.45l1.6-1.59.12.18a4.16,4.16,0,0,1-1.42.33,4.43,4.43,0,0,1-1.46-.16,1.26,1.26,0,0,1-.34-.15.53.53,0,0,1-.25-.34.47.47,0,0,1,.16-.39,2,2,0,0,1,.29-.19A9,9,0,0,0,574,36.73a14.79,14.79,0,0,0,1.29-1.63,2.44,2.44,0,0,1-.25.51,7.86,7.86,0,0,1-.92,1.23,8.35,8.35,0,0,1-1.76,1.45c-.18.11-.37.23-.34.37s.23.25.44.3a3.94,3.94,0,0,0,1.38.15,3.75,3.75,0,0,0,1.34-.31l.56-.23-.43.42-1.63,1.57a.78.78,0,0,0-.26.34c0,.12.06.2.19.23a2.28,2.28,0,0,0,.78-.13l1.16-.29A2.74,2.74,0,0,1,576,40.63Z"/><path class="cls-12" d="M585.23,54a1.35,1.35,0,0,1,1.6-.68,1.4,1.4,0,0,1,.89,1,1.76,1.76,0,0,1-.25,1.34l0,.09a1.55,1.55,0,0,1-1.79,0A1.44,1.44,0,0,1,585.23,54Z"/><path class="cls-3" d="M588.16,55.91c0-.16-1-.35-1.58-1.37s-.25-2.11-.4-2.15-.25.21-.34.68a2.64,2.64,0,0,0,.27,1.78,2.28,2.28,0,0,0,1.33,1.08C587.87,56.05,588.15,56,588.16,55.91Z"/><path class="cls-9" d="M597.92,75.63a21.39,21.39,0,0,0-4.43-4l-6.82-3.42a8,8,0,0,1-8.93,2.56,10.34,10.34,0,0,1-6.62-7s-9.66-1.26-16.71,2.49A35.75,35.75,0,0,0,573,81.88a35.36,35.36,0,0,0,28.06-1.47A42.37,42.37,0,0,0,597.92,75.63Z"/><path class="cls-3" d="M551.06,57.38s.07.18.19.55.3.92.53,1.62c.11.36.24.76.38,1.19s.37.89.59,1.4a25.62,25.62,0,0,0,1.63,3.4,34.3,34.3,0,0,0,6.18,8.23A35.81,35.81,0,0,0,588,84.11a33.46,33.46,0,0,0,4.5-.6c.75-.16,1.51-.28,2.27-.48l2.25-.7c.38-.12.76-.22,1.13-.36l1.11-.47c.74-.32,1.49-.61,2.23-1A39.12,39.12,0,0,0,605.73,78a35.88,35.88,0,0,0,4-3.12c.63-.58,1.21-1.21,1.82-1.82a17,17,0,0,0,1.72-2,39.41,39.41,0,0,0,3.07-4.31A39.57,39.57,0,0,0,618.71,62a34.68,34.68,0,0,0,2.53-10.75,38.22,38.22,0,0,0-1-11.33,37.84,37.84,0,0,0-4.53-10.43l-1.58-2.32L612.36,25a8.24,8.24,0,0,0-.94-1l-1-1-1-1-1.06-.86A40.11,40.11,0,0,0,604,18a39.49,39.49,0,0,0-4.76-2.33,16.67,16.67,0,0,0-2.44-.91c-.83-.25-1.64-.53-2.47-.74a36.5,36.5,0,0,0-5-.84A37.36,37.36,0,0,0,584.4,13c-.82,0-1.62.14-2.42.21l-1.2.12c-.39,0-.78.14-1.17.21L577.3,14c-.76.18-1.49.44-2.23.66a31.68,31.68,0,0,0-4.24,1.61,35.75,35.75,0,0,0-19.21,22.15,34,34,0,0,0-1.52,10.18,25.38,25.38,0,0,0,.18,3.76c.05.54.08,1,.15,1.51s.16.86.23,1.23c.13.72.23,1.28.31,1.67l.09.58s-.06-.19-.14-.56-.21-1-.36-1.67c-.08-.37-.17-.78-.26-1.23s-.11-1-.17-1.51a24.94,24.94,0,0,1-.24-3.78,34,34,0,0,1,1.45-10.27A36,36,0,0,1,570.65,15.9a34.91,34.91,0,0,1,4.29-1.64c.74-.22,1.48-.48,2.25-.67l2.34-.47c.4-.07.79-.17,1.19-.22l1.21-.12c.81-.07,1.62-.18,2.45-.22a38.39,38.39,0,0,1,5,.18,37.74,37.74,0,0,1,5.07.84c.84.22,1.66.5,2.5.75a18.47,18.47,0,0,1,2.48.92,39.14,39.14,0,0,1,4.83,2.36,41.09,41.09,0,0,1,4.45,3.18l1.08.87,1,1,1,1a9.18,9.18,0,0,1,1,1l1.81,2.17,1.61,2.35a38.57,38.57,0,0,1,4.6,10.59,38.24,38.24,0,0,1,1,11.49,34.81,34.81,0,0,1-2.57,10.9,40.69,40.69,0,0,1-2.4,4.92,42,42,0,0,1-3.12,4.37,18.35,18.35,0,0,1-1.75,2c-.62.62-1.21,1.27-1.85,1.85A35.63,35.63,0,0,1,606,78.41,36.41,36.41,0,0,1,601.68,81c-.74.36-1.51.65-2.25,1l-1.13.47c-.37.15-.76.24-1.14.37l-2.29.7c-.76.2-1.54.32-2.3.48a32.58,32.58,0,0,1-4.55.59A36.06,36.06,0,0,1,560.35,74a33.94,33.94,0,0,1-6.15-8.35,25.33,25.33,0,0,1-1.6-3.43c-.2-.51-.41-1-.56-1.41s-.26-.85-.36-1.21c-.21-.71-.37-1.25-.48-1.64S551.06,57.38,551.06,57.38Z"/><circle class="cls-1" cx="582.16" cy="166.18" r="51.87" transform="translate(53 460.32) rotate(-45)"/><path class="cls-3" d="M606.68,162.72c-.29-4.91.14-9.86-.39-14.75s-2.19-9.91-5.86-13.18-9.71-4.2-13.51-1.08l-.53,4.24q4.38,28.22,8.74,56.43a19.61,19.61,0,0,0,2.08,7.16c1.29,2.14,3.69,3.81,6.17,3.49,3.24-.44,5.14-3.89,5.94-7.06C612.19,186.46,607.38,174.56,606.68,162.72Z"/><path class="cls-6" d="M593.08,138.11a14,14,0,0,0-2.73-3.21,4.72,4.72,0,0,0-4-1,1.93,1.93,0,0,0-1.45,1.22c-.18.64.35,1.45,1,1.34l.15.12c1.56,1.19,3.14,2.36,4.75,3.49a4,4,0,0,0,1.31.69,1.34,1.34,0,0,0,1.35-.39C594,139.71,593.54,138.78,593.08,138.11Z"/><path class="cls-3" d="M596.19,142.73a24.81,24.81,0,0,0-19.85-8.19c-4.37.24-6.1,1.27-9.18,2.34a13.82,13.82,0,0,0-7.48,5.74,23.12,23.12,0,0,0-3.76,10.84,64.88,64.88,0,0,0,.27,11.91,21.69,21.69,0,0,0,4.49,10.88l10.18,1c5.57-.21,11.22-.42,16.54-2.07s10.38-4.94,12.94-9.89C603.9,158.46,601.51,148.36,596.19,142.73Z"/><path class="cls-13" d="M572.09,195.15c-.19-3.54-.38-8-.38-8s-8.27-.32-11.28-10.67c-1.49-5.15-2.32-13.8-2.76-20.9-.4-6.39,4.42-15.46,12.3-16.05l3.48-.65,13.79,4.38a3.75,3.75,0,0,1,3.8,3.35l3.77,46.2-7.58,15L571,197Z"/><path class="cls-14" d="M576,172.94a2.22,2.22,0,0,0-.87-1.32,2.3,2.3,0,0,0-2.79,0,3.07,3.07,0,0,0-1,3h0a2.81,2.81,0,0,0,2.08,1,2.3,2.3,0,0,0,.37,0,2.49,2.49,0,0,0,1.64-.78A2.24,2.24,0,0,0,576,172.94Z"/><path class="cls-3" d="M562.48,163.52a1.36,1.36,0,0,0,1.48,1.2,1.3,1.3,0,0,0,1.24-1.4,1.37,1.37,0,0,0-1.48-1.2A1.31,1.31,0,0,0,562.48,163.52Z"/><path class="cls-3" d="M560.32,159c.19.16,1.12-.73,2.58-.91s2.62.41,2.76.21-.15-.38-.65-.66a3.84,3.84,0,0,0-2.24-.4,3.54,3.54,0,0,0-2,.95C560.34,158.59,560.23,158.93,560.32,159Z"/><path class="cls-3" d="M570.54,169.81a10.09,10.09,0,0,0-2.42-.12c-.38,0-.74,0-.83-.27a1.89,1.89,0,0,1,.1-1.14q.36-1.41.75-3c1-4.23,1.71-7.69,1.54-7.73s-1.14,3.36-2.16,7.59l-.69,3a2.17,2.17,0,0,0,0,1.49,1,1,0,0,0,.68.47,2.28,2.28,0,0,0,.64,0A8.76,8.76,0,0,0,570.54,169.81Z"/><path class="cls-14" d="M571.71,187.19a27,27,0,0,0,13.67-5.55s-2.84,7.79-13.54,8.14Z"/><path class="cls-3" d="M575,170.28c-.24,0,0,1.6-1.26,2.89s-2.92,1.34-2.9,1.56.41.26,1.13.19a4,4,0,0,0,2.43-1.21,3.51,3.51,0,0,0,1-2.41C575.29,170.63,575.07,170.26,575,170.28Z"/><path class="cls-3" d="M560.46,153.84c.29.32,1.38-.06,2.69-.11s2.45.15,2.69-.21c.11-.17-.08-.5-.57-.8a4,4,0,0,0-2.21-.48,3.94,3.94,0,0,0-2.13.73C560.47,153.33,560.33,153.68,560.46,153.84Z"/><path class="cls-3" d="M579.11,162a1.35,1.35,0,0,1-1.19,1.48,1.3,1.3,0,0,1-1.51-1.1,1.37,1.37,0,0,1,1.19-1.49A1.31,1.31,0,0,1,579.11,162Z"/><path class="cls-3" d="M580.09,157c-.15.19-1.25-.48-2.71-.34s-2.47,1-2.65.79.06-.41.5-.79a3.68,3.68,0,0,1,2.1-.85,3.6,3.6,0,0,1,2.18.49C580,156.64,580.17,157,580.09,157Z"/><path class="cls-3" d="M578.88,152.4c-.26.36-1.42.12-2.78.22s-2.49.45-2.78.12c-.13-.16,0-.51.49-.87a4.33,4.33,0,0,1,2.21-.74,4.09,4.09,0,0,1,2.27.47C578.81,151.9,579,152.23,578.88,152.4Z"/><path class="cls-13" d="M590.48,164.6c-.1-.79.57-2.76,1.34-3,2-.58,5.79-.89,6.49,4.38,1,7.2-6.47,6.67-6.51,6.47S590.81,167.32,590.48,164.6Z"/><path class="cls-14" d="M593.44,169.57s.14.07.36.14a1.25,1.25,0,0,0,.94-.1,3.16,3.16,0,0,0,1.07-3,4.18,4.18,0,0,0-.59-1.74,1.47,1.47,0,0,0-1.07-.84.65.65,0,0,0-.7.44c-.07.21,0,.35,0,.37s-.17-.1-.15-.4a.79.79,0,0,1,.22-.49,1,1,0,0,1,.67-.28,1.8,1.8,0,0,1,1.46.94,4.33,4.33,0,0,1,.7,2c.15,1.46-.42,2.91-1.42,3.35a1.32,1.32,0,0,1-1.17,0C593.47,169.75,593.42,169.59,593.44,169.57Z"/><path class="cls-3" d="M592.11,161.62l-1.7,2c-8.47-7-25.31-24.94-24.37-23.87a23.15,23.15,0,0,1,11.25-2c6,.58,17.36,2.74,17.68,9.71S592.11,161.62,592.11,161.62Z"/><path class="cls-9" d="M602.5,159.28a1.77,1.77,0,0,0-.14-.41,7.37,7.37,0,0,0-.57-1.1,10.5,10.5,0,0,0-3.26-3.19,19.91,19.91,0,0,0-6.29-2.49c-2.48-.62-5.24-1-8-2a35.46,35.46,0,0,1-7.43-3.49,37.35,37.35,0,0,1-5.35-4,40,40,0,0,1-3.16-3.26c-.32-.38-.59-.69-.79-.94a1.87,1.87,0,0,0-.3-.32,1.72,1.72,0,0,0,.24.36c.16.23.4.58.74,1a33.25,33.25,0,0,0,3.09,3.35,35.61,35.61,0,0,0,5.35,4.15,35.13,35.13,0,0,0,7.49,3.56,78.56,78.56,0,0,0,8,2,20,20,0,0,1,6.23,2.39,10.92,10.92,0,0,1,3.28,3C602.26,158.73,602.47,159.3,602.5,159.28Z"/><path class="cls-9" d="M600.48,160.57a3.84,3.84,0,0,0-.39-1.56,7.45,7.45,0,0,0-3-3.21,16.53,16.53,0,0,0-6.2-1.94,35,35,0,0,1-7.66-1.85,31.65,31.65,0,0,1-7-3.65,32.15,32.15,0,0,1-4.9-4.18,35.26,35.26,0,0,1-2.8-3.33l-.69-1c-.15-.22-.24-.33-.26-.32a2.19,2.19,0,0,0,.2.36l.63,1a29.56,29.56,0,0,0,2.73,3.43,31.27,31.27,0,0,0,11.94,8,34.75,34.75,0,0,0,7.74,1.84A16.5,16.5,0,0,1,597,156a7.53,7.53,0,0,1,3,3A8.87,8.87,0,0,1,600.48,160.57Z"/><path class="cls-9" d="M592.74,173.88s.6-.17,1.65-.53a10.36,10.36,0,0,0,3.89-2.55,14.6,14.6,0,0,0,3.35-6,25.43,25.43,0,0,0,1-8.45A21.93,21.93,0,0,0,602,152a20.35,20.35,0,0,0-5.64-9.4,34.06,34.06,0,0,0-5.15-3.89,2,2,0,0,1,.42.18c.26.14.66.32,1.14.62a22.38,22.38,0,0,1,3.83,2.84,20.76,20.76,0,0,1,4.31,5.61,21.76,21.76,0,0,1,1.54,3.92,20.77,20.77,0,0,1,.68,4.46,25,25,0,0,1-1,8.6,14.55,14.55,0,0,1-3.53,6.12,10.19,10.19,0,0,1-4.07,2.49,8.94,8.94,0,0,1-1.26.29A1.3,1.3,0,0,1,592.74,173.88Z"/><path class="cls-6" d="M615.31,194.81c-3.47-2-9.14-2-9.14-2L595.1,192s-5.45,8.79-13.71,8.76-9.55-5.49-9.55-5.49-13.8,3.26-21.16,12.25c9.38,6.73,20.14,11.07,33.75,10.48,12.15-.17,27.51-6.42,36.84-17.73A19.17,19.17,0,0,0,615.31,194.81Z"/><path class="cls-3" d="M633.9,162.52s0-.28-.13-.83-.18-1.38-.32-2.45c-.07-.54-.15-1.14-.23-1.8s-.31-1.37-.48-2.14-.37-1.6-.58-2.49a8,8,0,0,0-.39-1.36c-.15-.46-.31-.93-.48-1.42a49.49,49.49,0,0,0-6.69-13.33A51.75,51.75,0,0,0,610.45,123l-2.34-1.5c-.82-.46-1.68-.87-2.53-1.32s-1.7-.93-2.62-1.27l-2.76-1.1-1.41-.55-1.47-.42-3-.85c-1-.26-2.05-.39-3.09-.6a25.78,25.78,0,0,0-3.17-.48,47.59,47.59,0,0,0-6.57-.3c-1.11,0-2.24,0-3.37.11l-3.39.42c-.57.08-1.15.11-1.72.23l-1.69.38c-1.14.27-2.29.49-3.43.81a55.84,55.84,0,0,0-6.73,2.5l-1.66.75c-.28.13-.56.24-.83.38l-.8.46-3.21,1.84c-1.05.66-2,1.42-3.08,2.14-.5.37-1,.7-1.52,1.12L548.66,127a56.8,56.8,0,0,0-5.49,5.38l-2.42,3.06-.6.77-.54.83-1.07,1.66-1.07,1.67-.91,1.76-.92,1.78-.46.89c-.13.31-.25.63-.38.94l-1.49,3.75c-.37,1.3-.75,2.6-1.12,3.91a51.16,51.16,0,0,0,2.29,32.49c.56,1.25,1.11,2.49,1.67,3.72s1.34,2.34,2,3.51l.51.87.58.82,1.15,1.63,1.16,1.62,1.29,1.5,1.3,1.5.64.74.71.68,2.82,2.69a57.37,57.37,0,0,0,6.2,4.56l1.59,1c.53.35,1.12.6,1.67.9,1.12.56,2.21,1.17,3.34,1.69l3.44,1.37.85.34.88.26,1.76.5a54.21,54.21,0,0,0,7,1.53c1.17.16,2.34.21,3.5.32l1.74.14c.58,0,1.15,0,1.73,0l3.42-.07c1.13-.06,2.24-.25,3.35-.36a48.49,48.49,0,0,0,6.46-1.22,26.54,26.54,0,0,0,3.07-.93c1-.35,2-.63,3-1l2.82-1.26,1.39-.62,1.32-.74,2.58-1.48c.87-.47,1.62-1.1,2.41-1.63s1.58-1.09,2.32-1.66l2.11-1.82a51.49,51.49,0,0,0,12.08-15.56,49.36,49.36,0,0,0,4.74-14.14c.1-.51.19-1,.28-1.47a8.74,8.74,0,0,0,.2-1.4c.08-.91.15-1.76.22-2.55s.15-1.52.17-2.18,0-1.28,0-1.82c0-1.07,0-1.9,0-2.47s0-.84,0-.84,0,.29,0,.84,0,1.39.08,2.47c0,.54,0,1.15.05,1.82s-.1,1.4-.15,2.19-.12,1.65-.19,2.56a8.55,8.55,0,0,1-.19,1.4c-.09.48-.17,1-.27,1.49a49.07,49.07,0,0,1-4.68,14.23,51.69,51.69,0,0,1-12.09,15.71l-2.12,1.84c-.75.57-1.55,1.11-2.33,1.68s-1.56,1.17-2.43,1.65l-2.6,1.49-1.32.75-1.4.63-2.85,1.28c-1,.4-2,.69-3,1a26.9,26.9,0,0,1-3.09.94,49.57,49.57,0,0,1-6.51,1.24c-1.12.12-2.24.31-3.38.37l-3.45.08c-.58,0-1.16,0-1.75,0l-1.75-.14c-1.17-.11-2.36-.16-3.54-.31a55.64,55.64,0,0,1-7.08-1.54l-1.77-.51c-.29-.08-.59-.16-.88-.26l-.87-.34-3.47-1.38c-1.14-.51-2.24-1.13-3.38-1.7-.55-.3-1.14-.55-1.68-.9l-1.61-1a58.45,58.45,0,0,1-6.26-4.6l-2.85-2.72-.72-.68-.65-.75-1.3-1.51-1.31-1.51L540,196.72l-1.17-1.65-.59-.82-.51-.88c-.67-1.18-1.35-2.36-2-3.55s-1.13-2.49-1.69-3.75a51.71,51.71,0,0,1-2.32-32.82c.39-1.32.77-2.63,1.14-3.95s1-2.53,1.51-3.79c.13-.31.25-.63.38-.94l.47-.9.92-1.79.93-1.79,1.08-1.68,1.08-1.68.54-.83.62-.78c.81-1,1.63-2.07,2.44-3.1a57.87,57.87,0,0,1,5.55-5.42l1.45-1.25c.48-.42,1-.75,1.53-1.13,1-.72,2-1.49,3.11-2.16l3.24-1.85.81-.46c.27-.14.56-.26.84-.39l1.68-.75a54.48,54.48,0,0,1,6.79-2.51c1.15-.32,2.31-.54,3.46-.81l1.71-.39c.58-.11,1.16-.15,1.73-.23l3.43-.41c1.14-.1,2.27-.07,3.4-.1a48.31,48.31,0,0,1,6.62.31,25.83,25.83,0,0,1,3.19.49c1,.21,2.1.35,3.12.62l3,.86,1.48.43c.48.17,1,.37,1.42.56l2.78,1.11c.93.34,1.76.87,2.64,1.29s1.71.87,2.54,1.33l2.36,1.53a51.66,51.66,0,0,1,14.18,13.84A49.05,49.05,0,0,1,631.48,150c.17.49.32,1,.47,1.43a9,9,0,0,1,.39,1.36c.19.9.38,1.73.55,2.51s.35,1.49.45,2.15.15,1.27.21,1.81c.12,1.07.21,1.89.27,2.45S633.9,162.52,633.9,162.52Z"/><circle class="cls-1" cx="494.24" cy="72.83" r="33.39" transform="translate(404.12 564.21) rotate(-87.99)"/><path class="cls-11" d="M487.25,90c0-2.08,0-3.81,0-4,0,0-7-.66-7.54-7.62-.24-3.37-.18-10.34-.05-16.65a13,13,0,0,1,12.23-12.71l.67,0c7.28,0,11.35,6.16,11.16,13.44l-.25,27.3-11.77,9.45-.86-.08Z"/><path class="cls-12" d="M487.23,85.92a16.86,16.86,0,0,0,8.92-3.22s-1.91,5.22-8.9,5Z"/><path class="cls-3" d="M491.5,64.65c.13.15.95-.49,2.11-.51s2,.57,2.16.42-.08-.32-.46-.59a3,3,0,0,0-1.73-.52,2.84,2.84,0,0,0-1.68.59C491.55,64.33,491.43,64.59,491.5,64.65Z"/><path class="cls-3" d="M492.36,67.84a.94.94,0,0,0,1,.9.9.9,0,0,0,.92-.91.94.94,0,0,0-1-.9A.91.91,0,0,0,492.36,67.84Z"/><path class="cls-3" d="M488.47,72.72a7.44,7.44,0,0,0-1.75-.21c-.28,0-.54-.05-.6-.23a1.38,1.38,0,0,1,.13-.82l.69-2.13a36.76,36.76,0,0,0,1.49-5.56,36.26,36.26,0,0,0-1.94,5.42c-.22.75-.44,1.46-.64,2.15a1.52,1.52,0,0,0-.08,1.08.67.67,0,0,0,.47.37,2,2,0,0,0,.47,0A6.42,6.42,0,0,0,488.47,72.72Z"/><path class="cls-3" d="M492.08,60.91c.11.26,1,.08,2.16.15s2,.33,2.16.09-.11-.36-.48-.6a3.66,3.66,0,0,0-1.63-.48,3.48,3.48,0,0,0-1.67.31C492.22,60.57,492,60.79,492.08,60.91Z"/><path class="cls-3" d="M481.15,61.58c.11.21,1,0,2.13,0s2,.13,2.13-.09-.12-.29-.5-.47a4,4,0,0,0-1.63-.29,4.07,4.07,0,0,0-1.63.38C481.27,61.27,481.09,61.48,481.15,61.58Z"/><path class="cls-11" d="M503.44,67.53c.12-.06,4.71-1.7,4.84,3.07s-4.68,3.92-4.7,3.79S503.44,67.53,503.44,67.53Z"/><path class="cls-12" d="M505,72.54s.09,0,.23.11a.82.82,0,0,0,.62,0,2.06,2.06,0,0,0,.9-1.87,2.67,2.67,0,0,0-.27-1.19,1,1,0,0,0-.64-.62.42.42,0,0,0-.48.24c-.06.14,0,.23-.06.24s-.1-.07-.07-.27a.56.56,0,0,1,.18-.31.63.63,0,0,1,.46-.13,1.15,1.15,0,0,1,.89.71,2.87,2.87,0,0,1,.32,1.33,2.15,2.15,0,0,1-1.15,2.09.89.89,0,0,1-.77-.1C505,72.65,505,72.55,505,72.54Z"/><path class="cls-3" d="M490,76.78c-.05-.12.89-.39,1.56-1.26a5.52,5.52,0,0,0,.68-1.23c.14-.35.25-.56.3-.55s0,.25-.05.63a3.47,3.47,0,0,1-.63,1.39,2.77,2.77,0,0,1-1.23.91C490.21,76.82,490,76.82,490,76.78Z"/><path class="cls-3" d="M509.89,59.89c-1-1.7-1.18-3.71-1.7-5.59s-1.54-3.85-3.37-4.53l0,0a5,5,0,0,0-5.06.41,6.51,6.51,0,0,0-4.86-5.14,16.19,16.19,0,0,0-8.64.56c-1.8.7-3.55,2.16-5.69,4.31a23,23,0,0,0-2.47,2.92l-2.19,6.47,1.76,3.43a7.48,7.48,0,0,0,.34.7v0l1.54,7.21c.13-2,.07-8.78.2-10.73a10.93,10.93,0,0,0,7.83-3.5c1.08-1.17,1.94-2.64,3.38-3.33,1.86-.89,4.05-.2,6,.5l-.08-.07a8.76,8.76,0,0,1,2.67,2,27.13,27.13,0,0,0,1,11.5c.18.56.66,1.71,1.2,1.93,1.07.43,1.37-.66,2-1.23a2.87,2.87,0,0,1,2-.46,41.26,41.26,0,0,0,1.37-4.93,4.39,4.39,0,0,0,2,.16c-.2-.49-.39-1-.59-1.48a2.29,2.29,0,0,0,.85.4.79.79,0,0,0,.82-.35C510.33,60.67,510.09,60.24,509.89,59.89Z"/><path class="cls-9" d="M497.52,51a5.94,5.94,0,0,1,.69.65,5,5,0,0,1,1,2.32,8.92,8.92,0,0,1,.15,1.77c0,.64-.06,1.33-.12,2A17,17,0,0,0,499.2,60a8.47,8.47,0,0,0,.14,1.21,2.4,2.4,0,0,0,.48,1.17,1.06,1.06,0,0,0,1,.35,1.58,1.58,0,0,0,.89-.49,3.6,3.6,0,0,0,.7-1.76h-.15a5.71,5.71,0,0,0,.83,1.47,2.07,2.07,0,0,0,1.34.76,1.34,1.34,0,0,0,.72-.12,1.2,1.2,0,0,0,.5-.47,1.26,1.26,0,0,0,.15-.62.85.85,0,0,0-.22-.54l-.07.06A4.37,4.37,0,0,0,507,62.21a3.82,3.82,0,0,0,.46.19c.11,0,.17.05.17,0l-.16-.07a4.31,4.31,0,0,1-.45-.2A4.71,4.71,0,0,1,505.56,61l-.08.06a.9.9,0,0,1,0,1,1.05,1.05,0,0,1-.44.42,1.28,1.28,0,0,1-.65.1,2,2,0,0,1-1.25-.72,5.7,5.7,0,0,1-.8-1.44l-.09-.22,0,.24a3.56,3.56,0,0,1-.66,1.68,1.48,1.48,0,0,1-.8.44.89.89,0,0,1-.83-.29,2.37,2.37,0,0,1-.44-1.1,8.07,8.07,0,0,1-.14-1.18,18.74,18.74,0,0,1,.07-2.27c.05-.72.11-1.41.11-2.06a9,9,0,0,0-.18-1.79,4.9,4.9,0,0,0-1.1-2.34A2.71,2.71,0,0,0,497.52,51Z"/><path class="cls-9" d="M475.91,57.46l0,0,.17.13a2,2,0,0,0,.3.19,3.17,3.17,0,0,0,.42.23,6.08,6.08,0,0,0,3,.58,7.91,7.91,0,0,0,4.22-1.5A13.72,13.72,0,0,0,487.7,53c.52-.84.94-1.7,1.41-2.49a9.4,9.4,0,0,1,1.58-2.1,4.69,4.69,0,0,1,2-1.19,3.54,3.54,0,0,1,1.06-.11A4,4,0,0,1,497,49.26a4.94,4.94,0,0,1,.34,1.05v-.07l0-.22a3.87,3.87,0,0,0-.26-.78,3.94,3.94,0,0,0-.76-1.07,4.19,4.19,0,0,0-1.47-.94,3.49,3.49,0,0,0-1-.21,3.54,3.54,0,0,0-1.11.1,4.93,4.93,0,0,0-2.08,1.21A9.42,9.42,0,0,0,489,50.46c-.47.8-.9,1.65-1.41,2.48A13.71,13.71,0,0,1,484,57a7.87,7.87,0,0,1-4.14,1.5,6.26,6.26,0,0,1-2.94-.52A8.08,8.08,0,0,1,475.91,57.46Z"/><path class="cls-3" d="M480.87,65c.13.14.95-.5,2.11-.51s2,.56,2.15.41-.07-.32-.45-.59a3,3,0,0,0-1.73-.52,2.84,2.84,0,0,0-1.68.59C480.92,64.63,480.8,64.89,480.87,65Z"/><path class="cls-3" d="M482.65,68a.94.94,0,0,0,1,.9.9.9,0,0,0,.92-.91.94.94,0,0,0-1-.9A.91.91,0,0,0,482.65,68Z"/><path class="cls-3" d="M478.65,52.05a2.94,2.94,0,0,1-2.48,1.39,7.29,7.29,0,0,1-1-.3c-.34.2-.26,1.37,0,1.69a6.13,6.13,0,0,0,.73.76c-1.15.61-2.19.31-3.41-.14a6,6,0,0,0,3.55,4.8,2.1,2.1,0,0,0,1.92,0,2.4,2.4,0,0,0,.85-1.5,26,26,0,0,0,.86-6.4Z"/><path class="cls-9" d="M517.14,92.55c-2.22-1.7-6.13-2.27-6.13-2.27l-7.59-1.57s-4.6,5.57-10.31,4.76S487,88.78,487,88.78s-10.8,1.78-16.74,7.3c5.85,5.55,12.32,9.19,21.79,10.06,8.42,1,19.78-3.17,27.3-11.34C519.38,94.8,519.56,94.41,517.14,92.55Z"/><path class="cls-3" d="M527.56,75s0-.19,0-.55V71.7c0-.43-.08-.9-.12-1.41a24,24,0,0,0-.47-3.48,31.88,31.88,0,0,0-3.12-9.07,33.43,33.43,0,0,0-21.36-17,31.31,31.31,0,0,0-4.15-.75c-.72-.07-1.43-.19-2.16-.23l-2.19,0c-.37,0-.74,0-1.11,0l-1.12.1c-.74.08-1.5.11-2.25.22A34.5,34.5,0,0,0,485,41a35.27,35.27,0,0,0-4.44,1.61c-.72.34-1.42.74-2.14,1.1A16.37,16.37,0,0,0,476.34,45a35.9,35.9,0,0,0-4,2.94,38.56,38.56,0,0,0-3.49,3.62,32.16,32.16,0,0,0-5.32,8.8,35.53,35.53,0,0,0-2.38,10.32,35.38,35.38,0,0,0,1,10.55,32.08,32.08,0,0,0,4.14,9.41,35.27,35.27,0,0,0,3,4.05,35.77,35.77,0,0,0,3.54,3.43,17,17,0,0,0,1.9,1.51c.67.45,1.31.94,2,1.36a34.79,34.79,0,0,0,4.19,2.18,34.16,34.16,0,0,0,4.33,1.58c.73.2,1.47.34,2.2.51l1.1.24c.36.07.73.1,1.1.15l2.18.25c.72.06,1.45,0,2.16.06a30.91,30.91,0,0,0,4.22-.21,33.3,33.3,0,0,0,23.38-14.12A31.76,31.76,0,0,0,525.89,83a23,23,0,0,0,.92-3.39c.11-.5.23-1,.31-1.38s.1-.81.14-1.15l.21-1.58c0-.35.09-.53.09-.53s0,.18,0,.54-.09.9-.15,1.58c0,.35-.08.74-.13,1.17s-.18.88-.28,1.38a24.21,24.21,0,0,1-.87,3.42,31.78,31.78,0,0,1-4.23,8.69,32.91,32.91,0,0,1-9.08,9,33.28,33.28,0,0,1-14.49,5.4,31.71,31.71,0,0,1-4.27.23c-.73,0-1.46,0-2.19-.06l-2.22-.25c-.37,0-.74-.07-1.11-.14l-1.11-.25c-.74-.17-1.49-.3-2.24-.5a36.76,36.76,0,0,1-4.39-1.6,35.7,35.7,0,0,1-4.25-2.2c-.69-.43-1.34-.92-2-1.38a18.78,18.78,0,0,1-1.93-1.53A35.77,35.77,0,0,1,469,95a37.5,37.5,0,0,1-3-4.1,32.35,32.35,0,0,1-4.21-9.56,35.83,35.83,0,0,1-1-10.71,35.9,35.9,0,0,1,2.42-10.48,32.8,32.8,0,0,1,5.41-8.94,38.49,38.49,0,0,1,3.55-3.67,37,37,0,0,1,4-3,16.9,16.9,0,0,1,2.12-1.26c.73-.37,1.44-.77,2.17-1.11a36.43,36.43,0,0,1,9.07-2.64c.76-.11,1.52-.15,2.28-.22l1.13-.1c.37,0,.75,0,1.12,0l2.23,0c.73,0,1.46.16,2.18.23a32.24,32.24,0,0,1,4.21.78,33.58,33.58,0,0,1,21.51,17.32,31.84,31.84,0,0,1,3.06,9.17,22.32,22.32,0,0,1,.42,3.5c0,.51.09,1,.1,1.41s0,.82,0,1.18c0,.68,0,1.21,0,1.59S527.56,75,527.56,75Z"/><circle class="cls-6" cx="100.53" cy="108.15" r="72.17"/><circle class="cls-15" cx="100.53" cy="108.15" r="72.17"/><circle class="cls-4" cx="98.59" cy="103.53" r="72.17"/><circle class="cls-1" cx="98.59" cy="103.53" r="56.14"/><circle class="cls-6" cx="98.59" cy="103.53" r="39.5" transform="translate(-44.33 100.03) rotate(-45)"/><circle class="cls-1" cx="98.59" cy="103.53" r="20.84" transform="translate(-44.33 100.03) rotate(-45)"/><polygon class="cls-9" points="154.42 45.08 152.46 29.68 168.13 12.91 169.26 29.53 154.42 45.08"/><polygon class="cls-9" points="188.06 32.83 172.16 31.54 156.22 46.87 172.16 48.57 188.06 32.83"/><path class="cls-16" d="M98.58,104.74l59.25-42.42a79.47,79.47,0,0,0-7.52-9.3L99.56,102.09Z"/><path class="cls-3" d="M171.61,26.32l-7.44,7.53L146.32,51.94l-21.51,21.8L106.13,92.67c-3,3.06-6.19,6-9.1,9.21l-.13.14c-1.76,1.78,1,4.52,2.74,2.74l7.44-7.53,17.85-18.09,21.51-21.8,18.69-18.93c3-3.06,6.18-6,9.09-9.22a1.59,1.59,0,0,0,.13-.13c1.76-1.78-1-4.53-2.74-2.74Z"/></g></g></svg>