<svg width="792" height="675" viewBox="0 0 792 675" fill="none" xmlns="http://www.w3.org/2000/svg">
<g clip-path="url(#clip0_2651_1898)">
<path d="M467.26 501.9V514.73C467.26 517.11 465.96 519.49 463.52 521.54C462.739 522.195 461.903 522.781 461.02 523.29C460.42 523.63 459.79 523.95 459.14 524.29C457.719 524.925 456.247 525.441 454.74 525.83C453.293 526.206 451.823 526.486 450.34 526.67C448.886 526.838 447.424 526.924 445.96 526.93C444.489 526.934 443.02 526.847 441.56 526.67C440.08 526.494 438.613 526.216 437.17 525.84C435.665 525.46 434.196 524.948 432.78 524.31C432.11 524 431.47 523.68 430.86 523.31C429.984 522.811 429.155 522.235 428.38 521.59C425.87 519.49 424.6 517.05 424.6 514.59V501.76C424.6 504.21 425.86 506.66 428.38 508.76C429.16 509.392 429.989 509.96 430.86 510.46C431.47 510.81 432.11 511.15 432.78 511.46C434.196 512.098 435.665 512.61 437.17 512.99C438.613 513.366 440.08 513.644 441.56 513.82C443.02 513.997 444.489 514.084 445.96 514.08C447.424 514.081 448.887 513.991 450.34 513.81C451.824 513.635 453.294 513.357 454.74 512.98C456.247 512.591 457.719 512.075 459.14 511.44C459.79 511.14 460.41 510.81 461.02 510.44C461.905 509.934 462.742 509.348 463.52 508.69C465.92 506.67 467.17 504.3 467.26 501.9Z" fill="white"/>
<path d="M467.26 489.08V501.9C467.26 504.3 465.96 506.67 463.52 508.71C462.742 509.368 461.905 509.954 461.02 510.46C460.41 510.8 459.79 511.13 459.14 511.46C457.719 512.095 456.247 512.611 454.74 513C453.294 513.377 451.824 513.655 450.34 513.83C448.887 514.011 447.424 514.101 445.96 514.1C444.489 514.104 443.02 514.017 441.56 513.84C440.08 513.664 438.613 513.386 437.17 513.01C435.665 512.63 434.196 512.118 432.78 511.48C432.11 511.18 431.47 510.84 430.86 510.48C429.989 509.98 429.16 509.412 428.38 508.78C425.86 506.68 424.6 504.23 424.6 501.78V488.93C424.6 491.38 425.88 493.82 428.38 495.93C429.157 496.57 429.986 497.142 430.86 497.64C431.47 497.99 432.12 498.32 432.78 498.64C434.198 499.275 435.666 499.791 437.17 500.18C438.613 500.556 440.08 500.834 441.56 501.01C443.021 501.179 444.49 501.262 445.96 501.26C447.424 501.264 448.887 501.177 450.34 501C451.824 500.825 453.294 500.547 454.74 500.17C456.249 499.787 457.721 499.271 459.14 498.63C459.79 498.33 460.41 498.01 461.02 497.63C461.902 497.124 462.739 496.542 463.52 495.89C465.92 493.85 467.17 491.47 467.26 489.08Z" fill="#C2C7CC"/>
<path d="M467.26 476.26V489.08C467.26 491.47 465.96 493.85 463.52 495.9C462.739 496.552 461.902 497.134 461.02 497.64C460.41 497.99 459.79 498.31 459.14 498.64C457.721 499.281 456.249 499.797 454.74 500.18C453.294 500.557 451.824 500.835 450.34 501.01C448.887 501.188 447.424 501.274 445.96 501.27C444.49 501.272 443.021 501.189 441.56 501.02C440.08 500.844 438.613 500.566 437.17 500.19C435.666 499.801 434.198 499.285 432.78 498.65C432.12 498.35 431.47 498.02 430.86 497.65C429.986 497.152 429.157 496.58 428.38 495.94C425.88 493.83 424.6 491.39 424.6 488.94V476.11C424.6 478.56 425.87 481.01 428.38 483.11C429.155 483.752 429.985 484.324 430.86 484.82C431.47 485.17 432.12 485.5 432.78 485.82C434.199 486.451 435.668 486.966 437.17 487.36C438.612 487.738 440.079 488.012 441.56 488.18C443.02 488.357 444.489 488.444 445.96 488.44C447.424 488.444 448.887 488.358 450.34 488.18C451.826 488.011 453.297 487.73 454.74 487.34C456.248 486.955 457.721 486.44 459.14 485.8C459.79 485.5 460.42 485.19 461.02 484.8C461.9 484.291 462.737 483.709 463.52 483.06C465.92 481.03 467.17 478.65 467.26 476.26Z" fill="#DAE0E5"/>
<path d="M467.26 463.45V476.26C467.26 478.65 465.96 481.03 463.52 483.08C462.737 483.729 461.9 484.311 461.02 484.82C460.42 485.17 459.79 485.48 459.14 485.82C457.721 486.46 456.248 486.975 454.74 487.36C453.297 487.75 451.826 488.031 450.34 488.2C448.887 488.378 447.424 488.464 445.96 488.46C444.489 488.464 443.02 488.377 441.56 488.2C440.079 488.032 438.612 487.758 437.17 487.38C435.668 486.986 434.199 486.471 432.78 485.84C432.12 485.54 431.47 485.21 430.86 484.84C429.985 484.344 429.155 483.772 428.38 483.13C425.87 481.03 424.6 478.58 424.6 476.13V463.3C424.6 465.76 425.87 468.2 428.38 470.3C429.155 470.939 429.985 471.507 430.86 472C431.47 472.36 432.11 472.69 432.78 473C434.197 473.634 435.666 474.146 437.17 474.53C438.613 474.903 440.08 475.177 441.56 475.35C443.02 475.53 444.489 475.62 445.96 475.62C447.396 475.63 448.832 475.556 450.26 475.4C451.743 475.22 453.213 474.942 454.66 474.57C456.169 474.182 457.641 473.663 459.06 473.02C459.703 472.719 460.331 472.385 460.94 472.02C461.825 471.518 462.662 470.935 463.44 470.28C465.91 468.2 467.17 465.84 467.26 463.45Z" fill="#DAE0E5"/>
<path d="M467.26 463.29V463.45C467.26 465.84 465.95 468.2 463.52 470.26C462.741 470.915 461.905 471.497 461.02 472C460.411 472.365 459.783 472.699 459.14 473C457.721 473.643 456.249 474.162 454.74 474.55C453.293 474.922 451.823 475.2 450.34 475.38C448.887 475.556 447.424 475.646 445.96 475.65C444.489 475.65 443.02 475.56 441.56 475.38C440.08 475.207 438.613 474.933 437.17 474.56C435.666 474.175 434.197 473.664 432.78 473.03C432.11 472.72 431.47 472.39 430.86 472.03C429.985 471.537 429.155 470.968 428.38 470.33C425.87 468.23 424.6 465.79 424.6 463.33C424.6 460.17 426.68 457.03 430.85 454.62C439.18 449.82 452.69 449.82 461.02 454.62C465.13 457 467.26 460.14 467.26 463.29Z" fill="white"/>
<path d="M467.26 476.26C467.26 478.65 465.96 481.03 463.52 483.08C462.737 483.729 461.9 484.311 461.02 484.82C460.42 485.17 459.79 485.48 459.14 485.82C457.721 486.46 456.248 486.975 454.74 487.36C453.297 487.75 451.826 488.031 450.34 488.2C448.887 488.377 447.424 488.464 445.96 488.46C444.489 488.464 443.02 488.377 441.56 488.2C440.079 488.032 438.612 487.758 437.17 487.38C435.668 486.986 434.199 486.471 432.78 485.84C432.12 485.54 431.47 485.21 430.86 484.84C429.985 484.344 429.155 483.772 428.38 483.13C425.87 481.03 424.6 478.58 424.6 476.13" stroke="#373A3A" stroke-width="3" stroke-linecap="round" stroke-linejoin="round"/>
<path d="M467.26 489.08C467.26 491.47 465.96 493.85 463.52 495.9C462.739 496.552 461.902 497.134 461.02 497.64C460.41 497.99 459.79 498.31 459.14 498.64C457.721 499.281 456.249 499.797 454.74 500.18C453.294 500.557 451.824 500.834 450.34 501.01C448.887 501.187 447.424 501.274 445.96 501.27C444.49 501.272 443.021 501.189 441.56 501.02C440.08 500.844 438.613 500.566 437.17 500.19C435.666 499.8 434.198 499.285 432.78 498.65C432.12 498.35 431.47 498.02 430.86 497.65C429.986 497.152 429.157 496.579 428.38 495.94C425.88 493.83 424.6 491.39 424.6 488.94" stroke="#373A3A" stroke-width="3" stroke-linecap="round" stroke-linejoin="round"/>
<path d="M467.26 501.9C467.26 504.3 465.96 506.67 463.52 508.71C462.742 509.368 461.905 509.954 461.02 510.46C460.41 510.8 459.79 511.13 459.14 511.46C457.719 512.095 456.247 512.611 454.74 513C453.294 513.377 451.824 513.655 450.34 513.83C448.887 514.011 447.424 514.101 445.96 514.1C444.489 514.104 443.02 514.017 441.56 513.84C440.08 513.664 438.613 513.386 437.17 513.01C435.665 512.63 434.196 512.118 432.78 511.48C432.11 511.18 431.47 510.84 430.86 510.48C429.989 509.98 429.16 509.412 428.38 508.78C425.86 506.68 424.6 504.23 424.6 501.78" stroke="#373A3A" stroke-width="3" stroke-linecap="round" stroke-linejoin="round"/>
<path d="M467.26 463.45C467.26 465.84 465.95 468.2 463.52 470.26C462.741 470.915 461.905 471.497 461.02 472C460.411 472.365 459.783 472.699 459.14 473C457.721 473.643 456.249 474.162 454.74 474.55C453.293 474.922 451.823 475.2 450.34 475.38C448.887 475.556 447.424 475.646 445.96 475.65C444.489 475.65 443.02 475.56 441.56 475.38C440.08 475.207 438.613 474.933 437.17 474.56C435.666 474.175 434.197 473.664 432.78 473.03C432.11 472.72 431.47 472.39 430.86 472.03C429.985 471.537 429.155 470.968 428.38 470.33C425.87 468.23 424.6 465.79 424.6 463.33C424.6 460.17 426.68 457.03 430.85 454.62C439.18 449.82 452.69 449.82 461.02 454.62C465.17 457.03 467.26 460.17 467.26 463.32V514.76C467.26 517.14 465.96 519.52 463.52 521.57C462.739 522.225 461.903 522.811 461.02 523.32C460.42 523.66 459.79 523.98 459.14 524.32C457.719 524.955 456.247 525.471 454.74 525.86C453.293 526.236 451.823 526.516 450.34 526.7C448.886 526.868 447.424 526.954 445.96 526.96C444.489 526.964 443.02 526.877 441.56 526.7C440.08 526.524 438.613 526.246 437.17 525.87C435.665 525.49 434.196 524.978 432.78 524.34C432.11 524.03 431.47 523.71 430.86 523.34C429.984 522.841 429.155 522.265 428.38 521.62C425.87 519.52 424.6 517.08 424.6 514.62V463.3" stroke="#373A3A" stroke-width="3" stroke-linecap="round" stroke-linejoin="round"/>
<path d="M270.38 383.82V446.39L256.86 454.2V391.62L270.38 383.82Z" fill="#969A9E"/>
<path d="M270.38 383.82L256.86 391.62L243.33 383.82L256.86 376.01L270.38 383.82Z" fill="white"/>
<path d="M256.86 391.62V454.2L243.33 446.39V383.82L256.86 391.62Z" fill="white"/>
<path d="M243.33 405.76V434.14L232.72 440.26V396.78L243.33 390.66V405.76Z" fill="#969A9E"/>
<path d="M243.33 387.29V390.66L232.72 396.78L219.2 388.97L232.72 381.16L243.33 387.29Z" fill="white"/>
<path d="M232.72 396.78V440.26L219.2 432.45V388.97L232.72 396.78Z" fill="white"/>
<path d="M219.2 399.94V420.2L208.59 426.32V406.06L219.2 399.94Z" fill="#969A9E"/>
<path d="M219.2 396.57V399.94L208.59 406.06L195.07 398.26L208.59 390.45L219.2 396.57Z" fill="white"/>
<path d="M208.59 406.06V426.32L195.07 418.52V398.26L208.59 406.06Z" fill="white"/>
<path d="M219.2 399.94L208.59 406.06L195.07 398.26L208.59 390.45L219.2 396.57" stroke="#373A3A" stroke-width="3" stroke-linecap="round" stroke-linejoin="round"/>
<path d="M208.59 406.06V426.32" stroke="#373A3A" stroke-width="3" stroke-linecap="round" stroke-linejoin="round"/>
<path d="M195.07 398.26V418.52L208.59 426.32L219.2 420.2" stroke="#373A3A" stroke-width="3" stroke-linecap="round" stroke-linejoin="round"/>
<path d="M243.33 390.66L232.72 396.78L219.2 388.97L232.72 381.16L243.33 387.29" stroke="#373A3A" stroke-width="3" stroke-linecap="round" stroke-linejoin="round"/>
<path d="M232.72 396.78V440.26" stroke="#373A3A" stroke-width="3" stroke-linecap="round" stroke-linejoin="round"/>
<path d="M219.2 388.97V432.45L232.72 440.26L243.33 434.14" stroke="#373A3A" stroke-width="3" stroke-linecap="round" stroke-linejoin="round"/>
<path d="M243.33 383.82L256.86 376.01L270.38 383.82L256.86 391.62L243.33 383.82Z" stroke="#373A3A" stroke-width="3" stroke-linecap="round" stroke-linejoin="round"/>
<path d="M256.86 391.62V454.2" stroke="#373A3A" stroke-width="3" stroke-linecap="round" stroke-linejoin="round"/>
<path d="M243.33 383.82V446.39L256.86 454.2L270.38 446.39V383.82" stroke="#373A3A" stroke-width="3" stroke-linecap="round" stroke-linejoin="round"/>
<path d="M72.36 450.72V482.01L45.27 497.65V466.36L72.36 450.72Z" fill="#373A3A"/>
<path d="M72.36 450.72L45.27 466.36L18.17 450.72L45.27 435.07L72.36 450.72Z" fill="white"/>
<path d="M45.27 466.36V497.65L18.17 482.01V450.72L45.27 466.36Z" fill="#FFC727"/>
<path d="M18.17 450.72L45.27 435.07L72.36 450.72L45.27 466.36L18.17 450.72Z" stroke="#373A3A" stroke-width="3" stroke-linecap="round" stroke-linejoin="round"/>
<path d="M45.27 466.36V497.65" stroke="#373A3A" stroke-width="3" stroke-linecap="round" stroke-linejoin="round"/>
<path d="M18.17 450.72V482.01L45.27 497.65L72.36 482.01V450.72" stroke="#373A3A" stroke-width="3" stroke-linecap="round" stroke-linejoin="round"/>
<path d="M622.58 136.92V173.7C622.58 192.32 612.92 210.82 593.91 226.9L593.24 227.46C587.552 232.142 581.465 236.318 575.05 239.94C511.7 276.52 408.96 276.52 345.61 239.94C339.099 236.204 332.908 231.936 327.1 227.18L326.76 226.9C307.94 210.58 298.09 192.32 298.09 173.7V137.7C298.177 143.71 299.234 149.667 301.22 155.34C307.22 172.86 322.07 189.61 345.61 203.2C408.96 239.78 511.7 239.78 575.05 203.2C598.61 189.6 613.4 172.86 619.44 155.32C621.506 149.405 622.568 143.186 622.58 136.92Z" fill="#DAE0E5"/>
<path d="M528.52 211.4C538.227 208.619 547.683 205.03 556.79 200.67C559.73 199.25 562.59 197.757 565.37 196.19C568.03 194.7 570.55 193.19 572.95 191.59C590.14 180.4 601.26 167.18 606.01 153.4L606.1 153.12C607.91 147.923 608.849 142.463 608.88 136.96C608.88 115.52 594.38 94.06 565.37 77.69C556.832 72.9143 547.891 68.8989 538.65 65.69C536.605 61.0926 534.096 56.7165 531.16 52.63C546.485 56.8029 561.229 62.8732 575.05 70.7C606.75 88.99 622.58 112.97 622.58 136.93C622.565 143.186 621.503 149.394 619.44 155.3C613.44 172.84 598.61 189.58 575.05 203.18C511.7 239.76 408.96 239.76 345.61 203.18C322.07 189.59 307.26 172.84 301.22 155.32C299.234 149.647 298.177 143.69 298.09 137.68C297.75 113.47 313.6 89.18 345.61 70.68C353.987 65.8784 362.743 61.7713 371.79 58.4V69.4C371.785 69.4532 371.785 69.5068 371.79 69.56C366.139 71.9042 360.63 74.5754 355.29 77.56C325.99 94.1 311.48 115.84 311.78 137.51C311.867 142.788 312.802 148.019 314.55 153C314.55 153.1 314.61 153.18 314.65 153.28C320.05 169.01 333.74 183.94 355.29 196.1C383.4 211.96 419.98 220.15 456.82 220.64C462.953 220.713 469.073 220.577 475.18 220.23C493.237 219.318 511.132 216.356 528.52 211.4Z" fill="white"/>
<path d="M608.88 136.92C608.87 142.425 607.93 147.888 606.1 153.08C600.62 137.3 587.05 122.23 565.37 110.01C558.482 106.161 551.323 102.819 543.95 100.01V88.4C543.765 80.5331 541.961 72.7886 538.65 65.65C547.891 68.8589 556.832 72.8744 565.37 77.65C594.38 94.02 608.88 115.48 608.88 136.92Z" fill="#DAE0E5"/>
<path d="M606.1 153.08L606.01 153.36C601.27 167.18 590.14 180.36 572.95 191.59V166.97C572.95 165.69 572.11 164.41 570.41 163.44C568.52 162.478 566.43 161.977 564.31 161.977C562.19 161.977 560.1 162.478 558.21 163.44C556.52 164.44 555.67 165.69 555.67 166.97V198.23C555.684 198.692 555.79 199.147 555.983 199.568C556.175 199.989 556.449 200.367 556.79 200.68C547.683 205.037 538.226 208.623 528.52 211.4V207.17C528.52 193.36 521.27 185.79 510.91 186.64C509.901 186.74 508.9 186.9 507.91 187.12C508.567 186.281 509.181 185.41 509.75 184.51C515.22 175.89 516.75 165.68 512.99 160.32C512.354 159.395 511.521 158.623 510.55 158.06L505.67 155.25C506.228 154.64 506.544 153.847 506.56 153.02V110.77L528 123.14L544 113.92V99.98C551.373 102.789 558.532 106.131 565.42 109.98C587.05 122.23 600.62 137.3 606.1 153.08Z" fill="#5F646B"/>
<path d="M593.26 227.46L499.36 305.86C497.634 307.281 495.791 308.552 493.85 309.66C475.36 320.33 445.35 320.33 426.85 309.66C424.912 308.557 423.075 307.285 421.36 305.86L327.12 227.18C332.923 231.942 339.115 236.21 345.63 239.94C408.98 276.52 511.72 276.52 575.07 239.94C581.464 236.285 587.548 232.11 593.26 227.46Z" fill="#969A9E"/>
<path d="M572.95 167.03V191.6C570.55 193.16 568.03 194.71 565.37 196.2C562.71 197.69 559.73 199.26 556.79 200.68C556.449 200.367 556.175 199.989 555.983 199.568C555.79 199.147 555.684 198.692 555.67 198.23V166.97C555.67 168.25 556.52 169.51 558.21 170.49C560.1 171.452 562.19 171.953 564.31 171.953C566.43 171.953 568.52 171.452 570.41 170.49C572.08 169.54 572.93 168.28 572.95 167.03Z" fill="white"/>
<path d="M572.95 166.97V167.03C572.95 168.28 572.08 169.54 570.41 170.49C568.52 171.452 566.43 171.953 564.31 171.953C562.19 171.953 560.1 171.452 558.21 170.49C556.52 169.49 555.67 168.25 555.67 166.97C555.67 165.69 556.52 164.41 558.21 163.44C560.1 162.478 562.19 161.977 564.31 161.977C566.43 161.977 568.52 162.478 570.41 163.44C572.11 164.4 572.95 165.69 572.95 166.97Z" fill="white"/>
<path d="M509.31 51.01L522.91 43.16C525.956 46.0428 528.718 49.2106 531.16 52.62C534.096 56.7065 536.605 61.0826 538.65 65.68C541.961 72.8186 543.765 80.5631 543.95 88.43V113.92L527.95 123.14V97.65C527.95 81.94 518.89 63.44 506.49 51.99C507.475 51.8478 508.42 51.5076 509.27 50.99L509.31 51.01Z" fill="#373A3A"/>
<path d="M528.52 207.18V211.4C511.136 216.386 493.241 219.379 475.18 220.32C478.852 211.372 484.38 203.304 491.4 196.65C496.07 197.41 502.21 194.24 507.35 187.85C507.55 187.63 507.72 187.37 507.9 187.13C508.89 186.91 509.891 186.75 510.9 186.65C521.26 185.8 528.52 193.4 528.52 207.18Z" fill="white"/>
<path d="M521.9 10.79C529.57 20.32 532.19 33.16 527.76 39.45C527.105 40.4257 526.236 41.2395 525.22 41.83L509.31 51.01L509.67 50.78C510.494 50.205 511.211 49.491 511.79 48.67C516.21 42.39 513.59 29.56 505.92 20.01C499.68 12.24 492.01 9.06001 486.98 11.57L502.57 2.57001C507.57 -0.339987 515.47 2.80001 521.9 10.79Z" fill="#373A3A"/>
<path d="M527.99 97.65V123.14L506.55 110.77V100.62C506.55 99.35 505.71 98.07 504.02 97.09C502.127 96.1338 500.036 95.6356 497.915 95.6356C495.794 95.6356 493.703 96.1338 491.81 97.09C490.12 98.09 489.28 99.34 489.28 100.62V100.79L467.86 88.4V62.94C467.812 59.6571 468.281 56.3871 469.25 53.25C470.366 49.3344 472.85 45.9492 476.25 43.71C479.232 41.9267 482.717 41.1714 486.17 41.56C487.221 41.6566 488.263 41.8271 489.29 42.07C489.47 42.32 489.65 42.57 489.85 42.81C495.32 49.37 501.6 52.81 506.47 51.98C518.93 63.4 527.99 81.94 527.99 97.65Z" fill="white"/>
<path d="M512.98 160.32C516.73 165.68 515.21 175.89 509.74 184.51C509.18 185.4 508.56 186.25 507.9 187.12C507.71 187.36 507.55 187.62 507.35 187.84C502.21 194.23 496.08 197.36 491.4 196.64C490.48 196.517 489.593 196.215 488.79 195.75L488.39 195.49C487.601 194.958 486.922 194.279 486.39 193.49C482.14 187.49 484.66 175.14 492.02 165.97C498.02 158.5 505.37 155.46 510.21 157.87L510.58 158.08C511.534 158.642 512.354 159.407 512.98 160.32Z" fill="white"/>
<path d="M505.92 20.0001C513.59 29.5501 516.21 42.3801 511.79 48.6601C511.211 49.481 510.494 50.195 509.67 50.7701L509.31 51.0001C508.458 51.5118 507.513 51.8515 506.53 52.0001C501.66 52.7901 495.38 49.3901 489.91 42.8301C489.71 42.5901 489.53 42.3401 489.35 42.0901C488.667 41.2165 488.03 40.3086 487.44 39.3701C481.73 30.3701 480.15 19.7501 484.06 14.1801C484.718 13.2124 485.587 12.4057 486.6 11.8201L486.99 11.6001C492.01 9.05007 499.68 12.2301 505.92 20.0001Z" fill="white"/>
<path d="M505.66 155.25L510.17 157.85C505.33 155.44 497.98 158.48 491.98 165.95C484.62 175.12 482.1 187.44 486.35 193.47C486.882 194.259 487.561 194.938 488.35 195.47L488.69 195.69L473.42 186.89C472.442 186.324 471.607 185.54 470.98 184.6C466.73 178.6 469.24 166.24 476.61 157.09C480.61 152.09 485.19 149.09 489.24 148.36C491.248 147.908 493.351 148.199 495.16 149.18L505.66 155.25Z" fill="#373A3A"/>
<path d="M506.55 110.77V153.02C506.534 153.847 506.218 154.64 505.66 155.25L495.2 149.25C493.389 148.254 491.278 147.952 489.26 148.4V100.79C489.369 101.513 489.657 102.196 490.097 102.78C490.537 103.363 491.115 103.827 491.78 104.13C493.67 105.096 495.762 105.6 497.885 105.6C500.008 105.6 502.1 105.096 503.99 104.13C505.66 103.13 506.5 101.92 506.52 100.68L506.55 110.77Z" fill="white"/>
<path d="M506.55 100.62V100.69C506.55 101.93 505.69 103.19 504.02 104.14C502.13 105.106 500.038 105.61 497.915 105.61C495.792 105.61 493.7 105.106 491.81 104.14C491.145 103.837 490.567 103.373 490.126 102.79C489.686 102.206 489.399 101.523 489.29 100.8C489.285 100.74 489.285 100.68 489.29 100.62C489.29 99.3401 490.13 98.0701 491.82 97.0901C493.713 96.1338 495.804 95.6356 497.925 95.6356C500.046 95.6356 502.137 96.1338 504.03 97.0901C505.71 98.0701 506.55 99.4001 506.55 100.62Z" fill="white"/>
<path d="M500.85 304.59V356.23C500.85 399.92 419.73 432.77 419.73 394.46V304.52L421.34 305.86C423.055 307.285 424.892 308.557 426.83 309.66C445.33 320.33 475.34 320.33 493.83 309.66C495.771 308.552 497.614 307.281 499.34 305.86L500.85 304.59Z" fill="#DAE0E5"/>
<path d="M491.4 196.64C484.38 203.294 478.852 211.362 475.18 220.31C469.08 220.657 462.96 220.793 456.82 220.72C459.942 208.324 466.476 197.051 475.68 188.18L488.79 195.75C489.593 196.215 490.48 196.517 491.4 196.64Z" fill="#373A3A"/>
<path d="M489.26 100.62C489.255 100.68 489.255 100.74 489.26 100.8V100.62Z" fill="white"/>
<path d="M489.26 148.4C485.26 149.15 480.62 152.15 476.63 157.13C469.26 166.28 466.75 178.6 471 184.64C471.627 185.58 472.462 186.364 473.44 186.93L475.66 188.2C466.456 197.071 459.922 208.344 456.8 220.74C419.96 220.25 383.38 212.06 355.27 196.2C333.72 184.04 320.03 169.11 314.63 153.38C314.63 153.28 314.56 153.2 314.53 153.1C320.03 137.31 333.6 122.24 355.27 110.02C367.75 103.113 381.02 97.7403 394.79 94.02C394 98.79 394.54 103.14 396.6 106.02C397.256 106.993 398.124 107.803 399.14 108.39L401.45 109.72C389.26 121.19 380.45 139.45 380.45 155V180.49L396.45 189.71L456.57 155V129.56C456.57 115.18 449.01 107.23 438.22 108.18C437.168 108.267 436.125 108.437 435.1 108.69C435.8 107.8 436.43 106.89 437.02 105.97C441.22 99.34 443.19 91.82 442.36 86.09C450.85 85.51 459.36 85.34 467.93 85.59V88.4L489.26 100.79V148.4Z" fill="#5F646B"/>
<path d="M476.26 43.71C472.86 45.9492 470.376 49.3344 469.26 53.25C441.76 52.33 413.89 55.69 389.07 63.35V52.74C416.37 45.04 446.66 42.03 476.26 43.71Z" fill="white"/>
<path d="M469.26 53.25C468.291 56.3871 467.822 59.6571 467.87 62.94V85.57C459.34 85.32 450.79 85.49 442.3 86.07C442.063 84.1668 441.377 82.347 440.3 80.76C439.638 79.7919 438.766 78.9853 437.75 78.4L421.75 69.18C416.75 66.28 408.84 69.42 402.42 77.4C398.512 82.2102 395.874 87.9251 394.75 94.02C380.98 97.7403 367.71 103.113 355.23 110.02C333.56 122.24 319.99 137.31 314.49 153.1C312.742 148.119 311.807 142.889 311.72 137.61C311.42 115.94 325.93 94.2 355.23 77.66C360.57 74.6754 366.079 72.0042 371.73 69.66C371.833 70.3868 372.117 71.0761 372.556 71.6649C372.994 72.2536 373.573 72.723 374.24 73.03C376.135 73.9864 378.228 74.4846 380.35 74.4846C382.472 74.4846 384.565 73.9864 386.46 73.03C388.15 72.03 388.99 70.78 388.99 69.5V63.4C413.88 55.69 441.75 52.33 469.26 53.25Z" fill="#DAE0E5"/>
<path d="M456.52 129.56V155.05L396.4 189.76V164.27C396.4 148.56 405.4 130.05 417.84 118.6C422.71 119.39 429 115.99 434.46 109.43C434.66 109.19 434.85 108.93 435.03 108.68C436.055 108.427 437.098 108.257 438.15 108.17C448.96 107.23 456.52 115.18 456.52 129.56Z" fill="white"/>
<path d="M442.26 86.0701C443.09 91.8001 441.12 99.3201 436.92 105.95C436.33 106.87 435.68 107.76 435 108.67C434.82 108.92 434.63 109.18 434.43 109.42C428.97 115.98 422.69 119.36 417.81 118.59C416.858 118.447 415.939 118.132 415.1 117.66H415.04C414.91 117.58 414.8 117.51 414.68 117.42C413.854 116.852 413.136 116.14 412.56 115.32C408.13 109.03 410.75 96.1901 418.42 86.6601C424.68 78.8801 432.33 75.6601 437.36 78.2201L437.75 78.4401C438.766 79.0253 439.638 79.8319 440.3 80.8001C441.357 82.379 442.029 84.1841 442.26 86.0701Z" fill="white"/>
<path d="M421.81 69.1801L437.39 78.1801C432.39 75.6601 424.71 78.8401 418.45 86.6201C410.78 96.1501 408.16 108.99 412.59 115.28C413.166 116.1 413.884 116.812 414.71 117.38C414.83 117.47 414.94 117.54 415.07 117.62L399.16 108.4C398.144 107.813 397.276 107.003 396.62 106.03C394.56 103.1 394.02 98.7501 394.81 94.0301C395.934 87.9351 398.572 82.2202 402.48 77.4101C408.9 69.4001 416.81 66.2801 421.81 69.1801Z" fill="#373A3A"/>
<path d="M417.84 118.59C405.45 130.04 396.4 148.59 396.4 164.26V189.75L380.4 180.53V155.05C380.4 139.5 389.26 121.24 401.4 109.77L415.06 117.66C415.921 118.14 416.864 118.455 417.84 118.59Z" fill="#373A3A"/>
<path d="M389.06 63.4001V69.5001C389.06 70.7801 388.22 72.0601 386.53 73.0301C384.635 73.9864 382.542 74.4846 380.42 74.4846C378.298 74.4846 376.205 73.9864 374.31 73.0301C373.643 72.723 373.064 72.2536 372.626 71.6649C372.187 71.0762 371.903 70.3869 371.8 69.6601C371.795 69.6069 371.795 69.5533 371.8 69.5001V36.0801C371.8 37.3601 372.64 38.6201 374.32 39.6001C376.213 40.5618 378.307 41.0631 380.43 41.0631C382.553 41.0631 384.647 40.5618 386.54 39.6001C387.227 39.295 387.823 38.8149 388.267 38.2078C388.711 37.6007 388.988 36.8877 389.07 36.1401L389.06 63.4001Z" fill="white"/>
<path d="M389.06 36.0801V36.1401C388.978 36.8877 388.701 37.6006 388.257 38.2078C387.813 38.8149 387.218 39.295 386.53 39.6001C384.637 40.5618 382.543 41.0631 380.42 41.0631C378.297 41.0631 376.203 40.5618 374.31 39.6001C372.63 38.6001 371.79 37.3601 371.79 36.0801C371.79 34.8001 372.63 33.5201 374.31 32.5501C376.203 31.5883 378.297 31.087 380.42 31.087C382.543 31.087 384.637 31.5883 386.53 32.5501C388.26 33.5201 389.06 34.8001 389.06 36.0801Z" fill="white"/>
<path d="M531.16 52.62C546.485 56.7928 561.229 62.8631 575.05 70.69C606.75 88.98 622.58 112.96 622.58 136.92C622.565 143.176 621.503 149.384 619.44 155.29C613.44 172.83 598.61 189.57 575.05 203.17C511.7 239.75 408.96 239.75 345.61 203.17C322.07 189.58 307.26 172.83 301.22 155.31C299.239 149.635 298.182 143.68 298.09 137.67C297.77 113.46 313.6 89.17 345.61 70.67C353.987 65.8718 362.743 61.7681 371.79 58.4" stroke="#373A3A" stroke-width="3" stroke-linecap="round" stroke-linejoin="round"/>
<path d="M389.06 52.74C416.37 45.04 446.66 42.03 476.29 43.74" stroke="#373A3A" stroke-width="3" stroke-linecap="round" stroke-linejoin="round"/>
<path d="M314.55 153.09C312.802 148.109 311.867 142.878 311.78 137.6C311.48 115.93 325.99 94.19 355.29 77.65C360.63 74.6654 366.139 71.9942 371.79 69.65" stroke="#373A3A" stroke-width="3" stroke-linecap="round" stroke-linejoin="round"/>
<path d="M572.95 191.6C570.55 193.16 568.03 194.71 565.37 196.2C562.71 197.69 559.73 199.26 556.79 200.68C547.679 205.028 538.223 208.614 528.52 211.4C511.134 216.377 493.24 219.369 475.18 220.32C469.08 220.667 462.96 220.803 456.82 220.73C419.98 220.26 383.4 212.05 355.29 196.19C333.74 184.03 320.05 169.1 314.65 153.37C314.65 153.27 314.58 153.19 314.55 153.09" stroke="#373A3A" stroke-width="3" stroke-linecap="round" stroke-linejoin="round"/>
<path d="M538.65 65.6801C547.891 68.8889 556.832 72.9044 565.37 77.6801C594.37 94.0501 608.88 115.51 608.88 136.95C608.849 142.453 607.91 147.913 606.1 153.11L606.01 153.39C601.27 167.21 590.14 180.39 572.95 191.62" stroke="#373A3A" stroke-width="3" stroke-linecap="round" stroke-linejoin="round"/>
<path d="M389.06 63.4C413.88 55.74 441.75 52.4 469.25 53.3" stroke="#373A3A" stroke-width="3" stroke-linecap="round" stroke-linejoin="round"/>
<path d="M314.55 153.1C320.05 137.31 333.62 122.24 355.29 110.02C367.77 103.113 381.04 97.7403 394.81 94.02" stroke="#373A3A" stroke-width="3" stroke-linecap="round" stroke-linejoin="round"/>
<path d="M442.26 86.07C450.75 85.49 459.26 85.32 467.83 85.57" stroke="#373A3A" stroke-width="3" stroke-linecap="round" stroke-linejoin="round"/>
<path d="M543.95 99.98C551.323 102.789 558.482 106.131 565.37 109.98C587.05 122.2 600.62 137.27 606.1 153.05" stroke="#373A3A" stroke-width="3" stroke-linecap="round" stroke-linejoin="round"/>
<path d="M327.1 227.18L421.34 305.86C423.055 307.285 424.892 308.557 426.83 309.66C445.33 320.33 475.34 320.33 493.83 309.66C495.771 308.552 497.614 307.281 499.34 305.86L593.24 227.46" stroke="#373A3A" stroke-width="3" stroke-linecap="round" stroke-linejoin="round"/>
<path d="M298.09 136.92V173.7C298.09 192.32 307.94 210.58 326.76 226.9L327.1 227.18C332.908 231.936 339.099 236.204 345.61 239.94C408.96 276.52 511.7 276.52 575.05 239.94C581.472 236.319 587.565 232.143 593.26 227.46L593.93 226.9C612.93 210.82 622.6 192.32 622.6 173.7V136.92" stroke="#373A3A" stroke-width="3" stroke-linecap="round" stroke-linejoin="round"/>
<path d="M500.85 304.59V356.23C500.85 399.92 419.73 432.77 419.73 394.46V304.52" stroke="#373A3A" stroke-width="3" stroke-linecap="round" stroke-linejoin="round"/>
<path d="M415.07 117.62C414.94 117.54 414.83 117.47 414.71 117.38C413.884 116.812 413.166 116.1 412.59 115.28C408.16 108.99 410.78 96.15 418.45 86.62C424.71 78.84 432.36 75.62 437.39 78.18" stroke="#373A3A" stroke-width="3" stroke-linecap="round" stroke-linejoin="round"/>
<path d="M437.78 78.4C438.796 78.9852 439.668 79.7919 440.33 80.76C441.403 82.3491 442.088 84.1679 442.33 86.07C443.15 91.8 441.19 99.32 436.99 105.95C436.4 106.87 435.75 107.76 435.07 108.67C434.89 108.92 434.7 109.18 434.5 109.42C429.04 115.98 422.76 119.36 417.88 118.59C416.928 118.447 416.009 118.132 415.17 117.66" stroke="#373A3A" stroke-width="3" stroke-linecap="round" stroke-linejoin="round"/>
<path d="M417.84 118.6C405.45 130.05 396.4 148.6 396.4 164.27V189.76L456.52 155.05V129.56C456.52 115.18 448.96 107.23 438.17 108.18C437.118 108.267 436.075 108.437 435.05 108.69" stroke="#373A3A" stroke-width="3" stroke-linecap="round" stroke-linejoin="round"/>
<path d="M396.4 189.76L380.4 180.54V155.05C380.4 139.5 389.26 121.24 401.4 109.77" stroke="#373A3A" stroke-width="3" stroke-linecap="round" stroke-linejoin="round"/>
<path d="M437.78 78.4L421.78 69.18C416.78 66.28 408.87 69.42 402.45 77.4C398.542 82.2102 395.904 87.9251 394.78 94.02C393.99 98.79 394.53 103.14 396.59 106.02C397.246 106.993 398.114 107.803 399.13 108.39L415.13 117.61" stroke="#373A3A" stroke-width="3" stroke-linecap="round" stroke-linejoin="round"/>
<path d="M486.59 11.78C485.577 12.3656 484.708 13.1723 484.05 14.14C480.14 19.71 481.72 30.35 487.43 39.33C488.02 40.2685 488.657 41.1764 489.34 42.05C489.52 42.3 489.7 42.55 489.9 42.79C495.37 49.35 501.65 52.72 506.52 51.96C507.503 51.8115 508.448 51.4717 509.3 50.96L509.66 50.73C510.484 50.1549 511.201 49.441 511.78 48.62C516.2 42.34 513.58 29.51 505.91 19.96C499.67 12.19 492 9.00998 486.97 11.52" stroke="#373A3A" stroke-width="3" stroke-linecap="round" stroke-linejoin="round"/>
<path d="M506.53 51.99C518.93 63.44 527.99 81.94 527.99 97.65V123.14L506.55 110.77" stroke="#373A3A" stroke-width="3" stroke-linecap="round" stroke-linejoin="round"/>
<path d="M489.26 100.8L467.86 88.4V62.94C467.812 59.6571 468.281 56.3871 469.25 53.25C470.366 49.3344 472.85 45.9492 476.25 43.71C479.232 41.9267 482.717 41.1714 486.17 41.56C487.221 41.6566 488.263 41.8271 489.29 42.07" stroke="#373A3A" stroke-width="3" stroke-linecap="round" stroke-linejoin="round"/>
<path d="M527.99 123.14L543.99 113.92V88.4C543.805 80.533 542.001 72.7886 538.69 65.65C536.645 61.0526 534.136 56.6765 531.2 52.59C528.758 49.1806 525.996 46.0128 522.95 43.13" stroke="#373A3A" stroke-width="3" stroke-linecap="round" stroke-linejoin="round"/>
<path d="M486.59 11.78L502.59 2.56002C507.59 -0.339977 515.49 2.80002 521.92 10.79C529.59 20.32 532.21 33.16 527.78 39.45C527.125 40.4257 526.256 41.2395 525.24 41.83L509.24 51.05" stroke="#373A3A" stroke-width="3" stroke-linecap="round" stroke-linejoin="round"/>
<path d="M488.73 195.71L488.39 195.49C487.601 194.958 486.922 194.279 486.39 193.49C482.14 187.49 484.66 175.14 492.02 165.97C498.02 158.5 505.37 155.46 510.21 157.87" stroke="#373A3A" stroke-width="3" stroke-linecap="round" stroke-linejoin="round"/>
<path d="M510.54 158.06C511.511 158.623 512.344 159.395 512.98 160.32C516.73 165.68 515.21 175.89 509.74 184.51C509.18 185.4 508.56 186.25 507.9 187.12C507.71 187.36 507.55 187.62 507.35 187.84C502.21 194.23 496.08 197.36 491.4 196.64C490.48 196.517 489.593 196.215 488.79 195.75" stroke="#373A3A" stroke-width="3" stroke-linecap="round" stroke-linejoin="round"/>
<path d="M491.4 196.66C484.38 203.314 478.852 211.382 475.18 220.33" stroke="#373A3A" stroke-width="3" stroke-linecap="round" stroke-linejoin="round"/>
<path d="M528.52 211.4V207.15C528.52 193.34 521.27 185.77 510.91 186.62C509.901 186.72 508.9 186.88 507.91 187.1" stroke="#373A3A" stroke-width="3" stroke-linecap="round" stroke-linejoin="round"/>
<path d="M456.82 220.72C459.942 208.324 466.476 197.051 475.68 188.18" stroke="#373A3A" stroke-width="3" stroke-linecap="round" stroke-linejoin="round"/>
<path d="M510.54 158.06L495.2 149.2C493.383 148.22 491.271 147.936 489.26 148.4C485.26 149.15 480.62 152.15 476.63 157.13C469.26 166.28 466.75 178.6 471 184.64C471.627 185.58 472.462 186.364 473.44 186.93L488.77 195.77" stroke="#373A3A" stroke-width="3" stroke-linecap="round" stroke-linejoin="round"/>
<path d="M572.95 167.03C572.95 168.28 572.08 169.54 570.41 170.49C568.52 171.452 566.43 171.953 564.31 171.953C562.19 171.953 560.1 171.452 558.21 170.49C556.52 169.49 555.67 168.25 555.67 166.97C555.67 165.69 556.52 164.41 558.21 163.44C560.1 162.478 562.19 161.977 564.31 161.977C566.43 161.977 568.52 162.478 570.41 163.44C572.11 164.44 572.95 165.69 572.95 166.97V191.6" stroke="#373A3A" stroke-width="3" stroke-linecap="round" stroke-linejoin="round"/>
<path d="M556.79 200.68C556.449 200.367 556.175 199.989 555.983 199.568C555.79 199.147 555.684 198.692 555.67 198.23V166.97" stroke="#373A3A" stroke-width="3" stroke-linecap="round" stroke-linejoin="round"/>
<path d="M506.55 100.69C506.55 101.93 505.69 103.19 504.02 104.14C502.13 105.106 500.038 105.61 497.915 105.61C495.792 105.61 493.7 105.106 491.81 104.14C491.145 103.837 490.567 103.373 490.126 102.79C489.686 102.206 489.399 101.523 489.29 100.8C489.285 100.74 489.285 100.68 489.29 100.62C489.29 99.3401 490.13 98.0701 491.82 97.0901C493.713 96.1338 495.804 95.6356 497.925 95.6356C500.046 95.6356 502.137 96.1338 504.03 97.0901C505.72 98.0901 506.56 99.3501 506.56 100.62V153.02C506.544 153.847 506.228 154.64 505.67 155.25" stroke="#373A3A" stroke-width="3" stroke-linecap="round" stroke-linejoin="round"/>
<path d="M489.28 148.37V100.63" stroke="#373A3A" stroke-width="3" stroke-linecap="round" stroke-linejoin="round"/>
<path d="M389.06 36.1401C388.978 36.8877 388.701 37.6006 388.257 38.2078C387.813 38.8149 387.218 39.295 386.53 39.6001C384.637 40.5618 382.543 41.0631 380.42 41.0631C378.297 41.0631 376.203 40.5618 374.31 39.6001C372.63 38.6001 371.79 37.3601 371.79 36.0801C371.79 34.8001 372.63 33.5201 374.31 32.5501C376.203 31.5883 378.297 31.087 380.42 31.087C382.543 31.087 384.637 31.5883 386.53 32.5501C388.21 33.5501 389.06 34.8001 389.06 36.0801V36.1401Z" stroke="#373A3A" stroke-width="3" stroke-linecap="round" stroke-linejoin="round"/>
<path d="M389.06 36.0801V69.4501C389.06 70.7301 388.22 72.0101 386.53 72.9801C384.635 73.9364 382.542 74.4346 380.42 74.4346C378.298 74.4346 376.205 73.9364 374.31 72.9801C373.643 72.673 373.064 72.2036 372.626 71.6149C372.187 71.0262 371.903 70.3369 371.8 69.6101C371.795 69.5569 371.795 69.5033 371.8 69.4501V36.0801" stroke="#373A3A" stroke-width="3" stroke-linecap="round" stroke-linejoin="round"/>
<path d="M127.57 245.9V293.51C127.57 304.13 120.11 317.05 110.91 322.36L63.08 349.98C58.08 365.77 50.82 375.55 35.7 388.75C43.4 377.01 46.3901 366.87 46.4301 359.6L32.65 367.55C30.9727 368.559 29.1315 369.267 27.21 369.64C25.0569 370.104 22.8088 369.773 20.88 368.71L20.66 368.58C17.77 366.79 16 363.12 16 357.93V310.32C16 299.69 23.45 286.77 32.65 281.46L110.91 236.28C115.4 233.69 119.48 233.39 122.47 234.99L122.69 235.12C125.7 236.85 127.57 240.59 127.57 245.9ZM93.96 295.05C95.4697 294.061 96.7266 292.731 97.6296 291.168C98.5327 289.605 99.0569 287.852 99.16 286.05C99.16 282.73 96.83 281.4 93.96 283.05C92.4469 284.036 91.1877 285.365 90.2842 286.928C89.3807 288.492 88.8585 290.247 88.76 292.05C88.76 295.4 91.08 296.71 93.96 295.05ZM71.77 307.84C73.287 306.858 74.5493 305.53 75.4532 303.966C76.3572 302.401 76.877 300.645 76.97 298.84C76.97 295.53 74.65 294.16 71.77 295.84C70.2607 296.828 69.0051 298.158 68.1052 299.721C67.2053 301.285 66.6862 303.039 66.59 304.84C66.59 308.15 68.9 309.5 71.77 307.84ZM49.6 320.64C51.1125 319.653 52.3715 318.325 53.2749 316.761C54.1783 315.197 54.7008 313.443 54.8 311.64C54.8 308.34 52.47 306.99 49.6 308.64C48.0875 309.627 46.8286 310.955 45.9252 312.519C45.0218 314.083 44.4993 315.837 44.4 317.64C44.4 320.94 46.73 322.29 49.6 320.64Z" fill="white"/>
<path d="M108.2 226.74L122.47 234.99C119.47 233.39 115.4 233.69 110.91 236.28L32.65 281.46C23.45 286.77 16 299.69 16 310.32V357.93C16 363.12 17.77 366.79 20.66 368.58L6.38 360.34C3.38 358.6 1.5 354.87 1.5 349.56V301.95C1.5 291.33 8.96002 278.4 18.15 273.09L96.41 227.91C101.01 225.25 105.18 225 108.2 226.74Z" fill="#969A9E"/>
<path d="M99.16 286.04C99.0569 287.842 98.5327 289.595 97.6296 291.158C96.7266 292.721 95.4697 294.051 93.96 295.04C91.08 296.7 88.76 295.35 88.76 292.04C88.8585 290.237 89.3807 288.482 90.2842 286.918C91.1877 285.355 92.4469 284.026 93.96 283.04C96.83 281.4 99.16 282.72 99.16 286.04Z" fill="#5F646B"/>
<path d="M76.97 298.85C76.877 300.655 76.3572 302.411 75.4532 303.976C74.5493 305.54 73.287 306.868 71.77 307.85C68.9 309.51 66.59 308.16 66.59 304.85C66.6862 303.049 67.2053 301.295 68.1052 299.731C69.0051 298.168 70.2607 296.838 71.77 295.85C74.65 294.17 76.97 295.54 76.97 298.85Z" fill="#5F646B"/>
<path d="M54.8 311.63C54.7008 313.433 54.1783 315.187 53.2749 316.751C52.3715 318.315 51.1125 319.643 49.6 320.63C46.73 322.28 44.4 320.93 44.4 317.63C44.4993 315.827 45.0218 314.073 45.9252 312.509C46.8286 310.945 48.0875 309.617 49.6 308.63C52.47 306.98 54.8 308.33 54.8 311.63Z" fill="#5F646B"/>
<path d="M32.65 367.55L46.4301 359.6C46.4301 366.87 43.43 377.01 35.7 388.75L21.2 380.38C23.4653 376.955 25.4709 373.365 27.2 369.64C29.1249 369.268 30.9697 368.56 32.65 367.55Z" fill="#373A3A"/>
<path d="M54.8 311.63C54.7008 313.433 54.1783 315.187 53.2749 316.751C52.3715 318.315 51.1125 319.643 49.6 320.63C46.73 322.28 44.4 320.93 44.4 317.63C44.4993 315.827 45.0218 314.073 45.9252 312.509C46.8286 310.945 48.0875 309.617 49.6 308.63C52.47 306.98 54.8 308.33 54.8 311.63Z" stroke="#373A3A" stroke-width="3" stroke-linecap="round" stroke-linejoin="round"/>
<path d="M76.97 298.85C76.877 300.655 76.3572 302.411 75.4532 303.976C74.5493 305.54 73.287 306.868 71.77 307.85C68.9 309.51 66.59 308.16 66.59 304.85C66.6862 303.049 67.2053 301.295 68.1052 299.731C69.0051 298.168 70.2607 296.838 71.77 295.85C74.65 294.17 76.97 295.54 76.97 298.85Z" stroke="#373A3A" stroke-width="3" stroke-linecap="round" stroke-linejoin="round"/>
<path d="M99.16 286.04C99.0569 287.842 98.5327 289.595 97.6296 291.158C96.7266 292.721 95.4697 294.051 93.96 295.04C91.08 296.7 88.76 295.35 88.76 292.04C88.8585 290.237 89.3807 288.482 90.2842 286.918C91.1877 285.355 92.4469 284.026 93.96 283.04C96.83 281.4 99.16 282.72 99.16 286.04Z" stroke="#373A3A" stroke-width="3" stroke-linecap="round" stroke-linejoin="round"/>
<path d="M20.88 368.71C22.8088 369.773 25.0569 370.104 27.21 369.64C29.1315 369.267 30.9727 368.559 32.65 367.55L46.4301 359.6C46.4301 366.87 43.43 377.01 35.7 388.75C50.82 375.55 58.09 365.75 63.08 349.98L110.91 322.4C120.11 317.09 127.57 304.17 127.57 293.55V245.9C127.57 240.59 125.7 236.85 122.69 235.12" stroke="#373A3A" stroke-width="3" stroke-linecap="round" stroke-linejoin="round"/>
<path d="M122.47 234.99C119.47 233.39 115.4 233.69 110.91 236.28L32.65 281.46C23.45 286.77 16 299.69 16 310.32V357.93C16 363.12 17.77 366.79 20.66 368.58" stroke="#373A3A" stroke-width="3" stroke-linecap="round" stroke-linejoin="round"/>
<path d="M122.69 235.12L108.2 226.74C105.2 225 101.01 225.25 96.41 227.91L18.15 273.09C8.96002 278.4 1.5 291.33 1.5 301.95V349.56C1.5 354.87 3.36 358.56 6.38 360.34L20.88 368.71" stroke="#373A3A" stroke-width="3" stroke-linecap="round" stroke-linejoin="round"/>
<path d="M27.26 369.64C25.531 373.365 23.5253 376.955 21.26 380.38L35.76 388.75" stroke="#373A3A" stroke-width="3" stroke-linecap="round" stroke-linejoin="round"/>
<path d="M397.34 489.55V595.22L305.83 648.05V542.38L397.34 489.55Z" fill="#C2C7CC"/>
<path d="M397.34 489.55L305.83 542.38L214.3 489.55L305.83 436.7L397.34 489.55Z" fill="white"/>
<path d="M305.83 542.38V648.05L214.3 595.22V489.55L305.83 542.38Z" fill="white"/>
<path d="M214.3 489.55L305.83 436.7L397.34 489.55L305.83 542.38L214.3 489.55Z" stroke="#373A3A" stroke-width="3" stroke-linecap="round" stroke-linejoin="round"/>
<path d="M305.83 542.38V648.05" stroke="#373A3A" stroke-width="3" stroke-linecap="round" stroke-linejoin="round"/>
<path d="M214.3 489.55V595.22L305.83 648.05L397.34 595.22V489.55" stroke="#373A3A" stroke-width="3" stroke-linecap="round" stroke-linejoin="round"/>
<path d="M355 80.7401C364 101.06 365 120.27 357.4 123.63C356.694 123.945 355.933 124.115 355.16 124.13H354.9C348.3 124.13 339.01 114.93 331.43 101.13L340.74 97.0201C341.79 96.5788 342.742 95.9327 343.54 95.1195C344.338 94.3064 344.966 93.3425 345.388 92.284C345.809 91.2255 346.016 90.0937 345.995 88.9546C345.975 87.8154 345.727 86.6918 345.268 85.6493C344.808 84.6068 344.146 83.6662 343.319 82.8825C342.492 82.0987 341.517 81.4875 340.452 81.0845C339.386 80.6815 338.251 80.4948 337.112 80.5352C335.973 80.5757 334.854 80.8425 333.82 81.3201L324.41 85.4501C318.91 69.8901 318.34 56.1401 323.08 51.3201C323.615 50.7649 324.254 50.3199 324.96 50.0101C332.59 46.6601 346.04 60.4001 355 80.7401Z" fill="#373A3A"/>
<path d="M331.43 101.15C339.01 114.94 348.3 124.15 354.9 124.15L282.48 126.83C282.304 126.849 282.126 126.849 281.95 126.83C279.43 126.38 275.95 122.33 273.45 116.74C270.81 110.74 270.27 105.04 272.06 103.22L272.44 102.83L323.07 51.39C318.33 56.21 318.9 69.96 324.4 85.52C325.26 87.96 326.24 90.46 327.35 92.97C328.623 95.8234 329.983 98.55 331.43 101.15Z" fill="white"/>
<path d="M345.13 85.72C345.587 86.7513 345.836 87.8626 345.863 88.9903C345.889 90.118 345.693 91.2398 345.285 92.2915C344.878 93.3432 344.266 94.304 343.486 95.1189C342.706 95.9338 341.773 96.5866 340.74 97.04L331.43 101.15C329.99 98.5634 328.633 95.82 327.36 92.92C326.25 90.41 325.27 87.92 324.41 85.47L333.82 81.34C335.901 80.4221 338.261 80.3678 340.382 81.1891C342.502 82.0104 344.21 83.6401 345.13 85.72Z" fill="#FFC727"/>
<path d="M324.68 500.69C324.791 501.955 324.517 503.223 323.894 504.33C323.271 505.436 322.329 506.329 321.19 506.89C317.785 508.613 314.005 509.462 310.19 509.36C289.85 509.36 286.35 492.2 270.62 486.54C268.63 485.819 266.733 484.862 264.97 483.69C264.099 483.115 263.402 482.312 262.954 481.369C262.506 480.426 262.325 479.379 262.43 478.34C262.71 475.65 263.21 472.94 263.6 470.24C274.02 474.55 292.3 476.4 303.05 472.24C305.99 479.54 311.65 486.95 320.05 490.84C321.096 491.336 322.007 492.078 322.704 493.003C323.4 493.927 323.862 495.007 324.05 496.15C324.32 497.62 324.53 499.15 324.68 500.69Z" fill="#969A9E"/>
<path d="M175.56 315.46C169.42 340.27 162.85 368.92 160.88 383.95C158.56 401.46 157.59 415.42 157.59 415.42C154.42 449.3 151.1 513.56 151 564.49C149.532 566.525 147.857 568.402 146 570.09C133.88 580.93 117.75 578.47 108 571.99C104.22 569.48 101.42 566.35 100.18 563.17C107.65 497.62 105.03 455.82 110.04 407.73C115.24 357.73 99.25 305.1 105.58 260.35L106.35 260.85C108.5 262.245 111.056 262.876 113.608 262.642C116.16 262.408 118.56 261.323 120.42 259.56L123.42 256.78C132.456 261.923 142.694 264.577 153.09 264.47C166.58 264.47 178.57 259.55 190.5 252.08C193.89 249.95 197.12 247.64 200.3 245.28C200.16 246.15 199.69 248.73 199.14 251.46C198.949 252.412 198.962 253.394 199.177 254.341C199.392 255.288 199.805 256.178 200.388 256.955C200.972 257.731 201.713 258.375 202.563 258.844C203.413 259.314 204.352 259.599 205.32 259.68C233.66 262.19 263.38 280.68 293.54 293.22C299.531 295.713 304.638 299.943 308.203 305.365C311.767 310.786 313.626 317.152 313.54 323.64L311.65 461.4C311.77 466.74 308.32 470.21 303.07 472.25C292.32 476.44 274.07 474.59 263.62 470.25C258.53 468.15 255.32 465.47 255.75 462.63C265.35 399.72 259.62 371.38 271.5 340.57C246.73 327.58 206.95 336.62 175.56 315.46Z" fill="#373A3A"/>
<path d="M301.61 155.65C301.488 155.476 301.381 155.292 301.29 155.1C300.162 152.814 299.284 150.414 298.67 147.94C298.384 146.822 298.494 145.64 298.981 144.594C299.468 143.547 300.301 142.702 301.34 142.2H301.41C302.002 141.907 302.506 141.461 302.87 140.91C301.15 138.7 299.48 136.37 298.08 134.21L299.39 133.52C300.167 133.119 300.847 132.554 301.382 131.863C301.918 131.172 302.296 130.372 302.49 129.52L302.62 128.96C307.22 134.417 310.678 140.742 312.79 147.56C313.3 149.239 313.213 151.043 312.544 152.665C311.875 154.287 310.665 155.628 309.12 156.46C308.58 156.76 308.02 157.04 307.45 157.31C306.438 157.775 305.294 157.863 304.223 157.558C303.153 157.254 302.226 156.577 301.61 155.65Z" fill="#DAE0E5"/>
<path d="M246.56 164.62L275.41 143.03C277.742 141.287 279.747 139.144 281.33 136.7C282.126 135.466 283.033 134.308 284.04 133.24C286.862 130.296 290.345 128.068 294.2 126.74L294.6 126.6L295.42 126.35L302.76 126.07C302.988 126.539 303.049 127.072 302.93 127.58L302.49 129.49C302.296 130.342 301.918 131.142 301.382 131.833C300.847 132.524 300.167 133.089 299.39 133.49L292.39 137.12C292.539 139.832 292.063 142.541 291 145.04C293.09 147.8 295.433 150.357 298 152.68C287.45 161.3 279.92 174.31 269.83 183.44C263.5 189.17 257.22 194.69 250.2 200.56C248.757 201.77 247.087 202.679 245.288 203.234C243.489 203.789 241.598 203.979 239.724 203.792C237.851 203.606 236.033 203.047 234.379 202.149C232.724 201.25 231.266 200.03 230.09 198.56C227.25 195.01 224.57 191.26 221.97 187.33C222.56 183.12 221.65 178.21 218.08 172.55C216.241 169.639 214.852 166.466 213.96 163.14C221.96 155.6 231.4 146.25 228.96 133.25C234.88 142.62 240.82 153.4 246.56 164.62Z" fill="#DAE0E5"/>
<path d="M302.87 140.88C302.506 141.431 302.002 141.877 301.41 142.17H301.34C300.301 142.672 299.468 143.517 298.981 144.564C298.494 145.61 298.384 146.792 298.67 147.91C299.284 150.384 300.162 152.784 301.29 155.07C301.381 155.262 301.488 155.446 301.61 155.62C300.312 154.715 299.085 153.713 297.94 152.62C295.373 150.297 293.03 147.74 290.94 144.98C292.003 142.481 292.479 139.772 292.33 137.06L298.04 134.12C299.48 136.34 301.15 138.67 302.87 140.88Z" fill="#373A3A"/>
<path d="M295.42 126.4L294.6 126.65C294.464 126.688 294.33 126.734 294.2 126.79C294.2 126.66 294.2 126.54 294.12 126.44L295.42 126.4Z" fill="white"/>
<path d="M294.12 126.4C294.12 126.5 294.17 126.62 294.2 126.75C290.326 128.04 286.835 130.274 284.04 133.25C283.137 131.403 282.465 129.452 282.04 127.44L283.04 126.81L294.12 126.4Z" fill="white"/>
<path d="M283.03 126.8L282.03 127.43C281.983 127.216 281.949 126.999 281.93 126.78C282.106 126.8 282.284 126.8 282.46 126.78L283.03 126.8Z" fill="white"/>
<path d="M281.95 126.78C281.969 126.999 282.003 127.216 282.05 127.43L266.87 137.25C266.763 137.316 266.653 137.376 266.54 137.43C263.54 138.86 258.05 133.25 254.44 125.07C250.83 116.89 250.44 109.16 253.44 107.79C253.553 107.738 253.67 107.694 253.79 107.66L272.41 102.78L272.03 103.17C270.24 104.99 270.78 110.68 273.42 116.69C275.92 122.28 279.43 126.34 281.95 126.78Z" fill="white"/>
<path d="M213.9 163.13C214.792 166.456 216.181 169.629 218.02 172.54C221.59 178.2 222.5 183.11 221.91 187.32C220.48 197.47 210.31 203.52 207.91 206.32C202.31 212.7 201.22 221.7 201.91 229.71C202.36 234.66 201.24 240.26 200.32 245.11C200.324 245.173 200.324 245.237 200.32 245.3C197.14 247.66 193.91 249.97 190.52 252.1C178.59 259.57 166.6 264.49 153.11 264.49C142.714 264.597 132.476 261.943 123.44 256.8L125.35 254.98C126.84 253.563 127.998 251.834 128.74 249.917C129.482 247.999 129.789 245.941 129.64 243.89L129.16 237.52C128.965 234.9 128.028 232.389 126.46 230.28L118.08 219C124.5 201.7 129.08 185.53 120.28 164.3L98.59 182.53C113.11 164.94 93.35 137.89 84.05 149.09C90.16 141.72 99.9 130.15 100.5 129.47C103.145 126.51 105.949 123.696 108.9 121.04C118.73 112.22 136.31 106.04 152.36 102.38C155.72 113.98 164.86 127.54 175.7 127.54C181.17 127.54 184.79 123.83 186.94 118.9C189.15 113.82 188.7 108.26 189.25 102.9C195.16 105.57 200.05 105.17 203.96 102.81C212.39 107.81 217.73 116.57 225.32 127.81C226.53 129.59 227.75 131.45 228.95 133.36C231.34 146.24 221.92 155.59 213.9 163.13Z" fill="white"/>
<path d="M226.47 52.96C226.47 58.05 221.61 63.28 216.03 67.6C216.03 66.37 216.03 65.1 216.03 63.78C216.03 61.02 215.93 58.25 215.72 55.56C215.645 54.6122 215.243 53.7199 214.583 53.0358C213.922 52.3517 213.045 51.9184 212.1 51.81C199.16 50.35 188.63 58.53 176.34 69C168 58.35 159.12 65.81 165.55 79.37C166.063 80.4253 166.311 81.5896 166.273 82.7623C166.234 83.9349 165.911 85.0806 165.33 86.1C162.52 90.9 157.19 99.25 152.33 102.35C136.33 106.06 118.7 112.19 108.87 121.01C105.922 123.668 103.118 126.482 100.47 129.44C98.245 125.343 97.1477 120.73 97.29 116.07C97.29 85.12 147.76 103.07 147.76 66.42C147.76 63.31 147.54 60.18 147.54 57.15C147.54 51.34 151.93 2.97004 208.05 35.26C214.86 39.18 226.47 42.11 226.47 52.96Z" fill="#373A3A"/>
<path d="M216.03 67.6C216.03 71.02 215.84 74.09 215.65 76.84C214.87 87.62 211.02 98.44 203.91 102.73C200 105.09 195.11 105.49 189.2 102.82C188.65 108.22 189.1 113.82 186.89 118.82C184.74 123.75 181.12 127.46 175.65 127.46C164.81 127.46 155.65 113.9 152.31 102.3C157.21 99.2 162.54 90.85 165.31 86.05C165.891 85.0305 166.214 83.8849 166.253 82.7122C166.291 81.5396 166.043 80.3752 165.53 79.32C159.1 65.76 167.98 58.32 176.32 68.95C188.61 58.48 199.14 50.3 212.08 51.76C213.025 51.8684 213.902 52.3016 214.563 52.9857C215.223 53.6698 215.625 54.5621 215.7 55.51C215.91 58.2 216.01 60.97 216.01 63.73C216.06 65.1 216.05 66.4 216.03 67.6Z" fill="#DAE0E5"/>
<path d="M146 570.09C146.405 572.805 146.626 575.545 146.66 578.29C146.66 591.01 140.66 591.93 138.66 598.39C137.9 600.84 137.47 602.93 137.06 604.88C136.632 606.852 135.634 608.655 134.191 610.064C132.747 611.474 130.921 612.429 128.94 612.81C126.21 613.317 123.437 613.565 120.66 613.55C116.115 613.625 111.585 613.018 107.22 611.75C106.233 611.436 105.299 610.974 104.45 610.38C102.636 609.074 101.317 607.192 100.71 605.04C100.097 602.789 99.7613 600.472 99.71 598.14C100.44 589.14 104.98 591.91 108.04 571.99C117.75 578.47 133.88 580.93 146 570.09Z" fill="#969A9E"/>
<path d="M129.6 243.87C129.749 245.921 129.442 247.979 128.7 249.897C127.958 251.814 126.8 253.543 125.31 254.96L120.45 259.56C118.59 261.323 116.19 262.408 113.638 262.642C111.086 262.876 108.53 262.245 106.38 260.85L102.26 258.18C101.095 257.424 100.124 256.405 99.4259 255.205C98.7278 254.004 98.3218 252.656 98.241 251.27C98.1602 249.884 98.4067 248.498 98.9607 247.225C99.5147 245.951 100.361 244.826 101.43 243.94L104.98 241C93.44 232.16 84.0801 224.51 63.2801 200.34C60.2021 196.76 58.4856 192.209 58.4325 187.488C58.3795 182.767 59.9933 178.178 62.99 174.53L83.99 149.06C93.29 137.86 113.05 164.91 98.5301 182.5L94.84 185.6C94.5657 185.832 94.3903 186.16 94.3494 186.516C94.3085 186.873 94.4053 187.232 94.62 187.52L126.4 230.25C127.968 232.359 128.905 234.87 129.1 237.49L129.6 243.87Z" fill="#DAE0E5"/>
<path d="M120.26 164.28C129.01 185.51 124.48 201.68 118.06 218.98" stroke="#373A3A" stroke-width="3" stroke-linecap="round" stroke-linejoin="round"/>
<path d="M105.61 260.4C99.28 305.15 115.27 357.77 110.07 407.78C105.07 455.87 107.68 497.67 100.21 563.22C101.45 566.4 104.21 569.52 108.03 572.04C117.76 578.51 133.89 580.99 146.03 570.14C147.892 568.457 149.568 566.58 151.03 564.54C151.13 513.61 154.45 449.35 157.62 415.47C157.62 415.47 158.62 401.47 160.91 384C162.91 369 169.45 340.32 175.59 315.51" stroke="#373A3A" stroke-width="3" stroke-linecap="round" stroke-linejoin="round"/>
<path d="M175.56 315.46C206.95 336.62 246.73 327.58 271.5 340.56C259.62 371.37 265.35 399.71 255.75 462.62C255.32 465.46 258.54 468.14 263.62 470.24C274.04 474.54 292.32 476.39 303.07 472.24C308.32 470.24 311.77 466.73 311.65 461.39L313.53 323.67C313.616 317.182 311.757 310.816 308.193 305.395C304.628 299.973 299.521 295.743 293.53 293.25C263.37 280.72 233.65 262.25 205.31 259.71C204.342 259.629 203.403 259.344 202.553 258.874C201.703 258.405 200.962 257.761 200.378 256.985C199.795 256.208 199.382 255.318 199.167 254.371C198.952 253.424 198.939 252.442 199.13 251.49C199.68 248.76 200.13 246.18 200.29 245.31C200.294 245.247 200.294 245.183 200.29 245.12C201.21 240.27 202.29 234.67 201.88 229.72C201.15 221.72 202.24 212.72 207.88 206.33C210.32 203.55 220.49 197.5 221.88 187.33C222.47 183.12 221.56 178.21 217.99 172.55C216.155 169.637 214.766 166.465 213.87 163.14C212.334 157.596 212.173 151.761 213.4 146.14" stroke="#373A3A" stroke-width="3" stroke-linecap="round" stroke-linejoin="round"/>
<path d="M98.5401 182.52L94.86 185.61C94.5857 185.842 94.4103 186.17 94.3694 186.526C94.3285 186.883 94.4253 187.242 94.6401 187.53L126.42 230.26C127.988 232.369 128.925 234.879 129.12 237.5L129.6 243.87C129.749 245.921 129.442 247.979 128.7 249.896C127.958 251.814 126.8 253.543 125.31 254.96L120.45 259.56C118.59 261.323 116.19 262.408 113.638 262.642C111.086 262.876 108.53 262.245 106.38 260.85L102.26 258.18C101.095 257.424 100.124 256.405 99.4259 255.205C98.7278 254.004 98.3218 252.656 98.241 251.27C98.1602 249.884 98.4067 248.498 98.9607 247.224C99.5147 245.951 100.361 244.826 101.43 243.94L104.98 241C93.44 232.16 84.0801 224.51 63.2801 200.34C60.2021 196.76 58.4856 192.209 58.4325 187.488C58.3795 182.767 59.9933 178.178 62.99 174.53C70.1 165.89 99.85 130.12 100.45 129.44C103.095 126.48 105.899 123.666 108.85 121.01C118.68 112.19 136.26 106.01 152.31 102.35" stroke="#373A3A" stroke-width="3" stroke-linecap="round" stroke-linejoin="round"/>
<path d="M132.31 154.14L98.55 182.51" stroke="#373A3A" stroke-width="3" stroke-linecap="round" stroke-linejoin="round"/>
<path d="M203.91 102.73C212.34 107.73 217.68 116.49 225.27 127.73C226.48 129.51 227.69 131.38 228.9 133.28C234.9 142.67 240.82 153.39 246.56 164.66" stroke="#373A3A" stroke-width="3" stroke-linecap="round" stroke-linejoin="round"/>
<path d="M237.35 171.51L275.41 143.03C277.742 141.287 279.747 139.144 281.33 136.7C282.126 135.466 283.033 134.308 284.04 133.24C286.862 130.296 290.345 128.068 294.2 126.74L294.6 126.6L295.42 126.35" stroke="#373A3A" stroke-width="3" stroke-linecap="round" stroke-linejoin="round"/>
<path d="M302.76 126.07C302.988 126.539 303.049 127.072 302.93 127.58L302.49 129.49C302.296 130.342 301.918 131.142 301.382 131.833C300.847 132.524 300.167 133.089 299.39 133.49L292.39 137.12C292.539 139.832 292.063 142.541 291 145.04C290.379 146.468 289.52 147.78 288.46 148.92" stroke="#373A3A" stroke-width="3" stroke-linecap="round" stroke-linejoin="round"/>
<path d="M221.91 187.32C224.51 191.25 227.19 195 230.03 198.55C231.206 200.02 232.665 201.24 234.319 202.139C235.973 203.037 237.791 203.596 239.664 203.782C241.537 203.969 243.429 203.779 245.228 203.224C247.027 202.668 248.697 201.76 250.14 200.55C257.14 194.68 263.44 189.16 269.77 183.43C279.86 174.3 287.39 161.29 297.94 152.67" stroke="#373A3A" stroke-width="3" stroke-linecap="round" stroke-linejoin="round"/>
<path d="M354.9 124.14C348.3 124.14 339.04 114.93 331.43 101.14C330 98.5501 328.63 95.8001 327.36 92.9101C326.25 90.4001 325.27 87.9101 324.41 85.4601C318.93 69.9001 318.34 56.1501 323.08 51.3301C323.615 50.7749 324.254 50.3299 324.96 50.0201C332.59 46.6501 346.04 60.3901 354.96 80.7301C363.88 101.07 364.96 120.26 357.36 123.62C356.654 123.935 355.893 124.105 355.12 124.12" stroke="#373A3A" stroke-width="3" stroke-linecap="round" stroke-linejoin="round"/>
<path d="M272.44 102.78L253.82 107.66C253.7 107.694 253.583 107.738 253.47 107.79C250.4 109.16 250.83 116.88 254.47 125.07C258.11 133.26 263.53 138.86 266.57 137.43C266.683 137.376 266.793 137.316 266.9 137.25L283.06 126.8" stroke="#373A3A" stroke-width="3" stroke-linecap="round" stroke-linejoin="round"/>
<path d="M323.08 51.3401L272.45 102.78L272.07 103.17C270.28 104.99 270.82 110.68 273.46 116.69C275.93 122.28 279.46 126.33 281.96 126.78C282.136 126.8 282.314 126.8 282.49 126.78L355.17 124.09" stroke="#373A3A" stroke-width="3" stroke-linecap="round" stroke-linejoin="round"/>
<path d="M324.4 85.48L333.81 81.35C334.844 80.8725 335.964 80.6057 337.102 80.5652C338.241 80.5248 339.376 80.7115 340.442 81.1145C341.507 81.5175 342.482 82.1287 343.309 82.9125C344.136 83.6962 344.798 84.6368 345.258 85.6793C345.717 86.7218 345.965 87.8454 345.985 88.9845C346.006 90.1237 345.799 91.2555 345.378 92.314C344.956 93.3724 344.328 94.3364 343.53 95.1495C342.732 95.9627 341.78 96.6087 340.73 97.05L331.42 101.16" stroke="#373A3A" stroke-width="3" stroke-linecap="round" stroke-linejoin="round"/>
<path d="M294.12 126.4C294.12 126.5 294.17 126.62 294.2 126.75" stroke="#373A3A" stroke-width="3" stroke-linecap="round" stroke-linejoin="round"/>
<path d="M298.08 134.18C299.48 136.34 301.15 138.67 302.87 140.88C302.506 141.431 302.002 141.877 301.41 142.17H301.34C300.301 142.672 299.468 143.517 298.981 144.564C298.494 145.61 298.384 146.792 298.67 147.91C299.284 150.384 300.162 152.784 301.29 155.07C301.381 155.262 301.488 155.446 301.61 155.62C302.23 156.542 303.159 157.213 304.229 157.512C305.3 157.81 306.442 157.718 307.45 157.25C308.02 156.98 308.58 156.7 309.12 156.4C310.665 155.568 311.875 154.227 312.544 152.605C313.213 150.983 313.3 149.179 312.79 147.5C310.678 140.682 307.22 134.357 302.62 128.9" stroke="#373A3A" stroke-width="3" stroke-linecap="round" stroke-linejoin="round"/>
<path d="M301.63 155.66C300.332 154.755 299.105 153.753 297.96 152.66C295.391 150.34 293.047 147.782 290.96 145.02" stroke="#373A3A" stroke-width="3" stroke-linecap="round" stroke-linejoin="round"/>
<path d="M284.04 133.24C283.146 131.389 282.475 129.439 282.04 127.43C282.04 127.21 281.96 126.99 281.94 126.78" stroke="#373A3A" stroke-width="3" stroke-linecap="round" stroke-linejoin="round"/>
<path d="M189.2 102.83C188.65 108.23 189.1 113.83 186.89 118.83C184.74 123.76 181.12 127.47 175.65 127.47C164.81 127.47 155.65 113.91 152.31 102.31C157.21 99.21 162.54 90.86 165.31 86.06C165.891 85.0405 166.214 83.8949 166.253 82.7222C166.291 81.5496 166.043 80.3852 165.53 79.33C159.1 65.77 167.98 58.33 176.32 68.96C188.61 58.49 199.14 50.31 212.08 51.77C213.025 51.8784 213.902 52.3117 214.563 52.9957C215.223 53.6798 215.625 54.5722 215.7 55.52C215.91 58.21 216.01 60.98 216.01 63.74C216.01 65.06 216.01 66.33 216.01 67.56C215.95 70.98 215.82 74.05 215.63 76.8C214.85 87.58 211 98.39 203.89 102.69C199.98 105.05 195.09 105.43 189.18 102.78C188.28 102.381 187.402 101.934 186.55 101.44" stroke="#373A3A" stroke-width="3" stroke-linecap="round" stroke-linejoin="round"/>
<path d="M100.45 129.4C98.225 125.303 97.1277 120.69 97.27 116.03C97.27 85.08 147.74 103.03 147.74 66.38C147.74 63.27 147.52 60.14 147.52 57.11C147.52 51.3 151.91 2.93 208.03 35.22C214.86 39.14 226.47 42.07 226.47 52.92C226.47 58.01 221.61 63.24 216.03 67.56" stroke="#373A3A" stroke-width="3" stroke-linecap="round" stroke-linejoin="round"/>
<path d="M84.01 149.07C93.31 137.87 113.07 164.92 98.55 182.51" stroke="#373A3A" stroke-width="3" stroke-linecap="round" stroke-linejoin="round"/>
<path d="M213.89 163.14C221.89 155.6 231.33 146.25 228.89 133.25" stroke="#373A3A" stroke-width="3" stroke-linecap="round" stroke-linejoin="round"/>
<path d="M208.98 65.99C205.68 67.88 202.98 70.69 202.61 74.53C202.615 74.6199 202.615 74.7101 202.61 74.8C201.87 81.52 204.92 82.31 204.7 84.67C204.56 86.2 202.34 87.09 200.89 87.5" stroke="#373A3A" stroke-width="3" stroke-linecap="round" stroke-linejoin="round"/>
<path d="M195.62 72.48C194.09 72.7809 192.647 73.4214 191.397 74.3543C190.148 75.2871 189.123 76.4886 188.4 77.87" stroke="#373A3A" stroke-width="3" stroke-linecap="round" stroke-linejoin="round"/>
<path d="M209.68 73.72L209.44 76.23" stroke="#373A3A" stroke-width="3" stroke-linecap="round" stroke-linejoin="round"/>
<path d="M194.24 79.3201L193.98 82.1101" stroke="#373A3A" stroke-width="3" stroke-linecap="round" stroke-linejoin="round"/>
<path d="M123.4 256.78C132.436 261.923 142.674 264.577 153.07 264.47C166.56 264.47 178.55 259.55 190.48 252.08C193.87 249.95 197.1 247.64 200.28 245.28" stroke="#373A3A" stroke-width="3" stroke-linecap="round" stroke-linejoin="round"/>
<path d="M178.01 308.28C184.91 304.08 191.67 299.59 198.31 295.06" stroke="#5F646B" stroke-width="3" stroke-linecap="round" stroke-linejoin="round"/>
<path d="M303.07 472.22C306.01 479.52 311.67 486.93 320.07 490.82C321.117 491.316 322.027 492.058 322.724 492.983C323.42 493.907 323.882 494.987 324.07 496.13C324.33 497.62 324.54 499.13 324.69 500.69C324.801 501.955 324.527 503.223 323.904 504.33C323.281 505.436 322.339 506.329 321.2 506.89C317.795 508.613 314.015 509.462 310.2 509.36C289.86 509.36 286.36 492.2 270.63 486.54C268.64 485.819 266.743 484.862 264.98 483.69C264.109 483.115 263.412 482.312 262.964 481.369C262.516 480.426 262.335 479.379 262.44 478.34C262.72 475.65 263.22 472.94 263.61 470.24" stroke="#373A3A" stroke-width="3" stroke-linecap="round" stroke-linejoin="round"/>
<path d="M108.03 571.99C104.97 591.91 100.43 589.13 99.7 598.14C99.7512 600.472 100.087 602.789 100.7 605.04C101.307 607.192 102.626 609.074 104.44 610.38C105.289 610.974 106.223 611.436 107.21 611.75C111.575 613.018 116.105 613.625 120.65 613.55C123.427 613.565 126.2 613.317 128.93 612.81C130.911 612.429 132.737 611.474 134.181 610.064C135.624 608.655 136.622 606.852 137.05 604.88C137.46 602.88 137.89 600.88 138.65 598.39C140.65 591.93 146.65 591.01 146.65 578.29C146.616 575.545 146.395 572.805 145.99 570.09" stroke="#373A3A" stroke-width="3" stroke-linecap="round" stroke-linejoin="round"/>
<path d="M175.56 315.46C177.07 309.36 178.56 303.46 179.94 298.1" stroke="#5F646B" stroke-width="3" stroke-linecap="round" stroke-linejoin="round"/>
<path d="M544.33 588.7V599.98L425.37 668.66V657.37L544.33 588.7Z" fill="#969A9E"/>
<path d="M544.33 577.74V588.7L425.37 657.37V646.41L544.33 577.74Z" fill="#969A9E"/>
<path d="M544.33 566.37V577.74L425.37 646.41V635.05L544.33 566.37Z" fill="#969A9E"/>
<path d="M544.33 566.4L425.33 635.08L366.84 601.31L485.84 532.63L544.33 566.4ZM476.93 596.16C488.68 589.38 488.68 578.34 476.93 571.56C465.18 564.78 446.06 564.75 434.28 571.56C422.5 578.37 422.51 589.38 434.28 596.16C446.05 602.94 465.15 602.93 476.93 596.12V596.16Z" fill="white"/>
<path d="M476.93 571.52C488.68 578.3 488.68 589.34 476.93 596.12C465.18 602.9 446.06 602.93 434.28 596.12C422.5 589.31 422.51 578.3 434.28 571.52C446.05 564.74 465.15 564.71 476.93 571.52Z" fill="#373A3A"/>
<path d="M425.37 657.37V668.66L366.88 634.89V623.6L425.37 657.37Z" fill="#DAE0E5"/>
<path d="M425.37 646.41V657.37L366.88 623.6V612.63L425.37 646.41Z" fill="#DAE0E5"/>
<path d="M425.37 635.05V646.41L366.88 612.63V601.28L425.37 635.05Z" fill="#DAE0E5"/>
<path d="M498.21 550.62L485.83 543.46L473.23 550.74" stroke="#373A3A" stroke-width="3" stroke-linecap="round" stroke-linejoin="round"/>
<path d="M513.13 559.22L525.51 566.37L512.9 573.64" stroke="#373A3A" stroke-width="3" stroke-linecap="round" stroke-linejoin="round"/>
<path d="M398.24 594.04L385.69 601.28L398.07 608.41" stroke="#373A3A" stroke-width="3" stroke-linecap="round" stroke-linejoin="round"/>
<path d="M437.92 616.94L425.37 624.18L412.99 617.04" stroke="#373A3A" stroke-width="3" stroke-linecap="round" stroke-linejoin="round"/>
<path d="M434.26 596.12C422.49 589.34 422.49 578.3 434.26 571.52C446.03 564.74 465.13 564.71 476.91 571.52C488.69 578.33 488.66 589.34 476.91 596.12C465.16 602.9 446.06 602.93 434.26 596.12Z" stroke="#373A3A" stroke-width="3" stroke-linecap="round" stroke-linejoin="round"/>
<path d="M425.37 635.05L544.33 566.37L485.83 532.6L366.88 601.28L425.37 635.05Z" stroke="#373A3A" stroke-width="3" stroke-linecap="round" stroke-linejoin="round"/>
<path d="M544.33 566.37V599.98L425.37 668.66L366.88 634.89V601.28" stroke="#373A3A" stroke-width="3" stroke-linecap="round" stroke-linejoin="round"/>
<path d="M544.33 588.7L425.37 657.37L366.88 623.6" stroke="#373A3A" stroke-width="3" stroke-linecap="round" stroke-linejoin="round"/>
<path d="M544.33 577.74L425.37 646.41L366.88 612.63" stroke="#373A3A" stroke-width="3" stroke-linecap="round" stroke-linejoin="round"/>
<path d="M425.37 635.05V668.66" stroke="#373A3A" stroke-width="3" stroke-linecap="round" stroke-linejoin="round"/>
<path d="M380.26 394.3V402C379.76 405.32 381.93 409.58 376.53 414.11C365.53 423.34 337.61 419.77 337.61 407.11V394.11C337.61 396.56 338.87 398.99 341.4 401.11C342.174 401.745 343 402.314 343.87 402.81C344.48 403.17 345.12 403.5 345.78 403.81C347.224 404.47 348.723 405.002 350.26 405.4C351.703 405.773 353.17 406.047 354.65 406.22C357.569 406.587 360.522 406.587 363.44 406.22C364.92 406.046 366.387 405.772 367.83 405.4C369.335 405.009 370.803 404.49 372.22 403.85C372.863 403.549 373.491 403.215 374.1 402.85C374.987 402.346 375.827 401.764 376.61 401.11C379 399.08 380.26 396.7 380.26 394.3Z" fill="#DAE0E5"/>
<path d="M380.26 381.48V394.3C380.26 396.7 378.97 399.08 376.53 401.12C375.747 401.774 374.907 402.357 374.02 402.86C373.411 403.225 372.783 403.559 372.14 403.86C370.723 404.5 369.255 405.019 367.75 405.41C366.307 405.782 364.84 406.056 363.36 406.23C360.441 406.597 357.489 406.597 354.57 406.23C353.116 406.05 351.676 405.773 350.26 405.4C348.752 405.017 347.28 404.505 345.86 403.87C345.2 403.56 344.56 403.23 343.95 402.87C343.08 402.374 342.254 401.805 341.48 401.17C338.95 399.06 337.69 396.63 337.69 394.17V381.34C337.69 383.8 338.96 386.23 341.48 388.34C342.251 388.982 343.078 389.554 343.95 390.05C344.568 390.417 345.206 390.751 345.86 391.05C347.282 391.683 348.754 392.198 350.26 392.59C351.703 392.963 353.17 393.237 354.65 393.41C356.107 393.586 357.573 393.676 359.04 393.68C360.511 393.677 361.981 393.584 363.44 393.4C364.92 393.226 366.387 392.952 367.83 392.58C369.336 392.198 370.805 391.683 372.22 391.04C372.87 390.73 373.49 390.41 374.1 390.04C374.987 389.537 375.827 388.954 376.61 388.3C379 386.26 380.26 383.87 380.26 381.48Z" fill="#DAE0E5"/>
<path d="M380.26 368.67V381.48C380.26 383.87 378.97 386.26 376.53 388.3C375.747 388.954 374.907 389.537 374.02 390.04C373.41 390.39 372.79 390.71 372.14 391.04C370.725 391.683 369.256 392.198 367.75 392.58C366.307 392.952 364.84 393.226 363.36 393.4C361.9 393.584 360.431 393.677 358.96 393.68C357.493 393.676 356.027 393.586 354.57 393.41C353.09 393.237 351.623 392.963 350.18 392.59C348.674 392.198 347.202 391.683 345.78 391.05C345.126 390.751 344.488 390.417 343.87 390.05C342.998 389.554 342.171 388.982 341.4 388.34C338.88 386.24 337.61 383.81 337.61 381.34V368.52C337.61 370.97 338.88 373.41 341.4 375.52C342.173 376.162 343 376.737 343.87 377.24C344.47 377.58 345.12 377.92 345.78 378.24C347.2 378.877 348.672 379.392 350.18 379.78C351.623 380.15 353.09 380.42 354.57 380.59C357.489 380.95 360.441 380.95 363.36 380.59C364.841 380.418 366.308 380.14 367.75 379.76C369.254 379.372 370.723 378.857 372.14 378.22C372.79 377.92 373.42 377.6 374.02 377.22C374.905 376.71 375.745 376.124 376.53 375.47C379 373.4 380.26 371.05 380.26 368.67Z" fill="#C2C7CC"/>
<path d="M380.26 355.85V368.67C380.26 371.05 378.97 373.44 376.53 375.48C375.745 376.134 374.905 376.72 374.02 377.23C373.42 377.57 372.79 377.89 372.14 378.23C370.723 378.867 369.254 379.382 367.75 379.77C366.308 380.15 364.841 380.427 363.36 380.6C360.441 380.96 357.489 380.96 354.57 380.6C353.09 380.43 351.623 380.16 350.18 379.79C348.672 379.402 347.2 378.887 345.78 378.25C345.12 377.95 344.47 377.61 343.87 377.25C343 376.747 342.173 376.172 341.4 375.53C338.88 373.43 337.61 370.99 337.61 368.53V355.7C337.61 358.15 338.88 360.6 341.4 362.7C342.171 363.345 342.997 363.921 343.87 364.42C344.47 364.77 345.12 365.09 345.78 365.42C347.198 366.059 348.671 366.572 350.18 366.95C351.622 367.331 353.089 367.608 354.57 367.78C357.49 368.127 360.44 368.127 363.36 367.78C364.84 367.594 366.306 367.314 367.75 366.94C369.254 366.552 370.723 366.037 372.14 365.4C372.79 365.1 373.42 364.78 374.02 364.4C374.908 363.893 375.748 363.308 376.53 362.65C379 360.61 380.26 358.24 380.26 355.85Z" fill="#DAE0E5"/>
<path d="M380.26 343.03V355.85C380.26 358.24 378.97 360.61 376.53 362.66C375.748 363.318 374.908 363.903 374.02 364.41C373.42 364.75 372.79 365.07 372.14 365.41C370.723 366.047 369.254 366.562 367.75 366.95C366.306 367.324 364.84 367.605 363.36 367.79C360.44 368.137 357.49 368.137 354.57 367.79C353.089 367.618 351.622 367.341 350.18 366.96C348.671 366.582 347.198 366.07 345.78 365.43C345.12 365.12 344.47 364.8 343.87 364.43C342.997 363.931 342.171 363.355 341.4 362.71C338.88 360.62 337.61 358.17 337.61 355.71V342.88C337.61 345.33 338.87 347.77 341.4 349.88C342.174 350.518 343 351.09 343.87 351.59C344.489 351.955 345.127 352.289 345.78 352.59C347.198 353.23 348.671 353.742 350.18 354.12C351.623 354.496 353.09 354.774 354.57 354.95C356.027 355.127 357.493 355.214 358.96 355.21C360.43 355.209 361.9 355.122 363.36 354.95C364.84 354.764 366.306 354.484 367.75 354.11C369.254 353.722 370.723 353.207 372.14 352.57C372.79 352.27 373.42 351.95 374.02 351.57C374.908 351.063 375.748 350.478 376.53 349.82C379 347.79 380.26 345.4 380.26 343.03Z" fill="white"/>
<path d="M380.26 330.2V343.03C380.26 345.42 378.97 347.79 376.53 349.84C375.748 350.498 374.908 351.083 374.02 351.59C373.42 351.93 372.79 352.25 372.14 352.59C370.723 353.227 369.254 353.742 367.75 354.13C366.306 354.504 364.84 354.785 363.36 354.97C361.9 355.142 360.43 355.229 358.96 355.23C357.493 355.234 356.027 355.147 354.57 354.97C353.09 354.794 351.623 354.516 350.18 354.14C348.671 353.762 347.198 353.25 345.78 352.61C345.127 352.309 344.489 351.975 343.87 351.61C343 351.111 342.174 350.539 341.4 349.9C338.87 347.79 337.61 345.35 337.61 342.9V330.05C337.61 332.51 338.87 334.95 341.4 337.05C342.174 337.685 343 338.254 343.87 338.75C344.48 339.1 345.12 339.43 345.78 339.75C347.2 340.387 348.672 340.902 350.18 341.29C351.623 341.666 353.09 341.944 354.57 342.12C356.027 342.292 357.493 342.379 358.96 342.38C360.431 342.381 361.9 342.291 363.36 342.11C364.84 341.933 366.307 341.656 367.75 341.28C369.254 340.892 370.723 340.377 372.14 339.74C372.79 339.44 373.41 339.12 374.02 338.74C374.907 338.237 375.747 337.654 376.53 337C378.99 334.96 380.26 332.59 380.26 330.2Z" fill="#C2C7CC"/>
<path d="M380.26 317.4V330.2C380.26 332.59 378.96 334.96 376.53 337.02C375.747 337.674 374.907 338.256 374.02 338.76C373.41 339.11 372.79 339.43 372.14 339.76C370.723 340.397 369.254 340.912 367.75 341.3C366.307 341.676 364.84 341.953 363.36 342.13C361.9 342.311 360.431 342.401 358.96 342.4C357.493 342.399 356.027 342.312 354.57 342.14C353.09 341.964 351.623 341.686 350.18 341.31C348.672 340.922 347.2 340.407 345.78 339.77C345.12 339.47 344.48 339.14 343.87 338.77C343 338.274 342.174 337.705 341.4 337.07C338.87 334.96 337.61 332.52 337.61 330.07V317.24C337.61 319.7 338.88 322.14 341.4 324.24C342.174 324.878 343 325.45 343.87 325.95C344.487 326.319 345.125 326.653 345.78 326.95C347.199 327.591 348.671 328.107 350.18 328.49C351.622 328.868 353.089 329.142 354.57 329.31C357.49 329.657 360.44 329.657 363.36 329.31C364.84 329.133 366.307 328.856 367.75 328.48C369.255 328.089 370.723 327.57 372.14 326.93C372.79 326.63 373.42 326.32 374.02 325.93C374.905 325.423 375.745 324.841 376.53 324.19C379 322.16 380.26 319.78 380.26 317.4Z" fill="#DAE0E5"/>
<path d="M380.26 317.23V317.4C380.26 319.79 378.97 322.17 376.53 324.22C375.745 324.871 374.905 325.453 374.02 325.96C373.42 326.31 372.79 326.62 372.14 326.96C370.723 327.6 369.255 328.119 367.75 328.51C366.307 328.886 364.84 329.163 363.36 329.34C360.44 329.687 357.49 329.687 354.57 329.34C353.089 329.172 351.622 328.898 350.18 328.52C348.671 328.137 347.199 327.621 345.78 326.98C345.125 326.683 344.487 326.349 343.87 325.98C343 325.48 342.174 324.908 341.4 324.27C338.88 322.17 337.61 319.73 337.61 317.27C337.61 314.12 339.69 310.96 343.86 308.57C352.19 303.76 365.69 303.76 374.02 308.57C378.26 310.93 380.26 314.08 380.26 317.23Z" fill="white"/>
<path d="M380.26 317.4C380.26 319.79 378.97 322.17 376.53 324.22C375.745 324.871 374.905 325.453 374.02 325.96C373.42 326.31 372.79 326.62 372.14 326.96C370.723 327.6 369.255 328.119 367.75 328.51C366.307 328.886 364.84 329.163 363.36 329.34C360.44 329.687 357.49 329.687 354.57 329.34C353.089 329.172 351.622 328.898 350.18 328.52C348.671 328.137 347.199 327.621 345.78 326.98C345.125 326.683 344.487 326.349 343.87 325.98C343 325.48 342.174 324.908 341.4 324.27C338.88 322.17 337.61 319.73 337.61 317.27C337.61 314.12 339.69 310.96 343.86 308.57C352.19 303.76 365.69 303.76 374.02 308.57C378.18 310.96 380.26 314.11 380.26 317.26" stroke="#373A3A" stroke-width="3" stroke-linecap="round" stroke-linejoin="round"/>
<path d="M380.26 330.2C380.26 332.59 378.96 334.96 376.53 337.02C375.747 337.674 374.907 338.257 374.02 338.76C373.41 339.11 372.79 339.43 372.14 339.76C370.723 340.397 369.254 340.912 367.75 341.3C366.307 341.676 364.84 341.953 363.36 342.13C361.9 342.311 360.431 342.401 358.96 342.4C357.493 342.399 356.027 342.312 354.57 342.14C353.09 341.964 351.623 341.686 350.18 341.31C348.672 340.922 347.2 340.407 345.78 339.77C345.12 339.47 344.48 339.14 343.87 338.77C343 338.274 342.174 337.705 341.4 337.07C338.87 334.96 337.61 332.52 337.61 330.07" stroke="#373A3A" stroke-width="3" stroke-linecap="round" stroke-linejoin="round"/>
<path d="M380.26 343.03C380.26 345.42 378.97 347.79 376.53 349.84C375.748 350.498 374.908 351.083 374.02 351.59C373.42 351.93 372.79 352.25 372.14 352.59C370.723 353.227 369.254 353.742 367.75 354.13C366.306 354.504 364.84 354.785 363.36 354.97C361.9 355.142 360.43 355.229 358.96 355.23C357.493 355.234 356.027 355.147 354.57 354.97C353.09 354.794 351.623 354.516 350.18 354.14C348.671 353.762 347.198 353.25 345.78 352.61C345.127 352.309 344.489 351.975 343.87 351.61C343 351.111 342.174 350.538 341.4 349.9C338.87 347.79 337.61 345.35 337.61 342.9" stroke="#373A3A" stroke-width="3" stroke-linecap="round" stroke-linejoin="round"/>
<path d="M380.26 355.85C380.26 358.24 378.97 360.61 376.53 362.66C375.748 363.318 374.908 363.903 374.02 364.41C373.42 364.75 372.79 365.07 372.14 365.41C370.723 366.047 369.254 366.562 367.75 366.95C366.306 367.324 364.84 367.604 363.36 367.79C360.44 368.137 357.49 368.137 354.57 367.79C353.089 367.618 351.622 367.341 350.18 366.96C348.671 366.582 347.198 366.069 345.78 365.43C345.12 365.12 344.47 364.8 343.87 364.43C342.997 363.931 342.171 363.355 341.4 362.71C338.88 360.62 337.61 358.17 337.61 355.71" stroke="#373A3A" stroke-width="3" stroke-linecap="round" stroke-linejoin="round"/>
<path d="M380.26 368.67C380.26 371.05 378.97 373.44 376.53 375.48C375.745 376.134 374.905 376.72 374.02 377.23C373.42 377.57 372.79 377.89 372.14 378.23C370.723 378.867 369.254 379.382 367.75 379.77C366.308 380.15 364.841 380.428 363.36 380.6C360.441 380.96 357.489 380.96 354.57 380.6C353.09 380.43 351.623 380.16 350.18 379.79C348.672 379.402 347.2 378.887 345.78 378.25C345.12 377.95 344.47 377.61 343.87 377.25C343 376.747 342.173 376.172 341.4 375.53C338.88 373.43 337.61 370.99 337.61 368.53" stroke="#373A3A" stroke-width="3" stroke-linecap="round" stroke-linejoin="round"/>
<path d="M380.26 381.48C380.26 383.87 378.97 386.26 376.53 388.3C375.747 388.954 374.907 389.537 374.02 390.04C373.41 390.39 372.79 390.71 372.14 391.04C370.725 391.683 369.256 392.198 367.75 392.58C366.307 392.952 364.84 393.226 363.36 393.4C361.9 393.584 360.431 393.677 358.96 393.68C357.493 393.676 356.027 393.586 354.57 393.41C353.09 393.237 351.623 392.963 350.18 392.59C348.674 392.198 347.202 391.683 345.78 391.05C345.126 390.751 344.488 390.417 343.87 390.05C342.998 389.554 342.171 388.982 341.4 388.34C338.88 386.24 337.61 383.81 337.61 381.34" stroke="#373A3A" stroke-width="3" stroke-linecap="round" stroke-linejoin="round"/>
<path d="M380.26 394.3C380.26 396.7 378.97 399.08 376.53 401.12C375.747 401.774 374.907 402.357 374.02 402.86C373.411 403.225 372.783 403.559 372.14 403.86C370.723 404.5 369.255 405.019 367.75 405.41C366.307 405.782 364.84 406.056 363.36 406.23C360.441 406.597 357.489 406.597 354.57 406.23C353.116 406.05 351.676 405.773 350.26 405.4C348.752 405.017 347.28 404.505 345.86 403.87C345.2 403.56 344.56 403.23 343.95 402.87C343.08 402.374 342.254 401.805 341.48 401.17C338.95 399.06 337.69 396.63 337.69 394.17" stroke="#373A3A" stroke-width="3" stroke-linecap="round" stroke-linejoin="round"/>
<path d="M337.64 317.24V407.14C337.64 419.77 365.56 423.34 376.56 414.14C381.96 409.61 379.79 405.35 380.29 402.03V317.23" stroke="#373A3A" stroke-width="3" stroke-linecap="round" stroke-linejoin="round"/>
<path d="M555.68 468.14V480.97C555.55 486.78 548.88 490.55 543.16 492.04C530.43 495.36 513.02 490.49 513.02 480.82V468.01C513.02 479.2 536.53 484.12 549.43 476.7C552.69 474.82 555.59 471.89 555.68 468.14Z" fill="#DAE0E5"/>
<path d="M555.68 455.32V468.14C555.59 471.89 552.68 474.82 549.43 476.7C536.53 484.12 513.02 479.2 513.02 468.01V455.18C513.02 457.64 514.27 460.08 516.8 462.18C528.55 471.97 555.42 467.32 555.68 455.32Z" fill="#DAE0E5"/>
<path d="M555.68 442.51V455.32C555.42 467.32 528.55 471.97 516.8 462.17C514.27 460.08 513.02 457.64 513.02 455.17V442.4C513.02 444.85 514.27 447.3 516.8 449.4C527.85 458.57 555.41 454.99 555.68 442.51Z" fill="#DAE0E5"/>
<path d="M555.68 429.69V442.51C555.41 454.99 527.85 458.57 516.8 449.35C514.27 447.26 513.02 444.81 513.02 442.35V429.54C513.02 440.41 536.23 445.83 549.43 438.25C552.69 436.4 555.59 433.4 555.68 429.69Z" fill="#C2C7CC"/>
<path d="M555.68 416.87V429.69C555.59 433.44 552.68 436.36 549.43 438.25C536.23 445.83 513.02 440.41 513.02 429.54V416.72C513.02 429.18 540.96 432.96 551.94 423.72C554.38 421.63 555.63 419.26 555.68 416.87Z" fill="white"/>
<path d="M555.68 404.05V416.87C555.63 419.26 554.38 421.63 551.94 423.68C540.94 432.96 513.02 429.18 513.02 416.68V404.98C514.76 413.46 532.45 420.45 547.55 413.53C551.57 411.74 555.58 408.5 555.68 404.05Z" fill="#DAE0E5"/>
<path d="M513.02 405.02C512.33 401.73 514.02 398.21 519.26 395.19C527.6 390.39 541.09 390.39 549.43 395.19C553.59 397.6 555.68 400.75 555.68 403.9V404.05C555.63 408.5 551.57 411.74 547.55 413.57C532.45 420.49 514.76 413.5 513.02 405.02Z" fill="white"/>
<path d="M555.68 416.87C555.63 419.26 554.38 421.63 551.94 423.68C540.94 432.96 513.02 429.18 513.02 416.68" stroke="#373A3A" stroke-width="3" stroke-linecap="round" stroke-linejoin="round"/>
<path d="M555.68 429.69C555.59 433.44 552.68 436.36 549.43 438.25C536.23 445.83 513.02 440.41 513.02 429.54" stroke="#373A3A" stroke-width="3" stroke-linecap="round" stroke-linejoin="round"/>
<path d="M555.68 442.51C555.41 454.99 527.85 458.57 516.8 449.35C514.27 447.26 513.02 444.81 513.02 442.35" stroke="#373A3A" stroke-width="3" stroke-linecap="round" stroke-linejoin="round"/>
<path d="M555.68 455.32C555.42 467.32 528.55 471.97 516.8 462.17C514.27 460.08 513.02 457.64 513.02 455.17" stroke="#373A3A" stroke-width="3" stroke-linecap="round" stroke-linejoin="round"/>
<path d="M555.68 468.14C555.59 471.89 552.68 474.82 549.43 476.7C536.53 484.12 513.02 479.2 513.02 468.01" stroke="#373A3A" stroke-width="3" stroke-linecap="round" stroke-linejoin="round"/>
<path d="M555.68 404.05C555.58 408.5 551.57 411.74 547.55 413.57C532.45 420.49 514.77 413.5 513.02 405.02C512.33 401.72 514.02 398.21 519.26 395.19C527.6 390.39 541.09 390.39 549.43 395.19C553.59 397.6 555.68 400.75 555.68 403.9V480.97C555.55 486.78 548.88 490.55 543.16 492.04C530.43 495.36 513.02 490.49 513.02 480.82V403.9" stroke="#373A3A" stroke-width="3" stroke-linecap="round" stroke-linejoin="round"/>
<path d="M745.25 521.5V543.51L723.37 556.15V534.13L745.25 521.5Z" fill="#FFC727"/>
<path d="M745.25 521.5L723.37 534.13L702.7 522.2L724.58 509.56L745.25 521.5Z" fill="#FFC727"/>
<path d="M593.26 517.65C593.08 509.23 598.55 500.76 609.67 494.35L614.26 491.7C625.21 485.37 639.58 482.22 653.95 482.22H654.82C668.9 482.34 682.92 485.5 693.64 491.7L724.59 509.56L702.71 522.2L671.76 504.33C661.94 498.66 645.96 498.66 636.13 504.33L631.55 506.97C621.73 512.64 621.74 521.87 631.55 527.54L662.48 545.4L640.6 558.04L609.6 540.16C598.88 533.96 593.4 525.82 593.26 517.65Z" fill="white"/>
<path d="M723.37 534.13V556.15L702.7 544.21V522.2L723.37 534.13Z" fill="#FFC727"/>
<path d="M702.69 522.2V544.2L671.74 526.33C661.92 520.66 645.94 520.66 636.11 526.33L632.78 528.26L631.53 527.54C621.72 521.87 621.71 512.64 631.53 506.97L636.11 504.33C645.94 498.66 661.92 498.66 671.74 504.33L702.69 522.2Z" fill="#373A3A"/>
<path d="M683.16 557.35V579.35L661.28 591.99V569.98L683.16 557.35Z" fill="#FFC727"/>
<path d="M683.16 557.35L661.28 569.98L640.61 558.05L662.49 545.41L683.16 557.35Z" fill="#FFC727"/>
<path d="M661.28 569.98V591.99L640.61 580.05V558.05L661.28 569.98Z" fill="#FFC727"/>
<path d="M640.6 558.05V580.05L609.6 562.18C598.67 555.86 593.2 547.56 593.2 539.26V517.65C593.36 525.82 598.84 533.96 609.6 540.17L640.6 558.05Z" fill="white"/>
<path d="M593.26 517.65C593.09 509.23 598.55 500.76 609.67 494.35L614.26 491.7C625.21 485.37 639.58 482.22 653.95 482.22H654.82C668.9 482.34 682.92 485.5 693.64 491.7L745.26 521.5L723.37 534.13L671.75 504.33C661.93 498.66 645.95 498.66 636.12 504.33L631.54 506.97C621.72 512.64 621.73 521.87 631.54 527.54L683.17 557.34L661.26 569.98L609.62 540.17C598.88 533.96 593.4 525.82 593.26 517.65Z" stroke="#373A3A" stroke-width="3" stroke-linecap="round" stroke-linejoin="round"/>
<path d="M724.58 509.56L702.7 522.2V544.21" stroke="#373A3A" stroke-width="3" stroke-linecap="round" stroke-linejoin="round"/>
<path d="M662.49 545.41L640.61 558.05V580.05" stroke="#373A3A" stroke-width="3" stroke-linecap="round" stroke-linejoin="round"/>
<path d="M745.26 521.5V543.5L723.37 556.13L671.75 526.32C661.93 520.65 645.95 520.65 636.12 526.32L632.79 528.25" stroke="#373A3A" stroke-width="3" stroke-linecap="round" stroke-linejoin="round"/>
<path d="M723.37 534.13V556.15" stroke="#373A3A" stroke-width="3" stroke-linecap="round" stroke-linejoin="round"/>
<path d="M683.16 557.34V579.34L661.26 591.99L609.62 562.18C598.69 555.86 593.22 547.56 593.22 539.26V517.26" stroke="#373A3A" stroke-width="3" stroke-linecap="round" stroke-linejoin="round"/>
<path d="M661.28 569.98V591.99" stroke="#373A3A" stroke-width="3" stroke-linecap="round" stroke-linejoin="round"/>
<path d="M761.63 378.11V396C761.63 406.39 754.74 416.8 741.01 424.74C713.51 440.62 668.93 440.62 641.43 424.74C627.68 416.8 620.8 406.39 620.8 396V378.11C620.8 388.51 627.68 398.91 641.43 406.86C668.93 422.72 713.51 422.72 741.01 406.86C754.74 398.91 761.63 388.51 761.63 378.11Z" fill="#373A3A"/>
<path d="M691.35 337.46C709.35 337.46 727.3 341.46 741.01 349.37C754.72 357.28 761.63 367.7 761.63 378.11C761.63 388.52 754.74 398.91 741.01 406.86C713.51 422.72 668.93 422.72 641.43 406.86C627.68 398.91 620.8 388.51 620.8 378.11C620.8 367.71 627.68 357.31 641.43 349.37C655.18 341.43 673.26 337.4 691.35 337.46ZM691.35 347.62C677.79 347.62 664.19 350.56 653.84 356.55C633.21 368.45 633.21 387.76 653.84 399.66C674.47 411.56 707.89 411.58 728.52 399.66C749.15 387.74 749.13 368.45 728.52 356.55C718.26 350.63 704.85 347.65 691.39 347.62H691.35Z" fill="white"/>
<path d="M691.39 347.62C704.85 347.62 718.3 350.62 728.56 356.55C749.17 368.45 749.17 387.76 728.56 399.66C707.95 411.56 674.5 411.58 653.88 399.66C633.26 387.74 633.25 368.45 653.88 356.55C664.26 350.56 677.83 347.59 691.39 347.62ZM691.39 357.79C682.3 357.79 673.2 359.73 666.27 363.74C652.53 371.67 652.53 384.54 666.27 392.48C680.01 400.42 702.27 400.42 716.07 392.48C729.87 384.54 729.81 371.67 716.07 363.74C709.26 359.8 700.37 357.82 691.44 357.79H691.39Z" fill="#C2C7CC"/>
<path d="M691.48 367.95C687.055 367.83 682.675 368.864 678.77 370.95C671.91 374.95 671.91 381.35 678.77 385.33C685.63 389.31 696.77 389.33 703.66 385.33C710.55 381.33 710.55 374.92 703.66 370.95C699.915 368.947 695.727 367.915 691.48 367.95ZM691.48 357.79C700.41 357.79 709.33 359.79 716.16 363.74C729.9 371.67 729.9 384.54 716.16 392.48C702.42 400.42 680.11 400.42 666.36 392.48C652.61 384.54 652.62 371.67 666.36 363.74C673.26 359.73 682.35 357.75 691.44 357.79H691.48Z" fill="white"/>
<path d="M691.48 367.95C695.727 367.915 699.915 368.947 703.66 370.95C710.55 374.95 710.55 381.35 703.66 385.33C696.77 389.31 685.66 389.33 678.77 385.33C671.88 381.33 671.91 374.92 678.77 370.95C682.675 368.864 687.055 367.83 691.48 367.95Z" fill="#C2C7CC"/>
<path d="M703.79 242.26V277.19L691.03 295.73V258.41L703.79 242.26Z" fill="white"/>
<path d="M691.03 258.41V295.73L690.94 295.98L678.11 292.02V257.09L691.03 258.41Z" fill="white"/>
<path d="M703.66 385.3C710.55 381.3 710.55 374.89 703.66 370.92C699.802 368.967 695.539 367.949 691.215 367.949C686.891 367.949 682.628 368.967 678.77 370.92C671.91 374.92 671.91 381.32 678.77 385.3C685.63 389.28 696.79 389.27 703.66 385.3Z" stroke="#373A3A" stroke-width="3" stroke-linecap="round" stroke-linejoin="round"/>
<path d="M716.12 392.48C729.86 384.54 729.86 371.67 716.12 363.74C709.29 359.8 700.37 357.82 691.44 357.79C682.35 357.79 673.25 359.73 666.32 363.74C652.58 371.67 652.58 384.54 666.32 392.48C680.06 400.42 702.36 400.4 716.12 392.48Z" stroke="#373A3A" stroke-width="3" stroke-linecap="round" stroke-linejoin="round"/>
<path d="M728.56 399.66C749.17 387.76 749.17 368.45 728.56 356.55C718.3 350.63 704.85 347.65 691.39 347.62C677.93 347.59 664.23 350.56 653.88 356.55C633.25 368.45 633.25 387.76 653.88 399.66C674.51 411.56 707.93 411.58 728.56 399.66Z" stroke="#373A3A" stroke-width="3" stroke-linecap="round" stroke-linejoin="round"/>
<path d="M761.63 378.11C761.63 367.7 754.74 357.3 741.01 349.37C727.28 341.44 709.33 337.48 691.35 337.46C673.37 337.44 655.26 341.4 641.43 349.4C627.6 357.4 620.8 367.75 620.8 378.14C620.8 388.53 627.68 398.94 641.43 406.89C668.93 422.75 713.51 422.75 741.01 406.89C754.74 398.91 761.63 388.51 761.63 378.11Z" stroke="#373A3A" stroke-width="3" stroke-linecap="round" stroke-linejoin="round"/>
<path d="M620.8 378.11V396C620.8 406.39 627.68 416.8 641.43 424.74C668.93 440.62 713.51 440.62 741.01 424.74C754.74 416.8 761.63 406.39 761.63 396V378.11" stroke="#373A3A" stroke-width="3" stroke-linecap="round" stroke-linejoin="round"/>
<path d="M691.03 377.39V258.41" stroke="#373A3A" stroke-width="3" stroke-linecap="round" stroke-linejoin="round"/>
<path d="M691.03 295.73L690.94 295.98L678.11 292.02V257.09L691.03 258.41L703.79 242.26V277.19L691.03 295.73Z" stroke="#373A3A" stroke-width="3" stroke-linecap="round" stroke-linejoin="round"/>
<path d="M617.99 274.77C618.831 273.314 620.084 272.14 621.592 271.396C623.1 270.653 624.794 270.373 626.461 270.592C628.128 270.812 629.692 271.521 630.956 272.629C632.22 273.738 633.127 275.196 633.562 276.82C633.997 278.444 633.941 280.161 633.4 281.753C632.86 283.345 631.859 284.741 630.525 285.764C629.191 286.787 627.584 287.392 625.906 287.502C624.228 287.611 622.556 287.221 621.1 286.38C619.15 285.251 617.728 283.394 617.145 281.218C616.562 279.042 616.866 276.723 617.99 274.77Z" fill="white" stroke="#373A3A" stroke-width="3" stroke-linecap="round" stroke-linejoin="round"/>
<path d="M183.73 638.78C184.619 637.238 185.945 635.994 187.541 635.205C189.138 634.417 190.932 634.119 192.697 634.351C194.462 634.582 196.119 635.331 197.458 636.504C198.797 637.677 199.758 639.221 200.22 640.94C200.681 642.66 200.623 644.477 200.051 646.163C199.48 647.849 198.421 649.328 197.009 650.412C195.597 651.497 193.896 652.138 192.119 652.255C190.343 652.372 188.572 651.96 187.03 651.07C184.963 649.877 183.454 647.913 182.835 645.608C182.217 643.304 182.538 640.847 183.73 638.78Z" fill="white" stroke="#373A3A" stroke-width="3" stroke-linecap="round" stroke-linejoin="round"/>
<path d="M23.7683 222.757C28.036 221.613 30.5687 217.227 29.4251 212.959C28.2816 208.691 23.8949 206.158 19.6272 207.302C15.3595 208.446 12.8268 212.832 13.9703 217.1C15.1139 221.368 19.5006 223.9 23.7683 222.757Z" fill="white" stroke="#373A3A" stroke-width="3" stroke-linecap="round" stroke-linejoin="round"/>
<path d="M550.34 317.63L548.67 329.04L568.44 328.08L566.78 339.49L586.55 338.53L584.89 349.95" stroke="#373A3A" stroke-width="3" stroke-linecap="round" stroke-linejoin="round"/>
</g>
<defs>
<clipPath id="clip0_2651_1898">
<rect width="791.22" height="674.91" fill="white"/>
</clipPath>
</defs>
</svg>
