<svg xmlns="http://www.w3.org/2000/svg" viewBox="0 0 90.15 90.15"><defs><style>.cls-1{fill:#ffcf33;}.cls-2{fill:#fff;}</style></defs><g id="Layer_2" data-name="Layer 2"><g id="Layer_1-2" data-name="Layer 1"><rect class="cls-1" width="90.15" height="90.15" rx="45.07"/><path class="cls-2" d="M28.69,67.65c0-.2,0-.39,0-.59V30.26H30v6.15h30.5V26.07H30V29H28.74V24.82h33V62.69H60.52V37.75H30V66.37H60.51V64h1.32v3.65Z"/><path class="cls-2" d="M34.92,49.59a2.83,2.83,0,1,1-2.86,2.79A2.85,2.85,0,0,1,34.92,49.59Zm-1.57,2.83a1.54,1.54,0,0,0,3.08,0,1.54,1.54,0,1,0-3.08,0Z"/><path class="cls-2" d="M55.65,49.59a2.83,2.83,0,1,1-2.84,2.82A2.86,2.86,0,0,1,55.65,49.59Zm1.53,2.81A1.54,1.54,0,1,0,55.67,54,1.51,1.51,0,0,0,57.18,52.4Z"/><path class="cls-2" d="M34.89,42.2A2.81,2.81,0,1,1,32.06,45,2.81,2.81,0,0,1,34.89,42.2ZM33.35,45a1.54,1.54,0,1,0,1.51-1.56A1.53,1.53,0,0,0,33.35,45Z"/><path class="cls-2" d="M55.66,47.82A2.81,2.81,0,1,1,58.47,45,2.83,2.83,0,0,1,55.66,47.82ZM57.18,45a1.54,1.54,0,1,0-1.52,1.57A1.54,1.54,0,0,0,57.18,45Z"/><path class="cls-2" d="M44.61,52.4a2.81,2.81,0,1,1-2.82-2.81A2.81,2.81,0,0,1,44.61,52.4Zm-1.26,0A1.55,1.55,0,1,0,41.8,54,1.53,1.53,0,0,0,43.35,52.43Z"/><path class="cls-2" d="M45.91,52.35a2.82,2.82,0,1,1,2.75,2.89A2.82,2.82,0,0,1,45.91,52.35Zm2.87-1.47A1.54,1.54,0,1,0,48.65,54a1.54,1.54,0,1,0,.13-3.07Z"/><path class="cls-2" d="M48.72,47.82A2.81,2.81,0,1,1,51.54,45,2.8,2.8,0,0,1,48.72,47.82ZM47.18,45a1.54,1.54,0,0,0,1.51,1.57A1.59,1.59,0,0,0,50.28,45a1.57,1.57,0,0,0-1.55-1.54A1.54,1.54,0,0,0,47.18,45Z"/><path class="cls-2" d="M41.79,47.82A2.81,2.81,0,1,1,44.62,45,2.81,2.81,0,0,1,41.79,47.82ZM43.35,45a1.55,1.55,0,0,0-1.54-1.54,1.55,1.55,0,1,0,0,3.1A1.55,1.55,0,0,0,43.35,45Z"/><path class="cls-2" d="M34.31,64.87H33.09V57.56h1.22Z"/><path class="cls-2" d="M55.43,64.87H54.21V57.55h1.22Z"/><path class="cls-2" d="M56.21,57.55h1.23v7.3H56.21Z"/><path class="cls-2" d="M36.18,57.54h1.19v7.32H36.18Z"/><path class="cls-2" d="M39.37,64.87H38.19V57.55h1.18Z"/><path class="cls-2" d="M41.4,57.55v7.3H40.19v-7.3Z"/><path class="cls-2" d="M42.19,57.54h1.2v7.32h-1.2Z"/><path class="cls-2" d="M46.6,57.56v7.3H45.38v-7.3Z"/><path class="cls-2" d="M48.59,64.86H47.38V57.55h1.21Z"/><path class="cls-2" d="M50.59,64.87H49.4V57.55h1.19Z"/><path class="cls-2" d="M52.6,64.87H51.41V57.55H52.6Z"/><path class="cls-2" d="M41,39.91c0-.71-.09-.61.72-.61s.57-.07.57.72.07.57-.72.57S41,40.65,41,39.91Z"/><path class="cls-2" d="M46.08,40c0,.72.08.62-.72.62s-.57.07-.57-.71-.08-.57.75-.58C46.17,39.3,46.07,39.25,46.08,40Z"/><path class="cls-2" d="M49.19,40.59c-.74,0-.64.08-.64-.7s-.08-.59.74-.59c.65,0,.55-.07.55.74C49.84,40.68,49.89,40.58,49.19,40.59Z"/><path class="cls-2" d="M41,31.2c0-.71-.09-.61.72-.61s.57-.07.57.72.07.56-.72.57S41,31.94,41,31.2Z"/><path class="cls-2" d="M46.08,31.26c0,.72.08.61-.72.62s-.57.07-.57-.71-.08-.58.75-.58C46.17,30.59,46.07,30.54,46.08,31.26Z"/><path class="cls-2" d="M49.19,31.88c-.74,0-.64.08-.64-.7s-.08-.59.74-.59c.65,0,.55-.07.55.74C49.84,32,49.89,31.87,49.19,31.88Z"/><path class="cls-2" d="M53.15,31.88c-.74,0-.64.08-.64-.7s-.08-.59.74-.59c.65,0,.55-.07.55.74C53.8,32,53.85,31.87,53.15,31.88Z"/><path class="cls-2" d="M37.31,31.88c-.74,0-.63.08-.64-.7s-.08-.59.74-.59c.65,0,.55-.07.55.74C38,32,38,31.87,37.31,31.88Z"/></g></g></svg>