<svg width="511" height="539" viewBox="0 0 511 539" fill="none" xmlns="http://www.w3.org/2000/svg">
<g clip-path="url(#clip0_905_46)">
<path d="M244.942 307.466C286.982 307.466 321.063 273.386 321.063 231.346C321.063 189.306 286.982 155.225 244.942 155.225C202.902 155.225 168.822 189.306 168.822 231.346C168.822 273.386 202.902 307.466 244.942 307.466Z" fill="#FBD15A"/>
<path d="M180.127 463.475L101.745 535.073" stroke="black" stroke-width="7.53668" stroke-miterlimit="10" stroke-linecap="round" stroke-linejoin="round"/>
<path d="M300.714 463.475L379.095 535.073" stroke="black" stroke-width="7.53668" stroke-miterlimit="10" stroke-linecap="round" stroke-linejoin="round"/>
<path d="M243.434 232.852L507.218 97.9458" stroke="black" stroke-width="7.53668" stroke-linecap="round" stroke-linejoin="round"/>
<path d="M262.276 237.374L245.695 232.099L250.971 214.764L241.173 219.286L235.897 236.621L253.232 242.65L262.276 237.374Z" fill="black"/>
<path d="M486.115 79.1041L480.086 112.266" stroke="black" stroke-width="7.53668" stroke-miterlimit="10" stroke-linecap="round" stroke-linejoin="round"/>
<path d="M480.086 112.266L507.218 124.324" stroke="black" stroke-width="7.53668" stroke-miterlimit="10" stroke-linecap="round" stroke-linejoin="round"/>
<path d="M461.244 88.1478L455.214 121.309" stroke="black" stroke-width="7.53668" stroke-miterlimit="10" stroke-linecap="round" stroke-linejoin="round"/>
<path d="M455.214 121.309L482.347 134.122" stroke="black" stroke-width="7.53668" stroke-miterlimit="10" stroke-linecap="round" stroke-linejoin="round"/>
<path d="M287.901 182.356C287.901 182.356 251.725 143.919 198.215 171.805C198.215 171.805 143.197 203.459 165.053 264.506C165.053 264.506 185.402 319.524 246.45 311.987C246.45 311.987 316.541 299.929 310.511 226.823" stroke="black" stroke-width="7.53668" stroke-miterlimit="10" stroke-linecap="round" stroke-linejoin="round"/>
<path d="M362.514 143.166C357.992 136.383 344.426 122.817 344.426 122.817C344.426 122.817 269.813 43.6817 158.27 101.714C158.27 101.714 44.4666 167.283 89.6866 293.899C89.6866 293.899 131.138 407.703 259.262 392.63C259.262 392.63 403.966 368.512 391.907 215.518C391.907 215.518 389.646 198.937 386.632 192.908" stroke="black" stroke-width="7.53668" stroke-miterlimit="10" stroke-linecap="round" stroke-linejoin="round"/>
<path d="M424.315 100.961C411.502 82.8727 395.675 67.7994 395.675 67.7994C395.675 67.7994 285.64 -50.5264 121.34 36.1453C121.34 36.1453 -47.4812 133.368 19.5952 321.785C19.5952 321.785 81.396 490.607 270.567 468.751C270.567 468.751 485.362 432.575 467.274 205.721C467.274 205.721 463.505 180.096 457.476 166.53" stroke="black" stroke-width="7.53668" stroke-miterlimit="10" stroke-linecap="round" stroke-linejoin="round"/>
<path d="M258.508 182.357C258.508 182.357 247.203 174.066 230.622 177.835" stroke="black" stroke-width="5.65251" stroke-miterlimit="10" stroke-linecap="round" stroke-linejoin="round"/>
</g>
<defs>
<clipPath id="clip0_905_46">
<rect width="510.987" height="538.119" fill="white" transform="translate(0 0.723389)"/>
</clipPath>
</defs>
</svg>
