<svg width="224" height="254" viewBox="0 0 224 254" fill="none" xmlns="http://www.w3.org/2000/svg">
<g opacity="0.6" clip-path="url(#clip0_905_2044)">
<path d="M217.393 57.5948C217.393 57.5948 216.922 99.02 190.537 115.87C153.623 139.489 115.957 116.096 112.873 103.529C109.789 90.9625 126.775 84.4558 133.122 101.772C139.317 118.555 129.969 140.195 107.799 143.402C85.6626 146.529 67.6532 128.836 48.7794 150.148" stroke="#263238" stroke-width="0.75" stroke-miterlimit="10" stroke-dasharray="4 4"/>
<path d="M37.0336 143.254L56.3705 144.122L41.0037 152.81L2.64632 194.428L37.0336 143.254Z" fill="#D5D5D5"/>
<path opacity="0.1" d="M37.0336 143.254L56.3705 144.122L41.0037 152.81L2.64632 194.428L37.0336 143.254Z" fill="black"/>
<path d="M44.1644 156.013L56.3705 144.121L41.0037 152.81L44.1644 156.013Z" fill="#263238"/>
<path d="M41.0037 152.81L2.64631 194.427L58.7067 170.562L41.0037 152.81Z" fill="#D5D5D5"/>
<path d="M37.0336 143.254L32.4394 117.276L2.64634 194.427L37.0336 143.254Z" fill="#D5D5D5"/>
</g>
<defs>
<clipPath id="clip0_905_2044">
<rect width="209.277" height="154.098" fill="white" transform="matrix(-0.386445 0.922313 0.922313 0.386445 81.3655 0.505859)"/>
</clipPath>
</defs>
</svg>
