<svg xmlns="http://www.w3.org/2000/svg" viewBox="0 0 64 64"><defs><style>.cls-1,.cls-4{fill:#1a4d7e;}.cls-2,.cls-3{fill:#ff4b4b;}.cls-3{opacity:0.3;}.cls-4{stroke:#1a4d7e;stroke-miterlimit:10;}</style></defs><g id="Layer_2" data-name="Layer 2"><g id="Podcast"><path class="cls-1" d="M33.64,6A4.49,4.49,0,0,0,33,6H13a7,7,0,0,0-7,7V51a7,7,0,0,0,7,7H33a7,7,0,0,0,7-7V48a1,1,0,0,0-1-1H31.41l3.3-3.29A1,1,0,0,0,35,43V31a5,5,0,0,1,.83-2.76l0,0a0,0,0,0,1,0,0,4.94,4.94,0,0,1,2.32-1.85,4.84,4.84,0,0,1,1-.27h0a1,1,0,0,0,.8-1V13A7,7,0,0,0,33.64,6Zm3.82,18.44a6.21,6.21,0,0,0-.59.26l-.14.08a5.39,5.39,0,0,0-.52.3l-.21.14-.08.06a1.88,1.88,0,0,0-.24.18.79.79,0,0,0-.15.12,3.38,3.38,0,0,0-.35.31l-.15.14a4.91,4.91,0,0,0-.43.48c-.15.19-.3.38-.43.58s-.12.18-.17.27a4.79,4.79,0,0,0-.25.45,2.2,2.2,0,0,0-.15.31s0,0,0,.06a3.09,3.09,0,0,0-.14.32s0,0,0,0-.09.25-.13.39a3.92,3.92,0,0,0-.13.49c0,.12-.05.23-.07.35s0,.27-.05.4a1.63,1.63,0,0,0,0,.31A3.85,3.85,0,0,0,33,31V42.59l-4.71,4.7a1,1,0,0,0-.21,1.09A1,1,0,0,0,29,49h9v2a5,5,0,0,1-5,5H13a5,5,0,0,1-5-5V13a5,5,0,0,1,5-5H33a5,5,0,0,1,5,5V24.29Z"/><path class="cls-2" d="M33,54H13a3,3,0,0,1-3-3V13a3,3,0,0,1,3-3h4a1,1,0,0,1,.89.54l.46.91a1,1,0,0,0,.89.55h7.52a1,1,0,0,0,.89-.55l.46-.91A1,1,0,0,1,29,10h4a3,3,0,0,1,3,3V27.69a1,1,0,0,1-.17.56A4.89,4.89,0,0,0,35,31V43a1,1,0,0,1-.29.71L31.41,47H35a1,1,0,0,1,1,1v3A3,3,0,0,1,33,54ZM13,12a1,1,0,0,0-1,1V51a1,1,0,0,0,1,1H33a1,1,0,0,0,1-1V49H29a1,1,0,0,1-.92-.62,1,1,0,0,1,.21-1.09L33,42.59V31a6.83,6.83,0,0,1,1-3.6V13a1,1,0,0,0-1-1H29.61l-.18.36A3,3,0,0,1,26.76,14H19.24a3,3,0,0,1-2.67-1.65L16.39,12ZM34,43h0Z"/><path class="cls-1" d="M58,30.36A7,7,0,0,0,51,24H40a7.16,7.16,0,0,0-1.16.1,6.4,6.4,0,0,0-1.38.38,6.21,6.21,0,0,0-.59.26l-.14.08a5.39,5.39,0,0,0-.52.3l-.21.14h0a1.72,1.72,0,0,0-.32.23.79.79,0,0,0-.15.12,3.38,3.38,0,0,0-.35.31l-.15.14a4.91,4.91,0,0,0-.43.48c-.15.19-.3.38-.43.58s-.12.18-.17.27a4.79,4.79,0,0,0-.25.45,2,2,0,0,0-.17.37,3.09,3.09,0,0,0-.14.32c0,.14-.1.28-.14.43a3.92,3.92,0,0,0-.13.49c0,.12-.05.23-.07.35A6.75,6.75,0,0,0,33,31V42.59l-4.71,4.7a1,1,0,0,0-.21,1.09A1,1,0,0,0,29,49H51a7,7,0,0,0,7-7V31A4.49,4.49,0,0,0,58,30.36ZM56,42a5,5,0,0,1-5,5H31.41l3.3-3.29A1,1,0,0,0,35,43V31a5,5,0,0,1,.83-2.76l0,0a5,5,0,0,1,2.33-1.86,4.84,4.84,0,0,1,1-.27h0A5.18,5.18,0,0,1,40,26H51a5,5,0,0,1,5,5Z"/><path class="cls-3" d="M64,17.2a17.14,17.14,0,0,1-5,12.16l-1,1A7,7,0,0,0,51,24H40V13a7,7,0,0,0-6.36-7l1-1A17.2,17.2,0,0,1,64,17.2Z"/><path class="cls-3" d="M30.32,58l-1,1A17.2,17.2,0,0,1,5,34.64l1-1V51a7,7,0,0,0,7,7Z"/></g><g id="Feedback"><path class="cls-2" d="M48,42a1,1,0,0,1-1-1V33a1,1,0,1,1,2,0v5.58l.29-.29a1,1,0,0,1,1.42,1.42l-2,2A1,1,0,0,1,48,42Z"/><path class="cls-2" d="M44,40a1,1,0,0,1-1-1V33.42l-.29.3a1,1,0,0,1-1.42-1.42l2-2a1,1,0,0,1,1.09-.22A1,1,0,0,1,45,31v8A1,1,0,0,1,44,40Z"/><path class="cls-4" d="M14.82,30.22a3.36,3.36,0,0,1,1-2.42l.73-.73a2.23,2.23,0,0,1,3.14.11c.6.73,1.22,1.45,1.81,2.19a1.85,1.85,0,0,1,0,2.3q-.7.91-1.44,1.8a.2.2,0,0,0,0,.28,8.62,8.62,0,0,0,2.65,2.66.2.2,0,0,0,.27,0c.56-.46,1.13-.91,1.7-1.36a1.89,1.89,0,0,1,2.51,0c.68.56,1.34,1.14,2,1.68A2.23,2.23,0,0,1,29.39,40l-.65.64a3.35,3.35,0,0,1-3.21,1,13.53,13.53,0,0,1-3.83-1.24,13.35,13.35,0,0,1-3.63-2.85A12.37,12.37,0,0,1,14.92,31C14.88,30.75,14.86,30.49,14.82,30.22Zm1,.05a1,1,0,0,0,0,.22,12.92,12.92,0,0,0,.68,2.67,11.2,11.2,0,0,0,2.76,4.15,11.37,11.37,0,0,0,3.18,2.28,13.22,13.22,0,0,0,3.24,1,2.38,2.38,0,0,0,2.3-.71q.3-.33.63-.63a1.24,1.24,0,0,0-.08-1.77c-.69-.53-1.34-1.11-2-1.67a.89.89,0,0,0-1.2,0l-2.06,1.64a.53.53,0,0,1-.69.06A9.32,9.32,0,0,1,19,33.87a.52.52,0,0,1,.06-.69c.55-.7,1.11-1.39,1.66-2.08a.88.88,0,0,0,0-1.15c-.57-.69-1.16-1.36-1.72-2.06a1.22,1.22,0,0,0-1.72-.09c-.23.26-.49.5-.74.75A2.33,2.33,0,0,0,15.85,30.27Z"/><path class="cls-4" d="M29,28.72l-.15.14c-.82.82-1.63,1.64-2.45,2.45a.53.53,0,0,1-.87,0l-3.4-3.39a.61.61,0,0,1-.21-.42.47.47,0,0,1,.27-.45.48.48,0,0,1,.54,0,1.14,1.14,0,0,1,.16.15l2.95,3,.09.11,2.3-2.3H26.55a.69.69,0,0,1-.28-.05.48.48,0,0,1-.29-.56.47.47,0,0,1,.47-.4h3.06a.48.48,0,0,1,.49.48c0,1,0,2.05,0,3.08a.49.49,0,0,1-.5.48.51.51,0,0,1-.5-.5V28.72Z"/></g></g></svg>