<svg width="256" height="164" viewBox="0 0 256 164" fill="none" xmlns="http://www.w3.org/2000/svg">
<g clip-path="url(#clip0_1271_7377)">
<path d="M23.763 109.93H13.2441V114.382H23.763V109.93Z" fill="#EBEBEB"/>
<path d="M17.8958 115.544H7.37695V119.996H17.8958V115.544Z" fill="#EBEBEB"/>
<path d="M159.105 67.7485H148.586V72.2006H159.105V67.7485Z" fill="#EBEBEB"/>
<path d="M153.238 73.3623H142.719V77.8144H153.238V73.3623Z" fill="#EBEBEB"/>
<path d="M147.392 67.7485H136.873V72.2006H147.392V67.7485Z" fill="#EBEBEB"/>
<path d="M248.622 115.544H238.104V119.996H248.622V115.544Z" fill="#EBEBEB"/>
<path d="M242.755 6.57666H232.236V11.0288H242.755V6.57666Z" fill="#EBEBEB"/>
<path d="M248.622 12.1904H238.104V16.6425H248.622V12.1904Z" fill="#EBEBEB"/>
<path d="M23.763 6.57666H13.2441V11.0288H23.763V6.57666Z" fill="#EBEBEB"/>
<path d="M63.732 72.853L61.1777 78.4987L62.9017 79.2944C63.1488 79.408 63.3597 79.5877 63.5112 79.8138C63.6626 80.0399 63.7486 80.3035 63.7598 80.5756C63.7731 80.8832 63.8023 81.19 63.8472 81.4946C63.8919 81.7639 63.8605 82.0404 63.7566 82.2928C63.6527 82.5452 63.4805 82.7635 63.2593 82.923L61.7219 84.025L65.3249 89.066L66.8662 87.9599C67.0874 87.8024 67.3479 87.7097 67.6188 87.6922C67.8896 87.6746 68.1599 87.7329 68.3995 87.8605C68.6737 88.0093 68.9562 88.1421 69.2456 88.2583C69.5001 88.3552 69.7226 88.5212 69.8882 88.7377C70.0538 88.9541 70.1559 89.2125 70.1831 89.4838L70.3698 91.3696L76.527 90.7609L76.3363 88.8671C76.3126 88.5954 76.3646 88.3225 76.4867 88.0787C76.6087 87.8349 76.7959 87.6299 77.0275 87.4865C77.1546 87.4029 77.2818 87.3194 77.4248 87.2278C77.5678 87.1363 77.6711 87.0488 77.7863 86.9533C77.996 86.7815 78.249 86.6709 78.5174 86.6337C78.7858 86.5965 79.0592 86.6341 79.3077 86.7425L81.0476 87.5382L83.6018 81.8925L81.8738 81.0968C81.6182 80.9833 81.4001 80.7991 81.2453 80.5658C81.0905 80.3325 81.0054 80.0599 80.9999 79.7798C80.9872 79.472 80.9567 79.1651 80.9085 78.8608C80.8669 78.5918 80.9001 78.3165 81.0045 78.0652C81.109 77.8139 81.2805 77.5963 81.5004 77.4364L83.0377 76.3343L79.4348 71.2934L77.8935 72.3994C77.6723 72.5569 77.4117 72.6496 77.1409 72.6672C76.8701 72.6848 76.5998 72.6265 76.3602 72.4989C76.0861 72.3596 75.804 72.2323 75.518 72.101C75.2657 72.0078 75.0436 71.8474 74.8756 71.637C74.7076 71.4267 74.6001 71.1744 74.5647 70.9074L74.3779 69.0176L68.2208 69.6263L68.4075 71.5162C68.4321 71.7875 68.3809 72.0603 68.2595 72.3041C68.1381 72.548 67.9514 72.7532 67.7202 72.8968C67.5931 72.9763 67.466 73.0639 67.323 73.1554C67.18 73.2469 67.0767 73.3344 66.9575 73.4299C66.7468 73.6028 66.4924 73.714 66.2225 73.7513C65.9526 73.7885 65.6777 73.7502 65.4282 73.6408L63.732 72.853ZM69.4284 76.0359C70.2436 75.4514 71.2135 75.1222 72.2156 75.0898C73.2176 75.0575 74.2067 75.3235 75.0578 75.8542C75.9089 76.3849 76.5838 77.1565 76.997 78.0714C77.4103 78.9863 77.5433 80.0033 77.3794 80.994C77.2155 81.9846 76.7619 82.9043 76.0761 83.6368C75.3903 84.3692 74.503 84.8815 73.5265 85.1088C72.5499 85.3362 71.528 85.2684 70.59 84.914C69.6519 84.5596 68.8399 83.9346 68.2565 83.1179C67.4786 82.0252 67.1652 80.6681 67.3848 79.3442C67.6045 78.0204 68.3394 76.8378 69.4284 76.0558V76.0359Z" fill="#EBEBEB"/>
<path d="M235.595 25.2246L233.001 26.7206L233.462 27.5163C233.526 27.6307 233.558 27.7609 233.553 27.8923C233.548 28.0237 233.507 28.1511 233.434 28.2603C233.354 28.3877 233.279 28.515 233.211 28.6582C233.153 28.7763 233.063 28.876 232.951 28.9462C232.84 29.0164 232.711 29.0544 232.58 29.0561H231.662V32.0361H232.58C232.711 32.0377 232.84 32.0758 232.951 32.146C233.063 32.2162 233.153 32.3158 233.211 32.4339C233.279 32.5692 233.354 32.6965 233.434 32.8318C233.507 32.941 233.548 33.0684 233.553 33.1999C233.558 33.3313 233.526 33.4614 233.462 33.5758L233.001 34.3715L235.595 35.8675L236.052 35.0718C236.119 34.9583 236.216 34.8655 236.332 34.8037C236.448 34.7419 236.58 34.7135 236.711 34.7217H236.933H237.152C237.282 34.7134 237.413 34.7414 237.528 34.8025C237.644 34.8635 237.74 34.9553 237.807 35.0678L238.272 35.8635L240.862 34.3676L240.401 33.5718C240.336 33.4569 240.304 33.326 240.309 33.1939C240.314 33.0618 240.356 32.9337 240.429 32.8238C240.509 32.7005 240.584 32.5692 240.652 32.426C240.71 32.3078 240.8 32.2082 240.911 32.138C241.023 32.0678 241.152 32.0298 241.283 32.0281H242.201V29.0322H241.283C241.152 29.0306 241.023 28.9925 240.911 28.9223C240.8 28.8521 240.71 28.7525 240.652 28.6343C240.584 28.503 240.509 28.3717 240.429 28.2365C240.356 28.1267 240.314 27.9985 240.309 27.8664C240.304 27.7343 240.336 27.6035 240.401 27.4885L240.862 26.6928L238.272 25.1968L237.811 25.9925C237.745 26.1062 237.648 26.199 237.531 26.2602C237.415 26.3214 237.283 26.3485 237.152 26.3386H236.711C236.58 26.3485 236.448 26.3214 236.332 26.2602C236.215 26.199 236.118 26.1062 236.052 25.9925L235.595 25.2246ZM236.933 28.0893C237.418 28.0901 237.892 28.2348 238.294 28.5052C238.697 28.7756 239.011 29.1595 239.195 29.6083C239.38 30.0572 239.428 30.5509 239.333 31.0269C239.237 31.5029 239.003 31.94 238.66 32.2827C238.316 32.6255 237.879 32.8586 237.404 32.9525C236.928 33.0465 236.435 32.997 235.988 32.8105C235.54 32.624 235.158 32.3087 234.889 31.9046C234.621 31.5005 234.478 31.0256 234.479 30.5401C234.479 30.2176 234.542 29.8982 234.666 29.6004C234.789 29.3025 234.97 29.032 235.198 28.8043C235.426 28.5766 235.697 28.3962 235.995 28.2735C236.292 28.1508 236.611 28.0882 236.933 28.0893Z" fill="#EBEBEB"/>
<path d="M14.1505 38.2824L15.9659 40.6696L16.6929 40.1125C16.7981 40.0332 16.9231 39.9846 17.0542 39.972C17.1853 39.9593 17.3173 39.9832 17.4357 40.0409C17.5647 40.1055 17.6974 40.1627 17.8329 40.212C17.96 40.2529 18.0732 40.3286 18.1595 40.4306C18.2459 40.5325 18.302 40.6567 18.3215 40.7889L18.4367 41.7L21.4041 41.3022L21.2849 40.391C21.2699 40.2601 21.2908 40.1276 21.3454 40.0077C21.4 39.8878 21.4862 39.7851 21.5948 39.7107C21.7179 39.6271 21.8371 39.5356 21.9523 39.4401C22.0512 39.3531 22.1724 39.2954 22.3022 39.2737C22.432 39.2519 22.5654 39.2668 22.6872 39.3168L23.5333 39.6709L24.6813 36.8859L23.8312 36.5318C23.7103 36.4802 23.6061 36.396 23.5303 36.2885C23.4546 36.181 23.4102 36.0544 23.4022 35.923L23.3784 35.7042C23.3784 35.6286 23.3784 35.557 23.3426 35.4854C23.3236 35.3617 23.3374 35.2351 23.3827 35.1185C23.4281 35.0018 23.5033 34.8992 23.6008 34.8209L24.3357 34.256L22.5164 31.8688L21.7894 32.4337C21.6842 32.5132 21.5589 32.5617 21.4276 32.5736C21.2964 32.5856 21.1644 32.5606 21.0466 32.5014C20.9115 32.4377 20.7765 32.382 20.6494 32.3303C20.5257 32.2867 20.4165 32.2098 20.3338 32.108C20.2511 32.0062 20.1981 31.8835 20.1806 31.7534L20.0615 30.8423L17.0941 31.2402L17.2133 32.1473C17.2279 32.2804 17.2051 32.415 17.1476 32.5359C17.09 32.6567 17 32.7592 16.8875 32.8316C16.7644 32.9152 16.6492 33.0067 16.534 33.1022C16.4351 33.1892 16.3139 33.2469 16.1841 33.2686C16.0542 33.2904 15.9209 33.2755 15.7991 33.2255L14.953 32.8714L13.7891 35.6167L14.6352 35.9708C14.7556 36.023 14.8593 36.1075 14.935 36.2148C15.0106 36.3222 15.0553 36.4484 15.0642 36.5795C15.0682 36.6541 15.0762 36.7285 15.088 36.8023C15.088 36.8739 15.088 36.9455 15.1198 37.0172C15.1465 37.147 15.1364 37.2817 15.0908 37.4061C15.0452 37.5305 14.9658 37.6397 14.8616 37.7214L14.1505 38.2824ZM16.812 36.5835C16.7493 36.1019 16.8305 35.6126 17.0455 35.1773C17.2604 34.742 17.5995 34.3803 18.0197 34.138C18.4399 33.8958 18.9225 33.7838 19.4063 33.8163C19.8901 33.8487 20.3534 34.0242 20.7376 34.3205C21.1218 34.6167 21.4096 35.0205 21.5646 35.4806C21.7197 35.9407 21.735 36.4366 21.6086 36.9055C21.4822 37.3743 21.2198 37.7951 20.8546 38.1145C20.4894 38.434 20.0378 38.6378 19.557 38.7001C19.2379 38.742 18.9137 38.7204 18.603 38.6367C18.2923 38.5529 18.0011 38.4086 17.7462 38.212C17.4912 38.0154 17.2775 37.7704 17.1172 37.4909C16.9569 37.2115 16.8532 36.9031 16.812 36.5835Z" fill="#EBEBEB"/>
<path d="M98.9676 11.8643H66.7715V50.9784H98.9676V11.8643Z" fill="#EBEBEB"/>
<path d="M95.2944 15.437H70.4551V47.4134H95.2944V15.437Z" fill="white"/>
<path d="M71.4243 15.437H70.4551V47.4134H71.4243V15.437Z" fill="#DBDBDB"/>
<path d="M99.9419 11.8643H98.9727V50.9784H99.9419V11.8643Z" fill="#DBDBDB"/>
<path d="M84.6307 19.8457H78.7754V37.3239H84.6307V19.8457Z" fill="#DBDBDB"/>
<path d="M91.8381 31.7417H76.2227V40.3038H91.8381V31.7417Z" stroke="#EBEBEB" stroke-miterlimit="10"/>
<path d="M188.259 11.8643H156.062V50.9784H188.259V11.8643Z" fill="#EBEBEB"/>
<path d="M184.581 15.437H159.742V47.4134H184.581V15.437Z" fill="white"/>
<path d="M160.711 15.437H159.742V47.4134H160.711V15.437Z" fill="#DBDBDB"/>
<path d="M189.229 11.8643H188.26V50.9784H189.229V11.8643Z" fill="#DBDBDB"/>
<path d="M173.918 19.8457H168.062V37.3239H173.918V19.8457Z" fill="#DBDBDB"/>
<path d="M181.125 31.7417H165.51V40.3038H181.125V31.7417Z" stroke="#EBEBEB" stroke-miterlimit="10"/>
<path d="M143.614 11.8643H111.418V50.9784H143.614V11.8643Z" fill="#EBEBEB"/>
<path d="M139.935 15.437H115.096V47.4134H139.935V15.437Z" fill="white"/>
<path d="M116.065 15.437H115.096V47.4134H116.065V15.437Z" fill="#DBDBDB"/>
<path d="M144.583 11.8643H143.613V50.9784H144.583V11.8643Z" fill="#DBDBDB"/>
<path d="M130.126 23.7007H125.109V36.4085H130.126V23.7007Z" fill="#EBEBEB"/>
<path d="M135.41 31.4233H121.932V40.1843H135.41V31.4233Z" stroke="#DBDBDB" stroke-miterlimit="10"/>
<path d="M128.002 164.004C196.824 164.004 252.616 159.606 252.616 154.181C252.616 148.755 196.824 144.357 128.002 144.357C59.1801 144.357 3.38867 148.755 3.38867 154.181C3.38867 159.606 59.1801 164.004 128.002 164.004Z" fill="#EBEBEB"/>
<path d="M67.4984 102.1H54.9258V129.306H67.4984V102.1Z" fill="#FFC727"/>
<g opacity="0.1">
<path d="M67.4991 102.1H64.6191V129.306H67.4991V102.1Z" fill="black"/>
</g>
<path d="M84.0628 91.8193H71.4902V129.31H84.0628V91.8193Z" fill="#FFC727"/>
<g opacity="0.1">
<path d="M84.0636 91.8193H81.1836V129.31H84.0636V91.8193Z" fill="black"/>
</g>
<path d="M50.9652 108.227H38.3926V129.306H50.9652V108.227Z" fill="#FFC727"/>
<g opacity="0.1">
<path d="M50.9698 108.227H48.0898V129.306H50.9698V108.227Z" fill="black"/>
</g>
<path d="M100.629 78.125H88.0566V129.306H100.629V78.125Z" fill="#FFC727"/>
<g opacity="0.1">
<path d="M100.632 78.125H97.752V129.306H100.632V78.125Z" fill="black"/>
</g>
<path d="M33.9395 121.134V115.89C33.9395 115.89 79.7291 112.882 98.2443 73.7524L100.084 74.1145C100.084 74.1145 87.793 114.223 33.9395 121.134Z" fill="#37474F"/>
<path d="M101.799 75.4353L96.0117 73.9552L100.806 70.271L101.799 75.4353Z" fill="#37474F"/>
<path d="M0 129.227L32.0015 129.131L63.999 129.095L128.002 129.028L192.001 129.095L223.999 129.131L256 129.227L223.999 129.322L192.001 129.358L128.002 129.426L63.999 129.358L32.0015 129.322L0 129.227Z" fill="#263238"/>
<path d="M239.754 105.359C239.754 105.359 243.464 92.0143 246.431 87.4826C249.399 82.9509 254.912 77.9736 254.912 77.9736C254.912 77.9736 254.789 98.5472 239.754 105.359Z" fill="#FFC727"/>
<path d="M240.019 105.132C241.263 103.042 242.389 100.883 243.391 98.6666C243.817 96.2815 244.433 93.9345 245.234 91.6483C245.235 91.6426 245.236 91.6371 245.239 91.6322C245.242 91.6272 245.246 91.623 245.25 91.6199C245.255 91.6167 245.261 91.6148 245.266 91.6141C245.272 91.6135 245.277 91.6142 245.283 91.6162C245.288 91.6182 245.293 91.6214 245.297 91.6256C245.3 91.6298 245.303 91.6348 245.305 91.6403C245.306 91.6457 245.306 91.6515 245.305 91.657C245.304 91.6626 245.302 91.6678 245.298 91.6722C244.805 93.7809 244.233 95.8696 243.709 97.9704C245.207 94.7238 246.633 91.4335 248.416 88.3659C248.831 86.8827 249.411 85.4508 250.144 84.0968C250.164 84.057 250.228 84.0769 250.212 84.0968C249.758 85.1403 249.371 86.2114 249.052 87.3036C249.891 85.9325 250.834 84.6277 251.872 83.4006C251.936 83.325 252.067 83.4006 252.003 83.4921C249.62 86.5397 247.971 90.0091 246.402 93.5222C248.089 91.6916 249.645 89.7439 251.058 87.6935C251.058 87.6736 251.106 87.6935 251.09 87.6935C249.616 89.9913 247.948 92.1583 246.104 94.1708C244.96 96.7449 243.84 99.343 242.478 101.778C245.199 99.4743 247.292 96.4943 249.362 93.6177C249.372 93.6081 249.386 93.6021 249.4 93.6009C249.414 93.5997 249.428 93.6033 249.44 93.6111C249.452 93.6189 249.461 93.6304 249.465 93.6439C249.47 93.6573 249.47 93.672 249.465 93.6854C247.391 96.8444 245.246 99.8165 242.267 102.152C241.663 103.228 241 104.269 240.281 105.271C240.257 105.292 240.227 105.306 240.195 105.309C240.163 105.313 240.13 105.307 240.102 105.292C240.074 105.277 240.05 105.253 240.036 105.225C240.021 105.196 240.015 105.164 240.019 105.132Z" fill="#263238"/>
<path d="M237.758 105.378C237.758 105.378 244.428 93.0725 242.489 81.1445C240.551 69.2165 238.477 64.9673 238.477 64.9673C238.477 64.9673 227.99 83.5237 237.758 105.378Z" fill="#FFC727"/>
<path d="M235.017 86.0341C235.582 89.4193 236.445 92.7478 237.595 95.9807C237.595 91.6042 237.694 87.2277 237.814 82.8512C237.061 80.1959 236.638 77.4578 236.554 74.6989C236.554 74.6194 236.67 74.6233 236.678 74.6989C236.884 77.0589 237.269 79.3998 237.83 81.7014C237.933 78.0888 238.051 74.4788 238.183 70.8715C238.183 70.8588 238.188 70.8467 238.197 70.8377C238.206 70.8288 238.218 70.8237 238.231 70.8237C238.243 70.8237 238.255 70.8288 238.264 70.8377C238.273 70.8467 238.278 70.8588 238.278 70.8715C238.278 76.5132 238.278 82.1549 238.239 87.7967C239.053 85.6155 239.696 83.374 240.161 81.0926H240.201C240.002 83.7265 239.2 86.2649 238.215 88.7197C238.191 92.3244 238.151 95.929 238.072 99.5337C239.2 95.7022 240.404 91.9742 240.733 87.9399C240.731 87.9333 240.731 87.9264 240.732 87.9196C240.733 87.9128 240.736 87.9064 240.74 87.9009C240.744 87.8954 240.749 87.8909 240.755 87.8878C240.761 87.8847 240.768 87.8831 240.775 87.8831C240.782 87.8831 240.789 87.8847 240.795 87.8878C240.801 87.8909 240.806 87.8954 240.81 87.9009C240.814 87.9064 240.817 87.9128 240.818 87.9196C240.819 87.9264 240.819 87.9333 240.817 87.9399C240.729 92.4079 239.577 96.9436 238.108 101.145C238.093 101.186 238.067 101.222 238.032 101.248C238 102.565 237.961 103.886 237.917 105.203C237.917 105.242 237.901 105.28 237.874 105.307C237.846 105.335 237.809 105.35 237.77 105.35C237.731 105.35 237.694 105.335 237.666 105.307C237.638 105.28 237.623 105.242 237.623 105.203C237.571 102.51 237.555 99.8122 237.559 97.1147C236.104 93.5861 235.217 89.8489 234.93 86.0421C234.957 86.0102 235.013 86.0023 235.017 86.0341Z" fill="#263238"/>
<path d="M235.478 84.1327C235.71 85.2037 235.865 86.29 235.943 87.3832C235.943 87.3917 235.939 87.3998 235.933 87.4058C235.927 87.4117 235.919 87.4151 235.911 87.4151C235.902 87.4151 235.894 87.4117 235.888 87.4058C235.882 87.3998 235.879 87.3917 235.879 87.3832C235.617 86.3174 235.433 85.2336 235.331 84.1407C235.319 84.0651 235.446 84.0491 235.478 84.1327Z" fill="#263238"/>
<path d="M239.376 75.1369C239.376 75.101 239.439 75.113 239.439 75.1369C239.432 75.8954 239.32 76.6492 239.106 77.3768C239.106 77.4365 239.006 77.4087 239.014 77.353C239.161 76.6249 239.252 75.8809 239.376 75.1369Z" fill="#263238"/>
<path d="M236.042 106.071C236.042 106.071 234.652 93.3074 230.159 87.4548C225.666 81.6022 219.207 79.1792 219.207 79.1792C219.207 79.1792 224.598 101.304 236.042 106.071Z" fill="#FFC727"/>
<path d="M227.967 96.0565C229.725 98.0841 231.651 99.9594 233.723 101.662C232.655 99.1559 231.471 96.709 230.192 94.3178C227.912 92.794 225.636 91.1986 224.059 88.9069C224.056 88.8996 224.056 88.8918 224.059 88.8845C224.061 88.8772 224.065 88.8709 224.072 88.8664C224.078 88.862 224.085 88.8596 224.093 88.8598C224.101 88.8599 224.108 88.8625 224.114 88.8671C225.751 90.8564 227.781 92.3643 229.902 93.7927C227.941 90.1926 225.758 86.7178 223.367 83.3885C223.308 83.301 223.431 83.2055 223.495 83.289C224.91 85.0112 226.228 86.811 227.443 88.6801C226.923 87.3632 226.466 86.0065 225.938 84.7015C225.937 84.6947 225.938 84.688 225.942 84.6822C225.945 84.6764 225.95 84.6719 225.957 84.6692C225.963 84.6666 225.97 84.666 225.976 84.6675C225.983 84.669 225.989 84.6725 225.993 84.6776C226.938 86.3158 227.68 88.0634 228.202 89.8817C229.855 92.5367 231.316 95.3077 232.571 98.1732C232.226 96.2753 231.856 94.3895 231.408 92.5115C231.408 92.4757 231.459 92.4598 231.471 92.5115C232.156 94.5711 232.625 96.6966 232.869 98.8535C233.643 100.681 234.335 102.538 234.947 104.424C234.947 104.471 234.891 104.507 234.871 104.455C234.566 103.66 234.244 102.896 233.918 102.12C233.918 102.12 233.89 102.12 233.874 102.12C231.662 100.417 229.505 98.4238 227.959 96.0844C227.94 96.0605 227.955 96.0486 227.967 96.0565Z" fill="#263238"/>
<path d="M222.379 86.2532C222.843 86.6511 223.276 87.0489 223.729 87.4468C224.153 87.7801 224.551 88.1445 224.921 88.537C224.921 88.537 224.921 88.5767 224.893 88.5688C224.395 88.2876 223.937 87.9411 223.531 87.5383C223.092 87.1629 222.686 86.7517 222.315 86.3089C222.311 86.3047 222.309 86.2999 222.307 86.2946C222.305 86.2894 222.304 86.2838 222.305 86.2783C222.305 86.2727 222.307 86.2673 222.309 86.2623C222.312 86.2573 222.315 86.2529 222.319 86.2492C222.323 86.2456 222.328 86.2428 222.333 86.241C222.339 86.2392 222.344 86.2385 222.35 86.2389C222.355 86.2392 222.361 86.2407 222.366 86.2431C222.371 86.2456 222.375 86.249 222.379 86.2532Z" fill="#263238"/>
<path d="M246.251 104.75L245.774 110.833L244.376 129.227H232.205L230.81 110.833L230.346 104.75H246.235H246.251Z" fill="#455A64"/>
<path d="M246.251 104.75L245.774 110.833H230.81L230.346 104.75H246.235H246.251Z" fill="#37474F"/>
<path d="M229.262 106.433H247.336V101.77H229.262V106.433Z" fill="#455A64"/>
<path d="M73.8697 147.357C73.0554 147.624 49.7494 147.417 48.8675 146.848C48.5299 146.633 48.363 143.232 48.2757 139.118C48.2757 138.226 46.5 123.907 46.5 123.907L62.0757 123.999L63.2992 139.205C63.2992 139.205 72.1854 143.279 73.0911 144.011C73.9968 144.743 74.688 147.091 73.8697 147.357Z" fill="#EB9481"/>
<path d="M73.8703 147.357C73.0559 147.62 49.7539 147.417 48.8681 146.844C48.6059 146.673 48.4431 144.524 48.3438 141.6C52.3161 142.201 65.8222 144.206 68.8174 143.912C70.8473 143.713 69.5404 142.46 68.0825 141.437C70.3507 142.519 72.6587 143.657 73.0917 144.007C73.9894 144.739 74.6886 147.091 73.8703 147.357Z" fill="#263238"/>
<path d="M24.3145 66.0854C24.3145 66.0854 42.0273 97.1189 42.4841 99.2992C43.1872 102.633 47.2907 138.974 47.2907 138.974L64.7215 138.867C64.7215 138.867 61.2735 106.437 58.318 96.8444C56.7052 91.6165 48.2202 77.4445 44.2439 70.45C43.8864 69.8254 43.9936 66.9608 43.9936 66.9608L24.3145 66.0854Z" fill="#455A64"/>
<path d="M63.0462 135.958C60.3449 135.903 52.1618 135.68 48.5589 135.958C48.5351 135.958 48.5351 136.006 48.5589 136.01C49.7983 136.205 60.3449 136.074 63.0462 136.01C63.0512 136.015 63.0576 136.018 63.0645 136.019C63.0714 136.021 63.0785 136.02 63.0849 136.017C63.0914 136.014 63.0969 136.01 63.1007 136.004C63.1046 135.998 63.1066 135.991 63.1066 135.984C63.1066 135.977 63.1046 135.97 63.1007 135.965C63.0969 135.959 63.0914 135.954 63.0849 135.951C63.0785 135.949 63.0714 135.948 63.0645 135.949C63.0576 135.95 63.0512 135.954 63.0462 135.958Z" fill="#263238"/>
<path d="M27.3692 68.9501C28.5331 70.828 29.7526 72.6662 30.9444 74.5202C32.1361 76.3743 33.3278 78.2482 34.4917 80.1221C36.8433 83.8727 39.1248 87.6537 41.3361 91.4653C43.555 94.941 45.0106 98.8496 45.6064 102.932C45.948 104.961 46.1665 107.006 46.3731 109.051L47.0166 115.588C47.4615 120.044 48.4625 127.95 48.9035 132.406C48.9591 132.955 49.0107 133.5 49.0584 134.049C49.0584 134.128 48.9233 134.14 48.9154 134.049C48.4149 129.621 47.4456 121.715 46.9967 117.295L46.3294 110.674C46.1188 108.621 45.9321 106.564 45.6302 104.523C45.3632 102.505 44.9449 100.51 44.3789 98.5552C43.751 96.5343 42.9024 94.5889 41.8485 92.7544C39.7114 88.9587 37.4511 85.2268 35.1869 81.5067C32.9226 77.7867 30.5988 74.007 28.2114 70.3148C27.9134 69.8612 27.6155 69.4076 27.3096 68.958C27.2937 68.9461 27.3454 68.9143 27.3692 68.9501Z" fill="#263238"/>
<path d="M31.3263 148.61C30.4722 148.563 8.42154 139.296 7.82965 138.437C7.80431 138.385 7.79333 138.327 7.79788 138.27C7.79788 137.51 9.38683 134.856 10.7057 131.367C10.7891 131.144 18.3525 118.341 18.3525 118.341L32.7643 124.285L24.5812 137.092C24.5812 137.092 31.2905 144.214 31.8546 145.229C32.4187 146.243 32.1803 148.682 31.3263 148.61Z" fill="#EB9481"/>
<path d="M31.3263 148.61C30.4722 148.559 8.42157 139.296 7.82968 138.433C7.80428 138.383 7.79329 138.326 7.7979 138.27C7.7979 137.657 8.82675 135.819 9.91518 133.309C13.8876 136.241 26.337 143.991 28.6807 144.158C29.9161 144.246 28.8912 142.201 28.0769 140.836C29.8089 142.726 31.5964 144.723 31.8705 145.213C32.4108 146.223 32.1804 148.682 31.3263 148.61Z" fill="#263238"/>
<path d="M25.8799 137.419L9.74805 130.655C9.74805 130.655 31.1473 97.9148 31.322 95.6947C31.4809 93.7451 22.8609 76.6529 22.5828 71.6994C22.273 66.3561 24.8947 62.2501 27.7469 59.7197L43.978 66.9609C43.978 66.9609 42.5559 69.8693 39.7554 71.409C39.7554 71.409 48.0974 91.1471 47.5294 97.1747C46.9613 103.202 25.8799 137.419 25.8799 137.419Z" fill="#455A64"/>
<path d="M26.6379 134.339C24.3061 133.301 24.9893 133.543 22.6655 132.553C21.5175 132.055 13.9779 128.809 12.8299 128.534C12.8258 128.537 12.8224 128.54 12.82 128.544C12.8176 128.549 12.8164 128.553 12.8164 128.558C12.8164 128.563 12.8176 128.568 12.82 128.572C12.8224 128.576 12.8258 128.579 12.8299 128.582C13.7872 129.215 21.3824 132.33 22.5265 132.803C24.8861 133.77 24.2187 133.468 26.5942 134.395C26.6016 134.399 26.6104 134.4 26.6188 134.399C26.6272 134.397 26.6347 134.393 26.64 134.386C26.6453 134.379 26.648 134.371 26.6476 134.362C26.6472 134.353 26.6438 134.345 26.6379 134.339Z" fill="#263238"/>
<path d="M42.5283 71.0825C40.7824 71.4679 39.0722 72.0003 37.4158 72.6739C37.4051 72.6803 37.3969 72.6901 37.3924 72.7018C37.3879 72.7134 37.3875 72.7262 37.3911 72.7382C37.3948 72.7501 37.4023 72.7604 37.4126 72.7676C37.4228 72.7747 37.4351 72.7781 37.4476 72.7774C39.1636 72.3 40.9115 71.8543 42.6117 71.2854C42.6385 71.2743 42.6599 71.253 42.6711 71.2261C42.6823 71.1993 42.6823 71.1691 42.6713 71.1422C42.6602 71.1152 42.6389 71.0938 42.6121 71.0827C42.5853 71.0715 42.5551 71.0714 42.5283 71.0825Z" fill="#263238"/>
<path d="M40.5541 70.3703C40.3881 70.6576 40.2409 70.9553 40.1131 71.2615C39.9896 71.4951 39.9127 71.7505 39.8867 72.0135C39.8867 72.0612 39.9503 72.0771 39.9821 72.0453C40.1622 71.8354 40.3071 71.5976 40.4111 71.3411C40.5581 71.0666 40.709 70.796 40.848 70.5175C40.9394 70.3305 40.6574 70.1952 40.5541 70.3703Z" fill="#263238"/>
<path d="M40.7757 68.799C40.883 68.5404 40.9863 68.2857 41.0975 68.0311C41.2087 67.7764 41.3478 67.5099 41.4431 67.2353C41.4431 67.1916 41.5265 67.2354 41.5067 67.2632C41.4034 67.5218 41.3319 67.7963 41.2445 68.0589C41.1571 68.3215 41.0697 68.5881 40.9783 68.8547C40.8061 69.3473 40.6085 69.8307 40.3865 70.3029C40.6574 70.3201 40.9288 70.2766 41.1809 70.1756C41.4397 70.017 41.6414 69.7801 41.7569 69.4992C41.9079 69.2127 42.0469 68.9183 42.2018 68.6358C42.3899 68.3288 42.5494 68.0052 42.6785 67.669C42.6785 67.6253 42.758 67.669 42.7421 67.7009C42.5066 68.414 42.2006 69.1017 41.8284 69.7538C41.6695 70.0085 41.5424 70.2711 41.2564 70.3705C40.9455 70.4532 40.621 70.4708 40.303 70.4223C40.2633 70.4223 40.2117 70.4223 40.2276 70.3586C40.3823 69.8293 40.5653 69.3087 40.7757 68.799Z" fill="#263238"/>
<path d="M40.0265 72.0535C40.6065 73.3227 41.111 74.5839 41.6512 75.8491C42.1914 77.1143 42.6721 78.3358 43.1528 79.5891C44.118 82.1274 44.9801 84.7096 45.7308 87.3156C46.1042 88.61 46.4445 89.9097 46.7517 91.2147C47.0867 92.5222 47.3296 93.8517 47.4787 95.1933C47.6003 96.5328 47.4654 97.8832 47.0814 99.172C46.6842 100.489 44.5391 104.953 43.9274 106.182C43.554 106.934 43.4308 106.831 43.6136 106.453C44.126 105.375 47.0814 99.172 47.2324 96.6057C47.3118 95.2769 46.7557 93.395 46.4697 92.0979C46.1837 90.8009 45.854 89.4601 45.4925 88.1551C44.7814 85.5809 43.9274 83.0584 43.0495 80.5399C42.5609 79.1275 42.0325 77.731 41.532 76.3226C41.0315 74.9141 40.5111 73.6251 39.9431 72.0774C39.9415 72.0719 39.941 72.0661 39.9417 72.0605C39.9423 72.0548 39.9441 72.0493 39.9469 72.0443C39.9496 72.0393 39.9534 72.0349 39.9578 72.0314C39.9623 72.0278 39.9674 72.0252 39.9729 72.0236C39.9783 72.0221 39.9841 72.0216 39.9897 72.0223C39.9954 72.0229 40.0009 72.0247 40.0059 72.0274C40.0108 72.0302 40.0152 72.0339 40.0188 72.0384C40.0223 72.0429 40.0249 72.048 40.0265 72.0535Z" fill="#263238"/>
<path d="M27.7672 67.7326C28.0612 67.6292 28.4584 67.8122 28.7563 67.8639C29.1359 67.9317 29.5193 67.9755 29.9044 67.9952C30.2846 68.0097 30.6654 68.0004 31.0444 67.9674C31.4251 67.9632 31.7993 67.8692 32.1368 67.6929C32.6936 67.2984 33.1719 66.8032 33.547 66.2327C33.9955 65.6513 34.3679 65.0148 34.6553 64.3389C34.6553 64.2951 34.7308 64.3389 34.7149 64.3667C34.5878 64.7646 34.4925 65.1624 34.3177 65.5245C34.1626 65.8795 33.9793 66.2214 33.7695 66.547C33.4254 67.2021 32.9228 67.7602 32.3076 68.1703C31.6284 68.5443 30.7624 68.5125 30.0116 68.4607C29.5784 68.4292 29.1482 68.3654 28.7246 68.2698C28.4187 68.2021 27.9023 68.1464 27.7076 67.8719C27.7012 67.859 27.6977 67.8449 27.6973 67.8305C27.6969 67.8161 27.6996 67.8017 27.7053 67.7885C27.711 67.7753 27.7194 67.7634 27.7301 67.7537C27.7408 67.7441 27.7535 67.7369 27.7672 67.7326Z" fill="#263238"/>
<path d="M14.4159 127.623C17.129 123.617 28.5496 103.922 31.0999 99.7727C31.7705 98.8094 32.3415 97.7803 32.804 96.7012C33.237 95.5076 33.0145 94.3419 32.6531 93.1642C31.9692 91.0103 31.1642 88.8969 30.2418 86.8341C29.3321 84.7573 28.347 82.7162 27.3817 80.6672C26.3663 78.6516 25.4671 76.5793 24.6884 74.4605C23.945 72.4716 23.8177 70.3044 24.323 68.2419C24.891 66.1611 26.0867 64.303 27.3301 62.5684L28.3232 61.1997C28.351 61.1639 28.4026 61.1997 28.3748 61.2435C27.0043 63.0498 25.6656 64.9635 24.8473 67.0961C24.4309 68.1473 24.1919 69.2606 24.1402 70.3904C24.1181 71.5365 24.2817 72.6786 24.6249 73.7723C25.2525 75.9048 26.2655 77.9299 27.203 79.9352C28.1404 81.9404 29.1534 84.0252 30.079 86.0941C31.0265 88.1706 31.8645 90.2955 32.5895 92.46C32.9033 93.4268 33.2569 94.4493 33.2251 95.4678C33.1854 96.5938 32.6372 97.6044 32.0691 98.5473C29.5904 102.657 18.2254 122.212 15.5281 126.203L14.5033 127.711C14.4635 127.759 14.3722 127.687 14.4159 127.623Z" fill="#263238"/>
<path d="M29.3112 28.5548C25.887 31.495 26.8404 35.784 25.4103 38.1036C24.5364 39.5279 21.6882 41.0279 21.1202 42.6671C20.1906 45.3606 22.4708 46.3274 21.9623 47.7916C21.2393 49.8645 18.4666 49.7013 17.9661 53.0951C17.4656 56.4889 21.1957 60.0936 30.0382 61.0524C38.8807 62.0113 43.7389 58.7886 44.0567 55.908C44.3745 53.0275 41.4309 52.0726 41.2323 49.9401C41.1052 48.5674 42.9206 47.6125 43.012 45.0821C43.1033 42.5517 40.6285 41.7321 40.2949 39.5876C39.9612 37.4431 41.0893 32.2231 37.9114 29.5614C34.7335 26.8997 30.9995 27.1026 29.3112 28.5548Z" fill="#263238"/>
<path d="M29.7087 28.6302C28.7496 29.3092 27.9698 30.2118 27.4365 31.26C26.8814 32.3676 26.4562 33.5358 26.1693 34.7414C26.0205 35.4547 25.7913 36.1488 25.4861 36.8103C25.1788 37.3665 24.7753 37.8636 24.2944 38.2784C23.337 39.1417 22.193 39.8022 21.3349 40.777C20.4769 41.7517 19.889 42.9334 20.2147 44.1907C20.3895 44.871 20.8384 45.432 21.1204 46.0686C21.4025 46.7052 21.4899 47.4253 20.9734 47.9266C20.5325 48.3563 19.889 48.5513 19.3845 48.9014C18.8904 49.2478 18.4546 49.6708 18.0935 50.1546C17.7321 50.6367 17.4749 51.1888 17.3381 51.7758C17.2013 52.3628 17.188 52.9719 17.299 53.5644C17.8194 56.3176 20.4014 57.8852 22.7849 58.8719C23.1146 59.0111 23.4482 59.1424 23.7859 59.2698C23.8336 59.2698 23.8812 59.214 23.8256 59.1902C21.4422 58.1199 18.6615 56.8627 17.7399 54.185C17.5294 53.6013 17.4557 52.977 17.5245 52.3602C17.5934 51.7434 17.803 51.1508 18.1372 50.6281C18.4754 50.1119 18.9033 49.6605 19.4004 49.2953C19.881 48.9412 20.4372 48.7224 20.9258 48.3842C21.1689 48.2303 21.3667 48.0142 21.4987 47.7582C21.6307 47.5023 21.6921 47.2156 21.6766 46.928C21.6012 46.2978 21.3765 45.6948 21.0211 45.1694C20.6498 44.6214 20.4531 43.9736 20.457 43.3114C20.5374 42.6829 20.7827 42.0871 21.1681 41.5846C21.9109 40.5303 23.0153 39.838 24.0004 39.0383C25.0134 38.2968 25.7669 37.2539 26.1534 36.0583C26.3362 35.4257 26.4514 34.7732 26.6103 34.1366C26.7543 33.5439 26.9307 32.9594 27.1386 32.386C27.5276 31.2323 28.165 30.1783 29.0056 29.2986C29.229 29.0748 29.4738 28.8735 29.7365 28.6978C29.7683 28.658 29.7365 28.6103 29.7087 28.6302Z" fill="#263238"/>
<path d="M44.4517 53.8231C44.3458 53.3533 44.1368 52.913 43.84 52.534C43.5341 52.1362 43.1607 51.8139 42.8191 51.4518C42.4711 51.1297 42.2206 50.7161 42.0961 50.2582C42.0387 49.6975 42.1793 49.1344 42.4933 48.6668C42.7941 48.1716 43.0596 47.6557 43.2878 47.1231C43.4824 46.5929 43.5949 46.0361 43.6215 45.4719C43.6715 44.3094 43.3606 43.1599 42.7317 42.1816C42.4298 41.6842 42.0921 41.2148 41.7862 40.7214C41.4466 40.1862 41.1794 39.6083 40.9918 39.0026C40.5945 37.6698 40.5071 36.2613 40.1973 34.9086C39.8558 33.5249 39.3739 32.1797 38.7593 30.8941C38.7593 30.8623 38.6997 30.8941 38.7156 30.922C39.2581 32.0848 39.6788 33.3008 39.9709 34.5505C40.2489 35.7441 40.3681 36.9377 40.5667 38.1313C40.6601 38.7188 40.8104 39.2958 41.0156 39.8541C41.2274 40.3702 41.4839 40.8668 41.7823 41.3381C42.3821 42.3129 42.9978 43.2757 43.1646 44.4335C43.3306 45.571 43.1302 46.732 42.5926 47.7477C42.1279 48.627 41.4764 49.5978 41.8855 50.6322C42.2272 51.5035 43.0773 52.0287 43.6096 52.7489C43.8993 53.1448 44.1025 53.5975 44.2058 54.0774C44.3092 54.5572 44.3104 55.0536 44.2094 55.5339C43.7327 58.0126 41.25 59.246 38.9301 59.3654C38.9174 59.3687 38.9061 59.3762 38.8981 59.3867C38.8901 59.3971 38.8858 59.4099 38.8858 59.4231C38.8858 59.4362 38.8901 59.449 38.8981 59.4595C38.9061 59.4699 38.9174 59.4774 38.9301 59.4807C40.952 59.4569 43.1488 58.5657 44.0942 56.6718C44.5385 55.7922 44.6648 54.7855 44.4517 53.8231Z" fill="#263238"/>
<path d="M39.1548 47.1827C44.7162 52.2277 51.9737 57.5272 55.7753 56.4968C59.2154 55.5459 63.9743 51.1534 69.1701 46.4189C70.2069 45.4759 62.4807 37.821 61.4796 38.931C59.4934 41.1193 55.521 46.6496 53.9639 47.33C53.2925 47.6204 45.3796 44.2346 40.2274 42.6153C33.9749 40.6498 36.9422 45.1656 39.1548 47.1827Z" fill="#EB9481"/>
<path d="M73.3495 44.6167C71.5381 45.9495 68.5827 47.7399 67.244 47.9508C65.9847 48.1497 60.63 40.0253 61.4284 38.9869C63.9231 35.7602 68.9124 33.4168 71.2044 33.5162C73.4965 33.6157 75.2285 43.2361 73.3495 44.6167Z" fill="#EB9481"/>
<path d="M7.76172 114.442C11.9883 116.737 19.7305 117.664 23.2858 110.738C26.8411 103.811 36.6091 65.9221 37.2249 65.0587C37.8406 64.1953 73.874 32.3423 74.6447 32.0359C75.4153 31.7295 186.042 2.39893 186.042 2.39893" stroke="#263238" stroke-miterlimit="10"/>
<path d="M67.6504 34.0772C67.1936 35.1793 68.7508 35.0877 68.7508 35.0877C68.7508 35.0877 66.5421 35.7601 66.5104 37.0771C66.4786 38.394 68.3615 38.1712 68.4966 38.1593C68.3814 38.1951 66.3674 38.8675 66.4706 40.1963C66.5739 41.5252 68.433 41.0716 68.5561 41.0398C68.4568 41.1114 67.1579 42.0464 67.4677 43.0291C67.996 44.732 71.3765 42.4244 72.7827 42.7546C72.7827 42.7546 73.2157 44.6405 73.2237 44.7121C73.2237 44.7121 75.766 43.1445 76.1037 41.2268C76.1574 40.9477 76.1143 40.6585 75.9813 40.4074C75.8484 40.1562 75.6336 39.9582 75.3727 39.8462C75.3727 39.8462 76.5009 39.2773 76.4532 38.2309C76.4254 37.6938 75.5436 37.2561 75.5436 37.2561C75.7941 37.1149 76.0008 36.9073 76.141 36.6559C76.2812 36.4046 76.3494 36.1194 76.338 35.8317C76.2586 35.0917 75.3847 34.7694 75.3847 34.7694C75.3847 34.7694 76.0123 33.9021 75.6866 33.178C75.0152 31.6979 68.6276 31.7178 67.6504 34.0772Z" fill="#EB9481"/>
<path d="M75.5712 37.252C75.5951 37.252 75.599 37.2122 75.5712 37.2043C73.1575 36.6379 70.6212 36.9554 68.421 38.0995C68.3455 38.1432 68.3177 38.2547 68.421 38.2149C69.9424 37.5067 73.5135 37.0809 75.5712 37.252Z" fill="#263238"/>
<path d="M68.4245 41.1871C70.5855 40.089 72.8815 39.7985 75.2808 39.8343C75.3126 39.8343 75.3086 39.7905 75.2808 39.7866C74.109 39.4444 72.5796 39.5797 71.3959 39.7866C70.294 39.9576 69.2559 40.4143 68.3848 41.1115C68.353 41.1314 68.3808 41.1871 68.4245 41.1871Z" fill="#263238"/>
<path d="M68.7496 35.0879C68.3346 35.2555 67.9357 35.4606 67.5579 35.7006C67.184 35.9188 66.8753 36.2334 66.6641 36.6117C66.5784 36.7902 66.56 36.9937 66.6125 37.1846C66.6691 37.3767 66.7745 37.5508 66.9184 37.6899C67.0726 37.8166 67.2516 37.9096 67.4438 37.963C67.636 38.0165 67.8372 38.0291 68.0346 38.0003L69.0078 37.8968L68.1299 38.3305C67.7399 38.5213 67.3831 38.7739 67.0733 39.0785C66.9225 39.2122 66.8018 39.3763 66.7189 39.5601C66.6361 39.7439 66.593 39.9431 66.5926 40.1448C66.5932 40.3316 66.6578 40.5126 66.7757 40.6574C66.8936 40.8023 67.0575 40.9022 67.2401 40.9405C67.6522 41.0195 68.0778 40.9908 68.4755 40.8569L69.5838 40.5307L68.6583 41.1872C68.398 41.3749 68.1618 41.5941 67.9551 41.8397C67.7486 42.0608 67.6106 42.3372 67.5579 42.6354C67.5438 42.772 67.5679 42.9098 67.6275 43.0335C67.6871 43.1572 67.7799 43.2618 67.8956 43.3357C68.1784 43.4615 68.4911 43.5043 68.7973 43.459C69.4598 43.3685 70.1145 43.2275 70.7557 43.0373C71.0854 42.9497 71.4151 42.8622 71.7488 42.7945C72.0787 42.7047 72.4239 42.6857 72.7617 42.7389C72.4243 42.7224 72.0869 42.7724 71.7686 42.8861C71.4469 42.9776 71.1291 43.089 70.8073 43.2004C70.1631 43.44 69.4982 43.6198 68.8211 43.7375C68.4561 43.8049 68.0794 43.7648 67.7367 43.6221C67.5586 43.5244 67.413 43.3767 67.3177 43.1971C67.2224 43.0176 67.1816 42.814 67.2004 42.6115C67.2458 42.2361 67.4021 41.8828 67.6493 41.597C67.873 41.3179 68.1321 41.0691 68.4199 40.8569L68.5907 41.1991C68.1247 41.3651 67.6232 41.4049 67.1368 41.3145C66.8673 41.2573 66.6258 41.1082 66.4536 40.8928C66.2936 40.6752 66.2023 40.4147 66.1914 40.1448C66.1926 39.8895 66.2478 39.6373 66.3532 39.4048C66.4587 39.1724 66.612 38.9649 66.8032 38.796C67.1531 38.4657 67.5559 38.1968 67.9949 38.0003L68.0902 38.3305C67.8436 38.3577 67.594 38.3308 67.3587 38.2518C67.1234 38.1728 66.9081 38.0435 66.7277 37.8729C66.5596 37.6911 66.4406 37.4692 66.3821 37.2284C66.3243 36.9818 66.3597 36.7224 66.4814 36.5003C66.7291 36.1053 67.0829 35.7881 67.5023 35.5852C67.8983 35.3735 68.3167 35.2066 68.7496 35.0879Z" fill="#263238"/>
<path d="M62.0918 38.2109C62.0918 38.2109 67.526 29.3982 69.8101 32.8676C70.4894 33.898 72.0466 38.9469 71.0416 39.2812C69.7426 39.7108 68.6979 37.7255 68.2609 36.3728C68.2609 36.3728 67.0096 39.4045 64.6421 39.1578C63.7261 39.0614 62.8491 38.7358 62.0918 38.2109Z" fill="#EB9481"/>
<path d="M69.6034 32.5933C69.9172 32.9658 70.1742 33.3827 70.3661 33.8306C70.5724 34.2727 70.7476 34.7287 70.8905 35.1953C71.195 36.1248 71.417 37.0794 71.5539 38.048C71.5916 38.3052 71.5916 38.5666 71.5539 38.8238C71.5294 38.9662 71.4753 39.1017 71.395 39.2217C71.3482 39.289 71.292 39.3493 71.2281 39.4007C71.1625 39.4472 71.0901 39.4834 71.0136 39.5082C70.7342 39.5963 70.4324 39.5808 70.1635 39.4644C69.9188 39.355 69.6955 39.2028 69.5041 39.0148C69.1474 38.657 68.8557 38.2396 68.6421 37.7814C68.4222 37.3401 68.2363 36.8825 68.086 36.4128H68.4038C68.2478 36.7532 68.0603 37.0782 67.8437 37.3835C67.6296 37.6867 67.3861 37.9679 67.1167 38.223C66.8454 38.4773 66.5374 38.6892 66.2031 38.8517C65.8735 39.0133 65.5163 39.1105 65.1504 39.1381C65.5023 39.0613 65.8392 38.9269 66.1475 38.7403C66.4494 38.5527 66.7247 38.3252 66.9658 38.0639C67.2103 37.8061 67.4273 37.5234 67.6133 37.2204C67.8011 36.923 67.9607 36.6087 68.0899 36.2815L68.2449 35.8836L68.4038 36.2815C68.5657 36.7279 68.7582 37.1626 68.9798 37.5825C69.1822 37.9971 69.4506 38.376 69.7742 38.7045C69.908 38.8599 70.0796 38.9782 70.2723 39.0479C70.4651 39.1176 70.6725 39.1364 70.8746 39.1023C71.1924 39.0228 71.2083 38.4936 71.1685 38.044C71.121 37.5696 71.048 37.0981 70.9501 36.6316C70.8587 36.1581 70.7634 35.6886 70.6442 35.2231C70.4331 34.2985 70.0821 33.4116 69.6034 32.5933Z" fill="#263238"/>
<path d="M48.3469 54.985L51.3421 46.3354C51.3421 46.3354 44.0409 42.9933 39.858 42.0902C35.675 41.187 34.6303 42.9575 38.3723 46.8049C42.1143 50.6522 48.3469 54.985 48.3469 54.985Z" fill="#FFC727"/>
<path d="M49.818 46.1283C49.2857 47.2503 48.8488 48.42 48.4158 49.5818C47.9828 50.7435 47.5935 51.8974 47.2559 53.079C47.2559 53.1029 47.2837 53.1148 47.2956 53.079C47.7723 51.9372 48.2092 50.7754 48.6382 49.6096C49.0673 48.4439 49.5042 47.306 49.8617 46.1323C49.8697 46.1204 49.83 46.1084 49.818 46.1283Z" fill="#263238"/>
<path opacity="0.1" d="M49.889 50.5489L48.3477 54.985C48.3477 54.985 42.119 50.6563 38.373 46.8089C37.086 45.48 36.367 44.4217 36.1445 43.5981L49.889 50.5489Z" fill="black"/>
<path d="M44.2871 67.2191L23.2852 63.5707C23.2852 63.5707 28.3658 48.6587 32.8189 43.3193C34.9957 40.6974 38.1975 41.7597 39.5123 42.9016C39.9096 43.2637 44.0249 48.9253 44.4301 51.2846C44.7757 53.3654 43.3616 55.5895 43.3616 55.5895L44.2871 67.2191Z" fill="#FFC727"/>
<path d="M42.3486 55.6019C41.5568 55.5215 40.761 55.4857 39.9652 55.4945C39.568 55.4945 39.1707 55.5303 38.7735 55.5661C38.5868 55.586 38.4001 55.6059 38.2134 55.6337C38.0267 55.6616 37.8161 55.7133 37.5977 55.7372C37.5977 55.7372 37.5977 55.773 37.5977 55.769C37.7923 55.769 37.9949 55.769 38.1895 55.769H38.7775C39.1747 55.769 39.5719 55.769 39.9692 55.7372C40.7636 55.7093 41.5581 55.6894 42.3526 55.6894C42.3883 55.6695 42.3883 55.6059 42.3486 55.6019Z" fill="#263238"/>
<path d="M30.4437 44.6526C22.4235 51.4163 14.7647 66.4795 18.0459 68.3454C21.049 70.0523 31.1786 69.9369 35.3973 69.4117C36.6366 69.2605 35.2542 59.6242 33.9314 59.7834C32.3425 59.9783 28.2788 60.1056 28.1199 60.0738C27.7782 60.0141 32.851 49.4429 34.4757 45.5557C36.732 40.1408 33.4548 42.1142 30.4437 44.6526Z" fill="#EB9481"/>
<path d="M46.6045 59.0311C46.7283 59.3085 46.7646 59.6172 46.7085 59.9158C46.6524 60.2144 46.5066 60.4888 46.2907 60.7022C46.7315 60.9776 47.0608 61.4005 47.2202 61.8958C47.4705 62.7711 46.2072 63.5429 46.2072 63.5429C46.606 63.918 46.8829 64.4046 47.0017 64.9394C47.1566 65.8028 45.9927 66.7656 45.9927 66.7656C46.1651 67.312 46.1355 67.9023 45.9093 68.4287C45.2459 69.8133 42.9221 70.0759 41.4444 70.2549C39.9666 70.4339 35.6129 69.5666 34.7668 69.483L33.5234 60.0019C33.5234 60.0019 39.915 57.3044 41.6787 57.3402C43.1565 57.3561 46.0881 57.9927 46.6045 59.0311Z" fill="#EB9481"/>
<path d="M46.2073 60.559C44.6183 60.1612 43.0294 60.2288 41.4087 60.2129C41.4013 60.2129 41.3942 60.2158 41.389 60.221C41.3838 60.2263 41.3809 60.2334 41.3809 60.2407C41.3809 60.2481 41.3838 60.2552 41.389 60.2604C41.3942 60.2657 41.4013 60.2686 41.4087 60.2686C42.9976 60.2686 44.5866 60.5789 46.1954 60.6386C46.2059 60.6402 46.2167 60.6375 46.2252 60.6312C46.2338 60.6248 46.2395 60.6153 46.2411 60.6048C46.2426 60.5942 46.24 60.5835 46.2336 60.5749C46.2273 60.5663 46.2178 60.5606 46.2073 60.559Z" fill="#263238"/>
<path d="M46.1594 63.4119C45.7931 63.3515 45.4203 63.3408 45.0511 63.3801C44.6539 63.3801 44.2567 63.4199 43.8594 63.4477C43.0649 63.5074 42.2705 63.583 41.5078 63.6825C41.476 63.6825 41.472 63.7421 41.5078 63.7382C42.3022 63.6825 43.0729 63.6387 43.8594 63.6148C44.2567 63.6148 44.6539 63.591 45.0511 63.587C45.4219 63.6044 45.7935 63.5817 46.1594 63.5193C46.1712 63.5161 46.1815 63.5091 46.1889 63.4994C46.1963 63.4897 46.2003 63.4778 46.2003 63.4656C46.2003 63.4534 46.1963 63.4416 46.1889 63.4318C46.1815 63.4221 46.1712 63.4151 46.1594 63.4119Z" fill="#263238"/>
<path d="M45.9652 66.754C45.6337 66.7057 45.2964 66.7151 44.9681 66.7818L43.8955 66.8773C43.1805 66.937 42.4655 66.9967 41.7505 67.0325C41.7431 67.0325 41.736 67.0354 41.7308 67.0406C41.7256 67.0459 41.7227 67.053 41.7227 67.0603C41.7227 67.0677 41.7256 67.0748 41.7308 67.08C41.736 67.0852 41.7431 67.0882 41.7505 67.0882C42.4774 67.0563 43.2083 67.0325 43.9353 66.9967L45.0078 66.933C45.3355 66.9436 45.6625 66.895 45.9731 66.7898C45.9731 66.7898 45.9652 66.758 45.9652 66.754Z" fill="#263238"/>
<path d="M21.8281 53.2067L30.2257 56.8192C30.2257 56.8192 34.075 49.7611 35.2707 45.6512C36.4663 41.5412 34.7821 40.3636 30.6826 43.829C26.5831 47.2944 21.8281 53.2067 21.8281 53.2067Z" fill="#FFC727"/>
<path d="M30.5206 55.0209C29.4481 54.4082 28.312 53.891 27.1838 53.3738C26.0557 52.8565 24.9394 52.3871 23.7835 51.9653C23.7835 51.9653 23.7477 51.9932 23.7835 52.0011C24.8918 52.5621 26.0159 53.0833 27.1481 53.5926C28.2802 54.1019 29.3766 54.6191 30.5206 55.0607C30.5286 55.0726 30.5445 55.0329 30.5206 55.0209Z" fill="#263238"/>
<path d="M34.1712 48.7466C33.635 50.1471 33.0232 51.5316 32.3757 52.8724C32.0539 53.5488 31.7163 54.2172 31.3707 54.8618C31.0251 55.5063 30.6636 56.1867 30.2624 56.8272V56.8591H30.2266C30.028 56.7636 29.8294 56.6601 29.6348 56.5567L30.2624 56.7795H30.2068L31.1602 54.7424L32.1334 52.7173C32.4631 52.0489 32.7888 51.3725 33.1384 50.7279C33.488 50.0834 33.8058 49.3951 34.1712 48.7466Z" fill="#263238"/>
<path d="M32.5859 52.1203C32.7503 51.7563 32.9484 51.4086 33.1778 51.0819C33.4 50.7487 33.6527 50.4371 33.9326 50.1509C33.5988 50.8852 33.1435 51.5578 32.5859 52.1402V52.1203Z" fill="#263238"/>
<path d="M34.3728 43.0172C34.5714 43.3395 36.9906 45.0503 38.5597 44.4416C39.0721 44.2427 38.1108 41.4019 38.1108 41.4019L38.087 41.1791L37.7613 37.9962L33.5744 36.9339L32.9785 36.8105C32.9785 36.8105 33.1255 37.666 33.3162 38.7362C33.3162 38.784 33.3162 38.8357 33.344 38.8874C33.3718 38.9391 33.344 39.0068 33.3718 39.0625C33.3996 39.2216 33.4274 39.3847 33.4592 39.5479C33.491 39.711 33.5029 39.7906 33.5307 39.9179C33.5585 40.0452 33.5863 40.1725 33.6101 40.3157C33.8046 41.2321 34.0594 42.1346 34.3728 43.0172Z" fill="#EB9481"/>
<path d="M33.3162 38.7561C33.8874 39.4825 34.6097 40.0755 35.433 40.494C36.2562 40.9124 37.1605 41.1462 38.0831 41.1791L37.7574 37.9962L33.5705 36.9339L32.9746 36.8105C32.9746 36.8105 33.1256 37.6859 33.3162 38.7561Z" fill="#263238"/>
<path d="M40.6499 31.7737C43.0016 36.8266 40.2527 38.8079 39.1603 39.3132C38.1712 39.7747 34.747 41.219 31.8869 36.4367C29.0268 31.6543 30.6237 28.9608 32.8283 27.7871C35.033 26.6134 38.2943 26.7208 40.6499 31.7737Z" fill="#EB9481"/>
<path d="M38.5674 30.6675C38.4403 30.7073 38.3211 30.7272 38.19 30.755C38.0612 30.7987 37.9216 30.7987 37.7928 30.755C37.7544 30.7345 37.7236 30.7022 37.705 30.6627C37.6864 30.6233 37.6809 30.5789 37.6895 30.5362C37.7224 30.4539 37.7765 30.3818 37.8463 30.3273C37.9161 30.2728 37.999 30.2378 38.0867 30.2259C38.2592 30.1749 38.4443 30.1891 38.6071 30.2656C38.6489 30.2829 38.6841 30.3132 38.7073 30.3521C38.7306 30.391 38.7408 30.4363 38.7363 30.4814C38.7319 30.5264 38.713 30.5689 38.6826 30.6024C38.6522 30.6359 38.6118 30.6588 38.5674 30.6675Z" fill="#263238"/>
<path d="M35.8793 33.2299C36.0009 33.19 36.1203 33.1435 36.2368 33.0906C36.3695 33.0573 36.4879 32.9819 36.5745 32.8758C36.5957 32.8373 36.6033 32.7928 36.5961 32.7495C36.5889 32.7062 36.5672 32.6665 36.5347 32.6371C36.4622 32.5881 36.378 32.5593 36.2908 32.5537C36.2035 32.5481 36.1163 32.5659 36.0382 32.6052C35.8702 32.6613 35.7287 32.7774 35.641 32.9315C35.6232 32.9674 35.6161 33.0077 35.6204 33.0476C35.6247 33.0875 35.6403 33.1254 35.6653 33.1567C35.6903 33.188 35.7237 33.2115 35.7616 33.2245C35.7995 33.2375 35.8404 33.2393 35.8793 33.2299Z" fill="#263238"/>
<path d="M36.9551 33.5083C36.9551 33.5083 36.9551 33.5361 36.9551 33.5481C37.1338 33.8823 37.2808 34.2961 37.0306 34.5626C37.3801 34.3398 37.1775 33.7948 36.9551 33.5083Z" fill="#263238"/>
<path d="M36.474 33.3013C35.906 33.532 36.4065 34.6501 36.9309 34.4352C37.4552 34.2204 36.9467 33.1103 36.474 33.3013Z" fill="#263238"/>
<path d="M36.2804 33.4605C36.2128 33.5679 36.1691 33.7231 36.054 33.7868C35.9827 33.8108 35.9066 33.8168 35.8325 33.8043C35.7583 33.7918 35.6884 33.7612 35.6289 33.7151C35.6289 33.7151 35.6289 33.7152 35.6289 33.739C35.7203 33.9539 35.903 34.1369 36.1453 34.0653C36.2484 34.0188 36.3306 33.9358 36.3761 33.8322C36.4216 33.7286 36.4271 33.6117 36.3916 33.5043C36.3717 33.4605 36.3082 33.4167 36.2804 33.4605Z" fill="#263238"/>
<path d="M38.8145 32.4937C38.8145 32.4937 38.8502 32.4936 38.8581 32.5135C38.9972 32.8637 39.2196 33.2456 39.5851 33.2217C39.168 33.357 38.878 32.8517 38.8145 32.4937Z" fill="#263238"/>
<path d="M38.9497 31.9962C39.4899 31.7057 40.0262 32.7919 39.5257 33.0744C39.0252 33.3569 38.5008 32.2349 38.9497 31.9962Z" fill="#263238"/>
<path d="M39.2116 31.9567C39.3268 31.9567 39.4658 32.0363 39.5731 31.9925C39.6803 31.9488 39.728 31.7777 39.7479 31.6265C39.7479 31.6265 39.7479 31.6265 39.7717 31.6265C39.8372 31.7151 39.8691 31.8241 39.8619 31.9342C39.8546 32.0442 39.8086 32.148 39.732 32.2272C39.5691 32.3546 39.3347 32.2272 39.1917 32.0522C39.1679 32.0363 39.1679 31.9487 39.2116 31.9567Z" fill="#263238"/>
<path d="M38.1469 36.3371C38.2621 36.3849 38.3932 36.4684 38.5441 36.4287C38.6744 36.3735 38.792 36.2923 38.8897 36.1899C38.8897 36.1899 38.9136 36.1899 38.8897 36.1899C38.8675 36.279 38.8213 36.3602 38.7561 36.4247C38.691 36.4893 38.6094 36.5347 38.5203 36.556C38.4414 36.5658 38.3614 36.5518 38.2906 36.5156C38.2197 36.4794 38.1614 36.4228 38.123 36.3531C38.123 36.3531 38.131 36.3292 38.1469 36.3371Z" fill="#263238"/>
<path d="M39.0097 34.4233C39.0097 34.4233 39.3196 34.9047 39.4308 35.1474C39.4308 35.1474 39.3871 35.2071 39.3076 35.2509C39.1173 35.386 38.8934 35.4657 38.6606 35.4812C38.4278 35.4966 38.1953 35.4472 37.9888 35.3384C37.961 35.3384 37.9888 35.2827 37.9888 35.2866C38.3954 35.3552 38.8132 35.291 39.1805 35.1036C39.1805 35.028 38.6244 34.3079 38.6601 34.2721C38.8574 34.2022 39.0632 34.1593 39.2719 34.1448C38.6562 33.1223 37.8816 32.2072 37.2857 31.1807C37.2658 31.1409 37.3175 31.1051 37.3413 31.1329C38.2001 32.089 38.9613 33.1286 39.6135 34.2363C39.7089 34.3716 39.1249 34.4233 39.0097 34.4233Z" fill="#263238"/>
<path d="M39.1198 35.2666C39.0631 35.5029 38.9469 35.7208 38.7821 35.8992C38.689 35.9951 38.5681 36.0591 38.4365 36.0822C38.1505 36.126 38.0393 35.8952 37.9956 35.6844C37.9806 35.5655 37.9806 35.4452 37.9956 35.3263C38.3673 35.4251 38.7606 35.4042 39.1198 35.2666Z" fill="#263238"/>
<path d="M38.7826 35.8994C38.6895 35.9953 38.5686 36.0593 38.437 36.0824C38.151 36.1262 38.0398 35.8954 37.9961 35.6846C38.1324 35.6276 38.2837 35.6178 38.4262 35.6567C38.5687 35.6956 38.6941 35.7811 38.7826 35.8994Z" fill="#FF9CBD"/>
<path d="M32.4341 36.711C33.6258 36.0227 32.0369 32.0361 31.8224 31.5388C31.9693 31.8372 32.74 33.4246 32.8909 33.4246C33.0219 33.3516 33.14 33.2575 33.2405 33.1461C33.1434 32.9579 33.0611 32.7623 32.9942 32.5613C32.9585 32.4698 33.1213 32.7363 33.3477 33.0467L33.5424 32.8637C33.3198 32.4714 33.1502 32.0513 33.0379 31.6144C32.9982 31.4473 33.3835 32.0918 33.8324 32.6011C34.7238 31.7423 35.7069 30.9844 36.764 30.3412C37.0659 30.1701 37.332 30.0348 37.5585 29.9433C37.3904 29.6724 37.2379 29.3921 37.1017 29.1038C37.3382 29.3365 37.5523 29.5909 37.7412 29.8637C37.8723 29.8041 37.9915 29.7484 38.1027 29.7046C37.7968 29.0362 36.9467 28.1569 37.1334 28.2643C37.6977 28.5926 38.194 29.0261 38.5953 29.5415C39.0839 29.3943 39.2547 29.4181 39.207 29.2948C38.8734 28.639 38.4139 28.0555 37.855 27.5777C37.2961 27.0998 36.6487 26.7369 35.9497 26.5098C33.6497 25.8612 30.2334 27.3652 29.6654 30.4884C29.6654 30.4884 28.2154 32.6966 28.7716 34.3198C29.3277 35.9431 31.735 37.1049 32.4341 36.711Z" fill="#263238"/>
<path d="M32.8551 36.4484C32.8551 36.4484 31.1191 35.2309 30.5273 35.9112C29.9354 36.5916 31.6554 38.6446 32.6445 38.6486C32.7709 38.6583 32.8979 38.6423 33.0179 38.6015C33.1379 38.5607 33.2484 38.4959 33.3427 38.4111C33.437 38.3263 33.5132 38.2232 33.5666 38.1081C33.62 37.993 33.6496 37.8683 33.6535 37.7414L32.8551 36.4484Z" fill="#EB9481"/>
<path d="M31.0488 36.4883V36.5122C31.3791 36.5501 31.6977 36.6567 31.9844 36.8253C32.271 36.9938 32.5193 37.2206 32.7133 37.4909C32.6554 37.44 32.587 37.4026 32.5129 37.3813C32.4388 37.3601 32.361 37.3556 32.285 37.3681C32.209 37.3807 32.1367 37.41 32.0734 37.454C32.01 37.4979 31.9572 37.5554 31.9188 37.6222C31.9188 37.6421 31.9188 37.658 31.9466 37.6501C32.0409 37.576 32.156 37.5335 32.2758 37.5285C32.3955 37.5235 32.5138 37.5562 32.6139 37.6222C32.7829 37.7374 32.9388 37.8709 33.0787 38.0201C33.1264 38.0638 33.2138 38.0201 33.1701 37.9445C32.9119 37.1289 31.9108 36.2615 31.0488 36.4883Z" fill="#263238"/>
<path d="M38.1352 41.4019L37.7698 44.1272L33.9126 41.7798L33.2969 43.0013C33.2969 43.0013 37.5553 47.2067 37.5195 46.9799L37.9962 44.5927L39.8394 45.7028L38.7788 42.0106L38.1352 41.4019Z" fill="#EBEBEB"/>
<path d="M39.4179 43.8448C39.2193 43.2401 39.0207 42.6274 38.8181 42.0345C38.8181 42.0345 38.7744 42.0107 38.7744 42.0345C38.8022 42.6592 39.5689 44.9628 39.7039 45.5278C39.6245 45.48 38.0117 44.5729 38.0038 44.5928C37.8687 44.9907 37.5152 46.7293 37.4993 46.8845C36.824 46.2161 34.0234 43.6141 33.2727 43.0133C33.2727 42.9934 33.221 43.0133 33.2409 43.0411C33.8725 43.7692 37.5152 47.2147 37.5469 47.1948C37.7547 46.3631 37.9191 45.5212 38.0395 44.6724C38.6577 45.1142 39.3054 45.513 39.978 45.866C39.843 45.2334 39.6086 44.4496 39.4179 43.8448Z" fill="#263238"/>
<path d="M44.5906 27.3336C44.0043 26.4679 43.6877 25.4474 43.6809 24.4013C43.6809 20.6852 47.7566 17.6694 52.7777 17.6694C57.7988 17.6694 61.8744 20.6852 61.8744 24.4013C61.8744 28.1174 57.8027 31.1292 52.7777 31.1292C50.5442 31.1617 48.3546 30.5062 46.5053 29.2513L43.3711 30.047L44.5906 27.3336Z" fill="#FFC727"/>
<path d="M56.0508 24.401C56.0508 24.5885 56.1063 24.7717 56.2104 24.9275C56.3145 25.0833 56.4624 25.2047 56.6353 25.2762C56.8083 25.3478 56.9986 25.3663 57.1821 25.3294C57.3656 25.2926 57.5341 25.202 57.6661 25.0692C57.7982 24.9363 57.8879 24.7673 57.924 24.5833C57.96 24.3994 57.9407 24.2089 57.8685 24.0359C57.7964 23.8629 57.6746 23.7153 57.5186 23.6118C57.3626 23.5082 57.1794 23.4533 56.9922 23.4541C56.8683 23.4541 56.7455 23.4786 56.631 23.5263C56.5166 23.5739 56.4126 23.6437 56.3251 23.7317C56.2377 23.8197 56.1684 23.9241 56.1213 24.039C56.0742 24.1538 56.0503 24.2769 56.0508 24.401Z" fill="#263238"/>
<path d="M52.7774 25.3439C53.2973 25.3439 53.7188 24.9217 53.7188 24.4009C53.7188 23.8802 53.2973 23.458 52.7774 23.458C52.2574 23.458 51.8359 23.8802 51.8359 24.4009C51.8359 24.9217 52.2574 25.3439 52.7774 25.3439Z" fill="#263238"/>
<path d="M48.5625 25.3439C49.0825 25.3439 49.504 24.9217 49.504 24.4009C49.504 23.8802 49.0825 23.458 48.5625 23.458C48.0426 23.458 47.6211 23.8802 47.6211 24.4009C47.6211 24.9217 48.0426 25.3439 48.5625 25.3439Z" fill="#263238"/>
<path d="M105.577 136.066L73.5242 141.875C56.2881 144.759 35.7072 145.563 5.89844 142.507L38.1144 137.108C64.1812 139.265 88.3412 138.95 105.577 136.066Z" fill="#FFC727"/>
<path d="M107.575 146.557L73.1699 152.223C84.8527 150.269 97.0598 146.904 105.696 142.646C153.603 119.447 173.747 39.0941 174.021 38.3262H212.592C212.303 39.0941 207.758 52.2514 188.52 88.9505C176.623 110.765 159.037 126.827 137.904 137.247C129.28 141.509 119.257 144.6 107.575 146.557Z" fill="#FFC727"/>
<g opacity="0.3">
<path d="M107.575 146.557L73.1699 152.223C84.8527 150.269 97.0598 146.904 105.696 142.646C153.603 119.447 173.747 39.0941 174.021 38.3262H212.592C212.303 39.0941 207.758 52.2514 188.52 88.9505C176.623 110.765 159.037 126.827 137.904 137.247C129.28 141.509 119.257 144.6 107.575 146.557Z" fill="white"/>
</g>
<path d="M165.071 34.2998L174.033 38.3262C173.747 39.0941 154.771 118.074 105.708 142.646C75.8002 157.618 50.222 156.719 6.22 153.078L5.91016 142.507C48.6569 146.04 81.4569 143.45 101.911 132.728C148.054 108.53 165.004 34.4788 165.071 34.2998Z" fill="#FFC727"/>
<g opacity="0.1">
<path d="M165.071 34.2998L174.033 38.3262C173.747 39.0941 154.771 118.074 105.708 142.646C75.8002 157.618 50.222 156.719 6.22 153.078L5.91016 142.507C48.6569 146.04 81.4569 143.45 101.911 132.728C148.054 108.53 165.004 34.4788 165.071 34.2998Z" fill="black"/>
</g>
<path d="M165.072 34.2998H206.643L212.602 38.3262H174.034L165.072 34.2998Z" fill="#FFC727"/>
<path d="M196.736 8.41895L223.768 42.7627L160.062 42.5916L196.736 8.41895Z" fill="#FFC727"/>
<g opacity="0.3">
<path d="M196.736 8.41895L223.768 42.7627L160.062 42.5916L196.736 8.41895Z" fill="white"/>
</g>
<path d="M160.063 42.5915L149.107 34.1726L185.78 0L196.736 8.41883L160.063 42.5915Z" fill="#FFC727"/>
<g opacity="0.1">
<path d="M160.063 42.5915L149.107 34.1726L185.78 0L196.736 8.41883L160.063 42.5915Z" fill="black"/>
</g>
<path d="M177.505 154.097C178.3 154.352 200.942 154.057 201.784 153.496C202.114 153.289 202.265 149.987 202.328 145.985V145.861C202.328 145.038 200.235 131.212 200.235 131.212L185.096 131.363L187.722 145.885V146.136C187.722 146.136 179.11 150.114 178.236 150.843C177.362 151.571 176.711 153.842 177.505 154.097Z" fill="#AD6359"/>
<path d="M177.503 154.093C177.9 154.224 184.061 154.213 190.071 154.093C191.263 154.069 192.482 154.041 193.646 154.01C197.933 153.894 201.476 153.715 201.806 153.5C202.135 153.285 202.278 150.083 202.346 146.156C202.346 146.1 202.346 146.044 202.346 145.989C202.346 145.933 202.346 145.901 202.346 145.861L187.759 145.889V146.14C187.759 146.14 179.143 150.118 178.269 150.847C177.395 151.575 176.708 153.843 177.503 154.093Z" fill="#A6A6A6"/>
<path d="M177.748 153.214C181.561 153.071 196.962 152.852 200.74 152.999C200.772 152.999 200.772 153.023 200.74 153.023C196.962 153.25 181.561 153.341 177.744 153.278C177.668 153.274 177.668 153.218 177.748 153.214Z" fill="#263238"/>
<path d="M186.101 145.949C187.599 145.65 189.438 145.857 190.598 146.912C190.646 146.955 190.598 147.019 190.538 147.003C189.097 146.557 187.612 146.267 186.109 146.14C186.084 146.141 186.059 146.132 186.041 146.115C186.022 146.097 186.011 146.073 186.01 146.048C186.009 146.023 186.018 145.998 186.035 145.979C186.052 145.961 186.076 145.95 186.101 145.949Z" fill="#263238"/>
<path d="M185.025 146.621C186.523 146.323 188.362 146.53 189.526 147.584C189.569 147.628 189.526 147.691 189.462 147.675C188.021 147.229 186.536 146.94 185.033 146.812C185.008 146.813 184.983 146.804 184.964 146.787C184.946 146.77 184.935 146.746 184.934 146.721C184.933 146.695 184.942 146.67 184.959 146.652C184.976 146.633 185 146.622 185.025 146.621Z" fill="#263238"/>
<path d="M183.949 147.286C185.45 146.987 187.29 147.194 188.45 148.248C188.493 148.292 188.45 148.352 188.386 148.34C186.946 147.894 185.463 147.604 183.961 147.477C183.936 147.478 183.911 147.47 183.892 147.453C183.873 147.436 183.861 147.412 183.86 147.387C183.858 147.362 183.867 147.337 183.883 147.318C183.9 147.299 183.924 147.287 183.949 147.286Z" fill="#263238"/>
<path d="M187.428 145.937H202.809C202.809 145.937 197.645 113.471 197.788 112.803C197.851 112.46 217.677 77.3408 217.677 77.3408H200.282C200.282 77.3408 184.202 102.458 181.978 108.788C180.373 113.383 187.428 145.937 187.428 145.937Z" fill="#263238"/>
<path d="M187.054 142.949C187.98 142.873 188.906 142.794 189.835 142.754C190.765 142.714 191.69 142.706 192.616 142.686C194.47 142.646 196.323 142.616 198.177 142.595C198.705 142.595 199.234 142.595 199.766 142.595C200.298 142.595 200.827 142.65 201.355 142.595C201.395 142.595 201.395 142.658 201.355 142.658C200.894 142.658 200.429 142.754 199.969 142.786C199.508 142.818 199.039 142.865 198.578 142.897C197.651 142.955 196.725 143.003 195.798 143.04C193.947 143.12 192.095 143.144 190.236 143.152C189.176 143.152 188.119 143.076 187.058 143.001C187.054 143.006 187.048 143.009 187.041 143.011C187.034 143.013 187.027 143.013 187.02 143.01C187.014 143.008 187.008 143.004 187.004 142.999C186.999 142.993 186.997 142.986 186.996 142.979C186.996 142.972 186.997 142.965 187.001 142.959C187.004 142.953 187.009 142.948 187.015 142.945C187.021 142.942 187.028 142.94 187.035 142.941C187.042 142.942 187.049 142.944 187.054 142.949Z" fill="#455A64"/>
<path d="M195.699 111.502C195.999 110.54 196.442 109.629 197.014 108.8L200.489 103.023C202.846 99.1161 205.213 95.2184 207.588 91.3299C208.78 89.4043 209.972 87.4826 211.135 85.5609C212.228 83.7864 214.711 79.0399 214.985 78.5823C214.985 78.5465 215.06 78.5823 215.044 78.5823C214.25 80.2573 213.205 82.3461 212.224 84.0888C211.147 86.0025 209.999 87.8765 208.883 89.7623C206.591 93.6336 204.259 97.4809 201.935 101.332C200.768 103.274 199.588 105.215 198.412 107.157C197.848 108.092 197.268 109.015 196.724 109.942C196.163 110.841 195.868 111.882 195.874 112.942C195.931 114.054 196.051 115.162 196.231 116.26C196.374 117.366 196.521 118.476 196.672 119.582C196.971 121.8 197.281 124.013 197.602 126.223C198.253 130.671 198.927 135.114 199.623 139.551C199.711 140.104 199.802 140.657 199.894 141.206C199.894 141.262 199.822 141.282 199.814 141.206C199.02 136.77 198.225 132.326 197.574 127.866C196.922 123.406 196.291 118.938 195.703 114.466C195.52 113.486 195.518 112.482 195.699 111.502Z" fill="#455A64"/>
<path d="M251.389 155.326C250.594 155.573 227.952 155.048 227.113 154.479C226.788 154.268 226.673 150.962 226.645 146.963V146.836C226.645 146.012 220.65 132.159 220.65 132.159L235.444 132.461L241.251 147.019V147.266C241.251 147.266 249.824 151.348 250.69 152.072C251.556 152.796 252.183 155.08 251.389 155.326Z" fill="#AD6359"/>
<path d="M251.388 155.327C250.593 155.573 227.951 155.048 227.113 154.479C226.787 154.268 226.672 150.962 226.644 146.964V146.836C226.644 146.836 225.635 144.051 225.631 143.944L240.237 144.202L241.25 147.015V147.262C241.25 147.262 249.823 151.344 250.689 152.068C251.555 152.792 252.182 155.08 251.388 155.327Z" fill="#EBEBEB"/>
<path d="M251.388 155.326C250.594 155.573 227.951 155.048 227.113 154.479C226.788 154.268 226.672 150.962 226.645 146.963V146.836L241.251 147.015V147.262C241.251 147.262 249.823 151.344 250.689 152.068C251.555 152.792 252.183 155.08 251.388 155.326Z" fill="#A6A6A6"/>
<path d="M251.151 154.443C247.341 154.26 231.944 153.882 228.163 153.994C228.131 153.994 228.131 153.994 228.163 154.018C231.936 154.28 247.333 154.531 251.151 154.503C251.23 154.503 251.234 154.447 251.151 154.443Z" fill="#263238"/>
<path d="M242.876 147.095C241.378 146.776 239.539 146.967 238.367 148.01C238.319 148.05 238.367 148.113 238.427 148.101C239.873 147.672 241.36 147.397 242.864 147.282C242.886 147.279 242.906 147.268 242.921 147.252C242.936 147.236 242.945 147.215 242.947 147.193C242.948 147.171 242.942 147.149 242.929 147.131C242.916 147.113 242.897 147.1 242.876 147.095Z" fill="#263238"/>
<path d="M243.944 147.771C242.447 147.457 240.607 147.644 239.435 148.69C239.388 148.73 239.435 148.794 239.495 148.778C240.942 148.356 242.429 148.089 243.932 147.982C243.96 147.984 243.988 147.974 244.008 147.955C244.029 147.937 244.042 147.91 244.043 147.882C244.045 147.855 244.035 147.827 244.017 147.806C243.998 147.785 243.972 147.773 243.944 147.771Z" fill="#263238"/>
<path d="M245.009 148.451C243.515 148.137 241.676 148.324 240.504 149.37C240.456 149.41 240.504 149.474 240.563 149.458C242.01 149.034 243.497 148.768 245.001 148.662C245.028 148.663 245.056 148.653 245.076 148.634C245.097 148.615 245.109 148.589 245.11 148.561C245.111 148.533 245.101 148.506 245.082 148.485C245.063 148.464 245.036 148.452 245.009 148.451Z" fill="#263238"/>
<path d="M202.115 77.3408C202.115 77.3408 204.197 90.0725 204.34 90.4704C204.34 90.4704 205.114 90.8364 206.513 91.4849L223.391 147.206L242.061 147.274L219.9 77.3408H202.115Z" fill="#263238"/>
<path d="M203.669 90.0766C205.287 90.7517 206.843 91.5664 208.321 92.5115C208.333 92.5178 208.343 92.5289 208.347 92.5424C208.352 92.5558 208.351 92.5704 208.344 92.5831C208.338 92.5958 208.327 92.6054 208.314 92.6099C208.3 92.6143 208.285 92.6133 208.273 92.607C206.684 91.8431 205.095 91.1031 203.566 90.2556C203.549 90.2388 203.539 90.2172 203.536 90.1939C203.533 90.1707 203.538 90.1472 203.55 90.1269C203.561 90.1067 203.579 90.0908 203.601 90.0817C203.622 90.0726 203.646 90.0708 203.669 90.0766Z" fill="#455A64"/>
<path d="M204.259 82.7879C204.517 84.3117 204.656 85.8594 204.831 87.3912C204.871 87.7612 204.914 88.1272 204.954 88.4972C204.963 88.8363 205.055 89.1681 205.22 89.4641C205.599 89.9305 206.106 90.2751 206.678 90.4547C206.689 90.4611 206.697 90.4709 206.702 90.4826C206.706 90.4942 206.706 90.507 206.703 90.5189C206.699 90.5309 206.692 90.5412 206.681 90.5484C206.671 90.5555 206.659 90.5589 206.646 90.5582C206.07 90.4168 205.537 90.1337 205.097 89.7346C204.608 89.2174 204.624 88.4336 204.549 87.7692C204.333 86.1198 204.213 84.4592 204.191 82.7958C204.191 82.7561 204.255 82.7481 204.259 82.7879Z" fill="#455A64"/>
<path d="M206.111 83.2571C206.162 84.3512 206.285 85.4493 206.377 86.5435C206.42 87.0845 206.46 87.6257 206.492 88.1667C206.546 88.7194 206.573 89.2745 206.571 89.8298C206.571 89.8656 206.512 89.8776 206.508 89.8298C206.416 89.3086 206.404 88.7675 206.361 88.2384C206.317 87.7092 206.277 87.1283 206.246 86.5753C206.186 85.4652 206.154 84.3512 206.055 83.2452C206.051 83.2213 206.107 83.2213 206.111 83.2571Z" fill="#455A64"/>
<path d="M208.495 93.8243C209.79 96.9794 223.618 142.268 223.765 142.662C223.766 142.666 223.767 142.669 223.767 142.673C223.767 142.677 223.767 142.681 223.766 142.684C223.764 142.688 223.762 142.691 223.76 142.694C223.757 142.696 223.754 142.699 223.751 142.7C223.747 142.702 223.744 142.703 223.74 142.703C223.736 142.703 223.733 142.702 223.729 142.701C223.726 142.7 223.722 142.698 223.72 142.695C223.717 142.693 223.715 142.69 223.713 142.686C221.862 139.066 210.064 98.2088 208.888 95.0259L208.447 93.8323C208.435 93.8124 208.483 93.7925 208.495 93.8243Z" fill="#455A64"/>
<path d="M223.252 144.075C223.792 143.999 224.353 143.999 224.897 143.964C225.441 143.928 225.989 143.912 226.537 143.9C227.634 143.876 228.73 143.864 229.826 143.848C232.003 143.824 234.18 143.814 236.357 143.816C237.6 143.816 238.844 143.88 240.087 143.908C240.093 143.91 240.098 143.914 240.102 143.919C240.106 143.925 240.108 143.931 240.108 143.938C240.108 143.944 240.106 143.95 240.102 143.956C240.098 143.961 240.093 143.965 240.087 143.968C238.991 144.015 237.898 144.079 236.802 144.123C235.706 144.166 234.609 144.17 233.513 144.186C231.304 144.218 229.096 144.254 226.883 144.246C226.271 144.246 225.659 144.246 225.044 144.222C224.428 144.198 223.852 144.222 223.244 144.139C223.205 144.135 223.22 144.079 223.252 144.075Z" fill="#455A64"/>
<path d="M204.463 58.1602C200.749 55.5183 195.148 49.0928 194.039 46.5584C192.617 43.2999 190.111 32.0522 191.239 30.7393C191.862 30.0112 199.978 31.0894 200.431 31.9966C200.884 32.9037 201.11 42.8065 201.225 43.5625C201.34 44.3184 205.055 51.4243 207.128 54.8101C209.559 58.7768 206.866 59.8869 204.463 58.1602Z" fill="#AD6359"/>
<path d="M191.354 33.4128C190.997 32.7487 190.858 31.9884 190.957 31.2404C191.184 30.0469 191.994 28.7856 191.752 28.0575C191.394 26.9157 190.294 25.0855 190.723 24.6677C191.613 23.8123 192.709 24.4012 194 26.5019C194.334 27.0509 194.822 28.4315 195.235 28.4912C195.954 28.6146 196.256 27.3573 196.34 26.2035C196.503 23.9675 196.284 20.697 197.762 20.2753C198.318 20.1161 198.584 20.9238 198.703 21.9264C198.759 20.4742 198.977 19.03 199.589 18.8271C199.747 18.7804 199.917 18.7955 200.065 18.8694C200.212 18.9432 200.326 19.0702 200.384 19.2249C200.412 19.0555 200.49 18.8983 200.607 18.773C200.724 18.6477 200.876 18.5599 201.043 18.5207C201.615 18.4252 202.012 18.9385 202.29 19.6586C202.338 19.6007 202.399 19.5553 202.468 19.5262C202.538 19.4971 202.613 19.4852 202.688 19.4915C204.233 19.5193 204.9 25.1213 204.36 26.5297C203.227 29.2989 201.719 31.8988 199.879 34.2563C197.853 34.9008 191.354 33.4168 191.354 33.4128Z" fill="#AD6359"/>
<path d="M198.504 28.4551C198.957 27.5179 199.198 26.4923 199.211 25.4512C199.211 24.2258 198.878 23.0322 198.758 21.8227C198.756 21.8175 198.753 21.8131 198.748 21.81C198.744 21.8068 198.738 21.8052 198.733 21.8052C198.727 21.8052 198.722 21.8068 198.717 21.81C198.712 21.8131 198.709 21.8175 198.707 21.8227C198.794 22.4155 198.822 23.0163 198.886 23.6091C198.949 24.2019 199.029 24.7709 199.048 25.3517C199.099 26.4119 198.906 27.4696 198.484 28.4431L198.504 28.4551Z" fill="#263238"/>
<path d="M200.454 28.8055C200.88 27.6999 201.191 26.5533 201.383 25.3838C201.55 24.1027 201.268 22.8136 200.986 21.5643C200.831 20.8124 200.66 20.0604 200.47 19.3164C200.47 19.2846 200.41 19.2925 200.418 19.3164C200.696 20.5975 200.938 21.8866 201.137 23.1797C201.331 24.381 201.285 25.6088 201.002 26.7923C200.843 27.4687 200.629 28.1291 200.414 28.7816L200.454 28.8055Z" fill="#263238"/>
<path d="M202.476 28.7097C202.95 27.7429 203.248 26.6985 203.353 25.6263C203.37 24.3106 203.222 22.998 202.913 21.7192C202.762 21.027 202.583 20.3426 202.396 19.6623C202.396 19.6344 202.34 19.6623 202.348 19.6623C202.732 21.1954 203.018 22.7516 203.203 24.3213C203.299 25.0676 203.281 25.8242 203.151 26.5652C202.983 27.2926 202.754 28.0046 202.468 28.6938C202.468 28.6938 202.476 28.7137 202.476 28.7097Z" fill="#263238"/>
<path d="M201.153 35.2788L190.885 37.4551C190.885 37.4551 193.062 45.5119 193.947 47.4017C194.833 49.2916 201.936 57.4041 204.709 58.8642C207.481 60.3244 209.309 58.8245 207.577 55.1084C205.845 51.3923 202.055 44.2904 201.821 43.4947C201.586 42.699 201.153 35.2788 201.153 35.2788Z" fill="#455A64"/>
<path d="M206.961 58.0168C206.724 58.1929 206.508 58.3959 206.317 58.6215C206.585 58.4995 206.839 58.3473 207.072 58.1679C207.309 57.9927 207.523 57.7897 207.712 57.5632C207.446 57.6862 207.194 57.8383 206.961 58.0168ZM204.578 53.9267C204.377 54.4803 204.296 55.0701 204.339 55.6574C204.54 55.1038 204.621 54.514 204.578 53.9267ZM194.384 43.5464C194.21 43.3091 194.009 43.0928 193.785 42.9019C193.903 43.1718 194.056 43.4258 194.237 43.6578C194.411 43.8947 194.612 44.1098 194.837 44.2984C194.717 44.0321 194.568 43.7799 194.392 43.5464H194.384ZM192.49 37.1089L192.295 37.1487C192.467 37.3843 192.667 37.5981 192.891 37.7853C192.785 37.5458 192.654 37.3189 192.498 37.1089H192.49ZM201.749 51.5634C201.575 51.3261 201.373 51.1098 201.149 50.9189C201.268 51.1888 201.42 51.4428 201.602 51.6748C201.776 51.9117 201.977 52.1267 202.202 52.3153C202.082 52.0491 201.933 51.7969 201.757 51.5634H201.749ZM199.612 44.4535C199.376 44.6273 199.161 44.829 198.972 45.0543C199.239 44.9328 199.491 44.7806 199.723 44.6008C199.96 44.427 200.175 44.2252 200.363 44C200.099 44.122 199.849 44.2742 199.62 44.4535H199.612ZM197.805 35.983L197.745 36.0506L197.956 35.9512L197.805 35.983ZM202.873 47.2187C202.583 47.1755 202.288 47.1662 201.995 47.1909C202.548 47.3918 203.137 47.4731 203.723 47.4296C203.449 47.3267 203.164 47.2559 202.873 47.2187ZM195.771 39.4842C195.48 39.441 195.186 39.4317 194.893 39.4564C195.445 39.6611 196.034 39.7439 196.621 39.6991C196.34 39.5934 196.048 39.5213 195.751 39.4842H195.771ZM196.962 47.3182C196.762 47.8717 196.681 48.4616 196.724 49.0489C196.925 48.4953 197.006 47.9054 196.962 47.3182ZM200.971 38.1951C200.767 38.7492 200.684 39.3409 200.728 39.9298C200.927 39.3744 201.01 38.7839 200.971 38.1951Z" fill="white"/>
<path d="M200.72 38.1555C199.27 38.5533 193.276 39.8862 191.961 40.0891C191.869 40.0891 191.838 40.0493 191.933 40.0214C194.819 39.22 197.747 38.5785 200.704 38.0997C200.711 38.0976 200.719 38.0985 200.726 38.1023C200.733 38.106 200.738 38.1123 200.74 38.1196C200.742 38.127 200.741 38.1349 200.737 38.1417C200.733 38.1484 200.727 38.1533 200.72 38.1555Z" fill="#263238"/>
<path d="M204.708 58.8444C202.722 57.798 198.523 53.334 195.969 50.1948L205.959 51.7863C206.571 53.0038 207.151 54.1735 207.576 55.0965C209.308 58.8046 207.481 60.3046 204.708 58.8444Z" fill="#263238"/>
<path d="M221.019 79.0996C221.019 79.0996 197.026 82.4139 196.974 82.3741C196.625 82.0876 197.868 56.4014 198.822 54.1973C199.838 51.8379 203.016 50.6165 204.808 51.6071C209.293 54.1177 214.981 64.3667 216.328 67.5496C218.584 72.7935 220.868 77.6633 221.019 79.0996Z" fill="#455A64"/>
<path d="M201.756 51.5635C201.697 51.5819 201.638 51.6045 201.582 51.6311L201.617 51.6828C201.791 51.9197 201.992 52.1348 202.217 52.3234C202.092 52.0536 201.938 51.7987 201.756 51.5635ZM201.184 76.8279C200.98 77.382 200.898 77.9737 200.942 78.5626C201.141 78.0072 201.224 77.4167 201.184 76.8279ZM209.526 60.7701C209.322 61.3242 209.24 61.9158 209.284 62.5048C209.483 61.9494 209.566 61.3588 209.526 60.7701ZM204.585 53.9188C204.384 54.4724 204.303 55.0622 204.346 55.6495C204.547 55.096 204.628 54.5061 204.585 53.9188ZM210.893 80.4127C210.882 80.4372 210.873 80.4625 210.865 80.4883H210.897C210.897 80.4657 210.896 80.443 210.893 80.4206V80.4127ZM205.502 69.8852C205.302 70.4387 205.221 71.0286 205.264 71.6159C205.465 71.0623 205.546 70.4724 205.502 69.8852ZM199.147 62.7236C198.946 63.2786 198.865 63.8697 198.908 64.4583C199.109 63.9033 199.19 63.3122 199.147 62.7236ZM215.362 71.3652C215.255 71.6404 215.183 71.9277 215.147 72.2206C215.104 72.5117 215.095 72.8067 215.12 73.0999C215.223 72.824 215.293 72.5369 215.33 72.2445C215.377 71.9566 215.389 71.664 215.366 71.3732L215.362 71.3652ZM211.179 58.4744C211.076 58.4684 210.972 58.4684 210.869 58.4744C210.999 58.5255 211.131 58.568 211.266 58.6017L211.179 58.4744ZM204.311 62.0552C204.02 62.012 203.726 62.0027 203.433 62.0273C203.985 62.2321 204.574 62.3149 205.161 62.27C204.888 62.1662 204.604 62.0941 204.315 62.0552H204.311ZM211.461 69.6146C211.17 69.5715 210.876 69.5621 210.583 69.5868C211.136 69.7877 211.725 69.869 212.311 69.8255C212.032 69.7201 211.741 69.648 211.445 69.6106L211.461 69.6146ZM198.007 68.242C197.825 68.2172 197.642 68.2026 197.458 68.1982C197.458 68.238 197.458 68.2778 197.458 68.3176C197.634 68.3629 197.811 68.3988 197.991 68.425C198.281 68.4682 198.576 68.4775 198.869 68.4529C198.59 68.3489 198.301 68.2781 198.007 68.242ZM212.617 78.0056C212.326 77.9624 212.032 77.9531 211.739 77.9777C212.293 78.1784 212.883 78.2597 213.471 78.2165C213.195 78.114 212.909 78.0433 212.617 78.0056ZM205.181 75.6502C204.89 75.6071 204.595 75.5977 204.303 75.6224C204.857 75.823 205.447 75.9044 206.035 75.8611C205.759 75.7587 205.472 75.6879 205.181 75.6502ZM197.744 74.9341C197.535 74.9075 197.324 74.8929 197.113 74.8903C197.111 74.9234 197.111 74.9566 197.113 74.9898C197.312 75.0459 197.515 75.0885 197.721 75.1171C198.011 75.1622 198.306 75.1716 198.598 75.1449C198.323 75.0418 198.036 74.971 197.744 74.9341ZM206.96 58.0168C206.723 58.193 206.507 58.3959 206.317 58.6216C206.585 58.4996 206.838 58.3474 207.072 58.168C207.308 57.9928 207.523 57.7898 207.711 57.5633C207.445 57.6862 207.193 57.8384 206.96 58.0168ZM215.326 67.5974C215.09 67.7712 214.875 67.9729 214.687 68.1982C214.954 68.0768 215.206 67.9245 215.437 67.7446C215.674 67.5708 215.889 67.3691 216.077 67.1439C215.81 67.2653 215.558 67.4175 215.326 67.5974ZM207.973 66.3641C207.737 66.5379 207.522 66.7396 207.334 66.9648C207.601 66.8434 207.853 66.6912 208.084 66.5113C208.321 66.3375 208.536 66.1358 208.724 65.9105C208.457 66.0319 208.205 66.1842 207.973 66.3641ZM217.678 77.3372C217.44 77.5098 217.225 77.7117 217.038 77.9379C217.571 77.6873 218.046 77.3282 218.433 76.8836C218.163 77.0026 217.909 77.155 217.678 77.3372ZM206.952 79.1037C206.715 79.2764 206.5 79.4782 206.313 79.7045C206.846 79.4538 207.32 79.0947 207.707 78.6501C207.439 78.7694 207.187 78.9218 206.956 79.1037H206.952ZM200.783 71.6397C200.546 71.8124 200.331 72.0142 200.144 72.2405C200.677 71.9899 201.151 71.6308 201.538 71.1862C201.27 71.3055 201.018 71.4578 200.787 71.6397H200.783ZM208.331 54.7384C208.303 54.6983 208.272 54.6598 208.239 54.6231C208.133 54.4984 208.026 54.379 207.918 54.265C207.865 54.2128 207.809 54.1637 207.751 54.1178C207.871 54.3869 208.023 54.6407 208.204 54.8737C208.377 55.1106 208.579 55.3257 208.803 55.5143C208.676 55.2374 208.516 54.9769 208.327 54.7384H208.331ZM212.827 63.949C212.653 63.7117 212.452 63.4955 212.228 63.3045C212.348 63.5736 212.5 63.8274 212.681 64.0604C212.854 64.2973 213.055 64.5124 213.28 64.701C213.158 64.4333 213.005 64.181 212.824 63.949H212.827ZM219.12 73.9275C218.991 73.7706 218.847 73.6267 218.691 73.4978C218.81 73.7677 218.962 74.0217 219.144 74.2537C219.223 74.3532 219.295 74.4487 219.382 74.5442L219.12 73.9275ZM203.627 81.0373C203.69 81.1839 203.764 81.325 203.85 81.459L204.025 81.4352C203.899 81.289 203.76 81.1557 203.608 81.0373H203.627ZM197.852 80.3689C197.677 80.1316 197.476 79.9153 197.252 79.7244C197.371 79.9943 197.523 80.2483 197.705 80.4803C197.878 80.7172 198.08 80.9323 198.304 81.1209C198.175 80.8533 198.017 80.6011 197.832 80.3689H197.852ZM210.341 74.1383C210.166 73.9011 209.965 73.6848 209.741 73.4938C209.86 73.7637 210.012 74.0177 210.194 74.2497C210.367 74.4866 210.569 74.7017 210.794 74.8903C210.665 74.6228 210.506 74.3705 210.321 74.1383H210.341ZM201.558 58.2237C201.383 57.9865 201.182 57.7702 200.958 57.5792C201.077 57.8491 201.229 58.1031 201.411 58.3351C201.584 58.572 201.786 58.7871 202.011 58.9757C201.882 58.704 201.724 58.4477 201.538 58.2118L201.558 58.2237ZM202.976 66.1333C202.802 65.896 202.6 65.6797 202.376 65.4888C202.495 65.7587 202.647 66.0127 202.829 66.2447C203.003 66.4816 203.204 66.6967 203.429 66.8853C203.301 66.6136 203.142 66.3573 202.956 66.1213L202.976 66.1333Z" fill="white"/>
<path d="M199.938 55.3748C201.063 55.5618 203.954 53.3417 204.463 51.5433C204.224 50.6551 203.939 49.7799 203.609 48.9214C203.335 48.0819 203.045 47.143 202.846 46.2637L197.658 48.8578C198.221 49.8829 198.656 50.9732 198.953 52.1043C198.98 52.226 198.996 52.3498 199.001 52.4743C198.999 52.4955 198.999 52.5168 199.001 52.538C199.049 53.2462 198.643 55.1599 199.938 55.3748Z" fill="#AD6359"/>
<path d="M202.58 46.3989C202.659 47.6283 202.687 51.6547 199.577 52.4385C199.389 52.4864 199.198 52.5196 199.005 52.538C199.005 52.5141 199.005 52.4902 199.005 52.4743C199.003 52.3511 198.989 52.2284 198.961 52.1083C198.664 50.9758 198.229 49.8841 197.666 48.8578L202.58 46.3989Z" fill="#263238"/>
<path d="M197.666 37.3398C197.666 37.3398 195.68 37.678 194.885 39.4644C194.091 41.2508 194.091 43.2959 194.242 43.4431C194.393 43.5903 197.666 37.3398 197.666 37.3398Z" fill="#263238"/>
<path d="M204.422 41.2825C204.569 43.3673 202.253 48.7703 200.58 49.7093C198.153 51.07 194.824 50.505 193.827 47.7199C192.866 45.0304 196.008 38.0478 197.8 37.2601C200.489 36.0983 204.203 38.199 204.422 41.2825Z" fill="#AD6359"/>
<path d="M197.871 43.6694C197.871 43.6694 197.891 43.7013 197.871 43.7132C197.697 44.0713 197.562 44.5089 197.832 44.7755V44.7954C197.462 44.5607 197.653 43.9718 197.871 43.6694Z" fill="#263238"/>
<path d="M198.365 43.4388C198.965 43.6536 198.488 44.8393 197.936 44.6324C197.384 44.4255 197.861 43.2558 198.365 43.4388Z" fill="#263238"/>
<path d="M195.847 42.7783C195.847 42.7783 195.811 42.7783 195.807 42.7783C195.668 43.1523 195.454 43.574 195.072 43.5462C195.493 43.6894 195.779 43.1523 195.847 42.7783Z" fill="#263238"/>
<path d="M195.671 42.265C195.099 41.9825 194.578 43.1483 195.111 43.4109C195.643 43.6735 196.151 42.4997 195.671 42.265Z" fill="#263238"/>
<path d="M199.329 42.4961C199.158 42.4587 198.99 42.4109 198.825 42.3529C198.64 42.3269 198.47 42.2401 198.34 42.1062C198.307 42.0563 198.291 41.9968 198.296 41.9371C198.3 41.8773 198.324 41.8206 198.364 41.776C198.456 41.7006 198.566 41.6509 198.683 41.6321C198.8 41.6132 198.92 41.6258 199.031 41.6686C199.272 41.7218 199.483 41.8639 199.623 42.0665C199.65 42.1137 199.662 42.1675 199.66 42.2216C199.658 42.2757 199.64 42.3281 199.609 42.3728C199.579 42.4175 199.536 42.4528 199.487 42.4746C199.437 42.4964 199.383 42.5038 199.329 42.4961Z" fill="#263238"/>
<path d="M195.25 41.6165C195.381 41.7398 195.52 41.8313 195.648 41.9427C195.775 42.0783 195.944 42.1666 196.128 42.1934C196.188 42.1907 196.245 42.1686 196.291 42.1306C196.336 42.0925 196.369 42.0405 196.382 41.9825C196.39 41.8634 196.366 41.7443 196.313 41.6374C196.26 41.5305 196.18 41.4395 196.081 41.3738C195.898 41.2123 195.664 41.122 195.421 41.1191C195.366 41.125 195.314 41.1464 195.271 41.1808C195.228 41.2153 195.196 41.2613 195.178 41.3134C195.16 41.3656 195.157 41.4218 195.17 41.4755C195.183 41.5292 195.211 41.5781 195.25 41.6165Z" fill="#263238"/>
<path d="M197.166 46.9243C197.047 46.9976 196.907 47.0298 196.768 47.0158C196.633 46.958 196.511 46.8726 196.411 46.7651C196.411 46.7651 196.383 46.7651 196.387 46.7651C196.41 46.862 196.459 46.9505 196.529 47.0208C196.599 47.0911 196.688 47.1404 196.784 47.163C196.867 47.173 196.951 47.1583 197.025 47.1208C197.099 47.0833 197.16 47.0246 197.201 46.9521C197.201 46.9521 197.186 46.9163 197.166 46.9243Z" fill="#263238"/>
<path d="M197.221 45.6672C197.07 45.7758 196.898 45.8517 196.717 45.89C196.535 45.9284 196.347 45.9284 196.165 45.89C196.005 45.861 195.851 45.8073 195.708 45.7308C195.679 45.7196 195.65 45.7049 195.625 45.6871L195.549 45.6433C195.532 45.631 195.519 45.6138 195.512 45.5939C195.505 45.5739 195.504 45.5523 195.509 45.5319C195.507 45.5201 195.507 45.508 195.509 45.4961V45.4643C195.617 45.1778 195.815 44.76 195.815 44.76C195.692 44.76 195.072 44.7959 195.14 44.6526C195.679 43.3945 196.344 42.1947 197.126 41.0719C197.129 41.0677 197.132 41.064 197.136 41.0612C197.14 41.0583 197.145 41.0563 197.149 41.0552C197.154 41.0541 197.159 41.0539 197.164 41.0547C197.169 41.0555 197.174 41.0573 197.178 41.0599C197.182 41.0625 197.186 41.0659 197.188 41.0699C197.191 41.0739 197.193 41.0785 197.194 41.0833C197.195 41.0881 197.196 41.0931 197.195 41.0979C197.194 41.1028 197.192 41.1074 197.19 41.1116C196.697 42.2814 195.998 43.3556 195.485 44.5213C195.707 44.5103 195.929 44.529 196.145 44.577C196.181 44.6049 195.748 45.3728 195.708 45.516C195.931 45.6321 196.175 45.7021 196.425 45.7219C196.676 45.7417 196.927 45.7109 197.166 45.6314C197.237 45.6115 197.253 45.6473 197.221 45.6672Z" fill="#263238"/>
<path d="M195.93 45.6548C196.001 45.917 196.137 46.1567 196.327 46.351C196.436 46.4542 196.575 46.5198 196.724 46.5381C197.046 46.5818 197.161 46.3152 197.201 46.0606C197.216 45.9285 197.216 45.7949 197.201 45.6628C196.787 45.7937 196.342 45.7909 195.93 45.6548Z" fill="#263238"/>
<path d="M196.338 46.3591C196.447 46.4623 196.586 46.5278 196.735 46.5461C197.057 46.5899 197.172 46.3233 197.212 46.0687C197.055 46.0123 196.883 46.0103 196.725 46.063C196.566 46.1156 196.43 46.2199 196.338 46.3591Z" fill="#FF9CBD"/>
<path d="M202.595 46.1128C201.931 46.0651 201.943 44.02 202.015 43.2601C202.078 42.5877 202.626 40.5984 202.646 40.4551C202.666 40.3119 199.409 41.1474 198.086 40.1329C196.763 39.1183 196.287 37.3876 196.497 36.755C196.708 36.1224 199.186 35.2511 200.819 35.7922C202.452 36.3333 203.834 39.2178 203.834 39.2178C203.686 38.8168 203.572 38.4043 203.492 37.9844C203.748 38.1582 203.957 38.3918 204.102 38.665C204.246 38.9383 204.322 39.2427 204.323 39.552C204.323 39.552 204.478 38.5454 204.565 38.5573C204.652 38.5693 205.145 39.6793 204.732 40.2125C204.732 40.2125 205.348 41.3782 205.093 42.2973C204.839 43.2163 203.373 46.1685 202.595 46.1128Z" fill="#263238"/>
<path d="M197.149 39.4085C197.498 39.8186 197.908 40.1728 198.364 40.4588C198.895 40.7204 199.481 40.8462 200.072 40.8249C200.661 40.8255 201.247 40.7287 201.804 40.5384C202.297 40.3753 202.773 40.1405 203.278 40.0132C203.401 39.9854 203.461 40.1724 203.365 40.24C202.337 40.922 201.117 41.2528 199.886 41.1829C199.314 41.1535 198.76 40.975 198.279 40.6651C197.797 40.3553 197.405 39.9248 197.141 39.4164C197.141 39.4164 197.145 39.4005 197.149 39.4085Z" fill="#263238"/>
<path d="M202.17 45.6672C202.17 45.6672 203.89 44.1712 204.601 44.8277C205.312 45.4842 203.7 47.8793 202.643 48.0106C202.508 48.0368 202.37 48.0351 202.235 48.0058C202.101 47.9764 201.975 47.92 201.863 47.8399C201.752 47.7598 201.658 47.6578 201.587 47.5401C201.516 47.4224 201.47 47.2914 201.451 47.1552L202.17 45.6672Z" fill="#AD6359"/>
<path d="M204.121 45.5037C204.121 45.5037 204.121 45.5276 204.121 45.5316C203.374 45.635 202.861 46.1722 202.448 46.761C202.505 46.7035 202.573 46.6589 202.649 46.6302C202.724 46.6015 202.805 46.5894 202.886 46.5947C202.966 46.6 203.045 46.6225 203.116 46.6608C203.187 46.6991 203.249 46.7523 203.298 46.8167C203.298 46.8167 203.298 46.8565 203.27 46.8485C203.161 46.781 203.033 46.749 202.904 46.7568C202.775 46.7647 202.652 46.812 202.551 46.8923C202.386 47.0296 202.234 47.1828 202.099 47.3498C202.055 47.4055 201.952 47.3499 201.991 47.2822C202.202 46.399 203.175 45.3565 204.121 45.5037Z" fill="#263238"/>
<path d="M200.041 59.7831C195.238 58.8441 185.883 54.7023 184.429 53.6241C181.374 51.3682 175.162 40.3235 175.69 38.557C175.988 37.5822 184.338 37.2679 185.192 37.9442C186.046 38.6206 189.736 46.8962 190.189 47.5726C190.642 48.2489 200.072 54.6148 202.138 56.433C205.88 59.7154 203.167 60.3958 200.041 59.7831Z" fill="#AD6359"/>
<path d="M184.601 40.9882C184.601 40.9882 186.361 37.8292 187.418 35.7126C188.01 34.519 188.84 32.4103 188.876 31.336C188.927 29.7446 188.137 23.0326 186.512 23.1917C185.038 23.331 186.448 29.0085 186.448 29.0085C186.448 29.0085 185.547 23.1639 183.807 23.6811C182.067 24.1983 184.506 30.3812 184.506 30.3812C184.506 30.3812 183.429 24.3853 181.725 25.1851C180.43 25.7858 182.329 31.531 182.329 31.531C182.329 31.531 181.368 26.3826 180.005 26.9476C178.504 27.5683 179.922 32.9792 179.922 32.9792C176.704 34.9924 175.409 36.4048 175.679 38.9472C175.707 39.3411 184.601 40.9882 184.601 40.9882Z" fill="#AD6359"/>
<path d="M187.066 31.5109C186.983 30.8226 186.904 30.1223 186.761 29.438C186.617 28.7537 186.447 28.0813 186.24 27.4129C185.99 26.5378 185.638 25.6952 185.191 24.9023C185.799 26.3828 186.266 27.9174 186.586 29.4858C186.729 30.1661 186.907 30.8385 187.05 31.5188C187.043 31.5348 187.066 31.5308 187.066 31.5109Z" fill="#263238"/>
<path d="M184.601 32.0801C184.458 31.2008 184.346 30.3215 184.164 29.4502C183.981 28.5789 183.687 27.3734 183.445 26.5219C183.445 26.4543 183.325 26.4543 183.341 26.5219C183.548 27.3813 183.794 28.6306 183.989 29.494C184.183 30.3573 184.418 31.2167 184.581 32.0841C184.601 32.096 184.62 32.092 184.601 32.0801Z" fill="#263238"/>
<path d="M182.615 32.9434C182.427 31.5874 182.101 30.2542 181.642 28.9648C181.618 28.9011 181.586 28.9648 181.602 29.0125C181.952 30.3255 182.238 31.3559 182.567 32.9394C182.563 32.9713 182.615 32.9713 182.615 32.9434Z" fill="#263238"/>
<path d="M176.656 42.5117L187.56 41.3857C187.56 41.3857 189.829 46.6495 190.282 47.2741C190.734 47.8988 200.955 54.6506 202.993 56.3455C205.031 58.0404 204.677 61.1875 200.288 60.3241C196.502 59.5801 186.269 55.3309 184.335 54.0339C182.4 52.7368 176.656 42.5117 176.656 42.5117Z" fill="#455A64"/>
<path d="M201.539 58.2115C201.365 57.9742 201.163 57.7579 200.939 57.5669C201.058 57.8369 201.21 58.0908 201.392 58.3229C201.566 58.5598 201.767 58.7748 201.992 58.9634C201.869 58.6968 201.717 58.4446 201.539 58.2115ZM197.169 58.0205C196.933 58.1943 196.718 58.396 196.53 58.6213C196.797 58.4998 197.049 58.3476 197.281 58.1677C197.517 57.9939 197.732 57.7922 197.92 57.5669C197.655 57.6887 197.404 57.8409 197.173 58.0205H197.169ZM197.638 53.6997C197.348 53.6565 197.053 53.6472 196.76 53.6718C197.317 53.8802 197.912 53.9644 198.504 53.9185C198.226 53.8121 197.937 53.7387 197.642 53.6997H197.638ZM193.737 55.6691C193.537 56.2241 193.456 56.8152 193.499 57.4038C193.699 56.8488 193.78 56.2577 193.737 55.6691ZM180.084 43.9162C179.91 43.6789 179.708 43.4626 179.484 43.2716C179.603 43.5416 179.755 43.7956 179.937 44.0276C180.111 44.2645 180.312 44.4795 180.537 44.6681C180.418 44.4021 180.27 44.1499 180.096 43.9162H180.084ZM191.37 49.4107C191.195 49.1734 190.994 48.9571 190.77 48.7661C190.89 49.0353 191.042 49.2891 191.223 49.5221C191.396 49.759 191.598 49.9741 191.823 50.1627C191.705 49.8958 191.557 49.6435 191.382 49.4107H191.37ZM186.519 50.8032C186.283 50.977 186.068 51.1787 185.88 51.404C186.147 51.2825 186.399 51.1303 186.631 50.9504C186.867 50.7766 187.082 50.5749 187.27 50.3497C187.007 50.4719 186.759 50.6241 186.531 50.8032H186.519ZM193.872 52.0366C193.636 52.2104 193.421 52.4121 193.233 52.6374C193.5 52.5159 193.752 52.3637 193.984 52.1838C194.22 52.01 194.435 51.8083 194.623 51.583C194.36 51.7053 194.112 51.8575 193.884 52.0366H193.872ZM185.507 42.456C185.27 42.6322 185.054 42.8351 184.863 43.0608C185.131 42.9387 185.384 42.7866 185.618 42.6072C185.854 42.432 186.069 42.2289 186.257 42.0024C185.995 42.1262 185.747 42.2783 185.518 42.456H185.507ZM189.435 54.1811C189.145 54.1379 188.85 54.1286 188.557 54.1533C189.11 54.3542 189.699 54.4355 190.285 54.392C190.015 54.29 189.734 54.2192 189.447 54.1811H189.435ZM183.171 47.314C182.88 47.2708 182.586 47.2615 182.293 47.2861C182.845 47.4909 183.434 47.5737 184.021 47.5288C183.747 47.4247 183.461 47.3526 183.171 47.314ZM185.312 53.9185C185.241 54.1042 185.186 54.296 185.149 54.4914L185.308 54.575C185.331 54.3568 185.332 54.1369 185.312 53.9185ZM188.069 45.2013C187.865 45.7554 187.782 46.347 187.826 46.936C188.025 46.3806 188.108 45.7901 188.069 45.2013Z" fill="white"/>
<path d="M178.927 45.0819C180.421 44.9705 186.527 44.2861 187.837 44.0474C187.929 44.0474 187.941 43.9678 187.837 43.9718C184.848 44.157 181.87 44.5077 178.919 45.0222C178.888 45.0262 178.888 45.0858 178.927 45.0819Z" fill="#263238"/>
<path d="M202.348 61.3507C201.446 61.0447 200.57 60.6682 199.727 60.2248C198.875 59.8001 198.051 59.3217 197.26 58.7925C198.149 59.1317 199.018 59.5223 199.862 59.9622C200.283 60.1771 200.704 60.3959 201.117 60.6306C201.53 60.8654 201.939 61.1041 202.348 61.3507Z" fill="#263238"/>
<path d="M199.695 60.05C199.389 60.0272 199.088 59.9671 198.797 59.8709C198.504 59.7821 198.223 59.6593 197.959 59.5049C198.264 59.5263 198.566 59.5851 198.857 59.6799C199.15 59.7692 199.431 59.8934 199.695 60.05Z" fill="#263238"/>
<path d="M202.997 56.3459C202.568 56.1067 202.168 55.8183 201.805 55.4865C201.438 55.1656 201.11 54.8023 200.828 54.4043C201.257 54.6435 201.657 54.9319 202.02 55.2637C202.385 55.5867 202.713 55.9497 202.997 56.3459Z" fill="#263238"/>
</g>
<defs>
<clipPath id="clip0_1271_7377">
<rect width="256" height="164" fill="white"/>
</clipPath>
</defs>
</svg>
