<svg width="165" height="165" viewBox="0 0 165 165" fill="none" xmlns="http://www.w3.org/2000/svg">
<g clip-path="url(#clip0_1271_8063)">
<path d="M23.2331 131.022H9.5625V135.381H23.2331V131.022Z" fill="#EBEBEB"/>
<path d="M31.4401 80.1821H17.7695V84.5408H31.4401V80.1821Z" fill="#EBEBEB"/>
<path d="M15.6073 140.893C13.3289 140.932 7.58612 141.029 5.38544 141.053H1.93668H1.76172V140.893V136.534V136.339H1.95612L8.79143 136.367C10.4905 136.367 13.9237 136.417 15.6267 136.441H15.7201V136.534L15.6073 140.893ZM15.6073 140.893L15.514 136.534L15.6073 136.628C13.9004 136.651 10.475 136.686 8.77199 136.702L1.93668 136.729L2.13109 136.534V140.893L1.95224 140.714H5.33879C7.50447 140.741 13.3794 140.838 15.6229 140.877L15.6073 140.893Z" fill="#EBEBEB"/>
<path d="M92.9549 63.6745C90.6765 63.7135 84.9338 63.8108 82.7331 63.8342H79.2843H79.1055V63.655V59.2963V59.1016H79.2999L86.1352 59.1288C87.8343 59.1288 91.2675 59.1795 92.9705 59.2028H93.0638V59.2963L92.9744 63.655L92.9549 63.6745ZM92.9549 63.6745L92.8577 59.3158L92.951 59.4054C91.2442 59.4327 87.8187 59.4677 86.1157 59.4833L79.2804 59.5106L79.4748 59.3158L79.4554 63.6745L79.2804 63.4953H82.667C84.8327 63.5226 90.7076 63.62 92.951 63.6589L92.9549 63.6745Z" fill="#EBEBEB"/>
<path d="M85.326 69.1706C83.0515 69.2096 77.3087 69.3069 75.1042 69.3303H71.6593H71.4727V69.155V64.7963V64.6016H71.6709L78.5024 64.6288C80.2054 64.6288 83.6386 64.6795 85.3377 64.7028H85.4349V64.7963L85.3416 69.155L85.326 69.1706ZM85.326 69.1706L85.2366 64.8119L85.326 64.9015C83.623 64.9288 80.1976 64.9638 78.4907 64.9794L71.6593 65.0067L71.8537 64.8119V69.1706L71.6787 68.9914H75.0653C77.231 69.0187 83.1059 69.1161 85.3455 69.155L85.326 69.1706Z" fill="#EBEBEB"/>
<path d="M77.7331 59.3159H64.0625V63.6746H77.7331V59.3159Z" fill="#EBEBEB"/>
<path d="M162.78 136.519H149.109V140.877H162.78V136.519Z" fill="#EBEBEB"/>
<path d="M155.157 1.92041H141.486V6.27912H155.157V1.92041Z" fill="#EBEBEB"/>
<path d="M162.781 11.7751C160.503 11.8141 154.76 11.9114 152.559 11.9348H149.11H148.935V11.7595L148.916 7.40081V7.20605H149.11L155.946 7.23332C157.649 7.23332 161.078 7.28396 162.781 7.30733H162.874V7.40081L162.781 11.7595V11.7751ZM162.781 11.7751L162.688 7.41639L162.781 7.50598C161.074 7.53325 157.653 7.56831 155.946 7.58389L149.11 7.61115L149.305 7.41639V11.7751L149.126 11.5959H152.513C154.682 11.6232 160.557 11.7206 162.797 11.7595L162.781 11.7751Z" fill="#EBEBEB"/>
<path d="M23.2323 6.279C20.9539 6.31795 15.2111 6.41533 13.0104 6.4387H9.56168H9.38672V6.25953V1.90081V1.70605H9.58112L16.4164 1.73332C18.1194 1.73332 21.5487 1.78396 23.2517 1.80733H23.3451V1.90081L23.2517 6.25953L23.2323 6.279ZM23.2323 6.279L23.139 1.92029L23.2323 2.00988C21.5254 2.03715 18.1 2.0722 16.397 2.08778L9.56168 2.11505L9.75609 1.92029V6.279L9.56168 6.1193H12.9482C15.1139 6.14657 20.9889 6.24394 23.2323 6.2829V6.279Z" fill="#EBEBEB"/>
<path d="M102.06 150.903C99.782 150.942 94.0392 151.039 91.8386 151.063H88.3898H88.2148V150.884V146.525V146.346H88.4092L95.2446 146.373C96.9476 146.373 100.377 146.424 102.08 146.447H102.173V146.54L102.08 150.899L102.06 150.903ZM102.06 150.903L101.967 146.544L102.06 146.638C100.354 146.661 96.9281 146.696 95.2251 146.712L88.3898 146.739L88.5842 146.544V150.903L88.4054 150.724H91.7919C93.9576 150.751 99.8325 150.849 102.076 150.887L102.06 150.903Z" fill="#EBEBEB"/>
<path d="M27.6493 30.1563C27.2584 32.7944 26.1195 35.2646 24.3679 37.2731C22.6164 39.2816 20.326 40.7439 17.7691 41.4863C15.2121 42.2286 12.4961 42.2198 9.94399 41.4607C7.3919 40.7017 5.11107 39.2244 3.37267 37.2045C1.63428 35.1845 0.511449 32.707 0.137685 30.0664C-0.236079 27.4258 0.154943 24.7332 1.26426 22.3087C2.37358 19.8843 4.15453 17.83 6.39537 16.39C8.6362 14.9501 11.2427 14.1851 13.9049 14.186V28.1113L27.6493 30.1563Z" fill="#EBEBEB"/>
<path d="M30.6461 25.2798C30.6469 25.963 30.5962 26.6453 30.4945 27.3209L16.75 25.2798V11.3545C18.5756 11.353 20.3836 11.7121 22.0705 12.4114C23.7574 13.1108 25.2901 14.1365 26.5808 15.4299C27.8716 16.7234 28.895 18.2591 29.5926 19.9493C30.2902 21.6394 30.6482 23.4508 30.6461 25.2798Z" fill="#DBDBDB"/>
<path d="M30.1889 33.0586H15.4102V33.4481H30.1889V33.0586Z" fill="#C7C7C7"/>
<path d="M31.2267 34.4842C30.9825 34.485 30.7437 34.4131 30.5404 34.2777C30.3371 34.1423 30.1786 33.9495 30.0848 33.7237C29.991 33.498 29.9663 33.2494 30.0137 33.0095C30.0612 32.7696 30.1786 32.5492 30.3512 32.3763C30.5238 32.2034 30.7438 32.0857 30.9833 32.0382C31.2227 31.9907 31.4709 32.0154 31.6962 32.1094C31.9216 32.2033 32.1141 32.3622 32.2492 32.5658C32.3843 32.7695 32.4561 33.0088 32.4553 33.2533C32.4543 33.5794 32.3245 33.8919 32.0943 34.1225C31.8641 34.3531 31.5522 34.4832 31.2267 34.4842ZM31.2267 32.4081C31.0596 32.4073 30.8961 32.4562 30.7568 32.5486C30.6176 32.641 30.5088 32.7728 30.4444 32.9271C30.3799 33.0815 30.3627 33.2516 30.3948 33.4158C30.4269 33.58 30.5069 33.731 30.6248 33.8496C30.7426 33.9682 30.893 34.0491 31.0567 34.082C31.2205 34.115 31.3903 34.0984 31.5447 34.0346C31.6991 33.9707 31.8311 33.8624 31.924 33.7233C32.0169 33.5842 32.0665 33.4207 32.0665 33.2533C32.0665 33.0298 31.9781 32.8154 31.8207 32.657C31.6634 32.4986 31.4497 32.4091 31.2267 32.4081Z" fill="#C7C7C7"/>
<path d="M46.4601 32.4741H34.9785V32.9922H46.4601V32.4741Z" fill="#C7C7C7"/>
<path d="M41.4756 33.5103H34.9785V34.0283H41.4756V33.5103Z" fill="#C7C7C7"/>
<path d="M75.7993 83.1348H72.1328V109.271H75.7993V83.1348Z" fill="#EBEBEB"/>
<path d="M82.102 89.4604H78.4355V109.271H82.102V89.4604Z" fill="#EBEBEB"/>
<path d="M88.4048 99.3662H84.7383V109.272H88.4048V99.3662Z" fill="#EBEBEB"/>
<path d="M94.7075 93.7065H91.041V109.268H94.7075V93.7065Z" fill="#EBEBEB"/>
<path d="M101.006 87.7661H97.3398V109.271H101.006V87.7661Z" fill="#EBEBEB"/>
<path d="M107.309 84.2725H103.643V109.272H107.309V84.2725Z" fill="#EBEBEB"/>
<path d="M70.0113 79.8086L70.0541 87.1744L70.0735 94.5402L70.1046 109.272L70.0113 109.178C73.381 109.178 76.7507 109.178 80.1204 109.178L90.2295 109.202L100.339 109.221L110.448 109.276L100.339 109.33L90.2295 109.35L80.1204 109.369C76.7507 109.369 73.381 109.369 70.0113 109.369H69.918V109.28L69.9491 94.548V87.1822L70.0113 79.8086Z" fill="#EBEBEB"/>
<path d="M69.2012 81.2965C69.7312 81.1564 70.2886 81.1564 70.8186 81.2965C70.2879 81.4316 69.7319 81.4316 69.2012 81.2965Z" fill="#EBEBEB"/>
<path d="M69.2012 83.5246C69.7319 83.3896 70.2879 83.3896 70.8186 83.5246C70.5558 83.5997 70.2832 83.6351 70.0099 83.6298C69.7367 83.6332 69.4644 83.5978 69.2012 83.5246Z" fill="#EBEBEB"/>
<path d="M69.2012 85.7644C69.7319 85.6293 70.2879 85.6293 70.8186 85.7644C70.2886 85.9045 69.7312 85.9045 69.2012 85.7644Z" fill="#EBEBEB"/>
<path d="M69.2012 88.0041C69.7312 87.8639 70.2886 87.8639 70.8186 88.0041C70.2886 88.1442 69.7312 88.1442 69.2012 88.0041Z" fill="#EBEBEB"/>
<path d="M69.2012 90.2555C69.7312 90.1153 70.2886 90.1153 70.8186 90.2555C70.2886 90.3957 69.7312 90.3957 69.2012 90.2555Z" fill="#EBEBEB"/>
<path d="M69.2012 92.4835C69.7312 92.3434 70.2886 92.3434 70.8186 92.4835C70.2879 92.6186 69.7319 92.6186 69.2012 92.4835Z" fill="#EBEBEB"/>
<path d="M69.2012 94.719C69.7319 94.5839 70.2879 94.5839 70.8186 94.719C70.2886 94.8591 69.7312 94.8591 69.2012 94.719Z" fill="#EBEBEB"/>
<path d="M69.2012 96.9587C69.7319 96.8237 70.2879 96.8237 70.8186 96.9587C70.2886 97.0989 69.7312 97.0989 69.2012 96.9587Z" fill="#EBEBEB"/>
<path d="M69.2012 99.214C69.7312 99.0738 70.2886 99.0738 70.8186 99.214C70.2886 99.3542 69.7312 99.3542 69.2012 99.214Z" fill="#EBEBEB"/>
<path d="M69.2012 101.438C69.7312 101.298 70.2886 101.298 70.8186 101.438C70.2886 101.578 69.7312 101.578 69.2012 101.438Z" fill="#EBEBEB"/>
<path d="M69.2012 103.678C69.7312 103.538 70.2886 103.538 70.8186 103.678C70.2879 103.813 69.7319 103.813 69.2012 103.678Z" fill="#EBEBEB"/>
<path d="M69.2012 105.918C69.4644 105.845 69.7367 105.809 70.0099 105.813C70.2832 105.807 70.5558 105.843 70.8186 105.918C70.2879 106.053 69.7319 106.053 69.2012 105.918Z" fill="#EBEBEB"/>
<path d="M1.28711 159.882C53.2246 159.644 111.492 159.644 163.422 159.882C111.484 160.123 53.2168 160.119 1.28711 159.882Z" fill="#263238"/>
<path d="M158.566 0H94.8355C93.9809 0.00763672 93.1362 0.183897 92.3497 0.51871C91.5631 0.853522 90.8501 1.34032 90.2515 1.9513C89.6528 2.56227 89.1802 3.28544 88.8606 4.07947C88.541 4.87351 88.3808 5.72285 88.389 6.57897V137.975C88.3745 139.704 89.0451 141.367 90.2538 142.601C91.4624 143.834 93.1102 144.537 94.8355 144.554H158.566C160.292 144.538 161.941 143.836 163.151 142.602C164.361 141.369 165.033 139.705 165.02 137.975V6.57897C165.034 4.84923 164.363 3.18452 163.152 1.95082C161.942 0.717127 160.292 0.0154297 158.566 0ZM160.984 133.913C160.984 137.371 158.398 140.172 155.21 140.172H98.1948C94.9988 140.172 92.4132 137.371 92.4132 133.913V11.5726C92.4132 4.5262 94.9988 4.17174 98.1948 4.17174H109.614C110.279 4.17174 110.82 4.92741 110.82 5.86225V6.25177C110.82 8.44476 112.021 8.45255 113.491 8.45255H139.903C141.388 8.45255 142.578 8.45255 142.578 6.25177V5.86225C142.578 4.92741 143.114 4.17174 143.787 4.17174H155.202C158.391 4.17174 160.976 5.11048 160.976 11.5726L160.984 133.913Z" fill="#263238"/>
<path d="M160.969 11.5727V133.913C160.969 137.372 158.384 140.172 155.195 140.172H98.1957C94.9997 140.172 92.4141 137.372 92.4141 133.913V11.5727C92.4141 4.52634 94.9997 4.17188 98.1957 4.17188H109.615C110.28 4.17188 110.82 4.92754 110.82 5.86238V6.2519C110.82 8.44489 112.022 8.45268 113.492 8.45268H139.904C141.389 8.45268 142.579 8.45268 142.579 6.2519V5.86238C142.579 4.92754 143.115 4.17188 143.788 4.17188H155.203C158.384 4.17188 160.969 5.10672 160.969 11.5727Z" fill="white"/>
<path d="M107.631 6.91801C107.596 6.95306 107.557 6.98812 107.522 7.02707L107.46 7.0894C107.178 6.80705 106.795 6.64846 106.397 6.64846C105.998 6.64846 105.615 6.80705 105.333 7.0894L105.271 7.02707L105.162 6.91801L105.298 6.79726C105.516 6.62074 105.774 6.50038 106.049 6.44669C106.122 6.44669 106.192 6.42721 106.262 6.41553H106.465H106.612C106.745 6.43258 106.876 6.46526 107.001 6.51291C107.092 6.54591 107.181 6.58629 107.266 6.63366C107.354 6.68664 107.439 6.74655 107.518 6.81284L107.635 6.91801H107.631Z" fill="#C7C7C7"/>
<path d="M105.687 7.43609L105.512 7.2647C105.702 7.07066 105.951 6.94473 106.219 6.90634C106.413 6.87796 106.61 6.89523 106.796 6.95676C106.981 7.0183 107.15 7.12241 107.289 7.26081L107.114 7.43609C106.924 7.24699 106.668 7.14081 106.4 7.14081C106.133 7.14081 105.876 7.24699 105.687 7.43609Z" fill="#C7C7C7"/>
<path d="M106.946 7.61156L106.771 7.78684C106.724 7.73783 106.667 7.69906 106.604 7.67293C106.541 7.6468 106.474 7.63387 106.406 7.63493C106.338 7.6341 106.27 7.64714 106.207 7.67325C106.145 7.69937 106.088 7.73801 106.04 7.78684L105.869 7.61156C106.014 7.4723 106.207 7.39453 106.408 7.39453C106.608 7.39453 106.801 7.4723 106.946 7.61156Z" fill="#C7C7C7"/>
<path d="M106.565 7.94248C106.566 7.97422 106.557 8.00547 106.54 8.03224C106.523 8.05901 106.498 8.08008 106.469 8.09277C106.44 8.10546 106.408 8.10918 106.377 8.10347C106.346 8.09775 106.317 8.08286 106.294 8.06069C106.272 8.03851 106.256 8.01007 106.249 7.97899C106.243 7.94791 106.246 7.9156 106.258 7.88619C106.27 7.85678 106.29 7.83161 106.317 7.81388C106.343 7.79615 106.374 7.78668 106.405 7.78667C106.426 7.78615 106.447 7.7898 106.466 7.79739C106.485 7.80499 106.503 7.81638 106.518 7.8309C106.533 7.84543 106.545 7.86278 106.553 7.88194C106.561 7.9011 106.565 7.92168 106.565 7.94248Z" fill="#C7C7C7"/>
<path d="M96.8848 7.24871C96.8848 7.15857 96.9115 7.07046 96.9614 6.99551C97.0114 6.92057 97.0825 6.86215 97.1656 6.82766C97.2487 6.79317 97.3402 6.78414 97.4284 6.80173C97.5167 6.81931 97.5977 6.86272 97.6613 6.92645C97.725 6.99019 97.7683 7.07139 97.7859 7.1598C97.8034 7.2482 97.7944 7.33983 97.76 7.42311C97.7255 7.50638 97.6672 7.57756 97.5924 7.62764C97.5176 7.67771 97.4297 7.70444 97.3397 7.70444C97.2799 7.70444 97.2208 7.69265 97.1656 7.66975C97.1104 7.64685 97.0603 7.61328 97.018 7.57096C96.9758 7.52864 96.9423 7.4784 96.9194 7.42311C96.8965 7.36782 96.8848 7.30855 96.8848 7.24871Z" fill="#C7C7C7"/>
<path d="M98.2988 7.24871C98.2988 7.15857 98.3255 7.07046 98.3755 6.99551C98.4255 6.92057 98.4965 6.86215 98.5797 6.82766C98.6628 6.79317 98.7542 6.78414 98.8425 6.80173C98.9307 6.81931 99.0118 6.86272 99.0754 6.92645C99.139 6.99019 99.1823 7.07139 99.1999 7.1598C99.2175 7.2482 99.2085 7.33983 99.174 7.42311C99.1396 7.50638 99.0813 7.57756 99.0065 7.62764C98.9317 7.67771 98.8437 7.70444 98.7537 7.70444C98.694 7.70444 98.6348 7.69265 98.5797 7.66975C98.5245 7.64685 98.4743 7.61328 98.4321 7.57096C98.3898 7.52864 98.3563 7.4784 98.3335 7.42311C98.3106 7.36782 98.2988 7.30855 98.2988 7.24871Z" fill="#C7C7C7"/>
<path d="M99.7461 7.24871C99.7461 7.15857 99.7728 7.07046 99.8228 6.99551C99.8727 6.92057 99.9438 6.86215 100.027 6.82766C100.11 6.79317 100.202 6.78414 100.29 6.80173C100.378 6.81931 100.459 6.86272 100.523 6.92645C100.586 6.99019 100.63 7.07139 100.647 7.1598C100.665 7.2482 100.656 7.33983 100.621 7.42311C100.587 7.50638 100.529 7.57756 100.454 7.62764C100.379 7.67771 100.291 7.70444 100.201 7.70444C100.141 7.70444 100.082 7.69265 100.027 7.66975C99.9717 7.64685 99.9216 7.61328 99.8793 7.57096C99.8371 7.52864 99.8036 7.4784 99.7807 7.42311C99.7579 7.36782 99.7461 7.30855 99.7461 7.24871Z" fill="#C7C7C7"/>
<path d="M101.182 7.24918C101.182 7.15888 101.208 7.07061 101.259 6.99558C101.309 6.92056 101.38 6.86215 101.463 6.82777C101.547 6.7934 101.638 6.7846 101.727 6.8025C101.815 6.82041 101.896 6.8642 101.96 6.92833C102.023 6.99245 102.066 7.07402 102.083 7.16268C102.1 7.25134 102.091 7.34309 102.056 7.4263C102.021 7.5095 101.962 7.5804 101.886 7.63001C101.811 7.67962 101.723 7.70569 101.633 7.70491C101.573 7.70492 101.514 7.6931 101.459 7.67015C101.404 7.6472 101.354 7.61357 101.312 7.5712C101.27 7.52883 101.237 7.47856 101.215 7.42329C101.192 7.36802 101.181 7.30884 101.182 7.24918Z" fill="#C7C7C7"/>
<path d="M102.611 7.24918C102.611 7.15888 102.638 7.07061 102.688 6.99558C102.738 6.92056 102.81 6.86215 102.893 6.82777C102.976 6.7934 103.068 6.7846 103.156 6.8025C103.245 6.82041 103.326 6.8642 103.389 6.92833C103.453 6.99245 103.496 7.07402 103.513 7.16268C103.53 7.25134 103.52 7.34309 103.485 7.4263C103.45 7.5095 103.391 7.5804 103.316 7.63001C103.241 7.67962 103.153 7.70569 103.062 7.70491C103.003 7.70492 102.944 7.6931 102.889 7.67015C102.834 7.6472 102.784 7.61357 102.742 7.5712C102.7 7.52883 102.667 7.47856 102.645 7.42329C102.622 7.36802 102.611 7.30884 102.611 7.24918Z" fill="#C7C7C7"/>
<path d="M155.844 8.2461H152.146V6.52832H155.844V8.2461ZM152.345 8.05523H155.669V6.71529H152.345V8.05523Z" fill="#C7C7C7"/>
<path d="M154.817 6.82031H152.434V7.95381H154.817V6.82031Z" fill="#C7C7C7"/>
<path d="M156.159 6.92578H155.828V7.84504H156.159V6.92578Z" fill="#C7C7C7"/>
<path d="M130.294 5.72989H123.094C122.975 5.72989 122.861 5.68269 122.777 5.59869C122.694 5.51468 122.646 5.40074 122.646 5.28194C122.648 5.16381 122.695 5.05088 122.779 4.96771C122.863 4.88455 122.976 4.83789 123.094 4.83789H130.294C130.412 4.83789 130.525 4.88455 130.609 4.96771C130.693 5.05088 130.741 5.16381 130.742 5.28194C130.742 5.40074 130.694 5.51468 130.611 5.59869C130.527 5.68269 130.413 5.72989 130.294 5.72989Z" fill="white"/>
<path d="M101.33 132.97H100.991V134.512H100.365V133.725H99.2572V134.512H98.6312V132.97H98.293L99.8093 131.4L101.33 132.97Z" fill="#EBEBEB"/>
<path d="M155.633 131.4H151.979V131.922H155.633V131.4Z" fill="#EBEBEB"/>
<path d="M155.633 132.697H151.979V133.219H155.633V132.697Z" fill="#EBEBEB"/>
<path d="M155.633 133.99H151.979V134.512H155.633V133.99Z" fill="#EBEBEB"/>
<path d="M128.039 133.013L126.997 134.123L125.959 133.013L126.142 132.837L126.997 133.753L127.856 132.837L128.039 133.013Z" fill="#EBEBEB"/>
<path d="M127.001 135.272C126.627 135.273 126.261 135.162 125.95 134.955C125.639 134.747 125.396 134.452 125.252 134.106C125.109 133.76 125.071 133.379 125.143 133.012C125.216 132.645 125.395 132.307 125.66 132.042C125.924 131.777 126.26 131.596 126.627 131.523C126.994 131.449 127.374 131.486 127.719 131.63C128.065 131.773 128.36 132.015 128.568 132.327C128.776 132.638 128.887 133.004 128.887 133.379C128.886 133.88 128.687 134.36 128.333 134.715C127.98 135.07 127.501 135.27 127.001 135.272ZM127.001 131.739C126.676 131.738 126.358 131.834 126.088 132.014C125.817 132.195 125.607 132.451 125.482 132.752C125.357 133.052 125.324 133.383 125.388 133.703C125.451 134.022 125.607 134.315 125.837 134.545C126.067 134.775 126.359 134.932 126.678 134.995C126.997 135.058 127.327 135.026 127.627 134.901C127.927 134.776 128.183 134.565 128.363 134.294C128.543 134.023 128.639 133.704 128.638 133.379C128.637 132.944 128.464 132.528 128.157 132.22C127.851 131.913 127.435 131.74 127.001 131.739Z" fill="#EBEBEB"/>
<path d="M157.341 13.2866H96.041V31.2123H157.341V13.2866Z" fill="#FFC727"/>
<path d="M99.5316 19.0434L97.502 17.1425L99.5316 15.2417L99.8465 15.5767L98.1746 17.1425L99.8465 18.7084L99.5316 19.0434Z" fill="white"/>
<path d="M155.887 15.9584C155.887 16.0354 155.864 16.1107 155.821 16.1748C155.779 16.2388 155.718 16.2888 155.647 16.3182C155.576 16.3477 155.498 16.3554 155.422 16.3404C155.347 16.3254 155.278 16.2883 155.223 16.2338C155.169 16.1793 155.132 16.1099 155.117 16.0344C155.102 15.9588 155.11 15.8805 155.139 15.8093C155.168 15.7381 155.218 15.6773 155.282 15.6345C155.346 15.5917 155.421 15.5688 155.498 15.5688C155.601 15.5688 155.7 15.6099 155.773 15.6829C155.846 15.756 155.887 15.8551 155.887 15.9584Z" fill="white"/>
<path d="M155.887 17.3802C155.887 17.4573 155.864 17.5326 155.821 17.5966C155.779 17.6607 155.718 17.7106 155.647 17.7401C155.576 17.7696 155.498 17.7773 155.422 17.7623C155.347 17.7472 155.278 17.7101 155.223 17.6557C155.169 17.6012 155.132 17.5318 155.117 17.4562C155.102 17.3807 155.11 17.3024 155.139 17.2312C155.168 17.16 155.218 17.0992 155.282 17.0564C155.346 17.0136 155.421 16.9907 155.498 16.9907C155.601 16.9907 155.7 17.0318 155.773 17.1048C155.846 17.1779 155.887 17.2769 155.887 17.3802Z" fill="white"/>
<path d="M155.887 18.7982C155.887 18.8752 155.864 18.9506 155.821 19.0146C155.779 19.0787 155.718 19.1286 155.647 19.1581C155.576 19.1876 155.498 19.1953 155.422 19.1802C155.347 19.1652 155.278 19.1281 155.223 19.0736C155.169 19.0192 155.132 18.9498 155.117 18.8742C155.102 18.7986 155.11 18.7203 155.139 18.6491C155.168 18.578 155.218 18.5171 155.282 18.4743C155.346 18.4315 155.421 18.4087 155.498 18.4087C155.601 18.4087 155.7 18.4497 155.773 18.5228C155.846 18.5958 155.887 18.6949 155.887 18.7982Z" fill="white"/>
<path d="M102.611 17.1425C109.664 16.8815 116.768 16.8815 123.825 17.1425C116.768 17.4035 109.664 17.4035 102.611 17.1425Z" fill="white"/>
<path d="M102.611 19.0476C107.374 18.919 112.615 18.919 117.386 19.0476C112.623 19.1761 107.382 19.1722 102.611 19.0476Z" fill="white"/>
<path d="M109.625 25.5954C120.558 25.4747 132.825 25.4747 143.755 25.5954C132.825 25.7162 120.558 25.7162 109.625 25.5954Z" fill="white"/>
<path d="M98.8359 45.9397C108.51 45.8696 118.187 45.8851 127.861 45.8579C137.534 45.8306 147.212 45.8579 156.889 45.9397C147.212 46.0059 137.538 45.9903 127.861 46.0176C118.183 46.0448 108.51 46.0059 98.8359 45.9397Z" fill="#455A64"/>
<path d="M98.8359 52.472C108.51 52.4058 118.187 52.4213 127.861 52.3941C137.534 52.3668 147.212 52.3941 156.889 52.472C147.212 52.5421 137.538 52.5265 127.861 52.5538C118.183 52.581 108.51 52.5577 98.8359 52.472Z" fill="#455A64"/>
<path d="M98.8359 59.0394C108.51 58.9731 118.187 58.9887 127.861 58.9615C137.534 58.9342 147.212 58.9615 156.889 59.0394C147.212 59.1095 137.538 59.0939 127.861 59.1212C118.183 59.1484 108.51 59.0939 98.8359 59.0394Z" fill="#455A64"/>
<path d="M98.8359 65.5911C108.51 65.5249 118.187 65.5405 127.861 65.5132C137.534 65.486 147.212 65.5132 156.889 65.5911C147.212 65.6612 137.538 65.6418 127.861 65.6729C118.187 65.6418 108.51 65.6612 98.8359 65.5911Z" fill="#455A64"/>
<path d="M98.8359 72.1429C108.51 72.0728 118.187 72.0922 127.861 72.065C137.534 72.0377 147.212 72.065 156.889 72.1429C147.212 72.213 137.538 72.1935 127.861 72.2247C118.187 72.1935 108.51 72.213 98.8359 72.1429Z" fill="#455A64"/>
<path d="M110.525 41.6787C110.61 47.8019 110.587 53.9213 110.626 60.0445C110.591 66.1638 110.626 72.2871 110.525 78.4064C110.439 72.2871 110.463 66.1638 110.428 60.0445C110.463 53.9213 110.439 47.798 110.525 41.6787Z" fill="#455A64"/>
<path d="M120.564 41.6787C120.65 47.8019 120.626 53.9213 120.665 60.0445C120.626 66.1638 120.665 72.2871 120.564 78.4064C120.478 72.2871 120.502 66.1638 120.467 60.0445C120.502 53.9213 120.463 47.798 120.564 41.6787Z" fill="#455A64"/>
<path d="M130.603 41.6787C130.689 47.8019 130.665 53.9213 130.7 60.0445C130.665 66.1638 130.7 72.2871 130.603 78.4064C130.517 72.2871 130.541 66.1638 130.502 60.0445C130.541 53.9213 130.517 47.798 130.603 41.6787Z" fill="#455A64"/>
<path d="M140.642 41.6787C140.728 47.8019 140.704 53.9213 140.739 60.0445C140.704 66.1638 140.739 72.2871 140.642 78.4064C140.557 72.2871 140.576 66.1638 140.541 60.0445C140.58 53.9213 140.557 47.798 140.642 41.6787Z" fill="#455A64"/>
<path d="M150.681 41.6787C150.767 47.8019 150.743 53.9213 150.778 60.0445C150.743 66.1638 150.778 72.2871 150.681 78.4064C150.596 72.2871 150.615 66.1638 150.58 60.0445C150.615 53.9213 150.596 47.798 150.681 41.6787Z" fill="#455A64"/>
<path opacity="0.5" d="M100.299 67.3907C102.072 67.3907 103.129 60.7377 105.637 60.7377C108.145 60.7377 108.413 65.5911 110.525 65.5911C112.636 65.5911 112.574 57.0646 115.412 57.0646C118.25 57.0646 117.593 60.5235 120.564 60.5235C123.534 60.5235 122.407 52.4722 125.517 52.4722C128.628 52.4722 127.368 63.5423 130.603 63.5423C132.652 63.5423 133.441 60.0366 135.887 60.0366C137.504 60.0366 138.457 61.7933 140.572 61.7933C142.687 61.7933 143.15 55.0313 145.794 55.0313C148.438 55.0313 148.737 59.0317 150.681 59.0317C152.625 59.0317 153.321 52.48 156.902 52.48V78.3985H100.299V67.3907Z" fill="#FFC727"/>
<path opacity="0.3" d="M100.299 67.3907C102.072 67.3907 103.129 60.7377 105.637 60.7377C108.145 60.7377 108.413 65.5911 110.525 65.5911C112.636 65.5911 112.574 57.0646 115.412 57.0646C118.25 57.0646 117.593 60.5235 120.564 60.5235C123.534 60.5235 122.407 52.4722 125.517 52.4722C128.628 52.4722 127.368 63.5423 130.603 63.5423C132.652 63.5423 133.441 60.0366 135.887 60.0366C137.504 60.0366 138.457 61.7933 140.572 61.7933C142.687 61.7933 143.15 55.0313 145.794 55.0313C148.438 55.0313 148.737 59.0317 150.681 59.0317C152.625 59.0317 153.321 52.48 156.902 52.48V78.3985H100.299V67.3907Z" fill="#FFC727"/>
<path d="M100.299 67.7098V67.0709C100.835 67.0709 101.574 65.5129 102.115 64.3833C103.04 62.4357 104 60.418 105.637 60.418C107.192 60.418 107.99 61.8942 108.678 63.1952C109.218 64.2158 109.774 65.2714 110.525 65.2714C111.186 65.2714 111.757 63.2225 112.177 61.7267C112.861 59.2767 113.569 56.7448 115.412 56.7448C117.057 56.7448 117.702 57.7381 118.27 58.6145C118.837 59.4909 119.3 60.2037 120.564 60.2037C121.707 60.2037 122.154 58.3263 122.586 56.5111C123.095 54.3765 123.62 52.168 125.517 52.168C127.415 52.168 127.881 54.9491 128.39 57.8939C128.803 60.2738 129.312 63.2381 130.603 63.2381C131.38 63.2381 132.003 62.5058 132.671 61.7345C133.48 60.7919 134.401 59.7207 135.887 59.7207C136.777 59.7207 137.473 60.157 138.146 60.5816C138.818 61.0061 139.58 61.4814 140.572 61.4814C141.307 61.4814 141.976 59.8726 142.516 58.5794C143.294 56.6825 144.122 54.7193 145.798 54.7193C147.473 54.7193 148.278 55.9969 149.001 57.1226C149.53 57.9445 150.028 58.7197 150.685 58.7197C151.245 58.7197 151.875 57.4771 152.435 56.3826C153.387 54.5051 154.573 52.1719 156.894 52.1719V52.8146C155.106 52.8146 154.079 54.8401 153.169 56.6241C152.392 58.1549 151.777 59.3507 150.685 59.3507C149.592 59.3507 148.939 58.4042 148.298 57.4031C147.656 56.402 146.976 55.3503 145.798 55.3503C144.693 55.3503 143.939 57.1694 143.27 58.7742C142.524 60.5621 141.882 62.1085 140.576 62.1085C139.269 62.1085 138.437 61.5593 137.664 61.0763C137.045 60.6867 136.497 60.3517 135.891 60.3517C134.821 60.3517 134.063 61.2321 133.324 62.089C132.586 62.9459 131.793 63.8652 130.603 63.8652C128.624 63.8652 128.126 61.0022 127.601 57.9718C127.212 55.6658 126.707 52.799 125.517 52.799C124.327 52.799 123.791 54.8284 123.367 56.6202C122.85 58.7859 122.364 60.8309 120.564 60.8309C118.763 60.8309 118.153 59.8064 117.566 58.8833C117.037 58.0653 116.574 57.3564 115.412 57.3564C114.249 57.3564 113.511 59.8415 112.951 61.8436C112.321 64.0989 111.819 65.8829 110.525 65.8829C109.23 65.8829 108.619 64.6871 107.947 63.4173C107.325 62.2487 106.683 61.0295 105.637 61.0295C104.591 61.0295 103.611 63.0005 102.857 64.5819C102.033 66.3425 101.384 67.7098 100.299 67.7098Z" fill="#FFC727"/>
<path opacity="0.5" d="M130.602 63.5579V78.4063H120.562V60.5235C123.533 60.5235 122.405 52.4722 125.516 52.4722C128.626 52.4722 127.367 63.5579 130.602 63.5579Z" fill="#FFC727"/>
<path d="M125.512 53.8742C126.39 53.8742 127.102 53.161 127.102 52.2811C127.102 51.4013 126.39 50.688 125.512 50.688C124.634 50.688 123.922 51.4013 123.922 52.2811C123.922 53.161 124.634 53.8742 125.512 53.8742Z" fill="#263238"/>
<path d="M126.423 52.2811C126.423 52.4614 126.37 52.6376 126.27 52.7875C126.17 52.9374 126.028 53.0542 125.861 53.1232C125.695 53.1922 125.512 53.2102 125.336 53.1751C125.159 53.1399 124.997 53.0531 124.87 52.9256C124.743 52.7981 124.656 52.6357 124.621 52.4589C124.586 52.2821 124.604 52.0988 124.673 51.9323C124.742 51.7657 124.858 51.6234 125.008 51.5232C125.157 51.4231 125.333 51.3696 125.513 51.3696C125.755 51.3696 125.986 51.4657 126.157 51.6366C126.327 51.8075 126.423 52.0394 126.423 52.2811Z" fill="#FFC727"/>
<path d="M128.373 45.7881H122.604V49.0133H128.373V45.7881Z" fill="#FFC727"/>
<path d="M124.73 49.0132H126.247L125.489 50.1077L124.73 49.0132Z" fill="#FFC727"/>
<path d="M123.686 46.9798C124.903 46.9136 126.123 46.9136 127.34 46.9798C126.123 47.0422 124.903 47.0422 123.686 46.9798Z" fill="white"/>
<path d="M123.686 47.6029C124.903 47.5367 126.123 47.5367 127.34 47.6029C126.123 47.6672 124.903 47.6672 123.686 47.6029Z" fill="white"/>
<path d="M100.298 42.0757C100.364 48.1327 100.418 54.1858 100.422 60.2428L100.485 78.4061L100.298 78.258L128.592 78.2931L142.741 78.3243L156.889 78.4061L142.741 78.4879L128.592 78.519L100.298 78.558H100.111V78.4061L100.174 60.2428C100.177 54.1858 100.244 48.1327 100.298 42.0757Z" fill="#455A64"/>
<path d="M103.326 81.1251C104.663 80.9225 106.022 80.9225 107.358 81.1251C106.021 81.3237 104.663 81.3237 103.326 81.1251Z" fill="#DBDBDB"/>
<path d="M96.0449 45.9399C96.64 45.7375 97.2851 45.7375 97.8801 45.9399C97.2845 46.1386 96.6406 46.1386 96.0449 45.9399Z" fill="#DBDBDB"/>
<path d="M96.0449 52.4723C96.6406 52.2736 97.2845 52.2736 97.8801 52.4723C97.2851 52.6747 96.64 52.6747 96.0449 52.4723Z" fill="#DBDBDB"/>
<path d="M96.0449 59.0392C96.6406 58.8405 97.2845 58.8405 97.8801 59.0392C97.2851 59.2416 96.64 59.2416 96.0449 59.0392Z" fill="#DBDBDB"/>
<path d="M96.0449 65.5909C96.6406 65.3922 97.2845 65.3922 97.8801 65.5909C97.2851 65.7933 96.64 65.7933 96.0449 65.5909Z" fill="#DBDBDB"/>
<path d="M96.0449 72.1427C96.6403 71.942 97.2848 71.942 97.8801 72.1427C97.2851 72.3451 96.64 72.3451 96.0449 72.1427Z" fill="#DBDBDB"/>
<path d="M113.219 81.125C114.554 80.9225 115.912 80.9225 117.247 81.125C115.911 81.3237 114.554 81.3237 113.219 81.125Z" fill="#DBDBDB"/>
<path d="M123.105 81.1251C124.442 80.9225 125.801 80.9225 127.137 81.1251C125.801 81.3237 124.442 81.3237 123.105 81.1251Z" fill="#DBDBDB"/>
<path d="M132.994 81.1251C134.331 80.9225 135.69 80.9225 137.026 81.1251C135.689 81.3237 134.331 81.3237 132.994 81.1251Z" fill="#DBDBDB"/>
<path d="M142.881 81.1251C144.217 80.9225 145.576 80.9225 146.913 81.1251C145.576 81.3237 144.218 81.3237 142.881 81.1251Z" fill="#DBDBDB"/>
<path d="M152.771 81.1251C154.108 80.9225 155.467 80.9225 156.803 81.1251C155.467 81.3237 154.108 81.3237 152.771 81.1251Z" fill="#DBDBDB"/>
<path d="M96.0957 35.7812C101.788 35.5163 107.523 35.5163 113.203 35.7812C107.507 36.046 101.772 36.046 96.0957 35.7812Z" fill="#DBDBDB"/>
<path d="M96.0957 37.5844C99.7521 37.3156 103.423 37.3156 107.08 37.5844C103.423 37.8493 99.7522 37.8493 96.0957 37.5844Z" fill="#DBDBDB"/>
<path d="M145.906 37.5845C149.565 37.3859 153.232 37.3859 156.89 37.5845C153.231 37.7793 149.565 37.7793 145.906 37.5845Z" fill="#FFC727"/>
<path d="M96.4766 87.1391C102.231 86.8742 108.036 86.8742 113.794 87.1391C108.032 87.404 102.231 87.404 96.4766 87.1391Z" fill="#263238"/>
<path d="M143.811 87.1392C148.168 86.9445 152.528 86.9445 156.89 87.1392C152.533 87.3366 148.173 87.3366 143.811 87.1392Z" fill="#FFC727"/>
<path d="M108.266 92.5924C112.798 92.326 117.342 92.326 121.874 92.5924C117.342 92.8568 112.798 92.8568 108.266 92.5924Z" fill="#263238"/>
<path d="M108.266 94.5907C112.066 94.3259 115.881 94.3259 119.681 94.5907C115.881 94.8556 112.066 94.8556 108.266 94.5907Z" fill="#263238"/>
<path d="M156.89 101.014C156.754 100.881 96.204 101.403 96.344 101.014V90.3721V90.2241H96.4917L126.683 90.2553C136.765 90.2786 146.847 90.2553 156.933 90.3176C156.933 90.3527 156.874 100.959 156.89 101.002V101.014ZM156.89 101.014L156.847 90.3721C147.053 90.5513 136.672 90.4072 126.683 90.4734C126.819 90.3682 95.7802 90.7578 96.62 90.3721V101.014C95.7958 100.652 157.088 101.127 156.905 101.014H156.89Z" fill="#DBDBDB"/>
<path d="M105.734 91.9028H98.0352V99.6153H105.734V91.9028Z" fill="#FFC727"/>
<path d="M155.12 95.7594C155.121 96.6956 154.781 97.5998 154.164 98.3034C153.548 99.0071 152.697 99.4621 151.771 99.5836C150.844 99.7052 149.905 99.4849 149.129 98.9639C148.353 98.443 147.792 97.6568 147.551 96.7522C147.311 95.8476 147.407 94.8863 147.822 94.0475C148.237 93.2088 148.943 92.5499 149.807 92.1937C150.671 91.8376 151.635 91.8086 152.519 92.112C153.403 92.4155 154.146 93.0307 154.611 93.843C154.945 94.4264 155.12 95.0871 155.12 95.7594Z" fill="#455A64"/>
<path d="M154.611 93.8426L151.271 95.7591V91.9028C151.949 91.9033 152.615 92.0829 153.201 92.4235C153.788 92.764 154.274 93.2536 154.611 93.8426Z" fill="#FFC727"/>
<path d="M151.271 98.4272C152.742 98.4272 153.934 97.2326 153.934 95.759C153.934 94.2854 152.742 93.0908 151.271 93.0908C149.8 93.0908 148.607 94.2854 148.607 95.759C148.607 97.2326 149.8 98.4272 151.271 98.4272Z" fill="white"/>
<path d="M108.266 106.269C112.798 106.002 117.342 106.002 121.874 106.269C117.342 106.533 112.798 106.533 108.266 106.269Z" fill="#263238"/>
<path d="M108.266 108.274C112.066 108.009 115.881 108.009 119.681 108.274C115.881 108.539 112.066 108.539 108.266 108.274Z" fill="#263238"/>
<path d="M156.89 114.697C156.754 114.565 96.204 115.087 96.344 114.697V104.056V103.908H96.4917L126.699 103.951C136.78 103.974 146.862 103.951 156.948 104.013C156.948 104.048 156.89 114.655 156.905 114.697H156.89ZM156.89 114.697L156.847 104.056C147.053 104.235 136.672 104.091 126.683 104.157C126.819 104.052 95.7802 104.441 96.62 104.056V114.697C95.7958 114.335 157.088 114.81 156.905 114.697H156.89Z" fill="#DBDBDB"/>
<path d="M105.734 105.587H98.0352V113.299H105.734V105.587Z" fill="#455A64"/>
<path d="M155.12 109.443C155.121 110.379 154.781 111.283 154.164 111.987C153.548 112.691 152.697 113.146 151.771 113.267C150.844 113.389 149.905 113.169 149.129 112.648C148.353 112.127 147.792 111.34 147.551 110.436C147.311 109.531 147.407 108.57 147.822 107.731C148.237 106.892 148.943 106.233 149.807 105.877C150.671 105.521 151.635 105.492 152.519 105.796C153.403 106.099 154.146 106.714 154.611 107.527C154.945 108.11 155.12 108.771 155.12 109.443Z" fill="#455A64"/>
<path d="M155.121 109.443C155.12 109.632 155.106 109.821 155.078 110.008L151.271 109.443V105.587C152.292 105.587 153.271 105.993 153.993 106.716C154.715 107.44 155.121 108.42 155.121 109.443Z" fill="#FFC727"/>
<path d="M153.93 109.443C153.931 109.971 153.775 110.488 153.483 110.927C153.191 111.366 152.775 111.709 152.288 111.911C151.801 112.114 151.265 112.167 150.748 112.064C150.231 111.961 149.756 111.707 149.384 111.334C149.011 110.96 148.757 110.485 148.655 109.967C148.552 109.449 148.605 108.912 148.807 108.424C149.009 107.936 149.351 107.52 149.79 107.227C150.228 106.934 150.744 106.778 151.271 106.779C151.976 106.78 152.652 107.061 153.15 107.56C153.649 108.06 153.929 108.737 153.93 109.443Z" fill="white"/>
<path d="M108.266 119.952C112.798 119.688 117.342 119.688 121.874 119.952C117.342 120.217 112.798 120.217 108.266 119.952Z" fill="#263238"/>
<path d="M108.266 121.958C112.066 121.694 115.881 121.694 119.681 121.958C115.881 122.223 112.066 122.223 108.266 121.958Z" fill="#263238"/>
<path d="M156.89 128.381C156.754 128.249 96.204 128.771 96.344 128.381V117.74V117.592H96.4917L126.699 117.635C136.78 117.658 146.862 117.635 156.948 117.697C156.948 117.732 156.89 128.339 156.905 128.381H156.89ZM156.89 128.381L156.847 117.74C147.053 117.919 136.672 117.775 126.683 117.841C126.819 117.736 95.7802 118.125 96.62 117.74V128.381C95.7958 128.019 157.088 128.494 156.905 128.381H156.89Z" fill="#DBDBDB"/>
<path d="M105.734 119.271H98.0352V126.983H105.734V119.271Z" fill="#FFC727"/>
<path d="M155.12 123.127C155.121 123.907 154.885 124.668 154.444 125.311C154.003 125.953 153.378 126.447 152.651 126.726C152.211 126.897 151.743 126.984 151.271 126.983C150.51 126.983 149.766 126.757 149.133 126.333C148.5 125.909 148.006 125.307 147.715 124.602C147.424 123.898 147.347 123.122 147.496 122.374C147.644 121.626 148.011 120.939 148.549 120.4C149.088 119.861 149.773 119.493 150.52 119.345C151.267 119.196 152.041 119.272 152.744 119.564C153.448 119.856 154.049 120.35 154.472 120.984C154.895 121.618 155.12 122.364 155.12 123.127Z" fill="#455A64"/>
<path d="M155.121 123.127C155.121 123.907 154.885 124.668 154.445 125.311C154.004 125.953 153.379 126.447 152.652 126.726L151.271 123.127V119.271C152.292 119.271 153.271 119.677 153.993 120.4C154.715 121.123 155.121 122.104 155.121 123.127Z" fill="#FFC727"/>
<path d="M153.93 123.127C153.931 123.655 153.775 124.171 153.483 124.611C153.191 125.05 152.775 125.393 152.288 125.595C151.801 125.797 151.265 125.851 150.748 125.748C150.231 125.645 149.756 125.391 149.384 125.017C149.011 124.644 148.757 124.168 148.655 123.65C148.552 123.132 148.605 122.595 148.807 122.108C149.009 121.62 149.351 121.203 149.79 120.91C150.228 120.618 150.744 120.462 151.271 120.462C151.976 120.463 152.652 120.744 153.15 121.244C153.649 121.743 153.929 122.42 153.93 123.127Z" fill="white"/>
<path d="M162.841 124.638C158.036 131.163 153.02 138.731 151.799 146.915C151.796 146.929 151.796 146.943 151.799 146.957C151.802 146.971 151.807 146.985 151.815 146.997C151.823 147.009 151.833 147.019 151.845 147.027C151.857 147.035 151.87 147.04 151.885 147.043C151.899 147.046 151.913 147.046 151.927 147.043C151.941 147.041 151.954 147.035 151.966 147.027C151.978 147.019 151.989 147.009 151.997 146.997C152.004 146.985 152.01 146.972 152.013 146.958C152.565 144.726 153.274 142.537 154.136 140.406C157.297 139.533 160.403 138.817 162.06 135.673C163.755 132.444 163.541 128.23 163.226 124.708C163.183 124.533 162.927 124.533 162.841 124.638Z" fill="#FFC727"/>
<path d="M154.175 140.344C156.332 135.486 159.109 130.606 162.631 126.617C162.655 126.59 162.693 126.617 162.67 126.656C160.361 129.499 158.607 132.6 156.896 135.751C158.49 134.131 160.232 132.682 161.741 130.964C161.772 130.929 161.819 130.964 161.791 131.011C160.291 132.81 158.658 134.77 156.706 136.102C156.181 137.068 155.656 138.049 155.119 139.008C155.252 138.934 155.388 138.867 155.508 138.801C155.531 138.801 155.555 138.824 155.531 138.836C155.38 138.914 155.232 138.992 155.08 139.058C154.828 139.518 154.575 139.977 154.303 140.433C154.287 140.534 154.128 140.445 154.175 140.344Z" fill="#263238"/>
<path d="M155.781 138.649C157.074 137.924 158.307 137.099 159.471 136.18C159.502 136.156 159.549 136.199 159.517 136.226C158.39 137.203 157.155 138.046 155.835 138.739C155.83 138.742 155.823 138.745 155.816 138.746C155.809 138.747 155.803 138.747 155.796 138.745C155.789 138.743 155.783 138.74 155.777 138.736C155.772 138.732 155.767 138.727 155.763 138.721C155.76 138.715 155.758 138.709 155.756 138.702C155.755 138.695 155.756 138.688 155.757 138.682C155.759 138.675 155.762 138.669 155.766 138.663C155.77 138.657 155.775 138.653 155.781 138.649Z" fill="#263238"/>
<path d="M151.232 145.699C151.232 145.797 151.411 145.797 151.407 145.699C151.434 143.004 151.407 140.297 151.45 137.59C152.138 136.199 153.619 135.428 154.646 134.31C155.386 133.495 156.029 132.597 156.563 131.634C157.804 129.335 158.562 126.806 158.79 124.202C159.074 121.319 157.982 111.811 156.769 112.127C156.139 112.294 154.105 117.007 153.565 118.566C152.69 121.141 152.049 123.79 151.652 126.481C150.668 132.806 150.75 139.335 151.232 145.699Z" fill="#FFC727"/>
<path d="M151.213 134.076C151.36 130.668 152.126 127.225 152.846 123.918C153.623 120.357 154.521 117.004 156.345 113.825C156.376 113.767 156.466 113.825 156.434 113.88C155.214 116.35 154.27 118.949 153.619 121.627C153.74 121.432 153.888 121.238 154.008 121.07C154.059 121 154.175 121.07 154.129 121.14C153.964 121.428 153.771 121.698 153.553 121.947C153.55 121.948 153.546 121.949 153.542 121.949C153.538 121.949 153.534 121.948 153.53 121.947C152.9 124.494 152.449 127.096 152.064 129.694C152.091 129.663 152.119 129.628 152.15 129.597C152.181 129.566 152.2 129.597 152.189 129.624C152.142 129.714 152.088 129.795 152.033 129.885C151.839 131.201 151.644 132.518 151.477 133.823C153.81 131.817 155.82 129.449 156.952 126.535C156.952 126.535 156.979 126.535 156.971 126.535C155.867 129.558 154.125 132.245 151.438 134.08C151.392 134.431 151.341 134.781 151.29 135.132C151.29 135.202 151.166 135.186 151.166 135.112C151.166 134.805 151.166 134.493 151.193 134.181C151.187 134.173 151.183 134.164 151.181 134.154C151.179 134.144 151.179 134.134 151.181 134.125C151.182 134.115 151.186 134.105 151.192 134.097C151.197 134.089 151.204 134.082 151.213 134.076Z" fill="#263238"/>
<path d="M152.316 129.137C154.108 126.457 155.78 123.859 157.091 120.899C157.094 120.891 157.1 120.885 157.107 120.881C157.115 120.878 157.124 120.878 157.131 120.881C157.139 120.884 157.145 120.89 157.149 120.898C157.152 120.906 157.152 120.914 157.149 120.922C156.045 123.863 154.497 126.843 152.405 129.207C152.395 129.215 152.382 129.22 152.369 129.22C152.356 129.22 152.343 129.216 152.333 129.208C152.323 129.199 152.315 129.188 152.312 129.175C152.309 129.162 152.31 129.149 152.316 129.137Z" fill="#263238"/>
<path d="M154.696 120.248C155.439 118.932 156.22 117.654 156.92 116.314C156.94 116.275 156.99 116.314 156.975 116.345C156.402 117.745 155.675 119.076 154.809 120.315C154.799 120.327 154.785 120.335 154.769 120.338C154.754 120.341 154.738 120.338 154.724 120.33C154.71 120.322 154.7 120.309 154.695 120.294C154.69 120.279 154.69 120.263 154.696 120.248Z" fill="#263238"/>
<path d="M154.403 120.809V120.832C154.403 120.832 154.392 120.809 154.403 120.809Z" fill="#263238"/>
<path d="M149.412 137.905C149.375 139.696 149.164 141.48 148.782 143.23C148.81 143.421 148.837 143.619 148.868 143.81C149.417 141.882 149.734 139.896 149.813 137.893C149.829 137.866 149.838 137.834 149.838 137.802C149.838 137.77 149.829 137.738 149.813 137.71C149.895 135.019 149.701 132.326 149.233 129.674C148.401 124.72 146.582 119.968 143.133 116.259C143.104 116.233 143.07 116.214 143.033 116.203C142.996 116.193 142.957 116.192 142.919 116.199C142.881 116.207 142.845 116.223 142.815 116.247C142.784 116.271 142.76 116.302 142.744 116.337C141.352 119.882 141.838 124.128 143.024 127.633C143.664 129.548 144.581 131.357 145.746 133.005C146.943 134.68 148.456 136.086 149.412 137.905Z" fill="#FFC727"/>
<path d="M143.536 117.911C146.802 123.224 149.077 129.522 149.368 135.798C149.368 135.907 149.186 135.938 149.17 135.821C149.092 135.26 149.007 134.699 148.917 134.142C147.564 132.845 146.176 131.478 145.208 129.857C145.208 129.826 145.235 129.795 145.255 129.819C146.373 131.198 147.571 132.51 148.843 133.749C148.61 132.362 148.331 130.996 148.007 129.651C147.918 129.554 147.832 129.448 147.747 129.347C147.661 129.246 147.786 129.184 147.844 129.25L147.922 129.339C147.463 127.495 146.893 125.681 146.215 123.906C145.383 122.912 144.454 122.052 143.847 120.856C143.847 120.828 143.87 120.805 143.89 120.828C144.376 121.514 144.85 122.203 145.402 122.838C145.62 123.092 145.865 123.329 146.091 123.575C145.333 121.649 144.434 119.782 143.4 117.989C143.361 117.911 143.486 117.837 143.536 117.911Z" fill="#263238"/>
<path d="M144.199 124.471C145.252 125.892 146.458 127.252 147.437 128.724C147.465 128.763 147.406 128.806 147.371 128.775C146.108 127.606 145.038 125.97 144.125 124.509C144.097 124.463 144.179 124.428 144.199 124.471Z" fill="#263238"/>
<path d="M147.584 129.051L147.63 129.098C147.661 129.129 147.611 129.175 147.58 129.144L147.538 129.102C147.507 129.071 147.553 129.02 147.584 129.051Z" fill="#263238"/>
<path d="M138.416 128.128C138.804 131.094 139.997 133.897 141.865 136.23C142.634 137.146 143.587 137.891 144.661 138.416C145.87 139.015 147.137 139.709 148.393 140.2C148.987 141.719 149.428 143.294 149.711 144.901C149.754 144.765 149.793 144.621 149.832 144.484C149.031 137.566 144.56 131.63 138.844 127.856C138.799 127.827 138.747 127.812 138.694 127.812C138.641 127.812 138.589 127.827 138.544 127.856C138.499 127.884 138.463 127.925 138.44 127.974C138.418 128.022 138.41 128.076 138.416 128.128Z" fill="#FFC727"/>
<path d="M140.391 130.173C140.352 130.134 140.391 130.064 140.449 130.095C143.591 132.435 146.096 135.528 147.735 139.089C147.774 139.183 147.646 139.268 147.591 139.171C147.327 138.707 147.055 138.252 146.779 137.808C145.476 137.562 144.24 136.639 143.28 135.767C143.252 135.743 143.28 135.704 143.318 135.728C143.816 136.185 144.37 136.578 144.967 136.896C145.5 137.165 146.071 137.336 146.627 137.551C146.141 136.772 145.64 136.047 145.115 135.33C143.7 134.788 142.374 134.037 141.18 133.102C141.141 133.075 141.18 133.017 141.215 133.04C142.396 133.752 143.613 134.402 144.862 134.988C144.064 133.935 143.204 132.931 142.288 131.98C141.845 131.747 141.394 131.513 140.966 131.26C140.962 131.258 140.958 131.255 140.954 131.252C140.951 131.249 140.949 131.245 140.947 131.24C140.945 131.236 140.944 131.231 140.944 131.227C140.944 131.222 140.945 131.217 140.947 131.213C140.948 131.209 140.951 131.205 140.954 131.201C140.958 131.198 140.962 131.195 140.966 131.194C140.97 131.192 140.975 131.191 140.98 131.191C140.984 131.191 140.989 131.192 140.993 131.194C141.35 131.319 141.691 131.487 142.008 131.692C141.491 131.19 140.962 130.676 140.391 130.173Z" fill="#263238"/>
<path d="M140.517 132.561C140.593 132.607 140.666 132.659 140.734 132.717C140.758 132.736 140.734 132.764 140.707 132.756C140.628 132.717 140.551 132.673 140.478 132.623C140.439 132.6 140.474 132.534 140.517 132.561Z" fill="#263238"/>
<path d="M158.755 159.882H143.09L144.353 145.59L144.633 142.439H157.211L157.488 145.59L158.755 159.882Z" fill="#455A64"/>
<path d="M157.488 145.59H144.354L144.633 142.439H157.212L157.488 145.59Z" fill="#263238"/>
<path d="M157.962 140.238H143.883V143.358H157.962V140.238Z" fill="#455A64"/>
<path d="M85.6197 22.2528C85.6219 24.7408 84.9332 27.1803 83.6306 29.2986C82.3281 31.4169 80.463 33.1305 78.244 34.2477C76.025 35.3648 73.5395 35.8416 71.0655 35.6246C68.5915 35.4077 66.2265 34.5055 64.235 33.0191L57.6758 34.6979L60.3975 28.5786C59.4361 26.7803 58.8968 24.7861 58.8205 22.7475C58.7442 20.709 59.133 18.6799 59.9573 16.8146C60.7816 14.9492 62.0197 13.2968 63.5774 11.9829C65.1351 10.6691 66.9714 9.72842 68.9465 9.23251C70.9217 8.7366 72.9837 8.69849 74.9758 9.1211C76.9679 9.5437 78.8376 10.4159 80.4425 11.6713C82.0475 12.9267 83.3456 14.5323 84.238 16.3659C85.1304 18.1995 85.5936 20.2129 85.5925 22.2528H85.6197Z" fill="white"/>
<path d="M85.6203 22.253C85.6196 24.7481 84.9287 27.1942 83.6242 29.3198C82.3198 31.4453 80.453 33.1671 78.2309 34.2941C76.0088 35.4211 73.5185 35.9091 71.0363 35.704C68.5542 35.4989 66.1773 34.6087 64.1696 33.1322L64.2862 33.1556L57.7347 34.8617L57.3926 34.9513L57.5364 34.628L60.2581 28.5009V28.6683C59.2773 26.8489 58.7316 24.8261 58.664 22.7594C58.384 16.4803 62.8282 10.5557 68.9481 9.14958C77.3114 7.00723 85.6942 13.6212 85.6203 22.253ZM85.6203 22.253C85.6475 13.6485 77.3153 7.12019 69.0025 9.35602C63.0731 10.7933 58.7223 16.6556 59.0295 22.7438C59.1092 24.7518 59.6409 26.7159 60.5847 28.4892L60.6275 28.571L60.5925 28.6567L57.863 34.7682L57.6686 34.5306L64.2357 32.8868H64.2979C66.2711 34.384 68.6221 35.3 71.0864 35.5319C73.5508 35.7638 76.031 35.3024 78.2479 34.1995C80.4649 33.0967 82.3309 31.3962 83.636 29.2892C84.9412 27.1822 85.6337 24.7522 85.6359 22.2725L85.6203 22.253Z" fill="#263238"/>
<path d="M70.0599 30.2305L64.0566 24.1463L66.0746 22.1519L69.5817 25.7082L76.8602 14.2681L79.2514 15.795L70.0599 30.2305Z" fill="#FFC727"/>
<path d="M65.2503 72.5323C66.2259 72.3895 67.1406 71.9706 67.8868 71.325C68.633 70.6793 69.1797 69.8337 69.4627 68.8875C69.7457 67.9413 69.7532 66.9338 69.4843 65.9834C69.2154 65.0331 68.6813 64.1794 67.9448 63.5227C70.0055 63.0163 71.7551 61.5478 71.8795 59.238C72.0117 56.8425 70.2854 55.0234 68.0303 54.5638C68.0303 54.5638 68.007 54.5872 68.0303 54.5949C70.0327 55.2415 71.6579 56.9983 71.5063 59.2068C71.378 61.096 70.1727 62.2529 68.6369 62.8839C69.2348 62.374 69.7217 61.7465 70.0675 61.0403C70.4133 60.334 70.6106 59.5641 70.647 58.7784C70.6604 57.8999 70.4133 57.0373 69.9372 56.2995C69.461 55.5618 68.7771 54.9821 67.972 54.6339C68.7729 52.7954 68.9907 50.5517 67.9409 48.76C67.5149 48.0093 66.8799 47.3992 66.1135 47.0042C65.347 46.6092 64.4824 46.4465 63.6251 46.5358C63.854 45.5915 63.8015 44.6007 63.4738 43.686C63.1462 42.7714 62.5579 41.9731 61.7819 41.3901C61.0058 40.8071 60.0761 40.465 59.1079 40.4062C58.1397 40.3474 57.1755 40.5744 56.3349 41.0592C56.4313 40.3647 56.3513 39.6571 56.1023 39.0019C55.8534 38.3466 55.4434 37.7649 54.9104 37.3105C54.3773 36.8561 53.7385 36.5438 53.053 36.4024C52.3675 36.2611 51.6575 36.2953 50.9887 36.5018C50.9588 35.9651 50.7754 35.4483 50.4604 35.0131C50.1453 34.578 49.7118 34.2429 49.2118 34.0478C48.0454 33.5493 46.7623 33.8219 45.6231 34.2855C45.304 33.8242 44.8744 33.4506 44.3738 33.1988C43.8731 32.947 43.3174 32.8251 42.7575 32.8442C42.0374 32.8939 41.3583 33.1986 40.8419 33.7038C40.3254 34.2091 40.0053 34.8819 39.9387 35.602C37.9946 35.1307 35.8173 34.8931 33.9976 35.8747C32.5007 36.6849 31.377 38.3092 31.5792 40.0386C30.733 39.9488 29.8773 40.0397 29.0687 40.3055C28.2601 40.5712 27.517 41.0058 26.8883 41.5803C26.2596 42.1549 25.7597 42.8566 25.4216 43.6389C25.0835 44.4213 24.9148 45.2666 24.9266 46.119C24.1991 46.2624 23.522 46.5948 22.9631 47.0829C22.4042 47.571 21.9832 48.1977 21.7423 48.9002C21.3696 49.853 21.2361 50.8829 21.3535 51.8995C20.7108 52.0745 20.1395 52.448 19.7207 52.9668C19.3019 53.4856 19.0569 54.1235 19.0206 54.7897C18.9389 56.1219 19.5883 57.1891 20.4825 58.0656C20.5628 58.4181 20.5628 58.7842 20.4825 59.1367C20.2911 60.0288 20.3238 60.9546 20.5776 61.8309C20.8314 62.7072 21.2984 63.5067 21.9367 64.1576C21.6818 64.6275 21.5299 65.1464 21.491 65.6798C21.4521 66.2131 21.5272 66.7487 21.7111 67.2507C21.8951 67.7527 22.1837 68.2097 22.5579 68.5911C22.932 68.9726 23.383 69.2698 23.8807 69.4629C23.6691 70.5529 23.8938 71.6825 24.5063 72.6081C25.1188 73.5336 26.07 74.1807 27.1545 74.4097C27.0494 75.2874 27.1339 76.1775 27.4022 77.0196C27.6706 77.8617 28.1165 78.6361 28.7098 79.2904C29.6468 80.2954 31.1204 81.0121 32.4346 80.4979C32.4113 81.5808 33.5116 82.3481 34.5575 82.4455C34.9553 82.4683 35.3544 82.4461 35.7473 82.3793C36.21 82.3092 36.7893 82.0988 37.2559 82.2001C37.7224 82.3014 38.084 82.7649 38.4612 83.0493C38.7337 83.2535 39.027 83.4284 39.336 83.5712C40.5005 84.0824 41.804 84.1808 43.0318 83.8501C44.2595 83.5194 45.3381 82.7794 46.0897 81.7522C47.5516 82.8428 49.5034 82.4377 51.012 81.573C51.4928 81.2796 51.9481 80.946 52.3729 80.5758C52.7329 80.2219 53.1932 79.9879 53.6909 79.9058C54.0175 79.8669 54.3558 79.9059 54.6863 79.8669C55.8061 79.7462 56.5643 78.971 57.2213 78.1258C61.2494 80.8796 65.7674 76.9806 65.2503 72.5323ZM19.4561 55.4246C19.3921 54.732 19.5448 54.0366 19.8932 53.435C20.2416 52.8333 20.7682 52.3552 21.4001 52.067C21.4001 52.1721 21.439 52.2384 21.439 52.2384C21.439 52.2384 21.093 52.5461 20.9413 52.7136C20.6702 53.023 20.4461 53.3708 20.2765 53.7458C19.9138 54.53 19.792 55.4045 19.9265 56.2582C19.995 56.6346 20.1099 57.0009 20.2687 57.3488C20.2687 57.3956 20.2998 57.4384 20.3192 57.4813C19.8468 56.8891 19.548 56.1771 19.4561 55.4246ZM43.403 33.7752C42.7444 33.7282 42.0874 33.8849 41.5207 34.2242C40.9539 34.5635 40.5049 35.0689 40.2342 35.6721L40.1292 35.6449C40.4908 34.3127 41.1868 33.1948 42.7809 33.1247C43.273 33.1082 43.7608 33.2215 44.1954 33.4533C44.6301 33.685 44.9964 34.027 45.2576 34.4452H45.2382C44.7013 34.0537 44.0653 33.8216 43.403 33.7752ZM57.3535 77.9466C57.3635 77.9342 57.3726 77.9212 57.3808 77.9076C58.8075 78.4053 60.3717 78.3266 61.7414 77.6881C63.1112 77.0496 64.1787 75.9016 64.7176 74.4877C63.7456 77.6973 61.0511 79.9058 57.3535 77.9466Z" fill="#263238"/>
<path d="M45.0704 96.0243C52.9477 112.91 66.2995 135.755 72.4272 136.717C76.1286 137.294 82.3885 137.796 87.1437 133.305C97.5249 123.509 104.64 109.513 108.583 102.327C110.371 99.0625 90.3591 84.5413 87.8435 87.6224C81.9453 94.8285 75.2927 108.797 74.2001 108.754C70.1643 108.59 64.1766 98.747 54.398 89.6206C42.6208 78.6206 41.7071 88.8104 45.0704 96.0243Z" fill="#AD6359"/>
<path d="M105.729 106.896C110.675 101.61 117.168 93.7339 117.183 90.4191C117.183 86.9446 116.767 74.7137 115.753 71.9053C114.738 69.0969 109.306 61.8518 106.81 60.8975C104.815 60.1185 103.75 62.6036 106.067 67.0909C108.661 72.1079 107.868 74.1334 107.988 75.7421C108.112 77.4092 105.325 84.4984 102.988 85.0905C101.608 85.445 98.746 85.4294 98.0967 82.9365C97.4474 80.4436 98.0967 78.1921 97.1363 73.8451C96.382 70.4641 93.5631 68.3646 92.4006 68.9567C91.238 69.5487 92.2023 71.5703 91.4364 76.6341C90.9581 79.7931 90.4915 82.0601 86.7317 86.6759C83.4424 90.7152 83.2324 96.3086 83.2324 96.3086L105.729 106.896Z" fill="#AD6359"/>
<path d="M117.413 82.6245C117.277 80.7198 118.58 74.9471 118.129 72.4308C117.678 69.9145 114.73 60.6518 111.908 59.8961C108.373 58.9496 109.423 66.479 110.174 69.7081C110.924 72.9372 108.863 78.7566 108.863 78.7566L113.727 80.8288L117.413 82.6245Z" fill="#AD6359"/>
<path d="M108.168 80.085C109.039 77.1559 110.112 74.18 110.163 71.1028C110.011 68.8981 109.572 66.7285 109.467 64.5082C109.435 63.1916 109.354 61.7543 110.019 60.5624C110.132 60.3667 110.288 60.1994 110.475 60.0731C110.662 59.9469 110.876 59.8651 111.1 59.834C110.888 59.8833 110.689 59.9787 110.518 60.1133C110.346 60.2479 110.207 60.4185 110.108 60.613C109.552 61.8127 109.684 63.1955 109.766 64.4887C109.914 66.2416 110.201 67.9944 110.427 69.7511C110.882 73.323 109.435 76.817 108.168 80.085Z" fill="#263238"/>
<path d="M117.25 84.2842C117.639 82.4301 120.474 77.3041 120.75 74.7722C121.026 72.2403 120.773 62.5608 118.308 61.0222C115.197 59.0746 114.132 66.5728 113.957 69.8721C113.782 73.1713 110.209 78.1143 110.209 78.1143L114.26 81.5031L117.25 84.2842Z" fill="#AD6359"/>
<path d="M109.162 79.1735C110.803 76.6339 112.661 74.1098 113.536 71.1806C114.003 69.0421 114.182 66.853 114.703 64.7107C115.037 63.4525 115.352 62.0542 116.316 61.1076C116.478 60.9519 116.673 60.8357 116.887 60.7682C117.101 60.7006 117.327 60.6835 117.549 60.7181C117.333 60.7014 117.116 60.7337 116.914 60.8126C116.712 60.8915 116.53 61.015 116.382 61.1739C115.523 62.1632 115.266 63.511 114.987 64.7652C114.644 66.4791 114.438 68.2164 114.166 69.9575C113.622 73.4826 111.273 76.4196 109.162 79.1657V79.1735Z" fill="#263238"/>
<path d="M109.827 83.6338C107.556 85.5191 104.384 86.2202 101.507 86.4111C99.3078 86.4903 97.1524 87.0458 95.1884 88.0392C94.5317 88.3702 93.8943 88.7382 93.2793 89.1416C95.6039 87.2436 98.4792 86.1504 101.475 86.0254C104.364 85.8229 107.366 85.2464 109.823 83.6299L109.827 83.6338Z" fill="#263238"/>
<path d="M117.009 61.9064L106.721 89.8271C106.573 90.2076 106.299 90.5258 105.945 90.7286C105.591 90.9313 105.179 91.0064 104.777 90.9411L90.7988 88.1522C90.6188 88.1197 90.4485 88.0469 90.3006 87.9392C90.1527 87.8315 90.031 87.6917 89.9447 87.5302C89.8583 87.3688 89.8095 87.1898 89.8018 87.0068C89.7942 86.8238 89.828 86.6414 89.9006 86.4733L100.189 58.5565C100.334 58.174 100.607 57.8536 100.961 57.6498C101.316 57.446 101.73 57.3714 102.133 57.4386L116.11 60.2276C116.29 60.2601 116.461 60.3329 116.609 60.4406C116.756 60.5483 116.878 60.6881 116.964 60.8495C117.051 61.011 117.1 61.1899 117.107 61.3729C117.115 61.5559 117.081 61.7383 117.009 61.9064Z" fill="#37474F"/>
<path d="M115.251 60.056L101.254 57.2709C100.851 57.2034 100.438 57.2774 100.083 57.4805C99.729 57.6835 99.4557 58.003 99.3097 58.3849L89.0217 86.3017C88.9491 86.4698 88.9153 86.6522 88.9229 86.8352C88.9306 87.0182 88.9794 87.1971 89.0658 87.3586C89.1521 87.52 89.2738 87.6598 89.4217 87.7675C89.5696 87.8752 89.7399 87.948 89.9199 87.9805L103.917 90.7695C104.32 90.8362 104.733 90.7619 105.087 90.5589C105.441 90.356 105.715 90.0369 105.861 89.6555L116.149 61.7387C116.222 61.5704 116.257 61.3876 116.25 61.2041C116.242 61.0206 116.194 60.8412 116.107 60.6792C116.021 60.5173 115.899 60.377 115.75 60.2691C115.602 60.1612 115.431 60.0883 115.251 60.056ZM105.297 88.6154C105.172 88.9688 104.93 89.2684 104.611 89.4641C104.291 89.6598 103.915 89.7397 103.544 89.6905L91.0358 87.1976C90.8704 87.1617 90.7153 87.0888 90.582 86.9845C90.4487 86.8801 90.3407 86.7469 90.2659 86.5949C90.1911 86.4429 90.1516 86.2759 90.1503 86.1064C90.1489 85.9369 90.1858 85.7694 90.2581 85.6161L99.854 59.6197C100.406 58.12 101.02 58.1629 101.701 58.3031L104.205 58.8017C104.353 58.829 104.411 59.0159 104.337 59.2146L104.306 59.3003C104.135 59.7638 104.395 59.8183 104.718 59.8846L110.511 61.0531C110.838 61.1154 111.098 61.1661 111.289 60.7026L111.32 60.6169C111.394 60.4143 111.569 60.278 111.709 60.3091L114.213 60.8077C114.913 60.9479 115.406 61.2596 114.901 62.6307L105.297 88.6154Z" fill="#263238"/>
<path d="M114.878 62.619L105.298 88.6154C105.172 88.9688 104.93 89.2684 104.611 89.4641C104.292 89.6598 103.915 89.7397 103.544 89.6905L91.0359 87.1976C90.8706 87.1617 90.7155 87.0888 90.5822 86.9845C90.4489 86.8801 90.3408 86.7469 90.2661 86.5949C90.1913 86.4429 90.1518 86.2759 90.1504 86.1064C90.1491 85.9369 90.186 85.7693 90.2583 85.6161L99.8542 59.6197C100.406 58.12 101.021 58.1629 101.701 58.3031L104.205 58.8017C104.353 58.829 104.411 59.0159 104.337 59.2146L104.306 59.3003C104.135 59.7638 104.395 59.8183 104.718 59.8845L110.511 61.0531C110.838 61.1154 111.099 61.1661 111.289 60.7025L111.32 60.6168C111.394 60.4143 111.569 60.278 111.709 60.3091L114.213 60.8077C114.889 60.9362 115.383 61.2479 114.878 62.619Z" fill="white"/>
<path d="M103.545 59.3002H103.51C103.49 59.2631 103.461 59.2311 103.427 59.2068C103.392 59.1824 103.353 59.1664 103.311 59.16C103.219 59.145 103.125 59.1615 103.043 59.2068V59.1795L103.082 59.1561L103.171 59.1288C103.206 59.125 103.241 59.125 103.276 59.1288H103.366H103.397C103.424 59.1365 103.451 59.1483 103.475 59.1639L103.525 59.2029C103.54 59.218 103.553 59.235 103.564 59.2535L103.583 59.2808L103.545 59.3002Z" fill="#C7C7C7"/>
<path d="M103.074 59.3234L103.051 59.2806C103.105 59.2467 103.169 59.2304 103.234 59.2339C103.276 59.2355 103.317 59.2478 103.353 59.2696C103.389 59.2914 103.419 59.322 103.44 59.3585L103.389 59.3858C103.375 59.361 103.355 59.3397 103.332 59.3235C103.308 59.3073 103.281 59.2967 103.253 59.2923C103.192 59.2815 103.128 59.2926 103.074 59.3234Z" fill="#C7C7C7"/>
<path d="M103.354 59.4169L103.304 59.4442C103.296 59.4324 103.287 59.4222 103.275 59.4142C103.264 59.4062 103.251 59.4005 103.238 59.3974C103.208 59.3861 103.174 59.3861 103.144 59.3974L103.121 59.3546C103.14 59.3423 103.162 59.3341 103.184 59.3306C103.207 59.3271 103.23 59.3283 103.251 59.3341C103.273 59.34 103.294 59.3504 103.312 59.3647C103.329 59.3789 103.344 59.3967 103.354 59.4169Z" fill="#C7C7C7"/>
<path d="M103.225 59.4832C103.221 59.4917 103.214 59.4985 103.206 59.5027C103.197 59.5069 103.188 59.5082 103.179 59.5064C103.175 59.5055 103.171 59.5038 103.167 59.5013C103.164 59.4989 103.161 59.4957 103.159 59.4921C103.157 59.4885 103.155 59.4844 103.155 59.4802C103.154 59.476 103.154 59.4718 103.155 59.4677C103.159 59.4589 103.166 59.4516 103.174 59.4468C103.183 59.4419 103.192 59.4398 103.202 59.4406C103.206 59.4414 103.211 59.4432 103.215 59.446C103.218 59.4487 103.221 59.4522 103.224 59.4563C103.226 59.4604 103.227 59.4649 103.227 59.4696C103.228 59.4743 103.227 59.4789 103.225 59.4832Z" fill="#C7C7C7"/>
<path d="M101.157 58.8989C101.168 58.8727 101.187 58.8509 101.212 58.8368C101.236 58.8227 101.265 58.8171 101.293 58.821C101.305 58.8235 101.317 58.8287 101.327 58.8363C101.337 58.8439 101.346 58.8536 101.352 58.8647C101.358 58.8759 101.361 58.8883 101.362 58.9009C101.362 58.9136 101.36 58.9262 101.355 58.9379C101.346 58.965 101.326 58.9878 101.302 59.002C101.277 59.0163 101.247 59.0212 101.219 59.0158C101.207 59.0133 101.195 59.0081 101.185 59.0006C101.175 58.993 101.166 58.9833 101.16 58.9721C101.155 58.9609 101.151 58.9486 101.15 58.9359C101.15 58.9233 101.152 58.9106 101.157 58.8989Z" fill="#C7C7C7"/>
<path d="M101.471 58.9614C101.482 58.9347 101.501 58.9124 101.526 58.8983C101.55 58.8841 101.579 58.8789 101.607 58.8835C101.62 58.886 101.632 58.8912 101.642 58.8987C101.652 58.9063 101.66 58.916 101.666 58.9272C101.672 58.9383 101.675 58.9507 101.676 58.9633C101.677 58.976 101.675 58.9886 101.67 59.0003C101.659 59.027 101.64 59.0493 101.615 59.0634C101.591 59.0776 101.562 59.0829 101.534 59.0782C101.521 59.0757 101.509 59.0705 101.499 59.063C101.489 59.0554 101.481 59.0457 101.475 59.0345C101.469 59.0234 101.466 59.011 101.465 58.9984C101.464 58.9857 101.467 58.9731 101.471 58.9614Z" fill="#C7C7C7"/>
<path d="M101.799 59.024C101.81 58.9985 101.829 58.9771 101.852 58.9631C101.876 58.949 101.904 58.9431 101.931 58.9461C101.944 58.9481 101.956 58.9529 101.967 58.9603C101.978 58.9676 101.986 58.9773 101.993 58.9885C101.999 58.9997 102.003 59.0123 102.004 59.0252C102.004 59.038 102.002 59.051 101.998 59.0629C101.987 59.0896 101.968 59.1119 101.943 59.1261C101.919 59.1402 101.89 59.1455 101.861 59.1408C101.849 59.1391 101.837 59.1343 101.826 59.1269C101.815 59.1195 101.807 59.1097 101.801 59.0983C101.795 59.0869 101.791 59.0742 101.791 59.0613C101.791 59.0484 101.794 59.0356 101.799 59.024Z" fill="#C7C7C7"/>
<path d="M102.098 59.094C102.109 59.068 102.128 59.0466 102.153 59.0332C102.178 59.0197 102.206 59.0151 102.234 59.02C102.247 59.0219 102.259 59.0268 102.27 59.0341C102.28 59.0415 102.289 59.0511 102.295 59.0624C102.302 59.0736 102.305 59.0862 102.306 59.099C102.307 59.1119 102.305 59.1248 102.3 59.1368C102.289 59.1623 102.269 59.1833 102.245 59.1967C102.22 59.2101 102.192 59.215 102.164 59.2108C102.151 59.2088 102.139 59.204 102.129 59.1966C102.118 59.1893 102.109 59.1796 102.103 59.1684C102.097 59.1572 102.093 59.1446 102.092 59.1317C102.091 59.1188 102.093 59.1059 102.098 59.094Z" fill="#C7C7C7"/>
<path d="M102.413 59.1487C102.424 59.1227 102.443 59.1013 102.468 59.0879C102.493 59.0744 102.521 59.0698 102.549 59.0746C102.562 59.0764 102.574 59.0812 102.584 59.0886C102.595 59.096 102.604 59.1058 102.61 59.1172C102.616 59.1286 102.619 59.1413 102.619 59.1542C102.62 59.1671 102.617 59.1799 102.611 59.1915C102.6 59.2174 102.581 59.2389 102.556 59.2523C102.531 59.2657 102.503 59.2704 102.475 59.2655C102.463 59.263 102.451 59.2578 102.441 59.2503C102.431 59.2427 102.422 59.233 102.416 59.2218C102.41 59.2106 102.407 59.1983 102.406 59.1856C102.406 59.173 102.408 59.1604 102.413 59.1487Z" fill="#C7C7C7"/>
<path d="M114.012 61.6919L113.199 61.5283L113.335 61.1621L114.144 61.3257L114.012 61.6919ZM113.258 61.4971L113.985 61.6412L114.09 61.3569L113.359 61.2127L113.258 61.4971Z" fill="#C7C7C7"/>
<path d="M113.898 61.3415L113.377 61.2402L113.287 61.4817L113.808 61.583L113.898 61.3415Z" fill="#C7C7C7"/>
<path d="M114.111 61.6181L114.041 61.6064L114.111 61.4116L114.185 61.4233L114.111 61.6181Z" fill="#C7C7C7"/>
<path d="M108.606 60.0365L107.024 59.721C107.012 59.719 107 59.7143 106.99 59.7071C106.98 59.7 106.971 59.6906 106.965 59.6797C106.959 59.6688 106.956 59.6567 106.955 59.6443C106.955 59.6319 106.957 59.6195 106.962 59.608C106.972 59.5828 106.991 59.5619 107.015 59.5485C107.039 59.5352 107.067 59.5301 107.094 59.534L108.676 59.8495C108.689 59.8515 108.7 59.8562 108.71 59.8634C108.721 59.8705 108.729 59.8799 108.735 59.8908C108.741 59.9017 108.744 59.9138 108.745 59.9262C108.746 59.9386 108.743 59.951 108.739 59.9625C108.728 59.9881 108.71 60.0094 108.685 60.0229C108.661 60.0363 108.633 60.0412 108.606 60.0365Z" fill="white"/>
<path d="M92.2877 85.8031L92.2138 85.7914L92.0933 86.1186L91.9533 86.0913L92.0155 85.9238L91.7745 85.8732L91.7123 86.0407L91.5762 86.0134L91.6967 85.6862L91.6228 85.6706L92.0777 85.4058L92.2877 85.8031Z" fill="#EBEBEB"/>
<path d="M104.283 87.9572L103.482 87.7975L103.521 87.6885L104.326 87.8482L104.283 87.9572Z" fill="#EBEBEB"/>
<path d="M104.182 88.2336L103.381 88.0739L103.42 87.9609L104.225 88.1245L104.182 88.2336Z" fill="#EBEBEB"/>
<path d="M104.08 88.5105L103.279 88.3508L103.318 88.2378L104.123 88.3975L104.08 88.5105Z" fill="#EBEBEB"/>
<path d="M98.1444 86.9835L97.8294 87.1705L97.6895 86.8901L97.7439 86.8628L97.8605 87.0926L98.1171 86.9368L98.1444 86.9835Z" fill="#EBEBEB"/>
<path d="M97.7396 87.4156C97.6874 87.4069 97.6378 87.3864 97.5946 87.3557C97.5515 87.325 97.5158 87.2849 97.4904 87.2384C97.4649 87.1919 97.4503 87.1402 97.4477 87.0873C97.4451 87.0343 97.4545 86.9814 97.4752 86.9326C97.5182 86.8226 97.5978 86.7307 97.7004 86.6726C97.8031 86.6144 97.9227 86.5934 98.039 86.6132C98.0912 86.6219 98.1407 86.6424 98.1839 86.6731C98.2271 86.7038 98.2627 86.7439 98.2882 86.7904C98.3136 86.8369 98.3282 86.8886 98.3308 86.9416C98.3335 86.9945 98.3241 87.0474 98.3034 87.0962C98.2603 87.2063 98.1808 87.2981 98.0781 87.3563C97.9754 87.4144 97.8559 87.4354 97.7396 87.4156ZM98.0156 86.6677C97.9152 86.6502 97.8117 86.6682 97.7231 86.7186C97.6344 86.7691 97.566 86.8489 97.5296 86.9443C97.512 86.9868 97.5042 87.0327 97.5067 87.0786C97.5091 87.1245 97.5218 87.1693 97.5438 87.2096C97.5658 87.25 97.5966 87.2849 97.6338 87.3118C97.6711 87.3387 97.7138 87.3568 97.759 87.365C97.8604 87.3817 97.9645 87.363 98.0537 87.3119C98.1429 87.2609 98.2119 87.1806 98.2489 87.0845C98.2665 87.042 98.2743 86.9961 98.2716 86.9501C98.2689 86.9042 98.2559 86.8595 98.2334 86.8193C98.2109 86.7792 98.1797 86.7447 98.1419 86.7184C98.1042 86.6922 98.061 86.6748 98.0156 86.6677Z" fill="#EBEBEB"/>
<path d="M100.815 61.5207L100.516 61.0299L101.111 60.7144L101.153 60.7962L100.663 61.0571L100.908 61.4622L100.815 61.5207Z" fill="#DBDBDB"/>
<path d="M113.421 63.3319C113.411 63.3552 113.394 63.3744 113.372 63.3865C113.35 63.3986 113.325 63.4027 113.3 63.3981C113.289 63.3968 113.278 63.3929 113.269 63.3865C113.26 63.3802 113.252 63.3717 113.247 63.3617C113.241 63.3518 113.238 63.3407 113.238 63.3294C113.238 63.3181 113.241 63.3069 113.246 63.2969C113.254 63.2739 113.271 63.2548 113.292 63.2427C113.314 63.2306 113.338 63.2263 113.362 63.2306C113.374 63.2322 113.384 63.2363 113.394 63.2426C113.403 63.2489 113.411 63.2572 113.416 63.267C113.422 63.2768 113.425 63.2877 113.426 63.2989C113.427 63.3102 113.425 63.3215 113.421 63.3319Z" fill="#DBDBDB"/>
<path d="M113.307 63.6319C113.299 63.6551 113.282 63.6747 113.261 63.6875C113.24 63.7002 113.215 63.7053 113.191 63.702C113.179 63.6999 113.169 63.6954 113.159 63.6887C113.15 63.682 113.142 63.6733 113.137 63.6632C113.131 63.6532 113.128 63.642 113.127 63.6305C113.126 63.6191 113.128 63.6076 113.132 63.5968C113.142 63.574 113.16 63.5552 113.181 63.5432C113.203 63.5312 113.228 63.5268 113.253 63.5306C113.264 63.5327 113.274 63.5371 113.283 63.5436C113.292 63.5501 113.299 63.5586 113.304 63.5683C113.309 63.578 113.312 63.5887 113.313 63.5997C113.313 63.6107 113.312 63.6217 113.307 63.6319Z" fill="#DBDBDB"/>
<path d="M113.194 63.9356C113.185 63.9585 113.169 63.9777 113.148 63.9898C113.126 64.0019 113.102 64.0061 113.077 64.0018C113.066 64.0003 113.056 63.9962 113.046 63.9899C113.037 63.9836 113.029 63.9752 113.024 63.9655C113.018 63.9557 113.015 63.9448 113.014 63.9335C113.013 63.9223 113.015 63.911 113.019 63.9005C113.029 63.8773 113.046 63.858 113.068 63.846C113.09 63.8339 113.115 63.8298 113.14 63.8343C113.151 63.8356 113.162 63.8396 113.171 63.8459C113.18 63.8523 113.188 63.8608 113.193 63.8707C113.199 63.8807 113.201 63.8918 113.202 63.9031C113.202 63.9143 113.199 63.9255 113.194 63.9356Z" fill="#DBDBDB"/>
<path d="M104.307 61.8203C106.056 62.1047 107.806 62.4513 109.501 62.8564C107.752 62.576 106.002 62.2293 104.307 61.8203Z" fill="#DBDBDB"/>
<path d="M99.4102 63.1333C100.674 63.318 101.928 63.5676 103.166 63.8812C101.902 63.6965 100.649 63.4468 99.4102 63.1333Z" fill="#DBDBDB"/>
<path d="M109.291 66.5806C110.152 66.686 111.003 66.8566 111.838 67.0908C110.977 66.9869 110.125 66.8163 109.291 66.5806Z" fill="#DBDBDB"/>
<path d="M109.186 66.8569C110.046 66.9608 110.898 67.1314 111.732 67.3672C110.872 67.2622 110.02 67.0916 109.186 66.8569Z" fill="#DBDBDB"/>
<path d="M99.2715 63.5151C100.085 63.6115 100.89 63.773 101.678 63.9981C100.864 63.9018 100.06 63.7403 99.2715 63.5151Z" fill="#DBDBDB"/>
<path d="M104.55 65.7157L102.186 69.085L100.818 72.7971C100.334 72.7159 99.8748 72.526 99.4748 72.2416C99.0749 71.9572 98.7444 71.5857 98.5083 71.155C98.2722 70.7243 98.1366 70.2456 98.1116 69.7548C98.0867 69.2641 98.173 68.7741 98.3642 68.3216C98.7611 67.3083 99.4931 66.4623 100.438 65.9248C101.383 65.3874 102.483 65.1912 103.555 65.369C103.902 65.4359 104.237 65.5527 104.55 65.7157Z" fill="#FFC727"/>
<path d="M103.353 72.5244C102.553 72.8605 101.672 72.9553 100.818 72.7971L102.187 69.085L103.353 72.5244Z" fill="#263238"/>
<path d="M106.009 69.8445C105.774 70.4506 105.417 71.0015 104.959 71.4626C104.501 71.9238 103.954 72.2852 103.35 72.5243L102.184 69.0849L106.021 67.3438C106.329 68.1496 106.325 69.0415 106.009 69.8445Z" fill="#37474F"/>
<path d="M106.538 67.1568L102.133 69.1551L104.854 65.2949C105.619 65.6956 106.215 66.3556 106.538 67.1568Z" fill="#C7C7C7"/>
<path d="M104.097 69.4629C103.899 69.9699 103.532 70.3932 103.06 70.6619C102.587 70.9307 102.036 71.0285 101.5 70.9392C101.258 70.8984 101.029 70.8034 100.829 70.6614C100.629 70.5193 100.464 70.3338 100.346 70.1188C100.228 69.9038 100.16 69.6648 100.147 69.4196C100.134 69.1745 100.176 68.9296 100.271 68.7033C100.47 68.1963 100.836 67.773 101.309 67.5043C101.782 67.2355 102.332 67.1377 102.868 67.227C103.111 67.2664 103.341 67.3605 103.542 67.5023C103.742 67.644 103.908 67.8296 104.027 68.0451C104.145 68.2605 104.213 68.5002 104.225 68.7458C104.237 68.9915 104.194 69.2367 104.097 69.4629Z" fill="white"/>
<path d="M108.777 66.8414L108.365 66.7596L108.513 66.3623L108.925 66.4441L108.777 66.8414Z" fill="#FFC727"/>
<path d="M108.906 67.6284C109.767 67.7323 110.618 67.9029 111.453 68.1387C110.592 68.0336 109.741 67.8631 108.906 67.6284Z" fill="#DBDBDB"/>
<path d="M108.797 67.9048C109.657 68.0093 110.509 68.1785 111.344 68.4112C110.483 68.3074 109.632 68.1381 108.797 67.9048Z" fill="#DBDBDB"/>
<path d="M108.393 67.8892L107.98 67.8075L108.128 67.4062L108.54 67.488L108.393 67.8892Z" fill="#263238"/>
<path d="M108.518 68.6763C109.38 68.7797 110.232 68.9504 111.068 69.1865C110.206 69.0811 109.354 68.9105 108.518 68.6763Z" fill="#DBDBDB"/>
<path d="M108.408 68.9526C109.269 69.0564 110.12 69.2257 110.955 69.459C110.095 69.3545 109.243 69.1852 108.408 68.9526Z" fill="#DBDBDB"/>
<path d="M108.008 68.9371L107.596 68.8553L107.743 68.4541L108.152 68.5359L108.008 68.9371Z" fill="#37474F"/>
<path d="M108.133 69.7236C108.993 69.8274 109.845 69.9967 110.68 70.23C109.819 70.1255 108.968 69.9562 108.133 69.7236Z" fill="#DBDBDB"/>
<path d="M108.02 70.0005C108.88 70.1042 109.731 70.2735 110.566 70.5069C109.706 70.4024 108.855 70.2331 108.02 70.0005Z" fill="#DBDBDB"/>
<path d="M107.619 69.985L107.211 69.9032L107.355 69.502L107.767 69.5838L107.619 69.985Z" fill="#C7C7C7"/>
<path d="M100.08 86.3057L99.1816 86.1266L102.339 77.5649L103.237 77.7441L100.08 86.3057Z" fill="#EBEBEB"/>
<path d="M95.7715 73.2451C98.1977 73.6619 100.733 74.1683 103.116 74.7097C100.69 74.289 98.151 73.7865 95.7715 73.2451Z" fill="#263238"/>
<path d="M95.5977 73.7202C96.9779 73.9306 98.3466 74.2032 99.6802 74.5343C98.2999 74.3279 96.9313 74.0552 95.5977 73.7202Z" fill="#263238"/>
<path d="M106.156 75.3174C107.122 75.4594 108.08 75.6505 109.026 75.89C108.06 75.7472 107.103 75.5561 106.156 75.3174Z" fill="#FFC727"/>
<path d="M94.0377 81.1717L93.7422 81.1132L95.4607 76.4546L95.7562 76.513L94.0377 81.1717Z" fill="#FFC727"/>
<path d="M92.7857 84.5724L92.4902 84.51L93.5945 81.5146L93.89 81.5731L92.7857 84.5724Z" fill="#455A64"/>
<path d="M96.1646 79.5321L95.8691 79.4698L96.8762 76.7393L97.1717 76.7977L96.1646 79.5321Z" fill="#FFC727"/>
<path d="M94.2057 84.8526L93.9102 84.7941L95.722 79.8745L96.0175 79.9329L94.2057 84.8526Z" fill="#455A64"/>
<path d="M98.1275 78.3361L97.832 78.2777L98.2947 77.0195L98.5902 77.078L98.1275 78.3361Z" fill="#FFC727"/>
<path d="M95.6197 85.1369L95.3281 85.0785L97.6843 78.6787L97.9798 78.741L95.6197 85.1369Z" fill="#455A64"/>
<path d="M98.7311 80.825L98.4395 80.7665L99.7148 77.3037L100.01 77.3621L98.7311 80.825Z" fill="#FFC727"/>
<path d="M97.0396 85.4176L96.7441 85.3592L98.2877 81.1719L98.5832 81.2303L97.0396 85.4176Z" fill="#455A64"/>
<path d="M100.419 80.3773L100.123 80.3189L101.134 77.5884L101.426 77.6468L100.419 80.3773Z" fill="#FFC727"/>
<path d="M98.4576 85.7017L98.1621 85.6432L99.974 80.7236L100.269 80.7821L98.4576 85.7017Z" fill="#455A64"/>
<path d="M100.647 83.8906L100.352 83.8322L102.548 77.8687L102.844 77.9271L100.647 83.8906Z" fill="#FFC727"/>
<path d="M99.8736 85.9862L99.582 85.9239L100.204 84.2334L100.5 84.2918L99.8736 85.9862Z" fill="#455A64"/>
<path d="M103.331 80.7431L103.035 80.6847L103.968 78.1528L104.264 78.2113L103.331 80.7431Z" fill="#FFC727"/>
<path d="M101.294 86.2665L100.998 86.2081L102.888 81.0859L103.183 81.1444L101.294 86.2665Z" fill="#455A64"/>
<path d="M103.046 85.6397L102.75 85.5813L105.386 78.4336L105.678 78.492L103.046 85.6397Z" fill="#FFC727"/>
<path d="M102.712 86.5511L102.416 86.4927L102.603 85.9863L102.898 86.0448L102.712 86.5511Z" fill="#455A64"/>
<path d="M106.534 80.307L106.238 80.2486L106.802 78.7178L107.098 78.7762L106.534 80.307Z" fill="#FFC727"/>
<path d="M104.128 86.8355L103.836 86.7731L106.091 80.6499L106.387 80.7083L104.128 86.8355Z" fill="#455A64"/>
<path d="M96.8066 75.1265C97.6685 75.2319 98.5211 75.4025 99.3572 75.6367C98.4951 75.5333 97.6423 75.3627 96.8066 75.1265Z" fill="#DBDBDB"/>
<path d="M96.7051 75.4028C97.566 75.506 98.4175 75.6766 99.2518 75.9131C98.3913 75.8073 97.54 75.6367 96.7051 75.4028Z" fill="#DBDBDB"/>
<path d="M96.293 75.3873L95.8848 75.3055L96.0325 74.9082L96.4408 74.99L96.293 75.3873Z" fill="#FFC727"/>
<path d="M101.059 75.9756C101.921 76.0791 102.774 76.2497 103.609 76.4859C102.747 76.3824 101.894 76.2118 101.059 75.9756Z" fill="#DBDBDB"/>
<path d="M100.959 76.252C101.819 76.3557 102.671 76.525 103.506 76.7583C102.645 76.6538 101.794 76.4846 100.959 76.252Z" fill="#DBDBDB"/>
<path d="M100.551 76.2364L100.139 76.1546L100.286 75.7534L100.695 75.8352L100.551 76.2364Z" fill="#455A64"/>
<path d="M116.446 92.7211C117.223 91.0423 119.914 84.4361 120.065 81.6393C120.217 78.8426 119.385 68.1737 116.566 66.5689C113.001 64.5512 112.231 72.8401 112.227 76.4782C112.223 80.1163 108.98 83.9764 108.98 83.9764L114.183 88.5844L116.446 92.7211Z" fill="#AD6359"/>
<path d="M112.684 70.7796C112.728 71.9899 112.71 73.2016 112.63 74.4099C112.635 75.5596 112.555 76.708 112.389 77.8455C112.137 78.948 111.705 80.001 111.109 80.9616C110.826 81.4407 110.518 81.9004 110.192 82.3522C109.865 82.8041 109.434 83.3104 109.092 83.809C109.057 83.8597 108.967 83.809 109.002 83.7545C109.593 82.814 110.122 81.8355 110.585 80.8253C111.084 79.7883 111.454 78.6932 111.685 77.565C112.136 75.3214 112.097 72.9999 112.529 70.7524C112.536 70.6628 112.684 70.69 112.684 70.7796Z" fill="#263238"/>
<path d="M112.378 77.8412C112.339 75.2937 111.674 64.7105 116.235 66.2764C118.777 67.7566 119.469 73.2877 119.765 76.0144C119.275 73.4669 118.396 67.9435 116.075 66.5958C112.144 65.3143 112.619 75.508 112.378 77.8256V77.8412Z" fill="#263238"/>
<path d="M83.0344 93.3715L105.585 111.998C105.585 111.998 93.5829 130.364 85.445 135.549C81.6036 137.991 73.8118 138.002 71.2145 137.029C68.7883 136.125 55.1722 122.515 44.9853 98.0145C37.0885 78.9593 49.6977 83.6335 54.4217 88.5687C59.5152 93.8856 72.9525 107.523 73.6913 107.301C74.43 107.079 83.0344 93.3715 83.0344 93.3715Z" fill="#FFC727"/>
<path d="M80.1026 100.102C83.5047 102.759 86.8213 105.517 90.1184 108.282C91.7359 109.642 97.9491 115.294 99.7415 116.887C99.8115 116.953 99.6443 117.136 99.5666 117.078C97.8052 115.718 91.2343 110.179 89.6402 108.793C86.3936 105.965 83.1665 103.117 80.0249 100.172C79.9704 100.134 80.0443 100.056 80.1026 100.102Z" fill="#263238"/>
<path opacity="0.1" d="M83.1363 136.608C79.0654 137.967 73.3732 137.835 71.2309 137.029C68.8047 136.121 55.1885 122.511 44.9977 98.0184C40.6586 87.5832 42.4899 84.2684 45.8142 84.2295C50.6161 90.9136 70.5893 118.877 83.1363 136.608Z" fill="black"/>
<path d="M68.2827 159.87H8.71289C11.629 145.735 24.3353 94.8207 34.6972 87.2913C41.0698 82.656 49.472 85.8695 50.9184 87.8483C56.7933 95.9737 66.5758 146.868 68.2827 159.87Z" fill="#EBEBEB"/>
<path d="M51.8988 89.3558C51.8988 89.3285 51.8521 89.3363 51.8521 89.3558C52.1437 91.8409 52.6297 97.6096 48.0962 97.5356C46.2727 97.5084 44.5697 96.632 43.1427 95.7555C41.7066 94.8647 40.3716 93.8198 39.1613 92.6394C37.7922 91.3863 36.5342 90.0165 35.4015 88.5455C35.3548 88.4832 35.246 88.5455 35.2926 88.6196C36.4318 90.0764 37.3961 91.6033 38.7025 92.9588C39.9703 94.3066 41.4173 95.4731 43.0028 96.4255C44.5269 97.3214 46.3349 98.19 48.2634 98.1355C49.0646 98.1491 49.8486 97.9016 50.4972 97.4302C51.1458 96.9588 51.6241 96.2891 51.8599 95.5218C52.4781 93.5587 52.342 91.3072 51.8988 89.3558Z" fill="#263238"/>
<path d="M36.5977 85.3047C36.5977 85.3047 40.548 106.424 41.2945 114.265C42.041 122.106 39.6654 159.87 39.6654 159.87H7.70508C7.70508 159.87 17.3865 113.432 26.8852 95.4439C32.2002 85.406 36.5977 85.3047 36.5977 85.3047Z" fill="#FFC727"/>
<path d="M50.2227 86.7495C50.2227 86.7495 56.6031 110.639 57.023 113.178C57.4429 115.718 59.5619 160.076 59.5619 160.076L70.0015 160.002C70.0015 160.002 59.0292 93.1376 50.2227 86.7495Z" fill="#FFC727"/>
<path d="M26.6028 93.8466C13.1499 111.99 -1.87764 148.293 2.7531 154.561C7.91652 161.572 26.6261 136.137 26.3579 134.847C26.1557 133.87 30.9808 112.431 34.7329 96.7992C38.4849 81.1678 29.9272 89.3594 26.6028 93.8466Z" fill="#AD6359"/>
<path d="M26.5088 134.851C26.8704 132.58 33.558 104.262 35.3543 95.3502C37.1506 86.438 34.0129 84.206 26.5632 93.1844C19.1136 102.163 4.05494 130.765 1.72207 145.177C-0.529149 159.036 6.2945 158.074 14.4401 150.681C21.1082 144.616 26.5088 134.851 26.5088 134.851Z" fill="#FFC727"/>
<path d="M26.5098 134.851C28.446 123.859 30.9085 112.978 33.8972 102.209C31.9661 113.199 29.5036 124.08 26.5098 134.851Z" fill="#263238"/>
<path d="M34.258 103.818C34.1642 105.303 33.5942 106.717 32.6328 107.85C33.0916 106.483 33.6748 105.143 34.258 103.818Z" fill="#263238"/>
<path d="M2.75282 154.561C6.99476 159.126 16.75 158.733 41.3813 160.061C44.7911 160.244 52.5557 136.487 48.9242 136.105C44.3518 135.622 26.5014 134.742 25.2067 134.839C14.11 135.689 -0.124383 151.468 2.75282 154.561Z" fill="#AD6359"/>
<path d="M44.6164 136.955C44.6164 136.955 53.6835 134.022 58.9246 133.956C65.9427 133.87 72.0354 136.682 74.516 138.026C79.6989 140.815 90.3017 151.149 87.8639 154.729C85.6593 157.965 75.3519 146.856 75.3519 146.856C75.3519 146.856 87.7278 156.446 84.3529 159.859C80.978 163.271 69.7492 149.692 69.7492 149.692C69.7492 149.692 82.2417 159.82 78.2097 162.799C75.1614 165.039 64.2941 153.315 64.2941 153.315C64.2941 153.315 74.9709 162.106 71.9382 164.544C68.5827 167.244 57.8787 157.05 57.8787 157.05C49.1188 161.954 42.9445 160.696 38.6598 159.282C37.6217 158.939 44.6164 136.955 44.6164 136.955Z" fill="#AD6359"/>
<path d="M71.2837 143.265C72.7767 144.34 74.297 145.415 75.6928 146.619C77.0886 147.822 78.4378 149.076 79.7131 150.405C82.843 153.661 84.2933 156.189 84.1883 156.045C81.6649 152.578 76.7426 148.192 75.3467 146.989C73.9509 145.785 72.6251 144.519 71.237 143.315C71.202 143.284 71.2487 143.23 71.2837 143.265Z" fill="#263238"/>
<path d="M66.8564 148.227C68.7033 149.68 70.5929 151.055 72.3775 152.594C74.1622 154.133 75.7058 155.71 77.3738 157.377C77.5021 157.502 77.3738 157.529 77.2571 157.408C75.5269 155.827 73.8045 154.503 72.0548 152.945C70.3052 151.386 68.6177 149.758 66.8175 148.27C66.8059 148.247 66.8292 148.204 66.8564 148.227Z" fill="#263238"/>
<path d="M62.2916 151.799C65.2311 153.875 67.7817 156.493 70.2234 159.122C70.3478 159.251 70.2001 159.27 70.0679 159.146C67.4784 156.66 65.4605 154.693 62.2178 151.901C62.1672 151.862 62.2294 151.76 62.2916 151.799Z" fill="#263238"/>
<path d="M46.0934 135.385L28.3791 161.783C28.3791 161.783 6.45012 159.893 2.55423 154.876C-0.0119314 151.573 13.9386 134.766 26.2484 134.762L46.0934 135.385Z" fill="#FFC727"/>
<path d="M12.3708 140.604C14.1166 138.914 19.1361 134.847 26.2514 134.738C26.3136 134.738 26.3291 134.84 26.2514 134.847C20.9596 135.439 14.2332 139.202 12.4136 140.69C12.3902 140.721 12.3358 140.647 12.3708 140.604Z" fill="#263238"/>
<path d="M22.0911 158.67C23.8836 155.663 25.8354 152.753 27.795 149.851C29.7546 146.95 31.7103 144.036 33.7438 141.181C34.9103 139.568 36.03 137.948 37.2431 136.374C37.2742 136.331 37.352 136.374 37.3248 136.421C35.5362 139.424 33.5922 142.345 31.6559 145.255C29.7196 148.165 27.7406 151.071 25.7421 153.953C24.6145 155.577 23.452 157.186 22.2428 158.76C22.1767 158.838 22.0289 158.756 22.0911 158.67Z" fill="#263238"/>
<path d="M46.0897 135.077C44.7446 134.871 43.3872 134.757 42.0266 134.734C40.6658 134.672 39.305 134.633 37.9441 134.606C35.2224 134.555 29.503 134.134 24.6118 134.836C24.5573 134.836 24.8723 135.069 24.9267 135.058C27.2362 134.602 44.3906 135.576 45.7748 135.482C45.7304 135.579 45.694 135.679 45.6659 135.782C45.6659 135.852 45.7281 135.93 45.7942 135.872C45.9497 135.731 46.0508 135.572 46.183 135.42C46.2105 135.395 46.2305 135.364 46.2409 135.328C46.2514 135.293 46.2517 135.255 46.2421 135.22C46.2324 135.184 46.213 135.152 46.1861 135.127C46.1592 135.102 46.1258 135.084 46.0897 135.077Z" fill="#263238"/>
<path d="M8.09375 158.032C10.2633 158.484 13.3038 159.368 15.4812 159.936C12.921 159.773 10.4147 159.127 8.09375 158.032Z" fill="#263238"/>
<path d="M47.6716 95.4787C44.4444 95.8682 38.3012 91.4277 36.5593 86.6756C36.4388 86.3484 37.3758 83.2439 38.3362 79.415C38.9078 77.0778 39.5026 74.4875 39.8526 72.0764C39.9264 71.5817 54.4097 78.0205 54.4097 78.0205C54.4097 78.0205 52.1662 82.8583 51.5636 87.069C51.5176 87.4019 51.502 87.7382 51.5169 88.0739C51.5169 88.1207 51.5169 88.1752 51.5169 88.2414C51.5402 90.1657 51.1242 95.0541 47.6716 95.4787Z" fill="#AD6359"/>
<path d="M51.5204 88.0739C51.5204 88.1207 51.5204 88.183 51.5204 88.2414C50.9989 88.2294 50.4791 88.1786 49.9651 88.0895C41.1041 86.5548 40.4276 75.0562 40.3965 72.1621C43.0249 72.9411 54.4209 78.0049 54.4209 78.0049C54.4209 78.0049 52.1775 82.8466 51.5709 87.0573C51.5246 87.3941 51.5077 87.7342 51.5204 88.0739Z" fill="#263238"/>
<path d="M39.8597 52.8614C37.5852 58.0576 38.6 73.9616 42.0176 77.8802C46.9711 83.5672 55.9954 85.1175 61.0461 78.9436C65.9451 72.9567 64.2576 52.2538 60.3579 48.5962C54.6073 43.217 43.219 45.1957 39.8597 52.8614Z" fill="#AD6359"/>
<path d="M53.8261 64.7266C53.8261 64.6876 53.7445 64.7811 53.7483 64.8278C53.8183 65.899 53.7211 67.1377 52.7647 67.5272C52.7336 67.5272 52.7413 67.5934 52.7647 67.5856C53.9505 67.3792 54.0672 65.7159 53.8261 64.7266Z" fill="#263238"/>
<path d="M52.8309 63.6436C51.1046 63.5735 51.0929 67.0363 52.691 67.1026C54.289 67.1688 54.2773 63.7021 52.8309 63.6436Z" fill="#263238"/>
<path d="M60.0292 64.9368C60.0292 64.8939 60.1109 64.9874 60.1109 65.0302C60.072 66.1014 60.2081 67.3401 61.1762 67.6984C61.2073 67.6984 61.2034 67.7647 61.1762 67.7569C59.9865 67.5777 59.8076 65.9378 60.0292 64.9368Z" fill="#263238"/>
<path d="M60.9738 63.8109C62.6962 63.6863 62.8206 67.1491 61.2226 67.262C59.6246 67.375 59.5429 63.9122 60.9738 63.8109Z" fill="#263238"/>
<path d="M51.4741 62.0505C51.9269 61.9209 52.3721 61.7661 52.8077 61.587C53.3171 61.4 53.7448 61.3066 54.083 60.8469C54.1643 60.7071 54.1973 60.5443 54.1769 60.3837C54.1565 60.2232 54.0839 60.0739 53.9703 59.9588C53.4532 59.4992 52.7689 59.5693 52.1429 59.7641C51.4986 59.9375 50.9433 60.3478 50.5876 60.9131C50.5106 61.0475 50.4754 61.2017 50.4863 61.3562C50.4973 61.5107 50.5539 61.6584 50.6491 61.7805C50.7442 61.9026 50.8735 61.9935 51.0205 62.0416C51.1674 62.0897 51.3254 62.0928 51.4741 62.0505Z" fill="#263238"/>
<path d="M62.3338 62.0696C61.8698 61.975 61.4116 61.8541 60.9613 61.7074C60.4325 61.5632 60.0009 61.5009 59.6277 61.0724C59.5358 60.9388 59.4906 60.7786 59.499 60.6166C59.5075 60.4545 59.5691 60.2999 59.6743 60.1765C60.1565 59.678 60.8408 59.6935 61.4823 59.8416C62.1312 59.9713 62.709 60.3378 63.1036 60.8699C63.187 60.9959 63.2319 61.1436 63.233 61.2948C63.234 61.446 63.1911 61.5942 63.1095 61.7214C63.0279 61.8486 62.9111 61.9493 62.7733 62.0111C62.6356 62.0729 62.4829 62.0932 62.3338 62.0696Z" fill="#263238"/>
<path d="M52.8085 74.6744C53.0651 74.9276 53.3217 75.2743 53.7105 75.3054C54.114 75.3034 54.5121 75.213 54.877 75.0406C54.912 75.0406 54.947 75.0639 54.9236 75.0951C54.7699 75.3056 54.5624 75.4706 54.3228 75.5727C54.0833 75.6749 53.8208 75.7104 53.5628 75.6755C53.3457 75.6147 53.1509 75.4922 53.0019 75.3229C52.8528 75.1535 52.7559 74.9445 52.7229 74.7212C52.6802 74.6744 52.7618 74.6472 52.8085 74.6744Z" fill="#263238"/>
<path d="M53.9353 71.4767C54.2063 71.9022 54.562 72.267 54.9801 72.5485C55.3982 72.83 55.8698 73.0221 56.3654 73.1127C56.797 73.1959 57.2382 73.2169 57.6757 73.175C57.7607 73.176 57.8455 73.1668 57.9284 73.1477C58.0069 73.1412 58.0848 73.1295 58.1617 73.1127C58.2188 73.102 58.2708 73.0731 58.3101 73.0302C58.3494 72.9874 58.3737 72.9329 58.3794 72.8751C58.3813 72.8387 58.3813 72.8023 58.3794 72.766V72.6608C58.4028 71.8351 58.3289 70.5808 58.3289 70.5808C58.6283 70.7327 60.1641 71.43 60.1407 70.9976C59.9425 67.4218 59.7208 63.4487 58.7682 59.9314C58.7646 59.9055 58.7509 59.8822 58.7301 59.8665C58.7094 59.8508 58.6832 59.844 58.6574 59.8476C58.6317 59.8512 58.6084 59.865 58.5927 59.8858C58.577 59.9066 58.5702 59.9328 58.5738 59.9586C58.6283 63.402 59.2892 66.8142 59.3981 70.2692C58.8523 70.0143 58.274 69.8361 57.6796 69.7395C57.5629 69.7745 57.8662 72.1661 57.8273 72.5362C57.8292 72.5491 57.8292 72.5622 57.8273 72.5751C56.4393 72.7504 55.3972 72.3259 54.0558 71.3871C53.9742 71.317 53.8731 71.391 53.9353 71.4767Z" fill="#263238"/>
<path d="M57.1942 72.7541C56.7391 73.3426 56.1406 73.804 55.4562 74.094C55.0779 74.2408 54.6632 74.2653 54.2703 74.1642C53.4149 73.9343 53.3994 73.1475 53.5588 72.4775C53.6476 72.1206 53.7781 71.7755 53.9476 71.4492C54.8632 72.2199 56.0008 72.6771 57.1942 72.7541Z" fill="#263238"/>
<path d="M55.4562 74.094C55.0779 74.2408 54.6632 74.2653 54.2703 74.1642C53.4149 73.9343 53.3994 73.1475 53.5588 72.4775C54.4764 72.5749 55.3784 73.202 55.4562 74.094Z" fill="#FF9BBC"/>
<path d="M63.6174 54.5947C63.1508 53.2509 62.5287 52.9782 62.5287 52.9782C62.5287 52.9782 62.5287 51.4007 61.1212 49.3791C59.636 47.264 58.0107 46.9874 58.0107 46.9874C58.0107 46.9874 56.6655 45.4605 53.5861 44.8801C52.8784 44.7477 50.7361 44.7127 50.0868 44.9814C49.3091 45.2891 48.5315 44.884 47.7189 44.8685C46.9797 44.8547 46.2458 44.9967 45.5649 45.2853C44.9884 45.5249 44.4551 45.8579 43.9863 46.2707C43.7104 46.5242 43.4506 46.7948 43.2087 47.0809C42.8512 47.4871 42.3727 47.7671 41.844 47.8794C41.2313 48.0701 40.666 48.3887 40.1855 48.8144C39.7049 49.2402 39.32 49.7632 39.0562 50.349C38.7173 51.0823 38.5346 51.8782 38.5196 52.6861C38.4807 53.695 37.4271 54.1663 37.0305 55.0232C36.7302 55.7049 36.6372 56.4601 36.7631 57.1945C36.8889 57.9289 37.2281 58.6098 37.7381 59.1521C36.4239 60.0947 35.934 62.202 36.6378 63.8653C37.1821 65.1507 38.3213 65.7233 39.4722 66.0388C39.6844 66.0965 39.902 66.1318 40.1215 66.144C42.4777 66.5335 44.7873 63.9393 43.9513 61.1348V61.1114C45.2438 60.7068 46.3749 59.9022 47.1823 58.8132C48.0766 57.6447 48.3682 56.0866 48.3799 54.5285C51.3387 56.3982 55.4407 54.5558 55.9656 50.7502C56.8093 51.6772 59.2277 53.2431 60.3436 52.8925C60.8257 56.3125 63.0653 57.5668 63.6563 57.5668C63.734 57.5901 64.1462 56.1294 63.6174 54.5947ZM42.4777 65.1507C43.162 64.4379 43.6791 63.429 43.9241 61.2906C44.0762 62.0052 44.0208 62.7485 43.7645 63.4326C43.5082 64.1167 43.0616 64.7129 42.4777 65.1507ZM51.8092 54.7194C52.7143 54.4363 53.5378 53.9387 54.2099 53.2687C54.8821 52.5987 55.383 51.7762 55.6701 50.8709C55.1413 53.2003 53.6327 54.4195 51.8209 54.7194H51.8092Z" fill="#263238"/>
<path d="M52.4194 69.6811C51.6149 69.584 50.8538 69.2626 50.2227 68.7535C49.5916 68.2444 49.1158 67.5679 48.8496 66.8013C48.5834 66.0346 48.5374 65.2084 48.7168 64.4168C48.8963 63.6252 49.2939 62.9 49.8646 62.3237C50.4352 61.7474 51.1559 61.3431 51.9446 61.157C52.7333 60.9709 53.5583 61.0103 54.3257 61.2709C55.0931 61.5314 55.7721 62.0025 56.2854 62.6307C56.7987 63.2588 57.1256 64.0187 57.229 64.8238C57.313 65.4783 57.2468 66.1433 57.0354 66.7682C56.824 67.3932 56.473 67.9616 56.0091 68.43C55.5453 68.8985 54.9808 69.2547 54.3587 69.4715C53.7366 69.6883 53.0733 69.76 52.4194 69.6811ZM53.3953 61.6531C53.0856 61.6122 52.7718 61.6122 52.4621 61.6531C51.517 61.772 50.6526 62.2474 50.045 62.9823C49.4374 63.7173 49.1323 64.6567 49.1918 65.6091C49.2512 66.5615 49.6708 67.4555 50.3651 68.1089C51.0594 68.7623 51.9761 69.126 52.9287 69.126C53.8813 69.126 54.7981 68.7623 55.4923 68.1089C56.1866 67.4555 56.6062 66.5615 56.6657 65.6091C56.7251 64.6567 56.42 63.7173 55.8124 62.9823C55.2048 62.2474 54.3404 61.772 53.3953 61.6531Z" fill="#FFC727"/>
<path d="M62.3345 69.6733C60.6898 69.4707 59.4067 67.6049 59.4145 65.3418C59.4005 64.261 59.724 63.2028 60.3399 62.3153C60.5803 61.9178 60.919 61.5892 61.3232 61.3611C61.7275 61.133 62.1835 61.0132 62.6475 61.0132C63.1114 61.0132 63.5675 61.133 63.9717 61.3611C64.3759 61.5892 64.7146 61.9178 64.9551 62.3153C65.5647 63.2073 65.879 64.2688 65.8532 65.3496C65.8532 67.7374 64.3913 69.6772 62.6183 69.6694C62.5289 69.6889 62.4278 69.6811 62.3345 69.6733ZM62.871 61.6142C62.7972 61.6103 62.7232 61.6103 62.6494 61.6142C62.2803 61.6293 61.9202 61.7331 61.5994 61.9168C61.2787 62.1005 61.0067 62.3587 60.8064 62.6697C60.2623 63.4588 59.9782 64.3985 59.9938 65.3574C59.9938 67.4258 61.1603 69.1163 62.6183 69.1202C64.0763 69.1241 65.2661 67.4491 65.2778 65.3808C65.3056 64.423 65.0337 63.4806 64.5002 62.6853C64.3193 62.4019 64.0806 62.1599 63.7999 61.9753C63.5191 61.7907 63.2026 61.6676 62.871 61.6142Z" fill="#FFC727"/>
<path d="M57.0841 65.326L56.6953 64.8819C57.3563 64.3327 58.8765 63.5965 59.9263 64.7339L59.5025 65.1234C58.5655 64.1068 57.1308 65.2753 57.0841 65.326Z" fill="#FFC727"/>
<path d="M37.7925 66.3585L37.2832 66.0897C37.4076 65.8521 38.5391 63.7526 39.8299 63.5423C41.0391 63.3553 48.7726 64.1149 49.1186 64.146L49.0603 64.7225C46.8402 64.5044 40.8564 63.9668 39.9232 64.1149C39.0678 64.2473 38.0958 65.782 37.7925 66.3585Z" fill="#FFC727"/>
<path d="M42.2827 66.1985C42.2827 66.1985 39.2499 60.8076 36.8393 61.8437C34.4287 62.8798 36.3688 70.4482 38.9544 71.7102C39.2748 71.895 39.6291 72.013 39.9961 72.0571C40.3631 72.1012 40.7353 72.0705 41.0901 71.9668C41.445 71.8631 41.7752 71.6886 42.061 71.4537C42.3468 71.2188 42.5822 70.9285 42.7531 70.6001L42.2827 66.1985Z" fill="#AD6359"/>
<path d="M37.4529 64.002C37.4448 64.002 37.4368 64.0045 37.4302 64.0093C37.4236 64.0141 37.4186 64.0208 37.4161 64.0286C37.4135 64.0363 37.4134 64.0447 37.4158 64.0525C37.4183 64.0603 37.4231 64.0672 37.4296 64.0721C39.2376 65.0186 40.058 66.861 40.5751 68.7463C40.0852 67.9945 39.3581 67.5349 38.3628 68.1114C38.3083 68.1425 38.3628 68.2243 38.4016 68.2165C38.7441 68.1453 39.1002 68.1819 39.4212 68.3213C39.7421 68.4608 40.012 68.6963 40.1941 68.9956C40.497 69.4956 40.7447 70.0272 40.9328 70.5809C41.0028 70.7562 41.3216 70.6978 41.2711 70.4952V70.4524C41.5316 68.0529 40.0035 64.4927 37.4529 64.002Z" fill="#263238"/>
</g>
<defs>
<clipPath id="clip0_1271_8063">
<rect width="165" height="165" fill="white"/>
</clipPath>
</defs>
</svg>
