<svg xmlns="http://www.w3.org/2000/svg" viewBox="0 0 56 50"><defs><style>.cls-1{fill:#e01b22;}.cls-2{fill:#ffce32;}.cls-3{fill:#232328;}</style></defs><g id="Layer_2" data-name="Layer 2"><g id="Chat"><path class="cls-1" d="M37,41H7V7H53a2,2,0,0,1,2,2V39a2,2,0,0,1-2,2H49v8Z"/><path class="cls-2" d="M7,35H3a2,2,0,0,1-2-2V3.88A2.88,2.88,0,0,1,3.88,1H47a2,2,0,0,1,2,2V35H18L7,43Z"/><path class="cls-3" d="M49,36a1,1,0,0,0,1-1V3a3,3,0,0,0-3-3H24.88a1,1,0,0,0,0,2H47a1,1,0,0,1,1,1V34H18a1,1,0,0,0-.59.19L8,41V35a1,1,0,0,0-1-1H3a1,1,0,0,1-1-1V12.86a1,1,0,0,0-2,0V33a3,3,0,0,0,3,3H6v7a1,1,0,0,0,1.59.81L18.33,36Z"/><path class="cls-3" d="M53,6H52a1,1,0,0,0,0,2h1a1,1,0,0,1,1,1V39a1,1,0,0,1-1,1H49a1,1,0,0,0-1,1v6.13l-10.45-7A1,1,0,0,0,37,40H16.55a1,1,0,1,0,0,2H36.7l11.75,7.83A1,1,0,0,0,50,49V42h3a3,3,0,0,0,3-3V9A3,3,0,0,0,53,6Z"/><path class="cls-3" d="M45.32,30.26,31.52,17.62,45.09,5.75a1,1,0,1,0-1.32-1.5L25,20.67V23a1,1,0,0,0,.66-.25L30,19,44,31.74a1,1,0,1,0,1.36-1.48Z"/><path class="cls-3" d="M4.68,30.26l13.8-12.64L4.91,5.75a1,1,0,1,1,1.32-1.5L25,20.67V23a1,1,0,0,1-.66-.25L20,19,6,31.74a1,1,0,0,1-1.36-1.48Z"/></g></g></svg>