<svg width="223" height="253" viewBox="0 0 223 253" fill="none" xmlns="http://www.w3.org/2000/svg">
<g clip-path="url(#clip0_710:122)">
<path d="M6.09833 57.0889C6.09833 57.0889 6.56935 98.5142 32.9544 115.364C69.8682 138.983 107.535 115.59 110.619 103.023C113.703 90.4567 96.717 83.9499 90.37 101.266C84.1747 118.05 93.5229 139.689 115.693 142.896C137.829 146.023 155.838 128.33 174.712 149.642" stroke="#263238" stroke-width="0.75" stroke-miterlimit="10" stroke-dasharray="4 4"/>
<path d="M186.458 142.748L167.121 143.615L182.488 152.303L220.845 193.921L186.458 142.748Z" fill="#FFC727"/>
<path opacity="0.1" d="M186.458 142.748L167.121 143.615L182.488 152.303L220.845 193.921L186.458 142.748Z" fill="black"/>
<path d="M179.327 155.507L167.121 143.615L182.488 152.303L179.327 155.507Z" fill="#263238"/>
<path d="M182.488 152.303L220.845 193.921L164.785 170.056L182.488 152.303Z" fill="#FFC727"/>
<path d="M186.458 142.748L191.052 116.77L220.845 193.921L186.458 142.748Z" fill="#FFC727"/>
</g>
<defs>
<clipPath id="clip0_710:122">
<rect width="209.277" height="154.098" fill="white" transform="translate(142.126) rotate(67.2665)"/>
</clipPath>
</defs>
</svg>
