<svg width="12" height="13" viewBox="0 0 12 13" fill="none" xmlns="http://www.w3.org/2000/svg">
<path d="M1.33333 11.1667H7.33333V8.5C7.33333 8.31111 7.39733 8.15267 7.52533 8.02467C7.65289 7.89711 7.81111 7.83333 8 7.83333H10.6667V1.83333H1.33333V11.1667ZM1.33333 12.5C0.966667 12.5 0.652667 12.3696 0.391333 12.1087C0.130444 11.8473 0 11.5333 0 11.1667V1.83333C0 1.46667 0.130444 1.15267 0.391333 0.891333C0.652667 0.630444 0.966667 0.5 1.33333 0.5H10.6667C11.0333 0.5 11.3473 0.630444 11.6087 0.891333C11.8696 1.15267 12 1.46667 12 1.83333V8.5L8 12.5H1.33333ZM3.33333 7.83333C3.14444 7.83333 2.986 7.76933 2.858 7.64133C2.73044 7.51378 2.66667 7.35556 2.66667 7.16667C2.66667 6.97778 2.73044 6.81933 2.858 6.69133C2.986 6.56378 3.14444 6.5 3.33333 6.5H5.33333C5.52222 6.5 5.68067 6.56378 5.80867 6.69133C5.93622 6.81933 6 6.97778 6 7.16667C6 7.35556 5.93622 7.51378 5.80867 7.64133C5.68067 7.76933 5.52222 7.83333 5.33333 7.83333H3.33333ZM3.33333 5.16667C3.14444 5.16667 2.986 5.10267 2.858 4.97467C2.73044 4.84711 2.66667 4.68889 2.66667 4.5C2.66667 4.31111 2.73044 4.15267 2.858 4.02467C2.986 3.89711 3.14444 3.83333 3.33333 3.83333H8.66667C8.85556 3.83333 9.01378 3.89711 9.14133 4.02467C9.26933 4.15267 9.33333 4.31111 9.33333 4.5C9.33333 4.68889 9.26933 4.84711 9.14133 4.97467C9.01378 5.10267 8.85556 5.16667 8.66667 5.16667H3.33333ZM1.33333 11.1667V1.83333V11.1667Z" fill="#1D1D1D"/>
</svg>
