<svg width="51" height="49" viewBox="0 0 51 49" fill="none" xmlns="http://www.w3.org/2000/svg">
<path d="M17.8516 12.86C18.0704 12.7024 18.3195 12.5877 18.5845 12.5225C18.8495 12.4574 19.1253 12.4429 19.3962 12.4801C19.667 12.5172 19.9276 12.6052 20.163 12.739C20.3984 12.8728 20.6041 13.0498 20.7682 13.26C20.9324 13.4701 21.0518 13.7092 21.1197 13.9636C21.1876 14.218 21.2026 14.4828 21.164 14.7428C21.1253 15.0028 21.0336 15.2529 20.8942 15.4789C20.7548 15.7049 20.5704 15.9024 20.3516 16.06C17.0932 18.406 15.2266 20.688 14.1578 22.68C15.6252 22.3173 17.1739 22.4026 18.5886 22.9239C20.0032 23.4452 21.2135 24.3766 22.0513 25.5887C22.8891 26.8008 23.3127 28.2333 23.2633 29.6872C23.2139 31.1411 22.6939 32.5441 21.7756 33.7012C20.8573 34.8583 19.5863 35.712 18.1393 36.1437C16.6922 36.5753 15.1411 36.5635 13.7014 36.1098C12.2617 35.6561 11.005 34.7831 10.1059 33.6121C9.20692 32.4412 8.71022 31.0304 8.68489 29.576C8.41794 27.1198 8.78129 24.6383 9.74323 22.348C10.987 19.336 13.4182 16.052 17.8516 12.86ZM36.6016 12.86C36.8204 12.7024 37.0695 12.5877 37.3345 12.5225C37.5995 12.4574 37.8754 12.4429 38.1462 12.4801C38.417 12.5172 38.6776 12.6052 38.913 12.739C39.1484 12.8728 39.3541 13.0498 39.5182 13.26C39.6824 13.4701 39.8018 13.7092 39.8697 13.9636C39.9376 14.218 39.9526 14.4828 39.914 14.7428C39.8753 15.0028 39.7836 15.2529 39.6442 15.4789C39.5048 15.7049 39.3204 15.9024 39.1016 16.06C35.8432 18.406 33.9766 20.688 32.9078 22.68C34.3752 22.3173 35.9239 22.4026 37.3386 22.9239C38.7532 23.4452 39.9635 24.3766 40.8013 25.5887C41.6391 26.8008 42.0627 28.2333 42.0133 29.6872C41.9639 31.1411 41.4439 32.5441 40.5256 33.7012C39.6073 34.8583 38.3363 35.712 36.8893 36.1437C35.4422 36.5753 33.8911 36.5635 32.4514 36.1098C31.0117 35.6561 29.755 34.7831 28.8559 33.6121C27.9569 32.4412 27.4602 31.0304 27.4349 29.576C27.1679 27.1198 27.5313 24.6383 28.4932 22.348C29.7391 19.336 32.1682 16.052 36.6016 12.86Z" fill="#F0BB74"/>
</svg>
