<svg width="25" height="24" viewBox="0 0 25 24" fill="none" xmlns="http://www.w3.org/2000/svg">
<rect x="-5.30273" y="-6" width="36" height="36" rx="7" fill="#FBD15B"/>
<path d="M7.75355 2.41781L8.92055 2.06681C9.55984 1.87403 10.2474 1.92044 10.855 2.19737C11.4626 2.4743 11.9487 2.96283 12.2226 3.57181L13.1246 5.57781C13.36 6.10161 13.4256 6.68599 13.3121 7.24895C13.1985 7.81191 12.9116 8.3252 12.4916 8.71681L10.9966 10.1098C10.9529 10.1505 10.9252 10.2055 10.9186 10.2648C10.8746 10.6618 11.1436 11.4348 11.7646 12.5098C12.2146 13.2908 12.6236 13.8398 12.9706 14.1468C13.2136 14.3618 13.3466 14.4078 13.4036 14.3918L15.4136 13.7768C15.9625 13.6089 16.5502 13.617 17.0942 13.7999C17.6383 13.9828 18.1115 14.3314 18.4476 14.7968L19.7276 16.5728C20.1172 17.1128 20.2977 17.7758 20.2356 18.4388C20.1734 19.1018 19.8728 19.7197 19.3896 20.1778L18.5026 21.0178C18.0323 21.4631 17.4548 21.7791 16.8262 21.9348C16.1976 22.0906 15.5393 22.081 14.9156 21.9068C12.1616 21.1378 9.69255 18.8138 7.48055 14.9828C5.26655 11.1468 4.48855 7.84281 5.20655 5.06981C5.36773 4.44615 5.68684 3.87451 6.13313 3.41001C6.57941 2.94551 7.13683 2.60379 7.75355 2.41781ZM8.18655 3.85481C7.81644 3.96612 7.48124 4.17088 7.21326 4.44938C6.94527 4.72787 6.75355 5.07069 6.65655 5.44481C6.05455 7.77681 6.74355 10.7058 8.77955 14.2328C10.8136 17.7548 13.0026 19.8148 15.3196 20.4628C15.6938 20.5672 16.0888 20.5729 16.4659 20.4793C16.843 20.3857 17.1895 20.1961 17.4716 19.9288L18.3576 19.0888C18.5774 18.8806 18.7141 18.5997 18.7425 18.2982C18.7708 17.9968 18.6887 17.6953 18.5116 17.4498L17.2316 15.6748C17.0788 15.463 16.8636 15.3044 16.6161 15.2212C16.3686 15.1379 16.1012 15.1343 15.8516 15.2108L13.8366 15.8278C12.6666 16.1758 11.6056 15.2348 10.4656 13.2598C9.69655 11.9298 9.33855 10.8998 9.42855 10.0988C9.47455 9.68281 9.66855 9.29881 9.97355 9.01281L11.4686 7.61981C11.6594 7.44171 11.7897 7.20832 11.8412 6.95239C11.8927 6.69647 11.8627 6.43085 11.7556 6.19281L10.8546 4.18681C10.7301 3.91 10.5091 3.68794 10.2329 3.56208C9.95669 3.43622 9.64414 3.41515 9.35355 3.50281L8.18655 3.85481Z" fill="#263238"/>
</svg>
