<svg width="375" height="361" viewBox="0 0 375 361" fill="none" xmlns="http://www.w3.org/2000/svg">
<path d="M21.2205 46.3242C21.2205 41.0775 25.4738 36.8242 30.7205 36.8242H364.693C369.939 36.8242 374.193 41.0775 374.193 46.3242V134.08C374.193 139.327 369.939 143.58 364.693 143.58H30.7204C25.4737 143.58 21.2205 139.327 21.2205 134.08V46.3242Z" fill="white" stroke="#263238"/>
<path d="M55.2621 68.1538H52.8681L48.8641 62.0918V68.1538H46.4701V58.3258H48.8641L52.8681 64.4158V58.3258H55.2621V68.1538ZM64.3614 64.1218C64.3614 64.3458 64.3474 64.5791 64.3194 64.8218H58.9014C58.9387 65.3071 59.0927 65.6805 59.3634 65.9418C59.6434 66.1938 59.9841 66.3198 60.3854 66.3198C60.9827 66.3198 61.3981 66.0678 61.6314 65.5638H64.1794C64.0487 66.0771 63.8107 66.5391 63.4654 66.9498C63.1294 67.3605 62.7047 67.6825 62.1914 67.9158C61.6781 68.1491 61.1041 68.2658 60.4694 68.2658C59.7041 68.2658 59.0227 68.1025 58.4254 67.7758C57.8281 67.4491 57.3614 66.9825 57.0254 66.3758C56.6894 65.7691 56.5214 65.0598 56.5214 64.2478C56.5214 63.4358 56.6847 62.7265 57.0114 62.1198C57.3474 61.5131 57.8141 61.0465 58.4114 60.7198C59.0087 60.3931 59.6947 60.2298 60.4694 60.2298C61.2254 60.2298 61.8974 60.3885 62.4854 60.7058C63.0734 61.0231 63.5307 61.4758 63.8574 62.0638C64.1934 62.6518 64.3614 63.3378 64.3614 64.1218ZM61.9114 63.4918C61.9114 63.0811 61.7714 62.7545 61.4914 62.5118C61.2114 62.2691 60.8614 62.1478 60.4414 62.1478C60.0401 62.1478 59.6994 62.2645 59.4194 62.4978C59.1487 62.7311 58.9807 63.0625 58.9154 63.4918H61.9114ZM76.8383 60.3418L74.7243 68.1538H72.0783L70.8463 63.0858L69.5723 68.1538H66.9403L64.8123 60.3418H67.2063L68.3123 65.9278L69.6283 60.3418H72.1623L73.4923 65.8998L74.5843 60.3418H76.8383ZM83.1121 60.2438V62.2318H86.3181V64.0798H83.1121V66.2358H86.7381V68.1538H80.7181V58.3258H86.7381V60.2438H83.1121ZM93.0523 60.2578C93.967 60.2578 94.695 60.5565 95.2363 61.1538C95.787 61.7418 96.0623 62.5538 96.0623 63.5898V68.1538H93.6823V63.9118C93.6823 63.3891 93.547 62.9831 93.2763 62.6938C93.0057 62.4045 92.6417 62.2598 92.1843 62.2598C91.727 62.2598 91.363 62.4045 91.0923 62.6938C90.8216 62.9831 90.6863 63.3891 90.6863 63.9118V68.1538H88.2923V60.3418H90.6863V61.3778C90.929 61.0325 91.2556 60.7618 91.6663 60.5658C92.077 60.3605 92.539 60.2578 93.0523 60.2578ZM97.2499 64.2618C97.2499 63.4871 97.4086 62.7965 97.7259 62.1898C98.0526 61.5831 98.4866 61.1118 99.0279 60.7758C99.5786 60.4305 100.176 60.2578 100.82 60.2578C101.315 60.2578 101.758 60.3465 102.15 60.5238C102.542 60.6918 102.859 60.9298 103.102 61.2378V60.3418H105.496V71.8778H103.102V67.1738C102.831 67.5005 102.5 67.7618 102.108 67.9578C101.725 68.1538 101.287 68.2518 100.792 68.2518C100.157 68.2518 99.5692 68.0838 99.0279 67.7478C98.4866 67.4118 98.0526 66.9405 97.7259 66.3338C97.4086 65.7271 97.2499 65.0365 97.2499 64.2618ZM103.102 64.2478C103.102 63.8278 103.018 63.4778 102.85 63.1978C102.691 62.9085 102.481 62.6938 102.22 62.5538C101.959 62.4045 101.683 62.3298 101.394 62.3298C101.114 62.3298 100.843 62.4045 100.582 62.5538C100.321 62.6938 100.106 62.9085 99.9379 63.1978C99.7699 63.4871 99.6859 63.8418 99.6859 64.2618C99.6859 64.6818 99.7699 65.0365 99.9379 65.3258C100.106 65.6058 100.321 65.8205 100.582 65.9698C100.843 66.1098 101.114 66.1798 101.394 66.1798C101.674 66.1798 101.945 66.1098 102.206 65.9698C102.477 65.8205 102.691 65.6011 102.85 65.3118C103.018 65.0225 103.102 64.6678 103.102 64.2478ZM114.942 60.3418V68.1538H112.548V67.0898C112.305 67.4351 111.974 67.7151 111.554 67.9298C111.143 68.1351 110.686 68.2378 110.182 68.2378C109.585 68.2378 109.057 68.1071 108.6 67.8458C108.143 67.5751 107.788 67.1878 107.536 66.6838C107.284 66.1798 107.158 65.5871 107.158 64.9058V60.3418H109.538V64.5838C109.538 65.1065 109.673 65.5125 109.944 65.8018C110.215 66.0911 110.579 66.2358 111.036 66.2358C111.503 66.2358 111.871 66.0911 112.142 65.8018C112.413 65.5125 112.548 65.1065 112.548 64.5838V60.3418H114.942ZM117.865 59.5298C117.445 59.5298 117.1 59.4085 116.829 59.1658C116.568 58.9138 116.437 58.6058 116.437 58.2418C116.437 57.8685 116.568 57.5605 116.829 57.3178C117.1 57.0658 117.445 56.9398 117.865 56.9398C118.276 56.9398 118.612 57.0658 118.873 57.3178C119.144 57.5605 119.279 57.8685 119.279 58.2418C119.279 58.6058 119.144 58.9138 118.873 59.1658C118.612 59.4085 118.276 59.5298 117.865 59.5298ZM119.055 60.3418V68.1538H116.661V60.3418H119.055ZM123.184 61.6438C123.464 61.2145 123.814 60.8785 124.234 60.6358C124.654 60.3838 125.121 60.2578 125.634 60.2578V62.7918H124.976C124.379 62.7918 123.931 62.9225 123.632 63.1838C123.334 63.4358 123.184 63.8838 123.184 64.5278V68.1538H120.79V60.3418H123.184V61.6438ZM134.759 60.3418L129.859 71.8638H127.283L129.075 67.8878L125.897 60.3418H128.571L130.377 65.2278L132.169 60.3418H134.759Z" fill="#526185"/>
<path d="M142.425 66.7258L144.609 60.4398H146.303L143.363 68.1538H141.459L138.533 60.4398H140.241L142.425 66.7258ZM148.321 59.4178C148.032 59.4178 147.789 59.3198 147.593 59.1238C147.397 58.9278 147.299 58.6851 147.299 58.3958C147.299 58.1065 147.397 57.8638 147.593 57.6678C147.789 57.4718 148.032 57.3738 148.321 57.3738C148.601 57.3738 148.839 57.4718 149.035 57.6678C149.231 57.8638 149.329 58.1065 149.329 58.3958C149.329 58.6851 149.231 58.9278 149.035 59.1238C148.839 59.3198 148.601 59.4178 148.321 59.4178ZM149.105 60.4398V68.1538H147.509V60.4398H149.105ZM150.669 64.2618C150.669 63.4871 150.828 62.8011 151.145 62.2038C151.472 61.6065 151.91 61.1445 152.461 60.8178C153.021 60.4818 153.637 60.3138 154.309 60.3138C154.916 60.3138 155.443 60.4351 155.891 60.6778C156.348 60.9111 156.712 61.2051 156.983 61.5598V60.4398H158.593V68.1538H156.983V67.0058C156.712 67.3698 156.344 67.6731 155.877 67.9158C155.41 68.1585 154.878 68.2798 154.281 68.2798C153.618 68.2798 153.012 68.1118 152.461 67.7758C151.91 67.4305 151.472 66.9545 151.145 66.3478C150.828 65.7318 150.669 65.0365 150.669 64.2618ZM156.983 64.2898C156.983 63.7578 156.871 63.2958 156.647 62.9038C156.432 62.5118 156.148 62.2131 155.793 62.0078C155.438 61.8025 155.056 61.6998 154.645 61.6998C154.234 61.6998 153.852 61.8025 153.497 62.0078C153.142 62.2038 152.853 62.4978 152.629 62.8898C152.414 63.2725 152.307 63.7298 152.307 64.2618C152.307 64.7938 152.414 65.2605 152.629 65.6618C152.853 66.0631 153.142 66.3711 153.497 66.5858C153.861 66.7911 154.244 66.8938 154.645 66.8938C155.056 66.8938 155.438 66.7911 155.793 66.5858C156.148 66.3805 156.432 66.0818 156.647 65.6898C156.871 65.2885 156.983 64.8218 156.983 64.2898ZM242.517 64.2618C242.517 63.4871 242.675 62.8011 242.993 62.2038C243.319 61.6065 243.758 61.1445 244.309 60.8178C244.869 60.4818 245.485 60.3138 246.157 60.3138C246.763 60.3138 247.291 60.4351 247.739 60.6778C248.196 60.9111 248.56 61.2051 248.831 61.5598V60.4398H250.441V68.1538H248.831V67.0058C248.56 67.3698 248.191 67.6731 247.725 67.9158C247.258 68.1585 246.726 68.2798 246.129 68.2798C245.466 68.2798 244.859 68.1118 244.309 67.7758C243.758 67.4305 243.319 66.9545 242.993 66.3478C242.675 65.7318 242.517 65.0365 242.517 64.2618ZM248.831 64.2898C248.831 63.7578 248.719 63.2958 248.495 62.9038C248.28 62.5118 247.995 62.2131 247.641 62.0078C247.286 61.8025 246.903 61.6998 246.493 61.6998C246.082 61.6998 245.699 61.8025 245.345 62.0078C244.99 62.2038 244.701 62.4978 244.477 62.8898C244.262 63.2725 244.155 63.7298 244.155 64.2618C244.155 64.7938 244.262 65.2605 244.477 65.6618C244.701 66.0631 244.99 66.3711 245.345 66.5858C245.709 66.7911 246.091 66.8938 246.493 66.8938C246.903 66.8938 247.286 66.7911 247.641 66.5858C247.995 66.3805 248.28 66.0818 248.495 65.6898C248.719 65.2885 248.831 64.8218 248.831 64.2898ZM252.005 64.2618C252.005 63.4871 252.163 62.8011 252.481 62.2038C252.807 61.6065 253.246 61.1445 253.797 60.8178C254.357 60.4818 254.977 60.3138 255.659 60.3138C256.163 60.3138 256.657 60.4258 257.143 60.6498C257.637 60.8645 258.029 61.1538 258.319 61.5178V57.7938H259.929V68.1538H258.319V66.9918C258.057 67.3651 257.693 67.6731 257.227 67.9158C256.769 68.1585 256.242 68.2798 255.645 68.2798C254.973 68.2798 254.357 68.1118 253.797 67.7758C253.246 67.4305 252.807 66.9545 252.481 66.3478C252.163 65.7318 252.005 65.0365 252.005 64.2618ZM258.319 64.2898C258.319 63.7578 258.207 63.2958 257.983 62.9038C257.768 62.5118 257.483 62.2131 257.129 62.0078C256.774 61.8025 256.391 61.6998 255.981 61.6998C255.57 61.6998 255.187 61.8025 254.833 62.0078C254.478 62.2038 254.189 62.4978 253.965 62.8898C253.75 63.2725 253.643 63.7298 253.643 64.2618C253.643 64.7938 253.75 65.2605 253.965 65.6618C254.189 66.0631 254.478 66.3711 254.833 66.5858C255.197 66.7911 255.579 66.8938 255.981 66.8938C256.391 66.8938 256.774 66.7911 257.129 66.5858C257.483 66.3805 257.768 66.0818 257.983 65.6898C258.207 65.2885 258.319 64.8218 258.319 64.2898ZM261.493 64.2618C261.493 63.4871 261.652 62.8011 261.969 62.2038C262.296 61.6065 262.734 61.1445 263.285 60.8178C263.845 60.4818 264.466 60.3138 265.147 60.3138C265.651 60.3138 266.146 60.4258 266.631 60.6498C267.126 60.8645 267.518 61.1538 267.807 61.5178V57.7938H269.417V68.1538H267.807V66.9918C267.546 67.3651 267.182 67.6731 266.715 67.9158C266.258 68.1585 265.73 68.2798 265.133 68.2798C264.461 68.2798 263.845 68.1118 263.285 67.7758C262.734 67.4305 262.296 66.9545 261.969 66.3478C261.652 65.7318 261.493 65.0365 261.493 64.2618ZM267.807 64.2898C267.807 63.7578 267.695 63.2958 267.471 62.9038C267.256 62.5118 266.972 62.2131 266.617 62.0078C266.262 61.8025 265.88 61.6998 265.469 61.6998C265.058 61.6998 264.676 61.8025 264.321 62.0078C263.966 62.2038 263.677 62.4978 263.453 62.8898C263.238 63.2725 263.131 63.7298 263.131 64.2618C263.131 64.7938 263.238 65.2605 263.453 65.6618C263.677 66.0631 263.966 66.3711 264.321 66.5858C264.685 66.7911 265.068 66.8938 265.469 66.8938C265.88 66.8938 266.262 66.7911 266.617 66.5858C266.972 66.3805 267.256 66.0818 267.471 65.6898C267.695 65.2885 267.807 64.8218 267.807 64.2898ZM278.583 64.1078C278.583 64.3971 278.565 64.6585 278.527 64.8918H272.633C272.68 65.5078 272.909 66.0025 273.319 66.3758C273.73 66.7491 274.234 66.9358 274.831 66.9358C275.69 66.9358 276.297 66.5765 276.651 65.8578H278.373C278.14 66.5671 277.715 67.1505 277.099 67.6078C276.493 68.0558 275.737 68.2798 274.831 68.2798C274.094 68.2798 273.431 68.1165 272.843 67.7898C272.265 67.4538 271.807 66.9871 271.471 66.3898C271.145 65.7831 270.981 65.0831 270.981 64.2898C270.981 63.4965 271.14 62.8011 271.457 62.2038C271.784 61.5971 272.237 61.1305 272.815 60.8038C273.403 60.4771 274.075 60.3138 274.831 60.3138C275.559 60.3138 276.208 60.4725 276.777 60.7898C277.347 61.1071 277.79 61.5551 278.107 62.1338C278.425 62.7031 278.583 63.3611 278.583 64.1078ZM276.917 63.6038C276.908 63.0158 276.698 62.5445 276.287 62.1898C275.877 61.8351 275.368 61.6578 274.761 61.6578C274.211 61.6578 273.739 61.8351 273.347 62.1898C272.955 62.5351 272.722 63.0065 272.647 63.6038H276.917ZM279.622 64.2618C279.622 63.4871 279.781 62.8011 280.098 62.2038C280.425 61.6065 280.863 61.1445 281.414 60.8178C281.974 60.4818 282.595 60.3138 283.276 60.3138C283.78 60.3138 284.275 60.4258 284.76 60.6498C285.255 60.8645 285.647 61.1538 285.936 61.5178V57.7938H287.546V68.1538H285.936V66.9918C285.675 67.3651 285.311 67.6731 284.844 67.9158C284.387 68.1585 283.859 68.2798 283.262 68.2798C282.59 68.2798 281.974 68.1118 281.414 67.7758C280.863 67.4305 280.425 66.9545 280.098 66.3478C279.781 65.7318 279.622 65.0365 279.622 64.2618ZM285.936 64.2898C285.936 63.7578 285.824 63.2958 285.6 62.9038C285.385 62.5118 285.101 62.2131 284.746 62.0078C284.391 61.8025 284.009 61.6998 283.598 61.6998C283.187 61.6998 282.805 61.8025 282.45 62.0078C282.095 62.2038 281.806 62.4978 281.582 62.8898C281.367 63.2725 281.26 63.7298 281.26 64.2618C281.26 64.7938 281.367 65.2605 281.582 65.6618C281.806 66.0631 282.095 66.3711 282.45 66.5858C282.814 66.7911 283.197 66.8938 283.598 66.8938C284.009 66.8938 284.391 66.7911 284.746 66.5858C285.101 66.3805 285.385 66.0818 285.6 65.6898C285.824 65.2885 285.936 64.8218 285.936 64.2898ZM48.2481 82.5878C48.5187 82.2145 48.8874 81.9111 49.3541 81.6778C49.8301 81.4351 50.3574 81.3138 50.9361 81.3138C51.6174 81.3138 52.2334 81.4771 52.7841 81.8038C53.3347 82.1305 53.7687 82.5971 54.0861 83.2038C54.4034 83.8011 54.5621 84.4871 54.5621 85.2618C54.5621 86.0365 54.4034 86.7318 54.0861 87.3478C53.7687 87.9545 53.3301 88.4305 52.7701 88.7758C52.2194 89.1118 51.6081 89.2798 50.9361 89.2798C50.3387 89.2798 49.8067 89.1631 49.3401 88.9298C48.8827 88.6965 48.5187 88.3978 48.2481 88.0338V89.1538H46.6521V78.7938H48.2481V82.5878ZM52.9381 85.2618C52.9381 84.7298 52.8261 84.2725 52.6021 83.8898C52.3874 83.4978 52.0981 83.2038 51.7341 83.0078C51.3794 82.8025 50.9967 82.6998 50.5861 82.6998C50.1847 82.6998 49.8021 82.8025 49.4381 83.0078C49.0834 83.2131 48.7941 83.5118 48.5701 83.9038C48.3554 84.2958 48.2481 84.7578 48.2481 85.2898C48.2481 85.8218 48.3554 86.2885 48.5701 86.6898C48.7941 87.0818 49.0834 87.3805 49.4381 87.5858C49.8021 87.7911 50.1847 87.8938 50.5861 87.8938C50.9967 87.8938 51.3794 87.7911 51.7341 87.5858C52.0981 87.3711 52.3874 87.0631 52.6021 86.6618C52.8261 86.2605 52.9381 85.7938 52.9381 85.2618ZM63.0843 81.4398L58.3523 92.7798H56.7003L58.2683 89.0278L55.2303 81.4398H57.0083L59.1783 87.3198L61.4323 81.4398H63.0843Z" fill="#526185" fill-opacity="0.5"/>
<path d="M171.368 61.2238C171.116 60.7385 170.766 60.3745 170.318 60.1318C169.87 59.8798 169.352 59.7538 168.764 59.7538C168.12 59.7538 167.546 59.8985 167.042 60.1878C166.538 60.4771 166.141 60.8878 165.852 61.4198C165.572 61.9518 165.432 62.5678 165.432 63.2678C165.432 63.9678 165.572 64.5885 165.852 65.1298C166.141 65.6618 166.538 66.0725 167.042 66.3618C167.546 66.6511 168.12 66.7958 168.764 66.7958C169.632 66.7958 170.337 66.5531 170.878 66.0678C171.419 65.5825 171.751 64.9245 171.872 64.0938H168.218V62.8198H173.58V64.0658C173.477 64.8218 173.207 65.5171 172.768 66.1518C172.339 66.7865 171.774 67.2951 171.074 67.6778C170.383 68.0511 169.613 68.2378 168.764 68.2378C167.849 68.2378 167.014 68.0278 166.258 67.6078C165.502 67.1785 164.9 66.5858 164.452 65.8298C164.013 65.0738 163.794 64.2198 163.794 63.2678C163.794 62.3158 164.013 61.4618 164.452 60.7058C164.9 59.9498 165.502 59.3618 166.258 58.9418C167.023 58.5125 167.859 58.2978 168.764 58.2978C169.8 58.2978 170.719 58.5545 171.522 59.0678C172.334 59.5718 172.922 60.2905 173.286 61.2238H171.368ZM176.75 66.8658H180.04V68.1538H175.154V58.4238H176.75V66.8658ZM188.217 68.2518C187.564 68.2518 186.976 68.1398 186.453 67.9158C185.931 67.6825 185.52 67.3558 185.221 66.9358C184.923 66.5158 184.773 66.0258 184.773 65.4658H186.481C186.519 65.8858 186.682 66.2311 186.971 66.5018C187.27 66.7725 187.685 66.9078 188.217 66.9078C188.768 66.9078 189.197 66.7771 189.505 66.5158C189.813 66.2451 189.967 65.8998 189.967 65.4798C189.967 65.1531 189.869 64.8871 189.673 64.6818C189.487 64.4765 189.249 64.3178 188.959 64.2058C188.679 64.0938 188.287 63.9725 187.783 63.8418C187.149 63.6738 186.631 63.5058 186.229 63.3378C185.837 63.1605 185.501 62.8898 185.221 62.5258C184.941 62.1618 184.801 61.6765 184.801 61.0698C184.801 60.5098 184.941 60.0198 185.221 59.5998C185.501 59.1798 185.893 58.8578 186.397 58.6338C186.901 58.4098 187.485 58.2978 188.147 58.2978C189.09 58.2978 189.86 58.5358 190.457 59.0118C191.064 59.4785 191.4 60.1225 191.465 60.9438H189.701C189.673 60.5891 189.505 60.2858 189.197 60.0338C188.889 59.7818 188.483 59.6558 187.979 59.6558C187.522 59.6558 187.149 59.7725 186.859 60.0058C186.57 60.2391 186.425 60.5751 186.425 61.0138C186.425 61.3125 186.514 61.5598 186.691 61.7558C186.878 61.9425 187.111 62.0918 187.391 62.2038C187.671 62.3158 188.054 62.4371 188.539 62.5678C189.183 62.7451 189.706 62.9225 190.107 63.0998C190.518 63.2771 190.863 63.5525 191.143 63.9258C191.433 64.2898 191.577 64.7798 191.577 65.3958C191.577 65.8905 191.442 66.3571 191.171 66.7958C190.91 67.2345 190.523 67.5891 190.009 67.8598C189.505 68.1211 188.908 68.2518 188.217 68.2518ZM192.929 64.2898C192.929 63.4965 193.087 62.8011 193.405 62.2038C193.731 61.5971 194.179 61.1305 194.749 60.8038C195.318 60.4771 195.971 60.3138 196.709 60.3138C197.642 60.3138 198.412 60.5378 199.019 60.9858C199.635 61.4245 200.05 62.0545 200.265 62.8758H198.543C198.403 62.4931 198.179 62.1945 197.871 61.9798C197.563 61.7651 197.175 61.6578 196.709 61.6578C196.055 61.6578 195.533 61.8911 195.141 62.3578C194.758 62.8151 194.567 63.4591 194.567 64.2898C194.567 65.1205 194.758 65.7691 195.141 66.2358C195.533 66.7025 196.055 66.9358 196.709 66.9358C197.633 66.9358 198.244 66.5298 198.543 65.7178H200.265C200.041 66.5018 199.621 67.1271 199.005 67.5938C198.389 68.0511 197.623 68.2798 196.709 68.2798C195.971 68.2798 195.318 68.1165 194.749 67.7898C194.179 67.4538 193.731 66.9871 193.405 66.3898C193.087 65.7831 192.929 65.0831 192.929 64.2898ZM203.451 61.5598C203.685 61.1678 203.993 60.8645 204.375 60.6498C204.767 60.4258 205.229 60.3138 205.761 60.3138V61.9658H205.355C204.73 61.9658 204.254 62.1245 203.927 62.4418C203.61 62.7591 203.451 63.3098 203.451 64.0938V68.1538H201.855V60.4398H203.451V61.5598ZM206.696 64.2618C206.696 63.4871 206.855 62.8011 207.172 62.2038C207.499 61.6065 207.938 61.1445 208.488 60.8178C209.048 60.4818 209.664 60.3138 210.336 60.3138C210.943 60.3138 211.47 60.4351 211.918 60.6778C212.376 60.9111 212.74 61.2051 213.01 61.5598V60.4398H214.62V68.1538H213.01V67.0058C212.74 67.3698 212.371 67.6731 211.904 67.9158C211.438 68.1585 210.906 68.2798 210.308 68.2798C209.646 68.2798 209.039 68.1118 208.488 67.7758C207.938 67.4305 207.499 66.9545 207.172 66.3478C206.855 65.7318 206.696 65.0365 206.696 64.2618ZM213.01 64.2898C213.01 63.7578 212.898 63.2958 212.674 62.9038C212.46 62.5118 212.175 62.2131 211.82 62.0078C211.466 61.8025 211.083 61.6998 210.672 61.6998C210.262 61.6998 209.879 61.8025 209.524 62.0078C209.17 62.2038 208.88 62.4978 208.656 62.8898C208.442 63.2725 208.334 63.7298 208.334 64.2618C208.334 64.7938 208.442 65.2605 208.656 65.6618C208.88 66.0631 209.17 66.3711 209.524 66.5858C209.888 66.7911 210.271 66.8938 210.672 66.8938C211.083 66.8938 211.466 66.7911 211.82 66.5858C212.175 66.3805 212.46 66.0818 212.674 65.6898C212.898 65.2885 213.01 64.8218 213.01 64.2898ZM218.579 61.7418V66.0118C218.579 66.3011 218.644 66.5111 218.775 66.6418C218.915 66.7631 219.148 66.8238 219.475 66.8238H220.455V68.1538H219.195C218.476 68.1538 217.925 67.9858 217.543 67.6498C217.16 67.3138 216.969 66.7678 216.969 66.0118V61.7418H216.059V60.4398H216.969V58.5218H218.579V60.4398H220.455V61.7418H218.579ZM221.393 64.2898C221.393 63.4965 221.552 62.8011 221.869 62.2038C222.196 61.5971 222.644 61.1305 223.213 60.8038C223.783 60.4771 224.436 60.3138 225.173 60.3138C226.107 60.3138 226.877 60.5378 227.483 60.9858C228.099 61.4245 228.515 62.0545 228.729 62.8758H227.007C226.867 62.4931 226.643 62.1945 226.335 61.9798C226.027 61.7651 225.64 61.6578 225.173 61.6578C224.52 61.6578 223.997 61.8911 223.605 62.3578C223.223 62.8151 223.031 63.4591 223.031 64.2898C223.031 65.1205 223.223 65.7691 223.605 66.2358C223.997 66.7025 224.52 66.9358 225.173 66.9358C226.097 66.9358 226.709 66.5298 227.007 65.7178H228.729C228.505 66.5018 228.085 67.1271 227.469 67.5938C226.853 68.0511 226.088 68.2798 225.173 68.2798C224.436 68.2798 223.783 68.1165 223.213 67.7898C222.644 67.4538 222.196 66.9871 221.869 66.3898C221.552 65.7831 221.393 65.0831 221.393 64.2898ZM234.31 60.3138C234.898 60.3138 235.421 60.4398 235.878 60.6918C236.345 60.9438 236.709 61.3171 236.97 61.8118C237.241 62.3065 237.376 62.9038 237.376 63.6038V68.1538H235.794V63.8418C235.794 63.1511 235.621 62.6238 235.276 62.2598C234.931 61.8865 234.459 61.6998 233.862 61.6998C233.265 61.6998 232.789 61.8865 232.434 62.2598C232.089 62.6238 231.916 63.1511 231.916 63.8418V68.1538H230.32V57.7938H231.916V61.3358C232.187 61.0091 232.527 60.7571 232.938 60.5798C233.358 60.4025 233.815 60.3138 234.31 60.3138Z" fill="#526185"/>
<path d="M71.2155 89.2518C70.5342 89.2518 69.9182 89.1351 69.3675 88.9018C68.8262 88.6685 68.3968 88.3325 68.0795 87.8938C67.7622 87.4551 67.5988 86.9371 67.5895 86.3398H69.6895C69.7175 86.7411 69.8575 87.0585 70.1095 87.2918C70.3708 87.5251 70.7255 87.6418 71.1735 87.6418C71.6308 87.6418 71.9902 87.5345 72.2515 87.3198C72.5128 87.0958 72.6435 86.8065 72.6435 86.4518C72.6435 86.1625 72.5548 85.9245 72.3775 85.7378C72.2002 85.5511 71.9762 85.4065 71.7055 85.3038C71.4442 85.1918 71.0802 85.0705 70.6135 84.9398C69.9788 84.7531 69.4608 84.5711 69.0595 84.3938C68.6675 84.2071 68.3268 83.9318 68.0375 83.5678C67.7575 83.1945 67.6175 82.6998 67.6175 82.0838C67.6175 81.5051 67.7622 81.0011 68.0515 80.5718C68.3408 80.1425 68.7468 79.8158 69.2695 79.5918C69.7922 79.3585 70.3895 79.2418 71.0615 79.2418C72.0695 79.2418 72.8862 79.4891 73.5115 79.9838C74.1462 80.4691 74.4962 81.1505 74.5615 82.0278H72.4055C72.3868 81.6918 72.2422 81.4165 71.9715 81.2018C71.7102 80.9778 71.3602 80.8658 70.9215 80.8658C70.5388 80.8658 70.2308 80.9638 69.9975 81.1598C69.7735 81.3558 69.6615 81.6405 69.6615 82.0138C69.6615 82.2751 69.7455 82.4945 69.9135 82.6718C70.0908 82.8398 70.3055 82.9798 70.5575 83.0918C70.8188 83.1945 71.1828 83.3158 71.6495 83.4558C72.2842 83.6425 72.8022 83.8291 73.2035 84.0158C73.6048 84.2025 73.9502 84.4825 74.2395 84.8558C74.5288 85.2291 74.6735 85.7191 74.6735 86.3258C74.6735 86.8485 74.5382 87.3338 74.2675 87.7818C73.9968 88.2298 73.6002 88.5891 73.0775 88.8598C72.5548 89.1211 71.9342 89.2518 71.2155 89.2518ZM83.6947 81.3978V89.1538H81.7207V88.1738C81.4687 88.5098 81.1374 88.7758 80.7267 88.9718C80.3254 89.1585 79.8867 89.2518 79.4107 89.2518C78.8041 89.2518 78.2674 89.1258 77.8007 88.8738C77.3341 88.6125 76.9654 88.2345 76.6947 87.7398C76.4334 87.2358 76.3027 86.6385 76.3027 85.9478V81.3978H78.2627V85.6678C78.2627 86.2838 78.4167 86.7598 78.7247 87.0958C79.0327 87.4225 79.4527 87.5858 79.9847 87.5858C80.5261 87.5858 80.9507 87.4225 81.2587 87.0958C81.5667 86.7598 81.7207 86.2838 81.7207 85.6678V81.3978H83.6947ZM95.2606 81.2858C96.2126 81.2858 96.9779 81.5798 97.5566 82.1678C98.1446 82.7465 98.4386 83.5585 98.4386 84.6038V89.1538H96.4786V84.8698C96.4786 84.2631 96.3246 83.8011 96.0166 83.4838C95.7086 83.1571 95.2886 82.9938 94.7566 82.9938C94.2246 82.9938 93.7999 83.1571 93.4826 83.4838C93.1746 83.8011 93.0206 84.2631 93.0206 84.8698V89.1538H91.0606V84.8698C91.0606 84.2631 90.9066 83.8011 90.5986 83.4838C90.2906 83.1571 89.8706 82.9938 89.3386 82.9938C88.7973 82.9938 88.3679 83.1571 88.0506 83.4838C87.7426 83.8011 87.5886 84.2631 87.5886 84.8698V89.1538H85.6286V81.3978H87.5886V82.3358C87.8406 82.0091 88.1626 81.7525 88.5546 81.5658C88.9559 81.3791 89.3946 81.2858 89.8706 81.2858C90.4773 81.2858 91.0186 81.4165 91.4946 81.6778C91.9706 81.9298 92.3393 82.2938 92.6006 82.7698C92.8526 82.3218 93.2166 81.9625 93.6926 81.6918C94.1779 81.4211 94.7006 81.2858 95.2606 81.2858ZM101.293 80.4738C100.947 80.4738 100.658 80.3665 100.425 80.1518C100.201 79.9278 100.089 79.6525 100.089 79.3258C100.089 78.9991 100.201 78.7285 100.425 78.5138C100.658 78.2898 100.947 78.1778 101.293 78.1778C101.638 78.1778 101.923 78.2898 102.147 78.5138C102.38 78.7285 102.497 78.9991 102.497 79.3258C102.497 79.6525 102.38 79.9278 102.147 80.1518C101.923 80.3665 101.638 80.4738 101.293 80.4738ZM102.259 81.3978V89.1538H100.299V81.3978H102.259ZM107.163 89.2798C106.528 89.2798 105.959 89.1678 105.455 88.9438C104.951 88.7105 104.55 88.3978 104.251 88.0058C103.962 87.6138 103.803 87.1798 103.775 86.7038H105.749C105.786 87.0025 105.931 87.2498 106.183 87.4458C106.444 87.6418 106.766 87.7398 107.149 87.7398C107.522 87.7398 107.812 87.6651 108.017 87.5158C108.232 87.3665 108.339 87.1751 108.339 86.9418C108.339 86.6898 108.208 86.5031 107.947 86.3818C107.695 86.2511 107.289 86.1111 106.729 85.9618C106.15 85.8218 105.674 85.6771 105.301 85.5278C104.937 85.3785 104.62 85.1498 104.349 84.8418C104.088 84.5338 103.957 84.1185 103.957 83.5958C103.957 83.1665 104.078 82.7745 104.321 82.4198C104.573 82.0651 104.928 81.7851 105.385 81.5798C105.852 81.3745 106.398 81.2718 107.023 81.2718C107.947 81.2718 108.684 81.5051 109.235 81.9718C109.786 82.4291 110.089 83.0498 110.145 83.8338H108.269C108.241 83.5258 108.11 83.2831 107.877 83.1058C107.653 82.9191 107.35 82.8258 106.967 82.8258C106.612 82.8258 106.337 82.8911 106.141 83.0218C105.954 83.1525 105.861 83.3345 105.861 83.5678C105.861 83.8291 105.992 84.0298 106.253 84.1698C106.514 84.3005 106.92 84.4358 107.471 84.5758C108.031 84.7158 108.493 84.8605 108.857 85.0098C109.221 85.1591 109.534 85.3925 109.795 85.7098C110.066 86.0178 110.206 86.4285 110.215 86.9418C110.215 87.3898 110.089 87.7911 109.837 88.1458C109.594 88.5005 109.24 88.7805 108.773 88.9858C108.316 89.1818 107.779 89.2798 107.163 89.2798ZM116.192 81.2858C116.78 81.2858 117.303 81.4165 117.76 81.6778C118.217 81.9298 118.572 82.3078 118.824 82.8118C119.085 83.3065 119.216 83.9038 119.216 84.6038V89.1538H117.256V84.8698C117.256 84.2538 117.102 83.7825 116.794 83.4558C116.486 83.1198 116.066 82.9518 115.534 82.9518C114.993 82.9518 114.563 83.1198 114.246 83.4558C113.938 83.7825 113.784 84.2538 113.784 84.8698V89.1538H111.824V78.7938H113.784V82.3638C114.036 82.0278 114.372 81.7665 114.792 81.5798C115.212 81.3838 115.679 81.2858 116.192 81.2858ZM120.576 85.2478C120.576 84.4638 120.73 83.7685 121.038 83.1618C121.355 82.5551 121.78 82.0885 122.312 81.7618C122.853 81.4351 123.455 81.2718 124.118 81.2718C124.696 81.2718 125.2 81.3885 125.63 81.6218C126.068 81.8551 126.418 82.1491 126.68 82.5038V81.3978H128.654V89.1538H126.68V88.0198C126.428 88.3838 126.078 88.6871 125.63 88.9298C125.191 89.1631 124.682 89.2798 124.104 89.2798C123.45 89.2798 122.853 89.1118 122.312 88.7758C121.78 88.4398 121.355 87.9685 121.038 87.3618C120.73 86.7458 120.576 86.0411 120.576 85.2478ZM126.68 85.2758C126.68 84.7998 126.586 84.3938 126.4 84.0578C126.213 83.7125 125.961 83.4511 125.644 83.2738C125.326 83.0871 124.986 82.9938 124.622 82.9938C124.258 82.9938 123.922 83.0825 123.614 83.2598C123.306 83.4371 123.054 83.6985 122.858 84.0438C122.671 84.3798 122.578 84.7811 122.578 85.2478C122.578 85.7145 122.671 86.1251 122.858 86.4798C123.054 86.8251 123.306 87.0911 123.614 87.2778C123.931 87.4645 124.267 87.5578 124.622 87.5578C124.986 87.5578 125.326 87.4691 125.644 87.2918C125.961 87.1051 126.213 86.8438 126.4 86.5078C126.586 86.1625 126.68 85.7518 126.68 85.2758Z" fill="#03A89E"/>
<path d="M65.8631 115.463C65.9801 116.815 66.8901 118.024 68.8531 118.024C71.3361 118.024 72.0121 116.321 72.0121 113.123C72.0121 110.016 71.1931 108.339 68.7491 108.339C66.7601 108.339 65.6031 109.587 65.6031 111.472C65.6031 113.474 66.9551 114.501 68.6191 114.501C69.4771 114.501 70.2961 114.176 70.7251 113.578C70.7251 115.996 70.1271 116.789 68.9441 116.789C67.9561 116.789 67.3971 116.308 67.2281 115.463H65.8631ZM68.8791 113.253C67.5661 113.253 67.0201 112.408 67.0201 111.433C67.0201 110.341 67.6831 109.574 68.7881 109.574C69.8671 109.574 70.5561 110.263 70.5561 111.472C70.5561 112.538 69.9321 113.253 68.8791 113.253ZM74.648 118.037H76.143V108.56H73.439V109.912H74.648V118.037ZM77.9189 108.599V109.86H82.7289L79.0759 118.037H80.5709L84.1849 109.704V108.599H77.9189ZM87.0523 113.084C86.1033 113.435 85.4663 114.28 85.4663 115.424C85.4663 117.153 86.8703 118.271 88.8203 118.271C90.7833 118.271 92.1873 117.153 92.1873 115.424C92.1873 114.293 91.5503 113.448 90.5883 113.084C91.3553 112.707 91.9403 111.966 91.9403 110.952C91.9403 109.587 90.9133 108.391 88.8203 108.391C86.7273 108.391 85.7003 109.574 85.7003 110.952C85.7003 112.005 86.2463 112.681 87.0523 113.084ZM88.8203 112.616C87.8323 112.616 87.1303 112.005 87.1303 111.147C87.1303 110.146 87.8063 109.626 88.8203 109.626C89.8603 109.626 90.5233 110.159 90.5233 111.134C90.5233 111.992 89.8083 112.616 88.8203 112.616ZM88.8203 113.734C89.9383 113.734 90.7313 114.306 90.7313 115.372C90.7313 116.321 90.0163 117.036 88.8203 117.036C87.6113 117.036 86.8833 116.334 86.8833 115.372C86.8833 114.267 87.7283 113.734 88.8203 113.734ZM94.2244 115.463C94.3414 116.815 95.2514 118.024 97.2144 118.024C99.6974 118.024 100.373 116.321 100.373 113.123C100.373 110.016 99.5544 108.339 97.1104 108.339C95.1214 108.339 93.9644 109.587 93.9644 111.472C93.9644 113.474 95.3164 114.501 96.9804 114.501C97.8384 114.501 98.6574 114.176 99.0864 113.578C99.0864 115.996 98.4884 116.789 97.3054 116.789C96.3174 116.789 95.7584 116.308 95.5894 115.463H94.2244ZM97.2404 113.253C95.9274 113.253 95.3814 112.408 95.3814 111.433C95.3814 110.341 96.0444 109.574 97.1494 109.574C98.2284 109.574 98.9174 110.263 98.9174 111.472C98.9174 112.538 98.2934 113.253 97.2404 113.253ZM102.476 115.463C102.593 116.815 103.503 118.024 105.466 118.024C107.949 118.024 108.625 116.321 108.625 113.123C108.625 110.016 107.806 108.339 105.362 108.339C103.373 108.339 102.216 109.587 102.216 111.472C102.216 113.474 103.568 114.501 105.232 114.501C106.09 114.501 106.909 114.176 107.338 113.578C107.338 115.996 106.74 116.789 105.557 116.789C104.569 116.789 104.01 116.308 103.841 115.463H102.476ZM105.492 113.253C104.179 113.253 103.633 112.408 103.633 111.433C103.633 110.341 104.296 109.574 105.401 109.574C106.48 109.574 107.169 110.263 107.169 111.472C107.169 112.538 106.545 113.253 105.492 113.253ZM109.987 108.599V109.86H114.797L111.144 118.037H112.639L116.253 109.704V108.599H109.987ZM117.262 108.599V109.86H122.072L118.419 118.037H119.914L123.528 109.704V108.599H117.262ZM125.277 115.463C125.394 116.815 126.304 118.024 128.267 118.024C130.75 118.024 131.426 116.321 131.426 113.123C131.426 110.016 130.607 108.339 128.163 108.339C126.174 108.339 125.017 109.587 125.017 111.472C125.017 113.474 126.369 114.501 128.033 114.501C128.891 114.501 129.71 114.176 130.139 113.578C130.139 115.996 129.541 116.789 128.358 116.789C127.37 116.789 126.811 116.308 126.642 115.463H125.277ZM128.293 113.253C126.98 113.253 126.434 112.408 126.434 111.433C126.434 110.341 127.097 109.574 128.202 109.574C129.281 109.574 129.97 110.263 129.97 111.472C129.97 112.538 129.346 113.253 128.293 113.253ZM133.529 115.463C133.646 116.815 134.556 118.024 136.519 118.024C139.002 118.024 139.678 116.321 139.678 113.123C139.678 110.016 138.859 108.339 136.415 108.339C134.426 108.339 133.269 109.587 133.269 111.472C133.269 113.474 134.621 114.501 136.285 114.501C137.143 114.501 137.962 114.176 138.391 113.578C138.391 115.996 137.793 116.789 136.61 116.789C135.622 116.789 135.063 116.308 134.894 115.463H133.529ZM136.545 113.253C135.232 113.253 134.686 112.408 134.686 111.433C134.686 110.341 135.349 109.574 136.454 109.574C137.533 109.574 138.222 110.263 138.222 111.472C138.222 112.538 137.598 113.253 136.545 113.253ZM145.824 118.037H147.28V116.061H148.489V114.774H147.28V108.677H145.486L141.118 114.943V116.061H145.824V118.037ZM142.821 114.774L145.889 110.185V114.774H142.821ZM150.107 108.534V114.007H151.511C151.758 113.305 152.343 112.824 153.214 112.824C154.449 112.824 155.06 113.526 155.06 114.761C155.06 115.931 154.488 116.802 153.214 116.802C152.213 116.802 151.537 116.282 151.342 115.476H149.899C150.12 116.958 151.251 118.037 153.201 118.037C155.398 118.037 156.477 116.607 156.477 114.722C156.477 113.292 155.762 111.563 153.435 111.563C152.59 111.563 151.823 111.953 151.472 112.421V109.834H155.827V108.534H150.107ZM165.359 107.624V119.506H166.841V107.624H165.359ZM182.034 118.037H183.594L180.357 108.989H178.641L175.404 118.037H176.951L177.601 116.191H181.384L182.034 118.037ZM180.968 114.982H178.017L179.499 110.783L180.968 114.982ZM190.085 118.037H191.554V113.812C191.554 111.81 190.293 110.757 188.616 110.757C187.758 110.757 186.965 111.108 186.484 111.693V110.874H185.002V118.037H186.484V114.033C186.484 112.72 187.199 112.044 188.291 112.044C189.37 112.044 190.085 112.72 190.085 114.033V118.037ZM192.95 114.423C192.95 116.633 194.445 118.154 196.304 118.154C197.5 118.154 198.358 117.582 198.813 116.971V118.037H200.308V110.874H198.813V111.914C198.371 111.329 197.539 110.757 196.33 110.757C194.445 110.757 192.95 112.213 192.95 114.423ZM198.813 114.449C198.813 115.996 197.76 116.867 196.642 116.867C195.537 116.867 194.471 115.97 194.471 114.423C194.471 112.876 195.537 112.044 196.642 112.044C197.76 112.044 198.813 112.915 198.813 114.449ZM201.761 114.423C201.761 116.633 203.256 118.154 205.141 118.154C206.311 118.154 207.169 117.569 207.624 116.958V118.154C207.624 119.584 206.766 120.286 205.622 120.286C204.595 120.286 203.802 119.779 203.581 119.038H202.112C202.294 120.624 203.711 121.573 205.622 121.573C207.858 121.573 209.119 120.104 209.119 118.154V110.874H207.624V111.914C207.182 111.303 206.311 110.757 205.141 110.757C203.256 110.757 201.761 112.213 201.761 114.423ZM207.624 114.449C207.624 115.996 206.571 116.867 205.453 116.867C204.348 116.867 203.282 115.97 203.282 114.423C203.282 112.876 204.348 112.044 205.453 112.044C206.571 112.044 207.624 112.915 207.624 114.449ZM211.065 118.037H212.547V114.033C212.547 112.72 213.262 112.044 214.354 112.044C215.433 112.044 216.148 112.72 216.148 114.033V118.037H217.617V113.812C217.617 111.81 216.369 110.757 214.77 110.757C213.847 110.757 213.041 111.108 212.547 111.706V108.417H211.065V118.037ZM219.014 114.423C219.014 116.633 220.509 118.154 222.368 118.154C223.564 118.154 224.422 117.582 224.877 116.971V118.037H226.372V110.874H224.877V111.914C224.435 111.329 223.603 110.757 222.394 110.757C220.509 110.757 219.014 112.213 219.014 114.423ZM224.877 114.449C224.877 115.996 223.824 116.867 222.706 116.867C221.601 116.867 220.535 115.97 220.535 114.423C220.535 112.876 221.601 112.044 222.706 112.044C223.824 112.044 224.877 112.915 224.877 114.449Z" fill="#7995B7"/>
<circle cx="52.2033" cy="113.105" r="6.60125" fill="#CCF5F5"/>
<path d="M53.769 113.709C53.5984 113.672 53.4635 113.751 53.3441 113.821C53.2217 113.892 52.9891 114.081 52.8557 114.032C52.1731 113.751 51.531 113.154 51.253 112.468C51.204 112.332 51.3919 112.098 51.4626 111.974C51.5312 111.854 51.6088 111.718 51.5734 111.546C51.5414 111.392 51.1281 110.866 50.9819 110.722C50.8855 110.627 50.7867 110.575 50.6853 110.566C50.3042 110.55 49.8785 111.059 49.8038 111.18C49.6168 111.44 49.6178 111.785 49.807 112.203C50.2628 113.328 51.9868 115.025 53.1154 115.498C53.3236 115.595 53.5141 115.644 53.6851 115.644C53.8525 115.644 54.0016 115.597 54.1297 115.504C54.2264 115.449 54.7558 115.002 54.7419 114.611C54.7335 114.511 54.6814 114.411 54.5876 114.314C54.4448 114.167 53.9222 113.741 53.769 113.709Z" fill="#0BCAD4"/>
<rect x="23.1526" y="206.859" width="350.64" height="152.738" rx="9.5" fill="white" stroke="#263238"/>
<path d="M55.6442 232.781L53.2082 225.361H50.6602L54.1462 235.189H57.1422L60.6282 225.361H58.0942L55.6442 232.781ZM69.2727 231.283C69.2727 228.805 67.5087 227.265 65.2127 227.265C62.9307 227.265 61.1527 228.805 61.1527 231.283C61.1527 233.761 62.8887 235.301 65.1847 235.301C67.4807 235.301 69.2727 233.761 69.2727 231.283ZM63.5887 231.283C63.5887 229.953 64.3447 229.337 65.2127 229.337C66.0527 229.337 66.8367 229.953 66.8367 231.283C66.8367 232.599 66.0387 233.229 65.1847 233.229C64.3167 233.229 63.5887 232.599 63.5887 231.283ZM70.5428 235.189H72.9368V227.377H70.5428V235.189ZM71.7468 226.565C72.5868 226.565 73.1608 225.991 73.1608 225.277C73.1608 224.549 72.5868 223.975 71.7468 223.975C70.8928 223.975 70.3188 224.549 70.3188 225.277C70.3188 225.991 70.8928 226.565 71.7468 226.565ZM74.1957 231.283C74.1957 233.761 75.8197 235.301 78.1157 235.301C80.0757 235.301 81.4617 234.167 81.8677 232.361H79.3197C79.1097 232.935 78.7317 233.257 78.0737 233.257C77.2197 233.257 76.6317 232.585 76.6317 231.283C76.6317 229.981 77.2197 229.309 78.0737 229.309C78.7317 229.309 79.1237 229.659 79.3197 230.205H81.8677C81.4617 228.343 80.0757 227.265 78.1157 227.265C75.8197 227.265 74.1957 228.819 74.1957 231.283ZM86.5923 229.183C87.3903 229.183 88.0623 229.673 88.0623 230.527H85.0663C85.2063 229.659 85.8083 229.183 86.5923 229.183ZM90.3303 232.599H87.7823C87.5863 233.019 87.2083 233.355 86.5363 233.355C85.7663 233.355 85.1363 232.879 85.0523 231.857H90.4703C90.4983 231.619 90.5123 231.381 90.5123 231.157C90.5123 228.777 88.9023 227.265 86.6203 227.265C84.2963 227.265 82.6723 228.805 82.6723 231.283C82.6723 233.761 84.3243 235.301 86.6203 235.301C88.5663 235.301 89.9523 234.125 90.3303 232.599ZM100.132 235.189H102.512V230.625C102.512 228.525 101.308 227.293 99.502 227.293C98.452 227.293 97.612 227.755 97.136 228.413V227.377H94.742V235.189H97.136V230.947C97.136 229.883 97.724 229.295 98.634 229.295C99.544 229.295 100.132 229.883 100.132 230.947V235.189ZM111.82 231.283C111.82 228.805 110.056 227.265 107.76 227.265C105.478 227.265 103.7 228.805 103.7 231.283C103.7 233.761 105.436 235.301 107.732 235.301C110.028 235.301 111.82 233.761 111.82 231.283ZM106.136 231.283C106.136 229.953 106.892 229.337 107.76 229.337C108.6 229.337 109.384 229.953 109.384 231.283C109.384 232.599 108.586 233.229 107.732 233.229C106.864 233.229 106.136 232.599 106.136 231.283ZM113.468 232.473C113.468 234.503 114.602 235.189 116.226 235.189H117.444V233.159H116.59C116.058 233.159 115.862 232.963 115.862 232.501V229.365H117.43V227.377H115.862V225.473H113.468V227.377H112.516V229.365H113.468V232.473ZM122.221 229.183C123.019 229.183 123.691 229.673 123.691 230.527H120.695C120.835 229.659 121.437 229.183 122.221 229.183ZM125.959 232.599H123.411C123.215 233.019 122.837 233.355 122.165 233.355C121.395 233.355 120.765 232.879 120.681 231.857H126.099C126.127 231.619 126.141 231.381 126.141 231.157C126.141 228.777 124.531 227.265 122.249 227.265C119.925 227.265 118.301 228.805 118.301 231.283C118.301 233.761 119.953 235.301 122.249 235.301C124.195 235.301 125.581 234.125 125.959 232.599Z" fill="#526185"/>
<path d="M130.691 231.297C130.691 233.677 132.301 235.315 134.303 235.315C135.591 235.315 136.515 234.699 137.005 234.041V235.189H138.615V227.475H137.005V228.595C136.529 227.965 135.633 227.349 134.331 227.349C132.301 227.349 130.691 228.917 130.691 231.297ZM137.005 231.325C137.005 232.991 135.871 233.929 134.667 233.929C133.477 233.929 132.329 232.963 132.329 231.297C132.329 229.631 133.477 228.735 134.667 228.735C135.871 228.735 137.005 229.673 137.005 231.325ZM140.179 231.297C140.179 233.677 141.789 235.315 143.819 235.315C145.079 235.315 146.003 234.727 146.493 234.027V235.189H148.103V224.829H146.493V228.553C145.905 227.825 144.841 227.349 143.833 227.349C141.789 227.349 140.179 228.917 140.179 231.297ZM146.493 231.325C146.493 232.991 145.359 233.929 144.155 233.929C142.965 233.929 141.817 232.963 141.817 231.297C141.817 229.631 142.965 228.735 144.155 228.735C145.359 228.735 146.493 229.673 146.493 231.325ZM149.667 231.297C149.667 233.677 151.277 235.315 153.307 235.315C154.567 235.315 155.491 234.727 155.981 234.027V235.189H157.591V224.829H155.981V228.553C155.393 227.825 154.329 227.349 153.321 227.349C151.277 227.349 149.667 228.917 149.667 231.297ZM155.981 231.325C155.981 232.991 154.847 233.929 153.643 233.929C152.453 233.929 151.305 232.963 151.305 231.297C151.305 229.631 152.453 228.735 153.643 228.735C154.847 228.735 155.981 229.673 155.981 231.325ZM162.936 228.693C164.126 228.693 165.064 229.449 165.092 230.639H160.822C160.99 229.421 161.858 228.693 162.936 228.693ZM166.548 232.893H164.826C164.532 233.495 163.986 233.971 163.006 233.971C161.83 233.971 160.92 233.201 160.808 231.927H166.702C166.744 231.661 166.758 231.409 166.758 231.143C166.758 228.875 165.204 227.349 163.006 227.349C160.724 227.349 159.156 228.903 159.156 231.325C159.156 233.747 160.794 235.315 163.006 235.315C164.896 235.315 166.114 234.237 166.548 232.893ZM167.796 231.297C167.796 233.677 169.406 235.315 171.436 235.315C172.696 235.315 173.62 234.727 174.11 234.027V235.189H175.72V224.829H174.11V228.553C173.522 227.825 172.458 227.349 171.45 227.349C169.406 227.349 167.796 228.917 167.796 231.297ZM174.11 231.325C174.11 232.991 172.976 233.929 171.772 233.929C170.582 233.929 169.434 232.963 169.434 231.297C169.434 229.631 170.582 228.735 171.772 228.735C172.976 228.735 174.11 229.673 174.11 231.325ZM183.049 228.623V224.829H181.453V235.189H183.049V234.069C183.553 234.741 184.463 235.315 185.737 235.315C187.767 235.315 189.363 233.677 189.363 231.297C189.363 228.917 187.781 227.349 185.737 227.349C184.519 227.349 183.553 227.923 183.049 228.623ZM187.739 231.297C187.739 232.963 186.591 233.929 185.387 233.929C184.197 233.929 183.049 232.991 183.049 231.325C183.049 229.673 184.197 228.735 185.387 228.735C186.591 228.735 187.739 229.631 187.739 231.297ZM193.98 233.355L191.81 227.475H190.032L193.07 235.063L191.502 238.815H193.154L197.886 227.475H196.234L193.98 233.355Z" fill="#526185" fill-opacity="0.5"/>
<path d="M208.635 233.327H204.743L204.099 235.189H202.041L205.555 225.403H207.837L211.351 235.189H209.279L208.635 233.327ZM208.103 231.759L206.689 227.671L205.275 231.759H208.103ZM214.946 229.043V232.795C214.946 233.056 215.007 233.248 215.128 233.369C215.259 233.481 215.474 233.537 215.772 233.537H216.682V235.189H215.45C213.798 235.189 212.972 234.386 212.972 232.781V229.043H212.048V227.433H212.972V225.515H214.946V227.433H216.682V229.043H214.946ZM222.46 227.321C223.048 227.321 223.571 227.452 224.028 227.713C224.485 227.965 224.84 228.343 225.092 228.847C225.353 229.342 225.484 229.939 225.484 230.639V235.189H223.524V230.905C223.524 230.289 223.37 229.818 223.062 229.491C222.754 229.155 222.334 228.987 221.802 228.987C221.261 228.987 220.831 229.155 220.514 229.491C220.206 229.818 220.052 230.289 220.052 230.905V235.189H218.092V224.829H220.052V228.399C220.304 228.063 220.64 227.802 221.06 227.615C221.48 227.419 221.947 227.321 222.46 227.321ZM228.342 226.509C227.997 226.509 227.707 226.402 227.474 226.187C227.25 225.963 227.138 225.688 227.138 225.361C227.138 225.034 227.25 224.764 227.474 224.549C227.707 224.325 227.997 224.213 228.342 224.213C228.687 224.213 228.972 224.325 229.196 224.549C229.429 224.764 229.546 225.034 229.546 225.361C229.546 225.688 229.429 225.963 229.196 226.187C228.972 226.402 228.687 226.509 228.342 226.509ZM229.308 227.433V235.189H227.348V227.433H229.308ZM233.204 228.637C233.456 228.226 233.783 227.904 234.184 227.671C234.595 227.438 235.062 227.321 235.584 227.321V229.379H235.066C234.45 229.379 233.984 229.524 233.666 229.813C233.358 230.102 233.204 230.606 233.204 231.325V235.189H231.244V227.433H233.204V228.637ZM236.4 231.283C236.4 230.499 236.554 229.804 236.862 229.197C237.18 228.59 237.604 228.124 238.136 227.797C238.678 227.47 239.28 227.307 239.942 227.307C240.521 227.307 241.025 227.424 241.454 227.657C241.893 227.89 242.243 228.184 242.504 228.539V227.433H244.478V235.189H242.504V234.055C242.252 234.419 241.902 234.722 241.454 234.965C241.016 235.198 240.507 235.315 239.928 235.315C239.275 235.315 238.678 235.147 238.136 234.811C237.604 234.475 237.18 234.004 236.862 233.397C236.554 232.781 236.4 232.076 236.4 231.283ZM242.504 231.311C242.504 230.835 242.411 230.429 242.224 230.093C242.038 229.748 241.786 229.486 241.468 229.309C241.151 229.122 240.81 229.029 240.446 229.029C240.082 229.029 239.746 229.118 239.438 229.295C239.13 229.472 238.878 229.734 238.682 230.079C238.496 230.415 238.402 230.816 238.402 231.283C238.402 231.75 238.496 232.16 238.682 232.515C238.878 232.86 239.13 233.126 239.438 233.313C239.756 233.5 240.092 233.593 240.446 233.593C240.81 233.593 241.151 233.504 241.468 233.327C241.786 233.14 242.038 232.879 242.224 232.543C242.411 232.198 242.504 231.787 242.504 231.311Z" fill="#03A89E"/>
<path d="M70.5092 264.072H71.9912V255.037H70.5092V264.072ZM79.0199 264.072H80.4889V259.847C80.4889 257.845 79.2279 256.792 77.5509 256.792C76.6929 256.792 75.8999 257.143 75.4189 257.728V256.909H73.9369V264.072H75.4189V260.068C75.4189 258.755 76.1339 258.079 77.2259 258.079C78.3049 258.079 79.0199 258.755 79.0199 260.068V264.072ZM87.7223 262.07C87.6443 259.483 83.6013 260.289 83.6013 258.846C83.6013 258.365 84.0173 258.04 84.8103 258.04C85.6163 258.04 86.0973 258.469 86.1493 259.093H87.6313C87.5533 257.663 86.4873 256.792 84.8623 256.792C83.1723 256.792 82.1063 257.715 82.1063 258.859C82.1063 261.485 86.2663 260.679 86.2663 262.083C86.2663 262.577 85.8113 262.941 84.9533 262.941C84.1343 262.941 83.5753 262.46 83.5233 261.875H81.9893C82.0543 263.175 83.2633 264.189 84.9793 264.189C86.6693 264.189 87.7223 263.279 87.7223 262.07ZM89.5576 262.083C89.5576 263.539 90.3506 264.072 91.6246 264.072H92.7946V262.837H91.8846C91.2606 262.837 91.0526 262.616 91.0526 262.083V258.118H92.7946V256.909H91.0526V255.128H89.5576V256.909H88.7126V258.118H89.5576V262.083ZM93.6665 260.458C93.6665 262.668 95.1615 264.189 97.0205 264.189C98.2165 264.189 99.0745 263.617 99.5295 263.006V264.072H101.025V256.909H99.5295V257.949C99.0875 257.364 98.2555 256.792 97.0465 256.792C95.1615 256.792 93.6665 258.248 93.6665 260.458ZM99.5295 260.484C99.5295 262.031 98.4765 262.902 97.3585 262.902C96.2535 262.902 95.1875 262.005 95.1875 260.458C95.1875 258.911 96.2535 258.079 97.3585 258.079C98.4765 258.079 99.5295 258.95 99.5295 260.484ZM108.054 264.072H109.523V259.847C109.523 257.845 108.262 256.792 106.585 256.792C105.727 256.792 104.934 257.143 104.453 257.728V256.909H102.971V264.072H104.453V260.068C104.453 258.755 105.168 258.079 106.26 258.079C107.339 258.079 108.054 258.755 108.054 260.068V264.072ZM111.647 262.083C111.647 263.539 112.44 264.072 113.714 264.072H114.884V262.837H113.974C113.35 262.837 113.142 262.616 113.142 262.083V258.118H114.884V256.909H113.142V255.128H111.647V256.909H110.802V258.118H111.647V262.083ZM119.133 259.535C119.133 262.252 121.2 264.15 123.748 264.15C125.633 264.15 127.258 263.214 127.947 261.446H126.166C125.685 262.408 124.827 262.863 123.748 262.863C121.954 262.863 120.654 261.576 120.654 259.535C120.654 257.494 121.954 256.22 123.748 256.22C124.827 256.22 125.685 256.675 126.166 257.637H127.947C127.258 255.869 125.633 254.92 123.748 254.92C121.2 254.92 119.133 256.831 119.133 259.535ZM129.188 260.458C129.188 262.668 130.683 264.189 132.542 264.189C133.738 264.189 134.596 263.617 135.051 263.006V264.072H136.546V256.909H135.051V257.949C134.609 257.364 133.777 256.792 132.568 256.792C130.683 256.792 129.188 258.248 129.188 260.458ZM135.051 260.484C135.051 262.031 133.998 262.902 132.88 262.902C131.775 262.902 130.709 262.005 130.709 260.458C130.709 258.911 131.775 258.079 132.88 258.079C133.998 258.079 135.051 258.95 135.051 260.484ZM138.493 264.072H139.975V254.452H138.493V264.072ZM141.92 264.072H143.402V254.452H141.92V264.072ZM154.822 264.072H156.382L153.145 255.024H151.429L148.192 264.072H149.739L150.389 262.226H154.172L154.822 264.072ZM153.756 261.017H150.805L152.287 256.818L153.756 261.017ZM162.872 264.072H164.341V259.847C164.341 257.845 163.08 256.792 161.403 256.792C160.545 256.792 159.752 257.143 159.271 257.728V256.909H157.789V264.072H159.271V260.068C159.271 258.755 159.986 258.079 161.078 258.079C162.157 258.079 162.872 258.755 162.872 260.068V264.072ZM165.738 260.458C165.738 262.668 167.233 264.189 169.092 264.189C170.288 264.189 171.146 263.617 171.601 263.006V264.072H173.096V256.909H171.601V257.949C171.159 257.364 170.327 256.792 169.118 256.792C167.233 256.792 165.738 258.248 165.738 260.458ZM171.601 260.484C171.601 262.031 170.548 262.902 169.43 262.902C168.325 262.902 167.259 262.005 167.259 260.458C167.259 258.911 168.325 258.079 169.43 258.079C170.548 258.079 171.601 258.95 171.601 260.484ZM175.042 264.072H176.524V260.991L179.176 264.072H181.178L177.876 260.497L181.178 256.909H179.124L176.524 260.042V254.452H175.042V264.072ZM182.241 264.072H183.723V260.068C183.723 258.755 184.438 258.079 185.53 258.079C186.609 258.079 187.324 258.755 187.324 260.068V264.072H188.793V259.847C188.793 257.845 187.545 256.792 185.946 256.792C185.023 256.792 184.217 257.143 183.723 257.741V254.452H182.241V264.072ZM190.189 260.458C190.189 262.668 191.684 264.189 193.543 264.189C194.739 264.189 195.597 263.617 196.052 263.006V264.072H197.547V256.909H196.052V257.949C195.61 257.364 194.778 256.792 193.569 256.792C191.684 256.792 190.189 258.248 190.189 260.458ZM196.052 260.484C196.052 262.031 194.999 262.902 193.881 262.902C192.776 262.902 191.71 262.005 191.71 260.458C191.71 258.911 192.776 258.079 193.881 258.079C194.999 258.079 196.052 258.95 196.052 260.484Z" fill="#7995B7"/>
<circle cx="57.1354" cy="259.14" r="6.60125" fill="#CCF5F5"/>
<path d="M58.7011 259.744C58.5306 259.707 58.3956 259.787 58.2762 259.856C58.1538 259.927 57.9212 260.116 57.7879 260.067C57.1052 259.786 56.4631 259.189 56.1851 258.503C56.1362 258.367 56.324 258.133 56.3947 258.009C56.4634 257.889 56.5409 257.753 56.5055 257.581C56.4736 257.427 56.0602 256.901 55.914 256.757C55.8176 256.662 55.7188 256.61 55.6175 256.601C55.2363 256.585 54.8106 257.094 54.7359 257.215C54.5489 257.475 54.5499 257.82 54.7391 258.239C55.1949 259.363 56.9189 261.06 58.0475 261.533C58.2558 261.63 58.4462 261.679 58.6173 261.679C58.7847 261.679 58.9337 261.632 59.0618 261.54C59.1585 261.484 59.6879 261.037 59.6741 260.646C59.6657 260.546 59.6135 260.446 59.5198 260.35C59.377 260.202 58.8544 259.776 58.7011 259.744Z" fill="#0BCAD4"/>
<rect x="69.5342" y="281.53" width="285.071" height="56.9395" rx="4" fill="#F1F6FB"/>
<rect x="50.5342" y="292.03" width="35" height="35" rx="17.5" fill="#FF5367"/>
<path d="M73.165 311.161C73.1085 311.219 72.8951 311.467 72.6964 311.671C71.5313 312.954 68.4918 315.054 66.901 315.695C66.6594 315.798 66.0485 316.016 65.7222 316.03C65.4095 316.03 65.1114 315.958 64.8269 315.812C64.4723 315.608 64.1879 315.287 64.032 314.908C63.9316 314.645 63.7758 313.858 63.7758 313.844C63.6199 312.983 63.5342 311.584 63.5342 310.038C63.5342 308.565 63.6199 307.223 63.7475 306.349C63.7621 306.335 63.918 305.357 64.0885 305.022C64.4012 304.41 65.012 304.03 65.6657 304.03H65.7222C66.1479 304.045 67.0432 304.425 67.0432 304.439C68.5483 305.081 71.5176 307.078 72.711 308.405C72.711 308.405 73.0471 308.746 73.1932 308.959C73.4212 309.265 73.5342 309.644 73.5342 310.023C73.5342 310.446 73.4066 310.84 73.165 311.161Z" fill="#F1F6FB"/>
<rect x="104.648" y="305.06" width="235.143" height="2.93952" rx="1.46976" fill="#BCCADB"/>
<path d="M101.534 306.53C101.534 305.425 102.43 304.53 103.534 304.53H141.16V308.53H103.534C102.43 308.53 101.534 307.634 101.534 306.53Z" fill="#FF5367"/>
<ellipse cx="140.23" cy="306.53" rx="5.05062" ry="5" fill="#FF5367"/>
<path d="M102.249 321.515C102.249 320.253 102.444 319.274 102.832 318.578C103.221 317.881 103.918 317.533 104.922 317.533C105.927 317.533 106.624 317.881 107.012 318.578C107.401 319.274 107.595 320.253 107.595 321.515C107.595 322.798 107.401 323.792 107.012 324.496C106.624 325.2 105.927 325.552 104.922 325.552C103.91 325.552 103.21 325.2 102.821 324.496C102.44 323.792 102.249 322.798 102.249 321.515ZM106.836 321.515C106.836 320.833 106.789 320.257 106.693 319.788C106.598 319.318 106.411 318.941 106.132 318.655C105.854 318.369 105.45 318.226 104.922 318.226C104.394 318.226 103.991 318.369 103.712 318.655C103.434 318.941 103.247 319.318 103.151 319.788C103.056 320.257 103.008 320.833 103.008 321.515C103.008 322.219 103.056 322.809 103.151 323.286C103.247 323.755 103.434 324.133 103.712 324.419C103.991 324.705 104.394 324.848 104.922 324.848C105.45 324.848 105.854 324.705 106.132 324.419C106.411 324.133 106.598 323.755 106.693 323.286C106.789 322.809 106.836 322.219 106.836 321.515ZM109.028 321.515C109.028 320.253 109.222 319.274 109.611 318.578C109.999 317.881 110.696 317.533 111.701 317.533C112.705 317.533 113.402 317.881 113.791 318.578C114.179 319.274 114.373 320.253 114.373 321.515C114.373 322.798 114.179 323.792 113.791 324.496C113.402 325.2 112.705 325.552 111.701 325.552C110.689 325.552 109.988 325.2 109.6 324.496C109.218 323.792 109.028 322.798 109.028 321.515ZM113.615 321.515C113.615 320.833 113.567 320.257 113.472 319.788C113.376 319.318 113.189 318.941 112.911 318.655C112.632 318.369 112.229 318.226 111.701 318.226C111.173 318.226 110.769 318.369 110.491 318.655C110.212 318.941 110.025 319.318 109.929 319.788C109.834 320.257 109.787 320.833 109.787 321.515C109.787 322.219 109.834 322.809 109.929 323.286C110.025 323.755 110.212 324.133 110.491 324.419C110.769 324.705 111.173 324.848 111.701 324.848C112.229 324.848 112.632 324.705 112.911 324.419C113.189 324.133 113.376 323.755 113.472 323.286C113.567 322.809 113.615 322.219 113.615 321.515ZM116.103 325.585C115.941 325.585 115.806 325.53 115.696 325.42C115.593 325.31 115.542 325.174 115.542 325.013C115.542 324.851 115.593 324.719 115.696 324.617C115.806 324.507 115.941 324.452 116.103 324.452C116.257 324.452 116.385 324.507 116.488 324.617C116.598 324.719 116.653 324.851 116.653 325.013C116.653 325.174 116.598 325.31 116.488 325.42C116.385 325.53 116.257 325.585 116.103 325.585ZM116.103 320.8C115.941 320.8 115.806 320.745 115.696 320.635C115.593 320.525 115.542 320.389 115.542 320.228C115.542 320.066 115.593 319.934 115.696 319.832C115.806 319.722 115.941 319.667 116.103 319.667C116.257 319.667 116.385 319.722 116.488 319.832C116.598 319.934 116.653 320.066 116.653 320.228C116.653 320.389 116.598 320.525 116.488 320.635C116.385 320.745 116.257 320.8 116.103 320.8ZM117.682 324.925C119.031 323.913 120.073 323.007 120.806 322.208C121.547 321.401 121.917 320.613 121.917 319.843C121.917 319.337 121.789 318.933 121.532 318.633C121.283 318.325 120.872 318.171 120.3 318.171C119.743 318.171 119.31 318.347 119.002 318.699C118.701 319.043 118.533 319.505 118.496 320.085H117.748C117.792 319.271 118.041 318.64 118.496 318.193C118.958 317.738 119.559 317.511 120.3 317.511C121.011 317.511 121.587 317.712 122.027 318.116C122.467 318.512 122.687 319.076 122.687 319.81C122.687 320.697 122.317 321.559 121.576 322.395C120.843 323.223 119.937 324.034 118.859 324.826H122.929V325.475H117.682V324.925ZM124.131 321.515C124.131 320.253 124.325 319.274 124.714 318.578C125.103 317.881 125.799 317.533 126.804 317.533C127.809 317.533 128.505 317.881 128.894 318.578C129.283 319.274 129.477 320.253 129.477 321.515C129.477 322.798 129.283 323.792 128.894 324.496C128.505 325.2 127.809 325.552 126.804 325.552C125.792 325.552 125.092 325.2 124.703 324.496C124.322 323.792 124.131 322.798 124.131 321.515ZM128.718 321.515C128.718 320.833 128.67 320.257 128.575 319.788C128.48 319.318 128.293 318.941 128.014 318.655C127.735 318.369 127.332 318.226 126.804 318.226C126.276 318.226 125.873 318.369 125.594 318.655C125.315 318.941 125.128 319.318 125.033 319.788C124.938 320.257 124.89 320.833 124.89 321.515C124.89 322.219 124.938 322.809 125.033 323.286C125.128 323.755 125.315 324.133 125.594 324.419C125.873 324.705 126.276 324.848 126.804 324.848C127.332 324.848 127.735 324.705 128.014 324.419C128.293 324.133 128.48 323.755 128.575 323.286C128.67 322.809 128.718 322.219 128.718 321.515ZM131.206 325.585C131.045 325.585 130.909 325.53 130.799 325.42C130.697 325.31 130.645 325.174 130.645 325.013C130.645 324.851 130.697 324.719 130.799 324.617C130.909 324.507 131.045 324.452 131.206 324.452C131.36 324.452 131.489 324.507 131.591 324.617C131.701 324.719 131.756 324.851 131.756 325.013C131.756 325.174 131.701 325.31 131.591 325.42C131.489 325.53 131.36 325.585 131.206 325.585ZM131.206 320.8C131.045 320.8 130.909 320.745 130.799 320.635C130.697 320.525 130.645 320.389 130.645 320.228C130.645 320.066 130.697 319.934 130.799 319.832C130.909 319.722 131.045 319.667 131.206 319.667C131.36 319.667 131.489 319.722 131.591 319.832C131.701 319.934 131.756 320.066 131.756 320.228C131.756 320.389 131.701 320.525 131.591 320.635C131.489 320.745 131.36 320.8 131.206 320.8ZM132.94 321.515C132.94 320.253 133.134 319.274 133.523 318.578C133.911 317.881 134.608 317.533 135.613 317.533C136.617 317.533 137.314 317.881 137.703 318.578C138.091 319.274 138.286 320.253 138.286 321.515C138.286 322.798 138.091 323.792 137.703 324.496C137.314 325.2 136.617 325.552 135.613 325.552C134.601 325.552 133.9 325.2 133.512 324.496C133.13 323.792 132.94 322.798 132.94 321.515ZM137.527 321.515C137.527 320.833 137.479 320.257 137.384 319.788C137.288 319.318 137.101 318.941 136.823 318.655C136.544 318.369 136.141 318.226 135.613 318.226C135.085 318.226 134.681 318.369 134.403 318.655C134.124 318.941 133.937 319.318 133.842 319.788C133.746 320.257 133.699 320.833 133.699 321.515C133.699 322.219 133.746 322.809 133.842 323.286C133.937 323.755 134.124 324.133 134.403 324.419C134.681 324.705 135.085 324.848 135.613 324.848C136.141 324.848 136.544 324.705 136.823 324.419C137.101 324.133 137.288 323.755 137.384 323.286C137.479 322.809 137.527 322.219 137.527 321.515ZM144.69 318.303H140.664V321.119C140.847 320.862 141.115 320.653 141.467 320.492C141.819 320.323 142.2 320.239 142.611 320.239C143.212 320.239 143.704 320.363 144.085 320.613C144.466 320.855 144.741 321.174 144.91 321.57C145.079 321.958 145.163 322.376 145.163 322.824C145.163 323.337 145.064 323.803 144.866 324.221C144.675 324.631 144.378 324.958 143.975 325.2C143.579 325.442 143.084 325.563 142.49 325.563C141.735 325.563 141.122 325.368 140.653 324.98C140.184 324.584 139.898 324.052 139.795 323.385H140.554C140.649 323.869 140.869 324.243 141.214 324.507C141.559 324.771 141.984 324.903 142.49 324.903C143.128 324.903 143.608 324.716 143.931 324.342C144.261 323.96 144.426 323.458 144.426 322.835C144.426 322.226 144.261 321.753 143.931 321.416C143.601 321.071 143.128 320.899 142.512 320.899C142.087 320.899 141.713 320.998 141.39 321.196C141.067 321.394 140.829 321.661 140.675 321.999H139.949V317.632H144.69V318.303Z" fill="#7995B7"/>
<path d="M295.958 321.515C295.958 320.253 296.152 319.274 296.541 318.578C296.93 317.881 297.626 317.533 298.631 317.533C299.636 317.533 300.332 317.881 300.721 318.578C301.11 319.274 301.304 320.253 301.304 321.515C301.304 322.798 301.11 323.792 300.721 324.496C300.332 325.2 299.636 325.552 298.631 325.552C297.619 325.552 296.919 325.2 296.53 324.496C296.149 323.792 295.958 322.798 295.958 321.515ZM300.545 321.515C300.545 320.833 300.497 320.257 300.402 319.788C300.307 319.318 300.12 318.941 299.841 318.655C299.562 318.369 299.159 318.226 298.631 318.226C298.103 318.226 297.7 318.369 297.421 318.655C297.142 318.941 296.955 319.318 296.86 319.788C296.765 320.257 296.717 320.833 296.717 321.515C296.717 322.219 296.765 322.809 296.86 323.286C296.955 323.755 297.142 324.133 297.421 324.419C297.7 324.705 298.103 324.848 298.631 324.848C299.159 324.848 299.562 324.705 299.841 324.419C300.12 324.133 300.307 323.755 300.402 323.286C300.497 322.809 300.545 322.219 300.545 321.515ZM302.582 324.925C303.932 323.913 304.973 323.007 305.706 322.208C306.447 321.401 306.817 320.613 306.817 319.843C306.817 319.337 306.689 318.933 306.432 318.633C306.183 318.325 305.772 318.171 305.2 318.171C304.643 318.171 304.21 318.347 303.902 318.699C303.602 319.043 303.433 319.505 303.396 320.085H302.648C302.692 319.271 302.942 318.64 303.396 318.193C303.858 317.738 304.46 317.511 305.2 317.511C305.912 317.511 306.487 317.712 306.927 318.116C307.367 318.512 307.587 319.076 307.587 319.81C307.587 320.697 307.217 321.559 306.476 322.395C305.743 323.223 304.837 324.034 303.759 324.826H307.829V325.475H302.582V324.925ZM309.328 325.585C309.167 325.585 309.031 325.53 308.921 325.42C308.819 325.31 308.767 325.174 308.767 325.013C308.767 324.851 308.819 324.719 308.921 324.617C309.031 324.507 309.167 324.452 309.328 324.452C309.482 324.452 309.611 324.507 309.713 324.617C309.823 324.719 309.878 324.851 309.878 325.013C309.878 325.174 309.823 325.31 309.713 325.42C309.611 325.53 309.482 325.585 309.328 325.585ZM309.328 320.8C309.167 320.8 309.031 320.745 308.921 320.635C308.819 320.525 308.767 320.389 308.767 320.228C308.767 320.066 308.819 319.934 308.921 319.832C309.031 319.722 309.167 319.667 309.328 319.667C309.482 319.667 309.611 319.722 309.713 319.832C309.823 319.934 309.878 320.066 309.878 320.228C309.878 320.389 309.823 320.525 309.713 320.635C309.611 320.745 309.482 320.8 309.328 320.8ZM316.034 318.303H312.008V321.119C312.191 320.862 312.459 320.653 312.811 320.492C313.163 320.323 313.544 320.239 313.955 320.239C314.556 320.239 315.047 320.363 315.429 320.613C315.81 320.855 316.085 321.174 316.254 321.57C316.422 321.958 316.507 322.376 316.507 322.824C316.507 323.337 316.408 323.803 316.21 324.221C316.019 324.631 315.722 324.958 315.319 325.2C314.923 325.442 314.428 325.563 313.834 325.563C313.078 325.563 312.466 325.368 311.997 324.98C311.527 324.584 311.241 324.052 311.139 323.385H311.898C311.993 323.869 312.213 324.243 312.558 324.507C312.902 324.771 313.328 324.903 313.834 324.903C314.472 324.903 314.952 324.716 315.275 324.342C315.605 323.96 315.77 323.458 315.77 322.835C315.77 322.226 315.605 321.753 315.275 321.416C314.945 321.071 314.472 320.899 313.856 320.899C313.43 320.899 313.056 320.998 312.734 321.196C312.411 321.394 312.173 321.661 312.019 321.999H311.293V317.632H316.034V318.303ZM317.818 319.656C317.869 318.988 318.126 318.464 318.588 318.083C319.057 317.694 319.662 317.5 320.403 317.5C320.894 317.5 321.316 317.588 321.668 317.764C322.02 317.94 322.284 318.182 322.46 318.49C322.643 318.79 322.735 319.131 322.735 319.513C322.735 319.975 322.599 320.374 322.328 320.712C322.056 321.049 321.671 321.258 321.173 321.339V321.394C321.693 321.496 322.108 321.724 322.416 322.076C322.724 322.42 322.878 322.875 322.878 323.44C322.878 324.07 322.665 324.587 322.24 324.991C321.822 325.387 321.213 325.585 320.414 325.585C319.651 325.585 319.024 325.387 318.533 324.991C318.041 324.587 317.759 324.019 317.686 323.286H318.434C318.5 323.777 318.705 324.177 319.05 324.485C319.394 324.785 319.849 324.936 320.414 324.936C320.971 324.936 321.396 324.789 321.69 324.496C321.99 324.202 322.141 323.828 322.141 323.374C322.141 322.259 321.338 321.702 319.732 321.702H319.49V321.053H319.743C321.239 321.053 321.987 320.565 321.987 319.59C321.987 319.164 321.847 318.823 321.569 318.567C321.29 318.303 320.894 318.171 320.381 318.171C319.882 318.171 319.468 318.303 319.138 318.567C318.815 318.823 318.624 319.186 318.566 319.656H317.818ZM324.582 325.585C324.421 325.585 324.285 325.53 324.175 325.42C324.073 325.31 324.021 325.174 324.021 325.013C324.021 324.851 324.073 324.719 324.175 324.617C324.285 324.507 324.421 324.452 324.582 324.452C324.736 324.452 324.865 324.507 324.967 324.617C325.077 324.719 325.132 324.851 325.132 325.013C325.132 325.174 325.077 325.31 324.967 325.42C324.865 325.53 324.736 325.585 324.582 325.585ZM324.582 320.8C324.421 320.8 324.285 320.745 324.175 320.635C324.073 320.525 324.021 320.389 324.021 320.228C324.021 320.066 324.073 319.934 324.175 319.832C324.285 319.722 324.421 319.667 324.582 319.667C324.736 319.667 324.865 319.722 324.967 319.832C325.077 319.934 325.132 320.066 325.132 320.228C325.132 320.389 325.077 320.525 324.967 320.635C324.865 320.745 324.736 320.8 324.582 320.8ZM325.975 323.66V323.077L329.979 317.687H330.892V322.989H332.069V323.66H330.892V325.53H330.133V323.66H325.975ZM330.166 318.534L326.866 322.989H330.166V318.534ZM332.908 324.925C334.257 323.913 335.298 323.007 336.032 322.208C336.772 321.401 337.143 320.613 337.143 319.843C337.143 319.337 337.014 318.933 336.758 318.633C336.508 318.325 336.098 318.171 335.526 318.171C334.968 318.171 334.536 318.347 334.228 318.699C333.927 319.043 333.758 319.505 333.722 320.085H332.974C333.018 319.271 333.267 318.64 333.722 318.193C334.184 317.738 334.785 317.511 335.526 317.511C336.237 317.511 336.813 317.712 337.253 318.116C337.693 318.512 337.913 319.076 337.913 319.81C337.913 320.697 337.542 321.559 336.802 322.395C336.068 323.223 335.163 324.034 334.085 324.826H338.155V325.475H332.908V324.925Z" fill="#7995B7"/>
<rect x="0.292236" y="260.78" width="40" height="40" rx="20" fill="#F9E4F3"/>
<g clip-path="url(#clip0_930_2682)">
<path d="M23.2576 280C23.2576 280.711 23.2835 281.412 23.2489 282.123C23.1883 283.664 21.8896 284.868 20.3138 284.877C18.7381 284.886 17.3961 283.708 17.3441 282.166C17.2922 280.728 17.2922 279.281 17.3441 277.843C17.3961 276.354 18.7727 275.158 20.3138 275.158C21.8463 275.167 23.171 276.388 23.2402 277.887C23.2749 278.588 23.2489 279.29 23.2576 280C23.2489 280 23.2489 280 23.2576 280Z" fill="#F959AF"/>
<path d="M13.95 278.432C13.8288 276.345 14.4955 274.621 16.0799 273.295C17.3526 272.221 18.8505 271.745 20.5128 271.78C23.7076 271.858 26.9717 274.465 26.6773 278.302C27.0236 278.268 27.3786 278.198 27.7249 278.198C28.686 278.207 29.2747 278.813 29.2834 279.783C29.292 280.459 29.292 281.143 29.2834 281.819C29.2661 282.859 28.6513 283.43 27.5604 283.422C26.5474 283.413 25.9327 282.815 25.9327 281.81C25.9241 280.537 25.8894 279.272 25.9414 277.999C26.0713 274.933 23.344 272.351 20.0713 272.507C17.6124 272.62 15.5691 274.101 14.9111 276.241C14.7466 276.769 14.686 277.341 14.6687 277.895C14.634 279.194 14.66 280.494 14.66 281.793C14.66 282.867 14.0626 283.465 13.015 283.465C11.9154 283.465 11.3094 282.884 11.3094 281.81C11.3007 281.204 11.3267 280.598 11.3094 279.991C11.2487 278.657 12.2098 278.016 13.5691 278.311C13.6643 278.337 13.7596 278.372 13.95 278.432Z" fill="#F959AF"/>
<path d="M20.6602 286.887C20.6602 287.528 20.6602 288.247 20.6602 289.052C21.1364 289.052 21.604 289.026 22.0628 289.061C22.2273 289.07 22.4871 289.191 22.5217 289.312C22.6169 289.65 22.3832 289.763 22.0801 289.763C21.1278 289.763 20.1754 289.763 19.223 289.763C18.9806 289.763 18.7208 289.797 18.4871 289.745C18.3485 289.711 18.236 289.537 18.1148 289.416C18.2446 289.295 18.3572 289.078 18.4957 289.07C18.9459 289.026 19.4135 289.052 19.8983 289.052C19.8983 288.264 19.8983 287.519 19.8983 286.757C18.9113 286.636 17.9676 286.376 17.1624 285.787C16.1581 285.05 15.5174 284.106 15.4308 282.833C15.4135 282.573 15.4221 282.313 15.7771 282.304C16.0975 282.296 16.1234 282.521 16.1407 282.781C16.236 284.158 17.2403 285.293 18.7901 285.804C20.7122 286.428 22.9113 285.795 23.8897 284.279C24.1754 283.838 24.2879 283.275 24.4265 282.755C24.4871 282.504 24.5217 282.287 24.8247 282.313C25.1104 282.33 25.1537 282.547 25.1451 282.781C25.0498 284.305 24.2446 285.38 22.9373 286.064C22.2533 286.428 21.4741 286.601 20.6602 286.887Z" fill="#F959AF"/>
</g>
<rect x="0.720459" y="68.1538" width="40" height="40" rx="20" fill="#DAEFFE"/>
<g clip-path="url(#clip1_930_2682)">
<path d="M20.4076 79.4971H21.4097C21.4548 79.5058 21.4999 79.5163 21.5454 79.5238C21.9863 79.5956 22.4356 79.634 22.8669 79.7438C27.0086 80.7997 29.5657 84.8361 28.759 89.0366C28.098 92.4848 25.1814 95.1443 21.692 95.4595C19.5792 95.6503 17.6643 95.1113 15.9904 93.8024C14.3744 92.5391 13.3849 90.8845 13.0258 88.8608C12.9752 88.5749 12.9473 88.2851 12.9055 87.9974V86.9954C12.9147 86.9503 12.9256 86.9053 12.9327 86.8593C12.9865 86.4944 13.0216 86.1258 13.0963 85.7651C13.7394 82.6613 16.3862 80.1288 19.5128 79.619C19.8105 79.5722 20.1099 79.538 20.4076 79.4971ZM20.8118 83.4838C20.3792 83.4838 19.9596 83.5502 19.575 83.756C19.1453 83.9861 18.8113 84.3017 18.7399 84.8157C18.7007 85.1079 18.8468 85.3425 19.1157 85.4444C19.4046 85.5542 19.6113 85.5012 19.7838 85.2198C20.051 84.7785 20.4448 84.6474 20.9279 84.6879C21.3333 84.7217 21.6185 84.9133 21.6982 85.216C21.7328 85.3345 21.7366 85.4599 21.7093 85.5803C21.682 85.7007 21.6244 85.8121 21.5421 85.9041C21.3684 86.1041 21.1737 86.2849 20.9613 86.4431C20.3036 86.9232 20.0335 87.567 20.0894 88.3665C20.1153 88.7339 20.2439 88.8696 20.608 88.8938C21.0957 88.926 21.2836 88.7619 21.2803 88.2788C21.2773 87.835 21.4427 87.4814 21.793 87.2113C21.8548 87.1637 21.9145 87.1132 21.9751 87.0639C22.3116 86.7875 22.6085 86.4765 22.8173 86.0899C23.3141 85.1714 22.9956 84.194 22.0531 83.7443C21.6602 83.5556 21.2431 83.4838 20.8118 83.4838ZM21.4799 90.4294C21.4774 90.2717 21.4285 90.1182 21.3392 89.9881C21.25 89.858 21.1244 89.7571 20.9781 89.698C20.8319 89.6389 20.6714 89.6242 20.5169 89.6558C20.3623 89.6873 20.2205 89.7637 20.1091 89.8755C19.9977 89.9872 19.9217 90.1292 19.8906 90.2839C19.8595 90.4385 19.8747 90.5989 19.9343 90.745C19.9939 90.891 20.0952 91.0163 20.2255 91.1051C20.3559 91.194 20.5096 91.2424 20.6673 91.2444C20.7743 91.2445 20.8803 91.2235 20.9791 91.1825C21.0779 91.1415 21.1676 91.0813 21.243 91.0054C21.3184 90.9295 21.378 90.8394 21.4184 90.7403C21.4587 90.6412 21.4791 90.5351 21.4782 90.4282L21.4799 90.4294Z" fill="#65BEFF"/>
</g>
<path d="M141.537 6.65257H143.044C143.099 6.14657 143.418 5.66257 144.166 5.66257C144.87 5.66257 145.255 6.03657 145.255 6.66357C145.255 7.45557 144.595 7.70857 143.693 7.70857H143.374V8.97357H143.693C144.837 8.97357 145.409 9.30357 145.409 10.2056C145.409 10.8436 145.013 11.3276 144.243 11.3276C143.418 11.3276 142.956 10.8326 142.923 10.1396H141.427C141.493 11.8226 142.692 12.6146 144.276 12.6146C145.959 12.6146 146.883 11.6466 146.883 10.3376C146.883 9.24857 146.344 8.58857 145.53 8.33557V8.29157C146.113 8.09357 146.74 7.47757 146.74 6.47657C146.74 5.28857 145.86 4.35357 144.21 4.35357C142.67 4.35357 141.614 5.16757 141.537 6.65257ZM148.1 8.44557C148.1 10.7886 148.804 12.5376 151.07 12.5376C153.336 12.5376 154.04 10.7886 154.04 8.44557C154.04 6.12457 153.336 4.38657 151.07 4.38657C148.804 4.38657 148.1 6.12457 148.1 8.44557ZM152.522 8.44557C152.522 9.87557 152.368 11.1076 151.07 11.1076C149.772 11.1076 149.618 9.87557 149.618 8.44557C149.618 7.07057 149.772 5.81657 151.07 5.81657C152.368 5.81657 152.522 7.07057 152.522 8.44557ZM162.739 10.8216C162.695 8.58857 159.318 9.28157 159.318 8.17057C159.318 7.81857 159.615 7.58757 160.187 7.58757C160.792 7.58757 161.166 7.90657 161.21 8.37957H162.684C162.596 7.16957 161.705 6.36657 160.231 6.36657C158.724 6.36657 157.822 7.18057 157.822 8.19257C157.822 10.4256 161.265 9.73257 161.265 10.8216C161.265 11.1736 160.935 11.4486 160.33 11.4486C159.714 11.4486 159.285 11.0966 159.23 10.6346H157.679C157.745 11.7676 158.812 12.6586 160.341 12.6586C161.826 12.6586 162.739 11.8666 162.739 10.8216ZM166.621 7.63157C167.413 7.63157 168.051 8.13757 168.073 8.94057H165.18C165.301 8.10457 165.884 7.63157 166.621 7.63157ZM169.514 10.6456H167.853C167.655 11.0526 167.292 11.3826 166.632 11.3826C165.862 11.3826 165.246 10.8766 165.169 9.97457H169.624C169.657 9.77657 169.668 9.57857 169.668 9.38057C169.668 7.56557 168.425 6.36657 166.665 6.36657C164.861 6.36657 163.607 7.58757 163.607 9.51257C163.607 11.4266 164.894 12.6586 166.665 12.6586C168.172 12.6586 169.184 11.7676 169.514 10.6456ZM170.396 9.51257C170.396 11.4266 171.65 12.6586 173.41 12.6586C174.928 12.6586 175.951 11.8006 176.281 10.5026H174.62C174.433 11.0526 174.037 11.3386 173.399 11.3386C172.541 11.3386 171.969 10.7006 171.969 9.51257C171.969 8.32457 172.541 7.67557 173.399 7.67557C174.037 7.67557 174.444 8.00557 174.62 8.52257H176.281C175.951 7.15857 174.928 6.36657 173.41 6.36657C171.65 6.36657 170.396 7.59857 170.396 9.51257ZM179.634 9.49057C179.634 11.3936 180.866 12.6586 182.406 12.6586C183.374 12.6586 184.067 12.1966 184.43 11.6686V12.5596H185.981V6.46557H184.43V7.33457C184.067 6.82857 183.396 6.36657 182.417 6.36657C180.866 6.36657 179.634 7.58757 179.634 9.49057ZM184.43 9.51257C184.43 10.6676 183.66 11.3056 182.813 11.3056C181.988 11.3056 181.207 10.6456 181.207 9.49057C181.207 8.33557 181.988 7.71957 182.813 7.71957C183.66 7.71957 184.43 8.35757 184.43 9.51257ZM187.089 9.49057C187.089 11.3936 188.321 12.6586 189.872 12.6586C190.829 12.6586 191.522 12.1856 191.885 11.6576V12.6036C191.885 13.7366 191.225 14.2206 190.378 14.2206C189.608 14.2206 189.036 13.8576 188.882 13.3076H187.353C187.507 14.7046 188.706 15.5626 190.422 15.5626C192.424 15.5626 193.436 14.2536 193.436 12.6036V6.46557H191.885V7.33457C191.522 6.80657 190.829 6.36657 189.872 6.36657C188.321 6.36657 187.089 7.58757 187.089 9.49057ZM191.885 9.51257C191.885 10.6676 191.115 11.3056 190.268 11.3056C189.443 11.3056 188.662 10.6456 188.662 9.49057C188.662 8.33557 189.443 7.71957 190.268 7.71957C191.115 7.71957 191.885 8.35757 191.885 9.51257ZM200.825 9.51257C200.825 7.58757 199.45 6.36657 197.69 6.36657C195.93 6.36657 194.555 7.58757 194.555 9.51257C194.555 11.4266 195.886 12.6586 197.646 12.6586C199.417 12.6586 200.825 11.4266 200.825 9.51257ZM196.117 9.51257C196.117 8.29157 196.854 7.70857 197.668 7.70857C198.482 7.70857 199.241 8.29157 199.241 9.51257C199.241 10.7226 198.46 11.3166 197.646 11.3166C196.821 11.3166 196.117 10.7226 196.117 9.51257Z" fill="#FF983A"/>
<path d="M207.901 12.5596H209.485V4.54057H206.834V5.95957H207.901V12.5596ZM210.918 12.4496H216.352V11.1736H213.107C214.383 10.0956 216.176 8.64357 216.176 6.78457C216.176 5.38757 215.307 4.36457 213.58 4.36457C212.139 4.36457 210.962 5.21157 210.907 7.04857H212.403C212.414 6.20157 212.821 5.67357 213.558 5.67357C214.317 5.67357 214.636 6.15757 214.636 6.87257C214.636 8.34657 212.733 9.76557 210.918 11.3056V12.4496ZM219.116 11.7346C219.116 11.2286 218.72 10.8326 218.181 10.8326C217.62 10.8326 217.224 11.2286 217.224 11.7346C217.224 12.2406 217.62 12.6366 218.181 12.6366C218.72 12.6366 219.116 12.2406 219.116 11.7346ZM219.116 7.18057C219.116 6.67457 218.72 6.27857 218.181 6.27857C217.62 6.27857 217.224 6.67457 217.224 7.18057C217.224 7.68657 217.62 8.08257 218.181 8.08257C218.72 8.08257 219.116 7.68657 219.116 7.18057ZM220.234 6.65257H221.741C221.796 6.14657 222.115 5.66257 222.863 5.66257C223.567 5.66257 223.952 6.03657 223.952 6.66357C223.952 7.45557 223.292 7.70857 222.39 7.70857H222.071V8.97357H222.39C223.534 8.97357 224.106 9.30357 224.106 10.2056C224.106 10.8436 223.71 11.3276 222.94 11.3276C222.115 11.3276 221.653 10.8326 221.62 10.1396H220.124C220.19 11.8226 221.389 12.6146 222.973 12.6146C224.656 12.6146 225.58 11.6466 225.58 10.3376C225.58 9.24857 225.041 8.58857 224.227 8.33557V8.29157C224.81 8.09357 225.437 7.47757 225.437 6.47657C225.437 5.28857 224.557 4.35357 222.907 4.35357C221.367 4.35357 220.311 5.16757 220.234 6.65257ZM226.797 8.44557C226.797 10.7886 227.501 12.5376 229.767 12.5376C232.033 12.5376 232.737 10.7886 232.737 8.44557C232.737 6.12457 232.033 4.38657 229.767 4.38657C227.501 4.38657 226.797 6.12457 226.797 8.44557ZM231.219 8.44557C231.219 9.87557 231.065 11.1076 229.767 11.1076C228.469 11.1076 228.315 9.87557 228.315 8.44557C228.315 7.07057 228.469 5.81657 229.767 5.81657C231.065 5.81657 231.219 7.07057 231.219 8.44557ZM238.246 7.34557V6.46557H236.706V15.4636H238.246V11.6906C238.62 12.1856 239.302 12.6586 240.259 12.6586C241.821 12.6586 243.042 11.3936 243.042 9.49057C243.042 7.58757 241.821 6.36657 240.259 6.36657C239.313 6.36657 238.609 6.82857 238.246 7.34557ZM241.469 9.49057C241.469 10.6456 240.688 11.3056 239.852 11.3056C239.027 11.3056 238.246 10.6676 238.246 9.51257C238.246 8.35757 239.027 7.71957 239.852 7.71957C240.688 7.71957 241.469 8.33557 241.469 9.49057ZM252.686 12.5596H254.226V8.98457C254.226 7.30157 253.192 6.37757 251.729 6.37757C250.838 6.37757 250.035 6.85057 249.639 7.54357C249.221 6.78457 248.44 6.37757 247.494 6.37757C246.735 6.37757 246.086 6.69657 245.701 7.20257V6.46557H244.161V12.5596H245.701V9.19357C245.701 8.22557 246.24 7.71957 247.076 7.71957C247.89 7.71957 248.429 8.22557 248.429 9.19357V12.5596H249.969V9.19357C249.969 8.22557 250.508 7.71957 251.333 7.71957C252.147 7.71957 252.686 8.22557 252.686 9.19357V12.5596Z" fill="#707789"/>
<path d="M127.654 13.8931C130.588 13.8931 132.988 11.4931 132.988 8.55973C132.988 5.6264 130.588 3.2264 127.654 3.2264C124.721 3.2264 122.321 5.6264 122.321 8.55973C122.321 11.4931 124.721 13.8931 127.654 13.8931ZM127.654 1.89307C131.321 1.89307 134.321 4.89307 134.321 8.55973C134.321 12.2264 131.321 15.2264 127.654 15.2264C123.988 15.2264 120.988 12.2264 120.988 8.55973C120.988 4.89307 123.988 1.89307 127.654 1.89307ZM130.988 9.8264L130.521 10.6931L126.988 8.75973V5.2264H127.988V8.15973L130.988 9.8264Z" fill="#CBD2DC"/>
<rect x="185.292" y="18.728" width="2" height="12.3384" fill="#D9DEEB"/>
<path d="M141.537 171.653H143.044C143.099 171.147 143.418 170.663 144.166 170.663C144.87 170.663 145.255 171.037 145.255 171.664C145.255 172.456 144.595 172.709 143.693 172.709H143.374V173.974H143.693C144.837 173.974 145.409 174.304 145.409 175.206C145.409 175.844 145.013 176.328 144.243 176.328C143.418 176.328 142.956 175.833 142.923 175.14H141.427C141.493 176.823 142.692 177.615 144.276 177.615C145.959 177.615 146.883 176.647 146.883 175.338C146.883 174.249 146.344 173.589 145.53 173.336V173.292C146.113 173.094 146.74 172.478 146.74 171.477C146.74 170.289 145.86 169.354 144.21 169.354C142.67 169.354 141.614 170.168 141.537 171.653ZM148.1 173.446C148.1 175.789 148.804 177.538 151.07 177.538C153.336 177.538 154.04 175.789 154.04 173.446C154.04 171.125 153.336 169.387 151.07 169.387C148.804 169.387 148.1 171.125 148.1 173.446ZM152.522 173.446C152.522 174.876 152.368 176.108 151.07 176.108C149.772 176.108 149.618 174.876 149.618 173.446C149.618 172.071 149.772 170.817 151.07 170.817C152.368 170.817 152.522 172.071 152.522 173.446ZM162.739 175.822C162.695 173.589 159.318 174.282 159.318 173.171C159.318 172.819 159.615 172.588 160.187 172.588C160.792 172.588 161.166 172.907 161.21 173.38H162.684C162.596 172.17 161.705 171.367 160.231 171.367C158.724 171.367 157.822 172.181 157.822 173.193C157.822 175.426 161.265 174.733 161.265 175.822C161.265 176.174 160.935 176.449 160.33 176.449C159.714 176.449 159.285 176.097 159.23 175.635H157.679C157.745 176.768 158.812 177.659 160.341 177.659C161.826 177.659 162.739 176.867 162.739 175.822ZM166.621 172.632C167.413 172.632 168.051 173.138 168.073 173.941H165.18C165.301 173.105 165.884 172.632 166.621 172.632ZM169.514 175.646H167.853C167.655 176.053 167.292 176.383 166.632 176.383C165.862 176.383 165.246 175.877 165.169 174.975H169.624C169.657 174.777 169.668 174.579 169.668 174.381C169.668 172.566 168.425 171.367 166.665 171.367C164.861 171.367 163.607 172.588 163.607 174.513C163.607 176.427 164.894 177.659 166.665 177.659C168.172 177.659 169.184 176.768 169.514 175.646ZM170.396 174.513C170.396 176.427 171.65 177.659 173.41 177.659C174.928 177.659 175.951 176.801 176.281 175.503H174.62C174.433 176.053 174.037 176.339 173.399 176.339C172.541 176.339 171.969 175.701 171.969 174.513C171.969 173.325 172.541 172.676 173.399 172.676C174.037 172.676 174.444 173.006 174.62 173.523H176.281C175.951 172.159 174.928 171.367 173.41 171.367C171.65 171.367 170.396 172.599 170.396 174.513ZM179.634 174.491C179.634 176.394 180.866 177.659 182.406 177.659C183.374 177.659 184.067 177.197 184.43 176.669V177.56H185.981V171.466H184.43V172.335C184.067 171.829 183.396 171.367 182.417 171.367C180.866 171.367 179.634 172.588 179.634 174.491ZM184.43 174.513C184.43 175.668 183.66 176.306 182.813 176.306C181.988 176.306 181.207 175.646 181.207 174.491C181.207 173.336 181.988 172.72 182.813 172.72C183.66 172.72 184.43 173.358 184.43 174.513ZM187.089 174.491C187.089 176.394 188.321 177.659 189.872 177.659C190.829 177.659 191.522 177.186 191.885 176.658V177.604C191.885 178.737 191.225 179.221 190.378 179.221C189.608 179.221 189.036 178.858 188.882 178.308H187.353C187.507 179.705 188.706 180.563 190.422 180.563C192.424 180.563 193.436 179.254 193.436 177.604V171.466H191.885V172.335C191.522 171.807 190.829 171.367 189.872 171.367C188.321 171.367 187.089 172.588 187.089 174.491ZM191.885 174.513C191.885 175.668 191.115 176.306 190.268 176.306C189.443 176.306 188.662 175.646 188.662 174.491C188.662 173.336 189.443 172.72 190.268 172.72C191.115 172.72 191.885 173.358 191.885 174.513ZM200.825 174.513C200.825 172.588 199.45 171.367 197.69 171.367C195.93 171.367 194.555 172.588 194.555 174.513C194.555 176.427 195.886 177.659 197.646 177.659C199.417 177.659 200.825 176.427 200.825 174.513ZM196.117 174.513C196.117 173.292 196.854 172.709 197.668 172.709C198.482 172.709 199.241 173.292 199.241 174.513C199.241 175.723 198.46 176.317 197.646 176.317C196.821 176.317 196.117 175.723 196.117 174.513Z" fill="#FF983A"/>
<path d="M207.901 177.56H209.485V169.541H206.834V170.96H207.901V177.56ZM210.918 177.45H216.352V176.174H213.107C214.383 175.096 216.176 173.644 216.176 171.785C216.176 170.388 215.307 169.365 213.58 169.365C212.139 169.365 210.962 170.212 210.907 172.049H212.403C212.414 171.202 212.821 170.674 213.558 170.674C214.317 170.674 214.636 171.158 214.636 171.873C214.636 173.347 212.733 174.766 210.918 176.306V177.45ZM219.116 176.735C219.116 176.229 218.72 175.833 218.181 175.833C217.62 175.833 217.224 176.229 217.224 176.735C217.224 177.241 217.62 177.637 218.181 177.637C218.72 177.637 219.116 177.241 219.116 176.735ZM219.116 172.181C219.116 171.675 218.72 171.279 218.181 171.279C217.62 171.279 217.224 171.675 217.224 172.181C217.224 172.687 217.62 173.083 218.181 173.083C218.72 173.083 219.116 172.687 219.116 172.181ZM220.234 171.653H221.741C221.796 171.147 222.115 170.663 222.863 170.663C223.567 170.663 223.952 171.037 223.952 171.664C223.952 172.456 223.292 172.709 222.39 172.709H222.071V173.974H222.39C223.534 173.974 224.106 174.304 224.106 175.206C224.106 175.844 223.71 176.328 222.94 176.328C222.115 176.328 221.653 175.833 221.62 175.14H220.124C220.19 176.823 221.389 177.615 222.973 177.615C224.656 177.615 225.58 176.647 225.58 175.338C225.58 174.249 225.041 173.589 224.227 173.336V173.292C224.81 173.094 225.437 172.478 225.437 171.477C225.437 170.289 224.557 169.354 222.907 169.354C221.367 169.354 220.311 170.168 220.234 171.653ZM226.797 173.446C226.797 175.789 227.501 177.538 229.767 177.538C232.033 177.538 232.737 175.789 232.737 173.446C232.737 171.125 232.033 169.387 229.767 169.387C227.501 169.387 226.797 171.125 226.797 173.446ZM231.219 173.446C231.219 174.876 231.065 176.108 229.767 176.108C228.469 176.108 228.315 174.876 228.315 173.446C228.315 172.071 228.469 170.817 229.767 170.817C231.065 170.817 231.219 172.071 231.219 173.446ZM238.246 172.346V171.466H236.706V180.464H238.246V176.691C238.62 177.186 239.302 177.659 240.259 177.659C241.821 177.659 243.042 176.394 243.042 174.491C243.042 172.588 241.821 171.367 240.259 171.367C239.313 171.367 238.609 171.829 238.246 172.346ZM241.469 174.491C241.469 175.646 240.688 176.306 239.852 176.306C239.027 176.306 238.246 175.668 238.246 174.513C238.246 173.358 239.027 172.72 239.852 172.72C240.688 172.72 241.469 173.336 241.469 174.491ZM252.686 177.56H254.226V173.985C254.226 172.302 253.192 171.378 251.729 171.378C250.838 171.378 250.035 171.851 249.639 172.544C249.221 171.785 248.44 171.378 247.494 171.378C246.735 171.378 246.086 171.697 245.701 172.203V171.466H244.161V177.56H245.701V174.194C245.701 173.226 246.24 172.72 247.076 172.72C247.89 172.72 248.429 173.226 248.429 174.194V177.56H249.969V174.194C249.969 173.226 250.508 172.72 251.333 172.72C252.147 172.72 252.686 173.226 252.686 174.194V177.56Z" fill="#707789"/>
<path d="M127.654 178.893C130.588 178.893 132.988 176.493 132.988 173.56C132.988 170.626 130.588 168.226 127.654 168.226C124.721 168.226 122.321 170.626 122.321 173.56C122.321 176.493 124.721 178.893 127.654 178.893ZM127.654 166.893C131.321 166.893 134.321 169.893 134.321 173.56C134.321 177.226 131.321 180.226 127.654 180.226C123.988 180.226 120.988 177.226 120.988 173.56C120.988 169.893 123.988 166.893 127.654 166.893ZM130.988 174.826L130.521 175.693L126.988 173.76V170.226H127.988V173.16L130.988 174.826Z" fill="#CBD2DC"/>
<rect x="185.292" y="183.728" width="2" height="12.3384" fill="#D9DEEB"/>
<defs>
<clipPath id="clip0_930_2682">
<rect width="18" height="18" fill="white" transform="translate(11.2922 271.78)"/>
</clipPath>
<clipPath id="clip1_930_2682">
<rect width="16" height="16" fill="white" transform="translate(12.9062 79.4971)"/>
</clipPath>
</defs>
</svg>
