<svg width="541" height="539" viewBox="0 0 541 539" fill="none" xmlns="http://www.w3.org/2000/svg">
<g clip-path="url(#clip0_905_71)">
<path d="M104.344 354.749H55.8987V535.861H104.344V354.749Z" fill="#FBD15A"/>
<path d="M238.501 283.199H190.056V535.861H238.501V283.199Z" fill="#FBD15A"/>
<path d="M371.913 213.139H323.468V535.861H371.913V213.139Z" fill="#FBD15A"/>
<path d="M506.815 122.956H458.37V535.861H506.815V122.956Z" fill="#FBD15A"/>
<path d="M3.72668 4.44995V533.625H536.628" stroke="black" stroke-width="7.45317" stroke-miterlimit="10" stroke-linecap="round" stroke-linejoin="round"/>
<path d="M94.6548 365.182H46.2092V534.369H94.6548V365.182Z" stroke="black" stroke-width="7.45317" stroke-miterlimit="10"/>
<path d="M228.812 298.104H180.366V534.369H228.812V298.104Z" stroke="black" stroke-width="7.45317" stroke-miterlimit="10"/>
<path d="M362.224 232.517H313.778V535.115H362.224V232.517Z" stroke="black" stroke-width="7.45317" stroke-miterlimit="10"/>
<path d="M497.126 147.55H448.68V534.37H497.126V147.55Z" stroke="black" stroke-width="7.45317" stroke-miterlimit="10"/>
<path d="M55.1537 260.094L259.37 132.645L295.891 181.09L450.172 74.5098" stroke="black" stroke-width="7.45317" stroke-miterlimit="10" stroke-linecap="round" stroke-linejoin="round"/>
<path d="M485.201 49.9141L431.539 56.6219L464.332 96.1237L485.201 49.9141Z" fill="black"/>
</g>
<defs>
<clipPath id="clip0_905_71">
<rect width="540.355" height="538.119" fill="white" transform="translate(0 0.723389)"/>
</clipPath>
</defs>
</svg>
