<svg width="84" height="79" viewBox="0 0 84 79" fill="none" xmlns="http://www.w3.org/2000/svg">
<g clip-path="url(#clip0_2687_1396)">
<path d="M42.0046 1.53046L83.3075 53.5065L70.991 60.6065C70.8248 60.288 70.6494 59.9741 70.4693 59.6509C64.468 49.0655 53.3563 43.2304 42.0046 43.2212V1.53046Z" fill="#373A3A"/>
<path d="M70.4647 59.651C70.6448 59.9741 70.8202 60.288 70.9864 60.6066L42 77.341V43.2212C53.3563 43.2304 64.4911 49.0656 70.4647 59.651Z" fill="#F6D84C"/>
<path d="M42.0046 43.2212V77.341L13.0136 60.6066C15.8167 55.3534 19.9948 50.9609 25.1013 47.8986C30.2077 44.8364 36.0504 43.2196 42.0046 43.2212Z" fill="white"/>
<path d="M42.0046 1.53046V43.2212C36.0503 43.2196 30.2077 44.8364 25.1012 47.8986C19.9948 50.9608 15.8167 55.3534 13.0136 60.6065L0.692429 53.5065L42.0046 1.53046Z" fill="#DAE0E5"/>
<path d="M42.0046 77.341L0.69249 53.5019L42.0046 1.53046L83.3076 53.5019L42.0046 77.341Z" stroke="#373A3A" stroke-width="1.38492" stroke-linecap="round" stroke-linejoin="round"/>
<path d="M42.0046 1.53046V77.341" stroke="#373A3A" stroke-width="1.38492" stroke-linecap="round" stroke-linejoin="round"/>
<path d="M70.991 60.6066C70.8248 60.288 70.6494 59.9741 70.4693 59.651C64.468 49.0656 53.3563 43.2397 42.0046 43.2212C36.0504 43.2196 30.2077 44.8364 25.1013 47.8986C19.9948 50.9609 15.8167 55.3534 13.0136 60.6066" stroke="#373A3A" stroke-width="1.38492" stroke-linecap="round" stroke-linejoin="round"/>
</g>
<defs>
<clipPath id="clip0_2687_1396">
<rect width="84" height="77.1954" fill="white" transform="translate(0 0.837891)"/>
</clipPath>
</defs>
</svg>
