<svg width="383" height="248" viewBox="0 0 383 248" fill="none" xmlns="http://www.w3.org/2000/svg">
<g clip-path="url(#clip0_1292_6294)">
<path d="M91.1687 111.361H9.33309C7.05672 111.361 5.17871 109.482 5.17871 107.205V83.0653C5.17871 80.788 7.05672 78.9092 9.33309 78.9092H91.1118C93.3882 78.9092 95.2662 80.788 95.2662 83.0653V107.205C95.3231 109.482 93.4451 111.361 91.1687 111.361Z" fill="#F5F5F5"/>
<path d="M20.5441 100.885C23.8128 100.885 26.4626 98.2343 26.4626 94.9642C26.4626 91.6942 23.8128 89.0432 20.5441 89.0432C17.2753 89.0432 14.6255 91.6942 14.6255 94.9642C14.6255 98.2343 17.2753 100.885 20.5441 100.885Z" fill="#E0E0E0"/>
<path d="M77.4536 92.2314H30.6172V94.9642H77.4536V92.2314Z" fill="#E0E0E0"/>
<path d="M49.5111 97.0708H30.6172V99.8036H49.5111V97.0708Z" fill="#E0E0E0"/>
<path d="M378.846 151.954H297.067C294.791 151.954 292.913 150.075 292.913 147.798V123.658C292.913 121.381 294.791 119.502 297.067 119.502H378.846C381.122 119.502 383 121.381 383 123.658V147.798C383 150.075 381.179 151.954 378.846 151.954Z" fill="#F5F5F5"/>
<path d="M313.155 138.934C315.013 136.243 314.339 132.555 311.649 130.697C308.96 128.839 305.273 129.513 303.416 132.204C301.558 134.894 302.233 138.582 304.922 140.441C307.612 142.299 311.298 141.624 313.155 138.934Z" fill="#E0E0E0"/>
<path d="M365.13 132.768H318.294V135.5H365.13V132.768Z" fill="#E0E0E0"/>
<path d="M337.188 137.664H318.294V140.397H337.188V137.664Z" fill="#E0E0E0"/>
<path d="M25.7801 186.171L29.593 190.156C30.0483 190.612 30.6743 190.839 31.3003 190.725L36.9343 189.871C38.5278 189.644 39.666 191.238 38.8693 192.604L36.0238 197.387C35.6823 197.899 35.6823 198.582 35.9669 199.151L38.414 204.048C39.0969 205.414 37.8449 207.008 36.2514 206.724L30.6743 205.699C30.0483 205.585 29.4223 205.756 28.9101 206.211L24.7557 210.083C23.5606 211.164 21.6826 210.538 21.5119 209.001L20.9428 203.592C20.8859 202.966 20.4875 202.454 19.9184 202.169L14.9104 199.664C13.4877 198.981 13.6015 196.988 15.0812 196.305L20.2599 193.971C20.829 193.686 21.2843 193.174 21.3981 192.604L22.4225 187.196C22.707 185.658 24.6988 185.032 25.7801 186.171Z" fill="#E0E0E0"/>
<path d="M370.935 234.792C370.935 234.849 289.384 234.962 188.768 234.962C88.1527 234.962 6.60156 234.906 6.60156 234.792C6.60156 234.678 88.1527 234.621 188.768 234.621C289.327 234.678 370.935 234.735 370.935 234.792Z" fill="#263238"/>
<path d="M292.969 233.881H73.7545C66.527 233.881 60.6084 227.789 60.6084 220.217V63.5372C60.6084 58.0147 64.8766 53.574 70.1692 53.574H297.067C302.075 53.574 306.115 57.787 306.115 62.9679V220.16C306.115 227.732 300.254 233.881 292.969 233.881Z" fill="#455A64"/>
<path d="M305.831 236.613H63.0555C56.0557 236.613 50.3647 230.692 50.3647 223.405V221.355C50.3647 221.071 50.5924 220.843 50.8769 220.843H315.847C316.131 220.843 316.359 221.071 316.359 221.355V225.739C316.302 231.717 311.636 236.613 305.831 236.613Z" fill="#455A64"/>
<path d="M305.831 236.613C305.831 236.613 305.945 236.613 306.172 236.613C306.4 236.556 306.742 236.613 307.254 236.5C308.164 236.386 309.587 236.044 311.18 235.076C311.977 234.621 312.774 233.938 313.571 233.084C314.31 232.23 315.05 231.148 315.562 229.838C316.075 228.529 316.359 227.049 316.302 225.455C316.302 224.657 316.302 223.803 316.302 222.949C316.302 222.494 316.302 222.095 316.302 221.64C316.302 221.412 316.302 221.185 316.188 221.071C316.075 220.9 315.847 220.957 315.619 220.957C301.677 220.957 281.474 220.957 256.491 221.014C206.581 221.014 137.607 221.014 61.4052 221.071C59.015 221.071 56.6248 221.071 54.2915 221.071H52.5274H51.6168H51.1615H50.9339C50.877 221.071 50.8201 221.071 50.7632 221.128C50.6493 221.185 50.5924 221.241 50.5355 221.355C50.5355 221.469 50.5355 221.64 50.5355 221.754V222.665C50.5355 223.291 50.5355 223.86 50.5924 224.487C50.7063 225.682 50.9339 226.878 51.3323 228.017C51.503 228.586 51.7875 229.098 52.0152 229.668C52.2997 230.18 52.5843 230.692 52.9257 231.205C54.2915 233.14 56.1695 234.678 58.2752 235.589C59.3565 236.044 60.4377 236.329 61.5759 236.5C62.7141 236.613 63.8523 236.613 64.9905 236.613C67.2669 236.613 69.6002 236.613 71.8765 236.613C76.4293 236.613 80.982 236.613 85.4779 236.613C103.461 236.613 120.762 236.613 137.265 236.613C170.273 236.613 199.98 236.613 224.963 236.67C249.946 236.67 270.149 236.727 284.092 236.727C291.091 236.727 296.498 236.727 300.14 236.727C301.961 236.727 303.384 236.727 304.294 236.727C305.376 236.613 305.831 236.613 305.831 236.613C305.831 236.613 305.376 236.613 304.408 236.613C303.441 236.613 302.075 236.613 300.254 236.613C296.555 236.613 291.148 236.613 284.205 236.613C270.263 236.613 250.06 236.613 225.077 236.67C200.093 236.67 170.387 236.67 137.379 236.727C120.875 236.727 103.575 236.727 85.5917 236.727C81.0958 236.727 76.5431 236.727 71.9904 236.727C69.714 236.727 67.4376 236.727 65.1043 236.727C63.9661 236.727 62.8279 236.727 61.6328 236.613C60.4947 236.443 59.3565 236.158 58.2183 235.702C56.0557 234.792 54.1208 233.197 52.755 231.205C52.3566 230.749 52.129 230.18 51.7875 229.668C51.5599 229.098 51.2753 228.586 51.0477 227.96C50.5924 226.821 50.3648 225.568 50.3079 224.373C50.251 223.747 50.251 223.12 50.251 222.551V221.64C50.251 221.469 50.251 221.355 50.251 221.128C50.3079 220.957 50.4217 220.786 50.5924 220.672C50.6493 220.615 50.7632 220.615 50.877 220.615H51.1046H51.5599H52.4704H54.2346C56.6248 220.615 58.9581 220.615 61.3483 220.615C137.55 220.615 206.467 220.672 256.434 220.672C281.417 220.672 301.62 220.729 315.562 220.729H315.904C316.018 220.729 316.132 220.786 316.245 220.9C316.359 220.957 316.416 221.071 316.416 221.242C316.416 221.355 316.416 221.469 316.416 221.583C316.416 222.039 316.416 222.437 316.416 222.893C316.416 223.747 316.416 224.601 316.416 225.398C316.416 226.992 316.132 228.529 315.619 229.838C315.107 231.148 314.367 232.23 313.628 233.084C312.831 233.938 312.034 234.621 311.237 235.076C309.644 236.044 308.221 236.386 307.311 236.5C306.855 236.613 306.457 236.556 306.229 236.613C305.945 236.613 305.831 236.613 305.831 236.613Z" fill="#263238"/>
<path d="M159.175 220.501L162.476 226.366H208.914L211.987 220.501H159.175Z" fill="#263238"/>
<path d="M297.693 67.2949H72.6733V214.922H297.693V67.2949Z" fill="white"/>
<path d="M297.693 67.2949H72.6733V82.0975H297.693V67.2949Z" fill="#E0E0E0"/>
<path d="M81.8925 74.07C81.8925 75.3226 80.925 76.3474 79.7299 76.3474C78.5348 76.3474 77.5674 75.3226 77.5674 74.07C77.5674 72.8175 78.5348 71.7927 79.7299 71.7927C80.925 71.8497 81.8925 72.8745 81.8925 74.07Z" fill="white"/>
<path d="M88.2094 74.07C88.2094 75.3226 87.2419 76.3474 86.0468 76.3474C84.8517 76.3474 83.8843 75.3226 83.8843 74.07C83.8843 72.8175 84.8517 71.7927 86.0468 71.7927C87.2419 71.8497 88.2094 72.8745 88.2094 74.07Z" fill="white"/>
<path d="M94.5834 74.07C94.5834 75.3226 93.6159 76.3474 92.4208 76.3474C91.2258 76.3474 90.2583 75.3226 90.2583 74.07C90.2583 72.8175 91.2258 71.7927 92.4208 71.7927C93.6159 71.8497 94.5834 72.8745 94.5834 74.07Z" fill="white"/>
<path d="M115.403 129.991C121.159 124.232 121.159 114.896 115.403 109.137C109.647 103.379 100.314 103.379 94.5581 109.137C88.802 114.896 88.802 124.232 94.5581 129.991C100.314 135.749 109.647 135.749 115.403 129.991Z" fill="#FFC727"/>
<path d="M137.664 159.014H88.9492C87.4695 159.014 86.2744 157.818 86.2744 156.338V144.781C86.2744 143.3 87.4695 142.105 88.9492 142.105H137.664C139.143 142.105 140.338 143.3 140.338 144.781V156.338C140.281 157.818 139.143 159.014 137.664 159.014Z" fill="#E0E0E0"/>
<path d="M137.664 181.331H88.9492C87.4695 181.331 86.2744 180.136 86.2744 178.656V167.098C86.2744 165.618 87.4695 164.422 88.9492 164.422H137.664C139.143 164.422 140.338 165.618 140.338 167.098V178.656C140.281 180.136 139.143 181.331 137.664 181.331Z" fill="#E0E0E0"/>
<path d="M137.664 203.194H88.9492C87.4695 203.194 86.2744 201.998 86.2744 200.518V188.961C86.2744 187.48 87.4695 186.285 88.9492 186.285H137.664C139.143 186.285 140.338 187.48 140.338 188.961V200.518C140.281 201.998 139.143 203.194 137.664 203.194Z" fill="#E0E0E0"/>
<path d="M280.335 103.96H146.428V214.979H280.335V103.96Z" fill="#E0E0E0"/>
<g opacity="0.3">
<path d="M264.458 212.645H108.298C105.794 212.645 103.746 210.595 103.746 208.09V58.1855C103.746 55.6804 105.794 53.6309 108.298 53.6309H264.458C266.962 53.6309 269.01 55.6804 269.01 58.1855V208.09C269.067 210.595 267.019 212.645 264.458 212.645Z" fill="black"/>
</g>
<path d="M261.897 18.8448V203.023C261.897 205.414 259.962 207.35 257.572 207.35H115.64C113.25 207.35 111.315 205.414 111.315 203.023V18.8448C111.315 16.4537 113.25 14.5179 115.64 14.5179H257.572C259.962 14.5179 261.897 16.4537 261.897 18.8448Z" fill="white"/>
<path d="M261.897 31.5978H111.315V18.7879C111.315 16.4537 113.193 14.5179 115.583 14.5179H257.97C260.133 14.5179 261.954 16.2829 261.954 18.5033V31.5978H261.897Z" fill="#FFC727"/>
<path d="M261.897 18.8449C261.897 18.8449 261.897 18.6741 261.84 18.3894C261.783 18.1047 261.726 17.6493 261.499 17.1369C261.271 16.6245 260.873 15.9982 260.19 15.4289C259.507 14.9165 258.539 14.518 257.401 14.518C252.848 14.518 246.19 14.518 237.597 14.518C220.41 14.518 195.541 14.518 164.81 14.5749C157.127 14.5749 149.103 14.5749 140.68 14.5749C136.469 14.5749 132.201 14.5749 127.876 14.5749C125.713 14.5749 123.493 14.5749 121.274 14.5749C120.193 14.5749 119.055 14.5749 117.916 14.5749C117.347 14.5749 116.778 14.5749 116.209 14.5749C115.64 14.5749 115.071 14.5749 114.559 14.6888C113.477 14.9165 112.51 15.6566 111.941 16.5676C111.656 17.023 111.429 17.5923 111.372 18.1047C111.258 18.6741 111.315 19.2434 111.315 19.8127C111.315 22.0901 111.315 24.4243 111.315 26.7586C111.315 31.4271 111.315 36.1525 111.315 40.9918C111.315 50.6135 111.315 60.5198 111.315 70.7108C111.315 111.361 111.315 156.053 111.315 202.966C111.315 203.649 111.486 204.389 111.827 205.016C112.169 205.642 112.681 206.154 113.25 206.553C113.819 206.951 114.559 207.179 115.242 207.179C115.981 207.179 116.721 207.179 117.404 207.179C120.307 207.179 123.209 207.179 126.111 207.179C131.916 207.179 137.664 207.179 143.355 207.179C154.794 207.179 166.005 207.179 177.102 207.179C199.24 207.179 220.524 207.179 240.841 207.179C245.906 207.179 250.914 207.179 255.865 207.179C256.491 207.179 257.117 207.179 257.686 207.179C258.255 207.122 258.881 206.951 259.393 206.667C260.417 206.097 261.214 205.073 261.442 203.877C261.556 203.308 261.499 202.681 261.556 202.055C261.556 201.429 261.556 200.86 261.556 200.233C261.556 199.038 261.556 197.785 261.556 196.59C261.556 186.968 261.556 177.631 261.556 168.579C261.556 150.474 261.556 133.679 261.556 118.307C261.556 87.563 261.613 62.6833 261.613 45.4895C261.613 36.8926 261.613 30.2315 261.613 25.6768C261.613 23.3995 261.613 21.6915 261.613 20.5529C261.897 19.4711 261.897 18.8449 261.897 18.8449C261.897 18.8449 261.897 19.4142 261.897 20.6098C261.897 21.7485 261.897 23.5134 261.897 25.7338C261.897 30.2884 261.897 36.9496 261.897 45.5464C261.897 62.7402 261.897 87.6199 261.954 118.364C261.954 133.736 261.954 150.588 261.954 168.636C261.954 177.688 261.954 187.025 261.954 196.647C261.954 197.842 261.954 199.038 261.954 200.29C261.954 200.916 261.954 201.486 261.954 202.112C261.954 202.738 262.011 203.365 261.84 203.934C261.556 205.186 260.759 206.268 259.678 206.894C259.108 207.236 258.482 207.407 257.856 207.464C257.23 207.521 256.604 207.464 255.978 207.464C251.027 207.464 246.019 207.464 240.954 207.464C220.638 207.464 199.297 207.464 177.216 207.464C166.176 207.464 154.907 207.464 143.469 207.464C137.778 207.464 132.03 207.464 126.225 207.464C123.323 207.464 120.42 207.464 117.518 207.464C116.778 207.464 116.095 207.464 115.299 207.464C114.559 207.407 113.819 207.179 113.136 206.781C112.51 206.382 111.941 205.813 111.599 205.13C111.258 204.446 111.03 203.706 111.03 202.966C111.03 156.053 111.03 111.361 111.03 70.7108C111.03 60.5767 111.03 50.6135 111.03 40.9918C111.03 36.1525 111.03 31.4271 111.03 26.7586C111.03 24.4243 111.03 22.0901 111.03 19.8127C111.03 19.2434 110.973 18.6741 111.087 18.1047C111.201 17.5354 111.372 16.9661 111.713 16.4537C112.339 15.4289 113.364 14.7457 114.502 14.461C115.071 14.3472 115.64 14.3472 116.209 14.3472C116.778 14.3472 117.347 14.3472 117.916 14.3472C119.055 14.3472 120.136 14.3472 121.274 14.3472C123.493 14.3472 125.713 14.3472 127.876 14.3472C132.258 14.3472 136.526 14.3472 140.68 14.3472C149.046 14.3472 157.127 14.3472 164.81 14.3472C195.541 14.3472 220.41 14.4041 237.597 14.4041C246.19 14.4041 252.848 14.4041 257.401 14.4041C258.539 14.4041 259.507 14.8026 260.19 15.372C260.873 15.9413 261.271 16.5676 261.499 17.08C261.726 17.5923 261.783 18.0478 261.84 18.3325C261.897 18.731 261.897 18.8449 261.897 18.8449Z" fill="#263238"/>
<path d="M152.973 104.643H138.859C137.664 104.643 136.64 103.675 136.64 102.423V88.3032C136.64 87.1076 137.607 86.0828 138.859 86.0828H152.973C154.168 86.0828 155.192 87.0506 155.192 88.3032V102.423C155.192 103.675 154.225 104.643 152.973 104.643Z" fill="#FFC727"/>
<path d="M145.688 99.8036L140.509 95.8183L141.932 93.9965L145.403 96.6723L150.298 90.979L152.062 92.4593L145.688 99.8036Z" fill="white"/>
<path d="M230.881 64.3342H165.037V68.7181H230.881V64.3342Z" fill="#E0E0E0"/>
<path d="M152.973 75.8348H138.859C137.664 75.8348 136.64 74.8669 136.64 73.6144V59.495C136.64 58.2995 137.607 57.2747 138.859 57.2747H152.973C154.168 57.2747 155.192 58.2425 155.192 59.495V73.6144C155.192 74.81 154.225 75.8348 152.973 75.8348Z" fill="#E0E0E0"/>
<path d="M217.735 94.1672H165.037V98.5511H217.735V94.1672Z" fill="#FFC727"/>
<path d="M152.973 134.76H138.859C137.664 134.76 136.64 133.792 136.64 132.54V118.421C136.64 117.225 137.607 116.2 138.859 116.2H152.973C154.168 116.2 155.192 117.168 155.192 118.421V132.54C155.192 133.736 154.225 134.76 152.973 134.76Z" fill="#E0E0E0"/>
<path d="M223.369 124H165.037V128.384H223.369V124Z" fill="#E0E0E0"/>
<path d="M152.973 164.536H138.859C137.664 164.536 136.64 163.568 136.64 162.316V148.196C136.64 147.001 137.607 145.976 138.859 145.976H152.973C154.168 145.976 155.192 146.944 155.192 148.196V162.316C155.192 163.568 154.225 164.536 152.973 164.536Z" fill="#E0E0E0"/>
<path d="M152.973 192.718H138.859C137.664 192.718 136.64 191.75 136.64 190.498V176.378C136.64 175.183 137.607 174.158 138.859 174.158H152.973C154.168 174.158 155.192 175.126 155.192 176.378V190.498C155.192 191.75 154.225 192.718 152.973 192.718Z" fill="#E0E0E0"/>
<path d="M200.549 153.776H165.037V158.16H200.549V153.776Z" fill="#E0E0E0"/>
<path d="M230.881 181.673H165.037V186.057H230.881V181.673Z" fill="#E0E0E0"/>
<path d="M122.697 22.6024C122.697 24.0827 121.502 25.3352 119.965 25.3352C118.428 25.3352 117.233 24.1396 117.233 22.6024C117.233 21.1222 118.428 19.8696 119.965 19.8696C121.502 19.8696 122.697 21.1222 122.697 22.6024Z" fill="white"/>
<path d="M130.038 22.6024C130.038 24.0827 128.843 25.3352 127.306 25.3352C125.77 25.3352 124.575 24.1396 124.575 22.6024C124.575 21.1222 125.77 19.8696 127.306 19.8696C128.843 19.8696 130.038 21.1222 130.038 22.6024Z" fill="white"/>
<path d="M137.323 22.6024C137.323 24.0827 136.128 25.3352 134.591 25.3352C133.111 25.3352 131.859 24.1396 131.859 22.6024C131.859 21.1222 133.054 19.8696 134.591 19.8696C136.128 19.9266 137.323 21.1222 137.323 22.6024Z" fill="white"/>
<g opacity="0.3">
<path d="M292.059 163.796H195.256C194.061 163.796 193.037 162.828 193.037 161.576V134.817C193.037 133.622 194.004 132.597 195.256 132.597H292.116C293.311 132.597 294.335 133.565 294.335 134.817V161.576C294.278 162.828 293.311 163.796 292.059 163.796Z" fill="black"/>
</g>
<path d="M288.246 158.388H191.443C190.248 158.388 189.224 157.42 189.224 156.167V129.409C189.224 128.213 190.191 127.188 191.443 127.188H288.303C289.498 127.188 290.522 128.156 290.522 129.409V156.167C290.465 157.42 289.498 158.388 288.246 158.388Z" fill="white"/>
<path d="M288.246 158.388C288.246 158.388 288.473 158.388 288.929 158.274C289.327 158.16 289.953 157.761 290.294 156.964C290.465 156.566 290.408 156.053 290.408 155.541C290.408 155.029 290.408 154.402 290.408 153.776C290.408 152.524 290.408 151.043 290.408 149.392C290.408 146.09 290.408 142.048 290.408 137.379C290.408 135.045 290.408 132.54 290.408 129.864C290.408 129.523 290.408 129.181 290.351 128.896C290.294 128.612 290.124 128.27 289.896 128.042C289.441 127.53 288.815 127.302 288.075 127.359C286.652 127.359 285.23 127.359 283.75 127.359C260.133 127.359 227.523 127.359 191.5 127.416C190.988 127.416 190.475 127.644 190.077 127.985C189.679 128.327 189.451 128.839 189.451 129.409C189.451 130.547 189.451 131.629 189.451 132.768C189.451 134.988 189.451 137.209 189.451 139.372C189.451 143.756 189.451 148.083 189.451 152.353C189.451 153.434 189.451 154.459 189.451 155.541C189.451 156.053 189.394 156.623 189.622 157.021C189.793 157.477 190.134 157.875 190.589 158.103C190.817 158.217 191.045 158.274 191.272 158.331C191.5 158.331 191.784 158.331 192.012 158.331C192.524 158.331 193.036 158.331 193.549 158.331C194.573 158.331 195.597 158.331 196.622 158.331C200.719 158.331 204.703 158.331 208.63 158.331C224.223 158.331 238.279 158.331 250.116 158.388C261.897 158.388 271.457 158.445 278.059 158.445C281.36 158.445 283.921 158.445 285.685 158.445C286.538 158.445 287.221 158.445 287.677 158.445C288.018 158.388 288.246 158.388 288.246 158.388C288.246 158.388 288.018 158.388 287.563 158.388C287.108 158.388 286.425 158.388 285.571 158.388C283.807 158.388 281.246 158.388 277.945 158.388C271.344 158.388 261.783 158.388 250.003 158.445C238.222 158.445 224.109 158.445 208.516 158.501C204.589 158.501 200.605 158.501 196.508 158.501C195.483 158.501 194.459 158.501 193.435 158.501C192.923 158.501 192.41 158.501 191.898 158.501C191.614 158.501 191.386 158.501 191.101 158.501C190.817 158.445 190.532 158.388 190.305 158.274C189.793 158.046 189.394 157.591 189.223 157.078C189.11 156.793 189.053 156.566 189.053 156.281V155.484C189.053 154.459 189.053 153.377 189.053 152.296C189.053 148.026 189.053 143.699 189.053 139.315C189.053 137.095 189.053 134.931 189.053 132.711C189.053 131.572 189.053 130.49 189.053 129.352C189.053 128.782 189.337 128.156 189.793 127.758C190.248 127.359 190.817 127.074 191.443 127.074C227.467 127.074 260.076 127.131 283.693 127.131C285.173 127.131 286.595 127.131 288.018 127.131C288.701 127.074 289.498 127.359 289.953 127.872C290.181 128.156 290.351 128.441 290.465 128.782C290.579 129.124 290.522 129.466 290.522 129.807C290.522 132.483 290.522 134.988 290.522 137.322C290.522 141.991 290.522 146.033 290.522 149.335C290.522 150.986 290.522 152.467 290.522 153.719C290.522 154.345 290.522 154.915 290.522 155.484C290.522 155.996 290.579 156.509 290.351 156.907C290.01 157.761 289.384 158.103 288.929 158.217C288.53 158.445 288.246 158.388 288.246 158.388Z" fill="#263238"/>
<path d="M238.849 136.355L237.426 139.258C237.255 139.6 236.971 139.828 236.572 139.884L233.385 140.34C232.475 140.454 232.133 141.592 232.759 142.219L235.093 144.496C235.377 144.724 235.491 145.122 235.434 145.464L234.865 148.652C234.694 149.563 235.662 150.246 236.458 149.791L239.304 148.311C239.645 148.14 239.987 148.14 240.328 148.311L243.174 149.791C243.97 150.189 244.938 149.506 244.767 148.652L244.198 145.464C244.141 145.122 244.255 144.724 244.54 144.496L246.873 142.219C247.556 141.592 247.157 140.454 246.247 140.34L243.06 139.884C242.718 139.828 242.377 139.6 242.206 139.258L240.783 136.355C240.442 135.501 239.247 135.501 238.849 136.355Z" fill="#FFC727"/>
<path d="M257.287 136.355L255.864 139.258C255.694 139.6 255.409 139.828 255.011 139.884L251.824 140.34C250.913 140.454 250.572 141.592 251.198 142.219L253.531 144.496C253.816 144.724 253.929 145.122 253.872 145.464L253.303 148.652C253.133 149.563 254.1 150.246 254.897 149.791L257.742 148.311C258.084 148.14 258.425 148.14 258.767 148.311L261.612 149.791C262.409 150.189 263.376 149.506 263.206 148.652L262.637 145.464C262.58 145.122 262.693 144.724 262.978 144.496L265.311 142.219C265.994 141.592 265.596 140.454 264.685 140.34L261.498 139.884C261.157 139.828 260.815 139.6 260.645 139.258L259.222 136.355C258.824 135.501 257.685 135.501 257.287 136.355Z" fill="#FFC727"/>
<path d="M275.669 136.355L274.246 139.258C274.075 139.6 273.791 139.828 273.393 139.884L270.206 140.34C269.295 140.454 268.954 141.592 269.58 142.219L271.913 144.496C272.197 144.724 272.311 145.122 272.254 145.464L271.685 148.652C271.515 149.563 272.482 150.246 273.279 149.791L276.124 148.311C276.466 148.14 276.807 148.14 277.149 148.311L279.994 149.791C280.791 150.189 281.758 149.506 281.587 148.652L281.018 145.464C280.961 145.122 281.075 144.724 281.36 144.496L283.693 142.219C284.376 141.592 283.978 140.454 283.067 140.34L279.88 139.884C279.539 139.828 279.197 139.6 279.027 139.258L277.604 136.355C277.205 135.501 276.067 135.501 275.669 136.355Z" fill="#E0E0E0"/>
<path d="M220.467 136.355L219.044 139.258C218.873 139.6 218.589 139.828 218.19 139.884L215.003 140.34C214.093 140.454 213.751 141.592 214.377 142.219L216.711 144.496C216.995 144.724 217.109 145.122 217.052 145.464L216.483 148.652C216.312 149.563 217.28 150.246 218.077 149.791L220.922 148.311C221.263 148.14 221.605 148.14 221.946 148.311L224.792 149.791C225.589 150.189 226.556 149.506 226.385 148.652L225.816 145.464C225.759 145.122 225.873 144.724 226.158 144.496L228.491 142.219C229.174 141.592 228.776 140.454 227.865 140.34L224.678 139.884C224.337 139.828 223.995 139.6 223.824 139.258L222.402 136.355C222.06 135.501 220.865 135.501 220.467 136.355Z" fill="#FFC727"/>
<path d="M202.085 136.355L200.662 139.258C200.491 139.6 200.207 139.828 199.809 139.884L196.622 140.34C195.711 140.454 195.37 141.592 195.996 142.219L198.329 144.496C198.613 144.724 198.727 145.122 198.67 145.464L198.101 148.652C197.931 149.563 198.898 150.246 199.695 149.791L202.54 148.311C202.882 148.14 203.223 148.14 203.565 148.311L206.41 149.791C207.207 150.189 208.174 149.506 208.003 148.652L207.434 145.464C207.377 145.122 207.491 144.724 207.776 144.496L210.109 142.219C210.792 141.592 210.394 140.454 209.483 140.34L206.296 139.884C205.955 139.828 205.613 139.6 205.443 139.258L204.02 136.355C203.621 135.501 202.483 135.501 202.085 136.355Z" fill="#FFC727"/>
<path d="M76.6571 124.228H10.5853C4.83747 124.228 0.170898 128.896 0.170898 134.647V159.469C0.170898 165.22 4.83747 169.888 10.5853 169.888H48.7715C50.4788 173.646 53.7226 176.663 57.4217 178.599C60.4379 180.193 63.6817 181.218 66.9825 182.015C68.2914 182.299 69.2589 180.819 68.4621 179.794C66.2427 176.891 64.7061 173.475 64.0232 169.888H76.714C82.4618 169.888 87.1284 165.22 87.1284 159.469V134.647C87.1284 128.896 82.4618 124.228 76.6571 124.228Z" fill="white"/>
<path d="M76.6569 124.228C76.6569 124.228 76.7707 124.228 76.9984 124.228C77.226 124.228 77.5675 124.228 77.9658 124.285C78.8195 124.399 80.0715 124.626 81.5511 125.423C83.0308 126.22 84.6811 127.53 85.8762 129.636C86.4453 130.718 86.9006 131.914 87.0713 133.28C87.1851 133.963 87.1851 134.703 87.1851 135.387C87.1851 136.127 87.1851 136.867 87.1851 137.664C87.1851 143.813 87.242 151.328 87.1851 159.868C87.1851 160.949 86.9575 162.031 86.5591 163.056C86.1608 164.081 85.6486 165.106 84.9088 166.017C83.486 167.781 81.4373 169.205 79.0471 169.717C77.852 170.002 76.6 170.002 75.4049 170.002C74.1529 170.002 72.9578 170.002 71.7058 170.002C69.2018 170.002 66.6409 170.002 64.023 170.002L64.1368 169.831C64.649 172.621 65.7303 175.354 67.2669 177.859C67.6652 178.485 68.0636 179.111 68.5189 179.68C68.7465 180.022 68.8603 180.421 68.8034 180.876C68.7465 181.275 68.5189 181.673 68.1774 181.901C67.836 182.129 67.3807 182.242 66.9823 182.185C66.5839 182.129 66.2425 182.015 65.8441 181.901C65.1043 181.73 64.3645 181.502 63.6247 181.275C60.6654 180.364 57.6492 179.168 55.0313 177.289C52.4135 175.41 50.0233 172.962 48.6575 169.945L48.7713 170.002C40.0073 170.002 30.9018 170.002 21.5686 170.002C19.2354 170.002 16.959 170.002 14.6257 170.002C13.4875 170.002 12.3493 170.002 11.2111 170.002C10.6421 170.002 10.073 170.002 9.50386 169.945L8.65022 169.831C8.36568 169.774 8.08113 169.717 7.79658 169.603C6.7153 169.319 5.63403 168.806 4.66657 168.18C3.75602 167.554 2.90238 166.757 2.21947 165.846C1.53655 164.935 0.967459 163.967 0.626003 162.885C0.284547 161.803 0.0569094 160.722 0.0569094 159.583C0 150.872 0 142.446 0 134.362C0 133.337 0.227637 132.312 0.512184 131.401C0.796731 130.433 1.30892 129.522 1.8211 128.725C2.39019 127.928 3.07311 127.188 3.81293 126.562C4.55275 125.936 5.40639 125.423 6.26003 125.025C7.17058 124.626 8.08113 124.342 8.99168 124.228C9.95914 124.057 10.8697 124.114 11.7802 124.114C13.6582 124.114 15.4793 124.114 17.2435 124.114C24.4141 124.114 31.0725 124.114 37.1618 124.114C49.3404 124.114 59.1857 124.171 66.0149 124.171C69.4294 124.171 72.0472 124.171 73.8683 124.171C74.7789 124.171 75.4618 124.171 75.9171 124.171C76.4293 124.171 76.6569 124.228 76.6569 124.228C76.6569 124.228 76.4293 124.228 75.974 124.228C75.5187 124.228 74.8358 124.228 73.9253 124.228C72.1042 124.228 69.4863 124.228 66.0718 124.228C59.2426 124.228 49.3973 124.228 37.2187 124.285C31.1294 124.285 24.471 124.285 17.3004 124.285C15.5363 124.285 13.7152 124.285 11.8371 124.285C10.9266 124.285 9.95914 124.285 9.04859 124.399C8.13804 124.512 7.22749 124.797 6.37385 125.196C5.52021 125.594 4.72348 126.107 3.98365 126.676C3.24383 127.302 2.61783 127.985 2.04874 128.782C1.53655 129.579 1.08128 130.49 0.739822 131.401C0.455275 132.312 0.227637 133.337 0.227637 134.305C0.227637 142.332 0.227637 150.815 0.227637 159.583C0.227637 160.665 0.455275 161.747 0.796731 162.771C1.13819 163.796 1.65037 164.764 2.33328 165.618C3.0162 166.472 3.81293 167.269 4.72348 167.895C5.63403 168.522 6.6584 168.977 7.73967 169.262C8.02422 169.319 8.25186 169.433 8.5364 169.433L9.39004 169.546C9.95914 169.603 10.5282 169.603 11.0973 169.603C12.2355 169.603 13.3737 169.603 14.5119 169.603C16.7883 169.603 19.1215 169.603 21.4548 169.603C30.788 169.603 39.8935 169.603 48.6575 169.603H48.7713L48.8282 169.66C50.1941 172.621 52.5273 175.069 55.1452 176.948C57.763 178.77 60.7223 180.022 63.6816 180.876C64.4214 181.104 65.1612 181.275 65.901 181.502C66.2425 181.616 66.6409 181.673 66.9823 181.787C67.3238 181.844 67.6652 181.787 67.9498 181.559C68.2343 181.388 68.4051 181.047 68.462 180.705C68.5189 180.364 68.4051 180.022 68.2343 179.737C67.779 179.111 67.3238 178.542 66.9254 177.859C65.3319 175.297 64.3076 172.564 63.7385 169.717L63.6816 169.546H63.8523C66.4701 169.546 69.0311 169.546 71.5351 169.546C72.7871 169.546 74.0391 169.546 75.2342 169.546C76.4862 169.546 77.6813 169.546 78.8195 169.262C81.1527 168.749 83.1446 167.383 84.5673 165.675C85.3071 164.821 85.8193 163.796 86.1608 162.771C86.5591 161.747 86.7868 160.665 86.7868 159.64C86.7868 151.1 86.8437 143.585 86.8437 137.436C86.8437 135.899 86.9006 134.419 86.7299 133.052C86.5591 131.686 86.1039 130.49 85.5917 129.409C84.4535 127.302 82.8031 125.993 81.3235 125.196C79.8438 124.455 78.5918 124.171 77.7382 124.057C77.3398 124 76.9984 124 76.7707 124C76.7707 124.228 76.6569 124.228 76.6569 124.228Z" fill="#263238"/>
<path d="M19.4608 150.38C21.861 147.979 21.861 144.086 19.4608 141.685C17.0606 139.284 13.1691 139.284 10.7688 141.685C8.36862 144.086 8.36862 147.979 10.7688 150.381C13.1691 152.782 17.0606 152.782 19.4608 150.38Z" fill="#FFC727"/>
<path d="M74.0959 139.941H25.5522V142.788H74.0959V139.941Z" fill="#E0E0E0"/>
<path d="M74.0959 146.773H25.5522V149.62H74.0959V146.773Z" fill="#E0E0E0"/>
<path d="M45.1291 153.605H25.5522V156.452H45.1291V153.605Z" fill="#E0E0E0"/>
<path d="M315.107 227.561L315.619 237.354C315.619 237.354 305.831 241.168 305.774 242.99L324.782 242.648L324.554 227.333L315.107 227.561Z" fill="#263238"/>
<path d="M324.782 242.648V241.168L306.514 242.022C306.514 242.022 305.66 242.421 305.774 242.99L324.782 242.648Z" fill="#455A64"/>
<path d="M315.335 237.297C315.335 237.411 315.79 237.411 316.246 237.695C316.701 237.98 316.985 238.378 317.042 238.322C317.099 238.322 316.985 237.752 316.416 237.411C315.847 237.069 315.278 237.183 315.335 237.297Z" fill="white"/>
<path d="M313.343 238.151C313.343 238.265 313.742 238.379 314.026 238.777C314.368 239.176 314.425 239.574 314.538 239.574C314.652 239.574 314.652 239.062 314.254 238.549C313.912 238.094 313.343 238.037 313.343 238.151Z" fill="white"/>
<path d="M312.262 240.542C312.319 240.542 312.489 240.086 312.205 239.574C311.977 239.062 311.522 238.891 311.465 238.948C311.408 239.005 311.693 239.289 311.92 239.688C312.148 240.143 312.148 240.542 312.262 240.542Z" fill="white"/>
<path d="M351.188 226.365L354.375 237.809L359.497 246.121C359.838 246.747 359.668 247.488 359.042 247.829C358.7 248 358.302 248 357.903 247.829C355.684 246.691 347.432 242.478 347.261 241.624C347.034 240.656 343.107 229.781 343.107 229.781L351.188 226.365Z" fill="#263238"/>
<path d="M359.042 247.829L347.091 240.883L347.262 241.339C347.375 241.737 347.66 242.136 348.001 242.364C348.969 242.99 351.7 244.641 357.904 247.829C358.245 248.057 358.7 248 359.042 247.829Z" fill="#455A64"/>
<path d="M354.944 243.673C355.001 243.673 355.115 242.99 355.684 242.478C356.253 241.908 356.936 241.908 356.936 241.851C356.936 241.794 356.765 241.794 356.481 241.794C356.196 241.851 355.855 241.965 355.513 242.307C355.172 242.591 355.001 242.99 354.944 243.218C354.887 243.502 354.887 243.673 354.944 243.673Z" fill="white"/>
<path d="M356.196 244.926C356.253 244.983 356.538 244.47 357.05 244.129C357.562 243.787 358.131 243.73 358.131 243.673C358.131 243.616 357.505 243.559 356.936 243.958C356.31 244.299 356.139 244.926 356.196 244.926Z" fill="white"/>
<path d="M352.839 242.193C352.895 242.25 353.294 241.51 354.091 240.883C354.887 240.257 355.684 240.029 355.627 239.972C355.627 239.915 354.717 240.029 353.92 240.656C353.066 241.282 352.782 242.136 352.839 242.193Z" fill="white"/>
<path d="M351.586 238.777C351.643 238.834 352.212 238.378 353.009 238.094C353.806 237.809 354.546 237.809 354.546 237.752C354.546 237.695 353.806 237.581 352.952 237.866C352.042 238.151 351.529 238.72 351.586 238.777Z" fill="white"/>
<path d="M350.562 236.101C350.619 236.158 351.131 235.589 351.985 235.361C352.838 235.133 353.578 235.361 353.578 235.304C353.578 235.247 353.407 235.19 353.123 235.076C352.838 235.019 352.383 234.962 351.928 235.133C351.472 235.247 351.074 235.475 350.846 235.702C350.619 235.93 350.505 236.101 350.562 236.101Z" fill="white"/>
<path d="M348.798 84.7164C348.855 83.5777 347.83 82.496 346.692 82.5529C347.773 81.5851 347.716 79.6493 346.578 78.7954C345.44 77.9414 343.505 78.4538 342.936 79.7632C342.424 77.5998 340.034 76.1195 337.871 76.575C335.709 77.0304 334.115 79.3647 334.513 81.5281V92.0607C334.741 93.0286 335.538 93.8257 336.448 94.1103C337.416 94.395 338.497 94.1103 339.18 93.4271C339.977 94.1673 341.286 94.3381 342.196 93.7118C343.107 93.1425 343.562 91.8899 343.221 90.8082C343.619 91.6053 344.7 91.7761 345.497 91.3775C346.237 90.979 346.692 90.0681 346.749 89.2141C346.863 88.3601 346.635 87.5061 346.464 86.6521C347.603 86.8229 348.741 85.855 348.798 84.7164Z" fill="#263238"/>
<path d="M339.18 87.1077C337.814 83.5778 335.253 81.0159 331.668 79.8203C329.676 79.1371 328.652 79.3079 327.115 79.194C325.522 79.1371 323.985 79.4787 322.676 80.4465C321.197 81.5852 319.774 82.9516 319.034 84.6596C318.237 86.4245 317.44 88.1894 316.985 90.0682C316.53 91.947 316.416 93.9396 317.042 95.8184L321.481 98.1527C324.042 99.0636 326.66 99.9745 329.335 100.202C332.066 100.43 334.912 99.8607 336.96 98.0958C339.863 95.6476 340.603 90.6375 339.18 87.1077Z" fill="#263238"/>
<path d="M335.026 85.7412L329.562 81.2435L327.855 80.9019C324.156 79.7632 320.343 82.9515 319.376 85.912C318.294 89.2141 317.099 93.2563 316.872 95.8753C316.359 101.113 320.4 102.821 320.4 102.821L319.376 107.717L323.302 111.987L328.823 107.888L336.107 87.9046C336.448 87.0506 335.936 86.0828 335.026 85.7412Z" fill="#AE7461"/>
<path d="M324.611 97.1278C324.668 96.8431 324.611 96.5584 324.44 96.3876C324.156 95.9322 323.643 95.7614 323.188 95.8752C322.733 96.046 322.335 96.5015 322.221 97.0139C322.335 97.4124 322.619 97.6971 322.961 97.8679C323.017 97.8679 323.074 97.9248 323.131 97.9248C323.416 97.9817 323.757 97.9817 324.042 97.8679C324.326 97.754 324.554 97.4694 324.611 97.1278Z" fill="#6F4439"/>
<path d="M320.4 90.9791C320.286 91.3207 320.514 91.6623 320.855 91.7761C321.196 91.89 321.595 91.7192 321.652 91.3776C321.766 91.036 321.538 90.6944 321.196 90.5805C320.855 90.4667 320.514 90.6375 320.4 90.9791Z" fill="#263238"/>
<path d="M320.058 87.9615C320.115 88.0754 320.684 87.8477 321.367 88.0185C322.05 88.1893 322.506 88.7017 322.562 88.5878C322.619 88.5878 322.562 88.3601 322.392 88.1893C322.221 87.9615 321.88 87.7338 321.424 87.6199C320.969 87.5061 320.571 87.563 320.343 87.6769C320.115 87.7907 320.002 87.9046 320.058 87.9615Z" fill="#263238"/>
<path d="M322.676 94.7365C322.676 94.6796 322.278 94.5088 321.595 94.2241C321.424 94.1672 321.253 94.0533 321.253 93.9395C321.253 93.8256 321.367 93.6548 321.481 93.4271C321.765 93.0285 322.05 92.63 322.335 92.2315C323.587 90.5235 324.497 89.0432 324.44 89.0432C324.383 88.9863 323.302 90.3527 322.107 92.0607C321.822 92.5161 321.538 92.9147 321.253 93.3132C321.139 93.484 320.969 93.7117 320.969 93.9964C320.969 94.1672 321.083 94.2811 321.196 94.338C321.31 94.3949 321.424 94.4519 321.481 94.4519C322.278 94.6227 322.676 94.7365 322.676 94.7365Z" fill="#263238"/>
<path d="M320.457 102.878C320.457 102.878 323.757 103.96 327.627 102.821C327.627 102.821 325.009 106.123 320.115 104.358L320.457 102.878Z" fill="#6F4439"/>
<path d="M324.611 95.7046C324.497 95.6476 324.327 96.4447 323.53 96.7863C322.733 97.1279 321.993 96.8432 321.937 96.9571C321.937 97.014 322.05 97.1279 322.392 97.2417C322.733 97.3556 323.245 97.3556 323.701 97.1279C324.156 96.9001 324.441 96.5016 324.554 96.217C324.725 95.9323 324.668 95.7615 324.611 95.7046Z" fill="#263238"/>
<path d="M321.026 85.6844C321.083 85.9121 321.652 85.9121 322.278 86.1398C322.904 86.3106 323.359 86.6522 323.53 86.5384C323.587 86.4814 323.587 86.3106 323.416 86.0829C323.245 85.8552 322.904 85.6274 322.506 85.4566C322.107 85.3428 321.652 85.3428 321.424 85.3997C321.14 85.4566 321.026 85.5705 321.026 85.6844Z" fill="#263238"/>
<path d="M327.684 92.8577C327.571 93.1993 327.229 93.427 326.888 93.3131C326.546 93.1993 326.319 92.8577 326.375 92.5161C326.489 92.1745 326.831 91.9468 327.172 92.0606C327.571 92.1745 327.798 92.5161 327.684 92.8577Z" fill="#263238"/>
<path d="M329.335 90.6944C329.221 90.7514 328.879 90.239 328.196 90.0682C327.513 89.8404 326.887 90.0682 326.831 89.9543C326.831 89.8974 326.944 89.7835 327.172 89.6696C327.457 89.5558 327.855 89.5558 328.253 89.6696C328.652 89.7835 328.993 90.0682 329.164 90.2959C329.335 90.4667 329.392 90.6375 329.335 90.6944Z" fill="#263238"/>
<path d="M329.619 88.3601C329.448 88.474 328.936 88.1324 328.31 87.9616C327.684 87.7339 327.115 87.7339 327.001 87.5061C326.944 87.3923 327.115 87.2784 327.4 87.2215C327.684 87.1645 328.082 87.1645 328.538 87.2784C328.993 87.4492 329.334 87.6769 329.505 87.9047C329.676 88.1324 329.676 88.3032 329.619 88.3601Z" fill="#263238"/>
<path d="M333.944 94.9073L332.806 95.5336C330.245 90.8082 325.863 79.6493 326.091 80.3325C326.091 80.3325 328.936 80.1048 331.554 81.4712C334.172 82.8376 338.895 85.855 337.814 89.0432C336.676 92.2315 333.944 94.9073 333.944 94.9073Z" fill="#263238"/>
<path d="M332.635 95.9891C332.749 95.5906 333.375 94.8505 333.774 94.9074C334.798 95.0213 336.562 95.5337 335.936 98.0387C335.082 101.455 331.782 99.8606 331.839 99.8036C331.839 99.6898 332.294 97.2417 332.635 95.9891Z" fill="#AE7461"/>
<path d="M333.09 98.7788C333.09 98.7788 333.147 98.8357 333.204 98.8926C333.318 98.9496 333.432 99.0634 333.659 99.0065C334.058 98.9496 334.513 98.4941 334.684 97.8678C334.798 97.5832 334.798 97.2416 334.741 96.9569C334.684 96.6722 334.57 96.4445 334.399 96.3876C334.229 96.2737 334.058 96.3876 334.001 96.4445C333.944 96.5014 333.944 96.6153 333.887 96.6153C333.887 96.6153 333.83 96.5584 333.887 96.3876C333.944 96.3306 334.001 96.2737 334.058 96.2168C334.172 96.1598 334.285 96.1598 334.399 96.2168C334.684 96.3306 334.855 96.6153 334.911 96.9C334.968 97.1846 334.968 97.5832 334.855 97.9248C334.684 98.608 334.115 99.1773 333.603 99.1773C333.318 99.1773 333.147 99.0634 333.09 98.9496C333.09 98.8357 333.09 98.7788 333.09 98.7788Z" fill="#6F4439"/>
<path d="M339.18 95.1352C339.18 95.1352 339.237 94.9074 339.35 94.5089C339.464 94.1104 339.578 93.541 339.692 92.8578C339.863 91.4345 339.863 89.4418 339.18 87.3353C338.497 85.2857 337.245 83.6347 336.277 82.6668C335.765 82.1544 335.31 81.8128 335.025 81.5282C334.684 81.3004 334.513 81.1296 334.513 81.1296C334.513 81.1296 334.57 81.1296 334.684 81.1866C334.798 81.2435 334.912 81.3004 335.082 81.4143C335.424 81.642 335.879 81.9836 336.391 82.496C337.416 83.4639 338.668 85.1149 339.407 87.2215C340.09 89.328 340.147 91.3776 339.863 92.8009C339.749 93.541 339.578 94.0534 339.464 94.452C339.407 94.6227 339.35 94.7935 339.294 94.9074C339.237 95.0782 339.18 95.1352 339.18 95.1352Z" fill="#455A64"/>
<path d="M308.734 142.788C308.449 143.073 302.417 156.907 302.701 164.195C302.986 171.539 307.425 196.988 307.425 196.988L314.481 236.386H324.725C324.725 236.386 324.725 211.221 323.815 204.275C322.904 197.387 321.823 193.572 321.538 188.505C321.254 183.438 321.14 172.792 320.855 173.19C320.571 173.589 344.473 234.905 344.473 234.905L354.546 234.222C354.546 234.222 350.903 213.157 350.164 209.172C349.424 205.186 346.351 192.946 344.074 186.74C341.798 180.534 341.001 165.106 337.814 158.444C334.627 151.783 334.001 145.407 334.001 145.407L308.734 142.788Z" fill="#263238"/>
<path d="M343.107 4.21309L349.196 21.293C349.879 23.2287 351.529 24.709 353.521 25.2783L371.618 30.2884C376.74 31.7117 377.992 38.1451 373.724 41.1056L358.757 51.7521C357.049 52.9477 356.139 54.8834 356.196 56.8761L356.992 74.81C357.22 79.877 351.245 82.9514 346.92 79.9909L331.554 69.5152C329.847 68.3196 327.627 68.0349 325.635 68.7181L308.05 74.753C303.042 76.461 298.148 71.9633 299.685 67.124L305.205 50.0441C305.831 48.1084 305.433 46.0019 304.124 44.4078L292.457 30.1745C289.157 26.1323 292.059 20.3251 297.351 20.2682L316.132 20.2112C318.237 20.2112 320.172 19.1865 321.367 17.5354L331.725 2.6759C334.684 -1.53714 341.399 -0.626215 343.107 4.21309Z" fill="#FFC727"/>
<path d="M297.693 76.9165L298.945 74.81C298.945 74.81 295.815 68.2627 295.758 67.6933C295.758 67.124 298.661 63.0248 298.661 63.0248L302.018 62.5125C302.018 62.5125 302.303 63.3095 301.506 63.5942C300.709 63.8788 299.685 64.1635 299.685 64.1635L298.774 65.5868C298.774 65.5868 300.311 65.1314 300.766 65.0175C301.222 64.9036 304.978 64.9036 304.921 65.5299C304.864 66.1562 304.352 67.0671 303.555 67.124C302.758 67.181 300.823 67.7503 300.823 67.7503C300.823 67.7503 300.083 68.2057 300.596 68.4904C301.108 68.7751 303.555 68.0919 304.01 68.5473C304.465 69.0028 303.896 69.5721 303.441 69.4583C303.043 69.3444 300.994 69.9707 300.994 69.9707C300.994 69.9707 303.726 72.5327 303.726 73.899C303.726 75.2654 302.758 79.4215 302.758 79.4215L297.693 76.9165Z" fill="#AE7461"/>
<path d="M350.789 86.7088C350.789 86.7088 350.106 82.325 350.334 81.4141C350.562 80.4462 354.488 77.201 354.204 77.258C353.919 77.258 351.529 75.6069 351.586 75.1515C351.643 74.6391 351.643 74.6391 351.643 74.6391C351.643 74.6391 351.302 73.4435 351.757 73.1588C352.212 72.8741 353.635 73.6143 353.635 73.6143C353.635 73.6143 355.058 72.9311 356.025 73.1588C356.992 73.3865 357.618 75.7777 357.618 75.7777C357.618 75.7777 358.814 75.2084 358.586 74.2405C358.358 73.2727 358.074 72.134 358.074 72.134C358.074 72.134 358.643 71.7355 359.098 72.4756C359.553 73.2157 360.066 76.347 359.895 77.3149C359.724 78.2828 355.797 80.3893 355.627 81.0725C355.456 81.7557 356.48 86.1964 356.48 86.1964L350.789 86.7088Z" fill="#AE7461"/>
<path d="M331.952 137.835L338.326 108.002L329.733 106.636C329.733 106.636 327.115 108.571 324.042 108.571C320.969 108.571 319.717 105.554 319.717 105.554L314.14 104.188C314.14 104.188 306.4 112.614 305.319 122.862C305.034 125.537 306.172 131.857 306.798 134.931C307.026 136.127 307.026 137.322 306.855 138.461L304.807 150.019C312.546 157.42 325.692 156.338 334.627 149.449C335.538 148.197 334.798 145.862 334.058 144.496L331.952 137.835Z" fill="#FFC727"/>
<path d="M297.522 76.3472C297.522 76.3472 288.531 93.9394 289.953 96.9C292.742 102.593 308.677 115.46 308.677 115.46L315.79 105.725L299.173 94.3949L303.896 78.169L297.522 76.3472Z" fill="#FFC727"/>
<path d="M349.708 85.9118L350.96 102.081L334.57 107.376L334.058 121.78L355.627 111.816C358.131 110.848 359.667 106.749 359.553 102.821C359.383 95.7612 356.594 83.4067 356.594 83.4067L349.708 85.9118Z" fill="#FFC727"/>
<path d="M313.059 105.952C313.115 106.009 311.92 108.059 310.384 110.507C308.847 113.012 307.538 114.948 307.481 114.948C307.425 114.891 308.62 112.841 310.156 110.393C311.693 107.888 313.002 105.895 313.059 105.952Z" fill="#263238"/>
<path d="M351.529 105.212C351.473 105.269 351.131 104.7 350.79 103.96C350.448 103.22 350.22 102.593 350.334 102.536C350.391 102.479 350.733 103.049 351.074 103.789C351.416 104.529 351.643 105.155 351.529 105.212Z" fill="#263238"/>
<path d="M335.936 115.802C335.879 115.802 335.652 114.435 335.595 112.67C335.595 110.905 335.822 109.539 335.879 109.539C335.936 109.539 335.879 110.962 335.879 112.67C335.936 114.378 336.05 115.802 335.936 115.802Z" fill="#263238"/>
</g>
<defs>
<clipPath id="clip0_1292_6294">
<rect width="383" height="248" fill="white"/>
</clipPath>
</defs>
</svg>
