<svg xmlns="http://www.w3.org/2000/svg" viewBox="0 0 90.15 90.15"><defs><style>.cls-1{fill:#263238;}.cls-2{fill:#fff;}</style></defs><g id="Layer_2" data-name="Layer 2"><g id="Layer_1-2" data-name="Layer 1"><rect class="cls-1" width="90.15" height="90.15" rx="45.07"/><path class="cls-2" d="M65.43,29.13V64.51l-.09.32a4.26,4.26,0,0,1-4.13,3.35H26.92a4.23,4.23,0,0,1-4.2-4.2q0-17.15,0-34.29a4.09,4.09,0,0,1,2.41-3.8,10.84,10.84,0,0,1,1.25-.43H61.76a1.13,1.13,0,0,0,.24.08,4.25,4.25,0,0,1,3.23,2.88C65.31,28.65,65.37,28.9,65.43,29.13ZM64,46.87V29.93a2.86,2.86,0,0,0-3-3q-17,0-33.91,0a2.86,2.86,0,0,0-3,3q0,16.94,0,33.86a2.86,2.86,0,0,0,3,3H61a3.75,3.75,0,0,0,1-.12A2.86,2.86,0,0,0,64,63.72Z"/><path class="cls-2" d="M44.07,65.34H27.93A2.16,2.16,0,0,1,25.55,63V42.07a2.16,2.16,0,0,1,2.38-2.37H60.22a2.15,2.15,0,0,1,2.37,2.38V63a2.16,2.16,0,0,1-2.38,2.37Zm0-24.2H28c-.78,0-1,.21-1,1V62.9c0,.8.23,1,1,1H60.13c.82,0,1-.21,1-1V42.18c0-.84-.19-1-1-1Z"/><path class="cls-2" d="M54.58,36.31c.07-.38.14-.88.24-1.39a.59.59,0,0,0-.19-.63c-.33-.31-.64-.65-1-1a1.06,1.06,0,0,1-.27-1.15,1,1,0,0,1,1-.7,2.89,2.89,0,0,1,.29,0c1.07.09,1.58-.53,1.88-1.45.17-.52.46-1,1.09-1s.9.47,1.11,1c0,.14.15.27.19.41a1.22,1.22,0,0,0,1.35,1,5,5,0,0,1,.66.09,1,1,0,0,1,.9.69,1,1,0,0,1-.25,1.12c-.34.35-.7.68-1,1.05a.69.69,0,0,0-.16.5c0,.51.15,1,.23,1.52a1,1,0,0,1-.41,1,1,1,0,0,1-1.06.07c-.43-.22-.85-.48-1.29-.69a.67.67,0,0,0-.52,0c-.42.2-.82.45-1.24.67C55.32,37.82,54.54,37.31,54.58,36.31Zm3-5.28a2.06,2.06,0,0,1-2.39,1.72,5.33,5.33,0,0,1,1,1.35,5.28,5.28,0,0,1,0,1.65,1.9,1.9,0,0,1,2.79,0,2.26,2.26,0,0,1,1-2.94A2.13,2.13,0,0,1,57.61,31Z"/><path class="cls-2" d="M45.88,37.55a3.74,3.74,0,0,1-.78-.39,1.45,1.45,0,0,0-2,0,2.78,2.78,0,0,1-.51.28,1,1,0,0,1-1.06,0,1,1,0,0,1-.44-1c.06-.51.18-1,.23-1.52a.9.9,0,0,0-.17-.58c-.3-.36-.66-.68-1-1a1.06,1.06,0,0,1,.68-1.82,1.25,1.25,0,0,1,.32-.05A1.67,1.67,0,0,0,43,30c.16-.53.44-1,1.1-1s1,.51,1.14,1.05A1.63,1.63,0,0,0,47,31.42a1.14,1.14,0,0,1,.24,0,1.05,1.05,0,0,1,1,.7,1.12,1.12,0,0,1-.36,1.24c-.37.37-.89.71-1,1.16s.11,1,.18,1.5a3.8,3.8,0,0,1,0,.46A1,1,0,0,1,45.88,37.55Zm-1.81-6.39a4.53,4.53,0,0,1-.86,1.26,4.55,4.55,0,0,1-1.43.42,4.88,4.88,0,0,1,.94,1.29,5.39,5.39,0,0,1,0,1.68,2,2,0,0,1,2.87-.06,2.18,2.18,0,0,1,1-2.88,5,5,0,0,1-1.55-.45A4.48,4.48,0,0,1,44.07,31.16Z"/><path class="cls-2" d="M28.22,36.38c.07-.37.14-.85.23-1.33a.78.78,0,0,0-.24-.85,9.77,9.77,0,0,1-.91-.91A1,1,0,0,1,27,32.18a1,1,0,0,1,.91-.7,1.49,1.49,0,0,1,.36-.05A1.67,1.67,0,0,0,30.14,30c.17-.53.46-1,1.11-1s.91.5,1.13,1a3.17,3.17,0,0,1,.17.38,1.24,1.24,0,0,0,1.39,1,5.36,5.36,0,0,1,.7.1,1,1,0,0,1,.6,1.76c-.34.38-.72.73-1.06,1.11a.6.6,0,0,0-.14.43c.06.49.15,1,.23,1.48a1,1,0,0,1-.4,1.1,1,1,0,0,1-1.14,0c-.38-.2-.76-.39-1.13-.62a.56.56,0,0,0-.68,0,10.74,10.74,0,0,1-1.2.66A1,1,0,0,1,28.22,36.38Zm1.57-.63a2.1,2.1,0,0,1,3,0,2.25,2.25,0,0,1,.92-3A2.15,2.15,0,0,1,31.25,31a2.13,2.13,0,0,1-2.4,1.79A2.26,2.26,0,0,1,29.79,35.75Z"/><path class="cls-2" d="M56.18,58.14v.67a2.14,2.14,0,0,1-4.14.88l0-.1H50.4a1.17,1.17,0,0,0-.07.15,2.14,2.14,0,0,1-3.17,1,.52.52,0,0,0-.42,0,2.12,2.12,0,0,1-3-.49L42,60.37a2.17,2.17,0,0,1-4.24.6c-1.54.23-2.17-.08-2.86-1.43A2.24,2.24,0,0,1,32,58.1a2.15,2.15,0,0,1-2.17-.42,1.93,1.93,0,0,1-.71-1.5c0-2.43,0-4.86,0-7.3a2.09,2.09,0,0,1,2.62-2l.26.06a2.39,2.39,0,0,1,1.11-1.31,2.29,2.29,0,0,1,1.73-.11,2.23,2.23,0,0,1,2.86-1.44,2.11,2.11,0,0,1,2.45-1.49,2.08,2.08,0,0,1,1.79,2c.57.09,1.09.19,1.62.26a.35.35,0,0,0,.24-.11,2.16,2.16,0,0,1,3.09-.31c1.58-.89,2.55-.61,3.51,1H52A2.08,2.08,0,0,1,54.53,44c1.47.35,1.77,1.51,1.64,2.8a8.4,8.4,0,0,1,1.27.08,2,2,0,0,1,1.57,2c0,2.42,0,4.84,0,7.26a2.08,2.08,0,0,1-2.51,2ZM30.55,52.49v3.42c0,.54.23.83.65.86s.68-.21.77-.74a.71.71,0,1,1,1.42.11c0,.4,0,.81,0,1.21s.25.82.67.84.67-.2.76-.75a.73.73,0,0,1,.73-.66.72.72,0,0,1,.68.75c0,.42,0,.84,0,1.25s.24.8.64.83.69-.19.78-.72a.72.72,0,1,1,1.43.08c0,.43,0,.87,0,1.3s.29.79.73.77.66-.3.67-.78V58.42c0-.55.23-.87.65-.91s.67.21.82.75a1,1,0,0,0,.36.56c.45.29.9,0,1-.62a.73.73,0,1,1,1.45.08c0,.24,0,.48,0,.71a.66.66,0,0,0,1,.56,1.23,1.23,0,0,0,.41-.66c.14-.42.37-.68.73-.68a.75.75,0,0,1,.73.68c.09.54.33.76.77.72s.62-.31.63-.83,0-.8,0-1.21a.74.74,0,0,1,.69-.79.75.75,0,0,1,.74.7c.08.49.3.72.71.71s.62-.23.71-.72a.71.71,0,1,1,1.42.12c0,.43,0,.86,0,1.29a.68.68,0,0,0,.8.73c.39,0,.61-.33.61-.81,0-.86,0-1.73,0-2.59,0-.5.25-.82.66-.85a.78.78,0,0,1,.77.72.67.67,0,0,0,.77.69.68.68,0,0,0,.63-.78q0-3.47,0-6.93a.74.74,0,0,0-.66-.81.75.75,0,0,0-.75.7c-.09.52-.34.75-.79.71s-.63-.32-.63-.82c0-.89,0-1.78,0-2.67a.71.71,0,1,0-1.41,0c0,.38,0,.77,0,1.16s-.21.84-.62.89-.7-.18-.81-.74a.73.73,0,0,0-.72-.67.74.74,0,0,0-.69.7c-.07.48-.34.73-.76.71s-.66-.3-.67-.79,0-.84,0-1.25a1.08,1.08,0,0,0-.34-.67c-.42-.33-1,0-1.05.59a.73.73,0,0,1-.66.7.68.68,0,0,1-.74-.48,1.76,1.76,0,0,1-.07-.33.69.69,0,0,0-1.37.13c0,.2,0,.41,0,.62a.77.77,0,0,1-.71.79.75.75,0,0,1-.74-.71c-.1-.5-.31-.71-.71-.7s-.59.2-.69.68-.39.75-.77.72a.75.75,0,0,1-.68-.84c0-.63,0-1.26,0-1.88s-.26-.82-.68-.83-.71.3-.73.83,0,.83,0,1.25a.69.69,0,0,1-.67.75.72.72,0,0,1-.76-.67c-.08-.49-.35-.76-.74-.74s-.67.34-.68.84,0,.83,0,1.25a.72.72,0,0,1-1.43.06c-.07-.47-.36-.76-.74-.73a.75.75,0,0,0-.68.81c0,.43,0,.86,0,1.29a.68.68,0,0,1-.64.73A.69.69,0,0,1,32,49c-.08-.52-.36-.8-.76-.77s-.66.36-.66.91Z"/><path class="cls-2" d="M45.54,52.52a8.58,8.58,0,0,1-.15,1.35A2.07,2.07,0,0,1,43,55.34a2.1,2.1,0,0,1-1.81-2c0-.52,0-1.05,0-1.58a2.13,2.13,0,0,1,4.26,0c0,.25,0,.5,0,.75Zm-2.88,0h0v.75a.7.7,0,0,0,.65.69.67.67,0,0,0,.76-.61,12.05,12.05,0,0,0,0-1.59.67.67,0,0,0-.71-.61.71.71,0,0,0-.68.67C42.64,52,42.66,52.25,42.66,52.48Z"/><path class="cls-2" d="M46.88,52.49A9,9,0,0,1,47,51.22a2.12,2.12,0,0,1,2.24-1.55,2.09,2.09,0,0,1,1.92,1.92,13,13,0,0,1,0,1.87A2.1,2.1,0,0,1,49,55.37a2.13,2.13,0,0,1-2.07-2.08c0-.27,0-.53,0-.79Zm2.87,0h0v-.67a.22.22,0,0,0,0-.08.7.7,0,0,0-.64-.65.64.64,0,0,0-.72.55,9.65,9.65,0,0,0,0,1.7.63.63,0,0,0,.74.56.67.67,0,0,0,.62-.66C49.76,53,49.75,52.76,49.75,52.51Z"/><path class="cls-2" d="M37.65,53.89v-2a3,3,0,0,1-.33-.14.71.71,0,0,1-.21-1.07c.19-.22.41-.41.61-.62a.78.78,0,0,1,.92-.31c.41.16.46.51.45.89,0,1,0,1.94,0,2.91,0,.25,0,.4.3.5a.63.63,0,0,1,.41.74.65.65,0,0,1-.61.59c-.48,0-1,0-1.46,0A.69.69,0,0,1,37,54.8c-.08-.39.08-.65.5-.84Z"/></g></g></svg>