<svg width="537" height="539" viewBox="0 0 537 539" fill="none" xmlns="http://www.w3.org/2000/svg">
<g clip-path="url(#clip0_906_88)">
<path d="M46.1313 212.504L322.727 440.866L452.358 315.003L235.302 29.3632" fill="#FBD15A"/>
<path d="M380.759 422.024C380.759 422.024 361.164 484.578 404.877 516.232C404.877 516.232 425.979 464.229 380.759 422.024Z" fill="#FBD15A"/>
<path d="M436.53 367.759C436.53 367.759 499.838 350.425 529.985 394.891C529.985 394.891 477.982 413.733 436.53 367.759Z" fill="#FBD15A"/>
<path d="M407.137 396.399C407.137 396.399 434.269 507.188 527.724 516.232C526.97 515.478 511.897 419.762 407.137 396.399Z" fill="#FBD15A"/>
<path d="M381.513 438.605C381.513 438.605 361.918 501.159 405.631 532.813C405.631 532.813 425.98 480.81 381.513 438.605Z" stroke="black" stroke-width="7.53668" stroke-miterlimit="10"/>
<path d="M437.285 384.34C437.285 384.34 500.593 367.006 530.739 411.473C530.739 411.473 477.983 430.314 437.285 384.34Z" stroke="black" stroke-width="7.53668" stroke-miterlimit="10"/>
<path d="M407.137 412.98C407.137 412.98 434.269 523.769 527.724 532.813C527.724 532.059 512.651 436.344 407.137 412.98Z" stroke="black" stroke-width="7.53668" stroke-miterlimit="10"/>
<path d="M11.4617 9.7676C11.4617 9.7676 -18.685 122.818 39.3474 226.824L227.764 44.4363C227.764 44.4363 165.964 -12.8424 11.4617 9.7676Z" stroke="black" stroke-width="7.53668" stroke-miterlimit="10"/>
<path d="M247.358 402.429L250.373 525.276L318.203 459.707L247.358 402.429Z" stroke="black" stroke-width="7.53668" stroke-miterlimit="10" stroke-linecap="round"/>
<path d="M42.3633 230.592L318.959 458.199L447.836 332.337L231.534 46.697" stroke="black" stroke-width="7.53668" stroke-miterlimit="10" stroke-linecap="round" stroke-linejoin="round"/>
<path d="M392.818 259.985L515.666 266.768L447.836 332.337L392.818 259.985Z" stroke="black" stroke-width="7.53668" stroke-miterlimit="10" stroke-linecap="round"/>
<path d="M258.664 331.583C295.71 331.583 325.741 301.552 325.741 264.507C325.741 227.462 295.71 197.431 258.664 197.431C221.619 197.431 191.588 227.462 191.588 264.507C191.588 301.552 221.619 331.583 258.664 331.583Z" fill="white" stroke="black" stroke-width="7.53668" stroke-miterlimit="10"/>
<path d="M199.126 48.2045C199.126 48.2045 180.284 28.6092 120.744 23.3335" stroke="black" stroke-width="7.53668" stroke-miterlimit="10" stroke-linecap="round" stroke-linejoin="round"/>
<path d="M271.478 217.78C271.478 217.78 300.117 221.548 307.654 253.202" stroke="black" stroke-width="7.53668" stroke-miterlimit="10" stroke-linecap="round" stroke-linejoin="round"/>
</g>
<defs>
<clipPath id="clip0_906_88">
<rect width="535.858" height="538.119" fill="white" transform="translate(0.157227 0.723389)"/>
</clipPath>
</defs>
</svg>
