<svg width="74" height="74" viewBox="0 0 74 74" fill="none" xmlns="http://www.w3.org/2000/svg">
<circle cx="37" cy="37" r="37" fill="#FDE7E8"/>
<path d="M37 34.5C39.7614 34.5 42 32.2614 42 29.5C42 26.7386 39.7614 24.5 37 24.5C34.2386 24.5 32 26.7386 32 29.5C32 32.2614 34.2386 34.5 37 34.5Z" stroke="#405C78" stroke-width="2" stroke-linecap="round" stroke-linejoin="round"/>
<path d="M44.5 47.5C47.2614 47.5 49.5 45.2614 49.5 42.5C49.5 39.7386 47.2614 37.5 44.5 37.5C41.7386 37.5 39.5 39.7386 39.5 42.5C39.5 45.2614 41.7386 47.5 44.5 47.5Z" stroke="#FF4B4B" stroke-width="2" stroke-linecap="round" stroke-linejoin="round"/>
<path d="M29.5 47.5C32.2614 47.5 34.5 45.2614 34.5 42.5C34.5 39.7386 32.2614 37.5 29.5 37.5C26.7386 37.5 24.5 39.7386 24.5 42.5C24.5 45.2614 26.7386 47.5 29.5 47.5Z" stroke="#405C78" stroke-width="2" stroke-linecap="round" stroke-linejoin="round"/>
</svg>
