<svg xmlns="http://www.w3.org/2000/svg" viewBox="0 0 90.15 90.15"><defs><style>.cls-1{fill:#263238;}.cls-2{fill:#fff;}</style></defs><g id="Layer_2" data-name="Layer 2"><g id="Layer_1-2" data-name="Layer 1"><rect class="cls-1" width="90.15" height="90.15" rx="45.07"/><path class="cls-2" d="M22.52,49.1V38.2c.83-1,1.43,0,2.15.25a20.53,20.53,0,0,1,8.46-11.91,20.16,20.16,0,0,1,14.26-3.38A20.62,20.62,0,0,1,64.55,37.94a19.88,19.88,0,0,1-.42,12.68A20.55,20.55,0,0,1,52.51,62.81L54.09,66c.32.65.26.9-.32,1.32H35.59c-.57-.42-.64-.67-.32-1.31.1-.21.21-.41.31-.62l1.28-2.56a20.91,20.91,0,0,1-12.21-14l-.69.43C23.28,49.69,23.06,49.67,22.52,49.1Zm4.77-9A17.74,17.74,0,1,1,49.11,60.81a17,17,0,0,1-11.36-.87A17.67,17.67,0,0,1,27.28,47.15L26,48a.8.8,0,0,0,0,.18A19.21,19.21,0,0,0,48.53,62.43a18.19,18.19,0,0,0,10.36-5.91,18.74,18.74,0,0,0,4.54-16.91A19.15,19.15,0,0,0,41.6,24.72a18.86,18.86,0,0,0-13,8.41A18.4,18.4,0,0,0,26.08,39c0,.13,0,.37.09.43C26.51,39.68,26.88,39.89,27.29,40.15ZM44.68,45.6,39.17,58.9a16.23,16.23,0,0,0,11,0C48.36,54.5,46.55,50.11,44.68,45.6ZM39.17,28.4l5.51,13.3,5.51-13.32A16.29,16.29,0,0,0,39.17,28.4Zm7.46,15.25,13.28,5.5a15.81,15.81,0,0,0,0-11Zm12.71-6.88A15.82,15.82,0,0,0,51.55,29L46.11,42.13l.08.08ZM46.2,45.09l-.08.08,5.45,13.17a16.35,16.35,0,0,0,7.79-7.8ZM30,36.76l13.17,5.46.07-.09L37.79,29A16.41,16.41,0,0,0,30,36.76Zm7.79,21.57,5.46-13.18-.1-.06L30,50.54A16.46,16.46,0,0,0,37.79,58.33Zm4.94-14.68L29.38,38.12,28.64,41l2.92,1.85c.77.5.77,1.06,0,1.56l-2.91,1.86.75,2.88Zm9.6,22.14c-.41-.81-.78-1.57-1.17-2.32,0-.07-.27-.09-.4-.07-1.26.25-2.52.57-3.79.77A17.41,17.41,0,0,1,41.21,64c-1-.18-2-.44-3-.67L37,65.79ZM30,43.65l-6-3.8v7.6Z"/><path class="cls-2" d="M66.28,34.14a2.71,2.71,0,0,1-.55.57.61.61,0,0,1-.81-.17,1.87,1.87,0,0,1-.25-.41,22.17,22.17,0,0,0-6.86-8.3,2.88,2.88,0,0,1-.33-.28.71.71,0,0,1-.1-1,.7.7,0,0,1,1-.18c.45.31.89.64,1.31,1A23.75,23.75,0,0,1,66,33.45C66.09,33.64,66.16,33.85,66.28,34.14Z"/><path class="cls-2" d="M61.05,22.87a3.11,3.11,0,0,1,.63.36c1,.95,2,1.91,3,2.88a.72.72,0,0,1,0,1.11.76.76,0,0,1-1.08-.08c-1-.95-2-1.91-2.94-2.86a.65.65,0,0,1-.2-.85A2.71,2.71,0,0,1,61.05,22.87Z"/><path class="cls-2" d="M65.9,28.16a1.11,1.11,0,0,1,.93,1,.72.72,0,0,1-.77.71,1.08,1.08,0,0,1-.89-1A.7.7,0,0,1,65.9,28.16Z"/></g></g></svg>