<svg xmlns="http://www.w3.org/2000/svg" viewBox="0 0 465.41 363.58"><defs><style>.cls-1{fill:#fafbfb;}.cls-2{fill:#e0e0e0;}.cls-3{fill:#ebebeb;}.cls-4{fill:#ffcf33;}.cls-5{fill:#263238;}.cls-6{fill:#455b64;}.cls-7{fill:#e7515b;}.cls-8{fill:#fbbf9e;}.cls-9{fill:#f7996e;}.cls-10{opacity:0.3;}.cls-11{fill:#fff;}</style></defs><g id="Layer_2" data-name="Layer 2"><g id="Layer_1-2" data-name="Layer 1"><rect class="cls-1" x="24.52" y="9.55" width="173.59" height="155.3"/><path class="cls-2" d="M198.11,164.85s0-1,0-2.88,0-4.69,0-8.32c0-7.3-.06-18-.1-31.53,0-27.13-.12-65.91-.2-112.57l.39.39L24.54,10h0L25,9.55c0,56.5,0,109.67-.05,155.3l-.41-.41,125.55.21,35.42.11,9.37,0,2.42,0c.54,0,.83,0,.83,0s-.26,0-.79,0l-2.37,0-9.29,0-35.32.11-125.82.21h-.41v-.41c0-45.63,0-98.8-.05-155.3V9.08h.48l173.57.07h.39v.4c-.08,46.76-.15,85.62-.2,112.82,0,13.54-.08,24.17-.1,31.44,0,3.59,0,6.35,0,8.24S198.11,164.85,198.11,164.85Z"/><path class="cls-2" d="M91.08,37.14c0,.26-9.14.46-20.4.46s-20.41-.2-20.41-.46,9.13-.46,20.41-.46S91.08,36.88,91.08,37.14Z"/><path class="cls-2" d="M164.63,48.8c0,.26-25.1.46-56.06.46s-56.06-.2-56.06-.46,25.1-.46,56.06-.46S164.63,48.54,164.63,48.8Z"/><rect class="cls-2" x="50.57" y="68.55" width="7.31" height="7.31"/><rect class="cls-2" x="68.57" y="68.55" width="7.31" height="7.31"/><rect class="cls-2" x="86.9" y="68.22" width="7.31" height="7.31"/><rect class="cls-2" x="104.57" y="68.55" width="7.31" height="7.31"/><rect class="cls-2" x="122.58" y="68.55" width="7.31" height="7.31"/><rect class="cls-2" x="140.58" y="68.55" width="7.31" height="7.31"/><rect class="cls-3" x="158.58" y="68.55" width="7.31" height="7.31"/><rect class="cls-3" x="50.57" y="84.1" width="7.31" height="7.31"/><rect class="cls-2" x="68.57" y="84.1" width="7.31" height="7.31"/><rect class="cls-3" x="86.57" y="84.1" width="7.31" height="7.31"/><rect class="cls-2" x="104.57" y="84.1" width="7.31" height="7.31"/><rect class="cls-2" x="122.58" y="84.1" width="7.31" height="7.31"/><rect class="cls-2" x="140.91" y="83.77" width="7.31" height="7.31"/><rect class="cls-2" x="158.58" y="84.1" width="7.31" height="7.31"/><rect class="cls-2" x="50.57" y="99.65" width="7.31" height="7.31"/><rect class="cls-2" x="68.9" y="99.32" width="7.31" height="7.31"/><rect class="cls-2" x="86.57" y="99.65" width="7.31" height="7.31"/><rect class="cls-3" x="104.57" y="99.65" width="7.31" height="7.31"/><rect class="cls-2" x="122.58" y="99.65" width="7.31" height="7.31"/><rect class="cls-2" x="140.58" y="99.65" width="7.31" height="7.31"/><rect class="cls-2" x="158.58" y="99.65" width="7.31" height="7.31"/><rect class="cls-2" x="50.57" y="115.2" width="7.31" height="7.31"/><rect class="cls-2" x="68.57" y="115.2" width="7.31" height="7.31"/><rect class="cls-2" x="86.57" y="115.2" width="7.31" height="7.31"/><rect class="cls-2" x="104.91" y="114.86" width="7.31" height="7.31"/><rect class="cls-2" x="122.58" y="115.2" width="7.31" height="7.31"/><rect class="cls-3" x="140.58" y="115.2" width="7.31" height="7.31"/><rect class="cls-2" x="158.58" y="115.2" width="7.31" height="7.31"/><rect class="cls-2" x="50.57" y="130.74" width="7.31" height="7.31"/><rect class="cls-3" x="68.57" y="130.74" width="7.31" height="7.31"/><rect class="cls-2" x="86.57" y="130.74" width="7.31" height="7.31"/><rect class="cls-2" x="104.57" y="130.74" width="7.31" height="7.31"/><rect class="cls-2" x="122.58" y="130.74" width="7.31" height="7.31"/><rect class="cls-2" x="140.91" y="130.41" width="7.31" height="7.31"/><rect class="cls-2" x="158.58" y="130.74" width="7.31" height="7.31"/><path class="cls-4" d="M57.63,263.54c5.24-2.7,11.4-3.05,17.21-2.09,3.12.51,6.37,1.45,8.5,3.79s2.52,6.47.08,8.49c-1.45,1.2-3.47,1.38-5.35,1.36-4.55-.06-9.6-.86-13.23,1.88-2.08,1.56-3.46,4.16-5.93,4.92s-5.17-.68-6.45-2.86a10,10,0,0,1-.73-7.39A11.28,11.28,0,0,1,57.63,263.54Z"/><path class="cls-4" d="M45.64,240.39c3.2,4.57,9.42,3.06,12.31.27s4.1-6.83,5.21-10.69c2.53-8.81,5.09-18.05,3.2-27a15,15,0,0,0-3.45-7.35,7.83,7.83,0,0,0-7.43-2.47C52.34,194,50.4,197,49,200a64.4,64.4,0,0,0-6.37,27.64c0,4.46.51,9.13,3,12.8"/><path class="cls-4" d="M36.85,247c3.48-4.12,4.14-10.14,2.59-15.3s-5-9.56-9.06-13.15a48.84,48.84,0,0,0-16.23-9.58,17.52,17.52,0,0,0-7.3-1.24,7.67,7.67,0,0,0-6.13,3.71c-1.71,3.26-.07,7.21,1.7,10.43a124.44,124.44,0,0,0,10.66,16.24c3.2,4.12,6.86,8.18,11.73,10s9.93,1.64,12.51-1.73"/><path class="cls-5" d="M45.43,309.34a10.75,10.75,0,0,0,.29-2.08c.14-1.51.33-3.41.55-5.67a81.43,81.43,0,0,1,1.27-8.31,65.1,65.1,0,0,1,3-9.81,36.33,36.33,0,0,1,5-8.88,18.79,18.79,0,0,1,6.34-5.27,18,18,0,0,1,5.33-1.66,9.33,9.33,0,0,0,2.07-.3,9.45,9.45,0,0,0-2.1,0,16.14,16.14,0,0,0-5.57,1.45A18.63,18.63,0,0,0,55,274.09a35.27,35.27,0,0,0-5.19,9.06,59.68,59.68,0,0,0-3,10,70.27,70.27,0,0,0-1.11,8.42c-.18,2.4-.25,4.35-.28,5.7A9.35,9.35,0,0,0,45.43,309.34Z"/><path class="cls-5" d="M45.82,305a4.6,4.6,0,0,0,0-1c0-.72,0-1.63,0-2.75,0-2.39,0-5.86.13-10.13.21-8.55.94-17.74,2.37-30.71,1.34-12.2,3.15-26.39,5.06-35.62.4-2.1.82-4,1.2-5.64s.69-3.08,1-4.24.48-2,.65-2.68a4.62,4.62,0,0,0,.17-1,3.58,3.58,0,0,0-.34.9c-.21.7-.47,1.57-.8,2.64s-.72,2.57-1.13,4.22-.89,3.53-1.34,5.63a315.49,315.49,0,0,0-5.32,33c-1.42,13-2.06,24.83-2.12,33.4-.05,4.28,0,7.75.15,10.15.07,1.11.13,2,.17,2.75A4.1,4.1,0,0,0,45.82,305Z"/><path class="cls-5" d="M45.87,282.15a18,18,0,0,0,0-2.87,78.06,78.06,0,0,0-.88-7.8,102.87,102.87,0,0,0-2.53-11.37,94.71,94.71,0,0,0-4.76-13.44,71.51,71.51,0,0,0-13.95-21.73,35.26,35.26,0,0,0-3.28-3.05c-.51-.43-.95-.85-1.41-1.19l-1.27-.88a18,18,0,0,0-2.42-1.55c-.14.19,3.43,2.29,7.94,7.09A75.57,75.57,0,0,1,36.9,247a106.53,106.53,0,0,1,4.78,13.32c1.24,4.18,2.07,8,2.69,11.25s.94,5.89,1.15,7.72A18.15,18.15,0,0,0,45.87,282.15Z"/><polygon class="cls-5" points="23.81 322.41 26.1 353.74 66.35 353.74 68.64 322.41 23.81 322.41"/><rect class="cls-5" x="19.93" y="310.06" width="53.51" height="12.35"/><polygon class="cls-6" points="19.93 352.55 19.93 355.97 22.44 355.97 72.56 355.97 72.56 352.55 19.93 352.55"/><polygon class="cls-6" points="24.91 361.99 22.44 355.97 70.64 355.97 67.76 361.99 24.91 361.99"/><path class="cls-2" d="M67.89,332.65s0,.11-.19.29l-.6.8c-.57.73-1.36,1.73-2.34,3l-.11.13-.1-.14-5.76-8h.33l-5.67,8-.18.25-.2-.24-6.72-8h.39l-.37.47-6,7.54-.2.25L40,336.8l-5.68-8h.33l-7,8-.12.14-.1-.16-2.18-3.68c-.23-.4-.42-.72-.56-1a1.77,1.77,0,0,1-.18-.34s.09.09.24.31.37.55.62.94l2.3,3.61-.22,0,6.87-8.06.18-.2.15.22,5.73,8H40L46,329c.13-.16.26-.32.37-.47l.19-.24.2.24,6.71,8-.38,0,5.73-8,.17-.23.16.23,5.64,8.05h-.2c1-1.24,1.84-2.21,2.44-2.93l.65-.75A1.86,1.86,0,0,1,67.89,332.65Z"/><path class="cls-6" d="M69.2,322.21c0,.13-10.09.25-22.53.25s-22.52-.12-22.52-.25S34.23,322,46.67,322,69.2,322.07,69.2,322.21Z"/><path class="cls-5" d="M71.23,356.31c0,.13-11,.25-24.48.25s-24.48-.12-24.48-.25,11-.26,24.48-.26S71.23,356.17,71.23,356.31Z"/><path class="cls-6" d="M346.47,229.82H440a15.13,15.13,0,0,1,15.13,15.13V362.56a0,0,0,0,1,0,0H331.34a0,0,0,0,1,0,0V244.94A15.13,15.13,0,0,1,346.47,229.82Z"/><path class="cls-5" d="M444.71,230.49c.15,0,.26,29.56.26,66s-.11,66-.26,66-.26-29.54-.26-66S444.57,230.49,444.71,230.49Z"/><path class="cls-5" d="M383.73,85.71A105,105,0,0,1,402.55,141c.58,13.3-1.21,27.48,5.1,39.2,9.06,16.82,28.65,16.24,34.65,34.38,2.61,7.88-2.2,25.24-3.5,33.44-1.47,9.33,4.23,17.16,2.76,26.49-1.35,8.54-7.75,14.65-15.43,18.63-6.84,3.54-13.16,3.63-20.27.69-13.56-5.61-24.84-11.54-34.49-22.58-13.56-15.5-17.66-37-20-57.42a503.94,503.94,0,0,1,3.07-135.76"/><path class="cls-6" d="M412.72,295.77l.43-.11a12.39,12.39,0,0,0,1.29-.3,21.66,21.66,0,0,0,4.68-1.87,20.79,20.79,0,0,0,6.18-5,12.81,12.81,0,0,0,2.42-4.29,23.63,23.63,0,0,0,.85-5.49,54.22,54.22,0,0,0-1.3-12.75c-.87-4.53-2-9.38-2.34-14.62a30.37,30.37,0,0,1,.57-8,51.63,51.63,0,0,1,2.54-8,85.55,85.55,0,0,0,2.86-8.12,20.77,20.77,0,0,0,.7-8.7,19.61,19.61,0,0,0-3.25-8.08,37.15,37.15,0,0,0-5.67-6.43c-4.13-3.85-8.6-7-12.42-10.62a70.21,70.21,0,0,1-16.18-22.33,67.33,67.33,0,0,1-3.72-10c-.48-1.5-.76-2.94-1.1-4.23s-.49-2.52-.71-3.61c-.31-2.18-.55-3.88-.61-5,0-.56-.08-1-.1-1.31s0-.45,0-.45,0,.15.07.44.09.75.15,1.31c.1,1.16.37,2.85.71,5,.23,1.08.48,2.27.75,3.58s.64,2.72,1.13,4.2a71.77,71.77,0,0,0,19.95,32c3.8,3.54,8.28,6.72,12.45,10.6a37.48,37.48,0,0,1,5.75,6.51,20.12,20.12,0,0,1,3.33,8.29,21.17,21.17,0,0,1-.71,8.91c-.78,2.85-1.87,5.54-2.88,8.18a52.38,52.38,0,0,0-2.54,7.89,29.81,29.81,0,0,0-.57,7.9c.27,5.18,1.43,10,2.29,14.56a54,54,0,0,1,1.23,12.84,23.94,23.94,0,0,1-.89,5.58,13.32,13.32,0,0,1-2.51,4.37,20.73,20.73,0,0,1-6.32,5,20.12,20.12,0,0,1-4.75,1.79A11.69,11.69,0,0,1,412.72,295.77Z"/><path class="cls-7" d="M226.53,331.51l48-22.8s18.69-90.74,22.22-97.56,18.31-12.7,18.31-12.7l-2.47,122.88-4.39,28.35-67.68,6.41Z"/><path class="cls-8" d="M185.57,353c-.26,0-1.6.83-.48,2.94s9.25,9.07,11.64,6.64-1.26-5.38-1.26-5.38Z"/><path class="cls-8" d="M195.81,357.29s9.81,1.24,13.59,2.67c4.11,1.56,9.1.5,12.47-1.78a35.49,35.49,0,0,0,5.32-4.34l12.52-.2a15,15,0,0,0,2.44-15.51,16.5,16.5,0,0,0-2.87-4.88c-1.48-1.61-3.83-2.91-7.89-3.62l-14.87,3.22s-23-1.65-27.14.29c0,0-5.15,3.05-6.74,4.33-.6.48-2.43,6.35,1.32,9.39,0,0-3.26,2.6-1.49,4.93l.84,1s-2.19,2.84-1.07,4.07,11,7,14.52,5.64.61-4.64-.95-5.24"/><path class="cls-9" d="M186.43,341.8a9.35,9.35,0,0,1,1.22.43c.77.3,1.9.72,3.32,1.17.7.22,1.48.45,2.33.68s1.76.41,2.71.72a5.71,5.71,0,0,1,2.7,1.63,3.3,3.3,0,0,1,.72,3.29,2.56,2.56,0,0,1-1.21,1.3,4.55,4.55,0,0,1-1.64.46,13.33,13.33,0,0,1-3.13-.16,27.13,27.13,0,0,1-5.08-1.33c-1.41-.5-2.53-1-3.29-1.3a7.09,7.09,0,0,1-1.17-.55,7.53,7.53,0,0,1,1.23.41c.78.28,1.91.71,3.32,1.17a29.12,29.12,0,0,0,5,1.22,13.23,13.23,0,0,0,3,.14,4,4,0,0,0,1.49-.42,2.13,2.13,0,0,0,1-1.1,3,3,0,0,0-.65-2.88,5.47,5.47,0,0,0-2.51-1.53c-.92-.31-1.84-.5-2.68-.75s-1.63-.48-2.33-.73c-1.42-.48-2.53-.95-3.29-1.29A7.43,7.43,0,0,1,186.43,341.8Z"/><path class="cls-9" d="M187.31,334.7a10.39,10.39,0,0,1,1.21.44c.78.3,1.89.73,3.3,1.2s3.09,1,5,1.43a6.77,6.77,0,0,1,2.91,1.18,2.4,2.4,0,0,1,.85,1.5,3.1,3.1,0,0,1-.25,1.75,4.21,4.21,0,0,1-2.57,2.19,6.88,6.88,0,0,1-3.13.25,30.08,30.08,0,0,1-5-1.46L186.28,342a7,7,0,0,1-1.2-.48,7.21,7.21,0,0,1,1.25.33l3.35,1a32.58,32.58,0,0,0,5,1.35,6.48,6.48,0,0,0,3-.25,3.86,3.86,0,0,0,2.33-2,2.33,2.33,0,0,0-.49-2.79,6.51,6.51,0,0,0-2.74-1.11,51,51,0,0,1-5-1.53c-1.4-.5-2.5-1-3.26-1.32A6.93,6.93,0,0,1,187.31,334.7Z"/><path class="cls-9" d="M192,336.73a12.45,12.45,0,0,1-.45-2,13.21,13.21,0,0,1-.5-2,3.32,3.32,0,0,1,.9,1.86A3.36,3.36,0,0,1,192,336.73Z"/><path class="cls-8" d="M226.67,337l-8.75-3.37s-24.29-11.33-24.7-10.72-1.73.55-1.44,3.51,14.44,8.93,14.89,10-.3,6.21,4.93,9.93,9,3.79,9,3.79"/><path class="cls-9" d="M220.6,350.12s-.07,0-.21,0-.34,0-.6-.06a13.26,13.26,0,0,1-2.27-.54,20.35,20.35,0,0,1-3.39-1.48,19.7,19.7,0,0,1-4-2.79,10.49,10.49,0,0,1-3-5.12,21.72,21.72,0,0,1-.52-3.26,1.93,1.93,0,0,0-.09-.38c0-.08-.12-.14-.23-.23a5.09,5.09,0,0,0-.71-.46c-.49-.3-1-.58-1.54-.86-2.1-1.12-4.35-2.25-6.61-3.55a39.45,39.45,0,0,1-3.37-2.13,12.28,12.28,0,0,1-1.58-1.32,4.33,4.33,0,0,1-.67-.85,1.67,1.67,0,0,1-.2-.54,2.59,2.59,0,0,1,0-.54,3.8,3.8,0,0,1,.37-2.11,2.61,2.61,0,0,1,.77-.78,1.43,1.43,0,0,0,.34-.29l.08-.08c.11-.07.13-.05.17-.05a.44.44,0,0,1,.17,0l.27.06c1.31.41,2.52.94,3.73,1.43,2.4,1,4.69,2,6.87,3,4.36,2,8.27,3.78,11.55,5.31.82.38,1.59.77,2.33,1.08l2.14.84,3.43,1.36,2.16.87.55.24.19.09-.2,0-.57-.2-2.19-.8-3.46-1.29-2.15-.82c-.76-.31-1.53-.69-2.36-1.06l-11.57-5.23c-2.19-1-4.48-2-6.88-3-1.2-.49-2.42-1-3.68-1.41l-.22-.05h-.08s0,0,0,0,0-.06,0-.1l0,0c.28.19.07.06.13.11l0,0a1.57,1.57,0,0,1-.42.37,2.19,2.19,0,0,0-.66.66A3.46,3.46,0,0,0,192,326a1.74,1.74,0,0,0,.21.9,3.58,3.58,0,0,0,.6.76,11.79,11.79,0,0,0,1.53,1.28c1.08.77,2.21,1.46,3.33,2.11,2.25,1.3,4.48,2.44,6.59,3.57.53.29,1,.57,1.55.87a8,8,0,0,1,.75.49,1,1,0,0,1,.34.39,2,2,0,0,1,.1.45,25.93,25.93,0,0,0,.49,3.24,10.32,10.32,0,0,0,2.86,5,19.74,19.74,0,0,0,3.94,2.8,20.55,20.55,0,0,0,3.33,1.52,15,15,0,0,0,2.23.62l.6.1Z"/><path class="cls-9" d="M193.81,351.27a2.68,2.68,0,0,1,.93.27,9.09,9.09,0,0,1,2.29,1.32,8.3,8.3,0,0,1,1.32,1.28,2.75,2.75,0,0,1,.71,2.05,2.29,2.29,0,0,1-1.62,1.75,4.32,4.32,0,0,1-2.54-.08,47.36,47.36,0,0,1-8.06-3.23c-1-.53-1.75-1-2.26-1.34a3.26,3.26,0,0,1-.77-.59,6.81,6.81,0,0,1,.85.45c.54.3,1.32.73,2.31,1.22a55.39,55.39,0,0,0,8,3.09,4.08,4.08,0,0,0,2.31.1,1.89,1.89,0,0,0,1.38-1.42,2.48,2.48,0,0,0-.61-1.79,8.28,8.28,0,0,0-1.23-1.27A13.55,13.55,0,0,0,193.81,351.27Z"/><g class="cls-10"><path d="M307.85,349.71c-7.86-26.51-14.79-60.66-22.65-87.17-2.88,24.48.72,56.79,5.22,81,.53,2.84.77,5.63,3,7.49l14.45-1.33"/></g><path class="cls-5" d="M295,331.51c-.11,0-.44-1.73-1.51-4.38a30.09,30.09,0,0,0-2.25-4.46,33.89,33.89,0,0,0-3.7-4.87,32.84,32.84,0,0,0-4.58-4,29.8,29.8,0,0,0-4.28-2.58c-2.56-1.26-4.28-1.72-4.25-1.83a6.19,6.19,0,0,1,1.22.29,13.93,13.93,0,0,1,1.39.46c.53.21,1.16.42,1.8.74a28.18,28.18,0,0,1,4.4,2.53,29.32,29.32,0,0,1,8.41,9.05,28.26,28.26,0,0,1,2.19,4.58c.27.66.43,1.3.6,1.85a11.37,11.37,0,0,1,.36,1.42A6.42,6.42,0,0,1,295,331.51Z"/><path class="cls-7" d="M310,197.21s-25.13,56.15-25.13,66.46,18.83,81.94,18.83,81.94c-.18,2.84-.91,17.12-.91,17.12l105.59.36h0l1.61-22.7-8.25-21.63,8.24-61.14s5.54-35.5,6-45.43c.62-12.43-41.46-26.83-40.31-28.54l-7.27-9.73-41.64,33.8L318.53,184l-9.86,9.32Z"/><path class="cls-7" d="M379.11,212.15c-11.43,19.34-32.34,54.58-32.34,54.58l-37.48,42.73s-2.46,21.72,2.45,28.37S325.05,349,325.05,349s9.89,0,22.46-10.51,47.24-53.94,47.24-53.94l11.91-14.36s14.2-34.88,11.55-52.64c-1-6.84-3.94-9.69-7.83-12.83C400.61,196.88,385.5,201.34,379.11,212.15Z"/><path class="cls-5" d="M411.07,258.11l-.18.39c-.13.28-.32.66-.55,1.14-.5,1-1.26,2.45-2.3,4.29-2.07,3.69-5.29,8.91-9.49,15.19-2.11,3.14-4.46,6.55-7.05,10.17S386,296.64,383.55,301s-4.62,9.12-7.27,13.89a87.68,87.68,0,0,1-9.53,13.91A56,56,0,0,1,354.13,340a39.74,39.74,0,0,1-14.62,5.66,33,33,0,0,1-14.17-.6,27,27,0,0,1-6-2.43,27.39,27.39,0,0,1-4.94-3.34,22.12,22.12,0,0,1-3.72-3.94,21.79,21.79,0,0,1-2.46-4.16,26.24,26.24,0,0,1-2-7.44,34.38,34.38,0,0,1-.17-4.87c0-.54.06-.95.08-1.26a1.74,1.74,0,0,1,0-.43,2.75,2.75,0,0,1,0,.43c0,.31,0,.73,0,1.26a37.11,37.11,0,0,0,.26,4.85A26.52,26.52,0,0,0,308.5,331a22.86,22.86,0,0,0,6.16,7.94,27.23,27.23,0,0,0,4.89,3.27,26.72,26.72,0,0,0,5.91,2.36,32.55,32.55,0,0,0,14,.54,39.32,39.32,0,0,0,14.42-5.61,55.68,55.68,0,0,0,12.5-11.07,86.64,86.64,0,0,0,9.48-13.82c2.65-4.74,4.79-9.54,7.3-13.88a131.35,131.35,0,0,1,8-11.72c2.6-3.61,5-7,7.09-10.12,4.24-6.25,7.5-11.43,9.62-15.09,1.07-1.82,1.86-3.26,2.38-4.24q.39-.7.6-1.11A1.78,1.78,0,0,1,411.07,258.11Z"/><path class="cls-5" d="M307.41,307.53c0,.08-.53.4-1.22,1.17a6,6,0,0,0-.68,7.37c.53.88,1,1.3,1,1.37s-.63-.29-1.29-1.17a5.9,5.9,0,0,1,.73-7.83A3.06,3.06,0,0,1,307.41,307.53Z"/><path class="cls-5" d="M314.3,318.88a2.5,2.5,0,0,1,.59.13c.19.05.42.13.7.19l1,.18a13.9,13.9,0,0,0,6.18-.57,23,23,0,0,0,8-4.68,60.35,60.35,0,0,0,7.45-8.66,52.2,52.2,0,0,1,7.69-8.58c1.36-1.15,2.69-2.16,3.8-3.25a10.52,10.52,0,0,0,2.5-3.44,6.28,6.28,0,0,0-.57-5.9,4.51,4.51,0,0,0-1.81-1.35,1.87,1.87,0,0,1,.58.17,3.9,3.9,0,0,1,1.39,1.05,6.46,6.46,0,0,1,.76,6.16A11,11,0,0,1,350,294c-1.13,1.13-2.47,2.16-3.8,3.3a53.84,53.84,0,0,0-7.58,8.54,58.54,58.54,0,0,1-7.56,8.7,22.81,22.81,0,0,1-8.16,4.67,13.43,13.43,0,0,1-6.33.42l-1-.23c-.28-.08-.51-.17-.69-.24A4.6,4.6,0,0,1,314.3,318.88Z"/><path class="cls-5" d="M384.2,206.21a6,6,0,0,1-.42.61l-1.28,1.66c-1.14,1.42-2.72,3.55-4.63,6.18a202.68,202.68,0,0,0-13.33,21.67c-4.72,8.77-8.62,16.89-11.61,22.7-1.48,2.9-2.71,5.24-3.59,6.84l-1,1.84a3.57,3.57,0,0,1-.39.63,4.13,4.13,0,0,1,.29-.68c.24-.47.55-1.1.93-1.88l3.44-6.92c2.9-5.84,6.75-14,11.48-22.77a182.53,182.53,0,0,1,13.49-21.64c2-2.62,3.58-4.71,4.77-6.1l1.35-1.6A4,4,0,0,1,384.2,206.21Z"/><g class="cls-10"><path d="M306.17,317.15c4.87,2.64,10.22,2.36,15.67,1.29a24.3,24.3,0,0,0,14-8.37,24.33,24.33,0,0,1-6.45,12.78c-3.46,3.38-8.48,5.35-13.24,4.48s-9.58-5.35-10-10.18"/></g><g class="cls-10"><path d="M352.27,288.29a21.49,21.49,0,0,1,3,16.12c4.13-6.32,5.1-14.33,4-21.8s-4.15-14.51-7.53-21.26c0,0-3.73,6.29-3.76,7-.18,3.63,1.16,10.48,1.86,14.05a7.8,7.8,0,0,1,2.27,7.06"/></g><g class="cls-10"><path d="M322.69,343.31c9.94,7.74,24.69,8.11,35.56,1.74,10.47-6.13,16.92-17.16,22.9-27.72,9.27-16.34,20.57-36.54,27.19-54.12,0,0-18.55,25.31-24.14,36.22a180.86,180.86,0,0,1-12.66,21.31,54.58,54.58,0,0,1-47.88,23.32"/></g><path class="cls-5" d="M302.75,362.73a1.09,1.09,0,0,1,0-.31c0-.25,0-.55,0-.92,0-.85.07-2,.13-3.46.13-3,.33-7.31.57-12.44v.07c-1.79-6-3.89-13.27-6.07-21.13-2.88-10.42-5.31-19.9-6.95-26.79-.81-3.45-1.45-6.24-1.85-8.18-.19-.94-.34-1.68-.45-2.24a6,6,0,0,1-.13-.79,4.07,4.07,0,0,1,.23.77c.14.55.32,1.29.55,2.21.49,2,1.17,4.74,2,8.14,1.73,6.86,4.22,16.32,7.1,26.74,2.17,7.86,4.24,15.14,6,21.15v.07c-.31,5.13-.57,9.39-.76,12.43-.1,1.45-.18,2.61-.24,3.46,0,.37-.06.67-.08.91A1.16,1.16,0,0,1,302.75,362.73Z"/><path class="cls-5" d="M408.38,204.16c0,.08-1.08-.29-2.81-.72a32.48,32.48,0,0,0-13.83-.41c-1.76.32-2.83.63-2.85.55s.24-.15.72-.32a19.42,19.42,0,0,1,2.05-.6,27.72,27.72,0,0,1,7-.69,27.23,27.23,0,0,1,7,1.11c.86.27,1.55.52,2,.72S408.4,204.13,408.38,204.16Z"/><path class="cls-5" d="M374.94,185.72a2.94,2.94,0,0,1-.27.52l-.85,1.44c-.75,1.23-1.86,3-3.27,5.18-2.83,4.34-6.88,10.24-11.67,16.53-3.85,5.07-7.58,9.61-10.64,13.18l-.21.25-.14-.3-3.52-7.73c-.39-.89-.7-1.6-.95-2.15a4,4,0,0,1-.29-.78,4.1,4.1,0,0,1,.41.72l1,2.11c.92,1.89,2.18,4.5,3.69,7.65l-.35,0c3-3.6,6.7-8.17,10.55-13.23,4.78-6.27,8.86-12.13,11.77-16.41l3.41-5.09.93-1.38A2.14,2.14,0,0,1,374.94,185.72Z"/><path class="cls-5" d="M399.24,347c-.14,0,.32-5.21,1-11.59s1.4-11.55,1.54-11.54-.32,5.21-1,11.6S399.39,347,399.24,347Z"/><path class="cls-5" d="M326.87,345.61a77.14,77.14,0,0,1,1.19,8.71,73.52,73.52,0,0,1,.67,8.77,76.27,76.27,0,0,1-1.19-8.71A76,76,0,0,1,326.87,345.61Z"/><path class="cls-11" d="M380.28,231.4a1.28,1.28,0,0,0-1.94-.78l-.07.06a1.21,1.21,0,1,0,2,.72Z"/><path class="cls-11" d="M369.85,206a1.28,1.28,0,0,0-1.94-.77l-.06.06a1.21,1.21,0,1,0,2,.71Z"/><path class="cls-11" d="M345.92,226.44a1.28,1.28,0,0,0-1.94-.77l-.06.06a1.21,1.21,0,1,0,2,.71Z"/><path class="cls-11" d="M320.05,216.17a1.27,1.27,0,0,0-1.93-.77l-.07,0a1.21,1.21,0,1,0,2,.72Z"/><path class="cls-11" d="M315.48,206a1.28,1.28,0,0,0-1.94-.77l-.07,0a1.21,1.21,0,1,0,2,.72Z"/><path class="cls-11" d="M317.46,194.33a1.27,1.27,0,0,0-1.93-.77l-.07.06a1.21,1.21,0,1,0,2,.71Z"/><path class="cls-11" d="M303.14,210.43a1.28,1.28,0,0,0-1.94-.77l-.07.06a1.22,1.22,0,1,0,2,.71Z"/><path class="cls-11" d="M336.32,215.08a1.26,1.26,0,0,0-1.93-.77l-.07.05a1.21,1.21,0,1,0,2,.72Z"/><path class="cls-11" d="M308.23,235.94a1.28,1.28,0,0,0-1.94-.77l-.07.06a1.21,1.21,0,1,0,2,.71Z"/><path class="cls-11" d="M282.51,296a1.28,1.28,0,0,0-1.94-.77l-.07.06a1.21,1.21,0,1,0,2,.71Z"/><path class="cls-11" d="M291.69,261.35a1.28,1.28,0,0,0-1.94-.77l-.07.05a1.21,1.21,0,1,0,2,.72Z"/><path class="cls-11" d="M359.32,200.56a1.27,1.27,0,0,0-1.93-.77l-.07.06a1.21,1.21,0,1,0,2,.71Z"/><path class="cls-11" d="M391.61,269.49a1.28,1.28,0,0,0-1.94-.77l-.07.06a1.21,1.21,0,1,0,2,.71Z"/><path class="cls-11" d="M404.18,210.17a1.28,1.28,0,0,0-1.94-.77l-.06.06a1.21,1.21,0,1,0,2,.71Z"/><path class="cls-11" d="M399.24,249a1.27,1.27,0,0,0-1.93-.77l-.07.05a1.21,1.21,0,1,0,2,.72Z"/><path class="cls-11" d="M371,277.07a1.28,1.28,0,0,0-1.94-.77l-.07.05a1.21,1.21,0,1,0,2,.72Z"/><path class="cls-11" d="M372.23,253.72a1.28,1.28,0,0,0-1.94-.77l-.07.05a1.21,1.21,0,1,0,2,.72Z"/><path class="cls-11" d="M389.24,210.37a1.28,1.28,0,0,0-1.94-.77l-.06.06a1.21,1.21,0,1,0,2,.71Z"/><path class="cls-11" d="M366.33,187.75a1.27,1.27,0,0,0-1.93-.77l-.07.06a1.21,1.21,0,1,0,2,.71Z"/><path class="cls-11" d="M365.5,224.22a1.28,1.28,0,0,0-1.94-.77l-.06.06a1.21,1.21,0,1,0,2,.71Z"/><path class="cls-11" d="M336.26,335.47a1.28,1.28,0,0,0-1.94-.77l-.07.06a1.21,1.21,0,1,0,2,.71Z"/><path class="cls-11" d="M302.71,317.18a1.28,1.28,0,0,0-1.94-.77l-.07,0a1.21,1.21,0,1,0,2,.72Z"/><path class="cls-11" d="M275.58,326.14a1.28,1.28,0,0,0-1.94-.77l-.06.06a1.21,1.21,0,1,0,2,.71Z"/><path class="cls-11" d="M272.68,341.59a1.28,1.28,0,0,0-1.94-.77l-.07.06a1.22,1.22,0,1,0,2,.71Z"/><path class="cls-11" d="M298.11,346.77a1.28,1.28,0,0,0-1.94-.77l-.06.05a1.21,1.21,0,1,0,2,.72Z"/><path class="cls-11" d="M289.61,312.17a1.28,1.28,0,0,0-1.94-.77l-.07.06a1.21,1.21,0,1,0,2,.71Z"/><path class="cls-11" d="M320.81,321a1.28,1.28,0,0,0-1.94-.77l-.06.06a1.21,1.21,0,1,0,2,.71Z"/><path class="cls-11" d="M395,312.11a1.27,1.27,0,0,0-1.93-.77l-.07.06a1.21,1.21,0,1,0,2,.71Z"/><path class="cls-11" d="M349.09,356.09a1.28,1.28,0,0,0-1.94-.77l-.07.05a1.21,1.21,0,1,0,2,.72Z"/><path class="cls-11" d="M368.66,331.61a1.27,1.27,0,0,0-1.93-.77l-.07.05a1.21,1.21,0,1,0,2,.72Z"/><path class="cls-11" d="M380.29,351.52a1.28,1.28,0,0,0-1.94-.77l-.07.05a1.21,1.21,0,1,0,2,.72Z"/><path class="cls-11" d="M347.94,247.26a1.27,1.27,0,0,0-1.94-.77l-.07,0a1.21,1.21,0,1,0,2,.72Z"/><path class="cls-11" d="M374.26,298.08a1.27,1.27,0,0,0-1.93-.77l-.07.06a1.21,1.21,0,1,0,2,.71Z"/><path class="cls-11" d="M365.73,317.33a1.28,1.28,0,0,0-1.94-.77l-.07.06a1.22,1.22,0,1,0,2,.71Z"/><path class="cls-11" d="M393.8,332.8a1.28,1.28,0,0,0-1.94-.77l-.07.05a1.21,1.21,0,1,0,2,.72Z"/><path class="cls-11" d="M317,355.12a1.28,1.28,0,0,0-1.94-.77l-.07.06a1.21,1.21,0,1,0,2,.71Z"/><path class="cls-11" d="M253,349.28a1.28,1.28,0,0,0-1.94-.77l-.07.06a1.21,1.21,0,1,0,2,.71Z"/><path class="cls-11" d="M309.35,338.77a1.28,1.28,0,0,0-1.94-.77l-.07.05a1.21,1.21,0,1,0,2,.72Z"/><path class="cls-11" d="M255.36,327.33a1.28,1.28,0,0,0-1.94-.77l-.07.06a1.21,1.21,0,1,0,2,.71Z"/><path class="cls-11" d="M345.57,291a1.28,1.28,0,0,0-1.94-.77l-.07.06a1.22,1.22,0,1,0,2,.71Z"/><path class="cls-11" d="M326.69,235.94a1.28,1.28,0,0,0-1.94-.77l-.07.06a1.21,1.21,0,1,0,2,.71Z"/><path class="cls-11" d="M322,283.72A1.28,1.28,0,0,0,320,283L320,283a1.21,1.21,0,1,0,2,.72Z"/><path class="cls-11" d="M314.29,268.13a1.28,1.28,0,0,0-1.94-.77l-.07.06a1.21,1.21,0,1,0,2,.71Z"/><path class="cls-11" d="M348.26,317.12a1.28,1.28,0,0,0-1.94-.77l-.07,0a1.21,1.21,0,1,0,2,.72Z"/><path class="cls-11" d="M324.31,307.51a1.27,1.27,0,0,0-1.93-.77l-.07.05a1.21,1.21,0,1,0,2,.72Z"/><path class="cls-11" d="M334.56,254.75a1.28,1.28,0,0,0-1.94-.77l-.06.06a1.21,1.21,0,1,0,2,.71Z"/><path class="cls-11" d="M298.11,292.11a1.28,1.28,0,0,0-1.94-.77l-.06.05a1.21,1.21,0,1,0,2,.72Z"/><path class="cls-11" d="M354.37,275a1.27,1.27,0,0,0-1.93-.77l-.07.06a1.21,1.21,0,1,0,2,.71Z"/><path class="cls-11" d="M406.56,230.21a1.28,1.28,0,0,0-1.94-.77l-.07.05a1.21,1.21,0,1,0,2,.72Z"/><path class="cls-11" d="M385.37,196.32a1.28,1.28,0,0,0-1.94-.77l-.07,0a1.21,1.21,0,1,0,2,.72Z"/><path class="cls-11" d="M344.31,200.56a1.28,1.28,0,0,0-1.94-.77l-.07.06a1.21,1.21,0,1,0,2,.71Z"/><path class="cls-5" d="M302.42,78.91c-7.88,5-11,15.52-9.52,21.73.76,3.12,2.18,6.27,1.56,9.43-.54,2.73-2.5,4.91-4,7.27A21.92,21.92,0,0,0,317.89,149"/><path class="cls-5" d="M297.76,119.9C278.6,77.76,324.17,56.59,349,63.61c23.37,6.61,33.34,18.24,37.19,33.87s3.66,32.57-2.47,47.46c-3,7.35-8.46,14.81-16.35,15.73"/><path class="cls-8" d="M320.21,222.81c-.33-20.13-.57-47.79-.57-47.67s-17.31-2.88-20.9-25.46C297,138.45,297.53,120,298.47,105c.86-13.54,9.83-30.16,23.33-28.74L364,86.91a7.93,7.93,0,0,1,7.1,8h0l-2.74,87.18"/><path class="cls-5" d="M306,118.78a2.88,2.88,0,0,0,2.74,2.94,2.76,2.76,0,0,0,3-2.56,2.88,2.88,0,0,0-2.74-2.94A2.75,2.75,0,0,0,306,118.78Z"/><path class="cls-5" d="M335.93,118.78a2.89,2.89,0,0,0,2.74,2.94,2.76,2.76,0,0,0,3-2.56,2.88,2.88,0,0,0-2.74-2.94A2.75,2.75,0,0,0,335.93,118.78Z"/><path class="cls-5" d="M302.89,113.52c.35.39,2.6-1.16,5.71-1s5.34,1.75,5.7,1.38c.17-.16-.18-.86-1.15-1.62a7.9,7.9,0,0,0-4.54-1.56,7.59,7.59,0,0,0-4.56,1.3C303.07,112.67,302.72,113.35,302.89,113.52Z"/><path class="cls-5" d="M332.47,114.27c.36.37,2.55-1.26,5.66-1.27s5.41,1.55,5.74,1.16c.17-.17-.2-.85-1.2-1.57a7.9,7.9,0,0,0-4.6-1.39,7.64,7.64,0,0,0-4.5,1.47C332.61,113.41,332.29,114.1,332.47,114.27Z"/><path class="cls-5" d="M321.79,138.26c0-.17-1.92-.51-5.06-.91-.8-.08-1.55-.24-1.69-.78a4.08,4.08,0,0,1,.54-2.36c.74-1.93,1.53-4,2.35-6.06,3.27-8.63,5.63-15.72,5.28-15.85s-3.28,6.76-6.54,15.39l-2.26,6.09a4.59,4.59,0,0,0-.41,3.12,2,2,0,0,0,1.31,1.17,6.05,6.05,0,0,0,1.35.19C319.82,138.43,321.78,138.44,321.79,138.26Z"/><path class="cls-9" d="M319.64,175.14a57.42,57.42,0,0,0,30.24-8.07s-7.64,15.71-30.24,13.6Z"/><path class="cls-5" d="M331.7,109.83c.3.85,3.42.45,7.07.89s6.61,1.44,7.1.68c.22-.37-.3-1.16-1.49-2a12.41,12.41,0,0,0-10.8-1.19C332.24,108.77,331.56,109.43,331.7,109.83Z"/><path class="cls-5" d="M303.61,105.69c.55.71,2.7,0,5.28-.06s4.77.47,5.27-.27c.22-.36-.12-1.06-1.08-1.73a7.65,7.65,0,0,0-8.5.26C303.67,104.62,303.37,105.34,303.61,105.69Z"/><path class="cls-8" d="M367.18,124.69c.33-.16,12.09-5.36,12.22,8.16s-13.46,10.87-13.49,10.48S367.18,124.69,367.18,124.69Z"/><path class="cls-9" d="M370,138.17c.06,0,.24.16.64.34a2.33,2.33,0,0,0,1.76,0c1.42-.53,2.6-2.81,2.64-5.25a7.93,7.93,0,0,0-.69-3.37,2.73,2.73,0,0,0-1.79-1.79,1.2,1.2,0,0,0-1.38.66c-.18.38-.09.65-.16.68s-.3-.23-.19-.79a1.44,1.44,0,0,1,.52-.85,1.76,1.76,0,0,1,1.3-.36,3.31,3.31,0,0,1,2.48,2.07,7.92,7.92,0,0,1,.85,3.76c-.05,2.73-1.42,5.29-3.37,5.88a2.53,2.53,0,0,1-2.16-.34C370,138.49,370,138.19,370,138.17Z"/><path class="cls-5" d="M317.3,69.59c-7.52,3.88-10.62,19.27-7.51,27.14s11.5,11.72,19.77,13.53,16.38,2,24.54-.24c.56,5.49,3.85,11.12,9.17,12.56,7.05,1.92,14.15-4.53,15.72-11.66s-.79-14.48-3.11-21.4"/><path class="cls-5" d="M377,118.64a5.19,5.19,0,0,1-1.05,1,37.13,37.13,0,0,1-3.11,2.36,19.24,19.24,0,0,1-5.26,2.54,11.44,11.44,0,0,1-7.17-.1,11.1,11.1,0,0,1-5.43-4.7A14.94,14.94,0,0,1,353,114.2a20,20,0,0,1-.21-3.91,4.48,4.48,0,0,1,.17-1.43c.15,0,0,2.06.58,5.25a15.27,15.27,0,0,0,2,5.23,10.74,10.74,0,0,0,5.09,4.35,10.94,10.94,0,0,0,6.71.14,19.88,19.88,0,0,0,5.15-2.32C375.25,119.78,376.87,118.53,377,118.64Z"/><path class="cls-9" d="M322.71,146.94a13,13,0,0,0,1.68,3.3,4.38,4.38,0,0,0,3.11,1.8,3.93,3.93,0,0,0,3.32-1.81,6.28,6.28,0,0,0,.92-3.77c-.05-1.19-.6-2.61-1.78-2.75a2.88,2.88,0,0,0-1.43.32l-6.22,2.52"/><path class="cls-5" d="M325.19,152.06c0-.2,1.4.36,3.32-.41a4.74,4.74,0,0,0,2.51-2.28,5,5,0,0,0,.08-4.06,4.23,4.23,0,0,0-.55-.93c-.24-.26-.2-.25-.46-.21s-.67.26-1,.39l-1,.42c-1.33.53-2.54,1-3.55,1.38-2,.77-3.33,1.17-3.39,1s1.12-.79,3.08-1.74c1-.47,2.15-1,3.46-1.6l1-.46c.37-.14.64-.31,1.14-.46a1.45,1.45,0,0,1,.92,0,1.8,1.8,0,0,1,.69.55,6,6,0,0,1,.7,1.17,5.86,5.86,0,0,1-.19,5,5.35,5.35,0,0,1-3.16,2.55,5,5,0,0,1-2.69.1C325.46,152.33,325.17,152.12,325.19,152.06Z"/><path class="cls-6" d="M382.34,115.43c-1.39-.09-12.55,1.35-11.67,22.11.82,19.38,14.42,15.11,18.76,7.82C393.54,138.44,395.92,116.39,382.34,115.43Z"/><path class="cls-6" d="M389.24,117.89a3.43,3.43,0,0,1-.05-.55c0-.4,0-.93-.06-1.58,0-1.43-.1-3.43-.17-5.91-.1-5.1-.24-12.18-.41-20.36l.25.25h-5.75l.25-.27c.05,1.55.09,3.18.14,4.83.19,7.79.37,15,.52,21.11v.18l-.17,0a10.51,10.51,0,0,0-5.93,3.82,14.1,14.1,0,0,0-2.37,5,22.16,22.16,0,0,0-.61,3.54c0,.42-.05.73-.06,1a1.23,1.23,0,0,1,0,.33,1.5,1.5,0,0,1,0-.33q0-.33,0-1a18.62,18.62,0,0,1,.5-3.59,14,14,0,0,1,2.33-5.16,10.78,10.78,0,0,1,6.11-4l-.17.22c-.17-6.07-.38-13.33-.6-21.11-.05-1.66-.09-3.29-.13-4.83v-.27h6.27v.24c.09,8.18.17,15.26.23,20.36,0,2.49,0,4.48,0,5.92,0,.65,0,1.17,0,1.58A2.15,2.15,0,0,1,389.24,117.89Z"/><path class="cls-6" d="M382.34,89.49s-5.84-13.67-19.75-20.41a82.56,82.56,0,0,0-16.67-6.18S354,61,367.17,66.82c6,2.65,12,6.11,16,11.29,2.52,3.3,5.68,9.73,5.67,11.38Z"/><path class="cls-11" d="M346.32,255a3.38,3.38,0,0,1,.25-.27c.16-.18.43-.43.75-.78a35.6,35.6,0,0,0,2.7-3.2,51.26,51.26,0,0,0,3.65-5.6c1.3-2.27,2.66-4.94,4.13-7.93,2.95-6,6.36-13.22,9.89-21.53q2.65-6.22,5.37-13.2l1.34-3.53a20.35,20.35,0,0,1,1.61-3.54,7.27,7.27,0,0,1,2.9-2.76,4.13,4.13,0,0,1,2-.52,2.08,2.08,0,0,1,1.06.39,2.27,2.27,0,0,1,.67.9l0,.06,0,.08a3.61,3.61,0,0,1-.54,1.34,2.07,2.07,0,0,1-1.25.81,4.72,4.72,0,0,1-5.26-5.35,3.91,3.91,0,0,1,1.63-2.45,4.61,4.61,0,0,1,2.84-.81,3.15,3.15,0,0,1,2.62,1.45,1.51,1.51,0,0,1-.1,1.63,2.9,2.9,0,0,1-1.27.93,4.17,4.17,0,0,1-4.79-1.36,3.51,3.51,0,0,1-.65-2.52,4.3,4.3,0,0,1,1-2.36,3.58,3.58,0,0,1,2.25-1.24,2.88,2.88,0,0,1,2.43.83,1.82,1.82,0,0,1,.48,1.28,1.68,1.68,0,0,1-.58,1.23,2.8,2.8,0,0,1-2.44.66,3.12,3.12,0,0,1-1.95-1.57,6.44,6.44,0,0,1-.73-2.3,8.21,8.21,0,0,1,.53-4.67,3.51,3.51,0,0,1,1.7-1.68,3.21,3.21,0,0,1,2.38.07,2.27,2.27,0,0,1,1.46,1.86,2,2,0,0,1-1.26,1.95,2.52,2.52,0,0,1-2.3,0,3.13,3.13,0,0,1-1.43-1.75,4.43,4.43,0,0,1-.13-2.19,9.83,9.83,0,0,1,.46-2.07,3.81,3.81,0,0,1,1.21-1.77,5,5,0,0,1,1.89-.94,2,2,0,0,1,1.1,0,2.33,2.33,0,0,1,.91.58,2.66,2.66,0,0,1,.59.89,1.47,1.47,0,0,1,0,1.11,1.83,1.83,0,0,1-1.79,1,3.35,3.35,0,0,1-1.88-.64,5.11,5.11,0,0,1-2-3.14,5.3,5.3,0,0,1,.42-3.56,4.18,4.18,0,0,1,1.12-1.38,3.87,3.87,0,0,1,1.6-.69,2.64,2.64,0,0,1,1.7.24,1.77,1.77,0,0,1,.92,1.42,2.5,2.5,0,0,1-1.88,2.4,2.76,2.76,0,0,1-2.72-1,4.36,4.36,0,0,1-1-2.56,16.08,16.08,0,0,1,1-4.79l1.12-3.94c.67-2.34,1.19-4.17,1.55-5.44l.42-1.41c.1-.32.16-.47.16-.47s0,.16-.11.49-.21.81-.36,1.42c-.35,1.27-.84,3.11-1.47,5.47-.32,1.19-.68,2.5-1.07,4s-1,3-.93,4.7a4.11,4.11,0,0,0,1,2.37,2.44,2.44,0,0,0,2.4.91,2.16,2.16,0,0,0,1.62-2,1.45,1.45,0,0,0-.74-1.14,2.29,2.29,0,0,0-1.47-.18,3.38,3.38,0,0,0-1.43.62,3.87,3.87,0,0,0-1,1.25,5,5,0,0,0-.37,3.3,4.71,4.71,0,0,0,1.86,2.89,2.86,2.86,0,0,0,1.64.55,1.37,1.37,0,0,0,1.38-.72,1.54,1.54,0,0,0-.53-1.53,1.94,1.94,0,0,0-.74-.47,1.59,1.59,0,0,0-.86,0,3.77,3.77,0,0,0-2.77,2.42,9.31,9.31,0,0,0-.43,2,3.84,3.84,0,0,0,.12,2,2.65,2.65,0,0,0,1.2,1.5,2.09,2.09,0,0,0,1.87,0,1.58,1.58,0,0,0,1-1.5,1.79,1.79,0,0,0-1.17-1.43,2.67,2.67,0,0,0-2-.06,3,3,0,0,0-1.45,1.45,7.77,7.77,0,0,0-.47,4.37,6,6,0,0,0,.67,2.12,2.56,2.56,0,0,0,1.61,1.32,2.34,2.34,0,0,0,2-.53,1.25,1.25,0,0,0,.07-1.8,2.41,2.41,0,0,0-2-.66,3.1,3.1,0,0,0-1.92,1.07,3.44,3.44,0,0,0-.36,4.23,3.67,3.67,0,0,0,4.18,1.19,2.49,2.49,0,0,0,1-.75,1,1,0,0,0,.06-1.09,2.65,2.65,0,0,0-2.19-1.17,3.76,3.76,0,0,0-3.93,2.84,3.88,3.88,0,0,0,2.19,4.28,4,4,0,0,0,2.45.48,2,2,0,0,0,1.4-1.75l0,.14a1.5,1.5,0,0,0-1.31-1,3.57,3.57,0,0,0-1.77.46,6.71,6.71,0,0,0-2.71,2.57,19.62,19.62,0,0,0-1.57,3.46c-.46,1.18-.91,2.36-1.36,3.52-1.8,4.65-3.62,9.06-5.4,13.21-3.56,8.3-7,15.53-10,21.49-1.49,3-2.87,5.65-4.2,7.92a51.53,51.53,0,0,1-3.73,5.58A26.43,26.43,0,0,1,346.32,255Z"/><path class="cls-6" d="M394.46,105.7a13.19,13.19,0,0,0-.91-3.7,14.57,14.57,0,0,0-7.18-7.19,19.39,19.39,0,0,0-6.92-1.69,32.55,32.55,0,0,0-8.21.63c-5.73,1-11.75,3.53-18.49,4.54a37.27,37.27,0,0,1-9.9,0,39.84,39.84,0,0,1-8.9-2.41,39.28,39.28,0,0,1-13-8.56,34.73,34.73,0,0,1-6.28-8.4,11.9,11.9,0,0,1-.74-1.47l-.48-1.11-.29-.68a1,1,0,0,1-.08-.24s.05.07.13.22.2.39.33.66.33.66.53,1.08a12.47,12.47,0,0,0,.78,1.44,35.92,35.92,0,0,0,6.36,8.24,39.3,39.3,0,0,0,12.88,8.37,40.07,40.07,0,0,0,8.79,2.36,37.51,37.51,0,0,0,9.76,0c6.65-1,12.68-3.46,18.48-4.5a32.78,32.78,0,0,1,8.32-.59,19.45,19.45,0,0,1,7,1.79,14.6,14.6,0,0,1,7.21,7.45,11,11,0,0,1,.69,2.77l0,.75A.78.78,0,0,1,394.46,105.7Z"/><path class="cls-6" d="M379.37,84.15a4,4,0,0,1-.72.13c-.47.06-1.17.17-2.06.32-1.78.3-4.33.86-7.47,1.65a79.59,79.59,0,0,1-11.19,2.16,55.73,55.73,0,0,1-13.94-.3,59,59,0,0,1-13.47-3.62,58.38,58.38,0,0,1-10.12-5.25c-1.34-.91-2.54-1.76-3.56-2.55S315,75.2,314.3,74.57l-1.52-1.43a3.47,3.47,0,0,1-.5-.52,3.91,3.91,0,0,1,.57.45l1.58,1.35c.68.6,1.59,1.24,2.59,2s2.24,1.59,3.58,2.48a60.34,60.34,0,0,0,23.46,8.66,56.91,56.91,0,0,0,13.83.35,84.88,84.88,0,0,0,11.14-2c3.15-.74,5.73-1.25,7.53-1.49.9-.12,1.6-.2,2.08-.23A3.68,3.68,0,0,1,379.37,84.15Z"/><path class="cls-5" d="M380.85,151.15s-.14,0-.39-.11a5.81,5.81,0,0,1-1-.54,9,9,0,0,1-2.93-3.12,15,15,0,0,1-1.8-6.09,44.48,44.48,0,0,1,0-7.75,48,48,0,0,1,1.29-7.65,22,22,0,0,1,2.23-5.94,9.11,9.11,0,0,1,3-3.1,6.37,6.37,0,0,1,1-.53,1.37,1.37,0,0,1,.39-.11c0,.05-.51.24-1.32.81a9.48,9.48,0,0,0-2.74,3.12,22.86,22.86,0,0,0-2.09,5.87,51.17,51.17,0,0,0-1.23,7.57,46.87,46.87,0,0,0,0,7.67,15.21,15.21,0,0,0,1.64,5.95,9.41,9.41,0,0,0,2.72,3.13C380.34,150.92,380.88,151.1,380.85,151.15Z"/><rect class="cls-6" x="323.26" y="149" width="16.16" height="6.09" rx="2.85" transform="translate(-23.08 66.65) rotate(-11.1)"/><path class="cls-6" d="M337.84,149.59l47.45-14.88a2.24,2.24,0,0,1,2.8,1.45h0a2.24,2.24,0,0,1-1.55,2.84L338,152.11Z"/><path class="cls-5" d="M372.91,143.05a9.8,9.8,0,0,1,1.57-.56l4.34-1.32c1.82-.56,4.05-1.15,6.42-1.93a4.42,4.42,0,0,0,1.55-1,2.42,2.42,0,0,0,.67-1.65,1.44,1.44,0,0,0-1-1.36,3.63,3.63,0,0,0-2,.06l-14.23,4.57-4.33,1.34a10.89,10.89,0,0,1-1.61.43,8.79,8.79,0,0,1,1.55-.62l4.28-1.49c3.63-1.24,8.61-2.94,14.21-4.74a4.2,4.2,0,0,1,2.28,0,2,2,0,0,1,1.32,1.83,2.9,2.9,0,0,1-.82,2,4.92,4.92,0,0,1-1.74,1.05c-2.45.78-4.64,1.31-6.49,1.84l-4.38,1.16A11.73,11.73,0,0,1,372.91,143.05Z"/><path class="cls-5" d="M295.33,106.71c1.62,5.7-4.17,10.59-6.21,16.15-2,5.39-.3,11.42,2.13,16.61s5.63,10.12,6.87,15.72c3.07,13.8-9.41,28.66-7,42.6.86,5.07,2.91,10.37,4.68,15.2a20.13,20.13,0,0,1,0,14.14c-2.7,8-7.28,11.74-10.5,19.53-1.65,4-1.52,8.43-1.44,12.74s.06,8.8-1.86,12.66-6.31,6.84-10.47,5.72a15.35,15.35,0,0,0,18.33,3.49c5.47-2.92,8.53-8.85,11.15-14.47,12.68-27.21,19.39-29.5,19-59.53,0-1.93-.38-32-.38-32a29.78,29.78,0,0,1-7.49-3.16c-14.16-9.78-14.68-27.2-14.57-40.7"/><path class="cls-8" d="M323.67,197.79v11.33s-8.71,44.44-11.33,69.13-3,31.21-3,31.21,6.25,9.75,19.32-6.8,15.4-19.18,20.63-19.47c0,0-6.4-69.42-6.1-72a10.55,10.55,0,0,1,2.32-4.94Z"/><path class="cls-8" d="M340.81,172.22s-14.23,18.89-15.39,21.5-1.75,4.07-1.75,4.07l21.79,8.42L366.67,183l7.84-20.62L372.18,138s-4.64-.29-5.51,3.77a30.66,30.66,0,0,0-.59,7.85l-6.5-5.23-10.49-3.2s-2.47,4.07,1.6,6.1,5.23,2,5.23,2l3.66,6.39-1.6,7.16-7.42-7a4.25,4.25,0,0,0-5.4-.33l-4.8,3.48-4.49-2-8.71,7.66-3.49,3.2s2.33,4.35,7,2.32l4.65-2Z"/><path class="cls-9" d="M323.67,201.61a4.51,4.51,0,0,1,0-.6,17.28,17.28,0,0,1,.14-1.78,22.44,22.44,0,0,1,.54-2.84,12.85,12.85,0,0,1,1.53-3.66c3.26-5,8.39-12,14.79-20.61l0,.25-5.52-4.05.19,0-2.87,1.26a18.89,18.89,0,0,1-3.06,1.19,5,5,0,0,1-3.4-.38,6.32,6.32,0,0,1-2.56-2.44l-.09-.14.13-.12c3.75-3.52,7.92-7.08,12.2-10.87l.12-.12.15.09,3.87,2.28h-.25l4.52-3c.79-.5,1.5-1,2.35-1.52a2.85,2.85,0,0,1,2.92.26l8.81,7.45-.41.14c.48-2.15,1-4.49,1.52-6.84l0,.18-3.66-6.39.23.14a8.28,8.28,0,0,1-1.81-.49c-.57-.21-1.14-.45-1.71-.71s-1.13-.52-1.7-.8c-.28-.14-.56-.32-.84-.49a5.22,5.22,0,0,1-.76-.65,3.75,3.75,0,0,1-1-2.67,6,6,0,0,1,.78-2.72l.09-.18.21.06,10.48,3.2.05,0,0,0,6.5,5.23-.41.22a31.11,31.11,0,0,1,.55-7.74,4.71,4.71,0,0,1,2.12-3.21,6.75,6.75,0,0,1,3.7-.94h.21l0,.21c.82,8.68,1.59,16.85,2.3,24.41v0l0,.05c-2.9,7.6-5.54,14.49-7.88,20.61v0l0,0L350.33,201l-4.46,4.82-1.17,1.24-.41.42s.12-.16.37-.45l1.13-1.28,4.4-4.88,16.34-18,0,.06c2.31-6.12,4.92-13,7.8-20.64v.1c-.73-7.56-1.51-15.73-2.35-24.4l.23.22a6.26,6.26,0,0,0-3.4.87,4.2,4.2,0,0,0-1.9,2.89,30.53,30.53,0,0,0-.53,7.6l0,.57-.45-.36-6.51-5.22.09,0L349,141.39l.3-.11a5.41,5.41,0,0,0-.69,2.45,3.13,3.13,0,0,0,.86,2.31,4.72,4.72,0,0,0,.67.59c.26.14.51.31.79.44.56.28,1.11.55,1.67.8a14.69,14.69,0,0,0,3.31,1.15l.16,0,.06.11,3.66,6.39.05.09,0,.09-1.53,6.84-.09.41-.33-.27-8.78-7.44a2.33,2.33,0,0,0-2.4-.21c-.74.44-1.54,1-2.3,1.48l-4.53,3-.12.09-.13-.08-3.87-2.29.28,0c-4.28,3.79-8.46,7.34-12.21,10.84l0-.27a5.88,5.88,0,0,0,2.37,2.27,4.56,4.56,0,0,0,3.12.36,18.84,18.84,0,0,0,3-1.16l2.87-1.25.11,0,.09.07,5.51,4.08.15.11-.11.14c-6.43,8.62-11.61,15.55-14.91,20.5a13.13,13.13,0,0,0-1.55,3.6,22.8,22.8,0,0,0-.59,2.82c-.11.77-.16,1.36-.19,1.76S323.67,201.61,323.67,201.61Z"/><path class="cls-9" d="M350.63,176.6c-.1,0,.28-1.54.44-4a9.2,9.2,0,0,0-.68-4.2,11.2,11.2,0,0,0-3.47-3.89,86.21,86.21,0,0,0-8.07-5.49l-2.55-1.51a4.34,4.34,0,0,1-.92-.59,4,4,0,0,1,1,.41c.64.3,1.55.76,2.65,1.37a65.71,65.71,0,0,1,8.2,5.4,11.15,11.15,0,0,1,3.58,4.11,9.07,9.07,0,0,1,.62,4.41,20,20,0,0,1-.49,3A4.26,4.26,0,0,1,350.63,176.6Z"/><path class="cls-9" d="M365.88,167.53a19.51,19.51,0,0,1,.37-2.61,41.27,41.27,0,0,0,.45-6.31,41.82,41.82,0,0,0-.56-6.3,20.3,20.3,0,0,1-.41-2.61,10.14,10.14,0,0,1,.77,2.54,30.89,30.89,0,0,1,.72,6.37,30.43,30.43,0,0,1-.61,6.37A9.79,9.79,0,0,1,365.88,167.53Z"/><path class="cls-4" d="M268.77,93.44,258.35,75.07a49.24,49.24,0,1,0-11.79,13.11l0,0Z"/><path class="cls-5" d="M268.77,93.44l-22.26-5.11-.19,0,.12-.16,0,0,.18.19a50.85,50.85,0,0,1-10.11,6.08,49.48,49.48,0,0,1-13.47,3.85,45.13,45.13,0,0,1-7.78.39c-1.34-.08-2.7-.11-4.07-.23l-4.15-.63a49.56,49.56,0,0,1-30.69-19.7,48.93,48.93,0,0,1-8.3-19,50,50,0,0,1,.58-21.85A48.48,48.48,0,0,1,179.18,17l2-2.2c.66-.75,1.45-1.36,2.16-2s1.42-1.37,2.23-1.94l2.36-1.76a19.85,19.85,0,0,1,2.44-1.62L192.86,6l2.61-1.27a22.88,22.88,0,0,1,2.63-1.17,50.07,50.07,0,0,1,22-3.38,48.4,48.4,0,0,1,20.21,6,49.78,49.78,0,0,1,23.32,28.69,52.87,52.87,0,0,1,2.14,16,48.68,48.68,0,0,1-2.4,13.8,49.72,49.72,0,0,1-4.93,10.57V75c6.61,11.82,9.88,17.65,10.31,18.43L258.24,75.13l0-.06,0-.07a49.43,49.43,0,0,0,4.85-10.54,48.85,48.85,0,0,0,2.33-13.71,52.7,52.7,0,0,0-2.17-15.84A49.34,49.34,0,0,0,240.09,6.52a48,48,0,0,0-20-5.89A49.67,49.67,0,0,0,198.29,4a22.38,22.38,0,0,0-2.6,1.16l-2.58,1.26L190.64,7.9a20.55,20.55,0,0,0-2.41,1.6l-2.34,1.75c-.79.56-1.46,1.28-2.2,1.92s-1.48,1.28-2.14,2l-2,2.18a48,48,0,0,0-10.42,20A49.6,49.6,0,0,0,168.56,59a48.41,48.41,0,0,0,8.2,18.8,49.14,49.14,0,0,0,30.38,19.58l4.11.63c1.36.12,2.71.16,4,.24a43.49,43.49,0,0,0,7.72-.37,48.74,48.74,0,0,0,13.39-3.77,50.28,50.28,0,0,0,10.08-6l.78-.6-.6.78,0,0-.07-.2Z"/><path class="cls-5" d="M205.84,49.33a4,4,0,1,1-4-4A4,4,0,0,1,205.84,49.33Z"/><path class="cls-5" d="M221.8,49.33a4,4,0,1,1-4-4A4,4,0,0,1,221.8,49.33Z"/><path class="cls-5" d="M237.73,47.34a4,4,0,1,1-5.45-1.46A4,4,0,0,1,237.73,47.34Z"/><path class="cls-5" d="M465.41,362.85c0,.14-101.66.26-227,.26s-227-.12-227-.26,101.63-.26,227.05-.26S465.41,362.7,465.41,362.85Z"/><path class="cls-6" d="M336.92,363.09A26.87,26.87,0,0,1,358.31,351c14.61-.49,21.91,12.08,21.91,12.08Z"/><path class="cls-5" d="M364.92,362.73a16.69,16.69,0,0,1-.43-2.18,14.25,14.25,0,0,0-2.09-4.81,14.07,14.07,0,0,0-3.7-3.71,18.5,18.5,0,0,1-1.87-1.2,4.87,4.87,0,0,1,2.11.82,12.39,12.39,0,0,1,6,8.82A5.31,5.31,0,0,1,364.92,362.73Z"/><path class="cls-6" d="M327.88,362.56v-.09a5.62,5.62,0,0,0-5.61-5.52H197.93a5.61,5.61,0,0,0-5.61,5.61H327.88Z"/><path class="cls-5" d="M89.84,144.75c0,2.62,2,158.78,2,158.78l116,27.91h9.59l-6.1-218h-8.72Z"/><path class="cls-5" d="M114.37,297,78.42,362.88h32.86c-5.88-.59,52,0,52,0l-52-13.8,16.27-36.95L126.16,297Z"/><polygon class="cls-5" points="115.17 309.15 111.28 186.36 146.6 182.97 150.95 314.09 138.34 314.73 115.17 309.15"/><path class="cls-6" d="M155.89,319s0-.19,0-.57,0-.95,0-1.69c0-1.49,0-3.68,0-6.52,0-5.71-.05-14-.08-24.42,0-20.88,0-50.25-.09-84.31l.25.25H114.22l.26-.26v5.67c0,33.21,0,64.13,0,89.88v.06l0,.05L88.34,344.89,81,358.2l-1.93,3.49c-.44.79-.69,1.19-.69,1.19s.21-.42.63-1.22l1.87-3.52,7.2-13.37L114,296.89l0,.1c0-25.75,0-56.67,0-89.88,0-1.94,0-3.88,0-5.67v-.26h42.18v.25c0,34.06-.07,63.43-.09,84.31,0,10.42-.06,18.71-.08,24.42,0,2.84,0,5,0,6.52,0,.74,0,1.3,0,1.69S155.89,319,155.89,319Z"/><path class="cls-6" d="M127.55,312.13c.13.06-4.87,11.62-11.17,25.83s-11.52,25.67-11.65,25.62S109.6,352,115.9,337.75,127.42,312.07,127.55,312.13Z"/><path class="cls-6" d="M207.79,331.44s0-.19,0-.57,0-.93,0-1.64c0-1.47,0-3.61-.08-6.34,0-5.5-.17-13.47-.36-23.31-.37-19.67-1.26-46.85-2.35-76.86s-1.92-57.2-2.2-76.89c-.15-9.84-.22-17.8-.2-23.3,0-2.74,0-4.87,0-6.34,0-.71,0-1.26,0-1.65s0-.56,0-.56,0,.19,0,.56,0,.94,0,1.65c0,1.47,0,3.6.08,6.33,0,5.51.16,13.47.36,23.31.37,19.68,1.26,46.85,2.35,76.87s1.92,57.19,2.2,76.88c.15,9.84.21,17.8.19,23.31,0,2.73,0,4.87,0,6.34,0,.7,0,1.25,0,1.64S207.79,331.44,207.79,331.44Z"/><path class="cls-6" d="M149.56,200.53c.15,0,.26,26.12.26,58.33s-.11,58.33-.26,58.33-.26-26.11-.26-58.33S149.42,200.53,149.56,200.53Z"/><path class="cls-6" d="M87.07,352.59a3.93,3.93,0,0,1-.5-.69L86,351a9.85,9.85,0,0,1-.72-1.22,30.77,30.77,0,0,1-3.17-8.45A41.86,41.86,0,0,1,81.48,328a53.36,53.36,0,0,1,4.34-15.8A32.36,32.36,0,0,1,90.35,305a18.36,18.36,0,0,1,1.33-1.57c.45-.49.9-1,1.36-1.47,1-.91,1.87-1.84,2.86-2.63a45.12,45.12,0,0,1,5.81-4.21c1-.54,1.91-1.11,2.85-1.57s1.83-.92,2.73-1.25A31.28,31.28,0,0,1,116,290a18,18,0,0,1,2.45-.15,5.16,5.16,0,0,1,.86,0,5.45,5.45,0,0,1-.85.1,23.65,23.65,0,0,0-2.43.24,32.77,32.77,0,0,0-8.61,2.46c-.89.33-1.75.83-2.69,1.27s-1.84,1-2.81,1.58a47.07,47.07,0,0,0-5.72,4.2c-1,.79-1.87,1.72-2.82,2.62-.45.47-.89,1-1.34,1.46a17.76,17.76,0,0,0-1.3,1.55,32.13,32.13,0,0,0-4.46,7.11A53.52,53.52,0,0,0,82,328.05a41.89,41.89,0,0,0,.5,13.23,32.18,32.18,0,0,0,3,8.43,9.21,9.21,0,0,0,.68,1.24c.2.34.37.64.53.89A7.63,7.63,0,0,1,87.07,352.59Z"/></g></g></svg>