<svg width="58" height="77" viewBox="0 0 58 77" fill="none" xmlns="http://www.w3.org/2000/svg">
<g clip-path="url(#clip0_2687_1404)">
<path d="M55.9741 66.4792C56.0801 67.0516 56.0368 67.6417 55.8483 68.1925C55.6598 68.7433 55.3326 69.2362 54.8981 69.6237C49.6632 74.2279 43.7535 76.7461 34.7126 75.5863C29.6683 74.9144 24.808 73.2459 20.4147 70.6777L11.5944 65.5883C13.4907 61.3502 16.5779 58.091 19.1535 52.4592C19.3696 52.7856 19.568 53.0987 19.7444 53.4074C20.8516 55.3744 21.5141 57.5603 21.6849 59.811C28.2517 58.2542 36.6399 55.4758 41.2926 49.8043C46.0071 54.3953 52.4989 55.4758 55.2068 63.4758C55.5336 64.4574 55.7901 65.4611 55.9741 66.4792Z" fill="white"/>
<path d="M55.2112 63.4979C52.5033 55.489 46.0115 54.4085 41.297 49.8263C39.4377 48.0245 38.049 45.7939 37.2529 43.3301C36.5274 41.0889 36.096 38.7629 35.9695 36.4105C37.7336 35.8813 39.4007 34.3686 40.3489 32.4149C40.2695 32.265 40.1857 32.1194 40.0975 31.9739C39.5543 30.9945 38.8954 30.0839 38.135 29.2616C39.3081 23.2946 36.3267 10.9064 28.9132 4.34406C31.8592 4.37493 34.5142 4.86446 36.4767 5.99788C47.5286 12.3794 43.2287 21.5835 44.4151 24.6442C46.3114 29.5395 50.1482 26.3156 48.7723 35.3477C47.6609 42.5407 59.3567 42.942 55.6918 49.253C55.1406 50.2012 54.2982 50.9906 53.7249 51.9873C50.995 56.7018 58.4129 58.0337 55.5904 62.9246L55.5596 62.9775C55.4405 63.1804 55.3214 63.3612 55.2068 63.52L55.2112 63.4979Z" fill="#5F646B"/>
<path d="M40.0975 31.9386C40.1857 32.0929 40.2695 32.2385 40.3489 32.3796C39.4007 34.3333 37.7424 35.846 35.9695 36.3753C35.5011 36.5188 35.0128 36.5872 34.523 36.5781C34.014 36.57 33.5118 36.4605 33.0456 36.2562C31.2022 35.4271 30.2671 33.1117 30.889 30.4127C31.1981 29.1106 31.8134 27.901 32.6839 26.8845C33.5512 26.9566 34.4077 27.1252 35.2375 27.3873C35.2488 28.0495 35.2267 28.7119 35.1712 29.3719C35.1712 29.4204 34.0511 33.7159 36.4282 32.3443C37.2661 31.8636 37.8351 30.7567 38.135 29.2308C38.8951 30.0516 39.554 30.9607 40.0975 31.9386Z" fill="#FFC727"/>
<path d="M28.9132 4.30874C36.3267 10.8711 39.3081 23.2726 38.1349 29.2263C37.8351 30.7522 37.2529 31.8724 36.4282 32.3399C34.0511 33.7114 35.1712 29.4159 35.1712 29.3674C35.2266 28.7074 35.2488 28.045 35.2374 27.3828C35.1316 18.7962 30.0952 8.97914 23.8062 4.64392C23.4623 4.40577 23.1138 4.18526 22.761 3.98239C19.6739 2.21832 16.8469 2.07278 14.6815 3.31645L17.8393 1.49062C20.0047 0.242541 22.8403 0.361612 25.9407 2.14774C27.0008 2.76761 27.9965 3.49152 28.9132 4.30874Z" fill="white"/>
<path d="M37.2529 43.308C38.0432 45.7788 39.429 48.0173 41.2882 49.8263C36.6354 55.4978 28.2473 58.2762 21.6805 59.833C21.5097 57.5823 20.8472 55.3964 19.7399 53.4295C19.5635 53.1207 19.3651 52.8076 19.149 52.4813L19.2416 52.2828C25.0499 51.511 32.093 48.9443 37.2529 43.308Z" fill="white"/>
<path d="M35.2374 27.3829C34.4076 27.1208 33.5511 26.9522 32.6839 26.8801C30.5229 26.6464 27.8328 26.664 24.1414 26.1701C21.7908 25.7996 19.5945 25.2175 18.2229 24.406C14.9593 22.5184 12.7852 18.8403 9.47756 16.9087C9.24823 16.7764 9.01003 16.6529 8.76747 16.5338C6.92401 20.062 6.3419 22.2671 6.26692 27.0786C4.42788 21.8922 3.73546 16.2471 6.35511 11.7179C7.04751 10.5095 9.00122 9.19964 11.6473 8.0133C15.5305 6.32867 19.6257 5.18318 23.8194 4.60864C30.0951 8.97914 35.1139 18.7962 35.2374 27.3829Z" fill="#5F646B"/>
<path d="M22.9022 43.6961C23.3931 43.9796 23.789 44.4023 24.0397 44.9108C24.2904 45.4193 24.3848 45.9907 24.3108 46.5528C24.2368 47.1149 23.9978 47.6424 23.624 48.0686C23.2502 48.4949 22.7584 48.8008 22.2108 48.9475C21.6632 49.0943 21.0844 49.0754 20.5475 48.8932C20.0106 48.711 19.5398 48.3737 19.1946 47.924C18.8494 47.4742 18.6454 46.9322 18.6082 46.3665C18.5711 45.8008 18.7025 45.2368 18.9859 44.7457C19.174 44.4196 19.4246 44.1338 19.7233 43.9046C20.022 43.6753 20.3629 43.5072 20.7266 43.4097C21.0902 43.3122 21.4696 43.2874 21.8429 43.3365C22.2162 43.3857 22.5761 43.5078 22.9022 43.6961Z" fill="#FFC727"/>
<path d="M22.7654 3.98247C23.1182 4.18534 23.4667 4.40585 23.8107 4.644C19.617 5.21853 15.5216 6.36403 11.6385 8.04865C12.2824 5.75976 13.6451 3.9119 14.6859 3.31653C16.8425 2.07285 19.6783 2.19634 22.7654 3.98247Z" fill="#373A3A"/>
<path d="M23.9605 47.6212C24.2443 47.1296 24.3759 46.5648 24.3388 45.9984C24.3016 45.4319 24.0975 44.8892 23.752 44.4388C23.4065 43.9883 22.9352 43.6504 22.3977 43.4678C21.8602 43.2851 21.2806 43.2659 20.7322 43.4126C20.1838 43.5592 19.6912 43.8652 19.3166 44.2917C18.942 44.7183 18.7023 45.2463 18.6277 45.809C18.5531 46.3718 18.6471 46.944 18.8976 47.4534C19.1482 47.9627 19.5442 48.3864 20.0355 48.6709C20.3619 48.8605 20.7226 48.9838 21.0968 49.0336C21.471 49.0835 21.8513 49.059 22.216 48.9615C22.5808 48.864 22.9226 48.6954 23.222 48.4654C23.5214 48.2354 23.7723 47.9485 23.9605 47.6212ZM11.9119 44.9751C8.66155 42.5583 6.28455 37.2441 6.26691 27.1315C6.34188 22.3376 6.92399 20.1237 8.76745 16.5867C9.01001 16.7058 9.24821 16.8293 9.47754 16.9616C12.7852 18.8756 14.9593 22.5537 18.2229 24.4589C19.5944 25.2527 21.7908 25.8349 24.1414 26.223C27.8195 26.7169 30.5229 26.6993 32.6839 26.933C31.8134 27.9495 31.198 29.1591 30.8889 30.4612C30.2671 33.1602 31.2021 35.4756 33.0456 36.3047C33.5118 36.509 34.0139 36.6185 34.5229 36.6266C35.0128 36.6357 35.501 36.5673 35.9695 36.4238C36.096 38.7761 36.5274 41.1021 37.2529 43.3434C32.093 48.9752 25.0499 51.5331 19.2505 52.296L19.0476 52.3269C18.8183 52.2475 15.6914 51.414 17.0894 46.7039C16.4142 46.6929 15.7419 46.6131 15.0829 46.4658C13.9321 46.1994 12.8511 45.6913 11.9119 44.9751Z" fill="#DAE0E5"/>
<path d="M19.0476 52.2916L19.2505 52.2607L19.1579 52.4592C19.127 52.4063 19.0873 52.3489 19.0476 52.2916Z" fill="white"/>
<path d="M19.0476 52.2916C19.0873 52.3489 19.127 52.4063 19.1579 52.4592C16.5823 58.0733 13.4951 61.3501 11.5987 65.5883L2.16098 60.1373C1.63337 59.8314 1.21115 59.3723 0.950444 58.821C0.689735 58.2697 0.602826 57.6521 0.701186 57.0502C1.054 55.0083 1.51713 53.0237 2.52265 51.2861C4.48077 47.8947 8.0971 46.1703 11.8678 45.0324L11.9119 44.9751C12.853 45.6834 13.9339 46.1839 15.0829 46.4437C13.7884 49.5701 12.819 52.8213 12.1897 56.1461L19.0476 52.2916Z" fill="white"/>
<path d="M19.0476 52.2916L12.1898 56.1285C12.819 52.8037 13.7885 49.5525 15.0829 46.4261C15.7419 46.5735 16.4142 46.6532 17.0894 46.6642C15.709 51.3787 18.8183 52.2122 19.0476 52.2916Z" fill="white"/>
<path d="M35.9694 36.3885C36.0981 38.7406 36.5295 41.0663 37.2529 43.308C38.0432 45.7788 39.4289 48.0173 41.2881 49.8263C46.007 54.4129 52.4856 55.5022 55.2023 63.4979C55.5273 64.4767 55.7822 65.4775 55.9653 66.4924C56.0712 67.0649 56.0279 67.6549 55.8394 68.2057C55.6509 68.7565 55.3237 69.2494 54.8892 69.6369C49.6543 74.2411 43.7446 76.7593 34.7038 75.5994C29.6595 74.9276 24.7991 73.2591 20.4059 70.6909L2.15213 60.1506C1.62452 59.8447 1.2023 59.3856 0.941593 58.8343C0.680885 58.2829 0.593976 57.6654 0.692336 57.0635C1.04515 55.0215 1.50828 53.0369 2.5138 51.2993C4.47192 47.9079 8.08825 46.1835 11.859 45.0457" stroke="#373A3A" stroke-width="1.32306" stroke-linecap="round" stroke-linejoin="round"/>
<path d="M24.2429 45.4161C29.4072 43.5109 32.803 38.77 33.0632 36.2606" stroke="#373A3A" stroke-width="1.32306" stroke-linecap="round" stroke-linejoin="round"/>
<path d="M18.9858 44.7457C19.2692 44.2533 19.6924 43.8559 20.2017 43.6041C20.711 43.3522 21.2836 43.2571 21.847 43.3308C22.4104 43.4045 22.9392 43.6438 23.3665 44.0182C23.7939 44.3927 24.1005 44.8855 24.2476 45.4343C24.3947 45.9831 24.3756 46.5632 24.1928 47.1012C24.01 47.6392 23.6717 48.1109 23.2207 48.4564C22.7698 48.802 22.2263 49.0061 21.6593 49.0427C21.0923 49.0793 20.5272 48.9468 20.0355 48.662C19.709 48.4742 19.4227 48.2238 19.1931 47.9252C18.9635 47.6266 18.7952 47.2856 18.6977 46.9218C18.6002 46.5579 18.5755 46.1785 18.6249 45.8051C18.6744 45.4317 18.797 45.0716 18.9858 44.7457Z" stroke="#373A3A" stroke-width="1.32306" stroke-linecap="round" stroke-linejoin="round"/>
<path d="M6.26692 27.1139C4.42788 21.9275 3.73546 16.2825 6.35511 11.7532C7.04751 10.5448 9.00122 9.23498 11.6473 8.04863C15.5305 6.36401 19.6257 5.21852 23.8194 4.64398" stroke="#373A3A" stroke-width="1.32306" stroke-linecap="round" stroke-linejoin="round"/>
<path d="M28.8647 4.30878H28.9132C31.8592 4.30878 34.5142 4.82918 36.4767 5.9626C47.5286 12.3441 43.2287 21.5482 44.415 24.6088C46.3114 29.5041 50.1482 26.2803 48.7723 35.3124C47.6609 42.5054 59.3567 42.9067 55.6918 49.2177C55.1405 50.1659 54.2982 50.9553 53.7249 51.952C50.995 56.6665 58.4129 57.9984 55.5904 62.8893L55.5596 62.9422C55.4405 63.1451 55.3214 63.3259 55.2068 63.4847" stroke="#373A3A" stroke-width="1.32306" stroke-linecap="round" stroke-linejoin="round"/>
<path d="M38.135 29.2264C38.8954 30.0486 39.5543 30.9592 40.0975 31.9386C40.1857 32.0929 40.2695 32.2385 40.3489 32.3796C39.9237 33.3049 39.317 34.1355 38.5647 34.8218C37.8124 35.5082 36.9299 36.0365 35.9695 36.3753C35.5006 36.5166 35.0127 36.5851 34.523 36.5781C34.014 36.57 33.5118 36.4605 33.0456 36.2562C31.2022 35.4226 30.2671 33.1117 30.889 30.4127C31.1981 29.1106 31.8134 27.901 32.6839 26.8845" stroke="#373A3A" stroke-width="1.32306" stroke-linecap="round" stroke-linejoin="round"/>
<path d="M14.6771 3.31645C16.8425 2.07278 19.665 2.20509 22.7566 3.98239C23.1094 4.18526 23.4578 4.40577 23.8018 4.64392C30.0908 8.97913 35.1183 18.7962 35.233 27.3828C35.2444 28.045 35.2223 28.7074 35.1669 29.3674C35.1669 29.4159 34.0466 33.7114 36.4237 32.3399C37.2617 31.8592 37.8306 30.7522 38.1305 29.2263C39.2992 23.2549 36.3311 10.8623 28.9087 4.30874C27.9918 3.48989 26.9945 2.76586 25.9319 2.14774C22.8447 0.361612 19.9958 0.242541 17.8304 1.49062L14.6771 3.31645Z" stroke="#373A3A" stroke-width="1.32306" stroke-linecap="round" stroke-linejoin="round"/>
<path d="M8.42346 25.2307C9.44079 25.9187 10.281 26.8375 10.8756 27.9121C14.5051 34.3819 9.38045 36.2915 10.2713 37.8571C10.6199 38.4791 11.1778 38.9573 11.8458 39.2066" stroke="#373A3A" stroke-width="1.32306" stroke-linecap="round" stroke-linejoin="round"/>
<path d="M16.5558 29.4204C18.3199 29.2043 19.8723 29.1823 21.4688 29.9982" stroke="#373A3A" stroke-width="1.32306" stroke-linecap="round" stroke-linejoin="round"/>
<path d="M16.7146 33.1028C17.7334 33.7335 19.0917 34.3113 20.3001 34.2451" stroke="#373A3A" stroke-width="1.32306" stroke-linecap="round" stroke-linejoin="round"/>
<path d="M7.52817 29.0984C8.22498 29.6806 8.9394 30.3774 9.81703 30.6597" stroke="#373A3A" stroke-width="1.32306" stroke-linecap="round" stroke-linejoin="round"/>
<path d="M41.2882 49.8263C36.6354 55.4978 28.2473 58.2762 21.6805 59.833C21.5097 57.5823 20.8472 55.3965 19.74 53.4295C19.5636 53.1208 19.3652 52.8076 19.1491 52.4813C19.1182 52.4284 19.0785 52.371 19.0388 52.3137L19.2417 52.2828C25.0411 51.5198 32.0842 48.9619 37.2441 43.3301" stroke="#373A3A" stroke-width="1.32306" stroke-linecap="round" stroke-linejoin="round"/>
<path d="M15.0829 46.4305C13.7885 49.5569 12.819 52.8081 12.1898 56.1329L19.0476 52.296C18.8183 52.2166 15.6914 51.3831 17.0894 46.673C16.414 46.6642 15.7415 46.5844 15.0829 46.4349C13.9344 46.1736 12.8539 45.6732 11.9119 44.9663C8.66596 42.5407 6.28455 37.2352 6.26691 27.1227C6.34188 22.3288 6.92399 20.1149 8.76745 16.5779C9.01001 16.697 9.24821 16.8204 9.47754 16.9527C12.7852 18.8668 14.9593 22.5449 18.2229 24.4501C19.5944 25.2439 21.7908 25.826 24.1414 26.2141C27.8195 26.7081 30.5229 26.6948 32.6839 26.9242C33.5511 26.9962 34.4076 27.1649 35.2374 27.4269" stroke="#373A3A" stroke-width="1.32306" stroke-linecap="round" stroke-linejoin="round"/>
<path d="M11.5988 65.5883C13.4951 61.3501 16.4897 58.0292 19.1579 52.4592L19.2505 52.2607" stroke="#373A3A" stroke-width="1.32306" stroke-linecap="round" stroke-linejoin="round"/>
<path d="M14.6771 3.31647C13.6363 3.91184 12.2736 5.7597 11.6297 8.04859" stroke="#373A3A" stroke-width="1.32306" stroke-linecap="round" stroke-linejoin="round"/>
</g>
<defs>
<clipPath id="clip0_2687_1404">
<rect width="57.0723" height="76.53" fill="white"/>
</clipPath>
</defs>
</svg>
