<svg width="64" height="64" viewBox="0 0 64 64" fill="none" xmlns="http://www.w3.org/2000/svg">
<g id="teenyicons:tick-circle-outline">
<path id="Vector" d="M18.7789 31.9998L30.1105 41.4429L45.2194 22.5568M31.9991 58.4404C28.5269 58.4404 25.0887 57.7564 21.8808 56.4277C18.6729 55.0989 15.7581 53.1513 13.3028 50.6961C10.8476 48.2409 8.90002 45.3261 7.57126 42.1182C6.2425 38.9103 5.55859 35.4721 5.55859 31.9998C5.55859 28.5276 6.2425 25.0894 7.57126 21.8815C8.90002 18.6736 10.8476 15.7588 13.3028 13.3036C15.7581 10.8483 18.6729 8.90075 21.8808 7.57199C25.0887 6.24323 28.5269 5.55933 31.9991 5.55933C39.0116 5.55933 45.7368 8.34502 50.6954 13.3036C55.6539 18.2621 58.4396 24.9874 58.4396 31.9998C58.4396 39.0123 55.6539 45.7375 50.6954 50.6961C45.7368 55.6547 39.0116 58.4404 31.9991 58.4404Z" stroke="#EB5757" stroke-width="2.49004"/>
</g>
</svg>
