<svg width="257" height="229" viewBox="0 0 257 229" fill="none" xmlns="http://www.w3.org/2000/svg">
<g clip-path="url(#clip0_1264_4319)">
<path d="M253.052 216.901H0V217.464H253.052V216.901Z" fill="#602320"/>
<path d="M208.136 129.919C208.406 128.698 208.63 127.46 208.844 126.222C208.917 125.8 208.995 125.383 209.063 124.961C209.108 124.652 209.175 124.348 209.22 124.038L230.423 119.998L230.165 101.928L208.872 98.4957C208.821 98.22 208.754 97.933 208.703 97.6797C208.552 96.83 208.372 95.9915 208.192 95.1362C208.013 94.2808 207.816 93.448 207.631 92.5982C207.563 92.3281 207.518 92.0355 207.445 91.7935L225.414 79.841L218.193 63.2797L197.22 68.378C197.052 68.1136 196.866 67.8716 196.698 67.6071C196.462 67.2526 196.221 66.9037 195.979 66.5548C195.277 65.5081 194.558 64.4783 193.812 63.471C193.795 63.4514 193.78 63.4307 193.767 63.4091L205.918 45.5141L193.003 32.92L175.5 45.5985C175.259 45.4296 175 45.2777 174.759 45.1089C174.066 44.6324 173.366 44.1654 172.659 43.7077C171.946 43.2462 171.233 42.8017 170.508 42.3627C170.255 42.2108 170.014 42.042 169.761 41.8957L174.051 20.6805L157.211 14.0796L145.981 32.5655H145.908C144.683 32.2954 143.454 32.0703 142.213 31.8564C141.792 31.7833 141.376 31.7045 140.955 31.637C140.646 31.592 140.348 31.5244 140.04 31.4794L136.008 10.2305L117.972 10.4893L114.535 31.8339C114.266 31.8846 113.974 31.9521 113.726 31.9971C112.879 32.1547 112.042 32.3348 111.177 32.5205C110.312 32.7062 109.493 32.8919 108.656 33.0832C108.386 33.1507 108.094 33.1957 107.847 33.2689L95.926 15.2613L79.3947 22.4981L84.4877 43.5163C84.2238 43.6852 83.9767 43.8709 83.7184 44.0397C83.3591 44.276 83.0165 44.518 82.6628 44.76C81.6183 45.469 80.5907 46.1837 79.5912 46.9321L79.5294 46.9772L61.6729 34.7995L49.1003 47.7425L61.7571 65.283C61.583 65.525 61.4314 65.7782 61.263 66.0258C60.7857 66.718 60.3252 67.4214 59.8704 68.1304C59.4155 68.8395 58.9607 69.5598 58.5227 70.2857C58.3711 70.5389 58.2082 70.7809 58.0566 71.0342L36.9095 66.7236L30.3059 83.5719L48.7521 94.8267V94.9054C48.4882 96.1266 48.258 97.359 48.0502 98.6026C47.9772 99.019 47.893 99.4411 47.8312 99.8632C47.7807 100.173 47.7133 100.471 47.6684 100.78L26.4707 104.821L26.7234 122.896L48.0334 126.329C48.0783 126.604 48.1457 126.891 48.1962 127.139C48.3534 127.989 48.5275 128.827 48.7128 129.688C48.8981 130.549 49.0834 131.376 49.2743 132.221C49.3417 132.491 49.3922 132.783 49.4596 133.031L31.4907 144.978L38.7288 161.55L59.7019 156.446C59.8704 156.711 60.0557 156.958 60.2297 157.217C60.46 157.577 60.707 157.921 60.9485 158.275C61.6504 159.322 62.3692 160.352 63.116 161.353L63.1553 161.415L51.0038 179.31L63.919 191.91L81.4049 179.226C81.6408 179.395 81.8991 179.547 82.1405 179.715C82.8368 180.196 83.5387 180.665 84.2463 181.122C84.9538 181.578 85.6726 182.028 86.3913 182.462C86.644 182.614 86.8911 182.782 87.1438 182.934L82.8537 204.149L99.6434 210.745L110.874 192.259H110.953C112.171 192.523 113.406 192.754 114.642 192.962C115.063 193.035 115.478 193.12 115.9 193.182C116.208 193.232 116.512 193.3 116.821 193.345L120.847 214.588L138.883 214.335L142.308 192.951C142.583 192.906 142.87 192.838 143.117 192.788C143.97 192.63 144.801 192.456 145.666 192.27C146.531 192.084 147.351 191.899 148.193 191.707C148.457 191.64 148.755 191.589 148.996 191.522L160.923 209.529L177.477 202.343L172.372 181.325C172.631 181.156 172.878 180.97 173.142 180.802C173.495 180.565 173.844 180.318 174.197 180.076C175.236 179.372 176.269 178.652 177.269 177.903L177.331 177.864L195.187 190.042L207.754 177.099L195.103 159.553C195.272 159.316 195.423 159.057 195.592 158.815C196.067 158.118 196.533 157.412 196.99 156.7C197.45 155.996 197.894 155.281 198.332 154.556C198.483 154.302 198.652 154.06 198.798 153.801L219.968 158.101L226.554 141.275L208.108 130.02C208.108 130.02 208.131 129.941 208.136 129.919ZM193.789 119.013C193.604 120.853 193.368 122.676 193.037 124.466C192.778 125.839 192.425 127.19 192.082 128.54C191.908 129.232 191.779 129.93 191.582 130.611C191.156 132.085 190.633 133.532 190.111 134.972C189.909 135.535 189.746 136.098 189.55 136.627C189.027 137.955 188.426 139.249 187.798 140.566C187.494 141.207 187.236 141.866 186.905 142.49C186.343 143.565 185.726 144.601 185.119 145.647C184.636 146.463 184.193 147.302 183.682 148.095C183.171 148.889 182.598 149.637 182.059 150.408C181.357 151.399 180.677 152.4 179.925 153.351C179.487 153.914 179.004 154.415 178.549 154.949C177.623 156.075 176.702 157.15 175.702 158.18C175.309 158.59 174.871 158.967 174.467 159.367C173.344 160.453 172.26 161.528 171.098 162.535C170.564 162.991 169.975 163.402 169.413 163.841C168.329 164.713 167.246 165.596 166.106 166.395C164.623 167.431 163.074 168.399 161.49 169.316C161.243 169.462 161.007 169.637 160.754 169.778C158.807 170.876 156.805 171.875 154.757 172.771C152.729 173.662 150.656 174.447 148.547 175.124C148.047 175.287 147.525 175.394 147.019 175.546C145.47 176.001 143.914 176.446 142.353 176.789C140.792 177.133 139.164 177.352 137.546 177.594C137.035 177.667 136.53 177.78 136.025 177.842C133.846 178.089 131.637 178.232 129.399 178.269C127.165 178.302 124.931 178.221 122.705 178.027C122.402 178.027 122.11 177.937 121.812 177.903C119.999 177.723 118.202 177.487 116.433 177.161C115.057 176.902 113.704 176.547 112.345 176.204C111.671 176.03 110.975 175.9 110.307 175.709C108.824 175.281 107.376 174.752 105.927 174.223C105.365 174.026 104.838 173.863 104.31 173.66C102.973 173.131 101.682 172.535 100.379 171.899C99.7444 171.595 99.0931 171.336 98.4698 171.01C97.3916 170.447 96.3584 169.823 95.3084 169.209C94.4998 168.731 93.6687 168.286 92.8826 167.774C92.0964 167.262 91.3327 166.688 90.5578 166.137C89.5752 165.439 88.5757 164.764 87.6379 164.015C87.0764 163.571 86.5598 163.081 86.0151 162.62C84.9313 161.697 83.8364 160.779 82.8144 159.806C82.3989 159.406 82.017 158.962 81.6127 158.545C80.5346 157.42 79.4677 156.351 78.4682 155.169C78.0133 154.606 77.6034 154.043 77.1598 153.481C76.295 152.395 75.4134 151.314 74.6161 150.172C73.5773 148.681 72.617 147.127 71.6961 145.535C71.5501 145.287 71.3817 145.057 71.2413 144.809C70.1387 142.843 69.1379 140.822 68.2427 138.754C67.3443 136.694 66.56 134.62 65.8899 132.53C65.7383 132.04 65.6316 131.534 65.4913 131.039C65.0252 129.469 64.576 127.899 64.2334 126.317C63.8909 124.736 63.6719 123.115 63.4304 121.495C63.3574 120.988 63.2451 120.487 63.1834 119.981C62.9363 117.798 62.7941 115.582 62.7566 113.335C62.7239 111.096 62.8045 108.858 62.9981 106.627C62.9981 106.352 63.0823 106.065 63.1104 105.806C63.2901 103.966 63.5315 102.142 63.8628 100.347C64.1155 98.974 64.4749 97.6235 64.8174 96.2729C64.9859 95.5864 65.1206 94.8829 65.3172 94.202C65.7383 92.7276 66.2605 91.2814 66.7884 89.8408C66.9849 89.2781 67.1478 88.7153 67.3499 88.192C67.8777 86.8639 68.473 85.5753 69.0963 84.281C69.4051 83.6395 69.6578 82.9754 69.9947 82.3452C70.5562 81.2703 71.1795 80.2349 71.786 79.1882C72.2633 78.3722 72.7125 77.5394 73.2179 76.7459C73.7233 75.9525 74.3072 75.1984 74.8519 74.4218C75.5538 73.437 76.2277 72.4297 76.9801 71.4843C77.4125 70.9216 77.8954 70.4264 78.3502 69.8862C79.2768 68.7888 80.2033 67.6915 81.1972 66.6561C81.5959 66.2453 82.0339 65.8682 82.4438 65.4687C83.5388 64.3882 84.6394 63.3078 85.8129 62.3061C86.3745 61.8447 86.936 61.4339 87.4975 60.9893C88.5813 60.1227 89.6594 59.2392 90.8049 58.4401C92.2873 57.4047 93.8428 56.4368 95.4319 55.5139C95.6734 55.3676 95.9036 55.1987 96.1507 55.0581C98.1096 53.968 100.122 52.9782 102.181 52.0924C104.231 51.1977 106.309 50.4042 108.392 49.7402C108.886 49.5826 109.397 49.4814 109.891 49.335C111.452 48.868 113.019 48.4234 114.591 48.0801C116.164 47.7369 117.747 47.5174 119.347 47.2811C119.87 47.2079 120.397 47.0897 120.92 47.0278C123.12 46.7722 125.331 46.6276 127.546 46.5945C129.792 46.5683 132.023 46.6508 134.239 46.8421C134.542 46.8421 134.84 46.9322 135.143 46.9603C136.951 47.146 138.743 47.3767 140.5 47.7031C141.876 47.962 143.229 48.3165 144.582 48.6654C145.262 48.8342 145.964 48.9693 146.638 49.1606C148.114 49.5883 149.563 50.1116 151.006 50.6406C151.568 50.8376 152.129 51.0007 152.635 51.2033C153.966 51.7267 155.257 52.3288 156.565 52.9647C157.2 53.2629 157.857 53.5274 158.48 53.8538C159.553 54.4165 160.586 55.0356 161.63 55.6489C162.445 56.1273 163.276 56.5718 164.067 57.0839C164.859 57.596 165.617 58.1756 166.392 58.7215C167.375 59.4193 168.369 60.1002 169.312 60.8486C169.874 61.2876 170.39 61.7828 170.929 62.2442C172.019 63.1671 173.108 64.0844 174.13 65.0579C174.546 65.4631 174.927 65.9076 175.337 66.3241C176.41 67.4158 177.482 68.5187 178.476 69.7005C178.931 70.2351 179.347 70.826 179.785 71.3887C180.655 72.4804 181.531 73.5608 182.334 74.7032C183.367 76.1888 184.333 77.7476 185.254 79.3345C185.394 79.5821 185.568 79.8128 185.709 80.0661C186.791 82.0148 187.775 84.0169 188.657 86.0648C189.548 88.117 190.33 90.1916 191.004 92.2887C191.161 92.7783 191.262 93.2848 191.408 93.78C191.874 95.35 192.318 96.92 192.66 98.4957C193.003 100.071 193.222 101.686 193.463 103.301C193.536 103.814 193.654 104.326 193.71 104.838C193.966 107.042 194.109 109.259 194.137 111.478C194.17 113.718 194.089 115.959 193.896 118.191C193.873 118.495 193.817 118.737 193.789 119.013ZM174.057 117.021C173.928 118.304 173.759 119.576 173.529 120.831C173.349 121.787 173.102 122.733 172.867 123.673C172.743 124.156 172.653 124.646 172.518 125.119C172.221 126.149 171.856 127.156 171.491 128.163C171.35 128.546 171.233 128.94 171.087 129.317C170.722 130.245 170.289 131.151 169.862 132.052C169.649 132.502 169.464 132.958 169.239 133.397C168.857 134.151 168.414 134.871 167.993 135.603C167.656 136.165 167.347 136.756 166.987 137.291C166.628 137.825 166.229 138.371 165.864 138.906C165.376 139.598 164.898 140.301 164.376 140.965C164.073 141.348 163.736 141.703 163.416 142.091C162.77 142.856 162.125 143.627 161.428 144.342C161.153 144.629 160.867 144.905 160.563 145.169C159.794 145.923 159.025 146.677 158.205 147.381C157.834 147.696 157.425 147.983 157.037 148.292C156.279 148.9 155.527 149.519 154.729 150.076C153.696 150.802 152.612 151.472 151.506 152.113C151.332 152.22 151.169 152.338 150.995 152.44C148.286 153.975 145.431 155.234 142.471 156.199C142.123 156.311 141.752 156.384 141.399 156.491C140.32 156.812 139.237 157.122 138.147 157.358C137.058 157.594 135.901 157.763 134.778 157.921C134.424 157.971 134.071 158.056 133.717 158.095C132.197 158.268 130.655 158.367 129.09 158.393C127.529 158.417 125.968 158.36 124.412 158.225C124.205 158.225 124.002 158.163 123.795 158.14C122.526 158.011 121.273 157.848 120.038 157.622C119.078 157.442 118.129 157.189 117.185 156.953C116.714 156.829 116.225 156.739 115.759 156.604C114.726 156.306 113.71 155.94 112.699 155.568C112.328 155.433 111.941 155.321 111.576 155.175C110.644 154.803 109.74 154.37 108.836 153.942C108.392 153.734 107.937 153.548 107.505 153.323C106.752 152.935 106.028 152.49 105.298 152.063C104.736 151.731 104.175 151.421 103.613 151.067C103.052 150.712 102.53 150.301 101.991 149.941C101.305 149.457 100.609 148.984 99.9522 148.461C99.5648 148.152 99.1998 147.808 98.8291 147.488C98.0711 146.84 97.313 146.199 96.583 145.507C96.291 145.225 96.0215 144.916 95.7407 144.623C94.9883 143.858 94.2415 143.093 93.5452 142.277C93.2251 141.9 92.9387 141.489 92.6299 141.1C92.029 140.341 91.4114 139.587 90.8555 138.793C90.1311 137.752 89.4573 136.666 88.8171 135.558C88.716 135.383 88.5981 135.22 88.497 135.045C87.7312 133.685 87.0358 132.285 86.4138 130.853C85.7926 129.432 85.2453 127.98 84.7741 126.503C84.6618 126.165 84.5944 125.811 84.4934 125.468C84.1677 124.37 83.8532 123.273 83.6174 122.17C83.3815 121.067 83.2075 119.919 83.0558 118.794C83.0053 118.445 82.9211 118.09 82.8818 117.736C82.7058 116.216 82.6066 114.671 82.5842 113.099C82.5611 111.536 82.6173 109.974 82.7526 108.417C82.7526 108.22 82.8088 108.034 82.8312 107.854C82.9604 106.565 83.1232 105.294 83.3535 104.044C83.5331 103.082 83.7802 102.142 84.0217 101.197C84.1396 100.719 84.235 100.229 84.3698 99.7506C84.6674 98.7208 85.0324 97.7135 85.3974 96.7062C85.5378 96.3235 85.6501 95.9296 85.8017 95.5526C86.1667 94.6297 86.5935 93.7293 87.0202 92.8289C87.2336 92.3788 87.4189 91.9117 87.6491 91.4728C88.031 90.7187 88.469 89.9984 88.8957 89.2668C89.227 88.7041 89.5415 88.1413 89.8952 87.5786C90.249 87.0159 90.6533 86.4925 91.0183 85.9523C91.5068 85.2658 91.9785 84.5623 92.5063 83.9039C92.8096 83.5213 93.1465 83.1611 93.4609 82.7785C94.1123 82.0075 94.7525 81.2422 95.4488 80.5275C95.7295 80.2405 96.0103 79.9648 96.3191 79.6947C97.0828 78.9406 97.8521 78.1865 98.6719 77.4887C99.0481 77.168 99.4581 76.881 99.8455 76.5715C100.604 75.9637 101.356 75.3503 102.153 74.7876C103.187 74.0617 104.27 73.392 105.382 72.7449C105.556 72.6436 105.713 72.5254 105.888 72.4298C107.23 71.6701 108.628 70.9723 110.071 70.3364C111.514 69.7005 112.952 69.1659 114.412 68.6932C114.754 68.5863 115.108 68.5131 115.456 68.4118C116.545 68.0854 117.64 67.7759 118.735 67.5339C119.83 67.292 120.942 67.1344 122.06 66.9712C122.425 66.9206 122.79 66.8361 123.155 66.7968C124.676 66.6223 126.215 66.5154 127.782 66.4929C129.341 66.4717 130.9 66.5299 132.453 66.6673C132.667 66.6673 132.875 66.7292 133.088 66.7517C134.346 66.8755 135.598 67.0387 136.828 67.2695C137.788 67.4495 138.731 67.6971 139.675 67.9391C140.152 68.0573 140.641 68.1473 141.112 68.2824C142.14 68.5806 143.151 68.9464 144.161 69.3178C144.538 69.4585 144.925 69.571 145.284 69.7174C146.216 70.0831 147.121 70.5164 148.025 70.9498C148.468 71.158 148.923 71.3437 149.361 71.5687C150.108 71.9514 150.832 72.396 151.562 72.8237C152.124 73.1557 152.685 73.4652 153.247 73.8253C153.808 74.1855 154.331 74.585 154.87 74.9508C155.56 75.4404 156.257 75.9131 156.914 76.4364C157.301 76.7459 157.66 77.0892 158.037 77.41C158.795 78.0515 159.558 78.693 160.283 79.3852C160.575 79.6665 160.844 79.9817 161.125 80.2687C161.872 81.034 162.619 81.8049 163.315 82.6209C163.635 82.9979 163.921 83.4031 164.23 83.7914C164.837 84.5511 165.449 85.3052 166.005 86.1042C166.729 87.1453 167.403 88.2314 168.049 89.34C168.144 89.5144 168.268 89.672 168.363 89.8464C169.112 91.197 169.808 92.5963 170.452 94.0444C171.075 95.4794 171.62 96.9313 172.092 98.3888C172.198 98.732 172.271 99.0866 172.372 99.4298C172.698 100.527 173.007 101.625 173.248 102.727C173.49 103.83 173.653 104.95 173.81 106.104C173.86 106.458 173.945 106.819 173.984 107.173C174.158 108.698 174.265 110.246 174.287 111.81C174.308 113.375 174.25 114.939 174.113 116.498C174.124 116.638 174.085 116.807 174.057 117.021Z" fill="#E8D3C5"/>
<path d="M47.2193 21.0294L45.7537 17.1578L40.8965 18.0807C39.4366 15.5097 37.3866 13.3241 34.9163 11.7049L36.1404 6.89912L32.3725 5.21091L29.5649 9.30763C26.7173 8.52287 23.7243 8.42836 20.8331 9.03189L18.3119 4.77197L14.4486 6.23509L15.3695 11.1028C12.8021 12.5678 10.6194 14.624 9.00175 17.1015L4.2063 15.8691L2.52172 19.6451L6.60964 22.4588C5.82657 25.3125 5.73226 28.3119 6.3345 31.2093L2.07812 33.736L3.5437 37.6133L8.40092 36.6848C9.86278 39.2577 11.9146 41.4451 14.3868 43.0662L13.1571 47.872L16.9249 49.5602L19.7326 45.4578C22.5801 46.2426 25.5731 46.3371 28.4643 45.7336L30.9856 49.9991L34.8545 48.536L33.9167 43.6514C36.4839 42.1885 38.6666 40.1342 40.2845 37.6583L45.0799 38.8851L46.7645 35.1091L42.6766 32.2954C43.4596 29.4417 43.554 26.4423 42.9517 23.5449L47.2193 21.0294ZM28.5261 37.6301C26.5003 38.3969 24.2931 38.5444 22.1836 38.0541C20.0742 37.5638 18.1571 36.4577 16.6749 34.8756C15.1927 33.2936 14.2118 31.3066 13.8563 29.166C13.5008 27.0253 13.7866 24.827 14.6777 22.8491C15.5687 20.8713 17.0249 19.2026 18.8622 18.054C20.6996 16.9054 22.8354 16.3286 24.9998 16.3965C27.1642 16.4643 29.2599 17.1738 31.022 18.4351C32.7841 19.6965 34.1334 21.4531 34.8994 23.483C35.4082 24.8312 35.6469 26.2668 35.602 27.7075C35.557 29.1483 35.2292 30.566 34.6374 31.8798C34.0455 33.1936 33.2012 34.3776 32.1526 35.3643C31.104 36.3509 29.8717 37.1209 28.5261 37.6301ZM26.5832 32.4811C25.574 32.8662 24.4736 32.9426 23.4211 32.7007C22.3686 32.4588 21.4113 31.9095 20.6705 31.1223C19.9296 30.335 19.4383 29.3452 19.2589 28.2781C19.0795 27.211 19.22 26.1146 19.6625 25.1275C20.1051 24.1404 20.8299 23.3071 21.7451 22.7329C22.6604 22.1588 23.7251 21.8696 24.8044 21.9019C25.8838 21.9343 26.9293 22.2868 27.8086 22.9149C28.688 23.5429 29.3617 24.4182 29.7446 25.43C30.2574 26.7853 30.2124 28.289 29.6197 29.6111C29.0269 30.9332 27.9348 31.9654 26.5832 32.4811Z" fill="#E8D3C5"/>
<path d="M254.99 170.83V165.878L253.047 165.405C252.798 164.436 252.42 163.505 251.924 162.637L252.969 160.948L249.487 157.459L247.803 158.506C246.936 158.01 246.007 157.631 245.04 157.381L244.574 155.434H239.649L239.178 157.381C238.211 157.633 237.283 158.011 236.415 158.506L234.73 157.459L231.249 160.948L232.293 162.637C231.79 163.505 231.403 164.436 231.142 165.405L229.199 165.872V170.83L231.142 171.303C231.394 172.271 231.771 173.202 232.265 174.071L231.221 175.76L234.702 179.249L236.387 178.208C237.256 178.7 238.184 179.078 239.149 179.333L239.616 181.28H244.54L245.012 179.333C245.979 179.083 246.908 178.705 247.775 178.208L249.459 179.254L252.941 175.765L251.902 174.077C252.395 173.207 252.773 172.276 253.025 171.308L254.99 170.83ZM242.075 172.659C241.225 172.659 240.394 172.406 239.688 171.933C238.981 171.46 238.431 170.787 238.106 170C237.781 169.213 237.696 168.347 237.862 167.512C238.029 166.677 238.438 165.91 239.04 165.308C239.641 164.706 240.407 164.297 241.24 164.131C242.074 163.966 242.938 164.052 243.723 164.378C244.508 164.705 245.178 165.258 245.65 165.966C246.121 166.675 246.372 167.508 246.371 168.36C246.369 168.925 246.255 169.484 246.037 170.005C245.819 170.526 245.501 170.999 245.1 171.397C244.7 171.795 244.225 172.109 243.703 172.323C243.181 172.537 242.622 172.645 242.058 172.642L242.075 172.659Z" fill="#E8D3C5"/>
<path d="M69.1024 11.6712V7.94022L67.6369 7.58006C67.4416 6.84636 67.1488 6.14228 66.7665 5.48668L67.5582 4.19239L64.9247 1.55316L63.6332 2.34099C62.9789 1.95935 62.2763 1.66786 61.5443 1.47438L61.1905 0H57.462L57.1082 1.47438C56.3762 1.66786 55.6736 1.95935 55.0193 2.34099L53.7278 1.54753L51.083 4.18676L51.8692 5.48107C51.4896 6.13737 51.1988 6.84133 51.0044 7.57445L49.5332 7.92896V11.6655L50.9988 12.0201C51.1941 12.7538 51.4868 13.4578 51.8692 14.1134L51.0774 15.4077L53.711 18.0526L55.0025 17.2591C55.6578 17.64 56.3601 17.9332 57.0914 18.1314L57.4451 19.6001H61.1905L61.5443 18.1258C62.2753 17.9295 62.9776 17.6381 63.6332 17.2591L64.9247 18.047L67.5582 15.4077L66.7721 14.1134C67.1529 13.4578 67.4438 12.7536 67.6369 12.0201L69.1024 11.6712ZM59.3206 13.0555C58.6774 13.0555 58.0485 12.8643 57.5138 12.506C56.979 12.1477 56.5623 11.6385 56.3163 11.0428C56.0704 10.4471 56.0064 9.79172 56.1323 9.15953C56.2582 8.52734 56.5684 7.94678 57.0237 7.49133C57.4789 7.03588 58.0588 6.72601 58.6898 6.60092C59.3208 6.47584 59.9747 6.54117 60.5687 6.78864C61.1627 7.03612 61.6701 7.4546 62.0267 7.99116C62.3833 8.52771 62.573 9.15822 62.5719 9.80288C62.5719 10.2305 62.4877 10.6539 62.3243 11.0489C62.1608 11.4439 61.9213 11.8027 61.6193 12.1048C61.3173 12.4069 60.9588 12.6464 60.5644 12.8095C60.17 12.9726 59.7473 13.0562 59.3206 13.0555Z" fill="#E8D3C5"/>
<path d="M33.8368 123.346C31.3717 128.293 24.7625 126.16 23.9202 126.07C19.5796 125.468 11.0444 119.317 11.0444 119.317C8.74774 117.899 9.82586 115.98 10.5727 116.273C10.9208 116.447 9.30365 115.518 8.97235 115.316C6.16471 113.436 8.09075 111.574 9.37665 112.007C6.96208 110.932 7.9672 108.209 9.57317 108.782C7.93351 107.82 8.95549 105.361 11.5947 106.329C13.1052 106.74 24.8467 112.114 24.8467 112.114C25.2847 111.039 20.6746 109.036 21.4439 106.256C21.5056 106.145 21.6081 106.062 21.7297 106.025C21.8513 105.988 21.9824 106 22.0952 106.059C26.1314 108.291 29.5923 111.435 32.2027 115.243C33.7133 117.257 35.3192 120.369 33.8368 123.346Z" fill="#FCA886"/>
<path d="M10.7257 116.218L10.5488 116.601L17.5357 119.841L17.7125 119.458L10.7257 116.218Z" fill="#602320"/>
<path d="M9.48208 111.887L9.29102 112.263L18.3935 116.907L18.5846 116.531L9.48208 111.887Z" fill="#602320"/>
<path d="M9.71746 108.603L9.53516 108.984L19.7248 113.887L19.9071 113.507L9.71746 108.603Z" fill="#602320"/>
<path d="M17.5874 120.882L17.1719 120.808C17.5874 118.439 18.6094 115.659 20.294 112.317L20.6702 112.508C19.0081 115.811 17.9973 118.552 17.5874 120.882Z" fill="#602320"/>
<path d="M27.0102 120.088C23.2367 116.897 24.6349 112.103 24.6517 112.052L25.0504 112.176C25.0504 112.221 23.7196 116.756 27.2966 119.767L27.0102 120.088Z" fill="#602320"/>
<path d="M55.209 138.866C48.2853 143.048 46.7468 150.498 53.5244 155.912C56.0652 157.849 59.2617 158.714 62.4302 158.32H62.6324C63.175 158.255 63.7132 158.158 64.244 158.028L103.197 147.116C105.588 146.837 107.879 145.996 109.885 144.663C115.551 140.892 118.089 135.27 115.5 129.305C112.794 123.115 107.077 121.455 100.339 122.738H100.227C99.5554 122.872 98.8933 123.049 98.2444 123.267L59.5047 137.206L58.9993 137.33C57.6617 137.635 56.3818 138.154 55.209 138.866Z" fill="white"/>
<path d="M28.4815 130.639L37.9994 119.621L34.1136 116.244C33.3331 119.424 26.4263 126.537 24.5957 127.246L28.4815 130.639Z" fill="white"/>
<path d="M63.5538 135.603C53.8899 128.512 41.6879 116.908 37.3192 119.058L28.2112 130.442C26.6165 134.713 43.4398 146.902 53.143 155.681C64.6431 164.854 79.7707 148.056 63.5538 135.603Z" fill="white"/>
<path d="M28.2556 130.639L28.1602 130.229C30.8836 129.615 36.7796 122.705 37.1109 119.024L37.5264 119.064C37.1783 122.964 31.1475 129.987 28.2556 130.639Z" fill="#602320"/>
<path d="M61.9819 139.317L61.6113 139.114L63.4531 135.783C63.4747 135.744 63.508 135.712 63.5483 135.693C63.5886 135.674 63.6339 135.668 63.6777 135.676C63.7205 135.684 63.7598 135.705 63.79 135.736C63.8202 135.767 63.8399 135.807 63.8462 135.85L64.3684 139.193L63.9529 139.26L63.5261 136.526L61.9819 139.317Z" fill="#602320"/>
<path d="M17.7607 119.958C17.9179 116.582 24.2688 114.939 25.2908 108.704C25.5771 106.453 24.6057 105.265 24.6057 105.265H8.0294C8.0294 105.265 7.06357 106.436 7.34995 108.704C8.37193 114.922 14.7228 116.582 14.88 119.958C15.0373 123.335 5.22176 125.096 7.73741 134.59H24.7236C27.2449 125.096 17.6035 123.312 17.7607 119.958Z" fill="white"/>
<path d="M25.702 103.251H6.94141V105.485H25.702V103.251Z" fill="#E0654A"/>
<path d="M26.5773 101.838H6.07031V103.251H26.5773V101.838Z" fill="#E0654A"/>
<path d="M6.94055 136.61H25.7012V134.376H6.94055V136.61Z" fill="#E0654A"/>
<path d="M6.06917 138.022H26.5762V136.61H6.06917V138.022Z" fill="#E0654A"/>
<path d="M25.706 136.402H6.94531V136.824H25.706V136.402Z" fill="#602320"/>
<path d="M25.706 103.037H6.94531V103.459H25.706V103.037Z" fill="#602320"/>
<path d="M24.1292 130.217L22.2874 129.373C20.8569 128.734 19.6178 127.732 18.6929 126.466C17.768 125.199 17.1895 123.713 17.0147 122.153C16.9249 121.406 16.8799 120.655 16.8799 119.902C16.9641 118.085 18.4185 116.762 19.9571 115.361C20.5186 114.849 21.0801 114.32 21.6417 113.746H10.9726C11.5342 114.309 12.0957 114.871 12.6572 115.361C14.2014 116.762 15.6558 118.085 15.74 119.902C15.7371 120.599 15.6902 121.294 15.5996 121.984C15.4122 123.586 14.8106 125.111 13.8542 126.408C12.8979 127.705 11.62 128.729 10.1472 129.379L8.32784 130.2C8.12478 131.363 8.15533 132.555 8.41769 133.706H23.9945C24.2661 132.563 24.3119 131.378 24.1292 130.217Z" fill="#DCA254"/>
<path d="M19.5239 112.131L25.0999 113.673C25.9983 113.819 28.1096 110.521 28.1096 110.521C27.3712 109.799 26.4036 109.359 25.375 109.278L19.0241 108.541C17.9685 108.445 17.5922 108.619 17.4631 109.013C17.3339 109.407 17.0195 111.411 19.5239 112.131Z" fill="#FCA886"/>
<path d="M19.1035 109.739C18.6771 109.733 18.2537 109.667 17.8457 109.542L17.9636 109.137C19.8447 109.666 20.1648 108.867 20.1704 108.856L20.5691 108.991C20.5579 109.03 20.3052 109.739 19.1035 109.739Z" fill="#602320"/>
<path d="M223.735 123.346C226.195 128.293 232.804 126.16 233.646 126.07C237.987 125.468 246.528 119.317 246.528 119.317C248.824 117.899 247.74 115.98 246.999 116.273C246.651 116.447 248.268 115.518 248.594 115.316C251.402 113.436 249.481 111.574 248.195 112.007C250.604 110.932 249.605 108.209 247.999 108.783C249.638 107.82 248.616 105.361 245.977 106.329C244.467 106.74 232.72 112.114 232.72 112.114C232.282 111.039 230.047 109.812 228.474 111.433C227.346 112.622 226.31 113.896 225.375 115.243C223.859 117.257 222.253 120.369 223.735 123.346Z" fill="#FCA886"/>
<path d="M246.845 116.242L239.855 119.477L240.032 119.86L247.021 116.625L246.845 116.242Z" fill="#602320"/>
<path d="M248.094 111.907L238.99 116.548L239.181 116.924L248.285 112.283L248.094 111.907Z" fill="#602320"/>
<path d="M247.858 108.55L237.668 113.452L237.85 113.832L248.041 108.93L247.858 108.55Z" fill="#602320"/>
<path d="M239.985 120.882C239.575 118.552 238.564 115.817 236.896 112.508L237.273 112.317C238.957 115.693 239.979 118.439 240.4 120.808L239.985 120.882Z" fill="#602320"/>
<path d="M230.564 120.088L230.289 119.767C233.855 116.751 232.535 112.221 232.535 112.176L232.939 112.052C232.939 112.103 234.338 116.897 230.564 120.088Z" fill="#602320"/>
<path d="M202.363 138.866C209.287 143.048 210.82 150.498 204.048 155.912C201.506 157.848 198.31 158.712 195.142 158.32H194.934C194.393 158.256 193.857 158.158 193.328 158.028L154.403 147.099C152.012 146.821 149.72 145.98 147.715 144.646C142.044 140.875 139.511 135.254 142.1 129.289C144.801 123.099 150.523 121.438 157.261 122.722H157.374C158.044 122.857 158.706 123.033 159.356 123.25L198.051 137.184L198.556 137.308C199.9 137.62 201.186 138.146 202.363 138.866Z" fill="white"/>
<path d="M229.087 130.639L219.541 119.644L223.432 116.267C224.213 119.447 231.12 126.56 232.95 127.269L229.087 130.639Z" fill="white"/>
<path d="M194.02 135.603C203.661 128.512 215.885 116.909 220.254 119.047L229.362 130.431C230.951 134.702 214.133 146.891 204.425 155.67C192.93 164.854 177.803 148.056 194.02 135.603Z" fill="white"/>
<path d="M229.317 130.639C226.42 129.987 220.395 122.964 220.041 119.064L220.462 119.024C220.793 122.705 226.689 129.615 229.407 130.229L229.317 130.639Z" fill="#602320"/>
<path d="M195.591 139.317L194.047 136.503L193.615 139.238L193.199 139.17L193.727 135.828C193.734 135.785 193.754 135.745 193.784 135.714C193.815 135.683 193.854 135.663 193.897 135.655C193.939 135.648 193.983 135.654 194.022 135.673C194.061 135.692 194.094 135.722 194.114 135.76L195.956 139.092L195.591 139.317Z" fill="#602320"/>
<path d="M249.976 128.225H235.449L233.107 100.156H252.317L249.976 128.225Z" fill="white"/>
<path d="M250.895 121.056L252.204 107.331H233.213L234.527 121.056H250.895Z" fill="#E0654A"/>
<path d="M253.052 100.887L252.866 99.6269C252.858 99.4803 252.797 99.3419 252.693 99.238C252.589 99.1342 252.451 99.0723 252.305 99.0642H233.016C232.874 99.0639 232.737 99.1177 232.633 99.2149C232.528 99.312 232.465 99.4452 232.455 99.5876L232.27 100.865L253.052 100.887Z" fill="#602320"/>
<path d="M251.307 99.3624L251.15 97.3985C251.147 97.1895 251.066 96.9893 250.922 96.8379C250.778 96.6865 250.583 96.5953 250.375 96.5825H235C234.776 96.5979 234.567 96.6965 234.412 96.8589C234.257 97.0213 234.168 97.2358 234.163 97.4604L234.012 99.3624H251.307Z" fill="#602320"/>
<path d="M245.254 118.923C244.32 118.923 243.407 118.646 242.63 118.126C241.853 117.606 241.248 116.866 240.891 116.002C240.533 115.137 240.44 114.185 240.622 113.267C240.804 112.349 241.254 111.506 241.914 110.844C242.575 110.182 243.416 109.732 244.332 109.549C245.248 109.366 246.198 109.46 247.061 109.818C247.924 110.176 248.661 110.783 249.18 111.561C249.699 112.34 249.976 113.255 249.976 114.191C249.976 114.812 249.854 115.428 249.617 116.002C249.379 116.576 249.031 117.098 248.593 117.537C248.154 117.977 247.634 118.325 247.061 118.563C246.488 118.801 245.874 118.923 245.254 118.923ZM245.254 109.88C244.403 109.88 243.571 110.133 242.864 110.607C242.157 111.08 241.605 111.753 241.28 112.541C240.954 113.329 240.869 114.195 241.035 115.032C241.201 115.868 241.611 116.636 242.212 117.239C242.814 117.842 243.58 118.252 244.415 118.418C245.249 118.585 246.114 118.499 246.9 118.173C247.686 117.847 248.357 117.294 248.83 116.585C249.303 115.877 249.555 115.043 249.555 114.191C249.555 113.625 249.444 113.064 249.228 112.541C249.011 112.018 248.695 111.543 248.295 111.143C247.896 110.742 247.422 110.425 246.9 110.208C246.378 109.992 245.819 109.88 245.254 109.88Z" fill="#602320"/>
<path d="M245.253 117.134C244.474 117.134 243.727 116.823 243.177 116.272C242.626 115.72 242.316 114.971 242.316 114.19C242.316 113.41 242.626 112.661 243.177 112.109C243.727 111.557 244.474 111.247 245.253 111.247V111.669C244.756 111.67 244.27 111.819 243.857 112.097C243.444 112.375 243.123 112.769 242.933 113.23C242.744 113.69 242.694 114.197 242.792 114.686C242.89 115.174 243.13 115.623 243.482 115.975C243.834 116.327 244.282 116.567 244.77 116.663C245.258 116.76 245.763 116.71 246.223 116.519C246.682 116.328 247.075 116.005 247.351 115.59C247.627 115.176 247.774 114.689 247.774 114.19H248.179C248.177 114.969 247.869 115.715 247.321 116.266C246.773 116.817 246.03 117.129 245.253 117.134Z" fill="#602320"/>
<path d="M237.021 113.082L231.445 114.624C230.547 114.77 228.436 111.473 228.436 111.473C229.174 110.75 230.142 110.31 231.17 110.229L237.51 109.492C238.565 109.396 238.942 109.571 239.071 109.964C239.2 110.358 239.526 112.362 237.021 113.082Z" fill="#FCA886"/>
<path d="M237.442 110.696C236.235 110.696 235.988 109.981 235.977 109.942L236.375 109.807C236.375 109.807 236.701 110.617 238.582 110.088L238.7 110.493C238.292 110.619 237.869 110.688 237.442 110.696Z" fill="#602320"/>
<path d="M206.687 188.275C203.542 192.816 208.562 197.611 209.068 198.291C211.673 201.82 221.163 206.372 221.163 206.372C223.51 207.706 224.667 205.81 224.055 205.32C223.735 205.101 225.324 206.074 225.655 206.265C228.654 207.835 229.356 205.247 228.356 204.324C230.456 205.928 232.36 203.761 231.091 202.596C232.719 203.581 234.376 201.499 232.265 199.642C231.181 198.517 220.832 190.773 220.832 190.773C221.567 189.873 225.532 192.962 227.598 190.953C227.665 190.844 227.687 190.714 227.66 190.589C227.632 190.464 227.558 190.355 227.452 190.284C223.553 187.808 219.13 186.28 214.537 185.821C212.078 185.427 208.579 185.512 206.687 188.275Z" fill="#FCA886"/>
<path d="M217.821 200.557L217.57 200.896L223.763 205.48L224.013 205.14L217.821 200.557Z" fill="#602320"/>
<path d="M219.97 198.357L219.732 198.705L228.17 204.474L228.408 204.125L219.97 198.357Z" fill="#602320"/>
<path d="M222.015 195.769L221.77 196.112L230.956 202.713L231.201 202.37L222.015 195.769Z" fill="#602320"/>
<path d="M216.912 201.673L216.648 201.341C218.49 199.861 220.405 197.661 222.494 194.589L222.842 194.825C220.725 197.937 218.788 200.165 216.912 201.673Z" fill="#602320"/>
<path d="M215.446 193.182C214.545 193.181 213.652 193.011 212.812 192.681L212.964 192.287C217.31 193.975 220.646 190.633 220.68 190.599L220.983 190.897C219.474 192.305 217.507 193.116 215.446 193.182Z" fill="#602320"/>
<path d="M182.621 174.662C184.171 182.614 179.678 188.731 171.143 187.358C168.006 186.766 165.223 184.968 163.389 182.349L163.271 182.186C162.952 181.742 162.663 181.278 162.406 180.796L144.37 144.511C142.974 142.545 142.061 140.278 141.702 137.893C140.697 131.14 143.157 125.513 149.317 123.442C155.712 121.304 160.777 124.438 164.354 130.319L164.416 130.42C164.768 131.006 165.079 131.615 165.348 132.243L180.976 170.357L181.217 170.819C181.885 172.017 182.359 173.315 182.621 174.662Z" fill="white"/>
<path d="M202.875 196.457L207.929 182.805L212.752 184.6C210.343 186.812 207.44 196.299 207.699 198.252L202.875 196.457Z" fill="white"/>
<path d="M181.683 168.016C192.521 173.081 208.547 178.252 208.777 183.12L203.162 196.598C200.186 200.047 181.442 191.117 169.094 186.806C155.561 181.117 162.99 159.75 181.683 168.016Z" fill="white"/>
<path d="M202.987 196.654C202.162 193.795 205.419 185.123 208.659 182.946L208.894 183.294C205.829 185.354 202.617 193.851 203.391 196.536L202.987 196.654Z" fill="#602320"/>
<path d="M177.392 170.785L177.039 170.548L179.004 167.605L176.303 168.511L176.174 168.112L179.453 166.986C179.495 166.971 179.54 166.97 179.582 166.982C179.625 166.994 179.662 167.02 179.689 167.055C179.716 167.09 179.731 167.133 179.732 167.177C179.733 167.222 179.72 167.265 179.695 167.301L177.392 170.785Z" fill="#602320"/>
<path d="M169.763 143.737L169.383 143.917L173.467 152.564L173.848 152.383L169.763 143.737Z" fill="#602320"/>
<path d="M252.865 201.751L222.437 191.479C221.096 191.027 219.644 191.749 219.192 193.092L211.5 215.979C211.048 217.322 211.769 218.778 213.109 219.23L243.537 229.502C244.878 229.954 246.331 229.232 246.782 227.889L254.475 205.003C254.926 203.659 254.206 202.203 252.865 201.751Z" fill="white"/>
<path d="M256.97 195.584L221.76 183.743L219.073 191.767L254.283 203.608L256.97 195.584Z" fill="#5B78C8"/>
<path d="M225.301 187.656C225.065 187.576 224.869 187.406 224.758 187.182C224.646 186.959 224.628 186.7 224.706 186.463L225.762 183.306C225.848 183.075 226.02 182.887 226.243 182.782C226.465 182.677 226.72 182.663 226.952 182.743C227.188 182.823 227.384 182.993 227.495 183.216C227.607 183.44 227.626 183.699 227.547 183.936L226.492 187.093C226.405 187.324 226.233 187.512 226.01 187.617C225.788 187.722 225.534 187.736 225.301 187.656Z" fill="white"/>
<path d="M231.933 189.884C231.816 189.845 231.707 189.784 231.614 189.703C231.52 189.622 231.443 189.523 231.388 189.412C231.333 189.301 231.3 189.18 231.291 189.056C231.283 188.933 231.299 188.809 231.338 188.691L232.394 185.54C232.473 185.303 232.643 185.107 232.866 184.995C233.089 184.884 233.348 184.865 233.584 184.943C233.821 185.023 234.016 185.193 234.128 185.417C234.239 185.64 234.258 185.899 234.18 186.136L233.124 189.293C233.085 189.411 233.023 189.519 232.942 189.612C232.86 189.705 232.762 189.781 232.651 189.836C232.54 189.891 232.42 189.924 232.297 189.932C232.174 189.94 232.05 189.924 231.933 189.884Z" fill="white"/>
<path d="M238.565 192.118C238.328 192.037 238.133 191.866 238.021 191.642C237.91 191.417 237.891 191.158 237.97 190.92L239.025 187.768C239.105 187.531 239.275 187.336 239.498 187.224C239.721 187.112 239.979 187.093 240.216 187.172C240.453 187.253 240.648 187.424 240.76 187.648C240.871 187.873 240.89 188.132 240.811 188.37L239.755 191.522C239.675 191.758 239.505 191.953 239.282 192.064C239.059 192.176 238.802 192.195 238.565 192.118Z" fill="white"/>
<path d="M245.198 194.347C244.961 194.267 244.766 194.097 244.654 193.873C244.543 193.65 244.524 193.391 244.602 193.154L245.658 189.997C245.739 189.761 245.909 189.566 246.131 189.454C246.354 189.343 246.612 189.323 246.849 189.4C247.085 189.481 247.281 189.652 247.392 189.877C247.504 190.101 247.522 190.361 247.444 190.599L246.388 193.75C246.309 193.987 246.139 194.183 245.916 194.295C245.693 194.407 245.434 194.425 245.198 194.347Z" fill="white"/>
<path d="M251.828 196.575C251.592 196.496 251.397 196.325 251.285 196.102C251.174 195.878 251.155 195.62 251.233 195.382L252.289 192.225C252.374 191.994 252.546 191.805 252.769 191.699C252.992 191.594 253.247 191.581 253.479 191.663C253.597 191.701 253.706 191.763 253.799 191.844C253.893 191.925 253.969 192.024 254.025 192.135C254.08 192.246 254.113 192.367 254.122 192.49C254.13 192.614 254.114 192.738 254.075 192.856L253.019 196.007C252.934 196.239 252.762 196.428 252.539 196.534C252.317 196.64 252.062 196.655 251.828 196.575Z" fill="white"/>
<path d="M229.948 198.592L229.143 200.998L231.544 201.805L232.349 199.399L229.948 198.592Z" fill="#F2E5DC"/>
<path d="M234.563 200.148L233.758 202.554L236.159 203.362L236.964 200.956L234.563 200.148Z" fill="#F2E5DC"/>
<path d="M239.188 201.701L238.383 204.107L240.784 204.914L241.589 202.508L239.188 201.701Z" fill="#F2E5DC"/>
<path d="M243.812 203.257L243.006 205.663L245.407 206.47L246.212 204.064L243.812 203.257Z" fill="#E0654A"/>
<path d="M248.429 204.807L247.623 207.213L250.024 208.021L250.83 205.615L248.429 204.807Z" fill="#E0654A"/>
<path d="M214.897 212.835L214.092 215.241L216.493 216.048L217.298 213.642L214.897 212.835Z" fill="#F2E5DC"/>
<path d="M219.522 214.391L218.717 216.797L221.118 217.604L221.923 215.198L219.522 214.391Z" fill="#F2E5DC"/>
<path d="M224.146 215.942L223.34 218.348L225.741 219.155L226.546 216.749L224.146 215.942Z" fill="#F2E5DC"/>
<path d="M228.763 217.503L227.957 219.909L230.358 220.717L231.164 218.31L228.763 217.503Z" fill="#F2E5DC"/>
<path d="M219.261 199.829L218.455 202.235L220.856 203.042L221.662 200.636L219.261 199.829Z" fill="#F2E5DC"/>
<path d="M223.872 201.373L223.066 203.78L225.467 204.587L226.273 202.181L223.872 201.373Z" fill="#F2E5DC"/>
<path d="M228.497 202.935L227.691 205.342L230.092 206.149L230.898 203.743L228.497 202.935Z" fill="#F2E5DC"/>
<path d="M233.114 204.48L232.309 206.886L234.71 207.694L235.515 205.288L233.114 204.48Z" fill="#F2E5DC"/>
<path d="M237.733 206.031L236.928 208.437L239.329 209.244L240.134 206.838L237.733 206.031Z" fill="#F2E5DC"/>
<path d="M242.356 207.593L241.551 209.999L243.952 210.806L244.757 208.4L242.356 207.593Z" fill="#E0654A"/>
<path d="M246.979 209.149L246.174 211.555L248.575 212.363L249.38 209.956L246.979 209.149Z" fill="#E0654A"/>
<path d="M217.804 204.161L216.998 206.567L219.399 207.374L220.205 204.968L217.804 204.161Z" fill="#F2E5DC"/>
<path d="M222.429 205.717L221.623 208.123L224.024 208.93L224.83 206.524L222.429 205.717Z" fill="#F2E5DC"/>
<path d="M227.048 207.268L226.242 209.674L228.643 210.481L229.449 208.075L227.048 207.268Z" fill="#F2E5DC"/>
<path d="M231.669 208.829L230.863 211.235L233.264 212.043L234.07 209.637L231.669 208.829Z" fill="#F2E5DC"/>
<path d="M236.294 210.386L235.488 212.792L237.889 213.599L238.695 211.193L236.294 210.386Z" fill="#F2E5DC"/>
<path d="M240.905 211.931L240.1 214.337L242.501 215.144L243.306 212.738L240.905 211.931Z" fill="#E0654A"/>
<path d="M245.528 213.487L244.723 215.893L247.124 216.7L247.929 214.294L245.528 213.487Z" fill="#E0654A"/>
<path d="M216.354 208.503L215.549 210.909L217.95 211.716L218.755 209.31L216.354 208.503Z" fill="#F2E5DC"/>
<path d="M220.972 210.059L220.166 212.465L222.567 213.272L223.373 210.866L220.972 210.059Z" fill="#F2E5DC"/>
<path d="M225.591 211.61L224.785 214.016L227.186 214.823L227.992 212.417L225.591 211.61Z" fill="#F2E5DC"/>
<path d="M230.214 213.166L229.408 215.572L231.809 216.379L232.615 213.973L230.214 213.166Z" fill="#F2E5DC"/>
<path d="M234.825 214.711L234.02 217.117L236.42 217.924L237.226 215.518L234.825 214.711Z" fill="#F2E5DC"/>
<path d="M239.456 216.267L238.65 218.673L241.051 219.48L241.857 217.074L239.456 216.267Z" fill="#E0654A"/>
<path d="M244.073 217.823L243.268 220.229L245.669 221.036L246.474 218.63L244.073 217.823Z" fill="#E0654A"/>
<path d="M229.127 205.281H229.087C229.055 205.272 229.026 205.256 229.001 205.234C228.977 205.211 228.958 205.183 228.947 205.151L228.492 204.026L228.885 203.868L229.233 204.752L231.232 203.187L231.491 203.519L229.245 205.258C229.208 205.276 229.167 205.284 229.127 205.281Z" fill="#602320"/>
<path d="M221.786 212.349H221.73C221.698 212.339 221.669 212.323 221.645 212.3C221.62 212.278 221.601 212.25 221.59 212.219L221.135 211.094L221.528 210.942L221.876 211.825L223.875 210.261L224.133 210.593L221.915 212.332C221.875 212.35 221.83 212.356 221.786 212.349Z" fill="#602320"/>
<path d="M231.04 215.495H230.984C230.953 215.486 230.924 215.47 230.9 215.448C230.876 215.427 230.857 215.4 230.844 215.371L230.395 214.245L230.788 214.088L231.136 214.977L233.129 213.407L233.387 213.739L231.169 215.483C231.129 215.5 231.083 215.504 231.04 215.495Z" fill="#602320"/>
<path d="M239.839 204.088H239.783C239.752 204.077 239.723 204.061 239.699 204.038C239.675 204.016 239.655 203.989 239.643 203.958L239.193 202.833L239.586 202.675L239.935 203.559L241.928 201.994L242.192 202.326L239.946 204.065C239.913 204.082 239.876 204.09 239.839 204.088Z" fill="#602320"/>
<path d="M222.848 194.853L218.103 191.539C217.418 190.942 218.592 187.211 218.592 187.211C219.618 187.316 220.574 187.781 221.293 188.522L225.925 192.94C226.672 193.688 226.779 194.093 226.56 194.442C226.341 194.791 225.005 196.322 222.848 194.853Z" fill="#FCA886"/>
<path d="M225.908 194.465C223.937 193.109 224.56 192.062 224.588 192.017L224.947 192.237C224.947 192.237 224.532 193.008 226.143 194.122L225.908 194.465Z" fill="#602320"/>
<path d="M73.3471 70.4714C69.6579 74.585 63.8461 70.7921 63.0655 70.4714C59.0394 68.7382 52.4414 60.5391 52.4414 60.5391C50.5996 58.5526 52.1551 56.9938 52.7952 57.4722C53.0816 57.7367 51.7676 56.4086 51.5093 56.1272C49.2913 53.5668 51.6497 52.2837 52.7727 53.0491C50.7288 51.3609 52.419 49.003 53.8172 49.9878C52.492 48.6203 54.126 46.527 56.4171 48.1589C57.7647 48.958 67.6476 57.2696 67.6476 57.2696C68.3551 56.3467 64.4413 53.1897 65.9237 50.7137C66.0139 50.6257 66.1348 50.5765 66.2606 50.5765C66.3865 50.5765 66.5074 50.6257 66.5976 50.7137C69.8948 53.9408 72.3944 57.8949 73.8974 62.2611C74.8408 64.5683 75.5651 67.9953 73.3471 70.4714Z" fill="#FCA886"/>
<path d="M52.9557 57.4469L52.6836 57.769L58.5602 62.7529L58.8323 62.4308L52.9557 57.4469Z" fill="#602320"/>
<path d="M52.907 52.9305L52.623 53.2422L60.167 60.1431L60.4509 59.8314L52.907 52.9305Z" fill="#602320"/>
<path d="M53.9518 51.3087L53.6738 51.6252L62.1515 59.1017L62.4295 58.7851L53.9518 51.3087Z" fill="#602320"/>
<path d="M58.3311 63.7694L57.9492 63.5893C58.9824 61.4116 60.7063 59.0087 63.2163 56.2344L63.5252 56.5157C61.0432 59.2619 59.3474 61.6592 58.3311 63.7694Z" fill="#602320"/>
<path d="M67.6239 65.5139C64.8163 61.4341 67.4555 57.1798 67.4835 57.1404L67.8373 57.3655C67.8373 57.4049 65.3385 61.4284 67.9721 65.2775L67.6239 65.5139Z" fill="#602320"/>
<path d="M69.4606 100.212C61.807 97.618 55.136 101.259 55.3775 109.919C55.5455 113.118 56.9564 116.124 59.3081 118.293L59.4541 118.434C59.8536 118.806 60.2755 119.154 60.7176 119.475L94.2015 142.22C95.9561 143.865 98.0719 145.074 100.378 145.749C106.909 147.645 112.827 145.951 115.686 140.121C118.65 134.055 116.247 128.608 110.884 124.269L110.795 124.196C110.258 123.771 109.695 123.381 109.11 123.025L73.4923 102.429L73.0712 102.125C71.9762 101.3 70.7575 100.655 69.4606 100.212Z" fill="white"/>
<path d="M59.8477 74.1913L74.3575 74.9847L74.6383 69.8357C71.651 71.1638 61.813 70.0552 60.1284 69.0422L59.8477 74.1913Z" fill="white"/>
<path d="M77.4348 104.99C77.1148 93.0091 78.7713 76.217 74.4082 74.0674L59.8478 73.8367C55.5016 75.1929 56.2035 95.986 55.2321 109.047C55.0131 123.796 77.5584 125.479 77.4348 104.99Z" fill="white"/>
<path d="M67.5406 75.6488C64.2557 75.6488 60.9539 75.041 59.7129 74.0112L59.9824 73.6848C62.1275 75.4631 71.213 75.8964 74.2901 73.9043L74.5204 74.2588C73.0211 75.2211 70.2865 75.6488 67.5406 75.6488Z" fill="#602320"/>
<path d="M76.541 106.644L76.1873 106.419L77.0296 105.114C76.075 105.401 74.9238 105.75 74.8171 105.795L74.6094 105.434C74.6431 105.434 74.7048 105.367 77.4619 104.545C77.5022 104.531 77.5459 104.531 77.5864 104.544C77.6269 104.558 77.6621 104.584 77.6866 104.618C77.7125 104.653 77.7266 104.696 77.7266 104.739C77.7266 104.783 77.7125 104.825 77.6866 104.86L76.541 106.644Z" fill="#602320"/>
<path d="M89.6864 139.412L76.7207 130.605L76.9565 130.257L89.9222 139.063L89.6864 139.412Z" fill="#602320"/>
<path d="M74.2328 43.2979L62.2682 35.6945C61.1892 35.0088 59.7598 35.3295 59.0755 36.4109L42.47 62.6536C41.7857 63.7349 42.1057 65.1675 43.1848 65.8532L55.1493 73.4566C56.2284 74.1423 57.6578 73.8216 58.3421 72.7402L74.9476 46.4975C75.6319 45.4161 75.3118 43.9836 74.2328 43.2979Z" fill="#5B78C8"/>
<path d="M72.4111 48.134L58.6777 39.4065L45.0012 61.0204L58.7345 69.7479L72.4111 48.134Z" fill="white"/>
<path d="M65.2236 40.6194L64.998 40.9758L68.2939 43.0703L68.5194 42.7139L65.2236 40.6194Z" fill="#602320"/>
<path d="M50.5204 69.0647C50.1666 69.0624 49.824 68.9406 49.5479 68.7191C49.2717 68.4975 49.0782 68.189 48.9987 67.8436C48.9086 67.4384 48.9812 67.0139 49.2008 66.6619C49.3101 66.4882 49.4527 66.338 49.6205 66.2202C49.7882 66.1023 49.9777 66.0191 50.1779 65.9753C50.3779 65.9278 50.5855 65.9213 50.7881 65.9561C50.9907 65.9909 51.1842 66.0663 51.3571 66.1779C51.4869 66.2621 51.6041 66.3644 51.7052 66.4818L51.3851 66.7519C51.3131 66.6673 51.2277 66.5951 51.1325 66.5381C51.0066 66.4566 50.8658 66.4012 50.7182 66.3751C50.5707 66.349 50.4194 66.3527 50.2733 66.3861C50.1272 66.4178 49.9888 66.4784 49.8663 66.5644C49.7439 66.6504 49.6398 66.7601 49.5602 66.887C49.4802 67.0133 49.4258 67.1542 49.4001 67.3017C49.3744 67.4491 49.378 67.6002 49.4106 67.7462C49.4432 67.8923 49.5042 68.0305 49.5901 68.1529C49.6759 68.2753 49.785 68.3796 49.9111 68.4598C50.0372 68.54 50.1778 68.5945 50.325 68.6202C50.4721 68.6459 50.6228 68.6423 50.7686 68.6097C50.9143 68.577 51.0522 68.5159 51.1744 68.4299C51.2965 68.3438 51.4006 68.2345 51.4806 68.1081C51.5509 68.0042 51.6005 67.8876 51.6266 67.7648L52.0365 67.8661C51.9949 68.0326 51.9286 68.1919 51.84 68.3388C51.6985 68.5611 51.5035 68.7441 51.2729 68.871C51.0423 68.9979 50.7835 69.0645 50.5204 69.0647Z" fill="#602320"/>
<path d="M186.215 73.0093C190.931 75.868 195.39 70.5445 196.041 69.9931C199.411 67.1794 203.341 57.3878 203.341 57.3878C204.52 54.9567 202.583 53.9157 202.111 54.5741C201.909 54.9061 202.78 53.2517 202.948 52.8859C204.33 49.7908 201.702 49.2506 200.848 50.3085C202.314 48.1082 200.011 46.3413 198.956 47.6862C199.832 45.998 197.659 44.4673 195.94 46.6958C194.885 47.8494 187.826 58.6877 187.826 58.6877C186.883 58.0124 189.713 53.8538 187.579 51.9348C187.467 51.8752 187.336 51.8612 187.213 51.8957C187.091 51.9303 186.987 52.0108 186.922 52.1205C184.706 56.1692 183.462 60.6797 183.289 65.2942C183.042 67.7928 183.373 71.2874 186.215 73.0093Z" fill="#FCA886"/>
<path d="M201.954 54.6378L197.785 61.1235L198.139 61.3521L202.308 54.8663L201.954 54.6378Z" fill="#602320"/>
<path d="M200.685 50.2899L195.469 59.0906L195.831 59.3061L201.047 50.5054L200.685 50.2899Z" fill="#602320"/>
<path d="M198.712 47.6078L192.727 57.2175L193.084 57.441L199.069 47.8313L198.712 47.6078Z" fill="#602320"/>
<path d="M198.63 62.2217C197.041 60.4716 194.699 58.699 191.555 56.8025L191.768 56.4368C194.974 58.3613 197.322 60.1565 198.939 61.9403L198.63 62.2217Z" fill="#602320"/>
<path d="M190.24 66.5999L189.841 66.4705C191.245 62.0192 187.708 58.8904 187.674 58.8623L187.949 58.5415C187.988 58.5753 191.728 61.8785 190.24 66.5999Z" fill="#602320"/>
<path d="M188.095 100.212C195.749 97.618 202.42 101.259 202.178 109.919C202.005 113.117 200.595 116.12 198.248 118.293L198.096 118.434C197.7 118.807 197.28 119.155 196.838 119.475L163.388 142.22C161.633 143.864 159.517 145.073 157.211 145.749C150.675 147.645 144.762 145.951 141.904 140.121C138.934 134.055 141.343 128.608 146.7 124.269L146.795 124.196C147.331 123.77 147.894 123.379 148.48 123.025L184.092 102.429L184.513 102.125C185.598 101.301 186.807 100.655 188.095 100.212Z" fill="white"/>
<path d="M197.724 74.1913L183.214 74.9847L182.934 69.8357C185.915 71.1638 195.759 70.0552 197.443 69.0422L197.724 74.1913Z" fill="white"/>
<path d="M180.133 104.99C180.458 93.0091 178.802 76.217 183.165 74.0674L197.725 73.8367C202.066 75.1929 201.364 95.986 202.336 109.047C202.532 123.796 180.015 125.479 180.133 104.99Z" fill="white"/>
<path d="M190.033 75.6488C187.281 75.6488 184.546 75.2211 183.053 74.2588L183.277 73.9043C186.383 75.8964 195.44 75.4631 197.591 73.6848L197.86 74.0112C196.614 75.041 193.312 75.6488 190.033 75.6488Z" fill="#602320"/>
<path d="M181.03 106.644L179.873 104.86C179.849 104.825 179.836 104.782 179.836 104.739C179.836 104.696 179.849 104.654 179.873 104.618C179.899 104.583 179.935 104.557 179.976 104.543C180.018 104.53 180.062 104.531 180.104 104.545C181.067 104.793 182.017 105.09 182.951 105.434L182.838 105.609L182.743 105.794C182.636 105.749 181.491 105.4 180.53 105.113L181.378 106.419L181.03 106.644Z" fill="#602320"/>
<path d="M180.113 130.613L168.262 138.382L168.492 138.735L180.344 130.966L180.113 130.613Z" fill="#602320"/>
<path d="M208.855 34.9797H189.449C187.802 34.9797 186.467 36.3176 186.467 37.9679V56.3581C186.467 58.0084 187.802 59.3462 189.449 59.3462H208.855C210.502 59.3462 211.837 58.0084 211.837 56.3581V37.9679C211.837 36.3176 210.502 34.9797 208.855 34.9797Z" fill="white"/>
<path d="M207.35 57.6637H190.948C190.224 57.6622 189.531 57.3736 189.02 56.861C188.508 56.3484 188.22 55.6537 188.219 54.9288V39.3916C188.22 38.6667 188.508 37.972 189.02 37.4594C189.531 36.9468 190.224 36.6582 190.948 36.6567H207.35C208.073 36.6582 208.767 36.9468 209.278 37.4594C209.79 37.972 210.078 38.6667 210.079 39.3916V54.9063C210.081 55.2671 210.012 55.6248 209.876 55.9589C209.74 56.293 209.54 56.5969 209.286 56.8531C209.032 57.1092 208.731 57.3127 208.399 57.4519C208.066 57.591 207.71 57.663 207.35 57.6637ZM190.948 37.0788C190.336 37.0803 189.75 37.3244 189.318 37.7578C188.885 38.1913 188.641 38.7787 188.64 39.3916V54.9063C188.641 55.5192 188.885 56.1066 189.318 56.5401C189.75 56.9735 190.336 57.2176 190.948 57.2191H207.35C207.962 57.2176 208.548 56.9735 208.98 56.5401C209.413 56.1066 209.656 55.5192 209.658 54.9063V39.3916C209.656 38.7787 209.413 38.1913 208.98 37.7578C208.548 37.3244 207.962 37.0803 207.35 37.0788H190.948Z" fill="#602320"/>
<path d="M200.15 54.7824L189.729 44.9908L193.362 41.1079L199.651 47.0223L210.853 33.3928L214.952 36.7749L200.15 54.7824Z" fill="#B8AE7C"/>
<path d="M192.75 56.42L188.589 60.4492C187.871 61.0119 184.445 59.1324 184.445 59.1324C184.747 58.1446 185.385 57.2943 186.248 56.7295L191.476 53.0267C192.352 52.4358 192.767 52.4133 193.065 52.6947C193.362 52.976 194.603 54.5855 192.75 56.42Z" fill="#FCA886"/>
<path d="M191.032 54.3997C190.778 54.4085 190.529 54.3267 190.33 54.1689L190.616 53.8594C190.616 53.8594 191.29 54.4222 192.689 53.0435L192.986 53.3473C192.127 54.1858 191.464 54.3997 191.032 54.3997Z" fill="#602320"/>
<path d="M127.451 57.0108C126.569 57.002 125.725 56.647 125.102 56.0221C124.478 55.3971 124.124 54.552 124.115 53.6682V52.5089C124.124 51.6251 124.478 50.78 125.102 50.155C125.725 49.5301 126.569 49.1751 127.451 49.1663C128.333 49.1751 129.176 49.5301 129.8 50.155C130.423 50.78 130.777 51.6251 130.786 52.5089V53.6682C130.777 54.552 130.423 55.3971 129.8 56.0221C129.176 56.647 128.333 57.002 127.451 57.0108Z" fill="#602320"/>
<path d="M130.387 42.6443H124.536C123.525 42.6443 122.705 43.4656 122.705 44.4788V52.0026C122.705 53.0158 123.525 53.8371 124.536 53.8371H130.387C131.398 53.8371 132.217 53.0158 132.217 52.0026V44.4788C132.217 43.4656 131.398 42.6443 130.387 42.6443Z" fill="#602320"/>
<path d="M141.77 27.8948C141.771 25.5148 141.181 23.172 140.053 21.0776C138.924 18.9833 137.294 17.2033 135.308 15.8982C133.322 14.5931 131.043 13.8039 128.677 13.6018C126.311 13.3998 123.931 13.7912 121.754 14.7407C119.576 15.6903 117.668 17.1681 116.203 19.041C114.738 20.9139 113.76 23.1228 113.36 25.4687C112.959 27.8145 113.147 30.2234 113.907 32.4782C114.667 34.733 115.976 36.7627 117.714 38.3842C118.712 39.3213 119.507 40.4545 120.049 41.7132C120.591 42.9718 120.869 44.3289 120.864 45.6998C120.867 46.4237 121.156 47.117 121.667 47.6284C122.178 48.1397 122.871 48.4276 123.593 48.429H131.331C132.053 48.4275 132.745 48.1395 133.255 47.628C133.765 47.1165 134.053 46.4232 134.054 45.6998V45.2946C134.075 43.9908 134.365 42.7054 134.905 41.5191C135.445 40.3328 136.224 39.2713 137.193 38.4011C138.639 37.0614 139.791 35.4363 140.579 33.6281C141.367 31.8198 141.772 29.8678 141.77 27.8948Z" fill="#DCA254"/>
<path d="M131.022 17.8501C130.414 17.6443 129.788 17.4973 129.152 17.4111L129.304 16.2856C130.011 16.3807 130.707 16.5447 131.382 16.7752L131.022 17.8501Z" fill="white"/>
<path d="M137.502 24.7885C136.851 22.3284 135.291 20.2082 133.139 18.8573L133.74 17.9062C136.138 19.411 137.873 21.7758 138.591 24.5184L137.502 24.7885Z" fill="white"/>
<path d="M127.675 32.3743H127.254V41.5638H127.675V32.3743Z" fill="#602320"/>
<path d="M129.163 42.3572L128.832 42.0983L133.425 36.0883C132.219 36.1726 131.014 35.907 129.955 35.3232C128.895 34.7394 128.026 33.8621 127.451 32.7963C126.002 35.1935 124.009 36.3134 121.51 36.1164L126.086 42.0983L125.749 42.3572L120.566 35.5706L121.072 35.6437C123.762 36.0264 125.789 34.9234 127.249 32.2673L127.434 31.9297L127.619 32.2673C128.978 34.7715 130.988 35.8745 133.796 35.6437L134.273 35.5987L129.163 42.3572Z" fill="#602320"/>
<path d="M130.6 48.4067V44.2143C130.6 43.38 130.269 42.5799 129.681 41.99C129.092 41.4 128.294 41.0686 127.461 41.0686C126.629 41.0686 125.83 41.4 125.242 41.99C124.653 42.5799 124.322 43.38 124.322 44.2143V48.4292L130.6 48.4067Z" fill="white"/>
<path d="M129.364 49.5603H125.557V44.5463C125.557 44.2958 125.606 44.0478 125.702 43.8163C125.797 43.5849 125.937 43.3746 126.114 43.1974C126.291 43.0203 126.501 42.8797 126.732 42.7839C126.963 42.688 127.21 42.6387 127.46 42.6387C127.71 42.6387 127.958 42.688 128.189 42.7839C128.42 42.8797 128.629 43.0203 128.806 43.1974C128.983 43.3746 129.123 43.5849 129.219 43.8163C129.315 44.0478 129.364 44.2958 129.364 44.5463V49.5603ZM125.995 49.1383H128.959V44.5463C128.959 44.1523 128.803 43.7745 128.525 43.4958C128.247 43.2172 127.87 43.0607 127.477 43.0607C127.084 43.0607 126.707 43.2172 126.429 43.4958C126.151 43.7745 125.995 44.1523 125.995 44.5463V49.1383Z" fill="#602320"/>
<path d="M50.8848 188.275C54.0293 192.816 49.0093 197.611 48.5039 198.291C45.8928 201.82 36.4086 206.372 36.4086 206.372C34.0614 207.706 32.9047 205.81 33.5167 205.32C33.8368 205.101 32.2421 206.074 31.9108 206.265C28.9122 207.835 28.2103 205.247 29.2098 204.324C27.1097 205.928 25.2061 203.761 26.4808 202.596C24.8524 203.581 23.1902 201.499 25.3072 199.642C26.391 198.517 36.7399 190.773 36.7399 190.773C36.0043 189.873 32.0399 192.962 30.0016 190.953C29.9336 190.845 29.9108 190.714 29.9381 190.589C29.9654 190.463 30.0406 190.354 30.1476 190.284C34.0378 187.811 38.4508 186.283 43.0346 185.821C45.4941 185.427 48.9924 185.512 50.8848 188.275Z" fill="#FCA886"/>
<path d="M39.7476 200.573L33.5527 205.154L33.8028 205.493L39.9977 200.913L39.7476 200.573Z" fill="#602320"/>
<path d="M37.5972 198.375L29.1562 204.138L29.3934 204.487L37.8343 198.723L37.5972 198.375Z" fill="#602320"/>
<path d="M35.5782 195.721L26.3965 202.328L26.6421 202.671L35.8239 196.064L35.5782 195.721Z" fill="#602320"/>
<path d="M40.6602 201.673C38.7847 200.165 36.8418 197.937 34.7305 194.847L35.0786 194.611C37.1675 197.661 39.0767 199.861 40.9241 201.364L40.6602 201.673Z" fill="#602320"/>
<path d="M42.1265 193.182C40.0657 193.118 38.0981 192.306 36.5898 190.897L36.8875 190.599C36.9211 190.633 40.2566 193.975 44.6028 192.287L44.7545 192.681C43.9174 193.011 43.026 193.181 42.1265 193.182Z" fill="#602320"/>
<path d="M74.9529 174.662C73.4031 182.614 77.8953 188.731 86.4249 187.358C89.5643 186.766 92.3488 184.969 94.1852 182.349L94.3032 182.186C94.6198 181.741 94.9086 181.277 95.1679 180.796L113.204 144.511C114.6 142.546 115.512 140.279 115.866 137.893C116.877 131.14 114.417 125.513 108.251 123.442C101.861 121.309 96.7963 124.438 93.1969 130.313L93.1352 130.414C92.7842 131.001 92.471 131.61 92.1974 132.238L76.5701 170.352L76.3511 170.83C75.6858 172.025 75.2139 173.319 74.9529 174.662Z" fill="white"/>
<path d="M54.6976 196.457L49.6438 182.805L44.8203 184.6C47.2237 186.812 50.1324 196.299 49.8741 198.252L54.6976 196.457Z" fill="white"/>
<path d="M75.8906 168.016C65.0475 173.081 49.0215 178.252 48.7969 183.12L54.3841 196.598C57.3546 200.047 76.104 191.117 88.4464 186.806C102.013 181.117 94.5838 159.75 75.8906 168.016Z" fill="white"/>
<path d="M54.587 196.654L54.1827 196.536C54.9519 193.851 51.74 185.354 48.6797 183.294L48.9155 182.946C52.1556 185.123 55.4068 193.795 54.587 196.654Z" fill="#602320"/>
<path d="M79.1251 171.184L77.8055 167.245C77.7918 167.203 77.7914 167.158 77.8045 167.115C77.8175 167.073 77.8434 167.036 77.8785 167.009C77.9149 166.984 77.958 166.971 78.0021 166.971C78.0461 166.971 78.0892 166.984 78.1256 167.009L81.0006 168.945L80.7704 169.294L78.4007 167.707L79.5238 171.083L79.1251 171.184Z" fill="#602320"/>
<path d="M39.5861 227.769C49.9991 223.954 55.3547 212.402 51.5482 201.967C47.7418 191.531 36.2146 186.164 25.8016 189.979C15.3887 193.794 10.033 205.346 13.8395 215.781C17.646 226.216 29.1732 231.583 39.5861 227.769Z" fill="#602320"/>
<path d="M40.744 223.792C48.9619 219.336 52.0187 209.047 47.5716 200.811C43.1245 192.576 32.8575 189.512 24.6396 193.969C16.4217 198.425 13.3649 208.715 17.812 216.95C22.2591 225.186 32.5261 228.249 40.744 223.792Z" fill="white"/>
<path d="M19.3387 200.465L19.1191 200.825L20.3122 201.556L20.5318 201.196L19.3387 200.465Z" fill="#602320"/>
<path d="M45.0711 216.223L44.8516 216.583L46.0447 217.314L46.2643 216.954L45.0711 216.223Z" fill="#602320"/>
<path d="M23.5435 221.512L22.8164 222.703L23.1744 222.922L23.9014 221.731L23.5435 221.512Z" fill="#602320"/>
<path d="M39.3501 195.846L38.623 197.037L38.981 197.257L39.7081 196.066L39.3501 195.846Z" fill="#602320"/>
<path d="M18.3005 208.784L16.9023 208.794L16.9056 209.216L18.3037 209.206L18.3005 208.784Z" fill="#602320"/>
<path d="M48.445 208.568L47.0469 208.579L47.0501 209.001L48.4483 208.99L48.445 208.568Z" fill="#602320"/>
<path d="M33.0403 223.275L32.6191 223.278L32.6291 224.679L33.0503 224.676L33.0403 223.275Z" fill="#602320"/>
<path d="M32.8196 193.053L32.3984 193.056L32.4084 194.457L32.8296 194.454L32.8196 193.053Z" fill="#602320"/>
<path d="M25.6576 194.728L25.2832 194.921L25.9236 196.167L26.298 195.973L25.6576 194.728Z" fill="#602320"/>
<path d="M39.4721 221.588L39.0977 221.781L39.7379 223.027L40.1123 222.834L39.4721 221.588Z" fill="#602320"/>
<path d="M46.637 201.421L45.3945 202.064L45.5877 202.439L46.8302 201.796L46.637 201.421Z" fill="#602320"/>
<path d="M19.8069 215.31L18.5645 215.953L18.7576 216.328L20.0001 215.686L19.8069 215.31Z" fill="#602320"/>
<path d="M46.326 204.212L29.5859 209.689L29.7602 210.224L46.5002 204.747L46.326 204.212Z" fill="#E0654A"/>
<path d="M27.0102 196.442L26.0117 196.958L33.7095 211.942L34.708 211.427L27.0102 196.442Z" fill="#602320"/>
<path d="M34.7614 206.451L23.6465 215.507L24.3549 216.38L35.4699 207.325L34.7614 206.451Z" fill="#602320"/>
<path d="M31.8114 210.323C32.0959 210.496 32.4253 210.581 32.7579 210.567C33.0906 210.553 33.4116 210.44 33.6804 210.243C33.9493 210.046 34.1539 209.774 34.2684 209.461C34.3829 209.147 34.4022 208.807 34.3238 208.483C34.2455 208.159 34.073 207.865 33.8281 207.639C33.5833 207.413 33.2771 207.264 32.9482 207.212C32.6192 207.161 32.2824 207.208 31.9801 207.347C31.6779 207.487 31.4237 207.714 31.2499 207.999C31.1341 208.188 31.0568 208.398 31.0224 208.618C30.988 208.837 30.9971 209.061 31.0493 209.277C31.1014 209.493 31.1956 209.697 31.3264 209.876C31.4572 210.056 31.622 210.207 31.8114 210.323Z" fill="white"/>
<path d="M32.6861 210.784C32.3388 210.784 31.9984 210.686 31.7034 210.503C31.2738 210.239 30.9657 209.816 30.8468 209.326C30.7279 208.835 30.8077 208.318 31.0689 207.886C31.1991 207.672 31.3705 207.487 31.5729 207.34C31.7753 207.193 32.0048 207.088 32.2481 207.031C32.4897 206.97 32.7409 206.959 32.9869 206.998C33.2328 207.036 33.4686 207.124 33.68 207.256C34.0028 207.451 34.2598 207.739 34.4181 208.083C34.5764 208.426 34.6287 208.809 34.5684 209.182C34.508 209.555 34.3377 209.901 34.0794 210.177C33.821 210.453 33.4864 210.644 33.1185 210.728C32.9768 210.762 32.8318 210.781 32.6861 210.784ZM31.9224 210.143C32.0882 210.246 32.2732 210.315 32.4662 210.345C32.6592 210.375 32.8562 210.365 33.0455 210.317C33.4236 210.227 33.7506 209.99 33.9552 209.659C34.1595 209.321 34.2221 208.917 34.1292 208.533C34.059 208.249 33.9067 207.992 33.6913 207.795C33.476 207.597 33.2072 207.468 32.9187 207.423C32.6302 207.378 32.3349 207.419 32.0698 207.541C31.8046 207.664 31.5815 207.862 31.4283 208.111C31.2251 208.447 31.163 208.85 31.2557 209.232C31.3483 209.614 31.588 209.943 31.9224 210.148V210.143Z" fill="#602320"/>
<path d="M84.1106 152.586L83.7344 152.4L87.9402 143.689L88.3221 143.875L84.1106 152.586Z" fill="#602320"/>
<path d="M138.675 108.456H118.129V144.483H138.675V108.456Z" fill="#FCA886"/>
<path d="M154.403 217.182C154.055 210.486 153.482 204.088 152.64 198.004H104.764C103.568 203.334 102.518 209.889 101.67 217.182H154.403Z" fill="#602320"/>
<path d="M156.886 117.764L139.091 121.793L128.815 126.469L118.146 122.209L99.4923 117.471C99.4923 117.471 98.7679 158.917 101.783 177.87C103.754 190.25 97.746 198.021 104.484 200.081C113.356 202.332 143.578 202.332 152.832 200.081C159.654 198.331 153.64 190.272 155.611 177.87C158.627 158.917 156.886 117.764 156.886 117.764Z" fill="white"/>
<path d="M103.608 208.86L103.568 208.438C103.63 208.438 109.375 207.847 110.582 202.968L110.992 203.069C109.711 208.246 103.669 208.854 103.608 208.86Z" fill="#934A4A"/>
<path d="M153.871 208.86C153.809 208.86 147.767 208.246 146.492 203.069L146.897 202.968C148.104 207.847 153.848 208.432 153.91 208.438L153.871 208.86Z" fill="#934A4A"/>
<path d="M128.933 209.276C127.293 209.214 126.08 208.651 125.322 207.588C123.733 205.382 124.76 201.837 124.76 201.69L125.165 201.809C125.165 201.842 124.176 205.303 125.642 207.346C126.316 208.28 127.422 208.787 128.921 208.843L128.933 209.276Z" fill="#934A4A"/>
<path d="M128.528 201.741L128.412 216.872L128.833 216.875L128.949 201.744L128.528 201.741Z" fill="#934A4A"/>
<path d="M118.123 119.058L115.018 121.551C116.348 125.991 119.454 129.238 123.968 131.534L128.814 126.469C124.251 124.935 120.687 122.465 118.123 119.058Z" fill="white"/>
<path d="M138.68 119.058L141.785 121.551C140.454 125.991 137.349 129.238 132.84 131.534L127.988 126.469C132.555 124.935 136.119 122.465 138.68 119.058Z" fill="white"/>
<path d="M124.872 129.688L126.248 131.027L123.463 192.777L128.292 198.049V126.323C126.924 127.185 125.757 128.333 124.872 129.688Z" fill="#E0654A"/>
<path d="M130.343 131.027L131.713 129.688C130.831 128.327 129.664 127.175 128.293 126.312V198.061L133.122 192.788L130.343 131.027Z" fill="#E0654A"/>
<path d="M124.08 131.838L123.867 131.72C119.783 129.504 116.589 125.941 114.826 121.636L115.208 121.467C116.909 125.607 119.956 129.05 123.856 131.236C124.087 130.66 124.371 130.106 124.703 129.581L125.057 129.812C124.699 130.378 124.399 130.98 124.164 131.607L124.08 131.838Z" fill="#602320"/>
<path d="M132.504 131.838L132.42 131.607C132.186 130.976 131.885 130.372 131.521 129.807L131.875 129.576C132.211 130.101 132.496 130.657 132.729 131.236C136.628 129.05 139.676 125.607 141.376 121.467L141.758 121.636C139.995 125.941 136.801 129.504 132.718 131.72L132.504 131.838Z" fill="#602320"/>
<path d="M128.321 131.832C127.545 131.838 126.785 131.619 126.131 131.202L126.367 130.847C126.944 131.21 127.611 131.402 128.293 131.402C128.974 131.402 129.641 131.21 130.219 130.847L130.466 131.191C129.833 131.62 129.085 131.844 128.321 131.832Z" fill="#602320"/>
<path d="M100.547 169.187C99.7556 159.356 99.3345 149.851 99.3008 140.932H99.7219C99.7556 149.845 100.177 159.339 100.969 169.159L100.547 169.187Z" fill="#602320"/>
<path d="M156.767 169.187L156.346 169.153C157.137 159.322 157.559 149.829 157.592 140.926H158.013C157.98 149.84 157.559 159.344 156.767 169.187Z" fill="#602320"/>
<path d="M128.994 76.4421H127.809C120.326 76.4421 114.26 82.5216 114.26 90.021V102.525C114.26 110.024 120.326 116.104 127.809 116.104H128.994C136.478 116.104 142.544 110.024 142.544 102.525V90.021C142.544 82.5216 136.478 76.4421 128.994 76.4421Z" fill="#FCA886"/>
<path d="M115.657 97.3084C115.657 97.3084 113.866 92.8065 110.996 94.8661C108.127 96.9257 110.996 104.022 114.882 104.714C118.768 105.406 115.657 97.3084 115.657 97.3084Z" fill="#FCA886"/>
<path d="M141.134 97.3084C141.134 97.3084 142.925 92.8065 145.795 94.8661C148.664 96.9257 145.795 104.022 141.903 104.714C138.012 105.406 141.134 97.3084 141.134 97.3084Z" fill="#FCA886"/>
<path d="M114.743 101.484C114.962 98.6703 115.26 94.7818 112.801 94.3316L112.093 89.554C111.565 87.3818 112.402 85.9806 113.272 85.6148C113.272 85.6148 108.965 81.7432 111.054 77.7365C113.143 73.7298 117.933 75.5925 117.933 75.5925C117.933 75.5925 117.675 72.4355 121.948 71.3832C126.221 70.3309 139.299 78.2261 139.299 78.2261C142.472 80.1056 143.275 82.5704 143.791 85.6035C145.291 85.8736 145.408 88.0627 145.274 89.0869L144.712 94.3203C141.865 94.1346 141.742 97.3141 141.905 101.473C139.995 101.473 140.31 95.564 140.31 95.564V86.7853C131.831 89.3007 123.312 89.0362 117.102 86.7853L116.759 95.5921C116.759 95.5921 116.849 101.484 114.743 101.484Z" fill="#602320"/>
<path d="M112.288 100.921C111.581 99.8858 110.868 97.8543 111.575 96.7851C111.828 96.4081 112.367 96.0029 113.535 96.2224L113.451 96.6332C112.698 96.4812 112.187 96.605 111.923 96.9989C111.407 97.7811 111.884 99.5538 112.636 100.662L112.288 100.921Z" fill="#602320"/>
<path d="M144.784 100.921L144.436 100.685C145.188 99.5593 145.665 97.8035 145.149 97.0213C144.885 96.6274 144.374 96.5036 143.621 96.6556L143.537 96.2447C144.705 96.0028 145.222 96.4079 145.497 96.8075C146.204 97.8542 145.491 99.8857 144.784 100.921Z" fill="#602320"/>
<path d="M128.438 116.621C126.494 116.649 124.564 116.27 122.773 115.511C120.982 114.751 119.368 113.627 118.033 112.21L118.348 111.923C119.644 113.3 121.212 114.391 122.952 115.128C124.692 115.864 126.566 116.229 128.455 116.199C130.338 116.226 132.207 115.859 133.941 115.123C135.675 114.387 137.238 113.297 138.529 111.923L138.838 112.21C137.507 113.626 135.897 114.75 134.109 115.509C132.322 116.269 130.396 116.647 128.455 116.621H128.438Z" fill="#602320"/>
<path d="M128.455 102.322L128.337 101.917C128.899 101.748 130.51 101.107 130.454 100.37C130.392 99.5255 128.663 96.3291 128.006 95.1699L128.371 94.9617C128.472 95.1361 130.791 99.2272 130.875 100.336C130.965 101.546 128.713 102.243 128.455 102.322Z" fill="#602320"/>
<path d="M122.957 99.1205C122.955 99.2883 122.903 99.4517 122.809 99.5901C122.714 99.7284 122.58 99.8356 122.425 99.898C122.27 99.9604 122.099 99.9753 121.935 99.9408C121.771 99.9063 121.621 99.824 121.504 99.7041C121.387 99.5843 121.308 99.4323 121.277 99.2675C121.245 99.1026 121.264 98.9321 121.329 98.7776C121.394 98.6231 121.504 98.4915 121.644 98.3993C121.784 98.3071 121.948 98.2584 122.115 98.2595C122.341 98.2625 122.556 98.3547 122.713 98.516C122.871 98.6773 122.959 98.8946 122.957 99.1205Z" fill="#602320"/>
<path d="M123.744 96.8863C122.671 96.3235 121.425 96.3235 119.926 96.8863L119.785 96.4867C121.397 95.924 122.75 95.924 123.929 96.5148L123.744 96.8863Z" fill="#602320"/>
<path d="M135.81 99.171C135.808 99.3355 135.757 99.4956 135.665 99.6312C135.572 99.7668 135.441 99.8718 135.288 99.9329C135.136 99.9941 134.969 100.009 134.808 99.9748C134.648 99.9409 134.501 99.8602 134.386 99.7427C134.271 99.6252 134.193 99.4763 134.163 99.3147C134.132 99.1531 134.15 98.986 134.214 98.8346C134.278 98.6832 134.386 98.5541 134.523 98.4638C134.66 98.3734 134.821 98.3258 134.985 98.3269C135.095 98.3277 135.203 98.3501 135.304 98.393C135.405 98.4359 135.496 98.4984 135.573 98.5768C135.65 98.6553 135.71 98.7482 135.751 98.8501C135.792 98.9521 135.812 99.0612 135.81 99.171Z" fill="#602320"/>
<path d="M136.849 96.9371C135.777 96.4025 134.53 96.4025 133.031 96.9371L132.891 96.5375C134.497 95.9748 135.855 95.9748 137.035 96.5375L136.849 96.9371Z" fill="#602320"/>
<path d="M125.164 103.634C125.373 104.425 125.835 105.127 126.48 105.63C127.125 106.133 127.916 106.411 128.734 106.419C129.551 106.428 130.348 106.168 131.004 105.679C131.659 105.19 132.137 104.499 132.363 103.712C129.987 104.217 127.529 104.19 125.164 103.634Z" fill="white"/>
<path d="M119.589 104.669C118.325 104.67 117.088 104.296 116.036 103.593C114.984 102.89 114.164 101.891 113.678 100.721C113.193 99.5515 113.064 98.2638 113.308 97.0207C113.552 95.7776 114.159 94.635 115.051 93.7371C115.943 92.8393 117.08 92.2265 118.32 91.9762C119.559 91.7259 120.845 91.8493 122.014 92.3308C123.183 92.8123 124.184 93.6303 124.89 94.6815C125.596 95.7327 125.975 96.9699 125.979 98.2369C125.982 99.9388 125.311 101.572 124.112 102.778C122.914 103.985 121.287 104.665 119.589 104.669ZM119.589 92.2888C118.405 92.2877 117.248 92.6389 116.264 93.2979C115.28 93.9569 114.513 94.894 114.061 95.9903C113.609 97.0865 113.493 98.2926 113.726 99.4555C113.959 100.618 114.531 101.686 115.371 102.522C116.21 103.358 117.278 103.926 118.44 104.153C119.602 104.38 120.804 104.256 121.896 103.797C122.987 103.338 123.918 102.565 124.57 101.575C125.222 100.585 125.566 99.423 125.558 98.2369C125.549 96.6547 124.917 95.1401 123.799 94.0229C122.681 92.9057 121.168 92.2763 119.589 92.2719V92.2888Z" fill="white"/>
<path d="M137.282 104.669C136.018 104.669 134.783 104.294 133.732 103.59C132.68 102.887 131.86 101.887 131.376 100.717C130.891 99.5476 130.763 98.2599 131.008 97.0172C131.253 95.7745 131.86 94.6324 132.752 93.7351C133.644 92.8378 134.782 92.2256 136.021 91.9758C137.26 91.7259 138.545 91.8497 139.715 92.3313C140.884 92.813 141.884 93.631 142.589 94.6821C143.295 95.7332 143.674 96.9702 143.678 98.2369C143.681 99.0803 143.517 99.9159 143.196 100.696C142.876 101.476 142.405 102.185 141.811 102.782C141.217 103.379 140.511 103.854 139.734 104.177C138.957 104.501 138.124 104.668 137.282 104.669ZM137.282 92.2888C136.099 92.2888 134.942 92.641 133.959 93.3007C132.976 93.9604 132.21 94.8978 131.759 95.9942C131.308 97.0906 131.192 98.2964 131.426 99.459C131.659 100.622 132.232 101.688 133.072 102.524C133.911 103.36 134.98 103.927 136.141 104.154C137.303 104.38 138.505 104.256 139.596 103.797C140.687 103.337 141.618 102.564 142.269 101.574C142.921 100.584 143.265 99.4228 143.257 98.2369C143.25 96.6533 142.617 95.137 141.498 94.0193C140.378 92.9016 138.863 92.2734 137.282 92.2719V92.2888Z" fill="white"/>
<path d="M131.655 95.5414C130.728 94.6841 129.503 94.2238 128.241 94.2584C127.676 94.259 127.116 94.3722 126.594 94.5915C126.073 94.8108 125.6 95.1318 125.203 95.5358L124.895 95.2432C125.329 94.801 125.846 94.4492 126.417 94.2078C126.987 93.9663 127.6 93.8401 128.219 93.8364C129.594 93.7927 130.93 94.2965 131.936 95.2376L131.655 95.5414Z" fill="white"/>
<path d="M128.697 107.877C127.992 107.868 127.297 107.709 126.658 107.41L126.838 107.021C127.416 107.305 128.05 107.452 128.694 107.452C129.337 107.452 129.972 107.305 130.55 107.021L130.724 107.41C130.089 107.71 129.398 107.869 128.697 107.877Z" fill="#602320"/>
<path d="M38.2682 195.129L41.4857 190.312C41.9013 189.501 39.4474 186.457 39.4474 186.457C38.532 186.934 37.8111 187.716 37.409 188.669L34.7081 194.465C34.2869 195.438 34.3375 195.849 34.6688 196.097C35.0001 196.344 36.797 197.278 38.2682 195.129Z" fill="#FCA886"/>
<path d="M35.2913 195.911L34.9375 195.675C36.0606 194.048 35.3755 193.491 35.3699 193.486L35.6226 193.148C35.6619 193.182 36.6277 193.902 35.2913 195.911Z" fill="#602320"/>
<path d="M63.3959 55.0413L67.5512 59.0705C68.27 59.6332 71.6953 57.7481 71.6953 57.7481C71.3924 56.761 70.7548 55.911 69.8928 55.3452L64.6706 51.648C63.789 51.0853 63.3791 51.0346 63.0758 51.316C62.7726 51.5974 61.5372 53.218 63.3959 55.0413Z" fill="#FCA886"/>
<path d="M65.1201 53.0154C64.6765 53.0154 63.9971 52.8015 63.166 51.963L63.458 51.6648C64.8562 53.0322 65.5244 52.4808 65.5301 52.4751L65.8164 52.7847C65.6216 52.9467 65.3729 53.0291 65.1201 53.0154Z" fill="#602320"/>
</g>
<defs>
<clipPath id="clip0_1264_4319">
<rect width="257" height="229" fill="white"/>
</clipPath>
</defs>
</svg>
