<svg xmlns="http://www.w3.org/2000/svg" xmlns:xlink="http://www.w3.org/1999/xlink" viewBox="0 0 690.6 384.02"><defs><style>.cls-1{fill:none;}.cls-2{fill:#c6d0d6;}.cls-3{fill:#ffcf33;}.cls-4{fill:#160c13;}.cls-5{fill:#f9a77d;}.cls-6{fill:#fff;}.cls-7{fill:#f3725f;}.cls-8{fill:#263238;}.cls-9{fill:#a44f29;}.cls-10{clip-path:url(#clip-path);}.cls-11{clip-path:url(#clip-path-2);}</style><clipPath id="clip-path"><path id="SVGID" class="cls-1" d="M431.39,154.46l.06,0-.09-.05c-4.82-12-13-20.08-25.59-22.13-9.46-1.54-17.82,1.23-25.1,7.27-11.23-5-20.26-14.33-30.24-26.51-.18-.21-12.44,10.85-12.25,11.07,3.36,3.94,12.64,19.76,30.8,29.24-7,11-12.43,25.62-16.45,42.14L436.2,209.1C438,187.61,436.94,168.38,431.39,154.46Z"/></clipPath><clipPath id="clip-path-2"><path id="SVGID-2" data-name="SVGID" class="cls-1" d="M429.67,154.59h0c-4.82-12-41.72-21.1-49-15.06-11.23-5-20.26-14.33-30.24-26.51-.18-.21-12.44,10.85-12.25,11.07,3.36,3.94,12.64,19.76,30.8,29.24C362,164.36,435.22,168.5,429.67,154.59Z"/></clipPath></defs><g id="Layer_2" data-name="Layer 2"><g id="Layer_1-2" data-name="Layer 1"><polygon class="cls-2" points="42.11 381.4 11.83 381.4 7.67 336.74 46.27 336.74 42.11 381.4"/><path class="cls-3" d="M11.44,154.53c-1.77,1.75-.15,5.83,3.35,9.37s7.58,5.2,9.35,3.44.15-5.83-3.35-9.37S13.21,152.77,11.44,154.53Z"/><path class="cls-3" d="M29.7,167.37c1.75,1.77,5.83.15,9.37-3.35s5.2-7.58,3.44-9.35-5.83-.15-9.37,3.36S27.94,165.6,29.7,167.37Z"/><path class="cls-3" d="M11.44,176.16c-1.77,1.76-.15,5.84,3.35,9.38s7.58,5.19,9.35,3.44.15-5.83-3.35-9.37S13.21,174.41,11.44,176.16Z"/><path class="cls-3" d="M33.14,179.66c-3.54,3.51-5.2,7.58-3.44,9.35s5.83.15,9.37-3.35,5.2-7.58,3.44-9.35S36.68,176.16,33.14,179.66Z"/><path class="cls-3" d="M11.44,197.8c-1.77,1.75-.15,5.84,3.35,9.38s7.58,5.19,9.35,3.44.15-5.84-3.35-9.38S13.21,196.05,11.44,197.8Z"/><path class="cls-3" d="M33.14,201.3c-3.54,3.51-5.2,7.58-3.44,9.35s5.83.15,9.37-3.36,5.2-7.57,3.44-9.34S36.68,197.8,33.14,201.3Z"/><path class="cls-3" d="M27.06,136.48c-2.49,0-4.23,4-4.25,9s1.68,9,4.17,9,4.23-4,4.26-9S29.55,136.49,27.06,136.48Z"/><rect class="cls-4" x="26.34" y="156.62" width="1.25" height="202.36"/><path class="cls-4" d="M48.72,342.11H5.22l-1-11.25h45.6ZM6.36,340.86H47.58l.82-8.75H5.54Z"/><path class="cls-5" d="M487.71,205.57a1.38,1.38,0,0,1,1-1.78s-3.93,1.14-4.38-.4c-.35-1.23,1.1-2,1.1-2s-3.39,1-3.83-.56,2.94-2.52,2.94-2.52a1.59,1.59,0,0,1-2-1.09c-.62-2.15,7.21-3.75,7.21-3.75s-3.67-.82-3.41-2.68c.29-2.07,14.82-.61,14.82-.61.78.14,4.44,10.63,4.29,11.42l-9.59,3.1-.77.22S488.41,207.2,487.71,205.57Z"/><line class="cls-6" x1="483.9" y1="198.51" x2="491.28" y2="196.38"/><rect class="cls-4" x="483.75" y="196.82" width="7.68" height="1.25" transform="translate(-35.67 143.36) rotate(-16.14)"/><line class="cls-6" x1="484.79" y1="201.59" x2="492.17" y2="199.45"/><rect class="cls-4" x="484.64" y="199.89" width="7.68" height="1.25" transform="translate(-36.41 142.94) rotate(-16.06)"/><line class="cls-6" x1="488.14" y1="203.95" x2="493.06" y2="202.53"/><rect class="cls-4" x="488.04" y="202.61" width="5.12" height="1.25" transform="translate(-37.16 144.38) rotate(-16.14)"/><path class="cls-7" d="M552.59,142.19c-7.54,29.94-25.33,38.25-52.77,45.59-.27.07,4.76,15.8,5,15.72,9-2.6,60.63-7.17,65.71-72.88C570.56,130.62,553.46,138.73,552.59,142.19Z"/><path class="cls-5" d="M586.61,128.61h0a5.38,5.38,0,0,1-5.5-5.26l-.26-3.17-.2-16.27,10.76-.25.46,19.44A5.39,5.39,0,0,1,586.61,128.61Z"/><path class="cls-5" d="M579.91,117.79c-9.22-.1-13.36-9.46-12.64-19.35.88-12,7.61-22.09,19.84-19.73C609.39,83,602.63,118,579.91,117.79Z"/><path class="cls-4" d="M585.86,98.26a1.09,1.09,0,1,1-.93-1.23A1.09,1.09,0,0,1,585.86,98.26Z"/><path class="cls-4" d="M574.33,97.76a1.1,1.1,0,1,1-.94-1.23A1.09,1.09,0,0,1,574.33,97.76Z"/><path class="cls-4" d="M587.66,96.77a4,4,0,0,0-2.72-2.23,3.1,3.1,0,0,0-2.73,1l-.87-.89a4.3,4.3,0,0,1,3.8-1.35,5.14,5.14,0,0,1,3.64,2.9Z"/><path class="cls-4" d="M579.25,103.16l-4.31-.25.31-7.36a2.46,2.46,0,0,0-1.85-1.5,3.29,3.29,0,0,0-2.74,1.44l-1-.78a4.46,4.46,0,0,1,3.86-1.9,3.75,3.75,0,0,1,2.9,2.34l.07.14-.27,6.44,3.09.19Z"/><path class="cls-4" d="M584.39,75.67c-18.85.82-19.27,10.91-9.54,13.87,3.43,1,18.09-2.54,19.49,3.16.95,3.84-.26,10.71-4.63,10-8.19-1.42-21.41-1-22.94,3.06-2.32,6.21,3.15,13.27,11.36,14.71s19.42-2.89,22.32-16.1C602.34,95.66,603.89,74.82,584.39,75.67Z"/><path class="cls-5" d="M598.94,95.42l-.67,9h.15a4.57,4.57,0,0,0,.52-9Z"/><path class="cls-5" d="M578.8,107.37a5.75,5.75,0,0,1-3.49-1.19l.74-1a4.57,4.57,0,0,0,3.65.86,5.52,5.52,0,0,0,3.58-2.49l1.07.65a6.74,6.74,0,0,1-4.42,3.06A5.48,5.48,0,0,1,578.8,107.37Z"/><polygon class="cls-5" points="658.17 368.56 668.66 359.05 650.23 312.72 628.82 319.05 658.17 368.56"/><polygon class="cls-5" points="646.04 382.07 674.11 370.16 668.66 359.05 644.55 381 646.04 382.07"/><polygon class="cls-8" points="657.44 369.27 671.18 362.77 674.78 370.5 646.04 382.07 644.55 381 657.44 369.27"/><polygon class="cls-4" points="644 381.23 649.95 375.53 651.3 378.47 674.25 368.43 675.42 370.85 644.84 382.77 644 381.23"/><path class="cls-8" d="M656.59,372.82l3.3-2.27s-1.73-6.29-3.31-5.72C654.75,365.48,656.59,372.82,656.59,372.82Z"/><path class="cls-2" d="M645.35,357.16,667.27,348l-23.91-62.6-4.92-86s-15.27-23.06-43.58-22h0l5.48,48.88L611,285.48Z"/><polygon class="cls-5" points="582.49 374.96 596.76 368.68 598.66 321.05 580.17 331.7 582.49 374.96"/><polygon class="cls-5" points="567.32 381.91 597.79 381 596.76 368.68 566.32 380.37 567.32 381.91"/><polygon class="cls-8" points="582.59 374.12 597.75 373.05 598.3 381.56 567.32 381.91 566.32 380.37 582.59 374.12"/><polygon class="cls-4" points="565.73 380.38 573.34 377.24 573.53 380.46 598.55 379.44 598.77 382.12 565.95 382.12 565.73 380.38"/><path class="cls-8" d="M580.51,377.12l3.9-.92s.67-6.49-1-6.53C581.46,369.61,580.51,377.12,580.51,377.12Z"/><path class="cls-2" d="M600.09,365.56l-21.6-.24L563.92,197.23s14.86-19.78,30.67-19.78l5.75,3.53Z"/><polygon class="cls-4" points="600.71 365.56 599.46 365.56 599.72 226.77 591.13 223.02 591.63 221.87 600.97 225.96 600.97 226.37 600.71 365.56"/><path class="cls-4" d="M633.39,223.59a17.09,17.09,0,0,1-14.37-8l1.07-.64a15.75,15.75,0,0,0,15,7.33l.15,1.24A13.89,13.89,0,0,1,633.39,223.59Z"/><polygon class="cls-5" points="597.4 133.94 577.79 134.9 577.16 123.7 595.6 122.3 597.4 133.94"/><path class="cls-7" d="M625.52,142.37c-3.15-13.52-16.6-22.53-30.17-20.84l-1.09.13a8.11,8.11,0,0,1-7.28,7.17c-.24,0-.48,0-.72,0h0a9.27,9.27,0,0,1-8.57-5.44l-2.64.25c-13.65,1.21-23.82,12.74-22.62,26.46q3.21,33.39,6.41,66.78l81.48-8.68Q632.91,175.31,625.52,142.37Z"/><path class="cls-4" d="M558.21,217l-6.4-66.78c-1.22-14,9-25.88,23.18-27.14l.12,1.24c-13.53,1.2-23.21,12.53-22.05,25.79l6.4,66.77Z"/><path class="cls-4" d="M586.11,136.12a13.58,13.58,0,0,1-11.65-6.37l1.06-.66a12.38,12.38,0,0,0,13.38,5.49l.25,1.23A15.08,15.08,0,0,1,586.11,136.12Z"/><circle class="cls-3" cx="502.14" cy="290.61" r="93.27" transform="translate(-58.42 440.19) rotate(-45)"/><circle class="cls-2" cx="502.14" cy="290.61" r="83.49" transform="translate(-58.42 440.19) rotate(-45)"/><path class="cls-6" d="M540.35,216.44,428,328.82a83.88,83.88,0,0,0,35.64,36l112.7-112.71A83.86,83.86,0,0,0,540.35,216.44Z"/><polygon class="cls-4" points="501.61 290.51 501.61 233.98 502.86 233.98 502.86 288.59 531.29 275.91 531.8 277.05 501.61 290.51"/><path class="cls-4" d="M502.14,366.37a75.76,75.76,0,1,1,75.76-75.76A75.84,75.84,0,0,1,502.14,366.37Zm0-150.27a74.51,74.51,0,1,0,74.51,74.51A74.59,74.59,0,0,0,502.14,216.1Z"/><path class="cls-5" d="M556.81,222.08a1.39,1.39,0,0,1,.41-2s-3.42,2.25-4.3.91c-.7-1.07.46-2.22.46-2.22s-2.94,1.93-3.82.6,2.07-3.27,2.07-3.27a1.61,1.61,0,0,1-2.22-.46c-1.23-1.88,5.79-5.71,5.79-5.71s-3.75.29-4.05-1.56c-.33-2.07,14-5,14-5,.8-.09,7.39,8.85,7.48,9.64l-8.26,5.8-.67.44S558,223.42,556.81,222.08Z"/><line class="cls-6" x1="551.09" y1="216.45" x2="557.51" y2="212.24"/><rect class="cls-4" x="550.46" y="213.72" width="7.68" height="1.25" transform="translate(-26.75 339.15) rotate(-33.26)"/><line class="cls-6" x1="552.85" y1="219.13" x2="559.27" y2="214.91"/><rect class="cls-4" x="552.22" y="216.39" width="7.68" height="1.25" transform="translate(-27.92 340.58) rotate(-33.27)"/><line class="cls-6" x1="556.74" y1="220.4" x2="561.02" y2="217.59"/><rect class="cls-4" x="556.32" y="218.37" width="5.12" height="1.25" transform="translate(-28.54 342.45) rotate(-33.27)"/><path class="cls-7" d="M599.84,138.62c3,33.54-11.69,47.17-36.71,62.88-.23.15,9.2,13.69,9.45,13.54,4.33-2.64,55.95-22.61,44.7-83.48"/><path class="cls-4" d="M572.56,215.71c-.46,0-1.16-.94-4.48-5.66-1.82-2.59-4.2-6.06-5.12-7.55-.39-.63-.73-1.17-.16-1.53,27-16.93,39.29-30.58,36.42-62.3l1.24-.11c3.17,35-13.84,48.88-36.51,63.17,1.27,2.1,7.32,10.77,8.74,12.53l1.47-.74c43.62-21.7,47.19-56.49,42.51-81.85l1.23-.22c4.76,25.78,1.14,61.14-43.18,83.19-.87.43-1.5.74-1.82.94A.69.69,0,0,1,572.56,215.71Z"/><rect class="cls-3" x="441.31" y="6.84" width="121.18" height="67" rx="33.5" transform="translate(1003.79 80.68) rotate(-180)"/><polygon class="cls-3" points="541.1 93.09 535.4 61.01 510.45 71.7 541.1 93.09"/><rect class="cls-4" x="518.72" y="24.9" width="19.52" height="1.25"/><rect class="cls-4" x="465.05" y="34.66" width="73.19" height="1.25"/><rect class="cls-4" x="465.05" y="44.42" width="17.08" height="1.25"/><rect class="cls-4" x="489.45" y="44.42" width="48.79" height="1.25"/><rect class="cls-4" x="489.45" y="54.18" width="48.79" height="1.25"/><path class="cls-4" d="M261.07,196.93a19,19,0,0,0-17.47-17.26l-73.41-5.57-2.8,35.75,93.66,4.65Z"/><polygon class="cls-4" points="72.49 212.31 96.53 383.4 325.76 383.4 306.87 248.93 301.72 212.31 72.49 212.31"/><polygon class="cls-8" points="296.2 248.93 66.97 248.93 72.12 212.31 301.35 212.31 296.2 248.93"/><polygon class="cls-6" points="277.3 383.4 48.07 383.4 66.94 249.12 296.18 249.12 277.3 383.4"/><path class="cls-4" d="M277.85,384H47.35L66.4,248.49H296.89l-.1.71ZM48.79,382.77h228l18.7-133h-228Z"/><polygon class="cls-3" points="247.61 316.3 217.37 316.3 221.52 286.78 251.76 286.78 247.61 316.3"/><polygon class="cls-3" points="183.07 345.53 152.83 345.53 156.98 316 187.22 316 183.07 345.53"/><polygon class="cls-8" points="122.79 345.53 92.55 345.53 96.7 316 126.94 316 122.79 345.53"/><path class="cls-4" d="M101.36,287.49H69.86l4.32-30.78h31.51ZM71.3,286.24h29l4-28.28h-29Z"/><path class="cls-4" d="M131.55,287.49H100l4.33-30.78h31.5Zm-30.07-1.25h29l4-28.28h-29Z"/><path class="cls-4" d="M161.73,287.49h-31.5l4.32-30.78h31.51Zm-30.06-1.25h29l4-28.28h-29Z"/><path class="cls-4" d="M191.92,287.49h-31.5l4.32-30.78h31.5Zm-30.07-1.25h29l4-28.28h-29Z"/><path class="cls-4" d="M222.1,287.49H190.6l4.33-30.78h31.5ZM192,286.24h29L225,258H196Z"/><path class="cls-4" d="M252.29,287.49h-31.5l4.32-30.78h31.5Zm-30.07-1.25h29l4-28.28h-29Z"/><path class="cls-4" d="M282.48,287.49H251l4.33-30.78h31.5Zm-30.07-1.25h29l4-28.28h-29Z"/><path class="cls-4" d="M97.22,316.93H65.72l4.33-30.78h31.5Zm-30.06-1.25h29l4-28.28h-29Z"/><path class="cls-4" d="M127.41,316.93H95.91l4.32-30.78h31.5Zm-30.07-1.25h29l4-28.28h-29Z"/><path class="cls-4" d="M157.6,316.93H126.09l4.33-30.78h31.5Zm-30.07-1.25h29l4-28.28h-29Z"/><path class="cls-4" d="M187.78,316.93h-31.5l4.32-30.78h31.51Zm-30.06-1.25h29l4-28.28h-29Z"/><path class="cls-4" d="M218,316.93H186.46l4.33-30.78h31.5Zm-30.07-1.25h29l4-28.28h-29Z"/><path class="cls-4" d="M278.34,316.93h-31.5l4.32-30.78h31.5Zm-30.07-1.25h29l4-28.28h-29Z"/><path class="cls-4" d="M93.09,346.36H61.58l4.33-30.77h31.5ZM63,345.11H92l4-28.27H67Z"/><path class="cls-4" d="M123.27,346.36H91.77l4.32-30.77H127.6Zm-30.06-1.25h29l4-28.27h-29Z"/><path class="cls-4" d="M153.46,346.36H122l4.32-30.77h31.5Zm-30.07-1.25h29l4-28.27h-29Z"/><path class="cls-4" d="M183.64,346.36h-31.5l4.33-30.77H188Zm-30.06-1.25h29l4-28.27h-29Z"/><path class="cls-4" d="M213.83,346.36h-31.5l4.32-30.77h31.5Zm-30.07-1.25h29l4-28.27h-29Z"/><path class="cls-4" d="M244,346.36H212.51l4.33-30.77h31.5ZM214,345.11h29l4-28.27h-29Z"/><path class="cls-4" d="M274.2,346.36H242.7L247,315.59h31.51Zm-30.06-1.25h29l4-28.27h-29Z"/><path class="cls-4" d="M89,375.8H57.45L61.77,345h31.5Zm-30.07-1.25h29l4-28.28h-29Z"/><path class="cls-4" d="M119.14,375.8H87.63L92,345h31.5Zm-30.07-1.25h29l4-28.28H93Z"/><path class="cls-4" d="M149.32,375.8h-31.5L122.14,345h31.51Zm-30.06-1.25h29l4-28.28h-29Z"/><path class="cls-4" d="M179.51,375.8H148L152.33,345h31.5Zm-30.07-1.25h29l4-28.28h-29Z"/><path class="cls-4" d="M209.69,375.8h-31.5L182.51,345H214Zm-30.06-1.25h29l4-28.28h-29Z"/><path class="cls-4" d="M239.88,375.8h-31.5L212.7,345h31.5Zm-30.07-1.25h29l4-28.28h-29Z"/><path class="cls-4" d="M270.06,375.8h-31.5L242.89,345h31.5ZM240,374.55h29l4-28.28H244Z"/><path class="cls-4" d="M194.9,97.57l-21.43,5.09c8,22.39,29.35,42.23,59.59,45.84A83.73,83.73,0,0,0,248,125.42C221.82,127.76,202.55,113.67,194.9,97.57Z"/><path class="cls-6" d="M199.3,213.06H144.39c-16.78,0-19.82-11.75-19.61-19.61s3.37-30.81,3.37-30.81l71.15,4.48Z"/><path class="cls-4" d="M199.93,213.69H144.39c-6.63,0-11.75-1.81-15.22-5.38-4.59-4.71-5.11-11.34-5-14.87.21-7.69,3.34-30.66,3.37-30.89l.08-.57,72.32,4.55ZM128.69,163.3c-.49,3.62-3.09,23.23-3.28,30.17-.09,3.34.39,9.58,4.65,14,3.23,3.32,8.05,5,14.33,5h54.29V167.71Z"/><polygon class="cls-5" points="191.98 279.84 180.08 272.02 195.36 224.53 212.35 226.37 191.98 279.84"/><polygon class="cls-5" points="203.67 290.13 174.61 281.47 180.86 270.38 205.3 288.97 203.67 290.13"/><polygon class="cls-8" points="192.24 279.03 178.04 274.15 173.88 281.86 203.67 290.13 205.3 288.97 192.24 279.03"/><polygon class="cls-4" points="205.87 289.14 199.85 284.28 198.29 287.2 174.54 279.83 173.19 282.25 204.91 290.69 205.87 289.14"/><path class="cls-8" d="M193,282.33l-3.38-1.84s2.12-6.16,3.76-5.77C195.25,275.17,193,282.33,193,282.33Z"/><path class="cls-6" d="M144.39,213.06l46.51,1.12L175.71,261,208,270.11l20.7-66.37c3.66-12.17-5.54-20.33-14.68-21l-56.16-5.56"/><path class="cls-4" d="M208.4,270.88l-33.48-9.48L190,214.79l-45.66-1.1,0-1.25,47.34,1.14-15.24,47,31.06,8.79,20.52-65.78c1.86-6.2.11-10.63-1.69-13.25a16.9,16.9,0,0,0-12.45-7l-56.17-5.57.12-1.24,56.16,5.56a18.18,18.18,0,0,1,13.37,7.52c1.95,2.84,3.86,7.63,1.85,14.31Z"/><path class="cls-4" d="M189.46,264.82l-1.19-.38,19.47-61.92-56.59-1.16c-8.21,0-13.42-1.45-16.37-4.56-3.55-3.73-3.25-9.39-2.94-15.38l0-.32c.4-7.67,3.18-30.63,3.2-30.86l1.25.15c0,.23-2.81,23.14-3.2,30.77l0,.32c-.31,6-.58,11.12,2.59,14.46,2.67,2.81,7.73,4.17,15.48,4.17l58.28,1.2Z"/><rect class="cls-5" x="151.36" y="85.01" width="22.53" height="11.57"/><path class="cls-7" d="M199.78,108.59c-.26-13.77-11.59-24.16-25.29-23.92l-2.21,0a9.25,9.25,0,0,1-8.39,8.56h0q-.36,0-.72,0a8.13,8.13,0,0,1-8.2-7.94l0-.67h-.87c-13.68-.23-26.1,10.15-27.8,23.92-2.58,22.36-5.37,67.14-5.37,67.14l79.58-.06Q200.13,142.13,199.78,108.59Z"/><path class="cls-4" d="M199.86,153.82c-.12-11.17-.24-17-.35-22.6s-.24-11.44-.35-22.62a23.48,23.48,0,0,0-.95-6.27,23.18,23.18,0,0,0-2.46-5.58,23.6,23.6,0,0,0-8.57-8.27,24,24,0,0,0-5.67-2.32,24.6,24.6,0,0,0-6.25-.87l-2,0h-.41a9.82,9.82,0,0,1-8.9,8.56,8.79,8.79,0,0,1-9.6-8.51c0-.22,0-.48,0-.7l1.25,0c0,.19,0,.43,0,.62a7.56,7.56,0,0,0,8.25,7.31,8.66,8.66,0,0,0,7.81-8l0-.58,1.55,0,2,0a26.28,26.28,0,0,1,6.57.91,25.06,25.06,0,0,1,15,11.15,24.83,24.83,0,0,1,3.59,12.48c.11,11.18.23,17,.35,22.61s.23,11.44.35,22.62Z"/><rect class="cls-4" x="160.17" y="136.41" width="1.25" height="65.25" transform="translate(-16.98 320.11) rotate(-86.79)"/><path class="cls-5" d="M192.23,142.09a32.18,32.18,0,0,0-11.29-2.44v13.12c6.55.15,13.52.28,19.73.44C200.35,148.25,196.58,144.11,192.23,142.09Z"/><path class="cls-7" d="M122.29,137.51c-7.87-15.73.29-40.1,19.32-50.06,0,0,8,10,12.51,14C127.3,131.3,144.4,139,182.66,133.66l1.7,20.46s-24.44,2.22-31.18,1.24C141.23,153.64,128.22,149.37,122.29,137.51Z"/><path class="cls-4" d="M164,156.71c-15,0-34-3.37-42.24-18.9-6.45-12.12-3.43-33,12.77-46.94l.82.95c-15.73,13.54-18.7,33.72-12.49,45.4,13.25,24.92,55.6,17.44,60.85,16.4-.24-2.87-1.33-16.06-1.59-19.23-22,3.91-37.11,1.79-41.56-5.85-3.18-5.46-.72-13.09,7.29-22.67l1,.81c-7.53,9-10,16.34-7.17,21.23,4.15,7.13,19.45,9.05,40.93,5.13l.68-.12.06.68C185,154.09,185,154.09,185,154.12v.5l-.48.11A107.57,107.57,0,0,1,164,156.71Z"/><polygon class="cls-2" points="206.73 109.96 196.68 152.4 169.22 154.01 168.61 158.43 256.84 158.43 267.92 109.96 206.73 109.96"/><path class="cls-4" d="M232.32,139.25a5,5,0,0,1-3.87-1.75,5.9,5.9,0,0,1-1.2-4.82c.57-3.52,3.71-6.38,7-6.38a5,5,0,0,1,3.88,1.75,5.93,5.93,0,0,1,1.2,4.83C238.73,136.39,235.6,139.25,232.32,139.25Zm1.91-11.7c-2.69,0-5.27,2.39-5.75,5.33a4.7,4.7,0,0,0,.92,3.81,3.75,3.75,0,0,0,2.92,1.31,6.26,6.26,0,0,0,5.75-5.32,4.7,4.7,0,0,0-.91-3.82A3.79,3.79,0,0,0,234.23,127.55Z"/><polygon class="cls-4" points="169.26 154.64 169.18 153.39 196.17 151.8 206.12 109.81 207.34 110.1 197.18 152.99 169.26 154.64"/><path class="cls-5" d="M254.66,153.72a1.4,1.4,0,0,1,1.57-1.31s-4.08-.36-3.94-2c.12-1.27,1.74-1.45,1.74-1.45s-3.51-.31-3.36-1.91,3.65-1.27,3.65-1.27a1.6,1.6,0,0,1-1.45-1.74c.2-2.23,7.27-1.26,9.28.18,3.06,2.18.63,10.14-2.24,11.76C258.67,156.73,254.73,155.49,254.66,153.72Z"/><line class="cls-6" x1="253.68" y1="145.76" x2="261.33" y2="146.45"/><rect class="cls-4" x="256.88" y="142.26" width="1.25" height="7.68" transform="translate(88.86 389.44) rotate(-84.85)"/><line class="cls-6" x1="253.39" y1="148.94" x2="261.04" y2="149.63"/><rect class="cls-4" x="256.59" y="145.45" width="1.25" height="7.68" transform="translate(85.42 392.06) rotate(-84.85)"/><line class="cls-6" x1="255.65" y1="152.36" x2="260.75" y2="152.82"/><rect class="cls-4" x="257.58" y="150.03" width="1.25" height="5.12" transform="translate(83.03 396.04) rotate(-84.85)"/><path class="cls-5" d="M163.23,91.61h0A5.71,5.71,0,0,0,169,86.23l0-3.13,0-16.27L158,66.72l-.2,19.45A5.43,5.43,0,0,0,163.23,91.61Z"/><polygon class="cls-4" points="169.01 84.41 154.93 74.46 169.89 65.49 169.01 84.41"/><path class="cls-5" d="M169.7,80.71c9.22-.22,13.24-9.64,12.39-19.52-1-12-7.9-22-20.09-19.47C139.77,46.3,147,81.25,169.7,80.71Z"/><path class="cls-4" d="M163.5,61.25a1.09,1.09,0,1,0,.91-1.24A1.09,1.09,0,0,0,163.5,61.25Z"/><path class="cls-4" d="M175,60.6a1.09,1.09,0,1,0,.91-1.24A1.09,1.09,0,0,0,175,60.6Z"/><path class="cls-4" d="M161.68,59.78l-1.12-.54a5.15,5.15,0,0,1,3.59-3,4.37,4.37,0,0,1,3.83,1.3l-.87.91a3.11,3.11,0,0,0-2.74-1A4,4,0,0,0,161.68,59.78Z"/><path class="cls-4" d="M170.6,70.27a6.41,6.41,0,0,1-1.06-.09,6.76,6.76,0,0,1-4.45-3l1-.67A5.52,5.52,0,0,0,169.76,69a4.59,4.59,0,0,0,3.64-.9l.75,1A5.73,5.73,0,0,1,170.6,70.27Z"/><path class="cls-4" d="M172.5,66.73l-.19-1.23,1.77-.27-1.29-7.07.08-.18a3.73,3.73,0,0,1,2.87-2.34,4.45,4.45,0,0,1,3.89,1.85l-1,.79a3.28,3.28,0,0,0-2.77-1.4,2.42,2.42,0,0,0-1.8,1.46l1.46,7.93Z"/><path class="cls-4" d="M150.17,65.36l8.49-12s21.59,2.54,25.58-3c3-4.26,0-11.57-11.57-11.57C128.35,38.74,150.17,65.36,150.17,65.36Z"/><path class="cls-5" d="M154.83,63.91a4.57,4.57,0,1,1-4.13-5A4.58,4.58,0,0,1,154.83,63.91Z"/><path class="cls-4" d="M154.4,63.7c-2.56.38-6.7-7.91-6.7-7.91,0-1.85,11.32-6.7,11.57-4.87C159.27,50.92,157,63.32,154.4,63.7Z"/><path class="cls-4" d="M268.87,234.81A23.16,23.16,0,1,1,292,211.66h-1.25a21.91,21.91,0,1,0-21.9,21.9Z"/><circle class="cls-4" cx="268.56" cy="234.49" r="3.96"/><path class="cls-4" d="M88,234.81a23.16,23.16,0,1,1,23.16-23.15h-1.25A21.91,21.91,0,1,0,88,233.56Z"/><circle class="cls-4" cx="87.73" cy="234.49" r="3.96"/><path class="cls-4" d="M138.57,235.42A23.16,23.16,0,0,1,124.39,194l.77,1a21.9,21.9,0,0,0,13.41,39.22Z"/><circle class="cls-4" cx="138.27" cy="235.1" r="3.96"/><path class="cls-4" d="M214.65,76.82l2.24-12.62a19.89,19.89,0,0,1,5.6-39h31.14a19.89,19.89,0,1,1,0,39.77h-22Zm7.84-50.34a18.64,18.64,0,0,0-4.73,36.66l.56.15-1.91,10.77,14.78-10.31h22.44a18.64,18.64,0,1,0,0-37.27Z"/><path class="cls-8" d="M339.81,85c.22-.9,4.25-3,9.36-5.73,2.92-1.54,6.18-3.26,9.6-5.19H325.14c2.91,4.31,5.12,7.64,4.91,8.48-5.34,21.35-20,28.12-31.84,33.55-8.62,4-16.07,7.4-18,15.25l-2.54,10.16,80.69,20.16,2.54-10.16c2-7.85-3-14.38-8.74-21.94C344.26,119.26,334.47,106.38,339.81,85Z"/><path class="cls-4" d="M358.65,162.23l-81.54-20.36,5.59-22.38c3.35-13.39,24.92-24.77,37.8-31.57,4.34-2.29,8.82-4.66,9.13-5.44.09-.83-2.75-5-5.5-9.08C316,61.34,302.27,41.16,305.62,27.76l5.59-22.37,81.53,20.36-5.59,22.38c-3.34,13.39-24.91,24.77-37.8,31.57-4.33,2.29-8.82,4.66-9.12,5.44-.1.82,2.75,5,5.5,9.08,8.17,12.06,21.85,32.24,18.5,45.64Zm-80-21.27,79.11,19.76L363,139.56c3.21-12.86-10.27-32.75-18.33-44.64-4.26-6.28-6-8.88-5.67-10.09s3-2.69,9.75-6.23c12.7-6.71,34-17.92,37.17-30.78l5.29-21.16L312.12,6.9l-5.29,21.16c-3.21,12.86,10.28,32.75,18.33,44.64,4.26,6.28,6,8.88,5.68,10.09s-3,2.69-9.75,6.23c-12.71,6.7-34,17.92-37.17,30.78Z"/><path class="cls-4" d="M327.83,71.24c-6.68-9.89-20.58-30.48-17.26-43.79l1.22.3c-3.19,12.78,10.5,33.05,17.08,42.79Z"/><rect class="cls-3" x="307.39" y="10.6" width="88.84" height="11.26" transform="translate(14.42 -84.78) rotate(14.03)"/><rect class="cls-3" x="273.73" y="145.35" width="88.84" height="11.26" transform="translate(46.08 -72.61) rotate(14.03)"/><path class="cls-4" d="M378.14,157.6c-23.5,0-40-12.95-47.85-19.12-1.25-1-2.24-1.76-3-2.24-.48-.32-.36-.67.26-1.74L320,129.69c-1.94-1.18-6.39-4.15-5.44-6a1.75,1.75,0,0,1,.74-.76c-1-.93-1.94-2.22-1.21-3.31a1.91,1.91,0,0,1,1-.76l0,0c-1.31-1.38-1.13-2.35-.75-2.92s1.21-1.1,3-.41h0a2.21,2.21,0,0,1,.37-1.17,1.54,1.54,0,0,1,1.09-.67c1.47-.23,4,1.25,5.64,2.4-.26-1.14-.25-2.46.83-3.13.58-.36,2.08-1.3,9.88,9.76,1-1.41,1.05-1.42,1.31-1.47a.62.62,0,0,1,.48.1c20.78,14.56,35.83,21.39,55.84,15.84a.63.63,0,0,1,.77.44.62.62,0,0,1-.44.77c-20.33,5.64-35.57-1.15-56.42-15.7-.19.26-.5.71-1,1.47a.64.64,0,0,1-.52.28.66.66,0,0,1-.52-.27c-4.65-6.67-7.92-10.14-8.76-10.14h0c-.76.5,0,2.57.43,3.5a.61.61,0,0,1-.16.76.63.63,0,0,1-.79,0c-1.78-1.41-5.09-3.59-6.36-3.39a.32.32,0,0,0-.24.13,1,1,0,0,0,.26,1.35h0a.62.62,0,1,1-.7,1h0c-1-.66-2.6-1.32-3-.8-.25.37.35,1.08.62,1.36a7.77,7.77,0,0,0,1.24,1.06.62.62,0,0,1,.2.82.63.63,0,0,1-.79.28s-1-.41-1.46.2c-.31.46,1,1.85,2.34,2.75h0a.63.63,0,1,1-.7,1h0a.92.92,0,0,0-.72-.13.57.57,0,0,0-.37.28c-.24.49,1.93,2.57,5,4.43l.69.46,7.44,4.67a.62.62,0,0,1,.21.84c-.25.43-.41.71-.51.9.7.5,1.56,1.18,2.6,2,9.48,7.45,31.69,24.89,63.63,16.72a.63.63,0,0,1,.77.45.64.64,0,0,1-.45.76A67.66,67.66,0,0,1,378.14,157.6Z"/><polygon class="cls-9" points="427.56 376.43 440.39 369.88 437.89 322.91 421.02 322.98 427.56 376.43"/><polygon class="cls-9" points="411.8 382.43 443.02 382.43 440.39 369.88 410.69 380.86 411.8 382.43"/><path class="cls-4" d="M421.93,376.13c5.32,8.86,20,.09,20,.09l1.35,6.41H410.44l-.34-1.77Z"/><path class="cls-8" d="M410.58,345.38h39.81S452.08,174,389.9,176.31h0Z"/><path class="cls-4" d="M442.74,345.39l-1.25,0c0-1.22.78-123-35.93-158.65-7-6.83-15.09-10.12-23.92-9.78l0-1.25c9.19-.35,17.55,3.06,24.83,10.14C443.53,221.89,442.75,344.16,442.74,345.39Z"/><path class="cls-4" d="M439.83,109.45c-.32,3.21-6,5.07-7,7.77-1.17,3,1.67,8-.25,10.29s-7.84.92-10.54,2.5-3.79,7.15-7,7.79-6.66-4-10-4.28-7.74,3.47-10.64,2.25-3-6.91-5.33-9-8.33-1.72-9.85-4.5,2.33-7,1.76-10.14c-.51-2.85-5.7-5.79-5.38-9s6-5.13,7.06-7.86c1.16-3-1.7-8,.21-10.37s7.89-1.06,10.57-2.7,3.72-7.25,6.92-8,6.75,3.86,10.11,4.19,7.82-3.41,10.73-2.14,2.89,7,5.24,9.15,8.32,1.88,9.83,4.71c1.42,2.67-2.37,7-1.81,10.21C435,103.25,440.15,106.22,439.83,109.45Z"/><polygon class="cls-9" points="380.85 376.43 393.68 369.88 391.18 322.91 374.31 322.98 380.85 376.43"/><polygon class="cls-9" points="365.09 382.43 396.31 382.43 393.68 369.88 363.98 380.86 365.09 382.43"/><path class="cls-4" d="M375.22,376.13c5.32,8.86,20,.09,20,.09l1.35,6.41H363.73l-.34-1.77Z"/><path class="cls-8" d="M403,345.34H363.16s-27-169.07,30.95-169.07h0Z"/><polygon class="cls-4" points="402.17 345.25 395.49 214.5 387.4 211.21 387.87 210.05 396.69 213.64 396.71 214.04 403.42 345.18 402.17 345.25"/><path class="cls-6" d="M352.53,195.47c9.52-39.14,27.27-67.44,53.24-63.21,27.13,4.42,33.82,36.7,30.43,76.84Z"/><g class="cls-10"><rect class="cls-3" x="331.13" y="123.05" width="2.5" height="8" transform="translate(7.51 272.24) rotate(-45)"/><rect class="cls-3" x="356.01" y="123.06" width="2.5" height="8" transform="translate(14.79 289.82) rotate(-45)"/><rect class="cls-3" x="343.76" y="112.42" width="8" height="2.5" transform="translate(21.48 279.19) rotate(-45)"/><rect class="cls-3" x="331.13" y="149.83" width="2.5" height="8" transform="translate(-11.42 280.08) rotate(-45)"/><rect class="cls-3" x="356.01" y="149.83" width="2.5" height="8" transform="translate(-4.14 297.66) rotate(-45)"/><rect class="cls-3" x="380.89" y="149.83" width="2.5" height="8" transform="translate(3.14 315.25) rotate(-45)"/><rect class="cls-3" x="405.77" y="149.83" width="2.5" height="8" transform="translate(10.45 332.88) rotate(-45)"/><rect class="cls-3" x="430.65" y="149.83" width="2.5" height="8" transform="translate(17.74 350.48) rotate(-45)"/><rect class="cls-3" x="418.4" y="139.19" width="8" height="2.5" transform="translate(24.41 339.82) rotate(-45)"/><rect class="cls-3" x="393.52" y="139.19" width="8" height="2.5" transform="translate(17.12 322.22) rotate(-45)"/><rect class="cls-3" x="368.64" y="139.19" width="8" height="2.5" transform="translate(9.83 304.62) rotate(-45)"/><rect class="cls-3" x="343.76" y="139.19" width="8" height="2.5" transform="translate(2.54 287.03) rotate(-45)"/><rect class="cls-3" x="360.57" y="180.05" width="2.5" height="8" transform="translate(-24.16 309.77) rotate(-45)"/><rect class="cls-3" x="380.89" y="176.61" width="2.5" height="8" transform="translate(-15.79 323.1) rotate(-45)"/><rect class="cls-3" x="405.77" y="176.61" width="2.5" height="8" transform="translate(-8.49 340.73) rotate(-45)"/><rect class="cls-3" x="430.65" y="176.61" width="2.5" height="8" transform="translate(-1.2 358.32) rotate(-45)"/><rect class="cls-3" x="443.28" y="165.97" width="8" height="2.5" transform="translate(12.76 365.25) rotate(-45)"/><rect class="cls-3" x="418.4" y="165.97" width="8" height="2.5" transform="translate(5.48 347.66) rotate(-45)"/><rect class="cls-3" x="393.52" y="165.97" width="8" height="2.5" transform="translate(-1.81 330.07) rotate(-45)"/><rect class="cls-3" x="368.64" y="165.97" width="8" height="2.5" transform="translate(-9.1 312.46) rotate(-45)"/><rect class="cls-3" x="430.65" y="203.38" width="2.5" height="8" transform="translate(-20.14 366.15) rotate(-45)"/><rect class="cls-3" x="443.28" y="192.75" width="8" height="2.5" transform="translate(-6.17 373.11) rotate(-45)"/><rect class="cls-3" x="418.4" y="192.75" width="8" height="2.5" transform="translate(-13.45 355.51) rotate(-45)"/><rect class="cls-3" x="393.52" y="192.75" width="8" height="2.5" transform="translate(-20.74 337.92) rotate(-45)"/><rect class="cls-3" x="368.64" y="192.75" width="8" height="2.5" transform="translate(-28.03 320.31) rotate(-45)"/><rect class="cls-3" x="343.76" y="192.75" width="8" height="2.5" transform="translate(-35.32 302.72) rotate(-45)"/></g><path class="cls-4" d="M436.76,209.83l-85-13.85.16-.65c10.93-45,30.09-67.58,53.95-63.69,13,2.12,22.13,10.68,27.15,25.44,4.36,12.81,5.63,30.33,3.8,52.07ZM353.29,195l82.34,13.41c1.74-21.26.46-38.38-3.79-50.89-4.86-14.3-13.67-22.58-26.17-24.62C374.75,127.84,359.62,169.29,353.29,195Z"/><path class="cls-9" d="M402.1,138.59h0a5.38,5.38,0,0,1-4.32-6.26l.39-3.16,3.11-16,10.58,1.93-3.5,19.14A5.38,5.38,0,0,1,402.1,138.59Z"/><polygon class="cls-4" points="395.87 131.33 413.43 123.32 400.44 111.67 395.87 131.33"/><path class="cls-9" d="M397.73,126.64c-9-2-11.16-12-8.44-21.51,3.28-11.55,11.92-20.09,23.42-15.3C433.66,98.55,419.93,131.5,397.73,126.64Z"/><path class="cls-4" d="M407.52,108.72a1.09,1.09,0,1,1-.66-1.39A1.08,1.08,0,0,1,407.52,108.72Z"/><path class="cls-4" d="M396.33,105.89a1.09,1.09,0,1,1-.67-1.39A1.1,1.1,0,0,1,396.33,105.89Z"/><path class="cls-4" d="M409.59,107.63a4,4,0,0,0-2.22-2.74,3.14,3.14,0,0,0-2.87.44l-.68-1a4.35,4.35,0,0,1,4-.55,5.12,5.12,0,0,1,3,3.58Z"/><path class="cls-4" d="M400,116.34h-.1a5.78,5.78,0,0,1-4.31-2l.94-.83a4.54,4.54,0,0,0,3.39,1.58H400a5.55,5.55,0,0,0,3.94-1.71l.9.86A6.76,6.76,0,0,1,400,116.34Z"/><path class="cls-4" d="M397.64,112.39l-2.9-1,2.94-7.51a2.43,2.43,0,0,0-1.5-1.78,3.27,3.27,0,0,0-3,.85l-.8-1a4.5,4.5,0,0,1,4.17-1.08,3.76,3.76,0,0,1,2.37,2.85l.05.19-2.62,6.69,1.69.61Z"/><path class="cls-4" d="M427.17,93.44c-3.21-7.92-23.85-11.06-30.95-8.13-8.51,3.51-6.21,19.57,8.32,8.77-.24,8.15,7.83,13.62,14.19,11.19-12.39,20.19,3.11,17.23,5,12.84S430.38,101.36,427.17,93.44Z"/><rect class="cls-4" x="386.37" y="172.68" width="1.25" height="44.6" transform="translate(134.12 546.88) rotate(-81.04)"/><path class="cls-9" d="M329.23,109.33a1.38,1.38,0,0,1,2,.16s-2.66-3.12-1.45-4.16c1-.83,2.26.18,2.26.18s-2.28-2.68-1.07-3.71,3.51,1.64,3.51,1.64a1.6,1.6,0,0,1,.17-2.26c1.71-1.45,6.4,5,6.4,5s-.77-3.68,1-4.21c2-.59,6.67,13.24,6.67,13.24.19.77-7.86,8.43-8.63,8.62l-6.79-7.46-.52-.61S328,110.64,329.23,109.33Z"/><line class="cls-6" x1="334.09" y1="102.95" x2="339.07" y2="108.79"/><rect class="cls-4" x="335.96" y="102.03" width="1.25" height="7.68" transform="translate(11.8 243.76) rotate(-40.47)"/><line class="cls-6" x1="331.65" y1="105.03" x2="336.64" y2="110.87"/><rect class="cls-4" x="333.52" y="104.11" width="1.25" height="7.68" transform="translate(9.86 242.64) rotate(-40.46)"/><line class="cls-6" x1="330.88" y1="109.05" x2="334.2" y2="112.95"/><rect class="cls-4" x="331.92" y="108.44" width="1.25" height="5.12" transform="translate(7.5 242.34) rotate(-40.46)"/><path class="cls-6" d="M411,142.75c-28.55,4.23-43.09-8.43-60.55-29.73-.18-.21-12.44,10.85-12.25,11.07,6.06,7.1,29.62,52.37,91.49,31.12"/><g class="cls-11"><rect class="cls-3" x="331.13" y="123.05" width="2.5" height="8" transform="translate(7.51 272.24) rotate(-45)"/><rect class="cls-3" x="356.01" y="123.06" width="2.5" height="8" transform="translate(14.79 289.82) rotate(-45)"/><rect class="cls-3" x="343.76" y="112.42" width="8" height="2.5" transform="translate(21.48 279.19) rotate(-45)"/><rect class="cls-3" x="331.13" y="149.83" width="2.5" height="8" transform="translate(-11.42 280.08) rotate(-45)"/><rect class="cls-3" x="356.01" y="149.83" width="2.5" height="8" transform="translate(-4.14 297.66) rotate(-45)"/><rect class="cls-3" x="380.89" y="149.83" width="2.5" height="8" transform="translate(3.14 315.25) rotate(-45)"/><rect class="cls-3" x="405.77" y="149.83" width="2.5" height="8" transform="translate(10.45 332.88) rotate(-45)"/><rect class="cls-3" x="430.65" y="149.83" width="2.5" height="8" transform="translate(17.74 350.48) rotate(-45)"/><rect class="cls-3" x="418.4" y="139.19" width="8" height="2.5" transform="translate(24.41 339.82) rotate(-45)"/><rect class="cls-3" x="393.52" y="139.19" width="8" height="2.5" transform="translate(17.12 322.22) rotate(-45)"/><rect class="cls-3" x="368.64" y="139.19" width="8" height="2.5" transform="translate(9.83 304.62) rotate(-45)"/><rect class="cls-3" x="343.76" y="139.19" width="8" height="2.5" transform="translate(2.54 287.03) rotate(-45)"/><rect class="cls-3" x="360.57" y="180.05" width="2.5" height="8" transform="translate(-24.16 309.77) rotate(-45)"/><rect class="cls-3" x="380.89" y="176.61" width="2.5" height="8" transform="translate(-15.79 323.1) rotate(-45)"/><rect class="cls-3" x="405.77" y="176.61" width="2.5" height="8" transform="translate(-8.49 340.73) rotate(-45)"/><rect class="cls-3" x="430.65" y="176.61" width="2.5" height="8" transform="translate(-1.2 358.32) rotate(-45)"/><rect class="cls-3" x="443.28" y="165.97" width="8" height="2.5" transform="translate(12.76 365.25) rotate(-45)"/><rect class="cls-3" x="418.4" y="165.97" width="8" height="2.5" transform="translate(5.48 347.66) rotate(-45)"/><rect class="cls-3" x="393.52" y="165.97" width="8" height="2.5" transform="translate(-1.81 330.07) rotate(-45)"/><rect class="cls-3" x="368.64" y="165.97" width="8" height="2.5" transform="translate(-9.1 312.46) rotate(-45)"/><rect class="cls-3" x="430.65" y="203.38" width="2.5" height="8" transform="translate(-20.14 366.15) rotate(-45)"/><rect class="cls-3" x="443.28" y="192.75" width="8" height="2.5" transform="translate(-6.17 373.11) rotate(-45)"/><rect class="cls-3" x="418.4" y="192.75" width="8" height="2.5" transform="translate(-13.45 355.51) rotate(-45)"/><rect class="cls-3" x="393.52" y="192.75" width="8" height="2.5" transform="translate(-20.74 337.92) rotate(-45)"/><rect class="cls-3" x="368.64" y="192.75" width="8" height="2.5" transform="translate(-28.03 320.31) rotate(-45)"/><rect class="cls-3" x="343.76" y="192.75" width="8" height="2.5" transform="translate(-35.32 302.72) rotate(-45)"/></g><path class="cls-4" d="M399.48,161.19c-34.82,0-52.68-24.39-59.54-33.75-.93-1.28-1.67-2.29-2.24-3l-.23-.27.12-.36c.27-.74,12-11.34,12.72-11.46l.36-.06.24.29c18.61,22.7,33,33.5,60,29.5l.18,1.24c-27.4,4.06-42-6.74-60.77-29.51-1.91,1.51-9.7,8.56-11.31,10.22.53.67,1.18,1.56,2,2.63,8.57,11.7,34.66,47.32,90.28,27.15l.43,1.17C419.61,159.4,408.92,161.19,399.48,161.19Z"/><rect class="cls-4" y="382.29" width="690.6" height="1.25"/></g></g></svg>