<svg width="784" height="521" viewBox="0 0 784 521" fill="none" xmlns="http://www.w3.org/2000/svg">
<g clip-path="url(#clip0_2654_2545)">
<path d="M697.2 151.8L716.68 140.55L748.3 122.3L782.15 180.94L731.05 210.44L697.2 151.8Z" fill="#5F646B"/>
<path d="M725.35 415.02C725.35 421.53 723.09 426.18 719.35 428.31L668.25 457.82C671.95 455.68 674.25 451.03 674.25 444.52V243.23L725.34 213.73L725.35 415.02Z" fill="#373A3A"/>
<path d="M716.68 140.55L697.2 151.8L665.58 170.05C662.481 165.526 658.447 161.72 653.75 158.89L437.13 33.81C431.46 30.55 426.4 30.21 422.66 32.37L473.76 2.86998C477.5 0.709979 482.56 1.04998 488.23 4.30998L704.85 129.39C709.549 132.217 713.584 136.024 716.68 140.55Z" fill="#969A9E"/>
<path d="M599.61 208.14L548.51 237.64L512.87 175.91L557.02 150.41L570.91 158.44L599.61 208.14Z" fill="#5F646B"/>
<path d="M525.47 275.92L508.76 246.99L479.01 195.45L508.77 178.28V178.27L512.87 175.91L548.51 237.64L599.61 208.14L628.29 191.58L665.58 170.05L697.2 151.8L731.05 210.44L725.35 213.73L674.26 243.23L633.24 266.91L571.56 302.52L548.51 315.83L525.47 275.92Z" fill="#F6D84C"/>
<path d="M508.76 266.27L525.47 275.92L548.51 315.83L571.56 302.52V302.53L633.24 338.1V397.11L457.67 295.77V93.03L508.77 122.55V178.27V178.28L479.01 195.45L508.76 246.99V266.27Z" fill="#373A3A"/>
<path d="M437.16 331.3C425.83 324.78 416.63 308.85 416.64 295.78V45.64C416.64 39.11 418.92 34.53 422.64 32.39C426.38 30.23 431.44 30.57 437.11 33.83L653.73 158.91C658.427 161.74 662.461 165.546 665.56 170.07L628.27 191.6L570.94 158.44L557.05 150.44L508.8 122.58L457.7 93.06V295.8L633.24 397.11V266.92L674.24 243.24V444.53C674.24 451.04 671.97 455.69 668.24 457.83C664.51 459.97 659.37 459.62 653.71 456.36L437.16 331.3Z" fill="white"/>
<path d="M473.76 2.86998C477.5 0.709979 482.56 1.04998 488.23 4.30998L704.85 129.39C709.549 132.217 713.584 136.024 716.68 140.55" stroke="#3A3A3A" stroke-width="3" stroke-linecap="round" stroke-linejoin="round"/>
<path d="M508.77 122.55V178.27" stroke="#3A3A3A" stroke-width="3" stroke-linecap="round" stroke-linejoin="round"/>
<path d="M508.76 246.99V266.27L525.47 275.92" stroke="#3A3A3A" stroke-width="3" stroke-linecap="round" stroke-linejoin="round"/>
<path d="M571.56 302.53L633.24 338.1" stroke="#3A3A3A" stroke-width="3" stroke-linecap="round" stroke-linejoin="round"/>
<path d="M512.87 175.91L557.02 150.41" stroke="#3A3A3A" stroke-width="3" stroke-linecap="round" stroke-linejoin="round"/>
<path d="M570.91 158.44L599.61 208.14L628.29 191.58L665.58 170.05L697.2 151.8L716.68 140.55L748.3 122.3L782.15 180.94L731.05 210.44" stroke="#3A3A3A" stroke-width="3" stroke-linecap="round" stroke-linejoin="round"/>
<path d="M422.66 32.37C426.4 30.21 431.46 30.55 437.13 33.81L653.75 158.89C658.447 161.72 662.481 165.526 665.58 170.05" stroke="#3A3A3A" stroke-width="3" stroke-linecap="round" stroke-linejoin="round"/>
<path d="M674.26 243.23V444.52C674.26 451.03 671.99 455.68 668.26 457.82C664.53 459.96 659.39 459.61 653.73 456.35L437.13 331.35C425.8 324.83 416.6 308.9 416.61 295.83V45.64C416.61 39.11 418.89 34.53 422.61 32.39" stroke="#3A3A3A" stroke-width="3" stroke-linecap="round" stroke-linejoin="round"/>
<path d="M628.29 191.58L570.91 158.44L557.02 150.41L508.77 122.55L457.67 93.03V295.77L633.24 397.11V338.1V266.92" stroke="#3A3A3A" stroke-width="3" stroke-linecap="round" stroke-linejoin="round"/>
<path d="M697.2 151.8L731.05 210.44L725.35 213.73L674.26 243.23L633.24 266.91L571.56 302.52L548.51 315.83L525.47 275.92L508.76 246.99L479.01 195.45L508.77 178.28V178.27L512.87 175.91L548.51 237.64L599.61 208.14" stroke="#3A3A3A" stroke-width="3" stroke-linecap="round" stroke-linejoin="round"/>
<path d="M422.62 32.39L422.66 32.37L473.76 2.87" stroke="#3A3A3A" stroke-width="3" stroke-linecap="round" stroke-linejoin="round"/>
<path d="M668.29 457.82L719.39 428.31C723.09 426.18 725.39 421.53 725.39 415.02V213.73" stroke="#3A3A3A" stroke-width="3" stroke-linecap="round" stroke-linejoin="round"/>
<path d="M197.39 414.2V430.73C197.39 442.41 189.66 454.08 174.24 462.98C158.82 471.88 138.6 476.35 118.39 476.35C98.1801 476.35 77.9602 471.89 62.5502 462.98C47.1402 454.07 39.4102 442.41 39.4102 430.73C39.4102 430.73 39.4102 413.14 39.4102 412.62C39.4883 415.586 40.056 418.519 41.0902 421.3C44.0902 429.67 51.2902 437.64 62.5302 444.12C77.9402 453.03 98.1602 457.49 118.37 457.49C138.58 457.49 158.79 453.03 174.22 444.12C185.46 437.64 192.61 429.67 195.66 421.3C196.693 418.518 197.264 415.586 197.35 412.62C197.39 413.14 197.39 413.68 197.39 414.2Z" fill="#373A3A"/>
<path d="M197.39 411.88C197.39 412.14 197.39 412.37 197.39 412.61C197.39 411.61 197.33 410.53 197.3 409.5C197.37 410.27 197.41 411.08 197.41 411.86L197.39 411.88Z" fill="white"/>
<path d="M197.39 209.56V211.88C197.39 212.61 197.39 213.33 197.29 214.06C197.35 212.57 197.39 211.06 197.39 209.56Z" fill="white"/>
<path d="M197.39 193.03C197.39 193.03 197.32 212.57 197.29 214.03C197.295 214.087 197.295 214.143 197.29 214.2C196.29 225.08 188.64 235.8 174.29 244.1C158.86 252.99 138.65 257.45 118.44 257.45C98.2303 257.45 78.0103 252.99 62.6003 244.1C48.2103 235.8 40.5303 225.1 39.6003 214.2C39.5875 214.144 39.5875 214.086 39.6003 214.03C39.6003 212.54 39.5103 211.03 39.5103 209.53V193C39.5159 196.219 40.0915 199.412 41.2103 202.43C44.2103 210.79 51.4103 218.75 62.6503 225.24C78.0603 234.14 98.2804 238.59 118.49 238.59C138.7 238.59 158.93 234.14 174.34 225.24C185.58 218.75 192.73 210.79 195.78 202.43C196.889 199.409 197.465 196.218 197.48 193L197.39 193.03Z" fill="#373A3A"/>
<path d="M197.38 193.02C197.365 196.238 196.789 199.429 195.68 202.45C192.68 210.81 185.48 218.77 174.24 225.26C158.83 234.16 138.61 238.61 118.39 238.61C98.1701 238.61 77.9402 234.17 62.5502 225.3C51.3102 218.81 44.1602 210.85 41.1102 202.49C39.9914 199.472 39.4158 196.279 39.4102 193.06C39.4102 181.38 47.1302 169.72 62.5502 160.82C77.9702 151.92 98.1801 147.47 118.39 147.47C138.6 147.47 158.83 151.92 174.24 160.82C189.65 169.72 197.38 181.3 197.38 193.02Z" fill="white"/>
<path d="M197.28 409.51C197.28 410.51 197.37 411.57 197.37 412.62C197.308 415.589 196.736 418.525 195.68 421.3C192.68 429.67 185.48 437.64 174.24 444.12C158.81 453.03 138.6 457.49 118.39 457.49C98.1801 457.49 77.9602 453.03 62.5502 444.12C51.3102 437.64 44.1602 429.67 41.1102 421.3C40.0524 418.526 39.484 415.589 39.4302 412.62C39.4302 411.62 39.4302 410.54 39.5302 409.51C41.3802 370.4 65.2602 334.11 90.5302 317.71C91.4872 317.07 92.2718 316.205 92.8143 315.19C93.3569 314.174 93.6407 313.041 93.6407 311.89C93.6407 310.739 93.3569 309.606 92.8143 308.59C92.2718 307.575 91.4872 306.71 90.5302 306.07C65.2402 289.66 41.2802 253.35 39.5302 214.23C40.5302 225.11 48.1602 235.83 62.5302 244.13C77.9402 253.02 98.1602 257.48 118.37 257.48C138.58 257.48 158.79 253.02 174.22 244.13C188.61 235.83 196.29 225.13 197.22 214.23C195.43 253.35 171.47 289.66 146.22 306.07C145.263 306.71 144.479 307.575 143.936 308.59C143.393 309.606 143.11 310.739 143.11 311.89C143.11 313.041 143.393 314.174 143.936 315.19C144.479 316.205 145.263 317.07 146.22 317.71C171.53 334.11 195.65 370.39 197.28 409.51ZM173.94 403.84C173.94 403.09 173.94 402.38 173.86 401.65C172.03 364.3 141.72 330.65 119.21 330.65C118.934 330.635 118.657 330.635 118.38 330.65C118.107 330.635 117.833 330.635 117.56 330.65C95.0502 330.65 64.4102 364.32 62.9102 401.65C62.9102 402.38 62.8402 403.09 62.8402 403.84C62.8808 405.926 63.2799 407.989 64.0201 409.94C66.1701 415.82 71.1902 421.43 79.0902 425.94C89.9402 432.22 104.15 435.35 118.38 435.35C132.61 435.35 146.83 432.22 157.68 425.94C165.59 421.39 170.6 415.78 172.76 409.94C173.472 407.981 173.87 405.923 173.94 403.84Z" fill="white"/>
<path d="M173.87 401.65C173.87 402.38 173.93 403.09 173.95 403.84C173.88 405.923 173.482 407.981 172.77 409.94C170.61 415.82 165.6 421.43 157.69 425.94C146.84 432.22 132.61 435.35 118.39 435.35C104.17 435.35 89.9501 432.22 79.1001 425.94C71.2001 421.39 66.18 415.78 64.03 409.94C63.2898 407.989 62.8907 405.926 62.8501 403.84C62.8501 403.09 62.85 402.38 62.92 401.65C64.42 364.29 95.0601 330.65 117.57 330.65C117.843 330.635 118.117 330.635 118.39 330.65C118.666 330.635 118.944 330.635 119.22 330.65C141.73 330.62 172.04 364.3 173.87 401.65Z" fill="#DAE0E5"/>
<path d="M39.5303 409.51C39.5303 410.51 39.4403 411.57 39.4303 412.62C39.4303 412.38 39.4303 412.15 39.4303 411.89C39.4177 411.095 39.4511 410.301 39.5303 409.51Z" fill="white"/>
<path d="M39.4102 209.56C39.4102 211.06 39.4102 212.56 39.5002 214.06C39.4402 213.33 39.4102 212.61 39.4102 211.88V209.56Z" fill="white"/>
<path d="M197.39 209.56C197.39 211.06 197.39 212.56 197.29 214.06" stroke="#3A3A3A" stroke-width="3" stroke-linecap="round" stroke-linejoin="round"/>
<path d="M39.4102 209.56C39.4102 211.06 39.4102 212.56 39.5002 214.06" stroke="#3A3A3A" stroke-width="3" stroke-linecap="round" stroke-linejoin="round"/>
<path d="M39.4101 411.88C39.4049 411.092 39.445 410.304 39.5301 409.52C39.5301 410.52 39.4401 411.58 39.4301 412.63" stroke="#3A3A3A" stroke-width="3" stroke-linecap="round" stroke-linejoin="round"/>
<path d="M197.37 412.62C197.37 411.62 197.31 410.54 197.28 409.51C197.35 410.28 197.39 411.09 197.39 411.87" stroke="#3A3A3A" stroke-width="3" stroke-linecap="round" stroke-linejoin="round"/>
<path d="M39.4102 411.89C39.4102 412.15 39.4102 412.38 39.4102 412.62C39.509 415.584 40.076 418.513 41.0902 421.3C44.0902 429.67 51.2902 437.64 62.5302 444.12C77.9402 453.03 98.1602 457.49 118.37 457.49C138.58 457.49 158.79 453.03 174.22 444.12C185.46 437.64 192.61 429.67 195.66 421.3C196.693 418.518 197.264 415.586 197.35 412.62C197.35 412.38 197.35 412.15 197.35 411.89" stroke="#3A3A3A" stroke-width="3" stroke-linecap="round" stroke-linejoin="round"/>
<path d="M197.39 411.89V430.73C197.39 442.41 189.66 454.08 174.24 462.98C158.82 471.88 138.6 476.35 118.39 476.35C98.1801 476.35 77.9602 471.89 62.5502 462.98C47.1402 454.07 39.4102 442.41 39.4102 430.73V411.89" stroke="#3A3A3A" stroke-width="3" stroke-linecap="round" stroke-linejoin="round"/>
<path d="M39.4302 412.62C39.4302 413.14 39.4302 413.68 39.4302 414.2" stroke="#3A3A3A" stroke-width="3" stroke-linecap="round" stroke-linejoin="round"/>
<path d="M197.39 414.2C197.39 413.68 197.39 413.14 197.39 412.62" stroke="#3A3A3A" stroke-width="3" stroke-linecap="round" stroke-linejoin="round"/>
<path d="M39.5303 214.23C41.3003 253.35 65.2603 289.66 90.5303 306.07C91.4873 306.71 92.2719 307.575 92.8145 308.59C93.357 309.606 93.6409 310.739 93.6409 311.89C93.6409 313.041 93.357 314.174 92.8145 315.19C92.2719 316.205 91.4873 317.07 90.5303 317.71C65.2403 334.11 41.2903 370.39 39.5303 409.51" stroke="#3A3A3A" stroke-width="3" stroke-linecap="round" stroke-linejoin="round"/>
<path d="M197.28 409.51C195.48 370.39 171.53 334.11 146.28 317.71C145.323 317.07 144.539 316.205 143.996 315.19C143.453 314.174 143.169 313.041 143.169 311.89C143.169 310.739 143.453 309.606 143.996 308.59C144.539 307.575 145.323 306.71 146.28 306.07C171.57 289.66 195.53 253.35 197.28 214.23" stroke="#3A3A3A" stroke-width="3" stroke-linecap="round" stroke-linejoin="round"/>
<path d="M173.94 403.84C173.87 405.923 173.472 407.981 172.76 409.94C170.6 415.82 165.59 421.43 157.68 425.94C146.83 432.22 132.6 435.35 118.38 435.35C104.16 435.35 89.9403 432.22 79.0903 425.94C71.1903 421.39 66.1703 415.78 64.0203 409.94C63.28 407.989 62.8809 405.926 62.8403 403.84C62.8403 403.09 62.8403 402.38 62.9103 401.65C64.4103 364.29 95.0503 330.65 117.56 330.65C117.833 330.635 118.107 330.635 118.38 330.65C118.657 330.635 118.934 330.635 119.21 330.65C141.72 330.65 172.03 364.33 173.86 401.65C173.94 402.38 173.94 403.09 173.94 403.84Z" stroke="#3A3A3A" stroke-width="3" stroke-linecap="round" stroke-linejoin="round"/>
<path d="M39.4102 411.89V411.88" stroke="#3A3A3A" stroke-width="3" stroke-linecap="round" stroke-linejoin="round"/>
<path d="M197.39 411.89V411.88" stroke="#3A3A3A" stroke-width="3" stroke-linecap="round" stroke-linejoin="round"/>
<path d="M39.4102 193.03C39.4102 181.35 47.1302 169.69 62.5502 160.79C77.9702 151.89 98.1801 147.44 118.39 147.44C138.6 147.44 158.83 151.89 174.24 160.79C189.65 169.69 197.38 181.35 197.38 193.03C197.365 196.248 196.789 199.439 195.68 202.46C192.68 210.82 185.48 218.78 174.24 225.27C158.83 234.17 138.61 238.62 118.39 238.62C98.1701 238.62 77.9402 234.17 62.5502 225.3C51.3102 218.81 44.1602 210.85 41.1102 202.49C39.9879 199.462 39.4123 196.259 39.4102 193.03Z" stroke="#3A3A3A" stroke-width="3" stroke-linecap="round" stroke-linejoin="round"/>
<path d="M197.39 193.03C197.39 193.03 197.39 213.33 197.29 214.03C197.295 214.087 197.295 214.143 197.29 214.2C196.29 225.08 188.64 235.8 174.29 244.1C158.86 252.99 138.65 257.45 118.44 257.45C98.2303 257.45 78.0103 252.99 62.6003 244.1C48.2103 235.8 40.5303 225.1 39.6003 214.2C39.5875 214.144 39.5875 214.086 39.6003 214.03C39.5403 213.3 39.5103 212.58 39.5103 211.85V193" stroke="#3A3A3A" stroke-width="3" stroke-linecap="round" stroke-linejoin="round"/>
<path d="M71.94 134.3C71.7279 132.833 71.6409 131.351 71.68 129.87C71.93 121.11 73.89 119.63 74.55 114.64C75.05 110.82 77.14 104.74 81.79 102.64C83.87 105.23 86.62 106.91 89.97 106.74C87.7386 113.744 86.3948 121.001 85.97 128.34C85.9555 128.659 86.0452 128.974 86.2256 129.237C86.406 129.501 86.6674 129.698 86.97 129.8C87.2764 129.902 87.6081 129.897 87.9113 129.786C88.2145 129.675 88.4713 129.465 88.6399 129.19C96.1399 117.41 108.93 108.42 108.93 108.42C113.44 111.14 117.41 114.669 120.64 118.83C124.401 123.64 126.674 129.445 127.18 135.53C127.91 144.82 127.61 161.15 127.37 170.02C127.32 171.919 126.789 173.775 125.827 175.414C124.865 177.052 123.504 178.42 121.87 179.39C120.73 180.07 119.62 180.72 118.53 181.39C110.416 186.13 101.9 190.146 93.08 193.39C94.3981 192.004 95.1445 190.172 95.17 188.26C95.17 184.44 92.62 181.43 90.04 180.9C93.7 178.45 97.91 175.64 99.65 174.51C87.65 174.27 73.54 165.8 74.25 161.97C74.59 160.36 74.91 158.78 75.18 157.23C75.5468 155.291 75.7475 153.323 75.78 151.35C75.84 145.38 72.86 140.67 71.94 134.3Z" fill="#373A3A"/>
<path d="M109 108.44C109 108.44 103.87 96.6801 103.59 92.4901C107.89 84.2701 101.22 82.6801 98.2799 88.5701C90.9899 95.7501 83.73 81.51 76.81 87.15C76.81 87.15 73.63 82.5901 78.75 75.6701C82.46 70.6701 93.7499 64.41 100.52 68.9C107.29 73.39 109.22 86.15 110.88 93.9C113.36 105.4 120.32 107.11 120.71 118.83C117.478 114.676 113.509 111.154 109 108.44Z" fill="#DAE0E5"/>
<path d="M86.7799 195.63C89.0099 194.87 91.1299 194.13 93.1499 193.38C101.97 190.136 110.486 186.12 118.6 181.38C119.8 188.27 121.26 196.19 119.72 200.47C117.4 206.91 109.31 212.47 99.72 216.67C91.61 220.21 78.8699 226.74 72.3899 230.35C72.942 229.344 73.1592 228.188 73.0099 227.05C73.0099 226.69 73.0099 226.31 72.9099 225.91C72.1054 221.239 70.3492 216.783 67.75 212.82L92.1399 198.73L86.7799 195.63Z" fill="#DAE0E5"/>
<path d="M89.9401 106.76C86.5901 106.93 83.84 105.25 81.76 102.66C79.5938 99.7843 78.1098 96.4537 77.42 92.92C76.9961 91.0257 76.7781 89.0911 76.77 87.15C83.69 81.51 90.9501 95.75 98.2401 88.57C101.18 82.68 107.85 84.27 103.55 92.49C103.83 96.68 108.96 108.44 108.96 108.44C108.96 108.44 96.17 117.44 88.67 129.21C88.5014 129.485 88.2446 129.695 87.9414 129.806C87.6382 129.917 87.3065 129.922 87.0001 129.82C86.6975 129.718 86.4362 129.521 86.2557 129.257C86.0753 128.994 85.9856 128.679 86.0001 128.36C86.4054 121.024 87.729 113.767 89.9401 106.76Z" fill="white"/>
<path d="M72.9999 227.04C73.1491 228.178 72.9319 229.334 72.3798 230.34C71.1898 231 70.2098 231.56 69.5198 231.99C68.3806 232.671 67.1019 233.085 65.7798 233.2C66.6545 230.934 68.3913 229.108 70.6099 228.12L72.9999 227.04Z" fill="white"/>
<path d="M71.9401 186.12C71.4741 186.088 71.0063 186.142 70.5601 186.28L58.5601 179.38C63.2801 176.1 68.0601 174.17 71.7101 171.38C72.3979 170.839 72.8437 170.048 72.9501 169.18C73.2501 166.75 73.7501 164.35 74.2401 162C73.5301 165.83 87.66 174.3 99.64 174.54C97.9 175.67 93.64 178.48 90.03 180.93C87.31 182.76 84.9 184.38 84.03 184.93C82.0356 186.253 79.6372 186.827 77.26 186.55C75.57 186.3 73.9401 186.3 71.9401 186.12Z" fill="#DAE0E5"/>
<path d="M70.5798 186.3C70.2253 186.407 69.8883 186.565 69.5798 186.77C67.6596 187.989 65.623 189.014 63.4999 189.83C63.2768 189.923 63.0779 190.067 62.9185 190.249C62.759 190.431 62.6432 190.646 62.5798 190.88C62.5199 191.111 62.5141 191.353 62.5626 191.588C62.6112 191.822 62.7129 192.041 62.8599 192.23L63.5098 193.06C63.6326 193.224 63.7164 193.413 63.7545 193.614C63.7927 193.815 63.7842 194.023 63.7299 194.22C63.4085 195.378 63.2701 196.579 63.3198 197.78C63.3253 198.375 63.5395 198.949 63.9252 199.403C64.3108 199.856 64.8433 200.159 65.4298 200.26C69.3698 200.93 73.8998 200.11 82.2598 197.15C83.8298 196.65 85.3398 196.15 86.7998 195.65L92.1498 198.74L67.7598 212.83L61.9298 216.19L61.5498 215.97L51.3398 188.66C51.6398 188.02 51.9198 187.39 52.1898 186.76C52.6398 185.67 52.4998 184.29 53.0898 183.27C53.9598 181.78 56.7499 181.58 56.7499 180.11C56.6704 179.372 56.4781 178.65 56.1798 177.97L58.6498 179.4L70.5798 186.3Z" fill="#969A9E"/>
<path d="M86.78 195.63C85.32 196.12 83.78 196.63 82.24 197.13C73.88 200.13 69.35 200.91 65.41 200.24C64.8234 200.139 64.2909 199.836 63.9053 199.383C63.5197 198.929 63.3054 198.355 63.3 197.76C63.2503 196.559 63.3886 195.358 63.71 194.2C63.7644 194.003 63.7728 193.796 63.7347 193.594C63.6965 193.393 63.6129 193.204 63.49 193.04L62.84 192.21C62.693 192.021 62.5913 191.802 62.5428 191.568C62.4942 191.334 62.5001 191.091 62.56 190.86C62.6233 190.627 62.7392 190.411 62.8986 190.229C63.058 190.047 63.2569 189.904 63.48 189.81C65.6031 188.994 67.6398 187.969 69.56 186.75C69.8685 186.545 70.2054 186.387 70.56 186.28C71.0062 186.142 71.4741 186.088 71.94 186.12C73.94 186.26 75.55 186.31 77.32 186.51C79.6972 186.787 82.0956 186.213 84.09 184.89C84.95 184.33 87.36 182.71 90.09 180.89C92.67 181.42 95.22 184.43 95.22 188.25C95.1945 190.162 94.448 191.994 93.1299 193.38C91.1299 194.13 89.01 194.87 86.78 195.63Z" fill="white"/>
<path d="M38.64 284.98C38.49 285.29 38.3501 285.6 38.2101 285.91C36.0101 290.63 34.6401 293.55 33.7501 296.06C28.4601 298.7 24.1101 304.57 18.9801 304.57C17.7879 304.6 16.6275 304.183 15.7279 303.4C14.8283 302.617 14.2548 301.525 14.1201 300.34C15.1201 298.58 15.9201 296.88 16.6001 295.34C17.8353 292.513 19.2862 289.785 20.9401 287.18C24.7001 281.28 28.6201 272.5 31.8601 260.18C32.2101 258.87 32.5401 257.59 32.8601 256.35C39.8101 229.43 41.8601 217.51 53.0601 211.11L61.53 216L61.91 216.22L67.7401 212.86C70.3471 216.805 72.1168 221.243 72.9401 225.9C72.9401 226.3 73.03 226.68 73.04 227.04L70.65 228.12C68.4315 229.108 66.6947 230.934 65.8201 233.2C65.6362 233.663 65.4922 234.142 65.39 234.63C62.16 249.8 56.9901 256.96 51.2001 264.78C47.1301 270.22 42.81 275.98 38.64 284.98Z" fill="white"/>
<path d="M62.5302 167.66C62.5302 164 58.8702 160.25 55.3502 160.25H55.2402C58.4802 157.42 62.1502 154.25 66.2402 150.33C67.5233 149.085 68.4398 147.511 68.8901 145.78C69.7301 142.6 70.5735 139.417 71.4202 136.23C71.5902 135.6 71.7902 134.96 71.9902 134.32C72.9002 140.67 75.8801 145.38 75.8801 151.32C75.8477 153.294 75.647 155.261 75.2802 157.2C71.4254 162.223 66.9383 166.727 61.9302 170.6C62.312 169.666 62.5155 168.669 62.5302 167.66Z" fill="#373A3A"/>
<path d="M54.8599 312.51C55.7599 317.86 48.3799 323.09 42.8599 321.42C42.0644 321.182 41.3836 320.661 40.9468 319.955C40.5099 319.25 40.3474 318.408 40.4899 317.59C41.3089 312.121 41.1667 306.55 40.0698 301.13C41.4098 308.36 50.0698 299.47 50.8998 295.46C51.3098 293.46 51.7698 288.91 52.1598 284.46C52.3297 284.721 52.5204 284.969 52.7299 285.2C53.9099 286.55 55.6499 285.96 54.7299 293.72C53.7525 299.949 53.7964 306.295 54.8599 312.51Z" fill="#5F646B"/>
<path d="M51.1299 281.01C51.1246 282.235 51.4717 283.436 52.1299 284.47C51.7399 288.91 51.28 293.47 50.87 295.47C50.04 299.47 41.3799 308.37 40.0399 301.14C39.921 300.497 39.8608 299.844 39.86 299.19C39.5607 294.737 38.9963 290.306 38.1699 285.92C38.3099 285.61 38.45 285.3 38.6 284.99C42.77 275.99 47.09 270.23 51.12 264.79L51.21 264.86C51.09 270.68 51.0999 277.3 51.1299 281.01Z" fill="white"/>
<path d="M55.46 176.3C55.71 176.86 55.9499 177.42 56.1499 177.95C56.4482 178.63 56.6405 179.352 56.72 180.09C56.72 181.56 53.9299 181.76 53.0599 183.25C52.4699 184.25 52.6099 185.65 52.1599 186.74C51.8899 187.37 51.6099 188 51.3099 188.64L50.49 186.44L40.23 180.52C42.11 171.91 47.39 167.09 55.23 160.25H55.34C58.86 160.25 62.5199 164 62.5199 167.66C62.4938 168.675 62.2766 169.676 61.8799 170.61C59.2399 172.67 57.17 174.14 55.46 176.3Z" fill="white"/>
<path d="M40.2398 180.52L50.4998 186.44L51.3198 188.64L61.5298 215.95L53.0698 211.06L36.3198 201.39L19.0998 191.46L8.06982 161.94L40.2398 180.52Z" fill="#5F646B"/>
<path d="M53.06 211.06C41.88 217.46 39.8101 229.38 32.8601 256.3C30.1901 241.91 27.75 228.3 27.55 222.99C27.15 212.44 31.32 205.86 36.32 201.39L53.06 211.06Z" fill="white"/>
<path d="M19.5701 316.77C15.0801 321.01 7.91005 324.43 2.69005 321.77C2.4018 321.624 2.14985 321.415 1.95262 321.159C1.75539 320.903 1.61784 320.606 1.55003 320.29C1.48064 319.973 1.48418 319.645 1.56041 319.329C1.63663 319.014 1.78361 318.72 1.9901 318.47C6.54683 312.772 10.6051 306.693 14.1201 300.3C14.2547 301.485 14.8283 302.577 15.7279 303.36C16.6275 304.143 17.7878 304.56 18.9801 304.53C24.1101 304.53 28.4601 298.66 33.7501 296.02C32.8912 298.419 32.376 300.927 32.2201 303.47C32.1224 304.576 31.7912 305.649 31.2482 306.618C30.7052 307.587 29.9628 308.429 29.0701 309.09C25.7634 311.472 22.5919 314.036 19.5701 316.77Z" fill="#5F646B"/>
<path d="M81.8 102.66C79.6337 99.7843 78.1497 96.4537 77.46 92.9201C77.036 91.0258 76.818 89.0912 76.81 87.15C76.81 87.15 73.63 82.5901 78.75 75.6701C82.46 70.6701 93.7499 64.41 100.52 68.9C107.29 73.39 109.22 86.15 110.88 93.9C113.36 105.4 120.32 107.11 120.71 118.83" stroke="#373A3A" stroke-width="3" stroke-linecap="round" stroke-linejoin="round"/>
<path d="M95.9398 104.7C94.1406 105.872 92.0792 106.579 89.9398 106.76C86.5898 106.93 83.8398 105.25 81.7598 102.66" stroke="#373A3A" stroke-width="3" stroke-linecap="round" stroke-linejoin="round"/>
<path d="M76.8101 87.15C83.7301 81.51 90.99 95.75 98.28 88.57C101.22 82.68 107.89 84.27 103.59 92.49C103.87 96.68 109 108.44 109 108.44C109 108.44 96.2101 117.44 88.7101 129.21C88.5414 129.485 88.2847 129.695 87.9814 129.806C87.6782 129.917 87.3464 129.922 87.04 129.82C86.7374 129.718 86.4762 129.521 86.2958 129.257C86.1154 128.994 86.0256 128.679 86.04 128.36C86.4648 121.021 87.8086 113.764 90.04 106.76" stroke="#373A3A" stroke-width="3" stroke-linecap="round" stroke-linejoin="round"/>
<path d="M70.5801 186.3C71.0263 186.162 71.4942 186.108 71.9601 186.14C73.9601 186.28 75.5701 186.33 77.3401 186.53C79.7173 186.807 82.1157 186.233 84.1101 184.91C84.9701 184.35 87.3801 182.73 90.1101 180.91C93.7701 178.46 97.9801 175.65 99.7201 174.52C104.31 171.52 108.45 169.14 111.63 167.98C112.016 167.834 112.347 167.571 112.578 167.229C112.809 166.888 112.928 166.483 112.92 166.07V135.61" stroke="#373A3A" stroke-width="3" stroke-linecap="round" stroke-linejoin="round"/>
<path d="M109 108.44C113.511 111.16 117.48 114.689 120.71 118.85C124.471 123.66 126.744 129.465 127.25 135.55C127.98 144.84 127.68 161.17 127.44 170.04C127.39 171.939 126.859 173.795 125.897 175.434C124.936 177.072 123.574 178.44 121.94 179.41C120.8 180.09 119.69 180.74 118.6 181.41C110.486 186.151 101.97 190.166 93.15 193.41C91.15 194.16 89.01 194.9 86.78 195.66C85.32 196.15 83.78 196.66 82.24 197.16C73.88 200.16 69.35 200.94 65.41 200.27C64.8234 200.169 64.2909 199.866 63.9053 199.413C63.5197 198.959 63.3054 198.385 63.3 197.79C63.2503 196.589 63.3886 195.388 63.71 194.23C63.7644 194.033 63.7728 193.826 63.7347 193.625C63.6965 193.423 63.6129 193.234 63.49 193.07L62.84 192.24C62.693 192.052 62.5913 191.832 62.5428 191.598C62.4942 191.364 62.5001 191.121 62.56 190.89C62.6233 190.657 62.7392 190.441 62.8986 190.259C63.058 190.077 63.2569 189.934 63.48 189.84C65.6031 189.024 67.6398 187.999 69.56 186.78C69.8685 186.575 70.2054 186.417 70.56 186.31" stroke="#373A3A" stroke-width="3" stroke-linecap="round" stroke-linejoin="round"/>
<path d="M90.1099 180.89C92.6899 181.42 95.2399 184.43 95.2399 188.25C95.2144 190.162 94.4679 191.994 93.1498 193.38" stroke="#373A3A" stroke-width="3" stroke-linecap="round" stroke-linejoin="round"/>
<path d="M74.3099 161.95C73.5999 165.78 87.7299 174.25 99.7099 174.49" stroke="#373A3A" stroke-width="3" stroke-linecap="round" stroke-linejoin="round"/>
<path d="M118.6 181.37C119.8 188.26 121.26 196.18 119.72 200.46C117.4 206.9 109.31 212.46 99.7201 216.66C91.6101 220.2 78.87 226.73 72.39 230.34C71.2 231 70.22 231.56 69.53 231.99C68.3908 232.671 67.1121 233.084 65.79 233.2" stroke="#373A3A" stroke-width="3" stroke-linecap="round" stroke-linejoin="round"/>
<path d="M67.7402 212.8C70.3548 216.763 72.1248 221.223 72.9402 225.9C72.9402 226.3 73.0302 226.68 73.0402 227.04C73.1894 228.178 72.9723 229.334 72.4202 230.34" stroke="#373A3A" stroke-width="3" stroke-linecap="round" stroke-linejoin="round"/>
<path d="M70.5802 186.28L58.6302 179.38L56.1602 177.95" stroke="#373A3A" stroke-width="3" stroke-linecap="round" stroke-linejoin="round"/>
<path d="M61.5298 215.95L53.0698 211.06L36.3198 201.39L19.0998 191.46L8.06982 161.94" stroke="#373A3A" stroke-width="3" stroke-linecap="round" stroke-linejoin="round"/>
<path d="M86.7898 195.63L92.1298 198.72L67.7398 212.8L61.9098 216.17L61.5298 215.95" stroke="#373A3A" stroke-width="3" stroke-linecap="round" stroke-linejoin="round"/>
<path d="M51.3198 188.64L61.5298 215.95" stroke="#373A3A" stroke-width="3" stroke-linecap="round" stroke-linejoin="round"/>
<path d="M8.06982 161.94L40.2398 180.52L50.4998 186.44L51.3198 188.64" stroke="#373A3A" stroke-width="3" stroke-linecap="round" stroke-linejoin="round"/>
<path d="M71.9399 134.3C71.7399 134.94 71.54 135.58 71.37 136.21C70.5167 139.403 69.6733 142.587 68.84 145.76C68.3897 147.491 67.473 149.064 66.1899 150.31C62.1899 154.23 58.4699 157.4 55.1899 160.23C47.3499 167.07 42.0699 171.89 40.1899 180.5" stroke="#373A3A" stroke-width="3" stroke-linecap="round" stroke-linejoin="round"/>
<path d="M51.3198 188.64C51.6198 188 51.8998 187.37 52.1698 186.74C52.6198 185.65 52.4798 184.27 53.0698 183.25C53.9398 181.76 56.7299 181.56 56.7299 180.09C56.6504 179.352 56.4581 178.63 56.1598 177.95C55.9598 177.42 55.7198 176.86 55.4698 176.3C57.1798 174.14 59.2498 172.67 61.8998 170.61C66.9079 166.736 71.3951 162.233 75.2499 157.21" stroke="#373A3A" stroke-width="3" stroke-linecap="round" stroke-linejoin="round"/>
<path d="M58.6299 179.37C63.3499 176.09 68.1299 174.16 71.7799 171.37C72.4677 170.829 72.9136 170.038 73.0199 169.17C73.3199 166.74 73.8199 164.34 74.3099 161.99C74.6499 160.38 74.97 158.8 75.24 157.25C75.6068 155.311 75.8075 153.343 75.84 151.37C75.84 145.42 72.84 140.71 71.95 134.37C71.7379 132.903 71.6509 131.421 71.6899 129.94C71.9399 121.18 73.8999 119.7 74.5599 114.71C75.0599 110.89 77.1499 104.81 81.7999 102.71" stroke="#373A3A" stroke-width="3" stroke-linecap="round" stroke-linejoin="round"/>
<path d="M55.2402 160.3H55.3502C58.8702 160.3 62.5302 164.05 62.5302 167.71C62.504 168.725 62.2869 169.726 61.8901 170.66" stroke="#373A3A" stroke-width="3" stroke-linecap="round" stroke-linejoin="round"/>
<path d="M32.8599 256.3C39.8099 229.38 41.8598 217.46 53.0598 211.06" stroke="#373A3A" stroke-width="3" stroke-linecap="round" stroke-linejoin="round"/>
<path d="M73.0001 227.04L70.6101 228.12C68.3915 229.108 66.6547 230.934 65.78 233.2C65.5961 233.664 65.4523 234.142 65.3501 234.63C62.1201 249.8 56.95 256.96 51.16 264.78C47.16 270.22 42.81 275.98 38.64 284.98C38.49 285.29 38.3501 285.6 38.2101 285.91C36.0101 290.63 34.6401 293.55 33.7501 296.06C32.8912 298.459 32.376 300.967 32.2201 303.51C32.1224 304.616 31.7912 305.689 31.2482 306.658C30.7052 307.627 29.9628 308.469 29.0701 309.13C25.7644 311.499 22.5929 314.05 19.5701 316.77C15.0801 321.01 7.91005 324.43 2.69005 321.77C2.4018 321.624 2.14985 321.415 1.95262 321.159C1.75539 320.903 1.61784 320.606 1.55003 320.29C1.48064 319.973 1.48418 319.645 1.56041 319.329C1.63663 319.014 1.78361 318.72 1.9901 318.47C6.54683 312.772 10.6051 306.693 14.1201 300.3C15.1201 298.54 15.9201 296.84 16.6001 295.3C17.8353 292.473 19.2862 289.745 20.94 287.14C24.7 281.24 28.6201 272.46 31.8601 260.14C32.2101 258.83 32.5401 257.55 32.8601 256.31" stroke="#373A3A" stroke-width="3" stroke-linecap="round" stroke-linejoin="round"/>
<path d="M36.32 201.39C31.32 205.86 27.15 212.44 27.55 222.99C27.75 228.3 30.1901 241.91 32.8601 256.3" stroke="#373A3A" stroke-width="3" stroke-linecap="round" stroke-linejoin="round"/>
<path d="M38.21 285.91C39.0363 290.296 39.6006 294.727 39.8999 299.18C39.9007 299.834 39.961 300.487 40.08 301.13C41.42 308.36 50.0799 299.47 50.9099 295.46C51.3199 293.46 51.7799 288.91 52.1699 284.46" stroke="#373A3A" stroke-width="3" stroke-linecap="round" stroke-linejoin="round"/>
<path d="M51.2501 264.85C51.0901 270.68 51.1 277.3 51.13 281.01C51.1247 282.235 51.4718 283.436 52.13 284.47C52.2999 284.732 52.4906 284.979 52.7001 285.21C53.8801 286.56 55.6201 285.97 54.7001 293.73C53.737 299.958 53.7945 306.301 54.8701 312.51C55.7701 317.86 48.3901 323.09 42.8701 321.42C42.0746 321.183 41.3939 320.661 40.957 319.955C40.5202 319.25 40.3577 318.408 40.5001 317.59C41.3192 312.121 41.177 306.55 40.0801 301.13" stroke="#373A3A" stroke-width="3" stroke-linecap="round" stroke-linejoin="round"/>
<path d="M14.1201 300.3C14.2548 301.485 14.8283 302.577 15.7279 303.36C16.6275 304.143 17.7879 304.56 18.9801 304.53C24.1101 304.53 28.4601 298.66 33.7501 296.02" stroke="#373A3A" stroke-width="3" stroke-linecap="round" stroke-linejoin="round"/>
<path d="M318.02 187.7C329.02 194.06 334.02 202.57 333.02 210.88V210.95C332.675 213.539 331.811 216.033 330.48 218.28C328.4 213.2 323.94 208.39 317.08 204.43C313.447 202.356 309.602 200.679 305.61 199.43C307.61 194.23 308.26 188.6 309.82 183.81C312.653 184.885 315.395 186.186 318.02 187.7Z" fill="#5F646B"/>
<path d="M330.49 218.3C331.822 216.053 332.685 213.559 333.03 210.97L327.88 253.75C317.88 258.48 304.55 252.75 310.5 233.52C313.095 232.514 315.609 231.311 318.02 229.92C323.88 226.52 328.04 222.53 330.49 218.3Z" fill="#F6D84C"/>
<path d="M305.62 199.46C309.612 200.709 313.457 202.386 317.09 204.46C323.95 208.46 328.41 213.23 330.49 218.31C328.04 222.56 323.88 226.55 318.02 229.93C315.609 231.321 313.095 232.524 310.5 233.53C290.39 241.43 262.77 240.23 244.94 229.93C239.09 226.55 234.94 222.56 232.47 218.32C234.55 213.24 239.01 208.43 245.87 204.47L246.41 204.17C252.207 209.38 258.362 214.179 264.83 218.53L266.63 221.98C268.522 224.423 270.998 226.352 273.83 227.59C275.296 228.257 276.842 228.731 278.43 229C280.206 229.324 282.024 229.354 283.81 229.09C285.592 228.828 287.297 228.187 288.81 227.21C291.176 225.616 292.865 223.2 293.55 220.43C294.933 215.37 297.516 210.719 301.08 206.87C303.05 204.711 304.591 202.196 305.62 199.46Z" fill="#373A3A"/>
<path d="M292.51 274.62C292.51 263.8 307.18 261.75 307.18 271.74C307.18 282.3 292.51 285.91 292.51 274.62Z" fill="#373A3A"/>
<path d="M301.12 206.83C297.557 210.679 294.974 215.331 293.59 220.39C292.906 223.16 291.216 225.576 288.85 227.17C288.508 224.948 288.304 222.707 288.24 220.46C288.15 218.99 288.1 217.54 288.1 216.08C288.1 203.21 293.82 171.47 310.26 154.34C315.55 148.82 321.96 144.82 329.64 143.45C350.64 139.71 363.81 135.56 369.7 106.54C371.445 112.517 372.403 118.696 372.55 124.92C372.55 173 323.65 143.13 309.95 183.46C309.95 183.59 309.86 183.71 309.83 183.84C308.27 188.63 307.67 194.26 305.62 199.46C304.599 202.179 303.072 204.68 301.12 206.83Z" fill="white"/>
<path d="M310.26 154.3C293.82 171.43 288.1 203.17 288.1 216.04C288.1 217.5 288.1 218.95 288.24 220.42C288.304 222.667 288.508 224.908 288.85 227.13C287.337 228.107 285.632 228.748 283.85 229.01V228.9C283.86 226.124 283.716 223.35 283.42 220.59C282.724 215.621 281.76 210.694 280.53 205.83C280.41 203.78 280.36 201.71 280.36 199.65C280.364 194.6 280.762 189.558 281.55 184.57C288.86 137.57 327.71 100.71 331.89 61.22C334.236 68.7329 335.506 76.5406 335.66 84.41C335.62 109.52 317.2 133.72 310.26 154.3Z" fill="#C2C7CC"/>
<path d="M280.49 205.87C277.319 192.574 271.133 180.184 262.41 169.66C264.03 150.66 270.9 140.31 278.32 128.31C283.72 119.58 289.39 109.96 293.54 95.49C293.65 97.22 293.71 98.95 293.71 100.65C293.71 131.29 279.09 145.13 279.09 169.8C279.08 174.835 279.894 179.838 281.5 184.61C280.713 189.598 280.315 194.64 280.31 199.69C280.31 201.75 280.31 203.82 280.48 205.87H280.49Z" fill="white"/>
<path d="M278.43 228.96C276.842 228.691 275.296 228.217 273.83 227.55C273.31 223.55 272.06 219.1 267.22 209.09C265.133 203.721 263.696 198.121 262.94 192.41C270.09 197.32 276.15 203.79 277.8 217.28C278.07 218.39 278.3 224.84 278.43 228.96Z" fill="white"/>
<path d="M236.58 258.38C255.58 258.38 271.41 274.77 268.98 297.86C262.471 296.83 256.193 294.667 250.43 291.47C242.63 286.97 238.43 281.2 237.67 275.32L235.67 258.41C235.94 258.39 236.26 258.38 236.58 258.38Z" fill="#F6D84C"/>
<path d="M251.71 185.48C253.23 192.79 256.36 201.96 264.83 218.48C258.363 214.129 252.207 209.33 246.41 204.12C242.94 200.99 239.57 197.68 236.41 194.2C222.81 179.35 212.53 161.43 212.53 142.47C212.53 131.39 214.04 123.17 215.22 112.62C219.3 137.29 222.38 165.45 249.82 184.21C250.46 184.63 251.1 185.06 251.73 185.46L251.71 185.48Z" fill="#5F646B"/>
<path d="M266.63 221.94L264.83 218.49C256.36 201.96 253.23 192.79 251.71 185.49C255.45 187.88 259.33 189.96 262.94 192.43C263.696 198.141 265.133 203.741 267.22 209.11C272.06 219.11 273.31 223.6 273.83 227.57C270.996 226.327 268.52 224.391 266.63 221.94Z" fill="white"/>
<path d="M262.41 169.66C257.19 163.1 252.14 157.66 248.57 150.38V149.11C248.57 104.52 267.26 107.4 268.23 47.11C276.7 65.65 282.3 78.03 282.3 106.22C282.3 111.74 280.54 119.41 278.3 128.33C270.94 140.3 264.03 150.65 262.41 169.66Z" fill="#C2C7CC"/>
<path d="M229.94 211.23C229.12 205.4 231.26 199.46 236.36 194.23C239.54 197.71 242.91 201.02 246.36 204.15L245.82 204.45C238.96 208.45 234.5 213.22 232.42 218.3C231.139 216.128 230.296 213.726 229.94 211.23Z" fill="#5F646B"/>
<path d="M232.47 218.3C234.93 222.54 239.09 226.53 244.94 229.91C262.77 240.21 290.39 241.41 310.5 233.51C304.5 252.73 317.84 258.51 327.88 253.74L325.28 275.33C324.58 281.21 320.33 286.98 312.53 291.49C300.74 298.3 283.91 300.43 268.98 297.87C271.41 274.78 255.57 258.39 236.58 258.39C236.26 258.39 235.95 258.39 235.64 258.39L229.94 211.23C230.305 213.721 231.154 216.116 232.44 218.28L232.47 218.3ZM307.18 271.75C307.18 261.75 292.51 263.81 292.51 274.63C292.51 285.91 307.18 282.3 307.18 271.74V271.75Z" fill="white"/>
<path d="M244.25 134.22C240.89 118.61 234.52 95.05 216.52 83.3C216.37 73.66 215.84 64.02 215.59 54.36C230.24 73.02 245.02 91.5 245.02 120.87C245.02 124.16 244.77 128.96 244.26 134.22H244.25Z" fill="#DAE0E5"/>
<path d="M203.65 77.6801C208.22 78.8322 212.569 80.731 216.52 83.3C234.52 95.05 240.89 118.61 244.25 134.22C245.66 140.71 246.54 145.82 247.54 148.14C247.87 148.91 248.21 149.65 248.54 150.38C252.11 157.62 257.16 163.1 262.38 169.66C271.103 180.185 277.289 192.574 280.46 205.87C281.69 210.734 282.655 215.661 283.35 220.63C283.646 223.39 283.79 226.164 283.78 228.94V229.05C281.994 229.314 280.176 229.284 278.4 228.96C278.27 224.84 278.04 218.39 277.77 217.28C276.12 203.79 270.06 197.28 262.91 192.41C259.3 189.94 255.42 187.86 251.68 185.47C251.05 185.07 250.41 184.64 249.77 184.22C222.33 165.46 219.25 137.3 215.17 112.63C212.99 99.3001 210.49 86.9301 203.65 77.6801Z" fill="white"/>
<path d="M232.47 218.3C234.55 213.22 239.01 208.41 245.87 204.45L246.41 204.15" stroke="#373A3A" stroke-width="3" stroke-linecap="round" stroke-linejoin="round"/>
<path d="M305.62 199.46C309.612 200.709 313.458 202.386 317.09 204.46C323.95 208.46 328.41 213.23 330.49 218.31" stroke="#373A3A" stroke-width="3" stroke-linecap="round" stroke-linejoin="round"/>
<path d="M229.94 210.88V211.23L235.61 258.41L237.61 275.32C238.33 281.2 242.61 286.97 250.37 291.47C256.133 294.667 262.411 296.83 268.92 297.86C283.85 300.42 300.68 298.29 312.47 291.48C320.27 286.97 324.52 281.2 325.22 275.32L327.82 253.73L332.97 210.95" stroke="#373A3A" stroke-width="3" stroke-linecap="round" stroke-linejoin="round"/>
<path d="M235.64 258.41C235.95 258.41 236.26 258.41 236.58 258.41C255.58 258.41 271.41 274.8 268.98 297.89" stroke="#373A3A" stroke-width="3" stroke-linecap="round" stroke-linejoin="round"/>
<path d="M310.5 233.5C304.5 252.72 317.84 258.5 327.88 253.73" stroke="#373A3A" stroke-width="3" stroke-linecap="round" stroke-linejoin="round"/>
<path d="M292.51 274.62C292.51 285.91 307.18 282.34 307.18 271.74C307.18 261.75 292.51 263.8 292.51 274.62Z" stroke="#373A3A" stroke-width="3" stroke-linecap="round" stroke-linejoin="round"/>
<path d="M280.49 205.87C280.37 203.82 280.32 201.75 280.32 199.69C280.324 194.64 280.722 189.598 281.51 184.61C288.82 137.61 327.67 100.75 331.85 61.26C334.196 68.7729 335.466 76.5807 335.62 84.45C335.62 109.52 317.2 133.72 310.26 154.34" stroke="#373A3A" stroke-width="3" stroke-linecap="round" stroke-linejoin="round"/>
<path d="M283.81 229.05V228.94C283.82 226.164 283.676 223.39 283.38 220.63C282.684 215.661 281.72 210.734 280.49 205.87C277.318 192.574 271.132 180.185 262.41 169.66C257.19 163.1 252.14 157.66 248.57 150.38C248.21 149.65 247.87 148.91 247.57 148.14C246.57 145.82 245.69 140.71 244.28 134.22C240.92 118.61 234.55 95.05 216.55 83.3C212.598 80.731 208.25 78.8322 203.68 77.6801C210.52 86.9301 213.02 99.2601 215.23 112.68C219.31 137.35 222.39 165.51 249.83 184.27C250.47 184.69 251.11 185.12 251.74 185.52C255.48 187.91 259.36 189.99 262.97 192.46C270.12 197.37 276.18 203.84 277.83 217.33C278.1 218.44 278.33 224.89 278.46 229.01" stroke="#373A3A" stroke-width="3" stroke-linecap="round" stroke-linejoin="round"/>
<path d="M248.57 150.38V149.11C248.57 104.52 267.26 107.4 268.23 47.11C276.7 65.65 282.3 78.03 282.3 106.22C282.3 111.74 280.54 119.41 278.3 128.33" stroke="#373A3A" stroke-width="3" stroke-linecap="round" stroke-linejoin="round"/>
<path d="M309.82 183.84C312.648 184.906 315.387 186.196 318.01 187.7C329.01 194.06 334.01 202.57 333.01 210.88V210.95C332.665 213.539 331.801 216.033 330.47 218.28C328.02 222.53 323.86 226.52 318 229.9C315.589 231.291 313.075 232.494 310.48 233.5C290.37 241.4 262.75 240.2 244.92 229.9C239.07 226.52 234.92 222.53 232.45 218.29C231.164 216.126 230.315 213.731 229.95 211.24C229.13 205.41 231.27 199.47 236.37 194.24" stroke="#373A3A" stroke-width="3" stroke-linecap="round" stroke-linejoin="round"/>
<path d="M264.85 218.5C258.383 214.149 252.228 209.35 246.43 204.14C242.96 201.01 239.59 197.7 236.43 194.22C222.83 179.37 212.55 161.45 212.55 142.49C212.55 131.41 214.06 123.19 215.24 112.64" stroke="#373A3A" stroke-width="3" stroke-linecap="round" stroke-linejoin="round"/>
<path d="M216.52 83.3C216.37 73.66 215.84 64.02 215.59 54.36C230.24 73.02 245.02 91.5 245.02 120.87C245.02 124.16 244.77 128.96 244.26 134.22" stroke="#373A3A" stroke-width="3" stroke-linecap="round" stroke-linejoin="round"/>
<path d="M273.83 227.55C273.31 223.55 272.06 219.1 267.22 209.09C265.133 203.721 263.696 198.121 262.94 192.41" stroke="#373A3A" stroke-width="3" stroke-linecap="round" stroke-linejoin="round"/>
<path d="M262.41 169.66C264.03 150.66 270.9 140.31 278.32 128.31C283.72 119.58 289.39 109.96 293.54 95.49C293.65 97.22 293.71 98.95 293.71 100.65C293.71 131.29 279.09 145.13 279.09 169.8C279.08 174.835 279.894 179.838 281.5 184.61" stroke="#373A3A" stroke-width="3" stroke-linecap="round" stroke-linejoin="round"/>
<path d="M251.71 185.48C253.23 192.79 256.36 201.96 264.83 218.48L266.63 221.93C268.522 224.373 270.998 226.302 273.83 227.54C275.296 228.207 276.842 228.681 278.43 228.95C280.206 229.274 282.024 229.304 283.81 229.04C285.592 228.778 287.297 228.137 288.81 227.16M288.81 227.16C291.176 225.566 292.866 223.15 293.55 220.38C294.934 215.321 297.517 210.669 301.08 206.82C303.032 204.67 304.559 202.169 305.58 199.45C307.58 194.25 308.23 188.62 309.79 183.83C309.79 183.7 309.87 183.58 309.91 183.45C323.61 143.12 372.51 172.99 372.51 124.91C372.363 118.686 371.404 112.507 369.66 106.53C363.77 135.53 350.56 139.7 329.6 143.44C321.92 144.81 315.51 148.81 310.22 154.33C293.78 171.46 288.06 203.2 288.06 216.07C288.06 217.53 288.06 218.98 288.2 220.45C288.264 222.697 288.468 224.938 288.81 227.16Z" stroke="#373A3A" stroke-width="3" stroke-linecap="round" stroke-linejoin="round"/>
<path d="M532.3 426.84C539.05 430.73 542.12 435.95 541.51 441.05C541.3 442.637 540.769 444.164 539.95 445.54C538.68 442.43 535.95 439.48 531.74 437.05C529.523 435.799 527.175 434.793 524.74 434.05C526 430.86 526.37 427.4 527.32 424.47C529.04 425.128 530.705 425.921 532.3 426.84Z" fill="#5F646B"/>
<path d="M539.94 445.58C540.759 444.205 541.29 442.677 541.5 441.09L538.35 467.3C532.19 470.2 524.05 466.68 527.7 454.9C529.288 454.283 530.826 453.544 532.3 452.69C535.431 451.038 538.068 448.584 539.94 445.58Z" fill="#F6D84C"/>
<path d="M524.7 434.05C527.135 434.793 529.482 435.799 531.7 437.05C535.91 439.48 538.64 442.43 539.91 445.54C538.039 448.548 535.402 451.005 532.27 452.66C530.796 453.514 529.258 454.253 527.67 454.87C515.34 459.71 498.41 458.97 487.48 452.66C484.355 450.996 481.718 448.545 479.83 445.55C481.11 442.44 483.83 439.49 488.05 437.06L488.38 436.87C491.933 440.067 495.705 443.011 499.67 445.68L500.77 447.79C501.935 449.288 503.454 450.473 505.19 451.24C506.091 451.642 507.038 451.931 508.01 452.1C509.099 452.28 510.211 452.28 511.3 452.1C512.404 451.944 513.462 451.552 514.4 450.95C515.844 449.971 516.877 448.493 517.3 446.8C518.149 443.698 519.73 440.845 521.91 438.48C523.108 437.19 524.055 435.688 524.7 434.05Z" fill="#373A3A"/>
<path d="M516.67 480.12C516.67 473.49 525.67 472.23 525.67 478.35C525.66 484.85 516.67 487.04 516.67 480.12Z" fill="#373A3A"/>
<path d="M521.94 438.56C519.76 440.925 518.179 443.778 517.33 446.88C516.907 448.573 515.874 450.051 514.43 451.03C514.214 449.67 514.087 448.297 514.05 446.92C513.99 446.02 513.96 445.12 513.96 444.23C513.96 436.34 517.47 416.89 527.55 406.38C530.689 402.941 534.85 400.602 539.42 399.71C552.27 397.42 560.37 394.88 563.98 377.09C565.054 380.751 565.642 384.536 565.73 388.35C565.73 417.82 535.73 399.51 527.36 424.24C527.329 424.315 527.302 424.392 527.28 424.47C526.28 427.4 525.96 430.86 524.7 434.05C524.072 435.714 523.136 437.244 521.94 438.56Z" fill="white"/>
<path d="M527.551 406.38C517.471 416.89 513.96 436.38 513.96 444.23C513.96 445.12 513.961 446.02 514.051 446.92C514.088 448.297 514.215 449.67 514.43 451.03C513.492 451.632 512.434 452.024 511.33 452.18V452.11C511.337 450.41 511.251 448.711 511.07 447.02C510.641 443.991 510.051 440.986 509.301 438.02C509.231 436.76 509.19 435.49 509.19 434.23C509.194 431.132 509.438 428.04 509.92 424.98C514.41 396.19 538.221 373.58 540.781 349.37C542.219 353.977 542.997 358.765 543.09 363.59C543.09 378.92 531.801 393.75 527.551 406.38Z" fill="#C2C7CC"/>
<path d="M509.3 437.98C507.356 429.827 503.562 422.231 498.21 415.78C499.21 404.12 503.42 397.78 507.97 390.43C512.057 384.221 515.201 377.441 517.3 370.31C517.37 371.38 517.4 372.43 517.4 373.48C517.4 392.26 508.4 400.74 508.4 415.87C508.394 418.954 508.894 422.018 509.88 424.94C509.397 428 509.153 431.092 509.15 434.19C509.15 435.45 509.15 436.72 509.26 437.98H509.3Z" fill="white"/>
<path d="M508.04 452.13C507.068 451.961 506.121 451.672 505.22 451.27C504.9 448.83 504.13 446.08 501.17 439.95C499.885 436.662 499.002 433.23 498.54 429.73C502.92 432.73 506.64 436.73 507.65 444.97C507.82 445.65 507.94 449.6 508.04 452.13Z" fill="white"/>
<path d="M482.38 470.16C494.02 470.16 503.73 480.16 502.24 494.36C498.251 493.728 494.404 492.405 490.87 490.45C486.09 487.69 483.49 484.15 483.05 480.54L481.81 470.18L482.38 470.16Z" fill="#F6D84C"/>
<path d="M491.66 425.47C492.59 429.95 494.51 435.57 499.66 445.71C495.696 443.041 491.923 440.097 488.37 436.9C486.24 434.99 484.18 432.96 482.22 430.83C473.89 421.72 467.59 410.74 467.59 399.12C467.59 392.33 468.52 387.29 469.24 380.82C471.74 395.94 473.63 413.21 490.45 424.7L491.62 425.47H491.66Z" fill="#5F646B"/>
<path d="M500.8 447.82L499.7 445.71C494.51 435.57 492.59 429.95 491.7 425.47C493.99 426.93 496.37 428.21 498.58 429.73C499.042 433.23 499.925 436.662 501.21 439.95C504.21 446.08 504.94 448.83 505.26 451.27C503.51 450.509 501.977 449.323 500.8 447.82Z" fill="white"/>
<path d="M498.21 415.78C495.01 411.78 491.92 408.4 489.74 403.96C489.74 403.7 489.74 403.44 489.74 403.18C489.74 375.85 501.2 377.62 501.8 340.65C506.98 352.01 510.42 359.6 510.42 376.88C510.42 380.26 509.34 384.96 507.98 390.43C503.42 397.79 499.21 404.12 498.21 415.78Z" fill="#C2C7CC"/>
<path d="M478.33 441.3C477.83 437.72 479.14 434.08 482.26 430.87C484.26 433 486.26 435.03 488.41 436.94L488.08 437.13C483.87 439.56 481.14 442.51 479.86 445.62C479.074 444.293 478.555 442.826 478.33 441.3Z" fill="#5F646B"/>
<path d="M479.86 445.59C481.748 448.585 484.385 451.036 487.51 452.7C498.44 459.01 515.37 459.7 527.7 454.91C524.05 466.69 532.19 470.21 538.35 467.31L536.75 480.54C536.32 484.15 533.75 487.69 528.94 490.45C521.71 494.62 511.39 495.93 502.24 494.36C503.73 480.21 494.02 470.16 482.38 470.16H481.81L478.33 441.3C478.555 442.826 479.074 444.293 479.86 445.62V445.59ZM525.66 478.35C525.66 472.23 516.66 473.49 516.66 480.12C516.67 487.04 525.66 484.85 525.66 478.35Z" fill="white"/>
<path d="M487.09 394.06C485.02 384.49 481.09 370.06 470.09 362.84C470 356.93 469.67 351.03 469.52 345.1C478.52 356.54 487.52 367.87 487.52 385.87C487.52 387.87 487.36 390.87 487.05 394.06H487.09Z" fill="#DAE0E5"/>
<path d="M462.2 359.4C465.002 360.102 467.669 361.265 470.09 362.84C481.09 370.04 485.02 384.49 487.09 394.06C487.95 398.06 488.49 401.17 489.09 402.59C489.29 403.06 489.5 403.51 489.73 403.96C491.91 408.4 495 411.76 498.2 415.78C503.552 422.231 507.347 429.827 509.29 437.98C510.04 440.946 510.631 443.951 511.06 446.98C511.241 448.671 511.327 450.37 511.32 452.07V452.14C510.231 452.32 509.12 452.32 508.03 452.14C507.95 449.61 507.81 445.66 507.64 444.98C506.64 436.71 502.91 432.74 498.53 429.74C496.32 428.22 493.94 426.94 491.65 425.48L490.48 424.71C473.66 413.22 471.77 395.95 469.27 380.83C467.94 372.63 466.39 365.07 462.2 359.4Z" fill="white"/>
<path d="M479.86 445.58C481.14 442.47 483.86 439.52 488.08 437.09L488.41 436.9" stroke="#373A3A" stroke-width="1.8389" stroke-linecap="round" stroke-linejoin="round"/>
<path d="M524.7 434.05C527.135 434.793 529.483 435.799 531.7 437.05C535.91 439.48 538.64 442.43 539.91 445.54" stroke="#373A3A" stroke-width="1.8389" stroke-linecap="round" stroke-linejoin="round"/>
<path d="M478.31 441.05V441.26L481.79 470.18L483.03 480.54C483.47 484.15 486.03 487.69 490.85 490.45C494.384 492.405 498.231 493.728 502.22 494.36C511.37 495.93 521.69 494.62 528.92 490.45C533.7 487.69 536.3 484.15 536.73 480.54L538.33 467.31L541.48 441.09" stroke="#373A3A" stroke-width="1.8389" stroke-linecap="round" stroke-linejoin="round"/>
<path d="M481.81 470.18H482.38C494.02 470.18 503.73 480.18 502.24 494.38" stroke="#373A3A" stroke-width="1.8389" stroke-linecap="round" stroke-linejoin="round"/>
<path d="M527.7 454.91C524.05 466.69 532.19 470.21 538.35 467.31" stroke="#373A3A" stroke-width="1.8389" stroke-linecap="round" stroke-linejoin="round"/>
<path d="M516.67 480.12C516.67 487.04 525.67 484.85 525.67 478.35C525.66 472.23 516.67 473.49 516.67 480.12Z" stroke="#373A3A" stroke-width="1.8389" stroke-linecap="round" stroke-linejoin="round"/>
<path d="M509.301 437.98C509.231 436.72 509.19 435.45 509.19 434.19C509.194 431.092 509.438 428 509.92 424.94C514.41 396.15 538.221 373.54 540.781 349.33C542.219 353.937 542.997 358.725 543.09 363.55C543.09 378.92 531.801 393.75 527.551 406.38" stroke="#373A3A" stroke-width="1.8389" stroke-linecap="round" stroke-linejoin="round"/>
<path d="M511.33 452.18V452.11C511.337 450.41 511.25 448.711 511.07 447.02C510.641 443.991 510.05 440.986 509.3 438.02C507.356 429.867 503.562 422.271 498.21 415.82C495.01 411.82 491.92 408.44 489.74 404C489.51 403.55 489.3 403.1 489.1 402.63C488.49 401.21 487.95 398.07 487.1 394.1C485.03 384.53 481.1 370.1 470.1 362.88C467.678 361.305 465.012 360.143 462.21 359.44C466.4 365.11 467.93 372.67 469.29 380.86C471.79 395.98 473.68 413.25 490.5 424.74L491.67 425.51C493.96 426.97 496.34 428.25 498.55 429.77C502.93 432.77 506.65 436.77 507.66 445.01C507.83 445.69 507.97 449.64 508.05 452.17" stroke="#373A3A" stroke-width="1.8389" stroke-linecap="round" stroke-linejoin="round"/>
<path d="M489.74 403.96C489.74 403.7 489.74 403.44 489.74 403.18C489.74 375.85 501.2 377.62 501.8 340.65C506.98 352.01 510.42 359.6 510.42 376.88C510.42 380.26 509.34 384.96 507.98 390.43" stroke="#373A3A" stroke-width="1.8389" stroke-linecap="round" stroke-linejoin="round"/>
<path d="M527.28 424.47C529.007 425.127 530.679 425.92 532.28 426.84C539.03 430.73 542.1 435.95 541.49 441.05C541.28 442.637 540.749 444.164 539.93 445.54C538.059 448.548 535.423 451.005 532.29 452.66C530.816 453.514 529.278 454.253 527.69 454.87C515.36 459.71 498.43 458.97 487.5 452.66C484.375 450.996 481.738 448.545 479.85 445.55C479.065 444.223 478.545 442.756 478.32 441.23C477.82 437.65 479.13 434.01 482.25 430.8" stroke="#373A3A" stroke-width="1.8389" stroke-linecap="round" stroke-linejoin="round"/>
<path d="M499.71 445.71C495.746 443.041 491.973 440.097 488.42 436.9C486.29 434.99 484.23 432.96 482.27 430.83C473.94 421.72 467.64 410.74 467.64 399.12C467.64 392.33 468.57 387.29 469.29 380.82" stroke="#373A3A" stroke-width="1.8389" stroke-linecap="round" stroke-linejoin="round"/>
<path d="M470.09 362.84C470 356.93 469.67 351.03 469.52 345.1C478.52 356.54 487.52 367.87 487.52 385.87C487.52 387.87 487.36 390.87 487.05 394.06" stroke="#373A3A" stroke-width="1.8389" stroke-linecap="round" stroke-linejoin="round"/>
<path d="M505.22 451.3C504.9 448.86 504.13 446.11 501.17 439.98C499.885 436.692 499.002 433.26 498.54 429.76" stroke="#373A3A" stroke-width="1.8389" stroke-linecap="round" stroke-linejoin="round"/>
<path d="M498.21 415.78C499.21 404.12 503.42 397.78 507.97 390.43C512.057 384.221 515.201 377.441 517.3 370.31C517.37 371.38 517.4 372.43 517.4 373.48C517.4 392.26 508.4 400.74 508.4 415.87C508.394 418.954 508.894 422.018 509.88 424.94" stroke="#373A3A" stroke-width="1.8389" stroke-linecap="round" stroke-linejoin="round"/>
<path d="M491.66 425.47C492.59 429.95 494.51 435.57 499.66 445.71L500.76 447.82C501.925 449.318 503.444 450.503 505.18 451.27C506.081 451.672 507.028 451.961 508 452.13C509.09 452.31 510.201 452.31 511.29 452.13C512.394 451.974 513.452 451.582 514.39 450.98M514.39 450.98C515.835 450.001 516.867 448.523 517.29 446.83C518.139 443.728 519.72 440.875 521.9 438.51C523.096 437.194 524.033 435.664 524.66 434C525.92 430.81 526.29 427.35 527.24 424.42C527.262 424.342 527.289 424.265 527.32 424.19C535.71 399.46 565.69 417.77 565.69 388.3C565.602 384.486 565.014 380.701 563.94 377.04C560.33 394.83 552.23 397.37 539.38 399.66C534.81 400.552 530.649 402.891 527.51 406.33C517.43 416.84 513.92 436.33 513.92 444.18C513.92 445.07 513.92 445.97 514.01 446.87C514.048 448.247 514.174 449.62 514.39 450.98Z" stroke="#373A3A" stroke-width="1.8389" stroke-linecap="round" stroke-linejoin="round"/>
<path d="M239.32 499.2C239.32 503.36 240.75 506.26 242.98 507.42L264.19 518.42C262 517.24 260.6 514.42 260.6 510.24V395.3L239.32 383.02V499.2Z" fill="#DAE0E5"/>
<path d="M271.94 334.96C270.09 329.03 270.59 324.46 271.94 322.48C272.171 322.121 272.489 321.826 272.865 321.623C273.241 321.42 273.662 321.316 274.09 321.32C276.34 321.23 280.42 322.82 284.76 327.55C285.03 327.82 285.27 328.1 285.53 328.4C285.79 328.7 285.99 328.94 286.19 329.19C289.621 333.445 292.018 338.44 293.19 343.78C293.33 344.49 293.44 345.18 293.52 345.84C293.811 347.845 293.678 349.889 293.13 351.84C292.967 352.391 292.721 352.914 292.4 353.39C292.167 353.744 291.856 354.038 291.49 354.25C290.059 355.01 288.989 356.307 288.514 357.856C288.04 359.405 288.2 361.079 288.96 362.51C289.48 363.49 290.258 364.31 291.209 364.881C292.161 365.452 293.25 365.752 294.36 365.75C295.358 365.752 296.341 365.504 297.22 365.03C299.29 363.93 301.064 362.345 302.39 360.41C303.419 358.939 304.212 357.316 304.74 355.6C306.094 350.985 306.242 346.099 305.17 341.41C305.04 340.74 304.89 340.08 304.71 339.41C303.003 332.907 299.935 326.84 295.71 321.61L295.5 321.35L294.73 320.44C288.32 312.96 280.58 308.83 273.49 309.16C271.202 309.239 268.965 309.852 266.958 310.952C264.95 312.051 263.228 313.605 261.93 315.49C257.74 321.43 257.31 330.41 260.72 340.13C260.843 340.478 261.001 340.813 261.19 341.13L271.94 334.96Z" fill="white"/>
<path d="M281.87 462.08V481.3C281.87 484.71 283.94 486.3 286.49 484.79L316.33 467.56V442.2L281.87 462.08Z" fill="#5F646B"/>
<path d="M281.88 433.26V462.07L316.34 442.18V413.37L281.88 433.26Z" fill="white"/>
<path d="M281.87 410.62V433.3L316.33 413.41V384.6L286.49 401.83C283.94 403.3 281.87 407.22 281.87 410.62Z" fill="white"/>
<path d="M260.6 395.3V378.3C260.6 370.91 265.09 362.3 270.6 359.12L293.6 345.87C293.52 345.21 293.41 344.52 293.27 343.81C292.098 338.47 289.702 333.475 286.27 329.22C286.07 328.97 285.85 328.72 285.61 328.43C285.37 328.14 285.11 327.85 284.84 327.58L271.94 334.96L261.25 341.13L249.34 348.01C243.81 351.2 239.34 359.78 239.34 367.17V383.04L260.6 395.3Z" fill="#969A9E"/>
<path d="M316.34 442.18V467.54L350.81 447.64V422.28L316.34 442.18Z" fill="white"/>
<path d="M316.34 413.37V442.18L350.81 422.28V393.47L316.34 413.37Z" fill="#373A3A"/>
<path d="M316.34 384.55V413.37L350.81 393.47V364.66L316.34 384.55Z" fill="white"/>
<path d="M335.3 298.38L345.98 292.21C344.14 286.27 344.64 281.7 345.98 279.73C346.205 279.37 346.519 279.074 346.892 278.871C347.265 278.667 347.685 278.564 348.11 278.57C350.35 278.45 354.42 280.05 358.78 284.79C359.03 285.06 359.29 285.35 359.54 285.65L360.23 286.47C363.664 290.713 366.06 295.698 367.23 301.03C367.38 301.73 367.48 302.42 367.56 303.09C367.851 305.095 367.718 307.139 367.17 309.09C367.01 309.643 366.767 310.169 366.45 310.65C366.215 311 365.9 311.289 365.53 311.49C364.101 312.25 363.034 313.546 362.561 315.093C362.088 316.64 362.25 318.312 363.009 319.74C363.527 320.721 364.302 321.542 365.252 322.115C366.202 322.688 367.29 322.99 368.4 322.99C369.397 322.995 370.38 322.751 371.259 322.28C373.325 321.177 375.098 319.596 376.43 317.67C377.465 316.196 378.265 314.57 378.8 312.85C380.142 308.235 380.283 303.354 379.21 298.67C379.08 297.99 378.93 297.33 378.75 296.67C377.043 290.167 373.975 284.1 369.75 278.87L369.67 278.77L369.54 278.62C369.29 278.31 369.03 278 368.77 277.7C362.33 270.2 354.55 266.07 347.5 266.41C345.218 266.497 342.988 267.115 340.987 268.213C338.986 269.312 337.268 270.862 335.97 272.74C331.8 278.74 331.35 287.67 334.75 297.38C334.9 297.731 335.084 298.065 335.3 298.38Z" fill="white"/>
<path d="M358.83 284.79L345.94 292.21L335.26 298.38L295.57 321.3L295.78 321.56C300.005 326.79 303.073 332.857 304.78 339.36L367.63 303.07C367.55 302.4 367.45 301.71 367.3 301.01C366.131 295.678 363.734 290.693 360.3 286.45L359.61 285.63C359.36 285.33 359.1 285.04 358.85 284.77L358.83 284.79Z" fill="#969A9E"/>
<path d="M350.81 422.3V447.67L380.66 430.44C383.2 428.96 385.28 425.01 385.28 421.6V402.4L350.81 422.3Z" fill="white"/>
<path d="M350.81 393.47V422.28L385.28 402.37V373.56L350.81 393.47Z" fill="#F6D84C"/>
<path d="M350.81 364.66V393.47L385.28 373.56V350.92C385.28 347.52 383.2 345.92 380.66 347.43L350.81 364.66Z" fill="white"/>
<path d="M378.81 296.63L394.27 287.72C396.69 286.32 398.92 286.18 400.65 287.07L379.37 275.98C377.63 275.09 375.37 275.23 373 276.62L369.61 278.62L369.74 278.77L369.82 278.87C374.037 284.089 377.101 290.142 378.81 296.63Z" fill="#969A9E"/>
<path d="M404.31 312.36L260.6 395.36V510.36C260.6 514.49 262 517.36 264.19 518.54H264.26C265.99 519.44 268.26 519.3 270.63 517.9L394.27 446.53C399.81 443.32 404.27 434.75 404.27 427.35L404.31 312.36ZM281.87 481.3V410.64C281.87 407.24 283.94 403.28 286.49 401.81L316.33 384.58L350.81 364.68L380.66 347.45C383.2 345.97 385.28 347.54 385.28 350.94V421.6C385.28 425.01 383.2 428.96 380.66 430.44L350.81 447.67L316.33 467.56L286.49 484.79C283.94 486.3 281.87 484.69 281.87 481.3Z" fill="white"/>
<path d="M404.31 312.36V295.3C404.31 291.14 402.87 288.24 400.65 287.07C398.92 286.18 396.65 286.32 394.27 287.72L378.81 296.63C378.99 297.3 379.14 297.96 379.27 298.63C380.343 303.314 380.202 308.195 378.86 312.81C378.325 314.53 377.526 316.156 376.49 317.63C375.158 319.556 373.386 321.137 371.32 322.24C370.441 322.711 369.458 322.955 368.46 322.95C367.351 322.95 366.263 322.648 365.313 322.075C364.363 321.502 363.587 320.681 363.07 319.7C362.31 318.272 362.149 316.6 362.622 315.053C363.094 313.506 364.162 312.21 365.59 311.45C365.96 311.249 366.276 310.96 366.51 310.61C366.828 310.129 367.07 309.603 367.23 309.05C367.779 307.099 367.912 305.055 367.62 303.05L304.77 339.34C304.95 340.01 305.1 340.67 305.23 341.34C306.302 346.029 306.154 350.915 304.8 355.53C304.272 357.246 303.479 358.869 302.45 360.34C301.125 362.275 299.351 363.86 297.28 364.96C296.401 365.434 295.418 365.682 294.42 365.68C293.31 365.682 292.221 365.382 291.27 364.811C290.318 364.24 289.54 363.42 289.02 362.44C288.261 361.009 288.101 359.335 288.575 357.786C289.049 356.237 290.119 354.94 291.55 354.18C291.916 353.968 292.228 353.674 292.46 353.32C292.781 352.844 293.028 352.321 293.19 351.77C293.739 349.819 293.872 347.775 293.58 345.77L270.58 359.02C265.04 362.23 260.58 370.81 260.58 378.2V395.2L404.31 312.36Z" fill="#373A3A"/>
<path d="M293.58 345.84L270.58 359.09C265.04 362.3 260.58 370.88 260.58 378.27V510.27C260.58 514.4 261.98 517.27 264.17 518.45" stroke="#3A3A3A" stroke-width="3" stroke-linecap="round" stroke-linejoin="round"/>
<path d="M404.31 312.35L260.6 395.32L239.32 383.04" stroke="#3A3A3A" stroke-width="3" stroke-linecap="round" stroke-linejoin="round"/>
<path d="M400.65 287.07L379.37 275.98C377.63 275.09 375.37 275.23 373 276.62L369.61 278.62" stroke="#3A3A3A" stroke-width="3" stroke-linecap="round" stroke-linejoin="round"/>
<path d="M358.83 284.78L345.98 292.21L335.3 298.38L295.57 321.32" stroke="#3A3A3A" stroke-width="3" stroke-linecap="round" stroke-linejoin="round"/>
<path d="M284.8 327.55L271.94 334.96L261.25 341.13L249.34 348.01C243.81 351.2 239.34 359.78 239.34 367.17V499.17C239.34 503.33 240.77 506.23 243 507.39L264.21 518.39H264.28C266.01 519.29 268.28 519.15 270.65 517.75L394.29 446.38C399.83 443.17 404.29 434.6 404.29 427.2V295.3C404.29 291.14 402.85 288.24 400.63 287.07C398.9 286.18 396.63 286.32 394.25 287.72L378.79 296.63" stroke="#3A3A3A" stroke-width="3" stroke-linecap="round" stroke-linejoin="round"/>
<path d="M367.62 303.09L304.77 339.38" stroke="#3A3A3A" stroke-width="3" stroke-linecap="round" stroke-linejoin="round"/>
<path d="M271.94 334.96C270.09 329.03 270.59 324.46 271.94 322.48C272.171 322.121 272.489 321.826 272.865 321.623C273.241 321.42 273.662 321.316 274.09 321.32C276.34 321.23 280.42 322.82 284.76 327.55C285.03 327.82 285.27 328.1 285.53 328.4C285.79 328.7 285.99 328.94 286.19 329.19C289.621 333.445 292.018 338.44 293.19 343.78C293.33 344.49 293.44 345.18 293.52 345.84C293.811 347.845 293.678 349.889 293.13 351.84C292.967 352.391 292.721 352.914 292.4 353.39C292.167 353.744 291.856 354.038 291.49 354.25C290.059 355.01 288.989 356.307 288.514 357.856C288.04 359.405 288.2 361.079 288.96 362.51C289.48 363.49 290.258 364.31 291.209 364.881C292.161 365.452 293.25 365.752 294.36 365.75C295.358 365.752 296.341 365.504 297.22 365.03C299.29 363.93 301.064 362.345 302.39 360.41C303.419 358.939 304.212 357.316 304.74 355.6C306.094 350.985 306.242 346.099 305.17 341.41C305.04 340.74 304.89 340.08 304.71 339.41C303.003 332.907 299.935 326.84 295.71 321.61L295.5 321.35L294.73 320.44C288.32 312.96 280.58 308.83 273.49 309.16C271.202 309.239 268.965 309.852 266.958 310.952C264.95 312.051 263.228 313.605 261.93 315.49C257.74 321.43 257.31 330.41 260.72 340.13C260.843 340.478 261.001 340.813 261.19 341.13" stroke="#3A3A3A" stroke-width="3" stroke-linecap="round" stroke-linejoin="round"/>
<path d="M345.94 292.21C344.1 286.27 344.6 281.7 345.94 279.73C346.165 279.37 346.479 279.074 346.852 278.871C347.226 278.667 347.645 278.564 348.07 278.57C350.31 278.45 354.38 280.05 358.74 284.79C358.99 285.06 359.25 285.35 359.5 285.65L360.19 286.47C363.624 290.713 366.02 295.698 367.19 301.03C367.34 301.73 367.44 302.42 367.52 303.09C367.811 305.095 367.678 307.139 367.129 309.09C366.97 309.643 366.727 310.169 366.41 310.65C366.175 311 365.86 311.289 365.49 311.49C364.061 312.25 362.994 313.546 362.521 315.093C362.049 316.64 362.21 318.312 362.97 319.74C363.487 320.721 364.262 321.542 365.212 322.115C366.162 322.688 367.25 322.99 368.36 322.99C369.357 322.995 370.34 322.751 371.22 322.28C373.285 321.177 375.058 319.596 376.389 317.67C377.425 316.196 378.225 314.57 378.759 312.85C380.102 308.235 380.243 303.354 379.17 298.67C379.04 297.99 378.89 297.33 378.71 296.67C377.003 290.167 373.935 284.1 369.71 278.87L369.629 278.77L369.5 278.62C369.25 278.31 368.99 278 368.73 277.7C362.29 270.2 354.51 266.07 347.46 266.41C345.178 266.497 342.948 267.115 340.947 268.213C338.946 269.312 337.228 270.862 335.93 272.74C331.76 278.74 331.31 287.67 334.71 297.38C334.837 297.728 334.998 298.063 335.19 298.38" stroke="#3A3A3A" stroke-width="3" stroke-linecap="round" stroke-linejoin="round"/>
<path d="M281.87 462.08V481.3C281.87 484.71 283.94 486.3 286.49 484.79L316.33 467.56L350.81 447.67L380.66 430.44C383.2 428.96 385.28 425.01 385.28 421.6V350.94C385.28 347.54 383.2 345.94 380.66 347.45L350.81 364.68L316.33 384.58L286.49 401.81C283.94 403.28 281.87 407.24 281.87 410.64V462.1V462.08Z" stroke="#3A3A3A" stroke-width="3" stroke-linecap="round" stroke-linejoin="round"/>
<path d="M350.81 364.66V393.47V422.28V447.64" stroke="#3A3A3A" stroke-width="3" stroke-linecap="round" stroke-linejoin="round"/>
<path d="M316.34 384.55V413.37V442.18V467.54" stroke="#3A3A3A" stroke-width="3" stroke-linecap="round" stroke-linejoin="round"/>
<path d="M385.28 373.56L350.81 393.47L316.34 413.37L281.88 433.26" stroke="#3A3A3A" stroke-width="3" stroke-linecap="round" stroke-linejoin="round"/>
<path d="M385.28 402.37L350.81 422.28L316.34 442.18L281.88 462.07" stroke="#3A3A3A" stroke-width="3" stroke-linecap="round" stroke-linejoin="round"/>
</g>
<defs>
<clipPath id="clip0_2654_2545">
<rect width="783.65" height="520.57" fill="white"/>
</clipPath>
</defs>
</svg>
