<svg xmlns="http://www.w3.org/2000/svg" viewBox="0 0 451.02 419.49"><defs><style>.cls-1{fill:#ebebeb;}.cls-2{fill:#fff;}.cls-3{fill:#e0e0e0;}.cls-4{fill:#fafbfb;}.cls-5{fill:#f5f5f5;}.cls-6{fill:#455b64;}.cls-7{fill:#263238;}.cls-8{fill:#ffcf33;}.cls-9{fill:#a36958;}.cls-10{fill:#7d3c29;}.cls-11{fill:#e7515b;}.cls-12{opacity:0.3;}.cls-13{opacity:0.2;}.cls-14{fill:#fcd0bd;}.cls-15{fill:#cc8f75;}.cls-16{opacity:0.78;}</style></defs><g id="Layer_2" data-name="Layer 2"><g id="Layer_1-2" data-name="Layer 1"><rect class="cls-1" x="16.97" y="231.06" width="63.04" height="63.04" rx="6.37" transform="matrix(0.98, -0.21, 0.21, 0.98, -53.89, 15.97)"/><path class="cls-2" d="M70.79,268.52a4.1,4.1,0,0,0-.38-1.33c0-.13-.11-.26-.17-.43a11.17,11.17,0,0,0-4.8-4.52A24.3,24.3,0,0,0,59.68,260l-.25-.06a.38.38,0,0,0-.42.17l-3.9,6.69-14.35-9.21,3.91-7.22a.37.37,0,0,0,0-.29.34.34,0,0,0-.2-.22l-3.29-1.58c-.54-.25-.88-.41-1.1-.48l-.32-.18-.19-.09a4.93,4.93,0,0,0-.74-.32,10.21,10.21,0,0,0-3.92-.6,10.06,10.06,0,0,0-5.86,2.23,9.31,9.31,0,0,0-3.52,7.45,6.51,6.51,0,0,0,2.12,4.54,13.5,13.5,0,0,0,2.08,1.53l21.84,14,.81.52c.62.4,1.27.82,2,1.19a12.88,12.88,0,0,0,3.26,1.15,12,12,0,0,0,2.38.24,11.31,11.31,0,0,0,4.61-1,10.61,10.61,0,0,0,5.11-4.84,8.42,8.42,0,0,0,.68-1.63l.09-.29a4.52,4.52,0,0,0,.3-1.45l.07-.94Zm-27.35-18-4.11,7.23a.39.39,0,0,0,.12.5l15.8,10.36a.33.33,0,0,0,.29.05.36.36,0,0,0,.23-.17l4.08-6.89a22.6,22.6,0,0,1,4.88,2,10,10,0,0,1,4.16,3.85c0,.14.1.28.16.42a2.59,2.59,0,0,1,.26.94l.11.65-.07.8a3.67,3.67,0,0,1-.23,1.08l-.1.31a6.75,6.75,0,0,1-.59,1.38A9.1,9.1,0,0,1,64,277.12a10.07,10.07,0,0,1-6.08.63,11.05,11.05,0,0,1-2.88-1,20,20,0,0,1-1.87-1.11c-.27-.18-.55-.36-.82-.52L30.5,261.25a12,12,0,0,1-1.91-1.37,5.25,5.25,0,0,1-1.75-3.62,8.23,8.23,0,0,1,3-6.5A9.2,9.2,0,0,1,35,247.67l.67,0a9.4,9.4,0,0,1,3.82.76,1.7,1.7,0,0,0,.33.12c.2.14.52.31,1,.57Z"/><path class="cls-2" d="M50.17,252.68a27.33,27.33,0,0,0,4.39-.7c.84,4.22,1.15,4.67,1.46,4.67l.12,0h0c.35-.07.63-.13-.27-4.93,4.88-1,4.84-1.33,4.78-1.68h0a.41.41,0,0,0-.18-.25c-.28-.19-1.92,0-4.86.64-.57-2.85-1-4.41-1.28-4.59a.43.43,0,0,0-.29-.07.46.46,0,0,0-.26.17c-.19.28,0,1.89.53,4.76-4.49,1-4.68,1.3-4.74,1.42a.47.47,0,0,0,0,.33C49.59,252.55,49.64,252.68,50.17,252.68Z"/><rect class="cls-3" x="329.87" y="17.22" width="109.21" height="180.77"/><rect class="cls-1" x="326.24" y="17.22" width="109.21" height="180.77"/><rect class="cls-4" x="330.89" y="20.89" width="99.91" height="173.44"/><rect class="cls-1" x="349.91" y="43.42" width="61.43" height="128.36"/><path class="cls-3" d="M349.91,126.36c-.14-12,10.64-23.69,22.51-25.37,5.66-.79,11.68.33,17-1.84,9.44-3.87,12.45-16.42,21.95-20.14l.44,92.78H349.91Z"/><rect class="cls-3" x="214.67" y="16.88" width="84" height="87.57"/><rect class="cls-4" x="208.98" y="16.88" width="84" height="87.57"/><path class="cls-3" d="M293,104.47H209V16.85H293Zm-84,0H293V16.9H209Z"/><rect class="cls-4" x="220.27" y="28.65" width="61.42" height="64.02"/><path class="cls-3" d="M220.27,93.1a9.51,9.51,0,0,1-1.51,1.76c-1,1-2.36,2.44-3.91,4s-3,2.88-4,3.84a9.89,9.89,0,0,1-1.78,1.48,9.91,9.91,0,0,1,1.51-1.76c1-1,2.36-2.44,3.91-4s3-2.89,4-3.85A9.55,9.55,0,0,1,220.27,93.1Z"/><path class="cls-3" d="M281.69,92.94a9.88,9.88,0,0,1,1.76,1.52c1,1,2.44,2.36,4,3.9s2.88,3,3.84,4a10.32,10.32,0,0,1,1.48,1.78,10.35,10.35,0,0,1-1.76-1.51c-1-1-2.44-2.36-4-3.91s-2.89-3-3.85-4A9.55,9.55,0,0,1,281.69,92.94Z"/><path class="cls-3" d="M281.52,28.82A9.88,9.88,0,0,1,283,27.06c1-1,2.36-2.44,3.9-4s3-2.88,4-3.84a10.32,10.32,0,0,1,1.78-1.48,9.91,9.91,0,0,1-1.51,1.76c-1,1-2.36,2.44-3.91,4s-3,2.89-4,3.85A9.55,9.55,0,0,1,281.52,28.82Z"/><path class="cls-3" d="M220.1,29a10.78,10.78,0,0,1-1.76-1.52c-1-1-2.43-2.36-4-3.9s-2.88-3-3.84-4a10.32,10.32,0,0,1-1.48-1.78,9.91,9.91,0,0,1,1.76,1.51c1,1,2.44,2.36,4,3.91s2.89,3,3.85,4A9.55,9.55,0,0,1,220.1,29Z"/><path class="cls-3" d="M281.52,92.67s0-.11,0-.31,0-.51,0-.89c0-.8,0-2,0-3.46,0-3,0-7.44-.07-13.05,0-11.21-.07-27.18-.12-46.31l.24.24-61.24,0h0l.27-.27c0,23.5,0,45.48,0,64l-.24-.23,44.35.12,12.46.06,3.29,0h1.15a1.27,1.27,0,0,1-.27,0h-.83l-3.25,0-12.4.06-44.5.12H220v-.24c0-18.54,0-40.52,0-64v-.27h.28l61.24,0h.24v.24c-.05,19.19-.09,35.22-.12,46.47,0,5.58-.05,10-.06,13,0,1.48,0,2.62,0,3.41,0,.37,0,.66,0,.87A1.1,1.1,0,0,1,281.52,92.67Z"/><rect class="cls-1" x="240.73" y="50.41" width="20.49" height="20.49"/><polygon class="cls-3" points="437.2 385.6 433.96 418.89 416.77 418.89 413.38 385.6 437.2 385.6"/><rect class="cls-1" x="411.35" y="383.16" width="28.42" height="2.44" transform="translate(851.13 768.76) rotate(180)"/><polygon class="cls-1" points="434.36 378.97 437.2 383.7 414.6 383.7 415.69 378.97 434.36 378.97"/><polygon class="cls-5" points="436.11 396.81 434.95 408.69 415.73 408.69 414.52 396.81 436.11 396.81"/><path class="cls-4" d="M422.85,406.09a5.48,5.48,0,0,1,.89-2.94c.48-.74,1.06-1.39,1.53-2a6.31,6.31,0,0,0,1-1.87,3.57,3.57,0,0,0,.15-.83l.13.07a3,3,0,0,1,1.26,2,5.63,5.63,0,0,1-.11,2.38,5.14,5.14,0,0,1-1.25,2.52,3.43,3.43,0,0,1-3,.93A3.12,3.12,0,0,1,422.85,406.09Z"/><path class="cls-4" d="M421.39,403.48a10,10,0,0,1,.61-3.12,3.41,3.41,0,0,1,2.28-2.1,2.63,2.63,0,0,1,1.65.07,3.88,3.88,0,0,1-.2.84,6.51,6.51,0,0,1-1,1.76c-.47.62-1.06,1.25-1.56,2a5.48,5.48,0,0,0-.88,2.46c0,.18,0,.35,0,.53a2,2,0,0,1-.65-.66A3.26,3.26,0,0,1,421.39,403.48Z"/><path class="cls-5" d="M282.24,367.58c15.51-15.53,15.44-39.22,11.06-59.75-.73-3.42-1-7.13-3.18-9.86s-6.37-4.12-9.2-2.11c-2.34,1.66-2.93,4.83-3.92,7.55a20.47,20.47,0,0,1-6.71,9.16c-2,1.53-4.58,2.71-7,1.9-3.27-1.11-4.35-5.15-4.94-8.58l-3.3-19.19c-.58-3.44-1.2-6.94-2.84-10s-4.54-5.67-8-6-7.12,2.26-7.21,5.74a31.56,31.56,0,0,0,.66,4.29c.16,1.44-.22,3.13-1.5,3.77s-2.85-.08-4-.9c-4.15-2.84-7.35-6.87-10.38-10.9s-6-8.19-9.91-11.39-8.86-5.41-13.81-4.81-9.66,4.56-10,9.6,3.31,9.46,7.08,12.82a77.24,77.24,0,0,0,18.64,12.35,6.48,6.48,0,0,1,3.17,2.39c1.15,2.16-.61,4.81-2.73,6-2.4,1.31-5.22,1.54-7.84,2.33s-5.3,2.49-5.87,5.19c-.78,3.76,2.81,6.91,6.12,8.8a66.41,66.41,0,0,0,21.4,7.74c2.68.48,5.48.81,7.83,2.22s4.13,4.28,3.33,6.91-3.82,4-6.55,3.95-5.34-1-8-1.53c-5-.94-11.05.47-13.35,5.08-1.5,3-1,6.78.56,9.8a25.4,25.4,0,0,0,6.7,7.54,66.89,66.89,0,0,0,31.68,14.77c11.6,1.84,21.91,1.07,32.06-4.84"/><path class="cls-3" d="M274.61,355.58a312.29,312.29,0,0,0-18.09-30.9l-5.16-7.86c-1.69-2.57-3.38-5.12-5.18-7.52A153.48,153.48,0,0,0,235,296.13c-3.75-4-7.45-7.7-10.94-11.11s-6.81-6.52-9.95-9.23a124.24,124.24,0,0,0-15.78-11.67c-2-1.23-3.52-2.13-4.58-2.73l-1.21-.67-.42-.21a2,2,0,0,0,.39.27l1.18.73c1,.63,2.57,1.57,4.51,2.82a131.06,131.06,0,0,1,15.61,11.81c3.12,2.72,6.41,5.84,9.88,9.26s7.15,7.12,10.88,11.13a157.39,157.39,0,0,1,11.07,13.15c1.79,2.39,3.45,4.92,5.15,7.5L256,325a319.07,319.07,0,0,1,18.09,30.82"/><path class="cls-3" d="M246,309.31a7.92,7.92,0,0,0,.07-1.52c0-1,0-2.4-.08-4.15-.13-3.5-.46-8.33-.85-13.65s-.66-10.14-.73-13.63c0-1.75,0-3.16,0-4.14a6.52,6.52,0,0,0-.08-1.52,7.42,7.42,0,0,0-.17,1.51c-.08,1-.13,2.4-.15,4.15-.05,3.5.15,8.35.54,13.67s.76,10,1,13.63c.12,1.64.21,3,.29,4.13A6.34,6.34,0,0,0,246,309.31Z"/><path class="cls-3" d="M200.45,308.92a8.6,8.6,0,0,0,1.79-.1c1.15-.1,2.82-.26,4.87-.38,4.12-.29,9.82-.48,16.11-.42s12,.39,16.11.73c2.06.16,3.72.33,4.87.44a10,10,0,0,0,1.8.12,9.78,9.78,0,0,0-1.77-.37c-1.14-.19-2.8-.43-4.86-.65-4.12-.46-9.83-.84-16.14-.91a156.27,156.27,0,0,0-16.15.6c-2.06.19-3.72.41-4.87.59A9.49,9.49,0,0,0,200.45,308.92Z"/><path class="cls-3" d="M273.92,354.87a2.76,2.76,0,0,0,.21-.59c.12-.47.28-1,.47-1.73.4-1.5.92-3.7,1.53-6.41,1.23-5.43,2.69-13,4.19-21.33s2.88-15.92,4-21.36c.55-2.65,1-4.83,1.34-6.45.14-.7.26-1.28.35-1.76a2.36,2.36,0,0,0,.09-.62,1.85,1.85,0,0,0-.21.59l-.47,1.73c-.4,1.5-.93,3.69-1.54,6.41-1.23,5.43-2.68,13-4.18,21.34s-2.89,15.91-4,21.35c-.55,2.65-1,4.83-1.34,6.45-.14.7-.25,1.28-.35,1.76A2.57,2.57,0,0,0,273.92,354.87Z"/><path class="cls-3" d="M212,346.42a2.17,2.17,0,0,0,.63.14l1.8.27,6.64.91c5.6.78,13.32,1.94,21.86,3.23s16.28,2.38,21.89,3c2.81.34,5.09.58,6.67.72l1.81.14a2.39,2.39,0,0,0,.64,0,2.49,2.49,0,0,0-.62-.14l-1.81-.26-6.63-.92c-5.6-.77-13.33-1.93-21.86-3.22s-16.28-2.38-21.9-3c-2.81-.33-5.08-.58-6.66-.71l-1.82-.15A2.45,2.45,0,0,0,212,346.42Z"/><rect class="cls-3" x="22.81" y="0.11" width="70.86" height="73.87" transform="translate(0.09 -0.13) rotate(0.13)"/><rect class="cls-6" x="18.01" y="0.1" width="70.86" height="73.87" transform="translate(0.09 -0.12) rotate(0.13)"/><path class="cls-5" d="M88.81,74.07l-70.9-.16L18.08,0,89,.16Z"/><rect class="cls-2" x="27.54" y="10.03" width="51.81" height="54.01" transform="translate(0.09 -0.12) rotate(0.13)"/><path class="cls-3" d="M27.48,64.34a8.74,8.74,0,0,1-1.29,1.48c-.83.87-2,2.05-3.3,3.33s-2.5,2.43-3.39,3.24A8,8,0,0,1,18,73.63a8.35,8.35,0,0,1,1.28-1.48c.82-.87,2-2.05,3.3-3.34s2.52-2.42,3.4-3.23A8.21,8.21,0,0,1,27.48,64.34Z"/><path class="cls-3" d="M79.28,64.33a7.68,7.68,0,0,1,1.49,1.28c.87.83,2,2,3.33,3.3s2.42,2.5,3.23,3.39a9.24,9.24,0,0,1,1.25,1.5,8.51,8.51,0,0,1-1.48-1.27c-.87-.83-2.06-2-3.34-3.31s-2.43-2.52-3.24-3.4A9,9,0,0,1,79.28,64.33Z"/><path class="cls-3" d="M79.27,10.24a8.17,8.17,0,0,1,1.28-1.49c.83-.87,2-2,3.3-3.33S86.36,3,87.24,2.19A8.21,8.21,0,0,1,88.74,1a8,8,0,0,1-1.27,1.47c-.83.87-2,2.06-3.31,3.34S81.65,8.19,80.76,9A8.54,8.54,0,0,1,79.27,10.24Z"/><path class="cls-3" d="M27.46,10.25A8.58,8.58,0,0,1,26,9c-.87-.83-2-2-3.33-3.3s-2.42-2.51-3.23-3.4A7.49,7.49,0,0,1,18.17.77a9.28,9.28,0,0,1,1.48,1.28c.87.83,2.05,2,3.33,3.31s2.43,2.51,3.24,3.4A8,8,0,0,1,27.46,10.25Z"/><path class="cls-3" d="M79.14,64.1s0-.09,0-.26,0-.44,0-.76c0-.68,0-1.65,0-2.91,0-2.56,0-6.28,0-11,0-9.46,0-22.93,0-39.07l.2.2L27.6,10.2h0l.23-.23c-.06,19.83-.11,38.37-.16,54l-.19-.2L64.89,64,75.4,64l2.78,0,.71,0H75.48L65,64.16l-37.53,0h-.2V64c0-15.64.06-34.18.09-54V9.74h.24l51.66.15h.2v.2c-.08,16.19-.15,29.71-.19,39.2,0,4.71-.06,8.41-.08,11q0,1.88,0,2.88c0,.31,0,.55,0,.73A1.1,1.1,0,0,1,79.14,64.1Z"/><path class="cls-5" d="M43.86,51.65a11.47,11.47,0,0,1-.48-15.08c1.45-1.65,3.36-2.85,4.7-4.58C51,28.23,51,22.29,55,19.78c2.93-1.83,7.14-.77,9.28,1.95a9.84,9.84,0,0,1,.9,9.85c-1,2.34-2.82,4.33-3.56,6.77s-.33,5.25-1.11,7.74c-1,3-4.14,4.91-7.1,6a13.26,13.26,0,0,1-9.53-.44"/><path class="cls-3" d="M58.49,26.8A8.68,8.68,0,0,1,58,28.23c-.35.91-.9,2.21-1.61,3.79a108.15,108.15,0,0,1-6.43,12A106.21,106.21,0,0,1,42,55.06c-1.11,1.35-2,2.41-2.69,3.12a10.38,10.38,0,0,1-1.06,1.09,7.57,7.57,0,0,1,.92-1.2c.62-.75,1.5-1.85,2.57-3.21a129.16,129.16,0,0,0,7.78-11.1,129,129,0,0,0,6.53-11.88c.75-1.56,1.35-2.83,1.75-3.72A9.67,9.67,0,0,1,58.49,26.8Z"/><path class="cls-3" d="M47.75,36.14a17.27,17.27,0,0,1,.41,2.73c.2,1.71.45,4.08.7,6.77l-.34-.18,1.11-.65c2.6-1.51,5-2.85,6.68-3.8a20.68,20.68,0,0,1,2.83-1.45,20.66,20.66,0,0,1-2.67,1.74c-1.67,1-4,2.41-6.6,3.91l-1.12.65-.32.18,0-.36c-.24-2.69-.43-5.07-.55-6.78A16.91,16.91,0,0,1,47.75,36.14Z"/><path class="cls-3" d="M61.37,32.17a8.92,8.92,0,0,1-1.75,1c-1.11.55-2.65,1.27-4.36,2.05l-.53.24-.28.13-.05-.3c-.26-1.73-.48-3.27-.61-4.38a7.87,7.87,0,0,1-.13-1.81,7,7,0,0,1,.44,1.76c.22,1.1.48,2.63.76,4.35L54.54,35l.53-.24c1.71-.78,3.27-1.46,4.41-1.93A8.69,8.69,0,0,1,61.37,32.17Z"/><path class="cls-7" d="M451,418.89c0,.15-101,.26-225.5.26S0,419,0,418.89s101-.26,225.52-.26S451,418.75,451,418.89Z"/><path class="cls-8" d="M122.63,330.4c4.71-2.43,10.26-2.75,15.49-1.88,2.81.46,5.74,1.3,7.65,3.41s2.27,5.83.08,7.64a7.32,7.32,0,0,1-4.82,1.22c-4.1,0-8.64-.76-11.91,1.7-1.87,1.4-3.11,3.74-5.34,4.43a5.27,5.27,0,0,1-5.8-2.58,9,9,0,0,1-.66-6.65A10.17,10.17,0,0,1,122.63,330.4Z"/><path class="cls-8" d="M111.84,309.57c2.88,4.11,8.48,2.75,11.08.24s3.69-6.15,4.69-9.62c2.28-7.93,4.58-16.25,2.88-24.32a13.5,13.5,0,0,0-3.1-6.62A7.07,7.07,0,0,0,120.7,267c-2.82.74-4.58,3.51-5.85,6.14a58.09,58.09,0,0,0-5.73,24.88c0,4,.46,8.21,2.72,11.52"/><path class="cls-8" d="M103.93,315.47c3.13-3.71,3.72-9.12,2.33-13.77s-4.53-8.61-8.16-11.84a44,44,0,0,0-14.6-8.62,15.54,15.54,0,0,0-6.57-1.11,6.9,6.9,0,0,0-5.52,3.33c-1.54,2.93-.06,6.49,1.53,9.39a111.13,111.13,0,0,0,9.6,14.61c2.87,3.71,6.17,7.37,10.55,9.05s8.94,1.47,11.26-1.57"/><path class="cls-7" d="M111.65,371.62a9.43,9.43,0,0,0,.26-1.87c.13-1.36.3-3.07.5-5.1a72.84,72.84,0,0,1,1.14-7.48,58.77,58.77,0,0,1,2.72-8.83,32.71,32.71,0,0,1,4.51-8,16.75,16.75,0,0,1,5.7-4.74,15.8,15.8,0,0,1,4.8-1.5,8.25,8.25,0,0,0,1.87-.27,9.29,9.29,0,0,0-1.9,0,14.42,14.42,0,0,0-5,1.31,16.77,16.77,0,0,0-6,4.78,31.78,31.78,0,0,0-4.67,8.15,52.82,52.82,0,0,0-2.7,9,62.82,62.82,0,0,0-1,7.58c-.16,2.17-.22,3.92-.25,5.13A8.66,8.66,0,0,0,111.65,371.62Z"/><path class="cls-7" d="M112,367.7a3.67,3.67,0,0,0,0-.87c0-.65,0-1.47,0-2.48,0-2.15,0-5.27.11-9.12.19-7.69.86-16,2.14-27.64,1.21-11,2.83-23.75,4.55-32,.37-1.89.74-3.59,1.09-5.08s.61-2.78.89-3.82.43-1.78.58-2.41a4.36,4.36,0,0,0,.15-.86,3.65,3.65,0,0,0-.3.82l-.72,2.37c-.32,1-.65,2.31-1,3.8s-.8,3.18-1.2,5.06a280.38,280.38,0,0,0-4.79,29.75c-1.28,11.69-1.86,22.34-1.91,30.05,0,3.86,0,7,.13,9.14l.15,2.48A3.77,3.77,0,0,0,112,367.7Z"/><path class="cls-7" d="M112.05,347.16a16.22,16.22,0,0,0,0-2.6,69.92,69.92,0,0,0-.79-7A93.17,93.17,0,0,0,109,327.32a85,85,0,0,0-4.28-12.1,64.51,64.51,0,0,0-12.56-19.56,32.51,32.51,0,0,0-3-2.75c-.46-.38-.86-.76-1.27-1.07l-1.14-.79a16.44,16.44,0,0,0-2.18-1.39c-.13.17,3.09,2.06,7.15,6.38A68,68,0,0,1,104,315.52a96.53,96.53,0,0,1,4.3,12,104,104,0,0,1,2.43,10.13c.54,2.92.85,5.3,1,6.95A18.24,18.24,0,0,0,112.05,347.16Z"/><polygon class="cls-7" points="92.2 383.39 94.25 411.59 130.48 411.59 132.54 383.39 92.2 383.39"/><rect class="cls-7" x="88.7" y="372.28" width="48.17" height="11.11"/><polygon class="cls-6" points="88.7 410.51 88.7 413.59 90.96 413.59 136.07 413.59 136.07 410.51 88.7 410.51"/><polygon class="cls-6" points="93.18 419.01 90.96 413.59 134.34 413.59 131.75 419.01 93.18 419.01"/><path class="cls-3" d="M131.87,392.61a1.5,1.5,0,0,1-.17.26l-.54.71-2.11,2.7-.1.12-.09-.12c-1.32-1.84-3.1-4.29-5.18-7.17h.3c-1.55,2.18-3.26,4.61-5.11,7.23l-.16.22-.18-.21-6-7.2h.35l-.34.42-5.41,6.79-.18.22-.17-.23-5.1-7.23.29,0-6.29,7.16-.11.13-.08-.14-2-3.31c-.21-.36-.37-.65-.51-.88a1.33,1.33,0,0,1-.15-.32,1.75,1.75,0,0,1,.21.28l.56.85,2.07,3.25-.2,0,6.19-7.25.15-.19.15.2c1.56,2.19,3.29,4.61,5.15,7.2h-.35l5.4-6.8c.12-.14.23-.29.33-.42l.18-.21.17.21,6,7.21-.34,0,5.16-7.19.15-.22.15.22,5.07,7.24h-.18l2.19-2.63.59-.68C131.79,392.67,131.86,392.6,131.87,392.61Z"/><path class="cls-6" d="M133,383.2c0,.13-9.07.23-20.27.23s-20.27-.1-20.27-.23,9.07-.22,20.27-.22S133,383.08,133,383.2Z"/><path class="cls-7" d="M134.87,413.9c0,.12-9.86.22-22,.22s-22-.1-22-.22,9.86-.23,22-.23S134.87,413.77,134.87,413.9Z"/><path class="cls-9" d="M402.19,199c-.78-3.39,3.22-15.11.64-15.37-3.29-.33-3.85,13-4,14.18s-1.84,1-1.68,0c.24-1.54,2.43-16.61-.89-16.64-1.84,0-1.92,3.33-1.92,3.33s-1.24,14.85-2.81,14.78-.45-8.52-.29-11.67-1.35-4.74-2.47-3.44c-1.63,1.91-1.63,9.57-1.83,12.58s-1,11.68-4.12,7.35-7.1-6.53-8.57-6.38-1.74,2.27-.32,3.1a19.62,19.62,0,0,1,3.89,3.71,19.26,19.26,0,0,1,2.25,3.69,16.59,16.59,0,0,1,1.63,5.25,10.32,10.32,0,0,0,4.58,7.13l-.18,23.79-.74,11.77,18.53,6.43-2.44-42c.91-8.07,4.46-18.28,5.76-23,2.07-7.54,1.1-7.86.18-7.91C405.38,189.59,403,202.34,402.19,199Z"/><path class="cls-10" d="M399.82,209.27a17.58,17.58,0,0,0-2.27.38,8.89,8.89,0,0,0-4.53,3.09,8.8,8.8,0,0,0-.9,1.47l-.12.24-.18-.18a12.8,12.8,0,0,0-3.51-2.57c-1-.49-1.61-.69-1.6-.74a5.25,5.25,0,0,1,1.7.51,12.08,12.08,0,0,1,3.68,2.52l-.31.06a9.21,9.21,0,0,1,.94-1.54,8.63,8.63,0,0,1,2.38-2.14,8.33,8.33,0,0,1,2.39-1,7.77,7.77,0,0,1,1.71-.19A1.67,1.67,0,0,1,399.82,209.27Z"/><path class="cls-10" d="M398.91,220.42a10.73,10.73,0,0,1-4,.73,10.59,10.59,0,0,1-4-.47c0-.12,1.81.16,4,.09S398.88,220.3,398.91,220.42Z"/><path class="cls-7" d="M286.92,158.35a13.91,13.91,0,0,1,11.4-12.51A17.93,17.93,0,0,0,303,145a26.07,26.07,0,0,0,3.26-2.18,9.3,9.3,0,0,1,11.5,1.55c2.66,2.94,3.34-1.46,9.32,1.54,5,2.49,2.76,6.6,2.76,6.6A10.67,10.67,0,0,1,341,160.13c.78,3,.43,6.8,3,8.63,1.23.89,2.86,1,4.12,1.88,2.35,1.55,2.67,4.86,2.36,7.66s-.95,5.78.26,8.32c2,4.17,8.21,5.43,9.29,9.92.51,2.12-.21,4.75,1.4,6.23a7.51,7.51,0,0,0,2.34,1.15,9.74,9.74,0,0,1,1.6,17.22c-.83.53-1.83,1-2.1,2s.47,2.09,1,3a9.35,9.35,0,0,1-12.4,13,14.67,14.67,0,0,1-8.09,7.43,8.9,8.9,0,0,1-5.09.5,10.19,10.19,0,0,1-3.66-1.91c-5.27-4-12.71-10.09-13.64-16.63"/><path class="cls-9" d="M286.8,168.53l-.23-4.68,27.95-6.23c8.65-1.18,18.29,7.22,19.11,15.9.91,9.65,1.64,21.47.72,28.72C332.49,216.82,321.43,219,321.43,219l.39,14.4-32.07,1.4Z"/><path class="cls-7" d="M328.37,184.06a1.87,1.87,0,0,1-1.74,1.94,1.79,1.79,0,0,1-2-1.62,1.86,1.86,0,0,1,1.74-1.93A1.78,1.78,0,0,1,328.37,184.06Z"/><path class="cls-7" d="M330.75,179.78c-.22.25-1.66-.75-3.66-.68s-3.44,1.11-3.67.87.12-.55.74-1a5.13,5.13,0,0,1,2.92-1,4.93,4.93,0,0,1,2.93.84C330.64,179.24,330.86,179.67,330.75,179.78Z"/><path class="cls-7" d="M309.68,185a1.85,1.85,0,0,1-1.74,1.93,1.78,1.78,0,0,1-2-1.61,1.88,1.88,0,0,1,1.74-1.94A1.79,1.79,0,0,1,309.68,185Z"/><path class="cls-7" d="M311.09,180.77c-.23.24-1.67-.75-3.67-.69s-3.44,1.12-3.66.88.11-.55.73-1a5.21,5.21,0,0,1,2.93-1,5,5,0,0,1,2.93.85C311,180.22,311.2,180.65,311.09,180.77Z"/><path class="cls-7" d="M318.81,195.39a12.92,12.92,0,0,1,3.24-.69c.51-.07,1-.19,1.06-.54a2.55,2.55,0,0,0-.39-1.5c-.51-1.23-1.06-2.51-1.63-3.85-2.27-5.48-3.93-10-3.71-10.07s2.24,4.27,4.51,9.75l1.57,3.87a3,3,0,0,1,.33,2,1.28,1.28,0,0,1-.82.77,3.31,3.31,0,0,1-.86.15A13.53,13.53,0,0,1,318.81,195.39Z"/><path class="cls-10" d="M321.43,219.05a38.51,38.51,0,0,1-20.09-4.6s5.22,10,20.19,8.21Z"/><path class="cls-10" d="M318.12,200.24a3.6,3.6,0,0,0-3.28-1.24,3.3,3.3,0,0,0-2.24,1.29,2.1,2.1,0,0,0-.08,2.39,2.43,2.43,0,0,0,2.65.58,7.58,7.58,0,0,0,2.51-1.61,2.24,2.24,0,0,0,.55-.6.66.66,0,0,0,0-.75"/><path class="cls-7" d="M313,197c.33,0,.4,2.15,2.31,3.63s4.21,1.18,4.24,1.48c0,.13-.5.44-1.48.49a5.37,5.37,0,0,1-3.54-1.11,4.7,4.7,0,0,1-1.79-3C312.59,197.49,312.82,197,313,197Z"/><path class="cls-7" d="M311.36,172.9c-.18.55-2.19.36-4.53.71s-4.22,1.06-4.54.58c-.15-.23.17-.75.91-1.3a8,8,0,0,1,6.92-1C311,172.23,311.44,172.64,311.36,172.9Z"/><path class="cls-7" d="M329.84,174c-.34.47-1.73,0-3.39.07s-3.06.4-3.39-.07c-.15-.23.05-.69.65-1.14a4.72,4.72,0,0,1,2.74-.83,4.66,4.66,0,0,1,2.73.83C329.78,173.32,330,173.78,329.84,174Z"/><path class="cls-7" d="M336.09,155.73c-2,5.23-6.64,13.13-12.15,14.08a16.43,16.43,0,0,1-15-5.51c-.63,4.16-5.11,6.58-9.23,7.47a16.67,16.67,0,0,1-8.84-.17,8.78,8.78,0,0,1-5.89-6.19c-.59-2.92,3.24-10.36,6.14-11"/><path class="cls-7" d="M296.26,232.89a11.43,11.43,0,0,1-7.63,10.72,8.1,8.1,0,0,1-15.41,4.26,9.6,9.6,0,0,0-1.35-2.65c-1.54-1.69-4.28-1.14-6.51-1.69-4-1-6-5.67-5.9-9.79a9.86,9.86,0,0,0,0-2.43c-.37-1.63-1.74-2.79-2.8-4.08-4.34-5.3-3.27-13.53.72-19.1,1.33-1.85,3-3.82,2.74-6.08a12.26,12.26,0,0,0-1.5-3.5,10.34,10.34,0,0,1,2-11.47,2.26,2.26,0,0,0,1-2.72,12.1,12.1,0,0,1,9.28-13.63,3.13,3.13,0,0,0,1.05-.32c.9-.55.83-1.83.88-2.88.13-2.78,1.89-8.07,3.86-10,5.48-5.4,11.43-1.75,13.59,0,0,0,5.41,19.53,4.91,23.28s-2.57,13.14-1.19,17.24,3.75,12.53,2.33,16.42S296.26,232.89,296.26,232.89Z"/><path class="cls-11" d="M331.43,395.55s42.34,11.72,44,12.31c2.55.9,2.12,10.25-1.85,10.1-1.88-.07-32.52,1.14-36.39.9S321.67,414,321.67,414Z"/><path class="cls-7" d="M349.07,411.7c.21,0,.5-2.21,1.86-4.54s3.13-3.73,3-3.9-2.18,1-3.61,3.54S348.89,411.72,349.07,411.7Z"/><path class="cls-7" d="M344.65,409.7c.21,0,.64-2,1.77-4.18s2.46-3.76,2.3-3.9-1.77,1.24-2.94,3.59S344.47,409.69,344.65,409.7Z"/><path class="cls-7" d="M340.51,408.59c.22,0,.05-2.13,1-4.47s2.46-3.81,2.31-4-2,1.15-3,3.7S340.34,408.65,340.51,408.59Z"/><path class="cls-7" d="M341.26,403.12a7.45,7.45,0,0,0,.46-3.15,14.8,14.8,0,0,0-.43-3.45,15.87,15.87,0,0,0-.63-2,2.31,2.31,0,0,0-.68-1,1.12,1.12,0,0,0-1.45.07,1.9,1.9,0,0,0-.57,1.2,8.55,8.55,0,0,0,0,1.12,9.23,9.23,0,0,0,.26,2.07,12.69,12.69,0,0,0,1.3,3.23,8.56,8.56,0,0,0,1.9,2.55c.1-.06-.61-1.05-1.45-2.78a13.57,13.57,0,0,1-1.11-3.15,9.28,9.28,0,0,1-.21-1.93c0-.65,0-1.46.39-1.78a.42.42,0,0,1,.56,0,1.72,1.72,0,0,1,.47.74,17.12,17.12,0,0,1,.64,1.86,17.6,17.6,0,0,1,.56,3.31C341.34,401.91,341.15,403.11,341.26,403.12Z"/><path class="cls-7" d="M341.21,402.69a6,6,0,0,0-2.73-.44,12.3,12.3,0,0,0-3,.37,6.55,6.55,0,0,0-1.73.64,1.78,1.78,0,0,0-1,1.93,2.11,2.11,0,0,0,1.52,1.51,3.93,3.93,0,0,0,1.9,0,7.29,7.29,0,0,0,2.75-1.35,7.49,7.49,0,0,0,2-1.94,18.31,18.31,0,0,0-2.25,1.53,7.57,7.57,0,0,1-2.6,1.12,3.33,3.33,0,0,1-1.57,0,1.44,1.44,0,0,1-1-1,1.09,1.09,0,0,1,.63-1.18,6.58,6.58,0,0,1,1.53-.6,14.13,14.13,0,0,1,2.86-.5C340.15,402.64,341.19,402.81,341.21,402.69Z"/><path class="cls-7" d="M355.57,412.16c.21,0,0-1.84.84-3.82s2.2-3.15,2.07-3.32-1.84.83-2.73,3.05S355.4,412.23,355.57,412.16Z"/><path class="cls-7" d="M326,414.11a8,8,0,0,0,1.64.77,36,36,0,0,0,4.71,1.46,67.07,67.07,0,0,0,16.16,1.53c6.35-.07,12.07-.35,16.21-.52l4.91-.26a9.18,9.18,0,0,0,1.8-.19,8.77,8.77,0,0,0-1.81-.09l-4.91,0-16.2.32a75.67,75.67,0,0,1-16.05-1.32C328.44,415,326.08,414,326,414.11Z"/><path class="cls-7" d="M324.78,415.08c.06.09,1.21-.58,3.17-1.44a14.74,14.74,0,0,1,8-1.33c3.19.49,5.45,2.63,6.93,4.12a24,24,0,0,0,2.44,2.49,13.4,13.4,0,0,0-2.07-2.83,17.28,17.28,0,0,0-2.81-2.63,10.06,10.06,0,0,0-4.38-1.85,14.08,14.08,0,0,0-8.33,1.57A11.15,11.15,0,0,0,324.78,415.08Z"/><g class="cls-12"><path d="M331.43,395.55s42.34,11.72,44,12.31c2.55.9,2.12,10.25-1.85,10.1-1.88-.07-32.52,1.14-36.39.9S321.67,414,321.67,414Z"/></g><path class="cls-7" d="M284.39,346.92l-9.14,18.78s-48.87-14.86-61.19-14.18-22.4,5.62-24.79,15.62-2.72,23.8,11.64,33.38,85.77,14.87,85.77,14.87h28.25L361.1,354.5l-7.43-6Z"/><path class="cls-6" d="M299.76,388.12a5,5,0,0,1-.93,0c-.6-.05-1.5-.05-2.65-.21a54.72,54.72,0,0,1-9.58-2,92,92,0,0,1-13.5-5.28c-4.94-2.33-10.22-5.2-15.75-8.17a161.82,161.82,0,0,0-16-7.65,71.07,71.07,0,0,0-13.8-4.13,48.72,48.72,0,0,0-9.67-.85c-1.15,0-2,.1-2.65.11a5,5,0,0,1-.93,0,5,5,0,0,1,.92-.13c.6-.05,1.49-.21,2.65-.22a45.45,45.45,0,0,1,9.76.65,69.31,69.31,0,0,1,13.93,4,155.14,155.14,0,0,1,16,7.64c5.54,3,10.79,5.85,15.7,8.2a96.29,96.29,0,0,0,13.39,5.38,60.33,60.33,0,0,0,9.48,2.15c1.14.2,2,.24,2.63.32A5.42,5.42,0,0,1,299.76,388.12Z"/><path class="cls-7" d="M333.15,410.42c9.08-3.57,59-19.45,76.66-39.87a19.5,19.5,0,0,0,4.84-16.95c-2.46-13.62-15-22.7-28-17.56-1.85.73-6.09,2.38-7.87,3.34-4.84,2.6-83.37,52.4-83.37,52.4s13.68,26.68,13.34,27.71Z"/><path class="cls-6" d="M357.74,351.21a1,1,0,0,1-.22.17l-.65.45-2.57,1.67-9.48,6-31.4,19.74-17.06,10.63.11-.35c3.63,8.74,6.73,16.2,8.95,21.52,1.06,2.61,1.91,4.69,2.51,6.18.27.68.48,1.23.65,1.65a2.56,2.56,0,0,1,.19.58,3.3,3.3,0,0,1-.28-.54c-.18-.41-.43-.95-.73-1.62l-2.66-6.11c-2.27-5.31-5.44-12.73-9.15-21.44l-.1-.22.21-.13,17-10.67,31.5-19.59,9.59-5.87,2.62-1.58.69-.39C357.65,351.24,357.73,351.2,357.74,351.21Z"/><path class="cls-6" d="M288.77,374.76a8.13,8.13,0,0,1-2.32-.87,32,32,0,0,1-5.13-3.07,32.77,32.77,0,0,1-4.48-4,8.16,8.16,0,0,1-1.53-1.95c.14-.13,2.64,2.7,6.37,5.41S288.85,374.58,288.77,374.76Z"/><path class="cls-6" d="M316,352.62a19.38,19.38,0,0,1,.12,3.13c0,1.93.11,4.58.37,7.5s.67,5.55,1,7.45a19.06,19.06,0,0,1,.45,3.1,13.53,13.53,0,0,1-.87-3,58.33,58.33,0,0,1-1.17-7.47,56.62,56.62,0,0,1-.19-7.57A13.6,13.6,0,0,1,316,352.62Z"/><path class="cls-6" d="M321.79,352s.23-.06.61.08a2.78,2.78,0,0,1,1.3,1.09,3,3,0,0,1,.37,2.52,2.72,2.72,0,0,1-2.53,1.78,2.65,2.65,0,0,1-2.68-1.56,2.81,2.81,0,0,1,.35-2.52,2.46,2.46,0,0,1,1.37-1,.92.92,0,0,1,.62,0,3,3,0,0,0-1.62,1.25,2.41,2.41,0,0,0-.19,2.08,2.13,2.13,0,0,0,2.12,1.16,2.19,2.19,0,0,0,2-1.36,2.63,2.63,0,0,0-.21-2.1A3.66,3.66,0,0,0,321.79,352Z"/><path class="cls-6" d="M297.64,350a2.72,2.72,0,0,1,.43.93,8.23,8.23,0,0,1,.41,2.76,9.81,9.81,0,0,1-.91,4.05,9.06,9.06,0,0,1-8.11,5.46,10,10,0,0,1-4.1-.68,8.71,8.71,0,0,1-2.4-1.42,2.9,2.9,0,0,1-.7-.75,15.16,15.16,0,0,0,3.25,1.76,10,10,0,0,0,3.92.53,8.78,8.78,0,0,0,7.63-5.14,10.11,10.11,0,0,0,1-3.82A15.25,15.25,0,0,0,297.64,350Z"/><path class="cls-6" d="M344.22,359.3a3.21,3.21,0,0,1-1.85-.26,7,7,0,0,1-4.69-7.17,3.15,3.15,0,0,1,.51-1.8c.09,0-.09.71-.07,1.81a7.4,7.4,0,0,0,4.41,6.76C343.53,359.09,344.23,359.2,344.22,359.3Z"/><path class="cls-6" d="M368.63,396.64l.3-.16.9-.44,3.46-1.67c3-1.46,7.35-3.56,12.59-6.4a96.32,96.32,0,0,0,17.38-11.56,51.28,51.28,0,0,0,8.31-9.05,20.07,20.07,0,0,0,3-12.56,19.79,19.79,0,0,0-1.65-6.43,17.52,17.52,0,0,0-1.61-2.83,24.51,24.51,0,0,0-2.06-2.47,55.63,55.63,0,0,0-4.67-4.21,14.13,14.13,0,0,0-5.1-3.05,19.11,19.11,0,0,0-5.65-.62,29.13,29.13,0,0,0-5.36.59,32.64,32.64,0,0,0-9.05,3.42l-12.35,6.85-3.37,1.85-.88.47a1.2,1.2,0,0,1-.31.15l.29-.18.86-.51,3.33-1.92c2.9-1.65,7.07-4.06,12.3-7a33.06,33.06,0,0,1,9.11-3.5,29.78,29.78,0,0,1,5.43-.62,19.08,19.08,0,0,1,5.76.63,14.27,14.27,0,0,1,5.23,3.1,54.73,54.73,0,0,1,4.72,4.24,23.17,23.17,0,0,1,2.09,2.51,17.28,17.28,0,0,1,1.66,2.9,20.68,20.68,0,0,1-1.4,19.37,51.11,51.11,0,0,1-8.4,9.11A95.16,95.16,0,0,1,386,388.23c-5.27,2.8-9.64,4.87-12.66,6.28l-3.49,1.6-.92.4Z"/><path class="cls-11" d="M298.73,395.81s-42.49,11.2-44.19,11.77c-2.56.87-2.25,10.22,1.72,10.12,1.88,0,32.51,1.55,36.38,1.35S307,414.87,307,414.87Z"/><path class="cls-7" d="M280.89,411.75c-.21,0-.47-2.22-1.81-4.57s-3.08-3.77-2.94-3.93,2.16,1.05,3.56,3.58S281.07,411.77,280.89,411.75Z"/><path class="cls-7" d="M285.33,409.8c-.21,0-.61-2-1.71-4.2s-2.41-3.79-2.26-3.93,1.76,1.27,2.89,3.62S285.51,409.79,285.33,409.8Z"/><path class="cls-7" d="M289.48,408.74c-.21,0,0-2.12-.93-4.48s-2.41-3.84-2.26-4,2,1.17,2.92,3.74S289.65,408.81,289.48,408.74Z"/><path class="cls-7" d="M288.8,403.27a7.44,7.44,0,0,1-.42-3.16,15.12,15.12,0,0,1,.48-3.45,14.86,14.86,0,0,1,.65-2,2.31,2.31,0,0,1,.69-1,1.12,1.12,0,0,1,1.45.09,1.79,1.79,0,0,1,.55,1.2,8.55,8.55,0,0,1,.05,1.12,9.66,9.66,0,0,1-.29,2.07,12.43,12.43,0,0,1-1.35,3.22,8.39,8.39,0,0,1-1.93,2.52c-.09-.06.63-1,1.49-2.76a13.51,13.51,0,0,0,1.15-3.13,9.27,9.27,0,0,0,.23-1.93c0-.65,0-1.47-.37-1.78a.41.41,0,0,0-.56-.06,1.72,1.72,0,0,0-.47.74,14.3,14.3,0,0,0-.66,1.86,17.07,17.07,0,0,0-.61,3.29C288.74,402.05,288.92,403.25,288.8,403.27Z"/><path class="cls-7" d="M288.86,402.84a5.84,5.84,0,0,1,2.73-.41,12.41,12.41,0,0,1,3,.4,7,7,0,0,1,1.73.66,1.8,1.8,0,0,1,.93,1.95,2.11,2.11,0,0,1-1.55,1.49,3.76,3.76,0,0,1-1.89,0,9,9,0,0,1-4.68-3.35,20.41,20.41,0,0,1,2.23,1.56,7.65,7.65,0,0,0,2.59,1.16,3.33,3.33,0,0,0,1.57,0,1.41,1.41,0,0,0,1-1,1.09,1.09,0,0,0-.61-1.19,6.63,6.63,0,0,0-1.53-.62,14.28,14.28,0,0,0-2.85-.53C289.91,402.79,288.87,403,288.86,402.84Z"/><path class="cls-7" d="M274.38,412.12c-.21,0,0-1.83-.79-3.83s-2.17-3.18-2-3.34,1.83.86,2.69,3.08S274.55,412.2,274.38,412.12Z"/><path class="cls-7" d="M303.9,414.44a8.84,8.84,0,0,1-1.65.75,35.91,35.91,0,0,1-4.73,1.4,67.44,67.44,0,0,1-16.18,1.34c-6.35-.15-12.06-.51-16.2-.73l-4.91-.32a9.93,9.93,0,0,1-1.79-.21,8.77,8.77,0,0,1,1.8-.07l4.92.1,16.19.52a75.65,75.65,0,0,0,16.07-1.12C301.47,415.32,303.85,414.31,303.9,414.44Z"/><path class="cls-7" d="M305.14,415.42c-.06.1-1.21-.59-3.16-1.47a14.69,14.69,0,0,0-8-1.44c-3.2.45-5.49,2.57-7,4a24.41,24.41,0,0,1-2.47,2.46,13.27,13.27,0,0,1,2.11-2.81,16.72,16.72,0,0,1,2.84-2.59,10.15,10.15,0,0,1,4.39-1.8,14,14,0,0,1,8.32,1.68A11.38,11.38,0,0,1,305.14,415.42Z"/><path class="cls-7" d="M262.64,416.73c-.07-.05.29-.61.64-1.59a7.75,7.75,0,0,0-1.31-7.61c-.65-.81-1.18-1.21-1.13-1.29a3.41,3.41,0,0,1,1.44,1,7.22,7.22,0,0,1,1.38,8C263.19,416.29,262.69,416.77,262.64,416.73Z"/><path class="cls-8" d="M296.77,230.81l-21.84,6.13,7.1,67.95s-4.09,24.26-4.09,30.63a12.68,12.68,0,0,0,6.45,11.4l69.78,2.1,3.56-3.08a10.08,10.08,0,0,0,2.33-7.79l-13-103.68-24.29-5.27Z"/><path class="cls-7" d="M282.11,304.8a2.44,2.44,0,0,1-.13-.51l-.29-1.49c-.25-1.34-.59-3.2-1-5.48-.82-4.68-1.93-11.06-3.17-18.12s-2.26-13.45-3.05-18.13c-.36-2.29-.66-4.16-.88-5.51-.09-.62-.16-1.12-.22-1.5a4.06,4.06,0,0,1-.05-.53,2.18,2.18,0,0,1,.13.51c.08.39.18.88.3,1.49.24,1.34.59,3.2,1,5.48.82,4.68,1.94,11.07,3.17,18.12s2.27,13.46,3,18.14c.37,2.29.67,4.16.88,5.51.09.61.17,1.11.22,1.5A2.54,2.54,0,0,1,282.11,304.8Z"/><path class="cls-7" d="M325.87,230.44a8.36,8.36,0,0,1-1,.8c-.34.24-.78.49-1.27.8s-1.11.61-1.79.89a23.67,23.67,0,0,1-5,1.54,36.17,36.17,0,0,1-6.32.66c-2.25.06-4.4,0-6.34-.19a36.8,36.8,0,0,1-5.14-.68,15.27,15.27,0,0,1-3.32-1.11,8,8,0,0,1-.84-.45c-.18-.12-.28-.18-.27-.2s.42.19,1.17.51a17.86,17.86,0,0,0,3.32,1,38.78,38.78,0,0,0,5.11.58c1.93.13,4.07.22,6.3.17a39.73,39.73,0,0,0,6.26-.62,24.91,24.91,0,0,0,4.91-1.44A28.53,28.53,0,0,0,325.87,230.44Z"/><path class="cls-7" d="M348.43,335.23a1.69,1.69,0,0,1-.47.1l-1.37.2c-.6.08-1.33.18-2.19.25s-1.82.19-2.89.24c-2.15.15-4.72.22-7.57.18s-6-.25-9.25-.63-6.36-1-9.14-1.57-5.26-1.3-7.32-2c-1-.3-2-.64-2.76-.92s-1.5-.53-2.06-.76l-1.28-.51a2.33,2.33,0,0,1-.44-.21,2.53,2.53,0,0,1,.47.13l1.31.44c.56.21,1.26.45,2.08.7s1.73.57,2.77.86c2.05.62,4.53,1.26,7.31,1.87s5.85,1.13,9.11,1.52,6.37.58,9.21.67,5.39,0,7.54-.1c1.07,0,2-.12,2.89-.18s1.59-.12,2.19-.18l1.38-.12A2.18,2.18,0,0,1,348.43,335.23Z"/><path class="cls-7" d="M356.53,277a4.53,4.53,0,0,1-.34-1c-.19-.61-.44-1.51-.74-2.62-.61-2.22-1.39-5.3-2.15-8.72s-1.36-6.55-1.76-8.81c-.19-1.14-.34-2.06-.43-2.69a4.6,4.6,0,0,1-.1-1,4.3,4.3,0,0,1,.25,1c.15.71.34,1.6.56,2.66.47,2.25,1.12,5.36,1.88,8.78s1.49,6.51,2,8.74c.25,1.06.46,2,.63,2.65A5.63,5.63,0,0,1,356.53,277Z"/><g class="cls-12"><path d="M304.39,233.9c.88,3,.06,7.46.49,10.18A144.75,144.75,0,0,1,306.63,277a4.49,4.49,0,0,0,.11,1.79,5.81,5.81,0,0,0,.89,1.38c2.21,2.92,2.78,6.82,2.33,10.46a42.71,42.71,0,0,1-3.16,10.49c-.08-2.93.08-7.32.31-10.24.05-.59.35-.21.36-.8.1-3.52-.49-6.78-3-9.29a7.73,7.73,0,0,1-1.4-1.57,5.31,5.31,0,0,1-.47-1.88q-2.28-18.44-3.11-37a3,3,0,0,1,.4-2,5.64,5.64,0,0,1,1.36-.93c.95-.62,1.54-1.72,2.56-2.21"/></g><path class="cls-8" d="M274.93,236.94s-19.94,4.7-15.11,34.58A184.79,184.79,0,0,0,271.72,314c3.27,7.69,10.67,13,19,11.9,3.62-.47,7.2.1,9.63-1.36,3.67-2.22,5.28-9.7,6-17.76.47-5.5.27-11.22,1-15.92,1.19-7.65-2.32-11.26-6.82-12.16l-17.62-3.51-1,9.32Z"/><path class="cls-7" d="M289,296.42s.34.36,1,.87a7,7,0,0,0,3.29,1.31,11.05,11.05,0,0,0,5.22-.74,16.72,16.72,0,0,0,5.63-3.25,10,10,0,0,0,2.93-5.64,9.85,9.85,0,0,0-.62-5.2,13.74,13.74,0,0,0-2.81-4,3.6,3.6,0,0,1,1.1.81,9.37,9.37,0,0,1,2.16,3,9.88,9.88,0,0,1,.81,5.5,10.39,10.39,0,0,1-3.08,6.05,16.71,16.71,0,0,1-5.9,3.35,11.07,11.07,0,0,1-5.52.62,6.82,6.82,0,0,1-3.39-1.59C289.15,296.9,288.94,296.44,289,296.42Z"/><path class="cls-7" d="M270.65,311.34c.06,0,.38.94,1.2,2.56a22.8,22.8,0,0,0,4.54,6.1,21.44,21.44,0,0,0,9.76,5.39,21.82,21.82,0,0,0,13.5-.94c2.26-.92,3.08-3.43,3.94-5.52a36.32,36.32,0,0,0,1.68-6.47,112.77,112.77,0,0,0,1.13-11.34c.23-3.17.42-5.77.56-7.69.08-.84.14-1.53.19-2.09a3,3,0,0,1,.11-.72,2.28,2.28,0,0,1,0,.73c0,.56,0,1.25-.06,2.1-.08,1.92-.2,4.52-.34,7.7a101.42,101.42,0,0,1-1,11.42,36.51,36.51,0,0,1-1.67,6.6,24.23,24.23,0,0,1-1.49,3.31,6,6,0,0,1-2.8,2.61,22.21,22.21,0,0,1-14,.93,21.94,21.94,0,0,1-14.39-12,16.41,16.41,0,0,1-.77-2A3.08,3.08,0,0,1,270.65,311.34Z"/><path class="cls-7" d="M277.3,298.38a17.38,17.38,0,0,1,0-3.59c.12-2.21.33-5.26.6-8.63.15-1.69.26-3.28.44-4.75a7.44,7.44,0,0,1,1.36-3.76,4,4,0,0,1,2.26-1.47c.64-.13,1,0,1,0s-.35,0-.91.23a4.11,4.11,0,0,0-1.94,1.51c-1.31,1.73-1.15,4.93-1.49,8.27s-.56,6.41-.8,8.61A19.48,19.48,0,0,1,277.3,298.38Z"/><path class="cls-7" d="M283.52,266.63c-.18-.95-.46-2.31-.82-4-.72-3.36-1.76-8-3-13.13a71.25,71.25,0,0,0-1.89-7.19,16.51,16.51,0,0,0-2.92-5.37l-.39.31a17.09,17.09,0,0,1,2.7,5.27c.71,2.13,1.21,4.58,1.82,7.14,1.19,5.12,2.31,9.75,3.16,13.09.42,1.67.77,3,1,3.94a5.89,5.89,0,0,0,.48,1.43A6.73,6.73,0,0,0,283.52,266.63Z"/><g class="cls-12"><path d="M283.7,273.06a7.75,7.75,0,0,0-4.48,1.52,14.9,14.9,0,0,0-5.94,8.4,17.39,17.39,0,0,0,.46,10.34c.37,1,1.07,2.2,2.16,2.15,1.28-.05,1.8-1.65,2-2.92q.74-5.28,1.48-10.57a9.66,9.66,0,0,1,.93-3.48,3.34,3.34,0,0,1,2.91-1.85l.33-3.76"/></g><path class="cls-8" d="M402.39,289.14a29.6,29.6,0,0,0,4.12-13.84,46.13,46.13,0,0,0-2-15.2l-21.18-6.57-.14,7.07Z"/><path class="cls-8" d="M383.23,260.6,347.1,234.47v1.81L351,277s29.87,13.38,37.79,15.35a15.76,15.76,0,0,0,13.6-3.18Z"/><path class="cls-7" d="M394,280.36a2.56,2.56,0,0,1-.82-.43,14.33,14.33,0,0,1-2-1.55,22.48,22.48,0,0,1-4.83-6.74,44.24,44.24,0,0,1-2.75-7.81c-.27-1-.46-1.86-.59-2.44a3.56,3.56,0,0,1-.14-.91,25.37,25.37,0,0,1,1.08,3.25,56.38,56.38,0,0,0,2.87,7.69,24.7,24.7,0,0,0,4.62,6.7C392.88,279.6,394,280.29,394,280.36Z"/><path class="cls-7" d="M404.45,265.22a3.48,3.48,0,0,1-.94,0A21.52,21.52,0,0,1,401,265a30.94,30.94,0,0,1-15.1-7,21.08,21.08,0,0,1-1.85-1.76c-.41-.44-.62-.7-.59-.72s1,.87,2.67,2.19a35.7,35.7,0,0,0,7.06,4.36,36.31,36.31,0,0,0,7.87,2.58C403.13,265,404.45,265.13,404.45,265.22Z"/><path class="cls-7" d="M384.83,277a7.73,7.73,0,0,1-1.13-2.24,22,22,0,0,1-1.2-5.93,43.54,43.54,0,0,1,.05-6,11,11,0,0,1,.31-2.48,13,13,0,0,1,.06,2.5c0,1.53-.06,3.65.1,6a26.86,26.86,0,0,0,1,5.85C384.5,276.07,384.91,276.93,384.83,277Z"/><path class="cls-7" d="M346.55,250.09a5,5,0,0,1,.38,1.11c.21.72.49,1.77.82,3.07.67,2.6,1.52,6.21,2.36,10.21s1.5,7.66,1.94,10.3c.21,1.33.38,2.4.47,3.15a4.57,4.57,0,0,1,.1,1.16,5.48,5.48,0,0,1-.3-1.13l-.63-3.11c-.56-2.74-1.29-6.31-2.09-10.26s-1.62-7.5-2.2-10.24c-.27-1.22-.49-2.26-.67-3.1A5.39,5.39,0,0,1,346.55,250.09Z"/><path class="cls-9" d="M282.61,278.83l4.43-49,14.68,5.79,1.89,49.84s-4.7,7.1-12.63,4.19A12.89,12.89,0,0,1,282.61,278.83Z"/><polygon class="cls-7" points="285.47 186.93 312.91 211.06 307.94 229.08 305.95 229.67 281.96 205.12 283.48 187.52 285.47 186.93"/><polygon class="cls-6" points="283.48 187.52 310.92 211.65 305.95 229.67 279.97 205.71 283.48 187.52"/><path class="cls-9" d="M302.34,237.2a10.68,10.68,0,0,0,2.75-6.74c-.06-3.7-1.08-12.58-1.08-12.58s4.77-10,4.65-11.37-.34-1.31-2.05-.78-7,9.69-7,9.69l-1.73-6.78s4.42-7.12,4.77-8.12.93-1.81-.17-1.9-9.41,7.95-9.41,7.95l.67,7.43s-.17.59-1.36-.45-.89-9.91-.89-9.91,2.82-5.25,2.76-6,.51-1.58,0-2.88-2.19.2-2.19.2l-5.51,7.22-2-7.15s.08-1.52-1.9-1.53l.77,23.17,5,17.83Z"/><path class="cls-10" d="M303.61,285.47a8.72,8.72,0,0,1-.08-.88c0-.61-.08-1.46-.14-2.55-.1-2.27-.24-5.55-.43-9.73-.33-8.44-.81-20.48-1.39-35.06v-.14l.12-.1a9.72,9.72,0,0,0,2.66-3.75,10.87,10.87,0,0,0,.55-4.82c-.17-3.39-.59-6.92-1.07-10.53v-.1l0-.09c.9-1.91,1.8-3.87,2.67-5.89.43-1,.87-2,1.26-3.07.2-.51.39-1,.54-1.56l.1-.39c0-.12,0-.2,0-.32a2.26,2.26,0,0,0-.14-.7c.06-.16-.7,0-1.19.17a1.61,1.61,0,0,0-.64.33,3.94,3.94,0,0,0-.59.57,27.67,27.67,0,0,0-2.09,2.73c-1.32,1.92-2.56,3.94-3.78,6l-.43.73-.21-.82-1.74-6.78,0-.14.08-.13,2.24-3.67c.85-1.44,1.79-2.93,2.48-4.34.14-.4.34-.81.43-1.15.06-.18,0-.26,0-.24a.52.52,0,0,0-.33-.07,2.84,2.84,0,0,0-.4.2c-.16.09-.33.22-.5.33s-.65.49-1,.75c-2.54,2.09-4.92,4.34-7.24,6.56l.1-.28q.35,3.76.67,7.43V214l0,.05a.6.6,0,0,1-.65.41,1.13,1.13,0,0,1-.49-.15,3.33,3.33,0,0,1-.67-.47,2.71,2.71,0,0,1-.72-1.51,21.76,21.76,0,0,1-.33-3c-.1-1.95-.1-3.87,0-5.77v-.08l0-.07A48.64,48.64,0,0,0,294,198a1.11,1.11,0,0,0,.07-.28c0-.08,0-.29,0-.41,0-.28.1-.53.14-.77a2.63,2.63,0,0,0-.05-1.34c-.15-.48-.3-.68-.67-.61a2.72,2.72,0,0,0-1.12.62l0,0-5.53,7.21-.35.47-.16-.57q-1-3.71-1.94-7.15V195a1.18,1.18,0,0,0-.51-1,2,2,0,0,0-1.12-.29l.26-.27c.28,9.42.5,17.24.68,23.17v0c1.1,4.26,1.95,7.56,2.54,9.83l.63,2.54c.13.57.18.87.18.87s-.1-.29-.27-.85l-.72-2.52c-.62-2.26-1.52-5.54-2.69-9.78v0l-.86-23.17v-.27h.27a2.53,2.53,0,0,1,1.43.38,1.7,1.7,0,0,1,.74,1.44v-.09q1,3.44,2,7.14l-.51-.1,5.5-7.23v0h0a3.18,3.18,0,0,1,1.43-.79,1.1,1.1,0,0,1,1,.26,1.75,1.75,0,0,1,.42.79,3.23,3.23,0,0,1,.07,1.63c0,.26-.1.5-.12.72a1.92,1.92,0,0,0,0,.35,2.2,2.2,0,0,1-.09.46,48.7,48.7,0,0,1-2.7,5.65l0-.14c-.05,1.88-.05,3.79.06,5.72a19.57,19.57,0,0,0,.33,2.86,2.11,2.11,0,0,0,.49,1.13,2.72,2.72,0,0,0,.54.39l.23.08h0s0,.06,0,.07h0l0,0h0c.16.07-.21-.08-.18-.06V214q-.33-3.66-.68-7.43v-.17l.12-.11c2.33-2.23,4.7-4.48,7.28-6.61.33-.26.66-.52,1-.77.18-.12.34-.25.54-.36a1.77,1.77,0,0,1,.74-.3,1.11,1.11,0,0,1,.84.26.92.92,0,0,1,.17.93c-.14.47-.31.82-.45,1.21-.78,1.61-1.67,3-2.54,4.47l-2.25,3.67.05-.27,1.73,6.78-.64-.09c1.22-2.07,2.47-4.09,3.81-6a29,29,0,0,1,2.16-2.8,5.74,5.74,0,0,1,.66-.64,2.31,2.31,0,0,1,.87-.44,7.37,7.37,0,0,1,.87-.23,1.6,1.6,0,0,1,.55,0,.81.81,0,0,1,.57.41,2.78,2.78,0,0,1,.22,1,4.73,4.73,0,0,1,0,.53l-.11.43c-.17.56-.36,1.1-.56,1.63-.41,1.05-.85,2.08-1.28,3.09q-1.33,3-2.7,5.91l0-.19c.47,3.63.88,7.16,1,10.59a11.6,11.6,0,0,1-.62,5.07,10.21,10.21,0,0,1-2.86,4l.11-.25c.48,14.58.87,26.63,1.15,35.07.12,4.18.21,7.46.27,9.74,0,1.09,0,1.94.05,2.55S303.61,285.47,303.61,285.47Z"/><path class="cls-10" d="M287.63,214.74c-.19,0-.57-2.82-.85-6.34s-.34-6.38-.15-6.39.58,2.83.85,6.34S287.83,214.72,287.63,214.74Z"/><path class="cls-4" d="M250.51,223l-15.66-31.67a116.39,116.39,0,1,0-24,34.13l0,.06Z"/><path class="cls-7" d="M250.51,223l-39.65,2.63h-.22l.11-.18,0-.06.18.14a119.72,119.72,0,0,1-9.13,8.11c-1.66,1.4-3.49,2.68-5.32,4.06s-3.83,2.66-5.9,3.91a114.8,114.8,0,0,1-29.08,13,117.39,117.39,0,0,1-36.9,4.5,115.71,115.71,0,0,1-40.88-9.17,117.14,117.14,0,0,1-38-26A116.37,116.37,0,0,1,13.6,129.39c.19-2.27.63-4.5,1-6.76s.9-4.48,1.37-6.72A118.12,118.12,0,0,1,41.42,66.3l2.41-2.66L45,62.32l1.27-1.26,2.52-2.52,2.62-2.4A114.14,114.14,0,0,1,74.39,40c2-1.15,4.13-2.09,6.21-3.09s4.22-1.81,6.33-2.71,4.28-1.61,6.45-2.27,4.33-1.39,6.54-1.89a119.27,119.27,0,0,1,26.41-3.73A116.43,116.43,0,0,1,237.06,98.78a121.56,121.56,0,0,1,5.8,18.57c.3,1.54.61,3.06.9,4.57s.47,3,.71,4.52l.33,2.23c.08.75.15,1.49.23,2.23.17,1.47.28,2.93.36,4.38A115.82,115.82,0,0,1,243.06,167a118.84,118.84,0,0,1-3.64,13.16c-1.41,4-2.93,7.75-4.47,11.14v-.1c10.09,20.56,15.24,31,15.57,31.72l-15.76-31.62,0-.05,0,0c1.53-3.39,3-7.09,4.43-11.13a116.86,116.86,0,0,0,3.6-13.13,115.46,115.46,0,0,0,2.27-31.67c-.08-1.45-.19-2.91-.37-4.38-.07-.73-.15-1.47-.23-2.21l-.33-2.23c-.24-1.49-.39-3-.71-4.51s-.6-3-.91-4.55a119.41,119.41,0,0,0-5.81-18.5,114.67,114.67,0,0,0-22.85-35.57,116,116,0,0,0-87.5-36.53A118.87,118.87,0,0,0,100,30.55c-2.19.5-4.33,1.24-6.5,1.88S89.26,34,87.11,34.7s-4.23,1.71-6.3,2.7-4.17,1.93-6.17,3.08a113.5,113.5,0,0,0-22.85,16l-2.62,2.39-2.5,2.51-1.26,1.26L44.21,64l-2.4,2.64A118.23,118.23,0,0,0,33.11,78a116.87,116.87,0,0,0-16.68,38c-.46,2.23-1,4.45-1.36,6.69s-.77,4.47-1,6.73A116.41,116.41,0,0,0,20,181.52a115.2,115.2,0,0,0,26.08,42,116.69,116.69,0,0,0,37.83,25.95,115.07,115.07,0,0,0,40.72,9.18,117.05,117.05,0,0,0,36.79-4.43,114.8,114.8,0,0,0,29-12.88c2.08-1.24,4-2.6,5.9-3.89s3.66-2.64,5.32-4a121.52,121.52,0,0,0,9.13-8.07l.6-.57-.43.71,0,.05-.1-.17Z"/><path class="cls-6" d="M69.52,242.69l119.76-.19s-28.63,19-63,16.73C96.38,257.29,69.52,242.69,69.52,242.69Z"/><path class="cls-4" d="M122,162.35l6.84,25,25-33.69L147.86,242H112.24l-10.39.5s1.54-13.93,2.18-21.79a87.74,87.74,0,0,1,3.16-18.51C112.51,184.85,122,162.35,122,162.35Z"/><path class="cls-7" d="M130,201.45c.09.11-3.94,3.35-9,7.24s-9.21,6.94-9.3,6.83,3.93-3.36,9-7.24S129.91,201.33,130,201.45Z"/><polygon class="cls-11" points="192.01 150.17 172.61 140.84 165 131.79 154.24 142.98 125.7 241.75 174.64 241.75 180.91 224.8 192.01 159.36 192.01 150.17"/><path class="cls-11" d="M104.71,243.18l-1.32-21,59.12-10s10.1-48.78,16.32-56.78c5.74-7.37,13.23-4.81,13.23-4.81s6.75,4.62,5.13,22.31c-.84,9.27-4.23,41.39-5.46,53a18.43,18.43,0,0,1-2.69,7.84h0a18.54,18.54,0,0,1-15.73,8.74Z"/><path class="cls-7" d="M172.17,224.38c-.09,0-.17-.93-.6-2.36a14.41,14.41,0,0,0-2.74-5.09,14.55,14.55,0,0,0-4.55-3.56c-1.35-.67-2.26-.91-2.23-1a6.22,6.22,0,0,1,2.38.66,12.91,12.91,0,0,1,7.49,8.88A6.56,6.56,0,0,1,172.17,224.38Z"/><g class="cls-13"><path d="M171.09,142.26a92.47,92.47,0,0,1-3.53,18.21l-4.44-1.3a11.56,11.56,0,0,1,1.32,9.19,34.38,34.38,0,0,1-3.84,8.72l-22.06,39.63,22.24-50.49-.58-9.34,4.28-.92Z"/></g><g class="cls-13"><path d="M162.32,211.62a11.81,11.81,0,0,1,12.09,8.75,3.09,3.09,0,0,1,0,1.9,1.26,1.26,0,0,1-1.54.79,2,2,0,0,1-.87-1.15,17.91,17.91,0,0,0-10.27-9.57"/></g><path class="cls-7" d="M138.7,216.24a5,5,0,0,1,.3-.81l.95-2.29c.87-2,2.1-4.86,3.6-8.35,3.1-7.08,7.36-16.78,12-27.5,1.73-3.89,3.39-7.65,5-11.18l0,.12c-.2-3.32-.38-6.45-.55-9.34v-.19l.18,0,4.29-.9-.14.12,5.33-10.79,1.49-3,.41-.77a1.16,1.16,0,0,1,.15-.25.83.83,0,0,1-.1.28l-.35.79c-.34.73-.8,1.74-1.39,3l-5.17,10.86,0,.09-.09,0-4.28.93.17-.23c.19,2.89.39,6,.61,9.33v.06l0,.06c-1.56,3.53-3.21,7.29-4.93,11.19l-12.19,27.42c-1.57,3.47-2.84,6.29-3.75,8.29-.44.95-.79,1.69-1,2.25A6.22,6.22,0,0,1,138.7,216.24Z"/><path class="cls-7" d="M104.66,242.49a2.49,2.49,0,0,1,0-.35c0-.26,0-.6-.08-1-.07-.94-.17-2.26-.29-4-.23-3.45-.56-8.4-1-14.49v-.17l.16,0,42.77-7.86L162,211.76l-.2.19c3.46-13.17,6.47-24.6,8.62-32.78,1.09-4,2-7.27,2.56-9.53.3-1.09.54-1.94.71-2.55l.19-.66.08-.21s0,.07,0,.23l-.15.66c-.15.62-.36,1.48-.63,2.57-.57,2.27-1.39,5.52-2.42,9.57-2.1,8.19-5,19.63-8.44,32.82l0,.16-.16,0-15.77,2.87-42.79,7.72.16-.2c.33,6.1.6,11,.79,14.51.08,1.69.14,3,.18,4,0,.43,0,.77,0,1A1.88,1.88,0,0,1,104.66,242.49Z"/><path class="cls-7" d="M189,148.53c0,.1-1,.25-2.5.81a15.94,15.94,0,0,0-8.93,8.36c-.66,1.47-.87,2.46-1,2.44a2.23,2.23,0,0,1,.08-.71,10.3,10.3,0,0,1,.55-1.87,14.72,14.72,0,0,1,9.15-8.57,11,11,0,0,1,1.9-.43A2.22,2.22,0,0,1,189,148.53Z"/><path class="cls-14" d="M77.27,126.31c1.75-3.23,1-16.27,3.67-15.81,3.44.59.26,14.3,0,15.55s1.59,1.55,1.72.42c.19-1.64,2.2-17.58,5.59-16.69,1.88.5,1,3.93,1,3.93S86.4,129.17,88,129.54s2.85-8.54,3.57-11.79,2.72-4.44,3.48-2.8c1.13,2.4-1,10.18-1.68,13.31s-2.25,12.16,2.13,8.63,9.06-4.64,10.52-4.07,1.13,2.79-.55,3.24a21.09,21.09,0,0,0-5,2.68,19.54,19.54,0,0,0-3.31,3.12A17.3,17.3,0,0,0,94,146.74a10.94,10.94,0,0,1-6.66,6h0l-2.56,12.18-16.58-3.56,3.69-12.88c1.35-8.47.6-19.85.62-25,0-8.26,1.09-8.32,2-8.1C76.68,115.81,75.56,129.46,77.27,126.31Z"/><path class="cls-15" d="M76.8,137.39a18.87,18.87,0,0,1,2.2,1,9.28,9.28,0,0,1,3.75,4.42,9.67,9.67,0,0,1,.49,1.74l.06.28.23-.14a13.77,13.77,0,0,1,4.3-1.62c1.13-.22,1.83-.24,1.83-.3a5.57,5.57,0,0,0-1.87,0,12.57,12.57,0,0,0-4.45,1.53l.29.14a9.12,9.12,0,0,0-.51-1.83,9.38,9.38,0,0,0-1.82-2.84,9.07,9.07,0,0,0-2.16-1.68,7.7,7.7,0,0,0-1.68-.68A1.82,1.82,0,0,0,76.8,137.39Z"/><path class="cls-15" d="M74.59,149a11.42,11.42,0,0,0,3.87,1.87,11.47,11.47,0,0,0,4.25.66c0-.13-1.89-.34-4.13-1.05S74.65,148.88,74.59,149Z"/><polygon class="cls-14" points="134.62 136.99 121.95 162.35 128.79 187.34 146.97 168.12 164.9 134.81 134.62 136.99"/><path class="cls-11" d="M122.7,139.37s-18,6.4-18,7.59h0c-3.18,2.49-13.77,28.09-17.14,32.94l-9.63,14.18h0L86,162.56l-17.77-5.22S53.05,194,51.2,202.17a30,30,0,0,0,.29,14.63l.1-.08a16.85,16.85,0,0,0,6.66,8.95c7.53,4.83,14.57,5.74,21.77.42,4.08-3,8.74-6.65,13-10.05l1.12,26.48H104c0-1.49-.3-19.63-.3-19.63a103.4,103.4,0,0,0,3-13.09c.89-6.24,15.51-47.22,15.51-47.22l11.35-21.86.26-8.09Z"/><path class="cls-7" d="M94,242.29a4.06,4.06,0,0,1-.08-.82c0-.59-.09-1.38-.15-2.38-.11-2.11-.26-5.09-.45-8.78-.34-7.48-.8-17.79-1.33-29.35v-.06c.21-1.1.44-2.26.66-3.44l6.11-31.15c.79-3.94,1.44-7.15,1.9-9.42.23-1.08.41-1.93.55-2.56l.15-.66a1,1,0,0,1,.07-.23.65.65,0,0,1,0,.24l-.11.67-.45,2.58-1.74,9.46c-1.53,8-3.64,19-6,31.18-.22,1.17-.45,2.34-.66,3.43v-.06c.46,11.56.87,21.88,1.16,29.36.12,3.69.22,6.67.29,8.79q0,1.5.06,2.37A5.22,5.22,0,0,1,94,242.29Z"/><path class="cls-7" d="M104,218.79a4.29,4.29,0,0,1,.09-.83c.08-.58.2-1.37.35-2.36.35-2.1.83-5,1.42-8.68,1.25-7.36,3-17.44,4.86-28.59,1.27-7.29,2.46-14.13,3.48-20v-.05c2.5-5.66,4.59-10.39,6.07-13.76.73-1.62,1.32-2.91,1.74-3.85.19-.41.35-.74.47-1s.17-.34.19-.33a1.65,1.65,0,0,1-.12.36c-.11.27-.25.61-.41,1-.4.94-.94,2.25-1.62,3.89-1.45,3.39-3.48,8.15-5.9,13.84v-.05c-1,5.83-2.16,12.67-3.41,20l-5,28.57c-.66,3.61-1.19,6.55-1.58,8.64l-.45,2.35A6.11,6.11,0,0,1,104,218.79Z"/><path class="cls-7" d="M69.52,215.85c-.07,0,.7-1.15,1.78-3a55.12,55.12,0,0,0,3.61-7.63,65.17,65.17,0,0,0,2.48-8.09c.5-2.11.73-3.43.81-3.42a3,3,0,0,1,0,.95c-.06.61-.19,1.48-.4,2.55a49.76,49.76,0,0,1-2.35,8.19A43.66,43.66,0,0,1,71.61,213a25.69,25.69,0,0,1-1.47,2.13C69.77,215.62,69.55,215.87,69.52,215.85Z"/><g class="cls-13"><path d="M70.88,214.39a1.1,1.1,0,0,0-.76,1.55,1.64,1.64,0,0,0,1.72.78,3.44,3.44,0,0,0,1.75-.95,12,12,0,0,0,3-5.34c1.52-4.82,1.6-10,1.66-15a61.57,61.57,0,0,1-7.38,18.68"/></g><g class="cls-13"><path d="M92.74,216.74a26.58,26.58,0,0,1-3.63-16.2c.54-7.7,4.28-14.74,7.07-21.93-1.6,7.56-2.52,15.07-4,22.34,0,0,.78,10.81.8,15.6"/></g><g class="cls-13"><path d="M105.16,211.92c.78-11.52,1.57-23.06,3.6-34.42a109.86,109.86,0,0,1,11.6-33.23c-1.45,4.56-5.92,14.14-5.92,14.14s-6.46,34-9.25,51.16"/></g><path class="cls-14" d="M103.71,225.16,105.32,243l-8.43,0-7.46-.12a52.18,52.18,0,0,1-8.57.22c-.23,0-.37-.05-.39-.09a6.29,6.29,0,0,1-1.3-.31h0c-.76-.28-1.55-.77-1.42-1.61.37-2.56,1.89-2.77,1.89-2.77l.76-.05.06-.22c-1.16,0-2.13,0-2.64-.09-.24,0-.38-.05-.4-.09s-3-.35-2.76-1.93c.37-2.56,1.89-2.77,1.89-2.77L79,233c-1.2,0-2.21,0-2.74-.09-.23,0-.38-.05-.39-.09s-3-.35-2.76-1.93c.37-2.56,1.89-2.77,1.89-2.77l2-.14c-1,0-1.76,0-2.22-.08-.23,0-.37,0-.39-.09s-3-.35-2.76-1.94c.37-2.56,1.89-2.76,1.89-2.76s4.7-.34,7.93-.47c0,0,3.67-3.31,5.11-3.15,2.16.22,14.7,4.85,14.7,4.85Z"/><path class="cls-15" d="M87.88,237.78a17.74,17.74,0,0,1-4.18.4,16.75,16.75,0,0,1-4.13-.13,16.83,16.83,0,0,1,4.18-.41A15.84,15.84,0,0,1,87.88,237.78Z"/><path class="cls-15" d="M87.91,232.71a32.19,32.19,0,0,1-5.94.48,34.2,34.2,0,0,1-6-.05,32.67,32.67,0,0,1,5.94-.49A33.57,33.57,0,0,1,87.91,232.71Z"/><g class="cls-16"><path class="cls-15" d="M87.49,227.57a33.58,33.58,0,0,1-5.95.48,32.52,32.52,0,0,1-6-.06,33.53,33.53,0,0,1,5.94-.48A32.65,32.65,0,0,1,87.49,227.57Z"/></g><path class="cls-15" d="M80.11,222.73a8.42,8.42,0,0,0,1.89.15l4.57.15,4.57.16a7.82,7.82,0,0,0,1.9,0,8.9,8.9,0,0,0-1.88-.29c-1.17-.11-2.79-.23-4.58-.29s-3.41-.06-4.58,0A8,8,0,0,0,80.11,222.73Z"/><path class="cls-7" d="M173.19,77.26c2.11-5.16,8.82-7.5,14.05-5.58S196,79,196.6,84.5a11.49,11.49,0,0,1-1.6,7.88,10.65,10.65,0,0,1-7.32,4.12,14.6,14.6,0,0,1-15.43-20.24"/><path class="cls-6" d="M194.48,77.94s-.1.27-.38.68a12.44,12.44,0,0,1-1.34,1.65,15,15,0,0,1-12.84,4.4,12.06,12.06,0,0,1-2.07-.47,2,2,0,0,1-.72-.3c0-.09,1.08.25,2.83.41A15.95,15.95,0,0,0,192.5,80C193.78,78.8,194.41,77.89,194.48,77.94Z"/><path class="cls-6" d="M196.7,83.82s-.18.22-.57.54a19,19,0,0,1-1.74,1.26,19.77,19.77,0,0,1-6.52,2.73,15.76,15.76,0,0,1-3.91.31,14,14,0,0,1-3.15-.52,11.61,11.61,0,0,1-2-.75c-.45-.22-.7-.36-.68-.39s1,.38,2.79.79a16.21,16.21,0,0,0,3.08.39,17,17,0,0,0,3.79-.34,22.33,22.33,0,0,0,6.43-2.54C195.75,84.41,196.65,83.75,196.7,83.82Z"/><path class="cls-7" d="M119.11,92.65c-12.38-27.23,17.07-40.91,33.13-36.37,15.1,4.27,21.54,11.78,24,21.88s2.36,21-1.6,30.67c-1.95,4.74-5.46,9.56-10.56,10.16"/><path class="cls-14" d="M133.9,159.94c-.22-13-.37-30.88-.37-30.8s-11.19-1.86-13.5-16.45c-1.15-7.25-.79-19.15-.18-28.87.56-8.76,6.35-19.49,15.07-18.57l27.24,6.88a5.14,5.14,0,0,1,4.59,5.21h0L165,133.66"/><path class="cls-7" d="M126.53,94.18a1.87,1.87,0,0,0,1.77,1.9,1.78,1.78,0,0,0,1.94-1.65,1.85,1.85,0,0,0-1.77-1.9A1.78,1.78,0,0,0,126.53,94.18Z"/><path class="cls-7" d="M146.71,94.18a1.86,1.86,0,0,0,1.77,1.9,1.78,1.78,0,0,0,1.94-1.65,1.86,1.86,0,0,0-1.77-1.9A1.78,1.78,0,0,0,146.71,94.18Z"/><path class="cls-7" d="M134.63,104.51a13.6,13.6,0,0,0-3.27-.59c-.51,0-1-.15-1.08-.5a2.62,2.62,0,0,1,.34-1.53L132.14,98c2.11-5.58,3.64-10.16,3.41-10.24s-2.11,4.36-4.23,9.94c-.5,1.37-1,2.68-1.45,3.94a2.93,2.93,0,0,0-.27,2,1.3,1.3,0,0,0,.85.76,3.75,3.75,0,0,0,.87.12A12.55,12.55,0,0,0,134.63,104.51Z"/><path class="cls-15" d="M133.5,129.2A37.11,37.11,0,0,0,153,124s-4.94,10.15-19.54,8.79Z"/><path class="cls-14" d="M164,95.74c.21-.1,7.81-3.46,7.9,5.27s-8.7,7-8.72,6.77S164,95.74,164,95.74Z"/><path class="cls-15" d="M165.78,104.45s.15.1.41.22a1.51,1.51,0,0,0,1.14,0c.92-.35,1.68-1.82,1.7-3.4a5,5,0,0,0-.44-2.17A1.79,1.79,0,0,0,167.43,98a.77.77,0,0,0-.89.43c-.12.25-.06.42-.11.44s-.19-.15-.12-.51a.93.93,0,0,1,.34-.55,1.16,1.16,0,0,1,.84-.23,2.14,2.14,0,0,1,1.6,1.34,5.11,5.11,0,0,1,.55,2.42c0,1.77-.92,3.42-2.18,3.8a1.58,1.58,0,0,1-1.39-.22C165.79,104.66,165.75,104.46,165.78,104.45Z"/><path class="cls-15" d="M135.23,110.12a8.38,8.38,0,0,0,1.08,2.13,2.81,2.81,0,0,0,2,1.16,2.55,2.55,0,0,0,2.15-1.17,4,4,0,0,0,.59-2.43c0-.77-.38-1.69-1.15-1.78a1.87,1.87,0,0,0-.92.2l-4,1.63"/><path class="cls-7" d="M136.83,113.44a5.55,5.55,0,0,0,2.15-.26,3,3,0,0,0,1.61-1.47,3.2,3.2,0,0,0,.06-2.63,3,3,0,0,0-.35-.6c-.16-.17-.13-.16-.31-.13a6.32,6.32,0,0,0-.64.25l-.66.27c-.86.34-1.64.65-2.29.89a7.11,7.11,0,0,1-2.19.66,7.3,7.3,0,0,1,2-1.12c.63-.31,1.39-.66,2.23-1l.65-.29a6.25,6.25,0,0,1,.74-.3.92.92,0,0,1,.59,0,1.08,1.08,0,0,1,.44.35,3.65,3.65,0,0,1,.33,4,3.43,3.43,0,0,1-2,1.65,3.17,3.17,0,0,1-1.74.06C137,113.62,136.82,113.48,136.83,113.44Z"/><path class="cls-6" d="M173.76,89.76c-.9-.06-8.11.87-7.54,14.28.53,12.53,9.31,9.77,12.12,5C181,104.63,182.53,90.38,173.76,89.76Z"/><path class="cls-6" d="M178.22,91.35a1.26,1.26,0,0,1,0-.36c0-.26,0-.6,0-1,0-.92-.06-2.21-.11-3.82-.06-3.29-.16-7.86-.26-13.15l.16.16h-3.72l.17-.18c0,1,.05,2.06.08,3.13.13,5,.24,9.71.34,13.64v.11l-.11,0a6.78,6.78,0,0,0-3.83,2.46,9.15,9.15,0,0,0-1.53,3.24,13.23,13.23,0,0,0-.39,2.29c0,.27,0,.47-.05.61s0,.21,0,.21,0-.07,0-.21,0-.35,0-.62a12.22,12.22,0,0,1,.32-2.32,9,9,0,0,1,1.51-3.33,7,7,0,0,1,3.95-2.61l-.11.14c-.11-3.92-.25-8.6-.39-13.64,0-1.06-.06-2.12-.09-3.12v-.17h4.05V73c.06,5.28.11,9.86.15,13.15,0,1.6,0,2.89,0,3.82v1A2.45,2.45,0,0,1,178.22,91.35Z"/><path class="cls-6" d="M173.75,73A28.78,28.78,0,0,0,161,59.81a52.93,52.93,0,0,0-10.77-4s5.25-1.24,13.73,2.53c3.86,1.72,7.75,3.95,10.31,7.3,1.64,2.13,3.67,6.28,3.67,7.35Z"/><path class="cls-7" d="M172.8,112.84a.68.68,0,0,1-.26-.07,4.44,4.44,0,0,1-.67-.35,6,6,0,0,1-1.89-2,9.69,9.69,0,0,1-1.16-3.93,27.91,27.91,0,0,1,0-5,29.56,29.56,0,0,1,.83-4.94,13.94,13.94,0,0,1,1.44-3.84,5.93,5.93,0,0,1,1.9-2,3.49,3.49,0,0,1,.67-.34.72.72,0,0,1,.26-.07s-.33.15-.86.52a6.26,6.26,0,0,0-1.77,2A14.52,14.52,0,0,0,170,96.59a32.77,32.77,0,0,0-.8,4.9,30.37,30.37,0,0,0,0,5,9.62,9.62,0,0,0,1.06,3.84,6,6,0,0,0,1.76,2C172.47,112.69,172.81,112.81,172.8,112.84Z"/><rect class="cls-6" x="135.59" y="111.45" width="10.44" height="3.93" rx="1.7" transform="translate(-19.21 29.24) rotate(-11.1)"/><path class="cls-6" d="M145,111.83l30.66-9.62a1.45,1.45,0,0,1,1.81.94h0a1.46,1.46,0,0,1-1,1.84l-31.35,8.47Z"/><path class="cls-7" d="M167.66,107.6a6.84,6.84,0,0,1,1-.35l2.8-.86c1.18-.36,2.62-.74,4.15-1.24a2.86,2.86,0,0,0,1-.62,1.53,1.53,0,0,0,.43-1.07.93.93,0,0,0-.63-.88,2.44,2.44,0,0,0-1.28,0l-9.19,3-2.8.86a6.89,6.89,0,0,1-1,.28,5.94,5.94,0,0,1,1-.4l2.76-1c2.35-.79,5.57-1.9,9.19-3a2.53,2.53,0,0,1,1.47,0,1.25,1.25,0,0,1,.85,1.18,1.82,1.82,0,0,1-.53,1.3,3,3,0,0,1-1.12.68c-1.59.51-3,.85-4.19,1.19l-2.84.75A5.49,5.49,0,0,1,167.66,107.6Z"/><path class="cls-15" d="M151.58,89.9c-.24.37-2.34-.78-4.94-.31s-4.21,2.22-4.55,2c-.17-.11,0-.76.7-1.55a6.38,6.38,0,0,1,7.6-1.32C151.31,89.18,151.69,89.73,151.58,89.9Z"/><path class="cls-7" d="M151.28,90.23a11.29,11.29,0,0,1-1.44-.37,7.74,7.74,0,0,0-6.56,1.48c-.71.55-1.08,1-1.14.94s.21-.56.9-1.22a6.94,6.94,0,0,1,6.9-1.55C150.84,89.81,151.31,90.17,151.28,90.23Z"/><path class="cls-7" d="M152.63,84.36c-.22.7-2.45.65-5.1.78s-4.89.28-5.14-.41c-.12-.33.34-.84,1.25-1.3a9.47,9.47,0,0,1,3.79-.9,9.59,9.59,0,0,1,3.85.61C152.23,83.54,152.72,84,152.63,84.36Z"/><path class="cls-15" d="M130.64,91.44c-.2.11-.6-.26-1.23-.7a6.3,6.3,0,0,0-2.65-1.07c-2.26-.38-4.08.67-4.34.3-.12-.16.19-.67,1-1.17a5.43,5.43,0,0,1,3.59-.68A4.91,4.91,0,0,1,130.19,90C130.76,90.74,130.81,91.35,130.64,91.44Z"/><path class="cls-7" d="M130.89,92.52c-.07,0-.41-.45-1.12-1.08a7.39,7.39,0,0,0-3.21-1.65A7.26,7.26,0,0,0,123,90c-.91.27-1.42.59-1.46.52s.41-.48,1.34-.87a6.68,6.68,0,0,1,3.84-.33,6.6,6.6,0,0,1,3.36,1.9A2.93,2.93,0,0,1,130.89,92.52Z"/><path class="cls-7" d="M131.79,85.24c-.13.71-2.26.92-4.78,1s-4.66-.16-4.8-.88,2-1.71,4.78-1.73S131.93,84.54,131.79,85.24Z"/><path class="cls-7" d="M155.34,64.55a29.17,29.17,0,0,0-4,7.53,9.83,9.83,0,0,0,.86,8.23c1.54,2.25,4.17,3.44,6.57,4.75s4.85,3.1,5.45,5.77c.18.83-.17,3.74.45,4.33.86.79,2.37.3,3-.67s1.08-4.18,1.09-5.35l.16-10.9c0-3.08,0-6.27-1.33-9-1.87-3.88-5.73-5.12-11.37-4.84"/><path class="cls-7" d="M119.52,86.43a20.65,20.65,0,0,1,4.14-10.19A15.15,15.15,0,0,1,133,70.65c3.68-.55,7.4.47,11.11.68s8-.7,9.89-3.87c.6-1,.89-2.38.12-3.24A3.34,3.34,0,0,0,153,63.5a28,28,0,0,0-15.91-2.57,22,22,0,0,0-13.93,7.79,18.13,18.13,0,0,0-3.53,15.38"/><path class="cls-6" d="M117.3,81a1.5,1.5,0,0,1-.17-.48,9,9,0,0,1-.3-1.42,12.46,12.46,0,0,1,.5-5.29,14.09,14.09,0,0,1,4.39-6.55,18.28,18.28,0,0,1,8.8-4,24.84,24.84,0,0,1,9.65.44,33.44,33.44,0,0,1,4.05,1.22c1.25.46,2.36,1,3.43,1.25a14.75,14.75,0,0,0,5.18.46,3.81,3.81,0,0,0,1.69-.83,1.38,1.38,0,0,1-.33.38,3.11,3.11,0,0,1-1.31.65,14,14,0,0,1-5.33-.31c-1.1-.27-2.24-.76-3.47-1.19a34.57,34.57,0,0,0-4-1.16,24.77,24.77,0,0,0-9.47-.39A17.93,17.93,0,0,0,122,67.58a14,14,0,0,0-4.35,6.29A12.86,12.86,0,0,0,117,79C117.14,80.27,117.35,80.94,117.3,81Z"/><path class="cls-6" d="M133.44,58a2.9,2.9,0,0,1,.92-.18,12.52,12.52,0,0,1,2.55,0,14.85,14.85,0,0,1,7.76,3.1c1.29,1,2.37,2.14,3.51,2.92a9.23,9.23,0,0,0,3.38,1.36,8,8,0,0,0,2.46.17c.58-.07.87-.23.89-.19s-.25.25-.86.39a6.79,6.79,0,0,1-2.56,0,9.07,9.07,0,0,1-3.57-1.32c-1.22-.79-2.32-1.91-3.58-2.91a15.54,15.54,0,0,0-7.48-3.15C134.77,57.91,133.45,58.1,133.44,58Z"/><path class="cls-6" d="M177.6,84.79s-.2-.35-.62-.9a6.22,6.22,0,0,0-2.32-1.79,9.74,9.74,0,0,0-4.26-.85A33.68,33.68,0,0,0,165,82a19.7,19.7,0,0,1-5.53.42,15.11,15.11,0,0,1-4.4-1.06,13.44,13.44,0,0,1-2.69-1.45,3.64,3.64,0,0,1-.86-.71A28.12,28.12,0,0,0,155.21,81a15.66,15.66,0,0,0,4.31.93,20.48,20.48,0,0,0,5.39-.45,30.63,30.63,0,0,1,5.48-.71,9.76,9.76,0,0,1,4.43,1,5.87,5.87,0,0,1,2.32,2,3.46,3.46,0,0,1,.38.74C177.59,84.69,177.62,84.78,177.6,84.79Z"/><path class="cls-6" d="M176,77.79s-.19-.35-.62-.88a5.86,5.86,0,0,0-2.33-1.64,8.68,8.68,0,0,0-4.22-.45c-1.62.16-3.36.65-5.25,1a11.32,11.32,0,0,1-5.44-.09,8.67,8.67,0,0,1-3.77-2.34,8.42,8.42,0,0,1-1.67-2.48,5.77,5.77,0,0,1-.26-.77.75.75,0,0,1-.05-.28,11.56,11.56,0,0,0,2.24,3.27,8.76,8.76,0,0,0,3.65,2.15,11.28,11.28,0,0,0,5.21,0c1.85-.35,3.62-.83,5.3-1a8.75,8.75,0,0,1,4.4.59,5.55,5.55,0,0,1,2.35,1.86A2.33,2.33,0,0,1,176,77.79Z"/><path class="cls-7" d="M138.54,177.8a1.07,1.07,0,0,1,.19-.16l.55-.44a23.2,23.2,0,0,0,2-1.85,35.45,35.45,0,0,0,2.87-3.33c1.05-1.36,2.17-3,3.4-4.82,2.46-3.64,5.34-8.08,8.4-13.2,1.53-2.55,3.11-5.28,4.7-8.16l1.2-2.19a13.58,13.58,0,0,1,1.37-2.17,4.75,4.75,0,0,1,2.12-1.54,2.55,2.55,0,0,1,1.35-.15,1.4,1.4,0,0,1,.64.35,1.54,1.54,0,0,1,.34.66l0,0,0,0a2.37,2.37,0,0,1-.47.83,1.36,1.36,0,0,1-.88.42,2.79,2.79,0,0,1-1.73-.6,2.93,2.93,0,0,1-1.11-3.41,2.56,2.56,0,0,1,1.27-1.45,2.88,2.88,0,0,1,1.89-.27,2,2,0,0,1,1.54,1.2,1,1,0,0,1-.22,1.06,1.91,1.91,0,0,1-.9.49,2.65,2.65,0,0,1-2.93-1.34,2.39,2.39,0,0,1-.18-1.72,3,3,0,0,1,.89-1.45,2.33,2.33,0,0,1,1.56-.6,1.84,1.84,0,0,1,1.48.77,1.25,1.25,0,0,1,.18.89,1.18,1.18,0,0,1-.49.75,1.77,1.77,0,0,1-1.62.2,2,2,0,0,1-1.1-1.21,4.28,4.28,0,0,1-.24-1.58,5.5,5.5,0,0,1,.79-3,2.29,2.29,0,0,1,1.25-1,2,2,0,0,1,1.51.28,1.5,1.5,0,0,1,.76,1.35,1.39,1.39,0,0,1-1,1.16,1.58,1.58,0,0,1-1.47-.24,2.05,2.05,0,0,1-.74-1.28,3.06,3.06,0,0,1,.12-1.45,7,7,0,0,1,.5-1.32,2.55,2.55,0,0,1,.94-1,3,3,0,0,1,1.3-.44,1.23,1.23,0,0,1,.7.09,1.61,1.61,0,0,1,.53.47,1.62,1.62,0,0,1,.29.64,1,1,0,0,1-.08.73,1.16,1.16,0,0,1-1.24.48,2.13,2.13,0,0,1-1.14-.59,3.43,3.43,0,0,1-1-2.26,3.67,3.67,0,0,1,.61-2.29,2.81,2.81,0,0,1,.85-.8,2.38,2.38,0,0,1,1.09-.3,1.61,1.61,0,0,1,1.06.31,1.18,1.18,0,0,1,.45,1,1.64,1.64,0,0,1-1.43,1.4,1.75,1.75,0,0,1-1.64-.93,2.89,2.89,0,0,1-.41-1.77,10.85,10.85,0,0,1,1.09-3c.39-.91.76-1.74,1.09-2.48.65-1.48,1.16-2.63,1.52-3.43l.4-.88a3.19,3.19,0,0,1,.15-.3l-.12.31-.37.9-1.46,3.45-1.07,2.49a11.07,11.07,0,0,0-1,3,2.77,2.77,0,0,0,.39,1.65,1.54,1.54,0,0,0,1.44.82,1.44,1.44,0,0,0,1.24-1.19,1,1,0,0,0-.37-.82,1.44,1.44,0,0,0-.92-.26,2.26,2.26,0,0,0-1,.28,2.43,2.43,0,0,0-.77.73,3.32,3.32,0,0,0-.55,2.13,3.16,3.16,0,0,0,.9,2.07,1.89,1.89,0,0,0,1,.51.91.91,0,0,0,1-.34,1,1,0,0,0-.2-1,1.17,1.17,0,0,0-.42-.38,1,1,0,0,0-.56-.07,2.46,2.46,0,0,0-2,1.33,6.54,6.54,0,0,0-.47,1.26,2.68,2.68,0,0,0-.11,1.31,1.77,1.77,0,0,0,.62,1.09,1.31,1.31,0,0,0,1.2.19,1,1,0,0,0,.77-.89,1.17,1.17,0,0,0-.61-1,1.69,1.69,0,0,0-1.27-.23,1.93,1.93,0,0,0-1.06.82,5.28,5.28,0,0,0-.73,2.82,4,4,0,0,0,.23,1.46,1.72,1.72,0,0,0,.9,1,1.47,1.47,0,0,0,1.32-.17.84.84,0,0,0,.22-1.17,1.51,1.51,0,0,0-1.21-.62,2,2,0,0,0-1.33.52,2.22,2.22,0,0,0,1.92,3.91,1.65,1.65,0,0,0,.74-.39.67.67,0,0,0,.14-.7,1.66,1.66,0,0,0-1.29-1,2.42,2.42,0,0,0-2.78,1.49,2.6,2.6,0,0,0,1,3,2.53,2.53,0,0,0,1.53.54,1.28,1.28,0,0,0,1.06-1v.09a1,1,0,0,0-.74-.76,2.3,2.3,0,0,0-1.18.13,4.5,4.5,0,0,0-2,1.44,12.87,12.87,0,0,0-1.34,2.12L161,146c-1.6,2.88-3.19,5.6-4.73,8.16-3.08,5.11-6,9.53-8.47,13.17-1.24,1.81-2.38,3.43-3.44,4.8a34.57,34.57,0,0,1-2.92,3.31A18,18,0,0,1,138.54,177.8Z"/></g></g></svg>