<svg width="440" height="440" viewBox="0 0 440 440" fill="none" xmlns="http://www.w3.org/2000/svg">
<g clip-path="url(#clip0_1414_22003)">
<path d="M21.5897 269.289L14.5897 280.509L18.0297 282.639C18.5294 282.952 18.9306 283.4 19.1871 283.93C19.4436 284.461 19.5451 285.054 19.4797 285.639C19.4297 286.289 19.4097 286.949 19.4197 287.639C19.4388 288.22 19.2954 288.794 19.0056 289.298C18.7159 289.801 18.2913 290.214 17.7797 290.489L14.2197 292.399L20.5897 303.979L24.1597 302.059C24.6731 301.788 25.2517 301.665 25.8309 301.704C26.4102 301.743 26.9672 301.942 27.4397 302.279C27.9797 302.649 28.5397 302.999 29.1197 303.279C29.6317 303.555 30.057 303.967 30.3483 304.471C30.6397 304.974 30.7855 305.548 30.7697 306.129L30.6397 310.129L43.8497 310.539L43.9697 306.479C43.9914 305.898 44.1752 305.334 44.5003 304.852C44.8255 304.37 45.279 303.988 45.8097 303.749L46.6797 303.309C46.9731 303.156 47.253 302.996 47.5197 302.829C48.0137 302.528 48.5811 302.369 49.1597 302.369C49.7383 302.369 50.3057 302.528 50.7997 302.829L54.2697 304.979L61.2697 293.759L57.8197 291.619C57.3217 291.305 56.9219 290.857 56.6656 290.327C56.4093 289.796 56.3068 289.205 56.3697 288.619C56.431 287.955 56.4511 287.287 56.4297 286.619C56.4159 286.041 56.5617 285.47 56.851 284.969C57.1403 284.468 57.5619 284.057 58.0697 283.779L61.6397 281.869L55.3897 270.219L51.8297 272.129C51.3173 272.402 50.7392 272.527 50.1599 272.49C49.5807 272.452 49.0232 272.255 48.5497 271.919C48.0103 271.558 47.4529 271.224 46.8797 270.919C46.3652 270.646 45.9372 270.234 45.6439 269.731C45.3506 269.227 45.2037 268.652 45.2197 268.069L45.3397 264.019L32.1397 263.609L32.0097 267.609C31.9878 268.189 31.805 268.752 31.4819 269.234C31.1587 269.716 30.7079 270.099 30.1797 270.339C29.8897 270.469 29.5897 270.619 29.2997 270.779C29.0097 270.939 28.7297 271.089 28.4597 271.259C27.9631 271.563 27.3921 271.724 26.8097 271.724C26.2274 271.724 25.6564 271.563 25.1597 271.259L21.5897 269.289ZM32.7697 277.619C34.6562 276.609 36.7997 276.182 38.9294 276.39C41.059 276.598 43.0791 277.433 44.7342 278.789C46.3893 280.145 47.6052 281.962 48.228 284.009C48.8509 286.056 48.8527 288.242 48.2334 290.29C47.614 292.338 46.4013 294.157 44.7484 295.516C43.0956 296.875 41.077 297.713 38.9477 297.925C36.8184 298.137 34.6741 297.713 32.7859 296.706C30.8978 295.699 29.3505 294.155 28.3397 292.269C27.6699 291.014 27.2541 289.639 27.1163 288.223C26.9785 286.807 27.1212 285.378 27.5364 284.017C27.9516 282.657 28.6311 281.391 29.5359 280.293C30.4408 279.195 31.5533 278.287 32.8097 277.619H32.7697Z" fill="#EBEBEB"/>
<path d="M391.96 215.79L396.09 222.96L398.29 221.69C398.607 221.513 398.967 221.427 399.33 221.439C399.693 221.451 400.045 221.562 400.35 221.76C400.695 221.986 401.052 222.193 401.42 222.38C401.743 222.545 402.016 222.795 402.208 223.103C402.4 223.412 402.504 223.767 402.51 224.13V226.66H410.79V224.13C410.796 223.767 410.9 223.412 411.092 223.103C411.284 222.795 411.556 222.545 411.88 222.38C412.248 222.193 412.605 221.986 412.95 221.76C413.255 221.562 413.607 221.451 413.97 221.439C414.333 221.427 414.693 221.513 415.01 221.69L417.21 222.96L421.34 215.79L419.14 214.52C418.823 214.337 418.562 214.071 418.385 213.75C418.209 213.429 418.124 213.066 418.14 212.7C418.14 212.49 418.14 212.29 418.14 212.09C418.14 211.89 418.14 211.68 418.14 211.48C418.124 211.114 418.209 210.751 418.385 210.43C418.562 210.109 418.823 209.843 419.14 209.66L421.35 208.38L417.22 201.21L415.02 202.48C414.701 202.658 414.34 202.746 413.975 202.734C413.61 202.721 413.256 202.609 412.95 202.41C412.61 202.19 412.25 201.98 411.89 201.79C411.566 201.625 411.294 201.374 411.102 201.066C410.91 200.758 410.806 200.403 410.8 200.04V197.51H402.52V200.04C402.514 200.403 402.41 200.758 402.218 201.066C402.026 201.374 401.753 201.625 401.43 201.79C401.07 201.98 400.71 202.19 400.37 202.41C400.064 202.609 399.71 202.721 399.345 202.734C398.98 202.746 398.619 202.658 398.3 202.48L396.1 201.21L391.97 208.38L394.17 209.65C394.487 209.832 394.748 210.099 394.925 210.42C395.101 210.741 395.186 211.104 395.17 211.47C395.17 211.68 395.17 211.88 395.17 212.09C395.17 212.3 395.17 212.49 395.17 212.7C395.186 213.066 395.101 213.429 394.925 213.75C394.748 214.071 394.487 214.337 394.17 214.52L391.96 215.79ZM399.87 212.09C399.87 210.749 400.268 209.438 401.013 208.323C401.758 207.208 402.816 206.339 404.055 205.826C405.294 205.313 406.657 205.178 407.973 205.44C409.288 205.702 410.496 206.347 411.444 207.296C412.392 208.244 413.038 209.452 413.3 210.767C413.561 212.082 413.427 213.445 412.914 214.684C412.401 215.923 411.532 216.982 410.417 217.727C409.302 218.472 407.991 218.87 406.65 218.87C405.759 218.871 404.877 218.697 404.054 218.356C403.231 218.016 402.483 217.517 401.853 216.887C401.223 216.257 400.724 215.509 400.383 214.686C400.043 213.863 399.869 212.98 399.87 212.09Z" fill="#EBEBEB"/>
<path d="M113.25 48.4705L117.38 55.6405L119.58 54.3705C119.897 54.194 120.257 54.1073 120.62 54.1197C120.983 54.132 121.335 54.2429 121.64 54.4405C121.984 54.6684 122.341 54.8755 122.71 55.0605C123.033 55.2257 123.306 55.4759 123.498 55.7842C123.69 56.0925 123.794 56.4473 123.8 56.8105V59.3405H132.08V56.8505C132.086 56.4873 132.19 56.1325 132.382 55.8242C132.574 55.5159 132.847 55.2657 133.17 55.1005C133.53 54.9105 133.89 54.7105 134.24 54.4805C134.545 54.2829 134.897 54.172 135.26 54.1597C135.623 54.1473 135.983 54.234 136.3 54.4105L138.49 55.6805L142.63 48.5105L140.43 47.2405C140.113 47.0577 139.852 46.7914 139.675 46.4704C139.499 46.1495 139.414 45.7863 139.43 45.4205C139.43 45.2205 139.43 45.0105 139.43 44.8105C139.43 44.6105 139.43 44.4005 139.43 44.2005C139.414 43.8346 139.499 43.4714 139.675 43.1505C139.852 42.8296 140.113 42.5632 140.43 42.3805L142.64 41.1105L138.5 33.9405L136.3 35.2105C135.982 35.3854 135.622 35.4704 135.259 35.4563C134.896 35.4422 134.544 35.3296 134.24 35.1305C133.896 34.9058 133.539 34.7021 133.17 34.5205C132.848 34.3539 132.578 34.1031 132.388 33.7949C132.198 33.4867 132.095 33.1326 132.09 32.7705V30.2305H123.81V32.7705C123.804 33.1336 123.7 33.4884 123.508 33.7967C123.316 34.105 123.043 34.3552 122.72 34.5205C122.355 34.7021 122.001 34.9058 121.66 35.1305C121.355 35.3315 121.001 35.4452 120.636 35.4594C120.271 35.4735 119.909 35.3874 119.59 35.2105L117.39 33.9405L113.26 41.1105L115.46 42.3705C115.779 42.554 116.041 42.8219 116.217 43.1448C116.394 43.4677 116.478 43.833 116.46 44.2005C116.46 44.4005 116.46 44.6005 116.46 44.8105C116.46 45.0205 116.46 45.2205 116.46 45.4205C116.476 45.7863 116.391 46.1495 116.215 46.4704C116.038 46.7914 115.777 47.0577 115.46 47.2405L113.25 48.4705ZM121.16 44.7705C121.16 43.4291 121.558 42.1178 122.303 41.0027C123.049 39.8875 124.108 39.0185 125.348 38.5056C126.587 37.9927 127.951 37.8591 129.266 38.1215C130.582 38.3839 131.79 39.0306 132.738 39.9798C133.686 40.929 134.33 42.138 134.591 43.4539C134.851 44.7697 134.716 46.1333 134.201 47.372C133.686 48.6107 132.816 49.6689 131.699 50.4127C130.583 51.1565 129.271 51.5524 127.93 51.5505C126.134 51.5478 124.412 50.8323 123.142 49.5611C121.873 48.2899 121.16 46.5669 121.16 44.7705Z" fill="#EBEBEB"/>
<path d="M362.33 312.249C370.362 312.249 378.214 309.867 384.892 305.405C391.571 300.942 396.776 294.599 399.849 287.178C402.923 279.757 403.726 271.591 402.159 263.713C400.591 255.835 396.722 248.599 391.042 242.92C385.361 237.241 378.124 233.374 370.246 231.808C362.368 230.243 354.202 231.048 346.782 234.123C339.362 237.199 333.02 242.405 328.559 249.085C324.098 255.764 321.718 263.617 321.72 271.649C321.718 276.982 322.768 282.263 324.808 287.19C326.849 292.117 329.84 296.594 333.612 300.364C337.383 304.135 341.861 307.125 346.788 309.164C351.716 311.204 356.997 312.252 362.33 312.249ZM362.33 252.689C366.088 252.689 369.761 253.804 372.886 255.891C376.01 257.979 378.445 260.947 379.883 264.418C381.321 267.89 381.698 271.71 380.965 275.396C380.232 279.082 378.422 282.467 375.765 285.124C373.108 287.782 369.722 289.591 366.036 290.324C362.351 291.057 358.531 290.681 355.059 289.243C351.587 287.805 348.62 285.37 346.532 282.245C344.444 279.121 343.33 275.447 343.33 271.689C343.33 266.65 345.332 261.817 348.895 258.254C352.458 254.691 357.291 252.689 362.33 252.689Z" fill="#EBEBEB"/>
<path d="M354.52 310.57H370.14L369.27 321.62H355.39L354.52 310.57Z" fill="#EBEBEB"/>
<path d="M384.24 305.31L395.29 294.27L402.49 302.69L392.67 312.51L384.24 305.31Z" fill="#EBEBEB"/>
<path d="M401.54 280.571V264.961L412.59 265.821V279.711L401.54 280.571Z" fill="#EBEBEB"/>
<path d="M396.28 250.849L385.24 239.809L393.66 232.609L403.48 242.429L396.28 250.849Z" fill="#EBEBEB"/>
<path d="M371.54 233.56H355.93L356.79 222.5H370.68L371.54 233.56Z" fill="#EBEBEB"/>
<path d="M341.82 238.819L330.78 249.859L323.58 241.429L333.4 231.609L341.82 238.819Z" fill="#EBEBEB"/>
<path d="M324.53 263.551V279.171L313.47 278.301V264.421L324.53 263.551Z" fill="#EBEBEB"/>
<path d="M329.79 293.27L340.83 304.31L332.4 311.52L322.58 301.7L329.79 293.27Z" fill="#EBEBEB"/>
<path d="M157.43 61.77H265.14V0H157.43V61.77Z" fill="#EBEBEB"/>
<path d="M283.36 61.7708H265.14V42.8008L283.36 61.7708Z" fill="#EBEBEB"/>
<path d="M253.86 10.6797H168.69V11.8497H253.86V10.6797Z" fill="white"/>
<path d="M217.71 17.0195H168.69V18.1895H217.71V17.0195Z" fill="white"/>
<path d="M239.54 29.6992H168.69V30.8692H239.54V29.6992Z" fill="white"/>
<path d="M253.86 36.0391H168.69V37.2091H253.86V36.0391Z" fill="white"/>
<path d="M253.86 42.3691H168.69V43.5391H253.86V42.3691Z" fill="white"/>
<path d="M205.62 48.7109H168.69V49.8809H205.62V48.7109Z" fill="white"/>
<path d="M392.74 186.899C393.361 186.77 393.91 186.414 394.28 185.899C394.45 185.639 394.565 185.347 394.62 185.042C394.675 184.736 394.668 184.422 394.6 184.119C394.483 183.656 394.233 183.237 393.882 182.913C393.531 182.589 393.093 182.374 392.622 182.293C392.151 182.213 391.667 182.271 391.228 182.46C390.79 182.649 390.415 182.961 390.15 183.359C389.81 183.886 389.692 184.526 389.82 185.139C389.992 185.749 390.389 186.27 390.932 186.597C391.474 186.924 392.121 187.032 392.74 186.899Z" fill="#FFC727"/>
<path d="M248.79 137.01C249.031 136.962 249.259 136.867 249.463 136.73C249.666 136.594 249.84 136.418 249.975 136.213C250.11 136.008 250.203 135.779 250.249 135.538C250.294 135.297 250.291 135.049 250.24 134.81C250.115 134.329 249.809 133.915 249.386 133.654C248.963 133.394 248.456 133.306 247.97 133.41C247.73 133.459 247.502 133.554 247.3 133.691C247.097 133.828 246.923 134.004 246.788 134.209C246.654 134.413 246.561 134.642 246.515 134.882C246.469 135.123 246.47 135.37 246.52 135.61C246.646 136.09 246.952 136.504 247.374 136.765C247.797 137.026 248.304 137.113 248.79 137.01Z" fill="#FFC727"/>
<path d="M275.98 48.7297C276.216 48.6809 276.44 48.586 276.639 48.4504C276.838 48.3148 277.008 48.1413 277.14 47.9396C277.272 47.738 277.363 47.5123 277.408 47.2755C277.452 47.0387 277.449 46.7954 277.4 46.5597C277.274 46.0864 276.972 45.6793 276.555 45.4225C276.138 45.1657 275.639 45.0788 275.16 45.1797C274.683 45.2784 274.264 45.5623 273.996 45.9691C273.728 46.3758 273.632 46.8724 273.73 47.3497C273.859 47.8224 274.164 48.2281 274.582 48.4844C275 48.7407 275.499 48.8284 275.98 48.7297Z" fill="#FFC727"/>
<path d="M332.89 10.8502C333.434 10.7342 333.911 10.4115 334.22 9.95022C334.368 9.72554 334.469 9.47336 334.517 9.20875C334.566 8.94415 334.56 8.67255 334.5 8.41021C334.361 7.87654 334.021 7.417 333.552 7.12663C333.083 6.83626 332.52 6.7373 331.98 6.85022C331.441 6.97464 330.967 7.29545 330.65 7.75021C330.503 7.97489 330.402 8.22707 330.354 8.49168C330.305 8.75629 330.311 9.02789 330.37 9.29022C330.51 9.82389 330.85 10.2834 331.319 10.5738C331.788 10.8642 332.35 10.9631 332.89 10.8502Z" fill="#FFC727"/>
<path d="M292.72 185.849H292.839C293.178 185.872 293.516 185.815 293.829 185.685C294.142 185.555 294.421 185.355 294.644 185.099C294.866 184.844 295.027 184.54 295.113 184.212C295.199 183.884 295.208 183.541 295.139 183.209C295.054 182.879 294.896 182.572 294.676 182.311C294.456 182.051 294.18 181.843 293.869 181.704C293.557 181.565 293.219 181.497 292.878 181.507C292.537 181.516 292.202 181.603 291.899 181.759L291.799 181.829C291.386 182.046 291.053 182.392 290.851 182.813C290.65 183.235 290.589 183.71 290.679 184.169C290.806 184.625 291.069 185.031 291.434 185.331C291.799 185.632 292.248 185.813 292.72 185.849Z" fill="#FFC727"/>
<path d="M251.3 151.17C252.55 154.677 254.085 158.075 255.89 161.33C257.689 164.713 259.692 167.982 261.89 171.12C263.71 173.69 265.81 176.96 268.81 178.31C269.7 178.71 270.5 177.72 270.36 176.95C269.79 173.88 267.13 170.95 265.45 168.3L264.22 166.35C263.654 165.437 263.427 164.354 263.58 163.29C263.684 162.92 263.868 162.577 264.12 162.286C264.372 161.996 264.685 161.764 265.036 161.608C265.388 161.453 265.77 161.377 266.154 161.385C266.538 161.394 266.916 161.488 267.26 161.66C268.5 163.57 269.8 165.46 271.16 167.29C273.45 170.38 280.08 178.46 286.59 181.12C286.996 181.306 287.458 181.331 287.882 181.189C288.305 181.048 288.659 180.75 288.872 180.357C289.084 179.964 289.139 179.505 289.026 179.073C288.912 178.641 288.638 178.268 288.26 178.03C286.265 176.608 284.361 175.062 282.56 173.4C281.63 171.87 280.94 170.2 281.85 168.87C283.18 166.93 285.19 168.7 286.98 169.61C299.242 181.174 314.989 188.351 331.76 190.02C333.01 190.6 334.41 191.25 334.01 192.7C333.56 194.31 331.86 194.15 330.46 194.36C329.25 194.16 328.05 193.92 326.85 193.66C324.35 193.12 321.68 191.94 319.1 192.31C318.888 192.361 318.694 192.467 318.536 192.616C318.378 192.766 318.262 192.955 318.2 193.164C318.138 193.373 318.132 193.594 318.183 193.806C318.234 194.018 318.34 194.212 318.49 194.37C320.19 196.37 323.59 197.07 326.07 197.69C328.994 198.4 331.97 198.871 334.97 199.1C338.064 199.365 341.176 199.365 344.27 199.1C346.9 198.87 349.81 198.69 351.88 196.95C352.033 196.806 352.145 196.623 352.204 196.421C352.263 196.218 352.266 196.004 352.214 195.8C352.162 195.596 352.056 195.409 351.908 195.26C351.76 195.111 351.574 195.004 351.37 194.95C349.52 194.509 347.597 194.469 345.73 194.83H345.62C344.76 194.69 343.46 194.77 342.86 194.11C342.581 193.734 342.443 193.271 342.471 192.803C342.498 192.335 342.689 191.892 343.01 191.55C343.508 191.012 344.156 190.636 344.87 190.47C350.431 190.204 355.959 189.478 361.4 188.3C388.1 182.57 405.94 168.39 416.07 150.64C416.91 149.27 417.87 147.84 419.52 147.51C421.52 147.1 421.73 148.62 421.78 150.13C421.7 150.36 421.62 150.6 421.55 150.84C420.63 152.69 419.65 154.51 418.55 156.29C416.005 160.599 413.005 164.622 409.6 168.29C407.86 170.13 406 171.87 404.15 173.6C402.46 175.17 400.15 176.65 398.97 178.6C398.83 178.84 398.762 179.116 398.775 179.393C398.789 179.671 398.883 179.939 399.047 180.164C399.21 180.389 399.436 180.561 399.696 180.66C399.955 180.759 400.239 180.78 400.51 180.72C403 180.32 405.38 178.39 407.35 176.93C409.476 175.32 411.448 173.516 413.24 171.54C414.767 169.893 416.22 168.183 417.6 166.41C418.6 165.65 419.51 164.67 420.6 165.07C421.96 165.55 421.45 167.3 421.09 168.59L420.75 169.1C420.59 169.34 420.41 169.59 420.27 169.84L419.27 171.19C417.94 172.94 416.27 174.73 415.49 176.81C415.441 176.983 415.44 177.165 415.486 177.338C415.532 177.512 415.623 177.67 415.751 177.795C415.879 177.921 416.038 178.01 416.212 178.053C416.386 178.096 416.568 178.092 416.74 178.04C420.98 176.61 424.38 171.83 426.83 168.39C428.288 166.367 429.605 164.245 430.77 162.04C431.77 160.04 433.09 157.73 432.89 155.47C432.885 155.241 432.812 155.018 432.682 154.829C432.552 154.64 432.37 154.494 432.158 154.407C431.946 154.32 431.713 154.296 431.488 154.34C431.263 154.383 431.055 154.491 430.89 154.65C429.41 155.75 427.15 159.5 426.89 159.74C426.23 160.47 425.69 160.99 424.69 160.43C423.69 159.87 423.75 159.43 423.78 158.43C423.85 156.27 428.11 148.52 429.73 144.23C430.737 141.57 431.572 138.847 432.23 136.08C432.81 133.58 433.55 130.62 432.3 128.23C432.199 128.058 432.057 127.915 431.886 127.812C431.715 127.71 431.521 127.652 431.322 127.644C431.123 127.636 430.925 127.679 430.747 127.767C430.568 127.855 430.415 127.987 430.3 128.15C428.79 130.23 428.42 133.15 427.61 135.53C427.51 135.83 427.4 136.12 427.3 136.42C427.2 136.72 426.83 137.11 426.56 137.42L426.41 137.59C426.144 137.916 425.8 138.169 425.41 138.326C425.021 138.483 424.598 138.54 424.18 138.49C423.46 138.28 423.18 137.44 423.11 136.81C423.05 136.46 423.02 136.15 422.97 135.87C422.97 134.12 423.68 132.35 423.87 130.6C426.408 119.951 426.927 108.92 425.4 98.0802C425.543 97.8102 425.739 97.5719 425.976 97.3795C426.213 97.187 426.487 97.0444 426.78 96.9602C427.64 96.7952 428.53 96.933 429.3 97.3502C429.366 97.4537 429.426 97.5605 429.48 97.6702C429.58 97.8778 429.657 98.0957 429.71 98.3202C429.92 101.87 429.52 105.68 430.37 109.08C430.476 109.455 430.698 109.786 431.003 110.027C431.309 110.268 431.682 110.407 432.071 110.424C432.46 110.44 432.844 110.334 433.169 110.12C433.493 109.905 433.742 109.594 433.88 109.23C435.3 105.6 434.7 100.77 434.35 96.9802C433.983 92.9593 433.284 88.9757 432.26 85.0702C431.236 81.2366 429.898 77.494 428.26 73.8802C426.62 70.2302 424.69 65.8802 421.59 63.1502C420.44 62.1502 418.1 62.9102 418.64 64.6402C418.959 65.6456 419.347 66.6279 419.8 67.5802C419.792 68.0788 419.642 68.5647 419.368 68.981C419.093 69.3973 418.705 69.7266 418.25 69.9302C418.025 70.0302 417.781 70.0819 417.535 70.0819C417.289 70.0819 417.045 70.0302 416.82 69.9302C407.98 51.8302 393.13 36.7402 373.33 29.2602C372.27 28.6502 371.25 28.0202 371.14 26.7902C371.056 26.3726 371.09 25.9399 371.239 25.5407C371.387 25.1414 371.644 24.7915 371.98 24.5302C372.431 24.2678 372.95 24.1459 373.47 24.1802C376.2 25.1802 378.92 26.1802 381.71 27.0102C381.918 27.0774 382.143 27.0745 382.349 27.002C382.556 26.9294 382.732 26.7912 382.853 26.6085C382.973 26.4257 383.03 26.2086 383.015 25.9904C383 25.7721 382.914 25.5648 382.77 25.4002C375.25 17.6902 361.98 15.6202 351.47 15.0702C345.244 14.7913 339.005 15.0791 332.83 15.9302C330.88 16.1802 328.83 16.4402 326.83 16.7902C325.4 16.6702 323.83 15.9402 323.9 14.3202C323.96 13.5002 324.6 13.0402 325.31 12.6802C326.296 12.4486 327.157 11.8518 327.72 11.0102C327.856 10.8159 327.919 10.5794 327.897 10.3431C327.875 10.1068 327.77 9.88595 327.6 9.72015C325.02 7.40015 319.88 9.39016 316.9 10.1602C312.83 11.2529 308.824 12.5716 304.9 14.1102C301.03 15.5702 297.17 17.1102 293.4 18.8002C290.49 20.1102 286.04 21.8002 284.8 24.8002C284.725 25.0245 284.704 25.2632 284.737 25.4973C284.771 25.7313 284.859 25.9543 284.994 26.1485C285.129 26.3427 285.307 26.5027 285.515 26.6158C285.723 26.729 285.954 26.7921 286.19 26.8002C287.341 26.7514 288.461 26.407 289.44 25.8002C289.822 25.7823 290.202 25.8746 290.533 26.0661C290.865 26.2575 291.134 26.5401 291.31 26.8802C291.98 28.0302 291.2 28.9502 290.66 29.9402C289.927 30.3802 289.207 30.8302 288.5 31.2902C284.73 33.7802 279.13 37.5202 278.44 42.2902C278.436 42.5291 278.492 42.7651 278.604 42.9765C278.715 43.1878 278.878 43.3676 279.078 43.4993C279.277 43.6309 279.507 43.71 279.745 43.7294C279.983 43.7488 280.222 43.7078 280.44 43.6102C282.51 42.6102 284.05 40.6102 285.72 39.0702C286.72 38.5902 287.72 37.7302 288.77 37.5802C290.3 37.3702 291.4 38.3102 290.82 39.7902C290.573 40.344 290.268 40.8703 289.91 41.3602C264.26 60.1302 255.55 91.0901 260.54 119.96C260.27 121.24 259.66 122.6 258.3 122.73C256.73 122.89 256.39 121.35 255.71 120.28C255.137 117.48 254.657 114.664 254.27 111.83C253.8 108.36 253.99 104.59 253.13 101.21C253.051 100.97 252.899 100.761 252.694 100.613C252.489 100.465 252.243 100.385 251.99 100.385C251.737 100.385 251.491 100.465 251.286 100.613C251.082 100.761 250.929 100.97 250.85 101.21C249.85 104.88 250.28 109.34 250.49 113.11C250.693 116.898 251.138 120.669 251.82 124.4C253.297 132.134 255.683 139.667 258.93 146.84C259.597 148.32 260.29 149.783 261.01 151.23C261.01 152.57 260.87 154.53 259.22 154.56C257.78 154.56 257.11 153.28 256.27 152.33C255.81 151.39 255.34 150.44 254.87 149.5C253.35 146.5 252.28 143.03 250.19 140.36C250.067 140.236 249.911 140.149 249.741 140.11C249.57 140.071 249.392 140.082 249.227 140.141C249.062 140.199 248.917 140.304 248.81 140.442C248.703 140.58 248.637 140.746 248.62 140.92C248.67 144.23 250.18 147.93 251.3 151.17ZM420 76.4402C420.352 75.8021 420.908 75.3001 421.578 75.0138C422.249 74.7275 422.995 74.6735 423.7 74.8602C423.76 74.9802 423.82 75.0902 423.87 75.2102C425.436 78.7159 426.72 82.3407 427.71 86.0502C428.03 87.2602 428.31 88.4902 428.57 89.7102C428.38 90.7102 428.05 91.8702 426.83 92.1302C425.953 92.2091 425.079 91.9557 424.38 91.4202C423.318 86.3504 421.829 81.3794 419.93 76.5602C419.957 76.5224 419.981 76.4822 420 76.4402ZM337.59 20.8502C337.748 20.6339 337.937 20.4419 338.15 20.2802C338.509 20.045 338.883 19.8345 339.27 19.6502C343.311 19.3202 347.37 19.2501 351.42 19.4402C354.457 19.5925 357.483 19.9265 360.48 20.4402C361.016 20.7068 361.471 21.1105 361.8 21.6102C362.041 22.0711 362.132 22.5962 362.058 23.1113C361.985 23.6264 361.751 24.1053 361.39 24.4802C360.17 25.6302 358.39 24.9602 356.82 24.9402C351.434 24.201 345.99 23.9699 340.56 24.2502C338.68 23.8502 336.98 22.5402 337.59 20.8502ZM294.68 23.6902C295.398 23.0439 296.198 22.4958 297.06 22.0602C297.46 21.8502 297.87 21.6902 298.24 21.4802C300.91 20.3402 303.62 19.2802 306.33 18.2402C308.39 17.4502 310.48 16.7002 312.58 16.0102C314.05 15.7702 315.46 15.0902 316.97 15.2102C318.48 15.3302 319.33 16.3502 318.87 17.7402C318.52 18.4221 318.045 19.0325 317.47 19.5402C316.63 19.9495 315.821 20.4208 315.05 20.9502C313.52 22.0102 315.05 24.3602 316.69 23.9502C319.34 23.3502 321.93 22.6602 324.54 22.0202C325.192 22.0002 325.843 22.0606 326.48 22.2002C327.57 22.5402 328.48 23.3702 327.78 24.4902C327.344 25.1671 326.723 25.7049 325.99 26.0402L324.4 26.3502C316.16 28.0668 308.184 30.8679 300.68 34.6802C299.04 34.7802 297.29 34.4502 297.83 32.4202C298.37 30.3902 300.47 30.0702 302.06 29.0702L302.16 29.0002C303.606 28.4034 304.893 27.4791 305.92 26.3002C306.057 26.0899 306.137 25.8472 306.151 25.5964C306.165 25.3456 306.112 25.0957 305.998 24.8716C305.885 24.6476 305.714 24.4575 305.504 24.3203C305.294 24.1831 305.051 24.1037 304.8 24.0902C302.05 23.8402 299.17 25.5502 296.8 26.6702C296.246 26.8799 295.634 26.8799 295.08 26.6702C293.59 26.0502 293.66 24.6802 294.67 23.7302L294.68 23.6902ZM259.08 129.69C260.08 127.6 261.73 128.32 263.08 129.57C266.02 139.963 270.799 149.744 277.19 158.45C277.44 159.78 277.45 161.15 276.32 161.99C275.19 162.83 274.67 162.28 273.57 162.18C266.968 152.728 261.965 142.255 258.76 131.18C258.765 130.678 258.871 130.181 259.07 129.72L259.08 129.69Z" fill="#FFC727"/>
<path d="M391.14 33.6297C392.67 34.7597 395.14 37.2097 397.3 36.6297C397.521 36.5783 397.72 36.4589 397.869 36.2885C398.017 36.118 398.109 35.905 398.13 35.6797C398.5 33.5097 395.61 31.6797 394.13 30.6197C392.96 29.7997 389.43 27.4797 388.13 29.1197C386.83 30.7597 390.05 32.8497 391.14 33.6297Z" fill="#FFC727"/>
<path d="M401.59 40.4504C401.808 40.4052 402.014 40.3176 402.197 40.1926C402.381 40.0676 402.538 39.9076 402.66 39.7219C402.781 39.5362 402.865 39.3283 402.906 39.1101C402.948 38.8919 402.946 38.6678 402.9 38.4504C402.785 38.0278 402.516 37.6634 402.146 37.4285C401.776 37.1937 401.332 37.1052 400.9 37.1804C400.682 37.2245 400.475 37.3113 400.291 37.436C400.107 37.5607 399.949 37.7207 399.827 37.9067C399.705 38.0928 399.622 38.3011 399.581 38.5198C399.54 38.7385 399.544 38.963 399.59 39.1804C399.706 39.6031 399.975 39.9675 400.345 40.2023C400.714 40.4372 401.159 40.5257 401.59 40.4504Z" fill="#FFC727"/>
<path d="M432.92 117.63C433.525 117.497 434.058 117.14 434.41 116.63C434.576 116.377 434.688 116.094 434.742 115.797C434.795 115.499 434.787 115.194 434.72 114.9C434.561 114.304 434.181 113.792 433.656 113.468C433.132 113.145 432.503 113.034 431.9 113.16C431.295 113.293 430.762 113.65 430.41 114.16C430.244 114.412 430.131 114.696 430.078 114.993C430.025 115.291 430.032 115.596 430.1 115.89C430.258 116.486 430.639 116.998 431.163 117.321C431.688 117.645 432.316 117.755 432.92 117.63Z" fill="#FFC727"/>
<path d="M434.76 148.73C435.199 149.002 435.726 149.094 436.231 148.985C436.737 148.877 437.18 148.578 437.47 148.15C438.339 146.8 438.99 145.322 439.4 143.77C439.68 142.68 439.91 139.86 437.85 140.31C436.55 140.6 436.15 141.93 435.68 142.99C435.21 144.05 434.68 145.07 434.17 146.11C433.903 146.536 433.816 147.051 433.927 147.541C434.037 148.032 434.336 148.459 434.76 148.73Z" fill="#FFC727"/>
<path d="M251.35 93.7692C251.504 94.0476 251.735 94.2755 252.016 94.4255C252.296 94.5756 252.614 94.6413 252.931 94.6149C253.248 94.5885 253.551 94.471 253.803 94.2766C254.054 94.0822 254.245 93.8192 254.35 93.5192C255.16 91.3692 255.12 88.7292 255.56 86.5192C255.89 84.7792 256.5 82.4692 255.14 81.0292C255.005 80.8921 254.829 80.8018 254.638 80.7712C254.448 80.7407 254.252 80.7715 254.08 80.8592C252.17 81.8592 251.74 84.8592 251.32 86.7292C250.79 88.9392 250.16 91.6392 251.35 93.7692Z" fill="#FFC727"/>
<path d="M343.964 189.013C389.441 188.426 425.831 151.084 425.244 105.607C424.657 60.1298 387.314 23.7397 341.837 24.3271C296.36 24.9145 259.97 62.2569 260.558 107.734C261.145 153.211 298.488 189.601 343.964 189.013Z" fill="#FFC727"/>
<g opacity="0.1">
<path d="M412.59 85.5703C417.806 102.769 416.473 121.29 408.846 137.564C401.219 153.838 387.839 166.714 371.284 173.71C354.729 180.706 336.17 181.327 319.185 175.453C302.199 169.58 287.988 157.628 279.29 141.9" stroke="black" stroke-width="3" stroke-miterlimit="10"/>
<path d="M325.16 36.0803C340.193 32.3087 356.037 33.4305 370.389 39.2826C384.74 45.1347 396.851 55.4121 404.96 68.6203" stroke="black" stroke-width="3" stroke-miterlimit="10"/>
<path d="M274.7 131.91C268.844 116.074 268.674 98.6949 274.22 82.7473C279.765 66.7998 290.682 53.2757 305.1 44.4902" stroke="black" stroke-width="3" stroke-miterlimit="10"/>
</g>
<path d="M346 22.31C347.94 22.5 356.35 21.31 362.18 28.8C367.7 35.91 370.18 57.92 371.45 62.7C372.72 67.48 379.04 68.03 380.68 73.57C382.09 78.33 378.68 80.19 378.38 83.72C378.17 86.46 381.04 90.49 378.65 94.6C376.49 98.33 372.48 97.66 370.1 98.88C367.72 100.1 366.38 105.71 361.97 107.34C357.56 108.97 353.5 105.01 351.14 105.1C348.78 105.19 346.14 112.52 338.43 112.1C330.72 111.68 328.29 105.21 325.07 104.01C321.85 102.81 313.91 105.25 310.15 101.37C306.39 97.49 305.62 92.19 303.92 90.28C302.22 88.37 298.79 88.77 296.62 84.28C294.45 79.79 298.62 76.82 299.07 72.88C299.41 70.13 296.91 67.68 298.5 63.46C300.7 57.64 307.76 58.68 310.28 52.71C312.28 48.02 316.06 27.78 328.08 22.49C336.39 18.85 346 22.31 346 22.31Z" fill="#263238"/>
<path d="M371.18 61.5508C371.673 62.5554 372.404 63.4241 373.31 64.0808L375.88 66.1808C377.637 67.4554 379.179 69.0014 380.45 70.7608C381.042 71.596 381.433 72.5572 381.591 73.5688C381.749 74.5804 381.67 75.6148 381.36 76.5908C380.993 77.5726 380.473 78.4905 379.82 79.3108C379.065 80.2149 378.449 81.2259 377.99 82.3108C377.733 83.5278 377.881 84.7953 378.41 85.9208C378.79 86.9908 379.22 87.9908 379.55 89.0208C379.949 89.9794 380.155 91.0074 380.155 92.0458C380.155 93.0841 379.949 94.1122 379.55 95.0708C379.139 95.9835 378.435 96.733 377.55 97.2008C376.588 97.645 375.549 97.8997 374.49 97.9508C373.41 98.0608 372.3 98.0508 371.19 98.1008C370.066 98.0498 368.952 98.3353 367.99 98.9208C368.99 98.4626 370.1 98.2962 371.19 98.4408C372.29 98.4408 373.39 98.5808 374.52 98.5708C375.675 98.5758 376.82 98.355 377.89 97.9208C378.999 97.4332 379.908 96.5834 380.47 95.5108C381.71 93.4008 381.41 90.7908 380.74 88.6708C380.41 87.5808 379.99 86.5408 379.64 85.5208C379.223 84.6395 379.1 83.6472 379.29 82.6908C379.9 80.9108 381.85 79.2808 382.54 76.9708C382.898 75.8321 382.975 74.624 382.767 73.4489C382.558 72.2738 382.068 71.1664 381.34 70.2208C379.928 68.4547 378.239 66.9284 376.34 65.7008L373.52 63.8508C372.579 63.2673 371.78 62.4816 371.18 61.5508Z" fill="#263238"/>
<path d="M317.15 34.1602C315.15 37.6002 313.93 41.4202 312.38 45.0302C311.6 46.8402 310.88 48.6802 309.98 50.4002C309.556 51.2401 309.047 52.0343 308.46 52.7702C308.339 52.9465 308.186 53.0991 308.01 53.2202C307.858 53.3682 307.682 53.4899 307.49 53.5802C307.08 53.8202 306.65 54.0202 306.21 54.2302C304.377 55.0234 302.588 55.9147 300.85 56.9002C299.008 57.9117 297.529 59.4749 296.62 61.3702C296.18 62.3442 295.997 63.4152 296.09 64.4802C296.234 65.5084 296.573 66.4996 297.09 67.4002C298.174 69.05 298.859 70.9297 299.09 72.8902C299.28 70.8902 298.42 68.8902 297.65 67.1402C297.232 66.2883 296.978 65.3657 296.9 64.4202C296.881 63.502 297.095 62.594 297.52 61.7802C298.433 60.1301 299.801 58.7766 301.46 57.8802C303.11 56.8802 304.94 56.2102 306.77 55.3702C307.22 55.1502 307.67 54.9202 308.12 54.6602C308.611 54.3799 309.043 54.0062 309.39 53.5602C310.032 52.745 310.579 51.8593 311.02 50.9202C311.888 49.1199 312.65 47.27 313.3 45.3802L315.19 39.7402C315.737 37.8445 316.392 35.9815 317.15 34.1602Z" fill="#263238"/>
<path d="M302 88.9805C302.87 90.0905 303 91.5705 303.38 92.9205C303.76 94.2705 304.05 95.6805 304.46 97.0505C304.848 98.4361 305.381 99.7768 306.05 101.05C306.731 102.416 307.737 103.594 308.98 104.48C311.72 106.13 314.91 105.84 317.67 105.26C319.07 104.96 320.44 104.59 321.81 104.33C323.168 103.963 324.596 103.928 325.97 104.23C324.623 103.688 323.158 103.509 321.72 103.71C320.29 103.86 318.9 104.12 317.51 104.3C314.78 104.67 311.86 104.79 309.66 103.42C308.583 102.636 307.705 101.608 307.1 100.42C306.425 99.2112 305.847 97.9506 305.37 96.6505C304.87 95.3405 304.43 94.0005 303.97 92.6505C303.72 91.9905 303.47 91.3205 303.19 90.6505C302.939 90.003 302.53 89.4288 302 88.9805Z" fill="#263238"/>
<path d="M316.17 100.85C293.51 126.51 266.17 179.38 272.35 189.44C279.26 200.65 310.8 164.69 310.56 162.7C310.38 161.2 320.42 129.46 328.09 106.35C335.76 83.2404 321.77 94.4704 316.17 100.85Z" fill="#AD6359"/>
<path d="M310.79 162.7C311.62 159.32 325.36 117.43 329.21 104.21C333.06 90.99 328.61 87.21 316.21 99.81C303.81 112.41 277.37 153.67 272 175.09C266.82 195.72 277.27 195.14 290.53 185.03C301.38 176.75 310.79 162.7 310.79 162.7Z" fill="#455A64"/>
<path opacity="0.1" d="M295.8 127.171L296.07 180.221C301.52 174.86 306.449 168.994 310.79 162.701C311.62 159.321 325.35 117.421 329.22 104.211C333.09 91.0008 328.6 87.2108 316.22 99.8008C311.01 105.081 303.33 115.391 295.8 127.171Z" fill="black"/>
<path d="M393.59 187.68L299.33 188.61L303.93 156.43C303.93 156.43 299.86 148.58 299.86 141.53C299.86 131.53 324.58 93.9695 326.45 92.2995C333.99 85.6095 347.71 85.0895 351.73 91.6495C370.1 121.65 375.96 140.17 380.62 161.18C386.398 169.223 390.783 178.182 393.59 187.68Z" fill="#455A64"/>
<path d="M333.22 151.899C328.583 151.79 323.946 152.081 319.36 152.769C317.07 153.139 314.81 153.639 312.55 154.189C311.42 154.469 310.29 154.699 309.15 154.929C307.977 155.2 306.772 155.307 305.57 155.249C305.46 155.249 305.44 155.419 305.57 155.439C306.678 155.646 307.802 155.763 308.93 155.789C310.032 155.773 311.131 155.676 312.22 155.499C314.54 155.139 316.85 154.659 319.17 154.269C323.86 153.499 328.53 152.719 333.24 152.339C333.43 152.319 333.44 151.899 333.22 151.899Z" fill="#263238"/>
<path d="M343.87 158.011C340.179 157.081 336.431 156.393 332.65 155.951C330.76 155.749 328.861 155.642 326.96 155.631C326.05 155.631 325.14 155.631 324.23 155.631C323.32 155.631 322.23 155.831 321.23 155.831C321.12 155.831 321.1 156.021 321.23 156.021C322.17 156.021 323.11 156.261 324.05 156.351C324.99 156.441 325.93 156.531 326.88 156.621C328.76 156.811 330.65 157.021 332.54 157.181C336.32 157.511 340.09 157.881 343.86 158.361C344.03 158.401 344.06 158.061 343.87 158.011Z" fill="#263238"/>
<path d="M329.93 114.229C329.93 114.229 348.01 99.0591 358.88 100.229L366 110.459C366 110.459 366.25 117.669 367.34 115.809C370.03 111.229 375.57 92.4691 366.25 84.2391C357.71 76.7091 338.99 76.6791 326.35 78.9891C314.22 81.2191 307.13 87.7191 310.19 95.7591C313.25 103.799 329.93 114.229 329.93 114.229Z" fill="#455A64"/>
<path d="M329.01 110.491C329.01 110.491 316.12 99.7108 315.15 93.8508C314.18 87.9908 326.15 83.3308 333.8 81.7408C345.62 79.2808 353.43 80.6208 359.44 87.2908C365.45 93.9608 329.01 110.491 329.01 110.491Z" fill="#37474F"/>
<path d="M344.97 96.5604C344.43 98.3204 335.06 109.33 326.91 108.36C324.26 108.04 325.35 93.4804 325.35 93.4804L325.19 92.3804L322.89 77.0804L341.4 66.9804L344.06 65.6504C344.06 65.6504 344.42 69.8804 344.8 75.1604L344.86 75.9104C344.86 76.2004 344.92 76.4904 344.93 76.7604C345 77.5504 345.07 78.3504 345.12 79.1604C345.12 79.7704 345.2 80.3604 345.22 81.0004C345.24 81.6404 345.22 82.2704 345.31 82.9104C345.505 87.4628 345.392 92.0233 344.97 96.5604Z" fill="#AD6359"/>
<path d="M344.8 75.1604C342.977 79.2818 340.278 82.957 336.892 85.9307C333.505 88.9043 329.512 91.1052 325.19 92.3804L322.89 77.0804L341.4 66.9804L344.06 65.6504C344.06 65.6504 344.42 69.8504 344.8 75.1604Z" fill="#263238"/>
<path d="M305.88 49.5306C297.88 75.5306 312.6 83.2106 318.2 84.9206C323.29 86.4706 340.81 91.1006 351.4 66.0806C361.99 41.0606 352.4 29.1506 340.98 24.9906C329.56 20.8306 313.83 23.5506 305.88 49.5306Z" fill="#AD6359"/>
<path d="M310.75 47.9206C311.378 48.0416 312.013 48.1284 312.65 48.1806C313.31 48.3678 314.014 48.3291 314.65 48.0706C314.832 47.9522 314.97 47.7779 315.044 47.5741C315.118 47.3703 315.124 47.148 315.06 46.9406C314.865 46.5483 314.568 46.2153 314.2 45.9762C313.833 45.7371 313.408 45.6005 312.97 45.5806C312.095 45.4071 311.187 45.5639 310.42 46.0206C310.252 46.1354 310.121 46.296 310.042 46.4832C309.963 46.6705 309.94 46.8765 309.975 47.0767C310.009 47.2769 310.101 47.4629 310.238 47.6125C310.376 47.7621 310.554 47.8691 310.75 47.9206Z" fill="#263238"/>
<path d="M329.28 50.3303C328.748 49.9762 328.234 49.5958 327.74 49.1903C327.15 48.7403 326.64 48.4503 326.39 47.7203C326.345 47.5079 326.37 47.2866 326.462 47.09C326.554 46.8934 326.708 46.732 326.9 46.6303C327.311 46.4872 327.753 46.4562 328.18 46.5406C328.607 46.6249 329.004 46.8216 329.33 47.1103C330.08 47.5965 330.622 48.3454 330.85 49.2103C330.893 49.4108 330.877 49.6196 330.803 49.8109C330.729 50.0022 330.6 50.1677 330.433 50.2868C330.266 50.4059 330.068 50.4735 329.863 50.4813C329.658 50.489 329.455 50.4365 329.28 50.3303Z" fill="#263238"/>
<path d="M323.84 56.1092C323.84 56.0492 323.96 56.2392 323.94 56.3092C323.44 58.1292 323.16 60.3092 324.68 61.3092C324.68 61.3092 324.68 61.4392 324.68 61.4092C322.68 60.6392 323.07 57.7592 323.84 56.1092Z" fill="#263238"/>
<path d="M325.95 54.5994C328.95 55.0894 327.75 61.0794 324.95 60.5994C322.15 60.1194 323.43 54.1794 325.95 54.5994Z" fill="#263238"/>
<path d="M327.059 55.1494C327.519 55.5994 327.91 56.2994 328.52 56.4894C329.13 56.6794 329.92 56.1894 330.52 55.6894C330.58 55.6394 330.62 55.6893 330.6 55.7793C330.39 56.9293 329.709 58.0094 328.439 57.9394C327.169 57.8694 326.689 56.6794 326.639 55.4694C326.589 55.2494 326.879 54.9694 327.059 55.1494Z" fill="#263238"/>
<path d="M313.47 53.0798C313.47 52.9998 313.31 53.1298 313.3 53.2098C312.96 55.0698 312.3 57.1498 310.45 57.3998C310.39 57.3998 310.38 57.4998 310.45 57.4998C312.59 57.6598 313.45 54.8998 313.47 53.0798Z" fill="#263238"/>
<path d="M312.24 50.7908C309.32 49.9208 307.79 55.7908 310.5 56.6408C313.21 57.4908 314.69 51.5208 312.24 50.7908Z" fill="#263238"/>
<path d="M310.91 50.8492C310.36 51.0392 309.75 51.4892 309.18 51.3892C308.61 51.2892 308.18 50.4992 307.96 49.7792C307.96 49.7092 307.87 49.7792 307.85 49.7792C307.53 50.8992 307.6 52.1792 308.63 52.6692C309.66 53.1592 310.54 52.3392 311.1 51.2892C311.21 51.1392 311.13 50.7792 310.91 50.8492Z" fill="#263238"/>
<path d="M322.59 73.0296C322.08 73.3996 321.54 73.9396 320.86 73.8896C320.163 73.7736 319.498 73.5112 318.91 73.1196C318.897 73.1149 318.884 73.114 318.871 73.1168C318.857 73.1197 318.845 73.1262 318.836 73.1357C318.826 73.1452 318.82 73.1572 318.817 73.1703C318.814 73.1834 318.815 73.197 318.82 73.2096C319.032 73.6167 319.351 73.9588 319.741 74.2C320.132 74.4411 320.581 74.5723 321.04 74.5796C321.438 74.539 321.814 74.3801 322.121 74.1235C322.427 73.8668 322.65 73.5241 322.76 73.1396C322.79 73.0296 322.65 72.9696 322.59 73.0296Z" fill="#263238"/>
<path d="M319.91 68.36C318.08 67.5212 316.129 66.9746 314.13 66.74C313.93 66.65 313.51 66.36 313.53 66.16L314.75 62.39C314.17 62.49 311.29 62.9 311.53 62.2C313.6 56.37 315.9 49.89 319.19 44.52C319.208 44.4789 319.242 44.4468 319.285 44.4309C319.327 44.415 319.374 44.4164 319.415 44.435C319.456 44.4536 319.488 44.4877 319.504 44.5299C319.52 44.5721 319.518 44.6189 319.5 44.66C317.74 50.34 314.98 55.66 313.12 61.35C314.151 61.2059 315.198 61.2059 316.23 61.35C316.41 61.46 314.97 65.06 314.86 65.69C314.86 65.69 318.45 65.8 320.44 68.32C321.03 69.01 320.8 68.85 319.91 68.36Z" fill="#263238"/>
<path d="M317.04 66.1507C318.53 66.4307 321.49 68.4607 321.96 70.9807C322.36 73.1907 318.69 70.3907 317.96 70.4407C317.23 70.4907 315.59 65.8507 317.04 66.1507Z" fill="#263238"/>
<path d="M321.43 71.8493C321.318 71.8512 321.207 71.8343 321.1 71.7992C320.1 71.5592 318.61 70.5793 318.02 70.4793H317.92C317.83 70.4793 317.73 70.4193 317.62 70.2893C318.03 69.2893 319.23 68.4893 321.07 69.0593C321.2 69.2393 321.32 69.4393 321.44 69.6293L321.57 69.8892C321.639 70.0169 321.696 70.1508 321.74 70.2893C321.786 70.3858 321.822 70.4862 321.85 70.5893C321.85 70.7393 321.93 70.8792 321.96 71.0292C322.08 71.6292 321.85 71.8493 321.43 71.8493Z" fill="#FF9ABB"/>
<path d="M330.68 26.0997C330.68 26.0997 328.47 29.8297 329.02 33.0997C330.15 39.8997 337.78 40.3697 339.56 43.4397C341.22 46.3097 339.1 50.6797 340.56 53.4397C342.56 57.3297 346.82 57.2597 346.71 59.4397C346.6 61.6197 346.07 68.6097 348.46 70.1997C350.85 71.7897 375.46 31.4397 340.73 23.0197C340.73 23.0197 336.57 19.7497 328.22 21.3597C318.99 23.1397 311.68 35.4497 311.68 35.4497C311.68 35.4497 311.9 35.3197 313.37 34.6197C315.45 33.6197 316.47 32.4497 317.96 31.8397C320.29 30.8897 321.17 31.7597 323.57 30.8397C326.209 29.7065 328.619 28.1001 330.68 26.0997Z" fill="#263238"/>
<path d="M331.75 24.3496C330.72 25.9115 329.877 27.5898 329.24 29.3496C328.516 31.0267 328.261 32.8687 328.5 34.6796C328.997 36.3951 330.094 37.8749 331.59 38.8496C333.05 39.9196 334.8 40.5996 336.35 41.8496C337.16 42.4643 337.783 43.2917 338.15 44.2396C338.429 45.1897 338.514 46.1861 338.4 47.1696C338.26 49.0396 338.13 50.8896 338.94 52.4896C339.332 53.2888 339.892 53.9935 340.583 54.5546C341.274 55.1158 342.078 55.5201 342.94 55.7396C344.67 56.2296 346.72 56.2896 348.18 57.5296C346.62 56.4096 344.68 56.5296 342.83 56.1596C341.876 55.9625 340.977 55.5598 340.195 54.9795C339.412 54.3992 338.766 53.6553 338.3 52.7996C337.3 51.0396 337.46 48.9396 337.56 47.1296C337.656 46.2523 337.575 45.3647 337.32 44.5196C336.993 43.7231 336.453 43.0314 335.76 42.5196C334.38 41.3996 332.61 40.6696 331.07 39.5196C330.288 38.9587 329.594 38.2847 329.01 37.5196C328.393 36.7376 327.984 35.8122 327.82 34.8296C327.632 32.9033 327.978 30.9623 328.82 29.2196C329.603 27.4872 330.586 25.8526 331.75 24.3496Z" fill="#263238"/>
<path d="M330.64 25.7305C329.836 27.2821 328.827 28.7183 327.64 30.0005C326.44 31.3812 324.856 32.3734 323.09 32.8505C322.223 33.0186 321.343 33.1024 320.46 33.1005C319.672 33.128 318.907 33.3738 318.25 33.8105C317.612 34.4151 316.915 34.9544 316.17 35.4205C315.386 35.8347 314.516 36.0606 313.63 36.0805C314.461 35.9023 315.249 35.5625 315.95 35.0805C316.623 34.5561 317.246 33.9703 317.81 33.3305C318.542 32.7314 319.445 32.3812 320.39 32.3305C321.23 32.3132 322.067 32.2194 322.89 32.0505C324.49 31.6063 325.947 30.7554 327.12 29.5805C328.377 28.3765 329.553 27.0903 330.64 25.7305Z" fill="#263238"/>
<path d="M345.36 65.0794C345.36 65.0794 352.93 58.0194 356.25 60.8894C359.57 63.7594 352.64 74.8894 347.87 75.5594C347.264 75.6912 346.638 75.6989 346.029 75.5821C345.42 75.4653 344.841 75.2263 344.327 74.8796C343.813 74.5329 343.375 74.0856 343.039 73.5648C342.702 73.044 342.475 72.4605 342.37 71.8494L345.36 65.0794Z" fill="#AD6359"/>
<path d="M354.18 64.0193C354.195 64.0193 354.211 64.0256 354.222 64.0369C354.233 64.0481 354.24 64.0634 354.24 64.0793C354.24 64.0952 354.233 64.1105 354.222 64.1217C354.211 64.133 354.195 64.1393 354.18 64.1393C350.82 64.7393 348.57 67.2593 346.79 69.9993C347.96 68.9993 349.35 68.6893 350.65 70.1093C350.72 70.1893 350.65 70.2993 350.53 70.2593C350.022 69.9704 349.437 69.8452 348.856 69.9006C348.274 69.9561 347.724 70.1896 347.28 70.5693C346.539 71.2135 345.869 71.9341 345.28 72.7193C345.08 72.9693 344.61 72.7193 344.78 72.4193C344.783 72.3961 344.783 72.3725 344.78 72.3493C345.59 68.3893 349.86 63.5093 354.18 64.0193Z" fill="#263238"/>
<path d="M329.01 110.49C329.01 110.49 344.25 88.6905 361.26 87.7305L358.88 100.27C358.88 100.27 348.88 99.5305 329.93 114.27L329.01 110.49Z" fill="#455A64"/>
<path d="M363.4 100.85C360.355 100.366 357.241 100.543 354.27 101.37C351.296 102.114 348.417 103.198 345.69 104.6C342.947 105.966 340.298 107.513 337.76 109.23L334.01 111.91L330.39 114.77L329.98 115.09L329.59 114.85C326.566 112.994 323.672 110.932 320.93 108.68C319.551 107.568 318.236 106.38 316.99 105.12C315.74 103.866 314.612 102.497 313.62 101.03C315.987 103.617 318.633 105.935 321.51 107.94C322.92 108.94 324.37 109.94 325.85 110.88C327.33 111.82 328.85 112.77 330.31 113.62L329.49 113.69L333.13 110.74C334.38 109.8 335.66 108.89 336.94 107.98C338.22 107.07 339.58 106.3 340.94 105.52C342.3 104.74 343.69 104 345.14 103.39C348.007 102.059 351.031 101.098 354.14 100.53C354.91 100.38 355.7 100.3 356.48 100.21C357.26 100.12 358.05 100.11 358.83 100.14C360.383 100.115 361.928 100.355 363.4 100.85Z" fill="#263238"/>
<path d="M366.3 112.239C363.471 108.613 361.103 104.649 359.25 100.439C362.073 104.07 364.441 108.033 366.3 112.239Z" fill="#263238"/>
<path d="M336.52 105.619C337.592 110.89 338.204 116.243 338.35 121.619C338.48 125.359 337.23 138.799 333.07 138.379C328.91 137.959 335.55 129.199 336.64 122.099C337.73 114.999 335.77 109.849 335.46 105.609L336.52 105.619Z" fill="#263238"/>
<path d="M321.31 104.971C319.934 109.638 318.964 114.416 318.41 119.251C318 122.621 318.09 134.861 321.88 134.801C325.67 134.741 320.35 126.311 319.88 119.801C319.41 113.291 321.62 108.801 322.24 105.001L321.31 104.971Z" fill="#263238"/>
<path d="M274.39 189.171C282.39 194.701 293.46 193.841 331.59 187.521C336.86 186.651 344.84 148.441 339.18 147.671C331.63 146.671 302.77 151.841 300.8 152.441C284.14 157.491 268.94 185.421 274.39 189.171Z" fill="#AD6359"/>
<path d="M334.31 147.679C334.31 147.679 351.31 147.279 360.24 149.819C372.24 153.229 381.24 161.119 384.78 164.649C392.21 172.029 405.07 194.989 399.11 199.849C393.7 204.249 381.74 180.109 381.74 180.109C381.74 180.109 398 202.709 390.52 206.809C383.04 210.909 370.75 182.099 370.75 182.099C370.75 182.099 386.93 205.689 378.55 208.699C372.22 210.969 359.61 185.499 359.61 185.499C359.61 185.499 373.38 205.879 366.97 208.499C359.88 211.389 346.77 188.609 346.77 188.609C329.35 192.529 319.46 187.259 312.86 182.679C311.27 181.569 334.31 147.679 334.31 147.679Z" fill="#AD6359"/>
<path d="M376.59 171.93C378.59 174.52 380.64 177.12 382.41 179.88C384.18 182.64 385.85 185.45 387.36 188.36C389.397 192.123 391.001 196.105 392.14 200.23C389.59 193.05 383.41 183.09 381.64 180.34C379.87 177.59 378.24 174.75 376.48 172C376.46 171.93 376.59 171.85 376.59 171.93Z" fill="#263238"/>
<path d="M366.59 178.14C369.01 181.55 371.54 184.85 373.81 188.37C376.08 191.89 377.9 195.37 379.91 199.05C380.06 199.33 379.91 199.32 379.69 199.05C377.54 195.49 375.27 192.35 373.08 188.81C370.89 185.27 368.82 181.65 366.51 178.2C366.43 178.14 366.52 178.09 366.59 178.14Z" fill="#263238"/>
<path d="M356.96 181.92C360.96 186.92 363.96 192.689 366.79 198.399C366.93 198.689 366.67 198.649 366.51 198.399C363.34 192.849 360.9 188.48 356.78 182.08C356.72 181.95 356.87 181.85 356.96 181.92Z" fill="#263238"/>
<path d="M333.16 145.66L314.78 192.48C314.78 192.48 280.61 197.02 272.96 190.69C267.96 186.51 283.62 156.2 302.45 152.03L333.16 145.66Z" fill="#455A64"/>
<path d="M304.1 189.849C305.83 184.659 307.83 179.559 309.85 174.459C311.87 169.359 313.85 164.259 316.01 159.209C317.22 156.359 318.42 153.499 319.73 150.689C319.73 150.619 319.89 150.689 319.87 150.689C318.15 155.879 316.16 160.989 314.19 166.089C312.22 171.189 310.19 176.299 308.08 181.369C306.9 184.229 305.68 187.079 304.37 189.889C304.3 190.089 304.05 190.019 304.1 189.849Z" fill="#263238"/>
<path d="M332.64 147.001L333.56 145.481L333.67 145.311C329.2 145.781 324.75 146.381 320.32 147.141C312.72 148.531 304.96 149.861 297.77 152.821C292.737 155.27 288.355 158.874 284.98 163.341C288.751 159.37 293.254 156.164 298.24 153.901C301.311 152.759 304.454 151.827 307.65 151.111C315.07 149.291 325.89 147.111 333.48 145.541L333.37 145.381L332.64 147.001Z" fill="#263238"/>
<path d="M364.33 131.38C364.33 131.38 362.33 102.8 361.93 87.7102C361.53 72.6202 369.1 70.4602 377.76 82.7802C386.42 95.1002 400.64 108.93 402.22 137.29C406.3 210.74 364.33 131.38 364.33 131.38Z" fill="#DBDBDB"/>
<path d="M343.32 43.7507L327.21 83.7507C326.6 84.9107 327.07 85.9807 328.27 86.1407L346.27 92.7807C346.93 92.821 347.587 92.6733 348.166 92.3546C348.745 92.036 349.222 91.5596 349.54 90.9807L365.65 50.9807C365.813 50.7683 365.915 50.5161 365.946 50.2506C365.978 49.985 365.937 49.7159 365.829 49.4715C365.72 49.2271 365.548 49.0163 365.33 48.8614C365.112 48.7064 364.857 48.6129 364.59 48.5907L346.59 41.9607C345.931 41.917 345.274 42.0623 344.694 42.3793C344.115 42.6964 343.638 43.1721 343.32 43.7507Z" fill="#A6A6A6"/>
<path d="M344.87 44.2293L328.76 84.2293C328.597 84.4417 328.495 84.6938 328.463 84.9594C328.432 85.2249 328.473 85.494 328.581 85.7385C328.689 85.9829 328.862 86.1937 329.08 86.3486C329.297 86.5036 329.553 86.5971 329.82 86.6193L347.82 93.2593C348.479 93.2984 349.136 93.1501 349.715 92.8316C350.293 92.513 350.77 92.0373 351.09 91.4593L367.2 51.4593C367.359 51.2459 367.458 50.9941 367.488 50.7297C367.517 50.4652 367.476 50.1976 367.368 49.9543C367.26 49.7111 367.09 49.5009 366.874 49.3453C366.658 49.1898 366.404 49.0945 366.14 49.0693L348.14 42.4392C347.481 42.3956 346.823 42.5408 346.244 42.8578C345.665 43.1749 345.188 43.6507 344.87 44.2293Z" fill="#DBDBDB"/>
<path d="M350.47 46.9292C350.413 47.2862 350.25 47.6181 350.004 47.883C349.758 48.1478 349.438 48.3337 349.086 48.4172C348.735 48.5007 348.366 48.4781 348.027 48.3521C347.688 48.2262 347.394 48.0026 347.182 47.7096C346.969 47.4167 346.849 47.0674 346.835 46.706C346.822 46.3446 346.915 45.9872 347.105 45.679C347.294 45.3708 347.57 45.1256 347.899 44.9743C348.227 44.8231 348.593 44.7726 348.95 44.8292C349.188 44.8669 349.416 44.9512 349.622 45.0772C349.827 45.2032 350.005 45.3686 350.146 45.5637C350.288 45.7587 350.389 45.9798 350.444 46.2141C350.5 46.4485 350.509 46.6915 350.47 46.9292Z" fill="#263238"/>
<path d="M377.3 168.21C384.67 179.4 400.85 171.21 402.65 162.72C406.89 142.82 400.35 110.95 395.21 93.2896C393.56 87.5996 354.76 96.8096 355.55 103.09C356.49 110.63 362.85 146.28 377.3 168.21Z" fill="#AD6359"/>
<path d="M393.16 106.15C395.511 98.0349 396.087 89.5084 394.85 81.1504C393.35 72.0304 387.85 52.5504 362.16 42.5704C356.06 40.2104 345.69 41.1604 354.25 48.6404C360.33 53.9604 365.79 55.4904 368.76 59.2304C368.76 59.2304 355.76 62.0104 353.58 68.2304C351.718 73.659 350.245 79.213 349.17 84.8504C350.145 85.2808 351.147 85.6482 352.17 85.9504C351.69 91.8708 352.874 97.8076 355.59 103.09L393.16 106.15Z" fill="#AD6359"/>
<path d="M392.03 72.6805C388.29 69.6005 380.27 63.1905 371.88 60.2405C362.56 56.9605 343.73 53.1405 341.38 60.0505C339.66 65.1105 346.72 67.2005 346.72 67.2005C346.72 67.2005 338.6 67.2605 338.05 72.2005C337.54 76.6805 343.05 77.9704 343.05 77.9704C343.05 77.9704 338.13 78.8505 338.47 83.2605C338.88 88.5605 349.12 85.8305 354.17 90.8405C355.36 91.9405 392.03 72.6805 392.03 72.6805Z" fill="#AD6359"/>
<path d="M370.05 70.6601C366.05 68.3401 355.65 65.3801 346.87 67.0601C346.67 67.0601 346.59 67.2701 346.78 67.2701C354.639 67.484 362.443 68.6526 370.02 70.7501L370.05 70.6601Z" fill="#263238"/>
<path d="M366.47 79.9691C362.82 78.3191 351.95 75.7491 343.11 77.7591C342.91 77.7591 342.85 77.9791 343.04 77.9691C350.894 77.7797 358.744 78.4808 366.44 80.0591L366.47 79.9691Z" fill="#263238"/>
<path d="M376.97 171.1C384.9 182.03 401.82 173.67 403.9 165.1C408.78 144.89 402.48 112.78 397.39 95.0195L353.93 107.28C354.78 114.85 361.9 150.36 376.97 171.1Z" fill="#455A64"/>
<path d="M356.07 106.629L353.94 107.289V107.229C355.32 114.179 357 121.079 358.94 127.899C362.82 141.169 370.38 166.439 382.01 174.189C383.468 175.12 385.106 175.732 386.818 175.985C388.529 176.239 390.274 176.128 391.94 175.659C390.272 176.431 388.447 176.806 386.61 176.754C384.772 176.702 382.972 176.225 381.35 175.359C368.21 168.279 361.64 141.979 357.93 128.159C356.28 121.219 354.84 114.239 353.84 107.159H353.89L356.05 106.609L356.07 106.629Z" fill="#263238"/>
<path d="M378 113.37C374.8 114.37 362.15 118.37 359.15 119.78C359.07 119.78 359.15 120 359.23 119.98C362.51 119.48 375.34 115.78 378.53 114.8C384.971 112.991 391.313 110.848 397.53 108.38C397.65 108.38 397.6 108.07 397.46 108.1C390.885 109.511 384.389 111.27 378 113.37Z" fill="#263238"/>
<path d="M170.33 259.85C214.33 301.45 254.75 346.85 256.83 369.85C259.71 401.67 244.36 410.96 235.46 410.94C211.22 410.85 167.59 313.06 154.31 276C141.44 240.02 160.66 250.69 170.33 259.85Z" fill="#FFC727"/>
<path opacity="0.1" d="M227.59 408.11C202.73 391.77 166.24 309.32 154.33 276.01C150.33 264.96 149.44 258.3 150.33 254.66L227.59 408.11Z" fill="black"/>
<path d="M35.0999 438.85H202.4C204.75 436.36 174.52 287.35 164.51 259.07C158.05 240.83 128.39 236.55 114.72 250.47C61.4999 304.66 33.6899 437.11 35.0999 438.85Z" fill="#FFC727"/>
<path d="M223.1 405.641C209.66 395.461 216.34 363.741 223.91 311.581C225.24 302.421 286.91 279.761 288.17 289.581C289.78 301.941 280.01 360.161 274.42 374.371C263.38 402.361 238.79 417.541 223.1 405.641Z" fill="#EB9481"/>
<path d="M277.59 339.27C289.59 326.64 305.24 307.85 305.31 299.85C305.38 291.51 304.45 262.18 302.04 255.43C299.63 248.68 286.64 231.26 280.67 228.95C275.88 227.09 273.29 233.01 278.82 243.8C285 255.86 283.08 260.7 283.36 264.56C283.64 268.42 276.88 285.56 271.25 286.96C267.94 287.79 261.06 287.73 259.52 281.75C257.98 275.77 259.58 270.36 257.3 259.93C255.52 251.82 248.76 246.75 245.97 248.16C243.18 249.57 245.46 254.43 243.58 266.57C242.4 274.14 241.26 279.57 232.19 290.57C224.19 300.23 223.7 313.64 223.7 313.64L277.59 339.27Z" fill="#EB9481"/>
<path d="M305.93 281.171C305.62 276.601 308.79 262.761 307.74 256.721C306.69 250.681 299.68 228.441 292.93 226.611C284.45 224.301 286.93 242.371 288.69 250.121C290.45 257.871 285.45 271.851 285.45 271.851L297.12 276.851L305.93 281.171Z" fill="#EB9481"/>
<path d="M283.74 274.989C285.84 267.989 288.46 260.839 288.58 253.459C288.24 248.179 287.2 242.969 286.98 237.639C286.92 234.489 286.74 231.029 288.36 228.179C288.635 227.711 289.012 227.312 289.465 227.012C289.917 226.712 290.432 226.52 290.97 226.449C290.462 226.566 289.985 226.794 289.574 227.115C289.163 227.436 288.827 227.844 288.59 228.309C287.25 231.189 287.59 234.499 287.74 237.589C288.09 241.799 288.74 245.989 289.29 250.219C290.35 258.799 286.84 267.169 283.74 274.989Z" fill="#263238"/>
<path d="M305.52 285.15C306.52 280.7 313.33 268.43 314 262.37C314.67 256.31 314.17 233.08 308.26 229.37C300.84 224.7 298.17 242.64 297.72 250.54C297.27 258.44 288.64 270.29 288.64 270.29L298.35 278.45L305.52 285.15Z" fill="#EB9481"/>
<path d="M286.14 272.851C290.08 266.761 294.55 260.701 296.7 253.701C297.83 248.581 298.28 243.341 299.54 238.201C300.36 235.201 301.14 231.841 303.47 229.581C303.862 229.203 304.339 228.924 304.861 228.767C305.382 228.611 305.934 228.581 306.47 228.681C305.953 228.644 305.434 228.723 304.952 228.911C304.469 229.1 304.035 229.394 303.68 229.771C301.62 232.131 301 235.371 300.32 238.371C299.49 242.471 298.97 246.641 298.32 250.811C296.97 259.281 291.32 266.271 286.18 272.811L286.14 272.851Z" fill="#263238"/>
<path d="M287.69 283.551C283.62 287.051 278.19 288.551 273.01 289.611C271.246 289.902 269.466 290.085 267.68 290.161C262.406 290.328 257.23 291.624 252.5 293.961C250.917 294.746 249.378 295.618 247.89 296.571C253.48 292.034 260.395 289.44 267.59 289.181C274.53 288.701 281.74 287.371 287.67 283.551H287.69Z" fill="#263238"/>
<path d="M303.51 305.38C305.42 301.38 311.92 285.53 312.31 278.82C312.7 272.11 310.8 246.53 304 242.65C295.46 237.78 293.53 257.65 293.48 266.38C293.43 275.11 285.62 284.38 285.62 284.38L298.07 295.48L303.51 305.38Z" fill="#EB9481"/>
<path d="M294.66 252.7C294.8 255.58 294.66 258.54 294.49 261.41C294.488 264.168 294.284 266.922 293.88 269.65C293.269 272.296 292.218 274.821 290.77 277.12C290.09 278.27 289.34 279.36 288.56 280.45C287.78 281.54 286.73 282.73 285.9 283.93C285.81 284.05 285.6 283.93 285.69 283.8C287.118 281.554 288.395 279.216 289.51 276.8C290.721 274.32 291.622 271.7 292.19 269C293.3 263.62 293.19 258.05 294.28 252.67C294.32 252.43 294.65 252.5 294.66 252.7Z" fill="#263238"/>
<path d="M293.88 269.65C293.88 261.31 292.88 252.34 296.66 244.65C298.93 240.4 303.55 240.59 306.04 244.54C309.94 250.75 310.89 258.28 311.64 265.41C310.45 259.26 308.44 246.13 302.85 242.82C293.47 239.74 294.49 264.15 293.85 269.69L293.88 269.65Z" fill="#263238"/>
<path d="M287.82 331.6L216.41 340.52C216.41 340.52 205.61 400.02 226.81 408.22C248.01 416.42 265.55 398.38 274.42 374.36C279.625 360.348 284.097 346.076 287.82 331.6Z" fill="#FFC727"/>
<path d="M213.96 380.45C213.69 373.77 213.74 367.08 213.96 360.4C214.18 353.72 214.4 346.93 216.27 340.48V340.41H216.34L220.05 339.73L216.4 340.66L216.49 340.58C215.02 347.05 215.05 353.82 214.65 360.44C214.47 365.44 214.1 375.44 213.92 380.44L213.96 380.45Z" fill="#263238"/>
<path d="M220.99 357.07C230.99 355.26 258.21 351.21 276.27 351.07C276.38 351.07 276.44 351.52 276.33 351.54C261.33 354.09 231.19 356.87 221.08 357.73C220.89 357.74 220.81 357.1 220.99 357.07Z" fill="#263238"/>
<path d="M93.1903 370.759C94.5003 364.899 116.53 292.249 122.66 269.349C128.17 248.779 123.81 240.859 108.14 254.559C79.3003 279.779 24.1403 354.499 15.6803 391.559C7.57034 427.279 36.6803 427.889 59.1503 409.959C77.5303 395.309 93.1903 370.759 93.1903 370.759Z" fill="#FFC727"/>
<path d="M90.3896 380.139C97.0563 352.553 105.056 325.323 114.39 298.449C107.723 326.049 99.723 353.279 90.3896 380.139Z" fill="#263238"/>
<path d="M110 314.34C111.269 310.812 113.063 307.494 115.32 304.5C114.28 308.126 112.464 311.484 110 314.34Z" fill="#263238"/>
<path d="M26.4198 415.449C38.2198 426.649 63.5898 424.059 128.07 423.549C136.99 423.479 153.43 360.369 143.9 359.959C131.9 359.439 85.1898 359.959 81.7698 360.489C53.0098 364.479 18.4198 407.849 26.4198 415.449Z" fill="#EB9481"/>
<path d="M134.05 362.72C134.05 362.72 157.88 354.27 171.78 353.72C190.39 352.97 206.78 359.98 213.46 363.33C227.46 370.33 256.33 396.89 250.13 406.56C244.52 415.3 216.34 386.65 216.34 386.65C216.34 386.65 249.89 411.12 241.2 420.41C232.51 429.7 201.68 394.58 201.68 394.58C201.68 394.58 235.59 420.49 225.11 428.66C217.19 434.82 187.49 404.59 187.49 404.59C187.49 404.59 216.49 427.06 208.61 433.76C199.91 441.15 170.74 414.96 170.74 414.96C147.86 428.61 131.39 425.75 119.92 422.32C117.14 421.47 134.05 362.72 134.05 362.72Z" fill="#EB9481"/>
<path d="M205.27 377.43C209.32 380.16 213.43 382.9 217.22 385.98C221.01 389.06 224.69 392.28 228.22 395.7C236.76 404.09 240.8 410.7 240.51 410.3C233.56 401.3 220.17 390.07 216.38 386.99C212.59 383.91 208.97 380.64 205.19 377.57C205.06 377.49 205.18 377.36 205.27 377.43Z" fill="#263238"/>
<path d="M193.9 390.9C198.9 394.61 204.03 398.12 208.9 402.05C213.77 405.98 217.96 410.05 222.51 414.34C222.86 414.67 222.57 414.75 222.2 414.43C217.49 410.38 212.82 407 208.07 403C203.32 399 198.7 394.82 193.82 391C193.72 390.96 193.82 390.85 193.9 390.9Z" fill="#263238"/>
<path d="M182.05 400.711C190.05 405.991 196.98 412.711 203.65 419.511C203.99 419.851 203.6 419.911 203.24 419.591C196.18 413.201 190.68 408.151 181.87 400.991C181.73 400.851 181.88 400.601 182.05 400.711Z" fill="#263238"/>
<path d="M131.99 353.07L91.0797 438.32C91.0797 438.32 26.8297 428.62 18.2997 415.96C12.1997 406.91 48.8797 365.68 80.5897 360.23L131.99 353.07Z" fill="#FFC727"/>
<path d="M45.4998 379.92C49.2598 374.81 62.3398 363.59 80.6198 360.17C80.7798 360.17 80.8598 360.39 80.6998 360.43C67.3298 364.3 49.6998 375.49 45.6998 380.1C45.5898 380.22 45.3998 380.05 45.4998 379.92Z" fill="#263238"/>
<path d="M80.4003 423.539C83.6903 415.019 87.4003 406.679 91.2003 398.349C95.0003 390.019 98.7303 381.669 102.71 373.429C104.95 368.779 107.17 364.099 109.58 359.529C109.65 359.409 109.86 359.529 109.81 359.609C106.53 368.119 102.81 376.489 99.1103 384.829C95.4103 393.169 91.5903 401.519 87.7103 409.829C85.5103 414.519 83.2403 419.159 80.8303 423.739C80.7103 423.929 80.3003 423.789 80.4003 423.539Z" fill="#263238"/>
<path d="M131.84 352.279C128.284 352.342 124.735 352.646 121.22 353.189C117.693 353.629 114.167 354.123 110.64 354.669C103.64 355.729 88.6901 357.179 76.4101 361.149C76.2701 361.149 77.1801 361.629 77.3101 361.579C83.0601 359.389 127.68 354.309 131.2 353.459C131.132 353.729 131.086 354.003 131.06 354.279C131.06 354.469 131.28 354.629 131.42 354.449C131.76 354.029 131.95 353.559 132.26 353.119C132.321 353.042 132.358 352.949 132.368 352.851C132.378 352.753 132.359 352.655 132.315 352.567C132.271 352.479 132.203 352.405 132.119 352.354C132.035 352.303 131.938 352.277 131.84 352.279Z" fill="#263238"/>
<path d="M98.2997 423.91C96.1297 429.02 93.8297 434.06 91.4997 439.09C86.2997 438.29 81.1297 437.36 75.9697 436.36C61.1897 433.36 45.9697 430.07 31.9697 424.29C36.8497 425.71 41.7697 426.85 46.6997 427.99C56.5897 430.32 80.9497 435.41 91.2197 437.63L90.4697 438C93.0097 433.27 95.5997 428.56 98.3097 423.91H98.2997Z" fill="#263238"/>
<path d="M152.96 278.929C144.43 278.359 125.96 263.499 123.82 250.389C123.68 249.489 127.61 241.949 131.96 232.549C134.58 226.839 137.35 220.419 139.47 214.369C139.89 213.129 174.15 236.829 174.15 236.829C174.15 236.829 166 248.189 162.38 258.749C162.103 259.587 161.899 260.447 161.77 261.319C161.77 261.439 161.77 261.589 161.69 261.749C160.81 266.729 162.08 279.529 152.96 278.929Z" fill="#EB9481"/>
<path d="M161.79 261.32C161.79 261.45 161.73 261.6 161.68 261.75C160.337 261.465 159.017 261.081 157.73 260.6C135.59 252.31 139.46 222.33 140.8 214.85C147.2 218.17 174.15 236.85 174.15 236.85C174.15 236.85 165.99 248.23 162.37 258.79C162.099 259.613 161.905 260.46 161.79 261.32Z" fill="#263238"/>
<path d="M177.49 202.55C176.95 212.83 183.82 221.55 192.83 222.02C201.84 222.49 209.59 214.55 210.13 204.27C210.67 193.99 203.81 185.27 194.79 184.81C185.77 184.35 178.03 192.28 177.49 202.55Z" fill="#455A64"/>
<path d="M172.17 202.921C171.56 214.351 179.17 224.051 189.23 224.581C199.29 225.111 207.88 216.261 208.48 204.831C209.08 193.401 201.48 183.711 191.41 183.181C181.34 182.651 172.77 191.491 172.17 202.921Z" fill="#C7C7C7"/>
<path d="M193.07 163.971C193.07 163.971 205.23 171.351 205.25 184.241C205.27 197.131 199.73 209.671 198.45 210.111C197.17 210.551 193.07 163.971 193.07 163.971Z" fill="#263238"/>
<path d="M137.59 169.37C130.8 182.61 130.94 224.42 139.29 235.23C151.39 250.91 174.82 256.4 189.05 241.03C202.85 226.12 201.7 171.64 192.05 161.44C177.82 146.42 147.59 149.85 137.59 169.37Z" fill="#EB9481"/>
<path d="M173.48 202.289C173.48 202.189 173.25 202.429 173.26 202.539C173.34 205.359 172.97 208.599 170.42 209.539C170.34 209.539 170.35 209.709 170.42 209.699C173.59 209.249 174.01 204.949 173.48 202.289Z" fill="#263238"/>
<path d="M170.96 199.35C166.44 199 166.07 208.08 170.26 208.41C174.45 208.74 174.76 199.64 170.96 199.35Z" fill="#263238"/>
<path d="M189.01 202.85C189.01 202.74 189.23 202.99 189.22 203.11C189.01 205.92 189.22 209.17 191.76 210.21C191.84 210.21 191.83 210.38 191.76 210.36C188.64 209.85 188.37 205.48 189.01 202.85Z" fill="#263238"/>
<path d="M191.64 200.01C196.18 199.85 196.17 208.94 191.96 209.09C187.75 209.24 187.84 200.15 191.64 200.01Z" fill="#263238"/>
<path d="M167.59 195.051C168.798 194.748 169.99 194.384 171.16 193.961C172.52 193.521 173.65 193.311 174.58 192.141C174.807 191.784 174.909 191.361 174.871 190.94C174.833 190.519 174.657 190.122 174.37 189.811C173.05 188.541 171.25 188.661 169.59 189.121C167.896 189.524 166.413 190.543 165.43 191.981C165.224 192.321 165.122 192.715 165.136 193.112C165.15 193.51 165.279 193.895 165.508 194.221C165.737 194.547 166.056 194.798 166.426 194.946C166.796 195.093 167.2 195.13 167.59 195.051Z" fill="#263238"/>
<path d="M195.34 195.58C194.132 195.28 192.941 194.92 191.77 194.5C190.4 194.07 189.27 193.87 188.34 192.7C188.111 192.342 188.007 191.919 188.043 191.496C188.079 191.073 188.254 190.673 188.54 190.36C189.85 189.09 191.66 189.21 193.32 189.66C195.016 190.058 196.503 191.074 197.49 192.51C197.695 192.85 197.797 193.242 197.783 193.638C197.77 194.035 197.641 194.419 197.413 194.744C197.186 195.069 196.869 195.321 196.501 195.469C196.133 195.618 195.729 195.656 195.34 195.58Z" fill="#263238"/>
<path d="M168.95 228.671C169.6 229.351 170.24 230.291 171.25 230.411C172.299 230.438 173.343 230.24 174.31 229.831C174.329 229.826 174.349 229.827 174.368 229.833C174.387 229.84 174.404 229.852 174.416 229.868C174.427 229.884 174.434 229.904 174.435 229.924C174.436 229.944 174.43 229.964 174.42 229.981C173.995 230.517 173.434 230.928 172.795 231.171C172.156 231.414 171.463 231.48 170.79 231.361C170.222 231.188 169.719 230.85 169.343 230.391C168.968 229.931 168.737 229.371 168.68 228.781C168.64 228.621 168.86 228.571 168.95 228.671Z" fill="#263238"/>
<path d="M172.38 219.429C173.049 220.572 173.947 221.565 175.017 222.344C176.088 223.124 177.307 223.673 178.6 223.959C179.727 224.221 180.886 224.319 182.04 224.249C182.26 224.275 182.481 224.275 182.7 224.249C182.908 224.24 183.116 224.217 183.32 224.179C183.471 224.158 183.611 224.088 183.717 223.98C183.824 223.871 183.892 223.73 183.91 223.579C183.926 223.483 183.926 223.385 183.91 223.289V223.019C184.06 220.859 183.98 217.549 183.98 217.549C184.76 217.979 188.72 219.959 188.7 218.829C188.53 209.429 188.33 198.989 186.16 189.679C186.144 189.62 186.108 189.569 186.057 189.534C186.007 189.499 185.945 189.484 185.884 189.49C185.823 189.496 185.766 189.523 185.724 189.567C185.681 189.611 185.655 189.668 185.65 189.729C185.46 198.729 186.87 207.729 186.83 216.849C185.56 216.309 183.49 215.319 182.36 215.289C182.05 215.369 182.62 221.669 182.48 222.639C182.485 222.672 182.485 222.706 182.48 222.739C178.82 223.059 176.12 221.849 172.68 219.259C172.45 219.019 172.22 219.199 172.38 219.429Z" fill="#263238"/>
<path d="M180.59 222.96C179.429 224.372 177.924 225.464 176.22 226.13C175.28 226.46 174.26 226.492 173.3 226.22C171.21 225.6 171.22 223.66 171.66 222.02C171.895 221.15 172.23 220.311 172.66 219.52C174.866 221.488 177.646 222.694 180.59 222.96Z" fill="#263238"/>
<path d="M176.18 226.13C175.24 226.46 174.22 226.492 173.26 226.22C171.17 225.6 171.18 223.66 171.62 222.02C173.87 222.32 176.06 223.93 176.18 226.13Z" fill="#FF9ABB"/>
<path d="M133.78 209.149C138.7 210.579 144.09 195.759 145.59 190.069C146.91 185.069 148.27 169.209 148.49 168.069C148.71 166.929 170.07 181.729 182.35 177.919C194.63 174.109 202.7 162.919 202.79 157.719C202.88 152.519 187.33 139.719 174.06 139.229C160.79 138.739 143.12 155.919 143.12 155.919C143.12 155.919 149.12 148.539 148.88 147.919C148.64 147.299 140.15 150.919 138.67 157.019C138.67 157.019 140.24 149.329 139.59 149.189C138.94 149.049 132.39 155.729 133.98 160.679C133.98 160.679 126.38 167.479 125.79 174.799C125.2 182.119 128 207.479 133.78 209.149Z" fill="#263238"/>
<path d="M191.08 175.241C187.36 177.031 183.63 178.991 179.49 179.611C175.02 180.271 170.35 179.221 166.15 177.691C161.883 176.108 157.901 173.842 154.36 170.981C151.24 168.491 148.45 165.471 145.11 163.261C144.28 162.711 143.35 163.911 143.86 164.661C148.99 172.091 157.95 178.211 166.53 180.771C175.53 183.471 183.96 181.331 191.13 175.341C191.17 175.311 191.14 175.211 191.08 175.241Z" fill="#263238"/>
<path d="M141.84 204.651C141.84 204.651 134.74 190.061 128.26 192.391C121.78 194.721 125.66 214.851 132.26 218.571C133.072 219.104 133.983 219.468 134.939 219.641C135.895 219.814 136.876 219.792 137.823 219.576C138.77 219.36 139.663 218.955 140.45 218.386C141.237 217.816 141.9 217.093 142.4 216.261L141.84 204.651Z" fill="#EB9481"/>
<path d="M129.52 198.129C129.498 198.127 129.476 198.132 129.457 198.143C129.438 198.155 129.424 198.172 129.416 198.193C129.408 198.213 129.407 198.236 129.413 198.257C129.419 198.278 129.432 198.296 129.45 198.309C134.04 201.079 135.9 206.039 136.96 211.039C135.79 209.039 133.96 207.689 131.25 209.039C131.11 209.109 131.2 209.329 131.34 209.319C132.246 209.182 133.173 209.328 133.993 209.738C134.813 210.148 135.486 210.802 135.92 211.61C136.625 212.96 137.185 214.381 137.59 215.849C137.75 216.329 138.59 216.219 138.49 215.689C138.49 215.689 138.49 215.609 138.49 215.569C139.59 209.349 136.13 199.849 129.52 198.129Z" fill="#263238"/>
<path d="M133.03 190.71C133.03 190.71 132.93 168.06 139.03 155.41C142.03 149.2 148.49 146.59 155.96 145.9C155.96 145.9 151.96 147.9 147.28 156.95C142.44 166.2 140.56 191.37 140.56 191.37L133.03 190.71Z" fill="#C7C7C7"/>
<path d="M153.99 202.219C153.99 213.669 145.9 222.969 135.86 222.989C125.82 223.009 117.65 213.759 117.62 202.309C117.59 190.859 125.71 181.569 135.75 181.539C145.79 181.509 153.96 190.769 153.99 202.219Z" fill="#C7C7C7"/>
<path d="M148.69 201.58C148.69 211.87 141.42 220.23 132.39 220.26C123.36 220.29 116.03 211.96 116 201.67C115.97 191.38 123.27 183.02 132.3 183C141.33 182.98 148.66 191.29 148.69 201.58Z" fill="#455A64"/>
<path d="M139.79 201.789C139.79 208.119 135.33 213.249 129.79 213.269C124.25 213.289 119.73 208.169 119.71 201.839C119.69 195.509 124.18 190.379 129.71 190.369C135.24 190.359 139.78 195.469 139.79 201.789Z" fill="#37474F"/>
<path d="M166.03 235.43L152.94 231.67L141.39 220.53L143.11 218.75L154.22 229.46L166.71 233.05L166.03 235.43Z" fill="#C7C7C7"/>
<path d="M164.45 233.62C165.2 229.86 175.45 229.9 174.35 235.62C173.25 241.34 163.69 237.4 164.45 233.62Z" fill="#37474F"/>
<path d="M162.16 259.969L156.56 277.649L128.41 239.439L117.84 250.219L150.01 296.099L157.19 281.509L165.83 290.949L166.15 268.899L162.16 259.969Z" fill="#EBEBEB"/>
<path d="M117.84 250.219C129.02 266.029 138.58 281.949 150.21 297.419L150.61 296.319L157.72 281.709L156.77 281.899L165.51 291.239L166.25 292.039C166.31 284.329 166.25 276.609 166.15 268.899C165.87 276.249 165.57 283.599 165.4 290.899L166.15 290.619L157.59 281.129L156.97 280.439L156.64 281.319L149.42 295.849L150.52 295.689C139.15 280.509 129.64 265.039 117.84 250.189V250.219Z" fill="#263238"/>
<path d="M88.5707 210.351C92.5707 186.057 76.1194 163.121 51.8256 159.121C27.5319 155.121 4.59525 171.572 0.595227 195.866C-3.4048 220.16 13.0465 243.096 37.3402 247.096C61.634 251.096 84.5707 234.645 88.5707 210.351Z" fill="#FFC727"/>
<g opacity="0.1">
<path d="M55.2803 238.5C46.5458 241.119 37.1519 240.42 28.9011 236.538C20.6502 232.655 14.1236 225.863 10.5735 217.464C7.02344 209.065 6.69998 199.65 9.66519 191.027C12.6304 182.404 18.6754 175.18 26.6403 170.74" stroke="black" stroke-width="3" stroke-miterlimit="10"/>
<path d="M80.4504 194.059C82.3723 201.702 81.8033 209.759 78.8264 217.057C75.8495 224.354 70.6202 230.511 63.9004 234.629" stroke="black" stroke-width="3" stroke-miterlimit="10"/>
<path d="M31.7207 168.399C39.7726 165.427 48.6065 165.343 56.7135 168.161C64.8206 170.979 71.6979 176.524 76.1707 183.849" stroke="black" stroke-width="3" stroke-miterlimit="10"/>
</g>
<path d="M53.4198 231.07C52.689 231.766 51.778 232.244 50.7898 232.45C50.1698 232.61 49.5298 232.7 48.8898 232.82H46.7198C45.8298 232.68 44.9398 232.57 44.0598 232.4C40.8303 231.695 37.7719 230.359 35.0598 228.47C27.888 223.73 21.8454 217.473 17.3598 210.14C15.8717 207.715 14.8539 205.031 14.3598 202.23C14.2298 201.5 14.1298 200.76 14.0098 200.01V197.85C14.1898 197.01 14.3298 196.17 14.5598 195.35C14.776 194.593 15.1822 193.905 15.7398 193.35C15.8498 193.44 15.9498 193.52 16.0398 193.61L26.3898 203.95C26.5011 204.042 26.581 204.167 26.6186 204.306C26.6562 204.446 26.6496 204.594 26.5998 204.73C26.3285 205.587 26.2882 206.501 26.4831 207.379C26.678 208.257 27.1011 209.068 27.7098 209.73C30.6532 213.076 33.8062 216.233 37.1498 219.18C37.8154 219.782 38.6268 220.201 39.5037 220.393C40.3806 220.586 41.2927 220.547 42.1498 220.28C42.2565 220.23 42.3758 220.214 42.4919 220.233C42.608 220.253 42.7154 220.307 42.7998 220.39C46.3198 223.93 49.8498 227.466 53.3898 231L53.4198 231.07Z" fill="white"/>
<path d="M60.1897 223.33V224.05C59.8785 224.496 59.5447 224.927 59.1897 225.34C58.1297 226.45 57.0297 227.52 55.9397 228.61L55.6097 228.92L44.9697 218.28C46.3597 216.91 47.7497 215.5 49.1897 214.13C49.3443 213.984 49.5268 213.871 49.7263 213.797C49.9259 213.724 50.1382 213.692 50.3504 213.703C50.5627 213.715 50.7704 213.769 50.9611 213.863C51.1518 213.957 51.3214 214.088 51.4597 214.25C52.2597 215.03 53.0397 215.82 53.8297 216.61C55.6797 218.46 57.5397 220.31 59.3797 222.17C59.6775 222.536 59.9482 222.924 60.1897 223.33Z" fill="white"/>
<path d="M32.3002 197.899C30.9802 199.169 29.6302 200.419 28.3002 201.649L17.7402 191.099C17.9702 190.889 18.2402 190.669 18.4802 190.429C19.4802 189.429 20.4002 188.479 21.3902 187.529C21.7911 187.168 22.2153 186.834 22.6602 186.529H23.3802C23.7851 186.775 24.1697 187.052 24.5302 187.359C27.1202 189.919 29.6902 192.509 32.2602 195.079C32.4935 195.232 32.6857 195.439 32.8201 195.683C32.9544 195.927 33.0267 196.2 33.0307 196.479C33.0346 196.757 32.9701 197.032 32.8427 197.28C32.7154 197.528 32.5291 197.74 32.3002 197.899Z" fill="white"/>
<path d="M44.4704 206.079C44.4718 206.202 44.4486 206.323 44.4024 206.437C44.3561 206.55 44.2877 206.653 44.201 206.74C44.1144 206.826 44.0113 206.895 43.8979 206.941C43.7845 206.987 43.6629 207.011 43.5404 207.009H37.5404C37.4091 207.012 37.2787 206.987 37.1579 206.935C37.0372 206.883 36.9289 206.806 36.8404 206.709C36.6841 206.52 36.6028 206.28 36.612 206.035C36.6213 205.789 36.7203 205.556 36.8904 205.379L41.8904 200.829C42.1215 200.626 42.3057 200.375 42.43 200.094C42.5543 199.812 42.6159 199.507 42.6104 199.199C42.6138 198.654 42.4142 198.126 42.0504 197.719C41.8445 197.489 41.5915 197.305 41.3086 197.181C41.0256 197.057 40.7194 196.995 40.4104 196.999C39.8687 197.001 39.3461 197.2 38.9404 197.559L38.4104 198.039C38.321 198.132 38.2135 198.205 38.0947 198.254C37.9759 198.303 37.8483 198.327 37.7198 198.325C37.5912 198.323 37.4645 198.294 37.3474 198.241C37.2303 198.188 37.1254 198.112 37.0391 198.016C36.9527 197.921 36.8869 197.809 36.8455 197.687C36.8041 197.566 36.7882 197.437 36.7986 197.309C36.8091 197.181 36.8457 197.056 36.9062 196.942C36.9667 196.829 37.0498 196.729 37.1504 196.649L37.6804 196.169C38.4252 195.487 39.4005 195.112 40.4104 195.119C40.9758 195.124 41.534 195.246 42.0502 195.476C42.5664 195.707 43.0294 196.042 43.4104 196.459C44.0768 197.214 44.4339 198.193 44.4104 199.199C44.406 199.765 44.2847 200.323 44.0541 200.839C43.8235 201.356 43.4886 201.819 43.0704 202.199L39.8604 205.109H43.5904C43.8354 205.122 44.0653 205.231 44.2301 205.413C44.395 205.595 44.4813 205.834 44.4704 206.079Z" fill="white"/>
<path d="M55.4 203.85C55.4013 203.975 55.3776 204.099 55.3303 204.214C55.2829 204.329 55.2128 204.434 55.1242 204.522C55.0355 204.609 54.9302 204.678 54.8144 204.724C54.6985 204.77 54.5746 204.793 54.45 204.79H54.28V206.08C54.256 206.312 54.1472 206.526 53.9745 206.681C53.8018 206.837 53.5775 206.923 53.345 206.923C53.1124 206.923 52.8882 206.837 52.7155 206.681C52.5428 206.526 52.4339 206.312 52.41 206.08V204.79H47.06C46.8472 204.795 46.6402 204.72 46.48 204.58C46.3816 204.506 46.2993 204.412 46.2381 204.305C46.1769 204.198 46.1381 204.08 46.1241 203.957C46.11 203.835 46.1211 203.711 46.1565 203.593C46.1919 203.475 46.2509 203.365 46.33 203.27L52.61 195.46L52.66 195.4C52.6931 195.391 52.7216 195.369 52.74 195.34C52.767 195.329 52.791 195.312 52.81 195.29C52.81 195.29 52.86 195.29 52.91 195.29C52.96 195.29 52.91 195.24 52.98 195.24C53.05 195.24 52.98 195.24 53.08 195.24H53.59C53.59 195.24 53.65 195.24 53.69 195.24H53.76L53.84 195.3C53.8663 195.323 53.8969 195.34 53.93 195.35L54 195.41L54.05 195.48C54.0775 195.507 54.1011 195.537 54.12 195.57V195.63C54.12 195.63 54.12 195.69 54.12 195.74C54.12 195.79 54.12 195.79 54.12 195.8C54.1255 195.837 54.1255 195.874 54.12 195.91C54.12 195.91 54.12 195.96 54.12 195.99V202.91H54.29C54.4268 202.885 54.5676 202.891 54.7021 202.926C54.8365 202.962 54.9614 203.027 55.0676 203.117C55.1738 203.207 55.2587 203.32 55.3162 203.446C55.3737 203.573 55.4023 203.711 55.4 203.85ZM52.4 198.72L49.02 202.92H52.4V198.72Z" fill="white"/>
<path d="M57.5904 205.72L61.7504 195.81C61.8606 195.59 62.0481 195.418 62.2768 195.328C62.5056 195.237 62.7596 195.234 62.9904 195.32C63.1014 195.367 63.2018 195.437 63.2857 195.524C63.3696 195.611 63.4353 195.713 63.4791 195.826C63.5228 195.939 63.5437 196.059 63.5405 196.18C63.5373 196.301 63.5101 196.419 63.4604 196.53L59.3004 206.45C59.2278 206.617 59.1076 206.759 58.9546 206.859C58.8017 206.959 58.6229 207.011 58.4404 207.01C58.3233 207.011 58.2072 206.988 58.1004 206.94C57.9837 206.897 57.8771 206.831 57.7873 206.745C57.6974 206.659 57.6263 206.556 57.5784 206.441C57.5305 206.327 57.5069 206.203 57.5089 206.079C57.511 205.955 57.5387 205.833 57.5904 205.72Z" fill="white"/>
<path d="M71.8702 196.41L67.6202 206.41C67.5548 206.583 67.4362 206.73 67.2816 206.83C67.127 206.931 66.9445 206.98 66.7603 206.97C66.637 206.969 66.5149 206.945 66.4002 206.9C66.1813 206.794 66.0087 206.611 65.9148 206.386C65.8209 206.162 65.8122 205.911 65.8902 205.68L69.5602 196.96H65.1802C64.934 196.946 64.7018 196.841 64.5282 196.665C64.3547 196.49 64.2521 196.256 64.2402 196.01C64.2429 195.763 64.3431 195.526 64.5191 195.352C64.6951 195.178 64.9327 195.08 65.1802 195.08H71.1802C71.305 195.114 71.4257 195.16 71.5403 195.22L71.5902 195.27C71.6204 195.285 71.6449 195.31 71.6602 195.34L71.7303 195.41L71.7802 195.48C71.7802 195.48 71.7802 195.54 71.7802 195.56L71.8503 195.65C71.8503 195.65 71.8503 195.71 71.8503 195.73C71.8474 195.76 71.8474 195.79 71.8503 195.82C71.8702 195.943 71.8702 196.068 71.8503 196.19C71.9003 196.31 71.8902 196.36 71.8702 196.41Z" fill="white"/>
<path d="M90.9599 154.541C115.581 154.541 135.54 134.582 135.54 109.961C135.54 85.34 115.581 65.3809 90.9599 65.3809C66.339 65.3809 46.3799 85.34 46.3799 109.961C46.3799 134.582 66.339 154.541 90.9599 154.541Z" fill="#FFC727"/>
<g opacity="0.1">
<path d="M80.25 74.5509C88.9845 71.9321 98.3784 72.631 106.629 76.5133C114.88 80.3957 121.407 87.1882 124.957 95.5874C128.507 103.987 128.83 113.401 125.865 122.024C122.9 130.647 116.855 137.871 108.89 142.311" stroke="black" stroke-width="3" stroke-miterlimit="10"/>
<path d="M55.0804 118.992C53.1547 111.353 53.7176 103.298 56.6871 96.0014C59.6567 88.7044 64.8778 82.5457 71.5903 78.4219" stroke="black" stroke-width="3" stroke-miterlimit="10"/>
<path d="M103.81 144.651C95.7574 147.622 86.9226 147.705 78.8154 144.885C70.7083 142.066 63.8317 136.518 59.3604 129.191" stroke="black" stroke-width="3" stroke-miterlimit="10"/>
</g>
<path d="M117.43 119.241L114.94 114.941L113.62 115.701C113.431 115.809 113.215 115.861 112.998 115.853C112.78 115.844 112.569 115.774 112.39 115.651C112.18 115.521 111.96 115.401 111.74 115.281C111.544 115.184 111.38 115.034 111.265 114.849C111.15 114.663 111.089 114.449 111.09 114.231V112.711H106.09V114.231C106.09 114.449 106.029 114.663 105.915 114.849C105.8 115.034 105.635 115.184 105.44 115.281C105.22 115.401 105 115.521 104.8 115.651C104.618 115.774 104.406 115.843 104.187 115.852C103.968 115.861 103.751 115.809 103.56 115.701L102.24 114.941L99.7598 119.241L101.08 120.001C101.268 120.114 101.421 120.276 101.523 120.47C101.626 120.664 101.673 120.882 101.66 121.101C101.66 121.221 101.66 121.341 101.66 121.471C101.66 121.601 101.66 121.711 101.66 121.831C101.674 122.049 101.628 122.266 101.525 122.459C101.423 122.651 101.268 122.811 101.08 122.921L99.7598 123.691L102.24 128.001L103.56 127.241C103.745 127.124 103.96 127.061 104.18 127.061C104.399 127.061 104.614 127.124 104.8 127.241C105.01 127.371 105.22 127.501 105.44 127.611C105.635 127.708 105.8 127.858 105.915 128.043C106.029 128.229 106.09 128.443 106.09 128.661V130.181H111.09V128.661C111.089 128.443 111.15 128.229 111.265 128.043C111.38 127.858 111.544 127.708 111.74 127.611C111.96 127.5 112.173 127.376 112.38 127.241C112.565 127.124 112.78 127.061 113 127.061C113.219 127.061 113.434 127.124 113.62 127.241L114.94 128.001L117.43 123.691L116.11 122.931C115.922 122.821 115.768 122.66 115.666 122.468C115.563 122.275 115.516 122.058 115.53 121.841C115.53 121.711 115.53 121.591 115.53 121.471C115.53 121.351 115.53 121.221 115.53 121.101C115.517 120.882 115.564 120.664 115.666 120.47C115.768 120.276 115.922 120.114 116.11 120.001L117.43 119.241ZM112.67 121.471C112.668 122.275 112.427 123.061 111.979 123.729C111.531 124.397 110.894 124.917 110.15 125.224C109.406 125.531 108.588 125.61 107.8 125.452C107.011 125.293 106.287 124.905 105.718 124.335C105.15 123.766 104.763 123.041 104.607 122.251C104.451 121.462 104.532 120.644 104.841 119.901C105.149 119.158 105.671 118.523 106.34 118.076C107.009 117.629 107.795 117.391 108.6 117.391C109.135 117.391 109.665 117.497 110.16 117.702C110.654 117.907 111.103 118.208 111.481 118.587C111.859 118.966 112.159 119.415 112.363 119.91C112.567 120.405 112.671 120.936 112.67 121.471Z" fill="white"/>
<path d="M81.8798 91.2695C78.6421 91.2695 75.4771 92.2296 72.7851 94.0284C70.093 95.8271 67.9949 98.3838 66.7559 101.375C65.5169 104.366 65.1927 107.658 65.8243 110.833C66.456 114.009 68.015 116.925 70.3044 119.215C72.5938 121.504 75.5107 123.063 78.6861 123.695C81.8616 124.327 85.1531 124.002 88.1443 122.763C91.1355 121.524 93.6922 119.426 95.4909 116.734C97.2897 114.042 98.2498 110.877 98.2498 107.64C98.2511 105.489 97.8286 103.36 97.0064 101.373C96.1842 99.3868 94.9784 97.5816 93.458 96.0613C91.9377 94.5409 90.1325 93.3352 88.1459 92.513C86.1592 91.6908 84.0299 91.2682 81.8798 91.2695ZM81.8798 115.27C80.3659 115.272 78.8855 114.824 77.6259 113.984C76.3663 113.145 75.3842 111.95 74.804 110.552C74.2237 109.153 74.0714 107.614 74.3663 106.13C74.6611 104.645 75.3899 103.281 76.4604 102.21C77.5309 101.14 78.8949 100.411 80.3798 100.116C81.8647 99.8212 83.4037 99.9735 84.8019 100.554C86.2002 101.134 87.3948 102.116 88.2347 103.376C89.0745 104.635 89.5217 106.116 89.5198 107.63C89.5211 108.634 89.3244 109.628 88.9411 110.556C88.5577 111.484 87.9952 112.328 87.2856 113.038C86.576 113.749 85.7333 114.312 84.8058 114.697C83.8782 115.082 82.8839 115.28 81.8798 115.28V115.27Z" fill="white"/>
<path d="M85.0305 91.9402H78.7305L79.0805 87.4902H84.6805L85.0305 91.9402Z" fill="white"/>
<path d="M73.0404 94.0702L68.5904 98.5201L65.6904 95.1202L69.6504 91.1602L73.0404 94.0702Z" fill="white"/>
<path d="M66.0701 104.039V110.329L61.6201 109.979V104.389L66.0701 104.039Z" fill="white"/>
<path d="M68.19 116.02L72.64 120.47L69.25 123.38L65.29 119.42L68.19 116.02Z" fill="white"/>
<path d="M78.1699 122.99H84.4599L84.1099 127.45H78.5099L78.1699 122.99Z" fill="white"/>
<path d="M90.1504 120.87L94.6004 116.42L97.5004 119.82L93.5404 123.78L90.1504 120.87Z" fill="white"/>
<path d="M97.1201 110.9V104.6L101.58 104.95V110.55L97.1201 110.9Z" fill="white"/>
<path d="M94.9998 98.9205L90.5498 94.4706L93.9398 91.5605L97.8998 95.5205L94.9998 98.9205Z" fill="white"/>
<path d="M236.942 99.5036C242.711 75.568 227.984 51.4881 204.048 45.7196C180.113 39.9511 156.033 54.6784 150.264 78.614C144.496 102.55 159.223 126.629 183.158 132.398C207.094 138.166 231.174 123.439 236.942 99.5036Z" fill="#FFC727"/>
<g opacity="0.1">
<path d="M158.16 99.7393C155.541 91.0048 156.24 81.6109 160.123 73.36C164.005 65.1092 170.798 58.5826 179.197 55.0325C187.596 51.4824 197.01 51.159 205.633 54.1242C214.256 57.0894 221.481 63.1344 225.92 71.0993" stroke="black" stroke-width="3" stroke-miterlimit="10"/>
<path d="M202.591 124.9C194.947 126.821 186.89 126.253 179.592 123.276C172.295 120.299 166.139 115.069 162.021 108.35" stroke="black" stroke-width="3" stroke-miterlimit="10"/>
<path d="M228.26 76.1797C231.238 84.2305 231.324 93.0663 228.504 101.174C225.683 109.281 220.132 116.156 212.8 120.62" stroke="black" stroke-width="3" stroke-miterlimit="10"/>
</g>
<path d="M184.19 77.2296C184.19 79.084 184.74 80.8967 185.77 82.4388C186.8 83.9809 188.263 85.1832 189.976 85.8937C191.689 86.6042 193.574 86.7911 195.393 86.4308C197.212 86.0705 198.883 85.1791 200.196 83.8693C201.509 82.5595 202.404 80.89 202.768 79.0718C203.132 77.2536 202.949 75.3682 202.242 73.6539C201.535 71.9396 200.336 70.4732 198.796 69.4402C197.256 68.4071 195.445 67.8536 193.59 67.8496C192.357 67.847 191.135 68.0877 189.995 68.5579C188.854 69.0281 187.818 69.7186 186.945 70.5899C186.072 71.4612 185.379 72.4961 184.906 73.6354C184.434 74.7748 184.19 75.9962 184.19 77.2296Z" fill="white"/>
<path d="M177.36 103.11V106.98C182.231 109.992 187.844 111.587 193.57 111.587C199.297 111.587 204.91 109.992 209.78 106.98V103.13C209.78 98.8308 208.073 94.7077 205.033 91.6677C201.993 88.6277 197.87 86.9199 193.57 86.9199C189.271 86.9199 185.148 88.6277 182.108 91.6677C179.068 94.7077 177.36 98.8308 177.36 103.13V103.11Z" fill="white"/>
<path d="M34.3301 438.629C151.88 438.019 283.76 438.019 401.33 438.629C283.77 439.249 151.89 439.249 34.3301 438.629Z" fill="#263238"/>
<path d="M218.62 428.84H208.9V435.18H218.62V428.84Z" fill="#455A64"/>
<path d="M231.22 428.42H221.5V434.76H231.22V428.42Z" fill="#455A64"/>
<path d="M243.82 428H234.1V434.34H243.82V428Z" fill="#455A64"/>
<path d="M256.42 427.58H246.7V433.92H256.42V427.58Z" fill="#455A64"/>
<path d="M269.02 427.16H259.3V433.5H269.02V427.16Z" fill="#455A64"/>
<path d="M281.62 426.74H271.9V433.08H281.62V426.74Z" fill="#455A64"/>
<path d="M294.22 426.32H284.5V432.66H294.22V426.32Z" fill="#455A64"/>
<path d="M306.82 425.9H297.1V432.24H306.82V425.9Z" fill="#455A64"/>
<path d="M319.42 425.48H309.7V431.82H319.42V425.48Z" fill="#455A64"/>
<path d="M321.8 438.83H206.52V431.11L321.8 427.9V438.83Z" fill="#37474F"/>
<path d="M388.99 407.759H229.19L254.61 288.789H414.4L388.99 407.759Z" fill="#455A64"/>
<path d="M394.9 407.759H235.1L260.52 288.789H420.31L394.9 407.759Z" fill="#37474F"/>
<path d="M341.52 341.38C341.035 344.091 339.632 346.552 337.547 348.351C335.463 350.15 332.822 351.177 330.07 351.26C328.828 351.299 327.593 351.057 326.459 350.55C325.324 350.044 324.319 349.286 323.519 348.335C322.719 347.384 322.145 346.264 321.841 345.06C321.536 343.855 321.508 342.597 321.76 341.38C322.245 338.671 323.646 336.211 325.729 334.412C327.812 332.614 330.449 331.586 333.2 331.5C334.442 331.461 335.677 331.704 336.812 332.211C337.947 332.717 338.953 333.474 339.753 334.425C340.554 335.376 341.129 336.495 341.435 337.7C341.741 338.904 341.77 340.163 341.52 341.38Z" fill="#263238"/>
<path d="M349.71 438.829H271.11V432.729L349.71 430.189V438.829Z" fill="#455A64"/>
<path d="M371.08 438.82H328.88L303.46 372.16H345.66L371.08 438.82Z" fill="#455A64"/>
<path d="M378.02 438.82H335.82L310.41 372.16H352.61L378.02 438.82Z" fill="#263238"/>
<path d="M237.76 438.85H163.27C156.91 438.85 166.11 420.75 189.27 413.8C212.43 406.85 245.08 432.04 237.76 438.85Z" fill="#37474F"/>
<path d="M208.53 438.85C208.38 436.759 208.593 434.658 209.16 432.64C209.695 430.605 210.513 428.656 211.59 426.85C212.677 425.019 214.067 423.386 215.7 422.02C217.311 420.64 219.195 419.617 221.23 419.02C219.675 420.299 218.217 421.693 216.87 423.19C215.569 424.651 214.414 426.235 213.42 427.92C211.424 431.388 209.786 435.05 208.53 438.85Z" fill="#263238"/>
<path d="M217.36 421.609C219.646 422.109 221.867 422.867 223.98 423.869C226.115 424.846 228.157 426.014 230.08 427.359C232.042 428.713 233.789 430.354 235.26 432.229C236.855 434.06 237.742 436.401 237.76 438.829C236.957 436.726 235.668 434.842 234 433.329C232.398 431.781 230.668 430.37 228.83 429.109C225.17 426.479 221.26 424.179 217.36 421.609Z" fill="#263238"/>
<path d="M328.91 169.131H222.28V209.671L204.8 224.471H222.28V230.681H328.91V169.131Z" fill="white"/>
<path d="M328.9 169.14C302.31 169.29 248.9 169.42 222.28 169.46L222.61 169.14L222.7 209.67V209.87L222.55 209.99L205.1 224.85L204.8 224.01H222.28H222.77V224.51V230.71C219.91 229.42 329.49 230.71 328.92 230.34L328.56 230.71C328.56 215.38 328.8 184.5 328.92 169.17L328.9 169.14ZM328.9 169.14C329.02 184.48 329.26 215.34 329.27 230.68V231.04L221.8 231.16V224.48L222.29 224.97H204.81H203.52L204.52 224.14L222.03 209.37L221.89 209.69L221.98 169.16V168.85H222.31C248.87 168.85 302.37 169.03 328.93 169.18L328.9 169.14Z" fill="#263238"/>
<path d="M310.88 202.4H232.88V203.73H310.88V202.4Z" fill="#263238"/>
<path d="M298.06 209.58H232.88V210.91H298.06V209.58Z" fill="#263238"/>
<path d="M301.8 188.051H232.88V189.381H301.8V188.051Z" fill="#263238"/>
<path d="M318.07 180.869H232.88V182.199H318.07V180.869Z" fill="#263238"/>
<path d="M303.2 216.75H232.88V218.08H303.2V216.75Z" fill="#263238"/>
</g>
<defs>
<clipPath id="clip0_1414_22003">
<rect width="439.58" height="439.09" fill="white"/>
</clipPath>
</defs>
</svg>
