<svg width="25" height="25" viewBox="0 0 25 25" fill="none" xmlns="http://www.w3.org/2000/svg">
<path d="M7.54231 12.6642L11.7917 16.2054L17.4575 9.12308M12.4999 22.5794C11.1978 22.5794 9.9085 22.3229 8.70553 21.8247C7.50256 21.3264 6.40952 20.596 5.48881 19.6753C4.5681 18.7546 3.83775 17.6616 3.33947 16.4586C2.84118 15.2556 2.58472 13.9663 2.58472 12.6642C2.58472 11.3621 2.84118 10.0728 3.33947 8.86984C3.83775 7.66687 4.5681 6.57383 5.48881 5.65312C6.40952 4.73241 7.50256 4.00206 8.70553 3.50377C9.9085 3.00549 11.1978 2.74902 12.4999 2.74902C15.1296 2.74902 17.6515 3.79366 19.511 5.65312C21.3705 7.51258 22.4151 10.0345 22.4151 12.6642C22.4151 15.2939 21.3705 17.8159 19.511 19.6753C17.6515 21.5348 15.1296 22.5794 12.4999 22.5794Z" stroke="#F91942" stroke-width="2.49004"/>
</svg>
