<svg width="23" height="23" viewBox="0 0 23 23" fill="none" xmlns="http://www.w3.org/2000/svg">
<path d="M6.21929 11.4389L10.4687 14.98L16.1345 7.89773M11.1769 21.3541C9.87481 21.3541 8.58548 21.0976 7.38251 20.5993C6.17954 20.101 5.0865 19.3707 4.16579 18.45C3.24508 17.5293 2.51473 16.4362 2.01645 15.2333C1.51816 14.0303 1.2617 12.741 1.2617 11.4389C1.2617 10.1368 1.51816 8.84746 2.01645 7.64449C2.51473 6.44153 3.24508 5.34849 4.16579 4.42777C5.0865 3.50706 6.17954 2.77672 7.38251 2.27843C8.58548 1.78015 9.87481 1.52368 11.1769 1.52368C13.8066 1.52368 16.3285 2.56832 18.188 4.42777C20.0474 6.28723 21.0921 8.8092 21.0921 11.4389C21.0921 14.0685 20.0474 16.5905 18.188 18.45C16.3285 20.3094 13.8066 21.3541 11.1769 21.3541Z" stroke="#FF4B4B" stroke-width="2.49004"/>
</svg>
