<svg width="376" height="360" viewBox="0 0 376 360" fill="none" xmlns="http://www.w3.org/2000/svg">
<path d="M21.7788 45.9658C21.7788 40.7191 26.0321 36.4658 31.2788 36.4658H365.251C370.498 36.4658 374.751 40.7191 374.751 45.9658V133.721C374.751 138.968 370.498 143.221 365.251 143.221H31.2788C26.0321 143.221 21.7788 138.968 21.7788 133.721V45.9658Z" fill="white" stroke="#263238"/>
<path d="M55.8202 67.7954H53.4262L49.4222 61.7334V67.7954H47.0282V57.9674H49.4222L53.4262 64.0574V57.9674H55.8202V67.7954ZM64.9195 63.7634C64.9195 63.9874 64.9055 64.2207 64.8775 64.4634H59.4595C59.4968 64.9487 59.6508 65.3221 59.9215 65.5834C60.2015 65.8354 60.5422 65.9614 60.9435 65.9614C61.5408 65.9614 61.9562 65.7094 62.1895 65.2054H64.7375C64.6068 65.7187 64.3688 66.1807 64.0235 66.5914C63.6875 67.0021 63.2628 67.3241 62.7495 67.5574C62.2362 67.7907 61.6622 67.9074 61.0275 67.9074C60.2622 67.9074 59.5808 67.7441 58.9835 67.4174C58.3862 67.0907 57.9195 66.6241 57.5835 66.0174C57.2475 65.4107 57.0795 64.7014 57.0795 63.8894C57.0795 63.0774 57.2428 62.3681 57.5695 61.7614C57.9055 61.1547 58.3722 60.6881 58.9695 60.3614C59.5668 60.0347 60.2528 59.8714 61.0275 59.8714C61.7835 59.8714 62.4555 60.0301 63.0435 60.3474C63.6315 60.6647 64.0888 61.1174 64.4155 61.7054C64.7515 62.2934 64.9195 62.9794 64.9195 63.7634ZM62.4695 63.1334C62.4695 62.7227 62.3295 62.3961 62.0495 62.1534C61.7695 61.9107 61.4195 61.7894 60.9995 61.7894C60.5982 61.7894 60.2575 61.9061 59.9775 62.1394C59.7068 62.3727 59.5388 62.7041 59.4735 63.1334H62.4695ZM77.3965 59.9834L75.2825 67.7954H72.6365L71.4045 62.7274L70.1305 67.7954H67.4985L65.3705 59.9834H67.7645L68.8705 65.5694L70.1865 59.9834H72.7205L74.0505 65.5414L75.1425 59.9834H77.3965ZM83.6702 59.8854V61.8734H86.8762V63.7214H83.6702V65.8774H87.2962V67.7954H81.2762V57.9674H87.2962V59.8854H83.6702ZM93.6104 59.8994C94.5251 59.8994 95.2531 60.1981 95.7944 60.7954C96.3451 61.3834 96.6204 62.1954 96.6204 63.2314V67.7954H94.2404V63.5534C94.2404 63.0307 94.1051 62.6247 93.8344 62.3354C93.5638 62.0461 93.1998 61.9014 92.7424 61.9014C92.2851 61.9014 91.9211 62.0461 91.6504 62.3354C91.3798 62.6247 91.2444 63.0307 91.2444 63.5534V67.7954H88.8504V59.9834H91.2444V61.0194C91.4871 60.6741 91.8138 60.4034 92.2244 60.2074C92.6351 60.0021 93.0971 59.8994 93.6104 59.8994ZM97.808 63.9034C97.808 63.1287 97.9667 62.4381 98.284 61.8314C98.6107 61.2247 99.0447 60.7534 99.586 60.4174C100.137 60.0721 100.734 59.8994 101.378 59.8994C101.873 59.8994 102.316 59.9881 102.708 60.1654C103.1 60.3334 103.417 60.5714 103.66 60.8794V59.9834H106.054V71.5194H103.66V66.8154C103.389 67.1421 103.058 67.4034 102.666 67.5994C102.283 67.7954 101.845 67.8934 101.35 67.8934C100.715 67.8934 100.127 67.7254 99.586 67.3894C99.0447 67.0534 98.6107 66.5821 98.284 65.9754C97.9667 65.3687 97.808 64.6781 97.808 63.9034ZM103.66 63.8894C103.66 63.4694 103.576 63.1194 103.408 62.8394C103.249 62.5501 103.039 62.3354 102.778 62.1954C102.517 62.0461 102.241 61.9714 101.952 61.9714C101.672 61.9714 101.401 62.0461 101.14 62.1954C100.879 62.3354 100.664 62.5501 100.496 62.8394C100.328 63.1287 100.244 63.4834 100.244 63.9034C100.244 64.3234 100.328 64.6781 100.496 64.9674C100.664 65.2474 100.879 65.4621 101.14 65.6114C101.401 65.7514 101.672 65.8214 101.952 65.8214C102.232 65.8214 102.503 65.7514 102.764 65.6114C103.035 65.4621 103.249 65.2427 103.408 64.9534C103.576 64.6641 103.66 64.3094 103.66 63.8894ZM115.5 59.9834V67.7954H113.106V66.7314C112.863 67.0767 112.532 67.3567 112.112 67.5714C111.701 67.7767 111.244 67.8794 110.74 67.8794C110.143 67.8794 109.615 67.7487 109.158 67.4874C108.701 67.2167 108.346 66.8294 108.094 66.3254C107.842 65.8214 107.716 65.2287 107.716 64.5474V59.9834H110.096V64.2254C110.096 64.7481 110.231 65.1541 110.502 65.4434C110.773 65.7327 111.137 65.8774 111.594 65.8774C112.061 65.8774 112.429 65.7327 112.7 65.4434C112.971 65.1541 113.106 64.7481 113.106 64.2254V59.9834H115.5ZM118.424 59.1714C118.004 59.1714 117.658 59.0501 117.388 58.8074C117.126 58.5554 116.996 58.2474 116.996 57.8834C116.996 57.5101 117.126 57.2021 117.388 56.9594C117.658 56.7074 118.004 56.5814 118.424 56.5814C118.834 56.5814 119.17 56.7074 119.432 56.9594C119.702 57.2021 119.838 57.5101 119.838 57.8834C119.838 58.2474 119.702 58.5554 119.432 58.8074C119.17 59.0501 118.834 59.1714 118.424 59.1714ZM119.614 59.9834V67.7954H117.22V59.9834H119.614ZM123.742 61.2854C124.022 60.8561 124.372 60.5201 124.792 60.2774C125.212 60.0254 125.679 59.8994 126.192 59.8994V62.4334H125.534C124.937 62.4334 124.489 62.5641 124.19 62.8254C123.892 63.0774 123.742 63.5254 123.742 64.1694V67.7954H121.348V59.9834H123.742V61.2854ZM135.317 59.9834L130.417 71.5054H127.841L129.633 67.5294L126.455 59.9834H129.129L130.935 64.8694L132.727 59.9834H135.317Z" fill="#526185"/>
<path d="M142.983 66.3674L145.167 60.0814H146.861L143.921 67.7954H142.017L139.091 60.0814H140.799L142.983 66.3674ZM148.88 59.0594C148.59 59.0594 148.348 58.9614 148.152 58.7654C147.956 58.5694 147.858 58.3267 147.858 58.0374C147.858 57.7481 147.956 57.5054 148.152 57.3094C148.348 57.1134 148.59 57.0154 148.88 57.0154C149.16 57.0154 149.398 57.1134 149.594 57.3094C149.79 57.5054 149.888 57.7481 149.888 58.0374C149.888 58.3267 149.79 58.5694 149.594 58.7654C149.398 58.9614 149.16 59.0594 148.88 59.0594ZM149.664 60.0814V67.7954H148.068V60.0814H149.664ZM151.227 63.9034C151.227 63.1287 151.386 62.4427 151.703 61.8454C152.03 61.2481 152.468 60.7861 153.019 60.4594C153.579 60.1234 154.195 59.9554 154.867 59.9554C155.474 59.9554 156.001 60.0767 156.449 60.3194C156.906 60.5527 157.27 60.8467 157.541 61.2014V60.0814H159.151V67.7954H157.541V66.6474C157.27 67.0114 156.902 67.3147 156.435 67.5574C155.968 67.8001 155.436 67.9214 154.839 67.9214C154.176 67.9214 153.57 67.7534 153.019 67.4174C152.468 67.0721 152.03 66.5961 151.703 65.9894C151.386 65.3734 151.227 64.6781 151.227 63.9034ZM157.541 63.9314C157.541 63.3994 157.429 62.9374 157.205 62.5454C156.99 62.1534 156.706 61.8547 156.351 61.6494C155.996 61.4441 155.614 61.3414 155.203 61.3414C154.792 61.3414 154.41 61.4441 154.055 61.6494C153.7 61.8454 153.411 62.1394 153.187 62.5314C152.972 62.9141 152.865 63.3714 152.865 63.9034C152.865 64.4354 152.972 64.9021 153.187 65.3034C153.411 65.7047 153.7 66.0127 154.055 66.2274C154.419 66.4327 154.802 66.5354 155.203 66.5354C155.614 66.5354 155.996 66.4327 156.351 66.2274C156.706 66.0221 156.99 65.7234 157.205 65.3314C157.429 64.9301 157.541 64.4634 157.541 63.9314ZM243.075 63.9034C243.075 63.1287 243.233 62.4427 243.551 61.8454C243.877 61.2481 244.316 60.7861 244.867 60.4594C245.427 60.1234 246.043 59.9554 246.715 59.9554C247.321 59.9554 247.849 60.0767 248.297 60.3194C248.754 60.5527 249.118 60.8467 249.389 61.2014V60.0814H250.999V67.7954H249.389V66.6474C249.118 67.0114 248.749 67.3147 248.283 67.5574C247.816 67.8001 247.284 67.9214 246.687 67.9214C246.024 67.9214 245.417 67.7534 244.867 67.4174C244.316 67.0721 243.877 66.5961 243.551 65.9894C243.233 65.3734 243.075 64.6781 243.075 63.9034ZM249.389 63.9314C249.389 63.3994 249.277 62.9374 249.053 62.5454C248.838 62.1534 248.553 61.8547 248.199 61.6494C247.844 61.4441 247.461 61.3414 247.051 61.3414C246.64 61.3414 246.257 61.4441 245.903 61.6494C245.548 61.8454 245.259 62.1394 245.035 62.5314C244.82 62.9141 244.713 63.3714 244.713 63.9034C244.713 64.4354 244.82 64.9021 245.035 65.3034C245.259 65.7047 245.548 66.0127 245.903 66.2274C246.267 66.4327 246.649 66.5354 247.051 66.5354C247.461 66.5354 247.844 66.4327 248.199 66.2274C248.553 66.0221 248.838 65.7234 249.053 65.3314C249.277 64.9301 249.389 64.4634 249.389 63.9314ZM252.563 63.9034C252.563 63.1287 252.722 62.4427 253.039 61.8454C253.366 61.2481 253.804 60.7861 254.355 60.4594C254.915 60.1234 255.536 59.9554 256.217 59.9554C256.721 59.9554 257.216 60.0674 257.701 60.2914C258.196 60.5061 258.588 60.7954 258.877 61.1594V57.4354H260.487V67.7954H258.877V66.6334C258.616 67.0067 258.252 67.3147 257.785 67.5574C257.328 67.8001 256.8 67.9214 256.203 67.9214C255.531 67.9214 254.915 67.7534 254.355 67.4174C253.804 67.0721 253.366 66.5961 253.039 65.9894C252.722 65.3734 252.563 64.6781 252.563 63.9034ZM258.877 63.9314C258.877 63.3994 258.765 62.9374 258.541 62.5454C258.326 62.1534 258.042 61.8547 257.687 61.6494C257.332 61.4441 256.95 61.3414 256.539 61.3414C256.128 61.3414 255.746 61.4441 255.391 61.6494C255.036 61.8454 254.747 62.1394 254.523 62.5314C254.308 62.9141 254.201 63.3714 254.201 63.9034C254.201 64.4354 254.308 64.9021 254.523 65.3034C254.747 65.7047 255.036 66.0127 255.391 66.2274C255.755 66.4327 256.138 66.5354 256.539 66.5354C256.95 66.5354 257.332 66.4327 257.687 66.2274C258.042 66.0221 258.326 65.7234 258.541 65.3314C258.765 64.9301 258.877 64.4634 258.877 63.9314ZM262.051 63.9034C262.051 63.1287 262.21 62.4427 262.527 61.8454C262.854 61.2481 263.293 60.7861 263.843 60.4594C264.403 60.1234 265.024 59.9554 265.705 59.9554C266.209 59.9554 266.704 60.0674 267.189 60.2914C267.684 60.5061 268.076 60.7954 268.365 61.1594V57.4354H269.975V67.7954H268.365V66.6334C268.104 67.0067 267.74 67.3147 267.273 67.5574C266.816 67.8001 266.289 67.9214 265.691 67.9214C265.019 67.9214 264.403 67.7534 263.843 67.4174C263.293 67.0721 262.854 66.5961 262.527 65.9894C262.21 65.3734 262.051 64.6781 262.051 63.9034ZM268.365 63.9314C268.365 63.3994 268.253 62.9374 268.029 62.5454C267.815 62.1534 267.53 61.8547 267.175 61.6494C266.821 61.4441 266.438 61.3414 266.027 61.3414C265.617 61.3414 265.234 61.4441 264.879 61.6494C264.525 61.8454 264.235 62.1394 264.011 62.5314C263.797 62.9141 263.689 63.3714 263.689 63.9034C263.689 64.4354 263.797 64.9021 264.011 65.3034C264.235 65.7047 264.525 66.0127 264.879 66.2274C265.243 66.4327 265.626 66.5354 266.027 66.5354C266.438 66.5354 266.821 66.4327 267.175 66.2274C267.53 66.0221 267.815 65.7234 268.029 65.3314C268.253 64.9301 268.365 64.4634 268.365 63.9314ZM279.141 63.7494C279.141 64.0387 279.123 64.3001 279.085 64.5334H273.191C273.238 65.1494 273.467 65.6441 273.877 66.0174C274.288 66.3907 274.792 66.5774 275.389 66.5774C276.248 66.5774 276.855 66.2181 277.209 65.4994H278.931C278.698 66.2087 278.273 66.7921 277.657 67.2494C277.051 67.6974 276.295 67.9214 275.389 67.9214C274.652 67.9214 273.989 67.7581 273.401 67.4314C272.823 67.0954 272.365 66.6287 272.029 66.0314C271.703 65.4247 271.539 64.7247 271.539 63.9314C271.539 63.1381 271.698 62.4427 272.015 61.8454C272.342 61.2387 272.795 60.7721 273.373 60.4454C273.961 60.1187 274.633 59.9554 275.389 59.9554C276.117 59.9554 276.766 60.1141 277.335 60.4314C277.905 60.7487 278.348 61.1967 278.665 61.7754C278.983 62.3447 279.141 63.0027 279.141 63.7494ZM277.475 63.2454C277.466 62.6574 277.256 62.1861 276.845 61.8314C276.435 61.4767 275.926 61.2994 275.319 61.2994C274.769 61.2994 274.297 61.4767 273.905 61.8314C273.513 62.1767 273.28 62.6481 273.205 63.2454H277.475ZM280.18 63.9034C280.18 63.1287 280.339 62.4427 280.656 61.8454C280.983 61.2481 281.421 60.7861 281.972 60.4594C282.532 60.1234 283.153 59.9554 283.834 59.9554C284.338 59.9554 284.833 60.0674 285.318 60.2914C285.813 60.5061 286.205 60.7954 286.494 61.1594V57.4354H288.104V67.7954H286.494V66.6334C286.233 67.0067 285.869 67.3147 285.402 67.5574C284.945 67.8001 284.417 67.9214 283.82 67.9214C283.148 67.9214 282.532 67.7534 281.972 67.4174C281.421 67.0721 280.983 66.5961 280.656 65.9894C280.339 65.3734 280.18 64.6781 280.18 63.9034ZM286.494 63.9314C286.494 63.3994 286.382 62.9374 286.158 62.5454C285.943 62.1534 285.659 61.8547 285.304 61.6494C284.949 61.4441 284.567 61.3414 284.156 61.3414C283.745 61.3414 283.363 61.4441 283.008 61.6494C282.653 61.8454 282.364 62.1394 282.14 62.5314C281.925 62.9141 281.818 63.3714 281.818 63.9034C281.818 64.4354 281.925 64.9021 282.14 65.3034C282.364 65.7047 282.653 66.0127 283.008 66.2274C283.372 66.4327 283.755 66.5354 284.156 66.5354C284.567 66.5354 284.949 66.4327 285.304 66.2274C285.659 66.0221 285.943 65.7234 286.158 65.3314C286.382 64.9301 286.494 64.4634 286.494 63.9314ZM48.8062 82.2294C49.0768 81.8561 49.4455 81.5527 49.9122 81.3194C50.3882 81.0767 50.9155 80.9554 51.4942 80.9554C52.1755 80.9554 52.7915 81.1187 53.3422 81.4454C53.8928 81.7721 54.3268 82.2387 54.6442 82.8454C54.9615 83.4427 55.1202 84.1287 55.1202 84.9034C55.1202 85.6781 54.9615 86.3734 54.6442 86.9894C54.3268 87.5961 53.8882 88.0721 53.3282 88.4174C52.7775 88.7534 52.1662 88.9214 51.4942 88.9214C50.8968 88.9214 50.3648 88.8047 49.8982 88.5714C49.4408 88.3381 49.0768 88.0394 48.8062 87.6754V88.7954H47.2102V78.4354H48.8062V82.2294ZM53.4962 84.9034C53.4962 84.3714 53.3842 83.9141 53.1602 83.5314C52.9455 83.1394 52.6562 82.8454 52.2922 82.6494C51.9375 82.4441 51.5548 82.3414 51.1442 82.3414C50.7428 82.3414 50.3602 82.4441 49.9962 82.6494C49.6415 82.8547 49.3522 83.1534 49.1282 83.5454C48.9135 83.9374 48.8062 84.3994 48.8062 84.9314C48.8062 85.4634 48.9135 85.9301 49.1282 86.3314C49.3522 86.7234 49.6415 87.0221 49.9962 87.2274C50.3602 87.4327 50.7428 87.5354 51.1442 87.5354C51.5548 87.5354 51.9375 87.4327 52.2922 87.2274C52.6562 87.0127 52.9455 86.7047 53.1602 86.3034C53.3842 85.9021 53.4962 85.4354 53.4962 84.9034ZM63.6424 81.0814L58.9104 92.4214H57.2584L58.8264 88.6694L55.7884 81.0814H57.5664L59.7364 86.9614L61.9904 81.0814H63.6424Z" fill="#526185" fill-opacity="0.5"/>
<path d="M171.926 60.8654C171.674 60.3801 171.324 60.0161 170.876 59.7734C170.428 59.5214 169.91 59.3954 169.322 59.3954C168.678 59.3954 168.104 59.5401 167.6 59.8294C167.096 60.1187 166.699 60.5294 166.41 61.0614C166.13 61.5934 165.99 62.2094 165.99 62.9094C165.99 63.6094 166.13 64.2301 166.41 64.7714C166.699 65.3034 167.096 65.7141 167.6 66.0034C168.104 66.2927 168.678 66.4374 169.322 66.4374C170.19 66.4374 170.895 66.1947 171.436 65.7094C171.977 65.2241 172.309 64.5661 172.43 63.7354H168.776V62.4614H174.138V63.7074C174.035 64.4634 173.765 65.1587 173.326 65.7934C172.897 66.4281 172.332 66.9367 171.632 67.3194C170.941 67.6927 170.171 67.8794 169.322 67.8794C168.407 67.8794 167.572 67.6694 166.816 67.2494C166.06 66.8201 165.458 66.2274 165.01 65.4714C164.571 64.7154 164.352 63.8614 164.352 62.9094C164.352 61.9574 164.571 61.1034 165.01 60.3474C165.458 59.5914 166.06 59.0034 166.816 58.5834C167.581 58.1541 168.417 57.9394 169.322 57.9394C170.358 57.9394 171.277 58.1961 172.08 58.7094C172.892 59.2134 173.48 59.9321 173.844 60.8654H171.926ZM177.308 66.5074H180.598V67.7954H175.712V58.0654H177.308V66.5074ZM188.776 67.8934C188.122 67.8934 187.534 67.7814 187.012 67.5574C186.489 67.3241 186.078 66.9974 185.78 66.5774C185.481 66.1574 185.332 65.6674 185.332 65.1074H187.04C187.077 65.5274 187.24 65.8727 187.53 66.1434C187.828 66.4141 188.244 66.5494 188.776 66.5494C189.326 66.5494 189.756 66.4187 190.064 66.1574C190.372 65.8867 190.526 65.5414 190.526 65.1214C190.526 64.7947 190.428 64.5287 190.232 64.3234C190.045 64.1181 189.807 63.9594 189.518 63.8474C189.238 63.7354 188.846 63.6141 188.342 63.4834C187.707 63.3154 187.189 63.1474 186.788 62.9794C186.396 62.8021 186.06 62.5314 185.78 62.1674C185.5 61.8034 185.36 61.3181 185.36 60.7114C185.36 60.1514 185.5 59.6614 185.78 59.2414C186.06 58.8214 186.452 58.4994 186.956 58.2754C187.46 58.0514 188.043 57.9394 188.706 57.9394C189.648 57.9394 190.418 58.1774 191.016 58.6534C191.622 59.1201 191.958 59.7641 192.024 60.5854H190.26C190.232 60.2307 190.064 59.9274 189.756 59.6754C189.448 59.4234 189.042 59.2974 188.538 59.2974C188.08 59.2974 187.707 59.4141 187.418 59.6474C187.128 59.8807 186.984 60.2167 186.984 60.6554C186.984 60.9541 187.072 61.2014 187.25 61.3974C187.436 61.5841 187.67 61.7334 187.95 61.8454C188.23 61.9574 188.612 62.0787 189.098 62.2094C189.742 62.3867 190.264 62.5641 190.666 62.7414C191.076 62.9187 191.422 63.1941 191.702 63.5674C191.991 63.9314 192.136 64.4214 192.136 65.0374C192.136 65.5321 192 65.9987 191.73 66.4374C191.468 66.8761 191.081 67.2307 190.568 67.5014C190.064 67.7627 189.466 67.8934 188.776 67.8934ZM193.487 63.9314C193.487 63.1381 193.645 62.4427 193.963 61.8454C194.289 61.2387 194.737 60.7721 195.307 60.4454C195.876 60.1187 196.529 59.9554 197.267 59.9554C198.2 59.9554 198.97 60.1794 199.577 60.6274C200.193 61.0661 200.608 61.6961 200.823 62.5174H199.101C198.961 62.1347 198.737 61.8361 198.429 61.6214C198.121 61.4067 197.733 61.2994 197.267 61.2994C196.613 61.2994 196.091 61.5327 195.699 61.9994C195.316 62.4567 195.125 63.1007 195.125 63.9314C195.125 64.7621 195.316 65.4107 195.699 65.8774C196.091 66.3441 196.613 66.5774 197.267 66.5774C198.191 66.5774 198.802 66.1714 199.101 65.3594H200.823C200.599 66.1434 200.179 66.7687 199.563 67.2354C198.947 67.6927 198.181 67.9214 197.267 67.9214C196.529 67.9214 195.876 67.7581 195.307 67.4314C194.737 67.0954 194.289 66.6287 193.963 66.0314C193.645 65.4247 193.487 64.7247 193.487 63.9314ZM204.009 61.2014C204.243 60.8094 204.551 60.5061 204.933 60.2914C205.325 60.0674 205.787 59.9554 206.319 59.9554V61.6074H205.913C205.288 61.6074 204.812 61.7661 204.485 62.0834C204.168 62.4007 204.009 62.9514 204.009 63.7354V67.7954H202.413V60.0814H204.009V61.2014ZM207.254 63.9034C207.254 63.1287 207.413 62.4427 207.73 61.8454C208.057 61.2481 208.496 60.7861 209.046 60.4594C209.606 60.1234 210.222 59.9554 210.894 59.9554C211.501 59.9554 212.028 60.0767 212.476 60.3194C212.934 60.5527 213.298 60.8467 213.568 61.2014V60.0814H215.178V67.7954H213.568V66.6474C213.298 67.0114 212.929 67.3147 212.462 67.5574C211.996 67.8001 211.464 67.9214 210.866 67.9214C210.204 67.9214 209.597 67.7534 209.046 67.4174C208.496 67.0721 208.057 66.5961 207.73 65.9894C207.413 65.3734 207.254 64.6781 207.254 63.9034ZM213.568 63.9314C213.568 63.3994 213.456 62.9374 213.232 62.5454C213.018 62.1534 212.733 61.8547 212.378 61.6494C212.024 61.4441 211.641 61.3414 211.23 61.3414C210.82 61.3414 210.437 61.4441 210.082 61.6494C209.728 61.8454 209.438 62.1394 209.214 62.5314C209 62.9141 208.892 63.3714 208.892 63.9034C208.892 64.4354 209 64.9021 209.214 65.3034C209.438 65.7047 209.728 66.0127 210.082 66.2274C210.446 66.4327 210.829 66.5354 211.23 66.5354C211.641 66.5354 212.024 66.4327 212.378 66.2274C212.733 66.0221 213.018 65.7234 213.232 65.3314C213.456 64.9301 213.568 64.4634 213.568 63.9314ZM219.137 61.3834V65.6534C219.137 65.9427 219.202 66.1527 219.333 66.2834C219.473 66.4047 219.706 66.4654 220.033 66.4654H221.013V67.7954H219.753C219.034 67.7954 218.483 67.6274 218.101 67.2914C217.718 66.9554 217.527 66.4094 217.527 65.6534V61.3834H216.617V60.0814H217.527V58.1634H219.137V60.0814H221.013V61.3834H219.137ZM221.952 63.9314C221.952 63.1381 222.11 62.4427 222.428 61.8454C222.754 61.2387 223.202 60.7721 223.772 60.4454C224.341 60.1187 224.994 59.9554 225.732 59.9554C226.665 59.9554 227.435 60.1794 228.042 60.6274C228.658 61.0661 229.073 61.6961 229.288 62.5174H227.566C227.426 62.1347 227.202 61.8361 226.894 61.6214C226.586 61.4067 226.198 61.2994 225.732 61.2994C225.078 61.2994 224.556 61.5327 224.164 61.9994C223.781 62.4567 223.59 63.1007 223.59 63.9314C223.59 64.7621 223.781 65.4107 224.164 65.8774C224.556 66.3441 225.078 66.5774 225.732 66.5774C226.656 66.5774 227.267 66.1714 227.566 65.3594H229.288C229.064 66.1434 228.644 66.7687 228.028 67.2354C227.412 67.6927 226.646 67.9214 225.732 67.9214C224.994 67.9214 224.341 67.7581 223.772 67.4314C223.202 67.0954 222.754 66.6287 222.428 66.0314C222.11 65.4247 221.952 64.7247 221.952 63.9314ZM234.868 59.9554C235.456 59.9554 235.979 60.0814 236.436 60.3334C236.903 60.5854 237.267 60.9587 237.528 61.4534C237.799 61.9481 237.934 62.5454 237.934 63.2454V67.7954H236.352V63.4834C236.352 62.7927 236.179 62.2654 235.834 61.9014C235.489 61.5281 235.017 61.3414 234.42 61.3414C233.823 61.3414 233.347 61.5281 232.992 61.9014C232.647 62.2654 232.474 62.7927 232.474 63.4834V67.7954H230.878V57.4354H232.474V60.9774C232.745 60.6507 233.085 60.3987 233.496 60.2214C233.916 60.0441 234.373 59.9554 234.868 59.9554Z" fill="#526185"/>
<path d="M71.7736 88.8934C71.0923 88.8934 70.4763 88.7767 69.9256 88.5434C69.3843 88.3101 68.9549 87.9741 68.6376 87.5354C68.3203 87.0967 68.1569 86.5787 68.1476 85.9814H70.2476C70.2756 86.3827 70.4156 86.7001 70.6676 86.9334C70.9289 87.1667 71.2836 87.2834 71.7316 87.2834C72.1889 87.2834 72.5483 87.1761 72.8096 86.9614C73.0709 86.7374 73.2016 86.4481 73.2016 86.0934C73.2016 85.8041 73.1129 85.5661 72.9356 85.3794C72.7583 85.1927 72.5343 85.0481 72.2636 84.9454C72.0023 84.8334 71.6383 84.7121 71.1716 84.5814C70.5369 84.3947 70.0189 84.2127 69.6176 84.0354C69.2256 83.8487 68.8849 83.5734 68.5956 83.2094C68.3156 82.8361 68.1756 82.3414 68.1756 81.7254C68.1756 81.1467 68.3203 80.6427 68.6096 80.2134C68.8989 79.7841 69.3049 79.4574 69.8276 79.2334C70.3503 79.0001 70.9476 78.8834 71.6196 78.8834C72.6276 78.8834 73.4443 79.1307 74.0696 79.6254C74.7043 80.1107 75.0543 80.7921 75.1196 81.6694H72.9636C72.9449 81.3334 72.8003 81.0581 72.5296 80.8434C72.2683 80.6194 71.9183 80.5074 71.4796 80.5074C71.0969 80.5074 70.7889 80.6054 70.5556 80.8014C70.3316 80.9974 70.2196 81.2821 70.2196 81.6554C70.2196 81.9167 70.3036 82.1361 70.4716 82.3134C70.6489 82.4814 70.8636 82.6214 71.1156 82.7334C71.3769 82.8361 71.7409 82.9574 72.2076 83.0974C72.8423 83.2841 73.3603 83.4707 73.7616 83.6574C74.1629 83.8441 74.5083 84.1241 74.7976 84.4974C75.0869 84.8707 75.2316 85.3607 75.2316 85.9674C75.2316 86.4901 75.0963 86.9754 74.8256 87.4234C74.5549 87.8714 74.1583 88.2307 73.6356 88.5014C73.1129 88.7627 72.4923 88.8934 71.7736 88.8934ZM84.2528 81.0394V88.7954H82.2788V87.8154C82.0268 88.1514 81.6955 88.4174 81.2848 88.6134C80.8835 88.8001 80.4448 88.8934 79.9688 88.8934C79.3622 88.8934 78.8255 88.7674 78.3588 88.5154C77.8922 88.2541 77.5235 87.8761 77.2528 87.3814C76.9915 86.8774 76.8608 86.2801 76.8608 85.5894V81.0394H78.8208V85.3094C78.8208 85.9254 78.9748 86.4014 79.2828 86.7374C79.5908 87.0641 80.0108 87.2274 80.5428 87.2274C81.0842 87.2274 81.5088 87.0641 81.8168 86.7374C82.1248 86.4014 82.2788 85.9254 82.2788 85.3094V81.0394H84.2528ZM95.8187 80.9274C96.7707 80.9274 97.536 81.2214 98.1147 81.8094C98.7027 82.3881 98.9967 83.2001 98.9967 84.2454V88.7954H97.0367V84.5114C97.0367 83.9047 96.8827 83.4427 96.5747 83.1254C96.2667 82.7987 95.8467 82.6354 95.3147 82.6354C94.7827 82.6354 94.358 82.7987 94.0407 83.1254C93.7327 83.4427 93.5787 83.9047 93.5787 84.5114V88.7954H91.6187V84.5114C91.6187 83.9047 91.4647 83.4427 91.1567 83.1254C90.8487 82.7987 90.4287 82.6354 89.8967 82.6354C89.3554 82.6354 88.926 82.7987 88.6087 83.1254C88.3007 83.4427 88.1467 83.9047 88.1467 84.5114V88.7954H86.1867V81.0394H88.1467V81.9774C88.3987 81.6507 88.7207 81.3941 89.1127 81.2074C89.514 81.0207 89.9527 80.9274 90.4287 80.9274C91.0354 80.9274 91.5767 81.0581 92.0527 81.3194C92.5287 81.5714 92.8974 81.9354 93.1587 82.4114C93.4107 81.9634 93.7747 81.6041 94.2507 81.3334C94.736 81.0627 95.2587 80.9274 95.8187 80.9274ZM101.851 80.1154C101.505 80.1154 101.216 80.0081 100.983 79.7934C100.759 79.5694 100.647 79.2941 100.647 78.9674C100.647 78.6407 100.759 78.3701 100.983 78.1554C101.216 77.9314 101.505 77.8194 101.851 77.8194C102.196 77.8194 102.481 77.9314 102.705 78.1554C102.938 78.3701 103.055 78.6407 103.055 78.9674C103.055 79.2941 102.938 79.5694 102.705 79.7934C102.481 80.0081 102.196 80.1154 101.851 80.1154ZM102.817 81.0394V88.7954H100.857V81.0394H102.817ZM107.721 88.9214C107.086 88.9214 106.517 88.8094 106.013 88.5854C105.509 88.3521 105.108 88.0394 104.809 87.6474C104.52 87.2554 104.361 86.8214 104.333 86.3454H106.307C106.344 86.6441 106.489 86.8914 106.741 87.0874C107.002 87.2834 107.324 87.3814 107.707 87.3814C108.08 87.3814 108.37 87.3067 108.575 87.1574C108.79 87.0081 108.897 86.8167 108.897 86.5834C108.897 86.3314 108.766 86.1447 108.505 86.0234C108.253 85.8927 107.847 85.7527 107.287 85.6034C106.708 85.4634 106.232 85.3187 105.859 85.1694C105.495 85.0201 105.178 84.7914 104.907 84.4834C104.646 84.1754 104.515 83.7601 104.515 83.2374C104.515 82.8081 104.636 82.4161 104.879 82.0614C105.131 81.7067 105.486 81.4267 105.943 81.2214C106.41 81.0161 106.956 80.9134 107.581 80.9134C108.505 80.9134 109.242 81.1467 109.793 81.6134C110.344 82.0707 110.647 82.6914 110.703 83.4754H108.827C108.799 83.1674 108.668 82.9247 108.435 82.7474C108.211 82.5607 107.908 82.4674 107.525 82.4674C107.17 82.4674 106.895 82.5327 106.699 82.6634C106.512 82.7941 106.419 82.9761 106.419 83.2094C106.419 83.4707 106.55 83.6714 106.811 83.8114C107.072 83.9421 107.478 84.0774 108.029 84.2174C108.589 84.3574 109.051 84.5021 109.415 84.6514C109.779 84.8007 110.092 85.0341 110.353 85.3514C110.624 85.6594 110.764 86.0701 110.773 86.5834C110.773 87.0314 110.647 87.4327 110.395 87.7874C110.152 88.1421 109.798 88.4221 109.331 88.6274C108.874 88.8234 108.337 88.9214 107.721 88.9214ZM116.75 80.9274C117.338 80.9274 117.861 81.0581 118.318 81.3194C118.775 81.5714 119.13 81.9494 119.382 82.4534C119.643 82.9481 119.774 83.5454 119.774 84.2454V88.7954H117.814V84.5114C117.814 83.8954 117.66 83.4241 117.352 83.0974C117.044 82.7614 116.624 82.5934 116.092 82.5934C115.551 82.5934 115.121 82.7614 114.804 83.0974C114.496 83.4241 114.342 83.8954 114.342 84.5114V88.7954H112.382V78.4354H114.342V82.0054C114.594 81.6694 114.93 81.4081 115.35 81.2214C115.77 81.0254 116.237 80.9274 116.75 80.9274ZM121.134 84.8894C121.134 84.1054 121.288 83.4101 121.596 82.8034C121.913 82.1967 122.338 81.7301 122.87 81.4034C123.411 81.0767 124.013 80.9134 124.676 80.9134C125.255 80.9134 125.759 81.0301 126.188 81.2634C126.627 81.4967 126.977 81.7907 127.238 82.1454V81.0394H129.212V88.7954H127.238V87.6614C126.986 88.0254 126.636 88.3287 126.188 88.5714C125.749 88.8047 125.241 88.9214 124.662 88.9214C124.009 88.9214 123.411 88.7534 122.87 88.4174C122.338 88.0814 121.913 87.6101 121.596 87.0034C121.288 86.3874 121.134 85.6827 121.134 84.8894ZM127.238 84.9174C127.238 84.4414 127.145 84.0354 126.958 83.6994C126.771 83.3541 126.519 83.0927 126.202 82.9154C125.885 82.7287 125.544 82.6354 125.18 82.6354C124.816 82.6354 124.48 82.7241 124.172 82.9014C123.864 83.0787 123.612 83.3401 123.416 83.6854C123.229 84.0214 123.136 84.4227 123.136 84.8894C123.136 85.3561 123.229 85.7667 123.416 86.1214C123.612 86.4667 123.864 86.7327 124.172 86.9194C124.489 87.1061 124.825 87.1994 125.18 87.1994C125.544 87.1994 125.885 87.1107 126.202 86.9334C126.519 86.7467 126.771 86.4854 126.958 86.1494C127.145 85.8041 127.238 85.3934 127.238 84.9174Z" fill="#03A89E"/>
<path d="M66.4212 115.105C66.5382 116.457 67.4482 117.666 69.4112 117.666C71.8942 117.666 72.5702 115.963 72.5702 112.765C72.5702 109.658 71.7512 107.981 69.3072 107.981C67.3182 107.981 66.1612 109.229 66.1612 111.114C66.1612 113.116 67.5132 114.143 69.1772 114.143C70.0352 114.143 70.8542 113.818 71.2832 113.22C71.2832 115.638 70.6852 116.431 69.5022 116.431C68.5142 116.431 67.9552 115.95 67.7862 115.105H66.4212ZM69.4372 112.895C68.1242 112.895 67.5782 112.05 67.5782 111.075C67.5782 109.983 68.2412 109.216 69.3462 109.216C70.4252 109.216 71.1142 109.905 71.1142 111.114C71.1142 112.18 70.4902 112.895 69.4372 112.895ZM75.2061 117.679H76.7011V108.202H73.9971V109.554H75.2061V117.679ZM78.477 108.241V109.502H83.287L79.634 117.679H81.129L84.743 109.346V108.241H78.477ZM87.6104 112.726C86.6614 113.077 86.0244 113.922 86.0244 115.066C86.0244 116.795 87.4284 117.913 89.3784 117.913C91.3414 117.913 92.7454 116.795 92.7454 115.066C92.7454 113.935 92.1084 113.09 91.1464 112.726C91.9134 112.349 92.4984 111.608 92.4984 110.594C92.4984 109.229 91.4714 108.033 89.3784 108.033C87.2854 108.033 86.2584 109.216 86.2584 110.594C86.2584 111.647 86.8044 112.323 87.6104 112.726ZM89.3784 112.258C88.3904 112.258 87.6884 111.647 87.6884 110.789C87.6884 109.788 88.3644 109.268 89.3784 109.268C90.4184 109.268 91.0814 109.801 91.0814 110.776C91.0814 111.634 90.3664 112.258 89.3784 112.258ZM89.3784 113.376C90.4964 113.376 91.2894 113.948 91.2894 115.014C91.2894 115.963 90.5744 116.678 89.3784 116.678C88.1694 116.678 87.4414 115.976 87.4414 115.014C87.4414 113.909 88.2864 113.376 89.3784 113.376ZM94.7825 115.105C94.8995 116.457 95.8095 117.666 97.7725 117.666C100.255 117.666 100.931 115.963 100.931 112.765C100.931 109.658 100.112 107.981 97.6685 107.981C95.6795 107.981 94.5225 109.229 94.5225 111.114C94.5225 113.116 95.8745 114.143 97.5385 114.143C98.3965 114.143 99.2155 113.818 99.6445 113.22C99.6445 115.638 99.0465 116.431 97.8635 116.431C96.8755 116.431 96.3165 115.95 96.1475 115.105H94.7825ZM97.7985 112.895C96.4855 112.895 95.9395 112.05 95.9395 111.075C95.9395 109.983 96.6025 109.216 97.7075 109.216C98.7865 109.216 99.4755 109.905 99.4755 111.114C99.4755 112.18 98.8515 112.895 97.7985 112.895ZM103.034 115.105C103.151 116.457 104.061 117.666 106.024 117.666C108.507 117.666 109.183 115.963 109.183 112.765C109.183 109.658 108.364 107.981 105.92 107.981C103.931 107.981 102.774 109.229 102.774 111.114C102.774 113.116 104.126 114.143 105.79 114.143C106.648 114.143 107.467 113.818 107.896 113.22C107.896 115.638 107.298 116.431 106.115 116.431C105.127 116.431 104.568 115.95 104.399 115.105H103.034ZM106.05 112.895C104.737 112.895 104.191 112.05 104.191 111.075C104.191 109.983 104.854 109.216 105.959 109.216C107.038 109.216 107.727 109.905 107.727 111.114C107.727 112.18 107.103 112.895 106.05 112.895ZM110.545 108.241V109.502H115.355L111.702 117.679H113.197L116.811 109.346V108.241H110.545ZM117.82 108.241V109.502H122.63L118.977 117.679H120.472L124.086 109.346V108.241H117.82ZM125.835 115.105C125.952 116.457 126.862 117.666 128.825 117.666C131.308 117.666 131.984 115.963 131.984 112.765C131.984 109.658 131.165 107.981 128.721 107.981C126.732 107.981 125.575 109.229 125.575 111.114C125.575 113.116 126.927 114.143 128.591 114.143C129.449 114.143 130.268 113.818 130.697 113.22C130.697 115.638 130.099 116.431 128.916 116.431C127.928 116.431 127.369 115.95 127.2 115.105H125.835ZM128.851 112.895C127.538 112.895 126.992 112.05 126.992 111.075C126.992 109.983 127.655 109.216 128.76 109.216C129.839 109.216 130.528 109.905 130.528 111.114C130.528 112.18 129.904 112.895 128.851 112.895ZM134.087 115.105C134.204 116.457 135.114 117.666 137.077 117.666C139.56 117.666 140.236 115.963 140.236 112.765C140.236 109.658 139.417 107.981 136.973 107.981C134.984 107.981 133.827 109.229 133.827 111.114C133.827 113.116 135.179 114.143 136.843 114.143C137.701 114.143 138.52 113.818 138.949 113.22C138.949 115.638 138.351 116.431 137.168 116.431C136.18 116.431 135.621 115.95 135.452 115.105H134.087ZM137.103 112.895C135.79 112.895 135.244 112.05 135.244 111.075C135.244 109.983 135.907 109.216 137.012 109.216C138.091 109.216 138.78 109.905 138.78 111.114C138.78 112.18 138.156 112.895 137.103 112.895ZM146.382 117.679H147.838V115.703H149.047V114.416H147.838V108.319H146.044L141.676 114.585V115.703H146.382V117.679ZM143.379 114.416L146.447 109.827V114.416H143.379ZM150.665 108.176V113.649H152.069C152.316 112.947 152.901 112.466 153.772 112.466C155.007 112.466 155.618 113.168 155.618 114.403C155.618 115.573 155.046 116.444 153.772 116.444C152.771 116.444 152.095 115.924 151.9 115.118H150.457C150.678 116.6 151.809 117.679 153.759 117.679C155.956 117.679 157.035 116.249 157.035 114.364C157.035 112.934 156.32 111.205 153.993 111.205C153.148 111.205 152.381 111.595 152.03 112.063V109.476H156.385V108.176H150.665ZM165.917 107.266V119.148H167.399V107.266H165.917ZM182.593 117.679H184.153L180.916 108.631H179.2L175.963 117.679H177.51L178.16 115.833H181.943L182.593 117.679ZM181.527 114.624H178.576L180.058 110.425L181.527 114.624ZM190.643 117.679H192.112V113.454C192.112 111.452 190.851 110.399 189.174 110.399C188.316 110.399 187.523 110.75 187.042 111.335V110.516H185.56V117.679H187.042V113.675C187.042 112.362 187.757 111.686 188.849 111.686C189.928 111.686 190.643 112.362 190.643 113.675V117.679ZM193.508 114.065C193.508 116.275 195.003 117.796 196.862 117.796C198.058 117.796 198.916 117.224 199.371 116.613V117.679H200.866V110.516H199.371V111.556C198.929 110.971 198.097 110.399 196.888 110.399C195.003 110.399 193.508 111.855 193.508 114.065ZM199.371 114.091C199.371 115.638 198.318 116.509 197.2 116.509C196.095 116.509 195.029 115.612 195.029 114.065C195.029 112.518 196.095 111.686 197.2 111.686C198.318 111.686 199.371 112.557 199.371 114.091ZM202.319 114.065C202.319 116.275 203.814 117.796 205.699 117.796C206.869 117.796 207.727 117.211 208.182 116.6V117.796C208.182 119.226 207.324 119.928 206.18 119.928C205.153 119.928 204.36 119.421 204.139 118.68H202.67C202.852 120.266 204.269 121.215 206.18 121.215C208.416 121.215 209.677 119.746 209.677 117.796V110.516H208.182V111.556C207.74 110.945 206.869 110.399 205.699 110.399C203.814 110.399 202.319 111.855 202.319 114.065ZM208.182 114.091C208.182 115.638 207.129 116.509 206.011 116.509C204.906 116.509 203.84 115.612 203.84 114.065C203.84 112.518 204.906 111.686 206.011 111.686C207.129 111.686 208.182 112.557 208.182 114.091ZM211.623 117.679H213.105V113.675C213.105 112.362 213.82 111.686 214.912 111.686C215.991 111.686 216.706 112.362 216.706 113.675V117.679H218.175V113.454C218.175 111.452 216.927 110.399 215.328 110.399C214.405 110.399 213.599 110.75 213.105 111.348V108.059H211.623V117.679ZM219.572 114.065C219.572 116.275 221.067 117.796 222.926 117.796C224.122 117.796 224.98 117.224 225.435 116.613V117.679H226.93V110.516H225.435V111.556C224.993 110.971 224.161 110.399 222.952 110.399C221.067 110.399 219.572 111.855 219.572 114.065ZM225.435 114.091C225.435 115.638 224.382 116.509 223.264 116.509C222.159 116.509 221.093 115.612 221.093 114.065C221.093 112.518 222.159 111.686 223.264 111.686C224.382 111.686 225.435 112.557 225.435 114.091Z" fill="#7995B7"/>
<circle cx="52.7614" cy="112.746" r="6.60125" fill="#CCF5F5"/>
<path d="M54.3273 113.351C54.1568 113.314 54.0219 113.393 53.9024 113.462C53.7801 113.533 53.5474 113.722 53.4141 113.674C52.7314 113.393 52.0893 112.795 51.8114 112.11C51.7624 111.974 51.9502 111.739 52.0209 111.616C52.0896 111.496 52.1671 111.36 52.1318 111.188C52.0998 111.033 51.6864 110.507 51.5402 110.364C51.4438 110.269 51.3451 110.216 51.2437 110.208C50.8625 110.192 50.4368 110.7 50.3622 110.822C50.1751 111.081 50.1762 111.426 50.3653 111.845C50.8211 112.969 52.5451 114.666 53.6737 115.139C53.882 115.237 54.0724 115.285 54.2435 115.285C54.4109 115.285 54.5599 115.239 54.688 115.146C54.7847 115.09 55.3142 114.644 55.3003 114.252C55.2919 114.152 55.2398 114.053 55.146 113.956C55.0032 113.808 54.4806 113.383 54.3273 113.351Z" fill="#0BCAD4"/>
<rect x="23.7109" y="206.501" width="350.64" height="152.738" rx="9.5" fill="white" stroke="#263238"/>
<path d="M56.2028 232.423L53.7668 225.003H51.2188L54.7048 234.831H57.7008L61.1868 225.003H58.6528L56.2028 232.423ZM69.8313 230.925C69.8313 228.447 68.0673 226.907 65.7713 226.907C63.4893 226.907 61.7113 228.447 61.7113 230.925C61.7113 233.403 63.4473 234.943 65.7433 234.943C68.0393 234.943 69.8313 233.403 69.8313 230.925ZM64.1473 230.925C64.1473 229.595 64.9033 228.979 65.7713 228.979C66.6113 228.979 67.3953 229.595 67.3953 230.925C67.3953 232.241 66.5973 232.871 65.7433 232.871C64.8753 232.871 64.1473 232.241 64.1473 230.925ZM71.1014 234.831H73.4954V227.019H71.1014V234.831ZM72.3054 226.207C73.1454 226.207 73.7194 225.633 73.7194 224.919C73.7194 224.191 73.1454 223.617 72.3054 223.617C71.4514 223.617 70.8774 224.191 70.8774 224.919C70.8774 225.633 71.4514 226.207 72.3054 226.207ZM74.7543 230.925C74.7543 233.403 76.3783 234.943 78.6743 234.943C80.6343 234.943 82.0203 233.809 82.4263 232.003H79.8783C79.6683 232.577 79.2903 232.899 78.6323 232.899C77.7783 232.899 77.1903 232.227 77.1903 230.925C77.1903 229.623 77.7783 228.951 78.6323 228.951C79.2903 228.951 79.6823 229.301 79.8783 229.847H82.4263C82.0203 227.985 80.6343 226.907 78.6743 226.907C76.3783 226.907 74.7543 228.461 74.7543 230.925ZM87.1509 228.825C87.9489 228.825 88.6209 229.315 88.6209 230.169H85.6249C85.7649 229.301 86.3669 228.825 87.1509 228.825ZM90.8889 232.241H88.3409C88.1449 232.661 87.7669 232.997 87.0949 232.997C86.3249 232.997 85.6949 232.521 85.6109 231.499H91.0289C91.0569 231.261 91.0709 231.023 91.0709 230.799C91.0709 228.419 89.4609 226.907 87.1789 226.907C84.8549 226.907 83.2309 228.447 83.2309 230.925C83.2309 233.403 84.8829 234.943 87.1789 234.943C89.1249 234.943 90.5109 233.767 90.8889 232.241ZM100.691 234.831H103.071V230.267C103.071 228.167 101.867 226.935 100.061 226.935C99.0106 226.935 98.1706 227.397 97.6946 228.055V227.019H95.3006V234.831H97.6946V230.589C97.6946 229.525 98.2826 228.937 99.1926 228.937C100.103 228.937 100.691 229.525 100.691 230.589V234.831ZM112.378 230.925C112.378 228.447 110.614 226.907 108.318 226.907C106.036 226.907 104.258 228.447 104.258 230.925C104.258 233.403 105.994 234.943 108.29 234.943C110.586 234.943 112.378 233.403 112.378 230.925ZM106.694 230.925C106.694 229.595 107.45 228.979 108.318 228.979C109.158 228.979 109.942 229.595 109.942 230.925C109.942 232.241 109.144 232.871 108.29 232.871C107.422 232.871 106.694 232.241 106.694 230.925ZM114.026 232.115C114.026 234.145 115.16 234.831 116.784 234.831H118.002V232.801H117.148C116.616 232.801 116.42 232.605 116.42 232.143V229.007H117.988V227.019H116.42V225.115H114.026V227.019H113.074V229.007H114.026V232.115ZM122.78 228.825C123.578 228.825 124.25 229.315 124.25 230.169H121.254C121.394 229.301 121.996 228.825 122.78 228.825ZM126.518 232.241H123.97C123.774 232.661 123.396 232.997 122.724 232.997C121.954 232.997 121.324 232.521 121.24 231.499H126.658C126.686 231.261 126.7 231.023 126.7 230.799C126.7 228.419 125.09 226.907 122.808 226.907C120.484 226.907 118.86 228.447 118.86 230.925C118.86 233.403 120.512 234.943 122.808 234.943C124.754 234.943 126.14 233.767 126.518 232.241Z" fill="#526185"/>
<path d="M131.249 230.939C131.249 233.319 132.859 234.957 134.861 234.957C136.149 234.957 137.073 234.341 137.563 233.683V234.831H139.173V227.117H137.563V228.237C137.087 227.607 136.191 226.991 134.889 226.991C132.859 226.991 131.249 228.559 131.249 230.939ZM137.563 230.967C137.563 232.633 136.429 233.571 135.225 233.571C134.035 233.571 132.887 232.605 132.887 230.939C132.887 229.273 134.035 228.377 135.225 228.377C136.429 228.377 137.563 229.315 137.563 230.967ZM140.738 230.939C140.738 233.319 142.348 234.957 144.378 234.957C145.638 234.957 146.562 234.369 147.052 233.669V234.831H148.662V224.471H147.052V228.195C146.464 227.467 145.4 226.991 144.392 226.991C142.348 226.991 140.738 228.559 140.738 230.939ZM147.052 230.967C147.052 232.633 145.918 233.571 144.714 233.571C143.524 233.571 142.376 232.605 142.376 230.939C142.376 229.273 143.524 228.377 144.714 228.377C145.918 228.377 147.052 229.315 147.052 230.967ZM150.226 230.939C150.226 233.319 151.836 234.957 153.866 234.957C155.126 234.957 156.05 234.369 156.54 233.669V234.831H158.15V224.471H156.54V228.195C155.952 227.467 154.888 226.991 153.88 226.991C151.836 226.991 150.226 228.559 150.226 230.939ZM156.54 230.967C156.54 232.633 155.406 233.571 154.202 233.571C153.012 233.571 151.864 232.605 151.864 230.939C151.864 229.273 153.012 228.377 154.202 228.377C155.406 228.377 156.54 229.315 156.54 230.967ZM163.494 228.335C164.684 228.335 165.622 229.091 165.65 230.281H161.38C161.548 229.063 162.416 228.335 163.494 228.335ZM167.106 232.535H165.384C165.09 233.137 164.544 233.613 163.564 233.613C162.388 233.613 161.478 232.843 161.366 231.569H167.26C167.302 231.303 167.316 231.051 167.316 230.785C167.316 228.517 165.762 226.991 163.564 226.991C161.282 226.991 159.714 228.545 159.714 230.967C159.714 233.389 161.352 234.957 163.564 234.957C165.454 234.957 166.672 233.879 167.106 232.535ZM168.355 230.939C168.355 233.319 169.965 234.957 171.995 234.957C173.255 234.957 174.179 234.369 174.669 233.669V234.831H176.279V224.471H174.669V228.195C174.081 227.467 173.017 226.991 172.009 226.991C169.965 226.991 168.355 228.559 168.355 230.939ZM174.669 230.967C174.669 232.633 173.535 233.571 172.331 233.571C171.141 233.571 169.993 232.605 169.993 230.939C169.993 229.273 171.141 228.377 172.331 228.377C173.535 228.377 174.669 229.315 174.669 230.967ZM183.608 228.265V224.471H182.012V234.831H183.608V233.711C184.112 234.383 185.022 234.957 186.296 234.957C188.326 234.957 189.922 233.319 189.922 230.939C189.922 228.559 188.34 226.991 186.296 226.991C185.078 226.991 184.112 227.565 183.608 228.265ZM188.298 230.939C188.298 232.605 187.15 233.571 185.946 233.571C184.756 233.571 183.608 232.633 183.608 230.967C183.608 229.315 184.756 228.377 185.946 228.377C187.15 228.377 188.298 229.273 188.298 230.939ZM194.538 232.997L192.368 227.117H190.59L193.628 234.705L192.06 238.457H193.712L198.444 227.117H196.792L194.538 232.997Z" fill="#526185" fill-opacity="0.5"/>
<path d="M209.193 232.969H205.301L204.657 234.831H202.599L206.113 225.045H208.395L211.909 234.831H209.837L209.193 232.969ZM208.661 231.401L207.247 227.313L205.833 231.401H208.661ZM215.505 228.685V232.437C215.505 232.698 215.566 232.889 215.687 233.011C215.818 233.123 216.032 233.179 216.331 233.179H217.241V234.831H216.009C214.357 234.831 213.531 234.028 213.531 232.423V228.685H212.607V227.075H213.531V225.157H215.505V227.075H217.241V228.685H215.505ZM223.019 226.963C223.607 226.963 224.129 227.093 224.587 227.355C225.044 227.607 225.399 227.985 225.651 228.489C225.912 228.983 226.043 229.581 226.043 230.281V234.831H224.083V230.547C224.083 229.931 223.929 229.459 223.621 229.133C223.313 228.797 222.893 228.629 222.361 228.629C221.819 228.629 221.39 228.797 221.073 229.133C220.765 229.459 220.611 229.931 220.611 230.547V234.831H218.651V224.471H220.611V228.041C220.863 227.705 221.199 227.443 221.619 227.257C222.039 227.061 222.505 226.963 223.019 226.963ZM228.9 226.151C228.555 226.151 228.266 226.043 228.032 225.829C227.808 225.605 227.696 225.329 227.696 225.003C227.696 224.676 227.808 224.405 228.032 224.191C228.266 223.967 228.555 223.855 228.9 223.855C229.246 223.855 229.53 223.967 229.754 224.191C229.988 224.405 230.104 224.676 230.104 225.003C230.104 225.329 229.988 225.605 229.754 225.829C229.53 226.043 229.246 226.151 228.9 226.151ZM229.866 227.075V234.831H227.906V227.075H229.866ZM233.763 228.279C234.015 227.868 234.342 227.546 234.743 227.313C235.154 227.079 235.62 226.963 236.143 226.963V229.021H235.625C235.009 229.021 234.542 229.165 234.225 229.455C233.917 229.744 233.763 230.248 233.763 230.967V234.831H231.803V227.075H233.763V228.279ZM236.959 230.925C236.959 230.141 237.113 229.445 237.421 228.839C237.738 228.232 238.163 227.765 238.695 227.439C239.236 227.112 239.838 226.949 240.501 226.949C241.08 226.949 241.584 227.065 242.013 227.299C242.452 227.532 242.802 227.826 243.063 228.181V227.075H245.037V234.831H243.063V233.697C242.811 234.061 242.461 234.364 242.013 234.607C241.574 234.84 241.066 234.957 240.487 234.957C239.834 234.957 239.236 234.789 238.695 234.453C238.163 234.117 237.738 233.645 237.421 233.039C237.113 232.423 236.959 231.718 236.959 230.925ZM243.063 230.953C243.063 230.477 242.97 230.071 242.783 229.735C242.596 229.389 242.344 229.128 242.027 228.951C241.71 228.764 241.369 228.671 241.005 228.671C240.641 228.671 240.305 228.759 239.997 228.937C239.689 229.114 239.437 229.375 239.241 229.721C239.054 230.057 238.961 230.458 238.961 230.925C238.961 231.391 239.054 231.802 239.241 232.157C239.437 232.502 239.689 232.768 239.997 232.955C240.314 233.141 240.65 233.235 241.005 233.235C241.369 233.235 241.71 233.146 242.027 232.969C242.344 232.782 242.596 232.521 242.783 232.185C242.97 231.839 243.063 231.429 243.063 230.953Z" fill="#03A89E"/>
<path d="M71.0678 263.714H72.5498V254.679H71.0678V263.714ZM79.5785 263.714H81.0475V259.489C81.0475 257.487 79.7865 256.434 78.1095 256.434C77.2515 256.434 76.4585 256.785 75.9775 257.37V256.551H74.4955V263.714H75.9775V259.71C75.9775 258.397 76.6925 257.721 77.7845 257.721C78.8635 257.721 79.5785 258.397 79.5785 259.71V263.714ZM88.2809 261.712C88.2029 259.125 84.1599 259.931 84.1599 258.488C84.1599 258.007 84.5759 257.682 85.3689 257.682C86.1749 257.682 86.6559 258.111 86.7079 258.735H88.1899C88.1119 257.305 87.0459 256.434 85.4209 256.434C83.7309 256.434 82.6649 257.357 82.6649 258.501C82.6649 261.127 86.8249 260.321 86.8249 261.725C86.8249 262.219 86.3699 262.583 85.5119 262.583C84.6929 262.583 84.1339 262.102 84.0819 261.517H82.5479C82.6129 262.817 83.8219 263.831 85.5379 263.831C87.2279 263.831 88.2809 262.921 88.2809 261.712ZM90.1162 261.725C90.1162 263.181 90.9092 263.714 92.1832 263.714H93.3532V262.479H92.4432C91.8192 262.479 91.6112 262.258 91.6112 261.725V257.76H93.3532V256.551H91.6112V254.77H90.1162V256.551H89.2712V257.76H90.1162V261.725ZM94.2251 260.1C94.2251 262.31 95.7201 263.831 97.5791 263.831C98.7751 263.831 99.6331 263.259 100.088 262.648V263.714H101.583V256.551H100.088V257.591C99.6461 257.006 98.8141 256.434 97.6051 256.434C95.7201 256.434 94.2251 257.89 94.2251 260.1ZM100.088 260.126C100.088 261.673 99.0351 262.544 97.9171 262.544C96.8121 262.544 95.7461 261.647 95.7461 260.1C95.7461 258.553 96.8121 257.721 97.9171 257.721C99.0351 257.721 100.088 258.592 100.088 260.126ZM108.613 263.714H110.082V259.489C110.082 257.487 108.821 256.434 107.144 256.434C106.286 256.434 105.493 256.785 105.012 257.37V256.551H103.53V263.714H105.012V259.71C105.012 258.397 105.727 257.721 106.819 257.721C107.898 257.721 108.613 258.397 108.613 259.71V263.714ZM112.206 261.725C112.206 263.181 112.999 263.714 114.273 263.714H115.443V262.479H114.533C113.909 262.479 113.701 262.258 113.701 261.725V257.76H115.443V256.551H113.701V254.77H112.206V256.551H111.361V257.76H112.206V261.725ZM119.692 259.177C119.692 261.894 121.759 263.792 124.307 263.792C126.192 263.792 127.817 262.856 128.506 261.088H126.725C126.244 262.05 125.386 262.505 124.307 262.505C122.513 262.505 121.213 261.218 121.213 259.177C121.213 257.136 122.513 255.862 124.307 255.862C125.386 255.862 126.244 256.317 126.725 257.279H128.506C127.817 255.511 126.192 254.562 124.307 254.562C121.759 254.562 119.692 256.473 119.692 259.177ZM129.747 260.1C129.747 262.31 131.242 263.831 133.101 263.831C134.297 263.831 135.155 263.259 135.61 262.648V263.714H137.105V256.551H135.61V257.591C135.168 257.006 134.336 256.434 133.127 256.434C131.242 256.434 129.747 257.89 129.747 260.1ZM135.61 260.126C135.61 261.673 134.557 262.544 133.439 262.544C132.334 262.544 131.268 261.647 131.268 260.1C131.268 258.553 132.334 257.721 133.439 257.721C134.557 257.721 135.61 258.592 135.61 260.126ZM139.051 263.714H140.533V254.094H139.051V263.714ZM142.479 263.714H143.961V254.094H142.479V263.714ZM155.381 263.714H156.941L153.704 254.666H151.988L148.751 263.714H150.298L150.948 261.868H154.731L155.381 263.714ZM154.315 260.659H151.364L152.846 256.46L154.315 260.659ZM163.431 263.714H164.9V259.489C164.9 257.487 163.639 256.434 161.962 256.434C161.104 256.434 160.311 256.785 159.83 257.37V256.551H158.348V263.714H159.83V259.71C159.83 258.397 160.545 257.721 161.637 257.721C162.716 257.721 163.431 258.397 163.431 259.71V263.714ZM166.296 260.1C166.296 262.31 167.791 263.831 169.65 263.831C170.846 263.831 171.704 263.259 172.159 262.648V263.714H173.654V256.551H172.159V257.591C171.717 257.006 170.885 256.434 169.676 256.434C167.791 256.434 166.296 257.89 166.296 260.1ZM172.159 260.126C172.159 261.673 171.106 262.544 169.988 262.544C168.883 262.544 167.817 261.647 167.817 260.1C167.817 258.553 168.883 257.721 169.988 257.721C171.106 257.721 172.159 258.592 172.159 260.126ZM175.601 263.714H177.083V260.633L179.735 263.714H181.737L178.435 260.139L181.737 256.551H179.683L177.083 259.684V254.094H175.601V263.714ZM182.799 263.714H184.281V259.71C184.281 258.397 184.996 257.721 186.088 257.721C187.167 257.721 187.882 258.397 187.882 259.71V263.714H189.351V259.489C189.351 257.487 188.103 256.434 186.504 256.434C185.581 256.434 184.775 256.785 184.281 257.383V254.094H182.799V263.714ZM190.748 260.1C190.748 262.31 192.243 263.831 194.102 263.831C195.298 263.831 196.156 263.259 196.611 262.648V263.714H198.106V256.551H196.611V257.591C196.169 257.006 195.337 256.434 194.128 256.434C192.243 256.434 190.748 257.89 190.748 260.1ZM196.611 260.126C196.611 261.673 195.558 262.544 194.44 262.544C193.335 262.544 192.269 261.647 192.269 260.1C192.269 258.553 193.335 257.721 194.44 257.721C195.558 257.721 196.611 258.592 196.611 260.126Z" fill="#7995B7"/>
<circle cx="57.694" cy="258.781" r="6.60125" fill="#CCF5F5"/>
<path d="M59.2599 259.386C59.0894 259.349 58.9545 259.428 58.835 259.497C58.7127 259.569 58.4801 259.757 58.3467 259.709C57.664 259.428 57.0219 258.83 56.744 258.145C56.695 258.009 56.8828 257.775 56.9536 257.651C57.0222 257.531 57.0997 257.395 57.0644 257.223C57.0324 257.069 56.619 256.543 56.4728 256.399C56.3764 256.304 56.2777 256.252 56.1763 256.243C55.7951 256.227 55.3694 256.735 55.2948 256.857C55.1077 257.116 55.1088 257.462 55.2979 257.88C55.7537 259.005 57.4778 260.701 58.6063 261.174C58.8146 261.272 59.005 261.321 59.1761 261.321C59.3435 261.321 59.4926 261.274 59.6207 261.181C59.7173 261.126 60.2468 260.679 60.2329 260.287C60.2245 260.188 60.1724 260.088 60.0786 259.991C59.9358 259.844 59.4132 259.418 59.2599 259.386Z" fill="#0BCAD4"/>
<rect x="70.0928" y="281.171" width="285.071" height="56.9395" rx="4" fill="#F1F6FB"/>
<rect x="51.0928" y="291.671" width="35" height="35" rx="17.5" fill="#FF5367"/>
<path d="M73.7236 310.802C73.6671 310.86 73.4537 311.108 73.255 311.312C72.0899 312.595 69.0504 314.695 67.4596 315.336C67.218 315.439 66.6071 315.657 66.2808 315.671C65.9681 315.671 65.67 315.599 65.3855 315.453C65.0309 315.249 64.7465 314.928 64.5906 314.549C64.4902 314.286 64.3344 313.499 64.3344 313.485C64.1785 312.624 64.0928 311.225 64.0928 309.679C64.0928 308.206 64.1785 306.864 64.3061 305.99C64.3207 305.976 64.4766 304.998 64.6471 304.663C64.9598 304.051 65.5706 303.671 66.2243 303.671H66.2808C66.7065 303.686 67.6018 304.066 67.6018 304.08C69.1069 304.722 72.0762 306.719 73.2696 308.046C73.2696 308.046 73.6057 308.387 73.7518 308.6C73.9798 308.906 74.0928 309.285 74.0928 309.664C74.0928 310.087 73.9652 310.481 73.7236 310.802Z" fill="#F1F6FB"/>
<rect x="105.206" y="304.702" width="235.143" height="2.93952" rx="1.46976" fill="#BCCADB"/>
<path d="M102.093 306.171C102.093 305.067 102.988 304.171 104.093 304.171H141.719V308.171H104.093C102.988 308.171 102.093 307.276 102.093 306.171Z" fill="#FF5367"/>
<ellipse cx="140.788" cy="306.171" rx="5.05062" ry="5" fill="#FF5367"/>
<path d="M102.808 321.156C102.808 319.895 103.002 318.916 103.391 318.219C103.779 317.523 104.476 317.174 105.481 317.174C106.485 317.174 107.182 317.523 107.571 318.219C107.959 318.916 108.154 319.895 108.154 321.156C108.154 322.44 107.959 323.433 107.571 324.137C107.182 324.841 106.485 325.193 105.481 325.193C104.469 325.193 103.768 324.841 103.38 324.137C102.998 323.433 102.808 322.44 102.808 321.156ZM107.395 321.156C107.395 320.474 107.347 319.899 107.252 319.429C107.156 318.96 106.969 318.582 106.691 318.296C106.412 318.01 106.009 317.867 105.481 317.867C104.953 317.867 104.549 318.01 104.271 318.296C103.992 318.582 103.805 318.96 103.71 319.429C103.614 319.899 103.567 320.474 103.567 321.156C103.567 321.86 103.614 322.451 103.71 322.927C103.805 323.397 103.992 323.774 104.271 324.06C104.549 324.346 104.953 324.489 105.481 324.489C106.009 324.489 106.412 324.346 106.691 324.06C106.969 323.774 107.156 323.397 107.252 322.927C107.347 322.451 107.395 321.86 107.395 321.156ZM109.586 321.156C109.586 319.895 109.78 318.916 110.169 318.219C110.558 317.523 111.254 317.174 112.259 317.174C113.264 317.174 113.96 317.523 114.349 318.219C114.738 318.916 114.932 319.895 114.932 321.156C114.932 322.44 114.738 323.433 114.349 324.137C113.96 324.841 113.264 325.193 112.259 325.193C111.247 325.193 110.547 324.841 110.158 324.137C109.777 323.433 109.586 322.44 109.586 321.156ZM114.173 321.156C114.173 320.474 114.125 319.899 114.03 319.429C113.935 318.96 113.748 318.582 113.469 318.296C113.19 318.01 112.787 317.867 112.259 317.867C111.731 317.867 111.328 318.01 111.049 318.296C110.77 318.582 110.583 318.96 110.488 319.429C110.393 319.899 110.345 320.474 110.345 321.156C110.345 321.86 110.393 322.451 110.488 322.927C110.583 323.397 110.77 323.774 111.049 324.06C111.328 324.346 111.731 324.489 112.259 324.489C112.787 324.489 113.19 324.346 113.469 324.06C113.748 323.774 113.935 323.397 114.03 322.927C114.125 322.451 114.173 321.86 114.173 321.156ZM116.661 325.226C116.5 325.226 116.364 325.171 116.254 325.061C116.152 324.951 116.1 324.816 116.1 324.654C116.1 324.493 116.152 324.361 116.254 324.258C116.364 324.148 116.5 324.093 116.661 324.093C116.815 324.093 116.944 324.148 117.046 324.258C117.156 324.361 117.211 324.493 117.211 324.654C117.211 324.816 117.156 324.951 117.046 325.061C116.944 325.171 116.815 325.226 116.661 325.226ZM116.661 320.441C116.5 320.441 116.364 320.386 116.254 320.276C116.152 320.166 116.1 320.031 116.1 319.869C116.1 319.708 116.152 319.576 116.254 319.473C116.364 319.363 116.5 319.308 116.661 319.308C116.815 319.308 116.944 319.363 117.046 319.473C117.156 319.576 117.211 319.708 117.211 319.869C117.211 320.031 117.156 320.166 117.046 320.276C116.944 320.386 116.815 320.441 116.661 320.441ZM118.241 324.566C119.59 323.554 120.631 322.649 121.365 321.849C122.105 321.043 122.476 320.254 122.476 319.484C122.476 318.978 122.347 318.575 122.091 318.274C121.841 317.966 121.431 317.812 120.859 317.812C120.301 317.812 119.869 317.988 119.561 318.34C119.26 318.685 119.091 319.147 119.055 319.726H118.307C118.351 318.912 118.6 318.282 119.055 317.834C119.517 317.38 120.118 317.152 120.859 317.152C121.57 317.152 122.146 317.354 122.586 317.757C123.026 318.153 123.246 318.718 123.246 319.451C123.246 320.339 122.875 321.2 122.135 322.036C121.401 322.865 120.496 323.675 119.418 324.467H123.488V325.116H118.241V324.566ZM124.69 321.156C124.69 319.895 124.884 318.916 125.273 318.219C125.661 317.523 126.358 317.174 127.363 317.174C128.367 317.174 129.064 317.523 129.453 318.219C129.841 318.916 130.036 319.895 130.036 321.156C130.036 322.44 129.841 323.433 129.453 324.137C129.064 324.841 128.367 325.193 127.363 325.193C126.351 325.193 125.65 324.841 125.262 324.137C124.88 323.433 124.69 322.44 124.69 321.156ZM129.277 321.156C129.277 320.474 129.229 319.899 129.134 319.429C129.038 318.96 128.851 318.582 128.573 318.296C128.294 318.01 127.891 317.867 127.363 317.867C126.835 317.867 126.431 318.01 126.153 318.296C125.874 318.582 125.687 318.96 125.592 319.429C125.496 319.899 125.449 320.474 125.449 321.156C125.449 321.86 125.496 322.451 125.592 322.927C125.687 323.397 125.874 323.774 126.153 324.06C126.431 324.346 126.835 324.489 127.363 324.489C127.891 324.489 128.294 324.346 128.573 324.06C128.851 323.774 129.038 323.397 129.134 322.927C129.229 322.451 129.277 321.86 129.277 321.156ZM131.765 325.226C131.604 325.226 131.468 325.171 131.358 325.061C131.255 324.951 131.204 324.816 131.204 324.654C131.204 324.493 131.255 324.361 131.358 324.258C131.468 324.148 131.604 324.093 131.765 324.093C131.919 324.093 132.047 324.148 132.15 324.258C132.26 324.361 132.315 324.493 132.315 324.654C132.315 324.816 132.26 324.951 132.15 325.061C132.047 325.171 131.919 325.226 131.765 325.226ZM131.765 320.441C131.604 320.441 131.468 320.386 131.358 320.276C131.255 320.166 131.204 320.031 131.204 319.869C131.204 319.708 131.255 319.576 131.358 319.473C131.468 319.363 131.604 319.308 131.765 319.308C131.919 319.308 132.047 319.363 132.15 319.473C132.26 319.576 132.315 319.708 132.315 319.869C132.315 320.031 132.26 320.166 132.15 320.276C132.047 320.386 131.919 320.441 131.765 320.441ZM133.498 321.156C133.498 319.895 133.693 318.916 134.081 318.219C134.47 317.523 135.167 317.174 136.171 317.174C137.176 317.174 137.873 317.523 138.261 318.219C138.65 318.916 138.844 319.895 138.844 321.156C138.844 322.44 138.65 323.433 138.261 324.137C137.873 324.841 137.176 325.193 136.171 325.193C135.159 325.193 134.459 324.841 134.07 324.137C133.689 323.433 133.498 322.44 133.498 321.156ZM138.085 321.156C138.085 320.474 138.038 319.899 137.942 319.429C137.847 318.96 137.66 318.582 137.381 318.296C137.103 318.01 136.699 317.867 136.171 317.867C135.643 317.867 135.24 318.01 134.961 318.296C134.683 318.582 134.496 318.96 134.4 319.429C134.305 319.899 134.257 320.474 134.257 321.156C134.257 321.86 134.305 322.451 134.4 322.927C134.496 323.397 134.683 323.774 134.961 324.06C135.24 324.346 135.643 324.489 136.171 324.489C136.699 324.489 137.103 324.346 137.381 324.06C137.66 323.774 137.847 323.397 137.942 322.927C138.038 322.451 138.085 321.86 138.085 321.156ZM145.249 317.944H141.223V320.76C141.406 320.504 141.674 320.295 142.026 320.133C142.378 319.965 142.759 319.88 143.17 319.88C143.771 319.88 144.262 320.005 144.644 320.254C145.025 320.496 145.3 320.815 145.469 321.211C145.637 321.6 145.722 322.018 145.722 322.465C145.722 322.979 145.623 323.444 145.425 323.862C145.234 324.273 144.937 324.599 144.534 324.841C144.138 325.083 143.643 325.204 143.049 325.204C142.293 325.204 141.681 325.01 141.212 324.621C140.742 324.225 140.456 323.694 140.354 323.026H141.113C141.208 323.51 141.428 323.884 141.773 324.148C142.117 324.412 142.543 324.544 143.049 324.544C143.687 324.544 144.167 324.357 144.49 323.983C144.82 323.602 144.985 323.1 144.985 322.476C144.985 321.868 144.82 321.395 144.49 321.057C144.16 320.713 143.687 320.54 143.071 320.54C142.645 320.54 142.271 320.639 141.949 320.837C141.626 321.035 141.388 321.303 141.234 321.64H140.508V317.273H145.249V317.944Z" fill="#7995B7"/>
<path d="M296.517 321.156C296.517 319.895 296.711 318.916 297.1 318.219C297.488 317.523 298.185 317.174 299.19 317.174C300.194 317.174 300.891 317.523 301.28 318.219C301.668 318.916 301.863 319.895 301.863 321.156C301.863 322.44 301.668 323.433 301.28 324.137C300.891 324.841 300.194 325.193 299.19 325.193C298.178 325.193 297.477 324.841 297.089 324.137C296.707 323.433 296.517 322.44 296.517 321.156ZM301.104 321.156C301.104 320.474 301.056 319.899 300.961 319.429C300.865 318.96 300.678 318.582 300.4 318.296C300.121 318.01 299.718 317.867 299.19 317.867C298.662 317.867 298.258 318.01 297.98 318.296C297.701 318.582 297.514 318.96 297.419 319.429C297.323 319.899 297.276 320.474 297.276 321.156C297.276 321.86 297.323 322.451 297.419 322.927C297.514 323.397 297.701 323.774 297.98 324.06C298.258 324.346 298.662 324.489 299.19 324.489C299.718 324.489 300.121 324.346 300.4 324.06C300.678 323.774 300.865 323.397 300.961 322.927C301.056 322.451 301.104 321.86 301.104 321.156ZM303.141 324.566C304.49 323.554 305.532 322.649 306.265 321.849C307.006 321.043 307.376 320.254 307.376 319.484C307.376 318.978 307.248 318.575 306.991 318.274C306.742 317.966 306.331 317.812 305.759 317.812C305.202 317.812 304.769 317.988 304.461 318.34C304.16 318.685 303.992 319.147 303.955 319.726H303.207C303.251 318.912 303.5 318.282 303.955 317.834C304.417 317.38 305.018 317.152 305.759 317.152C306.47 317.152 307.046 317.354 307.486 317.757C307.926 318.153 308.146 318.718 308.146 319.451C308.146 320.339 307.776 321.2 307.035 322.036C306.302 322.865 305.396 323.675 304.318 324.467H308.388V325.116H303.141V324.566ZM309.887 325.226C309.726 325.226 309.59 325.171 309.48 325.061C309.377 324.951 309.326 324.816 309.326 324.654C309.326 324.493 309.377 324.361 309.48 324.258C309.59 324.148 309.726 324.093 309.887 324.093C310.041 324.093 310.169 324.148 310.272 324.258C310.382 324.361 310.437 324.493 310.437 324.654C310.437 324.816 310.382 324.951 310.272 325.061C310.169 325.171 310.041 325.226 309.887 325.226ZM309.887 320.441C309.726 320.441 309.59 320.386 309.48 320.276C309.377 320.166 309.326 320.031 309.326 319.869C309.326 319.708 309.377 319.576 309.48 319.473C309.59 319.363 309.726 319.308 309.887 319.308C310.041 319.308 310.169 319.363 310.272 319.473C310.382 319.576 310.437 319.708 310.437 319.869C310.437 320.031 310.382 320.166 310.272 320.276C310.169 320.386 310.041 320.441 309.887 320.441ZM316.592 317.944H312.566V320.76C312.75 320.504 313.017 320.295 313.369 320.133C313.721 319.965 314.103 319.88 314.513 319.88C315.115 319.88 315.606 320.005 315.987 320.254C316.369 320.496 316.644 320.815 316.812 321.211C316.981 321.6 317.065 322.018 317.065 322.465C317.065 322.979 316.966 323.444 316.768 323.862C316.578 324.273 316.281 324.599 315.877 324.841C315.481 325.083 314.986 325.204 314.392 325.204C313.637 325.204 313.025 325.01 312.555 324.621C312.086 324.225 311.8 323.694 311.697 323.026H312.456C312.552 323.51 312.772 323.884 313.116 324.148C313.461 324.412 313.886 324.544 314.392 324.544C315.03 324.544 315.511 324.357 315.833 323.983C316.163 323.602 316.328 323.1 316.328 322.476C316.328 321.868 316.163 321.395 315.833 321.057C315.503 320.713 315.03 320.54 314.414 320.54C313.989 320.54 313.615 320.639 313.292 320.837C312.97 321.035 312.731 321.303 312.577 321.64H311.851V317.273H316.592V317.944ZM318.376 319.297C318.428 318.63 318.684 318.106 319.146 317.724C319.616 317.336 320.221 317.141 320.961 317.141C321.453 317.141 321.874 317.229 322.226 317.405C322.578 317.581 322.842 317.823 323.018 318.131C323.202 318.432 323.293 318.773 323.293 319.154C323.293 319.616 323.158 320.016 322.886 320.353C322.615 320.691 322.23 320.9 321.731 320.98V321.035C322.252 321.138 322.666 321.365 322.974 321.717C323.282 322.062 323.436 322.517 323.436 323.081C323.436 323.712 323.224 324.229 322.798 324.632C322.38 325.028 321.772 325.226 320.972 325.226C320.21 325.226 319.583 325.028 319.091 324.632C318.6 324.229 318.318 323.661 318.244 322.927H318.992C319.058 323.419 319.264 323.818 319.608 324.126C319.953 324.427 320.408 324.577 320.972 324.577C321.53 324.577 321.955 324.431 322.248 324.137C322.549 323.844 322.699 323.47 322.699 323.015C322.699 321.901 321.896 321.343 320.29 321.343H320.048V320.694H320.301C321.797 320.694 322.545 320.207 322.545 319.231C322.545 318.806 322.406 318.465 322.127 318.208C321.849 317.944 321.453 317.812 320.939 317.812C320.441 317.812 320.026 317.944 319.696 318.208C319.374 318.465 319.183 318.828 319.124 319.297H318.376ZM325.141 325.226C324.98 325.226 324.844 325.171 324.734 325.061C324.631 324.951 324.58 324.816 324.58 324.654C324.58 324.493 324.631 324.361 324.734 324.258C324.844 324.148 324.98 324.093 325.141 324.093C325.295 324.093 325.423 324.148 325.526 324.258C325.636 324.361 325.691 324.493 325.691 324.654C325.691 324.816 325.636 324.951 325.526 325.061C325.423 325.171 325.295 325.226 325.141 325.226ZM325.141 320.441C324.98 320.441 324.844 320.386 324.734 320.276C324.631 320.166 324.58 320.031 324.58 319.869C324.58 319.708 324.631 319.576 324.734 319.473C324.844 319.363 324.98 319.308 325.141 319.308C325.295 319.308 325.423 319.363 325.526 319.473C325.636 319.576 325.691 319.708 325.691 319.869C325.691 320.031 325.636 320.166 325.526 320.276C325.423 320.386 325.295 320.441 325.141 320.441ZM326.533 323.301V322.718L330.537 317.328H331.45V322.63H332.627V323.301H331.45V325.171H330.691V323.301H326.533ZM330.724 318.175L327.424 322.63H330.724V318.175ZM333.466 324.566C334.816 323.554 335.857 322.649 336.59 321.849C337.331 321.043 337.701 320.254 337.701 319.484C337.701 318.978 337.573 318.575 337.316 318.274C337.067 317.966 336.656 317.812 336.084 317.812C335.527 317.812 335.094 317.988 334.786 318.34C334.486 318.685 334.317 319.147 334.28 319.726H333.532C333.576 318.912 333.826 318.282 334.28 317.834C334.742 317.38 335.344 317.152 336.084 317.152C336.796 317.152 337.371 317.354 337.811 317.757C338.251 318.153 338.471 318.718 338.471 319.451C338.471 320.339 338.101 321.2 337.36 322.036C336.627 322.865 335.721 323.675 334.643 324.467H338.713V325.116H333.466V324.566Z" fill="#7995B7"/>
<rect x="0.850586" y="260.421" width="40" height="40" rx="20" fill="#F9E4F3"/>
<g clip-path="url(#clip0_939_5661)">
<path d="M23.8161 279.642C23.8161 280.352 23.8421 281.054 23.8075 281.764C23.7469 283.306 22.4482 284.51 20.8724 284.519C19.2967 284.527 17.9547 283.349 17.9027 281.808C17.8508 280.37 17.8508 278.923 17.9027 277.485C17.9547 275.995 19.3313 274.8 20.8724 274.8C22.4049 274.808 23.7296 276.03 23.7988 277.528C23.8335 278.23 23.8075 278.932 23.8161 279.642C23.8075 279.642 23.8075 279.642 23.8161 279.642Z" fill="#F959AF"/>
<path d="M14.5086 278.074C14.3874 275.986 15.0541 274.262 16.6385 272.937C17.9112 271.863 19.4091 271.387 21.0714 271.421C24.2662 271.499 27.5303 274.106 27.2359 277.944C27.5822 277.909 27.9372 277.84 28.2835 277.84C29.2446 277.849 29.8333 278.455 29.842 279.425C29.8506 280.101 29.8506 280.785 29.842 281.461C29.8247 282.5 29.2099 283.072 28.119 283.063C27.106 283.054 26.4913 282.457 26.4913 281.452C26.4827 280.179 26.448 278.914 26.5 277.641C26.6298 274.574 23.9026 271.993 20.6299 272.149C18.171 272.261 16.1277 273.743 15.4697 275.882C15.3052 276.411 15.2446 276.982 15.2273 277.537C15.1926 278.836 15.2186 280.135 15.2186 281.435C15.2186 282.509 14.6212 283.106 13.5736 283.106C12.474 283.106 11.8679 282.526 11.8679 281.452C11.8593 280.846 11.8853 280.239 11.8679 279.633C11.8073 278.299 12.7684 277.658 14.1277 277.952C14.2229 277.978 14.3182 278.013 14.5086 278.074Z" fill="#F959AF"/>
<path d="M21.2188 286.528C21.2188 287.169 21.2188 287.888 21.2188 288.694C21.695 288.694 22.1625 288.668 22.6214 288.703C22.7859 288.711 23.0457 288.832 23.0803 288.954C23.1755 289.292 22.9418 289.404 22.6387 289.404C21.6864 289.404 20.734 289.404 19.7816 289.404C19.5392 289.404 19.2794 289.439 19.0457 289.387C18.9071 289.352 18.7946 289.179 18.6734 289.058C18.8032 288.936 18.9158 288.72 19.0543 288.711C19.5045 288.668 19.9721 288.694 20.4569 288.694C20.4569 287.906 20.4569 287.161 20.4569 286.398C19.4699 286.277 18.5262 286.017 17.721 285.428C16.7167 284.692 16.076 283.748 15.9894 282.474C15.9721 282.215 15.9807 281.955 16.3357 281.946C16.6561 281.937 16.682 282.163 16.6993 282.422C16.7946 283.8 17.7989 284.934 19.3487 285.446C21.2708 286.069 23.4699 285.437 24.4483 283.921C24.734 283.479 24.8465 282.916 24.9851 282.396C25.0457 282.145 25.0803 281.929 25.3833 281.955C25.669 281.972 25.7123 282.189 25.7037 282.422C25.6084 283.947 24.8032 285.021 23.4959 285.705C22.8119 286.069 22.0327 286.242 21.2188 286.528Z" fill="#F959AF"/>
</g>
<rect x="1.27881" y="67.7954" width="40" height="40" rx="20" fill="#DAEFFE"/>
<g clip-path="url(#clip1_939_5661)">
<path d="M20.9659 79.1387H21.9681C22.0132 79.1474 22.0582 79.1579 22.1038 79.1654C22.5447 79.2372 22.994 79.2756 23.4253 79.3854C27.5669 80.4413 30.124 84.4777 29.3173 88.6782C28.6563 92.1264 25.7398 94.7859 22.2503 95.1011C20.1375 95.2919 18.2227 94.7529 16.5487 93.444C14.9328 92.1807 13.9432 90.5261 13.5841 88.5024C13.5336 88.2165 13.5056 87.9267 13.4639 87.6391V86.637C13.4731 86.592 13.4839 86.5469 13.491 86.5009C13.5449 86.136 13.5799 85.7674 13.6547 85.4067C14.2977 82.3029 16.9445 79.7704 20.0711 79.2606C20.3688 79.2138 20.6682 79.1796 20.9659 79.1387ZM21.3701 83.1254C20.9375 83.1254 20.5179 83.1918 20.1334 83.3976C19.7037 83.6277 19.3697 83.9433 19.2983 84.4573C19.259 84.7495 19.4051 84.9841 19.6741 85.086C19.963 85.1958 20.1697 85.1428 20.3421 84.8614C20.6094 84.4201 21.0031 84.289 21.4862 84.3295C21.8916 84.3633 22.1768 84.5549 22.2566 84.8576C22.2912 84.9761 22.295 85.1015 22.2676 85.2219C22.2403 85.3423 22.1828 85.4537 22.1004 85.5457C21.9268 85.7457 21.7321 85.9265 21.5196 86.0847C20.862 86.5648 20.5918 87.2086 20.6478 88.0081C20.6737 88.3755 20.8023 88.5112 21.1664 88.5354C21.6541 88.5676 21.842 88.4035 21.8386 87.9204C21.8357 87.4766 22.001 87.123 22.3514 86.8529C22.4132 86.8053 22.4729 86.7548 22.5334 86.7055C22.87 86.4291 23.1668 86.1181 23.3756 85.7315C23.8725 84.813 23.5539 83.8356 22.6115 83.3859C22.2186 83.1972 21.8015 83.1254 21.3701 83.1254ZM22.0382 90.071C22.0357 89.9133 21.9868 89.7598 21.8976 89.6297C21.8084 89.4996 21.6828 89.3987 21.5365 89.3396C21.3902 89.2805 21.2298 89.2658 21.0752 89.2974C20.9206 89.3289 20.7788 89.4053 20.6674 89.5171C20.5561 89.6288 20.4801 89.7708 20.449 89.9255C20.4179 90.0801 20.4331 90.2405 20.4927 90.3866C20.5522 90.5326 20.6535 90.6579 20.7839 90.7467C20.9143 90.8356 21.0679 90.884 21.2257 90.886C21.3326 90.8861 21.4386 90.8651 21.5374 90.8241C21.6362 90.7831 21.7259 90.7229 21.8013 90.647C21.8767 90.5711 21.9363 90.481 21.9767 90.3819C22.0171 90.2828 22.0374 90.1767 22.0365 90.0698L22.0382 90.071Z" fill="#65BEFF"/>
</g>
<path d="M142.096 6.29417H143.603C143.658 5.78817 143.977 5.30417 144.725 5.30417C145.429 5.30417 145.814 5.67817 145.814 6.30517C145.814 7.09717 145.154 7.35017 144.252 7.35017H143.933V8.61517H144.252C145.396 8.61517 145.968 8.94517 145.968 9.84717C145.968 10.4852 145.572 10.9692 144.802 10.9692C143.977 10.9692 143.515 10.4742 143.482 9.78117H141.986C142.052 11.4642 143.251 12.2562 144.835 12.2562C146.518 12.2562 147.442 11.2882 147.442 9.97917C147.442 8.89017 146.903 8.23017 146.089 7.97717V7.93317C146.672 7.73517 147.299 7.11917 147.299 6.11817C147.299 4.93017 146.419 3.99517 144.769 3.99517C143.229 3.99517 142.173 4.80917 142.096 6.29417ZM148.659 8.08717C148.659 10.4302 149.363 12.1792 151.629 12.1792C153.895 12.1792 154.599 10.4302 154.599 8.08717C154.599 5.76617 153.895 4.02817 151.629 4.02817C149.363 4.02817 148.659 5.76617 148.659 8.08717ZM153.081 8.08717C153.081 9.51717 152.927 10.7492 151.629 10.7492C150.331 10.7492 150.177 9.51717 150.177 8.08717C150.177 6.71217 150.331 5.45817 151.629 5.45817C152.927 5.45817 153.081 6.71217 153.081 8.08717ZM163.297 10.4632C163.253 8.23017 159.876 8.92317 159.876 7.81217C159.876 7.46017 160.173 7.22917 160.745 7.22917C161.35 7.22917 161.724 7.54817 161.768 8.02117H163.242C163.154 6.81117 162.263 6.00817 160.789 6.00817C159.282 6.00817 158.38 6.82217 158.38 7.83417C158.38 10.0672 161.823 9.37417 161.823 10.4632C161.823 10.8152 161.493 11.0902 160.888 11.0902C160.272 11.0902 159.843 10.7382 159.788 10.2762H158.237C158.303 11.4092 159.37 12.3002 160.899 12.3002C162.384 12.3002 163.297 11.5082 163.297 10.4632ZM167.179 7.27317C167.971 7.27317 168.609 7.77917 168.631 8.58217H165.738C165.859 7.74617 166.442 7.27317 167.179 7.27317ZM170.072 10.2872H168.411C168.213 10.6942 167.85 11.0242 167.19 11.0242C166.42 11.0242 165.804 10.5182 165.727 9.61617H170.182C170.215 9.41817 170.226 9.22017 170.226 9.02217C170.226 7.20717 168.983 6.00817 167.223 6.00817C165.419 6.00817 164.165 7.22917 164.165 9.15417C164.165 11.0682 165.452 12.3002 167.223 12.3002C168.73 12.3002 169.742 11.4092 170.072 10.2872ZM170.954 9.15417C170.954 11.0682 172.208 12.3002 173.968 12.3002C175.486 12.3002 176.509 11.4422 176.839 10.1442H175.178C174.991 10.6942 174.595 10.9802 173.957 10.9802C173.099 10.9802 172.527 10.3422 172.527 9.15417C172.527 7.96617 173.099 7.31717 173.957 7.31717C174.595 7.31717 175.002 7.64717 175.178 8.16417H176.839C176.509 6.80017 175.486 6.00817 173.968 6.00817C172.208 6.00817 170.954 7.24017 170.954 9.15417ZM180.193 9.13217C180.193 11.0352 181.425 12.3002 182.965 12.3002C183.933 12.3002 184.626 11.8382 184.989 11.3102V12.2012H186.54V6.10717H184.989V6.97617C184.626 6.47017 183.955 6.00817 182.976 6.00817C181.425 6.00817 180.193 7.22917 180.193 9.13217ZM184.989 9.15417C184.989 10.3092 184.219 10.9472 183.372 10.9472C182.547 10.9472 181.766 10.2872 181.766 9.13217C181.766 7.97717 182.547 7.36117 183.372 7.36117C184.219 7.36117 184.989 7.99917 184.989 9.15417ZM187.648 9.13217C187.648 11.0352 188.88 12.3002 190.431 12.3002C191.388 12.3002 192.081 11.8272 192.444 11.2992V12.2452C192.444 13.3782 191.784 13.8622 190.937 13.8622C190.167 13.8622 189.595 13.4992 189.441 12.9492H187.912C188.066 14.3462 189.265 15.2042 190.981 15.2042C192.983 15.2042 193.995 13.8952 193.995 12.2452V6.10717H192.444V6.97617C192.081 6.44817 191.388 6.00817 190.431 6.00817C188.88 6.00817 187.648 7.22917 187.648 9.13217ZM192.444 9.15417C192.444 10.3092 191.674 10.9472 190.827 10.9472C190.002 10.9472 189.221 10.2872 189.221 9.13217C189.221 7.97717 190.002 7.36117 190.827 7.36117C191.674 7.36117 192.444 7.99917 192.444 9.15417ZM201.384 9.15417C201.384 7.22917 200.009 6.00817 198.249 6.00817C196.489 6.00817 195.114 7.22917 195.114 9.15417C195.114 11.0682 196.445 12.3002 198.205 12.3002C199.976 12.3002 201.384 11.0682 201.384 9.15417ZM196.676 9.15417C196.676 7.93317 197.413 7.35017 198.227 7.35017C199.041 7.35017 199.8 7.93317 199.8 9.15417C199.8 10.3642 199.019 10.9582 198.205 10.9582C197.38 10.9582 196.676 10.3642 196.676 9.15417Z" fill="#FF983A"/>
<path d="M208.46 12.2012H210.044V4.18217H207.393V5.60117H208.46V12.2012ZM211.477 12.0912H216.911V10.8152H213.666C214.942 9.73717 216.735 8.28517 216.735 6.42617C216.735 5.02917 215.866 4.00617 214.139 4.00617C212.698 4.00617 211.521 4.85317 211.466 6.69017H212.962C212.973 5.84317 213.38 5.31517 214.117 5.31517C214.876 5.31517 215.195 5.79917 215.195 6.51417C215.195 7.98817 213.292 9.40717 211.477 10.9472V12.0912ZM219.674 11.3762C219.674 10.8702 219.278 10.4742 218.739 10.4742C218.178 10.4742 217.782 10.8702 217.782 11.3762C217.782 11.8822 218.178 12.2782 218.739 12.2782C219.278 12.2782 219.674 11.8822 219.674 11.3762ZM219.674 6.82217C219.674 6.31617 219.278 5.92017 218.739 5.92017C218.178 5.92017 217.782 6.31617 217.782 6.82217C217.782 7.32817 218.178 7.72417 218.739 7.72417C219.278 7.72417 219.674 7.32817 219.674 6.82217ZM220.793 6.29417H222.3C222.355 5.78817 222.674 5.30417 223.422 5.30417C224.126 5.30417 224.511 5.67817 224.511 6.30517C224.511 7.09717 223.851 7.35017 222.949 7.35017H222.63V8.61517H222.949C224.093 8.61517 224.665 8.94517 224.665 9.84717C224.665 10.4852 224.269 10.9692 223.499 10.9692C222.674 10.9692 222.212 10.4742 222.179 9.78117H220.683C220.749 11.4642 221.948 12.2562 223.532 12.2562C225.215 12.2562 226.139 11.2882 226.139 9.97917C226.139 8.89017 225.6 8.23017 224.786 7.97717V7.93317C225.369 7.73517 225.996 7.11917 225.996 6.11817C225.996 4.93017 225.116 3.99517 223.466 3.99517C221.926 3.99517 220.87 4.80917 220.793 6.29417ZM227.356 8.08717C227.356 10.4302 228.06 12.1792 230.326 12.1792C232.592 12.1792 233.296 10.4302 233.296 8.08717C233.296 5.76617 232.592 4.02817 230.326 4.02817C228.06 4.02817 227.356 5.76617 227.356 8.08717ZM231.778 8.08717C231.778 9.51717 231.624 10.7492 230.326 10.7492C229.028 10.7492 228.874 9.51717 228.874 8.08717C228.874 6.71217 229.028 5.45817 230.326 5.45817C231.624 5.45817 231.778 6.71217 231.778 8.08717ZM238.804 6.98717V6.10717H237.264V15.1052H238.804V11.3322C239.178 11.8272 239.86 12.3002 240.817 12.3002C242.379 12.3002 243.6 11.0352 243.6 9.13217C243.6 7.22917 242.379 6.00817 240.817 6.00817C239.871 6.00817 239.167 6.47017 238.804 6.98717ZM242.027 9.13217C242.027 10.2872 241.246 10.9472 240.41 10.9472C239.585 10.9472 238.804 10.3092 238.804 9.15417C238.804 7.99917 239.585 7.36117 240.41 7.36117C241.246 7.36117 242.027 7.97717 242.027 9.13217ZM253.244 12.2012H254.784V8.62617C254.784 6.94317 253.75 6.01917 252.287 6.01917C251.396 6.01917 250.593 6.49217 250.197 7.18517C249.779 6.42617 248.998 6.01917 248.052 6.01917C247.293 6.01917 246.644 6.33817 246.259 6.84417V6.10717H244.719V12.2012H246.259V8.83517C246.259 7.86717 246.798 7.36117 247.634 7.36117C248.448 7.36117 248.987 7.86717 248.987 8.83517V12.2012H250.527V8.83517C250.527 7.86717 251.066 7.36117 251.891 7.36117C252.705 7.36117 253.244 7.86717 253.244 8.83517V12.2012Z" fill="#707789"/>
<path d="M128.213 13.5347C131.146 13.5347 133.546 11.1347 133.546 8.20133C133.546 5.268 131.146 2.868 128.213 2.868C125.28 2.868 122.88 5.268 122.88 8.20133C122.88 11.1347 125.28 13.5347 128.213 13.5347ZM128.213 1.53467C131.88 1.53467 134.88 4.53467 134.88 8.20133C134.88 11.868 131.88 14.868 128.213 14.868C124.546 14.868 121.546 11.868 121.546 8.20133C121.546 4.53467 124.546 1.53467 128.213 1.53467ZM131.546 9.468L131.08 10.3347L127.546 8.40133V4.868H128.546V7.80133L131.546 9.468Z" fill="#CBD2DC"/>
<rect x="185.851" y="18.3696" width="2" height="12.3384" fill="#D9DEEB"/>
<path d="M142.096 171.294H143.603C143.658 170.788 143.977 170.304 144.725 170.304C145.429 170.304 145.814 170.678 145.814 171.305C145.814 172.097 145.154 172.35 144.252 172.35H143.933V173.615H144.252C145.396 173.615 145.968 173.945 145.968 174.847C145.968 175.485 145.572 175.969 144.802 175.969C143.977 175.969 143.515 175.474 143.482 174.781H141.986C142.052 176.464 143.251 177.256 144.835 177.256C146.518 177.256 147.442 176.288 147.442 174.979C147.442 173.89 146.903 173.23 146.089 172.977V172.933C146.672 172.735 147.299 172.119 147.299 171.118C147.299 169.93 146.419 168.995 144.769 168.995C143.229 168.995 142.173 169.809 142.096 171.294ZM148.659 173.087C148.659 175.43 149.363 177.179 151.629 177.179C153.895 177.179 154.599 175.43 154.599 173.087C154.599 170.766 153.895 169.028 151.629 169.028C149.363 169.028 148.659 170.766 148.659 173.087ZM153.081 173.087C153.081 174.517 152.927 175.749 151.629 175.749C150.331 175.749 150.177 174.517 150.177 173.087C150.177 171.712 150.331 170.458 151.629 170.458C152.927 170.458 153.081 171.712 153.081 173.087ZM163.297 175.463C163.253 173.23 159.876 173.923 159.876 172.812C159.876 172.46 160.173 172.229 160.745 172.229C161.35 172.229 161.724 172.548 161.768 173.021H163.242C163.154 171.811 162.263 171.008 160.789 171.008C159.282 171.008 158.38 171.822 158.38 172.834C158.38 175.067 161.823 174.374 161.823 175.463C161.823 175.815 161.493 176.09 160.888 176.09C160.272 176.09 159.843 175.738 159.788 175.276H158.237C158.303 176.409 159.37 177.3 160.899 177.3C162.384 177.3 163.297 176.508 163.297 175.463ZM167.179 172.273C167.971 172.273 168.609 172.779 168.631 173.582H165.738C165.859 172.746 166.442 172.273 167.179 172.273ZM170.072 175.287H168.411C168.213 175.694 167.85 176.024 167.19 176.024C166.42 176.024 165.804 175.518 165.727 174.616H170.182C170.215 174.418 170.226 174.22 170.226 174.022C170.226 172.207 168.983 171.008 167.223 171.008C165.419 171.008 164.165 172.229 164.165 174.154C164.165 176.068 165.452 177.3 167.223 177.3C168.73 177.3 169.742 176.409 170.072 175.287ZM170.954 174.154C170.954 176.068 172.208 177.3 173.968 177.3C175.486 177.3 176.509 176.442 176.839 175.144H175.178C174.991 175.694 174.595 175.98 173.957 175.98C173.099 175.98 172.527 175.342 172.527 174.154C172.527 172.966 173.099 172.317 173.957 172.317C174.595 172.317 175.002 172.647 175.178 173.164H176.839C176.509 171.8 175.486 171.008 173.968 171.008C172.208 171.008 170.954 172.24 170.954 174.154ZM180.193 174.132C180.193 176.035 181.425 177.3 182.965 177.3C183.933 177.3 184.626 176.838 184.989 176.31V177.201H186.54V171.107H184.989V171.976C184.626 171.47 183.955 171.008 182.976 171.008C181.425 171.008 180.193 172.229 180.193 174.132ZM184.989 174.154C184.989 175.309 184.219 175.947 183.372 175.947C182.547 175.947 181.766 175.287 181.766 174.132C181.766 172.977 182.547 172.361 183.372 172.361C184.219 172.361 184.989 172.999 184.989 174.154ZM187.648 174.132C187.648 176.035 188.88 177.3 190.431 177.3C191.388 177.3 192.081 176.827 192.444 176.299V177.245C192.444 178.378 191.784 178.862 190.937 178.862C190.167 178.862 189.595 178.499 189.441 177.949H187.912C188.066 179.346 189.265 180.204 190.981 180.204C192.983 180.204 193.995 178.895 193.995 177.245V171.107H192.444V171.976C192.081 171.448 191.388 171.008 190.431 171.008C188.88 171.008 187.648 172.229 187.648 174.132ZM192.444 174.154C192.444 175.309 191.674 175.947 190.827 175.947C190.002 175.947 189.221 175.287 189.221 174.132C189.221 172.977 190.002 172.361 190.827 172.361C191.674 172.361 192.444 172.999 192.444 174.154ZM201.384 174.154C201.384 172.229 200.009 171.008 198.249 171.008C196.489 171.008 195.114 172.229 195.114 174.154C195.114 176.068 196.445 177.3 198.205 177.3C199.976 177.3 201.384 176.068 201.384 174.154ZM196.676 174.154C196.676 172.933 197.413 172.35 198.227 172.35C199.041 172.35 199.8 172.933 199.8 174.154C199.8 175.364 199.019 175.958 198.205 175.958C197.38 175.958 196.676 175.364 196.676 174.154Z" fill="#FF983A"/>
<path d="M208.46 177.201H210.044V169.182H207.393V170.601H208.46V177.201ZM211.477 177.091H216.911V175.815H213.666C214.942 174.737 216.735 173.285 216.735 171.426C216.735 170.029 215.866 169.006 214.139 169.006C212.698 169.006 211.521 169.853 211.466 171.69H212.962C212.973 170.843 213.38 170.315 214.117 170.315C214.876 170.315 215.195 170.799 215.195 171.514C215.195 172.988 213.292 174.407 211.477 175.947V177.091ZM219.674 176.376C219.674 175.87 219.278 175.474 218.739 175.474C218.178 175.474 217.782 175.87 217.782 176.376C217.782 176.882 218.178 177.278 218.739 177.278C219.278 177.278 219.674 176.882 219.674 176.376ZM219.674 171.822C219.674 171.316 219.278 170.92 218.739 170.92C218.178 170.92 217.782 171.316 217.782 171.822C217.782 172.328 218.178 172.724 218.739 172.724C219.278 172.724 219.674 172.328 219.674 171.822ZM220.793 171.294H222.3C222.355 170.788 222.674 170.304 223.422 170.304C224.126 170.304 224.511 170.678 224.511 171.305C224.511 172.097 223.851 172.35 222.949 172.35H222.63V173.615H222.949C224.093 173.615 224.665 173.945 224.665 174.847C224.665 175.485 224.269 175.969 223.499 175.969C222.674 175.969 222.212 175.474 222.179 174.781H220.683C220.749 176.464 221.948 177.256 223.532 177.256C225.215 177.256 226.139 176.288 226.139 174.979C226.139 173.89 225.6 173.23 224.786 172.977V172.933C225.369 172.735 225.996 172.119 225.996 171.118C225.996 169.93 225.116 168.995 223.466 168.995C221.926 168.995 220.87 169.809 220.793 171.294ZM227.356 173.087C227.356 175.43 228.06 177.179 230.326 177.179C232.592 177.179 233.296 175.43 233.296 173.087C233.296 170.766 232.592 169.028 230.326 169.028C228.06 169.028 227.356 170.766 227.356 173.087ZM231.778 173.087C231.778 174.517 231.624 175.749 230.326 175.749C229.028 175.749 228.874 174.517 228.874 173.087C228.874 171.712 229.028 170.458 230.326 170.458C231.624 170.458 231.778 171.712 231.778 173.087ZM238.804 171.987V171.107H237.264V180.105H238.804V176.332C239.178 176.827 239.86 177.3 240.817 177.3C242.379 177.3 243.6 176.035 243.6 174.132C243.6 172.229 242.379 171.008 240.817 171.008C239.871 171.008 239.167 171.47 238.804 171.987ZM242.027 174.132C242.027 175.287 241.246 175.947 240.41 175.947C239.585 175.947 238.804 175.309 238.804 174.154C238.804 172.999 239.585 172.361 240.41 172.361C241.246 172.361 242.027 172.977 242.027 174.132ZM253.244 177.201H254.784V173.626C254.784 171.943 253.75 171.019 252.287 171.019C251.396 171.019 250.593 171.492 250.197 172.185C249.779 171.426 248.998 171.019 248.052 171.019C247.293 171.019 246.644 171.338 246.259 171.844V171.107H244.719V177.201H246.259V173.835C246.259 172.867 246.798 172.361 247.634 172.361C248.448 172.361 248.987 172.867 248.987 173.835V177.201H250.527V173.835C250.527 172.867 251.066 172.361 251.891 172.361C252.705 172.361 253.244 172.867 253.244 173.835V177.201Z" fill="#707789"/>
<path d="M128.213 178.535C131.146 178.535 133.546 176.135 133.546 173.201C133.546 170.268 131.146 167.868 128.213 167.868C125.28 167.868 122.88 170.268 122.88 173.201C122.88 176.135 125.28 178.535 128.213 178.535ZM128.213 166.535C131.88 166.535 134.88 169.535 134.88 173.201C134.88 176.868 131.88 179.868 128.213 179.868C124.546 179.868 121.546 176.868 121.546 173.201C121.546 169.535 124.546 166.535 128.213 166.535ZM131.546 174.468L131.08 175.335L127.546 173.401V169.868H128.546V172.801L131.546 174.468Z" fill="#CBD2DC"/>
<rect x="185.851" y="183.37" width="2" height="12.3384" fill="#D9DEEB"/>
<defs>
<clipPath id="clip0_939_5661">
<rect width="18" height="18" fill="white" transform="translate(11.8506 271.421)"/>
</clipPath>
<clipPath id="clip1_939_5661">
<rect width="16" height="16" fill="white" transform="translate(13.4648 79.1387)"/>
</clipPath>
</defs>
</svg>
