<svg width="48" height="48" viewBox="0 0 48 48" fill="none" xmlns="http://www.w3.org/2000/svg">
<g id="026-user 1" clip-path="url(#clip0_922_3260)">
<g id="Group">
<path id="Vector" d="M9.14063 5.58935C8.82731 4.83673 7.72266 4.83157 7.40906 5.58935C7.25625 5.95863 7.36013 6.3971 7.66313 6.65782C7.96659 6.91892 8.41322 6.95688 8.75691 6.75195C9.15169 6.51645 9.31444 6.01301 9.14063 5.58935Z" fill="#EB5757"/>
<path id="Vector_2" d="M5.60153 5.58936C5.44806 5.22055 5.0666 4.98345 4.66741 5.01326C4.2745 5.04261 3.94075 5.32095 3.83313 5.6983C3.60456 6.50005 4.51141 7.17317 5.21781 6.75186C5.61306 6.51617 5.77535 6.01311 5.60153 5.58936Z" fill="#EB5757"/>
<path id="Vector_3" d="M40.0763 19.7243C39.85 19.3941 39.4347 19.234 39.0465 19.3421C38.6681 19.4475 38.3922 19.7846 38.3618 20.1762C38.2975 21.0054 39.3209 21.4956 39.9295 20.9366C40.2675 20.626 40.3264 20.1064 40.0763 19.7243Z" fill="#EB5757"/>
<path id="Vector_4" d="M0 9.23887C0 9.24131 0.000375 9.24365 0.000375 9.24609V38.1695C0.000375 39.98 1.47328 41.4528 3.28369 41.4528H33.8285L33.5783 45.281C33.5573 45.6021 33.7025 45.9115 33.9628 46.1005C34.2231 46.2897 34.5622 46.3321 34.8611 46.2129L39.307 44.4401L43.753 46.2129C44.0491 46.331 44.3934 46.2878 44.6513 46.1005C44.9116 45.9114 45.0568 45.6021 45.0358 45.281L44.7236 40.5049L47.7835 36.8243C47.9892 36.5769 48.0537 36.2413 47.9543 35.9354C47.8548 35.6293 47.6054 35.3957 47.2936 35.3165L42.6548 34.1374L40.2341 30.3025V24.2906C40.2341 23.7729 39.8144 23.3531 39.2966 23.3531C38.7788 23.3531 38.3591 23.7729 38.3591 24.2906V30.3349L36.581 33.1529L35.9597 34.1372L31.3203 35.3163C31.0085 35.3955 30.759 35.6291 30.6596 35.9352C30.5603 36.2413 30.6247 36.5769 30.8304 36.8242L32.5807 38.9291L33.1199 39.5778H3.28369C2.50716 39.5778 1.87538 38.946 1.87538 38.1695V10.1768H38.3589V16.041C38.3589 16.5587 38.7787 16.9785 39.2964 16.9785C39.8142 16.9785 40.2339 16.5587 40.2339 16.041V9.23934C40.2339 9.23868 40.2338 9.23812 40.2338 9.23756V5.00325C40.2338 3.19293 38.7611 1.72021 36.9508 1.72021H3.28303C1.47272 1.72031 0 3.19303 0 5.00325L0 9.23887ZM36.7836 35.8626C36.929 35.8256 37.0621 35.7547 37.1727 35.6571C37.2393 35.5985 37.2977 35.5302 37.3459 35.4539L39.3069 32.3467L41.2686 35.4543C41.3966 35.6572 41.5977 35.8034 41.8304 35.8625L45.3921 36.7677L43.0427 39.5936C42.8892 39.7782 42.8124 40.0146 42.8281 40.2541L43.0678 43.9212L39.6542 42.56C39.5427 42.5155 39.4249 42.4933 39.3069 42.4933C39.189 42.4933 39.0712 42.5155 38.9597 42.56L35.5462 43.9212L35.786 40.2526C35.8013 40.0134 35.7245 39.7776 35.5712 39.5933L33.2218 36.7677L36.7836 35.8626ZM1.875 5.00325C1.875 4.2269 2.50659 3.59521 3.28303 3.59521H36.9509C37.7272 3.59521 38.3589 4.22681 38.3589 5.00325V8.30137H1.875V5.00325Z" fill="#EB5757"/>
<path id="Vector_5" d="M16.4692 20.7438C16.4692 19.1398 15.3822 17.7858 13.9065 17.3773C14.1191 16.9528 14.2396 16.4745 14.2396 15.9683V15.5344C14.2396 13.7937 12.8234 12.3774 11.0827 12.3774C9.34191 12.3774 7.92572 13.7936 7.92572 15.5344V15.9683C7.92572 16.4746 8.04619 16.9529 8.25891 17.3774C6.78338 17.7861 5.69653 19.14 5.69653 20.7438V22.677C5.69653 23.1947 6.11625 23.6145 6.63403 23.6145H15.5318C16.0495 23.6145 16.4693 23.1947 16.4693 22.677L16.4692 20.7438ZM9.80072 15.5343C9.80072 14.8274 10.3758 14.2523 11.0827 14.2523C11.7895 14.2523 12.3646 14.8274 12.3646 15.5343V15.9683C12.3646 16.6751 11.7895 17.2502 11.0827 17.2502C10.3758 17.2502 9.80072 16.6751 9.80072 15.9683V15.5343ZM14.5942 21.7395H7.57153V20.7438C7.57153 19.8514 8.29753 19.1254 9.18994 19.1254H12.9759C13.8683 19.1254 14.5943 19.8514 14.5943 20.7438L14.5942 21.7395Z" fill="#EB5757"/>
<path id="Vector_6" d="M5.69653 34.1416V36.075C5.69653 36.5926 6.11625 37.0125 6.63403 37.0125H15.5318C16.0495 37.0125 16.4693 36.5926 16.4693 36.075V34.1416C16.4693 32.5377 15.3823 31.1836 13.9066 30.7752C14.1192 30.3508 14.2396 29.8725 14.2396 29.3663V28.9323C14.2396 27.1917 12.8234 25.7754 11.0827 25.7754C9.34191 25.7754 7.92572 27.1916 7.92572 28.9323V29.3663C7.92572 29.8725 8.04619 30.3509 8.25881 30.7753C6.78328 31.1838 5.69653 32.5378 5.69653 34.1416ZM9.80072 28.9322C9.80072 28.2254 10.3758 27.6503 11.0827 27.6503C11.7895 27.6503 12.3646 28.2254 12.3646 28.9322V29.3662C12.3646 30.0731 11.7895 30.6481 11.0827 30.6481C10.3758 30.6481 9.80072 30.0731 9.80072 29.3662V28.9322ZM7.57153 34.1416C7.57153 33.2492 8.29753 32.5232 9.18994 32.5232H12.9759C13.8683 32.5232 14.5943 33.2492 14.5943 34.1416V35.1375H7.57153V34.1416Z" fill="#EB5757"/>
<path id="Vector_7" d="M33.3335 14.5557H20.4774C19.9596 14.5557 19.5399 14.9755 19.5399 15.4932C19.5399 16.0109 19.9596 16.4307 20.4774 16.4307H33.3334C33.8512 16.4307 34.2709 16.0109 34.2709 15.4932C34.2709 14.9755 33.8513 14.5557 33.3335 14.5557Z" fill="#EB5757"/>
<path id="Vector_8" d="M20.4774 20.4854H26.9055C27.4233 20.4854 27.843 20.0655 27.843 19.5479C27.843 19.0302 27.4233 18.6104 26.9055 18.6104H20.4774C19.9596 18.6104 19.5399 19.0302 19.5399 19.5479C19.5399 20.0655 19.9596 20.4854 20.4774 20.4854Z" fill="#EB5757"/>
<path id="Vector_9" d="M34.271 29.5586C34.271 29.0409 33.8513 28.6211 33.3335 28.6211H20.4774C19.9596 28.6211 19.5399 29.0409 19.5399 29.5586C19.5399 30.0763 19.9596 30.4961 20.4774 30.4961H33.3334C33.8513 30.4961 34.271 30.0764 34.271 29.5586Z" fill="#EB5757"/>
<path id="Vector_10" d="M20.4774 32.6753C19.9596 32.6753 19.5399 33.0951 19.5399 33.6128C19.5399 34.1305 19.9596 34.5503 20.4774 34.5503H26.9055C27.4233 34.5503 27.843 34.1305 27.843 33.6128C27.843 33.0951 27.4233 32.6753 26.9055 32.6753H20.4774Z" fill="#EB5757"/>
</g>
</g>
<defs>
<clipPath id="clip0_922_3260">
<rect width="48" height="48" fill="white"/>
</clipPath>
</defs>
</svg>
