<svg width="67" height="80" viewBox="0 0 67 80" fill="none" xmlns="http://www.w3.org/2000/svg">
<g clip-path="url(#clip0_2687_1371)">
<path d="M66.19 67.325C66.2589 68.3853 65.9294 69.4331 65.2659 70.2631C64.6025 71.0931 63.6531 71.6455 62.6037 71.8119C60.648 72.1157 58.3405 72.4513 55.804 72.7871C52.0738 73.272 47.8107 73.757 43.1053 74.1726C42.5724 74.3432 32.245 75.5208 29.6339 75.8139L29.037 75.8832C26.6231 75.8832 23.7614 71.2683 23.7614 69.5311C23.7685 69.0343 23.8946 68.5464 24.1292 68.1084L25.6906 70.7728C26.2953 71.1949 27.0212 71.4081 27.7581 71.3803C30.2559 71.0752 32.7031 70.4446 35.0374 69.5045L33.7158 67.2344H33.7904C34.2251 67.081 34.6873 67.0216 35.1467 67.0602C35.606 67.0988 36.0519 67.2344 36.4549 67.4582C37.4084 68.0109 38.4863 68.3134 39.5883 68.3375C42.7856 68.3375 46.9794 66.7388 54.9195 63.1685C55.511 62.8967 56.1291 62.6729 56.7472 62.4597L56.9657 62.5024C57.6549 62.6284 58.354 62.6925 59.0547 62.6942C62.6197 62.6942 64.6073 61.4472 65.8596 59.9391C65.9182 60.6585 66.0835 65.6197 66.19 67.325Z" fill="white"/>
<path d="M23.3085 46.3292C22.2214 46.1296 21.2201 45.6057 20.4362 44.8265C20.335 43.4623 20.2551 42.1034 20.2551 40.7659C20.2551 27.886 28.5415 25.1629 28.9305 25.0084C29.1916 24.9018 29.4634 24.8005 29.7245 24.7153C30.2028 25.984 30.8365 27.1886 31.6109 28.3016C31.9293 28.7573 32.2859 29.1852 32.6767 29.5805C32.6767 32.1704 34.8083 34.2114 38.1921 34.2114C41.7518 34.2114 45.7218 32.8578 49.6865 29.2928C61.021 34.8987 64.7512 40.2117 65.8543 59.9125C64.602 61.4206 62.6144 62.6675 59.0493 62.6675C58.3487 62.6659 57.6496 62.6017 56.9604 62.4757L56.7419 62.4331C56.1237 62.6462 55.5056 62.87 54.9141 63.1418C46.9741 66.7388 42.7749 68.3109 39.5829 68.3109C38.481 68.2868 37.4031 67.9843 36.4495 67.4316C36.0466 67.2078 35.6006 67.0721 35.1413 67.0335C34.682 66.995 34.2198 67.0543 33.7851 67.2077H33.7105L31.2166 62.9446L22.5358 62.1933L22.5998 61.4952C22.5998 60.7119 22.5998 59.9392 22.5998 59.1878C22.7277 54.1201 23.0048 49.7557 23.3085 46.3292Z" fill="#DAE0E5"/>
<path d="M55.804 72.787C52.2976 76.2455 48.0772 78.5743 41.3308 78.5743C37.2516 78.6686 33.2159 77.7184 29.6073 75.8139C32.2185 75.5208 42.5511 74.3431 43.0787 74.1726C47.8054 73.757 52.0951 73.272 55.804 72.787Z" fill="#DAE0E5"/>
<path d="M32.698 29.5805C32.3071 29.1852 31.9506 28.7573 31.6322 28.3016L31.952 28.0565C31.8469 27.9396 31.7897 27.7873 31.7921 27.6302C31.7921 27.0973 31.9413 26.0635 31.9413 25.6798C31.9413 24.1504 30.5878 22.9567 28.9784 22.4292C28.5367 20.8875 28.2125 19.3145 28.0086 17.7238C28.2352 17.9017 28.4737 18.0638 28.7227 18.2087C36.1831 22.5091 43.3238 14.3133 44.3043 14.8835C44.8372 15.1766 44.9598 16.4822 45.0717 16.8925C45.0717 16.9831 45.0717 17.079 45.0717 17.1642C45.6845 16.285 46.228 15.4377 46.9474 15.4377C47.1806 15.4352 47.4113 15.4868 47.6212 15.5885C47.8311 15.6902 48.0145 15.8393 48.1571 16.0239C47.1872 19.2692 45.7005 21.5073 45.7005 23.9159C45.6736 25.2654 46.1397 26.5784 47.0113 27.6089C47.4444 28.0732 47.9616 28.4511 48.5355 28.7226C48.9405 28.9144 49.3348 29.1116 49.7185 29.3034C45.7538 32.8684 41.7837 34.222 38.224 34.222C34.8402 34.222 32.7086 32.181 32.7086 29.5912L32.698 29.5805Z" fill="white"/>
<path d="M48.9778 10.4126C48.9803 12.3139 48.7001 14.205 48.1464 16.0239C48.0039 15.8393 47.8204 15.6902 47.6105 15.5885C47.4006 15.4868 47.17 15.4352 46.9368 15.4377C46.2174 15.4377 45.6739 16.285 45.061 17.1642C45.061 17.079 45.061 16.9831 45.061 16.8925C44.9491 16.4555 44.8106 15.1766 44.2937 14.8835C43.3131 14.3133 36.1618 22.5091 28.712 18.2087C28.4631 18.0638 28.2245 17.9017 27.998 17.7238C27.5645 17.3834 27.176 16.9895 26.8416 16.5515C26.4358 16.1714 26.1117 15.7127 25.8891 15.2033C25.6665 14.6939 25.55 14.1445 25.5467 13.5886C25.5467 10.8389 27.9394 8.297 29.8098 6.41058C30.9342 3.25588 35.9167 0.799255 39.6522 0.799255C42.7856 0.799255 44.7679 2.02492 45.7431 4.34831H45.7858C48.5088 4.33765 48.9778 8.06787 48.9778 10.4126Z" fill="#373A3A"/>
<path d="M33.7158 67.2451L35.0374 69.5152C32.7032 70.4552 30.256 71.0858 27.7581 71.3909C27.0212 71.4187 26.2953 71.2054 25.6906 70.7834L20.6015 62.0547L31.2219 62.9713L33.7158 67.2451Z" fill="#F6D84C"/>
<path d="M31.9307 28.0565L31.611 28.3016C30.8396 27.1867 30.2062 25.9825 29.7245 24.7152C29.4314 23.9799 29.1916 23.2072 28.9571 22.4291C30.5558 22.962 31.92 24.1504 31.92 25.6798C31.92 26.0635 31.7708 27.1079 31.7708 27.6301C31.7684 27.7873 31.8256 27.9396 31.9307 28.0565Z" fill="white"/>
<path d="M23.3085 46.3293C23.0048 49.7557 22.7223 54.12 22.6317 59.2145C21.8151 55.9784 21.2117 52.6924 20.8253 49.3774C20.6708 47.8426 20.5588 46.3239 20.4362 44.8265C21.2201 45.6057 22.2214 46.1296 23.3085 46.3293Z" fill="white"/>
<path d="M55.804 72.787C52.2976 76.2455 48.0772 78.5743 41.3308 78.5743C37.2516 78.6686 33.2159 77.7184 29.6073 75.8139" stroke="#373A3A" stroke-width="1.59866" stroke-linecap="round" stroke-linejoin="round"/>
<path d="M49.7131 29.2981C45.7431 32.8631 41.7731 34.222 38.2134 34.222C34.8296 34.222 32.698 32.181 32.698 29.5912" stroke="#373A3A" stroke-width="1.59866" stroke-linecap="round" stroke-linejoin="round"/>
<path d="M29.7245 24.7153C29.4581 24.8005 29.1916 24.9018 28.9305 25.0084C28.5415 25.1629 20.2551 27.886 20.2551 40.7659C20.2551 42.1034 20.3297 43.4623 20.4362 44.8265C20.5535 46.3239 20.6708 47.8426 20.8253 49.3773C21.2117 52.6923 21.8151 55.9784 22.6317 59.2144" stroke="#373A3A" stroke-width="1.59866" stroke-linecap="round" stroke-linejoin="round"/>
<path d="M22.6051 61.5219C22.6051 60.7385 22.6051 59.9658 22.6051 59.2144C22.7064 54.12 22.9782 49.7557 23.2819 46.3293C23.7562 41.059 24.2891 38.0215 24.2891 38.0215" stroke="#373A3A" stroke-width="1.59866" stroke-linecap="round" stroke-linejoin="round"/>
<path d="M23.3085 46.3293C22.2214 46.1296 21.2201 45.6057 20.4362 44.8265" stroke="#373A3A" stroke-width="1.59866" stroke-linecap="round" stroke-linejoin="round"/>
<path d="M33.7158 67.2451H33.7904C34.2251 67.0917 34.6873 67.0322 35.1467 67.0708C35.606 67.1094 36.0519 67.2451 36.4549 67.4689C37.4084 68.0216 38.4863 68.3241 39.5883 68.3481C42.7856 68.3481 46.9794 66.7495 54.9195 63.1792C55.511 62.9074 56.1291 62.6835 56.7472 62.4704L56.9657 62.5131C57.6549 62.639 58.354 62.7032 59.0547 62.7049C62.6197 62.7049 64.6073 61.4579 65.8596 59.9498" stroke="#373A3A" stroke-width="1.59866" stroke-linecap="round" stroke-linejoin="round"/>
<path d="M55.3617 51.3278C56.0811 55.026 56.582 58.7509 56.9604 62.4864" stroke="#373A3A" stroke-width="1.59866" stroke-linecap="round" stroke-linejoin="round"/>
<path d="M24.1292 68.1084L20.6014 62.0547L31.2219 62.9713L35.0374 69.5152" stroke="#373A3A" stroke-width="1.59866" stroke-linecap="round" stroke-linejoin="round"/>
<path d="M25.6905 70.7834L24.1292 68.1083" stroke="#373A3A" stroke-width="1.59866" stroke-linecap="round" stroke-linejoin="round"/>
<path d="M25.6906 70.7834C26.2953 71.2055 27.0212 71.4188 27.7581 71.3909C30.256 71.0858 32.7032 70.4552 35.0374 69.5152" stroke="#373A3A" stroke-width="1.59866" stroke-linecap="round" stroke-linejoin="round"/>
<path d="M27.9873 17.7238C28.1968 19.3135 28.5209 20.8861 28.9571 22.4291C29.1809 23.2071 29.4314 23.9799 29.7245 24.7152C30.2062 25.9825 30.8396 27.1867 31.6109 28.3016C31.9293 28.7573 32.2859 29.1852 32.6767 29.5805C33.2 30.1387 33.8299 30.5862 34.5292 30.8965C35.2285 31.2068 35.983 31.3736 36.748 31.387C38.9275 31.387 39.9133 30.0282 40.8033 29.2022" stroke="#373A3A" stroke-width="1.59866" stroke-linecap="round" stroke-linejoin="round"/>
<path d="M24.1292 68.1084C23.8946 68.5464 23.7685 69.0343 23.7614 69.5311C23.7614 71.2683 26.6231 75.8832 29.037 75.8832L29.6339 75.8139C32.245 75.5208 42.5777 74.3432 43.1053 74.1726C47.8054 73.757 52.0951 73.2667 55.804 72.7871C58.3619 72.4513 60.648 72.1157 62.6037 71.8119C63.6531 71.6455 64.6025 71.0931 65.2659 70.2631C65.9294 69.4331 66.2589 68.3853 66.19 67.325C66.0835 65.6037 66.0088 63.8932 65.9928 62.1933C65.9608 61.4152 65.9182 60.6586 65.8756 59.9232C64.7565 40.2064 61.0263 34.9307 49.7078 29.3034C49.3241 29.1116 48.9298 28.9144 48.5248 28.7226C47.9509 28.4511 47.4338 28.0732 47.0007 27.6089C46.1291 26.5784 45.663 25.2654 45.6898 23.9159C45.6898 21.5073 47.1765 19.2692 48.1464 16.0239C48.7 14.205 48.9802 12.3139 48.9777 10.4126C48.9777 8.04122 48.5088 4.34831 45.7804 4.34831H45.7378C44.7626 2.02492 42.7802 0.799255 39.6469 0.799255C35.9166 0.799255 30.9288 3.25588 29.8044 6.41058C27.9287 8.297 25.5413 10.8389 25.5413 13.5886C25.5446 14.1445 25.6611 14.6939 25.8838 15.2033C26.1064 15.7127 26.4305 16.1714 26.8362 16.5515C27.1706 16.9895 27.5592 17.3834 27.9926 17.7238C28.2192 17.9017 28.4577 18.0638 28.7067 18.2087C36.1671 22.5091 43.3078 14.3133 44.2883 14.8835C44.8212 15.1766 44.9438 16.4822 45.0557 16.8925C45.0557 16.9831 45.0557 17.079 45.0557 17.1642C45.6685 16.285 46.2121 15.4377 46.9315 15.4377C47.1647 15.4352 47.3953 15.4868 47.6052 15.5885C47.8151 15.6902 47.9985 15.8393 48.1411 16.0239" stroke="#373A3A" stroke-width="1.59866" stroke-linecap="round" stroke-linejoin="round"/>
<path d="M20.6921 53.6084C19.8611 53.1155 18.9639 52.744 18.0276 52.5053V56.2356C18.0276 57.7117 16.9618 58.3138 15.7095 57.5731L3.13339 50.3152C2.45953 49.8736 1.89876 49.2799 1.49615 48.5821C1.09354 47.8842 0.86034 47.1016 0.815338 46.2972V35.3144C0.815338 33.8329 1.8811 33.2361 3.13339 33.9768L15.7095 41.2348C16.3843 41.6754 16.9457 42.2688 17.3485 42.9669C17.7512 43.665 17.9839 44.448 18.0276 45.2527V48.0344C18.2515 48.1463 18.4699 48.2636 18.699 48.3968C22.9088 50.8587 26.5005 56.113 27.6942 61.2287C25.9516 58.0261 23.4578 55.2071 20.6921 53.6084Z" fill="white"/>
<path d="M18.0116 52.5054C18.9479 52.7441 19.8451 53.1155 20.6761 53.6084C23.4418 55.2071 25.9357 58.0261 27.6622 61.2234C26.4686 56.1077 22.8662 50.8534 18.6671 48.3915C18.4379 48.2583 18.2194 48.141 17.9956 48.0291V45.274C17.9519 44.4693 17.7192 43.6863 17.3165 42.9882C16.9138 42.2901 16.3523 41.6968 15.6776 41.2561L3.10144 33.9982C1.82251 33.2575 0.783325 33.8543 0.783325 35.3357V46.3186C0.828327 47.123 1.06153 47.9056 1.46414 48.6034C1.86675 49.3013 2.42758 49.8949 3.10144 50.3365L15.6776 57.5944C16.9565 58.3351 17.9956 57.733 17.9956 56.2569L18.0116 52.5054Z" stroke="#373A3A" stroke-width="1.59866" stroke-linecap="round" stroke-linejoin="round"/>
<path d="M5.31287 41.384L13.9723 46.3772" stroke="#373A3A" stroke-width="1.59866" stroke-linecap="round" stroke-linejoin="round"/>
<path d="M5.31287 45.4819L11.0947 48.8231" stroke="#373A3A" stroke-width="1.59866" stroke-linecap="round" stroke-linejoin="round"/>
</g>
<defs>
<clipPath id="clip0_2687_1371">
<rect width="67" height="79.3737" fill="white"/>
</clipPath>
</defs>
</svg>
