<svg xmlns="http://www.w3.org/2000/svg" viewBox="0 0 64 64"><defs><style>.cls-1{fill:#1a4d7e;}.cls-2,.cls-3{fill:#ff4b4b;}.cls-3{opacity:0.3;}</style></defs><g id="Layer_2" data-name="Layer 2"><g id="email"><path class="cls-1" d="M57,17V42a7,7,0,0,1-7,7H14a7,7,0,0,1-7-7V17a7,7,0,0,1,7-7h7a1,1,0,0,1,0,2H14a5,5,0,0,0-5,5V42a5,5,0,0,0,5,5H50a5,5,0,0,0,5-5V17a5,5,0,0,0-5-5H43a1,1,0,0,1,0-2h7A7,7,0,0,1,57,17Z"/><path class="cls-1" d="M21,23a1,1,0,0,1-.71-.29l-4-4A1,1,0,0,1,16,18a1,1,0,0,1,.36-.72l4-3.33a1,1,0,0,1,1.64.77V22a1,1,0,0,1-.62.92A.84.84,0,0,1,21,23Zm-2.52-4.93L20,19.59V16.8Z"/><path class="cls-1" d="M43,23a.84.84,0,0,1-.38-.08A1,1,0,0,1,42,22V14.67a1,1,0,0,1,1.64-.77l4,3.33A1,1,0,0,1,48,18a1,1,0,0,1-.29.76l-4,4A1,1,0,0,1,43,23Zm1-6.2v2.79l1.52-1.52Z"/><path class="cls-2" d="M43,23a.84.84,0,0,1-.38-.08A1,1,0,0,1,42,22v-.41l-9,9a1.44,1.44,0,0,1-2,0l-9-9V11a1,1,0,0,1-1,1H20V22a1,1,0,0,0,.26.67l0,0,.06.05L29.58,32l.25.23a3.57,3.57,0,0,0,4.34,0l.25-.23,9.23-9.24A1,1,0,0,1,43,23ZM41,6H23a3,3,0,0,0-3,3V22a1,1,0,0,0,.26.67l0,0L29.58,32l.25.23a3.44,3.44,0,0,0,4.34,0l.25-.23,9.29-9.29,0,0A1,1,0,0,0,44,22V9A3,3,0,0,0,41,6Zm1,15.59-9,9a1.44,1.44,0,0,1-2,0l-9-9V9a1,1,0,0,1,1-1H41a1,1,0,0,1,1,1Z"/><path class="cls-1" d="M36.7,24a1.66,1.66,0,0,1-.4,0,2.28,2.28,0,0,1-1.53-1,4.41,4.41,0,0,0-3.68-2H30a1,1,0,0,1-1-1V14a1,1,0,0,1,1-1h1.09a4.43,4.43,0,0,0,3.69-2,2.26,2.26,0,0,1,1.52-1,1.66,1.66,0,0,1,.4,0A2.3,2.3,0,0,1,39,12.3v9.4A2.3,2.3,0,0,1,36.7,24Zm.12-2ZM31,19h.09a6.39,6.39,0,0,1,5.35,2.87.28.28,0,0,0,.21.12h.05a.3.3,0,0,0,.3-.3V12.3a.29.29,0,0,0-.29-.3h-.06a.27.27,0,0,0-.2.11A6.41,6.41,0,0,1,31.09,15H31Zm5.7-8,0,1h0Zm.12,1Zm-.31-1h0Z"/><path class="cls-1" d="M30,21H28a4,4,0,0,1,0-8h2a1,1,0,0,1,1,1v6A1,1,0,0,1,30,21Zm-2-6a2,2,0,0,0,0,4h1V15Z"/><path class="cls-1" d="M30,26a1,1,0,0,1-.93-.63l-2-5a1,1,0,1,1,1.86-.74l2,5a1,1,0,0,1-.56,1.3A1,1,0,0,1,30,26Z"/><path class="cls-1" d="M56,39H8a1,1,0,0,0-1,1v2a7,7,0,0,0,7,7H50a7,7,0,0,0,7-7V40A1,1,0,0,0,56,39Zm-1,3a5,5,0,0,1-5,5H14a5,5,0,0,1-5-5V41H55Z"/><path class="cls-2" d="M33,45H31a1,1,0,0,1,0-2h2a1,1,0,0,1,0,2Z"/><path class="cls-1" d="M40.81,56l-1.55-6.94V49L39,47.78A1,1,0,0,0,38,47H26a1,1,0,0,0-1,.78L24.75,49l-1.56,7-.17.78a1,1,0,0,0,.2.85A1,1,0,0,0,24,58H40a1,1,0,0,0,.78-.37,1,1,0,0,0,.2-.85ZM25.25,56l1.55-7H37.2l.38,1.74L38.75,56Z"/><path class="cls-1" d="M43,57a1,1,0,0,1-1,1H22a1,1,0,0,1,0-2H42A1,1,0,0,1,43,57Z"/><path class="cls-1" d="M45,37H19a3,3,0,0,1-3-3V18a1,1,0,0,1,.62-.92,1,1,0,0,1,1.09.21L31,30.58a1.44,1.44,0,0,0,2,0L46.29,17.29a1,1,0,0,1,1.09-.21A1,1,0,0,1,48,18V34A3,3,0,0,1,45,37ZM18,20.41V34a1,1,0,0,0,1,1H45a1,1,0,0,0,1-1V20.41L34.42,32a3.51,3.51,0,0,1-4.84,0Z"/><path class="cls-3" d="M30.32,58l-1,1A17.2,17.2,0,0,1,5,34.64l2-2V42a7,7,0,0,0,7,7H24.75l-1.56,7H22a1,1,0,0,0,0,2Z"/><path class="cls-3" d="M64,17.2a17.14,17.14,0,0,1-5,12.16l-2,2V17a7,7,0,0,0-7-7H44V9a3,3,0,0,0-3-3H33.68l1-1A17.2,17.2,0,0,1,64,17.2Z"/></g></g></svg>