<svg width="404" height="327" viewBox="0 0 404 327" fill="none" xmlns="http://www.w3.org/2000/svg">
<g clip-path="url(#clip0_1008_30454)">
<path opacity="0.4" d="M397.868 231.456C405.726 223.602 405.726 210.868 397.868 203.013C390.01 195.159 377.27 195.159 369.412 203.013C361.555 210.868 361.555 223.602 369.412 231.456C377.27 239.311 390.01 239.311 397.868 231.456Z" fill="#E5E5FF"/>
<path opacity="0.4" d="M74.2549 98.5506C86.2416 86.5693 86.2416 67.1436 74.2549 55.1623C62.2681 43.1809 42.8338 43.1809 30.847 55.1623C18.8602 67.1436 18.8602 86.5693 30.847 98.5506C42.8338 110.532 62.2681 110.532 74.2549 98.5506Z" fill="#E5E5FF"/>
<path opacity="0.4" d="M158.72 47.3614C167.557 47.3614 174.721 40.2003 174.721 31.3667C174.721 22.5331 167.557 15.3721 158.72 15.3721C149.882 15.3721 142.718 22.5331 142.718 31.3667C142.718 40.2003 149.882 47.3614 158.72 47.3614Z" fill="#E5E5FF"/>
<path d="M135.811 39.2753C134.817 39.2749 133.824 39.1975 132.842 39.0437L132.935 38.4415C133.887 38.5905 134.849 38.6654 135.813 38.6658H135.923V39.2753H135.811ZM139.01 39.0047L138.908 38.405C139.894 38.2397 140.866 37.9952 141.813 37.6736L142.01 38.2514C141.032 38.5825 140.029 38.8344 139.01 39.0047ZM129.833 38.3196C128.851 37.9985 127.897 37.5999 126.979 37.1275L127.26 36.5839C128.148 37.0428 129.073 37.43 130.023 37.7419L129.833 38.3196ZM144.849 37.0178L144.564 36.4791C145.447 36.0109 146.292 35.472 147.088 34.8677L147.457 35.3552C146.634 35.9788 145.762 36.5349 144.849 37.0178ZM124.362 35.4942C123.531 34.8807 122.751 34.2007 122.031 33.461L122.448 33.0271C123.146 33.7423 123.9 34.4002 124.704 34.9944L124.362 35.4942ZM149.771 33.3001L149.33 32.8808C150.017 32.1547 150.646 31.3754 151.21 30.5502L151.712 30.8915C151.128 31.7421 150.477 32.5443 149.764 33.2904L149.771 33.3001ZM120.045 31.0768C119.454 30.2308 118.931 29.3389 118.482 28.4098L119.033 28.1514C119.468 29.0521 119.974 29.9162 120.548 30.7355L120.045 31.0768ZM153.237 28.1929L152.683 27.9344C153.108 27.0298 153.46 26.0922 153.734 25.1309L154.322 25.2967C154.038 26.2902 153.675 27.2595 153.237 28.1953V28.1929ZM117.362 25.5283C117.065 24.5391 116.849 23.5273 116.716 22.5029L117.321 22.4225C117.45 23.4128 117.659 24.3911 117.945 25.3479L117.362 25.5283ZM154.922 22.2665L154.317 22.1933C154.401 21.4731 154.443 20.7487 154.444 20.0237C154.444 19.7506 154.444 19.4727 154.427 19.2021L155.034 19.1729C155.034 19.4557 155.054 19.7409 155.054 20.0237C155.056 20.7739 155.015 21.5236 154.929 22.2689L154.922 22.2665ZM117.167 19.4313L116.558 19.4118C116.592 18.3794 116.709 17.3515 116.906 16.3377L117.506 16.4571C117.315 17.4387 117.205 18.4342 117.175 19.4337L117.167 19.4313ZM154.051 16.2304C153.845 15.2515 153.561 14.2904 153.203 13.3562L153.773 13.1392C154.142 14.1036 154.434 15.0956 154.646 16.1061L154.051 16.2304ZM118.316 13.5731L117.745 13.361C118.104 12.3928 118.538 11.4546 119.045 10.5551L119.577 10.8549C119.088 11.7271 118.668 12.6369 118.323 13.5756L118.316 13.5731ZM153.147 13.2148C152.781 12.2876 152.342 11.3909 151.834 10.5332L152.359 10.2235C152.884 11.1118 153.337 12.0403 153.715 13.0003L153.147 13.2148ZM121.255 8.37567L120.767 7.99537C121.412 7.18848 122.12 6.43515 122.887 5.7428L123.296 6.19624C122.561 6.86756 121.88 7.59722 121.262 8.37811L121.255 8.37567ZM150.105 8.07825C149.464 7.31077 148.762 6.59658 148.005 5.9427L148.405 5.48196C149.185 6.15424 149.911 6.88794 150.573 7.67601L150.105 8.07825ZM125.687 4.37518L125.357 3.86323C126.225 3.3028 127.137 2.81363 128.084 2.40053L128.328 2.95879C127.413 3.36053 126.533 3.835 125.694 4.37762L125.687 4.37518ZM145.591 4.17284C144.734 3.6488 143.837 3.19313 142.908 2.81008L143.152 2.24694C144.106 2.64325 145.027 3.11357 145.908 3.65358L145.591 4.17284ZM131.16 1.97878L131.008 1.38882C132.009 1.13043 133.028 0.952707 134.057 0.857373L134.113 1.4644C133.118 1.55823 132.133 1.7327 131.167 1.98609L131.16 1.97878ZM140.069 1.88614C139.096 1.65698 138.106 1.50617 137.108 1.43514L137.152 0.825684C138.182 0.900022 139.205 1.05654 140.21 1.29375L140.069 1.88614Z" fill="#9192FF"/>
<path d="M327.901 252.269V251.66C328.911 251.64 329.93 251.599 330.933 251.535L330.969 252.145C329.95 252.208 328.921 252.25 327.901 252.269ZM324.84 252.25C323.823 252.22 322.797 252.167 321.782 252.091L321.828 251.484C322.831 251.56 323.85 251.611 324.857 251.64L324.84 252.25ZM334.011 251.877L333.942 251.272C334.945 251.16 335.957 251.028 336.95 250.867L337.045 251.47C336.042 251.628 335.023 251.765 334.011 251.877ZM318.736 251.789C317.728 251.665 316.711 251.516 315.707 251.345L315.809 250.743C316.804 250.914 317.814 251.062 318.809 251.184L318.736 251.789ZM340.057 250.916L339.933 250.321C340.908 250.114 341.915 249.883 342.886 249.634L343.04 250.224C342.057 250.482 341.054 250.709 340.057 250.916ZM312.702 250.758C311.709 250.538 310.709 250.295 309.729 250.026L309.887 249.436C310.863 249.7 311.851 249.943 312.833 250.168L312.702 250.758ZM345.986 249.39L345.805 248.807C346.769 248.51 347.735 248.186 348.681 247.832L348.888 248.405C347.935 248.761 346.957 249.088 345.986 249.39ZM306.792 249.146C305.817 248.837 304.841 248.495 303.895 248.137L304.107 247.567C305.056 247.923 306.022 248.259 306.978 248.566L306.792 249.146ZM351.735 247.298L351.491 246.735C352.415 246.35 353.347 245.938 354.256 245.516L354.517 246.067C353.608 246.504 352.669 246.921 351.735 247.313V247.298ZM301.046 246.991C300.112 246.589 299.173 246.158 298.258 245.714L298.527 245.165C299.432 245.607 300.361 246.033 301.288 246.433L301.046 246.991ZM357.259 244.687L356.971 244.149C357.859 243.678 358.746 243.174 359.612 242.664L359.922 243.191C359.049 243.72 358.154 244.224 357.259 244.7V244.687ZM295.537 244.305C294.646 243.817 293.754 243.3 292.883 242.769L293.2 242.247C294.063 242.774 294.946 243.286 295.829 243.768L295.537 244.305ZM362.515 241.567L362.18 241.058C363.022 240.504 363.858 239.922 364.671 239.332L365.029 239.819C364.21 240.433 363.366 241.019 362.515 241.579V241.567ZM290.305 241.109C289.466 240.541 288.627 239.943 287.81 239.332L288.176 238.844C288.983 239.449 289.815 240.041 290.646 240.604L290.305 241.109ZM367.458 237.964L367.078 237.491C367.861 236.86 368.641 236.204 369.397 235.541L369.8 235.997C369.039 236.679 368.251 237.342 367.458 237.976V237.964ZM285.4 237.44C284.615 236.794 283.837 236.121 283.083 235.438L283.493 234.987C284.239 235.663 285.01 236.328 285.788 236.969L285.4 237.44ZM372.046 233.915L371.622 233.478C372.353 232.779 373.061 232.05 373.748 231.316L374.192 231.733C373.497 232.486 372.775 233.22 372.046 233.927V233.915ZM280.864 233.33C280.132 232.613 279.427 231.867 278.744 231.121L279.193 230.709C279.871 231.44 280.579 232.186 281.293 232.903L280.864 233.33ZM376.226 229.453L375.763 229.056C376.419 228.291 377.063 227.498 377.68 226.706L378.168 227.079C377.56 227.891 376.899 228.69 376.236 229.466L376.226 229.453ZM276.718 228.817C276.067 228.035 275.425 227.23 274.815 226.421L275.303 226.053C275.908 226.855 276.542 227.652 277.188 228.427L276.718 228.817ZM379.999 224.641L379.512 224.29C380.092 223.464 380.66 222.615 381.199 221.767L381.714 222.094C381.153 222.935 380.58 223.795 379.999 224.641ZM273.05 223.963C272.476 223.127 271.915 222.257 271.381 221.401L271.901 221.079C272.428 221.935 272.984 222.786 273.552 223.62L273.05 223.963ZM383.289 219.47L382.76 219.168C383.248 218.295 383.736 217.396 384.204 216.487L384.746 216.764C384.272 217.669 383.782 218.576 383.28 219.458L383.289 219.47ZM269.837 218.764C269.35 217.876 268.862 216.964 268.418 216.058L268.964 215.787C269.411 216.686 269.884 217.588 270.372 218.469L269.837 218.764ZM386.075 214.01L385.519 213.766C385.936 212.847 386.336 211.903 386.704 210.97L387.272 211.194C386.889 212.118 386.487 213.069 386.065 213.998L386.075 214.01ZM267.128 213.278C266.721 212.35 266.333 211.399 265.972 210.453L266.54 210.236C266.899 211.172 267.272 212.113 267.686 213.035L267.128 213.278ZM388.343 208.298L387.765 208.1C388.092 207.15 388.399 206.177 388.68 205.209L389.265 205.38C388.962 206.357 388.653 207.332 388.323 208.308L388.343 208.298ZM264.957 207.567C264.638 206.591 264.34 205.616 264.069 204.641L264.657 204.48C264.925 205.455 265.221 206.43 265.535 207.381L264.957 207.567ZM390.045 202.418L389.453 202.276C389.697 201.301 389.901 200.302 390.087 199.312L390.687 199.427C390.487 200.426 390.262 201.433 390.026 202.418H390.045ZM263.323 201.667C263.101 200.692 262.896 199.673 262.718 198.668L263.318 198.561C263.494 199.556 263.696 200.555 263.918 201.533L263.323 201.667ZM391.184 196.406L390.582 196.321C390.721 195.329 390.84 194.314 390.933 193.31L391.54 193.366C391.426 194.38 391.306 195.404 391.165 196.406H391.184ZM262.255 195.643C262.126 194.639 262.011 193.615 261.935 192.601L262.543 192.549C262.626 193.556 262.733 194.57 262.86 195.565L262.255 195.643ZM391.762 190.314L391.153 190.285C391.199 189.285 391.223 188.264 391.223 187.254H391.833C391.806 188.273 391.782 189.292 391.736 190.314H391.762ZM261.767 189.544C261.74 188.788 261.728 188.017 261.728 187.254C261.728 187.011 261.728 186.74 261.728 186.484H262.338C262.338 186.728 262.338 186.991 262.338 187.247C262.338 188.003 262.338 188.766 262.377 189.517L261.767 189.544ZM391.206 185.758C391.182 184.748 391.136 183.729 391.065 182.727L391.675 182.686C391.745 183.698 391.792 184.726 391.816 185.743L391.206 185.758ZM262.448 183.461L261.838 183.425C261.896 182.408 261.982 181.382 262.082 180.375L262.689 180.438C262.562 181.438 262.479 182.467 262.421 183.461H262.448ZM390.784 179.709C390.667 178.712 390.526 177.703 390.362 176.708L390.965 176.608C391.131 177.613 391.272 178.632 391.389 179.639L390.784 179.709ZM263.082 177.432L262.443 177.347C262.596 176.343 262.774 175.329 262.977 174.334L263.574 174.456C263.384 175.433 263.206 176.438 263.055 177.432H263.082ZM389.799 173.729C389.589 172.754 389.353 171.755 389.094 170.78L389.684 170.624C389.945 171.599 390.184 172.61 390.394 173.6L389.799 173.729ZM264.252 171.496L263.662 171.348C263.906 170.372 264.184 169.37 264.479 168.398L265.062 168.573C264.772 169.531 264.499 170.521 264.252 171.496ZM388.226 167.874C387.923 166.913 387.592 165.948 387.25 165.004L387.821 164.792C388.172 165.745 388.506 166.721 388.811 167.688L388.226 167.874ZM266.013 165.68L265.438 165.475C265.779 164.517 266.147 163.551 266.533 162.61L267.099 162.854C266.716 163.776 266.345 164.731 266.013 165.682V165.68ZM386.133 162.184C385.743 161.262 385.324 160.333 384.889 159.427L385.438 159.163C385.877 160.077 386.302 161.016 386.694 161.947L386.133 162.184ZM268.318 160.058L267.764 159.802C268.194 158.88 268.652 157.957 269.125 157.055L269.667 157.337C269.196 158.234 268.742 159.151 268.318 160.06V160.058ZM383.514 156.728C383.041 155.848 382.538 154.963 382.016 154.097L382.538 153.785C383.063 154.656 383.572 155.55 384.053 156.44L383.514 156.728ZM271.142 154.685L270.616 154.375C271.13 153.5 271.674 152.623 272.23 151.772L272.74 152.103C272.198 152.952 271.652 153.819 271.142 154.687V154.685ZM380.392 151.54C379.836 150.706 379.251 149.87 378.653 149.061L379.141 148.7C379.743 149.517 380.333 150.36 380.897 151.201L380.392 151.54ZM274.459 149.602L273.971 149.246C274.564 148.422 275.191 147.601 275.823 146.808L276.298 147.189C275.664 147.976 275.047 148.79 274.459 149.604V149.602ZM376.797 146.664C376.163 145.884 375.5 145.109 374.829 144.358L375.285 143.951C375.96 144.709 376.629 145.494 377.27 146.282L376.797 146.664ZM278.237 144.856L277.776 144.453C278.447 143.688 279.144 142.93 279.847 142.198L280.286 142.62C279.591 143.347 278.901 144.1 278.237 144.858V144.856ZM372.756 142.145C372.051 141.413 371.319 140.714 370.583 140.031L370.997 139.585C371.729 140.275 372.48 140.992 373.192 141.718L372.756 142.145ZM282.442 140.487L282.022 140.043C282.754 139.346 283.525 138.654 284.293 137.993L284.691 138.454C283.927 139.11 283.174 139.804 282.442 140.487ZM368.314 138.022C367.546 137.374 366.751 136.735 365.949 136.121L366.322 135.633C367.129 136.255 367.931 136.901 368.707 137.554L368.314 138.022ZM287.034 136.528L286.656 136.04C287.456 135.414 288.281 134.797 289.108 134.21L289.461 134.697C288.639 135.299 287.822 135.904 287.032 136.528H287.034ZM363.498 134.334C362.671 133.759 361.817 133.195 360.966 132.661L361.29 132.145C362.151 132.686 363.01 133.254 363.846 133.834L363.498 134.334ZM291.973 133.025L291.644 132.513C292.498 131.964 293.376 131.428 294.254 130.921L294.559 131.447C293.688 131.945 292.817 132.476 291.971 133.02L291.973 133.025ZM358.356 131.109C357.478 130.621 356.576 130.133 355.673 129.68L355.947 129.136C356.856 129.595 357.766 130.08 358.654 130.577L358.356 131.109ZM297.217 129.994L296.937 129.453C297.836 128.99 298.761 128.539 299.685 128.117L299.929 128.671C299.027 129.078 298.105 129.531 297.215 129.99L297.217 129.994ZM352.927 128.376C352.005 127.966 351.061 127.574 350.122 127.206L350.344 126.638C351.293 127.008 352.244 127.406 353.176 127.82L352.927 128.376ZM302.717 127.471L302.488 126.906C303.434 126.525 304.397 126.174 305.356 125.831L305.556 126.406C304.607 126.738 303.661 127.093 302.717 127.471ZM347.264 126.172C346.308 125.853 345.335 125.55 344.366 125.277L344.532 124.69C345.508 124.968 346.483 125.27 347.459 125.594L347.264 126.172ZM308.443 125.477L308.27 124.892C309.246 124.604 310.238 124.336 311.226 124.095L311.373 124.687C310.392 124.934 309.407 125.192 308.443 125.477ZM341.43 124.519C340.454 124.29 339.45 124.083 338.459 123.9L338.569 123.303C339.569 123.485 340.579 123.695 341.567 123.924L341.43 124.519ZM314.333 124.032L314.216 123.432C315.214 123.239 316.231 123.064 317.236 122.917L317.324 123.52C316.328 123.671 315.321 123.844 314.333 124.036V124.032ZM335.464 123.42C334.467 123.286 333.452 123.176 332.45 123.083L332.504 122.476C333.516 122.566 334.54 122.679 335.545 122.815L335.464 123.42ZM320.343 123.151L320.282 122.544C321.292 122.445 322.319 122.369 323.336 122.315L323.367 122.925C322.35 122.983 321.333 123.056 320.333 123.156L320.343 123.151ZM329.433 122.891C328.548 122.854 327.65 122.837 326.762 122.837H326.401V122.228H326.767C327.662 122.228 328.57 122.245 329.462 122.281L329.433 122.891Z" fill="#9192FF"/>
<path d="M62.8328 180.975C61.8109 180.975 60.7793 180.926 59.7671 180.848L59.8134 180.241C60.811 180.317 61.828 180.358 62.8377 180.365L62.8328 180.975ZM65.901 180.885L65.862 180.275C66.8644 180.209 67.8766 180.109 68.8716 179.973L68.9546 180.575C67.9449 180.714 66.9181 180.819 65.901 180.885ZM56.7184 180.516C55.7087 180.368 54.6941 180.178 53.7015 179.956L53.8356 179.361C54.8112 179.58 55.8136 179.766 56.8087 179.914L56.7184 180.516ZM71.9764 180.063L71.852 179.466C72.8276 179.259 73.8203 179.012 74.7788 178.734L74.947 179.322C73.9763 179.59 72.974 179.841 71.9764 180.051V180.063ZM50.7333 179.181C49.7577 178.886 48.7821 178.554 47.8236 178.191L48.0407 177.62C48.9797 177.979 49.9455 178.308 50.9089 178.595L50.7333 179.181ZM77.8713 178.366L77.6616 177.793C78.603 177.447 79.542 177.062 80.4566 176.65L80.7005 177.206C79.781 177.613 78.8274 178.003 77.8713 178.354V178.366ZM44.9945 176.991C44.0701 176.562 43.1506 176.092 42.2604 175.594L42.5556 175.063C43.436 175.551 44.3433 176.016 45.253 176.44L44.9945 176.991ZM83.4565 175.843L83.1662 175.307C84.0467 174.819 84.9223 174.315 85.771 173.773L86.0978 174.288C85.2393 174.824 84.3491 175.346 83.4565 175.831V175.843ZM39.6337 174.005C38.7801 173.447 37.9264 172.849 37.1265 172.23L37.4972 171.743C38.2971 172.352 39.1264 172.94 39.9678 173.491L39.6337 174.005ZM88.6246 172.542L88.2587 172.055C89.066 171.455 89.8587 170.819 90.6196 170.163L91.0196 170.626C90.2538 171.28 89.4416 171.926 88.6246 172.533V172.542ZM34.7534 170.278C33.99 169.605 33.2413 168.895 32.5266 168.169L32.9608 167.74C33.6656 168.471 34.4046 169.159 35.1558 169.822L34.7534 170.278ZM93.2708 168.539L92.8415 168.108C93.5537 167.398 94.2488 166.645 94.9097 165.899L95.3707 166.301C94.7 167.062 93.9927 167.815 93.2708 168.532V168.539ZM30.456 165.889C29.795 165.114 29.1536 164.305 28.5512 163.483L29.039 163.123C29.6316 163.932 30.2584 164.729 30.9145 165.495L30.456 165.889ZM97.3048 163.903L96.817 163.537C97.4218 162.735 98.0047 161.899 98.5511 161.058L99.0632 161.389C98.5096 162.25 97.9169 163.096 97.3048 163.91V163.903ZM26.8195 160.95C26.2781 160.09 25.7586 159.198 25.2781 158.3L25.8171 158.013C26.2903 158.898 26.7927 159.775 27.3366 160.626L26.8195 160.95ZM100.634 158.756L100.1 158.461C100.588 157.581 101.041 156.672 101.461 155.76L102.014 156.004C101.595 156.945 101.129 157.867 100.639 158.761L100.634 158.756ZM23.9318 155.548C23.5172 154.619 23.1343 153.661 22.788 152.706L23.3611 152.498C23.7026 153.442 24.0928 154.383 24.4903 155.299L23.9318 155.548ZM103.197 153.179L102.627 152.964C102.978 152.023 103.3 151.06 103.583 150.097L104.168 150.268C103.885 151.262 103.558 152.238 103.202 153.183L103.197 153.179ZM21.8539 149.8C21.5783 148.825 21.3344 147.815 21.1222 146.818L21.7197 146.696C21.9221 147.672 22.1612 148.669 22.4343 149.622L21.8539 149.8ZM104.934 147.311L104.336 147.181C104.551 146.206 104.731 145.2 104.873 144.205L105.478 144.293C105.331 145.292 105.148 146.306 104.934 147.301V147.311ZM20.6222 143.793C20.4905 142.786 20.3929 141.757 20.332 140.741L20.9417 140.704C21.0002 141.709 21.0978 142.72 21.227 143.715L20.6222 143.793ZM105.802 141.243L105.195 141.199C105.265 140.2 105.3 139.183 105.3 138.179H105.909C105.909 139.188 105.863 140.219 105.802 141.233V141.243ZM20.871 137.681H20.2612C20.2612 136.662 20.3198 135.631 20.4051 134.617L21.0124 134.668C20.9295 135.66 20.8807 136.665 20.871 137.671V137.681ZM105.258 136.148C105.209 135.143 105.126 134.129 105.014 133.135L105.619 133.062C105.741 134.071 105.826 135.1 105.863 136.119L105.258 136.148ZM21.3734 131.657L20.771 131.565C20.9271 130.558 21.1222 129.544 21.349 128.552L21.9441 128.688C21.7197 129.656 21.5222 130.655 21.3685 131.648L21.3734 131.657ZM104.541 130.146C104.351 129.171 104.124 128.171 103.863 127.201L104.451 127.043C104.717 128.018 104.939 129.032 105.141 130.031L104.541 130.146ZM22.727 125.758L22.1441 125.58C22.4441 124.605 22.7831 123.63 23.1514 122.679L23.7196 122.898C23.3513 123.834 23.0172 124.797 22.7221 125.758H22.727ZM102.968 124.295C102.639 123.349 102.27 122.403 101.873 121.482L102.434 121.238C102.836 122.172 103.209 123.132 103.544 124.093L102.968 124.295ZM24.922 120.114L24.3733 119.853C24.8074 118.932 25.2854 118.015 25.7854 117.128L26.3171 117.428C25.8122 118.308 25.344 119.21 24.9123 120.119L24.922 120.114ZM100.588 118.751C100.127 117.862 99.6242 116.977 99.0998 116.121L99.6193 115.802C100.153 116.669 100.661 117.567 101.129 118.483L100.588 118.751ZM27.9073 114.851L27.4 114.512C27.9634 113.664 28.5658 112.825 29.1902 112.018L29.678 112.391C29.0365 113.188 28.4463 114.017 27.8902 114.853L27.9073 114.851ZM97.434 113.605C96.8487 112.791 96.2268 111.984 95.5853 111.214L96.0536 110.824C96.7048 111.606 97.3365 112.423 97.9291 113.261L97.434 113.605ZM31.5876 110.063L31.134 109.656C31.812 108.898 32.5266 108.152 33.2583 107.442L33.6827 107.881C32.9632 108.583 32.2583 109.332 31.5876 110.063ZM93.5537 108.956C92.8586 108.225 92.1269 107.523 91.383 106.847L91.7903 106.396C92.5464 107.079 93.2878 107.798 93.9854 108.534L93.5537 108.956ZM35.929 105.853L35.5363 105.387C36.3143 104.731 37.1289 104.095 37.9533 103.498L38.3118 103.985C37.4972 104.585 36.6972 105.212 35.929 105.858V105.853ZM89.066 104.902C88.2734 104.283 87.449 103.683 86.6271 103.125L86.9661 102.618C87.8124 103.186 88.649 103.793 89.4514 104.422L89.066 104.902ZM40.8214 102.303L40.4995 101.786C41.3629 101.248 42.258 100.736 43.1604 100.26L43.4433 100.802C42.5555 101.272 41.6726 101.774 40.8214 102.308V102.303ZM84.0467 101.526C83.1736 101.038 82.2712 100.551 81.3639 100.117L81.6297 99.5681C82.5468 100.009 83.4614 100.49 84.3467 100.997L84.0467 101.526ZM46.1676 99.4901L45.9237 98.9318C46.8554 98.5247 47.8163 98.1444 48.7748 97.8055L48.9797 98.3784C48.031 98.7197 47.0846 99.0927 46.1676 99.4949V99.4901ZM78.6054 98.9025C77.6689 98.5344 76.708 98.1931 75.7495 97.8933L75.9324 97.3106C76.908 97.6178 77.8835 97.9615 78.8298 98.337L78.6054 98.9025ZM51.8747 97.4715L51.7113 96.884C52.6869 96.6158 53.699 96.3769 54.699 96.1795L54.8185 96.7767C53.8185 96.9766 52.8283 97.2107 51.8625 97.4764L51.8747 97.4715ZM72.8325 97.0937C71.8569 96.8499 70.857 96.6646 69.8643 96.5037L69.9619 95.904C70.9692 96.0649 71.9813 96.2672 72.9715 96.4988L72.8325 97.0937ZM57.8038 96.294L57.7282 95.6895C58.7379 95.5627 59.7647 95.4725 60.7842 95.4164L60.8159 96.0259C59.7988 96.0844 58.7915 96.1673 57.7916 96.2989L57.8038 96.294ZM66.8644 96.1307C65.8644 96.0429 64.8474 95.9893 63.8426 95.9723V95.3628C64.8645 95.3799 65.8937 95.4335 66.9083 95.5237L66.8644 96.1307Z" fill="#9192FF"/>
<path d="M234.568 35.5505C231.84 35.5473 229.225 34.4625 227.296 32.5343C225.367 30.6061 224.283 27.9918 224.28 25.2652C224.285 22.5399 225.37 19.9276 227.299 18.0009C229.227 16.0743 231.841 14.9905 234.568 14.9873C237.296 14.9899 239.911 16.074 241.84 18.0018C243.769 19.9295 244.854 22.5435 244.858 25.2701C244.853 27.9961 243.767 30.6091 241.838 32.5362C239.91 34.4633 237.295 35.5473 234.568 35.5505ZM234.568 15.4383C231.961 15.4409 229.462 16.477 227.619 18.3194C225.776 20.1617 224.739 22.6598 224.736 25.2652C224.739 27.8707 225.776 30.3687 227.619 32.2111C229.462 34.0534 231.961 35.0896 234.568 35.0922C237.174 35.0883 239.671 34.0516 241.514 32.2093C243.356 30.3671 244.392 27.8699 244.394 25.2652C244.392 22.6606 243.356 20.1633 241.514 18.3211C239.671 16.4789 237.174 15.4422 234.568 15.4383Z" fill="#9192FF"/>
<path d="M341.615 72.4663V257.796C341.613 259.645 340.876 261.418 339.568 262.725C338.259 264.032 336.485 264.767 334.635 264.768H65.2058C64.2882 264.768 63.3795 264.587 62.5318 264.236C61.684 263.885 60.9137 263.371 60.2649 262.722C59.616 262.074 59.1013 261.304 58.7501 260.456C58.399 259.609 58.2183 258.701 58.2183 257.784V72.4663C58.2183 70.614 58.9544 68.8374 60.2649 67.5276C61.5753 66.2178 63.3526 65.4819 65.2058 65.4819H334.635C336.487 65.4832 338.263 66.2197 339.572 67.5295C340.881 68.8392 341.616 70.615 341.615 72.4663Z" fill="white"/>
<path d="M334.635 265.073H65.2055C63.2722 265.07 61.4189 264.301 60.0518 262.935C58.6848 261.569 57.9157 259.716 57.9131 257.784V72.4664C57.9157 70.534 58.6848 68.6814 60.0518 67.315C61.4189 65.9486 63.2722 65.1798 65.2055 65.1772H334.635C336.568 65.1798 338.42 65.9488 339.787 67.3153C341.153 68.6819 341.921 70.5344 341.922 72.4664V257.796C341.918 259.726 341.148 261.575 339.782 262.939C338.417 264.303 336.565 265.07 334.635 265.073ZM65.2055 65.7867C63.4337 65.7886 61.7351 66.493 60.4823 67.7453C59.2294 68.9975 58.5248 70.6954 58.5228 72.4664V257.796C58.5248 259.567 59.2294 261.265 60.4823 262.517C61.7351 263.769 63.4337 264.474 65.2055 264.475H334.635C336.406 264.473 338.104 263.768 339.356 262.516C340.607 261.264 341.311 259.566 341.313 257.796V72.4664C341.311 70.6961 340.607 68.9986 339.356 67.7463C338.104 66.494 336.406 65.7893 334.635 65.7867H65.2055Z" fill="#9192FF"/>
<path d="M341.615 72.4663V83.461H58.2109V72.4663C58.2109 70.614 58.9471 68.8374 60.2575 67.5276C61.568 66.2178 63.3453 65.4819 65.1985 65.4819H334.635C336.487 65.4832 338.263 66.2197 339.572 67.5295C340.881 68.8392 341.616 70.615 341.615 72.4663Z" fill="white"/>
<path d="M341.92 83.7658H57.9106V72.4664C57.9132 70.534 58.6824 68.6814 60.0494 67.315C61.4164 65.9486 63.2698 65.1798 65.2031 65.1772H334.635C336.568 65.1798 338.42 65.9488 339.787 67.3153C341.153 68.6819 341.921 70.5344 341.922 72.4664L341.92 83.7658ZM58.5155 83.1563H341.31V72.4664C341.309 70.6965 340.605 68.9993 339.354 67.7471C338.103 66.4949 336.405 65.7899 334.635 65.7867H65.2055C63.4337 65.7886 61.7351 66.493 60.4823 67.7453C59.2294 68.9975 58.5248 70.6954 58.5228 72.4664L58.5155 83.1563Z" fill="#9192FF"/>
<path d="M73.9518 77.72C75.7473 77.72 77.2029 76.2651 77.2029 74.4703C77.2029 72.6756 75.7473 71.2207 73.9518 71.2207C72.1562 71.2207 70.7007 72.6756 70.7007 74.4703C70.7007 76.2651 72.1562 77.72 73.9518 77.72Z" fill="#FFC444"/>
<path d="M86.3512 71.2207C85.4889 71.2213 84.6621 71.5639 84.0522 72.1731C83.4422 72.7823 83.0989 73.6085 83.0977 74.4703C83.0983 75.3327 83.4413 76.1595 84.0513 76.7692C84.6613 77.3789 85.4885 77.7218 86.3512 77.7224C87.2133 77.7205 88.0394 77.3772 88.6488 76.7676C89.2581 76.1581 89.601 75.332 89.6023 74.4703C89.601 73.6089 89.2581 72.7831 88.6486 72.1739C88.0392 71.5648 87.213 71.222 86.3512 71.2207Z" fill="#FFC444"/>
<path d="M98.7482 77.7224C97.8855 77.7218 97.0583 77.3789 96.4483 76.7692C95.8383 76.1595 95.4953 75.3327 95.4946 74.4703C95.4959 73.6085 95.8392 72.7823 96.4492 72.1731C97.0591 71.5639 97.8859 71.2213 98.7482 71.2207C99.61 71.222 100.436 71.5648 101.046 72.1739C101.655 72.7831 101.998 73.6089 101.999 74.4703C101.999 75.3322 101.656 76.1587 101.046 76.7683C100.437 77.378 99.6104 77.7211 98.7482 77.7224ZM98.7482 71.8302C98.048 71.8315 97.3769 72.11 96.8819 72.6049C96.3868 73.0997 96.1081 73.7705 96.1068 74.4703C96.1074 75.171 96.3862 75.8428 96.8819 76.3382C97.3775 76.8337 98.0496 77.1123 98.7506 77.113C99.4507 77.111 100.122 76.8318 100.616 76.3365C101.111 75.8412 101.389 75.1702 101.39 74.4703C101.389 73.7703 101.11 73.0992 100.615 72.6042C100.12 72.1092 99.4485 71.8308 98.7482 71.8302Z" fill="#9192FF"/>
<path d="M178.763 78.0905H118.323C117.363 78.0898 116.442 77.7082 115.763 77.0294C115.084 76.3507 114.702 75.4302 114.702 74.4703C114.703 73.5108 115.085 72.591 115.764 71.9127C116.443 71.2345 117.364 70.8532 118.323 70.8525H178.763C179.722 70.8538 180.642 71.2354 181.321 71.9136C181.999 72.5918 182.381 73.5112 182.382 74.4703C182.381 75.4298 182 76.3499 181.321 77.0286C180.643 77.7073 179.723 78.0892 178.763 78.0905ZM118.323 71.462C117.525 71.4626 116.76 71.7797 116.195 72.3437C115.631 72.9076 115.313 73.6724 115.311 74.4703C115.312 75.2686 115.63 76.034 116.194 76.5985C116.759 77.163 117.525 77.4804 118.323 77.481H178.763C179.561 77.4797 180.326 77.162 180.89 76.5976C181.455 76.0332 181.772 75.2682 181.772 74.4703C181.771 73.6728 181.454 72.9084 180.889 72.3445C180.325 71.7807 179.561 71.4633 178.763 71.462H118.323Z" fill="#9192FF"/>
<path d="M255.614 169.699C255.614 198.88 231.956 222.54 202.757 222.54C173.558 222.54 149.893 198.88 149.893 169.699C149.893 142.323 170.726 119.809 197.408 117.127L199.172 134.465C190.443 135.356 182.355 139.453 176.474 145.962C170.593 152.471 167.337 160.929 167.336 169.699C167.336 174.349 168.252 178.953 170.032 183.249C171.812 187.545 174.421 191.449 177.71 194.737C180.999 198.025 184.904 200.633 189.201 202.413C193.499 204.193 198.105 205.109 202.757 205.109C207.408 205.108 212.014 204.192 216.311 202.412C220.608 200.632 224.512 198.024 227.801 194.736C231.089 191.448 233.698 187.544 235.477 183.248C237.256 178.953 238.171 174.349 238.17 169.699C238.174 166.373 237.707 163.063 236.785 159.868L253.548 155.029C254.923 159.797 255.619 164.736 255.614 169.699Z" fill="#9192FF"/>
<path d="M202.764 212.36C226.336 212.36 245.445 193.259 245.445 169.697C245.445 146.136 226.336 127.035 202.764 127.035C179.192 127.035 160.083 146.136 160.083 169.697C160.083 193.259 179.192 212.36 202.764 212.36Z" fill="white"/>
<path opacity="0.5" d="M202.764 212.36C226.336 212.36 245.445 193.259 245.445 169.697C245.445 146.136 226.336 127.035 202.764 127.035C179.192 127.035 160.083 146.136 160.083 169.697C160.083 193.259 179.192 212.36 202.764 212.36Z" fill="#D1D1FF"/>
<path d="M202.764 199.924C219.46 199.924 232.995 186.391 232.995 169.697C232.995 153.004 219.46 139.471 202.764 139.471C186.068 139.471 172.534 153.004 172.534 169.697C172.534 186.391 186.068 199.924 202.764 199.924Z" fill="white"/>
<path d="M206.213 184.563V189.156H200.359V184.768C196.213 184.524 192.204 183.4 189.718 181.869L192.864 174.748C195.782 176.429 199.078 177.341 202.445 177.401C205.22 177.401 206.215 176.82 206.215 175.826C206.215 172.184 190.189 175.124 190.189 164.317C190.189 159.636 193.584 155.704 200.374 154.753V150.241H206.227V154.675C209.288 154.965 212.274 155.753 214.632 157.076L211.705 164.146C208.847 162.683 206.154 161.994 203.63 161.994C200.769 161.994 199.859 162.822 199.859 163.815C199.859 167.293 215.886 164.395 215.886 175.075C215.859 179.553 212.63 183.442 206.213 184.563Z" fill="#9192FF"/>
<path d="M390.94 29.3291H275.942V99.6144H390.94V29.3291Z" fill="white"/>
<path d="M391.245 99.9217H275.64V29.0269H391.245V99.9217ZM276.245 99.3122H390.631V29.6363H276.245V99.3122Z" fill="#9192FF"/>
<path d="M297.039 77.2422H290.419V89.3924H297.039V77.2422Z" fill="#D1D1FF"/>
<path d="M310.275 71.6914H303.656V89.3925H310.275V71.6914Z" fill="#D1D1FF"/>
<path d="M323.513 76.2305H316.894V89.3924H323.513V76.2305Z" fill="#D1D1FF"/>
<path d="M336.752 66.9668H330.133V89.39H336.752V66.9668Z" fill="#D1D1FF"/>
<path d="M349.988 61.043H343.369V89.3926H349.988V61.043Z" fill="#D1D1FF"/>
<path d="M363.227 52.5835H356.607V89.3924H363.227V52.5835Z" fill="#D1D1FF"/>
<path d="M376.463 39.5532H369.843V89.3924H376.463V39.5532Z" fill="#D1D1FF"/>
<path d="M295.68 45.4673H290.419V51.4205H295.68V45.4673Z" fill="#D1D1FF"/>
<path d="M339.43 48.2222H303.807V49.7483H339.43V48.2222Z" fill="#D1D1FF"/>
<path d="M287.464 135.25L280.179 115.141C276.045 116.638 272.473 119.372 269.949 122.97C267.424 126.568 266.07 130.856 266.069 135.25C266.071 140.92 268.326 146.358 272.338 150.366C276.35 154.374 281.791 156.626 287.464 156.625C293.137 156.625 298.578 154.373 302.59 150.363C306.602 146.353 308.856 140.914 308.856 135.243C308.859 131.813 308.033 128.434 306.448 125.392L287.464 135.25Z" fill="#EBEBFF"/>
<path d="M309.294 117.781C307.49 114.305 304.764 111.391 301.416 109.358C298.068 107.324 294.225 106.249 290.307 106.25C287.824 106.248 285.36 106.679 283.024 107.523L290.307 127.632L309.294 117.781Z" fill="#9192FF"/>
<path d="M317.745 203.773H267.137V251.921H317.745V203.773Z" fill="#EBEBFF"/>
<path d="M303.417 216.572H275.064V218.605H303.417V216.572Z" fill="white"/>
<path d="M303.417 222.667H275.064V224.7H303.417V222.667Z" fill="white"/>
<path d="M124.567 111.745H80.5586V186.099H124.567V111.745Z" fill="#EBEBFF"/>
<path d="M116.126 122.513H87.2661V148.922H116.126V122.513Z" fill="white"/>
<path d="M87.4947 122.294L87.083 122.743L115.945 149.151L116.357 148.701L87.4947 122.294Z" fill="#EBEBFF"/>
<path d="M115.912 122.285L87.0542 148.697L87.466 149.147L116.323 122.734L115.912 122.285Z" fill="#EBEBFF"/>
<path d="M101.709 142.113H1.05176V208.405H101.709V142.113Z" fill="white"/>
<path d="M102 208.698H0.761719V141.823H102V208.698ZM1.34219 208.115H101.419V142.405H1.34219V208.115Z" fill="#9192FF"/>
<path d="M11.6587 192.396L18.1609 180.207L31.575 192.803L40.5186 166.799L57.1839 185.082L68.1591 180.614L88.0779 154.609" fill="white"/>
<path d="M31.7118 193.349L18.244 180.702L11.9272 192.54L11.3882 192.255L18.0806 179.712L31.4411 192.26L40.3969 166.214L57.267 184.722L67.9691 180.363L87.8366 154.424L88.3195 154.795L68.352 180.865L57.1036 185.446L56.9597 185.29L40.6408 167.386L31.7118 193.349Z" fill="#9192FF"/>
<path d="M18.2122 181.833C19.1376 181.833 19.8877 181.083 19.8877 180.158C19.8877 179.233 19.1376 178.483 18.2122 178.483C17.2868 178.483 16.5366 179.233 16.5366 180.158C16.5366 181.083 17.2868 181.833 18.2122 181.833Z" fill="#9192FF"/>
<path d="M31.4754 194.173C32.4007 194.173 33.1509 193.423 33.1509 192.499C33.1509 191.574 32.4007 190.824 31.4754 190.824C30.55 190.824 29.7998 191.574 29.7998 192.499C29.7998 193.423 30.55 194.173 31.4754 194.173Z" fill="#9192FF"/>
<path d="M40.6213 168.576C41.5467 168.576 42.2969 167.826 42.2969 166.901C42.2969 165.976 41.5467 165.226 40.6213 165.226C39.696 165.226 38.9458 165.976 38.9458 166.901C38.9458 167.826 39.696 168.576 40.6213 168.576Z" fill="#9192FF"/>
<path d="M72.7224 152.681H30.041V153.291H72.7224V152.681Z" fill="#9192FF"/>
<path d="M240.375 302.355C238.594 290.415 241.027 278.228 247.255 267.886C253.552 257.583 263.24 249.792 274.657 245.851C268.245 250.336 264.333 257.584 261.604 264.914C258.875 272.245 257.082 279.936 253.714 286.994C250.346 294.052 245.034 300.646 237.668 303.289L240.375 302.355Z" fill="#9192FF"/>
<path d="M238.604 302.452C238.342 288.759 235.701 275.215 230.8 262.425C229.061 257.896 226.975 253.373 223.588 249.902C220.2 246.43 215.269 244.141 210.491 244.99C216.442 249.441 219.515 256.764 221.259 263.99C223.002 271.216 223.663 278.71 226.107 285.726C228.551 292.742 233.229 299.507 240.224 302.016L238.604 302.452Z" fill="#9192FF"/>
<path d="M237.67 303.347C234.268 294.19 230.571 284.8 223.729 277.825C216.888 270.85 206.05 266.855 197.089 270.755C204.406 272.439 210.932 276.561 215.596 282.442C218.971 286.728 221.239 291.809 224.71 296.016C228.18 300.224 233.475 303.615 238.839 302.613L237.67 303.347Z" fill="#D1D1FF"/>
<path d="M236.59 302.72C235.195 292.672 233.8 282.46 235.268 272.418C236.736 262.377 241.487 252.355 249.996 246.821C245.287 251.438 243.714 258.432 243.711 265.027C243.709 271.621 245.045 278.154 245.158 284.746C245.27 291.338 243.96 298.345 239.499 303.201L236.59 302.72Z" fill="#D1D1FF"/>
<path d="M241.292 301.258C244.553 292.952 248.031 284.327 254.672 278.367C258.973 274.523 264.323 272.048 270.037 271.258C266.057 274.427 263.562 279.088 261.501 283.742C259.44 288.396 257.647 293.25 254.652 297.365C251.657 301.48 247.16 304.873 242.07 305.09L241.292 301.258Z" fill="#D1D1FF"/>
<path d="M257.855 326.528H221.224L215.578 298.364H263.501L257.855 326.528Z" fill="white"/>
<path d="M258.104 326.833H220.98L215.212 298.066H263.879L258.104 326.833ZM221.473 326.223H257.604L263.128 298.676H215.949L221.473 326.223Z" fill="#9192FF"/>
<path d="M323.43 309.592V326.528H301.456L311.516 318.325L312.045 308.005L323.43 309.592Z" fill="#D1D1FF"/>
<path d="M311.708 318.116L311.288 318.557L315.483 322.546L315.903 322.104L311.708 318.116Z" fill="#1B1B43"/>
<path d="M321.299 314.085H313.78V314.695H321.299V314.085Z" fill="#1B1B43"/>
<path d="M349.11 310.387L349.905 326.528H327.93L337.196 318.591V308.798L349.11 310.387Z" fill="#D1D1FF"/>
<path d="M337.377 318.376L336.974 318.833L340.386 321.846L340.79 321.389L337.377 318.376Z" fill="#1B1B43"/>
<path d="M347.113 314.39H339.693V315H347.113V314.39Z" fill="#1B1B43"/>
<path d="M325.643 212.242C326.021 245.989 328.867 279.189 334.179 311.843H352.683C348.832 286.879 347.091 256.562 349.244 216.37L335.871 205.424L325.643 212.242Z" fill="#222935"/>
<path d="M311.004 216.709L302.627 253.951C300.613 262.901 300.472 272.171 302.214 281.177L308.1 311.599H326.616L321.006 271.662L334.406 210.782L311.004 216.709Z" fill="#222935"/>
<path d="M326.889 252.398C326.843 251.63 325.789 234.502 325.669 232.33L320.831 230.572L321.038 230L326.269 231.901V232.113C326.269 232.489 327.067 245.521 327.489 252.347L326.889 252.398Z" fill="#DCD7D7"/>
<path d="M366.978 132.62L367.97 130.258C367.97 130.258 364.388 122.715 365.532 121.726C366.675 120.736 368.502 123.554 368.502 123.554C368.502 123.554 367.97 114.412 369.722 114.337C371.202 114.273 371.095 116.926 371.246 120.887C371.246 120.887 372.161 119.668 373.843 120.928C374.599 119.668 376.202 120.507 376.658 121.27C377.192 120.66 379.402 120.811 379.097 123.403C378.712 126.687 377.192 132.771 377.192 132.771L372.314 136.811L366.978 132.62Z" fill="#FFBC96"/>
<path d="M327.806 164.158L335.223 164.1C348.232 162.94 358.393 152.376 358.393 152.376L366.978 132.63L377.192 132.781L371.197 156.001C370.336 159.336 368.481 162.33 365.878 164.588L344.571 183.061L327.806 164.158Z" fill="#FFC444"/>
<path d="M307.475 180.97L311.007 216.706L349.247 216.37L347.925 173.301L327.804 164.159L313.882 170.051L307.475 180.97Z" fill="#FFC444"/>
<path d="M283.791 184.441C283.167 183.887 282.381 183.55 281.549 183.481C277.323 183.13 264.108 182.108 264.233 183.135C264.386 184.354 274.447 188.925 274.447 188.925L280.9 196.185L286.812 187.123L283.791 184.441Z" fill="#FFBC96"/>
<path d="M312.616 167.596C311.273 167.83 310.002 168.374 308.905 169.184C307.808 169.994 306.915 171.049 306.297 172.264L295.027 194.412L286.815 187.125L280.903 196.187L283.061 198.625C286.254 202.218 289.976 207.042 294.961 208.088C297.502 208.622 299.866 207.567 301.687 205.821C303.035 204.495 304.204 203 305.165 201.372L309.66 193.966L323.989 165.626L312.616 167.596Z" fill="#FFC444"/>
<path d="M307.787 180.943L307.18 181.002L309.321 202.992L309.928 202.933L307.787 180.943Z" fill="#D1D1FF"/>
<path d="M348.154 179.854L344.571 183.052L348.383 189.376L348.154 179.854Z" fill="#1B1B43"/>
<path d="M372.568 125.433C371.131 125.433 371.019 123.549 371.019 120.887H371.475C371.475 124.022 371.719 124.977 372.568 124.977C372.651 124.977 372.734 124.958 372.81 124.923C372.885 124.888 372.953 124.836 373.007 124.773C373.414 124.336 373.573 123.31 373.621 122.398C373.59 121.735 373.607 121.16 373.621 120.918H374.077C374.101 121.394 374.101 121.871 374.077 122.347C374.141 123.59 374.351 124.817 374.763 124.941C374.865 124.976 374.974 124.987 375.081 124.971C375.188 124.955 375.29 124.914 375.377 124.851C375.865 124.495 376.148 123.488 376.292 122.591C376.309 122.137 376.355 121.685 376.429 121.238L376.882 121.282C376.864 121.69 376.825 122.097 376.765 122.501C376.733 123.449 376.841 124.37 377.226 124.531C377.336 124.592 377.46 124.623 377.586 124.623C377.712 124.623 377.835 124.592 377.946 124.531C378.468 124.212 378.658 123.134 378.677 122.747L379.133 122.781C379.133 122.849 379.002 124.417 378.172 124.921C378.001 125.021 377.808 125.077 377.61 125.083C377.412 125.088 377.215 125.045 377.038 124.955C376.931 124.912 376.594 124.712 376.407 124.002C376.274 124.476 376.005 124.899 375.634 125.221C375.49 125.327 375.323 125.396 375.147 125.423C374.97 125.45 374.79 125.434 374.621 125.377C374.221 125.258 373.973 124.743 373.819 124.102C373.733 124.46 373.566 124.794 373.331 125.077C373.236 125.187 373.119 125.276 372.988 125.337C372.856 125.399 372.713 125.431 372.568 125.433Z" fill="#D28572"/>
<path d="M324.577 172.832C323.018 172.957 321.474 172.459 320.282 171.447C319.091 170.434 318.35 168.99 318.224 167.432L318.158 166.608L317.231 155.114L324.394 154.541L328.991 154.17L329.979 166.481C330.105 168.04 329.607 169.584 328.594 170.775C327.581 171.966 326.136 172.706 324.577 172.832Z" fill="#FFBC96"/>
<path d="M326.687 158.417C324.455 162.349 321.26 165.177 318.15 166.608L317.224 155.114L324.387 154.541L326.687 158.417Z" fill="#1B1B43"/>
<path d="M329.025 146.387L327.606 158.374C327.606 158.374 323.033 162.745 316.326 162.537C313.887 162.464 312.441 160.148 311.599 157.204C311.251 155.923 310.997 154.62 310.838 153.303C310.499 150.401 310.397 147.477 310.533 144.558L320.899 141.109L329.025 146.387Z" fill="#FFBC96"/>
<path d="M327.448 151.311C326.37 147.464 324.431 145.531 321.809 145.114C313.475 149.634 308.063 146.942 304.126 141.913C313.78 143.793 317.997 130.08 327.245 139.232C334.103 141.314 333.977 147.866 330.091 153.198L327.448 151.311Z" fill="#1B1B43"/>
<path d="M331.759 152.765C332.113 150.956 331.127 149.242 329.558 148.935C327.989 148.629 326.43 149.847 326.076 151.656C325.723 153.465 326.709 155.18 328.278 155.486C329.847 155.793 331.406 154.574 331.759 152.765Z" fill="#FFBC96"/>
<path d="M329.977 150.985C329.489 151.065 329.191 151.426 328.957 151.838C328.728 152.271 328.571 152.737 328.491 153.22H328.313C328.243 152.95 328.232 152.668 328.281 152.394C328.327 152.116 328.422 151.848 328.562 151.604C328.702 151.348 328.9 151.13 329.14 150.965C329.262 150.879 329.401 150.819 329.548 150.79C329.694 150.761 329.845 150.763 329.991 150.797L329.977 150.985Z" fill="#1B1B43"/>
<path d="M313.016 151.794C313.016 152.31 312.773 152.732 312.458 152.732C312.143 152.732 311.899 152.31 311.899 151.794C311.899 151.277 312.143 150.853 312.458 150.853C312.773 150.853 313.016 151.274 313.016 151.794Z" fill="#1B1B43"/>
<path d="M317.638 151.409C317.638 151.972 317.365 152.428 317.031 152.428C316.697 152.428 316.426 151.972 316.426 151.409C316.426 150.846 316.697 150.392 317.031 150.392C317.365 150.392 317.638 150.848 317.638 151.409Z" fill="#1B1B43"/>
<path d="M314.287 152.554C314.28 152.735 314.227 152.91 314.131 153.064C314.04 153.208 313.935 153.342 313.819 153.466C313.612 153.65 313.453 153.882 313.355 154.141C313.333 154.263 313.34 154.389 313.376 154.508C313.411 154.627 313.474 154.736 313.56 154.826C313.764 155.055 313.981 155.273 314.209 155.477L314.111 155.626C313.798 155.504 313.51 155.323 313.263 155.094C313.127 154.964 313.021 154.807 312.95 154.634C312.875 154.444 312.861 154.235 312.911 154.036C312.961 153.85 313.054 153.678 313.182 153.534C313.294 153.408 313.416 153.291 313.548 153.186C313.788 153.017 313.982 152.791 314.111 152.527L314.287 152.554Z" fill="#1B1B43"/>
<path d="M314.726 157.632C315.352 157.509 315.953 157.28 316.502 156.955C316.77 156.788 317.024 156.599 317.263 156.392C317.506 156.184 317.736 155.958 317.975 155.729L318.121 155.831C317.814 156.456 317.334 156.981 316.738 157.342C316.139 157.708 315.438 157.872 314.738 157.81L314.726 157.632Z" fill="#1B1B43"/>
<path d="M316.297 148.888C316.165 149.575 318.328 149.797 318.719 149.863C319.038 149.919 319.494 149.953 319.563 149.468C319.645 148.866 318.989 148.802 318.619 148.722C318.248 148.642 316.421 148.237 316.297 148.888Z" fill="#1B1B43"/>
<path d="M313.289 149.312C313.277 149.977 311.558 150.043 311.243 150.082C310.984 150.114 310.624 150.119 310.65 149.651C310.684 149.071 311.206 149.054 311.506 149.002C311.806 148.951 313.299 148.683 313.289 149.312Z" fill="#1B1B43"/>
<path opacity="0.2" d="M321.365 155.662C322.585 155.662 323.575 154.674 323.575 153.454C323.575 152.234 322.585 151.245 321.365 151.245C320.145 151.245 319.155 152.234 319.155 153.454C319.155 154.674 320.145 155.662 321.365 155.662Z" fill="#FE5B52"/>
<path opacity="0.2" d="M312.487 155.438C312.489 155.781 312.409 156.12 312.254 156.426C312.099 156.732 311.874 156.996 311.597 157.198C311.249 155.918 310.995 154.615 310.836 153.298C311.309 153.423 311.727 153.701 312.025 154.088C312.324 154.475 312.486 154.95 312.487 155.438Z" fill="#FE5B52"/>
<path d="M154.949 226.625H112.531V229.48H154.949V226.625Z" fill="#9192FF"/>
<path d="M154.946 226.628H119.123L132.691 193.566H168.511L154.946 226.628Z" fill="white"/>
<path d="M155.149 226.933H118.667L132.484 193.261H168.965L155.149 226.933ZM119.577 226.323H154.739L168.055 193.871H132.893L119.577 226.323Z" fill="#9192FF"/>
<path d="M151.854 223.849H123.701L134.362 197.866H162.514L151.854 223.849Z" fill="#EBEBFF"/>
<path d="M140.683 230.395H140.074V326.684H140.683V230.395Z" fill="#1B1B43"/>
<path d="M174.592 229.483H106.167V234.922H174.592V229.483Z" fill="#D1D1FF"/>
<path d="M50.9501 270.841H50.3403V326.684H50.9501V270.841Z" fill="#1B1B43"/>
<path d="M67.3763 273.432H33.9141C34.2591 271.785 35.1609 270.306 36.4679 269.245C37.775 268.183 39.4078 267.604 41.0919 267.604H60.2034C61.8876 267.603 63.5205 268.182 64.8277 269.244C66.1349 270.306 67.0366 271.785 67.3811 273.432H67.3763Z" fill="#D1D1FF"/>
<path d="M45.7823 322.696H55.5063C56.0095 322.695 56.5079 322.794 56.9728 322.987C57.4377 323.18 57.86 323.462 58.2155 323.818C58.571 324.174 58.8527 324.597 59.0445 325.062C59.2362 325.527 59.3343 326.025 59.333 326.528H41.958C41.9567 326.025 42.0547 325.527 42.2463 325.062C42.4379 324.597 42.7194 324.175 43.0747 323.819C43.4299 323.463 43.8519 323.18 44.3165 322.988C44.7812 322.795 45.2792 322.696 45.7823 322.696Z" fill="#D1D1FF"/>
<path d="M76.4612 187.986C77.3173 189.217 78.5465 190.958 78.6807 192.479C78.8782 194.692 75.3369 193.142 75.2954 193.332L76.4612 187.986Z" fill="#D28572"/>
<path d="M71.0516 190.589H59.8521V206.996H71.0516V190.589Z" fill="#FFBC96"/>
<path d="M71.0517 193.405V205.119C67.5226 202.903 64.4666 199.61 61.835 195.811L71.0517 193.405Z" fill="#1B1B43"/>
<path d="M77.3491 188.983C77.0004 194.651 74.8175 201.062 68.8641 199.48C64.1862 198.237 59.04 194.302 59.04 188.622C59.04 182.942 62.9716 178.342 67.8202 178.342C70.8518 178.342 74.6687 179.804 76.4638 182.652C77.5442 184.356 77.5003 186.511 77.3491 188.983Z" fill="#FFBC96"/>
<path d="M67.4346 187.342C69.02 183.139 72.6515 182.725 72.6515 182.725C72.6515 182.725 81.0537 191.035 80.5342 182.449C80.1196 175.623 73.4491 176.272 73.4491 176.272C70.1906 172.033 64.964 173.693 63.0592 176.15C61.1544 178.607 61.8398 177.196 57.3399 178.793C52.8401 180.389 55.2497 187.213 54.4522 187.703C48.4866 187.703 49.5939 193.603 49.5939 193.603L63.7129 198.208L67.1127 188.927L67.4346 187.342Z" fill="#1B1B43"/>
<path d="M68.3811 191.769C69.5453 191.097 69.7815 189.328 68.9086 187.816C68.0358 186.305 66.3844 185.625 65.2203 186.297C64.0561 186.969 63.8199 188.738 64.6927 190.249C65.5656 191.76 67.2169 192.441 68.3811 191.769Z" fill="#FFBC96"/>
<path d="M67.1057 189.639C66.9478 189.27 66.7339 188.928 66.4716 188.624C66.3369 188.492 66.1832 188.38 66.0155 188.293C65.8424 188.198 65.6497 188.12 65.4521 188.027L65.4838 187.869C65.7117 187.856 65.9401 187.885 66.157 187.957C66.3874 188.032 66.5964 188.162 66.7667 188.334C66.9311 188.507 67.0567 188.714 67.135 188.939C67.2118 189.151 67.2546 189.374 67.2618 189.6L67.1057 189.639Z" fill="#1B1B43"/>
<path d="M61.8203 179.458C64.4372 179.334 66.4499 176.936 66.3156 174.101C66.1814 171.266 63.9511 169.068 61.3341 169.192C58.7172 169.316 56.7045 171.714 56.8388 174.549C56.973 177.384 59.2033 179.582 61.8203 179.458Z" fill="#1B1B43"/>
<path opacity="0.2" d="M72.4788 194.327C73.6574 194.327 74.6129 193.372 74.6129 192.194C74.6129 191.016 73.6574 190.061 72.4788 190.061C71.3002 190.061 70.3447 191.016 70.3447 192.194C70.3447 193.372 71.3002 194.327 72.4788 194.327Z" fill="#FE5B52"/>
<path d="M80.8611 247.35L44.9917 242.779L51.7524 207.145C51.9865 205.915 52.5124 204.76 53.2861 203.776C54.0598 202.791 55.0587 202.007 56.1986 201.489C57.1525 201.056 58.1837 200.818 59.2312 200.791C60.2786 200.764 61.3208 200.947 62.2959 201.331L74.5223 206.76C75.6783 207.273 76.6803 208.079 77.4289 209.097C78.1775 210.116 78.6469 211.313 78.7905 212.569L79.4782 224.21L80.266 237.403L80.8611 247.35Z" fill="#FFA121"/>
<path d="M113.687 221.752L123.179 218.964C123.517 218.864 123.872 218.84 124.22 218.893C124.568 218.946 124.901 219.074 125.194 219.268C127.794 220.992 134.706 225.87 132.964 227.867C132.091 228.861 124.152 226.528 124.152 226.528L112.658 229.734L113.687 221.752Z" fill="#FFBC96"/>
<path d="M80.2709 237.403C77.284 233.6 75.4955 228.586 74.9053 222.362L79.471 224.21L80.2709 237.403Z" fill="#1B1B43"/>
<path d="M73.4445 206.313L74.8737 206.93C77.8157 208.198 80.4519 210.081 82.6052 212.452L94.3779 225.409L113.687 221.752L116.226 232.113L91.9658 239.692C91.0232 239.86 90.0536 239.788 89.1464 239.482C88.2392 239.176 87.4239 238.646 86.7757 237.942L69.2764 218.91L73.4445 206.313Z" fill="#FFA121"/>
<path d="M94.1561 225.616C94.0976 225.553 88.3539 219.302 83.3809 213.729C78.464 208.217 70.9667 205.538 70.8911 205.511L71.0935 204.936C71.1691 204.963 78.8103 207.691 83.837 213.322C88.8075 218.895 94.5463 225.141 94.6049 225.204L94.1561 225.616Z" fill="#1B1B43"/>
<path d="M70.7128 220.929L70.2749 221.354L86.554 238.151L86.992 237.727L70.7128 220.929Z" fill="#1B1B43"/>
<path d="M79.5639 301.25L71.8252 316.316L91.3733 326.348L86.171 314.456L90.4148 305.034L79.5639 301.25Z" fill="#D1D1FF"/>
<path d="M86.0652 314.156L80.5107 315.79L80.6829 316.374L86.2374 314.74L86.0652 314.156Z" fill="#1B1B43"/>
<path d="M91.7365 311.153L74.0273 304.546L86.1537 266.828C88.239 261.243 94.6607 258.481 100.497 260.658C106.333 262.835 109.375 269.127 107.29 274.712L91.7365 311.153Z" fill="#323944"/>
<path d="M108.912 308.601L110.638 326.529H132.613L122.553 318.325L120.192 307.991L108.912 308.601Z" fill="#D1D1FF"/>
<path d="M122.425 318.061L117.218 320.931L117.513 321.464L122.72 318.595L122.425 318.061Z" fill="#1B1B43"/>
<path d="M124.762 310.734L105.556 313.781L92.4049 275.124L90.0074 268.071L57.3452 268.335C55.4395 268.378 53.5463 268.017 51.7907 267.274C50.0351 266.532 48.457 265.426 47.1608 264.029C45.8645 262.632 44.8797 260.976 44.2712 259.17C43.6628 257.364 43.4445 255.45 43.631 253.554L44.992 242.779L77.3079 246.845L98.5437 249.178C107.385 250.702 110.099 256.053 111.941 262.928L124.762 310.734Z" fill="#222935"/>
<path d="M92.4048 275.124L90.0073 268.072L94.4291 267.92C94.8364 270.578 93.7828 273.544 92.4048 275.124Z" fill="#1B1B43"/>
<path d="M383.901 326.224H13.793V326.833H383.901V326.224Z" fill="#1B1B43"/>
</g>
<defs>
<clipPath id="clip0_1008_30454">
<rect width="403" height="326" fill="white" transform="translate(0.761719 0.833008)"/>
</clipPath>
</defs>
</svg>
