<svg width="340" height="246" viewBox="0 0 340 246" fill="none" xmlns="http://www.w3.org/2000/svg">
<g clip-path="url(#clip0_1261_960)">
<path d="M151.063 143.766C150.908 144.937 150.664 146.093 150.333 147.226C150.052 148.63 150.093 150.08 150.453 151.466C150.641 151.851 150.922 152.181 151.272 152.428C151.622 152.674 152.028 152.829 152.453 152.876C153.366 153.057 154.308 153.036 155.213 152.816C156.244 154.011 157.409 155.085 158.683 156.016C160.683 157.406 164.973 158.486 166.153 158.306C168.053 158.016 169.073 156.536 168.923 155.576C168.773 154.616 166.543 151.976 164.703 150.826C163.015 149.582 161.436 148.197 159.983 146.686C159.117 145.739 158.334 144.718 157.643 143.636L151.063 143.766Z" fill="#23234C"/>
<path d="M129.593 154.116C129.031 156.144 128.719 158.233 128.663 160.336C128.793 162.626 129.333 163.166 130.023 163.936C130.198 164.154 130.436 164.312 130.704 164.391C130.972 164.47 131.258 164.465 131.523 164.376C131.523 164.376 131.843 169.076 134.073 170.986C136.303 172.896 140.353 173.066 142.213 172.376C144.073 171.686 142.843 168.316 141.023 165.006C139.203 161.696 136.893 158.156 136.313 155.166C131.863 154.516 129.593 154.116 129.593 154.116Z" fill="#23234C"/>
<path d="M162.833 123.436C164.053 116.246 165.473 116.726 165.443 110.046C165.443 106.766 164.253 99.2664 161.883 83.6764C160.653 75.5864 158.723 74.2264 156.173 69.1264C155.913 68.5964 147.723 72.7964 143.983 74.7764C143.643 74.9564 140.383 83.5864 141.813 90.3264C142.363 92.9064 148.813 110.586 151.733 113.826C148.973 120.526 146.353 126.986 148.553 144.826C150.423 147.336 155.683 147.546 159.063 145.576C159.063 141.926 162.013 128.256 162.833 123.436Z" fill="#292954"/>
<path d="M148.473 90.0266C153.053 84.4166 152.103 80.1666 149.903 73.4966C149.783 73.1366 130.743 70.5866 130.503 70.9966C123.283 83.6566 125.203 104.387 130.503 116.787C129.323 121.987 126.773 145.587 127.173 154.117C130.703 156.707 136.593 158.327 138.783 154.117C140.733 142.117 143.263 131.117 142.343 120.737C143.683 117.137 148.103 99.1166 148.473 90.0266Z" fill="#2F2F60"/>
<path d="M184.363 52.5862C181.363 49.0462 172.783 44.6662 170.363 43.9862C170.363 43.9862 167.603 39.4062 166.413 36.7362C165.513 34.7362 164.553 29.2662 162.673 25.9062C160.563 22.1462 158.183 21.1062 154.793 20.0062C154.362 19.8108 153.88 19.7568 153.417 19.852C152.953 19.9472 152.532 20.1867 152.213 20.5362C151.213 21.6462 151.443 23.5362 151.433 24.8862C151.433 27.1062 151.433 29.3262 151.433 31.5562C151.433 34.2362 155.623 40.6362 156.383 41.7762C157.293 43.1462 159.383 48.2062 160.023 49.7162C160.393 50.5362 161.393 52.1762 164.633 53.4862C165.883 53.9962 176.353 59.4162 181.873 60.2962C182.153 59.2162 183.893 55.1262 184.363 52.5862Z" fill="#2F2F60"/>
<path d="M152.243 23.4264C147.613 21.4964 142.113 23.9964 142.313 23.7664C142.513 23.5364 135.903 27.4064 135.893 27.4264C131.213 29.1764 126.413 30.4264 123.663 36.7264C122.313 39.7864 127.143 46.3464 129.153 55.2164C130.063 59.2164 130.153 64.9064 128.683 67.5564C127.683 69.4164 125.373 72.1964 132.053 74.2964C133.993 74.9064 143.053 78.3964 148.283 77.4164C150.713 76.9664 162.423 70.4764 158.843 67.9964C158.316 67.6858 157.922 67.1913 157.737 66.608C157.553 66.0247 157.59 65.3937 157.843 64.8364C158.81 63.4237 159.227 61.7053 159.013 60.0064C157.943 55.1064 158.813 53.1764 159.533 49.3464C162.923 45.8064 159.923 40.4564 157.853 34.7464C156.403 30.8664 157.013 25.4164 152.243 23.4264Z" fill="#DCE6F9"/>
<path d="M151.133 22.4062C151.128 22.3363 151.128 22.2661 151.133 22.1962C148.383 22.6162 144.773 21.0362 142.393 19.3862C141.491 21.9859 140.311 24.4804 138.873 26.8262C139.873 26.8762 141.953 29.7262 143.643 32.7062C144.363 33.9762 147.463 37.2562 149.413 36.4962C152.413 35.3362 150.923 32.9262 151.003 29.4962C151.076 27.1562 151.119 24.7929 151.133 22.4062Z" fill="#FFB9A4"/>
<path d="M153.303 46.9364C152.846 44.5942 152.232 42.2855 151.463 40.0264C151.667 38.8296 151.971 37.6521 152.373 36.5064L149.373 35.3364L147.643 37.4164C147.643 37.4164 148.643 39.7264 149.773 40.3364C149.713 43.3364 149.603 48.8964 149.533 53.9264C149.433 61.9264 149.533 67.7064 149.533 67.7064C150.594 69.2038 151.879 70.5292 153.343 71.6364C154.214 69.9313 154.834 68.1091 155.183 66.2264C155.183 66.2264 154.163 51.5164 153.303 46.9364Z" fill="#FF9201"/>
<path d="M136.563 26.8862C136.563 26.8862 141.513 29.0262 143.563 30.7362C146.343 33.0362 147.663 33.6562 149.043 34.9862C149.183 34.6562 149.553 28.4062 149.553 28.4062C149.553 28.4062 151.873 28.6962 151.853 28.7462C152.783 29.8156 153.42 31.1075 153.703 32.4962C153.961 34.3351 153.818 36.2081 153.283 37.9862L149.443 35.6362L146.803 40.3362C144.187 38.1093 141.69 35.746 139.323 33.2562C137.85 31.4175 136.897 29.2179 136.563 26.8862Z" fill="white"/>
<path d="M151.463 23.4165C152.899 23.4207 154.3 23.8609 155.48 24.6787C156.66 25.4966 157.564 26.6535 158.073 27.9965C160.589 33.9306 161.885 40.3108 161.883 46.7565C161.883 52.2565 160.723 59.4465 161.653 63.3665C162.453 66.7265 166.923 79.1365 166.923 79.1365C166.923 79.1365 166.583 84.2265 164.923 86.2365C162.793 88.8265 160.483 88.6065 160.483 88.6065C160.483 88.6065 157.713 73.2265 157.483 70.8065C157.253 68.3865 156.293 55.5765 156.543 51.8065C156.793 48.0365 154.623 35.3465 153.763 32.5265C152.903 29.7065 147.763 23.9565 147.763 23.9565L151.463 23.4165Z" fill="#3C3C75"/>
<path d="M150.583 27.4162C151.691 28.9293 152.611 30.5713 153.323 32.3062C154.543 35.2462 154.933 41.7062 155.323 45.4762C155.58 48.0144 155.967 50.5377 156.483 53.0362C157.259 50.797 157.824 48.4904 158.173 46.1462C158.433 43.3662 158.783 41.2162 158.783 41.2162L156.843 39.6962L158.643 35.3362C158.643 35.3362 153.883 24.9762 151.883 24.3362C149.883 23.6962 150.583 27.4162 150.583 27.4162Z" fill="#2F2F60"/>
<path d="M138.663 25.5962C142.395 30.9039 144.906 36.9726 146.013 43.3662C147.683 53.6662 146.633 64.2862 146.013 71.6562C145.243 80.9462 144.553 94.1562 144.553 94.1562C144.553 94.1562 135.323 95.6862 130.143 94.5862C124.613 93.4162 122.663 87.9962 122.663 87.9962C122.974 79.4751 124.558 71.0484 127.363 62.9962C128.903 58.4962 127.923 48.7262 126.103 43.1062C125.013 39.7562 126.593 33.1062 129.403 30.0362C131.293 27.9662 136.013 27.0762 138.663 25.5962Z" fill="#3C3C75"/>
<path d="M140.413 24.1064C140.413 24.1064 137.183 24.3064 135.953 26.7764C136.523 28.0464 137.883 29.7764 138.493 32.9164C138.866 35.1357 139 37.3886 138.893 39.6364L142.543 41.2764L140.403 45.0365L146.733 53.2265C146.733 53.2265 147.683 42.4365 145.183 34.6465C142.683 26.8565 140.413 24.1064 140.413 24.1064Z" fill="#2F2F60"/>
<path d="M156.683 10.8166C154.163 7.72664 148.683 7.01664 145.173 9.12664C144.348 9.35052 143.584 9.75341 142.933 10.3066C140.663 12.3066 140.933 15.9366 141.593 18.6066C142.593 22.6066 148.343 31.8766 153.593 28.4166C156.403 26.5766 158.233 22.0066 158.693 18.8166C158.93 17.4167 158.874 15.9827 158.528 14.6055C158.182 13.2284 157.554 11.9382 156.683 10.8166Z" fill="#FFC9B6"/>
<path d="M160.343 4.88643C158.573 2.51643 154.073 -0.323568 151.103 1.32643C150.62 1.61062 150.223 2.01986 149.954 2.51094C149.685 3.00202 149.553 3.55672 149.573 4.11644C146.713 3.58644 141.573 5.45643 140.263 7.91643C138.083 12.1064 139.593 19.2764 141.513 21.4264C143.513 19.6864 146.593 15.9864 147.403 12.4264C149.122 13.2534 151.008 13.6736 152.916 13.6545C154.823 13.6355 156.701 13.1776 158.403 12.3164C161.143 10.7664 162.293 7.51643 160.343 4.88643Z" fill="#23234C"/>
<path d="M146.463 16.6265C146.463 16.6265 144.863 13.9565 143.383 15.9065C141.133 18.9065 144.383 20.3065 144.383 20.3065L146.463 16.6265Z" fill="#FFC9B6"/>
<path d="M138.163 71.1562C137.353 69.0062 133.933 64.9062 131.743 62.3462C132.523 58.0062 133.813 51.1962 134.623 48.3462C136.073 43.3462 132.753 30.7162 129.503 29.8662C125.303 31.2062 122.803 32.3862 120.833 39.7762C118.983 46.7062 120.153 58.9362 121.163 65.7762C121.363 67.1662 119.903 67.3362 125.843 74.7162C129.633 79.4362 133.293 80.4462 133.293 80.4462L139.063 75.4462C139.063 75.4462 140.013 76.0962 138.163 71.1562Z" fill="#2F2F60"/>
<path d="M139.063 75.5664C139.063 75.5664 137.383 73.9564 135.063 76.0064C134.383 76.527 133.861 77.2263 133.556 78.0262C133.25 78.8261 133.173 79.6952 133.333 80.5364C134.646 81.2144 135.736 82.2558 136.473 83.5364C138.023 86.5364 139.203 91.3764 140.823 93.5364C143.173 96.5364 144.983 95.0064 146.163 93.2964C147.343 91.5864 146.503 89.3864 145.663 87.6164C144.823 85.8464 144.313 84.2764 145.003 84.2164C145.463 84.2164 146.823 85.7964 148.283 85.8564C149.743 85.9164 149.723 84.7664 147.753 83.5864C146.753 82.9964 146.633 82.0464 144.753 80.8064C143.313 79.8064 142.473 80.3764 142.103 79.8764C141.009 78.4979 139.994 77.059 139.063 75.5664Z" fill="#FFC9B6"/>
<path d="M301.543 82.4065L299.543 81.2365C264.603 40.9465 197.063 53.3565 155.653 77.2365L86.6829 128.826L111.583 143.196L182.723 102.116C208.573 87.1965 248.013 85.5165 270.413 98.5165L271.673 99.2565C294.063 112.176 291.223 134.956 265.383 149.876L194.233 190.916L219.123 205.286L291.463 163.516C332.873 139.616 337.413 103.116 301.543 82.4065Z" fill="#FF9201"/>
<path d="M219.133 175.166V205.286L325.743 117.646L325.713 86.1162L219.133 175.166Z" fill="#FF9201"/>
<path d="M301.543 52.2865L299.543 51.1165C263.683 30.4065 200.463 33.0265 159.053 56.9365L86.6829 98.6965L111.583 113.066L182.723 71.9965C208.573 57.0765 248.033 55.4365 270.413 68.3565L271.673 69.0865C294.063 82.0165 291.223 104.796 265.383 119.716L194.233 160.786L219.123 175.166L291.463 133.396C332.873 109.516 337.413 72.9865 301.543 52.2865Z" fill="#FFAF04"/>
<path d="M194.233 160.796V190.916L219.133 205.286V175.166L194.233 160.796Z" fill="#C5D2EF"/>
<path d="M86.6929 98.7065V128.827L111.583 143.197V113.077L86.6929 98.7065Z" fill="#C5D2EF"/>
<path d="M86.6929 98.7063L114.013 82.9263L138.863 97.2963L111.583 113.076L86.6929 98.7063Z" fill="#DCE6F9"/>
<path d="M138.863 97.2964L111.583 113.076V143.196L138.863 127.426V97.2964Z" fill="#A8BDE2"/>
<path d="M194.233 160.807L221.563 145.037L246.413 159.407L219.133 175.177L194.233 160.807Z" fill="#DCE6F9"/>
<path d="M246.413 159.406L219.133 175.176V205.296L246.413 189.526V159.406Z" fill="#A8BDE2"/>
<path d="M91.1528 115.236L64.6428 122.206L71.3828 126.096L57.1028 134.346L82.6928 127.316L75.9828 123.446L91.1528 115.236Z" fill="#FF9201"/>
<path d="M91.1527 111.667V115.237L75.9827 123.447V119.877L91.1527 111.667Z" fill="#FF9201"/>
<path d="M82.6928 123.756V127.316L57.1028 134.346V130.776L82.6928 123.756Z" fill="#FF9201"/>
<path d="M64.6428 118.636V122.206L71.3828 126.096V122.536L64.6428 118.636Z" fill="#FF9201"/>
<path d="M91.1528 111.667L64.6428 118.637L71.3828 122.536L57.1028 130.777L82.6928 123.757L75.9828 119.877L91.1528 111.667Z" fill="#FFAF04"/>
<path d="M108.173 124.787L81.6628 131.757L88.4128 135.657L74.1228 143.897L99.7228 136.867L93.0128 132.997L108.173 124.787Z" fill="#FF9201"/>
<path d="M108.173 121.227V124.787L93.0127 132.997V129.427L108.173 121.227Z" fill="#FF9201"/>
<path d="M99.7228 133.307V136.867L74.1228 143.897V140.337L99.7228 133.307Z" fill="#FF9201"/>
<path d="M81.6628 128.196V131.756L88.4128 135.656V132.086L81.6628 128.196Z" fill="#FF9201"/>
<path d="M108.173 121.227L81.6628 128.197L88.4128 132.087L74.1228 140.337L99.7228 133.307L93.0128 129.427L108.173 121.227Z" fill="#FFAF04"/>
<path d="M198.613 177.276L172.103 184.246L178.853 188.146L164.563 196.386L190.163 189.366L183.453 185.486L198.613 177.276Z" fill="#FF9201"/>
<path d="M198.613 173.716V177.276L183.453 185.486V181.926L198.613 173.716Z" fill="#FF9201"/>
<path d="M190.163 185.796V189.366L164.563 196.386V192.826L190.163 185.796Z" fill="#FF9201"/>
<path d="M172.103 180.687V184.247L178.853 188.147V184.577L172.103 180.687Z" fill="#FF9201"/>
<path d="M198.613 173.716L172.103 180.686L178.853 184.576L164.563 192.826L190.163 185.796L183.453 181.926L198.613 173.716Z" fill="#FFAF04"/>
<path d="M215.643 186.836L189.133 193.806L195.873 197.696L181.593 205.946L207.183 198.916L200.473 195.046L215.643 186.836Z" fill="#FF9201"/>
<path d="M215.643 183.267V186.837L200.473 195.047V191.477L215.643 183.267Z" fill="#FF9201"/>
<path d="M207.183 195.356V198.916L181.593 205.946V202.376L207.183 195.356Z" fill="#FF9201"/>
<path d="M189.133 190.247V193.807L195.873 197.697V194.137L189.133 190.247Z" fill="#FF9201"/>
<path d="M215.643 183.267L189.133 190.247L195.873 194.137L181.593 202.377L207.183 195.357L200.473 191.477L215.643 183.267Z" fill="#FFAF04"/>
<path d="M329.333 226.706C329.524 222.952 329.962 219.214 330.643 215.516C332.003 208.466 333.553 198.176 328.903 193.516C334.123 180.236 332.283 172.896 331.513 168.826C339.293 160.586 331.883 151.876 328.133 149.196C326.133 151.646 314.373 156.476 314.303 156.776C312.883 162.826 314.183 169.166 315.983 175.036C317.093 178.686 318.063 184.866 320.663 194.876C319.453 199.876 320.823 207.396 321.323 213.026C321.673 216.956 321.553 221.416 322.263 225.626C323.393 226.926 325.553 228.146 329.333 226.706Z" fill="#3C4C99"/>
<path d="M315.723 226.126C313.053 227.176 312.293 228.126 313.013 229.846C313.606 231.033 314.468 232.064 315.53 232.857C316.593 233.651 317.827 234.185 319.133 234.416C322.713 235.156 324.733 239.336 328.563 235.416C329.563 234.416 329.343 232.516 329.013 231.116C329.073 230.116 329.253 227.816 329.333 226.726C325.553 228.166 323.393 226.946 322.263 225.656C322.404 226.567 322.598 227.468 322.843 228.356C321.473 227.926 317.503 225.416 315.723 226.126Z" fill="#FFB9A4"/>
<path d="M329.013 230.626C329.013 230.626 326.773 231.426 325.333 231.886C324.016 232.243 322.629 232.254 321.306 231.917C319.983 231.581 318.77 230.909 317.783 229.966C315.723 227.966 318.883 226.596 318.883 226.596C318.883 226.596 313.883 223.596 310.533 224.996C308.983 225.646 308.913 228.256 309.803 229.866C310.693 231.476 314.033 233.656 315.523 234.036C317.013 234.416 320.403 235.036 321.523 235.726C323.603 236.986 326.233 238.726 328.613 236.456C330.993 234.186 329.013 230.626 329.013 230.626Z" fill="#23234C"/>
<path d="M316.493 234.747C316.688 230.989 317.126 227.248 317.803 223.547C319.163 216.547 320.723 206.217 316.073 201.547C321.293 188.277 321.823 178.007 321.073 173.947C330.073 166.947 326.833 157.377 323.073 154.707C321.073 157.147 308.073 153.217 306.713 157.237C304.173 164.987 304.283 167.737 304.633 178.097C304.763 181.917 305.233 192.897 307.833 202.907C306.623 207.907 307.993 215.427 308.503 221.067C308.853 224.997 308.733 229.457 309.433 233.667C310.563 234.967 312.713 236.187 316.493 234.747Z" fill="#4B57AA"/>
<path d="M302.883 234.156C300.223 235.216 299.453 236.156 300.173 237.886C300.767 239.071 301.63 240.099 302.693 240.891C303.755 241.683 304.988 242.215 306.293 242.446C309.873 243.196 311.873 247.036 315.703 243.096C316.703 242.096 316.513 240.526 316.173 239.096C316.243 238.096 316.423 235.796 316.493 234.716C312.713 236.156 310.563 234.936 309.423 233.646C309.565 234.557 309.759 235.458 310.003 236.346C308.633 235.956 304.673 233.446 302.883 234.156Z" fill="#FFB9A4"/>
<path d="M316.203 238.656C316.203 238.656 313.963 239.466 312.523 239.926C311.204 240.275 309.818 240.281 308.497 239.943C307.176 239.605 305.962 238.935 304.973 237.996C302.913 235.996 306.073 234.636 306.073 234.636C306.073 234.636 301.073 231.636 297.723 233.036C296.173 233.676 296.103 236.296 296.993 237.896C297.883 239.496 301.223 241.696 302.723 242.076C304.223 242.456 307.603 243.076 308.723 243.766C310.803 245.026 313.443 246.766 315.823 244.486C318.203 242.206 316.203 238.656 316.203 238.656Z" fill="#23234C"/>
<path d="M331.693 113.777C328.223 112.537 324.003 114.507 323.833 118.067C321.923 121.307 323.833 126.067 326.783 128.227C330.253 130.747 335.613 128.227 336.783 124.297C337.953 120.367 335.743 115.227 331.693 113.777Z" fill="#BAC9E5"/>
<path d="M331.333 119.646C331.294 119.502 331.218 119.371 331.113 119.266C331.008 119.161 330.877 119.085 330.733 119.046C326.643 117.926 325.733 115.716 324.983 112.046C324.948 111.924 324.886 111.812 324.801 111.717C324.716 111.623 324.611 111.549 324.494 111.501C324.377 111.453 324.25 111.432 324.123 111.44C323.997 111.448 323.873 111.484 323.763 111.546C321.635 112.876 319.324 113.886 316.903 114.546C319.203 121.386 315.043 122.856 313.243 125.546C312.783 126.226 317.523 129.676 320.053 129.316C322.261 129.036 324.385 128.29 326.283 127.126C328.353 125.786 331.933 122.456 331.333 119.646Z" fill="#FFC9B6"/>
<path d="M325.523 103.946C325.133 100.416 322.253 95.7262 318.293 96.0162C314.333 96.3062 311.533 102.306 311.213 105.086C310.683 109.816 311.103 118.736 318.563 115.876C324.383 113.646 326.093 109.196 325.523 103.946Z" fill="#FFC9B6"/>
<path d="M331.723 96.9667C329.913 93.0667 325.623 89.4166 319.563 92.3066C315.653 90.8666 309.933 93.1367 308.713 97.5967C309.963 101.177 312.233 105.097 314.823 103.717C314.643 108.057 320.483 114.297 324.293 114.297C325.693 111.297 328.783 111.297 330.863 107.147C332.013 104.867 332.843 99.3667 331.723 96.9667Z" fill="#23234C"/>
<path d="M314.823 106.616C314.823 106.616 317.823 104.616 318.283 107.486C318.402 108.312 318.23 109.153 317.798 109.866C317.366 110.579 316.7 111.12 315.913 111.396L314.823 106.616Z" fill="#FFC9B6"/>
<path d="M330.283 93.1364C327.803 92.0464 326.203 91.8864 324.083 93.4764C321.963 95.0664 322.693 101.906 326.233 102.716C328.513 103.236 331.443 102.626 332.653 100.616C334.203 98.0564 333.933 94.7364 330.283 93.1364Z" fill="#FFAF04"/>
<path d="M333.613 133.686C336.203 125.686 334.613 120.366 332.333 117.746C331.393 116.666 329.163 114.446 326.723 116.646C327.513 120.286 321.223 121.456 316.663 121.456C313.213 124.036 310.113 125.836 308.143 129.326C306.053 133.016 305.053 136.766 309.503 139.456C308.143 143.506 308.203 149.206 305.963 159.626C310.123 162.926 318.303 163.256 323.063 161.216C328.203 158.996 332.423 155.976 332.253 153.446C331.103 150.986 328.003 148.636 328.133 145.576C328.293 141.706 332.433 137.356 333.613 133.686Z" fill="#DCE6F9"/>
<path d="M279.143 171.756C279.143 171.756 278.473 172.086 278.143 171.756C277.813 171.426 278.383 170.386 280.783 168.806C283.183 167.226 284.263 166.146 284.133 165.216C284.003 164.286 282.313 164.146 281.523 162.796C280.923 161.796 281.373 161.086 282.363 161.746C283.598 162.523 285.064 162.852 286.513 162.676C288.233 162.616 289.403 162.786 293.153 158.676C295.813 155.766 299.563 152.546 301.833 150.096C302.373 147.486 304.693 141.876 304.953 139.986C305.399 137.685 306.213 135.47 307.363 133.426C308.503 131.256 316.653 131.266 316.703 136.256C316.753 140.806 317.063 140.716 314.703 144.406C311.063 150.146 308.703 152.296 306.933 154.756C305.605 156.489 304.078 158.06 302.383 159.436C298.943 162.176 292.873 164.576 291.463 165.846C290.053 167.116 288.093 169.446 284.813 172.086C283.889 172.817 282.789 173.29 281.623 173.456C281.262 173.486 280.905 173.543 280.553 173.626C279.733 173.796 280.273 172.776 280.273 172.776C279.811 172.945 279.305 172.945 278.843 172.776C278.323 172.516 279.143 171.756 279.143 171.756Z" fill="#FFC9B6"/>
<path d="M309.543 125.747C304.543 128.317 303.473 136.627 304.733 141.117C303.893 143.047 309.153 147.617 314.003 145.867C319.063 145.407 322.303 137.747 320.003 131.397C318.303 126.517 313.243 123.837 309.543 125.747Z" fill="#BAC9E5"/>
<path d="M304.733 141.116L304.303 143.396C304.303 143.396 304.373 145.156 307.363 146.646C309.202 147.543 311.28 147.826 313.293 147.456L314.003 145.866C312.068 145.832 310.158 145.432 308.373 144.686C306.842 143.87 305.579 142.63 304.733 141.116Z" fill="white"/>
<path d="M326.733 93.9662C324.733 96.3962 325.623 99.2162 326.633 101.576C327.153 102.786 333.543 104.786 332.253 109.416C331.423 112.416 328.793 116.876 329.203 122.506C329.613 128.136 334.933 126.126 334.933 126.126C334.933 126.126 331.633 124.426 333.543 121.316C335.453 118.206 340.833 109.646 339.333 101.686C337.833 93.7262 330.453 89.5162 326.733 93.9662Z" fill="#2C2C5B"/>
</g>
<g clip-path="url(#clip1_1261_960)">
<path d="M78.2397 235.407C86.7942 226.95 86.7942 213.238 78.2397 204.78C69.6851 196.323 55.8154 196.323 47.2609 204.78C38.7063 213.238 38.7063 226.95 47.2609 235.407C55.8154 243.865 69.6851 243.865 78.2397 235.407Z" fill="#FBD15B"/>
<path d="M62.7479 241.03C74.4444 241.03 83.9263 231.656 83.9263 220.092C83.9263 208.528 74.4444 199.154 62.7479 199.154C51.0514 199.154 41.5696 208.528 41.5696 220.092C41.5696 231.656 51.0514 241.03 62.7479 241.03Z" fill="#FFB024"/>
<path d="M43.2263 219.284C43.2188 219.284 43.2188 219.284 43.2113 219.284C43.0913 219.277 42.9939 219.173 43.0014 219.055C43.0464 218.232 43.1438 217.409 43.2863 216.601C43.3088 216.483 43.4212 216.401 43.5486 216.424C43.6686 216.446 43.7511 216.557 43.7286 216.683C43.5861 217.469 43.4887 218.276 43.4512 219.084C43.4437 219.196 43.3462 219.284 43.2263 219.284Z" fill="#FBD15B"/>
<path d="M45.288 211.614C45.2505 211.614 45.2205 211.606 45.1905 211.591C45.0781 211.539 45.0331 211.406 45.0931 211.295C48.4816 204.661 55.2437 200.541 62.7554 200.541C63.9549 200.541 65.1544 200.644 66.3239 200.859C66.4438 200.881 66.5263 200.993 66.5038 201.119C66.4813 201.237 66.3689 201.319 66.2414 201.297C65.1019 201.089 63.9249 200.985 62.7554 200.985C55.4161 200.985 48.804 205.01 45.4904 211.495C45.4454 211.569 45.3704 211.614 45.288 211.614Z" fill="#FBD15B"/>
<path d="M75.8858 233.076C82.8858 226.155 82.8858 214.935 75.8858 208.014C68.8859 201.094 57.5366 201.094 50.5367 208.014C43.5367 214.935 43.5367 226.155 50.5367 233.076C57.5366 239.996 68.8859 239.996 75.8858 233.076Z" fill="#FBD15B"/>
<path d="M68.4679 213.54C68.4679 216.646 65.919 219.996 62.7853 219.996C59.6442 219.996 57.1028 216.646 57.1028 213.54C57.1028 210.435 59.6517 208.233 62.7853 208.233C65.919 208.233 68.4679 210.435 68.4679 213.54Z" fill="white"/>
<path d="M55.7234 231.943H69.5999C71.0618 231.943 72.3512 231.009 72.801 229.631L73.5507 227.326C74.0979 225.636 73.2058 223.805 71.5265 223.197C65.8815 221.159 60.0415 221.419 54.0591 223.383C52.3798 223.931 51.4502 225.71 51.915 227.392L52.4923 229.49C52.8821 230.943 54.209 231.943 55.7234 231.943Z" fill="white"/>
<path d="M128.123 217.84C134.623 211.414 134.623 200.996 128.123 194.571C121.624 188.145 111.087 188.145 104.587 194.571C98.0879 200.996 98.0879 211.414 104.587 217.84C111.087 224.265 121.624 224.265 128.123 217.84Z" fill="#FBD15B"/>
<path d="M116.357 222.108C125.243 222.108 132.445 214.987 132.445 206.203C132.445 197.418 125.243 190.297 116.357 190.297C107.472 190.297 100.269 197.418 100.269 206.203C100.269 214.987 107.472 222.108 116.357 222.108Z" fill="#FFB024"/>
<path d="M101.529 205.595H101.521C101.424 205.588 101.356 205.513 101.364 205.417C101.394 204.794 101.469 204.165 101.581 203.549C101.596 203.46 101.686 203.394 101.776 203.416C101.866 203.431 101.934 203.52 101.911 203.609C101.799 204.209 101.731 204.824 101.701 205.432C101.694 205.521 101.619 205.595 101.529 205.595Z" fill="#FBD15B"/>
<path d="M103.088 199.762C103.065 199.762 103.035 199.755 103.013 199.747C102.93 199.703 102.893 199.607 102.938 199.525C105.509 194.485 110.652 191.357 116.357 191.357C117.264 191.357 118.179 191.439 119.071 191.602C119.161 191.617 119.221 191.706 119.206 191.795C119.191 191.884 119.101 191.95 119.011 191.928C118.141 191.772 117.249 191.691 116.365 191.691C110.787 191.691 105.764 194.752 103.245 199.673C103.215 199.733 103.155 199.762 103.088 199.762Z" fill="#FBD15B"/>
<path d="M126.34 216.074C131.66 210.815 131.66 202.288 126.34 197.029C121.021 191.77 112.396 191.77 107.077 197.029C101.757 202.288 101.757 210.815 107.077 216.074C112.396 221.333 121.021 221.333 126.34 216.074Z" fill="#FBD15B"/>
<path d="M120.698 201.23C120.698 203.587 118.764 206.136 116.38 206.136C113.996 206.136 112.062 203.587 112.062 201.23C112.062 198.873 113.996 197.198 116.38 197.198C118.764 197.198 120.698 198.873 120.698 201.23Z" fill="white"/>
<path d="M111.02 215.216H121.568C122.677 215.216 123.659 214.504 123.997 213.459L124.566 211.702C124.979 210.42 124.304 209.027 123.029 208.567C118.741 207.018 114.303 207.218 109.753 208.708C108.478 209.131 107.774 210.472 108.126 211.754L108.561 213.348C108.861 214.452 109.865 215.216 111.02 215.216Z" fill="white"/>
<path d="M28.4135 219.565C34.9129 213.139 34.9129 202.721 28.4135 196.296C21.9142 189.87 11.3766 189.87 4.87726 196.296C-1.6221 202.721 -1.6221 213.139 4.87726 219.565C11.3766 225.99 21.9142 225.99 28.4135 219.565Z" fill="#FBD15B"/>
<path d="M16.6427 223.835C25.5279 223.835 32.7308 216.714 32.7308 207.93C32.7308 199.145 25.5279 192.024 16.6427 192.024C7.75755 192.024 0.554688 199.145 0.554688 207.93C0.554688 216.714 7.75755 223.835 16.6427 223.835Z" fill="#FBD15B"/>
<path d="M1.81418 207.315H1.80668C1.70922 207.307 1.64175 207.233 1.64925 207.137C1.67924 206.514 1.7542 205.884 1.86666 205.269C1.88165 205.18 1.97161 205.113 2.06157 205.136C2.15153 205.15 2.219 205.239 2.19651 205.328C2.08406 205.929 2.01659 206.544 1.9866 207.152C1.97911 207.248 1.90414 207.315 1.81418 207.315Z" fill="#FBD15B"/>
<path d="M3.37352 201.489C3.35103 201.489 3.32105 201.481 3.29856 201.474C3.21609 201.429 3.17861 201.333 3.22359 201.252C5.79498 196.212 10.9378 193.084 16.6428 193.084C17.5499 193.084 18.4645 193.166 19.3566 193.329C19.4466 193.343 19.5065 193.432 19.4916 193.521C19.4766 193.61 19.3866 193.677 19.2966 193.655C18.427 193.499 17.5349 193.418 16.6503 193.418C11.0727 193.418 6.04987 196.479 3.53096 201.4C3.50097 201.452 3.44099 201.489 3.37352 201.489Z" fill="#FBD15B"/>
<path d="M26.625 217.794C31.9445 212.535 31.9445 204.008 26.625 198.749C21.3055 193.49 12.6809 193.49 7.36133 198.749C2.04181 204.008 2.04181 212.535 7.36133 217.794C12.6809 223.053 21.3055 223.053 26.625 217.794Z" fill="#FBD15B"/>
<path d="M20.9908 202.949C20.9908 205.306 19.0566 207.855 16.6726 207.855C14.2887 207.855 12.3545 205.306 12.3545 202.949C12.3545 200.592 14.2887 198.917 16.6726 198.917C19.0566 198.917 20.9908 200.592 20.9908 202.949Z" fill="white"/>
<path d="M11.305 216.935H21.853C22.9625 216.935 23.9446 216.223 24.2819 215.178L24.8517 213.422C25.264 212.139 24.5893 210.746 23.3148 210.287C19.0267 208.738 14.5886 208.938 10.0381 210.427C8.76363 210.85 8.05894 212.191 8.41128 213.474L8.8461 215.067C9.14597 216.171 10.158 216.935 11.305 216.935Z" fill="white"/>
</g>
<defs>
<clipPath id="clip0_1261_960">
<rect width="282.49" height="244.77" fill="white" transform="translate(57.1028 0.836426)"/>
</clipPath>
<clipPath id="clip1_1261_960">
<rect width="133" height="52" fill="white" transform="translate(0 189.749)"/>
</clipPath>
</defs>
</svg>
