<svg width="41" height="37" viewBox="0 0 41 37" fill="none" xmlns="http://www.w3.org/2000/svg">
<path d="M19.5466 15.4373C17.886 18.1127 16.295 20.7035 14.6708 23.2748C14.2537 23.935 14.0473 24.4727 14.3805 25.3118C15.3005 27.6299 14.0027 29.8858 11.5635 30.4981C9.26323 31.0757 7.02209 29.6269 6.56569 27.2666C6.16126 25.1776 7.85287 23.1296 10.2563 22.8031C10.4576 22.7755 10.6633 22.7723 11.0016 22.748L14.6575 16.8728C12.3582 14.6816 10.9896 12.1204 11.2925 8.94637C11.5066 6.70282 12.4272 4.76393 14.1097 3.17483C17.3324 0.131628 22.2488 -0.361122 26.0434 1.97468C29.6877 4.21838 31.3568 8.58877 29.934 12.3293C28.8613 12.0506 27.781 11.7695 26.5935 11.4608C27.0402 9.38107 26.7098 7.51357 25.2462 5.91367C24.2793 4.85738 23.0384 4.30373 21.6276 4.09973C18.7991 3.69023 16.022 5.43172 15.198 8.09242C14.2626 11.1119 15.6783 13.5787 19.5466 15.4375V15.4373Z" fill="#C73A63"/>
<path d="M24.2887 12.2732C25.4587 14.2513 26.6466 16.2592 27.8239 18.2486C33.7746 16.4842 38.2613 19.6412 39.8709 23.0212C41.8151 27.104 40.486 31.9397 36.6678 34.4587C32.7487 37.0444 27.7923 36.6026 24.32 33.281C25.205 32.5711 26.0943 31.858 27.0445 31.0961C30.474 33.2249 33.4737 33.1247 35.7006 30.6038C37.5996 28.4533 37.5584 25.2467 35.6043 23.1413C33.3492 20.7118 30.3286 20.6377 26.6774 22.9699C25.1629 20.3947 23.622 17.84 22.1553 15.2462C21.6607 14.372 21.1147 13.8647 20 13.6798C18.1386 13.3705 16.9369 11.8385 16.8647 10.1222C16.7938 8.42485 17.8373 6.8905 19.4682 6.29275C21.0838 5.7004 22.9796 6.17845 24.0663 7.49485C24.9544 8.57035 25.2366 9.78085 24.7692 11.1073C24.6393 11.4772 24.4711 11.8351 24.2887 12.2734V12.2732Z" fill="#4B4B4B"/>
<path d="M27.0845 28.4431H19.9208C19.2341 31.1497 17.751 33.3349 15.1956 34.7245C13.2089 35.8045 11.0678 36.1707 8.78894 35.818C4.59308 35.1696 1.16227 31.5496 0.860192 27.4735C0.518363 22.8559 3.83007 18.7515 8.24427 17.8296C8.549 18.8902 8.85702 19.9611 9.16176 21.0192C5.11177 22.9995 3.71002 25.4946 4.8435 28.6146C5.84129 31.3602 8.67562 32.8651 11.7532 32.2831C14.896 31.6888 16.4806 29.1856 16.2871 25.1683C19.2665 25.1683 22.2485 25.1388 25.2282 25.1829C26.3917 25.2004 27.29 25.0848 28.1665 24.1017C29.6095 22.4841 32.2658 22.63 33.8199 24.1578C35.4083 25.7191 35.3322 28.2313 33.6514 29.7268C32.0297 31.1698 29.4677 31.0927 27.9505 29.5378C27.6387 29.2174 27.393 28.8369 27.0845 28.4431Z" fill="#4A4A4A"/>
</svg>
