<svg width="37" height="37" viewBox="0 0 37 37" fill="none" xmlns="http://www.w3.org/2000/svg">
<g clip-path="url(#clip0_206_1423)">
<path d="M18.6523 0.783691H18.6433C8.75985 0.783691 0.72268 8.8231 0.72268 18.7088C0.716542 22.4843 1.91167 26.1639 4.13517 29.2152L1.90126 35.8743L8.79122 33.6718C11.7138 35.6108 15.1449 36.6414 18.6523 36.6339C28.5357 36.6339 36.5729 28.5923 36.5729 18.7088C36.5729 8.82534 28.5357 0.783691 18.6523 0.783691Z" fill="#4CAF50"/>
<path d="M29.0816 26.0962C28.6491 27.3173 26.9328 28.3301 25.5638 28.6259C24.6272 28.8253 23.4038 28.9844 19.2855 27.277C14.0178 25.0946 10.6254 19.7417 10.361 19.3944C10.1078 19.0471 8.23242 16.56 8.23242 13.9878C8.23242 11.4155 9.53871 10.163 10.0653 9.62524C10.4977 9.18384 11.2125 8.98218 11.8981 8.98218C12.1199 8.98218 12.3193 8.99338 12.4986 9.00234C13.0251 9.02475 13.2895 9.05612 13.6368 9.8874C14.0693 10.9293 15.1224 13.5015 15.2479 13.7659C15.3756 14.0303 15.5033 14.3888 15.324 14.7361C15.156 15.0946 15.0081 15.2537 14.7437 15.5585C14.4793 15.8632 14.2284 16.0962 13.964 16.4233C13.722 16.7079 13.4486 17.0126 13.7534 17.5392C14.0581 18.0545 15.1112 19.7731 16.6617 21.1533C18.6626 22.9346 20.2848 23.5038 20.8651 23.7457C21.2976 23.925 21.8129 23.8824 22.1289 23.5463C22.5299 23.1139 23.0251 22.3969 23.5293 21.6911C23.8878 21.1847 24.3404 21.122 24.8154 21.3012C25.2994 21.4693 27.8604 22.7352 28.387 22.9974C28.9135 23.2618 29.2608 23.3872 29.3885 23.6091C29.514 23.8309 29.514 24.8728 29.0816 26.0962Z" fill="#FAFAFA"/>
</g>
<defs>
<clipPath id="clip0_206_1423">
<rect width="35.8502" height="35.8502" fill="white" transform="translate(0.722656 0.783691)"/>
</clipPath>
</defs>
</svg>
