<svg width="71" height="42" viewBox="0 0 71 42" fill="none" xmlns="http://www.w3.org/2000/svg">
<g clip-path="url(#clip0_206_1426)">
<path d="M7.18264 0.288086H63.8232C67.408 0.288086 70.3096 3.15724 70.3096 6.70182V28.0803C70.3096 31.6249 67.408 34.4941 63.8232 34.4941H43.5112L46.2992 41.2451L34.0378 34.4941H7.21091C3.62646 34.4941 0.724818 31.6249 0.724818 28.0803V6.70182C0.696277 3.18546 3.59765 0.288086 7.18264 0.288086Z" fill="#9B5C8F"/>
<path d="M4.68604 6.13393C5.08208 5.6023 5.676 5.32278 6.46807 5.26687C7.91088 5.15479 8.73122 5.82592 8.9291 7.28052C9.80598 13.1263 10.7677 18.0771 11.7859 22.1327L17.9806 10.4692C18.5465 9.40625 19.2538 8.84693 20.1024 8.79103C21.347 8.70717 22.1106 9.49011 22.4218 11.1404C23.1291 14.8602 24.0342 18.021 25.109 20.706C25.8445 13.6018 27.0892 8.48328 28.8429 5.32278C29.267 4.53957 29.8894 4.14797 30.7098 4.0918C31.3605 4.03616 31.9544 4.23183 32.4918 4.65138C33.0292 5.07094 33.3121 5.6023 33.3687 6.24574C33.3969 6.74916 33.3121 7.16871 33.086 7.58827C31.9827 9.60218 31.0773 12.9866 30.342 17.6853C29.635 22.2445 29.3803 25.7968 29.5499 28.3421C29.6067 29.0409 29.4934 29.6564 29.2107 30.1881C28.8709 30.8033 28.3621 31.139 27.7114 31.1949C26.9758 31.2508 26.2123 30.9154 25.4768 30.1601C22.8461 27.5028 20.7529 23.5311 19.2255 18.2449C17.3867 21.8249 16.029 24.51 15.1521 26.3C13.4831 29.4608 12.0689 31.0831 10.8807 31.1669C10.1169 31.2228 9.46648 30.5794 8.90083 29.2371C7.4583 25.573 5.90242 18.4964 4.23374 8.00782C4.12039 7.28052 4.29001 6.63708 4.68604 6.13393ZM65.474 10.5252C64.4558 8.76307 62.9565 7.70034 60.9483 7.28052C60.4106 7.16871 59.9018 7.11281 59.4207 7.11281C56.7052 7.11281 54.4989 8.51123 52.7734 11.3084C51.3023 13.6857 50.5671 16.3148 50.5671 19.1958C50.5671 21.3495 51.0196 23.1954 51.9248 24.7339C52.943 26.4959 54.4423 27.5587 56.4505 27.9782C56.9879 28.0903 57.497 28.1462 57.9781 28.1462C60.7219 28.1462 62.9282 26.7478 64.6254 23.9506C66.0962 21.5451 66.8317 18.916 66.8317 16.0353C66.86 13.8536 66.3792 12.0354 65.474 10.5252ZM61.91 18.2728C61.5139 20.1187 60.8067 21.4892 59.7599 22.4122C58.9398 23.1395 58.176 23.447 57.469 23.3072C56.79 23.1674 56.2241 22.5802 55.8001 21.4892C55.4603 20.6222 55.291 19.7551 55.291 18.9439C55.291 18.2449 55.3475 17.5455 55.4888 16.9023C55.7435 15.7555 56.2244 14.6366 56.9879 13.5738C57.9216 12.2031 58.9116 11.6441 59.9298 11.8397C60.6088 11.9795 61.1747 12.567 61.5987 13.6577C61.9382 14.5248 62.1078 15.3918 62.1078 16.203C62.1078 16.9303 62.0513 17.6294 61.91 18.2725V18.2728ZM47.7665 10.5252C46.7483 8.76307 45.2207 7.70034 43.2408 7.28052C42.7034 7.16871 42.1943 7.11281 41.7132 7.11281C38.9977 7.11281 36.7914 8.51123 35.0659 11.3084C33.5951 13.6857 32.8596 16.3148 32.8596 19.1958C32.8596 21.3495 33.3121 23.1954 34.2173 24.7339C35.2355 26.4959 36.7349 27.5587 38.743 27.9782C39.2807 28.0903 39.7895 28.1462 40.2706 28.1462C43.0144 28.1462 45.2207 26.7478 46.9179 23.9506C48.389 21.5451 49.1243 18.916 49.1243 16.0353C49.1243 13.8536 48.6717 12.0354 47.7665 10.5252ZM44.1742 18.2728C43.7782 20.1187 43.0709 21.4892 42.0244 22.4122C41.2041 23.1395 40.4403 23.447 39.733 23.3072C39.0543 23.1674 38.4886 22.5802 38.064 21.4892C37.7248 20.6222 37.5552 19.7551 37.5552 18.9439C37.5552 18.2449 37.6117 17.5455 37.7531 16.9023C38.0078 15.7555 38.4886 14.6366 39.2524 13.5738C40.1858 12.2031 41.1758 11.6441 42.194 11.8397C42.873 11.9795 43.4389 12.567 43.863 13.6577C44.2027 14.5248 44.3721 15.3918 44.3721 16.203C44.4006 16.9303 44.3155 17.6294 44.1742 18.2725V18.2728Z" fill="white"/>
</g>
<defs>
<clipPath id="clip0_206_1426">
<rect width="69.5916" height="41.1223" fill="white" transform="translate(0.720703 0.288086)"/>
</clipPath>
</defs>
</svg>
